<?xml version="1.0" standalone="no"?>
<!DOCTYPE svg PUBLIC "-//W3C//DTD SVG 1.1//EN" "http://www.w3.org/Graphics/SVG/1.1/DTD/svg11.dtd" >
<svg xmlns="http://www.w3.org/2000/svg" xmlns:xlink="http://www.w3.org/1999/xlink" version="1.1">
<metadata>
Created by FontForge 20201107 at Sun Jul 24 17:06:59 2016
 By Jimmy Wärting
Copyright (c) 2015 Swiss Typefaces. All rights reserved.
</metadata>
<defs>
<font id="SuisseIntl-Regular" horiz-adv-x="678" >
  <font-face 
    font-family="Suisse Int'l"
    font-weight="400"
    font-stretch="normal"
    units-per-em="1000"
    panose-1="2 11 5 4 0 0 0 0 0 0"
    ascent="800"
    descent="-200"
    x-height="538"
    cap-height="725"
    bbox="-200 -239 1363 935"
    underline-thickness="70"
    underline-position="-250"
    unicode-range="U+0020-FB02"
  />
<missing-glyph horiz-adv-x="500" 
d="M0 0v725h500v-725h-500zM239 362l-220 334v-667zM260 362l221 -333v667zM250 346l-217 -327h433zM33 706l217 -328l216 328h-433z" />
    <glyph glyph-name=".notdef" horiz-adv-x="500" 
d="M0 0v725h500v-725h-500zM239 362l-220 334v-667zM260 362l221 -333v667zM250 346l-217 -327h433zM33 706l217 -328l216 328h-433z" />
    <glyph glyph-name=".null" horiz-adv-x="0" 
 />
    <glyph glyph-name="nonmarkingreturn" horiz-adv-x="333" 
 />
    <glyph glyph-name="space" unicode=" " horiz-adv-x="237" 
 />
    <glyph glyph-name="exclam" unicode="!" horiz-adv-x="245" 
d="M151 212h-57l-20 294v219h97v-219zM180 0h-115v115h115v-115z" />
    <glyph glyph-name="quotedbl" unicode="&#x22;" horiz-adv-x="309" 
d="M180 725h102l-20 -240h-62zM27 725h102l-20 -240h-62z" />
    <glyph glyph-name="numbersign" unicode="#" horiz-adv-x="666" 
d="M65 538h142l26 187h74l-26 -187h156l26 187h74l-26 -187h134l-10 -71h-134l-24 -174h135l-10 -71h-135l-30 -222h-74l30 222h-156l-30 -222h-74l30 222h-141l10 71h141l24 174h-142zM271 467l-24 -174h156l24 174h-156z" />
    <glyph glyph-name="dollar" unicode="$" horiz-adv-x="587" 
d="M263 811h55v-73q103 -8 162 -68t58 -159h-94q-2 72 -37 108t-89 43v-248l15 -4q49 -13 82.5 -27t68.5 -37.5t53 -60.5t18 -86q0 -96 -67 -150.5t-170 -60.5v-85h-55v85q-104 8 -168 75.5t-62 166.5h94q2 -75 41 -117t95 -49v271l-22 6q-86 23 -137.5 75t-51.5 132
q0 82 61.5 131.5t149.5 58.5v73zM461 185q0 59 -34.5 87t-108.5 48v-257q61 4 102 35.5t41 86.5zM146 549q0 -45 28 -74t88 -46l1 -1v235q-49 -4 -83 -33t-34 -81z" />
    <glyph glyph-name="percent" unicode="%" horiz-adv-x="998" 
d="M200 310q-79 0 -121 57.5t-42 153.5t42 153.5t121 57.5q80 0 122.5 -57.5t42.5 -153.5t-42.5 -153.5t-122.5 -57.5zM200 365q89 0 89 156q0 157 -89 157q-42 0 -64.5 -41t-22.5 -116t22.5 -115.5t64.5 -40.5zM300 0h-101l500 725h101zM800 -7q-79 0 -121 57.5t-42 153.5
t42 153.5t121 57.5q80 0 122.5 -57.5t42.5 -153.5t-42.5 -153.5t-122.5 -57.5zM800 48q89 0 89 156q0 157 -89 157q-42 0 -64.5 -41t-22.5 -116t22.5 -115.5t64.5 -40.5z" />
    <glyph glyph-name="ampersand" unicode="&#x26;" horiz-adv-x="703" 
d="M269 -13q-109 0 -175 60.5t-66 151.5q0 161 183 222q-80 93 -80 164q0 69 54.5 111.5t140.5 42.5q76 0 131 -38t55 -118q0 -127 -150 -188l147 -156q29 68 35 154h94q-11 -126 -65 -221l162 -172h-131l-88 94q-101 -107 -247 -107zM269 66q114 0 189 89l-194 208
q-139 -50 -139 -160q0 -61 42 -99t102 -38zM228 592q0 -59 78 -137l2 -3q54 19 85.5 53t31.5 77q0 42 -27 61.5t-70 19.5q-42 0 -71 -18t-29 -53z" />
    <glyph glyph-name="quotesingle" unicode="'" horiz-adv-x="156" 
d="M27 725h102l-20 -240h-62z" />
    <glyph glyph-name="parenleft" unicode="(" horiz-adv-x="245" 
d="M32 275q0 137 41 253t97 197h75q-119 -190 -119 -450q0 -258 119 -450h-75q-56 81 -97 197t-41 253z" />
    <glyph glyph-name="parenright" unicode=")" horiz-adv-x="245" 
d="M213 275q0 -137 -41 -253t-97 -197h-75q119 192 119 450q0 260 -119 450h75q56 -81 97 -197t41 -253z" />
    <glyph glyph-name="asterisk" unicode="*" horiz-adv-x="352" 
d="M205 725v-119l113 43l23 -56l-115 -40l69 -97l-46 -35l-74 101l-68 -101l-53 34l70 98l-113 40l20 56l113 -43v119h61z" />
    <glyph glyph-name="plus" unicode="+" 
d="M385 0h-91v226h-226v86h226v220h91v-220h226v-86h-226v-226z" />
    <glyph glyph-name="comma" unicode="," horiz-adv-x="245" 
d="M65 0v115h115v-123l-61 -131h-58l53 139h-49z" />
    <glyph glyph-name="hyphen" unicode="-" horiz-adv-x="405" 
d="M361 231h-318v86h318v-86z" />
    <glyph glyph-name="period" unicode="." horiz-adv-x="245" 
d="M180 0h-115v115h115v-115z" />
    <glyph glyph-name="slash" unicode="/" horiz-adv-x="377" 
d="M91 0h-91l285 725h92z" />
    <glyph glyph-name="zero" unicode="0" horiz-adv-x="661" 
d="M515 363q0 149 -48.5 224t-136.5 75q-89 0 -137 -75t-48 -224q0 -150 48 -225t137 -75t137 75t48 225zM612 363q0 -177 -70.5 -276.5t-211.5 -99.5t-211.5 99.5t-70.5 276.5t70.5 276t211.5 99t211.5 -99t70.5 -276z" />
    <glyph glyph-name="one" unicode="1" horiz-adv-x="368" 
d="M271 0h-91v567h-168v62q83 2 125.5 21t71.5 75h62v-725z" />
    <glyph glyph-name="two" unicode="2" horiz-adv-x="590" 
d="M302 738q103 0 166.5 -50t63.5 -140q0 -49 -20.5 -99t-53 -93.5t-84.5 -93t-102 -88.5t-118 -89h398v-85h-522v82q210 155 308 259t98 195q0 58 -36 92t-100 34q-65 0 -109.5 -39.5t-46.5 -123.5h-94q-2 108 67 173.5t185 65.5z" />
    <glyph glyph-name="three" unicode="3" horiz-adv-x="587" 
d="M282 63q74 0 119 36.5t45 103.5q0 138 -209 138h-15v83h12q98 0 145.5 28.5t47.5 91.5q0 56 -40 87t-101 31q-71 0 -111.5 -38.5t-46.5 -102.5h-94q8 98 75 157.5t179 59.5q103 0 169 -45t66 -139q0 -57 -30.5 -101t-87.5 -67q138 -45 138 -182q0 -104 -75.5 -160.5
t-186.5 -56.5q-121 0 -185 64t-73 163h94q9 -70 50 -110.5t115 -40.5z" />
    <glyph glyph-name="four" unicode="4" horiz-adv-x="624" 
d="M377 600l-259 -335h259v335zM602 265v-86h-133v-179h-92v179h-360v86l359 460h93v-460h133z" />
    <glyph glyph-name="five" unicode="5" horiz-adv-x="607" 
d="M302 63q68 0 115 47t47 128q0 84 -48.5 128t-114.5 44q-52 0 -89 -24.5t-51 -55.5l-91 5l47 390h416v-85h-342l-25 -206q58 55 156 55q100 0 169 -67.5t69 -182.5q0 -119 -75 -185.5t-183 -66.5q-118 0 -182.5 63.5t-75.5 159.5h94q24 -147 164 -147z" />
    <glyph glyph-name="six" unicode="6" horiz-adv-x="615" 
d="M153 232q0 -76 43 -122.5t115 -46.5q69 0 114 47.5t45 121.5q0 75 -44.5 123.5t-113.5 48.5q-71 0 -115 -48.5t-44 -123.5zM320 662q-83 0 -128.5 -75.5t-49.5 -204.5q58 101 191 101q102 0 168 -69t66 -177q0 -104 -71 -177t-184 -73q-264 0 -264 350q0 80 15 149
t47 127t88.5 91.5t132.5 33.5q99 0 155 -52t69 -129h-99q-9 49 -44.5 77t-91.5 28z" />
    <glyph glyph-name="seven" unicode="7" horiz-adv-x="513" 
d="M11 640v85h502v-85q-281 -229 -307 -640h-110q24 390 311 640h-396z" />
    <glyph glyph-name="eight" unicode="8" horiz-adv-x="626" 
d="M313 738q110 0 176 -52t66 -133q0 -49 -24.5 -94t-75.5 -73q64 -26 93 -75.5t29 -106.5q0 -101 -74.5 -159t-189.5 -58q-116 0 -190.5 58t-74.5 159q0 57 29 107t94 75q-51 28 -75.5 73t-24.5 94q0 81 66 133t176 52zM313 348q-77 0 -122.5 -40t-45.5 -104t45 -102.5
t123 -38.5q77 0 122.5 38.5t45.5 102.5t-45.5 104t-122.5 40zM463 542q0 54 -41 87t-109 33q-69 0 -110 -33t-41 -87q0 -56 41.5 -91.5t109.5 -35.5q67 0 108.5 36t41.5 91z" />
    <glyph glyph-name="nine" unicode="9" horiz-adv-x="610" 
d="M455 493q0 76 -43 122.5t-114 46.5q-70 0 -114.5 -47.5t-44.5 -121.5q0 -75 44.5 -123t113.5 -48q71 0 114.5 48t43.5 123zM288 63q82 0 128.5 75.5t50.5 204.5q-58 -101 -192 -101q-101 0 -167 69t-66 178q0 104 71 176.5t184 72.5q264 0 264 -350q0 -80 -15.5 -149.5
t-47.5 -127t-88.5 -91t-131.5 -33.5q-99 0 -155 52t-69 129h99q9 -49 44 -77t91 -28z" />
    <glyph glyph-name="colon" unicode=":" horiz-adv-x="245" 
d="M180 423h-115v115h115v-115zM180 0h-115v115h115v-115z" />
    <glyph glyph-name="semicolon" unicode=";" horiz-adv-x="245" 
d="M65 0v115h115v-123l-61 -131h-58l53 139h-49zM180 423h-115v115h115v-115z" />
    <glyph glyph-name="less" unicode="&#x3c;" 
d="M78 307l513 227v-98l-399 -168l399 -165v-97l-513 223v78z" />
    <glyph glyph-name="equal" unicode="=" 
d="M590 332h-501v87h501v-87zM590 130h-501v86h501v-86z" />
    <glyph glyph-name="greater" unicode="&#x3e;" 
d="M601 307v-78l-513 -223v97l399 165l-399 168v98z" />
    <glyph glyph-name="question" unicode="?" horiz-adv-x="499" 
d="M258 738q93 0 159.5 -45.5t66.5 -130.5q0 -121 -135 -206q-50 -33 -67 -53.5t-17 -59.5v-31h-93v34q0 60 27.5 94.5t96.5 79.5q93 59 93 138q0 47 -37 75.5t-96 28.5q-76 0 -112.5 -42t-39.5 -97h-91q0 96 69 155.5t176 59.5zM278 0h-115v115h115v-115z" />
    <glyph glyph-name="at" unicode="@" horiz-adv-x="849" 
d="M614 153q-41 0 -70.5 24t-35.5 68q-45 -89 -152 -89q-63 0 -105.5 45t-42.5 134q0 92 56.5 162t148.5 70q84 0 115 -76l8 59h71l-29 -218q-16 -107 42 -107q40 0 67.5 48t27.5 129q0 122 -76 187.5t-202 65.5q-137 0 -224 -88t-87 -221q0 -125 73 -204.5t199 -79.5
q109 0 194 43l28 -69q-104 -49 -222 -49q-156 0 -254 102.5t-98 259.5q0 160 113 268t280 108q100 0 177.5 -33t126.5 -106.5t49 -179.5q0 -117 -52.5 -185t-125.5 -68zM414 492q-54 0 -86.5 -46.5t-32.5 -111.5q0 -105 83 -105q57 0 90 48t33 117q0 47 -22.5 72.5
t-64.5 25.5z" />
    <glyph glyph-name="A" unicode="A" horiz-adv-x="660" 
d="M0 0l269 725h118l273 -725h-110l-57 157h-333l-56 -157h-104zM325 622l-134 -378h270z" />
    <glyph glyph-name="B" unicode="B" horiz-adv-x="672" 
d="M86 0v725h261q255 0 255 -179q0 -52 -21 -95.5t-59 -64.5q110 -46 110 -172q0 -109 -72 -161.5t-188 -52.5h-286zM188 334v-248h185q154 0 154 127q0 64 -38 92.5t-122 28.5h-179zM188 639v-224h175q136 0 136 117q0 54 -36 80.5t-100 26.5h-175z" />
    <glyph glyph-name="C" unicode="C" horiz-adv-x="726" 
d="M595 231h99q-23 -117 -108 -180.5t-206 -63.5q-153 0 -241 104.5t-88 272.5t92 271t245 103q114 0 196 -64.5t106 -179.5h-99q-16 71 -70.5 114.5t-137.5 43.5q-100 0 -164 -76t-64 -212t64 -213.5t167 -77.5q85 0 138 42.5t71 115.5z" />
    <glyph glyph-name="D" unicode="D" horiz-adv-x="730" 
d="M575 363q0 71 -17 123t-43 81t-67 45.5t-78.5 21.5t-88.5 5h-93v-553h93q51 0 88.5 5t78.5 21.5t67 46t43 81t17 123.5zM86 725h198q90 0 159 -18.5t123.5 -59t83.5 -112.5t29 -172q0 -195 -104.5 -279t-290.5 -84h-198v725z" />
    <glyph glyph-name="E" unicode="E" horiz-adv-x="613" 
d="M86 0v725h492v-88h-390v-220h367v-88h-367v-241h390v-88h-492z" />
    <glyph glyph-name="F" unicode="F" horiz-adv-x="560" 
d="M86 0v725h471v-88h-369v-220h348v-88h-348v-329h-102z" />
    <glyph glyph-name="G" unicode="G" horiz-adv-x="770" 
d="M388 738q114 0 196 -60t104 -164h-99q-19 64 -70.5 101t-135.5 37q-100 0 -164 -76t-64 -212q0 -135 63 -213t165 -78q39 0 74.5 9t68 29.5t52 59t19.5 92.5v19h-192v88h288v-370h-80l-5 91q-65 -104 -229 -104q-153 0 -240.5 104.5t-87.5 272.5t92 271t245 103z" />
    <glyph glyph-name="H" unicode="H" horiz-adv-x="757" 
d="M569 725h102v-725h-102v329h-381v-329h-102v725h102v-308h381v308z" />
    <glyph glyph-name="I" unicode="I" horiz-adv-x="274" 
d="M188 725v-725h-102v725h102z" />
    <glyph glyph-name="J" unicode="J" horiz-adv-x="552" 
d="M364 231v494h102v-495q0 -119 -59.5 -181t-168.5 -62t-168 60t-59 177h95q0 -72 37.5 -113t94.5 -41q126 0 126 161z" />
    <glyph glyph-name="K" unicode="K" horiz-adv-x="666" 
d="M188 725v-365l327 365h127l-271 -296l302 -429h-122l-249 354l-114 -126v-228h-102v725h102z" />
    <glyph glyph-name="L" unicode="L" horiz-adv-x="571" 
d="M188 725v-637h383v-88h-485v725h102z" />
    <glyph glyph-name="M" unicode="M" horiz-adv-x="884" 
d="M496 0h-108l-200 632v-632h-102v725h171l185 -604l185 604h171v-725h-102v632z" />
    <glyph glyph-name="N" unicode="N" horiz-adv-x="755" 
d="M669 0h-149l-332 619v-619h-102v725h150l331 -617v617h102v-725z" />
    <glyph glyph-name="O" unicode="O" horiz-adv-x="782" 
d="M155 363q0 -136 66.5 -213t169.5 -77t169.5 77t66.5 213t-66.5 212.5t-169.5 76.5t-169.5 -76.5t-66.5 -212.5zM731 363q0 -166 -93 -271t-247 -105t-247 105t-93 271t93 270.5t247 104.5t247 -104.5t93 -270.5z" />
    <glyph glyph-name="P" unicode="P" horiz-adv-x="636" 
d="M86 725h227q147 0 224 -47t77 -172q0 -66 -21.5 -110t-63.5 -67.5t-93.5 -32.5t-122.5 -9h-125v-287h-102v725zM321 639h-133v-263h133q47 0 76 4t57.5 16.5t42 39.5t13.5 70t-13.5 70.5t-41.5 40.5t-58.5 17.5t-75.5 4.5z" />
    <glyph glyph-name="Q" unicode="Q" horiz-adv-x="782" 
d="M731 363q0 -160 -86 -263l86 -86l-62 -62l-89 89q-80 -54 -189 -54q-154 0 -247 105t-93 271t93 270.5t247 104.5t247 -104.5t93 -270.5zM155 363q0 -136 66.5 -213t169.5 -77q66 0 122 35l-67 67l62 63l67 -68q52 76 52 193q0 136 -66.5 212.5t-169.5 76.5t-169.5 -76.5
t-66.5 -212.5z" />
    <glyph glyph-name="R" unicode="R" horiz-adv-x="679" 
d="M528 0l-157 306q-19 -1 -55 -1h-128v-305h-102v725h230q72 0 122.5 -8.5t93.5 -30.5t64.5 -64.5t21.5 -105.5q0 -155 -144 -194l168 -322h-114zM324 639h-136v-248h136q46 0 75.5 3.5t58 15.5t42 38t13.5 66q0 33 -10 56t-25.5 36.5t-41.5 21t-51 9.5t-61 2z" />
    <glyph glyph-name="S" unicode="S" horiz-adv-x="641" 
d="M56 540q0 65 42 112t99.5 66.5t120.5 19.5q105 0 179.5 -49.5t95.5 -148.5h-99q-17 58 -68 85t-112 27q-54 0 -104 -26t-50 -80q0 -85 118 -111l84 -19q39 -8 68.5 -17t64.5 -26t57.5 -38t38 -55t15.5 -76q0 -101 -80.5 -159t-195.5 -58q-127 0 -205.5 64t-92.5 174h100
q29 -152 200 -152q80 0 124.5 33.5t44.5 88.5q0 54 -39.5 82t-116.5 46l-90 19q-86 19 -142.5 67t-56.5 131z" />
    <glyph glyph-name="T" unicode="T" horiz-adv-x="574" 
d="M236 0v637h-236v88h574v-88h-236v-637h-102z" />
    <glyph glyph-name="U" unicode="U" horiz-adv-x="731" 
d="M75 725h102v-441q0 -109 43.5 -159t143.5 -50q101 0 145.5 54.5t44.5 165.5v430h102v-422q0 -162 -68.5 -239t-223.5 -77q-153 0 -221 70.5t-68 237.5v430z" />
    <glyph glyph-name="V" unicode="V" horiz-adv-x="638" 
d="M11 725h112l201 -620l197 620h107l-246 -725h-122z" />
    <glyph glyph-name="W" unicode="W" horiz-adv-x="922" 
d="M522 725l143 -609l134 609h107l-181 -725h-124l-140 596l-137 -596h-124l-184 725h112l140 -609l134 609h120z" />
    <glyph glyph-name="X" unicode="X" horiz-adv-x="656" 
d="M0 0l269 373l-251 352h121l191 -268l193 268h115l-251 -348l269 -377h-120l-210 293l-211 -293h-115z" />
    <glyph glyph-name="Y" unicode="Y" horiz-adv-x="624" 
d="M0 725h112l198 -354l202 354h112l-266 -444v-281h-102v283z" />
    <glyph glyph-name="Z" unicode="Z" horiz-adv-x="633" 
d="M588 725v-88l-426 -549h442v-88h-563v88l427 549h-394v88h514z" />
    <glyph glyph-name="bracketleft" unicode="[" horiz-adv-x="316" 
d="M81 725h225v-77h-137v-746h137v-77h-225v900z" />
    <glyph glyph-name="backslash" unicode="\" horiz-adv-x="377" 
d="M91 725l286 -725h-92l-285 725h91z" />
    <glyph glyph-name="bracketright" unicode="]" horiz-adv-x="316" 
d="M10 725h225v-900h-225v77h137v746h-137v77z" />
    <glyph glyph-name="asciicircum" unicode="^" horiz-adv-x="441" 
d="M257 725l205 -387h-98l-146 273l-143 -273h-97l201 387h78z" />
    <glyph glyph-name="underscore" unicode="_" horiz-adv-x="458" 
d="M426 -87h-394v86h394v-86z" />
    <glyph glyph-name="grave" unicode="`" horiz-adv-x="251" 
d="M152 609l-130 116h116l91 -116h-77z" />
    <glyph glyph-name="a" unicode="a" horiz-adv-x="559" 
d="M411 225v34q-137 -13 -203.5 -38t-66.5 -77q0 -39 28 -62t76 -23q72 0 119 39t47 127zM225 -13q-79 0 -132 41.5t-53 113.5q0 46 24.5 79t76 54.5t112.5 33.5t151 22v13q0 131 -122 131q-56 0 -88 -28t-35 -79h-94q6 83 69.5 132t146.5 49q113 0 164 -53.5t50 -168.5
l-1 -124q-1 -131 14 -203h-92q-6 39 -7 74q-51 -87 -184 -87z" />
    <glyph glyph-name="b" unicode="b" horiz-adv-x="601" 
d="M159 267q0 -100 45.5 -151t111.5 -51q71 0 112.5 52.5t41.5 149.5t-41.5 149.5t-112.5 52.5q-66 0 -111.5 -51t-45.5 -151zM72 725h91v-272q54 94 176 94q97 0 163.5 -76t66.5 -204q0 -129 -66.5 -204.5t-163.5 -75.5q-122 0 -176 94v-81h-91v725z" />
    <glyph glyph-name="c" unicode="c" horiz-adv-x="557" 
d="M295 547q93 0 153.5 -57t71.5 -132h-92q-10 48 -48 78.5t-91 30.5q-65 0 -110 -51t-45 -147q0 -97 45 -149.5t110 -52.5q55 0 94 31.5t49 76.5h94q-15 -78 -81.5 -133t-158.5 -55q-115 0 -183 78t-68 203q0 122 71 200.5t189 78.5z" />
    <glyph glyph-name="d" unicode="d" horiz-adv-x="604" 
d="M441 453v272h91v-725h-91v81q-54 -94 -176 -94q-97 0 -163.5 75.5t-66.5 204.5q0 128 66.5 204t163.5 76q122 0 176 -94zM445 267q0 100 -45.5 151t-111.5 51q-71 0 -112.5 -52.5t-41.5 -149.5t41.5 -149.5t112.5 -52.5q66 0 111.5 51t45.5 151z" />
    <glyph glyph-name="e" unicode="e" horiz-adv-x="581" 
d="M547 239h-414q2 -82 51.5 -127t114.5 -45q108 0 147 89h94q-19 -73 -83 -121t-158 -48q-124 0 -194 79t-70 202q0 126 74 202.5t187 76.5q121 0 190 -88.5t61 -219.5zM296 469q-65 0 -110.5 -38t-51.5 -114h317q-2 61 -44 106.5t-111 45.5z" />
    <glyph glyph-name="f" unicode="f" horiz-adv-x="313" 
d="M95 538v39q0 87 27.5 117.5t117.5 30.5h47v-76h-45q-36 0 -46 -12.5t-10 -54.5v-44h101v-73h-101v-465h-91v465h-75v73h75z" />
    <glyph glyph-name="g" unicode="g" horiz-adv-x="597" 
d="M434 453v85h91v-466q0 -133 -51 -189q-62 -71 -186 -71q-94 0 -151 41.5t-70 123.5h97q19 -85 125 -85q73 0 110 40q17 19 26 43.5t9 75.5v51q-54 -93 -171 -93q-94 0 -161 72.5t-67 196.5t67 196.5t161 72.5q117 0 171 -94zM438 278q0 96 -43.5 143.5t-108.5 47.5
q-69 0 -110.5 -50t-41.5 -141q0 -92 41.5 -142t110.5 -50q65 0 108.5 48t43.5 144z" />
    <glyph glyph-name="h" unicode="h" horiz-adv-x="578" 
d="M163 725v-268q55 90 174 90q177 0 177 -207v-340h-91v313q0 74 -23.5 114.5t-94.5 40.5q-67 0 -104.5 -45t-37.5 -131v-292h-91v725h91z" />
    <glyph glyph-name="i" unicode="i" horiz-adv-x="235" 
d="M72 538h91v-538h-91v538zM72 725h91v-110h-91v110z" />
    <glyph glyph-name="j" unicode="j" horiz-adv-x="235" 
d="M72 -29v567h91v-565q0 -86 -25.5 -117t-101.5 -31h-46v76h26q35 0 45.5 13.5t10.5 56.5zM72 725h91v-110h-91v110z" />
    <glyph glyph-name="k" unicode="k" horiz-adv-x="505" 
d="M72 725h91v-429l217 242h112l-205 -223l233 -315h-111l-183 248l-63 -68v-180h-91v725z" />
    <glyph glyph-name="l" unicode="l" horiz-adv-x="235" 
d="M163 725v-725h-91v725h91z" />
    <glyph glyph-name="m" unicode="m" horiz-adv-x="899" 
d="M163 292v-292h-91v538h91v-81q55 90 162 90q117 0 155 -95q61 95 181 95q174 0 174 -207v-340h-91v313q0 73 -23.5 114t-91.5 41q-61 0 -95.5 -45t-34.5 -131v-292h-91v313q0 73 -23.5 114t-91.5 41q-61 0 -95.5 -45t-34.5 -131z" />
    <glyph glyph-name="n" unicode="n" horiz-adv-x="578" 
d="M163 538v-81q55 90 174 90q177 0 177 -207v-340h-91v313q0 74 -23.5 114.5t-94.5 40.5q-67 0 -104.5 -45t-37.5 -131v-292h-91v538h91z" />
    <glyph glyph-name="o" unicode="o" horiz-adv-x="590" 
d="M134 267q0 -101 46 -150.5t115 -49.5q68 0 114.5 51t46.5 149q0 101 -46 150.5t-115 49.5t-115 -48.5t-46 -151.5zM295 547q104 0 181 -72t77 -208t-77 -208t-181 -72t-181 72t-77 208t77 208t181 72z" />
    <glyph glyph-name="p" unicode="p" horiz-adv-x="604" 
d="M72 538h91v-85q54 94 176 94q97 0 163.5 -76t66.5 -204q0 -129 -66.5 -204.5t-163.5 -75.5q-122 0 -176 94v-256h-91v713zM159 267q0 -100 45.5 -151t111.5 -51q71 0 112.5 52.5t41.5 149.5t-41.5 149.5t-112.5 52.5q-66 0 -111.5 -51t-45.5 -151z" />
    <glyph glyph-name="q" unicode="q" horiz-adv-x="604" 
d="M441 453v85h91v-713h-91v256q-54 -94 -176 -94q-97 0 -163.5 75.5t-66.5 204.5q0 128 66.5 204t163.5 76q122 0 176 -94zM445 267q0 100 -45.5 151t-111.5 51q-71 0 -112.5 -52.5t-41.5 -149.5t41.5 -149.5t112.5 -52.5q66 0 111.5 51t45.5 151z" />
    <glyph glyph-name="r" unicode="r" horiz-adv-x="355" 
d="M340 540v-97q-25 4 -51 4q-65 0 -95.5 -38.5t-30.5 -126.5v-282h-91v538h89v-94q41 92 152 97q16 0 27 -1z" />
    <glyph glyph-name="s" unicode="s" horiz-adv-x="525" 
d="M475 381h-95q-21 89 -127 89q-45 0 -79 -17.5t-34 -50.5q0 -31 20.5 -47.5t61.5 -25.5l76 -15q85 -16 134.5 -52.5t49.5 -107.5q0 -78 -62 -122.5t-157 -44.5q-99 0 -160.5 55.5t-70.5 131.5h96q24 -110 137 -110q54 0 89.5 21.5t35.5 58.5q0 38 -28.5 57.5t-80.5 31.5
l-80 16q-68 15 -110.5 48t-42.5 101q0 69 61.5 109.5t153.5 40.5q88 0 143.5 -44.5t68.5 -122.5z" />
    <glyph glyph-name="t" unicode="t" horiz-adv-x="325" 
d="M98 538v135h91v-135h102v-73h-102v-319q0 -44 9.5 -57t46.5 -13h46v-76h-66q-78 0 -102.5 26t-24.5 109v330h-85v73h85z" />
    <glyph glyph-name="u" unicode="u" horiz-adv-x="568" 
d="M405 0v77q-55 -90 -169 -90q-172 0 -172 207v344h91v-317q0 -74 22.5 -114.5t90.5 -40.5q66 0 101.5 44.5t35.5 131.5v296h91v-538h-91z" />
    <glyph glyph-name="v" unicode="v" horiz-adv-x="487" 
d="M101 538l146 -412l146 412h94l-203 -538h-81l-203 538h101z" />
    <glyph glyph-name="w" unicode="w" horiz-adv-x="720" 
d="M206 140l107 398h94l107 -398l103 398h98l-155 -538h-83l-119 433l-115 -433h-83l-155 538h98z" />
    <glyph glyph-name="x" unicode="x" horiz-adv-x="520" 
d="M494 538l-183 -257l201 -281h-109l-146 205l-145 -205h-104l198 277l-186 261h109l131 -185l132 185h102z" />
    <glyph glyph-name="y" unicode="y" horiz-adv-x="466" 
d="M371 538h95l-192 -561q-22 -63 -40.5 -92.5t-52.5 -44.5t-94 -15h-47v76h37q51 0 73.5 15t39.5 73l4 11l-194 538h101l137 -415z" />
    <glyph glyph-name="z" unicode="z" horiz-adv-x="488" 
d="M33 0v79l311 380h-291v79h397v-79l-310 -380h316v-79h-423z" />
    <glyph glyph-name="braceleft" unicode="{" horiz-adv-x="290" 
d="M280 -175h-47q-90 0 -118 30.5t-28 117.5v163q0 52 -15 77.5t-61 25.5v73q46 0 61 25.5t15 77.5v162q0 87 28 117.5t118 30.5h47v-77h-45q-35 0 -45.5 -13.5t-10.5 -56.5v-165q0 -65 -20.5 -95.5t-63.5 -40.5v-3q43 -10 63.5 -40.5t20.5 -95.5v-166q0 -43 10.5 -56.5
t45.5 -13.5h45v-77z" />
    <glyph glyph-name="bar" unicode="|" horiz-adv-x="255" 
d="M86 725h83v-815h-83v815z" />
    <glyph glyph-name="braceright" unicode="}" horiz-adv-x="290" 
d="M10 -175v77h45q35 0 45.5 13.5t10.5 56.5v166q0 65 20.5 95.5t63.5 40.5v3q-43 10 -63.5 40.5t-20.5 95.5v165q0 43 -10.5 56.5t-45.5 13.5h-45v77h47q90 0 118 -30.5t28 -117.5v-162q0 -52 15 -77.5t61 -25.5v-73q-46 0 -61 -25.5t-15 -77.5v-163q0 -87 -28 -117.5
t-118 -30.5h-47z" />
    <glyph glyph-name="asciitilde" unicode="~" 
d="M452 286q28 0 47 18.5t22 50.5h85q-5 -67 -46 -107.5t-108 -40.5q-43 0 -118.5 34t-107.5 34q-29 0 -48 -18t-21 -50h-85q4 67 45 107.5t109 40.5q52 0 126 -34.5t100 -34.5z" />
    <glyph glyph-name="uni00A0" unicode="&#xa0;" horiz-adv-x="237" 
 />
    <glyph glyph-name="exclamdown" unicode="&#xa1;" horiz-adv-x="245" 
d="M171 33v-208h-97v208l20 293h57zM180 423h-115v115h115v-115z" />
    <glyph glyph-name="cent" unicode="&#xa2;" horiz-adv-x="546" 
d="M259 628h46v-81q88 -4 143 -60t66 -129h-92q-9 45 -39.5 74t-77.5 34v-398q49 5 80 35t41 72h94q-12 -74 -71 -126.5t-144 -60.5v-85h-46v85q-105 8 -164.5 85t-59.5 195q0 114 59.5 189.5t164.5 87.5v83zM134 269q0 -88 34.5 -139t90.5 -61v395q-56 -10 -90.5 -59
t-34.5 -136z" />
    <glyph glyph-name="sterling" unicode="&#xa3;" horiz-adv-x="571" 
d="M298 661q-55 0 -97 -26.5t-42 -83.5q0 -25 9.5 -54.5t17.5 -46.5t27 -54h193v-65h-164q14 -42 14 -74q0 -97 -106 -161l1 -2q37 13 68 13q26 0 83.5 -19.5t94.5 -19.5q55 0 120 27l27 -79q-58 -33 -139 -33q-38 0 -103.5 20t-105.5 20q-76 0 -146 -40l-30 73q20 9 41 23
t45 37t39 56t15 70q0 43 -18 89h-121v65h91q-18 37 -25.5 53t-16 47t-8.5 59q0 92 71 137.5t169 45.5q114 0 179 -64.5t63 -169.5h-94q-4 157 -152 157z" />
    <glyph glyph-name="currency" unicode="&#xa4;" horiz-adv-x="636" 
d="M79 346q0 78 44 139l-69 70l49 49l68 -68q63 49 144 49q83 0 147 -51l71 70l49 -49l-72 -72q44 -64 44 -137q0 -76 -44 -137l72 -71l-49 -49l-71 70q-65 -49 -147 -49q-81 0 -143 48l-69 -69l-49 49l69 70q-44 61 -44 138zM162 346q0 -69 43 -115t109 -46q69 0 114.5 46
t45.5 115q0 70 -45.5 117.5t-114.5 47.5q-66 0 -109 -47.5t-43 -117.5z" />
    <glyph glyph-name="yen" unicode="&#xa5;" horiz-adv-x="603" 
d="M514 111h-171v-111h-92v111h-163v64h163v76h-163v64h138l-231 410h107l198 -375l202 375h106l-239 -410h145v-64h-171v-76h171v-64z" />
    <glyph glyph-name="brokenbar" unicode="&#xa6;" horiz-adv-x="227" 
d="M72 725h83v-305h-83v305zM72 215h83v-305h-83v305z" />
    <glyph glyph-name="section" unicode="&#xa7;" horiz-adv-x="580" 
d="M288 -109q49 0 78.5 19t29.5 54q0 32 -19.5 54t-76.5 54l-130 69q-133 72 -133 174q0 51 36.5 89t93.5 57q-81 53 -81 136q0 68 58 104.5t137 36.5q89 0 143.5 -43t66.5 -117h-95q-15 84 -119 84q-45 0 -71.5 -16.5t-26.5 -44.5q0 -27 18 -47t63 -44l137 -74
q74 -38 110.5 -76.5t36.5 -96.5q0 -53 -33.5 -95.5t-90.5 -66.5q69 -51 69 -123q0 -77 -58.5 -120t-144.5 -43q-95 0 -153 49t-65 137h94q18 -110 126 -110zM350 362l-111 59q-46 -14 -79 -40t-33 -60q0 -30 18 -53t61 -46l137 -74l10 -6q100 44 100 105q0 34 -23.5 59.5
t-79.5 55.5z" />
    <glyph glyph-name="dieresis" unicode="&#xa8;" horiz-adv-x="365" 
d="M22 626v99h91v-99h-91zM251 725h92v-99h-92v99z" />
    <glyph glyph-name="copyright" unicode="&#xa9;" horiz-adv-x="825" 
d="M38 361q0 165 108 271t267 106q158 0 266 -106t108 -271q0 -164 -108 -269t-266 -105q-159 0 -267 105t-108 269zM112 361q0 -136 86.5 -221.5t214.5 -85.5q130 0 215 85.5t85 221.5q0 138 -85 224t-215 86q-128 0 -214.5 -86.5t-86.5 -223.5zM412 227q81 0 101 75
l76 -20q-17 -52 -62.5 -85.5t-114.5 -33.5q-91 0 -139.5 54.5t-48.5 153.5q0 98 50.5 151.5t140.5 53.5q69 0 112.5 -35t58.5 -92l-75 -21q-10 41 -36.5 63t-62.5 22q-48 0 -77 -36t-29 -106t29 -107t77 -37z" />
    <glyph glyph-name="ordfeminine" unicode="&#xaa;" horiz-adv-x="345" 
d="M241 480q-26 -49 -101 -49q-52 0 -81.5 24t-29.5 64q0 29 15.5 49.5t46 32t63 17.5t77.5 9v13q0 58 -64 58q-23 0 -39.5 -13t-18.5 -39h-71q3 47 39.5 76t95.5 29q131 0 131 -129q-2 -46 -2 -89q2 -68 6 -95h-66q-1 19 -1 42zM150 486q81 0 81 77v12q-75 -9 -100.5 -19
t-25.5 -34q0 -17 13 -26.5t32 -9.5z" />
    <glyph glyph-name="guillemotleft" unicode="&#xab;" horiz-adv-x="514" 
d="M169 44l-159 229l159 228h98l-150 -228l150 -229h-98zM394 44l-159 229l159 228h98l-150 -228l150 -229h-98z" />
    <glyph glyph-name="logicalnot" unicode="&#xac;" 
d="M488 344h-430v86h522v-332h-92v246z" />
    <glyph glyph-name="uni00AD" unicode="&#xad;" horiz-adv-x="405" 
d="M361 231h-318v86h318v-86z" />
    <glyph glyph-name="registered" unicode="&#xae;" horiz-adv-x="825" 
d="M38 361q0 165 108 271t267 106q158 0 266 -106t108 -271q0 -164 -108 -269t-266 -105q-159 0 -267 105t-108 269zM112 361q0 -136 86.5 -221.5t214.5 -85.5q130 0 215 85.5t85 221.5q0 138 -85 224t-215 86q-128 0 -214.5 -86.5t-86.5 -223.5zM506 176l-81 152h-18h-58
v-152h-82v399h122q96 0 142 -25.5t46 -98.5q0 -74 -72 -106l92 -169h-91zM495 450q0 34 -23.5 47t-69.5 13h-53v-119h58q88 0 88 59z" />
    <glyph glyph-name="overscore" unicode="&#xaf;" horiz-adv-x="344" 
d="M322 635h-300v75h300v-75z" />
    <glyph glyph-name="degree" unicode="&#xb0;" horiz-adv-x="337" 
d="M22 591q0 61 43 104t103 43q62 0 105 -42.5t43 -104.5q0 -61 -43 -104t-105 -43q-60 0 -103 43t-43 104zM95 591q0 -33 20.5 -56t52.5 -23q33 0 54.5 23t21.5 56t-21.5 56t-54.5 23q-32 0 -52.5 -23t-20.5 -56z" />
    <glyph glyph-name="plusminus" unicode="&#xb1;" 
d="M293 377v155h92v-155h215v-86h-215v-156h-92v156h-215v86h215zM600 0h-522v86h522v-86z" />
    <glyph glyph-name="twosuperior" unicode="&#xb2;" horiz-adv-x="348" 
d="M177 853q59 0 97 -29t38 -79q0 -59 -50.5 -117.5t-151.5 -126.5h211v-63h-299v59q114 90 164 143.5t50 99.5q0 29 -17 44t-45 15q-31 0 -51.5 -21t-19.5 -64h-73q-1 63 39 101t108 38z" />
    <glyph glyph-name="threesuperior" unicode="&#xb3;" horiz-adv-x="361" 
d="M178 486q35 0 57 18t22 49q0 68 -95 68h-24v59h20q90 0 90 61q0 28 -19.5 43t-48.5 15q-70 0 -81 -77h-70q5 61 46 96t110 35q56 0 96.5 -27.5t40.5 -81.5q0 -29 -15.5 -53t-41.5 -37q32 -14 49.5 -40.5t17.5 -58.5q0 -60 -44.5 -92t-110.5 -32q-67 0 -108 39t-45 97h70
q6 -36 26.5 -58.5t57.5 -22.5z" />
    <glyph glyph-name="acute" unicode="&#xb4;" horiz-adv-x="251" 
d="M229 725l-131 -116h-76l90 116h117z" />
    <glyph glyph-name="mu" unicode="&#xb5;" horiz-adv-x="574" 
d="M149 -175h-90q11 55 11 158v555h91v-316q0 -85 27.5 -120t88.5 -35q64 0 98.5 44t34.5 128v299h91v-538h-91v74q-23 -39 -57 -63t-72 -24q-77 0 -120 60v-56q0 -107 -12 -166z" />
    <glyph glyph-name="mu" unicode="&#x3bc;" horiz-adv-x="574" 
d="M149 -175h-90q11 55 11 158v555h91v-316q0 -85 27.5 -120t88.5 -35q64 0 98.5 44t34.5 128v299h91v-538h-91v74q-23 -39 -57 -63t-72 -24q-77 0 -120 60v-56q0 -107 -12 -166z" />
    <glyph glyph-name="paragraph" unicode="&#xb6;" horiz-adv-x="521" 
d="M0 537q0 91 60.5 139.5t180.5 48.5h208v-814h-76v744h-121v-744h-76v449q-74 9 -125 54t-51 123z" />
    <glyph glyph-name="middot" unicode="&#xb7;" horiz-adv-x="245" 
d="M180 212h-115v115h115v-115z" />
    <glyph glyph-name="cedilla" unicode="&#xb8;" horiz-adv-x="245" 
d="M22 -176l16 40q30 -14 58 -14q61 0 61 32q0 30 -44 30q-24 0 -38 -9l-30 17l51 83h53l-32 -51q15 3 30 3q36 0 56 -18.5t20 -49.5q0 -37 -33 -59.5t-75 -22.5q-54 0 -93 19z" />
    <glyph glyph-name="onesuperior" unicode="&#xb9;" horiz-adv-x="232" 
d="M176 438h-74v308h-89v50q49 1 71.5 10t36.5 40h55v-408z" />
    <glyph glyph-name="ordmasculine" unicode="&#xba;" horiz-adv-x="355" 
d="M178 489q35 0 55 25t20 75q0 49 -20 75t-55 26q-33 0 -53.5 -26.5t-20.5 -74.5q0 -49 20.5 -74.5t53.5 -25.5zM178 431q-62 0 -105.5 40.5t-43.5 117.5t43 118t106 41t106 -41t43 -118t-43.5 -117.5t-105.5 -40.5z" />
    <glyph glyph-name="guillemotright" unicode="&#xbb;" horiz-adv-x="514" 
d="M279 273l-159 -229h-98l151 229l-151 228h98zM504 273l-159 -229h-98l151 229l-151 228h98z" />
    <glyph glyph-name="onequarter" unicode="&#xbc;" horiz-adv-x="810" 
d="M176 317h-74v308h-89v50q49 1 71.5 10t36.5 40h55v-408zM133 0h-101l500 725h101zM650 314l-122 -159h122v159zM794 155v-61h-70v-94h-74v94h-201v58l202 256h73v-253h70z" />
    <glyph glyph-name="onehalf" unicode="&#xbd;" horiz-adv-x="780" 
d="M176 317h-74v308h-89v50q49 1 71.5 10t36.5 40h55v-408zM133 0h-101l500 725h101zM610 415q59 0 97 -29t38 -79q0 -59 -50.5 -117.5t-151.5 -126.5h211v-63h-299v59q114 90 164 143.5t50 99.5q0 29 -17 44t-45 15q-31 0 -51.5 -21t-19.5 -64h-73q-1 63 39 101t108 38z
" />
    <glyph glyph-name="threequarters" unicode="&#xbe;" horiz-adv-x="939" 
d="M178 365q35 0 57 18t22 49q0 68 -95 68h-24v59h20q90 0 90 61q0 28 -19.5 43t-48.5 15q-70 0 -81 -77h-70q5 61 46 96t110 35q56 0 96.5 -27.5t40.5 -81.5q0 -29 -15.5 -53t-41.5 -37q32 -14 49.5 -40.5t17.5 -58.5q0 -60 -44.5 -92t-110.5 -32q-67 0 -108 39t-45 97h70
q6 -36 26.5 -58.5t57.5 -22.5zM262 0h-101l500 725h101zM779 314l-122 -159h122v159zM923 155v-61h-70v-94h-74v94h-201v58l202 256h73v-253h70z" />
    <glyph glyph-name="questiondown" unicode="&#xbf;" horiz-adv-x="499" 
d="M238 -189q-92 0 -158.5 45t-66.5 131q0 34 10.5 63t34 55t38.5 39.5t48 39.5q5 3 21 15t21 16t16 14.5t14.5 18.5t7.5 20.5t4 26.5v31h93v-34q0 -22 -6 -42t-11.5 -32.5t-23 -29t-23.5 -21.5t-30.5 -22.5t-28.5 -20.5q-31 -24 -45 -37t-29 -39.5t-15 -57.5
q0 -47 36.5 -73t97.5 -26q74 0 108.5 41.5t37.5 93.5h91q0 -96 -68.5 -155.5t-173.5 -59.5zM330 423h-115v115h115v-115z" />
    <glyph glyph-name="Agrave" unicode="&#xc0;" horiz-adv-x="660" 
d="M0 0l269 725h118l273 -725h-110l-57 157h-333l-56 -157h-104zM325 622l-134 -378h270zM285 773l-148 113h129l110 -113h-91z" />
    <glyph glyph-name="Aacute" unicode="&#xc1;" horiz-adv-x="660" 
d="M0 0l269 725h118l273 -725h-110l-57 157h-333l-56 -157h-104zM325 622l-134 -378h270zM524 886l-149 -113h-90l110 113h129z" />
    <glyph glyph-name="Acircumflex" unicode="&#xc2;" horiz-adv-x="660" 
d="M0 0l269 725h118l273 -725h-110l-57 157h-333l-56 -157h-104zM325 622l-134 -378h270zM373 886l132 -113h-107l-68 56l-68 -56h-107l135 113h83z" />
    <glyph glyph-name="Atilde" unicode="&#xc3;" horiz-adv-x="660" 
d="M0 0l269 725h118l273 -725h-110l-57 157h-333l-56 -157h-104zM325 622l-134 -378h270zM396 840q41 0 47 45h71q-11 -59 -42 -86t-74 -27q-33 0 -75 23.5t-61 23.5q-40 0 -45 -44h-71q9 56 40 84t75 28q32 0 73 -23.5t62 -23.5z" />
    <glyph glyph-name="Adieresis" unicode="&#xc4;" horiz-adv-x="660" 
d="M0 0l269 725h118l273 -725h-110l-57 157h-333l-56 -157h-104zM325 622l-134 -378h270zM170 879h91v-99h-91v99zM399 879h92v-99h-92v99z" />
    <glyph glyph-name="Aring" unicode="&#xc5;" horiz-adv-x="660" 
d="M0 0l269 725h118l273 -725h-110l-57 157h-333l-56 -157h-104zM325 622l-134 -378h270zM330 935q39 0 65 -23.5t26 -61.5q0 -37 -26 -61t-65 -24q-38 0 -64 24t-26 61t26 61t64 24zM330 893q-18 0 -30.5 -12.5t-12.5 -30.5t12.5 -30t30.5 -12t30.5 12t12.5 30t-12.5 30.5
t-30.5 12.5z" />
    <glyph glyph-name="AE" unicode="&#xc6;" horiz-adv-x="1050" 
d="M528 725h492v-88h-389v-220h366v-88h-366v-241h389v-88h-492v155h-305l-111 -155h-112zM528 579l-241 -335h241v335z" />
    <glyph glyph-name="Ccedilla" unicode="&#xc7;" horiz-adv-x="726" 
d="M595 231h99q-23 -117 -108 -180.5t-206 -63.5q-153 0 -241 104.5t-88 272.5t92 271t245 103q114 0 196 -64.5t106 -179.5h-99q-16 71 -70.5 114.5t-137.5 43.5q-100 0 -164 -76t-64 -212t64 -213.5t167 -77.5q85 0 138 42.5t71 115.5zM272 -176l16 40q30 -14 58 -14
q61 0 61 32q0 30 -44 30q-24 0 -38 -9l-30 17l51 83h53l-32 -51q15 3 30 3q36 0 56 -18.5t20 -49.5q0 -37 -33 -59.5t-75 -22.5q-54 0 -93 19z" />
    <glyph glyph-name="Egrave" unicode="&#xc8;" horiz-adv-x="613" 
d="M86 0v725h492v-88h-390v-220h367v-88h-367v-241h390v-88h-492zM307 773l-148 113h129l110 -113h-91z" />
    <glyph glyph-name="Eacute" unicode="&#xc9;" horiz-adv-x="613" 
d="M86 0v725h492v-88h-390v-220h367v-88h-367v-241h390v-88h-492zM526 886l-149 -113h-90l110 113h129z" />
    <glyph glyph-name="Ecircumflex" unicode="&#xca;" horiz-adv-x="613" 
d="M86 0v725h492v-88h-390v-220h367v-88h-367v-241h390v-88h-492zM382 886l132 -113h-107l-68 56l-68 -56h-107l135 113h83z" />
    <glyph glyph-name="Edieresis" unicode="&#xcb;" horiz-adv-x="613" 
d="M86 0v725h492v-88h-390v-220h367v-88h-367v-241h390v-88h-492zM172 879h91v-99h-91v99zM401 879h92v-99h-92v99z" />
    <glyph glyph-name="Igrave" unicode="&#xcc;" horiz-adv-x="274" 
d="M188 725v-725h-102v725h102zM93 773l-148 113h129l110 -113h-91z" />
    <glyph glyph-name="Iacute" unicode="&#xcd;" horiz-adv-x="274" 
d="M188 725v-725h-102v725h102zM331 886l-149 -113h-90l110 113h129z" />
    <glyph glyph-name="Icircumflex" unicode="&#xce;" horiz-adv-x="274" 
d="M188 725v-725h-102v725h102zM181 886l132 -113h-107l-68 56l-68 -56h-107l135 113h83z" />
    <glyph glyph-name="Idieresis" unicode="&#xcf;" horiz-adv-x="274" 
d="M188 725v-725h-102v725h102zM-22 879h91v-99h-91v99zM207 879h92v-99h-92v99z" />
    <glyph glyph-name="Eth" unicode="&#xd0;" horiz-adv-x="729" 
d="M86 725h198q90 0 159 -18.5t123.5 -59t83.5 -112.5t29 -172q0 -195 -104.5 -279t-290.5 -84h-198v323h-64v90h64v312zM575 363q0 71 -17 123t-43 81t-67 45.5t-78.5 21.5t-88.5 5h-93v-226h159v-90h-159v-237h93q51 0 88.5 5t78.5 21.5t67 46t43 81t17 123.5z" />
    <glyph glyph-name="Ntilde" unicode="&#xd1;" horiz-adv-x="755" 
d="M669 0h-149l-332 619v-619h-102v725h150l331 -617v617h102v-725zM463 840q41 0 47 45h71q-11 -59 -42 -86t-74 -27q-33 0 -75 23.5t-61 23.5q-40 0 -45 -44h-71q9 56 40 84t75 28q32 0 73 -23.5t62 -23.5z" />
    <glyph glyph-name="Ograve" unicode="&#xd2;" horiz-adv-x="782" 
d="M155 363q0 -136 66.5 -213t169.5 -77t169.5 77t66.5 213t-66.5 212.5t-169.5 76.5t-169.5 -76.5t-66.5 -212.5zM731 363q0 -166 -93 -271t-247 -105t-247 105t-93 271t93 270.5t247 104.5t247 -104.5t93 -270.5zM346 773l-148 113h129l110 -113h-91z" />
    <glyph glyph-name="Oacute" unicode="&#xd3;" horiz-adv-x="782" 
d="M155 363q0 -136 66.5 -213t169.5 -77t169.5 77t66.5 213t-66.5 212.5t-169.5 76.5t-169.5 -76.5t-66.5 -212.5zM731 363q0 -166 -93 -271t-247 -105t-247 105t-93 271t93 270.5t247 104.5t247 -104.5t93 -270.5zM585 886l-149 -113h-90l110 113h129z" />
    <glyph glyph-name="Ocircumflex" unicode="&#xd4;" horiz-adv-x="782" 
d="M155 363q0 -136 66.5 -213t169.5 -77t169.5 77t66.5 213t-66.5 212.5t-169.5 76.5t-169.5 -76.5t-66.5 -212.5zM731 363q0 -166 -93 -271t-247 -105t-247 105t-93 271t93 270.5t247 104.5t247 -104.5t93 -270.5zM434 886l132 -113h-107l-68 56l-68 -56h-107l135 113h83z
" />
    <glyph glyph-name="Otilde" unicode="&#xd5;" horiz-adv-x="782" 
d="M155 363q0 -136 66.5 -213t169.5 -77t169.5 77t66.5 213t-66.5 212.5t-169.5 76.5t-169.5 -76.5t-66.5 -212.5zM731 363q0 -166 -93 -271t-247 -105t-247 105t-93 271t93 270.5t247 104.5t247 -104.5t93 -270.5zM457 840q41 0 47 45h71q-11 -59 -42 -86t-74 -27
q-33 0 -75 23.5t-61 23.5q-40 0 -45 -44h-71q9 56 40 84t75 28q32 0 73 -23.5t62 -23.5z" />
    <glyph glyph-name="Odieresis" unicode="&#xd6;" horiz-adv-x="782" 
d="M155 363q0 -136 66.5 -213t169.5 -77t169.5 77t66.5 213t-66.5 212.5t-169.5 76.5t-169.5 -76.5t-66.5 -212.5zM731 363q0 -166 -93 -271t-247 -105t-247 105t-93 271t93 270.5t247 104.5t247 -104.5t93 -270.5zM231 879h91v-99h-91v99zM460 879h92v-99h-92v99z" />
    <glyph glyph-name="multiply" unicode="&#xd7;" 
d="M574 95l-64 -65l-174 173l-167 -166l-65 64l168 167l-168 169l65 64l167 -167l168 166l65 -64l-168 -168z" />
    <glyph glyph-name="Oslash" unicode="&#xd8;" horiz-adv-x="781" 
d="M731 363q0 -166 -93 -271t-247 -105q-134 0 -220 78l-67 -79l-40 36l69 81q-82 104 -82 260q0 166 93 270.5t247 104.5q129 0 219 -77l58 69l40 -35l-61 -72q84 -99 84 -260zM627 363q0 108 -46 183l-348 -409q61 -64 158 -64q103 0 169.5 77t66.5 213zM155 363
q0 -108 44 -182l349 408q-65 63 -157 63q-103 0 -169.5 -76.5t-66.5 -212.5z" />
    <glyph glyph-name="Ugrave" unicode="&#xd9;" horiz-adv-x="731" 
d="M75 725h102v-441q0 -109 43.5 -159t143.5 -50q101 0 145.5 54.5t44.5 165.5v430h102v-422q0 -162 -68.5 -239t-223.5 -77q-153 0 -221 70.5t-68 237.5v430zM320 773l-148 113h129l110 -113h-91z" />
    <glyph glyph-name="Uacute" unicode="&#xda;" horiz-adv-x="731" 
d="M75 725h102v-441q0 -109 43.5 -159t143.5 -50q101 0 145.5 54.5t44.5 165.5v430h102v-422q0 -162 -68.5 -239t-223.5 -77q-153 0 -221 70.5t-68 237.5v430zM549 886l-149 -113h-90l110 113h129z" />
    <glyph glyph-name="Ucircumflex" unicode="&#xdb;" horiz-adv-x="731" 
d="M75 725h102v-441q0 -109 43.5 -159t143.5 -50q101 0 145.5 54.5t44.5 165.5v430h102v-422q0 -162 -68.5 -239t-223.5 -77q-153 0 -221 70.5t-68 237.5v430zM408 886l132 -113h-107l-68 56l-68 -56h-107l135 113h83z" />
    <glyph glyph-name="Udieresis" unicode="&#xdc;" horiz-adv-x="731" 
d="M75 725h102v-441q0 -109 43.5 -159t143.5 -50q101 0 145.5 54.5t44.5 165.5v430h102v-422q0 -162 -68.5 -239t-223.5 -77q-153 0 -221 70.5t-68 237.5v430zM205 879h91v-99h-91v99zM434 879h92v-99h-92v99z" />
    <glyph glyph-name="Yacute" unicode="&#xdd;" horiz-adv-x="624" 
d="M0 725h112l198 -354l202 354h112l-266 -444v-281h-102v283zM486 886l-149 -113h-90l110 113h129z" />
    <glyph glyph-name="Thorn" unicode="&#xde;" horiz-adv-x="620" 
d="M188 599h109q145 0 223 -49.5t78 -175.5q0 -65 -21.5 -110t-63.5 -69.5t-94 -34.5t-122 -10h-109v-150h-102v725h102v-126zM304 509h-116v-269h116q36 0 61.5 2.5t51.5 11t41.5 23t25.5 39t10 58.5q0 43 -13.5 71t-41.5 41.5t-58.5 18t-76.5 4.5z" />
    <glyph glyph-name="germandbls" unicode="&#xdf;" horiz-adv-x="633" 
d="M163 0h-91v491q0 122 55 177q64 69 201 69q99 0 162.5 -47t63.5 -125q0 -113 -109 -157q151 -37 151 -194q0 -61 -22 -106.5t-61 -71t-84.5 -37.5t-99.5 -12t-109 11l20 86q45 -15 93 -15q72 0 118.5 34t46.5 110q0 145 -203 145h-3v83h2q81 0 124.5 29.5t43.5 83.5
q0 49 -37.5 78.5t-97.5 29.5q-97 0 -133 -49q-31 -38 -31 -122v-491z" />
    <glyph glyph-name="agrave" unicode="&#xe0;" horiz-adv-x="559" 
d="M411 225v34q-137 -13 -203.5 -38t-66.5 -77q0 -39 28 -62t76 -23q72 0 119 39t47 127zM225 -13q-79 0 -132 41.5t-53 113.5q0 46 24.5 79t76 54.5t112.5 33.5t151 22v13q0 131 -122 131q-56 0 -88 -28t-35 -79h-94q6 83 69.5 132t146.5 49q113 0 164 -53.5t50 -168.5
l-1 -124q-1 -131 14 -203h-92q-6 39 -7 74q-51 -87 -184 -87zM246 609l-130 116h116l91 -116h-77z" />
    <glyph glyph-name="aacute" unicode="&#xe1;" horiz-adv-x="559" 
d="M411 225v34q-137 -13 -203.5 -38t-66.5 -77q0 -39 28 -62t76 -23q72 0 119 39t47 127zM225 -13q-79 0 -132 41.5t-53 113.5q0 46 24.5 79t76 54.5t112.5 33.5t151 22v13q0 131 -122 131q-56 0 -88 -28t-35 -79h-94q6 83 69.5 132t146.5 49q113 0 164 -53.5t50 -168.5
l-1 -124q-1 -131 14 -203h-92q-6 39 -7 74q-51 -87 -184 -87zM443 725l-131 -116h-76l90 116h117z" />
    <glyph glyph-name="acircumflex" unicode="&#xe2;" horiz-adv-x="559" 
d="M411 225v34q-137 -13 -203.5 -38t-66.5 -77q0 -39 28 -62t76 -23q72 0 119 39t47 127zM225 -13q-79 0 -132 41.5t-53 113.5q0 46 24.5 79t76 54.5t112.5 33.5t151 22v13q0 131 -122 131q-56 0 -88 -28t-35 -79h-94q6 83 69.5 132t146.5 49q113 0 164 -53.5t50 -168.5
l-1 -124q-1 -131 14 -203h-92q-6 39 -7 74q-51 -87 -184 -87zM330 725l129 -116h-96l-79 54l-79 -54h-96l132 116h89z" />
    <glyph glyph-name="atilde" unicode="&#xe3;" horiz-adv-x="559" 
d="M411 225v34q-137 -13 -203.5 -38t-66.5 -77q0 -39 28 -62t76 -23q72 0 119 39t47 127zM225 -13q-79 0 -132 41.5t-53 113.5q0 46 24.5 79t76 54.5t112.5 33.5t151 22v13q0 131 -122 131q-56 0 -88 -28t-35 -79h-94q6 83 69.5 132t146.5 49q113 0 164 -53.5t50 -168.5
l-1 -124q-1 -131 14 -203h-92q-6 39 -7 74q-51 -87 -184 -87zM340 680q41 0 47 45h71q-11 -59 -42 -86t-74 -27q-33 0 -75 24t-61 24q-40 0 -45 -44h-71q9 56 40 84t75 28q32 0 73 -24t62 -24z" />
    <glyph glyph-name="adieresis" unicode="&#xe4;" horiz-adv-x="559" 
d="M411 225v34q-137 -13 -203.5 -38t-66.5 -77q0 -39 28 -62t76 -23q72 0 119 39t47 127zM225 -13q-79 0 -132 41.5t-53 113.5q0 46 24.5 79t76 54.5t112.5 33.5t151 22v13q0 131 -122 131q-56 0 -88 -28t-35 -79h-94q6 83 69.5 132t146.5 49q113 0 164 -53.5t50 -168.5
l-1 -124q-1 -131 14 -203h-92q-6 39 -7 74q-51 -87 -184 -87zM114 626v99h91v-99h-91zM343 725h92v-99h-92v99z" />
    <glyph glyph-name="aring" unicode="&#xe5;" horiz-adv-x="559" 
d="M411 225v34q-137 -13 -203.5 -38t-66.5 -77q0 -39 28 -62t76 -23q72 0 119 39t47 127zM225 -13q-79 0 -132 41.5t-53 113.5q0 46 24.5 79t76 54.5t112.5 33.5t151 22v13q0 131 -122 131q-56 0 -88 -28t-35 -79h-94q6 83 69.5 132t146.5 49q113 0 164 -53.5t50 -168.5
l-1 -124q-1 -131 14 -203h-92q-6 39 -7 74q-51 -87 -184 -87zM284 770q39 0 65 -23.5t26 -61.5q0 -37 -26 -61t-65 -24q-38 0 -64 24t-26 61t26 61t64 24zM284 728q-18 0 -30.5 -12.5t-12.5 -30.5t12.5 -30t30.5 -12t30.5 12t12.5 30t-12.5 30.5t-30.5 12.5z" />
    <glyph glyph-name="ae" unicode="&#xe6;" horiz-adv-x="950" 
d="M225 -13q-79 0 -132 41.5t-53 113.5q0 46 24.5 79t76 54.5t112.5 33.5t151 22v13q0 131 -122 131q-56 0 -88 -28t-35 -79h-94q6 83 69.5 132t146.5 49q143 0 189 -93q72 91 195 91q121 0 190 -88.5t61 -219.5h-414q2 -82 51.5 -127t114.5 -45q108 0 147 89h94
q-19 -73 -83 -121t-158 -48q-145 0 -215 112q-65 -112 -228 -112zM411 225v31v3q-137 -13 -203.5 -38t-66.5 -77q0 -39 28 -62t76 -23q72 0 119 39t47 127zM665 469q-65 0 -110.5 -38t-51.5 -114h317q-2 61 -44 106.5t-111 45.5z" />
    <glyph glyph-name="ccedilla" unicode="&#xe7;" horiz-adv-x="557" 
d="M295 547q93 0 153.5 -57t71.5 -132h-92q-10 48 -48 78.5t-91 30.5q-65 0 -110 -51t-45 -147q0 -97 45 -149.5t110 -52.5q55 0 94 31.5t49 76.5h94q-15 -78 -81.5 -133t-158.5 -55q-115 0 -183 78t-68 203q0 122 71 200.5t189 78.5zM171 -176l16 40q30 -14 58 -14
q61 0 61 32q0 30 -44 30q-24 0 -38 -9l-30 17l51 83h53l-32 -51q15 3 30 3q36 0 56 -18.5t20 -49.5q0 -37 -33 -59.5t-75 -22.5q-54 0 -93 19z" />
    <glyph glyph-name="egrave" unicode="&#xe8;" horiz-adv-x="581" 
d="M547 239h-414q2 -82 51.5 -127t114.5 -45q108 0 147 89h94q-19 -73 -83 -121t-158 -48q-124 0 -194 79t-70 202q0 126 74 202.5t187 76.5q121 0 190 -88.5t61 -219.5zM296 469q-65 0 -110.5 -38t-51.5 -114h317q-2 61 -44 106.5t-111 45.5zM250 609l-130 116h116l91 -116
h-77z" />
    <glyph glyph-name="eacute" unicode="&#xe9;" horiz-adv-x="581" 
d="M547 239h-414q2 -82 51.5 -127t114.5 -45q108 0 147 89h94q-19 -73 -83 -121t-158 -48q-124 0 -194 79t-70 202q0 126 74 202.5t187 76.5q121 0 190 -88.5t61 -219.5zM296 469q-65 0 -110.5 -38t-51.5 -114h317q-2 61 -44 106.5t-111 45.5zM457 725l-131 -116h-76l90 116
h117z" />
    <glyph glyph-name="ecircumflex" unicode="&#xea;" horiz-adv-x="581" 
d="M547 239h-414q2 -82 51.5 -127t114.5 -45q108 0 147 89h94q-19 -73 -83 -121t-158 -48q-124 0 -194 79t-70 202q0 126 74 202.5t187 76.5q121 0 190 -88.5t61 -219.5zM296 469q-65 0 -110.5 -38t-51.5 -114h317q-2 61 -44 106.5t-111 45.5zM334 725l129 -116h-96l-79 54
l-79 -54h-96l132 116h89z" />
    <glyph glyph-name="edieresis" unicode="&#xeb;" horiz-adv-x="581" 
d="M547 239h-414q2 -82 51.5 -127t114.5 -45q108 0 147 89h94q-19 -73 -83 -121t-158 -48q-124 0 -194 79t-70 202q0 126 74 202.5t187 76.5q121 0 190 -88.5t61 -219.5zM296 469q-65 0 -110.5 -38t-51.5 -114h317q-2 61 -44 106.5t-111 45.5zM128 626v99h91v-99h-91z
M357 725h92v-99h-92v99z" />
    <glyph glyph-name="igrave" unicode="&#xec;" horiz-adv-x="235" 
d="M72 538h91v-538h-91v538zM80 609l-130 116h116l91 -116h-77z" />
    <glyph glyph-name="iacute" unicode="&#xed;" horiz-adv-x="235" 
d="M72 538h91v-538h-91v538zM286 725l-131 -116h-76l90 116h117z" />
    <glyph glyph-name="icircumflex" unicode="&#xee;" horiz-adv-x="235" 
d="M72 538h91v-538h-91v538zM164 725l129 -116h-96l-79 54l-79 -54h-96l132 116h89z" />
    <glyph glyph-name="idieresis" unicode="&#xef;" horiz-adv-x="235" 
d="M72 538h91v-538h-91v538zM-42 626v99h91v-99h-91zM187 725h92v-99h-92v99z" />
    <glyph glyph-name="eth" unicode="&#xf0;" horiz-adv-x="573" 
d="M321 705l70 43l46 -26l-76 -47q170 -142 170 -359q0 -160 -68.5 -244.5t-183.5 -84.5q-113 0 -178.5 75.5t-65.5 205.5q0 127 65 203t167 76q96 0 154 -79l1 1q-44 96 -137 160l-74 -45l-45 24l78 48q-35 19 -79 40l66 60q47 -22 90 -51zM280 65q68 0 110 52t42 151
q0 98 -42.5 149.5t-109.5 51.5q-71 0 -108.5 -53.5t-37.5 -147.5q0 -96 37.5 -149.5t108.5 -53.5z" />
    <glyph glyph-name="ntilde" unicode="&#xf1;" horiz-adv-x="578" 
d="M163 538v-81q55 90 174 90q177 0 177 -207v-340h-91v313q0 74 -23.5 114.5t-94.5 40.5q-67 0 -104.5 -45t-37.5 -131v-292h-91v538h91zM369 680q41 0 47 45h71q-11 -59 -42 -86t-74 -27q-33 0 -75 24t-61 24q-40 0 -45 -44h-71q9 56 40 84t75 28q32 0 73 -24t62 -24z" />
    <glyph glyph-name="ograve" unicode="&#xf2;" horiz-adv-x="590" 
d="M134 267q0 -101 46 -150.5t115 -49.5q68 0 114.5 51t46.5 149q0 101 -46 150.5t-115 49.5t-115 -48.5t-46 -151.5zM295 547q104 0 181 -72t77 -208t-77 -208t-181 -72t-181 72t-77 208t77 208t181 72zM254 609l-130 116h116l91 -116h-77z" />
    <glyph glyph-name="oacute" unicode="&#xf3;" horiz-adv-x="590" 
d="M134 267q0 -101 46 -150.5t115 -49.5q68 0 114.5 51t46.5 149q0 101 -46 150.5t-115 49.5t-115 -48.5t-46 -151.5zM295 547q104 0 181 -72t77 -208t-77 -208t-181 -72t-181 72t-77 208t77 208t181 72zM461 725l-131 -116h-76l90 116h117z" />
    <glyph glyph-name="ocircumflex" unicode="&#xf4;" horiz-adv-x="590" 
d="M134 267q0 -101 46 -150.5t115 -49.5q68 0 114.5 51t46.5 149q0 101 -46 150.5t-115 49.5t-115 -48.5t-46 -151.5zM295 547q104 0 181 -72t77 -208t-77 -208t-181 -72t-181 72t-77 208t77 208t181 72zM338 725l129 -116h-96l-79 54l-79 -54h-96l132 116h89z" />
    <glyph glyph-name="otilde" unicode="&#xf5;" horiz-adv-x="590" 
d="M134 267q0 -101 46 -150.5t115 -49.5q68 0 114.5 51t46.5 149q0 101 -46 150.5t-115 49.5t-115 -48.5t-46 -151.5zM295 547q104 0 181 -72t77 -208t-77 -208t-181 -72t-181 72t-77 208t77 208t181 72zM358 680q41 0 47 45h71q-11 -59 -42 -86t-74 -27q-33 0 -75 24
t-61 24q-40 0 -45 -44h-71q9 56 40 84t75 28q32 0 73 -24t62 -24z" />
    <glyph glyph-name="odieresis" unicode="&#xf6;" horiz-adv-x="590" 
d="M134 267q0 -101 46 -150.5t115 -49.5q68 0 114.5 51t46.5 149q0 101 -46 150.5t-115 49.5t-115 -48.5t-46 -151.5zM295 547q104 0 181 -72t77 -208t-77 -208t-181 -72t-181 72t-77 208t77 208t181 72zM132 626v99h91v-99h-91zM361 725h92v-99h-92v99z" />
    <glyph glyph-name="divide" unicode="&#xf7;" 
d="M284 32v115h115v-115h-115zM284 380v115h115v-115h-115zM600 215h-522v86h522v-86z" />
    <glyph glyph-name="oslash" unicode="&#xf8;" horiz-adv-x="590" 
d="M295 547q90 0 159 -53l38 43l41 -35l-40 -46q60 -75 60 -189q0 -136 -77 -208t-181 -72q-93 0 -163 55l-48 -55l-39 36l50 57q-58 72 -58 187q0 136 77 208t181 72zM456 267q0 66 -25 118l-242 -278q44 -40 106 -40q68 0 114.5 51t46.5 149zM134 267q0 -71 23 -115
l241 276q-42 39 -103 39q-69 0 -115 -48.5t-46 -151.5z" />
    <glyph glyph-name="ugrave" unicode="&#xf9;" horiz-adv-x="568" 
d="M405 0v77q-55 -90 -169 -90q-172 0 -172 207v344h91v-317q0 -74 22.5 -114.5t90.5 -40.5q66 0 101.5 44.5t35.5 131.5v296h91v-538h-91zM265 609l-130 116h116l91 -116h-77z" />
    <glyph glyph-name="uacute" unicode="&#xfa;" horiz-adv-x="568" 
d="M405 0v77q-55 -90 -169 -90q-172 0 -172 207v344h91v-317q0 -74 22.5 -114.5t90.5 -40.5q66 0 101.5 44.5t35.5 131.5v296h91v-538h-91zM452 725l-131 -116h-76l90 116h117z" />
    <glyph glyph-name="ucircumflex" unicode="&#xfb;" horiz-adv-x="568" 
d="M405 0v77q-55 -90 -169 -90q-172 0 -172 207v344h91v-317q0 -74 22.5 -114.5t90.5 -40.5q66 0 101.5 44.5t35.5 131.5v296h91v-538h-91zM329 725l129 -116h-96l-79 54l-79 -54h-96l132 116h89z" />
    <glyph glyph-name="udieresis" unicode="&#xfc;" horiz-adv-x="568" 
d="M405 0v77q-55 -90 -169 -90q-172 0 -172 207v344h91v-317q0 -74 22.5 -114.5t90.5 -40.5q66 0 101.5 44.5t35.5 131.5v296h91v-538h-91zM123 626v99h91v-99h-91zM352 725h92v-99h-92v99z" />
    <glyph glyph-name="yacute" unicode="&#xfd;" horiz-adv-x="466" 
d="M371 538h95l-192 -561q-22 -63 -40.5 -92.5t-52.5 -44.5t-94 -15h-47v76h37q51 0 73.5 15t39.5 73l4 11l-194 538h101l137 -415zM399 725l-131 -116h-76l90 116h117z" />
    <glyph glyph-name="thorn" unicode="&#xfe;" horiz-adv-x="601" 
d="M163 725v-272q54 94 176 94q96 0 162 -76t66 -204q0 -129 -66 -204.5t-162 -75.5q-122 0 -176 94v-256h-91v900h91zM159 267q0 -100 45.5 -151t111.5 -51q71 0 112.5 52.5t41.5 149.5t-41.5 149.5t-112.5 52.5q-66 0 -111.5 -51t-45.5 -151z" />
    <glyph glyph-name="ydieresis" unicode="&#xff;" horiz-adv-x="466" 
d="M371 538h95l-192 -561q-22 -63 -40.5 -92.5t-52.5 -44.5t-94 -15h-47v76h37q51 0 73.5 15t39.5 73l4 11l-194 538h101l137 -415zM73 626v99h91v-99h-91zM302 725h92v-99h-92v99z" />
    <glyph glyph-name="Amacron" unicode="&#x100;" horiz-adv-x="660" 
d="M0 0l269 725h118l273 -725h-110l-57 157h-333l-56 -157h-104zM325 622l-134 -378h270zM480 791h-300v75h300v-75z" />
    <glyph glyph-name="amacron" unicode="&#x101;" horiz-adv-x="559" 
d="M411 225v34q-137 -13 -203.5 -38t-66.5 -77q0 -39 28 -62t76 -23q72 0 119 39t47 127zM225 -13q-79 0 -132 41.5t-53 113.5q0 46 24.5 79t76 54.5t112.5 33.5t151 22v13q0 131 -122 131q-56 0 -88 -28t-35 -79h-94q6 83 69.5 132t146.5 49q113 0 164 -53.5t50 -168.5
l-1 -124q-1 -131 14 -203h-92q-6 39 -7 74q-51 -87 -184 -87zM434 635h-300v75h300v-75z" />
    <glyph glyph-name="Abreve" unicode="&#x102;" horiz-adv-x="660" 
d="M0 0l269 725h118l273 -725h-110l-57 157h-333l-56 -157h-104zM325 622l-134 -378h270zM411 886h77q-6 -55 -45.5 -87t-113.5 -32q-140 0 -156 119h77q9 -58 80 -58t81 58z" />
    <glyph glyph-name="abreve" unicode="&#x103;" horiz-adv-x="559" 
d="M411 225v34q-137 -13 -203.5 -38t-66.5 -77q0 -39 28 -62t76 -23q72 0 119 39t47 127zM225 -13q-79 0 -132 41.5t-53 113.5q0 46 24.5 79t76 54.5t112.5 33.5t151 22v13q0 131 -122 131q-56 0 -88 -28t-35 -79h-94q6 83 69.5 132t146.5 49q113 0 164 -53.5t50 -168.5
l-1 -124q-1 -131 14 -203h-92q-6 39 -7 74q-51 -87 -184 -87zM372 725h71q-16 -121 -160 -121q-76 0 -114.5 35t-42.5 86h71q8 -61 87 -61q80 0 88 61z" />
    <glyph glyph-name="Aogonek" unicode="&#x104;" horiz-adv-x="660" 
d="M0 0l269 725h118l273 -725q-88 -43 -88 -80q0 -23 13.5 -34t33.5 -11q21 0 41 9v-61q-27 -11 -60 -11q-46 0 -78.5 23t-32.5 72q0 48 61 93l-57 157h-333l-56 -157h-104zM325 622l-134 -378h270z" />
    <glyph glyph-name="aogonek" unicode="&#x105;" horiz-adv-x="559" 
d="M411 225v34q-137 -13 -203.5 -38t-66.5 -77q0 -39 28 -62t76 -23q72 0 119 39t47 127zM416 0q-6 39 -7 74q-51 -87 -184 -87q-79 0 -132 41.5t-53 113.5q0 46 24.5 79t76 54.5t112.5 33.5t151 22v13q0 131 -122 131q-56 0 -88 -28t-35 -79h-94q6 83 69.5 132t146.5 49
q113 0 164 -53.5t50 -168.5l-1 -124q-1 -131 14 -203q-97 -40 -97 -84q0 -40 55 -40q20 0 42 6v-61q-27 -9 -64 -9q-48 0 -82 21t-34 70q0 59 88 97z" />
    <glyph glyph-name="Cacute" unicode="&#x106;" horiz-adv-x="726" 
d="M595 231h99q-23 -117 -108 -180.5t-206 -63.5q-153 0 -241 104.5t-88 272.5t92 271t245 103q114 0 196 -64.5t106 -179.5h-99q-16 71 -70.5 114.5t-137.5 43.5q-100 0 -164 -76t-64 -212t64 -213.5t167 -77.5q85 0 138 42.5t71 115.5zM566 886l-149 -113h-90l110 113h129
z" />
    <glyph glyph-name="cacute" unicode="&#x107;" horiz-adv-x="557" 
d="M295 547q93 0 153.5 -57t71.5 -132h-92q-10 48 -48 78.5t-91 30.5q-65 0 -110 -51t-45 -147q0 -97 45 -149.5t110 -52.5q55 0 94 31.5t49 76.5h94q-15 -78 -81.5 -133t-158.5 -55q-115 0 -183 78t-68 203q0 122 71 200.5t189 78.5zM446 725l-131 -116h-76l90 116h117z
" />
    <glyph glyph-name="Ccircumflex" unicode="&#x108;" horiz-adv-x="726" 
d="M595 231h99q-23 -117 -108 -180.5t-206 -63.5q-153 0 -241 104.5t-88 272.5t92 271t245 103q114 0 196 -64.5t106 -179.5h-99q-16 71 -70.5 114.5t-137.5 43.5q-100 0 -164 -76t-64 -212t64 -213.5t167 -77.5q85 0 138 42.5t71 115.5zM430 886l132 -113h-107l-68 56
l-68 -56h-107l135 113h83z" />
    <glyph glyph-name="ccircumflex" unicode="&#x109;" horiz-adv-x="557" 
d="M295 547q93 0 153.5 -57t71.5 -132h-92q-10 48 -48 78.5t-91 30.5q-65 0 -110 -51t-45 -147q0 -97 45 -149.5t110 -52.5q55 0 94 31.5t49 76.5h94q-15 -78 -81.5 -133t-158.5 -55q-115 0 -183 78t-68 203q0 122 71 200.5t189 78.5zM334 725l129 -116h-96l-79 54l-79 -54
h-96l132 116h89z" />
    <glyph glyph-name="Cdotaccent" unicode="&#x10a;" horiz-adv-x="726" 
d="M595 231h99q-23 -117 -108 -180.5t-206 -63.5q-153 0 -241 104.5t-88 272.5t92 271t245 103q114 0 196 -64.5t106 -179.5h-99q-16 71 -70.5 114.5t-137.5 43.5q-100 0 -164 -76t-64 -212t64 -213.5t167 -77.5q85 0 138 42.5t71 115.5zM343 880h91v-99h-91v99z" />
    <glyph glyph-name="cdotaccent" unicode="&#x10b;" horiz-adv-x="557" 
d="M295 547q93 0 153.5 -57t71.5 -132h-92q-10 48 -48 78.5t-91 30.5q-65 0 -110 -51t-45 -147q0 -97 45 -149.5t110 -52.5q55 0 94 31.5t49 76.5h94q-15 -78 -81.5 -133t-158.5 -55q-115 0 -183 78t-68 203q0 122 71 200.5t189 78.5zM242 725h91v-99h-91v99z" />
    <glyph glyph-name="Ccaron" unicode="&#x10c;" horiz-adv-x="726" 
d="M595 231h99q-23 -117 -108 -180.5t-206 -63.5q-153 0 -241 104.5t-88 272.5t92 271t245 103q114 0 196 -64.5t106 -179.5h-99q-16 71 -70.5 114.5t-137.5 43.5q-100 0 -164 -76t-64 -212t64 -213.5t167 -77.5q85 0 138 42.5t71 115.5zM344 773l-131 113h107l67 -56l69 56
h107l-135 -113h-84z" />
    <glyph glyph-name="ccaron" unicode="&#x10d;" horiz-adv-x="557" 
d="M295 547q93 0 153.5 -57t71.5 -132h-92q-10 48 -48 78.5t-91 30.5q-65 0 -110 -51t-45 -147q0 -97 45 -149.5t110 -52.5q55 0 94 31.5t49 76.5h94q-15 -78 -81.5 -133t-158.5 -55q-115 0 -183 78t-68 203q0 122 71 200.5t189 78.5zM242 609l-129 116h96l78 -54l80 54h96
l-133 -116h-88z" />
    <glyph glyph-name="Dcaron" unicode="&#x10e;" horiz-adv-x="730" 
d="M575 363q0 71 -17 123t-43 81t-67 45.5t-78.5 21.5t-88.5 5h-93v-553h93q51 0 88.5 5t78.5 21.5t67 46t43 81t17 123.5zM86 725h198q90 0 159 -18.5t123.5 -59t83.5 -112.5t29 -172q0 -195 -104.5 -279t-290.5 -84h-198v725zM318 773l-131 113h107l67 -56l69 56h107
l-135 -113h-84z" />
    <glyph glyph-name="dcaron" unicode="&#x10f;" 
d="M698 725l-70 -170h-58l30 170h98zM441 453v272h91v-725h-91v81q-54 -94 -176 -94q-97 0 -163.5 75.5t-66.5 204.5q0 128 66.5 204t163.5 76q122 0 176 -94zM445 267q0 100 -45.5 151t-111.5 51q-71 0 -112.5 -52.5t-41.5 -149.5t41.5 -149.5t112.5 -52.5q66 0 111.5 51
t45.5 151z" />
    <glyph glyph-name="Dcroat" unicode="&#x110;" horiz-adv-x="729" 
d="M86 725h198q90 0 159 -18.5t123.5 -59t83.5 -112.5t29 -172q0 -195 -104.5 -279t-290.5 -84h-198v323h-64v90h64v312zM575 363q0 71 -17 123t-43 81t-67 45.5t-78.5 21.5t-88.5 5h-93v-226h159v-90h-159v-237h93q51 0 88.5 5t78.5 21.5t67 46t43 81t17 123.5z" />
    <glyph glyph-name="dslash" unicode="&#x111;" horiz-adv-x="604" 
d="M441 453v125h-126v75h126v72h91v-72h71v-75h-71v-578h-91v81q-54 -94 -176 -94q-97 0 -163.5 75.5t-66.5 204.5q0 128 66.5 204t163.5 76q122 0 176 -94zM445 267q0 100 -45.5 151t-111.5 51q-71 0 -112.5 -52.5t-41.5 -149.5t41.5 -149.5t112.5 -52.5q66 0 111.5 51
t45.5 151z" />
    <glyph glyph-name="Emacron" unicode="&#x112;" horiz-adv-x="613" 
d="M86 0v725h492v-88h-390v-220h367v-88h-367v-241h390v-88h-492zM485 791h-300v75h300v-75z" />
    <glyph glyph-name="emacron" unicode="&#x113;" horiz-adv-x="581" 
d="M547 239h-414q2 -82 51.5 -127t114.5 -45q108 0 147 89h94q-19 -73 -83 -121t-158 -48q-124 0 -194 79t-70 202q0 126 74 202.5t187 76.5q121 0 190 -88.5t61 -219.5zM296 469q-65 0 -110.5 -38t-51.5 -114h317q-2 61 -44 106.5t-111 45.5zM438 635h-300v75h300v-75z" />
    <glyph glyph-name="Ebreve" unicode="&#x114;" horiz-adv-x="613" 
d="M86 0v725h492v-88h-390v-220h367v-88h-367v-241h390v-88h-492zM413 886h77q-6 -55 -45.5 -87t-113.5 -32q-140 0 -156 119h77q9 -58 80 -58t81 58z" />
    <glyph glyph-name="ebreve" unicode="&#x115;" horiz-adv-x="581" 
d="M547 239h-414q2 -82 51.5 -127t114.5 -45q108 0 147 89h94q-19 -73 -83 -121t-158 -48q-124 0 -194 79t-70 202q0 126 74 202.5t187 76.5q121 0 190 -88.5t61 -219.5zM296 469q-65 0 -110.5 -38t-51.5 -114h317q-2 61 -44 106.5t-111 45.5zM376 725h71
q-16 -121 -160 -121q-76 0 -114.5 35t-42.5 86h71q8 -61 87 -61q80 0 88 61z" />
    <glyph glyph-name="Edotaccent" unicode="&#x116;" horiz-adv-x="613" 
d="M86 0v725h492v-88h-390v-220h367v-88h-367v-241h390v-88h-492zM287 880h91v-99h-91v99z" />
    <glyph glyph-name="edotaccent" unicode="&#x117;" horiz-adv-x="581" 
d="M547 239h-414q2 -82 51.5 -127t114.5 -45q108 0 147 89h94q-19 -73 -83 -121t-158 -48q-124 0 -194 79t-70 202q0 126 74 202.5t187 76.5q121 0 190 -88.5t61 -219.5zM296 469q-65 0 -110.5 -38t-51.5 -114h317q-2 61 -44 106.5t-111 45.5zM243 725h91v-99h-91v99z" />
    <glyph glyph-name="Eogonek" unicode="&#x118;" horiz-adv-x="613" 
d="M86 0v725h492v-88h-390v-220h367v-88h-367v-241h390v-88h-492zM476 0h102q-88 -43 -88 -80q0 -23 13.5 -34t33.5 -11q21 0 41 9v-61q-27 -11 -60 -11q-46 0 -78.5 23t-32.5 72q0 55 69 93z" />
    <glyph glyph-name="eogonek" unicode="&#x119;" horiz-adv-x="581" 
d="M300 -13h-1q-124 0 -194 79t-70 202q0 126 74 202.5t187 76.5q121 0 190 -88.5t61 -219.5h-414q2 -82 51.5 -127t114.5 -45q108 0 147 89h94q-25 -95 -115 -141l2 1q-33 -20 -56.5 -48t-23.5 -47q0 -45 55 -45q20 0 42 6v-61q-27 -9 -64 -9q-48 0 -82 22t-34 74
q0 37 36 79zM296 469q-65 0 -110.5 -38t-51.5 -114h317q-2 61 -44 106.5t-111 45.5z" />
    <glyph glyph-name="Ecaron" unicode="&#x11a;" horiz-adv-x="613" 
d="M86 0v725h492v-88h-390v-220h367v-88h-367v-241h390v-88h-492zM298 773l-131 113h107l67 -56l69 56h107l-135 -113h-84z" />
    <glyph glyph-name="ecaron" unicode="&#x11b;" horiz-adv-x="581" 
d="M547 239h-414q2 -82 51.5 -127t114.5 -45q108 0 147 89h94q-19 -73 -83 -121t-158 -48q-124 0 -194 79t-70 202q0 126 74 202.5t187 76.5q121 0 190 -88.5t61 -219.5zM296 469q-65 0 -110.5 -38t-51.5 -114h317q-2 61 -44 106.5t-111 45.5zM242 609l-129 116h96l78 -54
l80 54h96l-133 -116h-88z" />
    <glyph glyph-name="Gcircumflex" unicode="&#x11c;" horiz-adv-x="770" 
d="M388 738q114 0 196 -60t104 -164h-99q-19 64 -70.5 101t-135.5 37q-100 0 -164 -76t-64 -212q0 -135 63 -213t165 -78q39 0 74.5 9t68 29.5t52 59t19.5 92.5v19h-192v88h288v-370h-80l-5 91q-65 -104 -229 -104q-153 0 -240.5 104.5t-87.5 272.5t92 271t245 103zM430 886
l132 -113h-107l-68 56l-68 -56h-107l135 113h83z" />
    <glyph glyph-name="gcircumflex" unicode="&#x11d;" horiz-adv-x="597" 
d="M434 453v85h91v-466q0 -133 -51 -189q-62 -71 -186 -71q-94 0 -151 41.5t-70 123.5h97q19 -85 125 -85q73 0 110 40q17 19 26 43.5t9 75.5v51q-54 -93 -171 -93q-94 0 -161 72.5t-67 196.5t67 196.5t161 72.5q117 0 171 -94zM438 278q0 96 -43.5 143.5t-108.5 47.5
q-69 0 -110.5 -50t-41.5 -141q0 -92 41.5 -142t110.5 -50q65 0 108.5 48t43.5 144zM334 725l129 -116h-96l-79 54l-79 -54h-96l132 116h89z" />
    <glyph glyph-name="Gbreve" unicode="&#x11e;" horiz-adv-x="770" 
d="M388 738q114 0 196 -60t104 -164h-99q-19 64 -70.5 101t-135.5 37q-100 0 -164 -76t-64 -212q0 -135 63 -213t165 -78q39 0 74.5 9t68 29.5t52 59t19.5 92.5v19h-192v88h288v-370h-80l-5 91q-65 -104 -229 -104q-153 0 -240.5 104.5t-87.5 272.5t92 271t245 103zM466 886
h77q-6 -55 -45.5 -87t-113.5 -32q-140 0 -156 119h77q9 -58 80 -58t81 58z" />
    <glyph glyph-name="gbreve" unicode="&#x11f;" horiz-adv-x="597" 
d="M434 453v85h91v-466q0 -133 -51 -189q-62 -71 -186 -71q-94 0 -151 41.5t-70 123.5h97q19 -85 125 -85q73 0 110 40q17 19 26 43.5t9 75.5v51q-54 -93 -171 -93q-94 0 -161 72.5t-67 196.5t67 196.5t161 72.5q117 0 171 -94zM438 278q0 96 -43.5 143.5t-108.5 47.5
q-69 0 -110.5 -50t-41.5 -141q0 -92 41.5 -142t110.5 -50q65 0 108.5 48t43.5 144zM370 725h71q-16 -121 -160 -121q-76 0 -114.5 35t-42.5 86h71q8 -61 87 -61q80 0 88 61z" />
    <glyph glyph-name="Gdotaccent" unicode="&#x120;" horiz-adv-x="770" 
d="M388 738q114 0 196 -60t104 -164h-99q-19 64 -70.5 101t-135.5 37q-100 0 -164 -76t-64 -212q0 -135 63 -213t165 -78q39 0 74.5 9t68 29.5t52 59t19.5 92.5v19h-192v88h288v-370h-80l-5 91q-65 -104 -229 -104q-153 0 -240.5 104.5t-87.5 272.5t92 271t245 103zM342 880
h91v-99h-91v99z" />
    <glyph glyph-name="gdotaccent" unicode="&#x121;" horiz-adv-x="597" 
d="M434 453v85h91v-466q0 -133 -51 -189q-62 -71 -186 -71q-94 0 -151 41.5t-70 123.5h97q19 -85 125 -85q73 0 110 40q17 19 26 43.5t9 75.5v51q-54 -93 -171 -93q-94 0 -161 72.5t-67 196.5t67 196.5t161 72.5q117 0 171 -94zM438 278q0 96 -43.5 143.5t-108.5 47.5
q-69 0 -110.5 -50t-41.5 -141q0 -92 41.5 -142t110.5 -50q65 0 108.5 48t43.5 144zM247 725h91v-99h-91v99z" />
    <glyph glyph-name="uni0122" unicode="&#x122;" horiz-adv-x="770" 
d="M388 738q114 0 196 -60t104 -164h-99q-19 64 -70.5 101t-135.5 37q-100 0 -164 -76t-64 -212q0 -135 63 -213t165 -78q39 0 74.5 9t68 29.5t52 59t19.5 92.5v19h-192v88h288v-370h-80l-5 91q-65 -104 -229 -104q-153 0 -240.5 104.5t-87.5 272.5t92 271t245 103z
M326 -125v89h95v-95l-44 -90h-54l39 96h-36z" />
    <glyph glyph-name="uni0123" unicode="&#x123;" horiz-adv-x="597" 
d="M332 690v-90h-95v96l44 89h54l-39 -95h36zM434 453v85h91v-466q0 -133 -51 -189q-62 -71 -186 -71q-94 0 -151 41.5t-70 123.5h97q19 -85 125 -85q73 0 110 40q17 19 26 43.5t9 75.5v51q-54 -93 -171 -93q-94 0 -161 72.5t-67 196.5t67 196.5t161 72.5q117 0 171 -94z
M438 278q0 96 -43.5 143.5t-108.5 47.5q-69 0 -110.5 -50t-41.5 -141q0 -92 41.5 -142t110.5 -50q65 0 108.5 48t43.5 144z" />
    <glyph glyph-name="Hcircumflex" unicode="&#x124;" horiz-adv-x="757" 
d="M569 725h102v-725h-102v329h-381v-329h-102v725h102v-308h381v308zM421 886l132 -113h-107l-68 56l-68 -56h-107l135 113h83z" />
    <glyph glyph-name="hcircumflex" unicode="&#x125;" horiz-adv-x="578" 
d="M163 725v-268q55 90 174 90q177 0 177 -207v-340h-91v313q0 74 -23.5 114.5t-94.5 40.5q-67 0 -104.5 -45t-37.5 -131v-292h-91v725h91zM161 886l132 -113h-107l-68 56l-68 -56h-107l135 113h83z" />
    <glyph glyph-name="Hbar" unicode="&#x126;" horiz-adv-x="758" 
d="M569 725h102v-128h67v-80h-67v-517h-102v329h-381v-329h-102v517h-66v80h66v128h102v-128h381v128zM188 417h381v100h-381v-100z" />
    <glyph glyph-name="hbar" unicode="&#x127;" horiz-adv-x="578" 
d="M163 725v-72h125v-75h-125v-121q55 90 174 90q177 0 177 -207v-340h-91v313q0 74 -23.5 114.5t-94.5 40.5q-67 0 -104.5 -45t-37.5 -131v-292h-91v578h-84v75h84v72h91z" />
    <glyph glyph-name="Itilde" unicode="&#x128;" horiz-adv-x="274" 
d="M188 725v-725h-102v725h102zM204 840q41 0 47 45h71q-11 -59 -42 -86t-74 -27q-33 0 -75 23.5t-61 23.5q-40 0 -45 -44h-71q9 56 40 84t75 28q32 0 73 -23.5t62 -23.5z" />
    <glyph glyph-name="itilde" unicode="&#x129;" horiz-adv-x="235" 
d="M72 538h91v-538h-91v538zM184 680q41 0 47 45h71q-11 -59 -42 -86t-74 -27q-33 0 -75 24t-61 24q-40 0 -45 -44h-71q9 56 40 84t75 28q32 0 73 -24t62 -24z" />
    <glyph glyph-name="Imacron" unicode="&#x12a;" horiz-adv-x="274" 
d="M188 725v-725h-102v725h102zM288 791h-300v75h300v-75z" />
    <glyph glyph-name="imacron" unicode="&#x12b;" horiz-adv-x="235" 
d="M72 538h91v-538h-91v538zM268 635h-300v75h300v-75z" />
    <glyph glyph-name="Ibreve" unicode="&#x12c;" horiz-adv-x="274" 
d="M188 725v-725h-102v725h102zM219 886h77q-6 -55 -45.5 -87t-113.5 -32q-140 0 -156 119h77q9 -58 80 -58t81 58z" />
    <glyph glyph-name="ibreve" unicode="&#x12d;" horiz-adv-x="235" 
d="M72 538h91v-538h-91v538zM206 725h71q-16 -121 -160 -121q-76 0 -114.5 35t-42.5 86h71q8 -61 87 -61q80 0 88 61z" />
    <glyph glyph-name="Iogonek" unicode="&#x12e;" horiz-adv-x="274" 
d="M188 725v-725h-102v725h102zM87 0h102q-88 -43 -88 -80q0 -23 13.5 -34t33.5 -11q22 0 41 9v-61q-27 -11 -60 -11q-46 0 -78.5 23t-32.5 72q0 55 69 93z" />
    <glyph glyph-name="iogonek" unicode="&#x12f;" horiz-adv-x="235" 
d="M72 0v538h91v-538q-98 -41 -98 -85q0 -39 55 -39q20 0 42 6v-61q-27 -9 -64 -9q-48 0 -82 21t-34 69q0 60 90 98zM72 725h91v-110h-91v110z" />
    <glyph glyph-name="Idot" unicode="&#x130;" horiz-adv-x="274" 
d="M188 725v-725h-102v725h102zM92 880h91v-99h-91v99z" />
    <glyph glyph-name="dotlessi" unicode="&#x131;" horiz-adv-x="235" 
d="M72 538h91v-538h-91v538z" />
    <glyph glyph-name="Jcircumflex" unicode="&#x134;" horiz-adv-x="552" 
d="M364 231v494h102v-495q0 -119 -59.5 -181t-168.5 -62t-168 60t-59 177h95q0 -72 37.5 -113t94.5 -41q126 0 126 161zM458 886l132 -113h-107l-68 56l-68 -56h-107l135 113h83z" />
    <glyph glyph-name="jcircumflex" unicode="&#x135;" horiz-adv-x="235" 
d="M72 -29v567h91v-565q0 -86 -25.5 -117t-101.5 -31h-46v76h26q35 0 45.5 13.5t10.5 56.5zM164 725l129 -116h-96l-79 54l-79 -54h-96l132 116h89z" />
    <glyph glyph-name="uni0136" unicode="&#x136;" horiz-adv-x="666" 
d="M188 725v-365l327 365h127l-271 -296l302 -429h-122l-249 354l-114 -126v-228h-102v725h102zM313 -125v89h95v-95l-44 -90h-54l39 96h-36z" />
    <glyph glyph-name="uni0137" unicode="&#x137;" horiz-adv-x="505" 
d="M72 725h91v-429l217 242h112l-205 -223l233 -315h-111l-183 248l-63 -68v-180h-91v725zM234 -125v89h95v-95l-44 -90h-54l39 96h-36z" />
    <glyph glyph-name="Lacute" unicode="&#x139;" horiz-adv-x="571" 
d="M188 725v-637h383v-88h-485v725h102zM327 886l-149 -113h-90l110 113h129z" />
    <glyph glyph-name="lacute" unicode="&#x13a;" horiz-adv-x="235" 
d="M163 725v-725h-91v725h91zM311 886l-149 -113h-90l110 113h129z" />
    <glyph glyph-name="uni013B" unicode="&#x13b;" horiz-adv-x="571" 
d="M188 725v-637h383v-88h-485v725h102zM282 -125v89h95v-95l-44 -90h-54l39 96h-36z" />
    <glyph glyph-name="uni013C" unicode="&#x13c;" horiz-adv-x="235" 
d="M163 725v-725h-91v725h91zM71 -125v89h95v-95l-44 -90h-54l39 96h-36z" />
    <glyph glyph-name="Lcaron" unicode="&#x13d;" horiz-adv-x="571" 
d="M188 725v-637h383v-88h-485v725h102zM408 725l-70 -170h-58l30 170h98z" />
    <glyph glyph-name="lcaron" unicode="&#x13e;" horiz-adv-x="312" 
d="M332 725l-70 -170h-58l30 170h98zM163 725v-725h-91v725h91z" />
    <glyph glyph-name="Ldot" unicode="&#x13f;" horiz-adv-x="571" 
d="M188 725v-637h383v-88h-485v725h102zM377 467h91v-99h-91v99z" />
    <glyph glyph-name="ldot" unicode="&#x140;" horiz-adv-x="326" 
d="M163 725v-725h-91v725h91zM235 459h91v-99h-91v99z" />
    <glyph glyph-name="Lslash" unicode="&#x141;" horiz-adv-x="571" 
d="M188 725v-312l189 129v-91l-189 -129v-234h383v-88h-485v252l-86 -59v91l86 59v382h102z" />
    <glyph glyph-name="lslash" unicode="&#x142;" horiz-adv-x="276" 
d="M183 725v-270l73 50v-77l-73 -50v-378h-91v316l-72 -49v76l72 49v333h91z" />
    <glyph glyph-name="Nacute" unicode="&#x143;" horiz-adv-x="755" 
d="M669 0h-149l-332 619v-619h-102v725h150l331 -617v617h102v-725zM571 886l-149 -113h-90l110 113h129z" />
    <glyph glyph-name="nacute" unicode="&#x144;" horiz-adv-x="578" 
d="M163 538v-81q55 90 174 90q177 0 177 -207v-340h-91v313q0 74 -23.5 114.5t-94.5 40.5q-67 0 -104.5 -45t-37.5 -131v-292h-91v538h91zM462 725l-131 -116h-76l90 116h117z" />
    <glyph glyph-name="uni0145" unicode="&#x145;" horiz-adv-x="755" 
d="M669 0h-149l-332 619v-619h-102v725h150l331 -617v617h102v-725zM331 -125v89h95v-95l-44 -90h-54l39 96h-36z" />
    <glyph glyph-name="uni0146" unicode="&#x146;" horiz-adv-x="578" 
d="M163 538v-81q55 90 174 90q177 0 177 -207v-340h-91v313q0 74 -23.5 114.5t-94.5 40.5q-67 0 -104.5 -45t-37.5 -131v-292h-91v538h91zM243 -125v89h95v-95l-44 -90h-54l39 96h-36z" />
    <glyph glyph-name="Ncaron" unicode="&#x147;" horiz-adv-x="755" 
d="M669 0h-149l-332 619v-619h-102v725h150l331 -617v617h102v-725zM356 773l-131 113h107l67 -56l69 56h107l-135 -113h-84z" />
    <glyph glyph-name="ncaron" unicode="&#x148;" horiz-adv-x="578" 
d="M163 538v-81q55 90 174 90q177 0 177 -207v-340h-91v313q0 74 -23.5 114.5t-94.5 40.5q-67 0 -104.5 -45t-37.5 -131v-292h-91v538h91zM257 609l-129 116h96l78 -54l80 54h96l-133 -116h-88z" />
    <glyph glyph-name="Eng" unicode="&#x14a;" horiz-adv-x="755" 
d="M567 3l-379 614v-617h-102v725h153l328 -541v541h102v-740q0 -102 -37 -136.5t-130 -34.5h-42v91h22q56 0 70.5 15.5t14.5 73.5v9z" />
    <glyph glyph-name="eng" unicode="&#x14b;" horiz-adv-x="578" 
d="M423 -28v341q0 74 -23.5 114t-94.5 40q-67 0 -104.5 -44.5t-37.5 -130.5v-292h-91v538h91v-81q55 90 174 90q177 0 177 -207v-377q0 -84 -24.5 -111t-102.5 -27h-46v77h26q35 0 45.5 13.5t10.5 56.5z" />
    <glyph glyph-name="Omacron" unicode="&#x14c;" horiz-adv-x="782" 
d="M155 363q0 -136 66.5 -213t169.5 -77t169.5 77t66.5 213t-66.5 212.5t-169.5 76.5t-169.5 -76.5t-66.5 -212.5zM731 363q0 -166 -93 -271t-247 -105t-247 105t-93 271t93 270.5t247 104.5t247 -104.5t93 -270.5zM541 791h-300v75h300v-75z" />
    <glyph glyph-name="omacron" unicode="&#x14d;" horiz-adv-x="590" 
d="M134 267q0 -101 46 -150.5t115 -49.5q68 0 114.5 51t46.5 149q0 101 -46 150.5t-115 49.5t-115 -48.5t-46 -151.5zM295 547q104 0 181 -72t77 -208t-77 -208t-181 -72t-181 72t-77 208t77 208t181 72zM442 635h-300v75h300v-75z" />
    <glyph glyph-name="Obreve" unicode="&#x14e;" horiz-adv-x="782" 
d="M155 363q0 -136 66.5 -213t169.5 -77t169.5 77t66.5 213t-66.5 212.5t-169.5 76.5t-169.5 -76.5t-66.5 -212.5zM731 363q0 -166 -93 -271t-247 -105t-247 105t-93 271t93 270.5t247 104.5t247 -104.5t93 -270.5zM472 886h77q-6 -55 -45.5 -87t-113.5 -32q-140 0 -156 119
h77q9 -58 80 -58t81 58z" />
    <glyph glyph-name="obreve" unicode="&#x14f;" horiz-adv-x="590" 
d="M134 267q0 -101 46 -150.5t115 -49.5q68 0 114.5 51t46.5 149q0 101 -46 150.5t-115 49.5t-115 -48.5t-46 -151.5zM295 547q104 0 181 -72t77 -208t-77 -208t-181 -72t-181 72t-77 208t77 208t181 72zM380 725h71q-16 -121 -160 -121q-76 0 -114.5 35t-42.5 86h71
q8 -61 87 -61q80 0 88 61z" />
    <glyph glyph-name="Ohungarumlaut" unicode="&#x150;" horiz-adv-x="782" 
d="M155 363q0 -136 66.5 -213t169.5 -77t169.5 77t66.5 213t-66.5 212.5t-169.5 76.5t-169.5 -76.5t-66.5 -212.5zM731 363q0 -166 -93 -271t-247 -105t-247 105t-93 271t93 270.5t247 104.5t247 -104.5t93 -270.5zM502 886l-149 -113h-90l110 113h129zM669 886l-149 -113
h-90l110 113h129z" />
    <glyph glyph-name="ohungarumlaut" unicode="&#x151;" horiz-adv-x="590" 
d="M134 267q0 -101 46 -150.5t115 -49.5q68 0 114.5 51t46.5 149q0 101 -46 150.5t-115 49.5t-115 -48.5t-46 -151.5zM295 547q104 0 181 -72t77 -208t-77 -208t-181 -72t-181 72t-77 208t77 208t181 72zM382 725l-131 -116h-76l90 116h117zM540 725l-130 -116h-77l91 116
h116z" />
    <glyph glyph-name="OE" unicode="&#x152;" horiz-adv-x="1134" 
d="M627 363q0 135 -66.5 212t-169.5 77t-169.5 -77t-66.5 -212q0 -136 66.5 -213t169.5 -77t169.5 77t66.5 213zM629 0v99q-82 -112 -239 -112q-154 0 -246.5 105t-92.5 271q0 164 95.5 269.5t245.5 105.5q155 0 237 -111v98h470v-88h-389v-220h366v-88h-366v-241h389v-88
h-470z" />
    <glyph glyph-name="oe" unicode="&#x153;" horiz-adv-x="993" 
d="M708 469q-65 0 -110.5 -38t-51.5 -114h317q-2 61 -44 106.5t-111 45.5zM295 67q68 0 114.5 51t46.5 149q0 101 -46 150.5t-115 49.5t-115 -48.5t-46 -151.5q0 -101 46 -150.5t115 -49.5zM858 156h94q-19 -73 -83 -121t-158 -48q-147 0 -212 112q-32 -56 -86.5 -84
t-117.5 -28q-104 0 -181 72t-77 208t77 208t181 72q64 0 118.5 -28.5t86.5 -85.5q68 114 208 114q121 0 190 -88.5t61 -219.5h-414q4 -82 52.5 -127t113.5 -45q108 0 147 89z" />
    <glyph glyph-name="Racute" unicode="&#x154;" horiz-adv-x="679" 
d="M528 0l-157 306q-19 -1 -55 -1h-128v-305h-102v725h230q72 0 122.5 -8.5t93.5 -30.5t64.5 -64.5t21.5 -105.5q0 -155 -144 -194l168 -322h-114zM324 639h-136v-248h136q46 0 75.5 3.5t58 15.5t42 38t13.5 66q0 33 -10 56t-25.5 36.5t-41.5 21t-51 9.5t-61 2zM518 886
l-149 -113h-90l110 113h129z" />
    <glyph glyph-name="racute" unicode="&#x155;" horiz-adv-x="355" 
d="M340 540v-97q-25 4 -51 4q-65 0 -95.5 -38.5t-30.5 -126.5v-282h-91v538h89v-94q41 92 152 97q16 0 27 -1zM375 725l-131 -116h-76l90 116h117z" />
    <glyph glyph-name="uni0156" unicode="&#x156;" horiz-adv-x="679" 
d="M528 0l-157 306q-19 -1 -55 -1h-128v-305h-102v725h230q72 0 122.5 -8.5t93.5 -30.5t64.5 -64.5t21.5 -105.5q0 -155 -144 -194l168 -322h-114zM324 639h-136v-248h136q46 0 75.5 3.5t58 15.5t42 38t13.5 66q0 33 -10 56t-25.5 36.5t-41.5 21t-51 9.5t-61 2zM298 -125v89
h95v-95l-44 -90h-54l39 96h-36z" />
    <glyph glyph-name="uni0157" unicode="&#x157;" horiz-adv-x="355" 
d="M340 540v-97q-25 4 -51 4q-65 0 -95.5 -38.5t-30.5 -126.5v-282h-91v538h89v-94q41 92 152 97q16 0 27 -1zM71 -125v89h95v-95l-44 -90h-54l39 96h-36z" />
    <glyph glyph-name="Rcaron" unicode="&#x158;" horiz-adv-x="679" 
d="M528 0l-157 306q-19 -1 -55 -1h-128v-305h-102v725h230q72 0 122.5 -8.5t93.5 -30.5t64.5 -64.5t21.5 -105.5q0 -155 -144 -194l168 -322h-114zM324 639h-136v-248h136q46 0 75.5 3.5t58 15.5t42 38t13.5 66q0 33 -10 56t-25.5 36.5t-41.5 21t-51 9.5t-61 2zM300 773
l-131 113h107l67 -56l69 56h107l-135 -113h-84z" />
    <glyph glyph-name="rcaron" unicode="&#x159;" horiz-adv-x="355" 
d="M340 540v-97q-25 4 -51 4q-65 0 -95.5 -38.5t-30.5 -126.5v-282h-91v538h89v-94q41 92 152 97q16 0 27 -1zM160 609l-129 116h96l78 -54l80 54h96l-133 -116h-88z" />
    <glyph glyph-name="Sacute" unicode="&#x15a;" horiz-adv-x="641" 
d="M56 540q0 65 42 112t99.5 66.5t120.5 19.5q105 0 179.5 -49.5t95.5 -148.5h-99q-17 58 -68 85t-112 27q-54 0 -104 -26t-50 -80q0 -85 118 -111l84 -19q39 -8 68.5 -17t64.5 -26t57.5 -38t38 -55t15.5 -76q0 -101 -80.5 -159t-195.5 -58q-127 0 -205.5 64t-92.5 174h100
q29 -152 200 -152q80 0 124.5 33.5t44.5 88.5q0 54 -39.5 82t-116.5 46l-90 19q-86 19 -142.5 67t-56.5 131zM513 886l-149 -113h-90l110 113h129z" />
    <glyph glyph-name="sacute" unicode="&#x15b;" horiz-adv-x="525" 
d="M475 381h-95q-21 89 -127 89q-45 0 -79 -17.5t-34 -50.5q0 -31 20.5 -47.5t61.5 -25.5l76 -15q85 -16 134.5 -52.5t49.5 -107.5q0 -78 -62 -122.5t-157 -44.5q-99 0 -160.5 55.5t-70.5 131.5h96q24 -110 137 -110q54 0 89.5 21.5t35.5 58.5q0 38 -28.5 57.5t-80.5 31.5
l-80 16q-68 15 -110.5 48t-42.5 101q0 69 61.5 109.5t153.5 40.5q88 0 143.5 -44.5t68.5 -122.5zM426 725l-131 -116h-76l90 116h117z" />
    <glyph glyph-name="Scircumflex" unicode="&#x15c;" horiz-adv-x="641" 
d="M56 540q0 65 42 112t99.5 66.5t120.5 19.5q105 0 179.5 -49.5t95.5 -148.5h-99q-17 58 -68 85t-112 27q-54 0 -104 -26t-50 -80q0 -85 118 -111l84 -19q39 -8 68.5 -17t64.5 -26t57.5 -38t38 -55t15.5 -76q0 -101 -80.5 -159t-195.5 -58q-127 0 -205.5 64t-92.5 174h100
q29 -152 200 -152q80 0 124.5 33.5t44.5 88.5q0 54 -39.5 82t-116.5 46l-90 19q-86 19 -142.5 67t-56.5 131zM370 886l132 -113h-107l-68 56l-68 -56h-107l135 113h83z" />
    <glyph glyph-name="scircumflex" unicode="&#x15d;" horiz-adv-x="525" 
d="M475 381h-95q-21 89 -127 89q-45 0 -79 -17.5t-34 -50.5q0 -31 20.5 -47.5t61.5 -25.5l76 -15q85 -16 134.5 -52.5t49.5 -107.5q0 -78 -62 -122.5t-157 -44.5q-99 0 -160.5 55.5t-70.5 131.5h96q24 -110 137 -110q54 0 89.5 21.5t35.5 58.5q0 38 -28.5 57.5t-80.5 31.5
l-80 16q-68 15 -110.5 48t-42.5 101q0 69 61.5 109.5t153.5 40.5q88 0 143.5 -44.5t68.5 -122.5zM313 725l129 -116h-96l-79 54l-79 -54h-96l132 116h89z" />
    <glyph glyph-name="Scedilla" unicode="&#x15e;" horiz-adv-x="641" 
d="M56 540q0 65 42 112t99.5 66.5t120.5 19.5q105 0 179.5 -49.5t95.5 -148.5h-99q-17 58 -68 85t-112 27q-54 0 -104 -26t-50 -80q0 -85 118 -111l84 -19q39 -8 68.5 -17t64.5 -26t57.5 -38t38 -55t15.5 -76q0 -101 -80.5 -159t-195.5 -58q-127 0 -205.5 64t-92.5 174h100
q29 -152 200 -152q80 0 124.5 33.5t44.5 88.5q0 54 -39.5 82t-116.5 46l-90 19q-86 19 -142.5 67t-56.5 131zM219 -176l16 40q30 -14 58 -14q61 0 61 32q0 30 -44 30q-24 0 -38 -9l-30 17l51 83h53l-32 -51q15 3 30 3q36 0 56 -18.5t20 -49.5q0 -37 -33 -59.5t-75 -22.5
q-54 0 -93 19z" />
    <glyph glyph-name="scedilla" unicode="&#x15f;" horiz-adv-x="525" 
d="M475 381h-95q-21 89 -127 89q-45 0 -79 -17.5t-34 -50.5q0 -31 20.5 -47.5t61.5 -25.5l76 -15q85 -16 134.5 -52.5t49.5 -107.5q0 -78 -62 -122.5t-157 -44.5q-99 0 -160.5 55.5t-70.5 131.5h96q24 -110 137 -110q54 0 89.5 21.5t35.5 58.5q0 38 -28.5 57.5t-80.5 31.5
l-80 16q-68 15 -110.5 48t-42.5 101q0 69 61.5 109.5t153.5 40.5q88 0 143.5 -44.5t68.5 -122.5zM157 -176l16 40q30 -14 58 -14q61 0 61 32q0 30 -44 30q-24 0 -38 -9l-30 17l51 83h53l-32 -51q15 3 30 3q36 0 56 -18.5t20 -49.5q0 -37 -33 -59.5t-75 -22.5q-54 0 -93 19z
" />
    <glyph glyph-name="Scaron" unicode="&#x160;" horiz-adv-x="641" 
d="M56 540q0 65 42 112t99.5 66.5t120.5 19.5q105 0 179.5 -49.5t95.5 -148.5h-99q-17 58 -68 85t-112 27q-54 0 -104 -26t-50 -80q0 -85 118 -111l84 -19q39 -8 68.5 -17t64.5 -26t57.5 -38t38 -55t15.5 -76q0 -101 -80.5 -159t-195.5 -58q-127 0 -205.5 64t-92.5 174h100
q29 -152 200 -152q80 0 124.5 33.5t44.5 88.5q0 54 -39.5 82t-116.5 46l-90 19q-86 19 -142.5 67t-56.5 131zM283 773l-131 113h107l67 -56l69 56h107l-135 -113h-84z" />
    <glyph glyph-name="scaron" unicode="&#x161;" horiz-adv-x="525" 
d="M475 381h-95q-21 89 -127 89q-45 0 -79 -17.5t-34 -50.5q0 -31 20.5 -47.5t61.5 -25.5l76 -15q85 -16 134.5 -52.5t49.5 -107.5q0 -78 -62 -122.5t-157 -44.5q-99 0 -160.5 55.5t-70.5 131.5h96q24 -110 137 -110q54 0 89.5 21.5t35.5 58.5q0 38 -28.5 57.5t-80.5 31.5
l-80 16q-68 15 -110.5 48t-42.5 101q0 69 61.5 109.5t153.5 40.5q88 0 143.5 -44.5t68.5 -122.5zM221 609l-129 116h96l78 -54l80 54h96l-133 -116h-88z" />
    <glyph glyph-name="uni0162" unicode="&#x162;" horiz-adv-x="574" 
d="M236 0v637h-236v88h574v-88h-236v-637h-102zM241 -125v89h95v-95l-44 -90h-54l39 96h-36z" />
    <glyph glyph-name="uni0163" unicode="&#x163;" horiz-adv-x="325" 
d="M98 538v135h91v-135h102v-73h-102v-319q0 -44 9.5 -57t46.5 -13h46v-76h-66q-78 0 -102.5 26t-24.5 109v330h-85v73h85zM106 -125v89h95v-95l-44 -90h-54l39 96h-36z" />
    <glyph glyph-name="Tcaron" unicode="&#x164;" horiz-adv-x="574" 
d="M236 0v637h-236v88h574v-88h-236v-637h-102zM243 773l-131 113h107l67 -56l69 56h107l-135 -113h-84z" />
    <glyph glyph-name="tcaron" unicode="&#x165;" horiz-adv-x="358" 
d="M378 725l-70 -150h-58l30 150h98zM98 538v135h91v-135h102v-73h-102v-319q0 -44 9.5 -57t46.5 -13h46v-76h-66q-78 0 -102.5 26t-24.5 109v330h-85v73h85z" />
    <glyph glyph-name="Tbar" unicode="&#x166;" horiz-adv-x="573" 
d="M236 0v323h-151v90h151v224h-236v88h574v-88h-236v-224h151v-90h-151v-323h-102z" />
    <glyph glyph-name="tbar" unicode="&#x167;" horiz-adv-x="346" 
d="M109 538v135h91v-135h102v-73h-102v-83h102v-75h-102v-161q0 -44 9 -57t47 -13h46v-76h-66q-78 0 -102.5 26t-24.5 109v172h-85v75h85v83h-85v73h85z" />
    <glyph glyph-name="Utilde" unicode="&#x168;" horiz-adv-x="731" 
d="M75 725h102v-441q0 -109 43.5 -159t143.5 -50q101 0 145.5 54.5t44.5 165.5v430h102v-422q0 -162 -68.5 -239t-223.5 -77q-153 0 -221 70.5t-68 237.5v430zM444 840q41 0 47 45h71q-11 -59 -42 -86t-74 -27q-33 0 -75 23.5t-61 23.5q-40 0 -45 -44h-71q9 56 40 84t75 28
q32 0 73 -23.5t62 -23.5z" />
    <glyph glyph-name="utilde" unicode="&#x169;" horiz-adv-x="568" 
d="M405 0v77q-55 -90 -169 -90q-172 0 -172 207v344h91v-317q0 -74 22.5 -114.5t90.5 -40.5q66 0 101.5 44.5t35.5 131.5v296h91v-538h-91zM353 680q41 0 47 45h71q-11 -59 -42 -86t-74 -27q-33 0 -75 24t-61 24q-40 0 -45 -44h-71q9 56 40 84t75 28q32 0 73 -24t62 -24z
" />
    <glyph glyph-name="Umacron" unicode="&#x16a;" horiz-adv-x="731" 
d="M75 725h102v-441q0 -109 43.5 -159t143.5 -50q101 0 145.5 54.5t44.5 165.5v430h102v-422q0 -162 -68.5 -239t-223.5 -77q-153 0 -221 70.5t-68 237.5v430zM515 791h-300v75h300v-75z" />
    <glyph glyph-name="umacron" unicode="&#x16b;" horiz-adv-x="568" 
d="M405 0v77q-55 -90 -169 -90q-172 0 -172 207v344h91v-317q0 -74 22.5 -114.5t90.5 -40.5q66 0 101.5 44.5t35.5 131.5v296h91v-538h-91zM433 635h-300v75h300v-75z" />
    <glyph glyph-name="Ubreve" unicode="&#x16c;" horiz-adv-x="731" 
d="M75 725h102v-441q0 -109 43.5 -159t143.5 -50q101 0 145.5 54.5t44.5 165.5v430h102v-422q0 -162 -68.5 -239t-223.5 -77q-153 0 -221 70.5t-68 237.5v430zM446 886h77q-6 -55 -45.5 -87t-113.5 -32q-140 0 -156 119h77q9 -58 80 -58t81 58z" />
    <glyph glyph-name="ubreve" unicode="&#x16d;" horiz-adv-x="568" 
d="M405 0v77q-55 -90 -169 -90q-172 0 -172 207v344h91v-317q0 -74 22.5 -114.5t90.5 -40.5q66 0 101.5 44.5t35.5 131.5v296h91v-538h-91zM371 725h71q-16 -121 -160 -121q-76 0 -114.5 35t-42.5 86h71q8 -61 87 -61q80 0 88 61z" />
    <glyph glyph-name="Uring" unicode="&#x16e;" horiz-adv-x="731" 
d="M75 725h102v-441q0 -109 43.5 -159t143.5 -50q101 0 145.5 54.5t44.5 165.5v430h102v-422q0 -162 -68.5 -239t-223.5 -77q-153 0 -221 70.5t-68 237.5v430zM365 935q39 0 65 -23.5t26 -61.5q0 -37 -26 -61t-65 -24q-38 0 -64 24t-26 61t26 61t64 24zM365 893
q-18 0 -30.5 -12.5t-12.5 -30.5t12.5 -30t30.5 -12t30.5 12t12.5 30t-12.5 30.5t-30.5 12.5z" />
    <glyph glyph-name="uring" unicode="&#x16f;" horiz-adv-x="568" 
d="M405 0v77q-55 -90 -169 -90q-172 0 -172 207v344h91v-317q0 -74 22.5 -114.5t90.5 -40.5q66 0 101.5 44.5t35.5 131.5v296h91v-538h-91zM283 770q39 0 65 -23.5t26 -61.5q0 -37 -26 -61t-65 -24q-38 0 -64 24t-26 61t26 61t64 24zM283 728q-18 0 -30.5 -12.5t-12.5 -30.5
t12.5 -30t30.5 -12t30.5 12t12.5 30t-12.5 30.5t-30.5 12.5z" />
    <glyph glyph-name="Uhungarumlaut" unicode="&#x170;" horiz-adv-x="731" 
d="M75 725h102v-441q0 -109 43.5 -159t143.5 -50q101 0 145.5 54.5t44.5 165.5v430h102v-422q0 -162 -68.5 -239t-223.5 -77q-153 0 -221 70.5t-68 237.5v430zM476 886l-149 -113h-90l110 113h129zM643 886l-149 -113h-90l110 113h129z" />
    <glyph glyph-name="uhungarumlaut" unicode="&#x171;" horiz-adv-x="568" 
d="M373 725l-131 -116h-76l90 116h117zM531 725l-130 -116h-77l91 116h116zM405 0v77q-55 -90 -169 -90q-172 0 -172 207v344h91v-317q0 -74 22.5 -114.5t90.5 -40.5q66 0 101.5 44.5t35.5 131.5v296h91v-538h-91z" />
    <glyph glyph-name="Uogonek" unicode="&#x172;" horiz-adv-x="731" 
d="M379 -188q-46 0 -78.5 23t-32.5 72q0 46 50 82q-127 8 -185 79.5t-58 226.5v430h102v-441q0 -109 43.5 -159t143.5 -50q101 0 145.5 54.5t44.5 165.5v430h102v-422q0 -147 -52.5 -220t-183.5 -98q-28 -6 -48.5 -25t-20.5 -40q0 -23 13.5 -34t33.5 -11q22 0 41 9v-61
q-27 -11 -60 -11z" />
    <glyph glyph-name="uogonek" unicode="&#x173;" horiz-adv-x="571" 
d="M405 0v77q-55 -90 -169 -90q-172 0 -172 207v344h91v-317q0 -74 22.5 -114.5t90.5 -40.5q66 0 101.5 44.5t35.5 131.5v296h91v-538h-91zM408 0h91q-98 -41 -98 -85q0 -39 55 -39q20 0 42 6v-61q-27 -9 -64 -9q-48 0 -82 21t-34 69q0 60 90 98z" />
    <glyph glyph-name="Wcircumflex" unicode="&#x174;" horiz-adv-x="922" 
d="M522 725l143 -609l134 609h107l-181 -725h-124l-140 596l-137 -596h-124l-184 725h112l140 -609l134 609h120zM504 886l132 -113h-107l-68 56l-68 -56h-107l135 113h83z" />
    <glyph glyph-name="wcircumflex" unicode="&#x175;" horiz-adv-x="720" 
d="M206 140l107 398h94l107 -398l103 398h98l-155 -538h-83l-119 433l-115 -433h-83l-155 538h98zM401 725l129 -116h-96l-79 54l-79 -54h-96l132 116h89z" />
    <glyph glyph-name="Ycircumflex" unicode="&#x176;" horiz-adv-x="624" 
d="M0 725h112l198 -354l202 354h112l-266 -444v-281h-102v283zM355 886l132 -113h-107l-68 56l-68 -56h-107l135 113h83z" />
    <glyph glyph-name="ycircumflex" unicode="&#x177;" horiz-adv-x="466" 
d="M371 538h95l-192 -561q-22 -63 -40.5 -92.5t-52.5 -44.5t-94 -15h-47v76h37q51 0 73.5 15t39.5 73l4 11l-194 538h101l137 -415zM279 725l129 -116h-96l-79 54l-79 -54h-96l132 116h89z" />
    <glyph glyph-name="Ydieresis" unicode="&#x178;" horiz-adv-x="624" 
d="M0 725h112l198 -354l202 354h112l-266 -444v-281h-102v283zM152 879h91v-99h-91v99zM381 879h92v-99h-92v99z" />
    <glyph glyph-name="Zacute" unicode="&#x179;" horiz-adv-x="633" 
d="M588 725v-88l-426 -549h442v-88h-563v88l427 549h-394v88h514zM516 886l-149 -113h-90l110 113h129z" />
    <glyph glyph-name="zacute" unicode="&#x17a;" horiz-adv-x="488" 
d="M33 0v79l311 380h-291v79h397v-79l-310 -380h316v-79h-423zM413 725l-131 -116h-76l90 116h117z" />
    <glyph glyph-name="Zdotaccent" unicode="&#x17b;" horiz-adv-x="633" 
d="M588 725v-88l-426 -549h442v-88h-563v88l427 549h-394v88h514zM289 880h91v-99h-91v99z" />
    <glyph glyph-name="zdotaccent" unicode="&#x17c;" horiz-adv-x="488" 
d="M33 0v79l311 380h-291v79h397v-79l-310 -380h316v-79h-423zM214 725h91v-99h-91v99z" />
    <glyph glyph-name="Zcaron" unicode="&#x17d;" horiz-adv-x="633" 
d="M588 725v-88l-426 -549h442v-88h-563v88l427 549h-394v88h514zM288 773l-131 113h107l67 -56l69 56h107l-135 -113h-84z" />
    <glyph glyph-name="zcaron" unicode="&#x17e;" horiz-adv-x="488" 
d="M33 0v79l311 380h-291v79h397v-79l-310 -380h316v-79h-423zM218 609l-129 116h96l78 -54l80 54h96l-133 -116h-88z" />
    <glyph glyph-name="uni018F" unicode="&#x18f;" horiz-adv-x="781" 
d="M179 526h-107q31 104 119.5 158t200.5 54q151 0 243.5 -101.5t92.5 -273.5q0 -173 -93 -274.5t-245 -101.5q-172 0 -260.5 119.5t-73.5 305.5h565q-8 112 -72.5 176t-157.5 64q-81 0 -136 -34.5t-76 -91.5zM391 73q95 0 158.5 65.5t71.5 185.5h-459q2 -119 67 -185
t162 -66z" />
    <glyph glyph-name="uni0218" unicode="&#x218;" horiz-adv-x="641" 
d="M56 540q0 65 42 112t99.5 66.5t120.5 19.5q105 0 179.5 -49.5t95.5 -148.5h-99q-17 58 -68 85t-112 27q-54 0 -104 -26t-50 -80q0 -85 118 -111l84 -19q39 -8 68.5 -17t64.5 -26t57.5 -38t38 -55t15.5 -76q0 -101 -80.5 -159t-195.5 -58q-127 0 -205.5 64t-92.5 174h100
q29 -152 200 -152q80 0 124.5 33.5t44.5 88.5q0 54 -39.5 82t-116.5 46l-90 19q-86 19 -142.5 67t-56.5 131zM273 -125v89h95v-95l-44 -90h-54l39 96h-36z" />
    <glyph glyph-name="uni0219" unicode="&#x219;" horiz-adv-x="525" 
d="M475 381h-95q-21 89 -127 89q-45 0 -79 -17.5t-34 -50.5q0 -31 20.5 -47.5t61.5 -25.5l76 -15q85 -16 134.5 -52.5t49.5 -107.5q0 -78 -62 -122.5t-157 -44.5q-99 0 -160.5 55.5t-70.5 131.5h96q24 -110 137 -110q54 0 89.5 21.5t35.5 58.5q0 38 -28.5 57.5t-80.5 31.5
l-80 16q-68 15 -110.5 48t-42.5 101q0 69 61.5 109.5t153.5 40.5q88 0 143.5 -44.5t68.5 -122.5zM211 -125v89h95v-95l-44 -90h-54l39 96h-36z" />
    <glyph glyph-name="uni021A" unicode="&#x21a;" horiz-adv-x="574" 
d="M236 0v637h-236v88h574v-88h-236v-637h-102zM241 -125v89h95v-95l-44 -90h-54l39 96h-36z" />
    <glyph glyph-name="uni021B" unicode="&#x21b;" horiz-adv-x="325" 
d="M98 538v135h91v-135h102v-73h-102v-319q0 -44 9.5 -57t46.5 -13h46v-76h-66q-78 0 -102.5 26t-24.5 109v330h-85v73h85zM106 -125v89h95v-95l-44 -90h-54l39 96h-36z" />
    <glyph glyph-name="uni0232" unicode="&#x232;" horiz-adv-x="624" 
d="M0 725h112l198 -354l202 354h112l-266 -444v-281h-102v283zM462 791h-300v75h300v-75z" />
    <glyph glyph-name="uni0233" unicode="&#x233;" horiz-adv-x="466" 
d="M371 538h95l-192 -561q-22 -63 -40.5 -92.5t-52.5 -44.5t-94 -15h-47v76h37q51 0 73.5 15t39.5 73l4 11l-194 538h101l137 -415zM383 635h-300v75h300v-75z" />
    <glyph glyph-name="uni0237" unicode="&#x237;" horiz-adv-x="235" 
d="M72 -29v567h91v-565q0 -86 -25.5 -117t-101.5 -31h-46v76h26q35 0 45.5 13.5t10.5 56.5z" />
    <glyph glyph-name="uni0259" unicode="&#x259;" horiz-adv-x="581" 
d="M35 295h414q-2 82 -51.5 127t-114.5 45q-108 0 -147 -89h-94q19 73 83 121t158 48q124 0 194 -79t70 -202q0 -126 -74 -202.5t-187 -76.5q-121 0 -190 88.5t-61 219.5zM286 65q65 0 110.5 38t51.5 114h-317q2 -61 44 -106.5t111 -45.5z" />
    <glyph glyph-name="circumflex" unicode="&#x2c6;" horiz-adv-x="394" 
d="M243 725l129 -116h-96l-79 54l-79 -54h-96l132 116h89z" />
    <glyph glyph-name="caron" unicode="&#x2c7;" horiz-adv-x="394" 
d="M151 609l-129 116h96l78 -54l80 54h96l-133 -116h-88z" />
    <glyph glyph-name="breve" unicode="&#x2d8;" horiz-adv-x="361" 
d="M268 725h71q-16 -121 -160 -121q-76 0 -114.5 35t-42.5 86h71q8 -61 87 -61q80 0 88 61z" />
    <glyph glyph-name="dotaccent" unicode="&#x2d9;" horiz-adv-x="135" 
d="M22 725h91v-99h-91v99z" />
    <glyph glyph-name="ring" unicode="&#x2da;" horiz-adv-x="225" 
d="M112 770q39 0 65 -23.5t26 -61.5q0 -37 -26 -61t-65 -24q-38 0 -64 24t-26 61t26 61t64 24zM112 728q-18 0 -30.5 -12.5t-12.5 -30.5t12.5 -30t30.5 -12t30.5 12t12.5 30t-12.5 30.5t-30.5 12.5z" />
    <glyph glyph-name="ogonek" unicode="&#x2db;" horiz-adv-x="242" 
d="M112 0h91q-98 -41 -98 -85q0 -39 55 -39q20 0 42 6v-61q-27 -9 -64 -9q-48 0 -82 21t-34 69q0 60 90 98z" />
    <glyph glyph-name="tilde" unicode="&#x2dc;" horiz-adv-x="412" 
d="M272 680q41 0 47 45h71q-11 -59 -42 -86t-74 -27q-33 0 -75 24t-61 24q-40 0 -45 -44h-71q9 56 40 84t75 28q32 0 73 -24t62 -24z" />
    <glyph glyph-name="hungarumlaut" unicode="&#x2dd;" horiz-adv-x="409" 
d="M229 725l-131 -116h-76l90 116h117zM387 725l-130 -116h-77l91 116h116z" />
    <glyph glyph-name="uni032C" unicode="&#x32c;" horiz-adv-x="394" 
d="M162 -138l-140 138h101l73 -71l75 71h101l-143 -138h-67z" />
    <glyph glyph-name="uni0394" unicode="&#x394;" horiz-adv-x="697" 
d="M-5 0l354 727l354 -727h-708zM562 86l-213 444l-213 -444h426z" />
    <glyph glyph-name="uni0394" unicode="&#x2206;" horiz-adv-x="697" 
d="M-5 0l354 727l354 -727h-708zM562 86l-213 444l-213 -444h426z" />
    <glyph glyph-name="uni03A9" unicode="&#x3a9;" horiz-adv-x="794" 
d="M397 738q146 0 250 -85.5t104 -232.5q0 -93 -56 -171.5t-143 -106.5v-56h198v-86h-291v197q88 14 141.5 78.5t53.5 150.5q0 102 -72.5 167.5t-184.5 65.5t-184.5 -65.5t-72.5 -167.5q0 -86 53.5 -150.5t141.5 -78.5v-197h-291v86h198v56q-88 28 -143.5 106.5t-55.5 171.5
q0 147 104 232.5t250 85.5z" />
    <glyph glyph-name="uni03A9" unicode="&#x2126;" horiz-adv-x="794" 
d="M397 738q146 0 250 -85.5t104 -232.5q0 -93 -56 -171.5t-143 -106.5v-56h198v-86h-291v197q88 14 141.5 78.5t53.5 150.5q0 102 -72.5 167.5t-184.5 65.5t-184.5 -65.5t-72.5 -167.5q0 -86 53.5 -150.5t141.5 -78.5v-197h-291v86h198v56q-88 28 -143.5 106.5t-55.5 171.5
q0 147 104 232.5t250 85.5z" />
    <glyph glyph-name="pi" unicode="&#x3c0;" horiz-adv-x="647" 
d="M198 0h-92v452h-74v86h576v-86h-76v-306q0 -44 9.5 -56.5t48.5 -12.5h24v-77h-44q-79 0 -104 26t-25 109v317h-243v-452z" />
    <glyph glyph-name="Wgrave" unicode="&#x1e80;" horiz-adv-x="922" 
d="M522 725l143 -609l134 609h107l-181 -725h-124l-140 596l-137 -596h-124l-184 725h112l140 -609l134 609h120zM416 773l-148 113h129l110 -113h-91z" />
    <glyph glyph-name="wgrave" unicode="&#x1e81;" horiz-adv-x="720" 
d="M206 140l107 398h94l107 -398l103 398h98l-155 -538h-83l-119 433l-115 -433h-83l-155 538h98zM317 609l-130 116h116l91 -116h-77z" />
    <glyph glyph-name="Wacute" unicode="&#x1e82;" horiz-adv-x="922" 
d="M522 725l143 -609l134 609h107l-181 -725h-124l-140 596l-137 -596h-124l-184 725h112l140 -609l134 609h120zM655 886l-149 -113h-90l110 113h129z" />
    <glyph glyph-name="wacute" unicode="&#x1e83;" horiz-adv-x="720" 
d="M206 140l107 398h94l107 -398l103 398h98l-155 -538h-83l-119 433l-115 -433h-83l-155 538h98zM524 725l-131 -116h-76l90 116h117z" />
    <glyph glyph-name="Wdieresis" unicode="&#x1e84;" horiz-adv-x="922" 
d="M522 725l143 -609l134 609h107l-181 -725h-124l-140 596l-137 -596h-124l-184 725h112l140 -609l134 609h120zM301 879h91v-99h-91v99zM530 879h92v-99h-92v99z" />
    <glyph glyph-name="wdieresis" unicode="&#x1e85;" horiz-adv-x="720" 
d="M206 140l107 398h94l107 -398l103 398h98l-155 -538h-83l-119 433l-115 -433h-83l-155 538h98zM195 626v99h91v-99h-91zM424 725h92v-99h-92v99z" />
    <glyph glyph-name="uni1ECA" unicode="&#x1eca;" horiz-adv-x="274" 
d="M188 725v-725h-102v725h102zM92 -76h91v-99h-91v99z" />
    <glyph glyph-name="uni1ECB" unicode="&#x1ecb;" horiz-adv-x="235" 
d="M72 538h91v-538h-91v538zM72 725h91v-110h-91v110zM72 -76h91v-99h-91v99z" />
    <glyph glyph-name="uni1ECC" unicode="&#x1ecc;" horiz-adv-x="782" 
d="M155 363q0 -136 66.5 -213t169.5 -77t169.5 77t66.5 213t-66.5 212.5t-169.5 76.5t-169.5 -76.5t-66.5 -212.5zM731 363q0 -166 -93 -271t-247 -105t-247 105t-93 271t93 270.5t247 104.5t247 -104.5t93 -270.5zM346 -76h91v-99h-91v99z" />
    <glyph glyph-name="uni1ECD" unicode="&#x1ecd;" horiz-adv-x="590" 
d="M134 267q0 -101 46 -150.5t115 -49.5q68 0 114.5 51t46.5 149q0 101 -46 150.5t-115 49.5t-115 -48.5t-46 -151.5zM295 547q104 0 181 -72t77 -208t-77 -208t-181 -72t-181 72t-77 208t77 208t181 72zM247 -76h91v-99h-91v99z" />
    <glyph glyph-name="uni1EE4" unicode="&#x1ee4;" horiz-adv-x="731" 
d="M75 725h102v-441q0 -109 43.5 -159t143.5 -50q101 0 145.5 54.5t44.5 165.5v430h102v-422q0 -162 -68.5 -239t-223.5 -77q-153 0 -221 70.5t-68 237.5v430zM320 -76h91v-99h-91v99z" />
    <glyph glyph-name="uni1EE5" unicode="&#x1ee5;" horiz-adv-x="568" 
d="M405 0v77q-55 -90 -169 -90q-172 0 -172 207v344h91v-317q0 -74 22.5 -114.5t90.5 -40.5q66 0 101.5 44.5t35.5 131.5v296h91v-538h-91zM238 -76h91v-99h-91v99z" />
    <glyph glyph-name="Ygrave" unicode="&#x1ef2;" horiz-adv-x="624" 
d="M0 725h112l198 -354l202 354h112l-266 -444v-281h-102v283zM287 773l-148 113h129l110 -113h-91z" />
    <glyph glyph-name="ygrave" unicode="&#x1ef3;" horiz-adv-x="466" 
d="M371 538h95l-192 -561q-22 -63 -40.5 -92.5t-52.5 -44.5t-94 -15h-47v76h37q51 0 73.5 15t39.5 73l4 11l-194 538h101l137 -415zM215 609l-130 116h116l91 -116h-77z" />
    <glyph glyph-name="endash" unicode="&#x2013;" horiz-adv-x="512" 
d="M475 231h-437v86h437v-86z" />
    <glyph glyph-name="emdash" unicode="&#x2014;" horiz-adv-x="723" 
d="M691 231h-659v86h659v-86z" />
    <glyph glyph-name="quoteleft" unicode="&#x2018;" horiz-adv-x="244" 
d="M180 586v-115h-115v123l61 131h58l-52 -139h48z" />
    <glyph glyph-name="quoteright" unicode="&#x2019;" horiz-adv-x="245" 
d="M65 610v115h115v-123l-61 -131h-58l53 139h-49z" />
    <glyph glyph-name="quotesinglbase" unicode="&#x201a;" horiz-adv-x="244" 
d="M65 0v115h115v-123l-61 -131h-58l53 139h-49z" />
    <glyph glyph-name="quotedblleft" unicode="&#x201c;" horiz-adv-x="412" 
d="M180 586v-115h-115v123l61 131h58l-52 -139h48zM347 586v-115h-115v123l61 131h58l-52 -139h48z" />
    <glyph glyph-name="quotedblright" unicode="&#x201d;" horiz-adv-x="412" 
d="M232 610v115h115v-123l-61 -131h-58l53 139h-49zM65 610v115h115v-123l-61 -131h-58l53 139h-49z" />
    <glyph glyph-name="quotedblbase" unicode="&#x201e;" horiz-adv-x="422" 
d="M65 0v115h115v-123l-61 -131h-58l53 139h-49zM242 0v115h115v-123l-61 -131h-58l53 139h-49z" />
    <glyph glyph-name="dagger" unicode="&#x2020;" horiz-adv-x="565" 
d="M328 0h-92v420h-204v86h204v219h92v-219h204v-86h-204v-420z" />
    <glyph glyph-name="daggerdbl" unicode="&#x2021;" horiz-adv-x="565" 
d="M328 280h204v-86h-204v-194h-92v194h-204v86h204v161h-204v86h204v198h92v-198h204v-86h-204v-161z" />
    <glyph glyph-name="bullet" unicode="&#x2022;" horiz-adv-x="447" 
d="M43 279q0 73 52 125t124 52q78 0 131 -51.5t53 -125.5q0 -78 -52.5 -130.5t-131.5 -52.5q-73 0 -124.5 53t-51.5 130z" />
    <glyph glyph-name="ellipsis" unicode="&#x2026;" horiz-adv-x="735" 
d="M425 0h-115v115h115v-115zM670 0h-115v115h115v-115zM180 0h-115v115h115v-115z" />
    <glyph glyph-name="perthousand" unicode="&#x2030;" horiz-adv-x="1397" 
d="M1198 -7q-79 0 -121 57.5t-42 153.5t42 153.5t121 57.5q80 0 122.5 -57.5t42.5 -153.5t-42.5 -153.5t-122.5 -57.5zM1198 48q89 0 89 156q0 157 -89 157q-42 0 -64.5 -41t-22.5 -116t22.5 -115.5t64.5 -40.5zM200 310q-79 0 -121 57.5t-42 153.5t42 153.5t121 57.5
q80 0 122.5 -57.5t42.5 -153.5t-42.5 -153.5t-122.5 -57.5zM200 365q89 0 89 156q0 157 -89 157q-42 0 -64.5 -41t-22.5 -116t22.5 -115.5t64.5 -40.5zM300 0h-101l500 725h101zM800 -7q-79 0 -121 57.5t-42 153.5t42 153.5t121 57.5q80 0 122.5 -57.5t42.5 -153.5
t-42.5 -153.5t-122.5 -57.5zM800 48q89 0 89 156q0 157 -89 157q-42 0 -64.5 -41t-22.5 -116t22.5 -115.5t64.5 -40.5z" />
    <glyph glyph-name="guilsinglleft" unicode="&#x2039;" horiz-adv-x="289" 
d="M169 44l-159 229l159 228h98l-150 -228l150 -229h-98z" />
    <glyph glyph-name="guilsinglright" unicode="&#x203a;" horiz-adv-x="289" 
d="M279 273l-159 -229h-98l151 229l-151 228h98z" />
    <glyph glyph-name="fraction" unicode="&#x2044;" horiz-adv-x="201" 
d="M-99 0h-101l500 725h101z" />
    <glyph glyph-name="uni2070" unicode="&#x2070;" horiz-adv-x="399" 
d="M200 431q-79 0 -121 57.5t-42 153.5t42 153.5t121 57.5q80 0 122.5 -57.5t42.5 -153.5t-42.5 -153.5t-122.5 -57.5zM200 486q89 0 89 156q0 157 -89 157q-42 0 -64.5 -41t-22.5 -116t22.5 -115.5t64.5 -40.5z" />
    <glyph glyph-name="uni2074" unicode="&#x2074;" horiz-adv-x="377" 
d="M217 752l-122 -159h122v159zM361 593v-61h-70v-94h-74v94h-201v58l202 256h73v-253h70z" />
    <glyph glyph-name="uni2075" unicode="&#x2075;" horiz-adv-x="363" 
d="M181 486q34 0 55.5 22t21.5 60q0 40 -23.5 63.5t-55.5 23.5q-27 0 -46 -11.5t-25 -30.5l-68 3l27 230h248v-63h-187l-13 -98q30 24 83 24q55 0 95 -37t40 -103q0 -65 -43.5 -101.5t-109.5 -36.5q-67 0 -107.5 39t-42.5 96h69q9 -80 82 -80z" />
    <glyph glyph-name="uni2076" unicode="&#x2076;" horiz-adv-x="363" 
d="M109 569q0 -39 21 -61t54 -22q35 0 56 22t21 61t-21 61.5t-55 22.5t-55 -22.5t-21 -61.5zM189 799q-39 0 -62 -36t-23 -97q34 43 94 43q58 0 97.5 -38t39.5 -101t-42 -101t-108 -38q-78 0 -116.5 54.5t-38.5 145.5q0 97 39.5 159.5t123.5 62.5q62 0 96 -33t38 -79h-73
q-2 29 -19.5 43.5t-45.5 14.5z" />
    <glyph glyph-name="uni2077" unicode="&#x2077;" horiz-adv-x="310" 
d="M11 783v63h297v-63q-82 -82 -121.5 -160t-45.5 -185h-81q7 189 173 345h-222z" />
    <glyph glyph-name="uni2078" unicode="&#x2078;" horiz-adv-x="373" 
d="M187 853q64 0 102.5 -29t38.5 -75q0 -60 -51 -93q63 -36 63 -102q0 -58 -43.5 -90.5t-109.5 -32.5t-109.5 32.5t-43.5 90.5q0 68 63 102q-51 29 -51 93q0 46 38.5 75t102.5 29zM187 628q-36 0 -56.5 -18.5t-20.5 -51.5q0 -35 20.5 -53.5t56.5 -18.5t57 18.5t21 53.5
q0 33 -21 51.5t-57 18.5zM256 739q0 29 -18 44.5t-51 15.5q-31 0 -50 -15.5t-19 -44.5t19 -45.5t50 -16.5q32 0 50.5 16.5t18.5 45.5z" />
    <glyph glyph-name="uni2079" unicode="&#x2079;" horiz-adv-x="359" 
d="M253 715q0 40 -21 62t-55 22t-55 -22t-21 -62q0 -39 21 -61.5t55 -22.5q33 0 54.5 22.5t21.5 61.5zM173 486q39 0 61.5 36t23.5 96q-34 -43 -95 -43q-58 0 -97.5 38t-39.5 102q0 62 42 100t109 38q77 0 115.5 -54.5t38.5 -145.5q0 -97 -40 -159.5t-124 -62.5
q-62 0 -95.5 32.5t-37.5 79.5h73q6 -57 66 -57z" />
    <glyph glyph-name="uni207A" unicode="&#x207a;" horiz-adv-x="372" 
d="M219 438h-66v118h-123v65h123v120h66v-120h123v-65h-123v-118z" />
    <glyph glyph-name="uni207B" unicode="&#x207b;" horiz-adv-x="363" 
d="M31 621h302v-65h-302v65z" />
    <glyph glyph-name="uni207C" unicode="&#x207c;" horiz-adv-x="370" 
d="M328 614h-286v65h286v-65zM328 496h-286v65h286v-65z" />
    <glyph glyph-name="uni207D" unicode="&#x207d;" horiz-adv-x="172" 
d="M24 589q0 141 78 257h66q-69 -114 -69 -257q0 -141 69 -258h-66q-78 123 -78 258z" />
    <glyph glyph-name="uni207E" unicode="&#x207e;" horiz-adv-x="171" 
d="M146 589q0 -77 -23 -145t-54 -113h-66q69 117 69 258q0 143 -69 257h66q30 -43 53.5 -111.5t23.5 -145.5z" />
    <glyph glyph-name="uni207F" unicode="&#x207f;" horiz-adv-x="358" 
d="M121 741v-41q25 48 89 48q105 0 105 -120v-190h-74v173q0 24 -3 39t-15 27t-35 12q-67 0 -67 -91v-160h-73v303h73z" />
    <glyph glyph-name="uni2080" unicode="&#x2080;" horiz-adv-x="399" 
d="M200 -135q-79 0 -121 57.5t-42 153.5t42 153.5t121 57.5q80 0 122.5 -57.5t42.5 -153.5t-42.5 -153.5t-122.5 -57.5zM200 -80q89 0 89 156q0 157 -89 157q-42 0 -64.5 -41t-22.5 -116t22.5 -115.5t64.5 -40.5z" />
    <glyph glyph-name="uni2081" unicode="&#x2081;" horiz-adv-x="232" 
d="M176 -128h-74v308h-89v50q49 1 71.5 10t36.5 40h55v-408z" />
    <glyph glyph-name="uni2082" unicode="&#x2082;" horiz-adv-x="348" 
d="M177 287q59 0 97 -29t38 -79q0 -59 -50.5 -117.5t-151.5 -126.5h211v-63h-299v59q114 90 164 143.5t50 99.5q0 29 -17 44t-45 15q-31 0 -51.5 -21t-19.5 -64h-73q-1 63 39 101t108 38z" />
    <glyph glyph-name="uni2083" unicode="&#x2083;" horiz-adv-x="361" 
d="M178 -80q35 0 57 18t22 49q0 68 -95 68h-24v59h20q90 0 90 61q0 28 -19.5 43t-48.5 15q-70 0 -81 -77h-70q5 61 46 96t110 35q56 0 96.5 -27.5t40.5 -81.5q0 -29 -15.5 -53t-41.5 -37q32 -14 49.5 -40.5t17.5 -58.5q0 -60 -44.5 -92t-110.5 -32q-67 0 -108 39t-45 97h70
q6 -36 26.5 -58.5t57.5 -22.5z" />
    <glyph glyph-name="uni2084" unicode="&#x2084;" horiz-adv-x="377" 
d="M217 186l-122 -159h122v159zM361 27v-61h-70v-94h-74v94h-201v58l202 256h73v-253h70z" />
    <glyph glyph-name="uni2085" unicode="&#x2085;" horiz-adv-x="363" 
d="M181 -80q34 0 55.5 22t21.5 60q0 40 -23.5 63.5t-55.5 23.5q-27 0 -46 -11.5t-25 -30.5l-68 3l27 230h248v-63h-187l-13 -98q30 24 83 24q55 0 95 -37t40 -103q0 -65 -43.5 -101.5t-109.5 -36.5q-67 0 -107.5 39t-42.5 96h69q9 -80 82 -80z" />
    <glyph glyph-name="uni2086" unicode="&#x2086;" horiz-adv-x="363" 
d="M109 3q0 -39 21 -61t54 -22q35 0 56 22t21 61t-21 61.5t-55 22.5t-55 -22.5t-21 -61.5zM189 233q-39 0 -62 -36t-23 -97q34 43 94 43q58 0 97.5 -38t39.5 -101t-42 -101t-108 -38q-78 0 -116.5 54.5t-38.5 145.5q0 97 39.5 159.5t123.5 62.5q62 0 96 -33t38 -79h-73
q-2 29 -19.5 43.5t-45.5 14.5z" />
    <glyph glyph-name="uni2087" unicode="&#x2087;" horiz-adv-x="310" 
d="M11 217v63h297v-63q-82 -82 -121.5 -160t-45.5 -185h-81q7 189 173 345h-222z" />
    <glyph glyph-name="uni2088" unicode="&#x2088;" horiz-adv-x="373" 
d="M187 287q64 0 102.5 -29t38.5 -75q0 -60 -51 -93q63 -36 63 -102q0 -58 -43.5 -90.5t-109.5 -32.5t-109.5 32.5t-43.5 90.5q0 68 63 102q-51 29 -51 93q0 46 38.5 75t102.5 29zM187 62q-36 0 -56.5 -18.5t-20.5 -51.5q0 -35 20.5 -53.5t56.5 -18.5t57 18.5t21 53.5
q0 33 -21 51.5t-57 18.5zM256 173q0 29 -18 44.5t-51 15.5q-31 0 -50 -15.5t-19 -44.5t19 -45.5t50 -16.5q32 0 50.5 16.5t18.5 45.5z" />
    <glyph glyph-name="uni2089" unicode="&#x2089;" horiz-adv-x="359" 
d="M253 149q0 40 -21 62t-55 22t-55 -22t-21 -62q0 -39 21 -61.5t55 -22.5q33 0 54.5 22.5t21.5 61.5zM173 -80q39 0 61.5 36t23.5 96q-34 -43 -95 -43q-58 0 -97.5 38t-39.5 102q0 62 42 100t109 38q77 0 115.5 -54.5t38.5 -145.5q0 -97 -40 -159.5t-124 -62.5
q-62 0 -95.5 32.5t-37.5 79.5h73q6 -57 66 -57z" />
    <glyph glyph-name="uni208D" unicode="&#x208d;" horiz-adv-x="172" 
d="M24 23q0 141 78 257h66q-69 -114 -69 -257q0 -141 69 -258h-66q-78 123 -78 258z" />
    <glyph glyph-name="uni208E" unicode="&#x208e;" horiz-adv-x="171" 
d="M146 23q0 -77 -23 -145t-54 -113h-66q69 117 69 258q0 143 -69 257h66q30 -43 53.5 -111.5t23.5 -145.5z" />
    <glyph glyph-name="Euro" unicode="&#x20ac;" horiz-adv-x="702" 
d="M351 258h-157q20 -95 72 -145t130 -50q76 0 127 42t63 122h95q-12 -110 -91 -175t-191 -65q-125 0 -203 70.5t-101 200.5h-110l43 64h59q-1 15 -1 44q0 26 1 41h-102l43 63h67q24 127 104.5 197.5t202.5 70.5q109 0 187 -66t90 -174h-95q-11 79 -61.5 121.5t-126.5 42.5
t-129 -49t-73 -143h281l-43 -63h-247q-1 -15 -1 -41q0 -29 1 -44h209z" />
    <glyph glyph-name="uni2113" unicode="&#x2113;" horiz-adv-x="449" 
d="M115 170v34l-72 -54l-43 64l115 88v248q0 94 36.5 141t120.5 47q67 0 104 -42t37 -112q0 -90 -47 -158.5t-146 -142.5l-13 -10v-109q0 -55 19 -76t54 -21q49 0 96 42l40 -63q-63 -59 -147 -59t-119 42t-35 141zM207 562v-189l8 6q109 81 109 202q0 81 -58 81
q-33 0 -46 -21.5t-13 -78.5z" />
    <glyph glyph-name="uni2116" unicode="&#x2116;" horiz-adv-x="1070" 
d="M1033 556q0 -88 -43.5 -136.5t-116.5 -48.5q-74 0 -117.5 48.5t-43.5 136.5q0 87 45.5 134.5t115.5 47.5q71 0 115.5 -46.5t44.5 -135.5zM946 556q0 51 -19 79.5t-54 28.5q-75 0 -75 -108q0 -50 18.5 -79.5t56.5 -29.5q35 0 54 30t19 79zM1028 242h-310v86h310v-86z
M669 0h-149l-332 619v-619h-102v725h150l331 -617v617h102v-725z" />
    <glyph glyph-name="uni2117" unicode="&#x2117;" horiz-adv-x="825" 
d="M38 361q0 165 108 271t267 106q158 0 266 -106t108 -271q0 -164 -108 -269t-266 -105q-159 0 -267 105t-108 269zM112 361q0 -136 86.5 -221.5t214.5 -85.5q130 0 215 85.5t85 221.5q0 138 -85 224t-215 86q-128 0 -214.5 -86.5t-86.5 -223.5zM420 328h-58v-152h-82v399
h122q96 0 142 -25.5t46 -98.5q0 -53 -42.5 -88t-127.5 -35zM508 450q0 34 -23.5 47t-69.5 13h-53v-119h58q88 0 88 59z" />
    <glyph glyph-name="trademark" unicode="&#x2122;" horiz-adv-x="849" 
d="M130 326v334h-125v65h329v-65h-125v-334h-79zM632 326h-79l-106 294v-294h-79v399h123l104 -299l100 299h121v-399h-79v294z" />
    <glyph glyph-name="estimated" unicode="&#x212e;" horiz-adv-x="580" 
d="M498 150h40q-26 -74 -86.5 -118.5t-154.5 -44.5q-127 0 -198.5 79.5t-71.5 201.5q0 124 73 201.5t192 77.5q120 0 189 -80t71 -198h-410v-193q24 -24 69 -40t94 -16q70 0 119 34.5t74 95.5zM142 461v-160h294v158q-51 54 -145 54q-99 0 -149 -52z" />
    <glyph glyph-name="onethird" unicode="&#x2153;" horiz-adv-x="794" 
d="M176 317h-74v308h-89v50q49 1 71.5 10t36.5 40h55v-408zM133 0h-101l500 725h101zM611 48q35 0 57 18t22 49q0 68 -95 68h-24v59h20q90 0 90 61q0 28 -19.5 43t-48.5 15q-70 0 -81 -77h-70q5 61 46 96t110 35q56 0 96.5 -27.5t40.5 -81.5q0 -29 -15.5 -53t-41.5 -37
q32 -14 49.5 -40.5t17.5 -58.5q0 -60 -44.5 -92t-110.5 -32q-67 0 -108 39t-45 97h70q6 -36 26.5 -58.5t57.5 -22.5z" />
    <glyph glyph-name="twothirds" unicode="&#x2154;" horiz-adv-x="910" 
d="M177 732q59 0 97 -29t38 -79q0 -59 -50.5 -117.5t-151.5 -126.5h211v-63h-299v59q114 90 164 143.5t50 99.5q0 29 -17 44t-45 15q-31 0 -51.5 -21t-19.5 -64h-73q-1 63 39 101t108 38zM249 0h-101l500 725h101zM727 48q35 0 57 18t22 49q0 68 -95 68h-24v59h20
q90 0 90 61q0 28 -19.5 43t-48.5 15q-70 0 -81 -77h-70q5 61 46 96t110 35q56 0 96.5 -27.5t40.5 -81.5q0 -29 -15.5 -53t-41.5 -37q32 -14 49.5 -40.5t17.5 -58.5q0 -60 -44.5 -92t-110.5 -32q-67 0 -108 39t-45 97h70q6 -36 26.5 -58.5t57.5 -22.5z" />
    <glyph glyph-name="uni2155" unicode="&#x2155;" horiz-adv-x="796" 
d="M176 317h-74v308h-89v50q49 1 71.5 10t36.5 40h55v-408zM133 0h-101l500 725h101zM614 48q34 0 55.5 22t21.5 60q0 40 -23.5 63.5t-55.5 23.5q-27 0 -46 -11.5t-25 -30.5l-68 3l27 230h248v-63h-187l-13 -98q30 24 83 24q55 0 95 -37t40 -103q0 -65 -43.5 -101.5
t-109.5 -36.5q-67 0 -107.5 39t-42.5 96h69q9 -80 82 -80z" />
    <glyph glyph-name="uni2156" unicode="&#x2156;" horiz-adv-x="911" 
d="M177 732q59 0 97 -29t38 -79q0 -59 -50.5 -117.5t-151.5 -126.5h211v-63h-299v59q114 90 164 143.5t50 99.5q0 29 -17 44t-45 15q-31 0 -51.5 -21t-19.5 -64h-73q-1 63 39 101t108 38zM249 0h-101l500 725h101zM730 48q34 0 55.5 22t21.5 60q0 40 -23.5 63.5t-55.5 23.5
q-27 0 -46 -11.5t-25 -30.5l-68 3l27 230h248v-63h-187l-13 -98q30 24 83 24q55 0 95 -37t40 -103q0 -65 -43.5 -101.5t-109.5 -36.5q-67 0 -107.5 39t-42.5 96h69q9 -80 82 -80z" />
    <glyph glyph-name="uni2157" unicode="&#x2157;" horiz-adv-x="925" 
d="M178 365q35 0 57 18t22 49q0 68 -95 68h-24v59h20q90 0 90 61q0 28 -19.5 43t-48.5 15q-70 0 -81 -77h-70q5 61 46 96t110 35q56 0 96.5 -27.5t40.5 -81.5q0 -29 -15.5 -53t-41.5 -37q32 -14 49.5 -40.5t17.5 -58.5q0 -60 -44.5 -92t-110.5 -32q-67 0 -108 39t-45 97h70
q6 -36 26.5 -58.5t57.5 -22.5zM262 0h-101l500 725h101zM743 48q34 0 55.5 22t21.5 60q0 40 -23.5 63.5t-55.5 23.5q-27 0 -46 -11.5t-25 -30.5l-68 3l27 230h248v-63h-187l-13 -98q30 24 83 24q55 0 95 -37t40 -103q0 -65 -43.5 -101.5t-109.5 -36.5q-67 0 -107.5 39
t-42.5 96h69q9 -80 82 -80z" />
    <glyph glyph-name="uni2158" unicode="&#x2158;" horiz-adv-x="941" 
d="M217 631l-122 -159h122v159zM361 472v-61h-70v-94h-74v94h-201v58l202 256h73v-253h70zM278 0h-101l500 725h101zM759 48q34 0 55.5 22t21.5 60q0 40 -23.5 63.5t-55.5 23.5q-27 0 -46 -11.5t-25 -30.5l-68 3l27 230h248v-63h-187l-13 -98q30 24 83 24q55 0 95 -37
t40 -103q0 -65 -43.5 -101.5t-109.5 -36.5q-67 0 -107.5 39t-42.5 96h69q9 -80 82 -80z" />
    <glyph glyph-name="uni2159" unicode="&#x2159;" horiz-adv-x="796" 
d="M176 317h-74v308h-89v50q49 1 71.5 10t36.5 40h55v-408zM133 0h-101l500 725h101zM542 131q0 -39 21 -61t54 -22q35 0 56 22t21 61t-21 61.5t-55 22.5t-55 -22.5t-21 -61.5zM622 361q-39 0 -62 -36t-23 -97q34 43 94 43q58 0 97.5 -38t39.5 -101t-42 -101t-108 -38
q-78 0 -116.5 54.5t-38.5 145.5q0 97 39.5 159.5t123.5 62.5q62 0 96 -33t38 -79h-73q-2 29 -19.5 43.5t-45.5 14.5z" />
    <glyph glyph-name="uni215A" unicode="&#x215a;" horiz-adv-x="927" 
d="M181 365q34 0 55.5 22t21.5 60q0 40 -23.5 63.5t-55.5 23.5q-27 0 -46 -11.5t-25 -30.5l-68 3l27 230h248v-63h-187l-13 -98q30 24 83 24q55 0 95 -37t40 -103q0 -65 -43.5 -101.5t-109.5 -36.5q-67 0 -107.5 39t-42.5 96h69q9 -80 82 -80zM264 0h-101l500 725h101z
M673 131q0 -39 21 -61t54 -22q35 0 56 22t21 61t-21 61.5t-55 22.5t-55 -22.5t-21 -61.5zM753 361q-39 0 -62 -36t-23 -97q34 43 94 43q58 0 97.5 -38t39.5 -101t-42 -101t-108 -38q-78 0 -116.5 54.5t-38.5 145.5q0 97 39.5 159.5t123.5 62.5q62 0 96 -33t38 -79h-73
q-2 29 -19.5 43.5t-45.5 14.5z" />
    <glyph glyph-name="oneeighth" unicode="&#x215b;" horiz-adv-x="806" 
d="M176 317h-74v308h-89v50q49 1 71.5 10t36.5 40h55v-408zM133 0h-101l500 725h101zM620 415q64 0 102.5 -29t38.5 -75q0 -60 -51 -93q63 -36 63 -102q0 -58 -43.5 -90.5t-109.5 -32.5t-109.5 32.5t-43.5 90.5q0 68 63 102q-51 29 -51 93q0 46 38.5 75t102.5 29zM620 190
q-36 0 -56.5 -18.5t-20.5 -51.5q0 -35 20.5 -53.5t56.5 -18.5t57 18.5t21 53.5q0 33 -21 51.5t-57 18.5zM689 301q0 29 -18 44.5t-51 15.5q-31 0 -50 -15.5t-19 -44.5t19 -45.5t50 -16.5q32 0 50.5 16.5t18.5 45.5z" />
    <glyph glyph-name="threeeighths" unicode="&#x215c;" horiz-adv-x="936" 
d="M178 365q35 0 57 18t22 49q0 68 -95 68h-24v59h20q90 0 90 61q0 28 -19.5 43t-48.5 15q-70 0 -81 -77h-70q5 61 46 96t110 35q56 0 96.5 -27.5t40.5 -81.5q0 -29 -15.5 -53t-41.5 -37q32 -14 49.5 -40.5t17.5 -58.5q0 -60 -44.5 -92t-110.5 -32q-67 0 -108 39t-45 97h70
q6 -36 26.5 -58.5t57.5 -22.5zM262 0h-101l500 725h101zM749 415q64 0 102.5 -29t38.5 -75q0 -60 -51 -93q63 -36 63 -102q0 -58 -43.5 -90.5t-109.5 -32.5t-109.5 32.5t-43.5 90.5q0 68 63 102q-51 29 -51 93q0 46 38.5 75t102.5 29zM749 190q-36 0 -56.5 -18.5
t-20.5 -51.5q0 -35 20.5 -53.5t56.5 -18.5t57 18.5t21 53.5q0 33 -21 51.5t-57 18.5zM818 301q0 29 -18 44.5t-51 15.5q-31 0 -50 -15.5t-19 -44.5t19 -45.5t50 -16.5q32 0 50.5 16.5t18.5 45.5z" />
    <glyph glyph-name="fiveeighths" unicode="&#x215d;" horiz-adv-x="937" 
d="M181 365q34 0 55.5 22t21.5 60q0 40 -23.5 63.5t-55.5 23.5q-27 0 -46 -11.5t-25 -30.5l-68 3l27 230h248v-63h-187l-13 -98q30 24 83 24q55 0 95 -37t40 -103q0 -65 -43.5 -101.5t-109.5 -36.5q-67 0 -107.5 39t-42.5 96h69q9 -80 82 -80zM264 0h-101l500 725h101z
M751 415q64 0 102.5 -29t38.5 -75q0 -60 -51 -93q63 -36 63 -102q0 -58 -43.5 -90.5t-109.5 -32.5t-109.5 32.5t-43.5 90.5q0 68 63 102q-51 29 -51 93q0 46 38.5 75t102.5 29zM751 190q-36 0 -56.5 -18.5t-20.5 -51.5q0 -35 20.5 -53.5t56.5 -18.5t57 18.5t21 53.5
q0 33 -21 51.5t-57 18.5zM820 301q0 29 -18 44.5t-51 15.5q-31 0 -50 -15.5t-19 -44.5t19 -45.5t50 -16.5q32 0 50.5 16.5t18.5 45.5z" />
    <glyph glyph-name="seveneighths" unicode="&#x215e;" horiz-adv-x="885" 
d="M11 662v63h297v-63q-82 -82 -121.5 -160t-45.5 -185h-81q7 189 173 345h-222zM211 0h-101l500 725h101zM698 415q64 0 102.5 -29t38.5 -75q0 -60 -51 -93q63 -36 63 -102q0 -58 -43.5 -90.5t-109.5 -32.5t-109.5 32.5t-43.5 90.5q0 68 63 102q-51 29 -51 93q0 46 38.5 75
t102.5 29zM698 190q-36 0 -56.5 -18.5t-20.5 -51.5q0 -35 20.5 -53.5t56.5 -18.5t57 18.5t21 53.5q0 33 -21 51.5t-57 18.5zM767 301q0 29 -18 44.5t-51 15.5q-31 0 -50 -15.5t-19 -44.5t19 -45.5t50 -16.5q32 0 50.5 16.5t18.5 45.5z" />
    <glyph glyph-name="uni215F" unicode="&#x215f;" horiz-adv-x="433" 
d="M176 317h-74v308h-89v50q49 1 71.5 10t36.5 40h55v-408zM133 0h-101l500 725h101z" />
    <glyph glyph-name="arrowleft" unicode="&#x2190;" horiz-adv-x="800" 
d="M761 225h-586l212 -212l-56 -55l-311 311l311 311l56 -56l-212 -211h586v-88z" />
    <glyph glyph-name="arrowup" unicode="&#x2191;" horiz-adv-x="800" 
d="M356 0v586l-212 -212l-55 56l311 311l311 -311l-56 -56l-211 212v-586h-88z" />
    <glyph glyph-name="arrowright" unicode="&#x2192;" horiz-adv-x="800" 
d="M39 313h586l-212 212l56 55l311 -311l-311 -311l-56 56l212 211h-586v88z" />
    <glyph glyph-name="arrowdown" unicode="&#x2193;" horiz-adv-x="800" 
d="M444 725v-586l212 212l55 -56l-311 -311l-311 311l56 56l211 -212v586h88z" />
    <glyph glyph-name="uni2196" unicode="&#x2196;" horiz-adv-x="800" 
d="M631 -17l-415 414v-300l-78 1v440h440v-79h-299l414 -414z" />
    <glyph glyph-name="uni2197" unicode="&#x2197;" horiz-adv-x="800" 
d="M107 45l414 415h-300l1 78h440v-440h-79v299l-414 -414z" />
    <glyph glyph-name="uni2198" unicode="&#x2198;" horiz-adv-x="800" 
d="M169 555l415 -414v300l78 -1v-440h-440v79h299l-414 414z" />
    <glyph glyph-name="uni2199" unicode="&#x2199;" horiz-adv-x="800" 
d="M693 493l-414 -415h300l-1 -78h-440v440h79v-299l414 414z" />
    <glyph glyph-name="uni219E" unicode="&#x219e;" horiz-adv-x="800" 
d="M761 225h-306l212 -211l-56 -56l-267 267h-169l212 -212l-56 -55l-311 311l311 311l56 -56l-212 -211h169l267 268l56 -56l-212 -212h306v-88z" />
    <glyph glyph-name="uni219F" unicode="&#x219f;" horiz-adv-x="800" 
d="M356 0v306l-211 -212l-56 56l267 267v169l-212 -212l-55 56l311 311l311 -311l-56 -56l-211 212v-169l268 -267l-56 -56l-212 212v-306h-88z" />
    <glyph glyph-name="uni21A0" unicode="&#x21a0;" horiz-adv-x="800" 
d="M49 313h306l-212 211l56 56l267 -267h169l-212 212l56 55l311 -311l-311 -311l-56 56l212 211h-169l-267 -268l-56 56l212 212h-306v88z" />
    <glyph glyph-name="uni21A1" unicode="&#x21a1;" horiz-adv-x="800" 
d="M444 725v-306l211 212l56 -56l-267 -267v-169l212 212l55 -56l-311 -311l-311 311l56 56l211 -212v169l-268 267l56 56l212 -212v306h88z" />
    <glyph glyph-name="uni21A2" unicode="&#x21a2;" horiz-adv-x="800" 
d="M521 269l256 -255l-56 -56l-267 267h-279l212 -211l-56 -56l-311 311l311 312l56 -56l-212 -212h279l267 268l56 -56z" />
    <glyph glyph-name="uni21A3" unicode="&#x21a3;" horiz-adv-x="800" 
d="M32 14l256 255l-256 256l56 56l267 -268h279l-212 212l56 56l311 -312l-311 -311l-56 56l212 211h-279l-267 -267z" />
    <glyph glyph-name="uni21A4" unicode="&#x21a4;" horiz-adv-x="800" 
d="M761 0h-88v225h-498l212 -212l-56 -55l-311 311l311 311l56 -56l-212 -211h498v225h88v-538z" />
    <glyph glyph-name="uni21A5" unicode="&#x21a5;" horiz-adv-x="800" 
d="M131 0v88h225v498l-212 -212l-55 56l311 311l311 -311l-56 -56l-211 212v-498h225v-88h-538z" />
    <glyph glyph-name="uni21A6" unicode="&#x21a6;" horiz-adv-x="800" 
d="M39 538h88v-225h498l-212 212l56 55l311 -311l-311 -311l-56 56l212 211h-498v-225h-88v538z" />
    <glyph glyph-name="uni21A7" unicode="&#x21a7;" horiz-adv-x="800" 
d="M669 724v-88h-225v-498l212 212l55 -56l-311 -311l-311 311l56 56l211 -212v498h-225v88h538z" />
    <glyph glyph-name="uni21B0" unicode="&#x21b0;" horiz-adv-x="800" 
d="M741 -175h-88v400h-478l212 -212l-56 -55l-311 311l311 311l56 -56l-212 -211h566v-488z" />
    <glyph glyph-name="uni21B1" unicode="&#x21b1;" horiz-adv-x="800" 
d="M147 -175h-88v488h566l-212 211l56 56l311 -311l-311 -311l-56 55l212 212h-478v-400z" />
    <glyph glyph-name="uni21B2" unicode="&#x21b2;" horiz-adv-x="800" 
d="M653 313v412h88v-500h-566l212 -211l-56 -56l-311 311l311 311l56 -55l-212 -212h478z" />
    <glyph glyph-name="uni21B3" unicode="&#x21b3;" horiz-adv-x="800" 
d="M59 725h88v-412h478l-212 212l56 55l311 -311l-311 -311l-56 56l212 211h-566v500z" />
    <glyph glyph-name="partialdiff" unicode="&#x2202;" horiz-adv-x="573" 
d="M432 263q0 97 -42.5 145t-109.5 48q-71 0 -108.5 -50t-37.5 -143q0 -95 37 -145.5t109 -50.5q68 0 110 49t42 147zM279 -13q-115 0 -178.5 72t-63.5 204q0 126 64 199.5t166 73.5q97 0 154 -78l1 1q-31 86 -104.5 144t-163.5 62v81q164 -8 270.5 -132.5t106.5 -302.5
q0 -160 -68 -242t-184 -82z" />
    <glyph glyph-name="product" unicode="&#x220f;" horiz-adv-x="666" 
d="M163 -175h-91v900h522v-900h-92v814h-339v-814z" />
    <glyph glyph-name="summation" unicode="&#x2211;" horiz-adv-x="587" 
d="M32 -100l270 374l-270 376v75h523v-86h-413l266 -365l-266 -363h413v-86h-523v75z" />
    <glyph glyph-name="minus" unicode="&#x2212;" 
d="M68 312h543v-86h-543v86z" />
    <glyph glyph-name="radical" unicode="&#x221a;" horiz-adv-x="510" 
d="M0 238l148 68l147 -347l126 766h89l-157 -900h-88l-162 361l-64 -29z" />
    <glyph glyph-name="infinity" unicode="&#x221e;" horiz-adv-x="788" 
d="M580 414q76 0 125.5 -46t49.5 -117q0 -73 -48 -119t-125 -46q-98 0 -187 102q-90 -101 -189 -101q-78 0 -126 46t-48 118t50 117.5t130 45.5q98 0 183 -96q43 50 85.5 73t99.5 23zM210 169q36 0 64.5 18.5t67.5 64.5q-33 40 -62.5 60t-66.5 20q-40 0 -66.5 -22.5
t-26.5 -58.5q0 -34 25.5 -58t64.5 -24zM572 332q-35 0 -63 -21t-61 -60q68 -82 130 -82q38 0 63.5 23.5t25.5 58.5q0 34 -26 57.5t-69 23.5z" />
    <glyph glyph-name="integral" unicode="&#x222b;" horiz-adv-x="317" 
d="M112 150v321q0 146 38 206.5t111 60.5q37 0 63 -17t26 -48q0 -24 -13.5 -38.5t-37.5 -14.5q-23 0 -36 12.5t-13 33.5q0 17 4 26q-18 0 -29 -10t-16 -30.5t-6.5 -39.5t-1.5 -47q0 -11 1.5 -64.5t1.5 -96.5v-335q0 -137 -37 -194.5t-110 -57.5q-38 0 -63.5 15.5t-25.5 48.5
q0 24 13.5 38t37.5 14q23 0 36 -12.5t13 -33.5q0 -17 -4 -26q18 0 28.5 10t15 31t5.5 38.5t1 47.5q0 10 -1 64.5t-1 97.5z" />
    <glyph glyph-name="approxequal" unicode="&#x2248;" 
d="M452 379q28 0 47 18.5t22 50.5h85q-5 -67 -46 -108t-108 -41q-43 0 -118.5 34.5t-107.5 34.5q-28 0 -47.5 -18.5t-21.5 -50.5h-85q4 67 45 108t109 41q52 0 126 -34.5t100 -34.5zM452 192q28 0 47 18t22 50h85q-5 -67 -46 -107.5t-108 -40.5q-43 0 -118.5 34.5
t-107.5 34.5q-28 0 -47.5 -18.5t-21.5 -50.5h-85q4 67 45 107.5t109 40.5q52 0 126 -34t100 -34z" />
    <glyph glyph-name="notequal" unicode="&#x2260;" 
d="M213 130h-124v86h170l62 116h-232v87h279l81 150l75 -36l-62 -114h128v-87h-174l-63 -116h237v-86h-283l-90 -167l-74 37z" />
    <glyph glyph-name="lessequal" unicode="&#x2264;" 
d="M206 326l388 -122v-96l-513 179v78l513 184v-98zM78 0v86h522v-86h-522z" />
    <glyph glyph-name="greaterequal" unicode="&#x2265;" 
d="M472 326l-389 125v98l514 -184v-78l-514 -179v96zM600 0h-522v86h522v-86z" />
    <glyph glyph-name="filledbox" unicode="&#x25a0;" horiz-adv-x="624" 
d="M43 0v538h538v-538h-538z" />
    <glyph glyph-name="H22073" unicode="&#x25a1;" horiz-adv-x="624" 
d="M43 0v538h538v-538h-538zM131 450v-362h362v362h-362z" />
    <glyph glyph-name="lozenge" unicode="&#x25ca;" horiz-adv-x="509" 
d="M258 596l-146 -255l146 -255l146 255zM11 341l247 421l240 -421l-240 -421z" />
    <glyph glyph-name="circle" unicode="&#x25cb;" horiz-adv-x="602" 
d="M301 465q-86 0 -140.5 -57t-54.5 -140t54.5 -139.5t140.5 -56.5q85 0 140 57t55 139q0 83 -55 140t-140 57zM301 550q121 0 202 -82t81 -200q0 -117 -81 -199t-202 -82t-202 82t-81 199q0 118 81 200t202 82z" />
    <glyph glyph-name="H18533" unicode="&#x25cf;" horiz-adv-x="602" 
d="M301 -13q-121 0 -202 82t-81 199q0 118 81 200t202 82t202 -82t81 -200q0 -117 -81 -199t-202 -82z" />
    <glyph glyph-name="fi" unicode="&#xfb01;" horiz-adv-x="548" 
d="M385 538h91v-538h-91v538zM385 725h91v-110h-91v110zM95 538v39q0 87 27.5 117.5t117.5 30.5h47v-76h-45q-36 0 -46 -12.5t-10 -54.5v-44h101v-73h-101v-465h-91v465h-75v73h75z" />
    <glyph glyph-name="fl" unicode="&#xfb02;" horiz-adv-x="548" 
d="M95 538v39q0 87 27.5 117.5t117.5 30.5h47v-76h-45q-36 0 -46 -12.5t-10 -54.5v-44h101v-73h-101v-465h-91v465h-75v73h75zM476 725v-725h-91v725h91z" />
    <glyph glyph-name="_001" horiz-adv-x="0" 
 />
    <glyph glyph-name="_002" horiz-adv-x="237" 
 />
    <glyph glyph-name="bullet.001" horiz-adv-x="447" 
d="M43 279q0 73 52 125t124 52q78 0 131 -51.5t53 -125.5q0 -78 -52.5 -130.5t-131.5 -52.5q-73 0 -124.5 53t-51.5 130z" />
    <glyph glyph-name="_379" horiz-adv-x="235" 
d="M72 725h91v-110h-91v110z" />
    <glyph glyph-name="_384" horiz-adv-x="135" 
d="M22 -76h91v-99h-91v99z" />
    <glyph glyph-name="_386" horiz-adv-x="142" 
d="M25 -125v89h95v-95l-44 -90h-54l39 96h-36z" />
    <glyph glyph-name="_391" horiz-adv-x="172" 
d="M150 725l-70 -170h-58l30 170h98z" />
    <glyph glyph-name="zero.zero" horiz-adv-x="661" 
d="M612 363q0 -177 -70.5 -276.5t-211.5 -99.5t-211.5 99.5t-70.5 276.5t70.5 276t211.5 99t211.5 -99t70.5 -276zM145 363v-34l361 143q-33 190 -176 190q-89 0 -137 -75t-48 -224zM515 363q0 18 -1 29l-360 -142q34 -187 176 -187q89 0 137 75t48 225z" />
    <glyph glyph-name="one.onum" horiz-adv-x="335" 
d="M249 0h-92v501h-157v66q81 2 120 18.5t65 67.5h64v-653z" />
    <glyph glyph-name="two.onum" horiz-adv-x="555" 
d="M286 664q97 0 158 -46.5t61 -128.5q0 -30 -11 -61.5t-24.5 -57t-44.5 -59t-52.5 -54.5t-67.5 -58t-69.5 -55t-78.5 -59h366v-85h-493v82q200 142 289 230.5t89 166.5q0 49 -32.5 77t-91.5 28q-60 0 -101 -34t-43 -108l-93 1q-2 98 64.5 159.5t174.5 61.5z" />
    <glyph glyph-name="three.onum" horiz-adv-x="555" 
d="M262 68q69 0 110 30t41 85q0 118 -194 118h-16v82h13q179 0 179 104q0 47 -36 72t-93 25q-67 0 -104 -33t-44 -89l-92 8q8 88 72 141t170 53q95 0 159.5 -41.5t64.5 -127.5q0 -106 -110 -149q128 -37 128 -162q0 -94 -73 -145t-176 -51q-113 0 -174.5 57.5t-70.5 143.5
l93 9q7 -60 45.5 -95t107.5 -35z" />
    <glyph glyph-name="four.onum" horiz-adv-x="566" 
d="M344 523l-238 -277h238v277zM560 246v-87h-125v-159h-91v159h-339v85l339 408h91v-406h125z" />
    <glyph glyph-name="five.onum" horiz-adv-x="564" 
d="M282 68q65 0 107.5 38.5t42.5 107.5q0 71 -45 108t-107 37q-48 0 -83 -19.5t-47 -46.5l-89 4l44 355h396v-87h-322l-24 -170q55 44 148 44q94 0 159.5 -60t65.5 -165q0 -106 -72 -166t-175 -60q-111 0 -172 58t-72 142l93 9q20 -129 152 -129z" />
    <glyph glyph-name="six.onum" horiz-adv-x="584" 
d="M152 210q0 -66 39.5 -104t106.5 -38q66 0 106 38.5t40 103.5q0 63 -40 102.5t-105 39.5q-66 0 -106.5 -39.5t-40.5 -102.5zM306 584q-77 0 -119 -61.5t-45 -171.5q55 83 177 83q96 0 159 -61.5t63 -160.5q0 -96 -67 -160t-175 -64q-126 0 -188.5 83t-62.5 234
q0 73 14.5 135t45 113.5t83.5 81t125 29.5q95 0 148.5 -49t64.5 -119l-97 -1q-8 43 -41 66t-85 23z" />
    <glyph glyph-name="seven.onum" horiz-adv-x="487" 
d="M11 565v87h477v-85q-267 -226 -289 -567h-108q23 334 292 565h-372z" />
    <glyph glyph-name="eight.onum" horiz-adv-x="588" 
d="M294 664q104 0 166.5 -47.5t62.5 -120.5q0 -100 -94 -148q115 -49 115 -164q0 -91 -70.5 -143.5t-179.5 -52.5q-110 0 -180.5 52.5t-70.5 143.5q0 50 27 94t87 70q-92 45 -92 148q0 73 62.5 120.5t166.5 47.5zM294 306q-71 0 -112.5 -32.5t-41.5 -87.5t41 -86.5
t113 -31.5q70 0 112 32t42 86t-42 87t-112 33zM431 485q0 47 -36.5 73t-100.5 26t-101.5 -26t-37.5 -73q0 -46 38.5 -75.5t100.5 -29.5t99.5 29.5t37.5 75.5z" />
    <glyph glyph-name="nine.onum" horiz-adv-x="583" 
d="M431 442q0 65 -39.5 103.5t-105.5 38.5t-106.5 -38.5t-40.5 -103.5q0 -64 40.5 -103t105.5 -39q66 0 106 39t40 103zM276 68q77 0 120 61.5t46 170.5q-54 -82 -177 -82q-96 0 -159 61.5t-63 159.5q0 96 66.5 160.5t174.5 64.5q126 0 188.5 -82.5t62.5 -233.5
q0 -74 -14 -136t-44 -113.5t-83 -81t-125 -29.5q-95 0 -149.5 49t-65.5 119l98 1q17 -89 124 -89z" />
    <glyph glyph-name="zero.onum" horiz-adv-x="621" 
d="M310 -12q-133 0 -200 91t-67 249t67 247t200 89t200.5 -89t67.5 -247t-68 -249t-200 -91zM310 68q81 0 126.5 65.5t45.5 194.5q0 128 -45.5 192t-126.5 64t-125.5 -63.5t-44.5 -192.5t44.5 -194.5t125.5 -65.5z" />
    <glyph glyph-name="zero.onum_zero" horiz-adv-x="621" 
d="M310 -12q-133 0 -200 91t-67 249t67 247t200 89t200.5 -89t67.5 -247t-68 -249t-200 -91zM310 68q81 0 126.5 65.5t45.5 194.5q0 16 -1 24l-331 -130q34 -154 160 -154zM140 328v-27l332 131q-34 152 -162 152q-81 0 -125.5 -63.5t-44.5 -192.5z" />
    <glyph glyph-name="one.tnum" 
d="M395 84h173v-84h-458v84h194v473h-193v63q93 3 143.5 21.5t78.5 74.5h62v-632z" />
    <glyph glyph-name="two.002" 
d="M349 738q103 0 166.5 -50t63.5 -140q0 -49 -20.5 -99t-53 -93.5t-84.5 -93t-102 -88.5t-118 -89h398v-85h-522v82q210 155 308 259t98 195q0 58 -36 92t-100 34q-65 0 -109.5 -39.5t-46.5 -123.5h-94q-2 108 67 173.5t185 65.5z" />
    <glyph glyph-name="three.003" 
d="M338 63q74 0 119 36.5t45 103.5q0 138 -209 138h-15v83h12q98 0 145.5 28.5t47.5 91.5q0 56 -40 87t-101 31q-71 0 -111.5 -38.5t-46.5 -102.5h-94q8 98 75 157.5t179 59.5q103 0 169 -45t66 -139q0 -57 -30.5 -101t-87.5 -67q138 -45 138 -182q0 -104 -75.5 -160.5
t-186.5 -56.5q-121 0 -185 64t-73 163h94q9 -70 50 -110.5t115 -40.5z" />
    <glyph glyph-name="four.004" 
d="M406 600l-259 -335h259v335zM631 265v-86h-133v-179h-92v179h-360v86l359 460h93v-460h133z" />
    <glyph glyph-name="five.005" 
d="M338 63q68 0 115 47t47 128q0 84 -48.5 128t-114.5 44q-52 0 -89 -24.5t-51 -55.5l-91 5l47 390h416v-85h-342l-25 -206q58 55 156 55q100 0 169 -67.5t69 -182.5q0 -119 -75 -185.5t-183 -66.5q-118 0 -182.5 63.5t-75.5 159.5h94q24 -147 164 -147z" />
    <glyph glyph-name="six.006" 
d="M184 232q0 -76 43 -122.5t115 -46.5q69 0 114 47.5t45 121.5q0 75 -44.5 123.5t-113.5 48.5q-71 0 -115 -48.5t-44 -123.5zM351 662q-83 0 -128.5 -75.5t-49.5 -204.5q58 101 191 101q102 0 168 -69t66 -177q0 -104 -71 -177t-184 -73q-264 0 -264 350q0 80 15 149
t47 127t88.5 91.5t132.5 33.5q99 0 155 -52t69 -129h-99q-9 49 -44.5 77t-91.5 28z" />
    <glyph glyph-name="seven.007" 
d="M87 640v85h502v-85q-281 -229 -307 -640h-110q24 390 311 640h-396z" />
    <glyph glyph-name="eight.008" 
d="M339 738q110 0 176 -52t66 -133q0 -49 -24.5 -94t-75.5 -73q64 -26 93 -75.5t29 -106.5q0 -101 -74.5 -159t-189.5 -58q-116 0 -190.5 58t-74.5 159q0 57 29 107t94 75q-51 28 -75.5 73t-24.5 94q0 81 66 133t176 52zM339 348q-77 0 -122.5 -40t-45.5 -104t45 -102.5
t123 -38.5q77 0 122.5 38.5t45.5 102.5t-45.5 104t-122.5 40zM489 542q0 54 -41 87t-109 33q-69 0 -110 -33t-41 -87q0 -56 41.5 -91.5t109.5 -35.5q67 0 108.5 36t41.5 91z" />
    <glyph glyph-name="nine.009" 
d="M492 493q0 76 -43 122.5t-114 46.5q-70 0 -114.5 -47.5t-44.5 -121.5q0 -75 44.5 -123t113.5 -48q71 0 114.5 48t43.5 123zM325 63q82 0 128.5 75.5t50.5 204.5q-58 -101 -192 -101q-101 0 -167 69t-66 178q0 104 71 176.5t184 72.5q264 0 264 -350q0 -80 -15.5 -149.5
t-47.5 -127t-88.5 -91t-131.5 -33.5q-99 0 -155 52t-69 129h99q9 -49 44 -77t91 -28z" />
    <glyph glyph-name="zero.010" 
d="M523 363q0 149 -48.5 224t-136.5 75q-89 0 -137 -75t-48 -224q0 -150 48 -225t137 -75t137 75t48 225zM620 363q0 -177 -70.5 -276.5t-211.5 -99.5t-211.5 99.5t-70.5 276.5t70.5 276t211.5 99t211.5 -99t70.5 -276z" />
    <glyph glyph-name="zero.010_zero" 
d="M620 363q0 -177 -70.5 -276.5t-211.5 -99.5t-211.5 99.5t-70.5 276.5t70.5 276t211.5 99t211.5 -99t70.5 -276zM153 363v-34l361 143q-33 190 -176 190q-89 0 -137 -75t-48 -224zM523 363q0 18 -1 29l-360 -142q34 -187 176 -187q89 0 137 75t48 225z" />
    <glyph glyph-name="one.case" horiz-adv-x="376" 
d="M279 0h-102v559h-165v72q85 2 126 19.5t69 74.5h72v-725z" />
    <glyph glyph-name="two.case" horiz-adv-x="592" 
d="M302 738q104 0 168.5 -51t64.5 -145q0 -46 -20.5 -94.5t-50 -88.5t-83 -91t-97 -86.5t-114.5 -91.5h384v-90h-524v90q212 160 305 257t93 184q0 54 -34.5 86.5t-94.5 32.5q-61 0 -103.5 -39.5t-44.5 -119.5h-104q-2 109 67 178t188 69z" />
    <glyph glyph-name="three.case" horiz-adv-x="595" 
d="M286 75q70 0 114 35t44 94q0 69 -56 100.5t-148 31.5h-18v91h15q187 0 187 116q0 52 -38 79.5t-97 27.5q-68 0 -109.5 -36.5t-47.5 -94.5h-104q10 99 80.5 159t184.5 60q101 0 169.5 -46.5t68.5 -140.5q0 -54 -30 -97.5t-84 -66.5q133 -45 133 -181q0 -103 -77.5 -161
t-188.5 -58q-119 0 -185.5 66t-75.5 164h102q9 -62 50 -102t111 -40z" />
    <glyph glyph-name="four.case" horiz-adv-x="633" 
d="M377 586l-247 -310h247v310zM611 276v-90h-131v-186h-103v186h-360v88l360 451h103v-449h131z" />
    <glyph glyph-name="five.case" horiz-adv-x="612" 
d="M305 75q66 0 110 43.5t44 119.5q0 79 -46 120.5t-110 41.5q-50 0 -86.5 -22t-49.5 -51l-99 4l47 394h423v-90h-340l-25 -196q58 49 155 49q100 0 169.5 -67t69.5 -182q0 -117 -76.5 -184.5t-186.5 -67.5q-119 0 -184 65.5t-76 162.5h101q10 -64 49.5 -102t110.5 -38z" />
    <glyph glyph-name="six.case" horiz-adv-x="622" 
d="M163 232q0 -70 41 -113.5t110 -43.5q67 0 110 44t43 113t-43 114t-109 45q-68 0 -110 -44.5t-42 -114.5zM323 650q-79 0 -123.5 -69.5t-48.5 -189.5q62 90 186 90q102 0 169 -68.5t67 -177.5q0 -105 -71.5 -176.5t-186.5 -71.5q-134 0 -200.5 93.5t-66.5 259.5
q0 80 15.5 149t47.5 126t89 90t133 33q102 0 159 -54.5t69 -132.5h-107q-8 48 -42.5 73.5t-88.5 25.5z" />
    <glyph glyph-name="seven.case" horiz-adv-x="520" 
d="M11 635v90h509v-90q-143 -118 -217 -274t-88 -361h-119q22 387 314 635h-399z" />
    <glyph glyph-name="eight.case" horiz-adv-x="629" 
d="M314 738q110 0 177 -52.5t67 -132.5q0 -112 -97 -165q64 -28 92 -77t28 -105q0 -100 -75.5 -159.5t-191.5 -59.5t-191 59t-75 160q0 56 28 105t91 77q-48 24 -72 70t-24 94q0 82 66.5 134t176.5 52zM314 342q-72 0 -115.5 -37t-43.5 -97t43 -96.5t116 -36.5
q74 0 117 36.5t43 96.5q0 61 -43 97.5t-117 36.5zM457 541q0 50 -39 79.5t-104 29.5t-103.5 -29.5t-38.5 -79.5q0 -52 39 -85t103 -33t103.5 33t39.5 85z" />
    <glyph glyph-name="nine.case" horiz-adv-x="617" 
d="M454 493q0 70 -41.5 113.5t-110.5 43.5q-66 0 -109 -44t-43 -113t42.5 -114t108.5 -45q68 0 110.5 45t42.5 114zM294 75q79 0 123 69.5t48 189.5q-61 -89 -184 -89q-103 0 -170.5 68t-67.5 177q0 105 71 176.5t186 71.5q136 0 202 -91.5t66 -257.5q0 -81 -15 -150
t-47 -127t-88.5 -91.5t-132.5 -33.5q-101 0 -159.5 54.5t-69.5 130.5h106q8 -47 42.5 -72t89.5 -25z" />
    <glyph glyph-name="zero.case" horiz-adv-x="666" 
d="M332 -13q-140 0 -212 102t-72 276q0 173 72 273t212 100q141 0 213 -99.5t72 -273.5t-72 -276t-213 -102zM332 75q85 0 132 74t47 216t-46.5 213.5t-132.5 71.5q-85 0 -130.5 -71.5t-45.5 -213.5t46 -216t130 -74z" />
    <glyph glyph-name="zero.case_zero" horiz-adv-x="666" 
d="M332 -13q-140 0 -212 102t-72 276q0 173 72 273t212 100q141 0 213 -99.5t72 -273.5t-72 -276t-213 -102zM156 365v-32l346 136q-31 181 -170 181q-85 0 -130.5 -71.5t-45.5 -213.5zM332 75q85 0 132 74t47 216q0 16 -1 24l-345 -136q17 -88 60 -133t107 -45z" />
    <glyph glyph-name="a.sups" horiz-adv-x="345" 
d="M241 480q-26 -49 -101 -49q-52 0 -81.5 24t-29.5 64q0 29 15.5 49.5t46 32t63 17.5t77.5 9v13q0 58 -64 58q-23 0 -39.5 -13t-18.5 -39h-71q3 47 39.5 76t95.5 29q131 0 131 -129q-2 -46 -2 -89q2 -68 6 -95h-66q-1 19 -1 42zM150 486q81 0 81 77v12q-75 -9 -100.5 -19
t-25.5 -34q0 -17 13 -26.5t32 -9.5z" />
    <glyph glyph-name="b.sups" horiz-adv-x="368" 
d="M121 846v-143q29 45 87 45q57 0 94 -43.5t37 -114.5q0 -72 -37 -115.5t-94 -43.5q-58 0 -87 45v-38h-73v408h73zM118 590q0 -49 20.5 -75t54.5 -26q32 0 51.5 27.5t19.5 73.5t-19.5 73t-51.5 27q-34 0 -54.5 -25.5t-20.5 -74.5z" />
    <glyph glyph-name="c.sups" horiz-adv-x="340" 
d="M176 748q51 0 89.5 -29t47.5 -83h-70q-4 24 -21.5 38t-46.5 14q-33 0 -53 -24t-20 -75q0 -50 20.5 -74.5t52.5 -24.5q59 0 70 54h70q-11 -55 -50 -84t-91 -29q-67 0 -106.5 45t-39.5 113q0 70 40 114.5t108 44.5z" />
    <glyph glyph-name="d.sups" horiz-adv-x="367" 
d="M246 846h73v-408h-73v38q-28 -45 -87 -45q-57 0 -94 43.5t-37 115.5q0 71 37 114.5t94 43.5q59 0 87 -45v143zM174 489q34 0 54.5 26t20.5 75t-20.5 74.5t-54.5 25.5q-33 0 -52 -27t-19 -73t19 -73.5t52 -27.5z" />
    <glyph glyph-name="e.sups" horiz-adv-x="349" 
d="M28 593q0 68 40.5 111.5t107.5 43.5q70 0 109.5 -49.5t35.5 -129.5h-220q2 -34 23.5 -56.5t53.5 -22.5q52 0 69 40h70q-11 -41 -45 -70t-91 -29q-72 0 -112.5 47t-40.5 115zM176 693q-28 0 -50.5 -18.5t-24.5 -54.5h146q-2 35 -22.5 54t-48.5 19z" />
    <glyph glyph-name="f.sups" horiz-adv-x="204" 
d="M56 741v17q0 53 24 70.5t84 17.5h26v-54h-17q-27 0 -35 -7t-8 -31v-13h60v-51h-60v-252h-74v252h-42v51h42z" />
    <glyph glyph-name="g.sups" horiz-adv-x="366" 
d="M248 741h73v-276q0 -69 -37 -105q-36 -33 -111 -33q-117 0 -132 93h71q5 -21 19 -29t44 -8q42 0 57.5 20.5t15.5 46.5v38q-28 -45 -88 -45q-57 0 -94.5 42.5t-37.5 110.5q0 70 37 111t95 41q60 0 88 -45v38zM251 596q0 46 -21 70.5t-55 24.5q-33 0 -52.5 -25.5
t-19.5 -69.5q0 -45 19.5 -70.5t52.5 -25.5q34 0 55 24.5t21 71.5z" />
    <glyph glyph-name="h.sups" horiz-adv-x="358" 
d="M121 846v-146q25 48 89 48q105 0 105 -120v-190h-74v173q0 24 -3 39t-15 27t-35 12q-67 0 -67 -91v-160h-73v408h73z" />
    <glyph glyph-name="i.sups" horiz-adv-x="169" 
d="M48 741h73v-303h-73v303zM48 846h73v-70h-73v70z" />
    <glyph glyph-name="j.sups" horiz-adv-x="170" 
d="M48 434v307h73v-303q0 -60 -19 -79.5t-75 -19.5h-21v56h12q20 0 25 7t5 32zM48 846h73v-70h-73v70z" />
    <glyph glyph-name="k.sups" horiz-adv-x="333" 
d="M48 846h73v-221l108 116h87l-109 -116l117 -187h-85l-81 134l-37 -39v-95h-73v408z" />
    <glyph glyph-name="l.sups" horiz-adv-x="169" 
d="M121 846v-408h-73v408h73z" />
    <glyph glyph-name="m.sups" horiz-adv-x="537" 
d="M48 438v303h73v-34q26 41 85 41q62 0 87 -47q34 47 100 47q52 0 78 -31q23 -28 23 -88v-191h-73v177q0 41 -11 57q-12 17 -41 17q-61 0 -61 -90v-161h-74v177q0 42 -11 57q-12 17 -40 17q-62 0 -62 -90v-161h-73z" />
    <glyph glyph-name="o.sups" horiz-adv-x="355" 
d="M178 489q35 0 55 25t20 75q0 49 -20 75t-55 26q-33 0 -53.5 -26.5t-20.5 -74.5q0 -49 20.5 -74.5t53.5 -25.5zM178 431q-62 0 -105.5 40.5t-43.5 117.5t43 118t106 41t106 -41t43 -118t-43.5 -117.5t-105.5 -40.5z" />
    <glyph glyph-name="p.sups" horiz-adv-x="368" 
d="M121 741v-38q29 45 87 45q57 0 94 -43.5t37 -114.5q0 -72 -37 -115.5t-94 -43.5q-58 0 -87 45v-137h-73v402h73zM118 590q0 -49 20.5 -75t54.5 -26q32 0 51.5 27.5t19.5 73.5t-19.5 73t-51.5 27q-34 0 -54.5 -25.5t-20.5 -74.5z" />
    <glyph glyph-name="q.sups" horiz-adv-x="367" 
d="M246 703v38h73v-402h-73v137q-28 -45 -87 -45q-57 0 -94 43.5t-37 115.5q0 71 37 114.5t94 43.5q59 0 87 -45zM249 590q0 49 -20.5 74.5t-54.5 25.5q-33 0 -52 -27t-19 -73t19 -73.5t52 -27.5q34 0 54.5 26t20.5 75z" />
    <glyph glyph-name="r.sups" horiz-adv-x="231" 
d="M219 740v-73q-22 2 -33 2q-33 0 -49 -15t-16 -57v-159h-73v303h72v-55q27 55 81 55q2 0 8.5 -0.5t9.5 -0.5z" />
    <glyph glyph-name="s.sups" horiz-adv-x="317" 
d="M163 431q-57 0 -93.5 27.5t-41.5 72.5h70q6 -47 68 -47q58 0 58 37q0 28 -50 39l-46 10q-45 9 -69 29.5t-24 60.5q0 38 36.5 63t87.5 25q49 0 86 -23t46 -68h-66q-10 37 -70 37q-23 0 -38 -8.5t-15 -21.5q0 -27 42 -36l41 -9q54 -11 81.5 -30.5t27.5 -59.5q0 -46 -38 -72
t-93 -26z" />
    <glyph glyph-name="t.sups" horiz-adv-x="218" 
d="M57 741v81h73v-81h62v-51h-62v-160q0 -23 8 -30.5t30 -7.5h23v-54h-54q-49 0 -64.5 17t-15.5 64v171h-44v51h44z" />
    <glyph glyph-name="u.sups" horiz-adv-x="356" 
d="M235 438v39q-29 -47 -88 -47q-53 0 -81 34q-22 28 -22 86v191h73v-179q0 -39 10 -54q14 -20 43 -20q65 0 65 94v159h73v-303h-73z" />
    <glyph glyph-name="v.sups" horiz-adv-x="309" 
d="M92 741l65 -210l65 210h76l-107 -303h-70l-109 303h80z" />
    <glyph glyph-name="w.sups" horiz-adv-x="435" 
d="M131 529l48 212h76l49 -212l39 212h80l-78 -303h-70l-57 217l-58 -217h-70l-78 303h79z" />
    <glyph glyph-name="x.sups" horiz-adv-x="326" 
d="M309 741l-104 -146l110 -157h-86l-67 97l-69 -97h-80l110 153l-104 150h85l62 -89l64 89h79z" />
    <glyph glyph-name="y.sups" horiz-adv-x="304" 
d="M65 339h-32v55h27q23 0 33 6.5t19 32.5l4 7l-110 301h79l66 -211l66 211h75l-106 -297q-24 -64 -47 -84.5t-74 -20.5z" />
    <glyph glyph-name="z.sups" horiz-adv-x="297" 
d="M19 438v54l157 195h-146v54h239v-54l-159 -195h163v-54h-254z" />
    <glyph glyph-name="uni2070.zero" horiz-adv-x="399" 
d="M365 642q0 -96 -42.5 -153.5t-122.5 -57.5q-79 0 -121 57.5t-42 153.5t42 153.5t121 57.5q80 0 122.5 -57.5t42.5 -153.5zM113 642v-10l171 74q-17 93 -84 93q-42 0 -64.5 -41t-22.5 -116zM289 642v10l-171 -74q17 -92 82 -92q89 0 89 156z" />
    <glyph glyph-name="period.sups" horiz-adv-x="161" 
d="M121 438h-81v81h81v-81z" />
    <glyph glyph-name="hyphen.sups" horiz-adv-x="233" 
d="M209 556h-185v65h185v-65z" />
    <glyph glyph-name="comma.sups" horiz-adv-x="173" 
d="M44 438v81h84v-87l-44 -87h-43l40 93h-37z" />
    <glyph glyph-name="a.subs" horiz-adv-x="345" 
d="M241 -86q-26 -49 -101 -49q-52 0 -81.5 24t-29.5 64q0 29 15.5 49.5t46 32t63 17.5t77.5 9v13q0 58 -64 58q-23 0 -39.5 -13t-18.5 -39h-71q3 47 39.5 76t95.5 29q131 0 131 -129q-2 -46 -2 -89q2 -68 6 -95h-66q-1 19 -1 42zM150 -80q81 0 81 77v12q-75 -9 -100.5 -19
t-25.5 -34q0 -17 13 -26.5t32 -9.5z" />
    <glyph glyph-name="b.subs" horiz-adv-x="368" 
d="M121 280v-143q29 45 87 45q57 0 94 -43.5t37 -114.5q0 -72 -37 -115.5t-94 -43.5q-58 0 -87 45v-38h-73v408h73zM118 24q0 -49 20.5 -75t54.5 -26q32 0 51.5 27.5t19.5 73.5t-19.5 73t-51.5 27q-34 0 -54.5 -25.5t-20.5 -74.5z" />
    <glyph glyph-name="c.subs" horiz-adv-x="340" 
d="M176 182q51 0 89.5 -29t47.5 -83h-70q-4 24 -21.5 38t-46.5 14q-33 0 -53 -24t-20 -75q0 -50 20.5 -74.5t52.5 -24.5q59 0 70 54h70q-11 -55 -50 -84t-91 -29q-67 0 -106.5 45t-39.5 113q0 70 40 114.5t108 44.5z" />
    <glyph glyph-name="d.subs" horiz-adv-x="367" 
d="M246 280h73v-408h-73v38q-28 -45 -87 -45q-57 0 -94 43.5t-37 115.5q0 71 37 114.5t94 43.5q59 0 87 -45v143zM174 -77q34 0 54.5 26t20.5 75t-20.5 74.5t-54.5 25.5q-33 0 -52 -27t-19 -73t19 -73.5t52 -27.5z" />
    <glyph glyph-name="e.subs" horiz-adv-x="349" 
d="M28 27q0 68 40.5 111.5t107.5 43.5q70 0 109.5 -49.5t35.5 -129.5h-220q2 -34 23.5 -56.5t53.5 -22.5q52 0 69 40h70q-11 -41 -45 -70t-91 -29q-72 0 -112.5 47t-40.5 115zM176 127q-28 0 -50.5 -18.5t-24.5 -54.5h146q-2 35 -22.5 54t-48.5 19z" />
    <glyph glyph-name="f.subs" horiz-adv-x="204" 
d="M56 175v17q0 53 24 70.5t84 17.5h26v-54h-17q-27 0 -35 -7t-8 -31v-13h60v-51h-60v-252h-74v252h-42v51h42z" />
    <glyph glyph-name="g.subs" horiz-adv-x="366" 
d="M248 175h73v-276q0 -69 -37 -105q-36 -33 -111 -33q-117 0 -132 93h71q5 -21 19 -29t44 -8q42 0 57.5 20.5t15.5 46.5v38q-28 -45 -88 -45q-57 0 -94.5 42.5t-37.5 110.5q0 70 37 111t95 41q60 0 88 -45v38zM251 30q0 46 -21 70.5t-55 24.5q-33 0 -52.5 -25.5
t-19.5 -69.5q0 -45 19.5 -70.5t52.5 -25.5q34 0 55 24.5t21 71.5z" />
    <glyph glyph-name="h.subs" horiz-adv-x="358" 
d="M121 280v-146q25 48 89 48q105 0 105 -120v-190h-74v173q0 24 -3 39t-15 27t-35 12q-67 0 -67 -91v-160h-73v408h73z" />
    <glyph glyph-name="i.subs" horiz-adv-x="169" 
d="M48 175h73v-303h-73v303zM48 280h73v-70h-73v70z" />
    <glyph glyph-name="j.subs" horiz-adv-x="170" 
d="M48 -132v307h73v-303q0 -60 -19 -79.5t-75 -19.5h-21v56h12q20 0 25 7t5 32zM48 280h73v-70h-73v70z" />
    <glyph glyph-name="k.subs" horiz-adv-x="333" 
d="M48 280h73v-221l108 116h87l-109 -116l117 -187h-85l-81 134l-37 -39v-95h-73v408z" />
    <glyph glyph-name="l.subs" horiz-adv-x="169" 
d="M121 280v-408h-73v408h73z" />
    <glyph glyph-name="m.subs" horiz-adv-x="537" 
d="M48 -128v303h73v-34q26 41 85 41q62 0 87 -47q34 47 100 47q52 0 78 -31q23 -28 23 -88v-191h-73v177q0 41 -11 57q-12 17 -41 17q-61 0 -61 -90v-161h-74v177q0 42 -11 57q-12 17 -40 17q-62 0 -62 -90v-161h-73z" />
    <glyph glyph-name="uni207F.011" horiz-adv-x="358" 
d="M121 175v-41q25 48 89 48q105 0 105 -120v-190h-74v173q0 24 -3 39t-15 27t-35 12q-67 0 -67 -91v-160h-73v303h73z" />
    <glyph glyph-name="o.subs" horiz-adv-x="355" 
d="M178 -77q35 0 55 25t20 75q0 49 -20 75t-55 26q-33 0 -53.5 -26.5t-20.5 -74.5q0 -49 20.5 -74.5t53.5 -25.5zM178 -135q-62 0 -105.5 40.5t-43.5 117.5t43 118t106 41t106 -41t43 -118t-43.5 -117.5t-105.5 -40.5z" />
    <glyph glyph-name="p.subs" horiz-adv-x="368" 
d="M121 175v-38q29 45 87 45q57 0 94 -43.5t37 -114.5q0 -72 -37 -115.5t-94 -43.5q-58 0 -87 45v-137h-73v402h73zM118 24q0 -49 20.5 -75t54.5 -26q32 0 51.5 27.5t19.5 73.5t-19.5 73t-51.5 27q-34 0 -54.5 -25.5t-20.5 -74.5z" />
    <glyph glyph-name="q.subs" horiz-adv-x="367" 
d="M246 137v38h73v-402h-73v137q-28 -45 -87 -45q-57 0 -94 43.5t-37 115.5q0 71 37 114.5t94 43.5q59 0 87 -45zM249 24q0 49 -20.5 74.5t-54.5 25.5q-33 0 -52 -27t-19 -73t19 -73.5t52 -27.5q34 0 54.5 26t20.5 75z" />
    <glyph glyph-name="r.subs" horiz-adv-x="231" 
d="M219 174v-73q-22 2 -33 2q-33 0 -49 -15t-16 -57v-159h-73v303h72v-55q27 55 81 55q2 0 8.5 -0.5t9.5 -0.5z" />
    <glyph glyph-name="s.subs" horiz-adv-x="317" 
d="M163 -135q-57 0 -93.5 27.5t-41.5 72.5h70q6 -47 68 -47q58 0 58 37q0 28 -50 39l-46 10q-45 9 -69 29.5t-24 60.5q0 38 36.5 63t87.5 25q49 0 86 -23t46 -68h-66q-10 37 -70 37q-23 0 -38 -8.5t-15 -21.5q0 -27 42 -36l41 -9q54 -11 81.5 -30.5t27.5 -59.5
q0 -46 -38 -72t-93 -26z" />
    <glyph glyph-name="t.subs" horiz-adv-x="218" 
d="M57 175v81h73v-81h62v-51h-62v-160q0 -23 8 -30.5t30 -7.5h23v-54h-54q-49 0 -64.5 17t-15.5 64v171h-44v51h44z" />
    <glyph glyph-name="u.subs" horiz-adv-x="356" 
d="M235 -128v39q-29 -47 -88 -47q-53 0 -81 34q-22 28 -22 86v191h73v-179q0 -39 10 -54q14 -20 43 -20q65 0 65 94v159h73v-303h-73z" />
    <glyph glyph-name="v.subs" horiz-adv-x="309" 
d="M92 175l65 -210l65 210h76l-107 -303h-70l-109 303h80z" />
    <glyph glyph-name="w.subs" horiz-adv-x="435" 
d="M131 -37l48 212h76l49 -212l39 212h80l-78 -303h-70l-57 217l-58 -217h-70l-78 303h79z" />
    <glyph glyph-name="x.subs" horiz-adv-x="326" 
d="M309 175l-104 -146l110 -157h-86l-67 97l-69 -97h-80l110 153l-104 150h85l62 -89l64 89h79z" />
    <glyph glyph-name="y.subs" horiz-adv-x="304" 
d="M65 -227h-32v55h27q23 0 33 6.5t19 32.5l4 7l-110 301h79l66 -211l66 211h75l-106 -297q-24 -64 -47 -84.5t-74 -20.5z" />
    <glyph glyph-name="z.subs" horiz-adv-x="297" 
d="M19 -128v54l157 195h-146v54h239v-54l-159 -195h163v-54h-254z" />
    <glyph glyph-name="uni2080.zero" horiz-adv-x="399" 
d="M365 76q0 -96 -42.5 -153.5t-122.5 -57.5q-79 0 -121 57.5t-42 153.5t42 153.5t121 57.5q80 0 122.5 -57.5t42.5 -153.5zM113 76v-10l171 74q-17 93 -84 93q-42 0 -64.5 -41t-22.5 -116zM289 76v10l-171 -74q17 -92 82 -92q89 0 89 156z" />
    <glyph glyph-name="period.subs" horiz-adv-x="161" 
d="M121 -128h-81v81h81v-81z" />
    <glyph glyph-name="hyphen.subs" horiz-adv-x="233" 
d="M209 -10h-185v65h185v-65z" />
    <glyph glyph-name="comma.subs" horiz-adv-x="173" 
d="M44 -128v81h84v-87l-44 -87h-43l40 93h-37z" />
    <glyph glyph-name="uni207C.012" horiz-adv-x="370" 
d="M328 48h-286v65h286v-65zM328 -70h-286v65h286v-65z" />
    <glyph glyph-name="uni207A.013" horiz-adv-x="372" 
d="M219 -128h-66v118h-123v65h123v120h66v-120h123v-65h-123v-118z" />
    <glyph glyph-name="uni207B.014" horiz-adv-x="363" 
d="M31 55h302v-65h-302v65z" />
    <glyph glyph-name="one.frac" horiz-adv-x="232" 
d="M176 317h-74v308h-89v50q49 1 71.5 10t36.5 40h55v-408z" />
    <glyph glyph-name="two.frac" horiz-adv-x="348" 
d="M177 732q59 0 97 -29t38 -79q0 -59 -50.5 -117.5t-151.5 -126.5h211v-63h-299v59q114 90 164 143.5t50 99.5q0 29 -17 44t-45 15q-31 0 -51.5 -21t-19.5 -64h-73q-1 63 39 101t108 38z" />
    <glyph glyph-name="three.frac" horiz-adv-x="361" 
d="M178 365q35 0 57 18t22 49q0 68 -95 68h-24v59h20q90 0 90 61q0 28 -19.5 43t-48.5 15q-70 0 -81 -77h-70q5 61 46 96t110 35q56 0 96.5 -27.5t40.5 -81.5q0 -29 -15.5 -53t-41.5 -37q32 -14 49.5 -40.5t17.5 -58.5q0 -60 -44.5 -92t-110.5 -32q-67 0 -108 39t-45 97h70
q6 -36 26.5 -58.5t57.5 -22.5z" />
    <glyph glyph-name="four.frac" horiz-adv-x="377" 
d="M217 631l-122 -159h122v159zM361 472v-61h-70v-94h-74v94h-201v58l202 256h73v-253h70z" />
    <glyph glyph-name="five.frac" horiz-adv-x="363" 
d="M181 365q34 0 55.5 22t21.5 60q0 40 -23.5 63.5t-55.5 23.5q-27 0 -46 -11.5t-25 -30.5l-68 3l27 230h248v-63h-187l-13 -98q30 24 83 24q55 0 95 -37t40 -103q0 -65 -43.5 -101.5t-109.5 -36.5q-67 0 -107.5 39t-42.5 96h69q9 -80 82 -80z" />
    <glyph glyph-name="six.frac" horiz-adv-x="363" 
d="M109 448q0 -39 21 -61t54 -22q35 0 56 22t21 61t-21 61.5t-55 22.5t-55 -22.5t-21 -61.5zM189 678q-39 0 -62 -36t-23 -97q34 43 94 43q58 0 97.5 -38t39.5 -101t-42 -101t-108 -38q-78 0 -116.5 54.5t-38.5 145.5q0 97 39.5 159.5t123.5 62.5q62 0 96 -33t38 -79h-73
q-2 29 -19.5 43.5t-45.5 14.5z" />
    <glyph glyph-name="seven.frac" horiz-adv-x="310" 
d="M11 662v63h297v-63q-82 -82 -121.5 -160t-45.5 -185h-81q7 189 173 345h-222z" />
    <glyph glyph-name="eight.frac" horiz-adv-x="373" 
d="M187 732q64 0 102.5 -29t38.5 -75q0 -60 -51 -93q63 -36 63 -102q0 -58 -43.5 -90.5t-109.5 -32.5t-109.5 32.5t-43.5 90.5q0 68 63 102q-51 29 -51 93q0 46 38.5 75t102.5 29zM187 507q-36 0 -56.5 -18.5t-20.5 -51.5q0 -35 20.5 -53.5t56.5 -18.5t57 18.5t21 53.5
q0 33 -21 51.5t-57 18.5zM256 618q0 29 -18 44.5t-51 15.5q-31 0 -50 -15.5t-19 -44.5t19 -45.5t50 -16.5q32 0 50.5 16.5t18.5 45.5z" />
    <glyph glyph-name="nine.frac" horiz-adv-x="359" 
d="M253 594q0 40 -21 62t-55 22t-55 -22t-21 -62q0 -39 21 -61.5t55 -22.5q33 0 54.5 22.5t21.5 61.5zM173 365q39 0 61.5 36t23.5 96q-34 -43 -95 -43q-58 0 -97.5 38t-39.5 102q0 62 42 100t109 38q77 0 115.5 -54.5t38.5 -145.5q0 -97 -40 -159.5t-124 -62.5
q-62 0 -95.5 32.5t-37.5 79.5h73q6 -57 66 -57z" />
    <glyph glyph-name="zero.frac" horiz-adv-x="399" 
d="M200 310q-79 0 -121 57.5t-42 153.5t42 153.5t121 57.5q80 0 122.5 -57.5t42.5 -153.5t-42.5 -153.5t-122.5 -57.5zM200 365q89 0 89 156q0 157 -89 157q-42 0 -64.5 -41t-22.5 -116t22.5 -115.5t64.5 -40.5z" />
    <glyph glyph-name="zero.frac_zero" horiz-adv-x="399" 
d="M365 521q0 -96 -42.5 -153.5t-122.5 -57.5q-79 0 -121 57.5t-42 153.5t42 153.5t121 57.5q80 0 122.5 -57.5t42.5 -153.5zM113 521v-10l171 74q-17 93 -84 93q-42 0 -64.5 -41t-22.5 -116zM289 521v10l-171 -74q17 -92 82 -92q89 0 89 156z" />
    <glyph glyph-name="one.dnom" horiz-adv-x="232" 
d="M176 0h-74v308h-89v50q49 1 71.5 10t36.5 40h55v-408z" />
    <glyph glyph-name="two.dnom" horiz-adv-x="348" 
d="M177 415q59 0 97 -29t38 -79q0 -59 -50.5 -117.5t-151.5 -126.5h211v-63h-299v59q114 90 164 143.5t50 99.5q0 29 -17 44t-45 15q-31 0 -51.5 -21t-19.5 -64h-73q-1 63 39 101t108 38z" />
    <glyph glyph-name="three.dnom" horiz-adv-x="361" 
d="M178 48q35 0 57 18t22 49q0 68 -95 68h-24v59h20q90 0 90 61q0 28 -19.5 43t-48.5 15q-70 0 -81 -77h-70q5 61 46 96t110 35q56 0 96.5 -27.5t40.5 -81.5q0 -29 -15.5 -53t-41.5 -37q32 -14 49.5 -40.5t17.5 -58.5q0 -60 -44.5 -92t-110.5 -32q-67 0 -108 39t-45 97h70
q6 -36 26.5 -58.5t57.5 -22.5z" />
    <glyph glyph-name="four.dnom" horiz-adv-x="377" 
d="M217 314l-122 -159h122v159zM361 155v-61h-70v-94h-74v94h-201v58l202 256h73v-253h70z" />
    <glyph glyph-name="five.dnom" horiz-adv-x="363" 
d="M181 48q34 0 55.5 22t21.5 60q0 40 -23.5 63.5t-55.5 23.5q-27 0 -46 -11.5t-25 -30.5l-68 3l27 230h248v-63h-187l-13 -98q30 24 83 24q55 0 95 -37t40 -103q0 -65 -43.5 -101.5t-109.5 -36.5q-67 0 -107.5 39t-42.5 96h69q9 -80 82 -80z" />
    <glyph glyph-name="six.dnom" horiz-adv-x="363" 
d="M109 131q0 -39 21 -61t54 -22q35 0 56 22t21 61t-21 61.5t-55 22.5t-55 -22.5t-21 -61.5zM189 361q-39 0 -62 -36t-23 -97q34 43 94 43q58 0 97.5 -38t39.5 -101t-42 -101t-108 -38q-78 0 -116.5 54.5t-38.5 145.5q0 97 39.5 159.5t123.5 62.5q62 0 96 -33t38 -79h-73
q-2 29 -19.5 43.5t-45.5 14.5z" />
    <glyph glyph-name="seven.dnom" horiz-adv-x="310" 
d="M11 345v63h297v-63q-82 -82 -121.5 -160t-45.5 -185h-81q7 189 173 345h-222z" />
    <glyph glyph-name="eight.dnom" horiz-adv-x="373" 
d="M187 415q64 0 102.5 -29t38.5 -75q0 -60 -51 -93q63 -36 63 -102q0 -58 -43.5 -90.5t-109.5 -32.5t-109.5 32.5t-43.5 90.5q0 68 63 102q-51 29 -51 93q0 46 38.5 75t102.5 29zM187 190q-36 0 -56.5 -18.5t-20.5 -51.5q0 -35 20.5 -53.5t56.5 -18.5t57 18.5t21 53.5
q0 33 -21 51.5t-57 18.5zM256 301q0 29 -18 44.5t-51 15.5q-31 0 -50 -15.5t-19 -44.5t19 -45.5t50 -16.5q32 0 50.5 16.5t18.5 45.5z" />
    <glyph glyph-name="nine.dnom" horiz-adv-x="359" 
d="M253 277q0 40 -21 62t-55 22t-55 -22t-21 -62q0 -39 21 -61.5t55 -22.5q33 0 54.5 22.5t21.5 61.5zM173 48q39 0 61.5 36t23.5 96q-34 -43 -95 -43q-58 0 -97.5 38t-39.5 102q0 62 42 100t109 38q77 0 115.5 -54.5t38.5 -145.5q0 -97 -40 -159.5t-124 -62.5
q-62 0 -95.5 32.5t-37.5 79.5h73q6 -57 66 -57z" />
    <glyph glyph-name="zero.dnom" horiz-adv-x="399" 
d="M200 -7q-79 0 -121 57.5t-42 153.5t42 153.5t121 57.5q80 0 122.5 -57.5t42.5 -153.5t-42.5 -153.5t-122.5 -57.5zM200 48q89 0 89 156q0 157 -89 157q-42 0 -64.5 -41t-22.5 -116t22.5 -115.5t64.5 -40.5z" />
    <glyph glyph-name="zero.dnom_zero" horiz-adv-x="399" 
d="M365 204q0 -96 -42.5 -153.5t-122.5 -57.5q-79 0 -121 57.5t-42 153.5t42 153.5t121 57.5q80 0 122.5 -57.5t42.5 -153.5zM113 204v-10l171 74q-17 93 -84 93q-42 0 -64.5 -41t-22.5 -116zM289 204v10l-171 -74q17 -92 82 -92q89 0 89 156z" />
    <glyph glyph-name="ampersand.case" horiz-adv-x="715" 
d="M275 -13q-109 0 -176 60.5t-67 151.5q0 80 49 136t134 85q-80 93 -80 165q0 69 55.5 111.5t141.5 42.5q76 0 131 -38t55 -118q0 -126 -148 -188l144 -153q28 63 34 151h99q-11 -130 -66 -221l162 -172h-135l-87 92q-103 -105 -246 -105zM275 68q114 0 187 87l-193 207
q-136 -50 -136 -159q0 -62 41.5 -98.5t100.5 -36.5zM236 592q0 -59 78 -137l2 -2q52 19 82.5 53t30.5 76q0 81 -95 81q-42 0 -70 -18t-28 -53z" />
    <glyph glyph-name="hyphen.015" horiz-adv-x="405" 
d="M361 326h-318v86h318v-86z" />
    <glyph glyph-name="endash.016" horiz-adv-x="512" 
d="M475 326h-437v86h437v-86z" />
    <glyph glyph-name="emdash.017" horiz-adv-x="723" 
d="M691 326h-659v86h659v-86z" />
    <glyph glyph-name="question.case" horiz-adv-x="534" 
d="M276 738q106 0 175.5 -45t69.5 -131q0 -108 -155 -206q-47 -31 -63 -52t-16 -61v-31h-103v34q0 60 30 98t99 82q33 21 51.5 35.5t35.5 39.5t17 52q0 47 -38.5 72t-105.5 25q-83 0 -121 -40t-41 -95h-98q0 98 73.5 160.5t189.5 62.5zM295 0h-115v115h115v-115z" />
    <glyph glyph-name="questiondown.case" horiz-adv-x="534" 
d="M258 -13q-107 0 -176 44.5t-69 132.5q0 27 11 52.5t23 42.5t38.5 39t39.5 31t43 29q48 31 63 52t15 61v31h104v-34q0 -60 -30 -98t-99 -82q-25 -15 -32 -19t-26 -18t-25.5 -23t-13.5 -24.5t-7 -31.5q0 -47 38 -72t105 -25q84 0 122 41t41 97l98 -3q0 -98 -73.5 -160.5
t-189.5 -62.5zM354 610h-115v115h115v-115z" />
    <glyph glyph-name="exclam.case" horiz-adv-x="265" 
d="M161 212h-57l-26 294v219h109v-219zM190 0h-115v115h115v-115z" />
    <glyph glyph-name="exclamdown.case" horiz-adv-x="265" 
d="M104 502h57l26 -293v-209h-109v209zM190 610h-115v115h115v-115z" />
    <glyph glyph-name="guilsinglleft.018" horiz-adv-x="289" 
d="M169 139l-159 229l159 228h98l-150 -228l150 -229h-98z" />
    <glyph glyph-name="guilsinglright.019" horiz-adv-x="289" 
d="M279 368l-159 -229h-98l151 229l-151 228h98z" />
    <glyph glyph-name="guilsinglleft_guilsinglleft" horiz-adv-x="514" 
d="M169 139l-159 229l159 228h98l-150 -228l150 -229h-98zM394 139l-159 229l159 228h98l-150 -228l150 -229h-98z" />
    <glyph glyph-name="guilsinglright_guilsinglright" horiz-adv-x="514" 
d="M279 368l-159 -229h-98l151 229l-151 228h98zM504 368l-159 -229h-98l151 229l-151 228h98z" />
    <glyph glyph-name="parenleft.case" horiz-adv-x="245" 
d="M32 364q0 180 109 361h97q-102 -164 -102 -361q0 -200 102 -364h-97q-109 181 -109 364z" />
    <glyph glyph-name="parenright.case" horiz-adv-x="245" 
d="M214 364q0 -183 -109 -364h-97q101 163 101 364q0 198 -101 361h97q109 -181 109 -361z" />
    <glyph glyph-name="bracketleft.case" horiz-adv-x="331" 
d="M86 725h225v-77h-130v-571h130v-77h-225v725z" />
    <glyph glyph-name="bracketright.case" horiz-adv-x="331" 
d="M20 725h225v-725h-225v77h130v571h-130v77z" />
    <glyph glyph-name="braceleft.case" horiz-adv-x="300" 
d="M280 0h-47q-90 0 -118 31t-28 117v75q0 52 -15 77.5t-61 25.5v73q46 0 61 25.5t15 77.5v75q0 87 28 117.5t118 30.5h47v-77h-39q-35 0 -45.5 -13.5t-10.5 -56.5v-78q0 -66 -18.5 -95.5t-60.5 -40.5v-2q41 -10 60 -40.5t19 -96.5v-78q0 -43 10.5 -56.5t45.5 -13.5h39v-77z
" />
    <glyph glyph-name="braceright.case" horiz-adv-x="300" 
d="M20 0v77h39q35 0 45.5 13.5t10.5 56.5v78q0 66 19 96.5t60 40.5v2q-41 10 -60 40t-19 96v78q0 43 -10.5 56.5t-45.5 13.5h-39v77h47q90 0 118 -30.5t28 -117.5v-75q0 -52 15 -77.5t61 -25.5v-73q-46 0 -61 -25.5t-15 -77.5v-75q0 -86 -28 -117t-118 -31h-47z" />
    <glyph glyph-name="bar.case" horiz-adv-x="255" 
d="M86 725h83v-725h-83v725z" />
    <glyph glyph-name="brokenbar.case" horiz-adv-x="227" 
d="M72 725h83v-260h-83v260zM72 260h83v-260h-83v260z" />
    <glyph glyph-name="period.020" horiz-adv-x="245" 
d="M180 305h-115v115h115v-115z" />
    <glyph glyph-name="bullet.021" horiz-adv-x="447" 
d="M43 374q0 73 52 125t124 52q78 0 131 -51.5t53 -125.5q0 -78 -52.5 -130.5t-131.5 -52.5q-73 0 -124.5 53t-51.5 130z" />
    <glyph glyph-name="plus.022" 
d="M385 95h-91v226h-226v86h226v220h91v-220h226v-86h-226v-226z" />
    <glyph glyph-name="minus.023" 
d="M68 407h543v-86h-543v86z" />
    <glyph glyph-name="divide.024" 
d="M284 127v115h115v-115h-115zM284 475v115h115v-115h-115zM600 310h-522v86h522v-86z" />
    <glyph glyph-name="multiply.025" 
d="M574 190l-64 -65l-174 173l-167 -166l-65 64l168 167l-168 169l65 64l167 -167l168 166l65 -64l-168 -168z" />
    <glyph glyph-name="equal.026" 
d="M590 427h-501v87h501v-87zM590 225h-501v86h501v-86z" />
    <glyph glyph-name="plusminus.027" 
d="M293 472v155h92v-155h215v-86h-215v-156h-92v156h-215v86h215zM600 95h-522v86h522v-86z" />
    <glyph glyph-name="less.028" 
d="M78 402l513 227v-98l-399 -168l399 -165v-97l-513 223v78z" />
    <glyph glyph-name="greater.029" 
d="M601 402v-78l-513 -223v97l399 165l-399 168v98z" />
    <glyph glyph-name="lessequal.030" 
d="M206 421l388 -122v-96l-513 179v78l513 184v-98zM78 95v86h522v-86h-522z" />
    <glyph glyph-name="greaterequal.031" 
d="M472 421l-389 125v98l514 -184v-78l-514 -179v96zM600 95h-522v86h522v-86z" />
    <glyph glyph-name="notequal.032" 
d="M213 225h-124v86h170l62 116h-232v87h279l81 150l75 -36l-62 -114h128v-87h-174l-63 -116h237v-86h-283l-90 -167l-74 37z" />
    <glyph glyph-name="acute.case" horiz-adv-x="283" 
d="M261 886l-149 -113h-90l110 113h129z" />
    <glyph glyph-name="breve.case" horiz-adv-x="359" 
d="M260 886h77q-6 -55 -45.5 -87t-113.5 -32q-140 0 -156 119h77q9 -58 80 -58t81 58z" />
    <glyph glyph-name="caron.case" horiz-adv-x="394" 
d="M153 773l-131 113h107l67 -56l69 56h107l-135 -113h-84z" />
    <glyph glyph-name="cedilla.case" horiz-adv-x="245" 
d="M22 -176l16 40q30 -14 58 -14q61 0 61 32q0 30 -44 30q-24 0 -38 -9l-30 17l51 83h53l-32 -51q15 3 30 3q36 0 56 -18.5t20 -49.5q0 -37 -33 -59.5t-75 -22.5q-54 0 -93 19z" />
    <glyph glyph-name="circumflex.case" horiz-adv-x="394" 
d="M240 886l132 -113h-107l-68 56l-68 -56h-107l135 113h83z" />
    <glyph glyph-name="dieresis.case" horiz-adv-x="365" 
d="M22 879h91v-99h-91v99zM251 879h92v-99h-92v99z" />
    <glyph glyph-name="dotaccent.case" horiz-adv-x="135" 
d="M22 880h91v-99h-91v99z" />
    <glyph glyph-name="grave.case" horiz-adv-x="283" 
d="M170 773l-148 113h129l110 -113h-91z" />
    <glyph glyph-name="hungarumlaut.case" horiz-adv-x="450" 
d="M261 886l-149 -113h-90l110 113h129zM428 886l-149 -113h-90l110 113h129z" />
    <glyph glyph-name="overscore.case" horiz-adv-x="344" 
d="M322 791h-300v75h300v-75z" />
    <glyph glyph-name="ogonek.case" horiz-adv-x="215" 
d="M91 0h102q-88 -43 -88 -80q0 -23 13.5 -34t33.5 -11q22 0 41 9v-61q-27 -11 -60 -11q-46 0 -78.5 23t-32.5 72q0 55 69 93z" />
    <glyph glyph-name="ring.case" horiz-adv-x="225" 
d="M112 935q39 0 65 -23.5t26 -61.5q0 -37 -26 -61t-65 -24q-38 0 -64 24t-26 61t26 61t64 24zM112 893q-18 0 -30.5 -12.5t-12.5 -30.5t12.5 -30t30.5 -12t30.5 12t12.5 30t-12.5 30.5t-30.5 12.5z" />
    <glyph glyph-name="tilde.case" horiz-adv-x="412" 
d="M272 840q41 0 47 45h71q-11 -59 -42 -86t-74 -27q-33 0 -75 23.5t-61 23.5q-40 0 -45 -44h-71q9 56 40 84t75 28q32 0 73 -23.5t62 -23.5z" />
    <glyph glyph-name="a.salt" horiz-adv-x="602" 
d="M439 453v85h91v-538h-91v81q-54 -94 -176 -94q-96 0 -162 75.5t-66 204.5q0 128 66 204t162 76q122 0 176 -94zM443 267q0 100 -45.5 151t-111.5 51q-71 0 -112.5 -52.5t-41.5 -149.5t41.5 -149.5t112.5 -52.5q66 0 111.5 51t45.5 151z" />
    <glyph glyph-name="aacute.salt" horiz-adv-x="602" 
d="M439 453v85h91v-538h-91v81q-54 -94 -176 -94q-96 0 -162 75.5t-66 204.5q0 128 66 204t162 76q122 0 176 -94zM443 267q0 100 -45.5 151t-111.5 51q-71 0 -112.5 -52.5t-41.5 -149.5t41.5 -149.5t112.5 -52.5q66 0 111.5 51t45.5 151zM452 725l-131 -116h-76l90 116h117
z" />
    <glyph glyph-name="abreve.salt" horiz-adv-x="602" 
d="M439 453v85h91v-538h-91v81q-54 -94 -176 -94q-96 0 -162 75.5t-66 204.5q0 128 66 204t162 76q122 0 176 -94zM443 267q0 100 -45.5 151t-111.5 51q-71 0 -112.5 -52.5t-41.5 -149.5t41.5 -149.5t112.5 -52.5q66 0 111.5 51t45.5 151zM382 725h71q-16 -121 -160 -121
q-76 0 -114.5 35t-42.5 86h71q8 -61 87 -61q80 0 88 61z" />
    <glyph glyph-name="acircumflex.salt" horiz-adv-x="602" 
d="M439 453v85h91v-538h-91v81q-54 -94 -176 -94q-96 0 -162 75.5t-66 204.5q0 128 66 204t162 76q122 0 176 -94zM443 267q0 100 -45.5 151t-111.5 51q-71 0 -112.5 -52.5t-41.5 -149.5t41.5 -149.5t112.5 -52.5q66 0 111.5 51t45.5 151zM339 725l129 -116h-96l-79 54
l-79 -54h-96l132 116h89z" />
    <glyph glyph-name="adieresis.salt" horiz-adv-x="602" 
d="M439 453v85h91v-538h-91v81q-54 -94 -176 -94q-96 0 -162 75.5t-66 204.5q0 128 66 204t162 76q122 0 176 -94zM443 267q0 100 -45.5 151t-111.5 51q-71 0 -112.5 -52.5t-41.5 -149.5t41.5 -149.5t112.5 -52.5q66 0 111.5 51t45.5 151zM133 626v99h91v-99h-91zM362 725
h92v-99h-92v99z" />
    <glyph glyph-name="agrave.salt" horiz-adv-x="602" 
d="M439 453v85h91v-538h-91v81q-54 -94 -176 -94q-96 0 -162 75.5t-66 204.5q0 128 66 204t162 76q122 0 176 -94zM443 267q0 100 -45.5 151t-111.5 51q-71 0 -112.5 -52.5t-41.5 -149.5t41.5 -149.5t112.5 -52.5q66 0 111.5 51t45.5 151zM245 609l-130 116h116l91 -116h-77
z" />
    <glyph glyph-name="amacron.salt" horiz-adv-x="602" 
d="M439 453v85h91v-538h-91v81q-54 -94 -176 -94q-96 0 -162 75.5t-66 204.5q0 128 66 204t162 76q122 0 176 -94zM443 267q0 100 -45.5 151t-111.5 51q-71 0 -112.5 -52.5t-41.5 -149.5t41.5 -149.5t112.5 -52.5q66 0 111.5 51t45.5 151zM443 635h-300v75h300v-75z" />
    <glyph glyph-name="aogonek.salt" horiz-adv-x="602" 
d="M439 453v85h91v-538q-98 -41 -98 -85q0 -39 55 -39q20 0 42 6v-61q-27 -9 -64 -9q-48 0 -82 21t-34 69q0 60 90 98v81q-54 -94 -176 -94q-96 0 -162 75.5t-66 204.5q0 128 66 204t162 76q122 0 176 -94zM443 267q0 100 -45.5 151t-111.5 51q-71 0 -112.5 -52.5
t-41.5 -149.5t41.5 -149.5t112.5 -52.5q66 0 111.5 51t45.5 151z" />
    <glyph glyph-name="aring.salt" horiz-adv-x="602" 
d="M439 453v85h91v-538h-91v81q-54 -94 -176 -94q-96 0 -162 75.5t-66 204.5q0 128 66 204t162 76q122 0 176 -94zM443 267q0 100 -45.5 151t-111.5 51q-71 0 -112.5 -52.5t-41.5 -149.5t41.5 -149.5t112.5 -52.5q66 0 111.5 51t45.5 151zM283 770q39 0 65 -23.5t26 -61.5
q0 -37 -26 -61t-65 -24q-38 0 -64 24t-26 61t26 61t64 24zM283 728q-18 0 -30.5 -12.5t-12.5 -30.5t12.5 -30t30.5 -12t30.5 12t12.5 30t-12.5 30.5t-30.5 12.5z" />
    <glyph glyph-name="atilde.salt" horiz-adv-x="602" 
d="M439 453v85h91v-538h-91v81q-54 -94 -176 -94q-96 0 -162 75.5t-66 204.5q0 128 66 204t162 76q122 0 176 -94zM443 267q0 100 -45.5 151t-111.5 51q-71 0 -112.5 -52.5t-41.5 -149.5t41.5 -149.5t112.5 -52.5q66 0 111.5 51t45.5 151zM369 680q41 0 47 45h71
q-11 -59 -42 -86t-74 -27q-33 0 -75 24t-61 24q-40 0 -45 -44h-71q9 56 40 84t75 28q32 0 73 -24t62 -24z" />
    <glyph glyph-name="l.ss02" horiz-adv-x="249" 
d="M70 135v590h91v-578q0 -44 9.5 -57t46.5 -13h20v-77h-40q-78 0 -102.5 26t-24.5 109z" />
    <glyph glyph-name="lacute.ss02" horiz-adv-x="249" 
d="M70 135v590h91v-578q0 -44 9.5 -57t46.5 -13h20v-77h-40q-78 0 -102.5 26t-24.5 109zM311 886l-149 -113h-90l110 113h129z" />
    <glyph glyph-name="lcaron.ss02" horiz-adv-x="310" 
d="M330 725l-70 -170h-58l30 170h98zM70 135v590h91v-578q0 -44 9.5 -57t46.5 -13h20v-77h-40q-78 0 -102.5 26t-24.5 109z" />
    <glyph glyph-name="uni013C.ss02" horiz-adv-x="249" 
d="M70 135v590h91v-578q0 -44 9.5 -57t46.5 -13h20v-77h-40q-78 0 -102.5 26t-24.5 109zM107 -125v89h95v-95l-44 -90h-54l39 96h-36z" />
    <glyph glyph-name="ldot.ss02" horiz-adv-x="322" 
d="M233 459h91v-99h-91v99zM70 135v590h91v-578q0 -44 9.5 -57t46.5 -13h20v-77h-40q-78 0 -102.5 26t-24.5 109z" />
    <glyph glyph-name="lslash.ss02" horiz-adv-x="289" 
d="M20 267v76l72 49v333h91v-270l73 50v-77l-73 -50v-231q0 -44 9.5 -57t46.5 -13h20v-77h-40q-78 0 -102.5 26t-24.5 109v181z" />
    <glyph glyph-name="fl.ss02" horiz-adv-x="562" 
d="M95 538v39q0 87 27.5 117.5t117.5 30.5h47v-76h-45q-36 0 -46 -12.5t-10 -54.5v-44h101v-73h-101v-465h-91v465h-75v73h75zM383 135v590h91v-578q0 -44 9.5 -57t46.5 -13h20v-77h-40q-78 0 -102.5 26t-24.5 109z" />
    <glyph glyph-name="germandbls.ss03" horiz-adv-x="633" 
d="M163 -175h-91v666q0 122 55 177q64 69 201 69q99 0 162.5 -47t63.5 -125q0 -113 -109 -157q151 -37 151 -194q0 -61 -22 -106.5t-61 -71t-84.5 -37.5t-99.5 -12t-109 11l20 86q45 -15 93 -15q72 0 118.5 34t46.5 110q0 145 -203 145h-3v83h2q81 0 124.5 29.5t43.5 83.5
q0 49 -37.5 78.5t-97.5 29.5q-97 0 -133 -49q-31 -38 -31 -122v-666z" />
    </font>
</defs>
</svg>
