<?xml version="1.0" encoding="utf-8"?>
<!-- Generator: Adobe Illustrator 16.0.0, SVG Export Plug-In . SVG Version: 6.00 Build 0)  -->
<!DOCTYPE svg PUBLIC "-//W3C//DTD SVG 1.1//EN" "http://www.w3.org/Graphics/SVG/1.1/DTD/svg11.dtd">
<svg version="1.1" id="Layer_1" xmlns="http://www.w3.org/2000/svg" xmlns:xlink="http://www.w3.org/1999/xlink" x="0px" y="0px"
	 width="166px" height="169px" viewBox="0 0 166 169" enable-background="new 0 0 166 169" xml:space="preserve">
<title>4BB98230-6F35-41E5-89E2-96576588E210</title>
<desc>Created with sketchtool.</desc>
<g id="New-Requester-Portal">
	<g id="_x30_5-Announcements" transform="translate(-1057.000000, -104.000000)">
		<g id="Group-24" transform="translate(815.000000, 0.000000)">
			<g id="No-announcement" transform="translate(242.000000, 104.000000)">
				<g id="Group-45" transform="translate(9.175879, 28.361809)">
					<g id="Fill-1" transform="translate(80.080402, 67.567839)" opacity="0.29">
						<path id="Path" fill="#E2CFA3" d="M2.035,49.399L49.024,2.41c2.958-2.756,7.567-2.674,10.427,0.185s2.94,7.469,0.184,10.427
							L12.646,60.01c-2.958,2.757-7.568,2.676-10.427-0.184S-0.721,52.357,2.035,49.399"/>
					</g>
					<g id="Group-5" transform="translate(0.000000, 69.236181)" opacity="0.29">
						<g id="Fill-3">
							<path id="Path_1_" fill="#E2CFA3" d="M3.17,9.81l7.266-7.266c1.872-2.009,4.69-2.836,7.35-2.156
								c2.66,0.68,4.737,2.756,5.417,5.416s-0.147,5.479-2.156,7.351l-7.266,7.266c-1.872,2.009-4.69,2.835-7.351,2.155
								c-2.66-0.679-4.737-2.756-5.417-5.416C0.334,14.5,1.162,11.681,3.17,9.81"/>
						</g>
					</g>
					<g id="Fill-6" transform="translate(85.085427, 70.904523)" opacity="0.29">
						<path id="Path_2_" fill="#E2CFA3" d="M0.375,21.931L21.847,0.458c-2.707,2.965-2.603,7.535,0.237,10.373
							s7.41,2.939,10.373,0.23l-21.48,21.471c2.041-1.863,2.894-4.695,2.22-7.375s-2.765-4.772-5.444-5.449
							c-2.679-0.676-5.513,0.175-7.377,2.214"/>
					</g>
					<g id="Fill-8" transform="translate(75.909548, 40.040201)" opacity="0.29">
						<path id="Path_3_" fill="#E2CFA3" d="M0.368,20.078L20.487,0c-2.756,2.958-2.675,7.568,0.185,10.427
							c2.858,2.859,7.468,2.94,10.427,0.184l-20.121,20.12c2.757-2.958,2.676-7.568-0.184-10.427s-7.469-2.94-10.426-0.184"/>
					</g>
					<g id="Fill-10" transform="translate(66.733668, 26.693467)" opacity="0.29">
						<path id="Path_4_" fill="#E2CFA3" d="M2.419,61.337L61.12,2.636c2.956-2.759,7.565-2.681,10.427,0.176
							c2.861,2.856,2.946,7.466,0.192,10.426L13.038,71.947c-2.947,2.826-7.613,2.779-10.502-0.107S-0.405,64.287,2.419,61.337"/>
					</g>
					<g id="Fill-12" transform="translate(9.175879, 20.854271)" opacity="0.29">
						<path id="Path_5_" fill="#E2CFA3" d="M2.294,83.092L82.207,3.178c1.865-2.039,4.699-2.889,7.378-2.213
							c2.679,0.676,4.771,2.769,5.444,5.448c0.674,2.68-0.179,5.513-2.219,7.375L12.905,93.694
							c-2.963,2.709-7.533,2.607-10.373-0.229C-0.308,90.627-0.413,86.057,2.294,83.092"/>
					</g>
					<g id="Fill-14" transform="translate(23.356784, 19.185930)" opacity="0.29">
						<path id="Path_6_" fill="#E2CFA3" d="M2.244,32.149L31.89,2.503c1.894-1.903,4.659-2.651,7.254-1.962
							c2.595,0.688,4.625,2.709,5.326,5.301c0.701,2.591-0.034,5.36-1.928,7.263L12.846,42.76
							c-2.965,2.706-7.535,2.603-10.373-0.238C-0.364,39.682-0.465,35.112,2.244,32.149"/>
					</g>
					<g id="Fill-16" transform="translate(71.738693, 0.000000)" opacity="0.29">
						<path id="Path_7_" fill="#E2CFA3" d="M2.912,2.286L3.086,2.11c2.958-2.756,7.567-2.675,10.427,0.184s2.94,7.469,0.184,10.427
							l-0.184,0.175c-2.93,2.922-7.672,2.922-10.602,0l0,0C-0.016,9.965-0.016,5.217,2.912,2.286"/>
					</g>
					<g id="Fill-18" transform="translate(49.216080, 101.768844)" opacity="0.29">
						<path id="Path_8_" fill="#E2CFA3" d="M2.686,3.012l0.175-0.176c1.863-2.041,4.696-2.893,7.375-2.219
							c2.68,0.674,4.772,2.766,5.449,5.443c0.676,2.68-0.174,5.514-2.213,7.378l-0.175,0.184c-2.931,2.927-7.679,2.927-10.61,0l0,0
							C-0.242,10.692-0.242,5.943,2.686,3.012"/>
					</g>
					<g id="Fill-22" transform="translate(152.653266, 130.964824)">
						<path id="Path_9_" fill="#A7A192" d="M0.367,0.392c0.493-0.17,1.015-0.243,1.534-0.217c0.519,0,1.035,0.051,1.544,0.15
							c0.21,0.049,0.359,0.238,0.359,0.454c0,0.217-0.149,0.405-0.359,0.454c-0.509,0.1-1.025,0.15-1.544,0.15
							C1.382,1.412,0.86,1.337,0.367,1.167C0.2,1.113,0.087,0.957,0.087,0.78C0.087,0.604,0.2,0.448,0.367,0.392"/>
					</g>
					<g id="Fill-26" transform="translate(11.678392, 130.964824)">
						<path id="Path_10_" fill="#A7A192" d="M0.759,0.409c5.764-0.167,11.528-0.192,17.292-0.192h17.284H69.92h34.577h17.291
							c5.765,0,11.521,0,17.285,0.168c0.24,0.031,0.42,0.236,0.42,0.479c0,0.243-0.18,0.448-0.42,0.48
							c-5.765,0.15-11.521,0.158-17.285,0.166h-17.291H69.92H35.336H18.051c-5.764,0-11.528,0-17.292-0.191
							C0.66,1.316,0.567,1.274,0.499,1.202C0.431,1.129,0.396,1.033,0.4,0.934C0.409,0.74,0.565,0.584,0.759,0.576"/>
					</g>
					<g id="Fill-30" transform="translate(8.341709, 130.964824)">
						<path id="Path_11_" fill="#A7A192" d="M0.692,0.234c0.075-0.009,0.15-0.009,0.225,0h0.108c0.042,0.01,0.082,0.025,0.117,0.05
							C1.4,0.462,1.467,0.815,1.293,1.076c-0.042,0.059-0.092,0.109-0.15,0.15C1.107,1.25,1.068,1.267,1.026,1.277H0.917
							c-0.075,0.008-0.15,0.008-0.225,0C0.547,1.245,0.421,1.156,0.341,1.031c-0.08-0.125-0.106-0.277-0.074-0.422
							c0.043-0.215,0.21-0.383,0.425-0.426"/>
					</g>
					<g id="Fill-34" transform="translate(2.502513, 130.964824)">
						<path id="Path_12_" fill="#A7A192" d="M0.992,0.384c0.366-0.091,0.741-0.141,1.118-0.15c0.378-0.033,0.759,0,1.126,0.1
							C3.483,0.41,3.621,0.671,3.545,0.917c-0.049,0.146-0.163,0.26-0.309,0.309c-0.367,0.1-0.748,0.133-1.126,0.1
							C1.734,1.317,1.359,1.267,0.992,1.176C0.886,1.151,0.795,1.084,0.74,0.988C0.684,0.894,0.67,0.781,0.7,0.675
							C0.733,0.53,0.847,0.416,0.992,0.384"/>
					</g>
					<g id="Group-40" transform="translate(65.065327, 138.472362)">
						<g id="Fill-38">
							<path id="Path_13_" fill="#A7A192" d="M0.601,0.259c1.802-0.167,3.595-0.192,5.397-0.192h5.397L22.188,0h16.184
								c1.802,0,3.604,0,5.396,0.167c0.129,0.009,0.248,0.067,0.333,0.165s0.127,0.224,0.118,0.352
								c-0.026,0.238-0.213,0.426-0.451,0.451c-1.793,0.142-3.595,0.15-5.396,0.158H22.188L11.395,1.234H5.998
								c-1.802,0-3.595,0-5.397-0.191C0.417,1.015,0.281,0.857,0.281,0.672s0.136-0.344,0.319-0.371"/>
						</g>
					</g>
					<g id="Fill-43" transform="translate(46.713568, 138.472362)">
						<path id="Path_14_" fill="#A7A192" d="M1.193,0.234c1.843-0.101,3.687-0.135,5.53-0.15c1.844-0.018,3.687,0,5.531,0.1
							c0.223,0.031,0.389,0.221,0.389,0.446s-0.166,0.416-0.389,0.446c-1.844,0.117-3.687,0.125-5.531,0.1
							C4.88,1.151,3.036,1.127,1.193,1.026C1.086,1.024,0.985,0.978,0.912,0.899C0.84,0.82,0.802,0.716,0.809,0.609
							C0.825,0.406,0.989,0.246,1.193,0.234"/>
					</g>
				</g>
				<g id="Group-48" transform="translate(0.000000, 41.708543)">
					<g id="Stroke-15" transform="translate(154.321608, 82.582915)">
						<path id="Shape" fill="#E2CFA3" d="M2.736,5.005c-1.253,0-2.269-1.016-2.269-2.27c0-1.253,1.016-2.269,2.269-2.269
							s2.269,1.016,2.269,2.269C5.005,3.99,3.989,5.005,2.736,5.005z M2.736,2.144c-0.243,0-0.463,0.146-0.556,0.373
							C2.089,2.742,2.141,3.002,2.315,3.171c0.173,0.172,0.433,0.221,0.656,0.125C3.196,3.201,3.34,2.98,3.337,2.736
							c0.002-0.16-0.061-0.315-0.173-0.43c-0.112-0.115-0.267-0.18-0.428-0.18V2.144z"/>
					</g>
					<g id="Group-23" transform="translate(0.000000, 10.844221)">
						<g id="Stroke-19" transform="translate(3.336683, 0.000000)">
							<path id="Path_15_" fill="#E2CFA3" d="M1.134,9.126C0.674,9.126,0.3,8.752,0.3,8.291v-7.09c0-0.46,0.373-0.834,0.834-0.834
								c0.46,0,0.834,0.374,0.834,0.834v7.09C1.968,8.752,1.595,9.126,1.134,9.126z"/>
						</g>
						<g id="Stroke-21" transform="translate(0.000000, 3.336683)">
							<path id="Path_16_" fill="#E2CFA3" d="M8.017,2.244H0.926c-0.46,0-0.834-0.374-0.834-0.834c0-0.461,0.374-0.834,0.834-0.834
								h7.091c0.46,0,0.834,0.374,0.834,0.834C8.851,1.87,8.477,2.244,8.017,2.244z"/>
						</g>
					</g>
					<g id="Stroke-24" transform="translate(47.547739, 7.507538)">
						<path id="Shape_1_" fill="#E2CFA3" d="M3.07,4.688c-0.918,0-1.745-0.553-2.096-1.401C0.622,2.44,0.816,1.464,1.465,0.815
							S3.09-0.028,3.938,0.323c0.848,0.351,1.4,1.178,1.4,2.096C5.338,3.672,4.323,4.688,3.07,4.688L3.07,4.688z M3.07,1.827
							c-0.244,0-0.463,0.147-0.556,0.373c-0.093,0.226-0.04,0.484,0.134,0.656c0.173,0.171,0.433,0.22,0.657,0.125
							c0.224-0.095,0.369-0.317,0.365-0.561C3.666,2.091,3.398,1.827,3.07,1.827L3.07,1.827z"/>
					</g>
					<g id="Stroke-26" transform="translate(155.155779, 38.371859)">
						<path id="Shape_2_" fill="#E2CFA3" d="M2.352,4.855c-1.253,0-2.269-1.016-2.269-2.269c0-1.253,1.016-2.269,2.269-2.269
							c1.254,0,2.27,1.016,2.27,2.269C4.622,3.839,3.606,4.855,2.352,4.855z M2.352,1.994c-0.243,0-0.463,0.147-0.555,0.373
							C1.704,2.592,1.757,2.851,1.93,3.022c0.174,0.171,0.434,0.22,0.658,0.125C2.812,3.051,2.957,2.83,2.954,2.586
							c0-0.159-0.064-0.311-0.178-0.422C2.664,2.053,2.51,1.991,2.352,1.994z"/>
					</g>
					<g id="Stroke-28" transform="translate(75.909548, 0.000000)">
						<path id="Shape_3_" fill="#E2CFA3" d="M2.077,5.414C1.931,5.412,1.788,5.374,1.66,5.305c-0.193-0.11-0.334-0.293-0.392-0.509
							L0.576,2.244C0.517,2.03,0.546,1.802,0.655,1.61s0.291-0.333,0.504-0.392l2.553-0.701c0.213-0.059,0.441-0.03,0.634,0.08
							C4.539,0.706,4.68,0.888,4.738,1.101l0.701,2.561c0.059,0.213,0.03,0.441-0.079,0.634C5.25,4.489,5.068,4.629,4.855,4.688
							L2.294,5.38C2.224,5.404,2.151,5.415,2.077,5.414L2.077,5.414z M2.402,2.602l0.258,0.951l0.943-0.217L3.337,2.352L2.402,2.602
							z"/>
					</g>
					<g id="Stroke-35" transform="translate(29.195980, 50.884422)">
						<path id="Shape_4_" fill="#E2CFA3" d="M2.828,5.548c-1.382,0-2.502-1.121-2.502-2.503s1.12-2.503,2.502-2.503
							c1.382,0,2.502,1.121,2.502,2.503S4.21,5.548,2.828,5.548z M2.828,2.211c-0.461,0-0.834,0.373-0.834,0.834
							s0.374,0.834,0.834,0.834c0.46,0,0.834-0.373,0.834-0.834S3.288,2.211,2.828,2.211z"/>
					</g>
				</g>
				<g id="Group-11" transform="translate(27.527638, 3.336683)">
					<g id="Stroke-1" opacity="0.29">
						<path id="Shape_5_" fill="#E2CFA3" d="M67.877,116.851H67.81c-0.525-0.092-1.109-0.2-1.744-0.334
							c-0.108-0.021-0.203-0.086-0.265-0.179c-0.061-0.093-0.083-0.205-0.061-0.313c0.054-0.221,0.269-0.362,0.492-0.325
							c0.626,0.134,1.201,0.242,1.718,0.325c0.15,0.014,0.28,0.105,0.344,0.241c0.063,0.136,0.048,0.295-0.038,0.417
							c-0.087,0.123-0.231,0.189-0.38,0.176V116.851z M64.431,116.15H64.34c-0.551-0.133-1.126-0.267-1.727-0.426
							c-0.148-0.037-0.268-0.15-0.309-0.299c-0.043-0.146-0.003-0.307,0.104-0.416c0.107-0.111,0.265-0.156,0.414-0.119
							c0.592,0.159,1.159,0.293,1.668,0.418c0.108,0.023,0.203,0.09,0.263,0.184s0.079,0.208,0.054,0.316
							C64.771,115.992,64.619,116.131,64.431,116.15L64.431,116.15z M61.028,115.266c-0.038,0.009-0.079,0.009-0.116,0
							c-0.56-0.159-1.127-0.325-1.669-0.509c-0.106-0.033-0.196-0.107-0.247-0.205c-0.053-0.1-0.063-0.215-0.028-0.32
							c0.071-0.219,0.307-0.338,0.525-0.268l1.669,0.501c0.148,0.019,0.275,0.116,0.334,0.255c0.058,0.139,0.037,0.299-0.055,0.418
							s-0.239,0.181-0.389,0.161L61.028,115.266z M57.691,114.206c-0.047,0.008-0.095,0.008-0.142,0
							c-0.551-0.191-1.101-0.4-1.668-0.617c-0.213-0.082-0.321-0.32-0.242-0.534c0.039-0.104,0.119-0.188,0.22-0.233
							c0.102-0.046,0.218-0.049,0.322-0.008c0.551,0.208,1.093,0.416,1.668,0.6c0.217,0.079,0.332,0.316,0.259,0.534
							c-0.069,0.175-0.247,0.28-0.434,0.259H57.691z M54.413,112.93c-0.055,0.013-0.112,0.013-0.167,0
							c-0.542-0.226-1.076-0.467-1.619-0.726c-0.145-0.057-0.247-0.19-0.262-0.346c-0.016-0.155,0.056-0.307,0.187-0.393
							c0.131-0.084,0.298-0.09,0.434-0.013c0.525,0.251,1.06,0.483,1.585,0.709c0.212,0.093,0.312,0.337,0.225,0.551
							c-0.079,0.146-0.236,0.23-0.4,0.217H54.413z M51.235,111.429c-0.067,0-0.133-0.018-0.192-0.051
							c-0.525-0.267-1.042-0.559-1.56-0.834c-0.198-0.119-0.265-0.375-0.15-0.575c0.119-0.198,0.375-0.265,0.576-0.15
							c0.5,0.292,1.009,0.575,1.518,0.834c0.167,0.091,0.252,0.282,0.207,0.466c-0.045,0.186-0.209,0.315-0.399,0.318V111.429z
							 M48.198,109.668c-0.08-0.001-0.158-0.024-0.225-0.066c-0.5-0.325-0.993-0.659-1.468-1.009
							c-0.09-0.066-0.15-0.164-0.167-0.273c-0.017-0.109,0.01-0.222,0.076-0.311c0.138-0.184,0.396-0.225,0.584-0.092
							c0.467,0.342,0.942,0.667,1.426,0.984c0.193,0.124,0.249,0.381,0.125,0.575c-0.081,0.123-0.22,0.195-0.367,0.191H48.198z
							 M45.345,107.609c-0.097,0.002-0.192-0.03-0.267-0.092c-0.467-0.385-0.918-0.785-1.343-1.186
							c-0.079-0.076-0.123-0.182-0.123-0.291c0-0.11,0.044-0.216,0.123-0.293c0.078-0.078,0.185-0.123,0.296-0.123
							c0.111,0,0.218,0.045,0.296,0.123c0.409,0.385,0.834,0.768,1.301,1.144c0.132,0.112,0.18,0.296,0.121,0.46
							c-0.06,0.162-0.214,0.271-0.388,0.273L45.345,107.609z M42.793,105.197c-0.118,0.001-0.23-0.047-0.309-0.134
							c-0.409-0.441-0.834-0.9-1.151-1.368c-0.117-0.112-0.158-0.284-0.104-0.438c0.054-0.153,0.192-0.262,0.354-0.277
							c0.162-0.015,0.319,0.066,0.4,0.207c0.351,0.442,0.726,0.885,1.118,1.31c0.16,0.165,0.16,0.428,0,0.593
							c-0.086,0.07-0.198,0.104-0.309,0.092V105.197z M40.641,102.437c-0.142-0.002-0.273-0.074-0.351-0.192
							c-0.325-0.501-0.634-1.018-0.909-1.544c-0.104-0.202-0.026-0.451,0.175-0.559c0.097-0.053,0.212-0.065,0.318-0.034
							s0.196,0.104,0.249,0.201c0.252,0.509,0.531,1.005,0.834,1.485c0.124,0.193,0.068,0.451-0.125,0.575
							c-0.06,0.031-0.125,0.048-0.192,0.05V102.437z M38.972,99.341c-0.167-0.003-0.318-0.104-0.384-0.258
							c-0.228-0.546-0.428-1.104-0.601-1.669c-0.065-0.221,0.057-0.454,0.275-0.525c0.219-0.065,0.449,0.058,0.517,0.275
							c0.166,0.55,0.361,1.089,0.584,1.618c0.063,0.179-0.002,0.377-0.158,0.484c-0.059,0.039-0.129,0.06-0.2,0.058L38.972,99.341z
							 M37.955,96.005c-0.197-0.004-0.366-0.142-0.409-0.334c-0.117-0.584-0.208-1.176-0.275-1.769
							c-0.014-0.11,0.017-0.221,0.086-0.308c0.069-0.086,0.17-0.141,0.281-0.151c0.228-0.024,0.433,0.14,0.458,0.367
							c0.067,0.567,0.15,1.135,0.267,1.669c0.042,0.225-0.102,0.441-0.325,0.492L37.955,96.005z M37.563,92.518
							c-0.224,0-0.408-0.177-0.417-0.4c0-0.184,0-0.367,0-0.55c0-0.409,0-0.835,0-1.244c0.006-0.11,0.057-0.214,0.14-0.287
							c0.083-0.074,0.192-0.111,0.302-0.104c0.111,0.007,0.214,0.057,0.288,0.14c0.073,0.083,0.111,0.191,0.104,0.303
							c0,0.4,0,0.834,0,1.193c0,0.174,0,0.35,0,0.525c0.005,0.111-0.037,0.219-0.114,0.299s-0.184,0.126-0.295,0.126H37.563z
							 M74.242,91.759c-0.229-0.005-0.413-0.189-0.418-0.418c0-0.229,0.188-0.416,0.418-0.416c0.592,0,1.176,0,1.742-0.042
							c0.228-0.001,0.417,0.174,0.434,0.4c0.006,0.11-0.035,0.218-0.109,0.3c-0.075,0.082-0.18,0.129-0.291,0.134
							c-0.583,0-1.167,0-1.768,0.042H74.242z M72.49,91.759L72.49,91.759c-0.576,0-1.168,0-1.77-0.059
							c-0.109-0.004-0.213-0.053-0.287-0.135c-0.073-0.081-0.111-0.189-0.104-0.299c0.002-0.111,0.05-0.216,0.132-0.291
							c0.082-0.074,0.191-0.11,0.303-0.102l1.742,0.051c0.23,0,0.418,0.187,0.418,0.416c0,0.23-0.188,0.418-0.418,0.418H72.49z
							 M77.754,91.642c-0.23,0-0.418-0.187-0.418-0.417s0.188-0.417,0.418-0.417c0.584,0,1.168-0.084,1.727-0.142
							c0.109-0.015,0.221,0.017,0.307,0.086c0.087,0.069,0.142,0.171,0.152,0.28c0.023,0.229-0.141,0.434-0.367,0.459
							c-0.576,0.059-1.168,0.109-1.77,0.15H77.754z M68.986,91.642L68.986,91.642c-0.576,0-1.16-0.083-1.76-0.142
							c-0.11-0.009-0.213-0.062-0.283-0.146c-0.07-0.086-0.104-0.195-0.093-0.305c0.022-0.228,0.224-0.395,0.45-0.375l1.744,0.141
							c0.109,0.007,0.213,0.058,0.285,0.141s0.107,0.192,0.098,0.302c-0.037,0.221-0.246,0.369-0.467,0.334L68.986,91.642z
							 M65.482,91.325L65.482,91.325c-0.575-0.067-1.159-0.134-1.752-0.217c-0.109-0.013-0.211-0.07-0.278-0.158
							s-0.097-0.199-0.08-0.31c0.03-0.228,0.239-0.388,0.468-0.358l1.734,0.217c0.23,0.014,0.406,0.212,0.393,0.441
							c-0.014,0.23-0.212,0.406-0.442,0.393L65.482,91.325z M81.24,91.325c-0.23,0.016-0.43-0.158-0.446-0.389
							s0.157-0.43,0.388-0.445c0.592-0.076,1.16-0.168,1.719-0.268c0.148-0.027,0.301,0.027,0.398,0.144s0.127,0.274,0.075,0.417
							s-0.175,0.247-0.323,0.273c-0.568,0.101-1.151,0.2-1.752,0.283L81.24,91.325z M62.004,90.866h-0.059l-1.743-0.283
							c-0.108-0.018-0.206-0.076-0.271-0.166s-0.09-0.201-0.071-0.311c0.017-0.108,0.076-0.207,0.165-0.271
							c0.09-0.064,0.201-0.09,0.311-0.07l1.727,0.275c0.23,0.016,0.404,0.216,0.389,0.446c-0.017,0.23-0.217,0.404-0.447,0.388
							V90.866z M84.693,90.699c-0.195,0.001-0.365-0.134-0.408-0.325c-0.047-0.225,0.094-0.447,0.316-0.5
							c0.576-0.126,1.135-0.268,1.668-0.418c0.222-0.059,0.449,0.072,0.51,0.292c0.059,0.224-0.07,0.452-0.292,0.518
							c-0.56,0.149-1.126,0.292-1.719,0.425L84.693,90.699z M58.543,90.282h-0.076c-0.575-0.108-1.15-0.217-1.734-0.342
							c-0.107-0.021-0.203-0.083-0.264-0.174c-0.062-0.092-0.084-0.203-0.063-0.311c0.047-0.227,0.266-0.375,0.492-0.334
							c0.584,0.117,1.152,0.234,1.719,0.334c0.226,0.043,0.375,0.258,0.334,0.484c-0.055,0.189-0.238,0.312-0.434,0.291
							L58.543,90.282z M88.072,89.774c-0.18-0.003-0.338-0.12-0.393-0.292c-0.036-0.105-0.028-0.221,0.021-0.32
							c0.051-0.099,0.139-0.173,0.246-0.205c0.559-0.184,1.101-0.375,1.627-0.584c0.104-0.041,0.219-0.038,0.32,0.008
							c0.103,0.045,0.182,0.129,0.221,0.234c0.08,0.214-0.028,0.451-0.241,0.533c-0.534,0.209-1.093,0.408-1.669,0.601
							c-0.054,0.003-0.107-0.005-0.158-0.024L88.072,89.774z M55.055,89.54h-0.083c-0.567-0.117-1.143-0.25-1.718-0.385
							c-0.109-0.023-0.204-0.09-0.263-0.184c-0.06-0.094-0.079-0.208-0.055-0.316c0.054-0.223,0.277-0.361,0.501-0.309l1.668,0.384
							c0.108,0.022,0.203,0.087,0.262,0.179c0.06,0.094,0.08,0.206,0.055,0.313C55.38,89.396,55.233,89.524,55.055,89.54z
							 M37.771,88.997h-0.058c-0.111-0.012-0.211-0.068-0.279-0.156c-0.068-0.089-0.097-0.201-0.08-0.311
							c0.075-0.576,0.167-1.168,0.284-1.76c0.02-0.109,0.083-0.207,0.177-0.268c0.093-0.062,0.207-0.082,0.315-0.059
							c0.109,0.019,0.206,0.08,0.267,0.172s0.083,0.205,0.058,0.313c-0.108,0.576-0.2,1.151-0.275,1.668
							c-0.008,0.215-0.178,0.389-0.392,0.4H37.771z M51.635,88.755h-0.1l-1.668-0.425c-0.221-0.062-0.354-0.286-0.3-0.509
							c0.027-0.107,0.096-0.199,0.192-0.256s0.209-0.072,0.317-0.045l1.668,0.426c0.224,0.058,0.361,0.283,0.309,0.509
							c-0.052,0.179-0.215,0.3-0.4,0.3H51.635z M91.3,88.447c-0.23,0.049-0.457-0.099-0.506-0.329
							c-0.048-0.229,0.1-0.456,0.33-0.505c0.534-0.242,1.051-0.5,1.543-0.768c0.099-0.053,0.214-0.063,0.32-0.03
							c0.107,0.032,0.195,0.106,0.247,0.206c0.053,0.098,0.063,0.211,0.03,0.316s-0.107,0.193-0.205,0.242
							c-0.509,0.275-1.035,0.543-1.594,0.834c-0.049,0.014-0.1,0.016-0.15,0.009L91.3,88.447z M48.232,87.88h-0.108l-1.668-0.467
							c-0.149-0.041-0.265-0.157-0.305-0.307s0.003-0.309,0.113-0.417s0.268-0.151,0.417-0.111c0.567,0.167,1.134,0.317,1.668,0.468
							c0.23,0.029,0.393,0.24,0.363,0.471c-0.03,0.23-0.241,0.393-0.472,0.363H48.232z M44.895,86.921
							c-0.039,0.008-0.078,0.008-0.117,0L43.11,86.42c-0.219-0.071-0.341-0.305-0.275-0.525c0.068-0.218,0.298-0.341,0.517-0.275
							l1.668,0.501c0.221,0.064,0.348,0.295,0.284,0.517c-0.059,0.187-0.24,0.305-0.434,0.284H44.895z M94.427,86.787
							c-0.184-0.001-0.346-0.122-0.398-0.3s0.019-0.367,0.174-0.468c0.492-0.309,0.977-0.634,1.436-0.968
							c0.186-0.136,0.447-0.095,0.583,0.092s0.095,0.448-0.091,0.584c-0.477,0.342-0.977,0.676-1.485,0.992
							c-0.074,0.04-0.16,0.053-0.242,0.033L94.427,86.787z M41.517,85.919h-0.134l-1.668-0.542
							c-0.106-0.032-0.195-0.106-0.246-0.206c-0.05-0.099-0.058-0.215-0.021-0.319c0.071-0.219,0.307-0.338,0.525-0.267l1.668,0.542
							c0.104,0.032,0.191,0.105,0.242,0.202c0.05,0.098,0.059,0.211,0.025,0.314C41.853,85.813,41.694,85.925,41.517,85.919z
							 M38.455,85.57h-0.083c-0.221-0.062-0.354-0.286-0.3-0.51c0.023-0.073,0.043-0.148,0.059-0.225h-0.067l-1.668-0.567
							c-0.219-0.075-0.334-0.315-0.258-0.534c0.076-0.219,0.315-0.334,0.534-0.258l1.668,0.566l0,0
							c0.066-0.225,0.133-0.45,0.208-0.684c0.069-0.23,0.312-0.361,0.542-0.292c0.23,0.069,0.361,0.312,0.292,0.542
							c-0.184,0.567-0.342,1.118-0.484,1.668c-0.065,0.184-0.25,0.295-0.442,0.268V85.57z M97.24,84.736
							c-0.121-0.002-0.236-0.053-0.318-0.143c-0.146-0.178-0.124-0.441,0.051-0.592c0.434-0.367,0.834-0.76,1.276-1.16
							c0.077-0.078,0.183-0.122,0.292-0.122s0.215,0.044,0.292,0.122c0.079,0.078,0.123,0.186,0.123,0.297s-0.044,0.218-0.123,0.296
							c-0.426,0.409-0.835,0.834-1.327,1.201c-0.074,0.062-0.169,0.095-0.266,0.092V84.736z M34.86,83.667
							c-0.047,0.009-0.095,0.009-0.142,0c-0.55-0.2-1.101-0.393-1.668-0.601c-0.105-0.036-0.192-0.112-0.239-0.214
							c-0.047-0.101-0.052-0.216-0.012-0.32c0.079-0.216,0.317-0.328,0.534-0.25l1.668,0.601c0.217,0.079,0.331,0.315,0.259,0.534
							c-0.075,0.152-0.231,0.246-0.4,0.242V83.667z M31.523,82.458c-0.047,0.008-0.095,0.008-0.142,0l-1.668-0.617
							c-0.211-0.089-0.314-0.329-0.233-0.543c0.037-0.104,0.115-0.188,0.216-0.233c0.101-0.046,0.215-0.049,0.318-0.008l1.668,0.617
							c0.104,0.04,0.189,0.119,0.234,0.221c0.045,0.103,0.048,0.219,0.007,0.322c-0.069,0.141-0.21,0.23-0.367,0.233L31.523,82.458z
							 M99.709,82.282c-0.102,0-0.198-0.035-0.275-0.1c-0.172-0.154-0.191-0.416-0.042-0.593c0.384-0.429,0.746-0.877,1.085-1.343
							c0.141-0.18,0.398-0.217,0.584-0.083c0.184,0.138,0.221,0.4,0.083,0.584c-0.351,0.476-0.726,0.943-1.118,1.393
							c-0.074,0.078-0.176,0.126-0.283,0.134L99.709,82.282z M39.489,82.207c-0.055,0.012-0.112,0.012-0.167,0
							c-0.102-0.044-0.183-0.126-0.223-0.229s-0.039-0.219,0.006-0.321c0.133-0.317,0.375-0.834,0.742-1.668
							c0.104-0.205,0.354-0.286,0.559-0.184c0.099,0.047,0.175,0.132,0.211,0.235c0.036,0.104,0.029,0.217-0.019,0.315
							c-0.359,0.726-0.601,1.276-0.726,1.585c-0.061,0.145-0.195,0.243-0.35,0.258L39.489,82.207z M28.245,81.206
							c-0.049,0.008-0.1,0.008-0.15,0l-1.668-0.65c-0.103-0.041-0.186-0.121-0.229-0.223c-0.044-0.102-0.045-0.217-0.004-0.319
							c0.088-0.211,0.328-0.314,0.542-0.234c0.542,0.225,1.084,0.434,1.668,0.651c0.213,0.082,0.321,0.319,0.242,0.534
							c-0.07,0.139-0.211,0.229-0.367,0.233L28.245,81.206z M25.025,79.897c-0.053,0.008-0.106,0.008-0.159,0L23.24,79.23
							c-0.104-0.042-0.186-0.125-0.228-0.229s-0.042-0.219,0.003-0.322c0.092-0.208,0.33-0.307,0.542-0.225l1.668,0.667
							c0.103,0.041,0.185,0.121,0.228,0.223s0.042,0.217-0.002,0.319C25.373,79.824,25.202,79.918,25.025,79.897z M101.843,79.455
							c-0.078,0-0.156-0.02-0.225-0.059c-0.193-0.125-0.25-0.382-0.125-0.576c0.3-0.483,0.592-0.992,0.834-1.493
							c0.104-0.204,0.354-0.286,0.559-0.183c0.205,0.107,0.287,0.359,0.184,0.567c-0.275,0.526-0.576,1.043-0.893,1.552
							c-0.072,0.119-0.202,0.192-0.342,0.192H101.843z M41.066,79.03c-0.067,0-0.133-0.017-0.192-0.05
							c-0.099-0.051-0.173-0.14-0.206-0.247c-0.033-0.106-0.021-0.222,0.031-0.32c0.258-0.475,0.55-0.993,0.834-1.543
							c0.126-0.173,0.362-0.223,0.547-0.115s0.259,0.337,0.17,0.532c-0.317,0.542-0.601,1.051-0.834,1.526
							c-0.073,0.13-0.209,0.213-0.359,0.217H41.066z M21.78,78.554c-0.055,0.012-0.112,0.012-0.167,0l-1.593-0.717
							c-0.212-0.092-0.309-0.339-0.217-0.551c0.092-0.212,0.338-0.309,0.55-0.217l1.61,0.684c0.149,0.028,0.272,0.134,0.322,0.277
							c0.05,0.144,0.02,0.302-0.079,0.417c-0.099,0.115-0.252,0.168-0.401,0.14L21.78,78.554z M18.585,77.102
							c-0.09,0-0.178-0.029-0.25-0.083c-0.284-0.217-0.768-0.592-1.393-1.118c-0.177-0.147-0.202-0.411-0.054-0.588
							s0.411-0.202,0.588-0.054c0.617,0.517,1.093,0.884,1.368,1.093c0.182,0.141,0.215,0.402,0.075,0.584
							c-0.082,0.106-0.208,0.168-0.342,0.167H18.585z M103.437,76.343c-0.053,0.007-0.105,0.007-0.158,0
							c-0.209-0.095-0.309-0.336-0.226-0.551c0.226-0.534,0.425-1.076,0.593-1.61c0.068-0.23,0.312-0.361,0.542-0.292
							c0.229,0.069,0.36,0.312,0.292,0.542c-0.184,0.559-0.393,1.126-0.617,1.668C103.786,76.264,103.616,76.361,103.437,76.343z
							 M42.835,75.993c-0.08,0.001-0.159-0.022-0.225-0.067c-0.193-0.125-0.25-0.382-0.125-0.575
							c0.301-0.473,0.626-0.965,0.976-1.477c0.063-0.093,0.16-0.156,0.27-0.176c0.11-0.021,0.223,0.004,0.314,0.068
							c0.184,0.132,0.231,0.385,0.108,0.575c-0.342,0.501-0.667,0.984-0.967,1.46c-0.073,0.119-0.203,0.192-0.342,0.192H42.835z
							 M15.849,74.85c-0.102-0.001-0.2-0.04-0.275-0.109c-0.409-0.358-0.834-0.759-1.31-1.192c-0.16-0.165-0.16-0.428,0-0.592
							c0.078-0.079,0.185-0.124,0.296-0.124c0.111,0,0.218,0.044,0.296,0.124c0.458,0.425,0.884,0.834,1.293,1.176
							c0.135,0.115,0.182,0.303,0.118,0.468s-0.225,0.272-0.402,0.267L15.849,74.85z M44.82,73.09
							c-0.089,0.001-0.176-0.025-0.25-0.075c-0.183-0.138-0.223-0.396-0.091-0.584c0.342-0.467,0.701-0.934,1.076-1.41
							c0.143-0.182,0.406-0.214,0.588-0.071c0.182,0.143,0.213,0.406,0.071,0.588c-0.375,0.467-0.726,0.926-1.06,1.385
							c-0.076,0.1-0.192,0.161-0.317,0.167H44.82z M104.48,72.982h-0.084c-0.107-0.022-0.203-0.086-0.264-0.179
							c-0.062-0.092-0.084-0.205-0.062-0.313c0.059-0.3,0.083-0.476,0.083-0.484v-0.359c0-0.275,0-0.542,0-0.834
							c-0.006-0.111,0.031-0.22,0.105-0.302c0.072-0.083,0.176-0.133,0.287-0.14c0.111-0.012,0.223,0.024,0.308,0.099
							c0.084,0.074,0.133,0.181,0.135,0.293c0,0.283,0,0.567,0,0.834v0.417c0,0.042,0,0.233-0.101,0.592
							c-0.017,0.207-0.186,0.368-0.392,0.375H104.48z M13.347,72.439c-0.11-0.001-0.215-0.046-0.292-0.125
							c-0.4-0.4-0.834-0.834-1.235-1.268c-0.116-0.104-0.164-0.265-0.124-0.417s0.161-0.267,0.314-0.301s0.312,0.021,0.411,0.142
							c0.417,0.445,0.826,0.862,1.227,1.251c0.16,0.165,0.16,0.427,0,0.592C13.568,72.394,13.46,72.439,13.347,72.439L13.347,72.439
							z M47.055,70.337c-0.166,0.009-0.321-0.082-0.395-0.23s-0.053-0.327,0.053-0.454c0.375-0.442,0.768-0.893,1.176-1.334
							c0.077-0.079,0.182-0.123,0.292-0.123s0.215,0.044,0.292,0.123c0.079,0.078,0.123,0.185,0.123,0.296
							c0,0.111-0.044,0.218-0.123,0.296c-0.4,0.434-0.784,0.834-1.16,1.301c-0.079,0.082-0.187,0.127-0.3,0.125H47.055z
							 M10.927,69.879c-0.117,0-0.229-0.048-0.309-0.134c-0.384-0.434-0.775-0.834-1.159-1.343
							c-0.072-0.083-0.108-0.193-0.099-0.303c0.01-0.11,0.063-0.211,0.148-0.281c0.178-0.147,0.441-0.125,0.592,0.05
							c0.375,0.459,0.759,0.893,1.143,1.318c0.16,0.165,0.16,0.427,0,0.592c-0.1,0.083-0.23,0.12-0.359,0.1H10.927z M104.414,69.487
							c-0.203,0.002-0.377-0.143-0.409-0.342c-0.096-0.563-0.227-1.121-0.392-1.668c-0.066-0.221,0.056-0.454,0.274-0.525
							c0.219-0.065,0.449,0.058,0.518,0.275c0.175,0.578,0.317,1.166,0.425,1.76c0.035,0.225-0.117,0.437-0.342,0.475
							L104.414,69.487z M49.391,67.743c-0.168,0.001-0.321-0.099-0.387-0.254c-0.065-0.155-0.032-0.334,0.086-0.455
							c0.409-0.417,0.834-0.834,1.268-1.234c0.078-0.079,0.185-0.124,0.296-0.124s0.218,0.044,0.296,0.124
							c0.081,0.076,0.126,0.181,0.126,0.292c0,0.11-0.045,0.216-0.126,0.292c-0.426,0.409-0.834,0.834-1.243,1.218
							C49.629,67.693,49.513,67.745,49.391,67.743L49.391,67.743z M8.633,67.184c-0.13,0.002-0.253-0.057-0.333-0.159
							c-0.359-0.459-0.717-0.926-1.068-1.41c-0.136-0.187-0.095-0.448,0.092-0.584s0.448-0.095,0.584,0.092
							c0.342,0.476,0.692,0.934,1.051,1.393c0.14,0.182,0.106,0.443-0.075,0.584C8.812,67.156,8.724,67.185,8.633,67.184
							L8.633,67.184z M103.345,66.141c-0.162,0.001-0.309-0.094-0.375-0.242c-0.248-0.52-0.527-1.023-0.834-1.51
							c-0.12-0.198-0.057-0.456,0.141-0.576c0.199-0.12,0.457-0.057,0.576,0.142c0.313,0.516,0.591,1.05,0.834,1.602
							c0.094,0.21,0.001,0.456-0.209,0.551C103.436,66.126,103.391,66.137,103.345,66.141L103.345,66.141z M51.944,65.307
							c-0.121,0.001-0.235-0.054-0.309-0.15c-0.078-0.077-0.123-0.182-0.123-0.292s0.044-0.215,0.123-0.292
							c0.442-0.383,0.901-0.767,1.36-1.143c0.184-0.139,0.444-0.109,0.592,0.067c0.07,0.085,0.103,0.196,0.09,0.306
							c-0.012,0.11-0.069,0.21-0.157,0.278c-0.458,0.367-0.901,0.743-1.334,1.118c-0.06,0.076-0.146,0.126-0.242,0.142V65.307z
							 M6.556,64.348c-0.137,0-0.266-0.069-0.342-0.184c-0.325-0.484-0.65-0.984-0.968-1.493c-0.058-0.094-0.075-0.207-0.048-0.313
							c0.027-0.106,0.095-0.198,0.19-0.254c0.092-0.061,0.205-0.081,0.313-0.056c0.107,0.025,0.199,0.094,0.254,0.189
							c0.309,0.492,0.626,0.984,0.951,1.46c0.125,0.191,0.074,0.448-0.117,0.575C6.722,64.322,6.64,64.348,6.556,64.348z
							 M101.535,63.147c-0.129,0.002-0.253-0.057-0.334-0.159c-0.344-0.438-0.712-0.859-1.101-1.259
							c-0.079-0.079-0.123-0.185-0.123-0.296c0-0.111,0.044-0.218,0.123-0.296c0.165-0.16,0.427-0.16,0.593,0
							c0.416,0.431,0.809,0.885,1.176,1.36c0.141,0.182,0.106,0.443-0.075,0.583C101.717,63.131,101.627,63.154,101.535,63.147z
							 M54.688,63.147c-0.134,0.001-0.261-0.061-0.342-0.167c-0.132-0.188-0.091-0.446,0.092-0.584
							c0.467-0.35,0.951-0.692,1.443-1.026c0.091-0.064,0.205-0.088,0.314-0.068c0.11,0.021,0.207,0.084,0.27,0.176
							c0.127,0.194,0.075,0.454-0.116,0.584c-0.484,0.325-0.959,0.659-1.418,1.001c-0.07,0.052-0.155,0.078-0.242,0.075V63.147z
							 M4.713,61.353c-0.151,0.002-0.292-0.078-0.367-0.208c-0.284-0.517-0.567-1.034-0.834-1.568
							c-0.049-0.1-0.056-0.214-0.02-0.319c0.036-0.104,0.112-0.191,0.212-0.239c0.098-0.052,0.213-0.062,0.318-0.027
							c0.105,0.035,0.192,0.111,0.24,0.21c0.259,0.518,0.534,1.035,0.834,1.535c0.056,0.096,0.071,0.21,0.042,0.317
							c-0.03,0.107-0.102,0.197-0.2,0.25C4.869,61.341,4.791,61.358,4.713,61.353z M57.558,61.17
							c-0.146-0.002-0.281-0.078-0.359-0.2c-0.116-0.199-0.053-0.454,0.143-0.576c0.494-0.311,1.003-0.611,1.525-0.901
							c0.203-0.113,0.459-0.04,0.572,0.163c0.112,0.203,0.039,0.459-0.163,0.572c-0.517,0.284-1.009,0.575-1.501,0.834
							C57.715,61.118,57.639,61.156,57.558,61.17z M99.066,60.619c-0.098,0-0.193-0.036-0.268-0.1
							c-0.425-0.359-0.834-0.718-1.359-1.06c-0.183-0.138-0.223-0.396-0.092-0.584c0.064-0.092,0.162-0.153,0.273-0.171
							c0.109-0.017,0.223,0.011,0.311,0.079c0.492,0.351,0.968,0.726,1.41,1.101c0.172,0.154,0.19,0.417,0.041,0.592
							c-0.072,0.082-0.174,0.132-0.283,0.142H99.066z M60.619,59.451c-0.156,0-0.301-0.087-0.375-0.225
							c-0.049-0.1-0.057-0.214-0.02-0.319c0.035-0.105,0.111-0.191,0.211-0.24c0.518-0.267,1.051-0.517,1.594-0.768
							c0.209-0.094,0.455,0,0.551,0.208c0.047,0.101,0.052,0.216,0.013,0.32c-0.04,0.104-0.12,0.187-0.222,0.231
							c-0.525,0.242-1.051,0.492-1.56,0.75c-0.05,0.025-0.104,0.039-0.159,0.042H60.619z M96.221,58.567
							c-0.076,0.001-0.151-0.019-0.217-0.059c-0.483-0.3-0.993-0.583-1.51-0.834c-0.204-0.104-0.286-0.354-0.184-0.559
							c0.11-0.202,0.359-0.282,0.567-0.183c0.533,0.275,1.06,0.575,1.561,0.834c0.194,0.122,0.258,0.377,0.141,0.576
							c-0.065,0.123-0.187,0.207-0.324,0.225H96.221z M3.136,58.217c-0.166-0.002-0.315-0.1-0.384-0.25
							c-0.233-0.534-0.458-1.084-0.667-1.668c-0.067-0.141-0.05-0.308,0.045-0.432c0.095-0.125,0.251-0.185,0.405-0.157
							s0.279,0.14,0.325,0.289c0.208,0.542,0.426,1.076,0.659,1.602c0.044,0.102,0.047,0.217,0.006,0.32
							c-0.041,0.104-0.121,0.187-0.223,0.23C3.254,58.185,3.196,58.208,3.136,58.217L3.136,58.217z M63.847,58.008
							c-0.168-0.003-0.318-0.104-0.384-0.258c-0.041-0.103-0.04-0.218,0.005-0.32c0.043-0.102,0.126-0.182,0.229-0.223
							c0.543-0.217,1.094-0.425,1.668-0.625c0.23-0.076,0.479,0.049,0.555,0.279c0.076,0.23-0.049,0.479-0.279,0.555
							c-0.55,0.192-1.092,0.392-1.668,0.609C63.93,58.025,63.888,58.019,63.847,58.008L63.847,58.008z M93.127,56.966
							c-0.055,0.008-0.111,0.008-0.166,0c-0.927-0.4-1.527-0.576-1.535-0.584c-0.223-0.061-0.36-0.283-0.317-0.509
							c0.014-0.104,0.07-0.196,0.156-0.255c0.086-0.059,0.192-0.079,0.294-0.054h0.075c0.567,0.172,1.125,0.378,1.669,0.617
							c0.103,0.041,0.185,0.121,0.227,0.224c0.043,0.102,0.042,0.217-0.002,0.319C93.455,56.877,93.297,56.972,93.127,56.966
							L93.127,56.966z M67.159,56.849c-0.229,0.032-0.442-0.128-0.476-0.359c-0.031-0.23,0.129-0.443,0.359-0.476
							c0.559-0.175,1.126-0.333,1.668-0.475c0.23-0.056,0.462,0.086,0.518,0.317c0.055,0.23-0.087,0.462-0.317,0.517
							c-0.567,0.15-1.118,0.3-1.669,0.467C67.215,56.847,67.187,56.849,67.159,56.849L67.159,56.849z M89.748,56.014h-0.074
							c-0.584-0.108-1.151-0.208-1.719-0.292c-0.109-0.016-0.208-0.076-0.273-0.165c-0.066-0.089-0.094-0.201-0.076-0.31
							c0.016-0.11,0.075-0.208,0.164-0.274c0.09-0.066,0.201-0.093,0.311-0.077l1.744,0.3c0.23,0.021,0.4,0.224,0.379,0.455
							c-0.021,0.23-0.225,0.4-0.455,0.38V56.014z M70.562,56.014c-0.195,0.001-0.365-0.134-0.408-0.325
							c-0.047-0.228,0.098-0.451,0.325-0.5c0.567-0.117,1.151-0.225,1.735-0.325c0.227-0.036,0.441,0.116,0.483,0.342
							c0.036,0.228-0.116,0.441-0.342,0.484c-0.575,0.092-1.151,0.2-1.669,0.317L70.562,56.014z M86.279,55.497h-0.051
							c-0.584-0.066-1.16-0.133-1.734-0.184c-0.23-0.021-0.4-0.224-0.381-0.455c0.021-0.23,0.225-0.4,0.455-0.379
							c0.584,0.059,1.168,0.117,1.76,0.192c0.23,0.014,0.406,0.212,0.393,0.442c-0.014,0.23-0.212,0.406-0.441,0.392V55.497z
							 M74.024,55.439c-0.229,0.016-0.431-0.158-0.446-0.388s0.158-0.43,0.389-0.446c0.584-0.075,1.168-0.133,1.768-0.184
							c0.227-0.015,0.425,0.15,0.451,0.375c0.009,0.111-0.026,0.221-0.099,0.305c-0.071,0.084-0.175,0.137-0.286,0.146
							c-0.584,0.05-1.158,0.117-1.727,0.184L74.024,55.439z M82.783,55.172L82.783,55.172l-1.768-0.117
							c-0.227-0.013-0.405-0.199-0.409-0.426c0.002-0.112,0.05-0.218,0.131-0.295c0.081-0.077,0.19-0.118,0.303-0.113l1.769,0.075
							c0.23,0,0.417,0.187,0.417,0.417s-0.187,0.417-0.417,0.417L82.783,55.172z M77.519,55.172c-0.23,0-0.417-0.187-0.417-0.417
							c0-0.23,0.187-0.417,0.417-0.417c0.584,0,1.176-0.05,1.769-0.059l0,0c0.23,0,0.417,0.187,0.417,0.417
							s-0.187,0.417-0.417,0.417c-0.584,0-1.159,0-1.735,0.05L77.519,55.172z M1.902,55.013c-0.183,0.001-0.346-0.117-0.4-0.292
							c-0.175-0.567-0.342-1.134-0.484-1.71c-0.053-0.225,0.084-0.451,0.309-0.509c0.223-0.052,0.447,0.085,0.5,0.309
							c0.142,0.559,0.3,1.109,0.467,1.668c0.071,0.219-0.048,0.454-0.267,0.525L1.902,55.013z M1.068,51.61
							c-0.202,0.003-0.375-0.143-0.409-0.342C0.55,50.676,0.467,50.084,0.401,49.5c-0.012-0.111,0.021-0.222,0.092-0.308
							c0.07-0.086,0.172-0.141,0.283-0.151c0.228-0.024,0.433,0.14,0.459,0.367c0.059,0.567,0.142,1.143,0.242,1.668
							c0.041,0.226-0.108,0.441-0.333,0.484L1.068,51.61z M0.693,48.123c-0.224,0-0.408-0.177-0.417-0.4c0-0.275,0-0.542,0-0.834
							s0-0.651,0-0.984c0.021-0.225,0.208-0.397,0.434-0.4c0.228,0.013,0.405,0.205,0.4,0.434c0,0.317,0,0.634,0,0.951
							c0,0.317,0,0.517,0,0.775c0.004,0.111-0.035,0.219-0.11,0.3c-0.075,0.081-0.18,0.129-0.29,0.134L0.693,48.123z M0.834,44.545
							h-0.05c-0.111-0.012-0.212-0.069-0.281-0.157c-0.069-0.088-0.1-0.2-0.085-0.311c0.066-0.584,0.167-1.176,0.275-1.76
							c0.043-0.23,0.266-0.382,0.496-0.338c0.23,0.043,0.382,0.266,0.338,0.496c-0.117,0.556-0.208,1.112-0.275,1.668
							C1.242,44.368,1.058,44.545,0.834,44.545z M1.51,41.108H1.402c-0.109-0.027-0.202-0.098-0.257-0.196
							c-0.055-0.098-0.068-0.214-0.035-0.322c0.158-0.559,0.333-1.134,0.534-1.668c0.036-0.105,0.113-0.192,0.213-0.241
							c0.101-0.049,0.216-0.055,0.321-0.018c0.217,0.079,0.332,0.315,0.259,0.534c-0.2,0.542-0.375,1.101-0.525,1.668
							C1.839,41.021,1.68,41.117,1.51,41.108z M2.686,37.771c-0.055,0.012-0.112,0.012-0.167,0c-0.209-0.095-0.305-0.338-0.217-0.55
							c0.242-0.534,0.5-1.076,0.776-1.602c0.048-0.1,0.135-0.176,0.24-0.21c0.105-0.034,0.22-0.025,0.318,0.027
							c0.099,0.051,0.173,0.14,0.206,0.247c0.033,0.107,0.022,0.222-0.031,0.32c-0.267,0.509-0.517,1.035-0.743,1.552
							c-0.066,0.152-0.217,0.251-0.383,0.25V37.771z M4.304,34.66c-0.077,0.001-0.152-0.019-0.217-0.059
							c-0.095-0.055-0.164-0.147-0.19-0.253c-0.027-0.107-0.009-0.22,0.048-0.313c0.3-0.501,0.617-1.001,0.959-1.502
							c0.085-0.124,0.229-0.192,0.379-0.181s0.282,0.102,0.346,0.238c0.064,0.135,0.052,0.295-0.033,0.418
							c-0.334,0.484-0.643,0.968-0.935,1.452c-0.067,0.138-0.205,0.228-0.358,0.233V34.66z M6.273,31.765
							c-0.16,0.003-0.307-0.086-0.376-0.229c-0.07-0.144-0.05-0.314,0.051-0.438c0.351-0.459,0.718-0.926,1.11-1.385
							c0.07-0.085,0.171-0.139,0.281-0.148c0.11-0.009,0.219,0.026,0.302,0.099c0.085,0.07,0.139,0.171,0.148,0.281
							s-0.026,0.219-0.098,0.302c-0.375,0.451-0.743,0.901-1.084,1.352c-0.07,0.119-0.196,0.194-0.333,0.2V31.765z M8.533,29.088
							c-0.104-0.001-0.202-0.043-0.275-0.117c-0.081-0.076-0.126-0.182-0.126-0.292c0-0.111,0.045-0.216,0.126-0.292
							c0.395-0.423,0.803-0.848,1.226-1.276c0.078-0.079,0.185-0.124,0.296-0.124c0.111,0,0.218,0.044,0.296,0.124
							c0.16,0.165,0.16,0.427,0,0.592c-0.425,0.417-0.834,0.834-1.209,1.251c-0.081,0.103-0.203,0.165-0.334,0.167V29.088z
							 M11.036,26.585c-0.118-0.002-0.229-0.054-0.309-0.142c-0.159-0.162-0.159-0.421,0-0.584c0.426-0.392,0.834-0.784,1.318-1.176
							c0.176-0.148,0.438-0.13,0.592,0.042c0.078,0.077,0.123,0.182,0.123,0.292s-0.044,0.215-0.123,0.292
							c-0.451,0.392-0.884,0.776-1.301,1.159c-0.075,0.103-0.191,0.167-0.317,0.175L11.036,26.585z M13.697,24.291
							c-0.126,0.024-0.256-0.013-0.35-0.1c-0.071-0.084-0.105-0.194-0.095-0.305c0.011-0.11,0.066-0.211,0.153-0.279l1.401-1.084
							c0.186-0.134,0.443-0.097,0.584,0.083c0.069,0.087,0.099,0.199,0.083,0.31s-0.076,0.209-0.167,0.274
							c-0.467,0.359-0.926,0.718-1.368,1.076c-0.075,0.056-0.166,0.085-0.259,0.083L13.697,24.291z M16.491,22.164
							c-0.134,0.001-0.26-0.061-0.342-0.167c-0.132-0.188-0.091-0.446,0.092-0.584c0.476-0.342,0.959-0.676,1.451-1.01
							c0.188-0.098,0.418-0.04,0.538,0.135c0.119,0.175,0.089,0.411-0.07,0.549c-0.484,0.334-0.968,0.667-1.426,1.001
							c-0.068,0.073-0.16,0.12-0.259,0.134L16.491,22.164z M19.394,20.195c-0.144,0.001-0.279-0.071-0.358-0.192
							c-0.124-0.193-0.068-0.451,0.125-0.575c0.492-0.317,0.984-0.634,1.493-0.943c0.094-0.059,0.208-0.078,0.315-0.053
							s0.202,0.092,0.26,0.187c0.118,0.196,0.059,0.451-0.133,0.575c-0.509,0.309-1.001,0.618-1.477,0.935
							c-0.066,0.065-0.151,0.108-0.242,0.125L19.394,20.195z M22.381,18.352c-0.188,0.002-0.355-0.123-0.406-0.305
							s0.027-0.375,0.189-0.471c0.5-0.292,1.009-0.592,1.535-0.884c0.097-0.053,0.212-0.065,0.318-0.034s0.196,0.104,0.249,0.201
							c0.108,0.201,0.038,0.451-0.158,0.567c-0.517,0.283-1.026,0.575-1.518,0.834c-0.055,0.075-0.135,0.128-0.226,0.15
							L22.381,18.352z M25.417,16.683c-0.153,0-0.293-0.083-0.367-0.217c-0.052-0.097-0.063-0.211-0.03-0.316
							c0.033-0.105,0.107-0.193,0.206-0.243c0.509-0.283,1.026-0.55,1.552-0.834c0.205-0.105,0.457-0.027,0.567,0.175
							c0.103,0.205,0.021,0.455-0.183,0.559l-1.543,0.834C25.556,16.676,25.487,16.69,25.417,16.683z M28.537,15.073
							c-0.158-0.003-0.302-0.093-0.375-0.233c-0.103-0.205-0.021-0.455,0.183-0.559l1.585-0.776
							c0.136-0.077,0.303-0.072,0.434,0.013s0.203,0.236,0.187,0.392c-0.016,0.156-0.117,0.289-0.262,0.346l-1.568,0.759
							C28.665,15.05,28.602,15.07,28.537,15.073z M31.698,13.547c-0.193-0.003-0.359-0.139-0.401-0.327
							c-0.042-0.188,0.052-0.381,0.226-0.465l1.602-0.734c0.207-0.078,0.438,0.018,0.528,0.219c0.091,0.201,0.009,0.438-0.186,0.541
							l-1.593,0.726C31.82,13.534,31.759,13.549,31.698,13.547L31.698,13.547z M34.902,12.112c-0.23,0.046-0.454-0.103-0.5-0.333
							c-0.046-0.23,0.104-0.455,0.334-0.5l1.618-0.692c0.214-0.083,0.456,0.016,0.55,0.225c0.086,0.212-0.014,0.454-0.225,0.542
							l-1.643,0.726C34.993,12.098,34.948,12.109,34.902,12.112L34.902,12.112z M38.138,10.753c-0.168-0.001-0.32-0.103-0.384-0.259
							c-0.044-0.102-0.045-0.217-0.002-0.319s0.125-0.183,0.228-0.224l1.668-0.659c0.214-0.081,0.454,0.022,0.542,0.233
							c0.041,0.103,0.04,0.218-0.004,0.32c-0.044,0.102-0.126,0.182-0.229,0.223l-1.668,0.65
							C38.241,10.741,38.19,10.753,38.138,10.753z M41.408,9.468c-0.174-0.005-0.329-0.113-0.392-0.275
							c-0.079-0.214,0.029-0.452,0.242-0.534l1.668-0.625c0.218-0.074,0.457,0.036,0.542,0.25c0.079,0.216-0.034,0.456-0.25,0.534
							L41.55,9.434C41.505,9.453,41.457,9.464,41.408,9.468L41.408,9.468z M44.695,8.241c-0.174-0.004-0.329-0.113-0.392-0.275
							c-0.078-0.217,0.034-0.456,0.25-0.534l1.668-0.592c0.144-0.065,0.312-0.043,0.434,0.056s0.179,0.259,0.145,0.413
							c-0.034,0.154-0.151,0.276-0.304,0.315l-1.668,0.592C44.786,8.233,44.74,8.241,44.695,8.241L44.695,8.241z M48.031,7.074
							c-0.178-0.001-0.335-0.115-0.392-0.284c-0.072-0.217,0.043-0.451,0.259-0.526l1.668-0.567
							c0.219-0.071,0.454,0.048,0.525,0.267c0.037,0.104,0.03,0.219-0.019,0.317c-0.048,0.099-0.135,0.174-0.24,0.208l-1.668,0.567
							L48.031,7.074z M51.368,5.964c-0.183,0.001-0.346-0.117-0.4-0.292c-0.066-0.218,0.051-0.45,0.267-0.525l1.668-0.534
							c0.106-0.034,0.222-0.024,0.32,0.028s0.173,0.141,0.205,0.248c0.034,0.105,0.023,0.219-0.028,0.316
							c-0.052,0.098-0.141,0.17-0.247,0.201l-1.668,0.542L51.368,5.964z M54.705,4.905c-0.182-0.001-0.343-0.119-0.4-0.292
							c-0.065-0.221,0.057-0.454,0.275-0.525l1.668-0.509c0.105-0.033,0.22-0.023,0.316,0.029c0.098,0.052,0.17,0.141,0.201,0.247
							c0.064,0.219-0.058,0.449-0.275,0.517l-1.668,0.518L54.705,4.905z M58.042,3.887c-0.23,0.032-0.443-0.128-0.476-0.359
							s0.129-0.443,0.359-0.476l1.668-0.484c0.105-0.033,0.221-0.022,0.318,0.032s0.17,0.145,0.199,0.252
							c0.064,0.221-0.063,0.453-0.284,0.517l-1.669,0.484c-0.033,0.019-0.07,0.03-0.107,0.034H58.042z M61.379,2.92
							c-0.23,0.032-0.443-0.128-0.476-0.359s0.128-0.443,0.358-0.476l1.668-0.467c0.149-0.041,0.309,0.002,0.418,0.111
							s0.152,0.268,0.113,0.417c-0.041,0.149-0.156,0.266-0.306,0.306L61.486,2.92c-0.019,0.002-0.038,0.002-0.058,0H61.379z
							 M64.765,1.994c-0.149,0.019-0.297-0.042-0.389-0.162c-0.092-0.12-0.111-0.278-0.055-0.417
							c0.059-0.139,0.186-0.236,0.334-0.255l1.502-0.4c0.23-0.058,0.464,0.083,0.521,0.313c0.058,0.23-0.082,0.464-0.313,0.521
							l-1.494,0.401H64.765z"/>
					</g>
					<polygon id="Path_17_" fill="#DAE1E7" points="33.767,98.891 32.115,98.891 32.115,97.222 31.006,97.222 31.006,98.891 
						29.355,98.891 29.355,100 31.006,100 31.006,101.677 32.115,101.677 32.115,100 33.767,100 					"/>
				</g>
				<g id="Oval" transform="translate(92.592965, 0.000000)">
					<circle fill="#FFFFFF" cx="3.178" cy="3.579" r="2.745"/>
					<path id="Shape_6_" fill="#E9E2D0" d="M3.178,6.74c-1.746,0-3.162-1.416-3.162-3.162s1.416-3.162,3.162-3.162
						S6.34,1.833,6.34,3.579S4.925,6.74,3.178,6.74L3.178,6.74z M3.178,1.251c-1.285,0-2.328,1.042-2.328,2.327
						s1.043,2.327,2.328,2.327s2.327-1.042,2.327-2.327c0-0.617-0.245-1.209-0.682-1.646C4.387,1.497,3.796,1.251,3.178,1.251z"/>
				</g>
				<path id="Path_18_" fill="#FFFFFF" d="M67.101,103.721l6.307,26.352c0.695,2.92-1.103,5.852-4.021,6.557l0,0
					c-2.914,0.692-5.841-1.09-6.565-3.996l-6.448-26.943"/>
				<path id="Path_19_" fill="#A7A192" d="M68.11,137.639c-2.9-0.005-5.42-1.994-6.098-4.813l-6.448-26.952
					c-0.104-0.447,0.171-0.895,0.618-1.001c0.215-0.053,0.443-0.017,0.633,0.099s0.325,0.303,0.376,0.519l6.448,26.944
					c0.713,2.331,3.12,3.703,5.49,3.128s3.88-2.898,3.444-5.298l-6.306-26.352c-0.108-0.46,0.177-0.922,0.638-1.029
					c0.46-0.108,0.922,0.178,1.03,0.638l6.306,26.36c0.45,1.875,0.015,3.854-1.181,5.367
					C71.864,136.762,70.039,137.643,68.11,137.639L68.11,137.639z"/>
				<g id="Group" transform="translate(55.889447, 103.437186)" opacity="0.29">
					<polygon id="Path_20_" fill="#E2CFA3" points="2.052,8.758 12.788,6.899 11.211,0.284 0.484,2.219 					"/>
				</g>
				<path id="Path_21_" fill="#E9E2D0" d="M117.135,24.608c-2.422-1.486-5.535-1.19-7.633,0.726L85.511,47.139
					c-11.16,10.145-24.704,17.305-39.373,20.813l0,0c-3.428,0.82-5.542,4.263-4.722,7.691l6.248,26.127
					c0.806,3.398,4.201,5.514,7.607,4.737l0,0c14.805-3.347,30.18-3.259,44.945,0.259l30.748,7.291"/>
				<path id="Path_22_" fill="#A7A192" d="M130.965,114.891c-0.063,0.008-0.129,0.008-0.191,0l-30.715-7.316
					c-14.645-3.469-29.887-3.555-44.569-0.25c-3.849,0.857-7.676-1.523-8.609-5.355l-6.24-26.109
					c-0.924-3.874,1.465-7.765,5.339-8.692c14.526-3.485,27.939-10.578,38.997-20.621l23.967-21.831
					c2.365-2.174,5.887-2.514,8.625-0.834c0.39,0.241,0.513,0.751,0.275,1.143c-0.238,0.394-0.749,0.52-1.143,0.284
					c-2.111-1.322-4.846-1.066-6.674,0.626L86.07,47.756C74.797,57.986,61.131,65.212,46.33,68.769
					c-1.43,0.34-2.665,1.235-3.435,2.486c-0.77,1.252-1.011,2.758-0.67,4.187l6.248,26.101c0.71,2.935,3.631,4.767,6.582,4.13
					c14.93-3.36,30.429-3.271,45.321,0.259l30.714,7.307c0.461,0.053,0.791,0.47,0.738,0.931c-0.053,0.46-0.469,0.791-0.93,0.738
					L130.965,114.891z"/>
				
					<ellipse id="Oval_1_" transform="matrix(-0.2328 -0.9725 0.9725 -0.2328 85.6829 205.4575)" fill="#FFFFFF" cx="123.885" cy="68.931" rx="46.772" ry="13.239"/>
				<path id="Shape_7_" fill="#A7A192" d="M133.852,115.374c-8.342,0-18.436-21.371-23.649-43.16
					c-5.446-22.756-5.964-47.548,2.603-49.575c8.567-2.027,19.32,20.27,24.758,43.026c5.439,22.756,5.965,47.548-2.602,49.574
					C134.598,115.33,134.225,115.375,133.852,115.374z M113.906,24.191c-0.239-0.002-0.478,0.025-0.709,0.083
					c-5.84,1.393-7.767,20.854-1.377,47.548c6.148,25.668,16.107,41.875,22.047,41.875c0.239-0.002,0.477-0.03,0.709-0.083
					c5.84-1.394,7.758-20.854,1.369-47.548l0,0C129.797,40.382,119.837,24.191,113.906,24.191z"/>
				<path id="Path_23_" fill="#FFFFFF" d="M36.852,79.144l5.111-1.223l5.064,21.157l-5.111,1.224
					c-2.823,0.676-5.659-1.065-6.334-3.888l-2.616-10.928c-0.675-2.823,1.065-5.659,3.888-6.334L36.852,79.144z"/>
				<path id="Shape_8_" fill="#A7A192" d="M40.691,101.285c-2.816-0.008-5.264-1.936-5.931-4.672l-2.611-10.936
					c-0.779-3.271,1.236-6.554,4.504-7.341l5.923-1.418L48.032,99.7l-5.923,1.418C41.644,101.227,41.168,101.283,40.691,101.285
					L40.691,101.285z M41.341,78.929l-4.296,1.026c-2.376,0.573-3.842,2.96-3.278,5.339l2.62,10.928
					c0.573,2.368,2.95,3.829,5.322,3.271l4.313-1.061L41.341,78.929z"/>
				<path id="Path_24_" fill="#A7A192" d="M56.265,94.912c-0.395,0.01-0.743-0.258-0.834-0.643L51.66,78.412
					c-0.092-0.297-0.011-0.62,0.209-0.838s0.544-0.297,0.84-0.204s0.515,0.344,0.569,0.65l3.796,15.849
					c0.052,0.216,0.017,0.443-0.099,0.633c-0.116,0.189-0.302,0.325-0.519,0.377C56.395,94.898,56.33,94.909,56.265,94.912
					L56.265,94.912z"/>
				<path id="Path_25_" fill="#A7A192" d="M63.672,93.135c-0.395,0.011-0.744-0.258-0.834-0.643l-3.804-15.849
					c-0.104-0.447,0.171-0.894,0.617-1.001c0.216-0.053,0.444-0.017,0.633,0.099c0.189,0.116,0.325,0.303,0.376,0.519l3.795,15.85
					c0.104,0.446-0.171,0.894-0.618,1.001L63.672,93.135z"/>
				<g id="Group_1_" transform="translate(108.442211, 58.391960)" opacity="0.29">
					<polygon id="Path_26_" fill="#E2CFA3" points="4.588,0.258 10.019,22.973 5.422,24.032 0.109,1.118 					"/>
				</g>
				<path id="Shape_9_" fill="#A7A192" d="M113.723,84.076l-0.65-1.401c-2.412-7.521-4.199-15.227-5.348-23.04l-0.108-0.759
					l3.028-0.726c5.105-1.204,10.434,0.776,13.514,5.023c3.079,4.246,3.307,9.927,0.575,14.405
					c-1.771,2.968-4.669,5.092-8.032,5.889h-0.043L113.723,84.076z M114.648,82.116v0.083l1.668-0.325
					c2.928-0.697,5.447-2.547,6.99-5.13c2.396-3.904,2.209-8.866-0.475-12.579s-7.337-5.447-11.795-4.396l-1.553,0.367
					C110.622,67.587,112.349,74.937,114.648,82.116L114.648,82.116z"/>
				<g id="Group_2_" transform="translate(38.371859, 77.577889)" opacity="0.29">
					<polygon id="Path_27_" fill="#E2CFA3" points="0.275,2.01 5.097,21.379 8.95,19.836 3.587,0.35 					"/>
				</g>
			</g>
		</g>
	</g>
</g>
</svg>
