<svg xmlns="http://www.w3.org/2000/svg" width="43.079" height="46.821" viewBox="0 0 43.079 46.821">
  <g id="approvals" transform="translate(-1577.087 -940)">
    <g id="Group_12040" data-name="Group 12040" transform="translate(1574.087 938)">
      <path id="Path_17854" data-name="Path 17854" d="M43.358,19.55c-3.425-3.695-9.758-5.567-18.819-5.567S9.146,15.855,5.721,19.55a10.319,10.319,0,0,0-2.713,7.781,1.6,1.6,0,0,0,1.6,1.579h9.78a5.08,5.08,0,0,1,.309-2.28,5.4,5.4,0,0,1,4.944-3.4,5.059,5.059,0,0,1,2.09.452l3.3-3.573a5.2,5.2,0,0,1,3.842-1.722,5.437,5.437,0,0,1,4.894,3.238,5.161,5.161,0,0,1-.982,5.628L31.257,28.91H44.469a1.6,1.6,0,0,0,1.6-1.582A10.35,10.35,0,0,0,43.358,19.55Z" transform="translate(0 16.093)" fill="#00253e"/>
      <path id="Path_17855" data-name="Path 17855" d="M12.465,27.7,9.9,25.263a1.758,1.758,0,0,1,2.425-2.544l1.27,1.209,5.511-5.975a1.758,1.758,0,0,1,2.587,2.383l-6.722,7.289A1.765,1.765,0,0,1,12.465,27.7Z" transform="translate(8.504 20.633)" fill="#00253e"/>
      <path id="Path_17856" data-name="Path 17856" d="M17.9,26.081a9.966,9.966,0,0,0,9.955-9.955v-4.17a9.955,9.955,0,1,0-19.91,0v4.17A9.966,9.966,0,0,0,17.9,26.081Z" transform="translate(6.64 0)" fill="#00253e"/>
    </g>
  </g>
</svg>
