<svg xmlns="http://www.w3.org/2000/svg" width="42.25" height="44.5" viewBox="0 0 42.25 44.5">
  <g id="employee_onboarding" transform="translate(-5.13 -3.29)">
    <path id="Path_17791" data-name="Path 17791" d="M44.49,14.92a15.62,15.62,0,0,0-30.38.74A11.68,11.68,0,0,1,10.34,22,14.53,14.53,0,1,0,33.55,37.78a12.44,12.44,0,0,1,4.72-6.06,15.6,15.6,0,0,0,6.22-16.8Z" fill="#f6f0e2"/>
    <g id="Mask">
      <path id="Path_17792" data-name="Path 17792" d="M25.06,22.91c-4.69,0-8.49-4.75-8.49-9.44a8.5,8.5,0,1,1,17,0C33.54,18.16,29.74,22.91,25.06,22.91Z" fill="#fff"/>
    </g>
    <g id="Mask-Copy">
      <path id="Path_17793" data-name="Path 17793" d="M6,40.84c.79-10.12,9-15.27,19-15.27s18.5,4.87,19.12,15.27a1.45,1.45,0,0,1-1.59,1.7h-35A2.34,2.34,0,0,1,6,40.84Z" fill="#fff"/>
    </g>
    <g id="Mask-2" data-name="Mask">
      <path id="Path_17794" data-name="Path 17794" d="M25.06,23.27c-5.06,0-8.85-5.17-8.85-9.8a8.85,8.85,0,0,1,17.69,0C33.9,18.1,30.12,23.27,25.06,23.27Zm0-17.92a8.13,8.13,0,0,0-8.13,8.12c0,4.29,3.48,9.08,8.13,9.08s8.12-4.79,8.12-9.08A8.13,8.13,0,0,0,25.06,5.35Z" fill="#525666"/>
    </g>
    <g id="Mask-Copy-2" data-name="Mask-Copy">
      <path id="Path_17795" data-name="Path 17795" d="M42.55,42.9h-35a2.07,2.07,0,0,1-1.24-.75,2.17,2.17,0,0,1-.66-1.34h0a15.81,15.81,0,0,1,5.52-11.13c.44-.37.91-.72,1.39-1.05s.88-.55,1.33-.81A23.38,23.38,0,0,1,25,25.21c11.44,0,18.91,6,19.48,15.61A2.08,2.08,0,0,1,44,42.35a2,2,0,0,1-1.45.55Zm-36.23-2a1.6,1.6,0,0,0,.48.8,1.48,1.48,0,0,0,.71.51h35a1.29,1.29,0,0,0,1-.32,1.43,1.43,0,0,0,.28-1C43.23,31.51,36.21,25.93,25,25.93a22.54,22.54,0,0,0-10.8,2.52c-.44.24-.87.5-1.28.78a15.93,15.93,0,0,0-1.33,1A15.12,15.12,0,0,0,6.32,40.87Z" fill="#525666"/>
    </g>
    <path id="Path_17796" data-name="Path 17796" d="M25.3,42.18S23.21,39.6,24,34.25a10.75,10.75,0,0,1,5.75-7.93l1.42.25,7.38,7.73-11.9,7.88Z" fill="#c1bda9"/>
    <circle id="Ellipse_133" data-name="Ellipse 133" cx="10.91" cy="10.91" r="10.91" transform="translate(25.18 25.62)" fill="#fff"/>
    <path id="Path_17797" data-name="Path 17797" d="M35.41,25.62c-5.65,0-10.23,4.89-10.23,10.91s4.58,10.91,10.23,10.91a10.92,10.92,0,0,0,0-21.82Z" fill="#d6bc7f"/>
    <path id="Path_17798" data-name="Path 17798" d="M36.09,47.79a11.16,11.16,0,0,1-4.46-.91.36.36,0,0,1-.19-.47.35.35,0,0,1,.47-.19,10.55,10.55,0,0,0,13.82-14,.37.37,0,0,1,.18-.48.36.36,0,0,1,.47.18,11.12,11.12,0,0,1,1,4.59A11.27,11.27,0,0,1,36.09,47.79Z" fill="#525666"/>
    <path id="Path_17799" data-name="Path 17799" d="M29.15,45.3a.4.4,0,0,1-.23-.08A11.27,11.27,0,1,1,44.36,28.88a.36.36,0,0,1,0,.5.35.35,0,0,1-.51,0A10.55,10.55,0,1,0,29.38,44.67a.35.35,0,0,1,0,.5A.34.34,0,0,1,29.15,45.3Z" fill="#525666"/>
    <path id="Path_17800" data-name="Path 17800" d="M36.25,42.65a.36.36,0,0,1-.36-.36V30.66a.36.36,0,0,1,.72,0V42.29A.36.36,0,0,1,36.25,42.65Z" fill="#fff"/>
    <path id="Path_17801" data-name="Path 17801" d="M42.07,36.83H30.43a.36.36,0,1,1,0-.71H42.07a.36.36,0,0,1,0,.71Z" fill="#fff"/>
    <path id="Path_17802" data-name="Path 17802" d="M44.46,10.69a.4.4,0,0,1-.23-.08,6.79,6.79,0,0,0-3.54-1.49.35.35,0,0,1-.29-.22.36.36,0,0,1,.05-.36A6.84,6.84,0,0,0,42,5a.37.37,0,0,1,.22-.29.36.36,0,0,1,.36,0A6.82,6.82,0,0,0,46.13,6.2a.35.35,0,0,1,.29.22.34.34,0,0,1-.06.36,6.84,6.84,0,0,0-1.5,3.54.35.35,0,0,1-.22.29.31.31,0,0,1-.18.08ZM41.37,8.5A7.46,7.46,0,0,1,44.2,9.69a7.42,7.42,0,0,1,1.19-2.82,7.49,7.49,0,0,1-2.82-1.19,7.51,7.51,0,0,1-1.2,2.82Z" fill="#c29b40"/>
    <circle id="Ellipse_134" data-name="Ellipse 134" cx="0.8" cy="0.8" r="0.8" transform="translate(5.13 29.5)" fill="#d6bc7f"/>
    <circle id="Ellipse_135" data-name="Ellipse 135" cx="1.32" cy="1.32" r="1.32" transform="translate(38.51 16.91)" fill="#d6bc7f"/>
  </g>
</svg>
