<svg version="1.1" id="Layer_1" xmlns="http://www.w3.org/2000/svg" xmlns:xlink="http://www.w3.org/1999/xlink" x="0px" y="0px"
	 viewBox="0 0 20 20" style="enable-background:new 0 0 20 20;" xml:space="preserve">
<desc>Created with Sketch.</desc>
<g id="Mobile-web">
	<g id="_x30_5-With-login-Copy-2" transform="translate(-208.000000, -80.000000)">
		<g id="Top-nave" transform="translate(0.000000, 64.000000)">
			<g id="Group-7">
				<g id="new_1_" transform="translate(198.000000, 6.000000)">
					<g id="Group-45-Copy">
						<path id="new" d="M20.8,19.2h3c0.4,0,0.8,0.3,0.8,0.8s-0.3,0.8-0.8,0.8h-3v3c0,0.4-0.3,0.8-0.8,0.8s-0.8-0.3-0.8-0.8v-3h-3
							c-0.4,0-0.8-0.3-0.8-0.8s0.3-0.8,0.8-0.8h3v-3c0-0.4,0.3-0.8,0.8-0.8s0.8,0.3,0.8,0.8V19.2z M12.8,11h14.4
							c1,0,1.8,0.8,1.8,1.8v14.4c0,1-0.8,1.8-1.8,1.8H12.8c-1,0-1.8-0.8-1.8-1.8V12.8C11,11.8,11.8,11,12.8,11z M13.4,12.5
							c-0.5,0-0.9,0.4-0.9,0.9v13.1c0,0.5,0.4,0.9,0.9,0.9h13.1c0.5,0,0.9-0.4,0.9-0.9V13.4c0-0.5-0.4-0.9-0.9-0.9H13.4z" fill="#C29B40"/>
					</g>
				</g>
			</g>
		</g>
	</g>
</g>
</svg>
