<?xml version="1.0" encoding="utf-8"?>
<!-- Generator: Adobe Illustrator 16.0.0, SVG Export Plug-In . SVG Version: 6.00 Build 0)  -->
<!DOCTYPE svg PUBLIC "-//W3C//DTD SVG 1.1//EN" "http://www.w3.org/Graphics/SVG/1.1/DTD/svg11.dtd">
<svg version="1.1" id="Layer_1" xmlns="http://www.w3.org/2000/svg" xmlns:xlink="http://www.w3.org/1999/xlink" x="0px" y="0px"
	 width="160px" height="162px" viewBox="0 0 160 162" enable-background="new 0 0 160 162" xml:space="preserve">
<title>4F155AA4-B5DF-4F59-9432-292D6AEFFC3C</title>
<desc>Created with sketchtool.</desc>
<g id="Page-1">
	<g id="_x30_2-Support-home-empty-state" transform="translate(-640.000000, -858.000000)">
		<g id="myopentickets" transform="translate(0.000000, 751.000000)">
			<g id="Group-9">
				<g id="No-requesters-_x28_1_x29_" transform="translate(640.000000, 107.000000)">
					<g id="Group-45" transform="translate(9.000000, 27.000000)">
						<g id="Fill-1" transform="translate(77.106383, 65.089286)" opacity="0.29">
							<path id="Path" fill="#E2CFA3" d="M1.96,47.587L47.204,2.323C50.052-0.333,54.49-0.254,57.243,2.5
								c2.752,2.754,2.831,7.194,0.177,10.044L12.177,57.809c-2.849,2.655-7.287,2.576-10.04-0.178S-0.694,50.437,1.96,47.587"/>
						</g>
						<g id="Group-5" transform="translate(0.000000, 66.696429)" opacity="0.29">
							<g id="Fill-3">
								<path id="Path_1_" fill="#E2CFA3" d="M3.052,9.45l6.996-6.999c1.802-1.935,4.516-2.731,7.077-2.077
									c2.562,0.654,4.562,2.655,5.215,5.218c0.654,2.563-0.142,5.278-2.076,7.081l-6.996,6.998
									c-1.802,1.936-4.516,2.732-7.077,2.078S1.63,19.093,0.976,16.53C0.322,13.968,1.118,11.253,3.052,9.45"/>
							</g>
						</g>
						<g id="Fill-6" transform="translate(81.925532, 68.303571)" opacity="0.29">
							<path id="Path_2_" fill="#E2CFA3" d="M0.362,21.126L21.035,0.443c-2.606,2.855-2.506,7.258,0.229,9.992
								c2.735,2.732,7.135,2.83,9.988,0.221L10.571,31.339c1.964-1.795,2.785-4.523,2.136-7.104
								c-0.648-2.581-2.662-4.597-5.241-5.249c-2.58-0.65-5.309,0.168-7.104,2.133"/>
						</g>
						<g id="Fill-8" transform="translate(73.090426, 38.571429)" opacity="0.29">
							<path id="Path_3_" fill="#E2CFA3" d="M0.353,19.343L19.726,0c-2.654,2.85-2.575,7.29,0.178,10.044
								c2.752,2.754,7.191,2.833,10.039,0.177L10.57,29.603c2.654-2.85,2.576-7.29-0.177-10.044s-7.191-2.832-10.04-0.178"/>
						</g>
						<g id="Fill-10" transform="translate(64.255319, 25.714286)" opacity="0.29">
							<path id="Path_4_" fill="#E2CFA3" d="M2.329,59.086L58.85,2.539c2.846-2.657,7.284-2.583,10.039,0.169
								c2.756,2.752,2.837,7.192,0.186,10.044L12.553,69.308c-2.838,2.722-7.33,2.676-10.112-0.104
								C-0.34,66.422-0.39,61.928,2.329,59.086"/>
						</g>
						<g id="Fill-12" transform="translate(8.835106, 20.089286)" opacity="0.29">
							<path id="Path_5_" fill="#E2CFA3" d="M2.209,80.044L79.155,3.062c1.795-1.964,4.523-2.783,7.103-2.132
								c2.579,0.651,4.593,2.667,5.241,5.249c0.649,2.581-0.171,5.31-2.136,7.104L12.425,90.257
								c-2.853,2.61-7.253,2.513-9.987-0.222C-0.297,87.302-0.398,82.9,2.209,80.044"/>
						</g>
						<g id="Fill-14" transform="translate(22.489362, 18.482143)" opacity="0.29">
							<path id="Path_6_" fill="#E2CFA3" d="M2.161,30.97L30.706,2.411c1.824-1.833,4.486-2.554,6.985-1.89s4.453,2.61,5.128,5.106
								c0.675,2.497-0.033,5.164-1.856,6.997L12.369,41.192c-2.854,2.607-7.255,2.506-9.987-0.229S-0.448,33.824,2.161,30.97"/>
						</g>
						<g id="Fill-16" transform="translate(69.074468, 0.000000)" opacity="0.29">
							<path id="Path_7_" fill="#E2CFA3" d="M2.802,2.202l0.17-0.168C5.82-0.622,10.259-0.544,13.011,2.21
								c2.752,2.754,2.831,7.194,0.177,10.044l-0.177,0.169c-2.821,2.814-7.387,2.814-10.209,0l0,0
								C-0.015,9.6-0.015,5.025,2.802,2.202"/>
						</g>
						<g id="Fill-18" transform="translate(47.388298, 98.035714)" opacity="0.29">
							<path id="Path_8_" fill="#E2CFA3" d="M2.586,2.901l0.168-0.169c1.794-1.965,4.522-2.786,7.102-2.137
								c2.58,0.648,4.595,2.663,5.246,5.244c0.651,2.58-0.167,5.311-2.131,7.106l-0.168,0.177c-2.822,2.82-7.395,2.82-10.217,0l0,0
								C-0.233,10.298-0.233,5.724,2.586,2.901"/>
						</g>
						<g id="Fill-22" transform="translate(146.984043, 126.160714)">
							<path id="Path_9_" fill="#A7A192" d="M0.354,0.378C0.828,0.214,1.33,0.143,1.831,0.169c0.499,0,0.996,0.049,1.485,0.145
								C3.52,0.361,3.663,0.542,3.663,0.751S3.52,1.141,3.317,1.189C2.827,1.285,2.33,1.333,1.831,1.333
								C1.33,1.359,0.828,1.289,0.354,1.124c-0.161-0.053-0.27-0.203-0.27-0.373S0.193,0.431,0.354,0.378"/>
						</g>
						<g id="Fill-26" transform="translate(11.244681, 126.160714)">
							<path id="Path_10_" fill="#A7A192" d="M0.731,0.394c5.55-0.161,11.1-0.186,16.65-0.186h16.642h33.3h33.292h16.65
								c5.55,0,11.092,0,16.642,0.161c0.232,0.03,0.405,0.229,0.405,0.462c0,0.234-0.173,0.432-0.405,0.463
								c-5.55,0.145-11.092,0.152-16.642,0.16h-16.65H67.324h-33.3H17.381c-5.55,0-11.101,0-16.65-0.186
								C0.636,1.267,0.545,1.227,0.48,1.158C0.415,1.087,0.381,0.996,0.385,0.9c0.008-0.188,0.158-0.338,0.346-0.346"/>
						</g>
						<g id="Fill-30" transform="translate(8.031915, 126.160714)">
							<path id="Path_11_" fill="#A7A192" d="M0.667,0.225c0.072-0.008,0.145-0.008,0.217,0h0.104C1.028,0.234,1.066,0.25,1.1,0.273
								c0.248,0.173,0.313,0.512,0.145,0.764C1.205,1.093,1.156,1.142,1.1,1.181C1.066,1.205,1.028,1.22,0.988,1.23H0.884
								c-0.072,0.008-0.145,0.008-0.217,0c-0.14-0.031-0.261-0.116-0.338-0.236C0.252,0.872,0.226,0.726,0.257,0.586
								C0.298,0.38,0.46,0.218,0.667,0.177"/>
						</g>
						<g id="Fill-34" transform="translate(2.409574, 126.160714)">
							<path id="Path_12_" fill="#A7A192" d="M0.956,0.37c0.353-0.087,0.713-0.136,1.076-0.145c0.365-0.032,0.731,0.001,1.084,0.097
								c0.237,0.073,0.371,0.324,0.297,0.563c-0.047,0.14-0.157,0.25-0.297,0.297C2.763,1.277,2.397,1.31,2.032,1.278
								C1.669,1.269,1.308,1.22,0.956,1.133c-0.103-0.024-0.19-0.09-0.244-0.181c-0.053-0.092-0.066-0.2-0.037-0.302
								C0.706,0.51,0.816,0.401,0.956,0.37"/>
						</g>
						<g id="Group-40" transform="translate(62.648936, 133.392857)">
							<g id="Fill-38">
								<path id="Path_13_" fill="#A7A192" d="M0.578,0.25C2.313,0.089,4.04,0.064,5.775,0.064h5.197L21.365,0h15.582
									c1.734,0,3.47,0,5.197,0.161c0.123,0.009,0.238,0.065,0.32,0.159c0.081,0.094,0.121,0.215,0.113,0.339
									c-0.025,0.229-0.205,0.409-0.434,0.435c-1.728,0.136-3.463,0.145-5.197,0.152H21.365L10.972,1.189H5.775
									c-1.735,0-3.462,0-5.197-0.185C0.401,0.978,0.27,0.826,0.27,0.646c0-0.178,0.131-0.33,0.308-0.357"/>
							</g>
						</g>
						<g id="Fill-43" transform="translate(44.978723, 133.392857)">
							<path id="Path_14_" fill="#A7A192" d="M1.149,0.224c1.775-0.096,3.55-0.128,5.325-0.145c1.775-0.016,3.55,0,5.325,0.098
								c0.214,0.029,0.375,0.213,0.375,0.43s-0.16,0.4-0.375,0.43c-1.775,0.112-3.55,0.12-5.325,0.096
								c-1.775-0.023-3.55-0.048-5.325-0.145C1.046,0.986,0.948,0.943,0.878,0.867s-0.106-0.178-0.099-0.28
								C0.795,0.39,0.952,0.236,1.149,0.224"/>
						</g>
					</g>
					<g id="Group-48" transform="translate(0.000000, 40.000000)">
						<g id="Stroke-15" transform="translate(148.385417, 79.200000)">
							<path id="Shape" fill="#E2CFA3" d="M2.63,4.8c-1.204,0-2.182-0.975-2.182-2.176c0-1.202,0.978-2.176,2.182-2.176
								c1.205,0,2.182,0.974,2.182,2.176C4.812,3.825,3.835,4.8,2.63,4.8z M2.63,2.056c-0.234,0-0.445,0.142-0.533,0.357
								C2.007,2.63,2.058,2.878,2.226,3.042c0.166,0.164,0.416,0.211,0.631,0.119C3.074,3.07,3.212,2.858,3.208,2.624
								C3.21,2.47,3.151,2.321,3.042,2.212C2.933,2.102,2.785,2.04,2.63,2.04V2.056z"/>
						</g>
						<g id="Group-23" transform="translate(0.000000, 10.400000)">
							<g id="Stroke-19" transform="translate(3.208333, 0.000000)">
								<path id="Path_15_" fill="#E2CFA3" d="M1.091,8.752c-0.443,0-0.802-0.358-0.802-0.8v-6.8c0-0.441,0.359-0.8,0.802-0.8
									c0.443,0,0.802,0.358,0.802,0.8v6.8C1.893,8.394,1.534,8.752,1.091,8.752z"/>
							</g>
							<g id="Stroke-21" transform="translate(0.000000, 3.200000)">
								<path id="Path_16_" fill="#E2CFA3" d="M7.708,2.152H0.89c-0.443,0-0.802-0.358-0.802-0.8s0.359-0.8,0.802-0.8h6.818
									c0.443,0,0.802,0.358,0.802,0.8S8.151,2.152,7.708,2.152z"/>
							</g>
						</g>
						<g id="Stroke-24" transform="translate(45.718750, 7.200000)">
							<path id="Shape_1_" fill="#E2CFA3" d="M2.952,4.496c-0.882,0-1.678-0.53-2.016-1.343C0.599,2.34,0.785,1.404,1.409,0.781
								C2.033,0.159,2.971-0.027,3.787,0.31c0.815,0.337,1.347,1.13,1.347,2.01C5.133,3.522,4.157,4.496,2.952,4.496L2.952,4.496z
								 M2.952,1.752c-0.234,0-0.445,0.141-0.534,0.357S2.379,2.574,2.546,2.738c0.167,0.164,0.417,0.211,0.632,0.12
								C3.394,2.766,3.532,2.554,3.529,2.32C3.525,2.005,3.268,1.752,2.952,1.752L2.952,1.752z"/>
						</g>
						<g id="Stroke-26" transform="translate(149.187500, 36.800000)">
							<path id="Shape_2_" fill="#E2CFA3" d="M2.262,4.656c-1.205,0-2.182-0.974-2.182-2.176c0-1.202,0.977-2.176,2.182-2.176
								S4.443,1.278,4.443,2.48C4.443,3.682,3.467,4.656,2.262,4.656z M2.262,1.912c-0.234,0-0.445,0.141-0.534,0.357
								S1.689,2.734,1.856,2.898s0.417,0.211,0.632,0.12C2.704,2.926,2.843,2.714,2.84,2.48c0-0.152-0.062-0.297-0.17-0.404
								C2.561,1.969,2.414,1.91,2.262,1.912z"/>
						</g>
						<g id="Stroke-28" transform="translate(72.989583, 0.000000)">
							<path id="Shape_3_" fill="#E2CFA3" d="M1.997,5.192C1.857,5.19,1.719,5.154,1.596,5.088C1.41,4.982,1.275,4.806,1.219,4.6
								L0.553,2.152C0.497,1.947,0.524,1.729,0.63,1.544s0.28-0.32,0.485-0.376l2.455-0.672c0.205-0.057,0.424-0.029,0.609,0.076
								C4.364,0.677,4.5,0.851,4.556,1.056L5.23,3.512C5.286,3.717,5.258,3.936,5.153,4.12c-0.105,0.185-0.28,0.32-0.485,0.376
								L2.206,5.16C2.139,5.183,2.068,5.194,1.997,5.192L1.997,5.192z M2.31,2.496l0.249,0.912L3.465,3.2L3.208,2.256L2.31,2.496z"
								/>
						</g>
						<g id="Stroke-35" transform="translate(28.072917, 48.800000)">
							<path id="Shape_4_" fill="#E2CFA3" d="M2.719,5.32c-1.329,0-2.406-1.075-2.406-2.399c0-1.326,1.077-2.4,2.406-2.4
								s2.406,1.074,2.406,2.4C5.125,4.245,4.048,5.32,2.719,5.32z M2.719,2.12c-0.443,0-0.802,0.358-0.802,0.801
								c0,0.441,0.359,0.799,0.802,0.799s0.802-0.357,0.802-0.799C3.521,2.478,3.162,2.12,2.719,2.12z"/>
						</g>
					</g>
					<g id="Group-11" transform="translate(27.000000, 3.000000)">
						<g id="Stroke-1" opacity="0.29">
							<path id="Shape_5_" fill="#E2CFA3" d="M65.233,112.263h-0.072c-0.505-0.089-1.066-0.192-1.675-0.32
								c-0.105-0.021-0.196-0.083-0.255-0.172s-0.079-0.197-0.059-0.302c0.021-0.104,0.083-0.195,0.172-0.254
								s0.197-0.08,0.302-0.059c0.601,0.129,1.154,0.232,1.65,0.313c0.222,0.018,0.387,0.212,0.369,0.434
								c-0.018,0.221-0.211,0.387-0.433,0.368V112.263z M61.914,111.59h-0.088c-0.529-0.129-1.082-0.257-1.65-0.409
								c-0.104-0.026-0.192-0.093-0.246-0.185c-0.055-0.092-0.07-0.201-0.043-0.305c0.059-0.211,0.275-0.339,0.488-0.288
								c0.562,0.152,1.107,0.28,1.604,0.401c0.104,0.022,0.195,0.086,0.253,0.176c0.058,0.091,0.075,0.2,0.052,0.305
								C62.238,111.455,62.09,111.578,61.914,111.59L61.914,111.59z M58.637,110.74c-0.035,0.008-0.07,0.008-0.105,0
								c-0.537-0.152-1.082-0.313-1.603-0.489c-0.21-0.068-0.325-0.294-0.257-0.505c0.031-0.102,0.104-0.188,0.198-0.235
								c0.095-0.049,0.206-0.056,0.308-0.021l1.603,0.48c0.103,0.029,0.188,0.099,0.239,0.191c0.051,0.094,0.063,0.203,0.033,0.306
								C58.996,110.646,58.822,110.76,58.637,110.74L58.637,110.74z M55.43,109.723c-0.045,0.008-0.092,0.008-0.137,0
								c-0.528-0.185-1.058-0.385-1.603-0.594c-0.205-0.078-0.309-0.307-0.232-0.513c0.038-0.101,0.114-0.182,0.212-0.226
								c0.098-0.043,0.209-0.046,0.309-0.007c0.529,0.2,1.051,0.401,1.604,0.577c0.208,0.075,0.318,0.303,0.248,0.513
								c-0.066,0.164-0.232,0.265-0.408,0.249H55.43z M52.279,108.496c-0.053,0.012-0.107,0.012-0.16,0
								c-0.521-0.217-1.042-0.449-1.555-0.697c-0.14-0.055-0.237-0.184-0.252-0.332c-0.015-0.149,0.054-0.295,0.18-0.377
								c0.126-0.082,0.287-0.086,0.417-0.012c0.505,0.24,1.018,0.465,1.523,0.681c0.222,0.042,0.367,0.255,0.325,0.477
								s-0.255,0.366-0.477,0.325V108.496z M49.226,107.054c-0.065,0-0.128-0.017-0.185-0.048c-0.505-0.257-1.002-0.537-1.499-0.802
								c-0.192-0.112-0.257-0.36-0.144-0.554c0.113-0.191,0.36-0.256,0.553-0.144c0.481,0.28,0.962,0.553,1.458,0.802
								c0.161,0.086,0.243,0.271,0.199,0.447c-0.043,0.178-0.201,0.303-0.383,0.306V107.054z M46.308,105.362
								c-0.077-0.001-0.151-0.023-0.216-0.063c-0.481-0.313-0.954-0.634-1.411-0.971c-0.176-0.133-0.215-0.381-0.088-0.561
								c0.063-0.086,0.157-0.145,0.262-0.16c0.105-0.018,0.213,0.01,0.299,0.072c0.449,0.328,0.906,0.641,1.371,0.945
								c0.186,0.12,0.24,0.367,0.121,0.553c-0.076,0.116-0.206,0.186-0.345,0.185H46.308z M43.574,103.383
								c-0.093,0.003-0.185-0.028-0.256-0.088c-0.449-0.369-0.882-0.754-1.283-1.139c-0.078-0.072-0.122-0.174-0.122-0.279
								c0-0.107,0.044-0.209,0.122-0.281c0.075-0.076,0.178-0.118,0.285-0.118s0.209,0.042,0.285,0.118
								c0.393,0.369,0.801,0.737,1.25,1.098c0.082,0.067,0.133,0.165,0.143,0.271c0.009,0.106-0.025,0.211-0.095,0.291
								C43.821,103.348,43.698,103.396,43.574,103.383z M41.122,101.066c-0.113,0.002-0.221-0.045-0.297-0.128
								c-0.393-0.433-0.801-0.874-1.106-1.313c-0.137-0.174-0.108-0.424,0.064-0.562c0.175-0.135,0.426-0.103,0.561,0.071
								c0.337,0.426,0.689,0.85,1.074,1.259c0.154,0.159,0.154,0.411,0,0.569c-0.083,0.068-0.19,0.1-0.296,0.088V101.066z
								 M39.053,98.414c-0.136-0.002-0.262-0.07-0.336-0.184c-0.313-0.481-0.609-0.979-0.874-1.483
								c-0.104-0.196-0.028-0.44,0.168-0.545c0.197-0.104,0.441-0.028,0.545,0.169c0.257,0.48,0.537,0.961,0.802,1.426
								c0.06,0.089,0.08,0.197,0.058,0.303c-0.023,0.104-0.087,0.194-0.178,0.25c-0.057,0.031-0.12,0.047-0.185,0.049V98.414z
								 M37.45,95.441c-0.161-0.004-0.306-0.101-0.369-0.249c-0.216-0.528-0.409-1.073-0.577-1.603
								c-0.063-0.213,0.054-0.436,0.265-0.505c0.21-0.063,0.431,0.056,0.497,0.265c0.161,0.528,0.353,1.049,0.562,1.555
								c0.061,0.172-0.002,0.362-0.152,0.465c-0.06,0.032-0.125,0.051-0.192,0.056L37.45,95.441z M36.472,92.235
								c-0.189-0.003-0.352-0.136-0.393-0.321c-0.112-0.561-0.208-1.129-0.265-1.698c-0.016-0.144,0.046-0.284,0.162-0.369
								s0.269-0.103,0.401-0.044c0.132,0.058,0.223,0.182,0.239,0.324c0.064,0.545,0.144,1.09,0.256,1.604
								c0.04,0.216-0.098,0.425-0.313,0.473L36.472,92.235z M36.096,88.885c-0.215,0.001-0.393-0.169-0.401-0.385
								c0-0.176,0-0.352,0-0.528c0-0.393,0-0.802,0-1.194c0.006-0.105,0.054-0.205,0.134-0.276c0.08-0.071,0.184-0.106,0.291-0.101
								c0.106,0.007,0.206,0.055,0.276,0.135s0.107,0.184,0.1,0.291c0,0.385,0,0.801,0,1.146c0,0.169,0,0.337,0,0.505
								c0.004,0.107-0.035,0.211-0.109,0.288s-0.177,0.12-0.284,0.12H36.096z M71.342,88.156c-0.222,0-0.401-0.18-0.401-0.4
								c0-0.222,0.18-0.401,0.401-0.401c0.568,0,1.13,0,1.675-0.04l0,0c0.222,0,0.401,0.18,0.401,0.4
								c0,0.222-0.18,0.401-0.401,0.401c-0.554,0-1.122,0-1.699,0.04H71.342z M69.65,88.156L69.65,88.156
								c-0.554,0-1.123,0-1.699-0.057c-0.106-0.004-0.206-0.051-0.277-0.129c-0.07-0.078-0.106-0.182-0.1-0.287
								c-0.004-0.108,0.041-0.213,0.121-0.285s0.188-0.105,0.295-0.092l1.676,0.048c0.221,0,0.4,0.18,0.4,0.401
								c0,0.221-0.18,0.4-0.4,0.4H69.65z M74.708,88.044c-0.222,0-0.401-0.18-0.401-0.401c0-0.221,0.18-0.4,0.401-0.4
								c0.562,0,1.122-0.08,1.659-0.137c0.218-0.019,0.412,0.137,0.441,0.354c0.023,0.219-0.135,0.416-0.354,0.44
								c-0.553,0.056-1.122,0.104-1.699,0.145H74.708z M66.283,88.044L66.283,88.044c-0.553,0-1.114-0.08-1.691-0.136
								c-0.105-0.009-0.203-0.059-0.271-0.141s-0.1-0.188-0.089-0.293c0.024-0.217,0.216-0.375,0.433-0.36l1.676,0.136
								c0.221,0,0.4,0.18,0.4,0.401s-0.18,0.4-0.4,0.4L66.283,88.044z M62.916,87.739L62.916,87.739
								c-0.553-0.063-1.113-0.128-1.683-0.208c-0.106-0.012-0.203-0.066-0.269-0.151c-0.064-0.085-0.092-0.192-0.076-0.298
								c0.029-0.219,0.229-0.373,0.449-0.345l1.667,0.208c0.219,0.025,0.376,0.223,0.353,0.441
								c-0.051,0.204-0.249,0.336-0.457,0.305L62.916,87.739z M78.059,87.739c-0.198-0.002-0.365-0.148-0.393-0.345
								c-0.016-0.104,0.01-0.211,0.074-0.295c0.063-0.084,0.158-0.14,0.262-0.154c0.57-0.08,1.115-0.168,1.652-0.264
								c0.217-0.039,0.424,0.104,0.465,0.32c0.039,0.217-0.104,0.424-0.321,0.465c-0.545,0.104-1.106,0.192-1.683,0.272H78.059z
								 M59.574,87.299H59.51l-1.667-0.273c-0.104-0.016-0.199-0.072-0.261-0.158c-0.063-0.086-0.086-0.193-0.068-0.298
								c0.037-0.216,0.24-0.362,0.457-0.329l1.668,0.265c0.221,0.019,0.386,0.212,0.368,0.433c-0.018,0.222-0.212,0.387-0.433,0.369
								V87.299z M81.377,87.139c-0.221,0.023-0.42-0.136-0.445-0.357c-0.023-0.221,0.136-0.42,0.357-0.444
								c0.553-0.12,1.09-0.257,1.604-0.401c0.221-0.057,0.447,0.076,0.504,0.297c0.059,0.222-0.074,0.447-0.296,0.505
								c-0.537,0.145-1.082,0.28-1.651,0.409L81.377,87.139z M56.248,86.737h-0.072c-0.554-0.104-1.107-0.208-1.668-0.328
								c-0.104-0.02-0.195-0.079-0.254-0.167s-0.08-0.195-0.059-0.298c0.045-0.218,0.254-0.36,0.473-0.321
								c0.562,0.113,1.106,0.225,1.651,0.321c0.217,0.04,0.36,0.248,0.321,0.465c-0.053,0.179-0.224,0.296-0.409,0.28L56.248,86.737
								z M84.623,86.248c-0.172-0.002-0.324-0.115-0.376-0.279c-0.036-0.102-0.028-0.213,0.021-0.308s0.133-0.167,0.236-0.198
								c0.537-0.176,1.058-0.36,1.563-0.561c0.1-0.039,0.211-0.037,0.309,0.008c0.099,0.043,0.175,0.124,0.213,0.225
								c0.076,0.205-0.027,0.434-0.232,0.513c-0.514,0.2-1.051,0.393-1.604,0.577c-0.049,0.002-0.099-0.006-0.145-0.023
								L84.623,86.248z M52.905,86.024h-0.08c-0.545-0.112-1.098-0.241-1.651-0.368c-0.104-0.023-0.195-0.088-0.252-0.178
								s-0.076-0.199-0.052-0.304c0.021-0.105,0.084-0.197,0.176-0.253c0.091-0.057,0.202-0.072,0.305-0.043l1.603,0.368
								c0.104,0.021,0.195,0.083,0.252,0.172c0.057,0.089,0.076,0.198,0.052,0.301C53.217,85.887,53.075,86.009,52.905,86.024z
								 M36.296,85.495H36.24c-0.219-0.028-0.373-0.229-0.345-0.448c0.072-0.553,0.16-1.123,0.272-1.691
								c0.048-0.215,0.257-0.352,0.473-0.313c0.104,0.018,0.197,0.077,0.257,0.165c0.059,0.088,0.079,0.196,0.056,0.3
								c-0.104,0.561-0.192,1.105-0.265,1.604c-0.008,0.205-0.171,0.371-0.376,0.384H36.296z M49.618,85.271h-0.096l-1.603-0.409
								c-0.212-0.059-0.34-0.274-0.289-0.489c0.026-0.104,0.093-0.191,0.185-0.246c0.092-0.054,0.201-0.068,0.304-0.042l1.604,0.409
								c0.215,0.055,0.347,0.271,0.296,0.488c-0.05,0.171-0.207,0.289-0.385,0.289H49.618z M87.734,84.975
								c-0.223,0.047-0.439-0.096-0.485-0.316c-0.047-0.222,0.095-0.439,0.316-0.485c0.513-0.232,1.01-0.48,1.483-0.737
								c0.094-0.051,0.205-0.061,0.307-0.029c0.104,0.031,0.188,0.103,0.238,0.197c0.05,0.094,0.061,0.203,0.029,0.305
								c-0.032,0.102-0.104,0.186-0.197,0.232c-0.49,0.265-0.994,0.521-1.531,0.802c-0.047,0.013-0.097,0.015-0.145,0.008
								L87.734,84.975z M46.348,84.43h-0.104l-1.603-0.449c-0.144-0.039-0.255-0.15-0.293-0.294c-0.039-0.144,0.003-0.296,0.108-0.4
								s0.258-0.146,0.401-0.106c0.545,0.16,1.09,0.305,1.603,0.448c0.221,0.028,0.377,0.231,0.349,0.453s-0.231,0.377-0.453,0.349
								H46.348z M43.142,83.508c-0.037,0.008-0.075,0.008-0.112,0l-1.604-0.48c-0.21-0.069-0.327-0.293-0.264-0.506
								c0.065-0.209,0.287-0.326,0.497-0.264l1.603,0.48c0.212,0.063,0.334,0.285,0.272,0.497c-0.056,0.179-0.23,0.292-0.417,0.272
								H43.142z M90.74,83.379c-0.178,0-0.334-0.117-0.385-0.287c-0.049-0.17,0.019-0.354,0.168-0.449
								c0.473-0.297,0.938-0.609,1.379-0.93c0.179-0.131,0.43-0.092,0.561,0.088s0.092,0.431-0.088,0.561
								c-0.457,0.329-0.938,0.658-1.427,0.962c-0.073,0.032-0.154,0.04-0.232,0.024L90.74,83.379z M39.895,82.546h-0.128
								l-1.603-0.521c-0.102-0.031-0.188-0.103-0.236-0.198c-0.048-0.095-0.056-0.206-0.021-0.307
								c0.068-0.21,0.294-0.325,0.505-0.257l1.603,0.521c0.222,0.033,0.374,0.239,0.341,0.461c-0.033,0.221-0.24,0.373-0.461,0.34
								V82.546z M36.953,82.209h-0.08c-0.212-0.059-0.34-0.274-0.289-0.488c0.022-0.071,0.041-0.144,0.056-0.217h-0.056
								l-1.603-0.545c-0.21-0.072-0.322-0.303-0.249-0.513c0.073-0.21,0.303-0.321,0.513-0.249l1.604,0.546l0,0
								c0.064-0.217,0.128-0.433,0.2-0.657c0.069-0.211,0.293-0.328,0.505-0.265c0.21,0.069,0.325,0.294,0.257,0.505
								c-0.168,0.545-0.321,1.074-0.457,1.604c-0.061,0.165-0.225,0.27-0.401,0.256V82.209z M93.441,81.408
								c-0.168-0.002-0.316-0.107-0.373-0.264c-0.057-0.157-0.011-0.333,0.116-0.441c0.417-0.354,0.802-0.729,1.227-1.114
								c0.073-0.075,0.175-0.118,0.28-0.118s0.207,0.043,0.281,0.118c0.075,0.075,0.118,0.178,0.118,0.284
								c0,0.107-0.043,0.209-0.118,0.285c-0.409,0.393-0.803,0.801-1.275,1.154c-0.072,0.059-0.163,0.09-0.256,0.088V81.408z
								 M33.499,80.383c-0.045,0.008-0.091,0.008-0.136,0l-1.604-0.578c-0.205-0.078-0.308-0.307-0.232-0.512
								c0.075-0.209,0.305-0.316,0.513-0.241l1.603,0.577c0.102,0.035,0.185,0.108,0.231,0.205c0.047,0.096,0.053,0.207,0.017,0.308
								c-0.073,0.149-0.227,0.24-0.393,0.232V80.383z M30.292,79.221c-0.045,0.008-0.091,0.008-0.136,0l-1.603-0.594
								c-0.203-0.085-0.302-0.315-0.225-0.521c0.079-0.205,0.307-0.309,0.513-0.232l1.603,0.593c0.1,0.037,0.182,0.114,0.225,0.212
								c0.043,0.099,0.046,0.209,0.007,0.31c-0.066,0.135-0.202,0.221-0.353,0.225L30.292,79.221z M95.814,79.052
								c-0.098-0.001-0.19-0.035-0.266-0.097c-0.076-0.074-0.118-0.177-0.118-0.283c0-0.107,0.042-0.21,0.118-0.285
								c0.361-0.417,0.705-0.85,1.034-1.29c0.136-0.173,0.384-0.208,0.562-0.081c0.085,0.064,0.141,0.159,0.156,0.264
								c0.016,0.105-0.013,0.212-0.076,0.297c-0.337,0.457-0.697,0.906-1.074,1.339c-0.08,0.082-0.189,0.129-0.305,0.128
								L95.814,79.052z M37.947,78.98c-0.053,0.011-0.107,0.011-0.161,0c-0.098-0.043-0.175-0.123-0.214-0.222
								c-0.04-0.1-0.037-0.21,0.006-0.308c0.128-0.304,0.36-0.801,0.713-1.603c0.1-0.197,0.34-0.275,0.537-0.176
								c0.095,0.045,0.168,0.126,0.203,0.226c0.034,0.1,0.028,0.209-0.019,0.303c-0.345,0.697-0.569,1.226-0.697,1.522
								c-0.058,0.139-0.188,0.234-0.337,0.249L37.947,78.98z M27.142,78.018c-0.048,0.008-0.096,0.008-0.144,0l-1.603-0.625
								c-0.101-0.038-0.181-0.114-0.224-0.212c-0.042-0.099-0.043-0.21-0.001-0.309c0.082-0.202,0.31-0.301,0.513-0.225l1.604,0.625
								c0.098,0.038,0.177,0.113,0.22,0.209c0.042,0.096,0.044,0.206,0.004,0.303c-0.061,0.132-0.191,0.219-0.336,0.225
								L27.142,78.018z M24.048,76.76c-0.051,0.008-0.102,0.008-0.152,0l-1.563-0.641c-0.206-0.084-0.304-0.319-0.22-0.525
								c0.084-0.206,0.319-0.305,0.525-0.22l1.604,0.641c0.099,0.039,0.178,0.116,0.218,0.214c0.041,0.098,0.04,0.209-0.002,0.307
								C24.386,76.694,24.219,76.786,24.048,76.76z M97.865,76.335c-0.075,0.001-0.15-0.019-0.216-0.056
								c-0.186-0.12-0.239-0.367-0.12-0.553c0.289-0.473,0.568-0.954,0.801-1.435c0.059-0.139,0.189-0.233,0.338-0.246
								c0.15-0.012,0.295,0.061,0.373,0.188c0.08,0.128,0.08,0.289,0.003,0.418c-0.265,0.505-0.545,1.01-0.857,1.499
								c-0.069,0.114-0.194,0.184-0.329,0.184H97.865z M39.462,75.926c-0.064,0-0.128-0.016-0.184-0.048
								c-0.095-0.049-0.167-0.135-0.197-0.238s-0.017-0.214,0.037-0.307c0.24-0.457,0.521-0.954,0.801-1.483
								c0.121-0.166,0.348-0.214,0.526-0.11c0.177,0.103,0.248,0.324,0.164,0.511c-0.305,0.521-0.577,1.01-0.802,1.458
								c-0.068,0.132-0.204,0.215-0.353,0.216H39.462z M20.93,75.47c-0.053,0.011-0.108,0.011-0.161,0l-1.531-0.689
								c-0.204-0.088-0.297-0.325-0.208-0.529c0.088-0.204,0.325-0.297,0.529-0.208l1.547,0.657
								c0.143,0.027,0.261,0.129,0.309,0.266c0.048,0.138,0.019,0.291-0.076,0.401c-0.095,0.11-0.242,0.162-0.385,0.134L20.93,75.47
								z M17.859,74.075c-0.087,0-0.171-0.028-0.24-0.08c-0.273-0.208-0.738-0.569-1.339-1.074c-0.082-0.067-0.133-0.165-0.143-0.27
								c-0.009-0.106,0.025-0.21,0.094-0.291c0.14-0.169,0.391-0.194,0.562-0.056c0.593,0.497,1.05,0.85,1.314,1.05
								c0.174,0.135,0.207,0.386,0.072,0.561c-0.079,0.102-0.2,0.161-0.329,0.16H17.859z M99.396,73.346
								c-0.051,0.008-0.102,0.008-0.152,0c-0.2-0.091-0.295-0.323-0.216-0.529c0.216-0.508,0.405-1.027,0.569-1.555
								c0.044-0.143,0.161-0.252,0.308-0.285c0.146-0.033,0.299,0.014,0.401,0.125c0.102,0.11,0.137,0.266,0.092,0.409
								c-0.176,0.537-0.377,1.082-0.593,1.603C99.732,73.27,99.568,73.362,99.396,73.346L99.396,73.346z M41.162,73.009
								c-0.077-0.002-0.151-0.025-0.216-0.064c-0.186-0.12-0.24-0.367-0.121-0.553c0.289-0.454,0.601-0.927,0.938-1.418
								c0.08-0.119,0.218-0.186,0.361-0.176c0.143,0.01,0.27,0.096,0.333,0.224c0.063,0.129,0.052,0.282-0.028,0.4
								c-0.329,0.481-0.642,0.946-0.93,1.402c-0.07,0.115-0.194,0.185-0.329,0.185H41.162z M15.23,71.911
								c-0.098-0.001-0.192-0.038-0.264-0.104c-0.393-0.345-0.802-0.729-1.259-1.146c-0.104-0.099-0.148-0.246-0.115-0.386
								c0.034-0.14,0.139-0.251,0.277-0.292s0.287-0.006,0.392,0.093l1.243,1.13c0.129,0.11,0.175,0.291,0.113,0.449
								C15.555,71.814,15.4,71.917,15.23,71.911L15.23,71.911z M43.069,70.22c-0.085,0.001-0.169-0.024-0.241-0.072
								c-0.175-0.132-0.214-0.38-0.088-0.561c0.329-0.449,0.673-0.897,1.034-1.354c0.137-0.175,0.39-0.206,0.565-0.068
								s0.205,0.39,0.068,0.565c-0.36,0.449-0.697,0.89-1.018,1.331c-0.073,0.096-0.185,0.154-0.305,0.16H43.069z M100.398,70.116
								h-0.072c-0.216-0.041-0.359-0.248-0.32-0.465c0.057-0.297,0.08-0.465,0.08-0.473v-0.344c0-0.265,0-0.521,0-0.802
								c-0.009-0.106,0.027-0.212,0.098-0.292c0.071-0.081,0.172-0.128,0.279-0.132c0.107-0.011,0.215,0.023,0.295,0.095
								c0.082,0.071,0.129,0.174,0.13,0.282c0,0.265,0,0.537,0,0.801v0.401c0,0.04,0,0.224-0.097,0.569
								c-0.016,0.198-0.178,0.353-0.376,0.361H100.398z M12.825,69.595c-0.105-0.001-0.207-0.045-0.28-0.12
								c-0.385-0.385-0.802-0.802-1.187-1.218c-0.076-0.075-0.119-0.178-0.119-0.285s0.043-0.209,0.119-0.284
								c0.074-0.076,0.175-0.118,0.281-0.118s0.207,0.042,0.28,0.118c0.401,0.427,0.794,0.828,1.179,1.202
								c0.153,0.158,0.153,0.41,0,0.569C13.028,69.538,12.93,69.586,12.825,69.595L12.825,69.595z M45.218,67.576
								c-0.16,0.008-0.309-0.079-0.38-0.221s-0.051-0.313,0.051-0.436c0.361-0.425,0.738-0.857,1.13-1.282
								c0.094-0.116,0.246-0.17,0.393-0.14c0.146,0.03,0.264,0.14,0.305,0.284c0.041,0.145-0.002,0.299-0.112,0.401
								c-0.375,0.417-0.743,0.833-1.106,1.25c-0.078,0.096-0.197,0.149-0.321,0.145H45.218z M10.501,67.135
								c-0.113,0.001-0.22-0.046-0.297-0.128c-0.369-0.417-0.746-0.802-1.114-1.291c-0.069-0.08-0.104-0.185-0.094-0.291
								c0.009-0.106,0.061-0.203,0.143-0.271c0.171-0.141,0.424-0.12,0.569,0.048c0.361,0.44,0.729,0.857,1.098,1.266
								c0.154,0.158,0.154,0.41,0,0.569c-0.095,0.081-0.221,0.115-0.344,0.096H10.501z M100.334,66.758
								c-0.193,0.002-0.36-0.137-0.393-0.329c-0.092-0.542-0.217-1.077-0.377-1.603c-0.043-0.143-0.006-0.298,0.098-0.407
								c0.102-0.108,0.254-0.154,0.4-0.12c0.145,0.035,0.262,0.144,0.305,0.287c0.162,0.556,0.296,1.121,0.4,1.691
								c0.033,0.216-0.113,0.42-0.328,0.457L100.334,66.758z M47.462,65.083c-0.162,0.001-0.308-0.095-0.371-0.244
								c-0.063-0.149-0.031-0.321,0.083-0.437c0.393-0.4,0.802-0.801,1.218-1.186c0.076-0.076,0.178-0.119,0.285-0.119
								s0.209,0.043,0.285,0.119c0.078,0.073,0.122,0.174,0.122,0.281c0,0.106-0.044,0.208-0.122,0.28
								c-0.409,0.393-0.802,0.801-1.194,1.17C47.692,65.037,47.579,65.088,47.462,65.083z M8.296,64.546
								c-0.125,0.002-0.243-0.055-0.321-0.152c-0.345-0.441-0.689-0.89-1.026-1.354c-0.126-0.18-0.087-0.428,0.088-0.561
								c0.086-0.063,0.193-0.089,0.299-0.072c0.105,0.017,0.2,0.074,0.262,0.161c0.329,0.457,0.665,0.897,1.01,1.33
								c0.136,0.178,0.104,0.431-0.072,0.569C8.468,64.519,8.383,64.547,8.296,64.546L8.296,64.546z M99.309,63.544
								c-0.156,0.001-0.297-0.09-0.361-0.232c-0.228-0.497-0.482-0.98-0.761-1.451c-0.056-0.089-0.074-0.197-0.05-0.299
								c0.023-0.103,0.088-0.191,0.178-0.246c0.09-0.057,0.199-0.075,0.303-0.051c0.104,0.024,0.194,0.089,0.25,0.179
								c0.299,0.496,0.566,1.01,0.803,1.539c0.09,0.202,0,0.438-0.201,0.529C99.418,63.534,99.363,63.544,99.309,63.544
								L99.309,63.544z M49.915,62.743c-0.116,0-0.226-0.053-0.297-0.145c-0.075-0.074-0.118-0.175-0.118-0.28
								s0.042-0.207,0.118-0.281c0.417-0.369,0.858-0.737,1.307-1.09c0.081-0.068,0.187-0.101,0.292-0.09
								c0.106,0.01,0.203,0.063,0.269,0.146c0.137,0.175,0.109,0.429-0.064,0.569c-0.441,0.353-0.866,0.706-1.283,1.066
								c-0.056,0.072-0.135,0.12-0.224,0.136V62.743z M6.3,61.821c-0.132,0-0.255-0.066-0.329-0.176
								c-0.32-0.473-0.625-0.946-0.93-1.435c-0.113-0.188-0.057-0.433,0.128-0.553c0.091-0.056,0.201-0.073,0.305-0.047
								s0.193,0.092,0.248,0.184c0.297,0.473,0.602,0.945,0.914,1.402c0.121,0.184,0.071,0.431-0.112,0.553
								C6.46,61.797,6.381,61.822,6.3,61.821z M97.569,60.667c-0.125,0.002-0.243-0.055-0.321-0.152
								c-0.331-0.421-0.684-0.825-1.058-1.21c-0.075-0.076-0.118-0.178-0.118-0.285s0.043-0.209,0.118-0.285
								c0.159-0.154,0.411-0.154,0.569,0c0.4,0.415,0.777,0.851,1.13,1.307c0.135,0.175,0.103,0.426-0.071,0.561
								C97.744,60.652,97.656,60.674,97.569,60.667z M52.544,60.667c-0.171-0.003-0.321-0.115-0.374-0.278
								c-0.052-0.163,0.004-0.341,0.141-0.443c0.449-0.337,0.914-0.666,1.387-0.986c0.088-0.062,0.196-0.085,0.302-0.065
								s0.199,0.081,0.26,0.169c0.121,0.187,0.071,0.436-0.112,0.561c-0.466,0.313-0.914,0.633-1.363,0.962
								c-0.07,0.051-0.155,0.076-0.241,0.072V60.667z M4.529,58.952c-0.145,0.002-0.28-0.074-0.353-0.2
								c-0.272-0.497-0.545-0.994-0.802-1.507c-0.047-0.095-0.054-0.206-0.019-0.307c0.035-0.101,0.108-0.184,0.204-0.23
								c0.094-0.05,0.205-0.059,0.306-0.026c0.101,0.033,0.185,0.106,0.231,0.202c0.249,0.497,0.513,0.994,0.801,1.475
								c0.054,0.092,0.069,0.202,0.04,0.305c-0.029,0.103-0.098,0.189-0.192,0.24c-0.067,0.033-0.142,0.047-0.217,0.04V58.952z
								 M55.31,58.768c-0.141,0.001-0.271-0.072-0.345-0.192c-0.111-0.191-0.051-0.436,0.137-0.553
								c0.473-0.288,0.961-0.585,1.467-0.857c0.192-0.108,0.436-0.04,0.545,0.152c0.104,0.193,0.036,0.434-0.152,0.545
								c-0.497,0.272-0.971,0.553-1.443,0.802C55.461,58.718,55.388,58.755,55.31,58.768z M95.196,58.239
								c-0.095,0-0.185-0.035-0.257-0.096c-0.408-0.345-0.85-0.689-1.307-1.018c-0.176-0.133-0.215-0.381-0.088-0.561
								c0.062-0.088,0.156-0.147,0.262-0.164c0.106-0.017,0.215,0.011,0.3,0.076c0.473,0.336,0.93,0.697,1.354,1.058
								c0.166,0.147,0.184,0.4,0.04,0.569c-0.07,0.078-0.167,0.126-0.272,0.136H95.196z M58.252,57.117
								c-0.151,0-0.29-0.083-0.361-0.216c-0.047-0.096-0.054-0.206-0.02-0.307c0.035-0.101,0.107-0.184,0.204-0.23
								c0.497-0.256,1.01-0.497,1.53-0.737c0.202-0.09,0.438,0,0.529,0.2c0.046,0.097,0.051,0.208,0.013,0.307
								s-0.114,0.18-0.213,0.222c-0.505,0.232-1.01,0.473-1.507,0.721c-0.045,0.024-0.094,0.038-0.145,0.04H58.252z M92.463,56.268
								c-0.073,0.001-0.146-0.018-0.208-0.056c-0.466-0.289-0.954-0.561-1.451-0.801c-0.196-0.1-0.275-0.34-0.177-0.537
								c0.106-0.194,0.346-0.271,0.545-0.176c0.514,0.265,1.019,0.553,1.5,0.801c0.188,0.117,0.248,0.362,0.136,0.553
								c-0.063,0.118-0.18,0.199-0.313,0.216H92.463z M3.014,55.931c-0.16-0.001-0.303-0.095-0.369-0.241
								c-0.224-0.513-0.44-1.042-0.641-1.603c-0.07-0.137-0.055-0.302,0.038-0.425c0.093-0.123,0.249-0.181,0.399-0.15
								s0.271,0.146,0.309,0.294c0.2,0.521,0.409,1.034,0.633,1.539c0.043,0.098,0.045,0.209,0.006,0.308s-0.116,0.179-0.214,0.221
								C3.126,55.906,3.071,55.925,3.014,55.931z M61.354,55.73c-0.161-0.003-0.306-0.1-0.369-0.248
								c-0.039-0.099-0.037-0.209,0.004-0.307c0.043-0.098,0.122-0.175,0.221-0.214c0.521-0.208,1.051-0.409,1.604-0.601
								c0.221-0.073,0.46,0.047,0.533,0.269c0.072,0.221-0.047,0.459-0.269,0.533c-0.529,0.184-1.05,0.376-1.604,0.585
								C61.434,55.747,61.393,55.741,61.354,55.73L61.354,55.73z M89.489,54.729c-0.054,0.007-0.107,0.007-0.16,0
								c-0.89-0.385-1.468-0.553-1.476-0.561c-0.213-0.059-0.346-0.271-0.305-0.489c0.016-0.098,0.071-0.186,0.152-0.242
								c0.082-0.056,0.184-0.076,0.281-0.055l-0.088,0.385l0.16-0.369c0.545,0.166,1.08,0.364,1.604,0.593
								c0.098,0.039,0.178,0.116,0.218,0.214c0.041,0.098,0.04,0.209-0.002,0.307C89.799,54.654,89.648,54.738,89.489,54.729z
								 M64.535,54.617c-0.221,0.031-0.426-0.124-0.456-0.345c-0.031-0.221,0.123-0.426,0.345-0.457
								c0.537-0.168,1.082-0.321,1.604-0.457c0.111-0.031,0.232-0.012,0.329,0.053s0.161,0.168,0.175,0.284
								c0.051,0.212-0.077,0.426-0.288,0.481c-0.545,0.145-1.082,0.289-1.603,0.449C64.605,54.628,64.57,54.625,64.535,54.617
								L64.535,54.617z M86.242,53.815H86.17c-0.561-0.104-1.105-0.201-1.65-0.281c-0.105-0.016-0.2-0.073-0.264-0.159
								c-0.063-0.085-0.09-0.193-0.073-0.298c0.017-0.105,0.073-0.2,0.159-0.263s0.192-0.09,0.298-0.074l1.675,0.289
								c0.222,0.02,0.385,0.215,0.365,0.437c-0.02,0.221-0.215,0.384-0.438,0.364V53.815z M67.807,53.815
								c-0.222,0.022-0.419-0.14-0.441-0.361c-0.021-0.221,0.14-0.418,0.361-0.441c0.545-0.112,1.105-0.216,1.667-0.313
								c0.104-0.019,0.214,0.006,0.301,0.067c0.087,0.062,0.146,0.156,0.164,0.261c0.019,0.104-0.006,0.212-0.067,0.298
								c-0.063,0.086-0.156,0.144-0.262,0.159c-0.553,0.096-1.105,0.2-1.603,0.313L67.807,53.815z M82.908,53.318h-0.049
								c-0.561-0.072-1.121-0.136-1.666-0.185c-0.107-0.01-0.205-0.062-0.273-0.145c-0.067-0.083-0.1-0.189-0.088-0.295
								c0.021-0.219,0.215-0.379,0.434-0.361c0.561,0.056,1.121,0.112,1.69,0.185c0.222,0.013,0.39,0.203,0.377,0.425
								C83.32,53.163,83.129,53.332,82.908,53.318z M71.133,53.262c-0.221,0.016-0.413-0.151-0.429-0.373s0.151-0.413,0.372-0.429
								c0.562-0.072,1.123-0.128,1.699-0.176c0.219-0.014,0.408,0.144,0.434,0.36c0.009,0.106-0.025,0.212-0.094,0.293
								c-0.07,0.081-0.168,0.131-0.275,0.14c-0.561,0.048-1.113,0.112-1.658,0.176L71.133,53.262z M79.549,53.006L79.549,53.006
								l-1.699-0.112c-0.218-0.009-0.389-0.19-0.385-0.409c0.01-0.219,0.189-0.393,0.409-0.393l1.7,0.072c0.221,0,0.4,0.179,0.4,0.4
								s-0.18,0.401-0.4,0.401L79.549,53.006z M74.492,53.006c-0.215,0.004-0.393-0.163-0.401-0.377
								c-0.007-0.106,0.029-0.21,0.101-0.291c0.07-0.08,0.17-0.128,0.275-0.134c0.535,0,1.104-0.016,1.708-0.048l0,0
								c0.222,0,0.401,0.18,0.401,0.401s-0.18,0.4-0.401,0.4c-0.569,0-1.122,0-1.675,0.048H74.492z M1.828,52.854
								c-0.176,0.001-0.332-0.113-0.385-0.28c-0.168-0.545-0.329-1.09-0.465-1.643c-0.051-0.216,0.081-0.434,0.296-0.489
								c0.104-0.026,0.213-0.01,0.304,0.046c0.09,0.056,0.155,0.146,0.177,0.25c0.136,0.537,0.289,1.066,0.449,1.603
								c0.068,0.21-0.046,0.436-0.257,0.505L1.828,52.854z M1.026,49.584c-0.194,0.002-0.361-0.137-0.393-0.329
								c-0.104-0.561-0.185-1.13-0.249-1.699c-0.024-0.221,0.135-0.42,0.357-0.445c0.221-0.024,0.42,0.135,0.445,0.356
								c0.056,0.553,0.136,1.098,0.232,1.603c0.039,0.217-0.104,0.424-0.321,0.465L1.026,49.584z M0.666,46.234
								c-0.215,0-0.393-0.17-0.401-0.385c0-0.265,0-0.521,0-0.801c0-0.281,0-0.625,0-0.946c0.017-0.218,0.198-0.385,0.417-0.385
								c0.22,0.013,0.39,0.197,0.385,0.417c0,0.304,0,0.609,0,0.914c0,0.304,0,0.497,0,0.745c0.004,0.106-0.034,0.21-0.106,0.288
								c-0.072,0.078-0.172,0.125-0.279,0.129L0.666,46.234z M0.802,42.796H0.753c-0.218-0.033-0.372-0.229-0.353-0.449
								c0.072-0.569,0.16-1.138,0.272-1.691c0.018-0.105,0.077-0.198,0.165-0.259c0.087-0.06,0.196-0.083,0.3-0.062
								c0.218,0.044,0.36,0.254,0.321,0.473c-0.112,0.537-0.192,1.082-0.265,1.603C1.186,42.623,1.014,42.792,0.802,42.796z
								 M1.451,39.494H1.347C1.242,39.468,1.152,39.4,1.1,39.306c-0.053-0.094-0.065-0.206-0.034-0.309
								c0.152-0.545,0.329-1.09,0.513-1.603c0.073-0.221,0.312-0.341,0.533-0.269c0.221,0.073,0.341,0.312,0.269,0.533
								c-0.192,0.521-0.353,1.05-0.505,1.603C1.802,39.425,1.628,39.521,1.451,39.494z M2.581,36.288
								c-0.135,0-0.262-0.067-0.336-0.181c-0.074-0.113-0.086-0.256-0.032-0.38c0.225-0.534,0.473-1.047,0.746-1.539
								c0.046-0.096,0.13-0.169,0.231-0.202s0.212-0.024,0.306,0.026c0.095,0.049,0.166,0.135,0.198,0.237s0.021,0.213-0.03,0.308
								c-0.256,0.497-0.497,1.002-0.713,1.491c-0.051,0.161-0.2,0.27-0.369,0.272V36.288z M4.136,33.299
								C4.063,33.3,3.99,33.281,3.928,33.243c-0.187-0.114-0.247-0.356-0.136-0.545c0.289-0.481,0.593-0.961,0.922-1.442
								c0.128-0.181,0.376-0.228,0.561-0.104c0.177,0.13,0.223,0.375,0.104,0.561c-0.32,0.465-0.617,0.93-0.897,1.395
								c-0.065,0.133-0.197,0.219-0.345,0.225V33.299z M6.036,30.518c-0.155,0.006-0.299-0.078-0.368-0.217
								c-0.069-0.138-0.051-0.305,0.047-0.424c0.336-0.441,0.689-0.89,1.066-1.331c0.142-0.17,0.395-0.194,0.565-0.052
								c0.17,0.142,0.194,0.395,0.052,0.565c-0.369,0.44-0.713,0.865-1.05,1.298c-0.064,0.114-0.182,0.187-0.313,0.192V30.518z
								 M8.208,27.945c-0.102,0-0.2-0.04-0.272-0.112c-0.077-0.072-0.121-0.174-0.121-0.28s0.044-0.208,0.121-0.28
								c0.379-0.406,0.772-0.815,1.179-1.227c0.075-0.076,0.178-0.118,0.284-0.118c0.107,0,0.209,0.042,0.285,0.118
								c0.154,0.159,0.154,0.411,0,0.569c-0.409,0.4-0.801,0.801-1.162,1.202c-0.076,0.097-0.19,0.155-0.313,0.16V27.945z
								 M10.613,25.541c-0.111-0.003-0.218-0.049-0.296-0.128c-0.154-0.159-0.154-0.411,0-0.569c0.412-0.374,0.836-0.75,1.274-1.13
								c0.168-0.113,0.394-0.083,0.526,0.07c0.133,0.153,0.13,0.381-0.005,0.531c-0.433,0.377-0.85,0.746-1.25,1.114
								c-0.063,0.092-0.162,0.153-0.272,0.168L10.613,25.541z M13.17,23.337c-0.124,0.022-0.25-0.013-0.345-0.096
								c-0.068-0.081-0.101-0.187-0.09-0.292c0.01-0.105,0.063-0.203,0.146-0.269c0.433-0.353,0.882-0.697,1.339-1.05
								c0.178-0.128,0.426-0.093,0.561,0.08c0.135,0.175,0.103,0.426-0.072,0.561c-0.459,0.347-0.9,0.692-1.322,1.034
								c-0.069,0.054-0.153,0.085-0.241,0.088L13.17,23.337z M15.855,21.294c-0.129,0.001-0.25-0.059-0.329-0.161
								c-0.126-0.18-0.088-0.428,0.088-0.561c0.457-0.329,0.922-0.649,1.395-0.97c0.18-0.094,0.402-0.038,0.516,0.129
								c0.115,0.167,0.085,0.395-0.067,0.528c-0.465,0.321-0.93,0.641-1.371,0.962c-0.068,0.072-0.159,0.117-0.256,0.128
								L15.855,21.294z M18.645,19.402c-0.137,0.003-0.266-0.067-0.337-0.185c-0.121-0.184-0.07-0.431,0.112-0.553
								c0.473-0.305,0.946-0.609,1.435-0.906c0.122-0.076,0.274-0.081,0.401-0.014c0.127,0.068,0.208,0.197,0.212,0.341
								c0.005,0.143-0.067,0.278-0.188,0.354c-0.489,0.297-0.962,0.593-1.419,0.898c-0.066,0.063-0.15,0.105-0.24,0.12
								L18.645,19.402z M21.515,17.631c-0.181,0.001-0.341-0.119-0.39-0.293s0.026-0.36,0.182-0.453
								c0.481-0.28,0.97-0.569,1.475-0.85c0.093-0.051,0.204-0.063,0.306-0.033c0.103,0.03,0.188,0.1,0.239,0.193
								c0.104,0.193,0.036,0.434-0.152,0.545c-0.497,0.272-0.986,0.553-1.459,0.801c-0.055,0.074-0.134,0.125-0.224,0.145
								L21.515,17.631z M24.424,16.028c-0.183-0.002-0.34-0.128-0.383-0.305c-0.043-0.177,0.039-0.361,0.199-0.448
								c0.489-0.264,0.986-0.529,1.491-0.801c0.127-0.087,0.294-0.093,0.428-0.016c0.134,0.078,0.21,0.225,0.198,0.379
								c-0.013,0.154-0.113,0.287-0.257,0.342l-1.483,0.802C24.558,16.012,24.492,16.029,24.424,16.028z M27.422,14.481
								c-0.152-0.003-0.291-0.089-0.361-0.224c-0.047-0.096-0.054-0.206-0.019-0.307c0.034-0.101,0.108-0.184,0.204-0.23
								l1.515-0.745c0.096-0.047,0.206-0.054,0.307-0.02c0.101,0.035,0.184,0.108,0.23,0.204c0.093,0.2,0.012,0.437-0.184,0.537
								l-1.515,0.729C27.545,14.459,27.485,14.478,27.422,14.481z M30.46,13.015c-0.186-0.003-0.345-0.133-0.385-0.314
								c-0.04-0.181,0.05-0.366,0.217-0.447l1.539-0.706c0.201-0.09,0.438,0,0.529,0.201c0.046,0.096,0.05,0.207,0.013,0.307
								c-0.038,0.1-0.115,0.18-0.213,0.222l-1.531,0.697C30.577,13.003,30.519,13.017,30.46,13.015L30.46,13.015z M33.539,11.637
								c-0.222,0.044-0.437-0.1-0.481-0.321c-0.044-0.221,0.099-0.437,0.32-0.481l1.555-0.665c0.206-0.079,0.438,0.016,0.529,0.216
								c0.042,0.098,0.042,0.208,0.002,0.307c-0.041,0.098-0.12,0.175-0.219,0.214l-1.579,0.697
								C33.626,11.623,33.583,11.634,33.539,11.637L33.539,11.637z M36.648,10.33c-0.161-0.003-0.306-0.1-0.369-0.248
								c-0.083-0.204,0.014-0.436,0.216-0.521L38.1,8.928c0.206-0.077,0.436,0.022,0.521,0.225c0.04,0.099,0.038,0.209-0.004,0.307
								c-0.042,0.098-0.121,0.175-0.22,0.214l-1.603,0.625C36.748,10.32,36.698,10.331,36.648,10.33z M39.791,9.088
								c-0.166-0.001-0.315-0.102-0.377-0.256c-0.076-0.206,0.028-0.434,0.232-0.513l1.603-0.601c0.21-0.071,0.439,0.034,0.521,0.24
								c0.075,0.208-0.032,0.438-0.24,0.513l-1.603,0.593C39.883,9.079,39.837,9.087,39.791,9.088L39.791,9.088z M42.949,7.918
								c-0.167-0.004-0.316-0.108-0.377-0.265c-0.075-0.208,0.033-0.438,0.241-0.513l1.603-0.569
								c0.138-0.063,0.299-0.042,0.417,0.054c0.118,0.095,0.172,0.249,0.14,0.397c-0.032,0.148-0.146,0.265-0.292,0.303
								l-1.604,0.569C43.036,7.909,42.993,7.917,42.949,7.918z M46.155,6.796c-0.174,0.002-0.329-0.108-0.385-0.272
								c-0.069-0.208,0.042-0.433,0.249-0.505l1.603-0.545c0.21-0.068,0.437,0.046,0.505,0.256c0.035,0.1,0.029,0.21-0.018,0.305
								c-0.046,0.095-0.13,0.167-0.23,0.2l-1.604,0.537L46.155,6.796z M49.362,5.73c-0.176,0.001-0.332-0.113-0.385-0.28
								c-0.064-0.21,0.049-0.433,0.256-0.505l1.604-0.513c0.102-0.032,0.212-0.022,0.308,0.027c0.095,0.05,0.166,0.135,0.197,0.238
								C51.374,4.797,51.364,4.907,51.314,5c-0.05,0.094-0.135,0.163-0.237,0.193l-1.603,0.513c-0.043,0.018-0.09,0.026-0.136,0.024
								H49.362z M52.568,4.712c-0.175-0.001-0.33-0.114-0.385-0.281c-0.063-0.212,0.054-0.436,0.265-0.505l1.603-0.489
								c0.144-0.042,0.298-0.003,0.405,0.1c0.108,0.104,0.151,0.256,0.116,0.401s-0.146,0.26-0.289,0.301L52.68,4.736L52.568,4.712z
								 M55.774,3.734c-0.222,0.031-0.426-0.123-0.457-0.344c-0.03-0.221,0.124-0.426,0.345-0.457l1.604-0.465
								c0.102-0.032,0.213-0.021,0.307,0.03c0.094,0.052,0.162,0.139,0.189,0.242c0.063,0.212-0.06,0.435-0.271,0.497l-1.604,0.465
								c-0.032,0.018-0.067,0.029-0.104,0.032H55.774z M58.98,2.805c-0.221,0.031-0.426-0.124-0.457-0.345s0.124-0.426,0.346-0.457
								l1.603-0.449c0.144-0.039,0.296,0.002,0.401,0.107c0.105,0.104,0.146,0.257,0.107,0.4c-0.037,0.144-0.148,0.255-0.293,0.294
								l-1.603,0.449c-0.019,0.002-0.038,0.002-0.056,0H58.98z M62.235,1.916c-0.144,0.019-0.286-0.041-0.373-0.155
								c-0.088-0.115-0.108-0.268-0.052-0.401c0.055-0.133,0.178-0.227,0.32-0.246l1.443-0.384c0.221-0.056,0.445,0.079,0.5,0.3
								c0.057,0.221-0.078,0.446-0.3,0.501L62.34,1.916H62.235z"/>
						</g>
						<polygon id="Path_17_" fill="#DAE1E7" points="32.448,95.008 30.861,95.008 30.861,93.405 29.795,93.405 29.795,95.008 
							28.208,95.008 28.208,96.074 29.795,96.074 29.795,97.686 30.861,97.686 30.861,96.074 32.448,96.074 						"/>
					</g>
					<g id="Oval" transform="translate(89.000000, 0.000000)">
						<ellipse fill="#FFFFFF" cx="2.857" cy="3.337" rx="2.468" ry="2.559"/>
						<path id="Shape_6_" fill="#E9E2D0" d="M2.857,6.285c-1.57,0-2.842-1.32-2.842-2.948c0-1.628,1.271-2.948,2.842-2.948
							S5.7,1.708,5.7,3.337C5.7,4.965,4.428,6.285,2.857,6.285L2.857,6.285z M2.857,1.167c-1.156,0-2.092,0.972-2.092,2.17
							c0,1.198,0.936,2.17,2.092,2.17S4.95,4.535,4.95,3.337c0-0.576-0.221-1.128-0.613-1.535C3.945,1.396,3.412,1.167,2.857,1.167z
							"/>
					</g>
					<path id="Path_18_" fill="#E9E2D0" d="M81.377,80h6.271C112.143,80,132,99.92,132,124.494V126H38.501
						c-0.829,0-1.501-0.674-1.501-1.506l0,0C37,99.92,56.857,80,81.352,80H81.377z"/>
					<path id="Shape_7_" fill="#A7A192" d="M131.143,125.998h-92.85c-1.268-0.004-2.292-1.029-2.292-2.293
						C36.022,99.009,56.113,79,80.89,79h6.221C111.902,79,132,99.033,132,123.744v1.494c-0.01,0.216-0.107,0.418-0.269,0.561
						S131.357,126.014,131.143,125.998z M80.873,80.598c-23.89,0.022-43.246,19.333-43.246,43.146c0,0.381,0.307,0.691,0.689,0.695
						h92.024v-0.695c-0.022-23.813-19.396-43.106-43.286-43.106L80.873,80.598z"/>
					<circle id="Oval_1_" fill="#E9E2D0" cx="84" cy="55" r="20"/>
					<path id="Shape_8_" fill="#A7A192" d="M84,76c-11.598,0-21-9.402-21-21s9.402-21,21-21c11.598,0,21,9.402,21,21
						C104.986,66.592,95.592,75.987,84,76L84,76z M84,35.609c-10.709,0-19.391,8.681-19.391,19.391
						c0,10.709,8.681,19.391,19.391,19.391c10.709,0,19.391-8.682,19.391-19.391C103.377,44.296,94.703,35.623,84,35.609L84,35.609z
						"/>
				</g>
			</g>
		</g>
	</g>
</g>
</svg>
