<svg xmlns="http://www.w3.org/2000/svg" width="48" height="53" viewBox="0 0 48 53">
  <g id="report-issue" transform="translate(-1568.549 -932)">
    <path id="Path_17850" data-name="Path 17850" d="M44.835,15.891l-3.672-3.672-1.118.573a5.344,5.344,0,0,1-7.213-7.215l.573-1.117L29.621.674a2.3,2.3,0,0,0-3.251,0L.675,26.371a2.3,2.3,0,0,0,0,3.251L4.4,33.352l1.115-.568a5.344,5.344,0,0,1,7.208,7.208l-.568,1.115,3.729,3.729a2.3,2.3,0,0,0,3.251,0L44.835,19.142A2.3,2.3,0,0,0,44.835,15.891ZM31.913,22.143l-9.749,9.749a1.725,1.725,0,0,1-2.44,0L13.532,25.7a1.725,1.725,0,0,1,0-2.44l9.749-9.749a1.725,1.725,0,0,1,2.439,0L31.913,19.7A1.725,1.725,0,0,1,31.913,22.143Z" transform="translate(1569.794 935.744)" fill="#00253e"/>
    <rect id="Rectangle_2600" data-name="Rectangle 2600" width="48" height="53" transform="translate(1568.549 932)" fill="none"/>
  </g>
</svg>
