<svg xmlns="http://www.w3.org/2000/svg" width="75.063" height="75.38" viewBox="0 0 75.063 75.38">
  <g id="s" transform="translate(-0.06 0.16)">
    <g id="Group_11833" data-name="Group 11833" transform="translate(0.06 -0.16)" opacity="0.01">
      <rect id="Rectangle_2534" data-name="Rectangle 2534" width="75.063" height="75.38" fill="#fff"/>
    </g>
    <path id="Path_17777" data-name="Path 17777" d="M66.292,19.966a25.665,25.665,0,0,0-49.821,1.208,19.022,19.022,0,0,1-6.19,10.447A23.854,23.854,0,1,0,48.341,57.5a20.487,20.487,0,0,1,7.76-9.964A25.665,25.665,0,0,0,66.292,19.966Z" transform="translate(0.951 0.618)" fill="rgba(194,155,64,0.15)"/>
    <circle id="Ellipse_129" data-name="Ellipse 129" cx="2.189" cy="2.189" r="2.189" transform="translate(20.245 63.867)" fill="#c29b40"/>
    <path id="Path_17778" data-name="Path 17778" d="M34.9,9.675l-25.363.03a6.93,6.93,0,0,1-6.915,6.93v27.3a6.915,6.915,0,0,1,6.93,6.915H58a6.915,6.915,0,0,1,6.915-6.93V16.575A6.915,6.915,0,0,1,58,9.66H38.627" transform="translate(1.305 5.005)" fill="#fff"/>
    <path id="Path_17779" data-name="Path 17779" d="M9.923,51.922a.574.574,0,0,1-.589-.574,6.341,6.341,0,0,0-6.341-6.341h0a.543.543,0,0,1-.393-.091.543.543,0,0,1-.181-.408V17.153a.589.589,0,0,1,.166-.408.544.544,0,0,1,.393-.166,6.371,6.371,0,0,0,6.356-6.386A.589.589,0,0,1,9.5,9.786a.543.543,0,0,1,.393-.166H35.287a.574.574,0,0,1,.574.574.559.559,0,0,1-.574.559H10.437a7.322,7.322,0,0,1-2.159,4.725,7.458,7.458,0,0,1-4.741,2.265V43.891a7.443,7.443,0,0,1,4.741,2.174,7.383,7.383,0,0,1,2.174,4.725h47.36a7.549,7.549,0,0,1,6.9-6.915V17.682a7.549,7.549,0,0,1-6.9-6.9H38.985a.574.574,0,1,1,0-1.132H58.34a.559.559,0,0,1,.559.559,6.371,6.371,0,0,0,6.3,6.311h0a.559.559,0,0,1,.559.574V44.374a.589.589,0,0,1-.166.408.544.544,0,0,1-.393.166A6.341,6.341,0,0,0,58.838,51.3a.589.589,0,0,1-.166.408.574.574,0,0,1-.393.166H9.818Z" transform="translate(1.203 4.985)" fill="#525666"/>
    <rect id="Rectangle_2535" data-name="Rectangle 2535" width="42.363" height="27.613" rx="1.37" transform="translate(14.161 21.942)" fill="rgba(194,155,64,0.35)"/>
    <path id="Path_17780" data-name="Path 17780" d="M11.687,42.865A2.642,2.642,0,0,1,9,40.223V16.747a2.627,2.627,0,0,1,2.642-2.627H49.853a2.642,2.642,0,0,1,2.642,2.642V40.178a2.6,2.6,0,0,1-2.627,2.642ZM49.868,15.207H11.657a1.51,1.51,0,0,0-1.51,1.51V40.193a1.51,1.51,0,0,0,1.51,1.51H49.868a1.51,1.51,0,0,0,1.51-1.51h0V16.717A1.51,1.51,0,0,0,49.868,15.207Z" transform="translate(4.557 7.279)" fill="#525666"/>
    <line id="Line_19" data-name="Line 19" y1="0.015" x2="22.902" transform="translate(23.883 31.62)" fill="#fff"/>
    <path id="Path_17781" data-name="Path 17781" d="M16.034,21.652a.559.559,0,0,1-.574-.559.574.574,0,0,1,.574-.574H38.921a.574.574,0,0,1,0,1.132Z" transform="translate(7.85 10.541)" fill="#525666"/>
    <line id="Line_20" data-name="Line 20" y1="0.015" x2="12.078" transform="translate(29.303 39.863)" fill="#fff"/>
    <path id="Path_17782" data-name="Path 17782" d="M19.609,27.112a.559.559,0,0,1-.559-.559.574.574,0,0,1,.559-.574H31.686a.574.574,0,0,1,0,1.132Z" transform="translate(9.68 13.324)" fill="#525666"/>
    <path id="Path_17783" data-name="Path 17783" d="M47.515,13.231a.543.543,0,0,1-.362-.136,10.915,10.915,0,0,0-5.6-2.431.543.543,0,0,1-.468-.347.574.574,0,0,1,.091-.574,10.764,10.764,0,0,0,2.37-5.571.559.559,0,0,1,.921-.377,10.915,10.915,0,0,0,5.571,2.34.543.543,0,0,1,.468.347.574.574,0,0,1-.091.574,10.764,10.764,0,0,0-2.37,5.586.574.574,0,0,1-.347.468.528.528,0,0,1-.181.121ZM42.623,9.7a11.7,11.7,0,0,1,4.529,1.872A12.078,12.078,0,0,1,49.04,7.042,11.73,11.73,0,0,1,44.526,5.23a11.866,11.866,0,0,1-1.9,4.469Z" transform="translate(20.89 1.947)" fill="#c29b40"/>
    <g id="Group_11834" data-name="Group 11834" transform="translate(35.629 36.6)" opacity="0.2">
      <path id="Path_17784" data-name="Path 17784" d="M55.158,28.72A17.966,17.966,0,0,0,43.246,24.19C31.682,24.07,23.62,33.611,23.62,44.224" transform="translate(-23.62 -24.189)" fill="#244663"/>
    </g>
    <circle id="Ellipse_130" data-name="Ellipse 130" cx="17.256" cy="17.256" r="17.256" transform="translate(37.909 38.715)" fill="#fff"/>
    <ellipse id="Ellipse_131" data-name="Ellipse 131" cx="16.592" cy="17.256" rx="16.592" ry="17.256" transform="translate(37.909 38.715)" fill="rgba(194,155,64,0.67)"/>
    <path id="Path_17785" data-name="Path 17785" d="M39.059,57.394a17.724,17.724,0,0,1-7.065-1.51.559.559,0,0,1-.287-.74.574.574,0,0,1,.74-.3A16.7,16.7,0,0,0,54.307,32.786a.561.561,0,0,1,1.027-.453,17.543,17.543,0,0,1,1.51,7.247A17.83,17.83,0,0,1,39.059,57.394Z" transform="translate(16.106 16.392)" fill="#525666"/>
    <path id="Path_17786" data-name="Path 17786" d="M31.593,56.9a.544.544,0,0,1-.362-.136A17.815,17.815,0,1,1,55.643,30.923a.574.574,0,0,1,0,.8.559.559,0,0,1-.8,0A16.682,16.682,0,1,0,31.985,55.878a.574.574,0,0,1,0,.8A.649.649,0,0,1,31.593,56.9Z" transform="translate(12.596 12.941)" fill="#525666"/>
    <path id="Path_17787" data-name="Path 17787" d="M36.911,50.057a.574.574,0,0,1-.559-.559V31.1a.574.574,0,1,1,1.132,0V49.5A.574.574,0,0,1,36.911,50.057Z" transform="translate(18.495 15.592)" fill="#fff"/>
    <path id="Path_17788" data-name="Path 17788" d="M49.227,37.722h-18.4a.574.574,0,0,1-.574-.574.559.559,0,0,1,.574-.559h18.4a.559.559,0,0,1,.574.559.574.574,0,0,1-.574.574Z" transform="translate(15.388 18.732)" fill="#fff"/>
    <circle id="Ellipse_132" data-name="Ellipse 132" cx="1.268" cy="1.268" r="1.268" transform="translate(14.131 6.664)" fill="#c29b40"/>
  </g>
</svg>
