<svg xmlns="http://www.w3.org/2000/svg" width="47.198" height="47.201" viewBox="0 0 47.198 47.201">
  <g id="report-issue" transform="translate(-1567.549 -939.226)">
    <path id="Path_17850" data-name="Path 17850" d="M46.5,16.481l-3.808-3.808-1.159.594a5.543,5.543,0,0,1-7.481-7.483l.594-1.159L30.72.7a2.382,2.382,0,0,0-3.372,0L.7,27.35a2.382,2.382,0,0,0,0,3.372L4.568,34.59,5.724,34A5.543,5.543,0,0,1,13.2,41.477l-.589,1.157L16.479,46.5a2.382,2.382,0,0,0,3.372,0L46.5,19.853A2.382,2.382,0,0,0,46.5,16.481ZM33.1,22.965,22.987,33.076a1.789,1.789,0,0,1-2.53,0l-6.422-6.422a1.789,1.789,0,0,1,0-2.53L24.146,14.013a1.789,1.789,0,0,1,2.53,0L33.1,20.435A1.789,1.789,0,0,1,33.1,22.965Z" transform="translate(1567.548 939.226)" fill="#00253e"/>
  </g>
</svg>
