<svg id="Layer_2" data-name="Layer 2" xmlns="http://www.w3.org/2000/svg" width="76.453" height="76.776" viewBox="0 0 76.453 76.776">
  <g id="Layer_1" data-name="Layer 1">
    <g id="Group_11832" data-name="Group 11832" opacity="0.01">
      <rect id="Rectangle_2533" data-name="Rectangle 2533" width="76.453" height="76.776" fill="#fff"/>
    </g>
    <path id="Path_17765" data-name="Path 17765" d="M65.841,20.88a24.3,24.3,0,0,0-47.284,1.138,18.083,18.083,0,0,1-5.812,9.918,22.619,22.619,0,1,0,36.12,24.6,19.313,19.313,0,0,1,7.35-9.441A24.265,24.265,0,0,0,65.841,20.88Z" transform="translate(2.632 1.462)" fill="rgba(194,155,64,0.15)"/>
    <circle id="Ellipse_123" data-name="Ellipse 123" cx="1.984" cy="1.984" r="1.984" transform="translate(10.364 54.557)" fill="#c29b40"/>
    <path id="Path_17766" data-name="Path 17766" d="M19.172,48.455a6.195,6.195,0,0,1-6.212-6.2A11.317,11.317,0,0,1,24.2,31h1.83a.584.584,0,1,1,0,1.153H24.2A10.149,10.149,0,0,0,14.067,42.274,5.044,5.044,0,0,0,15.6,45.857a4.982,4.982,0,0,0,3.567,1.538h0l40.318-.169h0a.584.584,0,0,1,0,1.153Z" transform="translate(6.968 16.665)" fill="#525666"/>
    <path id="Path_17767" data-name="Path 17767" d="M52.161,46.561H18.547a1.384,1.384,0,0,1-1.384-1.23L13.35,14.7H67.169a1.092,1.092,0,0,1,1.061,1.43L60.741,40.241a8.98,8.98,0,0,1-8.58,6.32Z" transform="translate(7.178 7.904)" fill="#fff"/>
    <path id="Path_17768" data-name="Path 17768" d="M50.577,46.561H18.286a1.353,1.353,0,0,1-1.322-1.23L13.35,14.7H64.97a1.092,1.092,0,0,1,1.015,1.43L58.8,40.241a8.657,8.657,0,0,1-8.227,6.32Z" transform="translate(7.178 7.904)" fill="rgba(194,155,64,0.48)"/>
    <path id="Path_17769" data-name="Path 17769" d="M39.411,47.037H18.668A1.968,1.968,0,0,1,16.715,45.3L12.9,14.669a.584.584,0,0,1,.138-.446.6.6,0,0,1,.431-.2H39.2a.584.584,0,1,1,0,1.153H14.131l3.721,29.985a.815.815,0,0,0,.815.723H39.411a.569.569,0,0,1,.569.584.554.554,0,0,1-.569.569Z" transform="translate(6.935 7.536)" fill="#525666"/>
    <path id="Path_17770" data-name="Path 17770" d="M41.935,47.034H32.709a.569.569,0,0,1-.569-.569.584.584,0,0,1,.569-.584h9.226a8.35,8.35,0,0,0,8.027-5.9L57.45,15.865a.477.477,0,0,0-.077-.477.492.492,0,0,0-.415-.215H34.247a.584.584,0,0,1,0-1.153H56.958A1.676,1.676,0,0,1,58.5,16.2L51.069,40.314a9.5,9.5,0,0,1-9.134,6.72Z" transform="translate(17.281 7.538)" fill="#525666"/>
    <path id="Path_17771" data-name="Path 17771" d="M20.952,40.658a.6.6,0,0,1-.584-.507l-3.075-24.48a5.982,5.982,0,0,0-6-6.028H4.821a.584.584,0,0,1,0-1.153h6.474a7.119,7.119,0,0,1,7.119,7.1L21.49,40a.569.569,0,0,1-.507.646Z" transform="translate(2.329 4.565)" fill="#525666"/>
    <circle id="Ellipse_124" data-name="Ellipse 124" cx="5.536" cy="5.536" r="5.536" transform="translate(52.158 59.708)" fill="#fff"/>
    <path id="Path_17772" data-name="Path 17772" d="M39.671,50.7a6.151,6.151,0,1,1,6.151-6.151A6.151,6.151,0,0,1,39.671,50.7Zm0-11.071A4.967,4.967,0,1,0,44.622,44.6a4.967,4.967,0,0,0-4.951-4.967Z" transform="translate(18.023 20.647)" fill="#525666"/>
    <circle id="Ellipse_125" data-name="Ellipse 125" cx="5.536" cy="5.536" r="5.536" transform="translate(28.801 59.708)" fill="#fff"/>
    <path id="Path_17773" data-name="Path 17773" d="M24.481,50.7a6.151,6.151,0,1,1,6.151-6.151A6.151,6.151,0,0,1,24.481,50.7Zm0-11.071A4.967,4.967,0,1,0,29.447,44.6,4.967,4.967,0,0,0,24.481,39.63Z" transform="translate(9.856 20.647)" fill="#525666"/>
    <path id="Path_17774" data-name="Path 17774" d="M52.712,22.966H19.467a.584.584,0,1,1,0-1.153H52.712a.584.584,0,0,1,0,1.153Z" transform="translate(10.102 11.724)" fill="#fff"/>
    <path id="Path_17775" data-name="Path 17775" d="M43.063,27.943H24.011a.584.584,0,0,1,0-1.153H43.063a.584.584,0,0,1,0,1.153Z" transform="translate(12.647 14.404)" fill="#fff"/>
    <circle id="Ellipse_126" data-name="Ellipse 126" cx="3.168" cy="3.168" r="3.168" transform="translate(54.511 62.061)" fill="rgba(194,155,64,0.38)"/>
    <circle id="Ellipse_127" data-name="Ellipse 127" cx="3.168" cy="3.168" r="3.168" transform="translate(31.292 62.138)" fill="rgba(194,155,64,0.38)"/>
    <path id="Path_17776" data-name="Path 17776" d="M44.757,15.394h0a.584.584,0,0,1-.507-.308,10.21,10.21,0,0,0-4.059-4.059.554.554,0,0,1,0-1A10.21,10.21,0,0,0,44.25,5.968a.6.6,0,0,1,1.015,0,10.149,10.149,0,0,0,4.029,4.044.573.573,0,0,1,0,1,10.241,10.241,0,0,0-4.075,4.059.584.584,0,0,1-.461.323ZM41.6,10.519a10.964,10.964,0,0,1,3.183,3.168,11.348,11.348,0,0,1,3.183-3.168,11.61,11.61,0,0,1-3.183-3.183A11.21,11.21,0,0,1,41.6,10.519Z" transform="translate(21.44 3.058)" fill="#c29b40"/>
    <circle id="Ellipse_128" data-name="Ellipse 128" cx="1.292" cy="1.292" r="1.292" transform="translate(34.321 8.488)" fill="#c29b40"/>
  </g>
</svg>
