<svg xmlns="http://www.w3.org/2000/svg" width="40.991" height="44.724" viewBox="0 0 40.991 44.724">
  <g id="request-service" transform="translate(-1572.131 -938.183)">
    <g id="Group_12039" data-name="Group 12039" transform="translate(1569.297 936.183)">
      <path id="Path_17851" data-name="Path 17851" d="M41.239,21.372c-3.26-3.515-9.285-5.3-17.908-5.3s-14.647,1.782-17.908,5.3C2.9,24.091,2.8,26.014,2.841,27.821a1.524,1.524,0,0,0,1.525,1.5h37.9a1.554,1.554,0,0,0,1.556-1.534C43.86,25.98,43.742,24.071,41.239,21.372Z" transform="translate(0 17.399)" fill="#00253e"/>
      <path id="Path_17852" data-name="Path 17852" d="M7.887,25.346H9.75a1.481,1.481,0,0,0,1.48-1.48,3.808,3.808,0,0,0-.036-.385,11.65,11.65,0,0,1-.391-2.934V17.271a11.916,11.916,0,1,1,23.831,0v1.621c-.642,9.745-3.209,9.763-4.622,9.766a1.677,1.677,0,1,0,0,3.354c2.871,0,5.62-.986,7.064-6.666h.472c2.683,0,4.557-2.648,4.557-6.438s-1.874-6.438-4.557-6.438H37.2a15.255,15.255,0,0,0-28.97,0H7.887c-2.683,0-4.557,2.648-4.557,6.438S5.2,25.346,7.887,25.346Z" transform="translate(0.612 0)" fill="#00253e"/>
      <path id="Path_17853" data-name="Path 17853" d="M25.275,13.556a8.557,8.557,0,0,0-17.114,0v3.985a8.556,8.556,0,1,0,17.111,0V13.556Z" transform="translate(6.585 3.709)" fill="#00253e"/>
    </g>
  </g>
</svg>
