<svg xmlns="http://www.w3.org/2000/svg" width="48.212" height="43.584" viewBox="0 0 48.212 43.584">
  <g id="solutions" transform="translate(-1564.788 -941.02)">
    <g id="Group_12038" data-name="Group 12038" transform="translate(1562.788 938.02)">
      <path id="Path_17847" data-name="Path 17847" d="M15.923,3.1A4.276,4.276,0,0,0,12.75,7.281V38.3H26.136A1.808,1.808,0,0,0,27.942,36.5V4.808A1.809,1.809,0,0,0,26.134,3H16.807A7.2,7.2,0,0,0,15.923,3.1Z" transform="translate(15.164 0)" fill="#00253e"/>
      <path id="Path_17848" data-name="Path 17848" d="M4.947,4.808V36.5A1.809,1.809,0,0,0,6.755,38.3H20.141V7.281A4.276,4.276,0,0,0,16.969,3.1a7.187,7.187,0,0,0-.887-.1H6.755A1.809,1.809,0,0,0,4.947,4.808Z" transform="translate(4.157 0)" fill="#00253e"/>
      <path id="Path_17849" data-name="Path 17849" d="M46.724,4.953V37.477a1.686,1.686,0,0,1-1.687,1.687H7.176a1.686,1.686,0,0,1-1.687-1.687V4.953A3.608,3.608,0,0,0,2,8.557V40.213a3.617,3.617,0,0,0,3.616,3.616H46.6a3.617,3.617,0,0,0,3.616-3.616V8.557A3.608,3.608,0,0,0,46.724,4.953Z" transform="translate(0 2.755)" fill="#00253e"/>
    </g>
  </g>
</svg>
