<svg xmlns="http://www.w3.org/2000/svg" width="68.409" height="75.38" viewBox="0 0 68.409 75.38">
  <g id="solutions-b92af929b22b50b2f6d6330b65daea638744f33bf88b1a6716dfc155539dcba4" transform="translate(-4.933 -3.29)">
    <path id="Path_17754" data-name="Path 17754" d="M52.366,25.593A19.375,19.375,0,1,0,18.157,38.03,27.957,27.957,0,0,1,24.63,56.106v1.039H41.037v-.63a30.343,30.343,0,0,1,7.1-18.843A19.3,19.3,0,0,0,52.366,25.593Z" transform="translate(6.108 2.059)" fill="#fff"/>
    <path id="Path_17756" data-name="Path 17756" d="M41.152,44.51a.562.562,0,0,1-.29,0,.613.613,0,0,1-.273-.852,34.721,34.721,0,0,1,3.918-6.031,18.485,18.485,0,0,0,4.106-11.738A18.781,18.781,0,0,0,25.751,7.523a18.059,18.059,0,0,0-6.661,2.913.647.647,0,0,1-.9-.153.63.63,0,0,1,.17-.886,19.166,19.166,0,0,1,7.121-3.118A20.031,20.031,0,0,1,45.565,38.291,34.908,34.908,0,0,0,41.8,44.169a.613.613,0,0,1-.647.341Z" transform="translate(9.247 1.764)" fill="#525666"/>
    <path id="Path_17757" data-name="Path 17757" d="M41.3,54.63H24.894a.647.647,0,0,1-.63-.647V52.944a27.412,27.412,0,0,0-6.321-17.65A20.033,20.033,0,0,1,16.8,10.982a.63.63,0,0,1,.886-.153.647.647,0,0,1,.17.886,21.96,21.96,0,0,0-1.21,1.976,18.4,18.4,0,0,0-1.7,4.413,18.741,18.741,0,0,0,3.9,16.389,28.673,28.673,0,0,1,6.7,18.451v.409H40.653a27.889,27.889,0,0,1,1.141-7.615.647.647,0,1,1,1.227.358,26.6,26.6,0,0,0-1.039,7.258v.63a.647.647,0,0,1-.681.647Z" transform="translate(5.844 5.222)" fill="#525666"/>
    <path id="Path_17758" data-name="Path 17758" d="M37.631,39H20.117a.647.647,0,0,1-.647-.647.63.63,0,0,1,.647-.63H37.631a.63.63,0,0,1,.647.63.647.647,0,0,1-.647.647Z" transform="translate(10.23 24.228)" fill="#525666"/>
    <path id="Path_17759" data-name="Path 17759" d="M34.932,39.59a7.036,7.036,0,0,1-14.072,0Z" transform="translate(11.208 25.544)" fill="#fff"/>
    <path id="Path_17761" data-name="Path 17761" d="M28.167,47.527A7.684,7.684,0,0,1,20.5,39.861v-.647H31.9a.647.647,0,1,1,0,1.278h-10.1a6.389,6.389,0,0,0,12.744-.63.647.647,0,0,1,.647-.647.63.63,0,0,1,.63.647,7.684,7.684,0,0,1-7.65,7.667Z" transform="translate(10.954 25.273)" fill="#525666"/>
    <path id="Path_17762" data-name="Path 17762" d="M27.226,43.575a.647.647,0,0,1-.647-.647V27.714h-3.85a4.31,4.31,0,0,1,0-8.6h.835a4.31,4.31,0,0,1,4.293,4.31v3.016h3.135a.647.647,0,0,1,.647.647.63.63,0,0,1-.647.63H27.857V42.927A.647.647,0,0,1,27.226,43.575Zm-4.5-23.187a3.033,3.033,0,0,0,0,6.048h3.85V23.42a3.033,3.033,0,0,0-3.016-3.033Z" transform="translate(9.68 11.132)" fill="#525666"/>
    <path id="Path_17763" data-name="Path 17763" d="M28.12,43.575a.647.647,0,0,1-.647-.647V27.714H24.337a.63.63,0,0,1-.647-.63.647.647,0,0,1,.647-.647h3.135V23.42a4.31,4.31,0,0,1,4.31-4.31H32.6a4.31,4.31,0,0,1,0,8.6H28.75V42.927a.647.647,0,0,1-.63.647Zm.63-17.139H32.6a3.033,3.033,0,0,0,0-6.048h-.818A3.033,3.033,0,0,0,28.75,23.42Z" transform="translate(13.199 11.132)" fill="#525666"/>
    <g id="Group_11827" data-name="Group 11827">
      <path id="Path_17753" data-name="Path 17753" d="M72.143,23.1a26.611,26.611,0,0,0-51.758,1.261,19.763,19.763,0,0,1-6.406,10.8A24.754,24.754,0,1,0,53.522,62.05a21.194,21.194,0,0,1,8.041-10.324A26.56,26.56,0,0,0,72.143,23.1Z" transform="translate(0.319)" fill="rgba(194,155,64,0.15)"/>
      <g id="Group_11828" data-name="Group 11828">
        <path id="Path_17764" data-name="Path 17764" d="M38.422,18.946a.613.613,0,0,1-.579-.392A14.311,14.311,0,0,0,26.905,9.286a.647.647,0,0,1-.511-.75.613.613,0,0,1,.733-.511A15.521,15.521,0,0,1,39.053,18.06a.63.63,0,0,1-.341.835Z" transform="translate(15.095 3.323)" fill="rgba(194,155,64,0.43)"/>
        <path id="Path_17760" data-name="Path 17760" d="M33.234,39.59a6.661,6.661,0,0,1-6.184,7.036,6.661,6.661,0,0,1-6.184-7.036Z" transform="translate(11.203 25.544)" fill="rgba(194,155,64,0.43)"/>
      </g>
      <g id="Group_11829" data-name="Group 11829">
        <circle id="Ellipse_121" data-name="Ellipse 121" cx="1.431" cy="1.431" r="1.431" transform="translate(20.704 61.147)" fill="#c29b40"/>
        <path id="Path_17755" data-name="Path 17755" d="M12.237,32.581a.6.6,0,0,1-.375-.153A12.386,12.386,0,0,0,5.507,29.77.613.613,0,0,1,5,29.378a.647.647,0,0,1,.051-.647,12.284,12.284,0,0,0,2.675-6.3.613.613,0,0,1,.392-.528.647.647,0,0,1,.647.1,12.266,12.266,0,0,0,6.321,2.658.6.6,0,0,1,.511.392.647.647,0,0,1-.085.647A12.011,12.011,0,0,0,12.833,32a.655.655,0,0,1-.6.579Zm-5.486-3.9a13.323,13.323,0,0,1,5.111,2.113,13.629,13.629,0,0,1,2.13-5.111,13.323,13.323,0,0,1-5.111-2.113,13.357,13.357,0,0,1-2.13,5.111Z" transform="translate(0 13.063)" fill="#c29b40"/>
        <circle id="Ellipse_122" data-name="Ellipse 122" cx="2.351" cy="2.351" r="2.351" transform="translate(63.705 24.177)" fill="#c29b40"/>
      </g>
    </g>
  </g>
</svg>
