<svg xmlns="http://www.w3.org/2000/svg" width="191.43" height="188.855" viewBox="0 0 191.43 188.855">
  <g id="New-Requester-Portal" transform="translate(-0.11 -0.5)">
    <g id="_08-Ticket-list" data-name="08-Ticket-list" transform="translate(-541 -188)">
      <g id="Group-4" transform="translate(16 72)">
        <g id="Base">
          <g id="No-tickets" transform="translate(525 116)">
            <g id="Artboard-Copy-5">
              <g id="Group">
                <g id="Group-45" transform="translate(11 34)">
                  <g id="Fill-1" transform="translate(96 81)">
                    <path id="Path" d="M2.44,59.22,58.77,2.89A9,9,0,0,1,71.49,15.61L15.16,71.94A9,9,0,0,1,2.44,59.22" fill="rgba(226,207,163,0.16)" fill-rule="evenodd"/>
                  </g>
                  <g id="Group-5" transform="translate(0 83)">
                    <g id="Fill-3">
                      <path id="Path-2" data-name="Path" d="M3.8,11.76l8.71-8.71A9,9,0,1,1,25.23,15.77l-8.71,8.71A9,9,0,1,1,3.8,11.76" fill="rgba(226,207,163,0.16)" fill-rule="evenodd"/>
                    </g>
                  </g>
                  <g id="Fill-6" transform="translate(102 85)">
                    <path id="Path-3" data-name="Path" d="M.45,26.29,26.19.55A9,9,0,0,0,38.91,13.26L13.16,39A9,9,0,1,0,.45,26.28" fill="#f1f3f8" fill-rule="evenodd"/>
                  </g>
                  <g id="Fill-8" transform="translate(91 48)">
                    <path id="Path-4" data-name="Path" d="M.44,24.07,24.56,0A9,9,0,0,0,37.28,12.72L13.16,36.84A9,9,0,0,0,.44,24.12" fill="#f1f3f8" fill-rule="evenodd"/>
                  </g>
                  <g id="Fill-10" transform="translate(80 32)">
                    <path id="Path-5" data-name="Path" d="M2.9,73.53,73.27,3.16A9,9,0,0,1,86,15.87L15.63,86.25A9,9,0,0,1,2.9,73.53" fill="rgba(226,207,163,0.16)" fill-rule="evenodd"/>
                  </g>
                  <g id="Fill-12" transform="translate(11 25)">
                    <path id="Path-6" data-name="Path" d="M2.75,99.61l95.8-95.8a9,9,0,1,1,12.71,12.72L15.47,112.32A9,9,0,0,1,2.75,99.61" fill="rgba(226,207,163,0.15)" fill-rule="evenodd"/>
                  </g>
                  <g id="Fill-14" transform="translate(28 23)">
                    <path id="Path-7" data-name="Path" d="M2.69,38.54,38.23,3A9.009,9.009,0,1,1,51,15.71L15.4,51.26A9,9,0,0,1,2.69,38.54" fill="#f1f3f8" fill-rule="evenodd"/>
                  </g>
                  <g id="Fill-16" transform="translate(86)">
                    <path id="Path-8" data-name="Path" d="M3.49,2.74l.21-.21A9,9,0,0,1,16.42,15.25l-.22.21a9,9,0,0,1-12.71,0h0a9,9,0,0,1,0-12.72" fill="rgba(226,207,163,0.16)" fill-rule="evenodd"/>
                  </g>
                  <g id="Fill-18" transform="translate(59 122)">
                    <path id="Path-9" data-name="Path" d="M3.22,3.61l.21-.21A9,9,0,1,1,16.15,16.11l-.21.22a9,9,0,0,1-12.72,0h0a9,9,0,0,1,0-12.72" fill="rgba(226,207,163,0.16)" fill-rule="evenodd"/>
                  </g>
                </g>
                <g id="Group-48" transform="translate(0 50)">
                  <g id="Stroke-15" transform="translate(185 99)">
                    <path id="Shape" d="M3.28,6A2.72,2.72,0,1,1,6,3.28,2.72,2.72,0,0,1,3.28,6Zm0-3.43a.3.3,0,1,0,0-.02Z" fill="#e2cfa3"/>
                  </g>
                  <g id="Group-23" transform="translate(0 13)">
                    <g id="Stroke-19" transform="translate(4)">
                      <path id="Path-10" data-name="Path" d="M1.36,10.94a1,1,0,0,1-1-1V1.44a1,1,0,1,1,2,0v8.5A1,1,0,0,1,1.36,10.94Z" fill="#e2cfa3"/>
                    </g>
                    <g id="Stroke-21" transform="translate(0 4)">
                      <path id="Path-11" data-name="Path" d="M9.61,2.69H1.11a1,1,0,0,1,0-2h8.5a1,1,0,0,1,0,2Z" fill="#e2cfa3"/>
                    </g>
                  </g>
                  <g id="Stroke-24" transform="translate(57 9)">
                    <path id="Shape-2" data-name="Shape" d="M3.68,5.62A2.72,2.72,0,1,1,6.4,2.9,2.72,2.72,0,0,1,3.68,5.62Zm0-3.43a.72.72,0,1,0,.72.71.72.72,0,0,0-.72-.71Z" fill="#c8d6ec"/>
                  </g>
                  <g id="Stroke-26" transform="translate(186 46)">
                    <path id="Shape-3" data-name="Shape" d="M2.82,5.82A2.72,2.72,0,1,1,5.54,3.1,2.72,2.72,0,0,1,2.82,5.82Zm0-3.43a.72.72,0,1,0,.72.71.71.71,0,0,0-.72-.71Z" fill="#e2cfa3"/>
                  </g>
                  <g id="Stroke-28" transform="translate(91)">
                    <path id="Shape-4" data-name="Shape" d="M2.49,6.49a1.09,1.09,0,0,1-.5-.13,1,1,0,0,1-.47-.61L.69,2.69a1,1,0,0,1,.7-1.23L4.45.62a1,1,0,0,1,1.23.7l.84,3.07a1,1,0,0,1-.7,1.23l-3.07.83a.75.75,0,0,1-.26.04Zm.39-3.37.31,1.14L4.32,4,4,2.81Z" fill="#e2cfa3"/>
                  </g>
                  <g id="Stroke-35" transform="translate(35 61)">
                    <path id="Shape-5" data-name="Shape" d="M3.39,6.65a3,3,0,1,1,3-3A3,3,0,0,1,3.39,6.65Zm0-4a1,1,0,1,0,1,1A1,1,0,0,0,3.39,2.65Z" fill="#e2cfa3"/>
                  </g>
                </g>
                <g id="Group-11" transform="translate(33 4)">
                  <g id="Stroke-1">
                    <path id="Shape-6" data-name="Shape" d="M81.37,140.08h-.08c-.63-.11-1.33-.24-2.09-.4a.5.5,0,0,1-.39-.59.51.51,0,0,1,.59-.39c.75.16,1.44.29,2.06.39a.5.5,0,1,1-.09,1Zm-4.13-.84h-.11c-.66-.15-1.35-.31-2.07-.5a.515.515,0,0,1,.25-1l2,.5a.5.5,0,0,1,.38.6.51.51,0,0,1-.45.4Zm-4.09-1.06a.316.316,0,0,1-.13,0c-.67-.19-1.35-.39-2-.61a.522.522,0,1,1,.3-1l2,.6a.5.5,0,1,1-.14,1Zm-4-1.28a.485.485,0,0,1-.17,0c-.66-.23-1.32-.48-2-.74a.5.5,0,1,1,.36-.93c.66.25,1.31.5,2,.72a.51.51,0,0,1,.31.64.49.49,0,0,1-.51.31Zm-3.93-1.52a.45.45,0,0,1-.2,0c-.65-.27-1.29-.56-1.94-.87a.49.49,0,0,1-.24-.66.5.5,0,0,1,.67-.24c.63.3,1.27.58,1.9.85a.51.51,0,0,1,.27.66.5.5,0,0,1-.47.26Zm-3.81-1.8a.463.463,0,0,1-.23-.06c-.63-.32-1.25-.67-1.87-1a.5.5,0,0,1,.51-.87c.6.35,1.21.69,1.82,1a.5.5,0,0,1-.23.94Zm-3.64-2.12a.449.449,0,0,1-.27-.08c-.6-.38-1.19-.78-1.76-1.2a.5.5,0,0,1-.11-.7.51.51,0,0,1,.7-.11c.56.41,1.13.8,1.71,1.18a.5.5,0,0,1,.15.69.521.521,0,0,1-.43.22ZM54.36,129a.537.537,0,0,1-.32-.11c-.56-.46-1.1-.94-1.61-1.42a.49.49,0,0,1,0-.7.5.5,0,0,1,.71,0c.49.46,1,.92,1.56,1.37a.5.5,0,0,1-.32.88Zm-3.06-2.89a.491.491,0,0,1-.37-.16,17.048,17.048,0,0,1-1.38-1.63.51.51,0,0,1,.08-.71.5.5,0,0,1,.7.09c.42.54.87,1.06,1.34,1.57a.51.51,0,0,1,0,.71.5.5,0,0,1-.37.11Zm-2.58-3.31a.509.509,0,0,1-.42-.23c-.39-.6-.76-1.22-1.09-1.85a.5.5,0,0,1,.89-.47,20.084,20.084,0,0,0,1,1.78.5.5,0,0,1-.15.69.528.528,0,0,1-.23.06Zm-2-3.71a.511.511,0,0,1-.46-.31,21.148,21.148,0,0,1-.72-2,.51.51,0,0,1,.33-.63.5.5,0,0,1,.62.33,20.521,20.521,0,0,0,.7,1.94A.5.5,0,0,1,47,119a.41.41,0,0,1-.24.07Zm-1.22-4a.51.51,0,0,1-.49-.4c-.14-.7-.26-1.41-.34-2.12a.5.5,0,1,1,1-.11c.08.68.18,1.36.32,2a.51.51,0,0,1-.39.59Zm-.47-4.18a.5.5,0,0,1-.5-.48v-2.15a.5.5,0,1,1,1,.06v2.06a.491.491,0,0,1-.49.51ZM89,110a.5.5,0,0,1,0-1c.71,0,1.41,0,2.09-.05a.5.5,0,0,1,0,1c-.69,0-1.4,0-2.12.05Zm-2.11,0h0l-2.11-.06a.51.51,0,0,1-.48-.53.491.491,0,0,1,.52-.47l2.09.06a.5.5,0,0,1,.49.51.491.491,0,0,1-.53.49Zm6.31-.14a.5.5,0,0,1,0-1,20.347,20.347,0,0,0,2.08-.17.5.5,0,1,1,.1,1c-.69.07-1.4.13-2.12.18Zm-10.51,0h0c-.69,0-1.39-.1-2.11-.17a.49.49,0,0,1-.45-.54.5.5,0,0,1,.54-.45l2.09.17a.5.5,0,0,1,.47.53.51.51,0,0,1-.56.41Zm-4.2-.39h0c-.69-.08-1.39-.16-2.1-.26a.491.491,0,0,1-.43-.56.5.5,0,0,1,.56-.43l2.08.26a.5.5,0,1,1-.06,1Zm18.89,0a.5.5,0,0,1-.07-1c.71-.1,1.39-.21,2.06-.33a.508.508,0,0,1,.18,1c-.68.12-1.38.24-2.1.34Zm-23.06-.55h-.07l-2.09-.34a.489.489,0,0,1-.41-.57.5.5,0,0,1,.58-.41q1,.18,2.07.33a.5.5,0,0,1,.42.57.51.51,0,0,1-.52.37Zm27.2-.2a.5.5,0,1,1-.11-1c.69-.16,1.36-.33,2-.51a.517.517,0,1,1,.26,1c-.67.18-1.35.35-2.06.51Zm-31.35-.5h-.09l-2.07-.4a.51.51,0,0,1-.4-.59.5.5,0,0,1,.59-.39l2.06.39a.5.5,0,0,1,.4.59.49.49,0,0,1-.51.35Zm35.4-.61a.5.5,0,0,1-.47-.35.49.49,0,0,1,.32-.63c.67-.22,1.32-.45,1.95-.7a.51.51,0,0,1,.65.29.5.5,0,0,1-.29.64c-.64.25-1.31.49-2,.72a.439.439,0,0,1-.18-.02ZM66,107.34h-.1c-.68-.14-1.37-.3-2.06-.46a.5.5,0,1,1,.22-.97l2,.46a.49.49,0,0,1,.38.59A.5.5,0,0,1,66,107.34Zm-20.72-.66h-.07a.491.491,0,0,1-.43-.56c.09-.69.2-1.4.34-2.11a.49.49,0,0,1,.59-.39.48.48,0,0,1,.39.58c-.13.69-.24,1.38-.33,2a.5.5,0,0,1-.47.48Zm16.62-.28h-.12l-2-.51a.5.5,0,0,1-.35-.61.49.49,0,0,1,.6-.36l2,.51a.51.51,0,0,1,.37.61.5.5,0,0,1-.48.36Zm47.55-.37a.511.511,0,0,1-.21-1c.64-.29,1.26-.6,1.85-.92a.5.5,0,0,1,.48.88c-.61.33-1.25.65-1.91,1a.528.528,0,0,1-.19.01Zm-51.62-.68h-.14l-2-.56a.51.51,0,0,1-.35-.62.5.5,0,0,1,.62-.34l2,.56a.5.5,0,1,1-.13,1Zm-4.06-1.15a.366.366,0,0,1-.14,0l-2-.6a.51.51,0,0,1-.33-.63.5.5,0,0,1,.62-.33l2,.6a.5.5,0,0,1,.33.62.491.491,0,0,1-.46.34Zm59.38-.16a.5.5,0,0,1-.27-.92c.59-.37,1.17-.76,1.72-1.16a.5.5,0,0,1,.59.81c-.57.42-1.17.82-1.78,1.19a.415.415,0,0,1-.24.04ZM49.77,103a.379.379,0,0,1-.15,0l-2-.65a.49.49,0,0,1-.32-.63.5.5,0,0,1,.63-.32l2,.65a.49.49,0,0,1,.32.62A.479.479,0,0,1,49.77,103Zm-3.67-.42H46a.51.51,0,0,1-.36-.61,2.7,2.7,0,0,0,.07-.27h-.07l-2-.68a.5.5,0,1,1,.33-.95l2,.68h0c.08-.27.16-.54.25-.82a.5.5,0,1,1,.96.3c-.22.68-.41,1.34-.58,2a.5.5,0,0,1-.5.32Zm70.47-1a.518.518,0,0,1-.38-.17.51.51,0,0,1,.06-.71c.53-.44,1-.91,1.53-1.39a.49.49,0,0,1,.7,0,.5.5,0,0,1,0,.71q-.761.74-1.59,1.44a.485.485,0,0,1-.32.11ZM41.79,100.3a.486.486,0,0,1-.17,0c-.66-.24-1.32-.47-2-.72a.49.49,0,0,1-.3-.64.5.5,0,0,1,.64-.3c.66.25,1.32.48,2,.72a.49.49,0,0,1,.3.63.5.5,0,0,1-.47.3Zm-4-1.45a.511.511,0,0,1-.17,0l-2-.74a.5.5,0,0,1,.35-.94l2,.75a.508.508,0,1,1-.18,1Zm81.74-.21a.542.542,0,0,1-.33-.12.5.5,0,0,1,0-.71c.45-.52.89-1.06,1.29-1.61a.51.51,0,0,1,.7-.1.5.5,0,0,1,.1.7c-.42.57-.87,1.13-1.34,1.67a.52.52,0,0,1-.38.16Zm-72.19-.09a.481.481,0,0,1-.2,0,.5.5,0,0,1-.26-.66c.16-.38.45-1,.89-1.94a.5.5,0,0,1,.9.43c-.43.87-.71,1.53-.87,1.9a.51.51,0,0,1-.42.26Zm-13.48-1.2a.572.572,0,0,1-.18,0l-2-.78a.5.5,0,0,1-.28-.65.51.51,0,0,1,.65-.28c.65.27,1.31.52,2,.78a.5.5,0,0,1,.29.64.51.51,0,0,1-.44.28ZM30,95.78a.63.63,0,0,1-.19,0l-1.95-.8a.5.5,0,1,1,.38-.93l2,.8a.49.49,0,0,1,.27.65A.48.48,0,0,1,30,95.78Zm92.09-.53a.478.478,0,0,1-.26-.07.491.491,0,0,1-.16-.69,19.945,19.945,0,0,0,1-1.8.5.5,0,1,1,.89.46c-.33.64-.69,1.26-1.07,1.87a.48.48,0,0,1-.41.23Zm-72.86-.51a.46.46,0,0,1-.23-.06.5.5,0,0,1-.21-.68c.31-.57.66-1.19,1-1.85a.5.5,0,0,1,.86.5c-.38.65-.72,1.26-1,1.83a.51.51,0,0,1-.43.26Zm-23.12-.57a.409.409,0,0,1-.19,0L24,93.31a.5.5,0,0,1-.27-.66.51.51,0,0,1,.66-.26l1.93.82a.509.509,0,1,1-.19,1Zm-3.83-1.74a.49.49,0,0,1-.3-.1c-.34-.26-.91-.71-1.67-1.34a.5.5,0,0,1,.64-.77c.74.62,1.31,1.06,1.64,1.31a.5.5,0,0,1,.09.7.51.51,0,0,1-.41.2ZM124,91.52a.712.712,0,0,1-.2,0,.52.52,0,0,1-.27-.66c.27-.64.51-1.29.71-1.93a.5.5,0,0,1,.63-.33.51.51,0,0,1,.33.63c-.22.67-.46,1.35-.74,2A.511.511,0,0,1,124,91.52ZM51.34,91.1a.47.47,0,0,1-.27-.08.5.5,0,0,1-.15-.69q.54-.85,1.17-1.77a.5.5,0,0,1,.7-.13.51.51,0,0,1,.13.69c-.41.6-.8,1.18-1.16,1.75a.48.48,0,0,1-.4.23ZM19,89.73a.5.5,0,0,1-.34-.13c-.49-.43-1-.91-1.56-1.43a.5.5,0,0,1,0-.71.49.49,0,0,1,.7,0c.55.51,1.07,1,1.55,1.41a.5.5,0,0,1-.33.88Zm34.72-2.11a.53.53,0,0,1-.3-.09.51.51,0,0,1-.11-.7c.41-.56.84-1.12,1.29-1.69a.5.5,0,0,1,.79.62c-.45.56-.87,1.11-1.27,1.66a.51.51,0,0,1-.37.2Zm71.52-.13h-.09a.49.49,0,0,1-.4-.58c.07-.37.1-.58.1-.59V84.89a.5.5,0,0,1,1,0v1.5a2.626,2.626,0,0,1-.12.71.49.49,0,0,1-.46.39ZM16,86.84a.5.5,0,0,1-.35-.15c-.48-.48-1-1-1.48-1.52a.5.5,0,0,1,0-.71.49.49,0,0,1,.7,0q.75.8,1.47,1.5a.527.527,0,0,1-.34.88Zm40.41-2.52A.5.5,0,0,1,56,83.5c.45-.53.92-1.07,1.41-1.6a.5.5,0,0,1,.74.68c-.48.52-.94,1-1.39,1.56a.49.49,0,0,1-.4.18ZM13.1,83.77a.5.5,0,0,1-.37-.16c-.46-.52-.92-1-1.39-1.61a.49.49,0,0,1,.06-.7.51.51,0,0,1,.71.06c.46.55.91,1.07,1.37,1.58a.51.51,0,0,1,0,.71.54.54,0,0,1-.43.12Zm112.07-.47a.491.491,0,0,1-.49-.41,16.138,16.138,0,0,0-.47-2,.51.51,0,0,1,.33-.63.5.5,0,0,1,.62.33,19.1,19.1,0,0,1,.51,2.11.5.5,0,0,1-.41.57ZM59.21,81.21a.5.5,0,0,1-.36-.85c.49-.5,1-1,1.52-1.48a.5.5,0,0,1,.71,0,.48.48,0,0,1,0,.7c-.51.49-1,1-1.49,1.46a.49.49,0,0,1-.38.17Zm-48.86-.67a.5.5,0,0,1-.4-.19c-.43-.55-.86-1.11-1.28-1.69a.5.5,0,1,1,.81-.59c.41.57.84,1.12,1.26,1.67a.5.5,0,0,1-.08.7.52.52,0,0,1-.31.1Zm113.54-1.25a.49.49,0,0,1-.45-.29,17.384,17.384,0,0,0-1-1.81.5.5,0,1,1,.86-.52,16.881,16.881,0,0,1,1,1.92.51.51,0,0,1-.25.66.52.52,0,0,1-.16.04Zm-61.62-1a.46.46,0,0,1-.37-.18.49.49,0,0,1,0-.7c.53-.46,1.08-.92,1.63-1.37a.52.52,0,0,1,.71.08.49.49,0,0,1-.08.7c-.55.44-1.08.89-1.6,1.34a.46.46,0,0,1-.29.17ZM7.86,77.14a.5.5,0,0,1-.41-.22c-.39-.58-.78-1.18-1.16-1.79a.5.5,0,0,1,.86-.52c.36.59.74,1.18,1.13,1.75a.5.5,0,0,1-.14.69A.47.47,0,0,1,7.86,77.14ZM121.72,75.7a.5.5,0,0,1-.4-.19A19.363,19.363,0,0,0,120,74a.479.479,0,0,1,0-.7.5.5,0,0,1,.71,0,19.548,19.548,0,0,1,1.41,1.63.5.5,0,0,1-.09.7A.491.491,0,0,1,121.72,75.7Zm-56.16,0a.5.5,0,0,1-.3-.9c.56-.42,1.14-.83,1.73-1.23a.5.5,0,0,1,.7.13.51.51,0,0,1-.14.7c-.58.39-1.15.79-1.7,1.2a.46.46,0,0,1-.29.09ZM5.65,73.56a.51.51,0,0,1-.44-.26c-.34-.62-.68-1.24-1-1.88a.5.5,0,0,1,.23-.67.51.51,0,0,1,.67.22c.31.63.64,1.24,1,1.84a.49.49,0,0,1-.19.68A.42.42,0,0,1,5.65,73.56ZM69,73.33a.5.5,0,0,1-.43-.24.51.51,0,0,1,.17-.69c.59-.36,1.2-.72,1.83-1.07a.5.5,0,0,1,.68.19.51.51,0,0,1-.19.68q-.91.51-1.8,1A.42.42,0,0,1,69,73.33Zm49.76-.66a.49.49,0,0,1-.32-.12c-.51-.44-1.06-.87-1.63-1.27a.51.51,0,0,1-.11-.7.5.5,0,0,1,.7-.12c.59.43,1.16.88,1.69,1.33a.51.51,0,0,1,.05.71.52.52,0,0,1-.34.17Zm-46.09-1.4a.51.51,0,0,1-.45-.27.5.5,0,0,1,.23-.67c.62-.32,1.26-.63,1.91-.92a.5.5,0,0,1,.66.25.49.49,0,0,1-.25.66c-.63.29-1.26.59-1.87.9a.48.48,0,0,1-.19.05Zm42.68-1.06a.589.589,0,0,1-.26-.07,19.848,19.848,0,0,0-1.81-1,.5.5,0,0,1-.22-.67.52.52,0,0,1,.68-.22c.63.33,1.26.68,1.87,1a.51.51,0,0,1,.17.69.52.52,0,0,1-.39.27ZM3.76,69.79a.49.49,0,0,1-.45-.3c-.29-.64-.56-1.3-.81-2a.5.5,0,1,1,.93-.35c.25.65.51,1.29.79,1.92a.5.5,0,0,1-.26.66A.45.45,0,0,1,3.76,69.79Zm72.78-.25a.51.51,0,0,1-.46-.31.5.5,0,0,1,.28-.65c.65-.26,1.31-.51,2-.75a.527.527,0,1,1,.33,1c-.66.23-1.31.47-2,.73a.58.58,0,0,1-.15-.02Zm35.1-1.26a.481.481,0,0,1-.2,0c-1.11-.47-1.83-.68-1.84-.69a.53.53,0,0,1-.38-.61.461.461,0,0,1,.54-.38h.1a17.663,17.663,0,0,1,2,.73.509.509,0,0,1-.19,1Zm-31.13-.13a.5.5,0,0,1-.14-1c.67-.21,1.35-.4,2-.57a.48.48,0,0,1,.6.36.49.49,0,0,1-.36.6c-.68.18-1.34.36-2,.56a.39.39,0,0,1-.1.05Zm27.08-1h-.09c-.7-.13-1.38-.25-2.06-.35a.5.5,0,1,1,.15-.99l2.09.36a.5.5,0,1,1-.09,1Zm-23,0a.5.5,0,0,1-.49-.39.51.51,0,0,1,.39-.6c.68-.14,1.38-.27,2.08-.39a.5.5,0,0,1,.17.99c-.69.11-1.38.24-2,.38Zm18.84-.62h-.06c-.7-.09-1.39-.17-2.08-.23a.5.5,0,1,1,.09-1c.7.07,1.4.14,2.11.23a.5.5,0,1,1-.06,1Zm-14.69-.07a.51.51,0,0,1-.5-.44.5.5,0,0,1,.43-.56c.7-.09,1.4-.16,2.11-.22a.5.5,0,1,1,.09.99c-.7.06-1.39.14-2.07.22Zm10.5-.32h0L97.12,66a.52.52,0,0,1-.49-.51.5.5,0,0,1,.52-.49l2.12.09a.5.5,0,0,1,0,1Zm-6.31,0a.49.49,0,0,1-.5-.47.5.5,0,0,1,.47-.53c.7,0,1.41,0,2.12-.06h0a.5.5,0,0,1,0,1C94.31,66.08,93.62,66.08,92.93,66.14ZM2.28,65.95a.49.49,0,0,1-.48-.35c-.21-.67-.41-1.36-.58-2.05a.51.51,0,0,1,.37-.61.49.49,0,0,1,.6.37c.17.67.36,1.34.56,2a.49.49,0,0,1-.32.63.39.39,0,0,1-.15-.08Zm-1-4.08a.49.49,0,0,1-.49-.41c-.13-.71-.23-1.42-.31-2.12a.5.5,0,0,1,1-.11c.07.68.17,1.37.29,2a.5.5,0,0,1-.4.58ZM.83,57.69a.5.5,0,0,1-.5-.48V55.04a.5.5,0,1,1,1,.04v2.06a.5.5,0,0,1-.48.52ZM1,53.4H.94a.5.5,0,0,1-.44-.56c.08-.7.2-1.42.33-2.11a.51.51,0,0,1,.59-.4.5.5,0,0,1,.39.59c-.13.67-.24,1.36-.32,2A.5.5,0,0,1,1,53.4Zm.81-4.12H1.68a.49.49,0,0,1-.35-.61c.19-.68.4-1.37.64-2a.527.527,0,0,1,1,.33c-.24.66-.45,1.32-.63,2A.5.5,0,0,1,1.81,49.28Zm1.41-4a.481.481,0,0,1-.2,0,.51.51,0,0,1-.26-.66c.29-.64.6-1.29.93-1.92a.5.5,0,1,1,.88.46c-.32.61-.62,1.24-.89,1.86a.5.5,0,0,1-.46.3Zm1.94-3.73a.48.48,0,0,1-.26-.07.49.49,0,0,1-.17-.68c.36-.6.74-1.2,1.15-1.8a.5.5,0,0,1,.69-.13.51.51,0,0,1,.14.7c-.4.58-.77,1.16-1.12,1.74a.5.5,0,0,1-.43.28Zm2.36-3.47a.49.49,0,0,1-.39-.8c.42-.55.86-1.11,1.33-1.66a.5.5,0,0,1,.76.64c-.45.54-.89,1.08-1.3,1.62a.51.51,0,0,1-.4.24Zm2.71-3.21a.51.51,0,0,1-.34-.14.49.49,0,0,1,0-.7q.71-.76,1.47-1.53a.5.5,0,1,1,.71.71q-.75.75-1.44,1.5a.52.52,0,0,1-.4.2Zm3-3a.54.54,0,0,1-.37-.16.51.51,0,0,1,0-.71c.51-.47,1-.94,1.58-1.41a.5.5,0,0,1,.66.76q-.81.69-1.56,1.38a.51.51,0,0,1-.33.21Zm3.19-2.75A.48.48,0,0,1,16,29a.49.49,0,0,1,.07-.7c.54-.43,1.1-.87,1.67-1.3a.5.5,0,1,1,.6.79c-.56.43-1.11.86-1.64,1.29a.51.51,0,0,1-.3.11Zm3.35-2.55a.5.5,0,0,1-.3-.9c.57-.41,1.14-.81,1.74-1.21a.5.5,0,0,1,.56.82q-.89.6-1.71,1.2a.52.52,0,0,1-.31.16Zm3.47-2.36a.51.51,0,0,1-.42-.23.5.5,0,0,1,.15-.69c.58-.38,1.18-.76,1.79-1.13a.5.5,0,0,1,.69.16.51.51,0,0,1-.16.69c-.61.37-1.2.74-1.78,1.12a.5.5,0,0,1-.29.15ZM26.83,22a.51.51,0,0,1-.44-.25.5.5,0,0,1,.18-.68l1.83-1.06a.5.5,0,1,1,.49.88c-.61.34-1.22.69-1.81,1a.47.47,0,0,1-.27.18Zm3.64-2a.49.49,0,0,1-.44-.26.51.51,0,0,1,.2-.68l1.87-1a.5.5,0,1,1,.46.88l-1.85,1A.43.43,0,0,1,30.47,20Zm3.74-1.93a.51.51,0,0,1-.45-.28.5.5,0,0,1,.22-.67l1.9-.93a.5.5,0,1,1,.43.9L34.43,18A.46.46,0,0,1,34.21,18.07ZM38,16.24a.5.5,0,0,1-.21-.95l1.92-.88a.5.5,0,0,1,.41.91l-1.91.88a.52.52,0,0,1-.21.04Zm3.84-1.72a.5.5,0,0,1-.46-.3.51.51,0,0,1,.26-.66l1.94-.83a.5.5,0,1,1,.39.92L42,14.48A.479.479,0,0,1,41.84,14.52Zm3.88-1.63a.5.5,0,0,1-.46-.31.49.49,0,0,1,.27-.65l2-.79a.51.51,0,0,1,.65.28.5.5,0,0,1-.28.65l-2,.78a.43.43,0,0,1-.18.04Zm3.92-1.54a.52.52,0,0,1-.47-.33.5.5,0,0,1,.29-.64l2-.75a.5.5,0,0,1,.64.3.49.49,0,0,1-.29.64l-2,.74A.471.471,0,0,1,49.64,11.35Zm3.94-1.47a.52.52,0,0,1-.47-.33.5.5,0,0,1,.3-.64l2-.71a.51.51,0,0,1,.64.31.5.5,0,0,1-.31.63l-2,.71a.47.47,0,0,1-.16.03Zm4-1.4a.506.506,0,1,1-.16-1l2-.68a.51.51,0,0,1,.63.32.49.49,0,0,1-.32.63l-2,.68Zm4-1.33a.49.49,0,0,1-.48-.35.5.5,0,0,1,.32-.63l2-.64a.522.522,0,0,1,.3,1l-2,.65Zm4-1.27a.5.5,0,0,1-.15-.98l2-.61a.521.521,0,0,1,.29,1l-2,.62Zm4-1.21a.5.5,0,0,1-.48-.36.49.49,0,0,1,.34-.62l2-.59a.49.49,0,0,1,.62.34.51.51,0,0,1-.34.62l-2,.58a.35.35,0,0,1-.13.03Zm4-1.17a.51.51,0,0,1-.48-.36.5.5,0,0,1,.35-.62l2-.56a.5.5,0,1,1,.27.96l-2,.56a.32.32,0,0,1-.09.02Zm4.06-1.11a.5.5,0,0,1-.48-.37.51.51,0,0,1,.36-.62l1.8-.48a.51.51,0,0,1,.61.36.5.5,0,0,1-.36.61l-1.79.48Z" fill="rgba(226,207,163,0.47)"/>
                  </g>
                  <path id="Path-12" data-name="Path" d="M40.48,118.55H38.5v-2H37.17v2H35.19v1.33h1.98v2.01H38.5v-2.01h1.98Z" fill="#dae1e7" fill-rule="evenodd"/>
                </g>
                <g id="Oval" transform="translate(111)">
                  <circle id="Ellipse_120" data-name="Ellipse 120" cx="3.29" cy="3.29" r="3.29" transform="translate(0.52 1)" fill="#fff"/>
                  <path id="Shape-7" data-name="Shape" d="M3.81,8.08A3.79,3.79,0,1,1,7.6,4.29,3.79,3.79,0,0,1,3.81,8.08Zm0-6.58a2.79,2.79,0,1,0,1.973.817A2.79,2.79,0,0,0,3.81,1.5Z" fill="#e9e2d0"/>
                </g>
              </g>
            </g>
            <path id="Path-13" data-name="Path" d="M138.78,70.77h-.01Z" fill="#d2583c"/>
            <path id="Path-14" data-name="Path" d="M135.75,70.12h-.05l-.09.09h.1Z" fill="#d2583c"/>
            <path id="Path-15" data-name="Path" d="M138.81,72.42h-.08Z" fill="#d2583c"/>
            <path id="Path-16" data-name="Path" d="M144.45,72.79v-.06h-.11Z" fill="#d2583c"/>
            <path id="Path-17" data-name="Path" d="M144.58,72.77l-.02-.01.01.03Z" fill="#d2583c"/>
            <path id="Path-18" data-name="Path" d="M140.67,70.83v-.09h0Z" fill="#d2583c"/>
            <path id="Path-19" data-name="Path" d="M144.23,72.45Z" fill="#d2583c"/>
            <path id="Path-20" data-name="Path" d="M141.73,71.34l-.1-.06h.11Z" fill="#d2583c"/>
            <path id="Path-21" data-name="Path" d="M141.35,72.68h.15v-.06h-.16Z" fill="#d2583c"/>
            <path id="Path-22" data-name="Path" d="M134.3,79.86v-.07h-.11Z" fill="#d2583c"/>
            <path id="Path-23" data-name="Path" d="M134.44,79.83l-.02-.01v.03Z" fill="#d2583c"/>
            <path id="Path-24" data-name="Path" d="M134.09,79.51Z" fill="#d2583c"/>
            <path id="Path-25" data-name="Path" d="M115.7,67.15l-.22-.07a.22.22,0,0,0,.22.07Z" fill="#d2583c"/>
            <path id="Path-26" data-name="Path" d="M118.9,68.13l-.36-.11a.5.5,0,0,0,.36.11Z" fill="#d2583c"/>
            <path id="Path-27" data-name="Path" d="M76.55,99.83h0a.613.613,0,0,0,0-.11h-.07Z" fill="#d2583c"/>
            <path id="Path-28" data-name="Path" d="M91.35,104.33v-.06h-.1Z" fill="#d2583c"/>
            <path id="Path-29" data-name="Path" d="M152.05,112.79a13,13,0,0,1,16.26-8.66l5.37-17.61a2.3,2.3,0,0,0-1.54-2.89L50.53,46.52a2.32,2.32,0,0,0-2.89,1.54L42.27,65.67a13.028,13.028,0,0,1-7.61,24.92L29.29,108.2a2.31,2.31,0,0,0,1.54,2.88l121.61,37.11a2.3,2.3,0,0,0,2.89-1.53l5.38-17.61a13,13,0,0,1-8.66-16.26Z" fill="#e9e2d0"/>
            <path id="Shape-8" data-name="Shape" d="M153.12,149.29a3.254,3.254,0,0,1-1-.14L30.54,112a3.282,3.282,0,0,1-2-1.61,3.32,3.32,0,0,1-.25-2.53L34,89.34l1,.29a12.021,12.021,0,1,0,7-23l-.95-.3,5.66-18.56a3.29,3.29,0,0,1,1.62-2,3.25,3.25,0,0,1,2.52-.24l121.62,37.1a3.33,3.33,0,0,1,2.2,4.14L169,105.38l-.95-.29a12,12,0,0,0-15,8h0a12,12,0,0,0,8,15l1,.29L156.29,147A3.319,3.319,0,0,1,153.12,149.29ZM35.34,91.8l-5.09,16.69a1.29,1.29,0,0,0,.09,1,1.311,1.311,0,0,0,.78.64l121.62,37.11a1.337,1.337,0,0,0,1-.1,1.311,1.311,0,0,0,.64-.78l5.09-16.68a14.06,14.06,0,0,1-8.38-17.19h0a14,14,0,0,1,16.54-9.57l5.1-16.69a1.31,1.31,0,0,0-.88-1.64L50.24,47.48a1.32,1.32,0,0,0-1.64.87L43.5,65a14.007,14.007,0,0,1-8.16,26.8Z" fill="#a7a192"/>
            <path id="Path-30" data-name="Path" d="M106.11,72.94l-.21-.07a.21.21,0,0,0,.21.07Z" fill="#d2583c"/>
            <path id="Path-31" data-name="Path" d="M109.31,73.92l-.35-.11a.48.48,0,0,0,.35.11Z" fill="#d2583c"/>
            <path id="Path-32" data-name="Path" d="M115.19,76.38h-.01Z" fill="#d2583c"/>
            <path id="Path-33" data-name="Path" d="M112.49,75.61h0l-.09.07h.08Z" fill="#d2583c"/>
            <path id="Path-34" data-name="Path" d="M115.12,77.87h-.07Z" fill="#d2583c"/>
            <path id="Path-35" data-name="Path" d="M116.89,76.54v-.08h0Z" fill="#d2583c"/>
            <path id="Path-36" data-name="Path" d="M117.83,77.07l-.1-.06h.1Z" fill="#d2583c"/>
            <rect id="Rectangle" width="38.54" height="79.61" rx="3.58" transform="translate(57.808 102.632) rotate(-73.14)" fill="#fff"/>
            <path id="Shape-9" data-name="Shape" d="M131.61,125.83a4.643,4.643,0,0,1-1.33-.2L61,104.62a4.59,4.59,0,0,1-3.06-5.71l9.1-30a4.58,4.58,0,0,1,5.71-3.06l69.34,21a4.571,4.571,0,0,1,3.05,5.71l-9.09,30a4.62,4.62,0,0,1-4.39,3.26ZM71.38,67.63a2.6,2.6,0,0,0-2.48,1.83l-9.1,30a2.59,2.59,0,0,0,1.73,3.22l69.33,21a2.647,2.647,0,0,0,2-.2,2.569,2.569,0,0,0,1.25-1.53l9.1-30a2.59,2.59,0,0,0-1.72-3.22l-69.34-21a2.42,2.42,0,0,0-.77-.1Z" fill="#a7a192"/>
            <path id="Path-37" data-name="Path" d="M81.76,110.12v-.06h-.1Z" fill="#d2583c"/>
            <line id="Path-38" data-name="Path" x2="42.19" y2="12.78" transform="translate(81.73 84.4)" fill="#ddf5ff"/>
            <path id="Path-39" data-name="Path" d="M90.78,100.38a1.006,1.006,0,0,1-.29,0l-3.83-1.15a1,1,0,0,1,.58-1.92l3.83,1.16a.972.972,0,0,1-.29,1.91Z" fill="#5a9cae"/>
            <path id="Path-40" data-name="Path" d="M104.37,104.5a.94.94,0,0,1-.29,0l-9.89-3a1,1,0,0,1,.58-1.92l9.89,3a1.01,1.01,0,0,1-.29,2Z" fill="#5a9cae"/>
            <path id="Path-41" data-name="Path" d="M111.9,106.78a1.006,1.006,0,0,1-.29,0l-3.83-1.16a1,1,0,0,1,.58-1.92l3.83,1.16a1.01,1.01,0,0,1-.29,2Z" fill="#5a9cae"/>
            <path id="Path-42" data-name="Path" d="M112.3,84.83h-.22a.2.2,0,0,0,.22,0Z" fill="#d2583c"/>
            <path id="Path-43" data-name="Path" d="M115.65,84.83h-.38A.46.46,0,0,0,115.65,84.83Z" fill="#d2583c"/>
            <path id="Path-44" data-name="Path" d="M84.31,127.46v-.05a.879.879,0,0,0-.07-.1l-.05.06Z" fill="#d2583c"/>
            <path id="Path-45" data-name="Path" d="M99.78,127.47v-.05h-.09Z" fill="#d2583c"/>
            <g id="Group-2" data-name="Group" transform="translate(40 81)" opacity="0.2">
              <path id="Path-46" data-name="Path" d="M127.6,1.22,12,.79h0c-1.4,2.84-1.43,5.72-6.37,7.06l-1-.31A6.9,6.9,0,0,1,.56,9.44h0L.44,26.12s11.1-.42,13,8.1l2.48.8,79.43.13,37.31-24.34-.57-7.54c.15-.72-1.63-1-2.32-1.28Z" fill="#717790"/>
            </g>
            <path id="Path-47" data-name="Path" d="M156,118.16a11.94,11.94,0,0,1,12-11.92V89.36a2.12,2.12,0,0,0-2.12-2.12L49.32,87a2.11,2.11,0,0,0-2.12,2.11v16.88a11.94,11.94,0,1,1,0,23.88v16.88a2.111,2.111,0,0,0,2.11,2.12l116.56.23a2.14,2.14,0,0,0,2.13-2.12V130.1a11.94,11.94,0,0,1-12-11.94Z" fill="#fff"/>
            <path id="Path-48" data-name="Path" d="M161.11,119.31a13,13,0,0,1,13-12.9V88.15a2.3,2.3,0,0,0-2.31-2.3L44.73,85.6a2.31,2.31,0,0,0-2.32,2.29l-.66,16.93a1.751,1.751,0,0,0,1.55,1.78c6.48.75,11.75,5.91,11.73,12.51A12.671,12.671,0,0,1,42.33,132v18.27a2.3,2.3,0,0,0,2.31,2.3l127.15.24a2.3,2.3,0,0,0,2.32-2.29V132.26A13,13,0,0,1,161.11,119.31Z" fill="#e9e2d0"/>
            <path id="Shape-10" data-name="Shape" d="M171.59,154.58h0l-127.15-.24A3.329,3.329,0,0,1,41.12,151V131.58h1a12.025,12.025,0,1,0,0-24.05h-1V88.12a3.33,3.33,0,0,1,3.32-3.31h0l127.16.25A3.29,3.29,0,0,1,175,88.4v19.41h-1a12.025,12.025,0,0,0,0,24.05h1v19.41a3.31,3.31,0,0,1-3.31,3.31Zm-128.43-21v17.45a1.33,1.33,0,0,0,1.31,1.32l127.16.24a1.31,1.31,0,0,0,1.31-1.31V133.83a14,14,0,1,1,.05-28V88.38a1.3,1.3,0,0,0-.38-.93,1.339,1.339,0,0,0-.93-.38L44.56,86.83h0a1.33,1.33,0,0,0-1.32,1.32v17.44a14,14,0,1,1-.05,28Z" fill="#a7a192"/>
            <path id="Path-49" data-name="Path" d="M104.81,93.15h-.23a.21.21,0,0,0,.23,0Z" fill="#d2583c"/>
            <path id="Path-50" data-name="Path" d="M108.15,93.15h-.37a.44.44,0,0,0,.37,0Z" fill="#d2583c"/>
            <path id="Path-51" data-name="Path" d="M114.49,93.81h-.09Z" fill="#d2583c"/>
            <path id="Path-52" data-name="Path" d="M111.69,93.86h0l-.07.1h.1Z" fill="#d2583c"/>
            <path id="Path-53" data-name="Path" d="M114.85,95.25h-.07Z" fill="#d2583c"/>
            <path id="Path-54" data-name="Path" d="M116.17,93.47v-.08h0v.09Z" fill="#d2583c"/>
            <path id="Path-55" data-name="Path" d="M117.22,93.7h0Z" fill="#d2583c"/>
            <rect id="Rectangle-2" data-name="Rectangle" width="79.61" height="38.54" rx="3.58" transform="translate(67.8 98.88)" fill="#fff"/>
            <path id="Shape-11" data-name="Shape" d="M143.83,138.41H71.38a4.58,4.58,0,0,1-4.58-4.58V102.46a4.58,4.58,0,0,1,4.58-4.58h72.45a4.58,4.58,0,0,1,4.58,4.58v31.37a4.581,4.581,0,0,1-4.58,4.58ZM71.38,99.88a2.58,2.58,0,0,0-2.58,2.58v31.37a2.58,2.58,0,0,0,2.58,2.58h72.45a2.581,2.581,0,0,0,2.58-2.58V102.46a2.581,2.581,0,0,0-2.58-2.58Z" fill="#a7a192"/>
            <path id="Path-56" data-name="Path" d="M92.28,135.79h-.09v.05Z" fill="#d2583c"/>
            <path id="Path-57" data-name="Path" d="M131.35,113.2H83.26a1,1,0,0,1,0-2h48.09a1,1,0,0,1,0,2Z" fill="#a7a192"/>
            <path id="Path-58" data-name="Path" d="M121.52,126H93.08a1,1,0,0,1,0-2h28.44a1,1,0,0,1,0,2Z" fill="#a7a192"/>
          </g>
        </g>
      </g>
    </g>
  </g>
</svg>
