<svg width="12" height="13" viewBox="0 0 12 13" fill="none" xmlns="http://www.w3.org/2000/svg">
<path d="M0.552869 0.0315444C0.413527 0.0296304 0.273464 0.0823298 0.165613 0.19035C-0.0545418 0.410923 -0.0555211 0.775784 0.164582 0.997014C1.85251 2.73849 3.54048 4.47992 5.2287 6.2211C3.54048 7.96228 1.85251 9.70371 0.164582 11.4452C-0.0549541 11.6664 -0.0539749 12.0313 0.165613 12.2519C0.273464 12.3599 0.413527 12.4126 0.552869 12.4107C0.69221 12.4087 0.83082 12.3523 0.935857 12.2414C2.62335 10.4995 4.3118 8.75854 5.99998 7.01732C7.68817 8.75853 9.37661 10.4995 11.0641 12.2414C11.2786 12.4679 11.6322 12.4669 11.8461 12.2398C12.0555 12.0173 12.0505 11.662 11.8354 11.4452C10.1477 9.70355 8.45949 7.96235 6.77129 6.22115C8.45949 4.47996 10.1477 2.73875 11.8354 0.997067C12.0505 0.780348 12.0555 0.424999 11.8461 0.202492C11.6322 -0.0246417 11.2786 -0.0256337 11.0641 0.200791C9.37661 1.94272 7.68817 3.68367 5.99998 5.42488C4.3118 3.68366 2.62335 1.94272 0.935857 0.200791C0.83082 0.0898604 0.69221 0.0334425 0.552869 0.0315444Z" fill="#5B6DB9"/>
</svg>
