<?xml version="1.0" encoding="utf-8"?>
<!-- Generator: Adobe Illustrator 24.1.2, SVG Export Plug-In . SVG Version: 6.00 Build 0)  -->
<svg version="1.1" id="Layer_1" xmlns="http://www.w3.org/2000/svg" xmlns:xlink="http://www.w3.org/1999/xlink" x="0px" y="0px"
	 viewBox="0 0 210 210" style="enable-background:new 0 0 210 210;" xml:space="preserve">
<style type="text/css">
	.st0{fill-rule:evenodd;clip-rule:evenodd;fill:#f6e8c8;}
	.st1{fill-rule:evenodd;clip-rule:evenodd;fill:#5B4029;}
	.st2{fill:#b4975a;}
	.st3{fill:#b4975a;}
	.st4{fill-rule:evenodd;clip-rule:evenodd;fill:#DAE1E7;}
	.st5{fill:#FFFFFF;}
	.st6{fill:#D2583C;}
	.st7{fill:#b4975a;}
	.st8{fill:#5B4029;}
	.st9{opacity:0.2;}
	.st10{fill:#E3EFF3;}
</style>
<g>
	<g id="Artboard-Copy-5">
		<g id="Group">
			<g id="Group-45">
				<g id="Fill-1">
					<path class="st0" d="M115.1,178.4l56.3-56.3c3.6-3.4,9.3-3.2,12.7,0.4c3.2,3.5,3.2,8.8,0,12.3l-56.3,56.3
						c-3.6,3.4-9.3,3.2-12.7-0.4C111.9,187.3,111.9,181.9,115.1,178.4"/>
				</g>
				<g id="Group-5">
					<g>
						<g id="Fill-3">
							<path class="st0" d="M20.4,133l8.7-8.7c3.4-3.6,9.1-3.8,12.7-0.4c3.6,3.4,3.8,9.1,0.4,12.7c-0.1,0.2-0.3,0.3-0.4,0.4
								l-8.7,8.7c-3.4,3.6-9.1,3.8-12.7,0.4s-3.8-9.1-0.4-12.7C20.1,133.3,20.3,133.1,20.4,133"/>
						</g>
					</g>
				</g>
				<g id="Fill-6">
					<path class="st0" d="M119.1,149.5l25.7-25.7c-3.4,3.7-3.1,9.4,0.6,12.7c3.4,3.1,8.7,3.1,12.1,0l-25.8,25.7
						c3.7-3.4,3.9-9,0.6-12.7c-3.4-3.7-9-3.9-12.7-0.6C119.5,149.1,119.3,149.3,119.1,149.5"/>
				</g>
				<g id="Fill-8">
					<path class="st0" d="M108.1,110.3l24.1-24.1c-3.4,3.6-3.2,9.3,0.4,12.7c3.5,3.2,8.8,3.2,12.3,0l-24.1,24.1
						c3.4-3.6,3.2-9.3-0.4-12.7C116.9,107.1,111.5,107.1,108.1,110.3"/>
				</g>
				<g id="Fill-10">
					<path class="st0" d="M99.5,143.8l70.4-70.4c3.6-3.4,9.3-3.2,12.7,0.4c3.2,3.5,3.2,8.8,0,12.3l-70.4,70.4
						c-3.6,3.4-9.3,3.3-12.7-0.3C96.2,152.7,96.2,147.2,99.5,143.8"/>
				</g>
				<g id="Fill-12">
					<path class="st0" d="M30.4,162.8L126.2,67c3.4-3.7,9-3.9,12.7-0.6c3.7,3.4,3.9,9,0.6,12.7c-0.2,0.2-0.4,0.4-0.6,0.6l-95.8,95.8
						c-3.7,3.4-9.4,3.1-12.7-0.6C27.2,171.5,27.2,166.3,30.4,162.8"/>
				</g>
				<g id="Fill-14">
					<path class="st0" d="M47.3,99.8l35.5-35.5c3.5-3.5,9.2-3.5,12.7,0c3.5,3.5,3.5,9.2,0,12.7L60,112.5c-3.7,3.4-9.4,3.1-12.7-0.6
						C44.2,108.5,44.2,103.2,47.3,99.8"/>
				</g>
				<g id="Fill-16">
					<path class="st0" d="M106.1,41l0.2-0.2c3.6-3.4,9.3-3.2,12.7,0.4c3.2,3.5,3.2,8.8,0,12.3l-0.2,0.2c-3.5,3.5-9.2,3.5-12.7,0l0,0
						C102.6,50.2,102.6,44.5,106.1,41"/>
				</g>
				<g id="Fill-18">
					<path class="st0" d="M78.9,163.8l0.2-0.2c3.4-3.7,9-3.9,12.7-0.6c3.7,3.4,3.9,9,0.6,12.7c-0.2,0.2-0.4,0.4-0.6,0.6l-0.2,0.2
						c-3.5,3.5-9.2,3.5-12.7,0l0,0C75.3,173,75.3,167.3,78.9,163.8"/>
				</g>
				<g id="Fill-22">
					<path class="st1" d="M200.1,195.7c0.6-0.2,1.2-0.3,1.8-0.3c0.6,0,1.2,0.1,1.9,0.2c0.3,0.1,0.5,0.4,0.4,0.7
						c0,0.2-0.2,0.4-0.4,0.4c-0.6,0.1-1.2,0.2-1.9,0.2c-0.6,0-1.2-0.1-1.8-0.3c-0.3-0.1-0.4-0.4-0.3-0.6
						C199.8,195.9,199.9,195.7,200.1,195.7"/>
				</g>
				<g id="Fill-26">
					<path class="st1" d="M31.5,195.7c6.9-0.2,13.8-0.2,20.7-0.2H73h41.5h41.5h20.7c6.9,0,13.8,0,20.7,0.2c0.3,0,0.5,0.3,0.5,0.7
						c0,0.3-0.2,0.5-0.5,0.5c-6.9,0.2-13.8,0.2-20.7,0.2h-20.7h-41.4H73H52.3c-6.9,0-13.8,0-20.7-0.2c-0.2,0-0.4-0.2-0.4-0.4
						c0,0,0,0,0,0c0-0.2,0.2-0.4,0.4-0.4"/>
				</g>
				<g id="Fill-30">
					<path class="st1" d="M27.5,195.5c0.1,0,0.2,0,0.3,0h0.1c0,0,0.1,0,0.1,0.1c0.3,0.2,0.4,0.6,0.2,0.9c0,0.1-0.1,0.1-0.2,0.2
						c0,0-0.1,0-0.1,0.1h-0.1c-0.1,0-0.2,0-0.3,0c-0.4-0.1-0.6-0.4-0.5-0.8c0,0,0,0,0,0C27,195.7,27.2,195.5,27.5,195.5"/>
				</g>
				<g id="Fill-34">
					<path class="st1" d="M20.8,195.7c0.4-0.1,0.9-0.2,1.3-0.2c0.5,0,0.9,0,1.4,0.1c0.3,0.1,0.5,0.4,0.4,0.7
						c-0.1,0.2-0.2,0.3-0.4,0.4c-0.4,0.1-0.9,0.2-1.4,0.1c-0.5,0-0.9-0.1-1.3-0.2c-0.3-0.1-0.4-0.3-0.4-0.6c0,0,0,0,0,0
						C20.5,195.9,20.7,195.7,20.8,195.7"/>
				</g>
				<g id="Group-40">
					<g>
						<g id="Fill-38">
							<path class="st1" d="M95.4,204.5c2.2-0.2,4.3-0.2,6.5-0.2h6.5l12.9-0.1h19.4c2.2,0,4.3,0,6.5,0.2c0.3,0,0.6,0.3,0.5,0.6
								c0,0,0,0,0,0c0,0.3-0.3,0.5-0.5,0.5c-2.1,0.2-4.3,0.2-6.5,0.2h-19.4l-12.9-0.1h-6.5c-2.2,0-4.3,0-6.5-0.2
								c-0.2,0-0.4-0.3-0.4-0.5C95,204.8,95.2,204.6,95.4,204.5"/>
						</g>
					</g>
				</g>
				<g id="Fill-43">
					<path class="st1" d="M74.1,204.5c2.2-0.1,4.4-0.2,6.6-0.2s4.4,0,6.6,0.1c0.3,0,0.5,0.3,0.5,0.6c0,0.2-0.2,0.4-0.5,0.5
						c-2.2,0.1-4.4,0.1-6.6,0.1s-4.4-0.1-6.6-0.2c-0.3,0-0.5-0.2-0.5-0.5c0,0,0,0,0,0C73.6,204.7,73.8,204.5,74.1,204.5"/>
				</g>
			</g>
			<g id="Group-48">
				<g id="Stroke-15">
					<path class="st2" d="M193.9,159.2c-1.5,0-2.7-1.2-2.7-2.7s1.2-2.7,2.7-2.7s2.7,1.2,2.7,2.7S195.4,159.2,193.9,159.2
						L193.9,159.2z M193.9,155.8c-0.4,0-0.7,0.3-0.7,0.7c0,0.4,0.3,0.7,0.7,0.7c0.4,0,0.7-0.3,0.7-0.7c0,0,0,0,0,0
						C194.6,156.1,194.3,155.8,193.9,155.8C193.9,155.8,193.9,155.8,193.9,155.8L193.9,155.8z"/>
				</g>
				<g id="Group-23">
					<g id="Stroke-19">
						<path class="st2" d="M11,78.2c-0.6,0-1-0.4-1-1v-8.5c0-0.6,0.4-1,1-1c0.6,0,1,0.4,1,1v8.5C12,77.7,11.5,78.2,11,78.2z"/>
					</g>
					<g id="Stroke-21">
						<path class="st2" d="M15.2,73.9H6.7c-0.6,0-1-0.4-1-1s0.4-1,1-1h8.5c0.6,0,1,0.4,1,1S15.8,73.9,15.2,73.9z"/>
					</g>
				</g>
				<g id="Stroke-24">
					<path class="st2" d="M66.3,68.8c-1.5,0-2.7-1.2-2.7-2.7c0-1.5,1.2-2.7,2.7-2.7c1.5,0,2.7,1.2,2.7,2.7S67.8,68.8,66.3,68.8
						C66.3,68.8,66.3,68.8,66.3,68.8z M66.3,65.4c-0.4,0-0.7,0.3-0.7,0.7s0.3,0.7,0.7,0.7s0.7-0.3,0.7-0.7c0,0,0,0,0,0
						C67,65.7,66.7,65.4,66.3,65.4z"/>
				</g>
				<g id="Stroke-26">
					<path class="st2" d="M194.5,106c-1.5,0-2.7-1.2-2.7-2.7s1.2-2.7,2.7-2.7s2.7,1.2,2.7,2.7S196,106,194.5,106L194.5,106z
						 M194.5,102.6c-0.4,0-0.7,0.3-0.7,0.7c0,0.4,0.3,0.7,0.7,0.7s0.7-0.3,0.7-0.7c0,0,0,0,0,0C195.2,102.9,194.9,102.6,194.5,102.6
						C194.5,102.6,194.5,102.6,194.5,102.6z"/>
				</g>
				<g id="Stroke-28">
					<path class="st2" d="M99.1,60.7c-0.2,0-0.3,0-0.5-0.1c-0.2-0.1-0.4-0.4-0.5-0.6l-0.8-3.1c-0.1-0.5,0.2-1.1,0.7-1.2c0,0,0,0,0,0
						l3.1-0.8c0.5-0.1,1.1,0.2,1.2,0.7c0,0,0,0,0,0l0.8,3.1c0.1,0.5-0.2,1.1-0.7,1.2c0,0,0,0,0,0l-3.1,0.8
						C99.3,60.7,99.2,60.7,99.1,60.7z M99.5,57.3l0.3,1.1l1.1-0.3l-0.3-1.2L99.5,57.3z"/>
				</g>
				<g id="Stroke-35">
					<path class="st2" d="M44,121.9c-1.7,0-3-1.3-3-3s1.3-3,3-3s3,1.3,3,3S45.7,121.9,44,121.9L44,121.9z M44,117.9
						c-0.6,0-1,0.4-1,1s0.4,1,1,1s1-0.4,1-1S44.6,117.9,44,117.9z"/>
				</g>
			</g>
			<g id="Group-11">
				<g id="Stroke-1">
					<path class="st3" d="M120,148.3L120,148.3c-0.7-0.1-1.4-0.2-2.2-0.4c-0.3-0.1-0.4-0.3-0.4-0.6c0,0,0,0,0,0
						c0.1-0.3,0.3-0.4,0.6-0.4c0.8,0.2,1.4,0.3,2.1,0.4c0.3,0,0.5,0.3,0.5,0.5S120.3,148.3,120,148.3L120,148.3z M115.9,147.5h-0.1
						c-0.7-0.1-1.3-0.3-2.1-0.5c-0.3-0.1-0.4-0.3-0.4-0.6s0.3-0.4,0.6-0.4l2,0.5c0.3,0.1,0.4,0.3,0.4,0.6c0,0,0,0,0,0
						C116.3,147.3,116.1,147.4,115.9,147.5z M111.8,146.4c0,0-0.1,0-0.1,0c-0.7-0.2-1.3-0.4-2-0.6c-0.3-0.1-0.4-0.4-0.3-0.6
						c0.1-0.3,0.4-0.4,0.7-0.4l2,0.6c0.3,0,0.5,0.3,0.4,0.6C112.3,146.2,112.1,146.4,111.8,146.4L111.8,146.4z M107.8,145.1
						c-0.1,0-0.1,0-0.2,0c-0.7-0.2-1.3-0.5-2-0.7c-0.3-0.1-0.4-0.4-0.3-0.6c0.1-0.3,0.4-0.4,0.6-0.3c0,0,0,0,0,0
						c0.7,0.2,1.3,0.5,2,0.7c0.3,0.1,0.4,0.4,0.3,0.6C108.2,145,108,145.1,107.8,145.1L107.8,145.1z M103.9,143.6
						c-0.1,0-0.1,0-0.2,0c-0.7-0.3-1.3-0.6-1.9-0.9c-0.2-0.1-0.4-0.4-0.2-0.6c0,0,0,0,0,0c0.1-0.3,0.4-0.4,0.7-0.2c0,0,0,0,0,0
						c0.6,0.3,1.3,0.6,1.9,0.9c0.3,0.1,0.4,0.4,0.3,0.7C104.2,143.5,104,143.6,103.9,143.6L103.9,143.6z M100,141.8
						c-0.1,0-0.2,0-0.2-0.1c-0.6-0.3-1.2-0.7-1.9-1c-0.2-0.1-0.3-0.4-0.2-0.7c0.1-0.2,0.4-0.3,0.7-0.2c0.6,0.4,1.2,0.7,1.8,1
						c0.2,0.1,0.3,0.4,0.2,0.7C100.4,141.7,100.2,141.8,100,141.8L100,141.8z M96.4,139.7c-0.1,0-0.2,0-0.3-0.1
						c-0.6-0.4-1.2-0.8-1.8-1.2c-0.2-0.2-0.3-0.5-0.1-0.7c0,0,0,0,0,0c0.2-0.2,0.5-0.3,0.7-0.1c0.6,0.4,1.1,0.8,1.7,1.2
						c0.2,0.1,0.3,0.5,0.2,0.7C96.7,139.6,96.6,139.7,96.4,139.7L96.4,139.7z M93,137.2c-0.1,0-0.2,0-0.3-0.1
						c-0.6-0.5-1.1-0.9-1.6-1.4c-0.2-0.2-0.2-0.5,0-0.7c0,0,0,0,0,0c0.2-0.2,0.5-0.2,0.7,0c0,0,0,0,0,0c0.5,0.5,1,0.9,1.6,1.4
						c0.2,0.2,0.2,0.5,0.1,0.7C93.3,137.2,93.2,137.2,93,137.2L93,137.2z M89.9,134.3c-0.1,0-0.3-0.1-0.4-0.2
						c-0.5-0.5-1-1.1-1.4-1.6c-0.2-0.2-0.1-0.5,0.1-0.7c0.2-0.2,0.5-0.1,0.7,0.1c0.4,0.5,0.9,1.1,1.3,1.6c0.2,0.2,0.2,0.5,0,0.7
						C90.2,134.3,90.1,134.3,89.9,134.3L89.9,134.3z M87.4,131c-0.2,0-0.3-0.1-0.4-0.2c-0.4-0.6-0.8-1.2-1.1-1.9
						c-0.1-0.2,0-0.5,0.2-0.7c0.2-0.1,0.5,0,0.7,0.2c0,0,0,0,0,0c0.3,0.6,0.6,1.2,1,1.8c0.1,0.2,0.1,0.5-0.2,0.7
						C87.5,131,87.4,131,87.4,131L87.4,131z M85.4,127.3c-0.2,0-0.4-0.1-0.5-0.3c-0.3-0.7-0.5-1.3-0.7-2c-0.1-0.3,0.1-0.5,0.3-0.6
						c0.3-0.1,0.5,0.1,0.6,0.3c0.2,0.7,0.4,1.3,0.7,1.9c0.1,0.2,0,0.5-0.2,0.6C85.6,127.3,85.5,127.3,85.4,127.3L85.4,127.3z
						 M84.1,123.3c-0.2,0-0.4-0.2-0.5-0.4c-0.1-0.7-0.3-1.4-0.3-2.1c0-0.3,0.2-0.5,0.4-0.6c0.3,0,0.5,0.2,0.5,0.4c0,0,0,0,0,0
						c0.1,0.7,0.2,1.4,0.3,2c0,0.3-0.1,0.5-0.4,0.6L84.1,123.3z M83.7,119.1c-0.3,0-0.5-0.2-0.5-0.5c0-0.2,0-0.4,0-0.7
						c0-0.5,0-1,0-1.5c0-0.3,0.3-0.5,0.5-0.5c0,0,0,0,0,0c0.3,0,0.5,0.3,0.5,0.5c0,0,0,0,0,0c0,0.5,0,1,0,1.4c0,0.2,0,0.4,0,0.6
						C84.2,118.9,84,119.1,83.7,119.1C83.7,119.1,83.7,119.1,83.7,119.1L83.7,119.1z M127.6,118.2c-0.3,0-0.5-0.2-0.5-0.5
						s0.2-0.5,0.5-0.5c0.7,0,1.4,0,2.1-0.1c0.3,0,0.5,0.2,0.5,0.5s-0.2,0.5-0.5,0.5C129,118.2,128.3,118.2,127.6,118.2L127.6,118.2z
						 M125.5,118.2L125.5,118.2l-2.1-0.1c-0.3,0-0.5-0.3-0.5-0.5c0-0.3,0.2-0.5,0.5-0.5c0,0,0,0,0,0l2.1,0.1c0.3,0,0.5,0.2,0.5,0.5
						c0,0,0,0,0,0C126,118,125.8,118.2,125.5,118.2C125.5,118.2,125.5,118.2,125.5,118.2L125.5,118.2z M131.8,118.1
						c-0.3,0-0.5-0.2-0.5-0.5s0.2-0.5,0.5-0.5c0.7,0,1.4-0.1,2.1-0.2c0.3,0,0.5,0.2,0.6,0.4s-0.2,0.5-0.4,0.6
						C133.3,118,132.6,118,131.8,118.1L131.8,118.1z M121.3,118.1L121.3,118.1c-0.7,0-1.4-0.1-2.1-0.2c-0.3,0-0.5-0.3-0.5-0.5
						c0,0,0,0,0,0c0-0.3,0.3-0.5,0.5-0.4l2.1,0.2c0.3,0,0.5,0.3,0.5,0.5c0,0,0,0,0,0C121.8,117.9,121.6,118.1,121.3,118.1
						L121.3,118.1z M117.1,117.7L117.1,117.7c-0.7-0.1-1.4-0.2-2.1-0.3c-0.3,0-0.5-0.3-0.4-0.5c0,0,0,0,0,0c0-0.3,0.3-0.5,0.6-0.4
						l2.1,0.3c0.3,0,0.5,0.3,0.5,0.5S117.5,117.7,117.1,117.7L117.1,117.7z M136,117.7c-0.3,0-0.5-0.2-0.5-0.5s0.2-0.5,0.5-0.5l0,0
						c0.7-0.1,1.4-0.2,2.1-0.3c0.3,0,0.5,0.1,0.6,0.4s-0.1,0.5-0.4,0.6C137.5,117.5,136.8,117.6,136,117.7L136,117.7z M113,117.1
						L113,117.1l-2.2-0.3c-0.3,0-0.5-0.3-0.4-0.6c0,0,0,0,0,0c0-0.3,0.3-0.5,0.6-0.4c0,0,0,0,0,0c0.7,0.1,1.4,0.2,2.1,0.3
						c0.3,0,0.5,0.3,0.4,0.6c0,0,0,0,0,0C113.4,117,113.2,117.1,113,117.1L113,117.1z M140.2,116.9c-0.3,0-0.5-0.2-0.6-0.4
						c0-0.3,0.2-0.5,0.4-0.6l0,0c0.7-0.2,1.4-0.3,2-0.5c0.3-0.1,0.6,0.1,0.6,0.4c0.1,0.3-0.1,0.6-0.4,0.6
						C141.6,116.6,141,116.8,140.2,116.9L140.2,116.9z M108.8,116.4L108.8,116.4l-2.2-0.4c-0.3-0.1-0.4-0.3-0.4-0.6
						c0.1-0.3,0.3-0.4,0.6-0.4c0,0,0,0,0,0l2.1,0.4c0.3,0,0.5,0.3,0.4,0.6c0,0,0,0,0,0C109.2,116.3,109,116.4,108.8,116.4
						L108.8,116.4z M144.2,115.8c-0.2,0-0.4-0.1-0.5-0.3c-0.1-0.3,0-0.5,0.3-0.6c0,0,0,0,0,0c0.7-0.2,1.3-0.4,1.9-0.7
						c0.3-0.1,0.5,0,0.6,0.3c0.1,0.3,0,0.5-0.3,0.6c-0.6,0.2-1.3,0.5-2,0.7C144.3,115.8,144.2,115.8,144.2,115.8L144.2,115.8z
						 M104.6,115.6L104.6,115.6c-0.8-0.1-1.5-0.3-2.2-0.5c-0.3-0.1-0.4-0.3-0.4-0.6c0,0,0,0,0,0c0.1-0.3,0.3-0.4,0.6-0.4l2,0.5
						c0.3,0.1,0.4,0.3,0.4,0.6c0,0,0,0,0,0C105,115.4,104.8,115.5,104.6,115.6z M83.9,114.9L83.9,114.9c-0.3,0-0.5-0.3-0.5-0.5
						c0,0,0,0,0,0c0.1-0.7,0.2-1.4,0.3-2.1c0-0.3,0.3-0.4,0.6-0.4c0,0,0,0,0,0c0.3,0,0.4,0.3,0.4,0.6c0,0,0,0,0,0
						c-0.1,0.7-0.2,1.4-0.3,2C84.4,114.7,84.2,114.9,83.9,114.9L83.9,114.9z M100.5,114.6h-0.1l-2-0.5c-0.3-0.1-0.4-0.3-0.3-0.6
						c0.1-0.3,0.3-0.4,0.6-0.4c0,0,0,0,0,0l2,0.5c0.3,0.1,0.4,0.3,0.4,0.6C101,114.5,100.8,114.6,100.5,114.6L100.5,114.6z
						 M148.1,114.3c-0.3,0.1-0.5-0.1-0.6-0.4c-0.1-0.3,0.1-0.5,0.4-0.6c0.6-0.3,1.3-0.6,1.9-0.9c0.2-0.1,0.5,0,0.7,0.2
						c0.1,0.2,0,0.5-0.2,0.7l0,0c-0.6,0.3-1.2,0.7-1.9,1C148.2,114.2,148.2,114.2,148.1,114.3L148.1,114.3z M96.5,113.6h-0.1l-2-0.6
						c-0.3-0.1-0.4-0.4-0.3-0.6c0.1-0.3,0.4-0.4,0.6-0.3l0,0l2,0.6c0.3,0,0.5,0.3,0.4,0.6C97,113.5,96.7,113.7,96.5,113.6
						L96.5,113.6z M92.4,112.4c0,0-0.1,0-0.1,0l-2-0.6c-0.3-0.1-0.4-0.4-0.3-0.6c0.1-0.3,0.4-0.4,0.6-0.3l2,0.6
						c0.3,0.1,0.4,0.4,0.3,0.6C92.8,112.3,92.6,112.4,92.4,112.4L92.4,112.4z M151.8,112.3c-0.3,0-0.5-0.2-0.5-0.5
						c0-0.2,0.1-0.3,0.2-0.4c0.6-0.4,1.2-0.8,1.7-1.2c0.2-0.2,0.5-0.1,0.7,0.1s0.1,0.5-0.1,0.7c-0.6,0.4-1.2,0.8-1.8,1.2
						C152,112.2,151.9,112.2,151.8,112.3L151.8,112.3z M88.4,111.2c0,0-0.1,0-0.2,0l-2-0.7c-0.3-0.1-0.4-0.4-0.3-0.6c0,0,0,0,0,0
						c0.1-0.3,0.4-0.4,0.6-0.3l2,0.7c0.3,0.1,0.4,0.4,0.3,0.6c0,0,0,0,0,0C88.8,111.1,88.6,111.2,88.4,111.2z M84.7,110.8
						L84.7,110.8c-0.4-0.1-0.5-0.3-0.5-0.6c0-0.1,0.1-0.2,0.1-0.3h-0.1l-2-0.7c-0.3-0.1-0.4-0.4-0.3-0.6s0.4-0.4,0.6-0.3l0,0l2,0.7
						l0,0c0.1-0.3,0.2-0.5,0.2-0.8c0.1-0.3,0.4-0.4,0.7-0.3s0.4,0.4,0.3,0.7c-0.2,0.7-0.4,1.3-0.6,2C85.2,110.7,85,110.8,84.7,110.8
						L84.7,110.8z M155.2,109.8c-0.1,0-0.3-0.1-0.4-0.2c-0.2-0.2-0.1-0.5,0.1-0.7c0.5-0.4,1-0.9,1.5-1.4c0.2-0.2,0.5-0.2,0.7,0
						c0,0,0,0,0,0c0.2,0.2,0.2,0.5,0,0.7c0,0,0,0,0,0c-0.5,0.5-1,1-1.6,1.4C155.4,109.8,155.3,109.8,155.2,109.8L155.2,109.8z
						 M80.4,108.5c-0.1,0-0.1,0-0.2,0c-0.7-0.2-1.3-0.5-2-0.7c-0.3-0.1-0.4-0.4-0.3-0.6c0,0,0,0,0,0c0.1-0.3,0.4-0.4,0.6-0.3
						c0.7,0.2,1.3,0.5,2,0.7c0.3,0.1,0.4,0.4,0.3,0.6c0,0,0,0,0,0C80.8,108.4,80.6,108.5,80.4,108.5L80.4,108.5z M76.4,107.1
						c-0.1,0-0.1,0-0.2,0l-2-0.7c-0.3-0.1-0.4-0.4-0.3-0.6c0,0,0,0,0,0c0.1-0.3,0.4-0.4,0.6-0.3l2,0.8c0.3,0,0.5,0.3,0.4,0.6
						C77,107,76.7,107.2,76.4,107.1L76.4,107.1z M158.2,106.9c-0.1,0-0.2,0-0.3-0.1c-0.2-0.2-0.2-0.5,0-0.7c0,0,0,0,0,0
						c0.4-0.5,0.9-1.1,1.3-1.6c0.2-0.2,0.5-0.3,0.7-0.1c0.2,0.2,0.3,0.5,0.1,0.7c-0.4,0.6-0.9,1.1-1.3,1.7
						C158.5,106.8,158.3,106.9,158.2,106.9L158.2,106.9z M86,106.8c-0.1,0-0.1,0-0.2,0c-0.3-0.1-0.4-0.4-0.3-0.7c0,0,0,0,0,0
						c0.2-0.4,0.4-1,0.9-1.9c0.1-0.2,0.4-0.3,0.7-0.2c0.2,0.1,0.3,0.4,0.2,0.6c-0.4,0.9-0.7,1.5-0.9,1.9
						C86.4,106.7,86.2,106.8,86,106.8L86,106.8z M72.5,105.6c-0.1,0-0.1,0-0.2,0l-2-0.8c-0.3-0.1-0.4-0.4-0.3-0.6c0,0,0,0,0,0
						c0.1-0.3,0.4-0.4,0.7-0.3c0.7,0.3,1.3,0.5,2,0.8c0.3,0.1,0.4,0.4,0.3,0.6C72.9,105.5,72.7,105.6,72.5,105.6L72.5,105.6z
						 M68.6,104c-0.1,0-0.1,0-0.2,0l-2-0.8c-0.3-0.1-0.4-0.4-0.3-0.7c0.1-0.3,0.4-0.4,0.7-0.3l0,0l2,0.8c0.3,0.1,0.4,0.4,0.3,0.6
						c0,0,0,0,0,0C69.1,103.9,68.8,104,68.6,104z M160.7,103.5c-0.1,0-0.2,0-0.3-0.1c-0.2-0.1-0.3-0.4-0.2-0.7c0,0,0,0,0,0
						c0.4-0.6,0.7-1.2,1-1.8c0.1-0.2,0.4-0.3,0.7-0.2c0.2,0.1,0.3,0.4,0.2,0.7l0,0c-0.3,0.6-0.7,1.3-1.1,1.9
						C161,103.4,160.9,103.5,160.7,103.5L160.7,103.5z M87.9,103c-0.1,0-0.2,0-0.2-0.1c-0.2-0.1-0.3-0.4-0.2-0.7c0,0,0,0,0,0
						c0.3-0.6,0.7-1.2,1-1.8c0.2-0.2,0.5-0.3,0.7-0.1c0.2,0.1,0.3,0.4,0.2,0.6c-0.4,0.7-0.7,1.3-1,1.8C88.2,102.9,88,103,87.9,103
						L87.9,103z M64.7,102.4c-0.1,0-0.1,0-0.2,0l-1.9-0.9c-0.3-0.1-0.4-0.4-0.3-0.7c0,0,0,0,0,0c0.1-0.3,0.4-0.4,0.7-0.3l1.9,0.8
						c0.3,0.1,0.5,0.3,0.4,0.6C65.3,102.3,65,102.5,64.7,102.4L64.7,102.4z M60.9,100.7c-0.1,0-0.2,0-0.3-0.1
						c-0.3-0.3-0.9-0.7-1.7-1.3c-0.2-0.2-0.2-0.5-0.1-0.7c0,0,0,0,0,0c0.2-0.2,0.5-0.2,0.7-0.1c0,0,0,0,0,0c0.7,0.6,1.3,1.1,1.6,1.3
						c0.2,0.2,0.3,0.5,0.1,0.7C61.2,100.6,61.1,100.7,60.9,100.7L60.9,100.7z M162.6,99.7c-0.1,0-0.1,0-0.2,0
						c-0.3-0.1-0.4-0.4-0.3-0.7c0.3-0.6,0.5-1.3,0.7-1.9c0.1-0.3,0.4-0.4,0.6-0.3c0,0,0,0,0,0c0.3,0.1,0.4,0.4,0.3,0.6
						c-0.2,0.7-0.5,1.3-0.7,2C163,99.6,162.8,99.7,162.6,99.7z M90,99.3c-0.1,0-0.2,0-0.3-0.1c-0.2-0.1-0.3-0.5-0.2-0.7
						c0.4-0.6,0.8-1.2,1.2-1.8c0.2-0.2,0.5-0.3,0.7-0.1c0,0,0,0,0,0c0.2,0.2,0.3,0.5,0.1,0.7c-0.4,0.6-0.8,1.2-1.2,1.8
						C90.3,99.2,90.2,99.3,90,99.3L90,99.3z M57.6,98c-0.1,0-0.2,0-0.3-0.1c-0.5-0.4-1-0.9-1.6-1.4c-0.2-0.2-0.2-0.5,0-0.7
						c0,0,0,0,0,0c0.2-0.2,0.5-0.2,0.7,0c0,0,0,0,0,0c0.5,0.5,1.1,1,1.5,1.4c0.2,0.2,0.2,0.5,0.1,0.7C57.9,97.9,57.8,98,57.6,98
						L57.6,98z M92.4,95.8c-0.1,0-0.2,0-0.3-0.1c-0.2-0.2-0.3-0.5-0.1-0.7c0.4-0.6,0.8-1.1,1.3-1.7c0.2-0.2,0.5-0.3,0.7-0.1
						c0,0,0,0,0,0c0.2,0.2,0.3,0.5,0.1,0.7c-0.4,0.6-0.9,1.1-1.3,1.7C92.7,95.8,92.5,95.8,92.4,95.8L92.4,95.8z M163.9,95.7
						L163.9,95.7c-0.4,0-0.5-0.3-0.5-0.6c0,0,0,0,0,0c0.1-0.4,0.1-0.6,0.1-0.6v-0.4c0-0.3,0-0.7,0-1c0-0.3,0.2-0.5,0.5-0.5
						c0,0,0,0,0,0c0.3,0,0.5,0.2,0.5,0.5c0,0,0,0,0,0c0,0.3,0,0.7,0,1v0.5c0,0.1,0,0.3-0.1,0.7C164.3,95.5,164.1,95.7,163.9,95.7
						L163.9,95.7z M54.6,95.1c-0.1,0-0.3-0.1-0.3-0.2c-0.5-0.5-1-1-1.5-1.5c-0.2-0.2-0.2-0.5,0-0.7c0,0,0,0,0,0
						c0.2-0.2,0.5-0.2,0.7,0c0,0,0,0,0,0c0.5,0.5,1,1,1.5,1.5c0.2,0.2,0.2,0.5,0,0.7C54.9,95,54.8,95.1,54.6,95.1z M95,92.5
						c-0.3,0-0.5-0.2-0.5-0.5c0-0.1,0-0.3,0.1-0.3c0.4-0.5,0.9-1.1,1.4-1.6c0.2-0.2,0.5-0.2,0.7,0s0.2,0.5,0,0.7
						c-0.5,0.5-0.9,1-1.4,1.6C95.3,92.5,95.2,92.6,95,92.5L95,92.5z M51.7,92c-0.1,0-0.3-0.1-0.4-0.2c-0.5-0.5-0.9-1-1.4-1.6
						c-0.2-0.2-0.2-0.5,0-0.7c0,0,0,0,0,0c0.2-0.2,0.5-0.1,0.7,0.1c0.5,0.6,0.9,1.1,1.4,1.6c0.2,0.2,0.2,0.5,0,0.7
						C52,92,51.8,92,51.7,92L51.7,92z M163.8,91.5c-0.2,0-0.5-0.2-0.5-0.4c-0.1-0.7-0.3-1.3-0.5-2c-0.1-0.3,0.1-0.5,0.3-0.6
						c0.3-0.1,0.5,0.1,0.6,0.3c0.2,0.7,0.4,1.4,0.5,2.1C164.3,91.2,164.2,91.4,163.8,91.5L163.8,91.5z M97.8,89.4
						c-0.3,0-0.5-0.2-0.5-0.5c0-0.1,0.1-0.3,0.1-0.4c0.5-0.5,1-1,1.5-1.5c0.2-0.2,0.5-0.2,0.7,0c0,0,0,0,0,0c0.2,0.2,0.2,0.5,0,0.7
						c0,0,0,0,0,0c-0.5,0.5-1,1-1.5,1.5C98.1,89.4,98,89.4,97.8,89.4z M49,88.8c-0.2,0-0.3-0.1-0.4-0.2c-0.4-0.6-0.9-1.1-1.3-1.7
						c-0.2-0.2-0.1-0.5,0.1-0.7c0.2-0.2,0.5-0.1,0.7,0.1c0.4,0.6,0.8,1.1,1.3,1.7c0.2,0.2,0.1,0.5-0.1,0.7
						C49.2,88.7,49.1,88.8,49,88.8z M162.5,87.5c-0.2,0-0.4-0.1-0.4-0.3c-0.3-0.6-0.6-1.2-1-1.8c-0.1-0.2-0.1-0.5,0.2-0.7
						c0.2-0.1,0.5-0.1,0.7,0.2l0,0c0.4,0.6,0.7,1.3,1,1.9c0.1,0.3,0,0.5-0.2,0.7C162.6,87.5,162.6,87.5,162.5,87.5z M100.9,86.5
						c-0.1,0-0.3-0.1-0.4-0.2c-0.2-0.2-0.2-0.5,0-0.7c0,0,0,0,0,0c0.5-0.5,1.1-0.9,1.6-1.4c0.2-0.2,0.5-0.1,0.7,0.1
						c0.2,0.2,0.1,0.5-0.1,0.7c0,0,0,0,0,0c-0.6,0.4-1.1,0.9-1.6,1.3C101.1,86.5,101,86.5,100.9,86.5L100.9,86.5z M46.5,85.4
						c-0.2,0-0.3-0.1-0.4-0.2c-0.4-0.6-0.8-1.2-1.2-1.8c-0.1-0.2-0.1-0.5,0.2-0.7c0.2-0.1,0.5-0.1,0.7,0.2l0,0
						c0.4,0.6,0.7,1.2,1.1,1.8c0.2,0.2,0.1,0.5-0.1,0.7C46.7,85.3,46.6,85.4,46.5,85.4z M160.4,83.9c-0.2,0-0.3-0.1-0.4-0.2
						c-0.4-0.5-0.9-1-1.3-1.5c-0.2-0.2-0.2-0.5,0-0.7c0,0,0,0,0,0c0.2-0.2,0.5-0.2,0.7,0c0,0,0,0,0,0c0.5,0.5,1,1.1,1.4,1.6
						c0.2,0.2,0.1,0.5-0.1,0.7C160.6,83.9,160.5,83.9,160.4,83.9z M104.2,83.9c-0.2,0-0.3-0.1-0.4-0.2c-0.2-0.2-0.1-0.5,0.1-0.7
						c0.6-0.4,1.1-0.8,1.7-1.2c0.2-0.2,0.5-0.1,0.7,0.1c0,0,0,0,0,0c0.2,0.2,0.1,0.5-0.1,0.7c-0.6,0.4-1.2,0.8-1.7,1.2
						C104.4,83.9,104.3,83.9,104.2,83.9L104.2,83.9z M44.3,81.8c-0.2,0-0.4-0.1-0.4-0.3c-0.3-0.6-0.7-1.2-1-1.9
						c-0.1-0.2,0-0.5,0.2-0.7c0,0,0,0,0,0c0.2-0.1,0.5,0,0.7,0.2c0.3,0.6,0.6,1.2,1,1.8c0.1,0.2,0.1,0.5-0.2,0.7c0,0,0,0,0,0
						C44.5,81.8,44.4,81.8,44.3,81.8z M107.6,81.6c-0.2,0-0.3-0.1-0.4-0.2c-0.1-0.2-0.1-0.5,0.2-0.7c0.6-0.4,1.2-0.7,1.8-1.1
						c0.2-0.1,0.5,0,0.7,0.2c0.1,0.2,0,0.5-0.2,0.7c-0.6,0.3-1.2,0.7-1.8,1C107.8,81.5,107.7,81.5,107.6,81.6z M157.4,80.9
						c-0.1,0-0.2,0-0.3-0.1c-0.5-0.4-1.1-0.9-1.6-1.3c-0.2-0.2-0.3-0.5-0.1-0.7c0.2-0.2,0.5-0.3,0.7-0.1c0,0,0,0,0,0
						c0.6,0.4,1.2,0.9,1.7,1.3c0.2,0.2,0.2,0.5,0.1,0.7C157.7,80.8,157.6,80.9,157.4,80.9L157.4,80.9z M111.3,79.5
						c-0.2,0-0.4-0.1-0.4-0.3c-0.1-0.2,0-0.5,0.2-0.7c0,0,0,0,0,0c0.6-0.3,1.3-0.6,1.9-0.9c0.3-0.1,0.5,0,0.7,0.2
						c0.1,0.2,0,0.5-0.2,0.7c0,0,0,0,0,0c-0.6,0.3-1.3,0.6-1.9,0.9C111.5,79.5,111.4,79.5,111.3,79.5L111.3,79.5z M154,78.4
						c-0.1,0-0.2,0-0.3-0.1c-0.6-0.4-1.2-0.7-1.8-1c-0.2-0.1-0.3-0.4-0.2-0.7c0.1-0.2,0.4-0.3,0.7-0.2c0.6,0.3,1.3,0.7,1.9,1
						c0.2,0.1,0.3,0.5,0.2,0.7C154.3,78.3,154.2,78.4,154,78.4L154,78.4z M42.4,78c-0.2,0-0.4-0.1-0.5-0.3c-0.3-0.6-0.6-1.3-0.8-2
						c-0.1-0.2,0-0.5,0.2-0.7c0.2-0.1,0.5,0,0.7,0.2c0,0,0,0.1,0,0.1c0.2,0.7,0.5,1.3,0.8,1.9c0.1,0.3,0,0.5-0.3,0.7c0,0,0,0,0,0
						C42.5,78,42.5,78,42.4,78z M115.2,77.8c-0.2,0-0.4-0.1-0.5-0.3c-0.1-0.3,0-0.5,0.3-0.6c0,0,0,0,0,0c0.7-0.3,1.3-0.5,2-0.8
						c0.3-0.1,0.6,0.1,0.7,0.3s-0.1,0.6-0.3,0.7l0,0c-0.7,0.2-1.3,0.5-2,0.7C115.3,77.8,115.2,77.8,115.2,77.8z M150.3,76.5
						c-0.1,0-0.1,0-0.2,0c-1.1-0.5-1.8-0.7-1.8-0.7c-0.3-0.1-0.4-0.3-0.4-0.6c0-0.3,0.3-0.4,0.5-0.4c0,0,0,0,0,0h0.1
						c0.7,0.2,1.3,0.4,2,0.7c0.3,0.1,0.5,0.3,0.4,0.6S150.6,76.6,150.3,76.5L150.3,76.5z M119.1,76.4c-0.3,0-0.5-0.2-0.6-0.4
						s0.2-0.5,0.4-0.6c0.7-0.2,1.3-0.4,2-0.6c0.3-0.1,0.5,0.1,0.6,0.3c0,0,0,0,0,0c0.1,0.3-0.1,0.5-0.4,0.6c0,0,0,0,0,0
						C120.6,75.9,119.9,76.1,119.1,76.4C119.2,76.3,119.2,76.4,119.1,76.4L119.1,76.4z M146.2,75.4L146.2,75.4
						c-0.8-0.1-1.5-0.2-2.1-0.3c-0.3,0-0.5-0.3-0.4-0.6c0,0,0,0,0,0c0-0.3,0.3-0.5,0.5-0.4c0,0,0,0,0,0l2.1,0.4
						c0.3,0,0.5,0.3,0.5,0.5S146.5,75.4,146.2,75.4L146.2,75.4z M123.2,75.4c-0.2,0-0.4-0.2-0.5-0.4c-0.1-0.3,0.1-0.5,0.4-0.6
						c0.7-0.1,1.4-0.3,2.1-0.4c0.3,0,0.5,0.1,0.6,0.4c0,0.3-0.1,0.5-0.4,0.6c-0.7,0.1-1.4,0.2-2,0.4L123.2,75.4z M142.1,74.8
						L142.1,74.8c-0.8-0.1-1.4-0.2-2.1-0.2c-0.3,0-0.5-0.3-0.5-0.5s0.3-0.5,0.5-0.5c0.7,0.1,1.4,0.1,2.1,0.2c0.3,0,0.5,0.3,0.5,0.5
						S142.3,74.8,142.1,74.8z M127.4,74.7c-0.3,0-0.5-0.2-0.5-0.4c0-0.3,0.2-0.5,0.4-0.6c0.7-0.1,1.4-0.2,2.1-0.2
						c0.3,0,0.5,0.2,0.5,0.4c0,0,0,0,0,0c0,0.3-0.2,0.5-0.5,0.5c0,0,0,0,0,0C128.8,74.5,128.1,74.6,127.4,74.7L127.4,74.7z
						 M137.9,74.4L137.9,74.4l-2.1-0.1c-0.3,0-0.5-0.2-0.5-0.5c0-0.3,0.2-0.5,0.5-0.5c0,0,0,0,0,0l2.1,0.1c0.3,0,0.5,0.2,0.5,0.5
						S138.2,74.3,137.9,74.4L137.9,74.4z M131.6,74.4c-0.3,0-0.5-0.2-0.5-0.5c0-0.3,0.2-0.5,0.5-0.5c0,0,0,0,0,0
						c0.7,0,1.4,0,2.1-0.1l0,0c0.3,0,0.5,0.2,0.5,0.5s-0.2,0.5-0.5,0.5C132.9,74.3,132.3,74.3,131.6,74.4z M40.9,74.2
						c-0.2,0-0.4-0.1-0.5-0.3c-0.2-0.7-0.4-1.4-0.6-2.1c-0.1-0.3,0.1-0.5,0.4-0.6c0.3-0.1,0.5,0.1,0.6,0.4c0,0,0,0,0,0
						c0.2,0.7,0.4,1.3,0.6,2c0.1,0.3,0,0.5-0.3,0.6c0,0,0,0,0,0C41,74.1,41,74.1,40.9,74.2L40.9,74.2z M39.9,70.1
						c-0.2,0-0.5-0.2-0.5-0.4c-0.1-0.7-0.2-1.4-0.3-2.1c0-0.3,0.2-0.5,0.4-0.5c0,0,0,0,0,0c0.3,0,0.5,0.2,0.5,0.4
						c0.1,0.7,0.2,1.4,0.3,2C40.5,69.7,40.3,70,39.9,70.1L39.9,70.1z M39.5,65.9c-0.3,0-0.5-0.2-0.5-0.5c0-0.3,0-0.7,0-1
						s0-0.8,0-1.2c0-0.3,0.2-0.5,0.5-0.5S40,63,40,63.3c0,0.4,0,0.8,0,1.1s0,0.6,0,0.9C40,65.6,39.8,65.8,39.5,65.9
						C39.5,65.8,39.5,65.8,39.5,65.9L39.5,65.9z M39.6,61.6L39.6,61.6c-0.3,0-0.5-0.3-0.5-0.6c0,0,0,0,0,0c0.1-0.7,0.2-1.4,0.3-2.1
						c0.1-0.3,0.3-0.4,0.6-0.4c0.3,0.1,0.4,0.3,0.4,0.6c0,0,0,0,0,0c-0.1,0.7-0.2,1.4-0.3,2C40.1,61.4,39.9,61.6,39.6,61.6z
						 M40.4,57.5h-0.1c-0.3-0.1-0.4-0.3-0.4-0.6c0,0,0,0,0,0c0.2-0.7,0.4-1.4,0.6-2c0.1-0.3,0.4-0.4,0.7-0.3s0.4,0.4,0.3,0.7l0,0
						c-0.2,0.7-0.5,1.3-0.6,2C40.9,57.4,40.7,57.5,40.4,57.5z M41.9,53.5c-0.1,0-0.1,0-0.2,0c-0.3-0.1-0.4-0.4-0.3-0.7
						c0.3-0.6,0.6-1.3,0.9-1.9c0.1-0.3,0.4-0.4,0.6-0.3c0.3,0.1,0.4,0.4,0.3,0.6c0,0,0,0.1-0.1,0.1c-0.3,0.6-0.6,1.2-0.9,1.9
						C42.2,53.4,42.1,53.5,41.9,53.5L41.9,53.5z M43.8,49.8c-0.1,0-0.2,0-0.3-0.1c-0.2-0.1-0.3-0.4-0.2-0.7c0,0,0,0,0,0
						c0.4-0.6,0.7-1.2,1.2-1.8c0.2-0.2,0.5-0.3,0.7-0.1c0.2,0.2,0.3,0.5,0.1,0.7c-0.4,0.6-0.8,1.2-1.1,1.7
						C44.1,49.7,44,49.8,43.8,49.8L43.8,49.8z M46.2,46.3c-0.3,0-0.5-0.2-0.5-0.5c0-0.1,0-0.2,0.1-0.3c0.4-0.5,0.9-1.1,1.3-1.7
						c0.2-0.2,0.5-0.2,0.7,0c0.2,0.2,0.2,0.4,0.1,0.6c-0.5,0.5-0.9,1.1-1.3,1.6C46.5,46.2,46.3,46.3,46.2,46.3L46.2,46.3z
						 M48.9,43.1c-0.1,0-0.2-0.1-0.3-0.1c-0.2-0.2-0.2-0.5,0-0.7c0,0,0,0,0,0c0.5-0.5,1-1,1.5-1.5c0.2-0.2,0.5-0.2,0.7,0
						c0,0,0,0,0,0c0.2,0.2,0.2,0.5,0,0.7c0,0,0,0,0,0c-0.5,0.5-1,1-1.4,1.5C49.2,43.1,49,43.1,48.9,43.1L48.9,43.1z M51.9,40.1
						c-0.1,0-0.3-0.1-0.4-0.2c-0.2-0.2-0.2-0.5,0-0.7c0.5-0.5,1-0.9,1.6-1.4c0.2-0.2,0.5-0.2,0.7,0s0.2,0.5,0,0.7
						c-0.5,0.5-1.1,0.9-1.6,1.4C52.1,40.1,52,40.1,51.9,40.1L51.9,40.1z M55.1,37.3c-0.2,0-0.3,0-0.4-0.1c-0.2-0.2-0.1-0.5,0.1-0.7
						c0,0,0,0,0,0c0.5-0.4,1.1-0.9,1.7-1.3c0.2-0.2,0.5-0.2,0.7,0c0.2,0.2,0.2,0.5,0,0.7C57,36,57,36,57,36
						c-0.6,0.4-1.1,0.9-1.6,1.3C55.3,37.4,55.1,37.4,55.1,37.3L55.1,37.3z M58.4,34.8c-0.2,0-0.3-0.1-0.4-0.2
						c-0.2-0.2-0.1-0.5,0.1-0.7c0.6-0.4,1.1-0.8,1.7-1.2c0.2-0.1,0.5,0,0.7,0.2c0.1,0.2,0.1,0.5-0.1,0.6c-0.6,0.4-1.2,0.8-1.7,1.2
						C58.6,34.8,58.5,34.8,58.4,34.8L58.4,34.8z M61.9,32.4c-0.2,0-0.3-0.1-0.4-0.2c-0.1-0.2-0.1-0.5,0.2-0.7
						c0.6-0.4,1.2-0.8,1.8-1.1c0.2-0.1,0.5-0.1,0.7,0.2c0,0,0,0,0,0c0.1,0.2,0.1,0.5-0.2,0.7c-0.6,0.4-1.2,0.7-1.8,1.1
						C62.1,32.4,62,32.5,61.9,32.4L61.9,32.4z M65.5,30.2c-0.2,0-0.3-0.1-0.4-0.2c-0.1-0.2-0.1-0.5,0.2-0.7l1.8-1.1
						c0.2-0.1,0.5,0,0.7,0.2c0.1,0.2,0.1,0.5-0.2,0.7c0,0,0,0,0,0c-0.6,0.3-1.2,0.7-1.8,1C65.7,30.2,65.6,30.3,65.5,30.2L65.5,30.2z
						 M69.1,28.2c-0.2,0-0.4-0.1-0.4-0.3c-0.1-0.2,0-0.5,0.2-0.7l1.9-1c0.2-0.2,0.5-0.1,0.7,0.1s0.1,0.5-0.1,0.7c0,0-0.1,0-0.1,0.1
						l-1.8,1C69.3,28.2,69.2,28.2,69.1,28.2z M72.8,26.3c-0.2,0-0.4-0.1-0.4-0.3c-0.1-0.2,0-0.5,0.2-0.7l1.9-0.9
						c0.2-0.1,0.5-0.1,0.7,0.2s0.1,0.5-0.2,0.7c0,0,0,0-0.1,0l-1.9,0.9C73,26.3,72.9,26.3,72.8,26.3z M76.6,24.5
						c-0.3,0-0.5-0.2-0.5-0.5c0-0.2,0.1-0.4,0.3-0.4l1.9-0.9c0.3-0.1,0.5,0,0.6,0.3c0.1,0.2,0,0.5-0.2,0.6l-1.9,0.9
						C76.8,24.5,76.7,24.5,76.6,24.5z M80.5,22.7c-0.2,0-0.4-0.1-0.5-0.3c-0.1-0.3,0-0.5,0.3-0.7l1.9-0.8c0.2-0.1,0.5,0,0.7,0.2
						c0.1,0.2,0,0.5-0.2,0.7c0,0,0,0,0,0l-2,0.8C80.6,22.7,80.5,22.7,80.5,22.7z M84.4,21.1c-0.2,0-0.4-0.1-0.5-0.3
						c-0.1-0.2,0-0.5,0.3-0.6c0,0,0,0,0,0l2-0.8c0.3-0.1,0.5,0,0.7,0.3c0.1,0.3,0,0.5-0.3,0.6c0,0,0,0,0,0l-2,0.8
						C84.5,21.1,84.4,21.1,84.4,21.1z M88.3,19.6c-0.2,0-0.4-0.1-0.5-0.3c-0.1-0.3,0-0.5,0.3-0.6l2-0.8c0.3-0.1,0.5,0,0.6,0.3
						c0.1,0.3,0,0.5-0.3,0.6c0,0,0,0,0,0l-2,0.7C88.4,19.6,88.3,19.6,88.3,19.6z M92.2,18.1c-0.2,0-0.4-0.1-0.5-0.3
						c-0.1-0.3,0-0.5,0.3-0.6l2-0.7c0.3-0.1,0.5,0.1,0.6,0.3c0.1,0.3-0.1,0.5-0.3,0.6l-2,0.7C92.3,18.1,92.3,18.1,92.2,18.1z
						 M96.2,16.7c-0.3,0-0.5-0.1-0.6-0.4s0.1-0.5,0.4-0.6l2-0.7c0.3-0.1,0.5,0.1,0.6,0.3c0.1,0.3,0,0.5-0.3,0.6c0,0,0,0,0,0l-2,0.7
						L96.2,16.7z M100.2,15.4c-0.2,0-0.4-0.1-0.5-0.4c-0.1-0.3,0.1-0.5,0.3-0.6l2-0.6c0.3-0.1,0.6,0.1,0.7,0.3s-0.1,0.6-0.3,0.7l0,0
						l-2,0.6L100.2,15.4z M104.2,14.1c-0.2,0-0.4-0.1-0.5-0.4c-0.1-0.3,0.1-0.5,0.3-0.6l2-0.6c0.3-0.1,0.6,0.1,0.6,0.4
						c0.1,0.3-0.1,0.6-0.4,0.6l0,0l-2,0.6L104.2,14.1z M108.2,12.9c-0.2,0-0.4-0.1-0.5-0.4c-0.1-0.3,0.1-0.5,0.3-0.6c0,0,0,0,0,0
						l2-0.6c0.3-0.1,0.5,0.1,0.6,0.3c0,0,0,0,0,0c0.1,0.3-0.1,0.5-0.3,0.6l-2,0.6C108.3,12.9,108.3,12.9,108.2,12.9L108.2,12.9z
						 M112.2,11.7c-0.2,0-0.4-0.1-0.5-0.4c-0.1-0.3,0.1-0.5,0.3-0.6c0,0,0,0,0,0l2-0.6c0.3-0.1,0.6,0.1,0.6,0.4
						c0.1,0.3-0.1,0.6-0.4,0.6l0,0l-2,0.6C112.3,11.7,112.3,11.7,112.2,11.7L112.2,11.7z M116.3,10.6c-0.2,0-0.4-0.2-0.5-0.4
						c-0.1-0.3,0.1-0.5,0.4-0.6l1.8-0.5c0.3-0.1,0.5,0.1,0.6,0.4c0.1,0.3-0.1,0.5-0.4,0.6c0,0,0,0,0,0l-1.8,0.5L116.3,10.6z"/>
				</g>
				<polygon class="st4" points="79.1,126.8 77.1,126.8 77.1,124.8 75.8,124.8 75.8,126.8 73.8,126.8 73.8,128.1 75.8,128.1 
					75.8,130.1 77.1,130.1 77.1,128.1 79.1,128.1 				"/>
			</g>
			<g id="Oval">
				<circle class="st5" cx="120.4" cy="8.5" r="3.3"/>
				<path class="st3" d="M120.4,12.8c-2.4,0-4.3-1.9-4.3-4.3s1.9-4.3,4.3-4.3c2.4,0,4.3,1.9,4.3,4.3S122.8,12.8,120.4,12.8
					L120.4,12.8z M120.4,6.2c-1.3,0-2.3,1-2.3,2.3s1,2.3,2.3,2.3s2.3-1,2.3-2.3C122.7,7.3,121.7,6.2,120.4,6.2z"/>
			</g>
		</g>
	</g>
	<path class="st6" d="M115.8,54.3h-0.3C115.5,54.3,115.7,54.3,115.8,54.3z"/>
	<path class="st6" d="M120.3,54.3h-0.5C119.9,54.4,120.1,54.4,120.3,54.3z"/>
	<path class="st6" d="M128.8,55.2h-0.2l0,0H128.8L128.8,55.2z"/>
	<path class="st6" d="M128.5,55.9L128.5,55.9L128.5,55.9L128.5,55.9z"/>
	<path class="st6" d="M125,55.2L125,55.2l-0.2,0.1h0.1L125,55.2z"/>
	<path class="st6" d="M129.3,57.1h-0.1l0,0H129.3z"/>
	<path class="st6" d="M130.1,54.8L130.1,54.8L130.1,54.8L130.1,54.8L130.1,54.8z"/>
	<path class="st6" d="M136.1,56L136.1,56H136v0.1L136.1,56z"/>
	<polygon class="st6" points="136.2,55.9 136.2,55.9 136.2,56 	"/>
	<path class="st6" d="M131.1,54.7v-0.1H131L131.1,54.7L131.1,54.7z"/>
	<path class="st6" d="M135.7,55.7L135.7,55.7L135.7,55.7L135.7,55.7C135.8,55.7,135.7,55.7,135.7,55.7z"/>
	<path class="st6" d="M132.5,55l-0.1,0v0.1L132.5,55L132.5,55z"/>
	<path class="st6" d="M132.4,56.7h0.2v-0.1L132.4,56.7L132.4,56.7z"/>
	<path class="st6" d="M78.1,111.7C78.1,111.7,78.1,111.7,78.1,111.7c0-0.1,0-0.2,0-0.2c0,0,0,0-0.1,0.1L78.1,111.7z"/>
	<path class="st6" d="M98.9,111.7L98.9,111.7l-0.1,0l0,0L98.9,111.7z"/>
	<path class="st5" d="M174.6,98.7c0-8.9,7.2-16,16.1-16V60c0-1.6-1.3-2.9-2.9-2.9L31,56.8c-1.6,0-2.9,1.3-2.9,2.8v22.7
		C37,82.7,44,90.1,43.7,98.9c-0.2,8.6-7.1,15.4-15.7,15.6l-0.1,22.7c0,1.6,1.3,2.9,2.9,2.9l156.9,0.3c1.6,0,2.8-1.3,2.9-2.8
		c0,0,0,0,0,0v-22.7C181.8,114.7,174.6,107.6,174.6,98.7z"/>
	<path class="st7" d="M174.6,98.1c0-8.9,7.2-16.1,16.1-16.1V59.1c0-1.6-1.3-2.9-2.8-2.9c0,0,0,0,0,0L31,55.9c-1.6,0-2.9,1.3-2.9,2.8
		c0,0,0,0,0,0v22.9c8.9,0,16.2,7.3,16.1,16.2c0,8.9-7.3,16.2-16.2,16.2v22.9c0,1.6,1.3,2.9,2.8,2.9c0,0,0,0,0,0l156.9,0.3
		c1.6,0,2.8-1.3,2.8-2.8v-22.9C181.7,114.3,174.6,107,174.6,98.1z"/>
	<path class="st8" d="M138.1,140.7L138.1,140.7l-105.6-0.2c-2.9,0-5.2-2.3-5.2-5.2v-20c0-1.3,1-2.3,2.2-2.4
		c8.3-0.7,14.5-7.9,13.8-16.2c-0.6-7.4-6.4-13.2-13.8-13.8c-1.3-0.1-2.2-1.1-2.2-2.4v-20c0-2.9,2.3-5.3,5.2-5.3c0,0,0.1,0,0.1,0
		l154.1,0.3c2.9,0,5.2,2.4,5.2,5.3v20c0,1.3-1,2.3-2.2,2.4c-5,0.4-9.4,3.2-11.9,7.6c-0.3,0.5-0.9,0.7-1.3,0.4
		c-0.5-0.3-0.7-0.9-0.4-1.3c0,0,0,0,0-0.1c2.8-4.9,7.8-8.1,13.5-8.6c0.2,0,0.4-0.2,0.4-0.4v-20c0-1.8-1.4-3.2-3.2-3.2c0,0,0,0,0,0
		L32.6,57.1l0,0c-1.8,0-3.2,1.4-3.2,3.2v20c0,0.2,0.2,0.4,0.4,0.4c9.4,0.9,16.2,9.3,15.3,18.7c-0.8,8.1-7.3,14.5-15.4,15.3
		c-0.2,0-0.4,0.2-0.4,0.4v20c0,1.8,1.4,3.2,3.2,3.2c0,0,0,0,0,0l105.6,0.2c0.6,0,1,0.4,1,1s-0.4,1-1,1L138.1,140.7z"/>
	<path class="st6" d="M105.6,65.5h-0.3C105.4,65.5,105.5,65.5,105.6,65.5z"/>
	<path class="st6" d="M110.2,65.5h-0.5C109.8,65.6,110,65.6,110.2,65.5z"/>
	<path class="st6" d="M118.7,66.4L118.7,66.4L118.7,66.4L118.7,66.4L118.7,66.4z"/>
	<path class="st6" d="M118.4,67.1L118.4,67.1L118.4,67.1L118.4,67.1C118.4,67.1,118.4,67.1,118.4,67.1z"/>
	<path class="st6" d="M114.9,66.4L114.9,66.4l-0.1,0.1h0.1L114.9,66.4z"/>
	<path class="st6" d="M119.2,68.3L119.2,68.3L119.2,68.3L119.2,68.3z"/>
	<path class="st6" d="M120,66L120,66L120,66L120,66L120,66z"/>
	<path class="st6" d="M126,67.2L126,67.2h-0.1v0.1L126,67.2z"/>
	<polygon class="st6" points="126.2,67.1 126.1,67.1 126.1,67.2 	"/>
	<path class="st6" d="M121,65.9v-0.1l0,0V65.9z"/>
	<path class="st6" d="M125.6,66.9L125.6,66.9L125.6,66.9L125.6,66.9C125.6,66.9,125.6,66.9,125.6,66.9z"/>
	<path class="st6" d="M122.4,66.2h-0.2v0.1L122.4,66.2L122.4,66.2z"/>
	<path class="st5" d="M64.1,73.3h89.4c2.4,0,4.4,2,4.4,4.4v38.7c0,2.4-2,4.4-4.4,4.4H64.1c-2.4,0-4.4-2-4.4-4.4V77.7
		C59.6,75.3,61.6,73.3,64.1,73.3z"/>
	<path class="st8" d="M153.5,121.9H64.1c-3,0-5.4-2.4-5.4-5.4V77.7c0-3,2.4-5.4,5.4-5.4h89.4c3,0,5.4,2.4,5.4,5.4v38.7
		C158.9,119.5,156.5,121.9,153.5,121.9z M64.1,74.3c-1.9,0-3.4,1.5-3.4,3.4v38.7c0,1.9,1.5,3.4,3.4,3.4h89.4c1.9,0,3.4-1.5,3.4-3.4
		V77.7c0-1.9-1.5-3.4-3.4-3.4H64.1z"/>
	<path class="st6" d="M88.8,122.9L88.8,122.9l-0.1,0v0.1L88.8,122.9z"/>
	<path class="st8" d="M138.1,90.8H78.7c-0.6,0-1-0.4-1-1s0.4-1,1-1h59.4c0.6,0,1,0.4,1,1S138.6,90.8,138.1,90.8z"/>
	<g class="st9">
		<circle class="st8" cx="166.3" cy="122.6" r="32.4"/>
	</g>
	<path class="st8" d="M125.9,106.5H90.8c-0.6,0-1-0.4-1-1s0.4-1,1-1h35.1c0.6,0,1,0.4,1,1S126.5,106.5,125.9,106.5z"/>
	<circle class="st10" cx="169.3" cy="124.5" r="31.2"/>
	<circle class="st5" cx="169.3" cy="125" r="31.2"/>
	<path class="st8" d="M169.3,157.2L169.3,157.2c-17.8,0-32.2-14.4-32.2-32.2s14.4-32.1,32.2-32.1l0,0h0.1
		c17.8,0,32.1,14.4,32.1,32.2S187,157.2,169.3,157.2z M169.3,94.8c-16.6,0-30.1,13.5-30.2,30.1l0,0c0,16.7,13.5,30.2,30.1,30.2l0,0
		c16.7,0,30.2-13.5,30.2-30.1S185.9,94.9,169.3,94.8L169.3,94.8z"/>
	<path class="st8" d="M169.7,156.6L169.7,156.6c-17.8,0-32.2-14.5-32.2-32.2c0,0,0,0,0,0l0,0c0-17.7,14.4-32.1,32.1-32.1h0.1
		c17.8,0,32.1,14.4,32.1,32.2S187.4,156.7,169.7,156.6L169.7,156.6L169.7,156.6z M169.7,94.3c-16.7,0-30.2,13.5-30.2,30.2
		c0,16.7,13.5,30.2,30.2,30.2h0.1c16.7,0,30.2-13.5,30.2-30.2C199.9,107.8,186.4,94.3,169.7,94.3L169.7,94.3z"/>
	<path class="st8" d="M166.8,134.5c-0.4,0-0.8-0.1-1.1-0.4l-7.2-7.2c-0.6-0.6-0.6-1.5,0-2.1s1.5-0.6,2.1,0l6.1,6.1l13.7-13.7
		c0.6-0.6,1.5-0.6,2.1,0s0.6,1.5,0,2.1l-14.8,14.8C167.6,134.4,167.2,134.5,166.8,134.5z"/>
</g>
</svg>
