<svg version="1.2" xmlns="http://www.w3.org/2000/svg" viewBox="0 0 210 210" width="210" height="210"><style>.a{fill:#fbf4e2}.b{fill:#f6e8c8}.c{fill:#5b4029}.d{fill:#b4975a}.e{fill:#dae1e7}.f{fill:#fff}.g{fill:#d2583c}.h{fill:#e3eff3}</style><path fill-rule="evenodd" class="a" d="m115.1 178.4l56.3-56.3c3.6-3.4 9.3-3.2 12.7 0.4 3.2 3.5 3.2 8.8 0 12.3l-56.3 56.3c-3.6 3.4-9.3 3.2-12.7-0.4-3.2-3.4-3.2-8.8 0-12.3z"/><path fill-rule="evenodd" class="a" d="m20.4 133l8.7-8.7c3.4-3.6 9.1-3.8 12.7-0.4 3.6 3.4 3.8 9.1 0.4 12.7-0.1 0.2-0.3 0.3-0.4 0.4l-8.7 8.7c-3.4 3.6-9.1 3.8-12.7 0.4-3.6-3.4-3.8-9.1-0.4-12.7 0.1-0.1 0.3-0.3 0.4-0.4z"/><path fill-rule="evenodd" class="a" d="m119.1 149.5l25.7-25.7c-3.4 3.7-3.1 9.4 0.6 12.7 3.4 3.1 8.7 3.1 12.1 0l-25.8 25.7c3.7-3.4 3.9-9 0.6-12.7-3.4-3.7-9-3.9-12.7-0.6-0.1 0.2-0.3 0.4-0.5 0.6z"/><path fill-rule="evenodd" class="b" d="m108.1 110.3l24.1-24.1c-3.4 3.6-3.2 9.3 0.4 12.7 3.5 3.2 8.8 3.2 12.3 0l-24.1 24.1c3.4-3.6 3.2-9.3-0.4-12.7-3.5-3.2-8.9-3.2-12.3 0z"/><path fill-rule="evenodd" class="a" d="m99.5 143.8l70.4-70.4c3.6-3.4 9.3-3.2 12.7 0.4 3.2 3.5 3.2 8.8 0 12.3l-70.4 70.4c-3.6 3.4-9.3 3.3-12.7-0.3-3.3-3.5-3.3-9 0-12.4z"/><path fill-rule="evenodd" class="a" d="m30.4 162.8l95.8-95.8c3.4-3.7 9-3.9 12.7-0.6 3.7 3.4 3.9 9 0.6 12.7q-0.3 0.3-0.6 0.6l-95.8 95.8c-3.7 3.4-9.4 3.1-12.7-0.6-3.2-3.4-3.2-8.6 0-12.1z"/><path fill-rule="evenodd" class="b" d="m47.3 99.8l35.5-35.5c3.5-3.5 9.2-3.5 12.7 0 3.5 3.5 3.5 9.2 0 12.7l-35.5 35.5c-3.7 3.4-9.4 3.1-12.7-0.6-3.1-3.4-3.1-8.7 0-12.1z"/><path fill-rule="evenodd" class="a" d="m106.1 41l0.2-0.2c3.6-3.4 9.3-3.2 12.7 0.4 3.2 3.5 3.2 8.8 0 12.3l-0.2 0.2c-3.5 3.5-9.2 3.5-12.7 0-3.5-3.5-3.5-9.2 0-12.7z"/><path fill-rule="evenodd" class="a" d="m78.9 163.8l0.2-0.2c3.4-3.7 9-3.9 12.7-0.6 3.7 3.4 3.9 9 0.6 12.7q-0.3 0.3-0.6 0.6l-0.2 0.2c-3.5 3.5-9.2 3.5-12.7 0-3.6-3.5-3.6-9.2 0-12.7z"/><path fill-rule="evenodd" class="c" d="m200.1 195.7q0.9-0.3 1.8-0.3c0.6 0 1.2 0.1 1.9 0.2 0.3 0.1 0.5 0.4 0.4 0.7 0 0.2-0.2 0.4-0.4 0.4-0.6 0.1-1.2 0.2-1.9 0.2q-0.9 0-1.8-0.3c-0.3-0.1-0.4-0.4-0.3-0.6 0-0.1 0.1-0.3 0.3-0.3z"/><path fill-rule="evenodd" class="c" d="m31.5 195.7c6.9-0.2 13.8-0.2 20.7-0.2h20.8 41.5 41.5 20.7c6.9 0 13.8 0 20.7 0.2 0.3 0 0.5 0.3 0.5 0.7 0 0.3-0.2 0.5-0.5 0.5-6.9 0.2-13.8 0.2-20.7 0.2h-20.7-41.4-41.6-20.7c-6.9 0-13.8 0-20.7-0.2-0.2 0-0.4-0.2-0.4-0.4 0-0.2 0.2-0.4 0.4-0.4"/><path fill-rule="evenodd" class="c" d="m27.5 195.5q0.2 0 0.3 0h0.1c0 0 0.1 0 0.1 0.1 0.3 0.2 0.4 0.6 0.2 0.9 0 0.1-0.1 0.1-0.2 0.2 0 0-0.1 0-0.1 0.1h-0.1q-0.1 0-0.3 0c-0.4-0.1-0.6-0.4-0.5-0.8 0-0.3 0.2-0.5 0.5-0.5z"/><path fill-rule="evenodd" class="c" d="m20.8 195.7c0.4-0.1 0.9-0.2 1.3-0.2 0.5 0 0.9 0 1.4 0.1 0.3 0.1 0.5 0.4 0.4 0.7-0.1 0.2-0.2 0.3-0.4 0.4-0.4 0.1-0.9 0.2-1.4 0.1-0.5 0-0.9-0.1-1.3-0.2-0.3-0.1-0.4-0.3-0.4-0.6 0.1-0.1 0.3-0.3 0.4-0.3z"/><path fill-rule="evenodd" class="c" d="m95.4 204.5c2.2-0.2 4.3-0.2 6.5-0.2h6.5l12.9-0.1h19.4c2.2 0 4.3 0 6.5 0.2 0.3 0 0.6 0.3 0.5 0.6 0 0.3-0.3 0.5-0.5 0.5-2.1 0.2-4.3 0.2-6.5 0.2h-19.4l-12.9-0.1h-6.5c-2.2 0-4.3 0-6.5-0.2-0.2 0-0.4-0.3-0.4-0.5 0-0.1 0.2-0.3 0.4-0.4z"/><path fill-rule="evenodd" class="c" d="m74.1 204.5c2.2-0.1 4.4-0.2 6.6-0.2 2.2 0 4.4 0 6.6 0.1 0.3 0 0.5 0.3 0.5 0.6 0 0.2-0.2 0.4-0.5 0.5-2.2 0.1-4.4 0.1-6.6 0.1-2.2 0-4.4-0.1-6.6-0.2-0.3 0-0.5-0.2-0.5-0.5 0-0.2 0.2-0.4 0.5-0.4z"/><path fill-rule="evenodd" class="d" d="m193.9 159.2c-1.5 0-2.7-1.2-2.7-2.7 0-1.5 1.2-2.7 2.7-2.7 1.5 0 2.7 1.2 2.7 2.7 0 1.5-1.2 2.7-2.7 2.7zm-0.7-2.7c0 0.4 0.3 0.7 0.7 0.7 0.4 0 0.7-0.3 0.7-0.7 0-0.4-0.3-0.7-0.7-0.7-0.4 0-0.7 0.3-0.7 0.7z"/><path class="d" d="m11 78.2c-0.6 0-1-0.4-1-1v-8.5c0-0.6 0.4-1 1-1 0.6 0 1 0.4 1 1v8.5c0 0.5-0.5 1-1 1z"/><path class="d" d="m15.2 73.9h-8.5c-0.6 0-1-0.4-1-1 0-0.6 0.4-1 1-1h8.5c0.6 0 1 0.4 1 1 0 0.6-0.4 1-1 1z"/><path fill-rule="evenodd" class="d" d="m63.6 66.1c0-1.5 1.2-2.7 2.7-2.7 1.5 0 2.7 1.2 2.7 2.7 0 1.5-1.2 2.7-2.7 2.7-1.5 0-2.7-1.2-2.7-2.7zm2.7-0.7c-0.4 0-0.7 0.3-0.7 0.7 0 0.4 0.3 0.7 0.7 0.7 0.4 0 0.7-0.3 0.7-0.7 0-0.4-0.3-0.7-0.7-0.7z"/><path fill-rule="evenodd" class="d" d="m194.5 106c-1.5 0-2.7-1.2-2.7-2.7 0-1.5 1.2-2.7 2.7-2.7 1.5 0 2.7 1.2 2.7 2.7 0 1.5-1.2 2.7-2.7 2.7zm-0.7-2.7c0 0.4 0.3 0.7 0.7 0.7 0.4 0 0.7-0.3 0.7-0.7 0-0.4-0.3-0.7-0.7-0.7-0.4 0-0.7 0.3-0.7 0.7z"/><path fill-rule="evenodd" class="d" d="m99.1 60.7c-0.2 0-0.3 0-0.5-0.1-0.2-0.1-0.4-0.4-0.5-0.6l-0.8-3.1c-0.1-0.5 0.2-1.1 0.7-1.2l3.1-0.8c0.5-0.1 1.1 0.2 1.2 0.7l0.8 3.1c0.1 0.5-0.2 1.1-0.7 1.2l-3.1 0.8c0 0-0.1 0-0.2 0zm0.4-3.4l0.3 1.1 1.1-0.3-0.3-1.2z"/><path fill-rule="evenodd" class="d" d="m44 121.9c-1.7 0-3-1.3-3-3 0-1.7 1.3-3 3-3 1.7 0 3 1.3 3 3 0 1.7-1.3 3-3 3zm0-4c-0.6 0-1 0.4-1 1 0 0.6 0.4 1 1 1 0.6 0 1-0.4 1-1 0-0.6-0.4-1-1-1z"/><path class="d" d="m120 148.3c-0.7-0.1-1.4-0.2-2.2-0.4-0.3-0.1-0.4-0.3-0.4-0.6 0.1-0.3 0.3-0.4 0.6-0.4 0.8 0.2 1.4 0.3 2.1 0.4 0.3 0 0.5 0.3 0.5 0.5 0 0.2-0.3 0.5-0.6 0.5zm-4.1-0.8h-0.1c-0.7-0.1-1.3-0.3-2.1-0.5-0.3-0.1-0.4-0.3-0.4-0.6 0-0.3 0.3-0.4 0.6-0.4l2 0.5c0.3 0.1 0.4 0.3 0.4 0.6 0 0.2-0.2 0.3-0.4 0.4zm-4.1-1.1h-0.1c-0.7-0.2-1.3-0.4-2-0.6-0.3-0.1-0.4-0.4-0.3-0.6 0.1-0.3 0.4-0.4 0.7-0.4l2 0.6c0.3 0 0.5 0.3 0.4 0.6-0.2 0.2-0.4 0.4-0.7 0.4zm-4-1.3c-0.1 0-0.1 0-0.2 0-0.7-0.2-1.3-0.5-2-0.7-0.3-0.1-0.4-0.4-0.3-0.6 0.1-0.3 0.4-0.4 0.6-0.3 0.7 0.2 1.3 0.5 2 0.7 0.3 0.1 0.4 0.4 0.3 0.6 0 0.2-0.2 0.3-0.4 0.3zm-3.9-1.5c-0.1 0-0.1 0-0.2 0-0.7-0.3-1.3-0.6-1.9-0.9-0.2-0.1-0.4-0.4-0.2-0.6 0.1-0.3 0.4-0.4 0.7-0.2 0.6 0.3 1.3 0.6 1.9 0.9 0.3 0.1 0.4 0.4 0.3 0.7-0.3 0-0.5 0.1-0.6 0.1zm-3.9-1.8c-0.1 0-0.2 0-0.2-0.1-0.6-0.3-1.2-0.7-1.9-1-0.2-0.1-0.3-0.4-0.2-0.7 0.1-0.2 0.4-0.3 0.7-0.2 0.6 0.4 1.2 0.7 1.8 1 0.2 0.1 0.3 0.4 0.2 0.7 0 0.2-0.2 0.3-0.4 0.3zm-3.6-2.1c-0.1 0-0.2 0-0.3-0.1q-0.9-0.6-1.8-1.2c-0.2-0.2-0.3-0.5-0.1-0.7 0.2-0.2 0.5-0.3 0.7-0.1 0.6 0.4 1.1 0.8 1.7 1.2 0.2 0.1 0.3 0.5 0.2 0.7-0.1 0.1-0.2 0.2-0.4 0.2zm-3.4-2.5c-0.1 0-0.2 0-0.3-0.1-0.6-0.5-1.1-0.9-1.6-1.4-0.2-0.2-0.2-0.5 0-0.7 0.2-0.2 0.5-0.2 0.7 0 0.5 0.5 1 0.9 1.6 1.4 0.2 0.2 0.2 0.5 0.1 0.7-0.2 0.1-0.3 0.1-0.5 0.1zm-3.1-2.9c-0.1 0-0.3-0.1-0.4-0.2-0.5-0.5-1-1.1-1.4-1.6-0.2-0.2-0.1-0.5 0.1-0.7 0.2-0.2 0.5-0.1 0.7 0.1 0.4 0.5 0.9 1.1 1.3 1.6 0.2 0.2 0.2 0.5 0 0.7 0 0.1-0.1 0.1-0.3 0.1zm-2.5-3.3c-0.2 0-0.3-0.1-0.4-0.2-0.4-0.6-0.8-1.2-1.1-1.9-0.1-0.2 0-0.5 0.2-0.7 0.2-0.1 0.5 0 0.7 0.2 0.3 0.6 0.6 1.2 1 1.8 0.1 0.2 0.1 0.5-0.2 0.7-0.1 0.1-0.2 0.1-0.2 0.1zm-2-3.7c-0.2 0-0.4-0.1-0.5-0.3-0.3-0.7-0.5-1.3-0.7-2-0.1-0.3 0.1-0.5 0.3-0.6 0.3-0.1 0.5 0.1 0.6 0.3 0.2 0.7 0.4 1.3 0.7 1.9 0.1 0.2 0 0.5-0.2 0.6 0 0.1-0.1 0.1-0.2 0.1zm-1.3-4c-0.2 0-0.4-0.2-0.5-0.4-0.1-0.7-0.3-1.4-0.3-2.1 0-0.3 0.2-0.5 0.4-0.6 0.3 0 0.5 0.2 0.5 0.4 0.1 0.7 0.2 1.4 0.3 2 0 0.3-0.1 0.5-0.4 0.6zm-0.4-4.2c-0.3 0-0.5-0.2-0.5-0.5 0-0.2 0-0.4 0-0.7q0-0.7 0-1.5c0-0.3 0.3-0.5 0.5-0.5 0.3 0 0.5 0.3 0.5 0.5 0 0.5 0 1 0 1.4q0 0.3 0 0.6c0 0.5-0.2 0.7-0.5 0.7zm43.9-0.9c-0.3 0-0.5-0.2-0.5-0.5 0-0.3 0.2-0.5 0.5-0.5 0.7 0 1.4 0 2.1-0.1 0.3 0 0.5 0.2 0.5 0.5 0 0.3-0.2 0.5-0.5 0.5-0.7 0.1-1.4 0.1-2.1 0.1zm-2.1 0l-2.1-0.1c-0.3 0-0.5-0.3-0.5-0.5 0-0.3 0.2-0.5 0.5-0.5l2.1 0.1c0.3 0 0.5 0.2 0.5 0.5 0 0.3-0.2 0.5-0.5 0.5zm6.3-0.1c-0.3 0-0.5-0.2-0.5-0.5 0-0.3 0.2-0.5 0.5-0.5 0.7 0 1.4-0.1 2.1-0.2 0.3 0 0.5 0.2 0.6 0.4 0.1 0.2-0.2 0.5-0.4 0.6-0.8 0.1-1.5 0.1-2.3 0.2zm-10.5 0c-0.7 0-1.4-0.1-2.1-0.2-0.3 0-0.5-0.3-0.5-0.5 0-0.3 0.3-0.5 0.5-0.4l2.1 0.2c0.3 0 0.5 0.3 0.5 0.5 0 0.2-0.2 0.4-0.5 0.4zm-4.2-0.4q-1.1-0.1-2.1-0.3c-0.3 0-0.5-0.3-0.4-0.5 0-0.3 0.3-0.5 0.6-0.4l2.1 0.3c0.3 0 0.5 0.3 0.5 0.5 0 0.2-0.3 0.4-0.7 0.4zm18.9 0c-0.3 0-0.5-0.2-0.5-0.5 0-0.3 0.2-0.5 0.5-0.5q1.1-0.1 2.1-0.3c0.3 0 0.5 0.1 0.6 0.4 0.1 0.3-0.1 0.5-0.4 0.6-0.8 0.1-1.5 0.2-2.3 0.3zm-23-0.6l-2.2-0.3c-0.3 0-0.5-0.3-0.4-0.6 0-0.3 0.3-0.5 0.6-0.4q1.1 0.1 2.1 0.3c0.3 0 0.5 0.3 0.4 0.6-0.1 0.3-0.3 0.4-0.5 0.4zm27.2-0.2c-0.3 0-0.5-0.2-0.6-0.4 0-0.3 0.2-0.5 0.4-0.6 0.7-0.2 1.4-0.3 2-0.5 0.3-0.1 0.6 0.1 0.6 0.4 0.1 0.3-0.1 0.6-0.4 0.6-0.6 0.2-1.2 0.4-2 0.5zm-31.4-0.5l-2.2-0.4c-0.3-0.1-0.4-0.3-0.4-0.6 0.1-0.3 0.3-0.4 0.6-0.4l2.1 0.4c0.3 0 0.5 0.3 0.4 0.6-0.1 0.3-0.3 0.4-0.5 0.4zm35.4-0.6c-0.2 0-0.4-0.1-0.5-0.3q-0.2-0.4 0.3-0.6c0.7-0.2 1.3-0.4 1.9-0.7q0.5-0.1 0.6 0.3 0.1 0.4-0.3 0.6c-0.6 0.2-1.3 0.5-2 0.7 0.1 0 0 0 0 0zm-39.6-0.2c-0.8-0.1-1.5-0.3-2.2-0.5-0.3-0.1-0.4-0.3-0.4-0.6 0.1-0.3 0.3-0.4 0.6-0.4l2 0.5c0.3 0.1 0.4 0.3 0.4 0.6 0 0.2-0.2 0.3-0.4 0.4zm-20.7-0.7c-0.3 0-0.5-0.3-0.5-0.5q0.2-1.1 0.3-2.1c0-0.3 0.3-0.4 0.6-0.4 0.3 0 0.4 0.3 0.4 0.6-0.1 0.7-0.2 1.4-0.3 2 0 0.2-0.2 0.4-0.5 0.4zm16.6-0.3h-0.1l-2-0.5q-0.5-0.2-0.3-0.6c0.1-0.3 0.3-0.4 0.6-0.4l2 0.5c0.3 0.1 0.4 0.3 0.4 0.6-0.1 0.3-0.3 0.4-0.6 0.4zm47.6-0.3c-0.3 0.1-0.5-0.1-0.6-0.4-0.1-0.3 0.1-0.5 0.4-0.6 0.6-0.3 1.3-0.6 1.9-0.9 0.2-0.1 0.5 0 0.7 0.2 0.1 0.2 0 0.5-0.2 0.7-0.6 0.3-1.2 0.7-1.9 1-0.2-0.1-0.2-0.1-0.3 0zm-51.6-0.7h-0.1l-2-0.6c-0.3-0.1-0.4-0.4-0.3-0.6 0.1-0.3 0.4-0.4 0.6-0.3l2 0.6c0.3 0 0.5 0.3 0.4 0.6-0.1 0.2-0.4 0.4-0.6 0.3zm-4.1-1.2h-0.1l-2-0.6c-0.3-0.1-0.4-0.4-0.3-0.6 0.1-0.3 0.4-0.4 0.6-0.3l2 0.6c0.3 0.1 0.4 0.4 0.3 0.6-0.1 0.2-0.3 0.3-0.5 0.3zm59.4-0.1c-0.3 0-0.5-0.2-0.5-0.5 0-0.2 0.1-0.3 0.2-0.4 0.6-0.4 1.2-0.8 1.7-1.2 0.2-0.2 0.5-0.1 0.7 0.1 0.2 0.2 0.1 0.5-0.1 0.7q-0.9 0.6-1.8 1.2c0 0-0.1 0-0.2 0.1zm-63.4-1.1c0 0-0.1 0-0.2 0l-2-0.7c-0.3-0.1-0.4-0.4-0.3-0.6 0.1-0.3 0.4-0.4 0.6-0.3l2 0.7c0.3 0.1 0.4 0.4 0.3 0.6 0 0.2-0.2 0.3-0.4 0.3zm-3.7-0.4c-0.4-0.1-0.5-0.3-0.5-0.6 0-0.1 0.1-0.2 0.1-0.3h-0.1l-2-0.7c-0.3-0.1-0.4-0.4-0.3-0.6 0.1-0.2 0.4-0.4 0.6-0.3l2 0.7c0.1-0.3 0.2-0.5 0.2-0.8 0.1-0.3 0.4-0.4 0.7-0.3 0.3 0.1 0.4 0.4 0.3 0.7-0.2 0.7-0.4 1.3-0.6 2 0.1 0.1-0.1 0.2-0.4 0.2zm70.5-1c-0.1 0-0.3-0.1-0.4-0.2-0.2-0.2-0.1-0.5 0.1-0.7 0.5-0.4 1-0.9 1.5-1.4 0.2-0.2 0.5-0.2 0.7 0 0.2 0.2 0.2 0.5 0 0.7-0.5 0.5-1 1-1.6 1.4-0.1 0.2-0.2 0.2-0.3 0.2zm-74.8-1.3c-0.1 0-0.1 0-0.2 0-0.7-0.2-1.3-0.5-2-0.7-0.3-0.1-0.4-0.4-0.3-0.6 0.1-0.3 0.4-0.4 0.6-0.3 0.7 0.2 1.3 0.5 2 0.7 0.3 0.1 0.4 0.4 0.3 0.6 0 0.2-0.2 0.3-0.4 0.3zm-4-1.4c-0.1 0-0.1 0-0.2 0l-2-0.7c-0.3-0.1-0.4-0.4-0.3-0.6 0.1-0.3 0.4-0.4 0.6-0.3l2 0.8c0.3 0 0.5 0.3 0.4 0.6 0.1 0.1-0.2 0.3-0.5 0.2zm81.8-0.2c-0.1 0-0.2 0-0.3-0.1-0.2-0.2-0.2-0.5 0-0.7 0.4-0.5 0.9-1.1 1.3-1.6 0.2-0.2 0.5-0.3 0.7-0.1 0.2 0.2 0.3 0.5 0.1 0.7-0.4 0.6-0.9 1.1-1.3 1.7-0.2 0-0.4 0.1-0.5 0.1zm-72.2-0.1c-0.1 0-0.1 0-0.2 0-0.3-0.1-0.4-0.4-0.3-0.7 0.2-0.4 0.4-1 0.9-1.9 0.1-0.2 0.4-0.3 0.7-0.2 0.2 0.1 0.3 0.4 0.2 0.6-0.4 0.9-0.7 1.5-0.9 1.9 0 0.2-0.2 0.3-0.4 0.3zm-13.5-1.2c-0.1 0-0.1 0-0.2 0l-2-0.8c-0.3-0.1-0.4-0.4-0.3-0.6 0.1-0.3 0.4-0.4 0.7-0.3 0.7 0.3 1.3 0.5 2 0.8 0.3 0.1 0.4 0.4 0.3 0.6-0.1 0.2-0.3 0.3-0.5 0.3zm-3.9-1.6c-0.1 0-0.1 0-0.2 0l-2-0.8c-0.3-0.1-0.4-0.4-0.3-0.7 0.1-0.3 0.4-0.4 0.7-0.3l2 0.8c0.3 0.1 0.4 0.4 0.3 0.6 0 0.3-0.3 0.4-0.5 0.4zm92.1-0.5c-0.1 0-0.2 0-0.3-0.1-0.2-0.1-0.3-0.4-0.2-0.7 0.4-0.6 0.7-1.2 1-1.8 0.1-0.2 0.4-0.3 0.7-0.2 0.2 0.1 0.3 0.4 0.2 0.7-0.3 0.6-0.7 1.3-1.1 1.9 0 0.1-0.1 0.2-0.3 0.2zm-72.8-0.5c-0.1 0-0.2 0-0.2-0.1-0.2-0.1-0.3-0.4-0.2-0.7 0.3-0.6 0.7-1.2 1-1.8 0.2-0.2 0.5-0.3 0.7-0.1 0.2 0.1 0.3 0.4 0.2 0.6-0.4 0.7-0.7 1.3-1 1.8-0.2 0.2-0.4 0.3-0.5 0.3zm-23.2-0.6c-0.1 0-0.1 0-0.2 0l-1.9-0.9c-0.3-0.1-0.4-0.4-0.3-0.7 0.1-0.3 0.4-0.4 0.7-0.3l1.9 0.8c0.3 0.1 0.5 0.3 0.4 0.6 0 0.4-0.3 0.6-0.6 0.5zm-3.8-1.7c-0.1 0-0.2 0-0.3-0.1-0.3-0.3-0.9-0.7-1.7-1.3-0.2-0.2-0.2-0.5-0.1-0.7 0.2-0.2 0.5-0.2 0.7-0.1 0.7 0.6 1.3 1.1 1.6 1.3 0.2 0.2 0.3 0.5 0.1 0.7 0 0.1-0.1 0.2-0.3 0.2zm101.7-1c-0.1 0-0.1 0-0.2 0-0.3-0.1-0.4-0.4-0.3-0.7 0.3-0.6 0.5-1.3 0.7-1.9 0.1-0.3 0.4-0.4 0.6-0.3 0.3 0.1 0.4 0.4 0.3 0.6-0.2 0.7-0.5 1.3-0.7 2 0 0.2-0.2 0.3-0.4 0.3zm-72.6-0.4c-0.1 0-0.2 0-0.3-0.1-0.2-0.1-0.3-0.5-0.2-0.7q0.6-0.9 1.2-1.8c0.2-0.2 0.5-0.3 0.7-0.1 0.2 0.2 0.3 0.5 0.1 0.7q-0.6 0.9-1.2 1.8c0 0.1-0.1 0.2-0.3 0.2zm-32.4-1.3c-0.1 0-0.2 0-0.3-0.1-0.5-0.4-1-0.9-1.6-1.4-0.2-0.2-0.2-0.5 0-0.7 0.2-0.2 0.5-0.2 0.7 0 0.5 0.5 1.1 1 1.5 1.4 0.2 0.2 0.2 0.5 0.1 0.7-0.1 0-0.2 0.1-0.4 0.1zm34.8-2.2c-0.1 0-0.2 0-0.3-0.1-0.2-0.2-0.3-0.5-0.1-0.7 0.4-0.6 0.8-1.1 1.3-1.7 0.2-0.2 0.5-0.3 0.7-0.1 0.2 0.2 0.3 0.5 0.1 0.7-0.4 0.6-0.9 1.1-1.3 1.7-0.1 0.2-0.3 0.2-0.4 0.2zm71.5-0.1c-0.4 0-0.5-0.3-0.5-0.6 0.1-0.4 0.1-0.6 0.1-0.6v-0.4c0-0.3 0-0.7 0-1 0-0.3 0.2-0.5 0.5-0.5 0.3 0 0.5 0.2 0.5 0.5 0 0.3 0 0.7 0 1v0.5c0 0.1 0 0.3-0.1 0.7-0.1 0.2-0.3 0.4-0.5 0.4zm-109.3-0.6c-0.1 0-0.3-0.1-0.3-0.2q-0.8-0.7-1.5-1.5c-0.2-0.2-0.2-0.5 0-0.7 0.2-0.2 0.5-0.2 0.7 0q0.7 0.7 1.5 1.5c0.2 0.2 0.2 0.5 0 0.7-0.1 0.1-0.2 0.2-0.4 0.2zm40.4-2.6c-0.3 0-0.5-0.2-0.5-0.5 0-0.1 0-0.3 0.1-0.3 0.4-0.5 0.9-1.1 1.4-1.6 0.2-0.2 0.5-0.2 0.7 0 0.2 0.2 0.2 0.5 0 0.7-0.5 0.5-0.9 1-1.4 1.6 0 0.1-0.1 0.2-0.3 0.1zm-43.3-0.5c-0.1 0-0.3-0.1-0.4-0.2-0.5-0.5-0.9-1-1.4-1.6-0.2-0.2-0.2-0.5 0-0.7 0.2-0.2 0.5-0.1 0.7 0.1 0.5 0.6 0.9 1.1 1.4 1.6 0.2 0.2 0.2 0.5 0 0.7 0 0.1-0.2 0.1-0.3 0.1zm112.1-0.5c-0.2 0-0.5-0.2-0.5-0.4-0.1-0.7-0.3-1.3-0.5-2-0.1-0.3 0.1-0.5 0.3-0.6 0.3-0.1 0.5 0.1 0.6 0.3 0.2 0.7 0.4 1.4 0.5 2.1 0.1 0.3 0 0.5-0.4 0.6zm-66-2.1c-0.3 0-0.5-0.2-0.5-0.5 0-0.1 0.1-0.3 0.1-0.4q0.7-0.8 1.5-1.5c0.2-0.2 0.5-0.2 0.7 0 0.2 0.2 0.2 0.5 0 0.7q-0.8 0.8-1.5 1.5c0 0.2-0.1 0.2-0.3 0.2zm-48.8-0.6c-0.2 0-0.3-0.1-0.4-0.2-0.4-0.6-0.9-1.1-1.3-1.7-0.2-0.2-0.1-0.5 0.1-0.7 0.2-0.2 0.5-0.1 0.7 0.1 0.4 0.6 0.8 1.1 1.3 1.7 0.2 0.2 0.1 0.5-0.1 0.7-0.1 0-0.2 0.1-0.3 0.1zm113.5-1.3c-0.2 0-0.4-0.1-0.4-0.3-0.3-0.6-0.6-1.2-1-1.8-0.1-0.2-0.1-0.5 0.2-0.7 0.2-0.1 0.5-0.1 0.7 0.2 0.4 0.6 0.7 1.3 1 1.9 0.1 0.3 0 0.5-0.2 0.7-0.2 0-0.2 0-0.3 0zm-61.6-1c-0.1 0-0.3-0.1-0.4-0.2-0.2-0.2-0.2-0.5 0-0.7 0.5-0.5 1.1-0.9 1.6-1.4 0.2-0.2 0.5-0.1 0.7 0.1 0.2 0.2 0.1 0.5-0.1 0.7-0.6 0.4-1.1 0.9-1.6 1.3 0 0.2-0.1 0.2-0.2 0.2zm-54.4-1.1c-0.2 0-0.3-0.1-0.4-0.2q-0.6-0.9-1.2-1.8c-0.1-0.2-0.1-0.5 0.2-0.7 0.2-0.1 0.5-0.1 0.7 0.2 0.4 0.6 0.7 1.2 1.1 1.8 0.2 0.2 0.1 0.5-0.1 0.7-0.1-0.1-0.2 0-0.3 0zm113.9-1.5c-0.2 0-0.3-0.1-0.4-0.2-0.4-0.5-0.9-1-1.3-1.5-0.2-0.2-0.2-0.5 0-0.7 0.2-0.2 0.5-0.2 0.7 0 0.5 0.5 1 1.1 1.4 1.6 0.2 0.2 0.1 0.5-0.1 0.7-0.1 0.1-0.2 0.1-0.3 0.1zm-56.2 0c-0.2 0-0.3-0.1-0.4-0.2-0.2-0.2-0.1-0.5 0.1-0.7 0.6-0.4 1.1-0.8 1.7-1.2 0.2-0.2 0.5-0.1 0.7 0.1 0.2 0.2 0.1 0.5-0.1 0.7-0.6 0.4-1.2 0.8-1.7 1.2-0.1 0.1-0.2 0.1-0.3 0.1zm-59.9-2.1c-0.2 0-0.4-0.1-0.4-0.3-0.3-0.6-0.7-1.2-1-1.9-0.1-0.2 0-0.5 0.2-0.7 0.2-0.1 0.5 0 0.7 0.2 0.3 0.6 0.6 1.2 1 1.8 0.1 0.2 0.1 0.5-0.2 0.7-0.1 0.2-0.2 0.2-0.3 0.2zm63.3-0.2c-0.2 0-0.3-0.1-0.4-0.2-0.1-0.2-0.1-0.5 0.2-0.7 0.6-0.4 1.2-0.7 1.8-1.1 0.2-0.1 0.5 0 0.7 0.2 0.1 0.2 0 0.5-0.2 0.7-0.6 0.3-1.2 0.7-1.8 1-0.1 0-0.2 0-0.3 0.1zm49.8-0.7c-0.1 0-0.2 0-0.3-0.1-0.5-0.4-1.1-0.9-1.6-1.3-0.2-0.2-0.3-0.5-0.1-0.7 0.2-0.2 0.5-0.3 0.7-0.1 0.6 0.4 1.2 0.9 1.7 1.3 0.2 0.2 0.2 0.5 0.1 0.7-0.2 0.1-0.3 0.2-0.5 0.2zm-46.1-1.4c-0.2 0-0.4-0.1-0.4-0.3-0.1-0.2 0-0.5 0.2-0.7 0.6-0.3 1.3-0.6 1.9-0.9 0.3-0.1 0.5 0 0.7 0.2 0.1 0.2 0 0.5-0.2 0.7-0.6 0.3-1.3 0.6-1.9 0.9-0.1 0.1-0.2 0.1-0.3 0.1zm42.7-1.1c-0.1 0-0.2 0-0.3-0.1-0.6-0.4-1.2-0.7-1.8-1-0.2-0.1-0.3-0.4-0.2-0.7 0.1-0.2 0.4-0.3 0.7-0.2 0.6 0.3 1.3 0.7 1.9 1 0.2 0.1 0.3 0.5 0.2 0.7-0.2 0.2-0.3 0.3-0.5 0.3zm-111.6-0.4c-0.2 0-0.4-0.1-0.5-0.3-0.3-0.6-0.6-1.3-0.8-2-0.1-0.2 0-0.5 0.2-0.7 0.2-0.1 0.5 0 0.7 0.2v0.1c0.2 0.7 0.5 1.3 0.8 1.9 0.1 0.3 0 0.5-0.3 0.7 0 0.1 0 0.1-0.1 0.1zm72.8-0.2c-0.2 0-0.4-0.1-0.5-0.3q-0.1-0.4 0.3-0.6c0.7-0.3 1.3-0.5 2-0.8 0.3-0.1 0.6 0.1 0.7 0.3 0.1 0.2-0.1 0.6-0.3 0.7-0.7 0.2-1.3 0.5-2 0.7-0.1 0-0.2 0-0.2 0zm35.1-1.3c-0.1 0-0.1 0-0.2 0-1.1-0.5-1.8-0.7-1.8-0.7-0.3-0.1-0.4-0.3-0.4-0.6 0-0.3 0.3-0.4 0.5-0.4h0.1c0.7 0.2 1.3 0.4 2 0.7 0.3 0.1 0.5 0.3 0.4 0.6-0.1 0.3-0.3 0.5-0.6 0.4zm-31.2-0.1c-0.3 0-0.5-0.2-0.6-0.4-0.1-0.2 0.2-0.5 0.4-0.6 0.7-0.2 1.3-0.4 2-0.6 0.3-0.1 0.5 0.1 0.6 0.3 0.1 0.3-0.1 0.5-0.4 0.6-0.5 0.2-1.2 0.4-2 0.7 0.1-0.1 0.1 0 0 0zm27.1-1q-1.2-0.2-2.1-0.3c-0.3 0-0.5-0.3-0.4-0.6 0-0.3 0.3-0.5 0.5-0.4l2.1 0.4c0.3 0 0.5 0.3 0.5 0.5 0 0.2-0.3 0.4-0.6 0.4zm-23 0c-0.2 0-0.4-0.2-0.5-0.4-0.1-0.3 0.1-0.5 0.4-0.6 0.7-0.1 1.4-0.3 2.1-0.4 0.3 0 0.5 0.1 0.6 0.4 0 0.3-0.1 0.5-0.4 0.6-0.7 0.1-1.4 0.2-2 0.4zm18.9-0.6c-0.8-0.1-1.4-0.2-2.1-0.2-0.3 0-0.5-0.3-0.5-0.5 0-0.2 0.3-0.5 0.5-0.5 0.7 0.1 1.4 0.1 2.1 0.2 0.3 0 0.5 0.3 0.5 0.5 0 0.2-0.3 0.5-0.5 0.5zm-14.7-0.1c-0.3 0-0.5-0.2-0.5-0.4 0-0.3 0.2-0.5 0.4-0.6 0.7-0.1 1.4-0.2 2.1-0.2 0.3 0 0.5 0.2 0.5 0.4 0 0.3-0.2 0.5-0.5 0.5-0.6 0.1-1.3 0.2-2 0.3zm10.5-0.3l-2.1-0.1c-0.3 0-0.5-0.2-0.5-0.5 0-0.3 0.2-0.5 0.5-0.5l2.1 0.1c0.3 0 0.5 0.2 0.5 0.5 0 0.3-0.2 0.4-0.5 0.5zm-6.3 0c-0.3 0-0.5-0.2-0.5-0.5 0-0.3 0.2-0.5 0.5-0.5 0.7 0 1.4 0 2.1-0.1 0.3 0 0.5 0.2 0.5 0.5 0 0.3-0.2 0.5-0.5 0.5-0.8 0-1.4 0-2.1 0.1zm-90.7-0.2c-0.2 0-0.4-0.1-0.5-0.3q-0.3-1.1-0.6-2.1c-0.1-0.3 0.1-0.5 0.4-0.6 0.3-0.1 0.5 0.1 0.6 0.4 0.2 0.7 0.4 1.3 0.6 2q0.1 0.5-0.3 0.6c-0.1-0.1-0.1-0.1-0.2 0zm-1-4.1c-0.2 0-0.5-0.2-0.5-0.4q-0.2-1.1-0.3-2.1c0-0.3 0.2-0.5 0.4-0.5 0.3 0 0.5 0.2 0.5 0.4 0.1 0.7 0.2 1.4 0.3 2 0.2 0.2 0 0.5-0.4 0.6zm-0.4-4.2c-0.3 0-0.5-0.2-0.5-0.5 0-0.3 0-0.7 0-1 0-0.3 0-0.8 0-1.2 0-0.3 0.2-0.5 0.5-0.5 0.3 0 0.5 0.3 0.5 0.6 0 0.4 0 0.8 0 1.1q0 0.4 0 0.9c0 0.3-0.2 0.5-0.5 0.6q0-0.2 0 0zm0.1-4.3c-0.3 0-0.5-0.3-0.5-0.6q0.1-1.1 0.3-2.1c0.1-0.3 0.3-0.4 0.6-0.4 0.3 0.1 0.4 0.3 0.4 0.6-0.1 0.7-0.2 1.4-0.3 2 0 0.3-0.2 0.5-0.5 0.5zm0.8-4.1h-0.1c-0.3-0.1-0.4-0.3-0.4-0.6 0.2-0.7 0.4-1.4 0.6-2 0.1-0.3 0.4-0.4 0.7-0.3 0.3 0.1 0.4 0.4 0.3 0.7-0.2 0.7-0.5 1.3-0.6 2 0 0.1-0.2 0.2-0.5 0.2zm1.5-4c-0.1 0-0.1 0-0.2 0-0.3-0.1-0.4-0.4-0.3-0.7 0.3-0.6 0.6-1.3 0.9-1.9 0.1-0.3 0.4-0.4 0.6-0.3 0.3 0.1 0.4 0.4 0.3 0.6 0 0 0 0.1-0.1 0.1-0.3 0.6-0.6 1.2-0.9 1.9q0 0.3-0.3 0.3zm1.9-3.7c-0.1 0-0.2 0-0.3-0.1-0.2-0.1-0.3-0.4-0.2-0.7 0.4-0.6 0.7-1.2 1.2-1.8 0.2-0.2 0.5-0.3 0.7-0.1 0.2 0.2 0.3 0.5 0.1 0.7-0.4 0.6-0.8 1.2-1.1 1.7-0.1 0.2-0.2 0.3-0.4 0.3zm2.4-3.5c-0.3 0-0.5-0.2-0.5-0.5 0-0.1 0-0.2 0.1-0.3 0.4-0.5 0.9-1.1 1.3-1.7 0.2-0.2 0.5-0.2 0.7 0 0.2 0.2 0.2 0.4 0.1 0.6-0.5 0.5-0.9 1.1-1.3 1.6-0.1 0.2-0.3 0.3-0.4 0.3zm2.7-3.2c-0.1 0-0.2-0.1-0.3-0.1-0.2-0.2-0.2-0.5 0-0.7q0.8-0.8 1.5-1.5c0.2-0.2 0.5-0.2 0.7 0 0.2 0.2 0.2 0.5 0 0.7-0.5 0.5-1 1-1.4 1.5-0.2 0.1-0.4 0.1-0.5 0.1zm3-3c-0.1 0-0.3-0.1-0.4-0.2-0.2-0.2-0.2-0.5 0-0.7 0.5-0.5 1-0.9 1.6-1.4 0.2-0.2 0.5-0.2 0.7 0 0.2 0.2 0.2 0.5 0 0.7-0.5 0.5-1.1 0.9-1.6 1.4-0.1 0.2-0.2 0.2-0.3 0.2zm3.2-2.8c-0.2 0-0.3 0-0.4-0.1-0.2-0.2-0.1-0.5 0.1-0.7 0.5-0.4 1.1-0.9 1.7-1.3 0.2-0.2 0.5-0.2 0.7 0 0.2 0.2 0.2 0.5 0 0.7-0.2 0.1-0.2 0.1-0.2 0.1-0.6 0.4-1.1 0.9-1.6 1.3-0.1 0.1-0.3 0.1-0.3 0zm3.3-2.5c-0.2 0-0.3-0.1-0.4-0.2-0.2-0.2-0.1-0.5 0.1-0.7 0.6-0.4 1.1-0.8 1.7-1.2 0.2-0.1 0.5 0 0.7 0.2 0.1 0.2 0.1 0.5-0.1 0.6-0.6 0.4-1.2 0.8-1.7 1.2-0.1 0.1-0.2 0.1-0.3 0.1zm3.5-2.4c-0.2 0-0.3-0.1-0.4-0.2-0.1-0.2-0.1-0.5 0.2-0.7 0.6-0.4 1.2-0.8 1.8-1.1 0.2-0.1 0.5-0.1 0.7 0.2 0.1 0.2 0.1 0.5-0.2 0.7-0.6 0.4-1.2 0.7-1.8 1.1-0.1 0-0.2 0.1-0.3 0zm3.6-2.2c-0.2 0-0.3-0.1-0.4-0.2-0.1-0.2-0.1-0.5 0.2-0.7l1.8-1.1c0.2-0.1 0.5 0 0.7 0.2 0.1 0.2 0.1 0.5-0.2 0.7-0.6 0.3-1.2 0.7-1.8 1-0.1 0.1-0.2 0.2-0.3 0.1zm3.6-2c-0.2 0-0.4-0.1-0.4-0.3-0.1-0.2 0-0.5 0.2-0.7l1.9-1c0.2-0.2 0.5-0.1 0.7 0.1 0.2 0.2 0.1 0.5-0.1 0.7 0 0-0.1 0-0.1 0.1l-1.8 1c-0.2 0.1-0.3 0.1-0.4 0.1zm3.7-1.9c-0.2 0-0.4-0.1-0.4-0.3-0.1-0.2 0-0.5 0.2-0.7l1.9-0.9c0.2-0.1 0.5-0.1 0.7 0.2 0.2 0.3 0.1 0.5-0.2 0.7 0 0 0 0-0.1 0l-1.9 0.9c0 0.1-0.1 0.1-0.2 0.1zm3.8-1.8c-0.3 0-0.5-0.2-0.5-0.5 0-0.2 0.1-0.4 0.3-0.4l1.9-0.9q0.4-0.2 0.6 0.3c0.1 0.2 0 0.5-0.2 0.6l-1.9 0.9c0 0-0.1 0-0.2 0zm3.9-1.8c-0.2 0-0.4-0.1-0.5-0.3-0.1-0.3 0-0.5 0.3-0.7l1.9-0.8c0.2-0.1 0.5 0 0.7 0.2 0.1 0.2 0 0.5-0.2 0.7l-2 0.8c-0.1 0.1-0.2 0.1-0.2 0.1zm3.9-1.6c-0.2 0-0.4-0.1-0.5-0.3-0.1-0.2 0-0.5 0.3-0.6l2-0.8c0.3-0.1 0.5 0 0.7 0.3q0.2 0.4-0.3 0.6l-2 0.8c-0.1 0-0.2 0-0.2 0zm3.9-1.5c-0.2 0-0.4-0.1-0.5-0.3q-0.1-0.5 0.3-0.6l2-0.8q0.4-0.2 0.6 0.3 0.1 0.4-0.3 0.6l-2 0.7c0 0.1-0.1 0.1-0.1 0.1zm3.9-1.5c-0.2 0-0.4-0.1-0.5-0.3q-0.1-0.5 0.3-0.6l2-0.7c0.3-0.1 0.5 0.1 0.6 0.3 0.1 0.3-0.1 0.5-0.3 0.6l-2 0.7c0 0 0 0-0.1 0zm4-1.4c-0.3 0-0.5-0.1-0.6-0.4-0.1-0.3 0.1-0.5 0.4-0.6l2-0.7c0.3-0.1 0.5 0.1 0.6 0.3q0.1 0.4-0.3 0.6l-2 0.7zm4-1.3c-0.2 0-0.4-0.1-0.5-0.4-0.1-0.3 0.1-0.5 0.3-0.6l2-0.6c0.3-0.1 0.6 0.1 0.7 0.3 0.1 0.2-0.1 0.6-0.3 0.7l-2 0.6zm4-1.3c-0.2 0-0.4-0.1-0.5-0.4-0.1-0.3 0.1-0.5 0.3-0.6l2-0.6c0.3-0.1 0.6 0.1 0.6 0.4 0.1 0.3-0.1 0.6-0.4 0.6l-2 0.6zm4-1.2c-0.2 0-0.4-0.1-0.5-0.4-0.1-0.3 0.1-0.5 0.3-0.6l2-0.6c0.3-0.1 0.5 0.1 0.6 0.3 0.1 0.3-0.1 0.5-0.3 0.6l-2 0.6c0 0.1 0 0.1-0.1 0.1zm4-1.2c-0.2 0-0.4-0.1-0.5-0.4-0.1-0.3 0.1-0.5 0.3-0.6l2-0.6c0.3-0.1 0.6 0.1 0.6 0.4 0.1 0.3-0.1 0.6-0.4 0.6l-2 0.6q0.1 0 0 0zm4.1-1.1c-0.2 0-0.4-0.2-0.5-0.4-0.1-0.3 0.1-0.5 0.4-0.6l1.8-0.5c0.3-0.1 0.5 0.1 0.6 0.4 0.1 0.3-0.1 0.5-0.4 0.6l-1.8 0.5z"/><path class="e" d="m79.1 126.8h-2v-2h-1.3v2h-2v1.3h2v2h1.3v-2h2z"/><path class="f" d="m120.4 11.8c-1.8 0-3.3-1.5-3.3-3.3 0-1.8 1.5-3.3 3.3-3.3 1.8 0 3.3 1.5 3.3 3.3 0 1.8-1.5 3.3-3.3 3.3z"/><path fill-rule="evenodd" class="d" d="m120.4 12.8c-2.4 0-4.3-1.9-4.3-4.3 0-2.4 1.9-4.3 4.3-4.3 2.4 0 4.3 1.9 4.3 4.3 0 2.4-1.9 4.3-4.3 4.3zm0-6.6c-1.3 0-2.3 1-2.3 2.3 0 1.3 1 2.3 2.3 2.3 1.3 0 2.3-1 2.3-2.3 0-1.2-1-2.3-2.3-2.3z"/><path class="g" d="m115.8 54.3h-0.3c0 0 0.2 0 0.3 0z"/><path class="g" d="m120.3 54.3h-0.5c0.1 0.1 0.3 0.1 0.5 0z"/><path class="g" d="m128.8 55.2h-0.2z"/><path class="g" d=""/><path class="g" d="m125 55.2l-0.2 0.1h0.1z"/><path class="g" d="m129.3 57.1h-0.1z"/><path class="g" d=""/><path class="g" d="m136.1 56h-0.1v0.1z"/><path class="g" d="m136.2 55.9v0.1z"/><path class="g" d="m131.1 54.7v-0.1h-0.1z"/><path class="g" d="m135.7 55.7c0.1 0 0 0 0 0z"/><path class="g" d="m132.5 55h-0.1v0.1z"/><path class="g" d="m132.4 56.7h0.2v-0.1z"/><path class="g" d="m78.1 111.7c0-0.1 0-0.2 0-0.2 0 0 0 0-0.1 0.1z"/><path class="g" d="m98.9 111.7h-0.1z"/><path class="f" d="m174.6 98.7c0-8.9 7.2-16 16.1-16v-22.7c0-1.6-1.3-2.9-2.9-2.9l-156.8-0.3c-1.6 0-2.9 1.3-2.9 2.8v22.7c8.9 0.4 15.9 7.8 15.6 16.6-0.2 8.6-7.1 15.4-15.7 15.6l-0.1 22.7c0 1.6 1.3 2.9 2.9 2.9l156.9 0.3c1.6 0 2.8-1.3 2.9-2.8v-22.7c-8.8-0.2-16-7.3-16-16.2z"/><path class="b" d="m174.6 98.1c0-8.9 7.2-16.1 16.1-16.1v-22.9c0-1.6-1.3-2.9-2.8-2.9l-156.9-0.3c-1.6 0-2.9 1.3-2.9 2.8v22.9c8.9 0 16.2 7.3 16.1 16.2 0 8.9-7.3 16.2-16.2 16.2v22.9c0 1.6 1.3 2.9 2.8 2.9l156.9 0.3c1.6 0 2.8-1.3 2.8-2.8v-22.9c-8.8-0.1-15.9-7.4-15.9-16.3z"/><path class="c" d="m138.1 140.7l-105.6-0.2c-2.9 0-5.2-2.3-5.2-5.2v-20c0-1.3 1-2.3 2.2-2.4 8.3-0.7 14.5-7.9 13.8-16.2-0.6-7.4-6.4-13.2-13.8-13.8-1.3-0.1-2.2-1.1-2.2-2.4v-20c0-2.9 2.3-5.3 5.2-5.3h0.1l154.1 0.3c2.9 0 5.2 2.4 5.2 5.3v20c0 1.3-1 2.3-2.2 2.4-5 0.4-9.4 3.2-11.9 7.6-0.3 0.5-0.9 0.7-1.3 0.4-0.5-0.3-0.7-0.9-0.4-1.3 0 0 0 0 0-0.1 2.8-4.9 7.8-8.1 13.5-8.6 0.2 0 0.4-0.2 0.4-0.4v-20c0-1.8-1.4-3.2-3.2-3.2l-154.2-0.5c-1.8 0-3.2 1.4-3.2 3.2v20c0 0.2 0.2 0.4 0.4 0.4 9.4 0.9 16.2 9.3 15.3 18.7-0.8 8.1-7.3 14.5-15.4 15.3-0.2 0-0.4 0.2-0.4 0.4v20c0 1.8 1.4 3.2 3.2 3.2l105.6 0.2c0.6 0 1 0.4 1 1 0 0.6-0.4 1-1 1z"/><path class="g" d="m105.6 65.5h-0.3q0.2 0 0.3 0z"/><path class="g" d="m110.2 65.5h-0.5c0.1 0.1 0.3 0.1 0.5 0z"/><path class="g" d=""/><path class="g" d="m118.4 67.1z"/><path class="g" d="m114.9 66.4l-0.1 0.1h0.1z"/><path class="g" d=""/><path class="g" d=""/><path class="g" d="m126 67.2h-0.1v0.1z"/><path class="g" d="m126.2 67.1h-0.1v0.1z"/><path class="g" d="m121 65.9v-0.1z"/><path class="g" d="m125.6 66.9z"/><path class="g" d="m122.4 66.2h-0.2v0.1z"/><path class="f" d="m64.1 73.3h89.4c2.4 0 4.4 2 4.4 4.4v38.7c0 2.4-2 4.4-4.4 4.4h-89.4c-2.4 0-4.4-2-4.4-4.4v-38.7c-0.1-2.4 1.9-4.4 4.4-4.4z"/><path fill-rule="evenodd" class="c" d="m153.5 121.9h-89.4c-3 0-5.4-2.4-5.4-5.4v-38.8c0-3 2.4-5.4 5.4-5.4h89.4c3 0 5.4 2.4 5.4 5.4v38.7c0 3.1-2.4 5.5-5.4 5.5zm-89.4-47.6c-1.9 0-3.4 1.5-3.4 3.4v38.7c0 1.9 1.5 3.4 3.4 3.4h89.4c1.9 0 3.4-1.5 3.4-3.4v-38.7c0-1.9-1.5-3.4-3.4-3.4z"/><path class="g" d="m88.8 122.9h-0.1v0.1z"/><path class="c" d="m138.1 90.8h-59.4c-0.6 0-1-0.4-1-1 0-0.6 0.4-1 1-1h59.4c0.6 0 1 0.4 1 1 0 0.6-0.5 1-1 1z"/><g style="opacity:.2"><path class="c" d="m166.3 155c-17.9 0-32.4-14.5-32.4-32.4 0-17.9 14.5-32.4 32.4-32.4 17.9 0 32.4 14.5 32.4 32.4 0 17.9-14.5 32.4-32.4 32.4z"/></g><path class="c" d="m125.9 106.5h-35.1c-0.6 0-1-0.4-1-1 0-0.6 0.4-1 1-1h35.1c0.6 0 1 0.4 1 1 0 0.6-0.4 1-1 1z"/><path class="h" d="m169.3 155.7c-17.3 0-31.2-13.9-31.2-31.2 0-17.3 13.9-31.2 31.2-31.2 17.3 0 31.2 13.9 31.2 31.2 0 17.3-13.9 31.2-31.2 31.2z"/><path class="f" d="m169.3 156.2c-17.3 0-31.2-13.9-31.2-31.2 0-17.3 13.9-31.2 31.2-31.2 17.3 0 31.2 13.9 31.2 31.2 0 17.3-13.9 31.2-31.2 31.2z"/><path fill-rule="evenodd" class="c" d="m169.3 157.2c-17.8 0-32.2-14.4-32.2-32.2 0-17.8 14.4-32.1 32.2-32.1h0.1c17.8 0 32.1 14.4 32.1 32.2 0 17.8-14.5 32.1-32.2 32.1zm0-62.4c-16.6 0-30.1 13.5-30.2 30.1 0 16.7 13.5 30.2 30.1 30.2 16.7 0 30.2-13.5 30.2-30.1 0-16.6-13.5-30.1-30.1-30.2z"/><path fill-rule="evenodd" class="c" d="m169.7 156.6c-17.8 0-32.2-14.5-32.2-32.2 0-17.7 14.4-32.1 32.1-32.1h0.1c17.8 0 32.1 14.4 32.1 32.2 0 17.8-14.4 32.2-32.1 32.1zm0-62.3c-16.7 0-30.2 13.5-30.2 30.2 0 16.7 13.5 30.2 30.2 30.2h0.1c16.7 0 30.2-13.5 30.2-30.2-0.1-16.7-13.6-30.2-30.3-30.2z"/><path class="c" d="m166.8 134.5c-0.4 0-0.8-0.1-1.1-0.4l-7.2-7.2c-0.6-0.6-0.6-1.5 0-2.1 0.6-0.6 1.5-0.6 2.1 0l6.1 6.1 13.7-13.7c0.6-0.6 1.5-0.6 2.1 0 0.6 0.6 0.6 1.5 0 2.1l-14.8 14.8c-0.1 0.3-0.5 0.4-0.9 0.4z"/></svg>