<svg width="48px" height="53px" viewBox="0 0 48 53" version="1.1" xmlns="http://www.w3.org/2000/svg" xmlns:xlink="http://www.w3.org/1999/xlink">
    <g id="New-Requester-Portal" stroke="none" stroke-width="1" fill="none" fill-rule="evenodd">
        <g id="01_Kbase" transform="translate(-40.000000, -133.000000)" fill-rule="nonzero">
            <g id="knowledge-base-copy" transform="translate(16.000000, 72.000000)">
                <g id="Browse-solutions" transform="translate(24.000000, 61.000000)">
                    <path d="M46.6421333,13.9861333 C44.4746792,5.78227525 36.9591995,0.138949777 28.4763668,0.345575722 C19.9935341,0.552201666 12.7617261,6.5547435 10.9962667,14.8544 C10.3735882,17.7477528 8.82478511,20.3592984 6.58453333,22.2933333 C1.15438475,26.9741836 -0.767227384,34.5520892 1.77624293,41.254897 C4.31971324,47.9577048 10.7847822,52.3531717 17.9532479,52.2533088 C25.1217136,52.1534459 31.4618322,47.5795917 33.8176,40.8085333 C34.8673658,37.9135371 36.8058497,35.4247209 39.3557333,33.6981333 C45.6932469,29.3174885 48.6067326,21.4355949 46.6421333,13.9861333 Z" id="Path" fill="#f6e8c8"></path>
                    <path d="M37.0090793,17.1189333 C37.0067584,13.0677897 35.1653742,9.23676656 32.0032979,6.7043678 C28.8412217,4.17196905 24.7004426,3.21208226 20.7466667,4.09493333 C16.200432,5.1091365 12.5134307,8.42301832 11.0217526,12.8356994 C9.53007454,17.2483805 10.4501386,22.1196507 13.4485333,25.6842667 C16.3577839,29.1774842 17.9372111,33.5874113 17.9072,38.1333333 L17.9072,38.8490667 L29.2064,38.8490667 L29.2064,38.4149333 C29.3125059,33.6583882 31.0385473,29.0804462 34.0992,25.4378667 C35.9868513,23.0764248 37.0132395,20.1421133 37.0090793,17.1189333 L37.0090793,17.1189333 Z" id="Path" fill="#FFFFFF"></path>
                    <path d="M5.1648,29.5093333 C5.06907138,29.5053236 4.97775777,29.4679681 4.90666667,29.4037333 C3.65023802,28.3920581 2.13270227,27.7573783 0.530133333,27.5733333 C0.371210414,27.5571738 0.23499863,27.4527448 0.178133333,27.3034667 C0.109085398,27.1592814 0.1225157,26.9891643 0.213333333,26.8576 C1.22647469,25.6143578 1.86534635,24.1087367 2.05546667,22.5162667 C2.06732472,22.3529665 2.17248541,22.2112281 2.32533333,22.1525333 C2.47573274,22.0934772 2.64631299,22.120411 2.7712,22.2229333 C4.01872984,23.2344515 5.52875237,23.8693936 7.12426667,24.0533333 C7.28426684,24.0667422 7.42177804,24.1721674 7.47626667,24.3232 C7.53858407,24.471522 7.51616417,24.6419133 7.4176,24.7690667 C6.39531452,26.0067755 5.75525385,27.5151987 5.57546667,29.1104 C5.55383413,29.2698987 5.45197579,29.4071861 5.3056,29.4741333 C5.26077571,29.4930963 5.21327457,29.5049715 5.1648,29.5093333 L5.1648,29.5093333 Z M1.38666667,26.8224 C2.64885153,27.0558265 3.84801752,27.5514817 4.90666667,28.2773333 C5.14956211,27.0160076 5.64875031,25.8179559 6.37333333,24.7573333 C5.11114847,24.5239069 3.91198248,24.0282516 2.85333333,23.3024 C2.61567809,24.5652978 2.11605579,25.7643913 1.38666667,26.8224 Z" id="Shape" fill="#b4975a"></path>
                    <circle id="Oval" fill="#b4975a" cx="11.9818667" cy="41.1722667" r="1"></circle>
                    <circle id="Oval" fill="#b4975a" cx="42.2304" cy="16.3445333" r="1.6192"></circle>
                    <path d="M31.4474667,29.9434667 C31.3821188,29.9608865 31.3133479,29.9608865 31.248,29.9434667 C31.1426455,29.8933471 31.0627124,29.8018844 31.0271547,29.6907665 C30.991597,29.5796486 31.0035816,29.4587722 31.0602667,29.3568 C31.8136123,27.8825804 32.7180187,26.490581 33.7589333,25.2032 C35.6068741,22.9158889 36.6060259,20.0593929 36.5866667,17.1189333 C36.597778,13.2054845 34.8326821,9.49835153 31.7877333,7.04 C28.7162136,4.56959833 24.6904441,3.62464279 20.8405333,4.4704 C19.1910808,4.82126247 17.6302082,5.50389472 16.2528,6.4768 C16.1563454,6.54530189 16.0366205,6.57266182 15.9199855,6.55285588 C15.8033505,6.53304993 15.6993684,6.46770202 15.6309333,6.3712 C15.5641777,6.27516947 15.5389914,6.15626685 15.5610778,6.04141752 C15.5831642,5.92656819 15.6506549,5.82548807 15.7482667,5.76106667 C17.2192708,4.71781786 18.8884442,3.98705532 20.6528,3.61386667 C24.7779432,2.69511471 29.0969452,3.70576117 32.3861333,6.35946667 C38.2779922,11.1192706 39.2166148,19.7451595 34.4864,25.6608 C33.4889713,26.9201099 32.620274,28.276221 31.8933333,29.7088 C31.812739,29.876803 31.63158,29.9721498 31.4474667,29.9434667 Z" id="Path" fill="#b4975a"></path>
                    <path d="M29.2064,39.2949333 L17.9072,39.2949333 C17.6655487,39.2885719 17.4729829,39.0908017 17.4730667,38.8490667 L17.4730667,38.1333333 C17.4957946,33.6957413 15.9545783,29.3919676 13.12,25.9776 C10.3145954,22.6392315 9.24907765,18.1727551 10.2453333,13.9274667 C10.639724,12.2454525 11.348327,10.6530862 12.3338667,9.23413333 C12.40013,9.13839735 12.5020714,9.0732903 12.6167969,9.05343397 C12.7315224,9.03357764 12.8494156,9.06063639 12.944,9.12853333 C13.1417015,9.26669734 13.1936886,9.53703022 13.0613333,9.73866667 C12.7598867,10.1773796 12.4818108,10.6317007 12.2282667,11.0997333 C11.7080395,12.0580116 11.3136706,13.079427 11.0549333,14.1386667 C10.1135639,18.1143584 11.1101746,22.3009937 13.7418667,25.4261333 C16.726006,28.9874782 18.3588036,33.4870195 18.3530667,38.1333333 L18.3530667,38.4149333 L28.7605333,38.4149333 C28.7787984,36.6387265 29.0433641,34.8736388 29.5466667,33.1701333 C29.5680607,32.9947643 29.6909821,32.8485678 29.860074,32.7973825 C30.0291659,32.7461973 30.2125313,32.7996789 30.3275924,32.9337421 C30.4426535,33.0678052 30.4677056,33.2571608 30.3914667,33.4165333 C29.9232672,35.0416322 29.682401,36.7237465 29.6757333,38.4149333 L29.6757333,38.8490667 C29.675903,38.9714983 29.6257205,39.0886129 29.5369575,39.1729377 C29.4481946,39.2572626 29.3286621,39.3013772 29.2064,39.2949333 L29.2064,39.2949333 Z" id="Path" fill="#b4975a"></path>
                    <path d="M29.6992,41.6181333 L17.6373333,41.6181333 C17.391088,41.6181333 17.1914666,41.418512 17.1914666,41.1722667 C17.1914666,41.0550653 17.2387699,40.9428257 17.3227413,40.8610641 C17.4067127,40.7793024 17.5201748,40.7349657 17.6373333,40.7381333 L29.6992,40.7381333 C29.8163586,40.7349657 29.9298206,40.7793024 30.013792,40.8610641 C30.0977634,40.9428257 30.1450667,41.0550653 30.1450667,41.1722667 C30.1450667,41.418512 29.9454454,41.6181333 29.6992,41.6181333 L29.6992,41.6181333 Z" id="Path" fill="#b4975a"></path>
                    <path d="M28.5141333,42.9322667 C28.5141333,45.6085649 26.3445649,47.7781333 23.6682667,47.7781333 C20.9919684,47.7781333 18.8224,45.6085649 18.8224,42.9322667 L28.5141333,42.9322667 Z" id="Path" fill="#FFFFFF"></path>
                    <path d="M27.3408,42.9322667 C27.4883816,45.4416255 25.5891488,47.6024606 23.0816,47.7781333 C20.5740512,47.6024606 18.6748184,45.4416255 18.8224,42.9322667 L27.3408,42.9322667 Z" id="Path" fill="#b4975a"></path>
                    <path d="M23.68,48.2122667 C20.7666135,48.205814 18.4064527,45.8456532 18.4,42.9322667 L18.4,42.4864 L26.2496,42.4864 C26.4239446,42.4578349 26.5987113,42.5349045 26.6951948,42.6829009 C26.7916784,42.8308972 26.7916784,43.0219028 26.6951948,43.1698991 C26.5987113,43.3178955 26.4239446,43.3949651 26.2496,43.3664 L19.2917333,43.3664 C19.5326727,45.6920546 21.5504434,47.4231243 23.8856902,47.3076108 C26.220937,47.1920973 28.0580201,45.2703463 28.0682667,42.9322667 C28.0682667,42.6860213 28.267888,42.4864 28.5141333,42.4864 C28.6313347,42.4863572 28.7435743,42.5337032 28.8253359,42.6176746 C28.9070976,42.7016461 28.9514343,42.8151081 28.9482667,42.9322667 C28.9418455,45.8410915 26.5888033,48.1993743 23.68,48.2122667 Z" id="Path" fill="#b4975a"></path>
                    <path d="M22.1546667,35.7514667 C21.9084213,35.7514667 21.7088,35.5518454 21.7088,35.3056 L21.7088,24.8277333 L19.0570667,24.8277333 C17.4931178,24.7292627 16.2750712,23.4321124 16.2750712,21.8650667 C16.2750712,20.2980209 17.4931178,19.0008706 19.0570667,18.9024 L19.632,18.9024 C21.2668917,18.9088621 22.5888128,20.2360289 22.5888,21.8709333 L22.5888,23.9477333 L24.7477333,23.9477333 C24.9939787,23.9477333 25.1936,24.1473546 25.1936,24.3936 C25.1936,24.5108014 25.1462968,24.623041 25.0623254,24.7048026 C24.9783539,24.7865643 24.8648919,24.8309009 24.7477333,24.8277333 L22.5888,24.8277333 L22.5888,35.3056 C22.5888837,35.547335 22.396318,35.7451052 22.1546667,35.7514667 L22.1546667,35.7514667 Z M19.0570667,19.7824 C17.967355,19.8642499 17.1249656,20.7722854 17.1249656,21.8650667 C17.1249656,22.9578479 17.967355,23.8658835 19.0570667,23.9477333 L21.7088,23.9477333 L21.7088,21.8709333 C21.7088,20.7220349 20.7808803,19.7888545 19.632,19.7824 L19.0570667,19.7824 Z" id="Shape" fill="#b4975a"></path>
                    <path d="M25.1936,35.7514667 C24.9473546,35.7514667 24.7477333,35.5518454 24.7477333,35.3056 L24.7477333,24.8277333 L22.5888,24.8277333 C22.4716414,24.8309009 22.3581794,24.7865643 22.274208,24.7048026 C22.1902366,24.623041 22.1429333,24.5108014 22.1429333,24.3936 C22.1429333,24.1473546 22.3425546,23.9477333 22.5888,23.9477333 L24.7477333,23.9477333 L24.7477333,21.8709333 C24.7477333,21.0836293 25.0604886,20.3285713 25.6171966,19.7718633 C26.1739046,19.2151553 26.9289627,18.9024 27.7162667,18.9024 L28.2794667,18.9024 C29.8434155,19.0008706 31.0614621,20.2980209 31.0614621,21.8650667 C31.0614621,23.4321124 29.8434155,24.7292627 28.2794667,24.8277333 L25.6277333,24.8277333 L25.6277333,35.3056 C25.6278171,35.547335 25.4352513,35.7451052 25.1936,35.7514667 L25.1936,35.7514667 Z M25.6277333,23.9477333 L28.2794667,23.9477333 C29.3691783,23.8658835 30.2115678,22.9578479 30.2115678,21.8650667 C30.2115678,20.7722854 29.3691783,19.8642499 28.2794667,19.7824 L27.7162667,19.7824 C27.1623532,19.7824 26.6311266,20.0024413 26.2394506,20.3941173 C25.8477746,20.7857932 25.6277333,21.3170199 25.6277333,21.8709333 L25.6277333,23.9477333 Z" id="Shape" fill="#b4975a"></path>
                    <path d="M33.5946667,13.4112301 C33.4184058,13.4132966 33.2593751,13.305717 33.1957333,13.1413333 C32.0083474,9.81871576 29.1353844,7.38430468 25.6629333,6.7584 C25.4244715,6.71105797 25.2678926,6.48140893 25.3109333,6.24213333 C25.3278696,6.12690144 25.3916341,6.02377617 25.4871541,5.95713427 C25.5826742,5.89049236 25.7014722,5.86624846 25.8154667,5.89013333 C29.5952884,6.55246284 32.7300274,9.19012179 34.0288,12.8010667 C34.0753195,12.9082805 34.0766467,13.0297222 34.0324814,13.1379271 C33.9883161,13.246132 33.9023892,13.3319598 33.7941333,13.376 L33.5946667,13.4112301 Z" id="Path" fill="#b4975a"></path>
                </g>
            </g>
        </g>
    </g>
</svg>