<svg version="1.2" xmlns="http://www.w3.org/2000/svg" viewBox="0 0 46 45" width="46" height="45"><defs><clipPath clipPathUnits="userSpaceOnUse" id="cp1"><path d="m0.5 0h45v45h-45z"/></clipPath></defs><style>.a{fill:#f6e8c8}.b{fill:#b4975a}.c{fill:#3dcdff}.d{fill:#fff}.e{fill:#e5e9ec}.f{fill:none;stroke:#525666;stroke-linecap:round;stroke-linejoin:round;stroke-width:.8}.g{fill:none;stroke:#fff;stroke-linecap:round;stroke-linejoin:round;stroke-width:.9}</style><g clip-path="url(#cp1)"><path class="a" d="m42.7 11.8c-1.9-7.1-8.4-12-15.8-11.8-7.3 0.2-13.6 5.4-15.1 12.6-0.6 2.5-1.9 4.8-3.9 6.4-4.7 4.1-6.3 10.7-4.1 16.5 2.2 5.8 7.8 9.6 14 9.5 6.2-0.1 11.7-4.1 13.7-9.9 1-2.5 2.6-4.7 4.8-6.2 5.5-3.8 8.1-10.6 6.4-17.1z"/><path fill-rule="evenodd" class="b" d="m6 19.7q-0.2 0-0.3-0.2-0.1-0.2 0.1-0.3c0.7-0.9 1.1-1.9 1.3-3.1q0-0.1 0.2-0.2 0.1-0.1 0.3 0c0.9 0.7 1.9 1.2 3.1 1.3q0.1 0 0.2 0.2 0.1 0.1 0 0.3c-0.8 0.9-1.2 1.9-1.3 3q-0.1 0.2-0.2 0.3-0.1 0.1-0.2 0.1-0.1 0-0.2-0.1c-0.9-0.7-1.9-1.2-3-1.3zm4-1.9q-1.3-0.3-2.4-1.1-0.3 1.4-1.1 2.5 1.4 0.2 2.5 1 0.3-1.3 1-2.4z"/><path class="c" d="m4.9 34.1c0.4 0 0.8-0.3 0.8-0.8 0-0.5-0.4-0.8-0.8-0.8-0.5 0-0.9 0.3-0.9 0.8 0 0.5 0.4 0.8 0.9 0.8z"/><path class="b" d="m39.7 7.3c0.7 0 1.3-0.6 1.3-1.4 0-0.8-0.6-1.4-1.3-1.4-0.8 0-1.4 0.6-1.4 1.4 0 0.8 0.6 1.4 1.4 1.4z"/><path class="d" d="m2.7 38.2c0-8.8 7.2-16 16-16 8.9 0 16.1 7.2 16.1 16v1.8h-31.3c-0.5 0-0.8-0.3-0.8-0.8z"/><path class="d" d="m27.5 11.1c0 4.9-3.9 8.8-8.8 8.8-4.8 0-8.8-3.9-8.8-8.8 0-4.9 4-8.8 8.8-8.8 4.9 0 8.8 3.9 8.8 8.8z"/><path fill-rule="evenodd" class="e" d="m24.9 23.4c5.8 2.4 9.9 8.1 9.9 14.8v1.8h-12.7c-1.2-1.9-1.9-4.3-1.9-6.7 0-4 1.8-7.6 4.7-9.9z"/><path fill-rule="evenodd" class="f" d="m21.4 39h-16.9c-0.5 0-0.8-0.4-0.8-0.8v-1c0-8.9 7.2-16.1 16-16.1 2.2 0 4.3 0.5 6.2 1.3m2.6-12.3c0 4.8-3.9 8.8-8.8 8.8-4.8 0-8.8-4-8.8-8.8 0-4.9 4-8.8 8.8-8.8 4.9 0 8.8 3.9 8.8 8.8z"/><path fill-rule="evenodd" class="b" d="m32.5 44.5c-5.8 0-10.5-4.7-10.5-10.5 0-5.8 4.7-10.5 10.5-10.5 5.8 0 10.5 4.7 10.5 10.5 0 5.8-4.7 10.5-10.5 10.5z"/><path fill-rule="evenodd" class="g" d="m34.4 29.2h-4.6c-1.4 0-2.4 1.1-2.4 2.4 0 1.4 1 2.4 2.4 2.4h6.4c1.3 0 2.4 1.1 2.4 2.5 0 1.3-1.1 2.4-2.4 2.4h-3.2m1.4-9.7l-1.9-1.9m1.9 1.9l-1.9 1.9"/><path fill-rule="evenodd" class="d" d="m33 40.7c-1 0-1.8-0.8-1.8-1.8 0-1 0.8-1.8 1.8-1.8 1 0 1.8 0.8 1.8 1.8 0 1-0.8 1.8-1.8 1.8z"/><path fill-rule="evenodd" class="f" d="m40.3 25.7c4.1 4 4.3 10.6 0.3 14.8-3.1 3.2-7.7 4-11.5 2.4m-3.4-2.1c-4.1-4.1-4.3-10.7-0.3-14.9 2.4-2.4 5.8-3.5 8.9-3.1"/></g></svg>