<svg width="143px" height="157px" viewBox="0 0 143 157" version="1.1" xmlns="http://www.w3.org/2000/svg" xmlns:xlink="http://www.w3.org/1999/xlink">
    <g id="New-Requester-Portal" stroke="none" stroke-width="1" fill="none" fill-rule="evenodd">
        <g id="05_Solutions-empty-state" transform="translate(-1053.000000, -113.000000)">
            <g id="Group-11" transform="translate(968.000000, 57.000000)">
                <g id="Group-121" transform="translate(86.000000, 57.000000)">
                    <g id="Group-7" transform="translate(0.000000, 0.157440)" stroke="#b4975a" stroke-linecap="round" stroke-width="0.73216">
                        <path d="M95.462592,154.834144 C95.462592,154.834144 95.030912,154.789024 94.253632,154.680544" id="Stroke-1"></path>
                        <path d="M91.856352,154.301024 C79.700512,152.180704 41.659232,142.721824 53.922912,108.641184 C53.922912,108.641184 71.621792,62.697504 123.377312,73.892384 C123.377312,73.892384 141.147872,79.197664 140.738912,95.291424 C140.738912,95.291424 134.474272,148.464864 26.570912,101.738144 C26.570912,101.738144 -64.075168,59.108064 89.772192,1.062944" id="Stroke-3" stroke-dasharray="2.428159904479981,2.428159904479981"></path>
                        <path d="M90.908832,0.635392 C91.288352,0.493312 91.669152,0.350912 92.051552,0.208512" id="Stroke-5"></path>
                    </g>
                    <path d="M102.713856,63.170016 L87.993856,63.170016 C83.575296,63.170016 79.993856,59.588576 79.993856,55.170016 C79.993856,50.751776 83.575296,47.170016 87.993856,47.170016 L102.713856,47.170016 C107.132096,47.170016 110.713856,50.751776 110.713856,55.170016 C110.713856,59.588576 107.132096,63.170016 102.713856,63.170016" id="Fill-8" fill="#FEFEFE"></path>
                    <g id="Group-2" transform="translate(19.000000, 46.000000)" fill-rule="nonzero">
                        <path d="M88.7290343,77.2041904 L6.86883017,77.2041904 C3.51670168,77.1998056 0.800357767,74.4834617 0.795939784,71.1313332 L0.795939784,4.63235363 C0.791743255,3.61774093 1.19128889,2.64311878 1.90649147,1.92343685 C2.62169406,1.20375492 3.59380268,0.798132079 4.60842201,0.796026955 L33.4525036,0.796026955 C34.6271758,0.796026955 35.7366939,1.33578625 36.4610751,2.2605169 L41.6425036,8.8905169 C42.3659998,9.81101159 43.4723229,10.3480332 44.6431159,10.3470475 L89.9627077,10.3470475 C92.6309193,10.3470475 94.7942665,12.5100604 94.7942665,15.178272 L94.7942665,71.0676598 C94.8109226,72.6879068 94.1797078,74.2477553 93.0407033,75.4002126 C91.9016988,76.5526699 90.3493691,77.2021558 88.7290343,77.2041904 Z" id="Path" fill="#FEFEFE"></path>
                        <path d="M88.7290343,78.0001087 L6.86883017,78.0001087 C3.07712844,77.9957227 0.0044406707,74.923035 2.71527773e-05,71.1313332 L2.71527773e-05,4.63235363 C-0.00417373787,3.40664999 0.479228062,2.22958342 1.34369414,1.36063824 C2.20816021,0.49169307 3.38271288,0.0022147345 4.60842201,5.39390648e-05 L33.4525036,5.39390648e-05 C34.872943,-0.0068512547 36.2152314,0.649574884 37.0818914,1.77500669 L42.2712792,8.39704751 C42.8423981,9.13462606 43.726251,9.56182162 44.6590343,9.55112914 L89.9786261,9.55112914 C93.0845936,9.55551301 95.6013851,12.0723045 95.605995,15.178272 L95.605995,71.0676598 C95.6206238,72.9011173 94.902676,74.6645888 93.6114245,75.9663019 C92.3201729,77.2680149 90.562552,78.0001087 88.7290343,78.0001087 L88.7290343,78.0001087 Z M4.60842201,1.59190073 C2.94425315,1.59631913 1.59626506,2.94430722 1.59159725,4.60847608 L1.59159725,71.0676598 C1.57702577,72.4775515 2.12616271,73.8349289 3.11716531,74.8378893 C4.10816791,75.8408497 5.45886155,76.4062269 6.86883017,76.408272 L88.7290343,76.408272 C91.6384809,76.3995118 93.9936453,74.0407897 93.9980453,71.1313332 L93.9980453,15.2021495 C94.0022432,14.1284314 93.5792178,13.0971248 92.8222214,12.3356492 C92.0652251,11.5741736 91.0364322,11.1450712 89.9627077,11.1429659 L44.6431159,11.1429659 C43.2265682,11.1505683 41.8874852,10.4972136 41.0216873,9.3760271 L35.8322996,2.75398628 C35.2604245,2.01636359 34.3778731,1.58685526 33.4445445,1.59190073 L4.60842201,1.59190073 Z" id="Shape" fill="#5B4029"></path>
                        <path d="M86.420871,73.2245985 L4.44127915,73.2245985 C1.13025874,73.2245985 1.60780976,71.3303128 1.60780976,68.1545985 L0.939238334,56.8127618 L7.51352405,28.6292924 C7.79813413,27.4128152 8.88276787,26.5523611 10.1320955,26.5519455 L45.948422,26.5519455 C46.5726941,26.5434717 47.1589165,26.2503605 47.5402587,25.7560271 L53.7006669,18.1152108 C54.0796769,17.6180522 54.6673708,17.3242052 55.2925036,17.3192924 L94.7939322,17.3192924 L94.483524,22.4927618 L92.4061771,67.4064353 C92.3915904,68.9741012 91.7509272,70.4708863 90.626787,71.5636342 C89.5026469,72.6563821 87.9883213,73.2544066 86.420871,73.2245985 L86.420871,73.2245985 Z" id="Path" fill-opacity="0.2" fill="#5B402966"></path>
                        <path d="M88.8086261,77.2041904 L6.82903425,77.2041904 C3.58644651,77.2663783 0.905390453,74.6921372 0.835768947,71.4497006 L9.98883017,32.2268434 C10.205873,31.2302066 11.0782301,30.5125694 12.0980138,30.4917414 L47.7392383,30.4917414 C48.7200382,30.4912283 49.6477936,30.046374 50.2622996,29.2819455 L55.698422,22.5325577 C56.3231298,21.7590718 57.2670688,21.3134857 58.2612792,21.3226198 L104.424544,21.3226198 L94.873524,71.4099047 C94.8529836,72.987569 94.1986027,74.4906362 93.0577698,75.5805658 C91.9169368,76.6704955 90.3855852,77.2556346 88.8086261,77.2041904 L88.8086261,77.2041904 Z" id="Path" fill="#FEFEFE"></path>
                        <path d="M88.8086261,77.9443944 L6.82903425,77.9443944 C3.1557046,78.0065061 0.12547287,75.0830981 0.0557689465,71.4099047 C0.0479992467,71.3517959 0.0479992467,71.2929114 0.0557689465,71.2348026 L9.20883017,32.0119455 C9.51978557,30.6666208 10.7172208,29.7132908 12.0980138,29.7117414 L47.7392383,29.7117414 C48.4842584,29.7129224 49.1896547,29.3763225 49.6574016,28.7964353 L55.0776057,22.0390883 C55.8488113,21.0728898 57.025246,20.5199656 58.2612792,20.5427618 L104.424544,20.5427618 C104.657201,20.5427465 104.878216,20.6445297 105.029442,20.8213332 C105.176712,21.00147 105.237782,21.2370287 105.196585,21.4660271 L95.6455649,71.4894965 C95.5329084,75.1567224 92.4762685,78.0425605 88.8086261,77.9443944 L88.8086261,77.9443944 Z M1.57597303,71.4974557 C1.68387676,74.282114 4.00310469,76.4667913 6.78923833,76.408272 L88.8086261,76.408272 C91.6174065,76.4661089 93.9444028,74.2422975 94.0139322,71.4337822 C94.0100184,71.3861073 94.0100184,71.3381918 94.0139322,71.2905169 L103.389851,22.1266362 L58.2612792,22.1266362 C57.516259,22.1254584 56.8108628,22.4620582 56.3431159,23.0419455 L50.8990343,29.7913332 C50.1414978,30.7449844 48.9889826,31.2992474 47.7710751,31.2956189 L12.0980138,31.2956189 C11.4408973,31.2934702 10.8695733,31.745906 10.7210751,32.3860271 L1.57597303,71.4974557 Z" id="Shape" fill="#5B4029"></path>
                    </g>
                    <line x1="21.786496" y1="124.659392" x2="110.959936" y2="124.659392" id="Stroke-31" stroke="#b4975a" stroke-width="1.28" stroke-linecap="round"></line>
                    <line x1="113.093216" y1="124.659392" x2="115.653216" y2="124.659392" id="Stroke-33" stroke="#b4975a" stroke-width="1.28" stroke-linecap="round"></line>
                    <line x1="117.760736" y1="124.659392" x2="126.105056" y2="124.659392" id="Stroke-35" stroke="#b4975a" stroke-width="1.28" stroke-linecap="round"></line>
                    <line x1="6.809472" y1="124.659392" x2="9.369472" y2="124.659392" id="Stroke-37" stroke="#b4975a" stroke-width="1.28" stroke-linecap="round"></line>
                    <line x1="11.476832" y1="124.659392" x2="19.821472" y2="124.659392" id="Stroke-39" stroke="#b4975a" stroke-width="1.28" stroke-linecap="round"></line>
                    <line x1="55.71696" y1="129.716288" x2="77.0296" y2="129.716288" id="Stroke-41" stroke="#b4975a" stroke-width="1.28" stroke-linecap="round"></line>
                    <line x1="79.162912" y1="129.716288" x2="81.722912" y2="129.716288" id="Stroke-43" stroke="#b4975a" stroke-width="1.28" stroke-linecap="round"></line>
                    <line x1="83.8304" y1="129.716288" x2="92.17472" y2="129.716288" id="Stroke-45" stroke="#b4975a" stroke-width="1.28" stroke-linecap="round"></line>
                    <line x1="40.739776" y1="129.716288" x2="43.299776" y2="129.716288" id="Stroke-47" stroke="#b4975a" stroke-width="1.28" stroke-linecap="round"></line>
                    <line x1="45.407296" y1="129.716288" x2="53.751616" y2="129.716288" id="Stroke-49" stroke="#b4975a" stroke-width="1.28" stroke-linecap="round"></line>
                    <path d="M103.276672,82.018784 C103.276672,91.842784 95.312512,99.806624 85.488512,99.806624 C75.664512,99.806624 67.700672,91.842784 67.700672,82.018784 C67.700672,72.194784 75.664512,64.230624 85.488512,64.230624 C95.312512,64.230624 103.276672,72.194784 103.276672,82.018784" id="Fill-75" fill="#FEFEFE"></path>
                    <path d="M103.276672,82.018784 C103.276672,91.842784 95.312512,99.806624 85.488512,99.806624 C75.664512,99.806624 67.700672,91.842784 67.700672,82.018784 C67.700672,72.194784 75.664512,64.230624 85.488512,64.230624 C95.312512,64.230624 103.276672,72.194784 103.276672,82.018784 Z" id="Stroke-77" stroke="#5B4029" stroke-width="1.42752" stroke-linecap="round"></path>
                    <path d="M98.295712,82.018784 C98.295712,89.092064 92.561632,94.825824 85.488672,94.825824 C78.415392,94.825824 72.681312,89.092064 72.681312,82.018784 C72.681312,74.945504 78.415392,69.211744 85.488672,69.211744 C92.561632,69.211744 98.295712,74.945504 98.295712,82.018784" id="Fill-79" fill="#FEFEFE"></path>
                    <path d="M98.295712,82.018784 C98.295712,89.092064 92.561632,94.825824 85.488672,94.825824 C78.415392,94.825824 72.681312,89.092064 72.681312,82.018784 C72.681312,74.945504 78.415392,69.211744 85.488672,69.211744 C92.561632,69.211744 98.295712,74.945504 98.295712,82.018784 Z" id="Stroke-81" stroke="#5B4029" stroke-width="1.42752" stroke-linecap="round"></path>
                    <path d="M122.35072,119.322208 L122.35072,119.322208 C120.40224,121.270688 117.2432,121.270688 115.29472,119.322208 L100.416,104.443488 L107.472,97.387488 L122.35072,112.266208 C124.2992,114.214688 124.2992,117.373728 122.35072,119.322208" id="Fill-83" fill="#FEFEFE"></path>
                    <path d="M122.35072,119.322208 L122.35072,119.322208 C120.40224,121.270688 117.2432,121.270688 115.29472,119.322208 L100.416,104.443488 L107.472,97.387488 L122.35072,112.266208 C124.2992,114.214688 124.2992,117.373728 122.35072,119.322208 Z" id="Stroke-85" stroke="#5B4029" stroke-width="1.28" stroke-linecap="round"></path>
                    <polygon id="Fill-87" fill="#FEFEFE" points="105.213216 99.606272 102.453536 102.365952 96.609056 96.521792 99.369056 93.761792"></polygon>
                    <polygon id="Stroke-89" stroke="#5B4029" stroke-width="1.28" stroke-linecap="round" points="105.213216 99.606272 102.453536 102.365952 96.609056 96.521792 99.369056 93.761792"></polygon>
                    <g id="Group-94" transform="translate(102.720000, 89.757440)">
                        <line x1="0.138208" y1="7.074144" x2="6.968288" y2="0.244064" id="Fill-91" fill="#FEFEFE"></line>
                        <line x1="0.138208" y1="17.074144" x2="6.968288" y2="10.244064" id="Stroke-93" stroke="#5B4029" stroke-width="1.28" stroke-linecap="round"></line>
                    </g>
                    <g id="Group-98" transform="translate(115.200000, 102.237440)">
                        <line x1="0.211968" y1="7.147904" x2="7.042048" y2="0.317824" id="Fill-95" fill="#FEFEFE"></line>
                        <line x1="0.211968" y1="17.147904" x2="7.042048" y2="10.317824" id="Stroke-97" stroke="#5B4029" stroke-width="1.28" stroke-linecap="round"></line>
                    </g>
                    <g id="Group-102" transform="translate(104.960000, 94.877440)">
                        <line x1="0.089152" y1="0.086976" x2="12.160192" y2="12.158016" id="Fill-99" fill="#FEFEFE"></line>
                        <line x1="0.089152" y1="10.086976" x2="12.160192" y2="22.158016" id="Stroke-101" stroke="#5B4029" stroke-width="1.28" stroke-linecap="round"></line>
                    </g>
                    <g id="Group-106" transform="translate(107.520000, 91.997440)">
                        <line x1="0.2248" y1="0.271328" x2="12.29584" y2="12.342368" id="Fill-103" fill="#FEFEFE"></line>
                        <line x1="0.2248" y1="10.271328" x2="12.29584" y2="22.342368" id="Stroke-105" stroke="#5B4029" stroke-width="1.28" stroke-linecap="round"></line>
                    </g>
                    <path d="M84.388224,86.1816 C84.388224,85.85104 84.513984,85.56368 84.765504,85.31984 C85.017984,85.07568 85.316544,84.95312 85.663104,84.95312 C86.009344,84.95312 86.309504,85.07152 86.561024,85.30832 C86.813184,85.54448 86.938944,85.828 86.938944,86.15824 C86.938944,86.5048 86.816704,86.80048 86.572544,87.04432 C86.328384,87.28848 86.033024,87.41008 85.687424,87.41008 C85.340864,87.41008 85.037504,87.28848 84.777984,87.04432 C84.518144,86.80048 84.388224,86.51312 84.388224,86.1816 L84.388224,86.1816 Z M86.561024,83.72496 L84.694784,83.72496 L84.694784,82.7096 C84.694784,82.28432 84.745344,81.96528 84.848704,81.7528 C84.950464,81.53968 85.182464,81.25328 85.545664,80.8904 L86.749824,79.68592 C87.001344,79.41776 87.128064,79.0712 87.128064,78.64656 C87.128064,78.23696 86.998144,77.89872 86.738304,77.63056 C86.478464,77.36336 86.136064,77.22928 85.710784,77.22928 C85.285184,77.22928 84.930944,77.35952 84.648064,77.61904 C84.364224,77.87888 84.206784,78.22128 84.175104,78.64656 L82.167424,78.64656 C82.276864,77.66992 82.659584,76.90224 83.313344,76.3432 C83.966144,75.78448 84.789504,75.5048 85.781504,75.5048 C86.774144,75.5048 87.577024,75.77616 88.191424,76.32016 C88.805184,76.86288 89.112704,77.60752 89.112704,78.55184 C89.112704,79.19824 88.923584,79.74928 88.545344,80.2056 C88.308864,80.52048 88.009664,80.84336 87.647744,81.17424 C87.269504,81.5208 87.009664,81.78032 86.868224,81.95376 C86.663104,82.23696 86.561024,82.5832 86.561024,82.9928 L86.561024,83.72496 Z" id="Fill-107" fill="#5B4029"></path>
                    <path d="M84.189152,27.955968 C84.189152,28.839488 83.472992,29.555968 82.589152,29.555968 C81.705632,29.555968 80.989152,28.839488 80.989152,27.955968 C80.989152,27.072128 81.705632,26.355968 82.589152,26.355968 C83.472992,26.355968 84.189152,27.072128 84.189152,27.955968" id="Fill-109" fill="#b4975a"></path>
                    <path d="M109.473216,38.069408 C109.473216,40.968288 107.123136,43.318048 104.224576,43.318048 C101.325696,43.318048 98.975616,40.968288 98.975616,38.069408 C98.975616,35.170208 101.325696,32.820768 104.224576,32.820768 C107.123136,32.820768 109.473216,35.170208 109.473216,38.069408" id="Fill-111" fill="#b4975a"></path>
                    <path d="M17.414784,115.10848 C17.414784,116.13376 16.583744,116.9648 15.558464,116.9648 C14.533504,116.9648 13.702144,116.13376 13.702144,115.10848 C13.702144,114.08352 14.533504,113.25216 15.558464,113.25216 C16.583744,113.25216 17.414784,114.08352 17.414784,115.10848" id="Fill-113" fill="#b4975a"></path>
                    <polygon id="Fill-115" fill="#b4975a" points="22.20416 48.665024 20.91424 48.665024 20.91424 47.375104 20.0544 47.375104 20.0544 48.665024 18.76448 48.665024 18.76448 49.524864 20.0544 49.524864 20.0544 50.814784 20.91424 50.814784 20.91424 49.524864 22.20416 49.524864"></polygon>
                    <polygon id="Fill-117" fill="#b4975a" points="102.213536 67.065664 100.539936 67.065664 100.539936 65.391744 99.423776 65.391744 99.423776 67.065664 97.749856 67.065664 97.749856 68.181504 99.423776 68.181504 99.423776 69.855424 100.539936 69.855424 100.539936 68.181504 102.213536 68.181504"></polygon>
                    <polygon id="Fill-119" fill="#b4975a" points="113.415104 117.22096 112.125504 117.22096 112.125504 115.93136 111.265344 115.93136 111.265344 117.22096 109.975744 117.22096 109.975744 118.08112 111.265344 118.08112 111.265344 119.37104 112.125504 119.37104 112.125504 118.08112 113.415104 118.08112"></polygon>
                </g>
            </g>
        </g>
    </g>
</svg>