<svg id="Layer_1" data-name="Layer 1" xmlns="http://www.w3.org/2000/svg" xmlns:xlink="http://www.w3.org/1999/xlink" viewBox="0 0 210 210">
    <defs>
        <style>
        .cls-1,
        .cls-9 {
            fill: #fff;
        }

        .cls-1,
        .cls-2,
        .cls-4,
        .cls-8 {
            fill-rule: evenodd;
        }

        .cls-2 {
            fill: #f6e8c8;
        }

        .cls-3 {
            mask: url(#mask);
        }

        .cls-11,
        .cls-4 {
            fill: #5B4029;
        }

        .cls-5 {
            mask: url(#mask-2-2);
        }

        .cls-6,
        .cls-7 {
            fill: none;
            stroke-linecap: round;
        }

        .cls-6 {
            stroke: #b4975a;
            stroke-linejoin: round;
            stroke-width: 2px;
        }

        .cls-7,
        .cls-9 {
            stroke: #b4975a;
        }

        .cls-7 {
            stroke-dasharray: 2.11 2.11;
        }

        .cls-8 {
            fill: #dae1e7;
        }

        .cls-10 {
            fill: #f6e8c8;
        }

        .cls-12 {
            opacity: 0.2;
        }
        </style>
        <mask id="mask" x="16.07" y="121.15" width="26.7" height="26.7" maskUnits="userSpaceOnUse">
            <g id="mask-2">
                <polygon id="path-1" class="cls-1" points="16.07 121.15 42.77 121.15 42.77 147.84 16.07 147.84 16.07 121.15" />
            </g>
        </mask>
        <mask id="mask-2-2" x="93.22" y="203.71" width="52.69" height="1.56" maskUnits="userSpaceOnUse">
            <g id="mask-4">
                <polygon id="path-3" class="cls-1" points="93.22 203.71 145.91 203.71 145.91 205.27 93.22 205.27 93.22 203.71" />
            </g>
        </mask>
    </defs>
    <title>Folder is empty</title>
    <g id="Group-45">
        <path id="Fill-1" class="cls-2" d="M113.35,178l56.33-56.34a9,9,0,0,1,12.71,12.72l-56.33,56.33A9,9,0,0,1,113.35,178" />
        <g id="Group-5">
            <g class="cls-3">
                <path id="Fill-3" class="cls-2" d="M18.71,132.49l8.71-8.71A9,9,0,1,1,40.13,136.5l-8.71,8.71a9,9,0,1,1-12.71-12.72" />
            </g>
        </g>
        <path id="Fill-6" class="cls-2" d="M117.35,149l25.74-25.74A9,9,0,0,0,155.81,136l-25.75,25.75A9,9,0,1,0,117.35,149" />
        <path id="Fill-8" class="cls-2" d="M106.34,109.8l24.13-24.12A9,9,0,1,0,143.18,98.4l-24.12,24.12a9,9,0,0,0-12.72-12.72" />
        <path id="Fill-10" class="cls-2" d="M97.8,143.26l70.38-70.37a9,9,0,0,1,12.71,12.72L110.52,156A9,9,0,1,1,97.8,143.26" />
        <path id="Fill-12" class="cls-2" d="M28.66,162.34l95.79-95.79a9,9,0,1,1,12.71,12.71l-95.79,95.8a9,9,0,0,1-12.71-12.72" />
        <path id="Fill-14" class="cls-2" d="M45.59,99.27,81.14,63.73A9,9,0,1,1,93.85,76.44L58.31,112A9,9,0,0,1,45.59,99.27" />
        <path id="Fill-16" class="cls-2" d="M104.39,40.48l.21-.22A9,9,0,0,1,117.32,53l-.21.21a9,9,0,0,1-12.72,0h0a9,9,0,0,1,0-12.71" />
        <path id="Fill-18" class="cls-2" d="M77.12,163.34l.21-.21a9,9,0,0,1,12.72,12.72l-.21.21a9,9,0,0,1-12.72,0h0a9,9,0,0,1,0-12.72" />
        <path id="Fill-22" class="cls-4" d="M198.34,195.2a4.69,4.69,0,0,1,1.84-.25,8.86,8.86,0,0,1,1.85.18.55.55,0,0,1,.43.65.57.57,0,0,1-.43.43,9.59,9.59,0,0,1-1.85.18,4.88,4.88,0,0,1-1.84-.25.5.5,0,0,1-.29-.65.49.49,0,0,1,.29-.29" />
        <path id="Fill-26" class="cls-4" d="M29.81,195.22c6.91-.2,13.82-.23,20.73-.23H71.26l41.46,0,41.45,0,20.73,0c6.91,0,13.82,0,20.73.2a.57.57,0,0,1,.56.59.59.59,0,0,1-.56.57c-6.91.17-13.82.19-20.73.19l-20.73,0-41.45,0-41.46,0-20.72,0c-6.91,0-13.82,0-20.73-.23a.45.45,0,0,1-.43-.46.45.45,0,0,1,.43-.43" />
        <path id="Fill-30" class="cls-4" d="M25.73,195a1.22,1.22,0,0,1,.27,0,.7.7,0,0,1,.14,0,.75.75,0,0,1,.13.06.69.69,0,0,1,.19,1,.65.65,0,0,1-.19.18.38.38,0,0,1-.13.06c-.05,0-.09,0-.14,0a.82.82,0,0,1-.27,0,.69.69,0,0,1-.51-.81.7.7,0,0,1,.51-.51" />
        <path id="Fill-34" class="cls-4" d="M19.09,195.19a6.26,6.26,0,0,1,1.35-.18,3.62,3.62,0,0,1,1.34.13.56.56,0,0,1,.37.69.57.57,0,0,1-.37.37,3.85,3.85,0,0,1-1.34.13,7,7,0,0,1-1.35-.18.5.5,0,0,1-.35-.61.46.46,0,0,1,.35-.35" />
        <g id="Group-40">
            <g class="cls-5">
                <path id="Fill-38" class="cls-4" d="M93.62,204c2.16-.2,4.32-.23,6.47-.23l6.47,0,12.94-.07h19.41c2.15,0,4.31,0,6.47.2a.58.58,0,0,1,0,1.16c-2.16.17-4.32.18-6.47.19H119.5l-12.94-.07-6.47,0c-2.15,0-4.31,0-6.47-.24a.45.45,0,0,1,0-.89" />
            </g>
        </g>
        <path id="Fill-43" class="cls-4" d="M72.33,204c2.21-.12,4.42-.16,6.63-.18s4.42,0,6.63.13a.53.53,0,0,1,.5.56.54.54,0,0,1-.5.5c-2.21.14-4.42.15-6.63.13s-4.42-.07-6.63-.18a.48.48,0,0,1-.45-.51.48.48,0,0,1,.45-.45" />
    </g>
    <g id="Group-48">
        <path id="Stroke-15" class="cls-6" d="M193.9,156a1.72,1.72,0,1,1-1.72-1.72A1.72,1.72,0,0,1,193.9,156Z" />
        <g id="Group-23">
            <line id="Stroke-19" class="cls-6" x1="9.27" y1="68.18" x2="9.27" y2="76.67" />
            <line id="Stroke-21" class="cls-6" x1="13.51" y1="72.42" x2="5.02" y2="72.42" />
        </g>
        <path id="Stroke-24" class="cls-6" d="M66.3,65.64a1.72,1.72,0,1,1-1.72-1.72A1.72,1.72,0,0,1,66.3,65.64Z" />
        <path id="Stroke-26" class="cls-6" d="M194.44,102.83a1.72,1.72,0,1,1-1.71-1.71A1.72,1.72,0,0,1,194.44,102.83Z" />
        <polygon id="Stroke-28" class="cls-6" points="99.62 55.32 100.45 58.38 97.39 59.22 96.55 56.16 99.62 55.32" />
        <path id="Stroke-35" class="cls-6" d="M40.29,118.38a2,2,0,1,1,2,2A2,2,0,0,1,40.29,118.38Z" />
    </g>
    <g id="Group-11">
        <path id="Stroke-1" class="cls-7" d="M118.28,147.31c-10.94-1.91-45.19-10.44-34.15-41.17,0,0,15.93-41.43,62.52-31.33,0,0,16,4.78,15.63,19.29,0,0-5.64,48-102.77,5.81,0,0-76.42-55.68,56.89-90.77" />
        <polygon class="cls-8" points="77.38 126.28 75.4 126.28 75.4 124.28 74.08 124.28 74.08 126.28 72.09 126.28 72.09 127.62 74.08 127.62 74.08 129.62 75.4 129.62 75.4 127.62 77.38 127.62 77.38 126.28" />
    </g>
    <circle id="Oval" class="cls-9" cx="118.71" cy="8.02" r="3.29" />
    <path class="cls-10" d="M152.28,161H49.43a7.64,7.64,0,0,1-7.63-7.63V69.82A4.8,4.8,0,0,1,46.59,65H82.83a4.8,4.8,0,0,1,3.78,1.84l6.51,8.33A4.79,4.79,0,0,0,96.89,77h56.94a6.07,6.07,0,0,1,6.07,6.07v70.22A7.63,7.63,0,0,1,152.28,161Z" />
    <path class="cls-11" d="M152.28,162H49.43a8.64,8.64,0,0,1-8.63-8.63V69.82A5.8,5.8,0,0,1,46.59,64H82.83a5.72,5.72,0,0,1,4.56,2.23l6.52,8.32a3.74,3.74,0,0,0,3,1.45h56.94a7.08,7.08,0,0,1,7.07,7.07v70.22A8.64,8.64,0,0,1,152.28,162ZM46.59,66a3.8,3.8,0,0,0-3.79,3.79v83.5A6.64,6.64,0,0,0,49.43,160H152.28a6.64,6.64,0,0,0,6.62-6.63V83.1A5.08,5.08,0,0,0,153.83,78H96.89a5.71,5.71,0,0,1-4.55-2.22l-6.52-8.32a3.77,3.77,0,0,0-3-1.46Z" />
    <path class="cls-11" d="M112.07,136.32a1,1,0,0,1-.69-.27c0-.05-1.17-1.12-2.85-3a1,1,0,1,1,1.49-1.33c1.62,1.81,2.73,2.87,2.74,2.88a1,1,0,0,1-.69,1.72Zm-7.26-8.42a1,1,0,0,1-.81-.4c-.82-1.11-1.62-2.24-2.35-3.36a1,1,0,0,1,1.67-1.1c.71,1.09,1.48,2.18,2.29,3.26a1,1,0,0,1-.21,1.4A1,1,0,0,1,104.81,127.9Zm-5.88-9.42a1,1,0,0,1-.89-.55c-.64-1.26-1.2-2.53-1.7-3.76a1,1,0,0,1,.56-1.3,1,1,0,0,1,1.3.56c.47,1.18,1,2.39,1.63,3.6a1,1,0,0,1-.9,1.45ZM95.29,108a1,1,0,0,1-1-.83,28.74,28.74,0,0,1-.45-4.15,1,1,0,0,1,1-1,1,1,0,0,1,1,1,26.45,26.45,0,0,0,.42,3.86,1,1,0,0,1-.8,1.16Zm.42-11a.92.92,0,0,1-.28-.05,1,1,0,0,1-.68-1.24,21.2,21.2,0,0,1,1.58-3.91,1,1,0,1,1,1.77.92,20.22,20.22,0,0,0-1.43,3.56A1,1,0,0,1,95.71,97Zm5.66-9.42a1,1,0,0,1-.72-1.7,32.11,32.11,0,0,1,3.1-2.77A1,1,0,1,1,105,84.72a29.38,29.38,0,0,0-2.9,2.6A1,1,0,0,1,101.37,87.62Zm8.92-6.54a1,1,0,0,1-.48-1.88c1.15-.62,2.39-1.23,3.68-1.82a1,1,0,0,1,1.32.5,1,1,0,0,1-.5,1.32c-1.24.57-2.44,1.16-3.55,1.76A1,1,0,0,1,110.29,81.08Zm10.13-4.52a1,1,0,0,1-.41-1.91c1.26-.56,2.47-1.12,3.62-1.69a1,1,0,0,1,1.34.45,1,1,0,0,1-.45,1.34c-1.17.58-2.42,1.16-3.7,1.73A1.14,1.14,0,0,1,120.42,76.56Zm9.79-5.2a1,1,0,0,1-.84-.45,1,1,0,0,1,.29-1.38c1.15-.75,2.22-1.53,3.19-2.31a1,1,0,0,1,1.41.15,1,1,0,0,1-.16,1.41c-1,.82-2.14,1.63-3.34,2.42A1,1,0,0,1,130.21,71.36ZM138.43,64a1.06,1.06,0,0,1-.61-.2,1,1,0,0,1-.19-1.4,22.17,22.17,0,0,0,2-3.27,1,1,0,1,1,1.78.9,22.07,22.07,0,0,1-2.23,3.57A1,1,0,0,1,138.43,64Z" />
    <path class="cls-11" d="M134.06,51.83a19.43,19.43,0,0,1-6-1c-1.44-.47-4.83-1.82-5.25-4-.31-1.55.7-3.18,2.84-4.59a20.8,20.8,0,0,1,7.34-2.8c5.43-1.06,11.55-.37,12.21,3a6.93,6.93,0,0,1-1.58,5.23A10.64,10.64,0,0,1,137,51.56,15.63,15.63,0,0,1,134.06,51.83ZM137.57,41a21.58,21.58,0,0,0-4.23.43,18.83,18.83,0,0,0-6.62,2.5c-1.35.89-2.11,1.86-2,2.53.09.5,1.24,1.61,3.92,2.5a16.31,16.31,0,0,0,8,.64A8.61,8.61,0,0,0,142,46.46a5,5,0,0,0,1.21-3.62C143,41.88,140.88,41,137.57,41Z" />
    <path class="cls-11" d="M159,62.24A12,12,0,0,1,154.38,61a18.32,18.32,0,0,1-7-5.72h0c-3.6-5.15-2-10.49.45-12.22,2.82-2,7.7,1.79,10.87,6.32a21,21,0,0,1,3.35,7.11c.55,2.5.15,4.37-1.15,5.27A3.3,3.3,0,0,1,159,62.24Zm-9.95-8.16a16.22,16.22,0,0,0,6.19,5.07c2.53,1.22,4.14,1.21,4.55.92s.69-1.61.33-3.19a18.75,18.75,0,0,0-3-6.4c-3.29-4.71-7-6.6-8.08-5.83-1.54,1.07-2.88,5.26,0,9.43Z" />
    <path class="cls-11" d="M148.12,47.15a10.52,10.52,0,0,1,1.75-3.35,6.05,6.05,0,0,0,.84-1.37c1.11-2.47.4-5.2-1.59-6.1s-4.5.37-5.62,2.84a5.59,5.59,0,0,0-.48,1.92,16.1,16.1,0,0,1-.78,4.25l-.12.35c-1.46,4.46-1.37,8.48.19,9s4.35-3,5.8-7.5Z" />
    <g class="cls-12">
        <path class="cls-11" d="M149.38,156h-103c-4.16,0-3.56-2.38-3.56-6.37l-.84-14.25,8.26-35.41a3.38,3.38,0,0,1,3.29-2.61h45a2.57,2.57,0,0,0,2-1l7.74-9.6a2.54,2.54,0,0,1,2-1H159.9l-.39,6.5-2.61,56.43A7.38,7.38,0,0,1,149.38,156Z" />
    </g>
    <path class="cls-10" d="M152.38,161h-103a7.39,7.39,0,0,1-7.53-7.23l11.5-49.28A2.77,2.77,0,0,1,56,102.31h44.78a4.07,4.07,0,0,0,3.17-1.52l6.83-8.48A4.09,4.09,0,0,1,114,90.79h58l-12,62.93A7.38,7.38,0,0,1,152.38,161Z" />
    <path class="cls-11" d="M152.38,161.93h-103a8.37,8.37,0,0,1-8.51-8.21.83.83,0,0,1,0-.22l11.5-49.28A3.73,3.73,0,0,1,56,101.33h44.78a3.09,3.09,0,0,0,2.41-1.15L110,91.69A5,5,0,0,1,114,89.81h58a1,1,0,0,1,.76.35,1,1,0,0,1,.21.81l-12,62.85A8.37,8.37,0,0,1,152.38,161.93Zm-109.6-8.1A6.42,6.42,0,0,0,49.33,160H152.38a6.41,6.41,0,0,0,6.54-6.25,1.1,1.1,0,0,1,0-.18l11.78-61.77H114a3.09,3.09,0,0,0-2.41,1.15l-6.84,8.48a5,5,0,0,1-3.93,1.89H56a1.77,1.77,0,0,0-1.73,1.37Z" />
</svg>