<svg width="59" height="58" viewBox="0 0 59 58" fill="none" xmlns="http://www.w3.org/2000/svg">
	<path d="M26.4941 11.5193V11.5193C28.6831 10.0357 31.5552 10.0357 33.7441 11.5193L39.1958 15.2141C39.4703 15.4002 39.6348 15.7103 39.6348 16.0419V45.125C39.6348 46.2296 38.7393 47.125 37.6348 47.125H22.6035C21.4989 47.125 20.6035 46.2296 20.6035 45.125V16.0419C20.6035 15.7103 20.7679 15.4002 21.0425 15.2141L23.2292 13.7321" stroke="black" stroke-width="1.5" stroke-linecap="round"/>
	<path d="M39.6348 46.2188H49.6035V34.6326M40.0682 20.8438L45.6868 22.924C48.0409 23.7956 49.6035 26.0405 49.6035 28.5508V30.0312" stroke="black" stroke-width="1.5" stroke-linecap="round"/>
	<path d="M19.6973 46.2187H9.72852V28.8397C9.72852 26.3698 11.2421 24.1522 13.5422 23.2522L19.6973 20.8438" stroke="black" stroke-width="1.5" stroke-linecap="round"/>
	<path d="M26.9473 27.6875H28.2598V33.9375H24.7285V29.9062C24.7285 28.6809 25.7219 27.6875 26.9473 27.6875ZM31.9785 27.6875H33.291C34.5164 27.6875 35.5098 28.6809 35.5098 29.9062V33.9375H31.9785V27.6875ZM24.7285 37.6562H28.2598V43H24.7285V37.6562ZM31.9785 37.6562H35.5098V43H31.9785V37.6562Z" stroke="black"/>
	<rect x="42.3535" y="33.5312" width="1.8125" height="1.8125" rx="0.90625" fill="black"/>
	<rect width="1.8125" height="1.8125" rx="0.90625" transform="matrix(-1 0 0 1 17.8848 33.5312)" fill="black"/>
	<rect x="45.0723" y="28.0938" width="1.8125" height="1.8125" rx="0.90625" fill="black"/>
	<rect width="1.8125" height="1.8125" rx="0.90625" transform="matrix(-1 0 0 1 15.166 27.1875)" fill="black"/>
	<rect x="45.0723" y="38.9688" width="1.8125" height="1.8125" rx="0.90625" fill="black"/>
	<rect width="1.8125" height="1.8125" rx="0.90625" transform="matrix(-1 0 0 1 15.166 38.9688)" fill="black"/>
</svg>