<svg width="59" height="58" viewBox="0 0 59 58" fill="none" xmlns="http://www.w3.org/2000/svg">
	<path d="M36.916 12.907H11.8223C10.1654 12.907 8.82227 14.2501 8.82227 15.907V29.8445C8.82227 31.5013 10.1654 32.8445 11.8223 32.8445H46.6035C48.2604 32.8445 49.6035 31.5013 49.6035 29.8445V15.907C49.6035 14.2501 48.2604 12.907 46.6035 12.907H41.4473" stroke="black" stroke-width="1.5" stroke-linecap="round"/>
	<path d="M8.82227 27.8601V35.7351C8.82227 37.392 10.1654 38.7351 11.8223 38.7351H46.6035C48.2604 38.7351 49.6035 37.392 49.6035 35.7351V27.8601" stroke="black" stroke-width="1.5" stroke-linecap="round"/>
	<path d="M8.82227 34.2039V42.0789C8.82227 43.7357 10.1654 45.0789 11.8223 45.0789H13.5801M49.6035 34.2039V42.0789C49.6035 43.7357 48.2604 45.0789 46.6035 45.0789H20.1504" stroke="black" stroke-width="1.5" stroke-linecap="round"/>
	<circle cx="29.2129" cy="23.3289" r="3.78125" stroke="black" stroke-width="1.5"/>
	<path d="M49.6035 18.591C49.1744 18.7258 48.7177 18.7984 48.2441 18.7984C45.7416 18.7984 43.7129 16.7697 43.7129 14.2672C43.7129 13.7116 43.8129 13.1794 43.9959 12.6875" stroke="black" stroke-width="1.5"/>
	<path d="M8.82227 18.59C9.25139 18.7248 9.70803 18.7974 10.1816 18.7974C12.6842 18.7974 14.7129 16.7687 14.7129 14.2662C14.7129 13.7428 14.6242 13.2402 14.4609 12.7725" stroke="black" stroke-width="1.5"/>
	<path d="M8.82227 27.1613C9.25139 27.0265 9.70803 26.9539 10.1816 26.9539C12.6842 26.9539 14.7129 28.9826 14.7129 31.4851C14.7129 31.9587 14.6402 32.4154 14.5054 32.8445" stroke="black" stroke-width="1.5"/>
	<path d="M49.6035 27.1613C49.1744 27.0265 48.7177 26.9539 48.2441 26.9539C45.7416 26.9539 43.7129 28.9826 43.7129 31.4851C43.7129 31.9587 43.7856 32.4154 43.9203 32.8445" stroke="black" stroke-width="1.5"/>
</svg>