<svg width="58" height="58" viewBox="0 0 58 58" fill="none" xmlns="http://www.w3.org/2000/svg">
	<path d="M33.9844 49.8438V39.1562C33.9844 38.0517 33.0889 37.1562 31.9844 37.1562H26.0156C24.9111 37.1562 24.0156 38.0517 24.0156 39.1562V49.8438" stroke="black" stroke-width="1.5"/>
	<path d="M47.125 35.0165V33.625C47.125 33.0727 46.6773 32.625 46.125 32.625H11.875C11.3227 32.625 10.875 33.0727 10.875 33.625V48.8438C10.875 49.396 11.3227 49.8437 11.875 49.8437H46.125C46.6773 49.8437 47.125 49.396 47.125 48.8437V39.7995" stroke="black" stroke-width="1.5" stroke-linecap="round"/>
	<path d="M44.4063 32.625V29.0937C44.4063 28.5415 43.9585 28.0938 43.4063 28.0938H14.5938C14.0415 28.0938 13.5938 28.5415 13.5938 29.0937V32.625" stroke="black" stroke-width="1.5" stroke-linecap="round"/>
	<path d="M19.0312 28.0938C19.2211 27.1465 19.528 25.9339 20.0321 24.679M29.2034 17.9438C37.3412 17.9438 38.4262 24.7104 38.9688 28.0938M29.2034 17.9438V14.5604M29.2034 17.9438C25.971 17.9438 23.7425 19.2618 22.2031 21.0253M29.2034 14.5604V11.0625C29.2034 9.95793 30.0989 9.0625 31.2034 9.0625H36.9343V14.5604H29.2034Z" stroke="black" stroke-width="1.5" stroke-linecap="round"/>
</svg>