<svg width="59" height="58" viewBox="0 0 59 58" fill="none" xmlns="http://www.w3.org/2000/svg">
	<path d="M9.92469 40.6947V40.6947C9.12759 39.2714 9.61315 37.4714 11.0395 36.6797C13.8485 35.1207 17.4897 33.2317 19.3652 32.6958C22.5371 31.7896 27.5215 32.6958 29.7871 32.6958C32.0527 32.6958 35.6777 32.2427 36.584 33.6021C37.4902 34.9614 36.584 35.8677 35.6777 36.7739C34.7715 37.6802 31.5996 37.6802 29.7871 37.6802C39.3027 38.1333 42.4746 32.242 44.2871 31.3357C46.0996 30.4295 47.9121 30.8826 48.8184 31.3357C49.7246 31.7888 49.7246 34.5076 48.8184 35.4138C47.9121 36.3201 37.4902 43.5701 35.6777 44.9295C33.8652 46.2888 22.9902 44.9295 21.1777 44.9295C20.4045 44.9295 19.0816 45.7885 17.786 46.8193C16.2297 48.0577 13.8693 47.7382 12.8975 46.003L12.5108 45.3125" stroke="black" stroke-width="1.5" stroke-linecap="round"/>
	<circle cx="28.8809" cy="13.5938" r="3.78125" stroke="black" stroke-width="1.5"/>
	<circle cx="18.459" cy="17.2188" r="3.78125" stroke="black" stroke-width="1.5"/>
	<circle cx="4.53125" cy="4.53125" r="3.78125" transform="matrix(-1 0 0 1 45.6465 12.6875)" stroke="black" stroke-width="1.5"/>
	<path d="M37.0368 34.4375C37.9431 28.0938 36.9466 19.9375 29.3341 19.9375C22.424 19.9375 21.4628 27.4047 21.9091 32.1719" stroke="black" stroke-width="1.5" stroke-linecap="round"/>
	<path d="M22.5371 25.2345C21.3849 24.2054 19.8481 23.5625 17.8204 23.5625C10.3801 23.5625 9.83667 32.2197 10.521 36.842" stroke="black" stroke-width="1.5" stroke-linecap="round"/>
	<path d="M37.0386 25.2345C38.1908 24.2054 39.7277 23.5625 41.7553 23.5625C43.6574 23.5625 45.1087 24.1283 46.204 25.0478M49.1094 31.2656C48.9015 29.717 48.477 28.1858 47.7336 26.9015" stroke="black" stroke-width="1.5" stroke-linecap="round"/>
</svg>