<svg width="178" height="32" viewBox="0 0 178 32" fill="none" xmlns="http://www.w3.org/2000/svg">
	<path d="M55.2438 23.6129L52.2849 29.8123L49.3247 23.6129H47.5488V31.9092H49.0289V26.2567L51.6921 31.9092H52.8764L55.5396 26.3479V31.9092H56.9211V23.6129H55.2438Z" fill="white"/>
	<path d="M62.7431 23.6131L58.9941 31.9094H60.6714L63.5318 25.4365L64.7161 28.1715H63.236L62.7431 29.4479H65.3076L66.3934 31.9094H68.1693L64.3218 23.6131H62.7431V23.6131Z" fill="white"/>
	<path d="M71.0298 29.4479C71.0298 30.2684 70.6354 30.6331 69.5497 30.6331H69.2539V31.9094H69.5497C72.1155 31.9094 72.7071 30.5419 72.7071 29.4479V23.6131H71.0298V29.4479Z" fill="white"/>
	<path d="M75.8652 31.9092H77.4426V23.6129H75.8652V31.9092V31.9092Z" fill="white"/>
	<path d="M83.9522 23.6129H80.5977V31.9092H83.9522C86.9111 31.9092 88.3912 30.4504 88.3912 27.5331C88.3912 24.8892 86.9111 23.6129 83.9522 23.6129ZM83.9522 30.6328H82.1764V24.8892H83.9522C85.9253 24.8892 86.8125 25.7097 86.8125 27.5331C86.8125 29.63 85.9253 30.6328 83.9522 30.6328V30.6328Z" fill="white"/>
	<path d="M98.2577 23.6131L94.4102 31.9094H96.0874L98.9478 25.4365L100.231 28.1715H98.652L98.1591 29.4479H100.724L101.908 31.9094H103.585L99.7378 23.6131H98.2577V23.6131Z" fill="white"/>
	<path d="M105.656 23.6129V31.9092H111.674V30.6328H107.235V23.6129H105.656V23.6129Z" fill="white"/>
	<path d="M118.383 23.6131V31.9094H119.962V28.3538H124.203V27.0775H119.962V24.8894H124.401V23.6131H118.383V23.6131Z" fill="white"/>
	<path d="M132.594 28.6267C132.594 29.9943 131.897 30.7236 130.42 30.7236C128.842 30.7236 128.151 29.9943 128.151 28.6267V23.6125H126.572V28.6267C126.572 30.8148 127.855 32 130.42 32C132.883 32 134.171 30.8148 134.171 28.6267V23.6125H132.594V28.6267V28.6267Z" fill="white"/>
	<path d="M136.34 23.6129V24.8892H139.1V31.9092H140.678V24.8892H143.346V23.6129H136.34Z" fill="white"/>
	<path d="M144.924 23.6129V24.8892H147.592V31.9092H149.17V24.8892H151.825V23.6129H144.924Z" fill="white"/>
	<path d="M156.163 23.6129L152.324 31.9092H153.994L156.859 25.4362L158.147 28.1713H156.557L156.163 29.4476H158.739L159.817 31.9092H161.499L157.753 23.6129H156.163V23.6129Z" fill="white"/>
	<path d="M163.758 31.9092H165.335V23.6129H163.758V31.9092V31.9092Z" fill="white"/>
	<path d="M176.089 23.6129L173.236 29.8123L170.278 23.6129H168.504V31.9092H169.976V26.2567L172.645 31.9092H173.828L176.391 26.3479V31.9092H177.876V23.6129H176.089Z" fill="white"/>
	<path d="M64.9121 20.7869H66.4908V19.1464H64.9121V20.7869Z" fill="white"/>
	<path d="M69.3511 19.1464H67.6738V20.7869H69.3511V19.1464Z" fill="white"/>
	<path d="M103.292 6.83698H101.713V8.5686H103.292V6.83698Z" fill="white"/>
	<path d="M120.256 15.0434V8.02346H118.677V14.5871C118.677 15.2254 118.677 15.6817 118.48 15.8637C118.381 16.2278 117.987 16.32 117.395 16.32H105.162C104.767 16.32 104.471 16.32 104.176 16.1368C104.669 15.8637 105.063 15.4985 105.459 14.9524C105.853 14.4051 106.05 13.7668 106.05 13.0375C106.05 12.2172 105.754 11.4879 105.162 10.8496C104.471 10.2114 103.584 9.8461 102.4 9.8461C101.315 9.8461 100.427 10.2114 99.7366 10.8496C99.1438 11.3957 98.848 12.2172 98.848 13.0375C98.848 13.7668 99.0452 14.4051 99.4409 14.9524C99.7366 15.4985 100.23 15.8637 100.723 16.1368C100.427 16.32 100.032 16.32 99.7366 16.32H89.7728C89.7728 16.1368 89.7728 16.0457 89.7728 15.8637C89.7728 12.4903 88.3913 10.8496 85.7281 10.8496C83.9523 10.8496 82.0778 12.034 80.8935 13.9489L81.1892 8.02346H79.5119V16.32H69.1538C69.2523 15.9547 69.2523 15.4985 69.2523 15.0434V10.8496H67.7722V14.5871C67.7722 15.2254 67.6736 15.6817 67.5751 15.8637C67.3779 16.2278 66.9835 16.32 66.392 16.32H61.6559C60.1771 16.32 59.1899 15.4985 59.0914 14.2231C58.8942 12.034 57.6112 10.8496 55.6382 10.8496H51.1006C48.7332 10.8496 47.5488 12.2172 47.5488 15.0434V20.0574H49.1275V15.0434C49.1275 13.2196 49.9162 12.1262 51.1006 12.1262H52.7779C52.2849 12.7633 52.0864 13.4016 52.0864 14.3141C52.0864 16.411 53.468 17.6864 55.5396 17.6864C56.8225 17.6864 57.8084 17.2313 58.4012 16.32C58.9928 17.3223 60.1771 17.7786 61.7545 17.7786H98.7495C99.7366 17.7786 100.328 17.7786 100.624 17.6864C101.215 17.5954 101.808 17.4133 102.498 17.0493C103.09 17.4133 103.683 17.5954 104.274 17.6864C104.57 17.7786 105.162 17.7786 106.05 17.7786H117.79C118.874 17.7786 120.256 17.3223 120.256 15.0434V15.0434ZM102.4 11.2137C102.991 11.2137 103.486 11.3957 103.88 11.67C104.176 12.034 104.373 12.3993 104.373 12.9465C104.373 13.4016 104.176 13.8578 103.88 14.3141C103.486 14.7692 103.09 15.1344 102.498 15.3164C101.808 15.1344 101.315 14.7692 101.018 14.3141C100.723 13.8578 100.525 13.4016 100.525 12.9465C100.525 11.852 101.315 11.2137 102.4 11.2137ZM88.0955 15.6817C88.0955 15.8637 88.0955 16.1368 88.0955 16.32H80.992C81.782 14.1309 83.9523 12.1262 85.7281 12.1262C87.2069 12.1262 88.0955 13.4926 88.0955 15.6817V15.6817ZM55.5396 16.32C54.5537 16.32 53.8623 15.5895 53.8623 14.3141C53.8623 12.9465 54.5537 12.2172 55.6382 12.2172C56.6254 12.2172 57.2169 12.9465 57.2169 14.2231C57.2169 16.1368 56.3296 16.32 55.5396 16.32V16.32Z" fill="white"/>
	<path d="M124.501 8.02319H122.922V17.7783H124.501V8.02319Z" fill="white"/>
	<path d="M152.219 16.1365C152.219 13.0373 150.155 11.0314 146.895 11.0314C145.121 11.0314 143.74 11.5787 142.846 12.581L142.754 12.763L142.846 12.9463C143.346 13.4013 143.635 13.6756 143.832 13.7666L144.03 14.0396L144.227 13.7666C144.726 12.8553 145.607 12.399 146.895 12.399C149.169 12.399 150.444 13.6756 150.444 16.0455C150.444 16.1365 150.444 16.2275 150.444 16.3197H136.037C135.748 12.672 133.974 10.8494 130.616 10.8494H130.419V12.217H131.012C132.291 12.308 133.08 12.763 133.671 13.5845C134.171 14.2228 134.368 15.2252 134.46 16.3197H128.348V17.7783H152.219V16.1365V16.1365Z" fill="white"/>
	<path d="M147.985 19.0539H146.395V20.7866H147.985V19.0539Z" fill="white"/>
	<path d="M156.266 17.7783H171.659C172.251 18.5987 173.237 19.0537 174.42 19.0537C175.497 19.0537 176.391 18.6897 176.983 17.9604C177.574 17.3221 177.877 16.5018 177.877 15.5892C177.877 14.4959 177.574 13.6756 176.983 13.1283C176.391 12.399 175.497 12.126 174.42 12.126C173.329 12.126 172.448 12.399 171.856 13.0373C171.265 13.7666 170.87 14.5869 170.87 15.5892C170.87 15.8635 170.962 16.0455 170.962 16.3198C165.639 16.3198 156.753 16.3198 156.464 16.3198C156.161 16.2275 155.872 16.1365 155.767 15.9545C155.57 15.6815 155.478 15.3162 155.478 14.6779V8.02322H153.9V15.3162C153.9 16.1365 154.19 16.6838 154.689 17.1401C155.083 17.5951 155.57 17.7783 156.266 17.7783V17.7783ZM174.42 17.6861C173.828 17.6861 173.434 17.5041 173.131 17.0491C172.842 16.6838 172.645 16.2275 172.645 15.5892C172.645 14.9522 172.842 14.4959 173.131 14.0396C173.434 13.6756 173.828 13.4013 174.512 13.4013C175.103 13.4013 175.497 13.5846 175.8 14.0396C175.997 14.4049 176.089 14.8599 176.089 15.4072C176.089 16.9568 175.603 17.6861 174.42 17.6861V17.6861Z" fill="white"/>
	<path d="M18.7446 0.638367C17.9546 0.911399 17.2645 1.18565 16.0801 1.82393C11.4437 4.4681 9.37204 9.39117 9.17473 14.131C9.17473 14.4052 9.17473 14.6783 9.17473 14.9525V15.1345V31.9094H15.1929V15.1345C15.1929 14.04 15.6858 13.1287 16.5731 12.4904L18.9418 15.1345L21.3092 12.4904C22.0979 13.1287 22.5908 14.04 22.5908 15.1345V31.9094H28.6098V15.1345C28.6098 10.1205 24.2681 6.10872 18.9418 6.10872C17.6588 6.10872 16.3759 6.38175 15.2914 6.747C16.5731 5.47043 18.4475 4.74113 20.4206 4.74113C21.112 4.74113 21.7035 4.74113 22.3936 4.83214C27.7212 5.65245 31.7659 9.84622 31.7659 14.7693C31.8645 14.9525 31.8645 15.1345 31.8645 15.4076V31.9094H37.8822C37.8822 31.9094 37.8822 15.3166 37.8822 15.2256C37.8822 8.02358 33.1475 2.18798 25.1567 0.547357C24.8609 0.456346 24.3667 0.365337 23.9723 0.365337C23.3808 0.274327 22.6907 0.182101 22.0979 0.182101C20.8162 0.182101 19.8291 0.456346 18.7446 0.638367ZM17.5602 7.94215e-05C7.20169 7.94215e-05 0 6.38175 0 14.9525V31.9094H6.01786C6.01786 31.9094 6.01786 22.6102 6.01786 14.9525C6.01786 7.02003 12.5289 1.27666 19.1389 0.0910913C19.3361 0.0910913 19.7305 7.94215e-05 19.3361 7.94215e-05H17.5602V7.94215e-05Z" fill="#B4975A"/>
</svg>