<svg width="35" height="32" viewBox="0 0 35 32" fill="none" xmlns="http://www.w3.org/2000/svg">
	<path d="M17.3589 0.741628C16.6389 0.982923 15.9295 1.28099 14.9044 1.91972C10.6303 4.57751 8.71137 9.46374 8.51984 14.1938C8.5092 14.4635 8.5021 14.7297 8.5021 14.9993C8.5021 15.0242 8.49856 15.159 8.49856 15.2051V32.0036H14.0602V15.2051C14.0602 14.1442 14.5391 13.2003 15.2946 12.5722L17.4866 15.2051L19.6786 12.5722C20.4306 13.2003 20.913 14.1477 20.913 15.2051V32.0036H26.4746V15.2051C26.4746 10.2373 22.4524 6.21335 17.4901 6.21335C16.3161 6.21335 15.1952 6.4369 14.1666 6.84853C15.3052 5.51076 17.0255 4.84719 18.9054 4.80461H18.9125C19.5013 4.79042 20.1007 4.8401 20.7072 4.94655C25.6269 5.75205 29.3761 9.87891 29.3973 14.8574C29.408 15.049 29.4115 15.2406 29.4115 15.4322V32H34.9661C34.9661 32 34.9732 15.4181 34.9732 15.2939C34.9732 8.055 30.6281 2.25327 23.2185 0.525172C22.9489 0.464848 22.5198 0.376137 22.1367 0.326458C21.5904 0.255489 21.0265 0.191617 20.4448 0.191617C19.2423 0.191617 18.3662 0.404524 17.3589 0.741628ZM16.2913 0C6.70024 0 0 6.46529 0 15.0419V32H5.56521C5.56521 32 5.56166 22.6711 5.56166 15.0277C5.56166 7.38434 11.6093 1.36616 17.6746 0.131293C17.9193 0.0780661 18.2102 0 17.9229 0H16.2877H16.2913Z" fill="#B4975A"/>
</svg>