<svg width="163" height="32" viewBox="0 0 163 32" fill="none" xmlns="http://www.w3.org/2000/svg">
    <g clip-path="url(#clip0_3001_13529)">
        <path d="M48.0615 29.8177L45.3551 23.6682H43.7129V31.8794H45.0536V26.3331L47.4904 31.8794H48.5722L50.9665 26.3509V31.8794H52.3037V23.6682H50.7146L48.0615 29.8177Z" fill="#413000" />
        <path d="M57.6277 23.6682L54.1445 31.8794H55.6662L58.298 25.4566L59.4153 28.1748H58.0214L57.5957 29.4345H59.9332L60.9405 31.8794H62.5367L59.0323 23.6682H57.6277Z" fill="#413000" />
        <path d="M65.2179 29.4203C65.2179 30.24 64.771 30.6232 63.8098 30.6232H63.5898V31.8794H63.8098C66.1685 31.8794 66.6651 30.5416 66.6651 29.4203V23.6682H65.2215V29.4203H65.2179Z" fill="#413000" />
        <path d="M71.0565 23.6682H69.6094V31.8794H71.0565V23.6682Z" fill="#413000" />
        <path d="M77.0039 23.6682H73.957V31.8794H77.0039C79.7102 31.8794 81.0829 30.428 81.0829 27.5609C81.0829 24.9776 79.7102 23.6647 77.0039 23.6647M77.0039 30.6232H75.4042V24.9244H77.0039C78.7738 24.9244 79.6357 25.7866 79.6357 27.5644C79.6357 29.6261 78.7738 30.6267 77.0039 30.6267" fill="#413000" />
        <path d="M90.0687 23.6682L86.582 31.8794H88.1037L90.7355 25.4566L91.8564 28.1748H90.4624L90.0332 29.4345H92.3742L93.378 31.8794H94.9742L91.4733 23.6682H90.0687Z" fill="#413000" />
        <path d="M98.2581 23.6682H96.8145V31.8794H102.323V30.6232H98.2581V23.6682Z" fill="#413000" />
        <path d="M108.463 31.8794H109.91V28.3486H113.79V27.0889H109.91V24.9244H113.982V23.6682H108.463V31.8794Z" fill="#413000" />
        <path d="M121.476 28.6574C121.476 30.0342 120.838 30.6764 119.468 30.6764C118.099 30.6764 117.461 30.0342 117.461 28.6574V23.6647H116.014V28.6574C116.014 30.829 117.177 31.9326 119.468 31.9326C121.76 31.9326 122.923 30.829 122.923 28.6574V23.6647H121.476V28.6574Z" fill="#413000" />
        <path d="M124.957 24.9244H127.401V31.8794H128.848V24.9244H131.292V23.6682H124.957V24.9244Z" fill="#413000" />
        <path d="M132.73 24.9244H135.171V31.8794H136.618V24.9244H139.062V23.6682H132.73V24.9244Z" fill="#413000" />
        <path d="M143.057 23.6682L139.574 31.8794H141.099L143.728 25.4566L144.849 28.1748H143.455L143.025 29.4345H145.366L146.37 31.8794H147.966L144.466 23.6682H143.057Z" fill="#413000" />
        <path d="M151.416 23.6682H149.969V31.8794H151.416V23.6682Z" fill="#413000" />
        <path d="M158.663 29.8177L155.957 23.6682H154.318V31.8794H155.656V26.3331L158.092 31.8794H159.178L161.568 26.3509V31.8794H162.909V23.6682H161.32L158.663 29.8177Z" fill="#413000" />
        <path d="M61.0683 19.2185H59.6211V20.8649H61.0683V19.2185Z" fill="#413000" />
        <path d="M63.5936 19.2185H62.1465V20.8649H63.5936V19.2185Z" fill="#413000" />
        <path d="M94.6467 7.10402H93.2031V8.7576H94.6467V7.10402Z" fill="#413000" />
        <path d="M110.24 15.1768V8.26791H108.804V14.7332C108.804 15.3542 108.744 15.7764 108.616 15.9965C108.453 16.3194 108.126 16.4719 107.612 16.4719L96.3929 16.4578C96.0631 16.4578 95.7509 16.4081 95.4601 16.3123C95.9496 16.0106 96.3468 15.6168 96.6412 15.1342C97.003 14.5522 97.1839 13.91 97.1839 13.2287C97.1839 12.3664 96.9073 11.6283 96.3575 11.0286C95.7545 10.3792 94.9316 10.0492 93.903 10.0492C92.8743 10.0492 92.0692 10.3792 91.4626 11.0286C90.9093 11.6177 90.6256 12.3593 90.6256 13.2287C90.6256 13.91 90.81 14.5487 91.1682 15.1306C91.4626 15.6168 91.8564 16.0106 92.3458 16.3123C92.0514 16.4081 91.7393 16.4578 91.413 16.4578H82.2831C82.2866 16.3087 82.2866 16.1668 82.2866 16.0284C82.2866 12.6857 81.0629 10.9896 78.651 10.9896C76.9839 10.9896 75.2991 12.1925 74.2385 14.0661L74.4372 8.27856H72.9403V16.4719L63.4238 16.4578C63.5338 16.1029 63.5905 15.6806 63.5905 15.1732V11.0038H62.1575V14.7297C62.1575 15.3435 62.0937 15.7729 61.9731 16.0071C61.8099 16.3194 61.4801 16.4719 60.9657 16.4719L56.5923 16.4578C55.2764 16.4578 54.379 15.6594 54.2513 14.3677C54.0385 12.228 52.8928 11.0038 51.1158 11.0038H46.9694C44.8128 11.0038 43.7168 12.4019 43.7168 15.159V20.1943H45.1498V15.2158C45.1498 13.399 45.8308 12.3096 46.9658 12.3096H48.4449C48.0477 12.8916 47.849 13.5977 47.849 14.4209C47.849 16.5039 49.1011 17.8487 51.0449 17.8487C52.2154 17.8487 53.0915 17.3874 53.6519 16.479C54.2088 17.4194 55.2338 17.8949 56.7058 17.8949H90.5759C91.3953 17.8949 91.9486 17.8665 92.2607 17.8097C92.7786 17.7104 93.3355 17.4904 93.9207 17.1603C94.513 17.4975 95.0486 17.7104 95.5594 17.8097C95.8715 17.8665 96.4178 17.8949 97.23 17.8949H107.935C108.985 17.8949 110.24 17.4229 110.24 15.1768ZM93.903 11.3586C94.4563 11.3586 94.8961 11.5325 95.2153 11.8731C95.5204 12.1925 95.6658 12.5899 95.6658 13.0867C95.6658 13.5551 95.5097 14.0129 95.2047 14.4529C94.8926 14.9071 94.4705 15.2513 93.9172 15.4997C93.3354 15.2406 92.9027 14.8929 92.5977 14.4351C92.2997 14.0093 92.1579 13.5622 92.1579 13.069C92.1579 12.0435 92.8602 11.3551 93.903 11.3551M80.8253 15.8013C80.8253 16.0177 80.8182 16.2413 80.8004 16.4755H74.2917C75.026 14.2435 76.9768 12.3415 78.5836 12.3415C79.9634 12.3415 80.8253 13.6651 80.8253 15.8013ZM51.0449 16.4861C50.0801 16.4861 49.509 15.741 49.509 14.4884C49.509 13.1328 50.0907 12.3557 51.1016 12.3557C52.0416 12.3557 52.5807 13.0761 52.5807 14.3358C52.5807 16.2626 51.7046 16.4861 51.0484 16.4861" fill="#413000" />
        <path d="M114.078 8.26436H112.645V17.8913H114.078V8.26436Z" fill="#413000" />
        <path d="M139.446 16.2413C139.446 13.1719 137.523 11.1918 134.554 11.1918C132.955 11.1918 131.713 11.7241 130.873 12.778L130.748 12.9306L130.89 13.069C131.348 13.5267 131.61 13.7929 131.742 13.9383L131.94 14.1619L132.096 13.9064C132.625 13.0335 133.437 12.6077 134.572 12.6077C136.675 12.6077 137.832 13.8709 137.832 16.1632C137.832 16.2555 137.828 16.3513 137.821 16.4542H124.616C124.403 12.8241 122.75 10.9825 119.696 10.9825H119.476V12.3628H120.061C121.182 12.4303 121.98 12.8774 122.505 13.7361C122.917 14.4103 123.14 15.3258 123.165 16.4542H117.582V17.8878H139.446V16.2342V16.2413Z" fill="#413000" />
        <path d="M135.538 19.2043H134.08V20.8543H135.538V19.2043Z" fill="#413000" />
        <path d="M143.121 17.8949H157.195C157.77 18.7146 158.635 19.1333 159.76 19.1333C160.731 19.1333 161.519 18.7855 162.094 18.1042C162.636 17.4726 162.909 16.66 162.909 15.6877C162.909 14.7155 162.643 13.8745 162.118 13.257C161.551 12.5935 160.763 12.2599 159.774 12.2599C158.784 12.2599 157.993 12.5899 157.412 13.2428C156.837 13.8958 156.546 14.7261 156.546 15.7055C156.546 15.9681 156.571 16.2236 156.617 16.4649C151.69 16.4649 143.582 16.4648 143.362 16.4507C143.039 16.4045 142.823 16.291 142.706 16.1065C142.543 15.8581 142.461 15.4252 142.461 14.8219V8.26791H140.996V15.4216C140.996 16.2413 141.216 16.8552 141.666 17.2952C142.064 17.6962 142.55 17.902 143.114 17.902M159.76 17.792C159.22 17.792 158.823 17.5968 158.539 17.1923C158.291 16.8268 158.167 16.3442 158.167 15.7552C158.167 15.1093 158.291 14.6126 158.543 14.2293C158.83 13.7893 159.245 13.5764 159.816 13.5764C160.341 13.5764 160.724 13.7716 160.987 14.169C161.21 14.5238 161.324 14.9993 161.324 15.5848C161.324 17.0716 160.813 17.7955 159.76 17.7955" fill="#413000" />
        <path d="M17.3589 0.741628C16.6389 0.982923 15.9295 1.28099 14.9044 1.91972C10.6303 4.57751 8.71137 9.46374 8.51984 14.1938C8.5092 14.4635 8.5021 14.7297 8.5021 14.9993C8.5021 15.0242 8.49856 15.159 8.49856 15.2051V32.0036H14.0602V15.2051C14.0602 14.1442 14.5391 13.2003 15.2946 12.5722L17.4866 15.2051L19.6786 12.5722C20.4306 13.2003 20.913 14.1477 20.913 15.2051V32.0036H26.4746V15.2051C26.4746 10.2373 22.4524 6.21335 17.4901 6.21335C16.3161 6.21335 15.1952 6.4369 14.1666 6.84853C15.3052 5.51076 17.0255 4.84719 18.9054 4.80461H18.9125C19.5013 4.79042 20.1007 4.8401 20.7072 4.94655C25.6269 5.75205 29.3761 9.87891 29.3973 14.8574C29.408 15.049 29.4115 15.2406 29.4115 15.4322V32H34.9661C34.9661 32 34.9732 15.4181 34.9732 15.2939C34.9732 8.055 30.6281 2.25327 23.2185 0.525172C22.9489 0.464848 22.5198 0.376137 22.1367 0.326458C21.5904 0.255489 21.0265 0.191617 20.4448 0.191617C19.2423 0.191617 18.3662 0.404524 17.3589 0.741628ZM16.2913 0C6.70024 0 0 6.46529 0 15.0419V32H5.56521C5.56521 32 5.56166 22.6711 5.56166 15.0277C5.56166 7.38434 11.6093 1.36616 17.6746 0.131293C17.9193 0.0780661 18.2102 0 17.9229 0H16.2877H16.2913Z" fill="#B4975A" />
    </g>
    <defs>
        <clipPath id="clip0_3001_13529">
            <rect width="162.909" height="32" fill="white" />
        </clipPath>
    </defs>
</svg>