<svg version="1.2" xmlns="http://www.w3.org/2000/svg" viewBox="0 0 166 169" width="166" height="169">
    <style>
    .a {
        fill: #f6e8c8
    }

    .b {
        fill: #5B4029
    }

    .c {
        fill: #b4975a
    }

    .d {
        fill: #b4975a
    }

    .e {
        fill: #b4975a
    }

    .f {
        fill: #fff
    }

    .g {
        fill: #f6e8c8
    }
    </style>
    <path fill-rule="evenodd" class="a" d="m91.3 145.3l47-47c2.9-2.7 7.5-2.6 10.4 0.2 2.9 2.9 2.9 7.5 0.2 10.5l-47 46.9c-3 2.8-7.6 2.7-10.4-0.1-2.9-2.9-3-7.5-0.2-10.5z" />
    <path fill-rule="evenodd" class="a" d="m12.3 107.4l7.3-7.3c1.9-2 4.7-2.8 7.4-2.1 2.6 0.7 4.7 2.7 5.4 5.4 0.7 2.7-0.2 5.5-2.2 7.4l-7.2 7.2c-1.9 2-4.7 2.9-7.4 2.2-2.7-0.7-4.7-2.8-5.4-5.4-0.7-2.7 0.1-5.5 2.1-7.4z" />
    <path fill-rule="evenodd" class="a" d="m94.6 121.2l21.5-21.5c-2.7 3-2.6 7.6 0.2 10.4 2.9 2.8 7.5 2.9 10.4 0.2l-21.5 21.5c2.1-1.9 2.9-4.7 2.3-7.4-0.7-2.7-2.8-4.7-5.5-5.4-2.7-0.7-5.5 0.1-7.4 2.2z" />
    <path fill-rule="evenodd" class="a" d="m85.5 88.5l20.1-20.1c-2.8 3-2.7 7.6 0.2 10.4 2.8 2.9 7.4 3 10.4 0.2l-20.1 20.1c2.7-2.9 2.6-7.5-0.2-10.4-2.9-2.9-7.5-2.9-10.4-0.2" />
    <path fill-rule="evenodd" class="a" d="m78.3 116.4l58.7-58.7c3-2.8 7.6-2.7 10.5 0.2 2.8 2.8 2.9 7.4 0.1 10.4l-58.7 58.7c-2.9 2.8-7.6 2.8-10.5-0.1-2.8-2.9-2.9-7.6-0.1-10.5z" />
    <path fill-rule="evenodd" class="a" d="m20.6 132.3l80-79.9c1.8-2 4.7-2.9 7.3-2.2 2.7 0.7 4.8 2.7 5.5 5.4 0.7 2.7-0.2 5.5-2.2 7.4l-79.9 79.9c-3 2.7-7.6 2.6-10.4-0.2-2.9-2.9-3-7.4-0.3-10.4z" />
    <path fill-rule="evenodd" class="a" d="m34.8 79.7l29.6-29.6c1.9-2 4.7-2.7 7.3-2 2.6 0.7 4.6 2.7 5.3 5.3 0.7 2.6 0 5.3-1.9 7.3l-29.7 29.6c-3 2.7-7.6 2.6-10.4-0.2-2.8-2.9-2.9-7.4-0.2-10.4z" />
    <path fill-rule="evenodd" class="a" d="m83.8 30.6l0.2-0.1c3-2.8 7.6-2.7 10.4 0.2 2.9 2.8 3 7.4 0.2 10.4l-0.2 0.2c-2.9 2.9-7.6 2.9-10.6 0-2.9-3-2.9-7.7 0-10.7z" />
    <path fill-rule="evenodd" class="a" d="m61.1 133.1l0.2-0.1c1.8-2.1 4.6-2.9 7.3-2.3 2.7 0.7 4.8 2.8 5.5 5.5 0.7 2.7-0.2 5.5-2.2 7.4l-0.2 0.2c-2.9 2.9-7.7 2.9-10.6 0-2.9-3-2.9-7.7 0-10.7z" />
    <path fill-rule="evenodd" class="b" d="m162.2 159.7q0.7-0.2 1.5-0.2 0.8 0 1.6 0.2c0.2 0 0.3 0.2 0.3 0.4 0 0.2-0.1 0.4-0.3 0.5q-0.8 0.1-1.6 0.1-0.8 0.1-1.5-0.2c-0.2-0.1-0.3-0.2-0.3-0.4 0-0.2 0.1-0.3 0.3-0.4z" />
    <path fill-rule="evenodd" class="b" d="m21.6 159.7c5.8-0.1 11.5-0.2 17.3-0.2h17.3 34.6 34.6 17.2c5.8 0 11.6 0 17.3 0.2 0.3 0 0.4 0.2 0.4 0.5 0 0.2-0.1 0.4-0.4 0.5-5.7 0.1-11.5 0.1-17.3 0.1h-17.2-34.6-34.6-17.3c-5.8 0-11.5 0-17.3-0.2q-0.1 0-0.2-0.1-0.1-0.1-0.1-0.2c0-0.2 0.1-0.4 0.3-0.4" />
    <path fill-rule="evenodd" class="b" d="m18.2 159.6q0.1-0.1 0.2 0h0.1q0.1 0 0.2 0c0.2 0.2 0.3 0.5 0.1 0.8q-0.1 0.1-0.1 0.2-0.1 0-0.2 0h-0.1q-0.1 0-0.2 0-0.2 0-0.3-0.2-0.2-0.2-0.1-0.5c0-0.2 0.2-0.3 0.4-0.4" />
    <path fill-rule="evenodd" class="b" d="m12.7 159.7q0.5-0.1 1.1-0.1 0.6-0.1 1.1 0.1c0.3 0 0.4 0.3 0.3 0.5q-0.1 0.3-0.3 0.4-0.5 0.1-1.1 0.1-0.6-0.1-1.1-0.2-0.2 0-0.3-0.2-0.1-0.1 0-0.3c0-0.1 0.1-0.3 0.3-0.3z" />
    <path fill-rule="evenodd" class="b" d="m74.8 167.1c1.8-0.2 3.6-0.2 5.4-0.2h5.4l10.8-0.1h16.2c1.8 0 3.6 0 5.4 0.2q0.2 0 0.3 0.2 0.2 0.1 0.2 0.3c-0.1 0.3-0.3 0.4-0.5 0.5-1.8 0.1-3.6 0.1-5.4 0.1h-16.2-10.8-5.4c-1.8 0-3.6 0-5.4-0.2-0.1-0.1-0.3-0.2-0.3-0.4 0-0.2 0.2-0.3 0.3-0.4" />
    <path fill-rule="evenodd" class="b" d="m57.1 167.1q2.7-0.2 5.5-0.2 2.8 0 5.5 0.1c0.3 0 0.4 0.2 0.4 0.5 0 0.2-0.1 0.4-0.4 0.4-1.8 0.1-3.6 0.1-5.5 0.1-1.8 0-3.7 0-5.5-0.1q-0.2 0-0.3-0.2-0.1-0.1-0.1-0.3c0-0.2 0.2-0.3 0.4-0.3z" />
    <path fill-rule="evenodd" class="c" d="m157.1 129.3c-1.3 0-2.3-1-2.3-2.3 0-1.2 1-2.2 2.3-2.2 1.2 0 2.2 1 2.2 2.2 0 1.3-1 2.3-2.2 2.3zm0-2.9c-0.3 0-0.5 0.2-0.6 0.4-0.1 0.2 0 0.5 0.1 0.7 0.2 0.1 0.5 0.2 0.7 0.1 0.2-0.1 0.4-0.3 0.4-0.6q0-0.2-0.2-0.4-0.2-0.2-0.4-0.2z" />
    <path class="c" d="m4.5 61.7c-0.5 0-0.9-0.4-0.9-0.9v-7c0-0.5 0.4-0.9 0.9-0.9 0.4 0 0.8 0.4 0.8 0.9v7c0 0.5-0.4 0.9-0.8 0.9z" />
    <path class="c" d="m8 58.1h-7.1c-0.4 0-0.8-0.3-0.8-0.8 0-0.5 0.4-0.8 0.8-0.8h7.1c0.5 0 0.9 0.3 0.9 0.8 0 0.5-0.4 0.8-0.9 0.8z" />
    <path fill-rule="evenodd" class="c" d="m50.6 53.9c-0.9 0-1.7-0.5-2.1-1.4-0.3-0.8-0.1-1.8 0.5-2.5 0.7-0.6 1.6-0.8 2.5-0.5 0.8 0.4 1.4 1.2 1.4 2.1 0 1.3-1 2.3-2.3 2.3zm0-2.9c-0.2 0-0.4 0.2-0.5 0.4-0.1 0.2-0.1 0.5 0.1 0.7 0.2 0.1 0.4 0.2 0.7 0.1 0.2-0.1 0.3-0.3 0.3-0.6 0-0.3-0.3-0.6-0.6-0.6z" />
    <path fill-rule="evenodd" class="c" d="m157.5 84.9c-1.2 0-2.3-1-2.3-2.2 0-1.3 1.1-2.3 2.3-2.3 1.3 0 2.3 1 2.3 2.3 0 1.2-1 2.2-2.3 2.2zm0-2.8c-0.2 0-0.5 0.1-0.5 0.3-0.1 0.3-0.1 0.5 0.1 0.7 0.2 0.2 0.4 0.2 0.6 0.1 0.3-0.1 0.4-0.3 0.4-0.5q0-0.3-0.2-0.5-0.1-0.1-0.4-0.1z" />
    <path fill-rule="evenodd" class="c" d="m78 47.1q-0.2 0-0.4-0.1-0.3-0.2-0.4-0.5l-0.7-2.5q-0.1-0.4 0.1-0.7 0.1-0.3 0.5-0.4l2.5-0.7q0.4-0.1 0.7 0.1 0.3 0.2 0.3 0.5l0.7 2.6q0.1 0.3 0 0.6-0.2 0.3-0.5 0.4l-2.6 0.7q-0.1 0-0.2 0zm0.3-2.8l0.3 1 0.9-0.3-0.3-0.9z" />
    <path fill-rule="evenodd" class="c" d="m32 98.1c-1.4 0-2.5-1.1-2.5-2.5 0-1.3 1.1-2.5 2.5-2.5 1.4 0 2.5 1.2 2.5 2.5 0 1.4-1.1 2.5-2.5 2.5zm0-3.3c-0.4 0-0.8 0.4-0.8 0.8 0 0.5 0.4 0.9 0.8 0.9 0.5 0 0.9-0.4 0.9-0.9 0-0.4-0.4-0.8-0.9-0.8z" />
    <path class="d" d="m95.4 120.2h-0.1q-0.8-0.1-1.7-0.3-0.2-0.1-0.3-0.2-0.1-0.2 0-0.3c0-0.3 0.2-0.4 0.5-0.4q0.9 0.2 1.7 0.4 0.2 0 0.3 0.2 0.1 0.2 0 0.4-0.2 0.2-0.4 0.2zm-3.4-0.7h-0.1q-0.9-0.2-1.8-0.4-0.2-0.1-0.3-0.3 0-0.3 0.1-0.4 0.2-0.2 0.4-0.2 0.9 0.3 1.7 0.5 0.2 0 0.3 0.1 0.1 0.2 0 0.4c0 0.1-0.2 0.3-0.3 0.3zm-3.4-0.9q-0.1 0-0.2 0-0.8-0.2-1.6-0.5-0.2-0.1-0.3-0.2-0.1-0.2 0-0.3c0.1-0.2 0.3-0.4 0.5-0.3l1.7 0.5q0.2 0 0.3 0.3 0.1 0.2 0 0.4-0.2 0.2-0.4 0.1zm-3.4-1q0 0-0.1 0-0.8-0.3-1.7-0.6c-0.2-0.1-0.3-0.4-0.2-0.6q0.1-0.1 0.2-0.2 0.2-0.1 0.3 0 0.8 0.3 1.7 0.6c0.2 0.1 0.3 0.3 0.3 0.5-0.1 0.2-0.3 0.3-0.5 0.3zm-3.3-1.3q0 0-0.1 0-0.8-0.3-1.6-0.7c-0.2-0.1-0.3-0.2-0.3-0.4 0-0.1 0.1-0.3 0.2-0.4 0.1 0 0.3 0 0.4 0q0.8 0.4 1.6 0.7c0.2 0.1 0.3 0.4 0.2 0.6 0 0.1-0.2 0.2-0.4 0.2zm-3.1-1.5q-0.1 0-0.2 0-0.8-0.5-1.6-0.9c-0.2-0.1-0.3-0.4-0.1-0.6 0.1-0.2 0.3-0.2 0.5-0.1q0.8 0.4 1.5 0.8c0.2 0.1 0.3 0.3 0.3 0.5-0.1 0.2-0.3 0.3-0.4 0.3zm-3.1-1.7q-0.1 0-0.2-0.1-0.8-0.5-1.5-1-0.1-0.1-0.1-0.3-0.1-0.2 0-0.3c0.2-0.2 0.4-0.2 0.6-0.1q0.7 0.5 1.4 1c0.2 0.1 0.3 0.4 0.2 0.6q-0.2 0.2-0.4 0.2zm-2.9-2.1q-0.1 0-0.2-0.1-0.7-0.6-1.4-1.2-0.1-0.1-0.1-0.3 0-0.1 0.1-0.3 0.2-0.1 0.3-0.1 0.2 0 0.3 0.1 0.6 0.6 1.3 1.2c0.2 0.1 0.2 0.3 0.2 0.4-0.1 0.2-0.3 0.3-0.4 0.3zm-2.6-2.4q-0.2 0-0.3-0.1c-0.4-0.5-0.8-0.9-1.1-1.4-0.2-0.1-0.2-0.3-0.2-0.4 0.1-0.2 0.2-0.3 0.4-0.3 0.2 0 0.3 0 0.4 0.2q0.5 0.7 1.1 1.3c0.2 0.2 0.2 0.4 0 0.6q-0.1 0.1-0.3 0.1zm-2.1-2.8q-0.3 0-0.4-0.2-0.5-0.7-0.9-1.5c-0.1-0.2 0-0.5 0.2-0.6q0.1-0.1 0.3 0 0.2 0 0.2 0.2 0.4 0.8 0.9 1.5c0.1 0.2 0 0.4-0.1 0.6q-0.1 0-0.2 0zm-1.7-3.1c-0.2 0-0.3-0.1-0.4-0.2q-0.3-0.9-0.6-1.7c-0.1-0.2 0.1-0.5 0.3-0.5 0.2-0.1 0.4 0 0.5 0.2q0.2 0.9 0.6 1.7c0 0.1 0 0.3-0.2 0.4q-0.1 0.1-0.2 0.1zm-1-3.3c-0.2 0-0.4-0.2-0.4-0.4q-0.2-0.9-0.3-1.7 0-0.2 0.1-0.4 0.1-0.1 0.3-0.1c0.2 0 0.4 0.1 0.4 0.4q0.1 0.8 0.3 1.6c0.1 0.3-0.1 0.5-0.3 0.5zm-0.4-3.5c-0.2 0-0.4-0.1-0.4-0.4q0-0.2 0-0.5 0-0.6 0-1.3 0-0.1 0.1-0.2 0.2-0.2 0.3-0.1 0.2 0 0.3 0.1 0.1 0.1 0.1 0.3c0 0.4 0 0.8 0 1.2q0 0.2 0 0.5 0 0.2-0.1 0.3-0.1 0.1-0.3 0.1zm36.7-0.7c-0.2 0-0.4-0.2-0.4-0.4 0-0.3 0.2-0.5 0.4-0.5q0.9 0.1 1.7 0c0.3 0 0.4 0.2 0.5 0.4q0 0.2-0.1 0.3-0.2 0.1-0.3 0.1-0.9 0-1.8 0.1zm-1.8 0q-0.8 0-1.7-0.1-0.2 0-0.3-0.1-0.1-0.1-0.1-0.3 0-0.2 0.1-0.3 0.1-0.1 0.3-0.1h1.8c0.2 0 0.4 0.2 0.4 0.5 0 0.2-0.2 0.4-0.4 0.4zm5.2-0.1c-0.2 0-0.4-0.2-0.4-0.5 0-0.2 0.2-0.4 0.4-0.4 0.6 0 1.2-0.1 1.7-0.1q0.2 0 0.4 0.1 0.1 0.1 0.1 0.3c0 0.2-0.1 0.4-0.4 0.4q-0.8 0.1-1.7 0.2zm-8.8 0c-0.6 0-1.2-0.1-1.8-0.2q-0.1 0-0.2-0.1-0.1-0.2-0.1-0.3c0-0.3 0.2-0.4 0.4-0.4l1.8 0.1q0.1 0 0.2 0.2 0.2 0.1 0.1 0.3c0 0.2-0.2 0.3-0.4 0.3zm-3.5-0.3q-0.9-0.1-1.8-0.2-0.1 0-0.3-0.2-0.1-0.1 0-0.3c0-0.2 0.2-0.4 0.4-0.3l1.8 0.2c0.2 0 0.4 0.2 0.4 0.4-0.1 0.2-0.3 0.4-0.5 0.4zm15.8 0c-0.3 0-0.5-0.2-0.5-0.4 0-0.2 0.2-0.4 0.4-0.4q0.9-0.1 1.7-0.3 0.3 0 0.4 0.1 0.2 0.2 0.1 0.5-0.1 0.2-0.3 0.2-0.9 0.2-1.8 0.3zm-19.2-0.4h-0.1l-1.7-0.3q-0.2-0.1-0.3-0.2-0.1-0.1 0-0.3 0-0.2 0.1-0.3 0.2-0.1 0.3 0l1.8 0.2c0.2 0.1 0.4 0.3 0.3 0.5 0 0.2-0.2 0.4-0.4 0.4zm22.7-0.2c-0.2 0-0.4-0.1-0.4-0.3-0.1-0.2 0.1-0.5 0.3-0.5q0.9-0.2 1.7-0.4c0.2-0.1 0.4 0 0.5 0.3 0 0.2-0.1 0.4-0.3 0.5q-0.9 0.2-1.7 0.4zm-26.2-0.4h-0.1q-0.8-0.2-1.7-0.4-0.2 0-0.3-0.1-0.1-0.2 0-0.3c0-0.3 0.2-0.4 0.5-0.4q0.8 0.2 1.7 0.4c0.2 0 0.4 0.2 0.3 0.4 0 0.2-0.2 0.3-0.4 0.3zm29.5-0.5c-0.2 0-0.3-0.1-0.4-0.3q0-0.1 0-0.3 0.1-0.1 0.3-0.2 0.8-0.3 1.6-0.6 0.2 0 0.3 0 0.2 0.1 0.3 0.3c0 0.2-0.1 0.4-0.3 0.5q-0.8 0.3-1.7 0.6 0 0-0.1 0zm-33-0.3h-0.1q-0.9-0.1-1.7-0.3-0.2-0.1-0.3-0.2-0.1-0.2 0-0.3c0-0.3 0.2-0.4 0.5-0.4l1.6 0.4q0.2 0.1 0.3 0.2 0.1 0.2 0 0.3c0 0.2-0.1 0.3-0.3 0.3zm-17.3-0.5h-0.1q-0.1 0-0.2-0.2-0.1-0.1-0.1-0.3 0.1-0.8 0.3-1.7 0-0.2 0.1-0.3 0.2-0.1 0.3-0.1 0.2 0.1 0.3 0.2 0.1 0.2 0.1 0.3-0.2 0.9-0.3 1.7c0 0.2-0.2 0.4-0.4 0.4zm13.9-0.2h-0.1l-1.7-0.5c-0.2 0-0.4-0.3-0.3-0.5q0-0.1 0.2-0.2 0.1-0.1 0.3-0.1l1.7 0.4c0.2 0.1 0.3 0.3 0.3 0.6-0.1 0.1-0.2 0.3-0.4 0.3zm39.7-0.4c-0.3 0.1-0.5-0.1-0.6-0.3 0-0.2 0.1-0.4 0.4-0.5q0.8-0.4 1.5-0.8 0.2 0 0.3 0 0.2 0.1 0.3 0.2 0.1 0.2 0 0.3 0 0.2-0.2 0.3-0.7 0.4-1.6 0.8-0.1 0-0.1 0zm-43.1-0.6h-0.1l-1.7-0.4q-0.2-0.1-0.3-0.3 0-0.3 0.1-0.4 0.2-0.2 0.4-0.2 0.9 0.3 1.7 0.5c0.2 0 0.4 0.3 0.4 0.5 0 0.2-0.3 0.4-0.5 0.3zm-3.3-0.9q-0.1 0-0.1 0l-1.7-0.5c-0.2-0.1-0.4-0.3-0.3-0.5 0.1-0.3 0.3-0.4 0.5-0.3l1.7 0.5c0.2 0.1 0.3 0.3 0.3 0.5-0.1 0.2-0.3 0.3-0.5 0.3zm49.6-0.1c-0.2 0-0.4-0.2-0.4-0.3-0.1-0.2 0-0.4 0.2-0.5q0.7-0.5 1.4-1c0.2-0.1 0.4-0.1 0.6 0.1 0.1 0.2 0.1 0.5-0.1 0.6q-0.7 0.5-1.5 1-0.1 0.1-0.2 0zm-53-0.8h-0.1l-1.7-0.6q-0.1 0-0.2-0.2-0.1-0.1 0-0.3c0-0.2 0.3-0.3 0.5-0.3l1.7 0.6q0.1 0 0.2 0.2 0.1 0.1 0 0.3c0 0.1-0.2 0.3-0.4 0.3zm-3-0.4h-0.1c-0.2-0.1-0.4-0.3-0.3-0.5q0-0.1 0.1-0.2h-0.1l-1.7-0.6c-0.2-0.1-0.3-0.3-0.2-0.5 0-0.2 0.3-0.4 0.5-0.3l1.7 0.6q0.1-0.4 0.2-0.7c0-0.2 0.3-0.4 0.5-0.3 0.2 0.1 0.4 0.3 0.3 0.5q-0.3 0.9-0.5 1.7c0 0.2-0.2 0.3-0.4 0.3zm58.8-0.9q-0.2 0-0.3-0.1c-0.2-0.2-0.2-0.4 0-0.6 0.4-0.4 0.8-0.7 1.3-1.1q0.1-0.2 0.3-0.2 0.1 0 0.3 0.2 0.1 0.1 0.1 0.2 0 0.2-0.1 0.3c-0.5 0.5-0.9 0.9-1.4 1.2q-0.1 0.1-0.2 0.1zm-62.4-1q-0.1 0-0.2 0-0.8-0.3-1.6-0.6-0.2-0.1-0.3-0.2 0-0.2 0-0.4c0.1-0.2 0.3-0.3 0.6-0.2l1.6 0.6c0.2 0.1 0.4 0.3 0.3 0.5-0.1 0.2-0.2 0.3-0.4 0.3zm-3.3-1.2q-0.1 0-0.2 0l-1.7-0.7c-0.2-0.1-0.3-0.3-0.2-0.5q0.1-0.2 0.2-0.2 0.2-0.1 0.3 0l1.7 0.6q0.2 0 0.2 0.2 0.1 0.1 0.1 0.3c-0.1 0.2-0.3 0.2-0.4 0.2zm68.2-0.1q-0.2 0-0.3-0.1c-0.2-0.2-0.2-0.4 0-0.6q0.5-0.7 1-1.4c0.2-0.1 0.4-0.2 0.6 0 0.2 0.1 0.2 0.3 0.1 0.5q-0.5 0.7-1.1 1.4-0.1 0.1-0.3 0.2zm-60.2-0.1q-0.1 0-0.2 0-0.1-0.1-0.2-0.2-0.1-0.2 0-0.4c0.1-0.3 0.4-0.8 0.7-1.6 0.1-0.2 0.4-0.3 0.6-0.2q0.2 0.1 0.2 0.2 0.1 0.2 0 0.3c-0.4 0.8-0.6 1.3-0.7 1.6-0.1 0.2-0.2 0.3-0.4 0.3zm-11.2-1q-0.1 0-0.2 0l-1.6-0.7q-0.2 0-0.3-0.2 0-0.2 0-0.3c0.1-0.2 0.3-0.3 0.6-0.3q0.8 0.4 1.6 0.7c0.2 0.1 0.4 0.3 0.3 0.5-0.1 0.2-0.2 0.3-0.4 0.3zm-3.2-1.3q-0.1 0-0.2 0l-1.6-0.7q-0.2-0.1-0.2-0.2-0.1-0.2 0-0.4c0.1-0.2 0.3-0.3 0.5-0.2l1.7 0.7q0.1 0 0.2 0.2 0.1 0.2 0 0.3c-0.1 0.2-0.2 0.3-0.4 0.3zm76.8-0.5q-0.1 0-0.2 0c-0.2-0.2-0.3-0.4-0.1-0.6q0.4-0.8 0.8-1.5c0.1-0.2 0.3-0.3 0.5-0.2 0.3 0.1 0.3 0.4 0.2 0.6q-0.4 0.8-0.9 1.5-0.1 0.2-0.3 0.2zm-60.8-0.4q-0.1 0-0.2-0.1-0.1 0-0.2-0.2 0-0.2 0.1-0.3 0.4-0.7 0.8-1.6c0.1-0.1 0.3-0.2 0.5-0.1 0.2 0.1 0.3 0.4 0.2 0.5q-0.5 0.9-0.8 1.6-0.2 0.2-0.4 0.2zm-19.3-0.5q-0.1 0-0.1 0l-1.6-0.7c-0.2-0.1-0.3-0.3-0.3-0.6 0.1-0.2 0.4-0.3 0.6-0.2l1.6 0.7q0.2 0.1 0.3 0.3 0.1 0.2 0 0.4-0.2 0.2-0.5 0.1zm-3.1-1.4q-0.2 0-0.3-0.1-0.4-0.3-1.4-1.1c-0.2-0.2-0.2-0.4 0-0.6 0.1-0.2 0.4-0.2 0.5 0q1 0.7 1.4 1c0.2 0.2 0.2 0.4 0.1 0.6q-0.1 0.2-0.4 0.2zm84.9-0.8q-0.1 0-0.2 0c-0.2-0.1-0.3-0.3-0.2-0.5q0.4-0.8 0.6-1.6c0.1-0.3 0.3-0.4 0.5-0.3 0.3 0.1 0.4 0.3 0.3 0.5q-0.2 0.9-0.6 1.7c-0.1 0.2-0.2 0.3-0.4 0.2zm-60.6-0.3q-0.1 0-0.2-0.1c-0.2-0.1-0.3-0.4-0.2-0.6q0.5-0.7 1-1.4 0.1-0.2 0.3-0.2 0.2 0 0.3 0.1c0.2 0.1 0.2 0.3 0.1 0.5q-0.5 0.8-1 1.5-0.1 0.2-0.3 0.2zm-27-1.2q-0.1 0-0.3-0.1-0.6-0.5-1.3-1.2c-0.1-0.1-0.1-0.4 0-0.5q0.2-0.2 0.3-0.2 0.2 0 0.3 0.2 0.7 0.6 1.3 1.1c0.2 0.1 0.2 0.3 0.1 0.5 0 0.2-0.2 0.3-0.4 0.3zm29-1.8q-0.1 0-0.2-0.1c-0.2-0.1-0.3-0.4-0.1-0.6q0.5-0.7 1-1.4c0.2-0.1 0.4-0.2 0.6 0 0.2 0.1 0.2 0.4 0.1 0.5q-0.6 0.7-1.1 1.4-0.1 0.2-0.3 0.2zm59.7-0.1h-0.1q-0.2 0-0.3-0.2-0.1-0.1 0-0.3 0.1-0.5 0.1-0.5v-0.3q0-0.4 0-0.9-0.1-0.1 0.1-0.3 0.1-0.1 0.2-0.1 0.2 0 0.4 0.1 0.1 0.1 0.1 0.3 0 0.4 0 0.8v0.4c0 0.1 0 0.3-0.1 0.6 0 0.2-0.2 0.4-0.4 0.4zm-91.1-0.5q-0.2-0.1-0.3-0.2c-0.4-0.4-0.9-0.8-1.3-1.2-0.1-0.1-0.1-0.3-0.1-0.5 0.1-0.1 0.2-0.2 0.3-0.3 0.2 0 0.3 0.1 0.4 0.2q0.7 0.6 1.3 1.2c0.1 0.2 0.1 0.5 0 0.6q-0.2 0.1-0.3 0.2zm33.7-2.2c-0.2 0.1-0.3 0-0.4-0.2-0.1-0.1-0.1-0.3 0-0.4q0.6-0.7 1.2-1.4 0.1-0.1 0.3-0.1 0.2 0 0.3 0.1 0.1 0.2 0.1 0.3 0 0.2-0.1 0.3c-0.4 0.5-0.8 0.9-1.2 1.3q-0.1 0.1-0.3 0.1zm-36.1-0.4q-0.2 0-0.3-0.1c-0.4-0.5-0.8-0.9-1.2-1.4q-0.1-0.1-0.1-0.3 0.1-0.2 0.2-0.3c0.2-0.1 0.4-0.1 0.6 0.1q0.5 0.7 1.1 1.3c0.2 0.2 0.2 0.4 0 0.6q-0.1 0.1-0.3 0.1zm93.4-0.4c-0.2 0-0.3-0.1-0.4-0.3q-0.1-0.9-0.4-1.7c0-0.2 0.1-0.5 0.3-0.5 0.2-0.1 0.5 0 0.5 0.2q0.3 0.9 0.5 1.8c0 0.2-0.2 0.4-0.4 0.5zm-55-1.8c-0.2 0-0.3-0.1-0.4-0.2 0-0.2 0-0.4 0.1-0.5q0.6-0.6 1.3-1.2 0.1-0.1 0.3-0.1 0.1 0 0.3 0.1 0.1 0.1 0.1 0.3 0 0.1-0.1 0.3-0.7 0.6-1.3 1.2-0.1 0.1-0.3 0.1zm-40.8-0.5q-0.2 0-0.3-0.2-0.5-0.7-1.1-1.4c-0.1-0.2-0.1-0.4 0.1-0.6 0.2-0.1 0.5-0.1 0.6 0.1q0.5 0.7 1.1 1.4c0.1 0.2 0.1 0.4-0.1 0.6q-0.1 0.1-0.3 0.1zm94.8-1.1c-0.2 0-0.4-0.1-0.4-0.2q-0.4-0.8-0.9-1.5c-0.1-0.2 0-0.5 0.2-0.6 0.2-0.1 0.4-0.1 0.6 0.1q0.4 0.8 0.8 1.6c0.1 0.3 0 0.5-0.2 0.6q-0.1 0-0.1 0zm-51.4-0.8q-0.2 0-0.4-0.2-0.1-0.1-0.1-0.2 0-0.2 0.1-0.3 0.7-0.6 1.4-1.2c0.2-0.1 0.5-0.1 0.6 0.1q0.1 0.1 0.1 0.3 0 0.2-0.2 0.3-0.7 0.5-1.3 1.1-0.1 0.1-0.2 0.1zm-45.4-0.9q-0.2 0-0.4-0.2-0.5-0.7-0.9-1.5-0.1-0.2-0.1-0.3 0.1-0.2 0.2-0.3 0.1-0.1 0.3 0 0.2 0 0.3 0.2 0.4 0.7 0.9 1.4c0.1 0.2 0.1 0.5-0.1 0.6q-0.1 0.1-0.2 0.1zm94.9-1.2q-0.2 0-0.3-0.2-0.5-0.7-1.1-1.3-0.1-0.1-0.1-0.2 0-0.2 0.1-0.3c0.2-0.2 0.4-0.2 0.6 0q0.6 0.6 1.2 1.3c0.1 0.2 0.1 0.5-0.1 0.6q-0.1 0.1-0.3 0.1zm-46.8 0q-0.2 0-0.3-0.2c-0.2-0.2-0.1-0.4 0-0.6q0.8-0.5 1.5-1 0.1-0.1 0.3-0.1 0.2 0.1 0.3 0.2c0.1 0.2 0.1 0.5-0.1 0.6q-0.8 0.5-1.5 1-0.1 0.1-0.2 0.1zm-50-1.8q-0.2 0-0.3-0.2-0.5-0.8-0.9-1.6-0.1-0.2 0-0.3 0.1-0.2 0.2-0.3 0.2 0 0.3 0 0.2 0.1 0.3 0.2 0.4 0.8 0.8 1.5 0.1 0.2 0 0.4 0 0.1-0.2 0.2-0.1 0.1-0.2 0.1zm52.9-0.2q-0.3 0-0.4-0.2c-0.1-0.2 0-0.5 0.2-0.6q0.7-0.5 1.5-0.9c0.2-0.1 0.4 0 0.6 0.2 0.1 0.2 0 0.4-0.2 0.5q-0.8 0.5-1.5 0.9-0.1 0.1-0.2 0.1zm41.5-0.6q-0.2 0-0.3-0.1c-0.4-0.3-0.8-0.7-1.3-1-0.2-0.2-0.3-0.4-0.1-0.6q0.1-0.2 0.2-0.2 0.2 0 0.3 0.1 0.8 0.5 1.5 1.1c0.1 0.2 0.1 0.4 0 0.6q-0.1 0.1-0.3 0.1zm-38.4-1.1c-0.2 0-0.3-0.1-0.4-0.3q-0.1-0.1 0-0.3 0-0.1 0.2-0.2 0.8-0.4 1.6-0.8c0.2-0.1 0.4 0 0.5 0.2q0.1 0.2 0 0.3 0 0.2-0.2 0.3-0.8 0.3-1.5 0.7-0.1 0.1-0.2 0.1zm35.6-0.9q-0.1 0-0.2-0.1-0.7-0.4-1.5-0.8c-0.2-0.1-0.3-0.4-0.2-0.6 0.1-0.2 0.3-0.3 0.6-0.2 0.5 0.3 1 0.6 1.5 0.9 0.2 0.1 0.3 0.4 0.2 0.6q-0.1 0.1-0.4 0.2zm-93.1-0.4c-0.1 0-0.3-0.1-0.3-0.2q-0.4-0.8-0.7-1.7c-0.1-0.1-0.1-0.3 0-0.4 0.1-0.1 0.3-0.2 0.4-0.2 0.2 0 0.3 0.2 0.4 0.3q0.3 0.8 0.6 1.6 0.1 0.2 0 0.3 0 0.2-0.2 0.3-0.1 0-0.2 0zm60.8-0.2c-0.2 0-0.4-0.1-0.4-0.2q-0.1-0.2 0-0.4 0-0.1 0.2-0.2 0.8-0.3 1.7-0.6c0.2-0.1 0.5 0 0.5 0.3 0.1 0.2 0 0.5-0.2 0.5q-0.9 0.3-1.7 0.6-0.1 0-0.1 0zm29.2-1q0 0-0.1 0c-1-0.4-1.6-0.6-1.6-0.6-0.2-0.1-0.3-0.3-0.3-0.5q0-0.2 0.2-0.3 0.1-0.1 0.3 0 0.9 0.2 1.7 0.6 0.2 0.1 0.2 0.2 0.1 0.2 0 0.3c0 0.2-0.2 0.3-0.4 0.3zm-25.9-0.1c-0.3 0-0.5-0.2-0.5-0.4 0-0.2 0.1-0.4 0.4-0.5q0.8-0.2 1.6-0.4c0.3-0.1 0.5 0 0.5 0.3 0.1 0.2 0 0.4-0.3 0.5q-0.8 0.2-1.6 0.5-0.1 0-0.1 0zm22.6-0.9h-0.1q-0.9-0.1-1.7-0.3-0.2 0-0.3-0.1-0.1-0.2-0.1-0.3 0-0.2 0.2-0.3 0.1-0.1 0.3-0.1l1.7 0.3c0.3 0 0.4 0.2 0.4 0.5 0 0.2-0.2 0.4-0.4 0.3zm-19.2 0c-0.2 0-0.4-0.1-0.4-0.3-0.1-0.2 0.1-0.4 0.3-0.5q0.8-0.2 1.7-0.3c0.3 0 0.5 0.1 0.5 0.3 0 0.3-0.1 0.5-0.3 0.5q-0.9 0.2-1.7 0.3zm15.7-0.5q-0.9-0.1-1.8-0.2c-0.2 0-0.4-0.2-0.3-0.4 0-0.3 0.2-0.4 0.4-0.4q0.9 0.1 1.8 0.2c0.2 0 0.4 0.2 0.4 0.4-0.1 0.3-0.3 0.4-0.5 0.4zm-12.2 0c-0.3 0-0.5-0.2-0.5-0.4 0-0.3 0.2-0.5 0.4-0.5q0.9-0.1 1.8-0.2c0.2 0 0.4 0.2 0.4 0.4q0 0.2-0.1 0.3-0.1 0.2-0.3 0.2-0.8 0.1-1.7 0.2zm8.8-0.3l-1.8-0.1c-0.2 0-0.4-0.2-0.4-0.5q0-0.1 0.1-0.2 0.2-0.2 0.3-0.2l1.8 0.1c0.2 0 0.4 0.2 0.4 0.4 0 0.3-0.2 0.5-0.4 0.5zm-5.3 0c-0.2 0-0.4-0.2-0.4-0.5 0-0.2 0.2-0.4 0.4-0.4 0.6 0 1.2 0 1.8 0 0.2 0 0.4 0.1 0.4 0.4 0 0.2-0.2 0.4-0.4 0.4q-0.9 0-1.7 0zm-75.7-0.1c-0.1 0-0.3-0.1-0.4-0.3q-0.2-0.9-0.4-1.7c-0.1-0.2 0-0.5 0.3-0.5 0.2-0.1 0.4 0.1 0.5 0.3q0.2 0.8 0.4 1.6c0.1 0.3 0 0.5-0.2 0.6zm-0.9-3.4c-0.2 0-0.3-0.2-0.4-0.4q-0.1-0.9-0.2-1.7 0-0.2 0.1-0.3 0.1-0.2 0.2-0.2c0.3 0 0.5 0.1 0.5 0.4q0.1 0.8 0.2 1.6c0.1 0.3-0.1 0.5-0.3 0.5zm-0.4-3.5c-0.2 0-0.4-0.1-0.4-0.4q0-0.4 0-0.8c0-0.3 0-0.7 0-1 0-0.2 0.2-0.4 0.5-0.4 0.2 0 0.4 0.2 0.4 0.4q0 0.5 0 1c0 0.3 0 0.5 0 0.8q0 0.1-0.2 0.3-0.1 0.1-0.2 0.1zm0.1-3.6h-0.1q-0.1 0-0.2-0.1-0.1-0.2-0.1-0.3 0.1-0.9 0.3-1.8c0-0.2 0.2-0.4 0.5-0.3 0.2 0 0.3 0.2 0.3 0.5q-0.2 0.8-0.3 1.6c0 0.3-0.2 0.4-0.4 0.4zm0.7-3.4h-0.1q-0.2-0.1-0.3-0.2-0.1-0.2 0-0.3 0.2-0.9 0.5-1.7 0.1-0.2 0.2-0.2 0.2-0.1 0.3 0c0.3 0 0.4 0.3 0.3 0.5q-0.3 0.8-0.5 1.7c-0.1 0.1-0.3 0.2-0.4 0.2zm1.1-3.3q0 0-0.1 0c-0.2-0.1-0.3-0.4-0.2-0.6q0.3-0.8 0.7-1.6 0.1-0.1 0.3-0.2 0.1-0.1 0.3 0 0.2 0.1 0.2 0.3 0.1 0.1 0 0.3-0.4 0.8-0.8 1.5c0 0.2-0.2 0.3-0.4 0.3zm1.7-3.1q-0.2 0-0.3-0.1-0.1-0.1-0.1-0.2-0.1-0.2 0-0.3 0.5-0.8 1-1.5 0.1-0.2 0.3-0.2 0.3 0 0.4 0.2 0.1 0.2 0 0.4-0.5 0.8-1 1.5c0 0.1-0.2 0.2-0.3 0.2zm1.9-2.9c-0.1 0-0.3-0.1-0.3-0.2-0.1-0.2-0.1-0.3 0-0.4q0.5-0.7 1.1-1.4 0.1-0.2 0.3-0.2 0.2 0 0.3 0.1 0.1 0.1 0.2 0.3 0 0.2-0.1 0.3-0.6 0.7-1.1 1.4-0.1 0.1-0.4 0.2zm2.3-2.7q-0.2 0-0.3-0.1-0.1-0.2-0.1-0.3 0-0.2 0.1-0.3 0.6-0.7 1.2-1.3 0.2-0.1 0.3-0.1 0.2 0 0.3 0.1c0.2 0.2 0.2 0.4 0 0.6q-0.6 0.6-1.2 1.2-0.1 0.2-0.3 0.2zm2.5-2.5q-0.2 0-0.3-0.1c-0.2-0.2-0.2-0.5 0-0.6 0.4-0.4 0.8-0.8 1.3-1.2 0.2-0.1 0.4-0.1 0.6 0q0.1 0.2 0.1 0.3 0 0.2-0.1 0.3-0.7 0.6-1.3 1.2-0.1 0.1-0.3 0.2zm2.6-2.3q-0.2 0-0.3-0.1-0.1-0.2-0.1-0.3 0-0.2 0.2-0.3l1.4-1.1c0.1-0.1 0.4-0.1 0.5 0.1q0.1 0.1 0.1 0.3 0 0.2-0.1 0.3-0.8 0.5-1.4 1-0.1 0.1-0.3 0.1zm2.8-2.1q-0.2 0-0.3-0.2c-0.2-0.2-0.1-0.4 0.1-0.6q0.7-0.5 1.4-1c0.2-0.1 0.4 0 0.6 0.2 0.1 0.1 0 0.4-0.1 0.5q-0.7 0.5-1.4 1-0.1 0.1-0.3 0.2zm2.9-2q-0.2 0-0.4-0.2c-0.1-0.2 0-0.5 0.2-0.6q0.7-0.5 1.5-0.9 0.1-0.1 0.3-0.1 0.1 0.1 0.2 0.2c0.2 0.2 0.1 0.5-0.1 0.6q-0.8 0.5-1.5 0.9-0.1 0.1-0.2 0.1zm3-1.8c-0.2 0-0.4-0.1-0.4-0.3-0.1-0.2 0-0.4 0.2-0.5q0.7-0.4 1.5-0.9 0.1 0 0.3 0 0.2 0.1 0.3 0.2c0.1 0.2 0 0.5-0.2 0.6q-0.8 0.4-1.5 0.8-0.1 0.1-0.2 0.2zm3-1.7c-0.2 0-0.3-0.1-0.4-0.2q-0.1-0.2 0-0.3 0.1-0.2 0.2-0.3 0.8-0.4 1.6-0.8c0.2-0.1 0.4 0 0.5 0.2 0.1 0.2 0 0.4-0.2 0.5l-1.5 0.9q-0.1 0-0.2 0zm3.1-1.6c-0.1 0-0.3-0.1-0.4-0.2-0.1-0.3 0-0.5 0.2-0.6l1.6-0.8c0.1-0.1 0.3-0.1 0.4 0 0.2 0.1 0.2 0.3 0.2 0.4 0 0.2-0.1 0.3-0.2 0.4l-1.6 0.7q-0.1 0.1-0.2 0.1zm3.2-1.5c-0.2 0-0.4-0.2-0.4-0.4-0.1-0.2 0-0.3 0.2-0.4l1.6-0.8c0.2 0 0.4 0.1 0.5 0.3 0.1 0.2 0 0.4-0.2 0.5l-1.5 0.7q-0.1 0.1-0.2 0.1zm3.2-1.5c-0.3 0.1-0.5-0.1-0.5-0.3-0.1-0.2 0.1-0.5 0.3-0.5l1.6-0.7c0.2-0.1 0.5 0 0.6 0.2 0.1 0.2 0 0.5-0.2 0.6l-1.7 0.7q0 0-0.1 0zm3.2-1.3c-0.2 0-0.3-0.1-0.4-0.3q0-0.2 0-0.3 0.1-0.2 0.3-0.2l1.6-0.7c0.2-0.1 0.5 0 0.6 0.2q0 0.2 0 0.4-0.1 0.1-0.3 0.2l-1.6 0.6q-0.1 0.1-0.2 0.1zm3.3-1.3c-0.2 0-0.3-0.1-0.4-0.3-0.1-0.2 0-0.4 0.2-0.5l1.7-0.7c0.2 0 0.5 0.1 0.5 0.3 0.1 0.2 0 0.5-0.2 0.5l-1.7 0.6q0 0.1-0.1 0.1zm3.3-1.2c-0.2-0.1-0.4-0.2-0.4-0.3-0.1-0.2 0-0.5 0.2-0.6l1.7-0.5c0.1-0.1 0.3-0.1 0.4 0 0.2 0.1 0.2 0.3 0.2 0.4-0.1 0.2-0.2 0.3-0.3 0.3l-1.7 0.6q-0.1 0.1-0.1 0.1zm3.3-1.2c-0.2 0-0.3-0.1-0.4-0.3-0.1-0.2 0.1-0.4 0.3-0.5l1.6-0.6c0.3-0.1 0.5 0.1 0.6 0.3q0 0.1 0 0.3-0.1 0.1-0.3 0.2l-1.7 0.6zm3.4-1.1c-0.2 0-0.4-0.2-0.4-0.3-0.1-0.3 0-0.5 0.2-0.6l1.7-0.5q0.2 0 0.3 0 0.2 0.1 0.2 0.3 0.1 0.1 0 0.3-0.1 0.2-0.2 0.2l-1.7 0.5zm3.3-1c-0.1 0-0.3-0.1-0.4-0.3 0-0.2 0.1-0.5 0.3-0.5l1.7-0.5q0.1-0.1 0.3 0 0.1 0.1 0.2 0.2c0.1 0.3-0.1 0.5-0.3 0.5l-1.6 0.6zm3.3-1.1c-0.2 0.1-0.5-0.1-0.5-0.3 0-0.2 0.1-0.5 0.4-0.5l1.6-0.5q0.2 0 0.4 0.1 0.1 0 0.2 0.2c0 0.2-0.1 0.5-0.3 0.5l-1.7 0.5q0 0-0.1 0zm3.3-0.9c-0.2 0-0.4-0.1-0.4-0.4-0.1-0.2 0.1-0.4 0.3-0.5l1.7-0.4q0.2-0.1 0.4 0.1 0.2 0.2 0.1 0.4-0.1 0.2-0.3 0.3l-1.7 0.5q0 0 0 0zm3.4-0.9q-0.3 0-0.4-0.2-0.2-0.2-0.1-0.4 0.1-0.2 0.4-0.3l1.5-0.4c0.2 0 0.4 0.1 0.5 0.3 0 0.3-0.1 0.5-0.3 0.6l-1.5 0.4z" />
    <path class="e" d="m61.3 102.2h-1.7v-1.6h-1.1v1.6h-1.6v1.1h1.6v1.7h1.1v-1.7h1.7z" />
    <path class="f" d="m95.8 6.3c-1.5 0-2.8-1.2-2.8-2.7 0-1.5 1.3-2.8 2.8-2.8 1.5 0 2.7 1.3 2.7 2.8 0 1.5-1.2 2.7-2.7 2.7z" />
    <path fill-rule="evenodd" class="d" d="m95.8 6.7c-1.8 0-3.2-1.4-3.2-3.1 0-1.8 1.4-3.2 3.2-3.2 1.7 0 3.1 1.4 3.1 3.2 0 1.7-1.4 3.1-3.1 3.1zm0-5.4c-1.3 0-2.4 1-2.4 2.3 0 1.3 1.1 2.3 2.4 2.3 1.3 0 2.3-1 2.3-2.3 0-0.6-0.2-1.2-0.7-1.7-0.4-0.4-1-0.6-1.6-0.6z" />
    <path class="f" d="m67.1 103.7l6.3 26.4c0.7 2.9-1.1 5.8-4 6.5-2.9 0.7-5.9-1.1-6.6-4l-6.4-26.9" />
    <path class="b" d="m68.1 137.6c-2.9 0-5.4-2-6.1-4.8l-6.4-26.9c-0.1-0.5 0.1-0.9 0.6-1q0.3-0.1 0.6 0.1 0.3 0.2 0.4 0.5l6.4 26.9c0.8 2.4 3.2 3.7 5.5 3.2 2.4-0.6 3.9-2.9 3.5-5.3l-6.3-26.4c-0.1-0.4 0.1-0.9 0.6-1 0.5-0.1 0.9 0.2 1 0.6l6.3 26.4c0.5 1.9 0.1 3.8-1.1 5.3-1.2 1.6-3.1 2.4-5 2.4z" />
    <g style="opacity:.2">
        <path class="b" d="m57.9 112.2l10.8-1.9-1.6-6.6-10.7 2z" />
    </g>
    <path class="g" d="m117.1 24.6c-2.4-1.5-5.5-1.2-7.6 0.7l-24 21.8c-11.1 10.2-24.7 17.3-39.4 20.9-3.4 0.8-5.5 4.2-4.7 7.6l6.3 26.2c0.8 3.4 4.2 5.5 7.6 4.7 14.8-3.3 30.2-3.3 44.9 0.3l30.8 7.3" />
    <path class="b" d="m131 114.9q-0.1 0-0.2 0l-30.7-7.3c-14.7-3.5-29.9-3.6-44.6-0.3-3.9 0.9-7.7-1.5-8.6-5.3l-6.3-26.1c-0.9-3.9 1.5-7.8 5.4-8.7 14.5-3.5 27.9-10.6 39-20.7l23.9-21.8c2.4-2.2 5.9-2.5 8.7-0.8 0.4 0.2 0.5 0.7 0.2 1.1-0.2 0.4-0.7 0.5-1.1 0.3-2.1-1.3-4.8-1.1-6.7 0.6l-23.9 21.9c-11.3 10.2-25 17.4-39.8 21-1.4 0.3-2.6 1.2-3.4 2.5-0.8 1.2-1 2.7-0.7 4.1l6.3 26.1c0.7 3 3.6 4.8 6.6 4.2 14.9-3.4 30.4-3.3 45.3 0.2l30.7 7.3c0.5 0.1 0.8 0.5 0.7 1 0 0.4-0.4 0.8-0.9 0.7z" />
    <path class="f" d="m134.8 114.4c-7.1 1.7-17.8-17.2-23.8-42.4-6-25.1-5.1-46.9 2-48.6 7.1-1.7 17.7 17.3 23.8 42.4 6 25.2 5.1 46.9-2 48.6z" />
    <path fill-rule="evenodd" class="b" d="m133.9 115.4c-8.4 0-18.5-21.4-23.7-43.2-5.4-22.7-6-47.5 2.6-49.6 8.6-2 19.3 20.3 24.8 43.1 5.4 22.7 5.9 47.5-2.6 49.5q-0.6 0.2-1.1 0.2zm-20-91.2q-0.4 0-0.7 0.1c-5.8 1.4-7.8 20.8-1.4 47.5 6.2 25.7 16.1 41.9 22.1 41.9q0.3 0 0.7-0.1c5.8-1.4 7.7-20.8 1.3-47.5-6.1-25.7-16.1-41.9-22-41.9z" />
    <path class="f" d="m36.9 79.1l5.1-1.2 5 21.2-5.1 1.2c-2.8 0.7-5.6-1.1-6.3-3.9l-2.6-10.9c-0.7-2.8 1-5.7 3.9-6.3z" />
    <path fill-rule="evenodd" class="b" d="m40.7 101.3c-2.8 0-5.3-2-5.9-4.7l-2.7-10.9c-0.7-3.3 1.3-6.6 4.6-7.4l5.9-1.4 5.4 22.8-5.9 1.4q-0.7 0.2-1.4 0.2zm0.6-22.4l-4.3 1.1c-2.3 0.5-3.8 2.9-3.2 5.3l2.6 10.9c0.6 2.4 2.9 3.9 5.3 3.3l4.3-1.1z" />
    <path class="b" d="m56.3 94.9c-0.4 0-0.8-0.2-0.9-0.6l-3.7-15.9c-0.1-0.3-0.1-0.6 0.2-0.8 0.2-0.2 0.5-0.3 0.8-0.2 0.3 0.1 0.5 0.3 0.6 0.6l3.8 15.9q0.1 0.3-0.1 0.6-0.2 0.3-0.5 0.4-0.1 0-0.2 0z" />
    <path class="b" d="m63.7 93.1c-0.4 0-0.8-0.2-0.9-0.6l-3.8-15.9c-0.1-0.4 0.2-0.9 0.7-1q0.3 0 0.6 0.1 0.3 0.2 0.4 0.6l3.8 15.8c0.1 0.5-0.2 0.9-0.7 1z" />
    <g style="opacity:.2">
        <path class="b" d="m113 58.7l5.5 22.7-4.6 1-5.3-22.9z" />
    </g>
    <path fill-rule="evenodd" class="b" d="m113.7 84.1l-0.6-1.4c-2.4-7.5-4.2-15.3-5.4-23.1l-0.1-0.7 3-0.7c5.1-1.3 10.5 0.7 13.6 5 3 4.2 3.3 9.9 0.5 14.4-1.7 2.9-4.6 5.1-8 5.9zm0.9-2v0.1l1.7-0.3c2.9-0.7 5.4-2.6 6.9-5.2 2.4-3.9 2.3-8.8-0.4-12.5-2.7-3.8-7.4-5.5-11.8-4.4l-1.6 0.3c1.2 7.5 2.9 14.8 5.2 22z" />
    <g style="opacity:.2">
        <path class="b" d="m38.6 79.6l4.9 19.4 3.8-1.6-5.3-19.5z" />
    </g>
</svg>