<svg width="199px" height="202px" viewBox="0 0 199 202" version="1.1" xmlns="http://www.w3.org/2000/svg" xmlns:xlink="http://www.w3.org/1999/xlink">
    <g id="Page-1" stroke="none" stroke-width="1" fill="none" fill-rule="evenodd">
        <g id="EOB_2" transform="translate(-541.000000, -240.000000)">
            <g id="Group-4" transform="translate(16.000000, 72.000000)">
                <g id="Base">
                    <g id="No-tickets" transform="translate(525.000000, 168.000000)">
                        <g id="Artboard-Copy-5">
                            <g id="Group">
                                <g id="Group-45" transform="translate(11.000000, 34.000000)">
                                    <g id="Fill-1" transform="translate(96.000000, 81.000000)" fill="#f6e8c8">
                                        <path d="M2.44,59.22 L58.77,2.89 C62.3161171,-0.414306325 67.8421167,-0.316806511 71.2694616,3.11053841 C74.6968065,6.53788334 74.7943063,12.0638829 71.49,15.61 L15.16,71.94 C11.6138829,75.2443063 6.08788334,75.1468065 2.66053841,71.7194616 C-0.766806511,68.2921167 -0.864306325,62.7661171 2.44,59.22" id="Path"></path>
                                    </g>
                                    <g id="Group-5" transform="translate(0.000000, 83.000000)" fill="#f6e8c8">
                                        <g id="Fill-3">
                                            <path d="M3.8,11.76 L12.51,3.05 C14.753647,0.642161869 18.1326665,-0.348990178 21.3214669,0.465373498 C24.5102673,1.27973717 27.0002628,3.7697327 27.8146265,6.9585331 C28.6289902,10.1473335 27.6378381,13.526353 25.23,15.77 L16.52,24.48 C14.276353,26.8878381 10.8973335,27.8789902 7.7085331,27.0646265 C4.5197327,26.2502628 2.02973717,23.7602673 1.2153735,20.5714669 C0.401009822,17.3826665 1.39216187,14.003647 3.8,11.76" id="Path"></path>
                                        </g>
                                    </g>
                                    <g id="Fill-6" transform="translate(102.000000, 85.000000)" fill="#f6e8c8">
                                        <path d="M0.45,26.29 L26.19,0.55 C22.9449221,4.10436985 23.0705356,9.58276598 26.4751129,12.9846667 C29.8796902,16.3865675 35.3581834,16.5078723 38.91,13.26 L13.16,39 C15.6060741,36.7667769 16.6278413,33.3704886 15.8200003,30.1583309 C15.0121592,26.9461732 12.5052797,24.4373214 9.29375837,23.6269543 C6.08223705,22.8165872 2.68514621,23.835683 0.45,26.28" id="Path"></path>
                                    </g>
                                    <g id="Fill-8" transform="translate(91.000000, 48.000000)" fill="#f6e8c8">
                                        <path d="M0.44,24.07 L24.56,0 C21.2556937,3.54611705 21.3531935,9.07211666 24.7805384,12.4994616 C28.2078833,15.9268065 33.7338829,16.0243063 37.28,12.72 L13.16,36.84 C16.4643063,33.2938829 16.3668065,27.7678833 12.9394616,24.3405384 C9.51211666,20.9131935 3.98611705,20.8156937 0.44,24.12" id="Path"></path>
                                    </g>
                                    <g id="Fill-10" transform="translate(80.000000, 32.000000)" fill="#f6e8c8">
                                        <path d="M2.9,73.53 L73.27,3.16 C76.8135116,-0.147145003 82.3396288,-0.0540130382 85.7696887,3.37065796 C89.1997487,6.79532896 89.3015694,12.3212929 86,15.87 L15.63,86.25 C12.0963779,89.6380256 6.50277173,89.5803006 3.03982244,86.1200716 C-0.423126854,82.6598426 -0.485247634,77.0662835 2.9,73.53" id="Path"></path>
                                    </g>
                                    <g id="Fill-12" transform="translate(11.000000, 25.000000)" fill="#f6e8c8">
                                        <path d="M2.75,99.61 L98.55,3.81 C100.785146,1.36568303 104.182237,0.346587198 107.393758,1.15695429 C110.60528,1.96732138 113.112159,4.47617324 113.92,7.68833091 C114.727841,10.9004886 113.706074,14.2967769 111.26,16.53 L15.47,112.32 C11.9181834,115.567872 6.43969019,115.446568 3.03511287,112.044667 C-0.369464448,108.642766 -0.495077886,103.16437 2.75,99.61" id="Path"></path>
                                    </g>
                                    <g id="Fill-14" transform="translate(28.000000, 23.000000)" fill="#f6e8c8">
                                        <path d="M2.69,38.54 L38.23,3 C40.5004228,0.718859208 43.8153542,-0.17774565 46.9260914,0.647927797 C50.0368287,1.47360124 52.470777,3.89611356 53.3110914,7.0029278 C54.1514059,10.109742 53.2704228,13.4288592 51,15.71 L15.4,51.26 C11.8456302,54.5050779 6.36723402,54.3794644 2.96533326,50.9748871 C-0.436567505,47.5703098 -0.557872296,42.0918166 2.69,38.54" id="Path"></path>
                                    </g>
                                    <g id="Fill-16" transform="translate(86.000000, 0.000000)" fill="#f6e8c8">
                                        <path d="M3.49,2.74 L3.7,2.53 C7.24611705,-0.774306325 12.7721167,-0.676806511 16.1994616,2.75053841 C19.6268065,6.17788334 19.7243063,11.7038829 16.42,15.25 L16.2,15.46 C12.6873412,18.9627874 7.00265883,18.9627874 3.49,15.46 L3.49,15.46 C-0.0194405367,11.9461894 -0.0194405367,6.25381056 3.49,2.74" id="Path"></path>
                                    </g>
                                    <g id="Fill-18" transform="translate(59.000000, 122.000000)" fill="#f6e8c8">
                                        <path d="M3.22,3.61 L3.43,3.4 C5.66322313,0.953925901 9.05951143,-0.0678413309 12.2716691,0.739999738 C15.4838268,1.54784081 17.9926786,4.0547203 18.8030457,7.26624163 C19.6134128,10.477763 18.594317,13.8748538 16.15,16.11 L15.94,16.33 C12.4261894,19.8394405 6.73381056,19.8394405 3.22,16.33 L3.22,16.33 C-0.289440537,12.8161894 -0.289440537,7.12381056 3.22,3.61" id="Path"></path>
                                    </g>
                                    <g id="Fill-22" transform="translate(183.000000, 157.000000)" fill="#5B4029">
                                        <path d="M0.44,0.47 C1.03107655,0.266520466 1.65568597,0.178260439 2.28,0.21 C2.90101896,0.210394401 3.52055283,0.270673373 4.13,0.39 C4.382728,0.449701278 4.56125607,0.675316184 4.56125607,0.935 C4.56125607,1.19468382 4.382728,1.42029872 4.13,1.48 C3.52055283,1.59932663 2.90101896,1.6596056 2.28,1.66 C1.65568597,1.69173956 1.03107655,1.60347953 0.44,1.4 C0.239689258,1.33343852 0.104515371,1.14608014 0.104515371,0.935 C0.104515371,0.723919863 0.239689258,0.536561481 0.44,0.47" id="Path"></path>
                                    </g>
                                    <g id="Fill-26" transform="translate(14.000000, 157.000000)" fill="#5B4029">
                                        <path d="M0.91,0.49 C7.82,0.29 14.73,0.26 21.64,0.26 L42.36,0.26 L83.82,0.26 L125.27,0.26 L146,0.26 C152.91,0.26 159.81,0.26 166.72,0.46 C167.008443,0.498121369 167.224007,0.744048575 167.224007,1.035 C167.224007,1.32595143 167.008443,1.57187863 166.72,1.61 C159.81,1.79 152.91,1.8 146,1.81 L125.27,1.81 L83.82,1.81 L42.36,1.81 L21.64,1.81 C14.73,1.81 7.82,1.81 0.91,1.58 C0.791500281,1.57742997 0.679049224,1.52715995 0.598108647,1.44057235 C0.51716807,1.35398476 0.474584516,1.23840381 0.479540003,1.12 C0.490151085,0.886851663 0.676851663,0.700151085 0.91,0.69" id="Path"></path>
                                    </g>
                                    <g id="Fill-30" transform="translate(10.000000, 157.000000)" fill="#5B4029">
                                        <path d="M0.83,0.28 C0.919722795,0.270010309 1.01027721,0.270010309 1.1,0.28 L1.23,0.28 C1.2799335,0.291300147 1.32738024,0.311634464 1.37,0.34 C1.67893911,0.554651564 1.75900319,0.977212001 1.55,1.29 C1.5004021,1.359571 1.439571,1.4204021 1.37,1.47 C1.32738024,1.49836554 1.2799335,1.51869985 1.23,1.53 L1.1,1.53 C1.01027721,1.53998969 0.919722795,1.53998969 0.83,1.53 C0.656165774,1.49175113 0.50469551,1.38590393 0.409014359,1.23581585 C0.313333209,1.08572777 0.28130592,0.903735668 0.32,0.73 C0.371440862,0.47262412 0.57262412,0.271440862 0.83,0.22" id="Path"></path>
                                    </g>
                                    <g id="Fill-34" transform="translate(3.000000, 157.000000)" fill="#5B4029">
                                        <path d="M1.19,0.46 C1.62884369,0.351721649 2.07813858,0.291368605 2.53,0.28 C2.98355536,0.240277274 3.4405622,0.280900105 3.88,0.4 C4.17542128,0.491188613 4.3410473,0.80453514 4.25,1.1 C4.19109251,1.27427066 4.05427066,1.41109251 3.88,1.47 C3.4405622,1.5890999 2.98355536,1.62972273 2.53,1.59 C2.07813858,1.5786314 1.62884369,1.51827835 1.19,1.41 C1.0623429,1.37960197 0.952697229,1.2982646 0.886576035,1.18491398 C0.820454842,1.07156336 0.803624066,0.936083964 0.84,0.81 C0.878605639,0.635158302 1.0151583,0.498605639 1.19,0.46" id="Path"></path>
                                    </g>
                                    <g id="Group-40" transform="translate(78.000000, 166.000000)" fill="#5B4029">
                                        <g id="Fill-38">
                                            <path d="M0.72,0.31 C2.88,0.11 5.03,0.08 7.19,0.08 L13.66,0.08 L26.6,0 L46,0 C48.16,0 50.32,0 52.47,0.2 C52.6239627,0.210250295 52.7674946,0.281428529 52.8688383,0.397786022 C52.9701819,0.514143515 53.0209825,0.666087747 53.01,0.82 C52.9788738,1.10434587 52.7543459,1.32887379 52.47,1.36 C50.32,1.53 48.16,1.54 46,1.55 L26.6,1.55 L13.66,1.48 L7.19,1.48 C5.03,1.48 2.88,1.48 0.72,1.25 C0.499780536,1.21689511 0.336895441,1.02769384 0.336895441,0.805 C0.336895441,0.58230616 0.499780536,0.393104895 0.72,0.36" id="Path"></path>
                                        </g>
                                    </g>
                                    <g id="Fill-43" transform="translate(56.000000, 166.000000)" fill="#5B4029">
                                        <path d="M1.43,0.28 C3.64,0.16 5.85,0.12 8.06,0.1 C10.27,0.08 12.48,0.1 14.69,0.22 C14.9574035,0.256643974 15.1566856,0.485097383 15.1566856,0.755 C15.1566856,1.02490262 14.9574035,1.25335603 14.69,1.29 C12.48,1.43 10.27,1.44 8.06,1.41 C5.85,1.38 3.64,1.35 1.43,1.23 C1.30171709,1.22753323 1.18001928,1.17272826 1.09314844,1.07830344 C1.0062776,0.983878614 0.961786501,0.858043464 0.97,0.73 C0.98955185,0.486225331 1.18585454,0.29419009 1.43,0.28" id="Path"></path>
                                    </g>
                                </g>
                                <g id="Group-48" transform="translate(0.000000, 50.000000)" fill="#b4975a" fill-rule="nonzero">
                                    <g id="Stroke-15" transform="translate(185.000000, 99.000000)">
                                        <path d="M3.28,6 C1.77778548,6 0.56,4.78221452 0.56,3.28 C0.56,1.77778548 1.77778548,0.56 3.28,0.56 C4.78221452,0.56 6,1.77778548 6,3.28 C6,4.78221452 4.78221452,6 3.28,6 Z M3.28,2.57 C2.98788322,2.57002818 2.72473461,2.74655228 2.61390369,3.01682754 C2.50307278,3.28710281 2.56652806,3.59755632 2.77452518,3.8026646 C2.98252231,4.00777288 3.2938329,4.06688015 3.56253173,3.95228019 C3.83123056,3.83768023 4.00405718,3.5720886 4,3.28 C4.00267641,3.08731741 3.92800266,2.90160306 3.79268529,2.76440629 C3.65736792,2.62720951 3.47270118,2.54998141 3.28,2.55 L3.28,2.57 Z" id="Shape"></path>
                                    </g>
                                    <g id="Group-23" transform="translate(0.000000, 13.000000)">
                                        <g id="Stroke-19" transform="translate(4.000000, 0.000000)">
                                            <path d="M1.36,10.94 C0.80771525,10.94 0.36,10.4922847 0.36,9.94 L0.36,1.44 C0.36,0.88771525 0.80771525,0.44 1.36,0.44 C1.91228475,0.44 2.36,0.88771525 2.36,1.44 L2.36,9.94 C2.36,10.4922847 1.91228475,10.94 1.36,10.94 Z" id="Path"></path>
                                        </g>
                                        <g id="Stroke-21" transform="translate(0.000000, 4.000000)">
                                            <path d="M9.61,2.69 L1.11,2.69 C0.55771525,2.69 0.11,2.24228475 0.11,1.69 C0.11,1.13771525 0.55771525,0.69 1.11,0.69 L9.61,0.69 C10.1622847,0.69 10.61,1.13771525 10.61,1.69 C10.61,2.24228475 10.1622847,2.69 9.61,2.69 Z" id="Path"></path>
                                        </g>
                                    </g>
                                    <g id="Stroke-24" transform="translate(57.000000, 9.000000)">
                                        <path d="M3.68,5.62 C2.57986269,5.62 1.58805199,4.95729328 1.16704767,3.94089894 C0.746043351,2.9245046 0.978755006,1.7545841 1.75666956,0.976669555 C2.5345841,0.198755006 3.7045046,-0.0339566487 4.72089894,0.387047672 C5.73729328,0.808051992 6.4,1.79986269 6.4,2.9 C6.4,4.40221452 5.18221452,5.62 3.68,5.62 L3.68,5.62 Z M3.68,2.19 C3.38788322,2.19002818 3.12473461,2.36655228 3.01390369,2.63682754 C2.90307278,2.90710281 2.96652806,3.21755632 3.17452518,3.4226646 C3.38252231,3.62777288 3.6938329,3.68688015 3.96253173,3.57228019 C4.23123056,3.45768023 4.40405718,3.1920886 4.4,2.9 C4.39453094,2.50626569 4.07377229,2.18996202 3.68,2.19 L3.68,2.19 Z" id="Shape"></path>
                                    </g>
                                    <g id="Stroke-26" transform="translate(186.000000, 46.000000)">
                                        <path d="M2.82,5.82 C1.31778548,5.82 0.1,4.60221452 0.1,3.1 C0.1,1.59778548 1.31778548,0.38 2.82,0.38 C4.32221452,0.38 5.54,1.59778548 5.54,3.1 C5.54,4.60221452 4.32221452,5.82 2.82,5.82 Z M2.82,2.39 C2.52788322,2.39002818 2.26473461,2.56655228 2.15390369,2.83682754 C2.04307278,3.10710281 2.10652806,3.41755632 2.31452518,3.6226646 C2.52252231,3.82777288 2.8338329,3.88688015 3.10253173,3.77228019 C3.37123056,3.65768023 3.54405718,3.3920886 3.54,3.1 C3.54001885,2.90995081 3.46384434,2.72782737 3.32852282,2.59438531 C3.1932013,2.46094325 3.01003034,2.38732325 2.82,2.39 Z" id="Shape"></path>
                                    </g>
                                    <g id="Stroke-28" transform="translate(91.000000, 0.000000)">
                                        <path d="M2.49,6.49 C2.31532383,6.4873607 2.14384085,6.44277513 1.99,6.36 C1.75818584,6.22755942 1.58895637,6.00792117 1.52,5.75 L0.69,2.69 C0.619516425,2.4340602 0.653692772,2.16059763 0.784997432,1.92987659 C0.916302092,1.69915554 1.13395827,1.53011239 1.39,1.46 L4.45,0.62 C4.7059398,0.549516425 4.97940237,0.583692772 5.21012341,0.714997432 C5.44084446,0.846302092 5.60988761,1.06395827 5.68,1.32 L6.52,4.39 C6.59048358,4.6459398 6.55630723,4.91940237 6.42500257,5.15012341 C6.29369791,5.38084446 6.07604173,5.54988761 5.82,5.62 L2.75,6.45 C2.66636671,6.47854686 2.57834641,6.49208845 2.49,6.49 L2.49,6.49 Z M2.88,3.12 L3.19,4.26 L4.32,4 L4,2.81 L2.88,3.12 Z" id="Shape"></path>
                                    </g>
                                    <g id="Stroke-35" transform="translate(35.000000, 61.000000)">
                                        <path d="M3.39,6.65 C1.73314575,6.65 0.39,5.30685425 0.39,3.65 C0.39,1.99314575 1.73314575,0.65 3.39,0.65 C5.04685425,0.65 6.39,1.99314575 6.39,3.65 C6.39,5.30685425 5.04685425,6.65 3.39,6.65 Z M3.39,2.65 C2.83771525,2.65 2.39,3.09771525 2.39,3.65 C2.39,4.20228475 2.83771525,4.65 3.39,4.65 C3.94228475,4.65 4.39,4.20228475 4.39,3.65 C4.39,3.09771525 3.94228475,2.65 3.39,2.65 Z" id="Shape"></path>
                                    </g>
                                </g>
                                <g id="Group-11" transform="translate(33.000000, 4.000000)">
                                    <g id="Stroke-1" fill="#b4975a" fill-rule="nonzero">
                                        <path d="M81.37,140.08 L81.29,140.08 C80.66,139.97 79.96,139.84 79.2,139.68 C79.0700306,139.653503 78.9559161,139.576448 78.8827724,139.465794 C78.8096288,139.355141 78.7834507,139.219959 78.81,139.09 C78.8699486,138.822601 79.1304943,138.650376 79.4,138.7 C80.15,138.86 80.84,138.99 81.46,139.09 C81.6386328,139.106077 81.7951194,139.216232 81.8705127,139.378971 C81.9459061,139.54171 81.9287521,139.732309 81.8255127,139.878971 C81.7222733,140.025633 81.5486328,140.106077 81.37,140.09 L81.37,140.08 Z M77.24,139.24 L77.13,139.24 C76.47,139.09 75.78,138.93 75.06,138.74 C74.8813672,138.695342 74.7401285,138.558776 74.6894873,138.381747 C74.638846,138.204717 74.6864957,138.014118 74.8144873,137.881747 C74.9424788,137.749375 75.1313672,137.695342 75.31,137.74 L77.31,138.24 C77.4402593,138.26864 77.5536777,138.348135 77.625038,138.460809 C77.6963983,138.573483 77.7197856,138.709998 77.69,138.84 C77.6431019,139.057096 77.4610971,139.218878 77.24,139.24 L77.24,139.24 Z M73.15,138.18 C73.1071875,138.189502 73.0628125,138.189502 73.02,138.18 C72.35,137.99 71.67,137.79 71.02,137.57 C70.8413672,137.51641 70.7048935,137.371592 70.6619873,137.190096 C70.6190811,137.008601 70.6762607,136.818002 70.8119873,136.690096 C70.9477139,136.562191 71.1413672,136.51641 71.32,136.57 L73.32,137.17 C73.5961423,137.20866 73.7886598,137.463858 73.7499999,137.74 C73.71134,138.016142 73.4561424,138.20866 73.18,138.17 L73.15,138.18 Z M69.15,136.9 C69.0937488,136.909704 69.0362512,136.909704 68.98,136.9 C68.32,136.67 67.66,136.42 66.98,136.16 C66.7244663,136.061989 66.5952166,135.776748 66.69,135.52 C66.7370107,135.394782 66.832231,135.293619 66.9543777,135.239122 C67.0765243,135.184626 67.2154131,135.181341 67.34,135.23 C68,135.48 68.65,135.73 69.34,135.95 C69.5995516,136.044234 69.736963,136.327923 69.65,136.59 C69.569798,136.796887 69.3605805,136.924058 69.14,136.9 L69.15,136.9 Z M65.22,135.38 C65.1541774,135.395002 65.0858226,135.395002 65.02,135.38 C64.37,135.11 63.73,134.82 63.08,134.51 C62.9594054,134.455698 62.8658828,134.354954 62.8206852,134.23066 C62.7754875,134.106366 62.7824534,133.96908 62.84,133.85 C62.8963486,133.728716 62.9989357,133.63506 63.1248368,133.589961 C63.250738,133.544862 63.3894587,133.552079 63.51,133.61 C64.14,133.91 64.78,134.19 65.41,134.46 C65.6644065,134.570067 65.7843173,134.863182 65.68,135.12 C65.587135,135.290602 65.4038695,135.391983 65.21,135.38 L65.22,135.38 Z M61.41,133.58 C61.3294008,133.580496 61.2500861,133.559805 61.18,133.52 C60.55,133.2 59.93,132.85 59.31,132.52 C59.0724555,132.377136 58.992515,132.070698 59.13,131.83 C59.2728638,131.592456 59.5793024,131.512515 59.82,131.65 C60.42,132 61.03,132.34 61.64,132.65 C61.840327,132.758066 61.9423847,132.987795 61.8882873,133.208889 C61.8341898,133.429983 61.6375913,133.586638 61.41,133.59 L61.41,133.58 Z M57.77,131.46 C57.673759,131.462905 57.5791237,131.434865 57.5,131.38 C56.9,131 56.31,130.6 55.74,130.18 C55.6323539,130.101937 55.5602368,129.98421 55.5395945,129.852849 C55.5189522,129.721489 55.5514851,129.587317 55.63,129.48 C55.795608,129.26076 56.1051303,129.212121 56.33,129.37 C56.89,129.78 57.46,130.17 58.04,130.55 C58.2716164,130.699355 58.3387058,131.007966 58.19,131.24 C58.0914868,131.379492 57.9307626,131.461723 57.76,131.46 L57.77,131.46 Z M54.36,129 C54.2443032,128.998563 54.1321271,128.960003 54.04,128.89 C53.48,128.43 52.94,127.95 52.43,127.47 C52.3359359,127.377836 52.2829286,127.25169 52.2829286,127.12 C52.2829286,126.98831 52.3359359,126.862164 52.43,126.77 C52.5238833,126.675344 52.6516812,126.622101 52.785,126.622101 C52.9183188,126.622101 53.0461167,126.675344 53.14,126.77 C53.63,127.23 54.14,127.69 54.7,128.14 C54.8584296,128.275462 54.9161988,128.494999 54.8449636,128.690896 C54.7737284,128.886793 54.5884365,129.017943 54.38,129.02 L54.36,129 Z M51.3,126.11 C51.159424,126.112218 51.0246679,126.053945 50.93,125.95 C50.45,125.42 49.93,124.87 49.55,124.32 C49.3787302,124.101077 49.4143082,123.785322 49.63,123.61 C49.8483005,123.4421 50.1612716,123.482339 50.33,123.7 C50.75,124.24 51.2,124.76 51.67,125.27 C51.8617833,125.467814 51.8617833,125.782186 51.67,125.98 C51.5663628,126.064715 51.4330854,126.104338 51.3,126.09 L51.3,126.11 Z M48.72,122.8 C48.5504731,122.79791 48.3930678,122.711711 48.3,122.57 C47.91,121.97 47.54,121.35 47.21,120.72 C47.0850398,120.476814 47.1785874,120.178353 47.42,120.05 C47.5366281,119.986021 47.6739433,119.971154 47.801562,120.008689 C47.9291808,120.046224 48.0365816,120.133066 48.1,120.25 C48.4029646,120.85989 48.7367284,121.45399 49.1,122.03 C49.2487058,122.262034 49.1816164,122.570645 48.95,122.72 C48.8788648,122.757156 48.8002206,122.777672 48.72,122.78 L48.72,122.8 Z M46.72,119.09 C46.5189638,119.086379 46.3388179,118.964977 46.26,118.78 C45.9865663,118.125847 45.7462617,117.458335 45.54,116.78 C45.4612829,116.515289 45.6075697,116.236015 45.87,116.15 C46.1321408,116.071894 46.4083886,116.218929 46.49,116.48 C46.6906196,117.138007 46.9242488,117.785494 47.19,118.42 C47.2656938,118.634048 47.1876698,118.872226 47,119 C46.9292381,119.047749 46.8453365,119.072221 46.76,119.07 L46.72,119.09 Z M45.5,115.09 C45.2637219,115.086289 45.0609391,114.920752 45.01,114.69 C44.87,113.99 44.75,113.28 44.67,112.57 C44.6503504,112.391367 44.7274929,112.215821 44.8723686,112.109487 C45.0172443,112.003154 45.2078433,111.982188 45.3723686,112.054487 C45.536894,112.126787 45.6503504,112.281367 45.67,112.46 C45.75,113.14 45.85,113.82 45.99,114.46 C46.0396237,114.729506 45.8673985,114.990051 45.6,115.05 L45.5,115.09 Z M45.03,110.91 C44.7614832,110.910215 44.5407406,110.698302 44.53,110.43 C44.53,110.21 44.53,109.99 44.53,109.77 C44.53,109.28 44.53,108.77 44.53,108.28 C44.5377221,108.147304 44.5979627,108.023145 44.6974119,107.934954 C44.7968611,107.846763 44.927333,107.8018 45.06,107.81 C45.1926956,107.817722 45.3168553,107.877963 45.4050461,107.977412 C45.4932369,108.076861 45.5381997,108.207333 45.53,108.34 C45.53,108.82 45.53,109.34 45.53,109.77 C45.53,109.98 45.53,110.19 45.53,110.4 C45.5354489,110.533385 45.4862397,110.66322 45.3937496,110.759485 C45.3012596,110.85575 45.1734967,110.910111 45.04,110.91 L45.03,110.91 Z M89,110 C88.7238576,110 88.5,109.776142 88.5,109.5 C88.5,109.223858 88.7238576,109 89,109 C89.71,109 90.41,109 91.09,108.95 C91.3661424,108.95 91.59,109.173858 91.59,109.45 C91.59,109.726142 91.3661424,109.95 91.09,109.95 C90.4,109.95 89.69,109.95 88.97,110 L89,110 Z M86.89,110 L86.89,110 L84.78,109.94 C84.5022047,109.923864 84.2886195,109.688031 84.3,109.41 C84.3051308,109.27818 84.363197,109.153997 84.4610648,109.06554 C84.5589327,108.977082 84.6883338,108.931823 84.82,108.94 L86.91,109 C87.0426169,109.002626 87.1687559,109.05784 87.2606543,109.153489 C87.3525528,109.249138 87.4026789,109.377384 87.4,109.51 C87.4004579,109.647193 87.3433793,109.778294 87.2426418,109.871429 C87.1419043,109.964564 87.0067357,110.0112 86.87,110 L86.89,110 Z M93.2,109.86 C92.9238576,109.86 92.7,109.636142 92.7,109.36 C92.7,109.083858 92.9238576,108.86 93.2,108.86 C93.9,108.86 94.6,108.76 95.28,108.69 C95.5561424,108.662386 95.8023858,108.863858 95.83,109.14 C95.8576142,109.416142 95.6561424,109.662386 95.38,109.69 C94.69,109.76 93.98,109.82 93.26,109.87 L93.2,109.86 Z M82.69,109.86 L82.69,109.86 C82,109.86 81.3,109.76 80.58,109.69 C80.4479684,109.679922 80.3256364,109.616836 80.240866,109.515112 C80.1560955,109.413387 80.1161041,109.281685 80.13,109.15 C80.156401,108.877435 80.397142,108.676817 80.67,108.7 L82.76,108.87 C82.8926956,108.877722 83.0168553,108.937963 83.1050461,109.037412 C83.1932369,109.136861 83.2381997,109.267333 83.23,109.4 C83.1794492,109.662193 82.9352156,109.841007 82.67,109.81 L82.69,109.86 Z M78.49,109.47 L78.49,109.47 C77.8,109.39 77.1,109.31 76.39,109.21 C76.2576319,109.195179 76.1370011,109.12711 76.0558816,109.021466 C75.9747622,108.915822 75.9401449,108.781707 75.96,108.65 C75.996286,108.376843 76.2467352,108.184534 76.52,108.22 L78.6,108.48 C78.8761424,108.496569 79.0865685,108.733858 79.07,109.01 C79.0534314,109.286142 78.8161424,109.496569 78.54,109.48 L78.49,109.47 Z M97.38,109.47 C97.1038576,109.48933 96.86433,109.281142 96.845,109.005 C96.82567,108.728858 97.0338576,108.48933 97.31,108.47 C98.02,108.37 98.7,108.26 99.37,108.14 C99.5486328,108.107846 99.7308502,108.173434 99.8480127,108.312058 C99.9651752,108.450681 99.999483,108.64128 99.9380127,108.812058 C99.8765424,108.982835 99.7286328,109.107846 99.55,109.14 C98.87,109.26 98.17,109.38 97.45,109.48 L97.38,109.47 Z M74.32,108.92 L74.25,108.92 L72.16,108.58 C72.0292345,108.560436 71.9119253,108.488856 71.8347176,108.381519 C71.75751,108.274181 71.7269576,108.140198 71.75,108.01 C71.7719828,107.878436 71.8456236,107.761109 71.9545453,107.684113 C72.063467,107.607116 72.198639,107.576834 72.33,107.6 C72.9966667,107.72 73.6866667,107.83 74.4,107.93 C74.5313603,107.949728 74.6494713,108.020917 74.728268,108.127855 C74.8070647,108.234794 74.8400699,108.368691 74.82,108.5 C74.7547838,108.729947 74.5386203,108.883756 74.3,108.87 L74.32,108.92 Z M101.52,108.72 C101.243858,108.750376 100.995376,108.551142 100.965,108.275 C100.934624,107.998858 101.133858,107.750376 101.41,107.72 C102.1,107.56 102.77,107.39 103.41,107.21 C103.686142,107.138203 103.968203,107.303858 104.04,107.58 C104.111797,107.856142 103.946142,108.138203 103.67,108.21 C103,108.39 102.32,108.56 101.61,108.72 L101.52,108.72 Z M70.17,108.22 L70.08,108.22 L68.01,107.82 C67.7385479,107.764622 67.5609511,107.502667 67.61,107.23 C67.6364973,107.100031 67.7135523,106.985916 67.8242055,106.912772 C67.9348588,106.839629 68.0700413,106.813451 68.2,106.84 L70.26,107.23 C70.3918107,107.254192 70.5083931,107.330284 70.5835952,107.441207 C70.6587973,107.55213 70.6863238,107.688599 70.66,107.82 C70.5944204,108.042782 70.3814608,108.188931 70.15,108.17 L70.17,108.22 Z M105.57,107.61 C105.354219,107.606985 105.16472,107.465869 105.1,107.26 C105.056123,107.134089 105.065453,106.995734 105.125837,106.876854 C105.186221,106.757973 105.292443,106.668834 105.42,106.63 C106.09,106.41 106.74,106.18 107.37,105.93 C107.629455,105.834504 107.917754,105.96313 108.02,106.22 C108.114783,106.476748 107.985534,106.761989 107.73,106.86 C107.09,107.11 106.42,107.35 105.73,107.58 C105.669265,107.585601 105.608025,107.578796 105.55,107.56 L105.57,107.61 Z M66,107.34 L65.9,107.34 C65.22,107.2 64.53,107.04 63.84,106.88 C63.7097407,106.85136 63.5963223,106.771865 63.524962,106.659191 C63.4536017,106.546517 63.4302144,106.410002 63.46,106.28 C63.5242604,106.012683 63.7922895,105.847398 64.06,105.91 L66.06,106.37 C66.1894881,106.396302 66.3028656,106.473784 66.3744123,106.58487 C66.445959,106.695956 66.46961,106.831228 66.44,106.96 C66.389613,107.167681 66.2128039,107.32038 66,107.34 Z M45.28,106.68 L45.21,106.68 C45.0776319,106.665179 44.9570011,106.59711 44.8758816,106.491466 C44.7947622,106.385822 44.7601449,106.251707 44.78,106.12 C44.87,105.43 44.98,104.72 45.12,104.01 C45.1439637,103.878672 45.220473,103.762806 45.3318385,103.689192 C45.443204,103.615577 45.5797837,103.590587 45.71,103.62 C45.8405524,103.641518 45.9564326,103.715972 46.0302634,103.825771 C46.1040941,103.935571 46.1293268,104.070977 46.1,104.2 C45.97,104.89 45.86,105.58 45.77,106.2 C45.7601611,106.457092 45.5568282,106.664751 45.3,106.68 L45.28,106.68 Z M61.9,106.4 L61.78,106.4 L59.78,105.89 C59.5158841,105.816935 59.3597922,105.54489 59.43,105.28 C59.4606709,105.152005 59.5415451,105.04173 59.6544074,104.974012 C59.7672696,104.906295 59.9026295,104.886829 60.03,104.92 L62.03,105.43 C62.2986986,105.498878 62.4630772,105.769881 62.4,106.04 C62.3377778,106.253333 62.1422222,106.4 61.92,106.4 L61.9,106.4 Z M109.45,106.03 C109.173858,106.08799 108.90299,105.911142 108.845,105.635 C108.78701,105.358858 108.963858,105.08799 109.24,105.03 C109.88,104.74 110.5,104.43 111.09,104.11 C111.333005,103.977452 111.637452,104.066995 111.77,104.31 C111.902548,104.553005 111.813005,104.857452 111.57,104.99 C110.96,105.32 110.32,105.64 109.66,105.99 C109.597758,106.004552 109.533426,106.007938 109.47,106 L109.45,106.03 Z M57.83,105.35 L57.69,105.35 L55.69,104.79 C55.4245139,104.712431 55.2692444,104.437383 55.34,104.17 C55.4173199,103.904903 55.6949033,103.75268 55.96,103.83 L57.96,104.39 C58.2361424,104.425899 58.4308985,104.678858 58.395,104.955 C58.3591015,105.231142 58.1061424,105.425899 57.83,105.39 L57.83,105.35 Z M53.77,104.2 C53.723783,104.209162 53.676217,104.209162 53.63,104.2 L51.63,103.6 C51.3675697,103.513985 51.2212829,103.234711 51.3,102.97 C51.3816114,102.708929 51.6578592,102.561894 51.92,102.64 L53.92,103.24 C54.1810707,103.321611 54.3281058,103.597859 54.25,103.86 C54.185593,104.060359 54.0004381,104.197213 53.79,104.2 L53.77,104.2 Z M113.15,104.04 C112.928565,104.039428 112.733881,103.893277 112.671525,103.680802 C112.609168,103.468328 112.693993,103.240147 112.88,103.12 C113.47,102.75 114.05,102.36 114.6,101.96 C114.744693,101.854607 114.934621,101.834412 115.09824,101.907022 C115.26186,101.979633 115.374313,102.134018 115.39324,102.312022 C115.412167,102.490027 115.334693,102.664607 115.19,102.77 C114.62,103.19 114.02,103.59 113.41,103.96 C113.335699,103.996721 113.252194,104.010639 113.17,104 L113.15,104.04 Z M49.77,103 C49.720471,103.009706 49.669529,103.009706 49.62,103 L47.62,102.35 C47.4924432,102.311166 47.3862205,102.222027 47.3258367,102.103146 C47.265453,101.984266 47.2561233,101.845911 47.3,101.72 C47.3857629,101.457801 47.6676809,101.314604 47.93,101.4 L49.93,102.05 C50.0551869,102.089007 50.1595172,102.176562 50.219656,102.293081 C50.2797948,102.4096 50.2907243,102.545361 50.25,102.67 C50.1826565,102.875606 49.9860869,103.010748 49.77,103 Z M46.1,102.58 L46,102.58 C45.7353443,102.506746 45.5762048,102.237093 45.64,101.97 C45.6680042,101.881276 45.6913691,101.791154 45.71,101.7 L45.64,101.7 L43.64,101.02 C43.3776648,100.928873 43.2388731,100.642335 43.33,100.38 C43.421127,100.117665 43.7076648,99.978873 43.97,100.07 L45.97,100.75 L45.97,100.75 C46.05,100.48 46.13,100.21 46.22,99.93 C46.3060145,99.6675697 46.5852892,99.5212829 46.85,99.6 C47.1124303,99.6860145 47.2587171,99.9652892 47.18,100.23 C46.96,100.91 46.77,101.57 46.6,102.23 C46.5215378,102.434769 46.318806,102.564518 46.1,102.55 L46.1,102.58 Z M116.57,101.58 C116.425187,101.57872 116.287468,101.517109 116.19,101.41 C116.013946,101.196286 116.040578,100.881138 116.25,100.7 C116.78,100.26 117.25,99.79 117.78,99.31 C117.872164,99.2159359 117.99831,99.1629286 118.13,99.1629286 C118.26169,99.1629286 118.387836,99.2159359 118.48,99.31 C118.574656,99.4038833 118.627899,99.5316812 118.627899,99.665 C118.627899,99.7983188 118.574656,99.9261167 118.48,100.02 C117.973333,100.513333 117.443333,100.993333 116.89,101.46 C116.800222,101.534295 116.686483,101.573393 116.57,101.57 L116.57,101.58 Z M41.79,100.3 C41.7337324,100.309511 41.6762676,100.309511 41.62,100.3 C40.96,100.06 40.3,99.83 39.62,99.58 C39.4936718,99.5371727 39.3902635,99.4446945 39.3336481,99.323915 C39.2770327,99.2031355 39.2721041,99.0644948 39.32,98.94 C39.4139767,98.6805067 39.7004316,98.546231 39.96,98.64 C40.62,98.89 41.28,99.12 41.96,99.36 C42.0838939,99.4029916 42.1853845,99.493852 42.2417665,99.6122541 C42.2981484,99.7306562 42.304716,99.866718 42.26,99.99 C42.1788099,100.176181 41.9930583,100.294746 41.79,100.29 L41.79,100.3 Z M37.79,98.85 C37.7337324,98.859511 37.6762676,98.859511 37.62,98.85 L35.62,98.11 C35.4947816,98.0629893 35.3936185,97.967769 35.3391223,97.8456223 C35.2846261,97.7234757 35.2813405,97.5845869 35.33,97.46 C35.4280109,97.2044663 35.7132517,97.0752166 35.97,97.17 L37.97,97.92 C38.2461424,97.9697056 38.4297056,98.2338576 38.38,98.51 C38.3302944,98.7861424 38.0661424,98.9697056 37.79,98.92 L37.79,98.85 Z M119.53,98.64 C119.409703,98.63788 119.29356,98.5956461 119.2,98.52 C119.105344,98.4261167 119.052101,98.2983188 119.052101,98.165 C119.052101,98.0316812 119.105344,97.9038833 119.2,97.81 C119.65,97.29 120.09,96.75 120.49,96.2 C120.658601,95.9840653 120.967681,95.939911 121.19,96.1 C121.296087,96.1795649 121.366221,96.2980139 121.384975,96.4292893 C121.403728,96.5605648 121.369565,96.6939134 121.29,96.8 C120.87,97.37 120.42,97.93 119.95,98.47 C119.850792,98.5734175 119.713303,98.631308 119.57,98.63 L119.53,98.64 Z M47.34,98.55 C47.2740729,98.564043 47.2059271,98.564043 47.14,98.55 C47.0177111,98.4972956 46.9214979,98.3979874 46.8726905,98.2740916 C46.8238831,98.1501959 46.826514,98.0119491 46.88,97.89 C47.04,97.51 47.33,96.89 47.77,95.95 C47.8996845,95.7220166 48.1834944,95.6329946 48.420157,95.7460668 C48.6568196,95.8591389 48.7658823,96.1358667 48.67,96.38 C48.24,97.25 47.96,97.91 47.8,98.28 C47.714111,98.4332068 47.5554307,98.5314375 47.38,98.54 L47.34,98.55 Z M33.86,97.35 C33.8003787,97.3595335 33.7396213,97.3595335 33.68,97.35 L31.68,96.57 C31.5565962,96.5210324 31.4577339,96.424996 31.4052092,96.3030637 C31.3526845,96.1811314 31.3508104,96.0433155 31.4,95.92 C31.506112,95.6670534 31.7932907,95.5433457 32.05,95.64 C32.7,95.91 33.36,96.16 34.05,96.42 C34.3055337,96.5180109 34.4347834,96.8032517 34.34,97.06 C34.2557549,97.2269385 34.086907,97.3343872 33.9,97.34 L33.86,97.35 Z M30,95.78 C29.9370308,95.7896052 29.8729692,95.7896052 29.81,95.78 L27.86,94.98 C27.6031876,94.8750659 27.4800659,94.5818124 27.585,94.325 C27.6899341,94.0681876 27.9831876,93.9450659 28.24,94.05 L30.24,94.85 C30.3633857,94.898692 30.4617592,94.9953271 30.512643,95.1178252 C30.5635268,95.2403233 30.5625732,95.3782174 30.51,95.5 C30.4223797,95.6974664 30.2136397,95.8120688 30,95.78 Z M122.09,95.25 C121.99843,95.2519504 121.908213,95.2276613 121.83,95.18 C121.714938,95.1117853 121.632765,94.9994968 121.602549,94.8691915 C121.572334,94.7388861 121.596702,94.6018923 121.67,94.49 C122.03,93.9 122.38,93.3 122.67,92.69 C122.797026,92.4442333 123.099233,92.3479746 123.345,92.4750001 C123.590767,92.6020255 123.687025,92.9042333 123.56,93.15 C123.23,93.79 122.87,94.41 122.49,95.02 C122.402799,95.1629248 122.247426,95.2501089 122.08,95.25 L122.09,95.25 Z M49.23,94.7400087 C49.1494008,94.7404956 49.0700861,94.7198048 49,94.68 C48.8813387,94.6183193 48.7923326,94.511673 48.752871,94.3838928 C48.7134095,94.2561125 48.7267819,94.1178494 48.79,94 C49.1,93.43 49.45,92.81 49.79,92.15 C49.9408046,91.9426389 50.2240224,91.8829562 50.4456815,92.0118278 C50.6673406,92.1406994 50.7555948,92.4163542 50.65,92.65 C50.27,93.3 49.93,93.91 49.65,94.48 C49.56227,94.6361646 49.3990461,94.7348581 49.22,94.7400087 L49.23,94.7400087 Z M26.11,94.17 C26.0475403,94.1848772 25.9824597,94.1848772 25.92,94.17 L24,93.31 C23.8759143,93.2592 23.7774311,93.1606911 23.7266634,93.0365922 C23.6758957,92.9124934 23.6770979,92.7732041 23.73,92.65 C23.8438297,92.39947 24.1358839,92.2844184 24.39,92.39 L26.32,93.21 C26.5961424,93.2624671 26.7774671,93.5288576 26.725,93.805 C26.6725329,94.0811424 26.4061424,94.2624671 26.13,94.21 L26.11,94.17 Z M22.28,92.43 C22.1716965,92.4307376 22.0662002,92.3955722 21.98,92.33 C21.64,92.07 21.07,91.62 20.31,90.99 C20.207602,90.9061841 20.1434568,90.784516 20.1321559,90.6526723 C20.120855,90.5208287 20.1633593,90.3900193 20.25,90.29 C20.33236,90.1861333 20.4532881,90.1200665 20.5851877,90.1068766 C20.7170872,90.0936866 20.8487032,90.134499 20.95,90.22 C21.69,90.84 22.26,91.28 22.59,91.53 C22.8076609,91.6987284 22.8479,92.0116995 22.68,92.23 C22.5824277,92.3574798 22.4305271,92.4315777 22.27,92.43 L22.28,92.43 Z M124,91.52 C123.933667,91.5294367 123.866333,91.5294367 123.8,91.52 C123.549573,91.4060688 123.431229,91.116785 123.53,90.86 C123.8,90.22 124.04,89.57 124.24,88.93 C124.279113,88.8022396 124.367734,88.6954488 124.486093,88.6334512 C124.604453,88.5714536 124.742702,88.5594074 124.87,88.6 C125.13243,88.6860145 125.278717,88.9652892 125.2,89.23 C124.98,89.9 124.74,90.58 124.46,91.23 C124.375288,91.4071674 124.196378,91.5199581 124,91.52 Z M51.34,91.1 C51.2439388,91.1015558 51.1497082,91.0736356 51.07,91.02 C50.8383836,90.8706451 50.7712942,90.5620337 50.92,90.33 C51.28,89.7633333 51.67,89.1733333 52.09,88.56 C52.1649846,88.4491809 52.2812582,88.3730401 52.412813,88.3486085 C52.5443678,88.3241769 52.6802263,88.3534932 52.79,88.43 C53.0099634,88.5888109 53.0670923,88.8920337 52.92,89.12 C52.51,89.72 52.12,90.3 51.76,90.87 C51.6746752,91.0099265 51.5238551,91.096648 51.36,91.1 L51.34,91.1 Z M19,89.73 C18.8743584,89.7309252 18.7529739,89.6845134 18.66,89.6 C18.17,89.17 17.66,88.69 17.1,88.17 C17.0053437,88.0761167 16.9521008,87.9483188 16.9521008,87.815 C16.9521008,87.6816812 17.0053437,87.5538833 17.1,87.46 C17.1921636,87.3659359 17.3183103,87.3129286 17.45,87.3129286 C17.5816897,87.3129286 17.7078364,87.3659359 17.8,87.46 C18.35,87.97 18.87,88.46 19.35,88.87 C19.5098224,89.0066522 19.5670668,89.2286976 19.4932331,89.4255874 C19.4193994,89.6224772 19.2302676,89.7521316 19.02,89.75 L19,89.73 Z M53.72,87.6200192 C53.6132167,87.6209078 53.5086496,87.5895377 53.42,87.53 C53.2007597,87.364392 53.1521205,87.0548697 53.31,86.83 C53.72,86.27 54.15,85.71 54.6,85.14 C54.6827063,85.0340249 54.8046016,84.9658174 54.9381849,84.9507657 C55.0717681,84.9357141 55.2057851,84.9750865 55.31,85.06 C55.5244541,85.231727 55.5601784,85.544315 55.39,85.76 C54.94,86.32 54.52,86.87 54.12,87.42 C54.0311785,87.5367868 53.8963609,87.6096612 53.75,87.6200192 L53.72,87.6200192 Z M125.24,87.49 L125.15,87.49 C125.018976,87.4682126 124.90241,87.394168 124.827002,87.2848263 C124.751594,87.1754846 124.723805,87.0402144 124.75,86.91 C124.82,86.54 124.85,86.33 124.85,86.32 L124.85,85.89 C124.85,85.56 124.85,85.24 124.85,84.89 C124.85,84.6138576 125.073858,84.39 125.35,84.39 C125.626142,84.39 125.85,84.6138576 125.85,84.89 C125.85,85.23 125.85,85.56 125.85,85.89 L125.85,86.39 C125.85,86.44 125.85,86.67 125.73,87.1 C125.684299,87.3201379 125.494649,87.4809285 125.27,87.49 L125.24,87.49 Z M16,86.84 C15.8681154,86.8381215 15.7423152,86.7842071 15.65,86.69 C15.17,86.21 14.65,85.69 14.17,85.17 C14.0753437,85.0761167 14.0221008,84.9483188 14.0221008,84.815 C14.0221008,84.6816812 14.0753437,84.5538833 14.17,84.46 C14.2621636,84.3659359 14.3883103,84.3129286 14.52,84.3129286 C14.6516897,84.3129286 14.7778364,84.3659359 14.87,84.46 C15.37,84.9933333 15.86,85.4933333 16.34,85.96 C16.5317833,86.1578137 16.5317833,86.4721863 16.34,86.67 C16.2528089,86.7683643 16.1310061,86.8292658 16,86.84 L16,86.84 Z M56.41,84.32 C56.2113424,84.3305015 56.0253585,84.2222368 55.9363921,84.0443039 C55.8474257,83.8663711 55.8724043,83.6526252 56,83.5 C56.45,82.97 56.92,82.43 57.41,81.9 C57.5314703,81.7678117 57.7142351,81.7104684 57.8894486,81.7495706 C58.0646622,81.7886728 58.2057054,81.9182801 58.2594486,82.0895706 C58.3131919,82.2608611 58.2714703,82.4478117 58.15,82.58 C57.67,83.1 57.21,83.58 56.76,84.14 C56.6624655,84.2596602 56.5142436,84.32636 56.36,84.32 L56.41,84.32 Z M13.1,83.77 C12.959679,83.7709495 12.8254172,83.7128904 12.73,83.61 C12.27,83.09 11.81,82.61 11.34,82 C11.2533593,81.8999807 11.210855,81.7691713 11.2221559,81.6373277 C11.2334568,81.505484 11.297602,81.3838159 11.4,81.3 C11.6137137,81.1239462 11.9288617,81.1505784 12.11,81.36 C12.57,81.91 13.02,82.43 13.48,82.94 C13.6717833,83.1378137 13.6717833,83.4521863 13.48,83.65 C13.3606845,83.7501495 13.2039324,83.7938942 13.05,83.77 L13.1,83.77 Z M125.17,83.3 C124.927774,83.3032468 124.719529,83.1290013 124.68,82.89 C124.565545,82.2141135 124.408567,81.5461203 124.21,80.89 C124.131283,80.6252892 124.27757,80.3460145 124.54,80.26 C124.802141,80.1818942 125.078389,80.3289293 125.16,80.59 C125.369946,81.2830736 125.540222,81.9875492 125.67,82.7 C125.712165,82.9701416 125.529525,83.2240567 125.26,83.27 L125.17,83.3 Z M59.21,81.21 C59.0081456,81.2111857 58.8253774,81.0908796 58.7466541,80.9050053 C58.6679309,80.719131 58.708696,80.5041519 58.85,80.36 C59.34,79.86 59.85,79.36 60.37,78.88 C60.4638833,78.7853437 60.5916812,78.7321008 60.725,78.7321008 C60.8583188,78.7321008 60.9861167,78.7853437 61.08,78.88 C61.1766772,78.9707333 61.2315186,79.0974141 61.2315186,79.23 C61.2315186,79.3625859 61.1766772,79.4892667 61.08,79.58 C60.57,80.07 60.08,80.58 59.59,81.04 C59.4948975,81.1503311 59.3556383,81.2126313 59.21,81.21 L59.21,81.21 Z M10.35,80.54 C10.1943605,80.5423824 10.0464896,80.4721437 9.95,80.35 C9.52,79.8 9.09,79.24 8.67,78.66 C8.50707603,78.4363247 8.55632472,78.122924 8.78000003,77.96 C9.00367534,77.797076 9.31707599,77.8463247 9.48,78.07 C9.89,78.64 10.32,79.19 10.74,79.74 C10.9101784,79.955685 10.8744541,80.268273 10.66,80.44 C10.5700428,80.5056725 10.4613762,80.5407262 10.35,80.54 L10.35,80.54 Z M123.89,79.2900073 C123.695783,79.2910588 123.519271,79.1773067 123.44,79 C123.142656,78.3774722 122.808739,77.7730828 122.44,77.19 C122.296406,76.9525176 122.372518,76.643594 122.61,76.5 C122.847482,76.356406 123.156406,76.4325176 123.3,76.67 C123.674337,77.2877949 124.008366,77.9291308 124.3,78.59 C124.406923,78.8414489 124.296679,79.1324913 124.05,79.25 C123.999134,79.2717599 123.945122,79.2852631 123.89,79.2900073 L123.89,79.2900073 Z M62.27,78.29 C62.1252107,78.2915781 61.9881293,78.2248898 61.9,78.11 C61.8059359,78.0178364 61.7529286,77.8916897 61.7529286,77.76 C61.7529286,77.6283103 61.8059359,77.5021636 61.9,77.41 C62.43,76.95 62.98,76.49 63.53,76.04 C63.7504195,75.8741111 64.062022,75.9092212 64.24,76.12 C64.3243908,76.2225679 64.3635276,76.3550011 64.348446,76.4869653 C64.3333644,76.6189294 64.2653566,76.7391175 64.16,76.82 C63.61,77.26 63.08,77.71 62.56,78.16 C62.4882416,78.2512229 62.3846517,78.311948 62.27,78.33 L62.27,78.29 Z M7.86,77.1400123 C7.69545875,77.1385985 7.54214047,77.0563302 7.45,76.92 C7.06,76.34 6.67,75.74 6.29,75.13 C6.14640597,74.8925176 6.22251756,74.583594 6.46,74.44 C6.69748244,74.296406 7.00640597,74.3725176 7.15,74.61 C7.51,75.2 7.89,75.79 8.28,76.36 C8.43062364,76.5894413 8.3681375,76.8974087 8.14,77.05 C8.05869819,77.1091818 7.96055812,77.1407268 7.86,77.1400123 Z M121.72,75.7 C121.56436,75.7023824 121.41649,75.6321437 121.32,75.51 C120.906482,74.9841179 120.465886,74.4801035 120,74 C119.903323,73.9092667 119.848481,73.7825859 119.848481,73.65 C119.848481,73.5174141 119.903323,73.3907333 120,73.3 C120.093883,73.2053437 120.221681,73.1521008 120.355,73.1521008 C120.488319,73.1521008 120.616117,73.2053437 120.71,73.3 C121.209554,73.8170482 121.680267,74.3612048 122.12,74.93 C122.2879,75.1483005 122.247661,75.4612716 122.03,75.63 C121.937313,75.687126 121.828241,75.7117554 121.72,75.7 Z M65.56,75.7 C65.3994729,75.7015777 65.2475723,75.6274798 65.15,75.5 C64.9921205,75.2751303 65.0407597,74.965608 65.26,74.8 C65.82,74.38 66.4,73.97 66.99,73.57 C67.0997737,73.4934932 67.2356322,73.4641769 67.367187,73.4886085 C67.4987418,73.5130401 67.6150154,73.5891809 67.69,73.7 C67.8416316,73.9325467 67.7794087,74.2436613 67.55,74.4 C66.97,74.79 66.4,75.19 65.85,75.6 C65.7663067,75.6619596 65.6640671,75.6936891 65.56,75.69 L65.56,75.7 Z M5.65,73.56 C5.46735712,73.5583764 5.29952715,73.4592041 5.21,73.3 C4.87,72.68 4.53,72.06 4.21,71.42 C4.15140528,71.3006919 4.14272789,71.162963 4.18588509,71.0372441 C4.2290423,70.9115253 4.32048173,70.8081648 4.44,70.75 C4.68622228,70.632239 4.98151404,70.7292004 5.11,70.97 C5.42,71.6 5.75,72.21 6.11,72.81 C6.17756373,72.9247874 6.19548721,73.0621333 6.15964374,73.1904152 C6.12380027,73.3186971 6.03727879,73.4268598 5.92,73.49 C5.84060204,73.5434096 5.74534633,73.5681055 5.65,73.56 Z M69,73.3300085 C68.8244764,73.3310222 68.6612709,73.2399307 68.57,73.09 C68.430728,72.8518755 68.5060466,72.5461704 68.74,72.4 C69.33,72.04 69.94,71.68 70.57,71.33 C70.8102974,71.1951345 71.1144142,71.2801083 71.25,71.52 C71.3791639,71.760954 71.2953562,72.0608972 71.06,72.2 C70.4533333,72.54 69.8533333,72.8733333 69.26,73.2 C69.19157,73.2728997 69.0993778,73.3189958 69,73.3300085 Z M118.76,72.67 C118.642389,72.6697001 118.528809,72.6271076 118.44,72.55 C117.93,72.11 117.38,71.68 116.81,71.28 C116.59076,71.114392 116.542121,70.8048697 116.7,70.58 C116.776537,70.4707762 116.893539,70.3966571 117.024992,70.3741223 C117.156446,70.3515875 117.291454,70.3825047 117.4,70.46 C117.99,70.89 118.56,71.34 119.09,71.79 C119.296358,71.9739922 119.318534,72.2889027 119.14,72.5 C119.052183,72.597545 118.930726,72.6582732 118.8,72.67 L118.76,72.67 Z M72.67,71.27 C72.4816509,71.27 72.3086349,71.1661904 72.22,71 C72.1614053,70.8806919 72.1527279,70.742963 72.1958851,70.6172441 C72.2390423,70.4915253 72.3304817,70.3881648 72.45,70.33 C73.07,70.01 73.71,69.7 74.36,69.41 C74.6113066,69.2973479 74.9063937,69.4091233 75.02,69.66 C75.0769381,69.7803336 75.0824646,69.9186545 75.0353083,70.0431471 C74.988152,70.1676397 74.8923724,70.2675871 74.77,70.32 C74.14,70.61 73.51,70.91 72.9,71.22 C72.8407915,71.2495885 72.7761033,71.2666117 72.71,71.27 L72.67,71.27 Z M115.35,70.21 C115.259096,70.207019 115.170113,70.1830618 115.09,70.14 C114.51,69.78 113.9,69.44 113.28,69.14 C113.034844,69.0152122 112.936538,68.7158268 113.06,68.47 C113.192372,68.2278368 113.490867,68.1312651 113.74,68.25 C114.37,68.58 115,68.93 115.61,69.25 C115.843953,69.3961704 115.919272,69.7018755 115.78,69.94 C115.701011,70.0875043 115.555868,70.1879876 115.39,70.21 L115.35,70.21 Z M3.76,69.79 C3.5633987,69.789332 3.38623246,69.6712212 3.31,69.49 C3.02,68.85 2.75,68.19 2.5,67.49 C2.41258466,67.318944 2.43089754,67.1129315 2.54711486,66.9599769 C2.66333219,66.8070222 2.85690259,66.7341731 3.04512746,66.7725528 C3.23335234,66.8109324 3.38294681,66.9537539 3.43,67.14 C3.68,67.79 3.94,68.43 4.22,69.06 C4.27348599,69.1819491 4.2761169,69.3201959 4.22730948,69.4440916 C4.17850206,69.5679874 4.08228887,69.6672956 3.96,69.72 C3.89985565,69.7589205 3.83128819,69.7829191 3.76,69.79 Z M76.54,69.54 C76.3389638,69.5363794 76.1588179,69.4149768 76.08,69.23 C76.0308104,69.1066845 76.0326845,68.9688686 76.0852092,68.8469363 C76.1377339,68.725004 76.2365962,68.6289676 76.36,68.58 C77.01,68.32 77.67,68.07 78.36,67.83 C78.6361424,67.738873 78.933873,67.8888576 79.025,68.165 C79.116127,68.4411424 78.9661424,68.738873 78.69,68.83 C78.03,69.06 77.38,69.3 76.69,69.56 C76.6393411,69.5599127 76.588912,69.5531888 76.54,69.54 L76.54,69.54 Z M111.64,68.28 C111.574073,68.294043 111.505927,68.294043 111.44,68.28 C110.33,67.81 109.61,67.6 109.6,67.59 C109.333764,67.5167084 109.168415,67.2512786 109.22,66.98 C109.239461,66.8571191 109.307865,66.747361 109.409611,66.6757625 C109.511356,66.604164 109.637764,66.5768316 109.76,66.6 L109.86,66.6 C110.540688,66.80305 111.208558,67.0468228 111.86,67.33 C112.136142,67.3824671 112.317467,67.6488576 112.265,67.925 C112.212533,68.2011424 111.946142,68.382467 111.67,68.33 L111.64,68.28 Z M80.51,68.15 C80.2338576,68.1886599 79.9786599,67.9961424 79.94,67.72 C79.9013401,67.4438576 80.0938576,67.1886599 80.37,67.15 C81.04,66.94 81.72,66.75 82.37,66.58 C82.4974891,66.5438571 82.6342482,66.5620268 82.7478774,66.6302043 C82.8615067,66.6983819 82.9418959,66.8105012 82.97,66.94 C83.0031706,67.0673705 82.9837051,67.2027304 82.9159877,67.3155926 C82.8482704,67.4284549 82.7379954,67.5093291 82.61,67.54 C81.93,67.72 81.27,67.9 80.61,68.1 C80.579241,68.1213829 80.5455617,68.1382226 80.51,68.15 L80.51,68.15 Z M107.59,67.15 L107.5,67.15 C106.8,67.02 106.12,66.9 105.44,66.8 C105.30864,66.7802716 105.190529,66.7090832 105.111732,66.6021448 C105.032935,66.4952064 104.99993,66.3613086 105.02,66.23 C105.039728,66.0986397 105.110917,65.9805287 105.217855,65.901732 C105.324794,65.8229353 105.458691,65.7899301 105.59,65.81 L107.68,66.17 C107.956142,66.1948528 108.159853,66.4388576 108.135,66.715 C108.110147,66.9911424 107.866142,67.1948528 107.59,67.17 L107.59,67.15 Z M84.59,67.1500051 C84.3553978,67.1510552 84.1516106,66.9888572 84.1,66.76 C84.0443192,66.4870527 84.2179527,66.2199241 84.49,66.16 C85.17,66.02 85.87,65.89 86.57,65.77 C86.8423685,65.727451 87.0992501,65.9090398 87.15,66.18 C87.192549,66.4523685 87.0109602,66.7092501 86.74,66.76 C86.05,66.87 85.36,67 84.74,67.14 L84.59,67.1500051 Z M103.43,66.53 L103.37,66.53 C102.67,66.44 101.98,66.36 101.29,66.3 C101.013858,66.2751472 100.810147,66.0311424 100.835,65.755 C100.859853,65.4788577 101.103858,65.2751472 101.38,65.3 C102.08,65.37 102.78,65.44 103.49,65.53 C103.766142,65.5465685 103.976569,65.7838576 103.96,66.06 C103.943431,66.3361424 103.706142,66.5465685 103.43,66.53 Z M88.74,66.46 C88.4873518,66.4574353 88.274666,66.2702718 88.24,66.02 C88.2045336,65.7467352 88.3968428,65.496286 88.67,65.46 C89.37,65.37 90.07,65.3 90.78,65.24 C90.9127443,65.2260549 91.045554,65.2657637 91.1488578,65.350285 C91.2521615,65.4348062 91.317383,65.5571229 91.33,65.69 C91.3410438,65.822704 91.2986957,65.9543313 91.2123441,66.0557005 C91.1259925,66.1570698 91.002772,66.2198057 90.87,66.23 C90.17,66.29 89.48,66.37 88.8,66.45 L88.74,66.46 Z M99.24,66.14 L99.24,66.14 L97.12,66 C96.8484064,65.9843471 96.6347809,65.7620023 96.63,65.49 C96.63258,65.3555962 96.6891717,65.2278929 96.7870073,65.1357017 C96.884843,65.0435104 97.01568,64.9945981 97.15,65 L99.27,65.09 C99.5461424,65.09 99.77,65.3138576 99.77,65.59 C99.77,65.8661424 99.5461424,66.09 99.27,66.09 L99.24,66.14 Z M92.93,66.14 C92.6631395,66.1456673 92.4408345,65.9367007 92.43,65.67 C92.4218003,65.537333 92.4667631,65.4068611 92.5549539,65.3074119 C92.6431447,65.2079627 92.7673044,65.1477221 92.9,65.14 C93.6,65.14 94.31,65.14 95.02,65.08 L95.02,65.08 C95.2961424,65.08 95.52,65.3038576 95.52,65.58 C95.52,65.8561424 95.2961424,66.08 95.02,66.08 C94.31,66.08 93.62,66.08 92.93,66.14 Z M2.28,65.95 C2.05945729,65.9546788 1.86297676,65.8114117 1.8,65.6 C1.59,64.93 1.39,64.24 1.22,63.55 C1.15692285,63.2798807 1.3213014,63.0088782 1.59,62.94 C1.71877308,62.9070906 1.85539054,62.9279045 1.96852116,62.9976684 C2.08165178,63.0674323 2.16158886,63.1801603 2.19,63.31 C2.36,63.98 2.55,64.65 2.75,65.31 C2.79387673,65.4359112 2.78454705,65.5742658 2.72416325,65.6931464 C2.66377946,65.812027 2.55755677,65.9011661 2.43,65.94 C2.37472563,65.9246878 2.32350902,65.8973723 2.28,65.86 L2.28,65.95 Z M1.28,61.87 C1.03777363,61.8732468 0.829528955,61.6990013 0.79,61.46 C0.66,60.75 0.56,60.04 0.48,59.34 C0.466054859,59.2072557 0.505763689,59.074446 0.590284964,58.9711422 C0.674806239,58.8678385 0.797122883,58.802617 0.93,58.79 C1.20305709,58.7607379 1.44860899,58.9571795 1.48,59.23 C1.55,59.91 1.65,60.6 1.77,61.23 C1.81865864,61.5003942 1.64003688,61.7593958 1.37,61.81 L1.28,61.87 Z M0.83,57.6900002 C0.561483231,57.6902149 0.340740588,57.478302 0.33,57.21 C0.33,56.88 0.33,56.56 0.33,56.21 C0.33,55.86 0.33,55.43 0.33,55.04 C0.335199517,54.907355 0.392933406,54.7822222 0.490476255,54.6921826 C0.588019105,54.6021431 0.717363498,54.5545883 0.85,54.56 C0.982644991,54.5651995 1.10777784,54.6229334 1.19781739,54.7204763 C1.28785694,54.8180191 1.33541174,54.9473635 1.33,55.08 C1.33,55.46 1.33,55.83 1.33,56.21 C1.33,56.59 1.33,56.83 1.33,57.14 C1.33541174,57.2726365 1.28785694,57.4019809 1.19781739,57.4995237 C1.10777784,57.5970666 0.982644991,57.6548005 0.85,57.66 L0.83,57.6900002 Z M1,53.4 L0.94,53.4 C0.806985878,53.385009 0.685536702,53.3173099 0.602837447,53.2120563 C0.520138193,53.1068027 0.483095161,52.9727845 0.5,52.84 C0.58,52.14 0.7,51.42 0.83,50.73 C0.885377935,50.4585479 1.14733328,50.2809511 1.42,50.33 C1.54996935,50.3564973 1.66408389,50.4335523 1.73722756,50.5442055 C1.81037124,50.6548588 1.83654927,50.7900413 1.81,50.92 C1.68,51.59 1.57,52.28 1.49,52.92 C1.47946145,53.1844745 1.2646356,53.3949162 1,53.4 Z M1.81,49.28 L1.68,49.28 C1.55159836,49.2472831 1.44192053,49.1639593 1.37597721,49.0490295 C1.31003389,48.9340997 1.29344737,48.7973628 1.33,48.67 C1.52,47.99 1.73,47.3 1.97,46.67 C2.06112698,46.3938576 2.35885763,46.243873 2.635,46.335 C2.91114237,46.426127 3.06112698,46.7238576 2.97,47 C2.73,47.66 2.52,48.32 2.34,49 C2.24506187,49.2006228 2.02923132,49.3146465 1.81,49.28 Z M3.22,45.28 C3.15407285,45.294043 3.08592715,45.294043 3.02,45.28 C2.76947004,45.1661703 2.65441837,44.8741161 2.76,44.62 C3.05,43.98 3.36,43.33 3.69,42.7 C3.75848303,42.5197366 3.92452329,42.394921 4.11671741,42.3792285 C4.30891153,42.3635361 4.49299976,42.459764 4.58981745,42.6265308 C4.68663514,42.7932976 4.67892396,43.0008761 4.57,43.16 C4.25,43.77 3.95,44.4 3.68,45.02 C3.60022344,45.2027944 3.41944323,45.3206945 3.22,45.3200031 L3.22,45.28 Z M5.16,41.55 C5.06842982,41.5519504 4.97821316,41.5276613 4.9,41.48 C4.78610273,41.4134398 4.70385498,41.3037661 4.67185972,41.1757851 C4.63986446,41.047804 4.66082484,40.9123283 4.73,40.8 C5.09,40.2 5.47,39.6 5.88,39 C6.03577095,38.7753006 6.34314178,38.7173901 6.57,38.87 C6.79940868,39.0263387 6.8616316,39.3374533 6.71,39.57 C6.31,40.15 5.94,40.73 5.59,41.31 C5.50913862,41.4753731 5.34394828,41.5829389 5.16,41.59 L5.16,41.55 Z M7.52,38.08 C7.32883364,38.0841445 7.15271902,37.9767095 7.06892981,37.8048342 C6.9851406,37.6329589 7.00898468,37.4280441 7.13,37.28 C7.55,36.73 7.99,36.17 8.46,35.62 C8.64472617,35.4452954 8.93114778,35.4370398 9.12563005,35.6008143 C9.32011232,35.7645889 9.36071985,36.0482375 9.22,36.26 C8.77,36.8 8.33,37.34 7.92,37.88 C7.83320942,38.0198626 7.68425084,38.1092378 7.52,38.12 L7.52,38.08 Z M10.23,34.87 C10.1032013,34.867233 9.98198291,34.8173196 9.89,34.73 C9.79593593,34.6378364 9.74292856,34.5116897 9.74292856,34.38 C9.74292856,34.2483103 9.79593593,34.1221636 9.89,34.03 C10.3633333,33.5233333 10.8533333,33.0133333 11.36,32.5 C11.4538833,32.4053437 11.5816812,32.3521008 11.715,32.3521008 C11.8483188,32.3521008 11.9761167,32.4053437 12.07,32.5 C12.1646563,32.5938833 12.2178992,32.7216812 12.2178992,32.855 C12.2178992,32.9883188 12.1646563,33.1161167 12.07,33.21 C11.57,33.71 11.09,34.21 10.63,34.71 C10.5336076,34.8335252 10.3866556,34.9070012 10.23,34.91 L10.23,34.87 Z M13.23,31.87 C13.0906373,31.8664264 12.9580565,31.8090942 12.86,31.71 C12.6682167,31.5121863 12.6682167,31.1978137 12.86,31 C13.37,30.53 13.86,30.06 14.44,29.59 C14.6498682,29.407746 14.967746,29.4301318 15.15,29.64 C15.332254,29.8498682 15.3098682,30.167746 15.1,30.35 C14.56,30.81 14.04,31.27 13.54,31.73 C13.4622827,31.8410775 13.3435387,31.9166418 13.21,31.94 L13.23,31.87 Z M16.42,29.12 C16.2688553,29.1497081 16.1126355,29.1050739 16,29 C15.914499,28.8987032 15.8736866,28.7670872 15.8868766,28.6351877 C15.9000665,28.5032881 15.9661333,28.38236 16.07,28.3 C16.61,27.87 17.17,27.43 17.74,27 C17.8783053,26.8642753 18.0825795,26.8206848 18.2642399,26.8881315 C18.4459004,26.9555782 18.5722327,27.1219157 18.5884535,27.3150127 C18.6046743,27.5081098 18.5078625,27.6931922 18.34,27.79 C17.78,28.22 17.23,28.65 16.7,29.08 C16.6143646,29.1478554 16.5092013,29.1864153 16.4,29.19 L16.42,29.12 Z M19.77,26.57 C19.6094729,26.5715777 19.4575723,26.4974798 19.36,26.37 C19.2021205,26.1451303 19.2507597,25.835608 19.47,25.67 C20.04,25.26 20.61,24.86 21.21,24.46 C21.4345718,24.342921 21.7112172,24.4122423 21.8540454,24.6213836 C21.9968737,24.8305249 21.9607725,25.1134292 21.77,25.28 C21.1766667,25.68 20.6066667,26.08 20.06,26.48 C19.9781731,26.5674382 19.8686743,26.6239537 19.75,26.64 L19.77,26.57 Z M23.24,24.21 C23.0704731,24.2079096 22.9130678,24.1217114 22.82,23.98 C22.6712942,23.7479663 22.7383836,23.4393549 22.97,23.29 C23.55,22.91 24.15,22.53 24.76,22.16 C24.8726561,22.0894893 25.0087491,22.0667312 25.1382168,22.0967526 C25.2676844,22.1267741 25.3798728,22.2071048 25.45,22.32 C25.5911276,22.5555669 25.5203989,22.8605842 25.29,23.01 C24.68,23.38 24.09,23.75 23.51,24.13 C23.4328414,24.2110419 23.330728,24.2638591 23.22,24.28 L23.24,24.21 Z M26.83,22 C26.6494161,22.0004429 26.4820621,21.9053554 26.39,21.75 C26.2534589,21.5123134 26.3337463,21.2090056 26.57,21.07 L28.4,20.01 C28.6402974,19.8751345 28.9444142,19.9601083 29.08,20.2 C29.1479789,20.3163155 29.1661423,20.4551419 29.1303758,20.585031 C29.0946092,20.7149201 29.0079396,20.8248794 28.89,20.89 C28.28,21.23 27.67,21.58 27.08,21.89 C27.0142237,21.9801516 26.9185155,22.0439571 26.81,22.07 L26.83,22 Z M30.47,20 C30.2861711,20.0027408 30.1162762,19.9023484 30.03,19.74 C29.902525,19.4964735 29.990978,19.1957333 30.23,19.06 L32.1,18.06 C32.2591239,17.951076 32.4667024,17.9433649 32.6334692,18.0401825 C32.800236,18.1370002 32.8964639,18.3210885 32.8807715,18.5132826 C32.865079,18.7054767 32.7402634,18.871517 32.56,18.94 L30.71,19.94 C30.6376046,19.9830777 30.5541502,20.0039413 30.47,20 Z M34.21,18.07 C34.0194726,18.0680551 33.8459187,17.960066 33.76,17.79 C33.6365378,17.5441732 33.7348435,17.2447878 33.98,17.12 L35.88,16.19 C36.0426927,16.097455 36.2434491,16.103527 36.4002513,16.2057353 C36.5570536,16.3079436 36.6436394,16.4891697 36.6246346,16.6753747 C36.6056298,16.8615797 36.4842175,17.0215768 36.31,17.09 L34.43,18 C34.3638096,18.0416557 34.2880915,18.0657478 34.21,18.07 Z M38,16.24 C37.7683952,16.2363779 37.5696007,16.0741553 37.5196045,15.8479822 C37.4696084,15.621809 37.5815018,15.3909081 37.79,15.29 L39.71,14.41 C39.9570873,14.3165362 40.2342479,14.4314146 40.3427654,14.6722705 C40.4512829,14.9131264 40.3537084,15.1968415 40.12,15.32 L38.21,16.2 C38.1435258,16.2277335 38.0720148,16.2413546 38,16.24 L38,16.24 Z M41.84,14.5200031 C41.6405568,14.5206945 41.4597766,14.4027944 41.38,14.22 C41.2744184,13.9658839 41.38947,13.6738297 41.64,13.56 L43.58,12.73 C43.7458239,12.6519963 43.9410335,12.6709563 44.0887471,12.7794128 C44.2364608,12.8878693 44.3130082,13.0684427 44.2882418,13.2500158 C44.2634755,13.4315888 44.141364,13.5850653 43.97,13.65 L42,14.48 C41.9493739,14.5024646 41.8952417,14.5159976 41.84,14.5200031 Z M45.72,12.89 C45.5181491,12.8889924 45.3367018,12.7667128 45.26,12.58 C45.2074268,12.4582174 45.2064732,12.3203233 45.257357,12.1978252 C45.3082408,12.0753271 45.4066143,11.978692 45.53,11.93 L47.53,11.14 C47.7867093,11.0433457 48.073888,11.1670534 48.18,11.42 C48.2291896,11.5433155 48.2273155,11.6811314 48.1747908,11.8030637 C48.1222661,11.924996 48.0234038,12.0210324 47.9,12.07 L45.9,12.85 C45.8435983,12.8761923 45.7821865,12.8898394 45.72,12.89 L45.72,12.89 Z M49.64,11.35 C49.4312906,11.3443304 49.2462103,11.2143804 49.17,11.02 C49.0752166,10.7632517 49.2044663,10.4780109 49.46,10.38 L51.46,9.63 C51.7195684,9.53623096 52.0060233,9.67050673 52.1,9.93 C52.148352,10.0531959 52.1448141,10.1907119 52.0901914,10.3112586 C52.0355686,10.4318053 51.9345066,10.5251306 51.81,10.57 L49.81,11.31 C49.7563299,11.3338368 49.698668,11.3474043 49.64,11.35 Z M53.58,9.88 C53.3712906,9.87433037 53.1862103,9.74438038 53.11,9.55 C53.016231,9.29043163 53.1505067,9.00397666 53.41,8.91 L55.41,8.2 C55.6720774,8.11303695 55.9557656,8.25044844 56.05,8.51 C56.136297,8.76943643 55.9982028,9.05007936 55.74,9.14 L53.74,9.85 C53.6888176,9.8692304 53.6346723,9.87938264 53.58,9.88 L53.58,9.88 Z M57.58,8.48 C57.3038576,8.52418276 57.0441828,8.33614236 57,8.06 C56.9558172,7.78385763 57.1438576,7.52418279 57.42,7.48 L59.42,6.8 C59.681845,6.72034042 59.9598846,6.86156692 60.05,7.12 C60.0938767,7.24591121 60.084547,7.38426581 60.0241633,7.50314641 C59.9637795,7.62202701 59.8575568,7.71116612 59.73,7.75 L57.73,8.43 L57.58,8.48 Z M61.58,7.15 C61.3594573,7.15467875 61.1629768,7.0114117 61.1,6.8 C61.0146043,6.53768092 61.1578007,6.25576289 61.42,6.17 L63.42,5.53 C63.5986328,5.47641015 63.7922862,5.52219055 63.9280127,5.65009617 C64.0637393,5.77800179 64.120919,5.96860073 64.0780127,6.15009619 C64.0351065,6.33159166 63.8986328,6.47641017 63.72,6.53 L61.72,7.18 L61.58,7.15 Z M65.58,5.88 C65.361553,5.87817617 65.1685272,5.73742813 65.1,5.53 C65.0212829,5.26528924 65.1675697,4.98601453 65.43,4.9 L67.43,4.29 C67.6086328,4.23819649 67.8013331,4.28562753 67.9355127,4.41442632 C68.0696923,4.5432251 68.1249659,4.73382402 68.0805127,4.91442632 C68.0360595,5.09502861 67.8986328,5.23819649 67.72,5.29 L65.72,5.91 L65.58,5.88 Z M69.58,4.67 C69.3577778,4.67 69.1622222,4.52333333 69.1,4.31 C69.0599968,4.182675 69.0736602,4.04454168 69.1378327,3.92752117 C69.2020053,3.81050067 69.3111338,3.72471922 69.44,3.69 L71.44,3.1 C71.567325,3.05999679 71.7054583,3.07366019 71.8224788,3.13783273 C71.9394993,3.20200526 72.0252808,3.31113383 72.06,3.44 C72.1315871,3.70444174 71.9814625,3.97819833 71.72,4.06 L69.72,4.64 C69.6789911,4.65824302 69.6348561,4.66842803 69.59,4.67 L69.58,4.67 Z M73.58,3.5 C73.3588691,3.49676547 73.1650218,3.35138 73.1,3.14 C73.063231,3.01134697 73.0795616,2.8733242 73.145339,2.75680425 C73.2111163,2.64028431 73.3208518,2.5549901 73.45,2.52 L75.45,1.96 C75.578653,1.92323099 75.7166758,1.93956157 75.8331957,2.00533896 C75.9497157,2.07111635 76.0350099,2.18085181 76.07,2.31 C76.1402078,2.57488962 75.9841159,2.84693547 75.72,2.92 L73.72,3.48 C73.6911227,3.49097603 73.6608081,3.4977126 73.63,3.5 L73.58,3.5 Z M77.64,2.39 C77.4149675,2.3887369 77.2185058,2.23729769 77.16,2.02 C77.0899893,1.74962284 77.2504765,1.47322824 77.52,1.4 L79.32,0.92 C79.5870934,0.856204801 79.8567464,1.01534428 79.93,1.28 C79.9633881,1.40864056 79.9441873,1.54528086 79.876639,1.65973776 C79.8090906,1.77419465 79.6987533,1.85704947 79.57,1.89 L77.78,2.37 L77.64,2.39 Z" id="Shape"></path>
                                    </g>
                                    <polygon id="Path" fill="#DAE1E7" points="40.48 118.55 38.5 118.55 38.5 116.55 37.17 116.55 37.17 118.55 35.19 118.55 35.19 119.88 37.17 119.88 37.17 121.89 38.5 121.89 38.5 119.88 40.48 119.88"></polygon>
                                </g>
                                <g id="Oval" transform="translate(111.000000, 0.000000)" fill-rule="nonzero">
                                    <circle fill="#FFFFFF" cx="3.81" cy="4.29" r="3.29"></circle>
                                    <path d="M3.81,8.08 C1.7168408,8.08 0.02,6.3831592 0.02,4.29 C0.02,2.1968408 1.7168408,0.5 3.81,0.5 C5.9031592,0.5 7.6,2.1968408 7.6,4.29 C7.6,6.3831592 5.9031592,8.08 3.81,8.08 L3.81,8.08 Z M3.81,1.5 C2.26912555,1.5 1.02,2.74912555 1.02,4.29 C1.02,5.83087445 2.26912555,7.08 3.81,7.08 C5.35087445,7.08 6.6,5.83087445 6.6,4.29 C6.6,3.55004599 6.30605442,2.84039858 5.78282792,2.31717208 C5.25960142,1.79394558 4.54995401,1.5 3.81,1.5 Z" id="Shape" fill="#b4975a"></path>
                                </g>
                            </g>
                        </g>
                        <polygon id="Path" fill="#D2583C" fill-rule="nonzero" points="138.78 70.77 138.68 70.77 138.68 70.77 138.77 70.77"></polygon>
                        <polygon id="Path" fill="#D2583C" fill-rule="nonzero" points="135.75 70.12 135.7 70.12 135.61 70.21 135.71 70.21"></polygon>
                        <polygon id="Path" fill="#D2583C" fill-rule="nonzero" points="138.81 72.42 138.73 72.42 138.73 72.42"></polygon>
                        <polygon id="Path" fill="#D2583C" fill-rule="nonzero" points="144.45 72.79 144.45 72.73 144.34 72.73 144.34 72.73"></polygon>
                        <polygon id="Path" fill="#D2583C" fill-rule="nonzero" points="144.58 72.77 144.56 72.76 144.57 72.79"></polygon>
                        <polygon id="Path" fill="#D2583C" fill-rule="nonzero" points="140.67 70.83 140.67 70.74 140.67 70.74"></polygon>
                        <path d="M144.23,72.45 C144.23,72.45 144.23,72.45 144.23,72.45 L144.23,72.45 L144.23,72.45 C144.23,72.45 144.24,72.46 144.23,72.45 Z" id="Path" fill="#D2583C" fill-rule="nonzero"></path>
                        <polygon id="Path" fill="#D2583C" fill-rule="nonzero" points="141.73 71.34 141.63 71.28 141.63 71.28 141.74 71.28"></polygon>
                        <polygon id="Path" fill="#D2583C" fill-rule="nonzero" points="141.35 72.68 141.5 72.68 141.5 72.62 141.34 72.62"></polygon>
                        <polygon id="Path" fill="#D2583C" fill-rule="nonzero" points="134.3 79.86 134.3 79.79 134.19 79.79 134.19 79.79"></polygon>
                        <polygon id="Path" fill="#D2583C" fill-rule="nonzero" points="134.44 79.83 134.42 79.82 134.42 79.85"></polygon>
                        <path d="M134.09,79.51 L134.09,79.51 L134.09,79.51 L134.09,79.51 C134.09,79.51 134.09,79.52 134.09,79.51 Z" id="Path" fill="#D2583C" fill-rule="nonzero"></path>
                        <path d="M115.7,67.15 L115.48,67.08 C115.534216,67.1430279 115.619331,67.1701099 115.7,67.15 L115.7,67.15 Z" id="Path" fill="#D2583C" fill-rule="nonzero"></path>
                        <path d="M118.9,68.13 L118.54,68.02 C118.641089,68.1021631 118.770252,68.1416297 118.9,68.13 L118.9,68.13 Z" id="Path" fill="#D2583C" fill-rule="nonzero"></path>
                        <path d="M76.55,99.83 C76.55,99.83 76.55,99.83 76.55,99.83 C76.5533128,99.7934082 76.5533128,99.7565918 76.55,99.72 L76.48,99.72 L76.55,99.83 Z" id="Path" fill="#D2583C" fill-rule="nonzero"></path>
                        <polygon id="Path" fill="#D2583C" fill-rule="nonzero" points="91.35 104.33 91.35 104.27 91.25 104.27 91.25 104.27"></polygon>
                        <path d="M152.05,112.79 C153.051688,109.48127 155.330005,106.70778 158.381263,105.082695 C161.432521,103.457609 165.005396,103.11478 168.31,104.13 L173.68,86.52 C173.86339,85.9325473 173.803706,85.296103 173.514295,84.752988 C173.224885,84.209873 172.729889,83.8053939 172.14,83.63 L50.53,46.52 C49.306946,46.1498362 48.0148307,46.8383682 47.64,48.06 L42.27,65.67 C49.1514678,67.7714436 53.0264432,75.053532 50.9249997,81.9349999 C48.8235563,88.8164678 41.5414679,92.6914433 34.66,90.59 L29.29,108.2 C28.9203682,109.42051 29.609705,110.709659 30.83,111.08 L152.44,148.19 C153.026119,148.373776 153.661398,148.315467 154.204269,148.028064 C154.747141,147.740661 155.152494,147.248049 155.33,146.66 L160.71,129.05 C157.40127,128.048312 154.62778,125.769995 153.002695,122.718737 C151.377609,119.667479 151.03478,116.094604 152.05,112.79 Z" id="Path" fill="#b4975a" fill-rule="nonzero"></path>
                        <path d="M153.12,149.290463 C152.781409,149.295717 152.444004,149.24848 152.12,149.15 L30.54,112 C29.6822582,111.757394 28.9601991,111.176137 28.54,110.39 C28.1242823,109.613242 28.0343473,108.703099 28.29,107.86 L34,89.34 L35,89.63 C41.3512746,91.5629966 48.0670034,87.9812746 50,81.63 C51.9329966,75.2787254 48.3512746,68.5629966 42,66.63 L41.05,66.33 L46.71,47.77 C46.9560069,46.9110068 47.5408162,46.1890199 48.33,45.77 C49.1030417,45.3527082 50.012086,45.2661325 50.85,45.53 L172.47,82.63 C174.215109,83.1725321 175.196915,85.0201126 174.67,86.77 L169,105.38 L168.05,105.09 C165.000002,104.155951 161.703621,104.474677 158.889076,105.975768 C156.074531,107.476859 153.973453,110.036777 153.05,113.09 L153.05,113.09 C152.115951,116.139998 152.434677,119.436379 153.935768,122.250924 C155.436859,125.065469 157.996777,127.166547 161.05,128.09 L162.05,128.38 L156.29,147 C155.842696,148.370697 154.561824,149.295996 153.12,149.290463 Z M35.34,91.8 L30.25,108.49 C30.143725,108.82181 30.176187,109.182498 30.34,109.49 C30.504122,109.798918 30.7849787,110.029365 31.12,110.13 L152.74,147.24 C153.073684,147.337661 153.432263,147.301803 153.74,147.14 C154.048918,146.975878 154.279365,146.695021 154.38,146.36 L159.47,129.68 C152.609899,127.024473 148.956355,119.529912 151.09,112.49 L151.09,112.49 C153.230737,105.448308 160.458244,101.266492 167.63,102.92 L172.73,86.23 C172.832475,85.8958219 172.79715,85.534549 172.631883,85.2265508 C172.466615,84.9185527 172.185113,84.6893746 171.85,84.59 L50.24,47.48 C49.5472971,47.2716555 48.8159452,47.6596287 48.6,48.35 L43.5,65 C48.2873589,66.4576436 51.9334174,70.3585874 53.0647404,75.2333836 C54.1960635,80.1081799 52.6407763,85.216231 48.9847404,88.6333836 C45.3287046,92.0505363 40.1273589,93.2576436 35.34,91.8 Z" id="Shape" fill="#5B4029" fill-rule="nonzero"></path>
                        <path d="M106.11,72.94 L105.9,72.87 C105.951022,72.9313273 106.032386,72.9584489 106.11,72.94 L106.11,72.94 Z" id="Path" fill="#D2583C" fill-rule="nonzero"></path>
                        <path d="M109.31,73.92 L108.96,73.81 C109.057499,73.891565 109.18337,73.9311247 109.31,73.92 L109.31,73.92 Z" id="Path" fill="#D2583C" fill-rule="nonzero"></path>
                        <polygon id="Path" fill="#D2583C" fill-rule="nonzero" points="115.19 76.38 115.1 76.38 115.1 76.38 115.18 76.38"></polygon>
                        <polygon id="Path" fill="#D2583C" fill-rule="nonzero" points="112.49 75.61 112.49 75.61 112.4 75.68 112.48 75.68"></polygon>
                        <polygon id="Path" fill="#D2583C" fill-rule="nonzero" points="115.12 77.87 115.05 77.87 115.05 77.87"></polygon>
                        <polygon id="Path" fill="#D2583C" fill-rule="nonzero" points="116.89 76.54 116.89 76.46 116.89 76.46"></polygon>
                        <polygon id="Path" fill="#D2583C" fill-rule="nonzero" points="117.83 77.07 117.73 77.01 117.73 77.01 117.83 77.01"></polygon>
                        <rect id="Rectangle" fill="#FFFFFF" fill-rule="nonzero" transform="translate(101.491032, 95.736105) rotate(-73.140000) translate(-101.491032, -95.736105) " x="82.2210317" y="55.9311046" width="38.54" height="79.61" rx="3.58"></rect>
                        <path d="M131.61,125.83 C131.159328,125.827997 130.71133,125.760629 130.28,125.63 L61,104.62 C58.5817002,103.883991 57.2136674,101.331224 57.94,98.91 L67.04,68.91 C67.3912244,67.7469 68.1902031,66.7710158 69.2610941,66.1971233 C70.3319851,65.6232307 71.5870248,65.4983625 72.75,65.85 L142.09,86.85 C143.252809,87.2010116 144.228046,88.0004899 144.800319,89.071861 C145.372593,90.143232 145.494818,91.3983473 145.14,92.56 L136.05,122.56 C135.455878,124.488947 133.67834,125.808941 131.66,125.82 L131.61,125.83 Z M71.38,67.63 C70.2419091,67.6314731 69.2370493,68.3729624 68.9,69.46 L59.8,99.46 C59.3916911,100.826587 60.1650955,102.266102 61.53,102.68 L130.86,123.68 C131.527064,123.878557 132.245464,123.806717 132.86,123.48 C133.463886,123.156928 133.913841,122.606182 134.11,121.95 L143.21,91.95 C143.619103,90.586363 142.850881,89.1481802 141.49,88.73 L72.15,67.73 C71.9003888,67.6554393 71.640376,67.6216714 71.38,67.63 L71.38,67.63 Z" id="Shape" fill="#5B4029" fill-rule="nonzero"></path>
                        <polygon id="Path" fill="#D2583C" fill-rule="nonzero" points="81.76 110.12 81.76 110.06 81.66 110.06 81.66 110.06"></polygon>
                        <line x1="81.73" y1="84.4" x2="123.92" y2="97.18" id="Path" fill="#DDF5FF" fill-rule="nonzero"></line>
                        <path d="M90.78,100.38 C90.6838469,100.394091 90.5861531,100.394091 90.49,100.38 L86.66,99.23 C86.1298067,99.0698374 85.8298375,98.5101934 85.99,97.98 C86.1501626,97.4498067 86.7098066,97.1498374 87.24,97.31 L91.07,98.47 C91.3250492,98.5462536 91.5391681,98.7210531 91.6649275,98.9556788 C91.7906869,99.1903046 91.8177061,99.4653896 91.74,99.72 C91.5944178,100.122929 91.2083412,100.388357 90.78,100.38 L90.78,100.38 Z" id="Path" fill="#5A9CAE" fill-rule="nonzero"></path>
                        <path d="M104.37,104.5 C104.273928,104.515164 104.176072,104.515164 104.08,104.5 L94.19,101.5 C93.847025,101.396393 93.5853768,101.117681 93.5036156,100.768853 C93.4218544,100.420024 93.5324018,100.054074 93.7936156,99.8088526 C94.0548294,99.5636311 94.427025,99.476393 94.77,99.58 L104.66,102.58 C105.212285,102.660081 105.595081,103.172715 105.515,103.725 C105.434919,104.277285 104.922285,104.660081 104.37,104.58 L104.37,104.5 Z" id="Path" fill="#5A9CAE" fill-rule="nonzero"></path>
                        <path d="M111.9,106.78 C111.803847,106.794091 111.706153,106.794091 111.61,106.78 L107.78,105.62 C107.249807,105.459837 106.949837,104.900193 107.11,104.37 C107.270163,103.839807 107.829807,103.539837 108.36,103.7 L112.19,104.86 C112.742285,104.940081 113.125081,105.452715 113.045,106.005 C112.964919,106.557285 112.452285,106.940081 111.9,106.86 L111.9,106.78 Z" id="Path" fill="#5A9CAE" fill-rule="nonzero"></path>
                        <path d="M112.3,84.83 L112.08,84.83 C112.146746,84.8739561 112.233254,84.8739561 112.3,84.83 L112.3,84.83 Z" id="Path" fill="#D2583C" fill-rule="nonzero"></path>
                        <path d="M115.65,84.83 L115.27,84.83 C115.390747,84.8847637 115.529253,84.8847637 115.65,84.83 Z" id="Path" fill="#D2583C" fill-rule="nonzero"></path>
                        <path d="M84.31,127.46 L84.31,127.41 C84.2890647,127.375051 84.2656725,127.341633 84.24,127.31 L84.19,127.37 L84.31,127.46 Z" id="Path" fill="#D2583C" fill-rule="nonzero"></path>
                        <polygon id="Path" fill="#D2583C" fill-rule="nonzero" points="99.78 127.47 99.78 127.42 99.69 127.42 99.69 127.42"></polygon>
                        <g id="Group" opacity="0.2" transform="translate(40.000000, 81.000000)" fill="#5B4029" fill-rule="nonzero">
                            <path d="M127.6,1.22 L12,0.79 L12,0.79 C10.6,3.63 10.57,6.51 5.63,7.85 L4.63,7.54 C3.52321128,8.60953651 2.09060431,9.27832109 0.56,9.44 L0.56,9.44 L0.44,26.12 C0.44,26.12 11.54,25.7 13.44,34.22 L15.92,35.02 L95.35,35.15 L132.66,10.81 L132.09,3.27 C132.24,2.55 130.46,2.27 129.77,1.99 L127.6,1.22 Z" id="Path"></path>
                        </g>
                        <path d="M156,118.16 C156.005276,114.986359 157.273814,111.945393 159.525413,109.708805 C161.777011,107.472217 164.826395,106.224048 168,106.24 L168,89.36 C168,88.797741 167.776643,88.2585107 167.379066,87.8609336 C166.981489,87.4633565 166.442259,87.24 165.88,87.24 L49.32,86.9999763 C48.7586626,86.9973396 48.2194032,87.2184675 47.821536,87.614458 C47.4236688,88.0104485 47.1999763,88.5486563 47.1999763,89.11 L47.1999763,105.99 C53.7942799,105.99 59.14,111.33572 59.14,117.93 C59.14,124.52428 53.7942799,129.87 47.1999763,129.87 L47.1999763,146.75 C47.1973396,147.311337 47.4184675,147.850597 47.814458,148.248464 C48.2104485,148.646331 48.7486563,148.870006 49.31,148.87 L165.87,149.1 C167.040223,149.094583 167.989076,148.150185 168,146.98 L168,130.1 C164.822932,130.115965 161.77051,128.865056 159.518332,126.624139 C157.266154,124.383222 155.99996,121.337108 156,118.16 L156,118.16 Z" id="Path" fill="#FFFFFF" fill-rule="nonzero"></path>
                        <path d="M161.11,119.31 C161.164929,112.169381 166.96917,106.409789 174.11,106.41 L174.11,88.15 C174.11,87.5382655 173.866313,86.9517309 173.432814,86.5201086 C172.999315,86.0884863 172.411729,85.8473403 171.8,85.85 L44.73,85.5999775 C43.4580956,85.5944463 42.4210001,86.6181311 42.41,87.89 L41.7495022,104.82 C41.7285816,105.7249 42.4007484,106.496807 43.3,106.6 C49.78,107.35 55.05,112.51 55.03,119.11 C55.0891168,122.513456 53.776257,125.797545 51.3872239,128.222319 C48.9981908,130.647094 45.733959,132.008573 42.33,132 L42.33,150.27 C42.3299942,150.881734 42.5736872,151.468269 43.0071861,151.899891 C43.440685,152.331514 44.0282713,152.57266 44.64,152.57 L171.79,152.810087 C172.401726,152.815325 172.990371,152.57673 173.425749,152.146982 C173.861127,151.717234 174.107363,151.131744 174.11,150.52 L174.11,132.26 C166.949779,132.260053 161.137539,126.470168 161.11,119.31 Z" id="Path" fill="#b4975a" fill-rule="nonzero"></path>
                        <path d="M171.59,154.58 L171.59,154.58 L44.44,154.34 C43.5568279,154.337352 42.7108806,153.983971 42.0882589,153.357599 C41.4656373,152.731227 41.1173438,151.883172 41.1199849,151 L41.1199849,131.58 L42.12,131.58 C48.7612241,131.58 54.145,126.196224 54.145,119.555 C54.145,112.913776 48.7612241,107.53 42.12,107.53 L41.1199849,107.53 L41.1199849,88.12 C41.1309674,86.2926004 42.6125756,84.8154549 44.44,84.81 L44.44,84.81 L171.6,85.06 C172.500207,85.029773 173.373443,85.3699422 174.015989,86.0011489 C174.658535,86.6323557 175.014196,87.4993971 175.000409,88.4 L175.000409,107.81 L174,107.81 C167.358776,107.81 161.975,113.193776 161.975,119.835 C161.975,126.476224 167.358776,131.86 174,131.86 L175.000409,131.86 L175.000409,151.27 C175.000409,153.098063 173.518063,154.58 171.69,154.58 L171.59,154.58 Z M43.16,133.58 L43.16,151.03 C43.1653541,151.752902 43.7471592,152.339149 44.47,152.35 L171.63,152.59 C172.353493,152.59 172.94,152.003493 172.94,151.28 L172.94,133.83 C165.208014,133.816193 158.951193,127.536986 158.965,119.805 C158.978807,112.073014 165.258014,105.816193 172.990051,105.83 L172.990051,88.38 C172.993075,88.0316036 172.856172,87.6965535 172.61,87.45 C172.36101,87.2075208 172.027549,87.071268 171.68,87.07 L44.56,86.83 L44.56,86.83 C43.8332511,86.835444 43.245444,87.4232511 43.24,88.15 L43.24,105.59 C50.9719865,105.603807 57.2288071,111.883014 57.215,119.615 C57.2011929,127.346986 50.9219865,133.603807 43.19,133.59 L43.16,133.58 Z" id="Shape" fill="#5B4029" fill-rule="nonzero"></path>
                        <path d="M104.81,93.15 L104.58,93.15 C104.649852,93.1957162 104.740148,93.1957162 104.81,93.15 L104.81,93.15 Z" id="Path" fill="#D2583C" fill-rule="nonzero"></path>
                        <path d="M108.15,93.15 L107.78,93.15 C107.89734,93.204376 108.03266,93.204376 108.15,93.15 L108.15,93.15 Z" id="Path" fill="#D2583C" fill-rule="nonzero"></path>
                        <polygon id="Path" fill="#D2583C" fill-rule="nonzero" points="114.49 93.81 114.4 93.81 114.4 93.81"></polygon>
                        <polygon id="Path" fill="#D2583C" fill-rule="nonzero" points="111.69 93.86 111.69 93.86 111.62 93.96 111.72 93.96"></polygon>
                        <polygon id="Path" fill="#D2583C" fill-rule="nonzero" points="114.85 95.25 114.78 95.25 114.78 95.25"></polygon>
                        <polygon id="Path" fill="#D2583C" fill-rule="nonzero" points="116.17 93.47 116.17 93.39 116.17 93.39 116.17 93.48"></polygon>
                        <polygon id="Path" fill="#D2583C" fill-rule="nonzero" points="117.22 93.7 117.11 93.7 117.11 93.7"></polygon>
                        <rect id="Rectangle" fill="#FFFFFF" fill-rule="nonzero" x="67.8" y="98.88" width="79.61" height="38.54" rx="3.58"></rect>
                        <path d="M143.83,138.41 L71.38,138.41 C68.8505358,138.41 66.8,136.359464 66.8,133.83 L66.8,102.46 C66.8,99.9305358 68.8505358,97.88 71.38,97.88 L143.83,97.88 C146.359464,97.88 148.41,99.9305358 148.41,102.46 L148.41,133.83 C148.41,136.359464 146.359464,138.41 143.83,138.41 L143.83,138.41 Z M71.38,99.88 C69.9551053,99.88 68.8,101.035105 68.8,102.46 L68.8,133.83 C68.8,135.254895 69.9551053,136.41 71.38,136.41 L143.83,136.41 C144.514259,136.41 145.170492,136.138179 145.654335,135.654335 C146.138179,135.170492 146.41,134.514259 146.41,133.83 L146.41,102.46 C146.41,101.775741 146.138179,101.119508 145.654335,100.635665 C145.170492,100.151821 144.514259,99.88 143.83,99.88 L71.38,99.88 Z" id="Shape" fill="#5B4029" fill-rule="nonzero"></path>
                        <polygon id="Path" fill="#D2583C" fill-rule="nonzero" points="92.28 135.79 92.28 135.79 92.19 135.79 92.19 135.84"></polygon>
                        <path d="M131.35,113.2 L83.26,113.2 C82.7077153,113.2 82.26,112.752285 82.26,112.2 C82.26,111.647715 82.7077153,111.2 83.26,111.2 L131.35,111.2 C131.902285,111.2 132.35,111.647715 132.35,112.2 C132.35,112.752285 131.902285,113.2 131.35,113.2 L131.35,113.2 Z" id="Path" fill="#5B4029" fill-rule="nonzero"></path>
                        <path d="M121.52,126 L93.08,126 C92.5277153,126 92.08,125.552285 92.08,125 C92.08,124.447715 92.5277153,124 93.08,124 L121.52,124 C122.072285,124 122.52,124.447715 122.52,125 C122.52,125.552285 122.072285,126 121.52,126 Z" id="Path" fill="#5B4029" fill-rule="nonzero"></path>
                    </g>
                </g>
            </g>
        </g>
    </g>
</svg>