<svg width="59" height="58" viewBox="0 0 59 58" fill="none" xmlns="http://www.w3.org/2000/svg">
	<path d="M16.116 29.6845H9.49023C8.93795 29.6845 8.49023 30.1323 8.49023 30.6845V32.0607M16.116 46.4612H13.4902C10.7288 46.4612 8.49023 44.2226 8.49023 41.4612V37.6087M16.116 46.4612V13.8743C16.116 12.2175 17.4591 10.8743 19.116 10.8743H35.4849C37.1418 10.8743 38.4849 12.2175 38.4849 13.8743V23.5839M16.116 46.4612H34.4178" stroke="black" stroke-width="1.5" stroke-linecap="round"/>
	<mask id="path-2-inside-1_1_43" fill="white">
	<rect x="19.6738" y="14.9414" width="15.2515" height="6.10061" rx="1"/>
	</mask>
	<rect x="19.6738" y="14.9414" width="15.2515" height="6.10061" rx="1" stroke="black" stroke-width="3" mask="url(#path-2-inside-1_1_43)"/>
	<path d="M20.6914 24.0923L33.9094 24.0923" stroke="black" stroke-width="1.5" stroke-linecap="round"/>
	<path d="M20.6914 28.1594L29.8423 28.1594" stroke="black" stroke-width="1.5" stroke-linecap="round"/>
	<path d="M20.6914 42.3942L24.7585 42.3942" stroke="black" stroke-width="1.5" stroke-linecap="round"/>
	<path d="M43.3137 36.2935C43.3137 35.0277 42.2919 34.0058 41.026 34.0058C39.7601 34.0058 38.7383 35.0277 38.7383 36.2935C38.7383 37.5594 39.7601 38.5813 41.026 38.5813C41.3387 38.5813 41.6437 38.5202 41.9182 38.3982" stroke="black" stroke-width="1.3" stroke-miterlimit="10" stroke-linecap="round" stroke-linejoin="round"/>
	<path d="M37.1211 42.8364L37.9523 43.3169C38.5547 43.6753 39.3326 43.4618 39.691 42.8593L39.7749 42.7144C40.4612 41.5172 41.5898 41.5172 42.2837 42.7144L42.3676 42.8593C42.726 43.4618 43.5039 43.6753 44.1063 43.3169L45.4255 42.5619C46.1195 42.1654 46.3559 41.2732 45.9594 40.5868C45.2654 39.3896 45.8297 38.4135 47.21 38.4135C48.0031 38.4135 48.6589 37.7653 48.6589 36.9646V35.6225C48.6589 34.8294 48.0107 34.1736 47.21 34.1736C46.4398 34.1736 45.9212 33.8685 45.7382 33.3881C45.5933 33.0145 45.6543 32.5264 45.9594 32.0002C46.3559 31.3063 46.1195 30.4217 45.4255 30.0252L44.8079 29.6744" stroke="black" stroke-width="1.3" stroke-miterlimit="10" stroke-linecap="round" stroke-linejoin="round"/>
	<path d="M42.2768 29.8726C41.5905 31.0699 40.4618 31.0699 39.7679 29.8726L39.684 29.7277C39.3332 29.1253 38.5554 28.9118 37.953 29.2702L36.6337 30.0251C35.9398 30.4217 35.7034 31.3139 36.0999 32.0078C36.7939 33.1975 36.2295 34.1736 34.8493 34.1736C34.0562 34.1736 33.4004 34.8218 33.4004 35.6225V36.9646C33.4004 37.7577 34.0486 38.4135 34.8493 38.4135C36.2295 38.4135 36.7939 39.3896 36.0999 40.5868" stroke="black" stroke-width="1.3" stroke-miterlimit="10" stroke-linecap="round" stroke-linejoin="round"/>
</svg>