<svg version="1.2" xmlns="http://www.w3.org/2000/svg" viewBox="0 0 48 48" width="48" height="48"><style>.a{fill:#fff}.b{fill:#f6e8c8}.c{fill:#b4975a}.d{fill:#525666}</style><g style="opacity:0"><path class="a" d="m0 0h47.7v47.9h-47.7z"/></g><path class="b" d="m42.7 13.9c-1.7-6.8-8-11.5-15-11.3-7 0.2-13 5.2-14.5 12.1-0.5 2.4-1.7 4.5-3.6 6.2-4.5 3.8-6.1 10.1-4 15.6 2.1 5.6 7.5 9.2 13.4 9.2 5.9-0.1 11.2-3.9 13.2-9.5 0.8-2.4 2.4-4.5 4.5-5.9 5.3-3.6 7.7-10.2 6-16.4z"/><path class="c" d="m7.7 36.5c-0.7 0-1.2-0.5-1.2-1.2 0-0.7 0.5-1.2 1.2-1.2 0.7 0 1.2 0.5 1.2 1.2 0 0.7-0.5 1.2-1.2 1.2z"/><path class="d" d="m16.3 40.7c-1 0-2-0.4-2.7-1.2-0.8-0.7-1.2-1.7-1.2-2.7 0.1-3.9 3.2-7 7.1-7h1.1c0.1-0.1 0.3 0 0.4 0.1 0 0.1 0 0.3 0 0.4-0.1 0.1-0.3 0.2-0.4 0.2h-1.1c-3.5 0-6.4 2.8-6.4 6.3 0 0.8 0.4 1.6 1 2.2 0.6 0.6 1.4 1 2.2 1l25.2-0.1c0.2 0 0.3 0.2 0.3 0.3 0 0.2-0.1 0.4-0.3 0.4z"/><path class="a" d="m37 34h-20.9c-0.5 0-0.9-0.3-0.9-0.8l-2.4-19.1h33.6c0.2 0 0.4 0.1 0.6 0.3 0.1 0.2 0.1 0.4 0.1 0.6l-4.7 15.1c-0.7 2.3-2.9 3.9-5.4 3.9z"/><path class="c" d="m36.1 34h-20.2c-0.4 0-0.8-0.3-0.8-0.8l-2.3-19.1h32.2c0.3 0 0.5 0.1 0.6 0.3 0.1 0.2 0.1 0.4 0.1 0.6l-4.5 15.1c-0.7 2.3-2.7 3.9-5.1 3.9z"/><path class="d" d="m28.9 34.1h-12.9c-0.6 0-1.2-0.5-1.2-1.1l-2.4-19.1q0-0.2 0.1-0.3 0.1-0.1 0.2-0.1h16.1c0.1-0.1 0.3 0 0.4 0.1 0 0.1 0 0.3 0 0.4-0.1 0.1-0.3 0.2-0.4 0.2h-15.6l2.3 18.7c0 0.3 0.2 0.5 0.5 0.5h12.9q0.2 0 0.3 0.1 0.1 0.1 0.1 0.2 0 0.2-0.1 0.3-0.1 0.1-0.3 0.1z"/><path class="d" d="m37 34.1h-5.8c-0.2 0-0.3-0.2-0.3-0.4 0-0.2 0.1-0.3 0.3-0.3h5.8c2.3 0 4.3-1.5 5-3.7l4.7-15.1q0-0.2-0.1-0.3-0.1-0.1-0.3-0.1h-14.1c-0.2 0-0.3-0.2-0.3-0.4 0-0.2 0.1-0.3 0.3-0.3h14.1c0.4 0 0.7 0.1 0.9 0.4 0.2 0.3 0.2 0.6 0.1 0.9l-4.6 15.1c-0.8 2.5-3.1 4.2-5.7 4.2z"/><path class="d" d="m14.5 28.2c-0.1 0-0.3-0.1-0.3-0.3l-2-15.3c0.1-1-0.3-1.9-1-2.6-0.7-0.7-1.7-1.1-2.7-1.1h-4c-0.2-0.1-0.3-0.2-0.3-0.4 0-0.2 0.1-0.3 0.3-0.3h4c2.5 0 4.4 1.9 4.5 4.4l1.9 15.2q0 0.2-0.1 0.3-0.1 0.1-0.2 0.1z"/><path class="a" d="m36 44.2c-1.9 0-3.4-1.6-3.4-3.5 0-1.9 1.5-3.4 3.4-3.4 1.9 0 3.5 1.5 3.5 3.4 0 1.9-1.6 3.5-3.5 3.5z"/><path fill-rule="evenodd" class="d" d="m36 44.5c-2.1 0-3.8-1.7-3.8-3.8 0-2.1 1.7-3.8 3.8-3.8 2.1 0 3.9 1.7 3.9 3.8 0 2.1-1.8 3.8-3.9 3.8zm0-6.9c-1.2 0-2.4 0.8-2.9 1.9-0.4 1.2-0.2 2.5 0.7 3.4 0.9 0.9 2.2 1.2 3.4 0.7 1.2-0.5 1.9-1.6 1.9-2.9 0-1.7-1.4-3.1-3.1-3.1z"/><path class="a" d="m21.4 44.2c-1.9 0-3.4-1.6-3.4-3.5 0-1.9 1.5-3.4 3.4-3.4 1.9 0 3.5 1.5 3.5 3.4 0 1.9-1.6 3.5-3.5 3.5z"/><path fill-rule="evenodd" class="d" d="m21.4 44.5c-2.1 0-3.8-1.7-3.8-3.8 0-2.1 1.7-3.8 3.8-3.8 2.2 0 3.9 1.7 3.9 3.8 0 2.1-1.7 3.8-3.9 3.8zm0-6.9c-1.7 0-3.1 1.4-3.1 3.1 0 1.7 1.4 3.1 3.1 3.1 1.7 0 3.1-1.4 3.1-3.1 0-1.7-1.4-3.1-3.1-3.1z"/><path class="a" d="m39.2 21.7h-20.7c-0.2 0-0.3-0.1-0.4-0.2-0.1-0.1-0.1-0.3 0-0.4 0.1-0.1 0.2-0.2 0.4-0.2h20.7c0.2 0.1 0.3 0.2 0.3 0.4 0 0.2-0.1 0.3-0.3 0.4z"/><path class="a" d="m34.8 26.4h-11.9c-0.2 0-0.3-0.1-0.3-0.3 0-0.2 0.1-0.4 0.3-0.4h11.9c0.2 0 0.3 0.2 0.3 0.4 0 0.2-0.1 0.3-0.3 0.3z"/><path class="c" d="m36 42.7c-1.1 0-2-0.9-2-2 0-1.1 0.9-2 2-2 1.1 0 2 0.9 2 2 0 1.1-0.9 2-2 2z"/><path class="c" d="m21.5 42.7c-1.1 0-2-0.8-2-1.9 0-1.1 0.9-2 2-2 1.1 0 2 0.9 2 2 0 1.1-0.9 1.9-2 1.9z"/><path fill-rule="evenodd" class="c" d="m41.3 11.5q-0.2 0-0.3-0.2c-0.6-1-1.5-1.9-2.5-2.5q-0.2-0.1-0.2-0.3 0-0.2 0.2-0.3c1-0.6 1.9-1.5 2.5-2.6q0.1-0.1 0.3-0.1 0.2 0 0.3 0.1c0.6 1.1 1.5 2 2.6 2.6q0.1 0.1 0.1 0.3 0 0.2-0.1 0.3c-1.1 0.6-2 1.4-2.6 2.5q-0.1 0.2-0.3 0.2zm-1.9-3q1.2 0.8 1.9 2 0.8-1.2 2-2-1.2-0.8-2-2-0.7 1.2-1.9 2z"/><path class="c" d="m22.2 7.1c-0.5 0-1-0.4-1-1 0-0.5 0.5-1 1-1 0.6 0 1 0.5 1 1 0 0.6-0.4 1-1 1z"/></svg>