<svg width="100px" height="78px" viewBox="0 0 100 78" version="1.1" xmlns="http://www.w3.org/2000/svg" xmlns:xlink="http://www.w3.org/1999/xlink">
    <defs>
        <polygon id="path-1" points="0.612036375 0.474853781 24.3846397 0.474853781 24.3846397 18.6885246 0.612036375 18.6885246"></polygon>
    </defs>
    <g id="New-Requester-Portal" stroke="none" stroke-width="1" fill="none" fill-rule="evenodd">
        <g id="02_search" transform="translate(-587.000000, -202.000000)">
            <g id="Group-218" transform="translate(587.000000, 202.000000)">
                <path d="M9.02967213,47.5798934 L94.037541,47.5798934 C94.5343443,47.5798934 94.9361475,47.9832541 94.9361475,48.4785 C94.9361475,48.9753033 94.5343443,49.3755492 94.037541,49.3755492 L9.02967213,49.3755492 C8.53442623,49.3755492 8.13106557,48.9753033 8.13106557,48.4785 C8.13106557,47.9832541 8.53442623,47.5798934 9.02967213,47.5798934" id="Fill-1" fill="#b4975a"></path>
                <path d="M14.8165738,13.5663115 L89.4087049,13.5663115 C90.978541,13.5663115 92.2493607,14.8386885 92.2493607,16.4069672 L92.2493607,44.1485246 C92.2493607,45.7168033 90.978541,46.9891803 89.4087049,46.9891803 L14.8165738,46.9891803 C13.2467377,46.9891803 11.975918,45.7168033 11.975918,44.1485246 L11.975918,16.4069672 C11.975918,14.8386885 13.2467377,13.5663115 14.8165738,13.5663115" id="Fill-3" fill="#b4975a"></path>
                <path d="M14.7809098,14.0917705 C13.5069754,14.0948852 12.4744344,15.1274262 12.4713197,16.4013607 L12.4713197,44.1491475 C12.4713197,45.4246393 13.5038607,46.4602951 14.7809098,46.4634098 L89.3855,46.4634098 C90.6656639,46.4634098 91.7013197,45.4277541 91.7013197,44.1491475 L91.7013197,16.4013607 C91.6982049,15.1243115 90.6625492,14.0917705 89.3855,14.0917705 L14.7809098,14.0917705 Z M89.3855,47.5146393 L14.7809098,47.5146393 C12.9245164,47.5115246 11.4200902,46.005541 11.4200902,44.1491475 L11.4200902,16.4013607 C11.4232049,14.5465246 12.9260738,13.0452131 14.7809098,13.040541 L89.3855,13.040541 C91.2434508,13.040541 92.747877,14.5449672 92.7509918,16.4013607 L92.7509918,44.1491475 C92.747877,46.005541 91.2434508,47.5115246 89.3855,47.5146393 L89.3855,47.5146393 Z" id="Fill-5" fill="#5B4029"></path>
                <path d="M33.4618033,9.3884918 L89.3856557,9.3884918 C90.952377,9.3884918 92.2216393,10.6561967 92.2263115,12.222918 L92.2263115,39.9707049 C92.2263115,41.5389836 90.9539344,42.8113607 89.3856557,42.8113607 L14.7810656,42.8113607 C13.2143443,42.8066885 11.945082,41.5374262 11.945082,39.9707049 L11.945082,12.222918 C11.945082,10.6577541 13.2159016,9.3884918 14.7810656,9.3884918 L26.2994262,9.3884918" id="Fill-7" fill="#FFFFFF"></path>
                <path d="M89.3859672,43.4081475 L14.781377,43.4081475 C12.8844918,43.4050328 11.348918,41.8679016 11.348918,39.969459 L11.348918,12.2232295 C11.3520328,10.329459 12.8860492,8.79388525 14.781377,8.79077049 L26.2997377,8.79077049 C26.6299016,8.79077049 26.8962131,9.05863934 26.8962131,9.38880328 C26.8962131,9.71740984 26.6299016,9.98527869 26.2997377,9.98527869 L14.8109672,9.98527869 C13.5744098,9.98527869 12.5730164,10.9882295 12.5730164,12.2232295 L12.5730164,39.969459 C12.5699016,40.5659344 12.806623,41.1359344 13.2255574,41.5579836 C13.6460492,41.9784754 14.2160492,42.2136393 14.8109672,42.2136393 L89.3859672,42.2136393 C90.6256393,42.2136393 91.6285902,41.2106885 91.6285902,39.969459 L91.6285902,12.2232295 C91.6254754,10.9866721 90.6225246,9.98527869 89.3859672,9.98527869 L33.4621148,9.98527869 C33.1319508,9.98527869 32.8656393,9.71740984 32.8656393,9.38880328 C32.8656393,9.05863934 33.1319508,8.79077049 33.4621148,8.79077049 L89.3859672,8.79077049 C91.2828525,8.79077049 92.8199836,10.3263443 92.8230984,12.2232295 L92.8230984,39.969459 C92.8230984,41.869459 91.2844098,43.4081475 89.3859672,43.4081475" id="Fill-9" fill="#5B4029"></path>
                <path d="M17.5854344,9.98543443 L15.7960082,9.98543443 C15.4658443,9.98543443 15.1979754,9.71756557 15.1979754,9.38895902 C15.1979754,9.05879508 15.4658443,8.79092623 15.7960082,8.79092623 L17.5854344,8.79092623 C17.9155984,8.79092623 18.1819098,9.05879508 18.1819098,9.38895902 C18.1819098,9.71756557 17.9155984,9.98543443 17.5854344,9.98543443" id="Fill-11" fill="#5B4029"></path>
                <g id="Group-49" transform="translate(17.131148, 13.058631)">
                    <path d="M1.93472951,0.495532787 L5.0027623,0.495532787 C5.6739918,0.495532787 6.21907377,1.04061475 6.21907377,1.71340164 L6.21907377,3.39069672 C6.21907377,4.06348361 5.6739918,4.60856557 5.0027623,4.60856557 L1.93472951,4.60856557 C1.26194262,4.60856557 0.716860656,4.06348361 0.716860656,3.39069672 L0.716860656,1.71340164 C0.716860656,1.04061475 1.26194262,0.495532787 1.93472951,0.495532787" id="Fill-13" fill="#FFFFFF"></path>
                    <path d="M1.92865574,0.943434426 C1.72463934,0.943434426 1.52996721,1.02441803 1.38668852,1.1692541 C1.24340984,1.31409016 1.16242623,1.51031967 1.16396155,1.71277869 L1.16396155,3.39007377 C1.16242623,3.59409016 1.24340984,3.79031967 1.38668852,3.93359836 C1.52996721,4.07843443 1.72463934,4.15941803 1.92865574,4.15941803 L5.00291803,4.15941803 C5.42808197,4.15941803 5.7722623,3.8152377 5.7722623,3.39007377 L5.7722623,1.71277869 C5.7722623,1.28761475 5.42808197,0.943434426 5.00291803,0.943434426 L1.92865574,0.943434426 Z M5.00291803,5.05646721 L1.92865574,5.05646721 C1.01136066,5.05179508 0.27004918,4.30736885 0.27004918,3.39007377 L0.27004918,1.71277869 C0.27004918,0.795483607 1.01136066,0.051057377 1.92865574,0.047942623 L5.00291803,0.047942623 C5.92177049,0.047942623 6.6677541,0.79392623 6.6677541,1.71277869 L6.6677541,3.39007377 C6.6677541,4.31048361 5.92177049,5.05646721 5.00291803,5.05646721 L5.00291803,5.05646721 Z" id="Fill-15" fill="#5B4029"></path>
                    <path d="M9.86691803,0.495532787 L12.9349508,0.495532787 C13.6061803,0.495532787 14.1512623,1.04061475 14.1512623,1.71340164 L14.1512623,3.39069672 C14.1512623,4.06348361 13.6061803,4.60856557 12.9349508,4.60856557 L9.86691803,4.60856557 C9.19413115,4.60856557 8.64904918,4.06348361 8.64904918,3.39069672 L8.64904918,1.71340164 C8.64904918,1.04061475 9.19413115,0.495532787 9.86691803,0.495532787" id="Fill-17" fill="#FFFFFF"></path>
                    <path d="M9.86691803,0.943434426 C9.4417541,0.943434426 9.09601639,1.28761475 9.09601639,1.71277869 L9.09601639,3.39007377 C9.09601639,3.8152377 9.4417541,4.15941803 9.86691803,4.15941803 L12.9349508,4.15941803 C13.1389672,4.15941803 13.3351967,4.0799918 13.4784754,3.93515574 C13.6233115,3.79031967 13.7042951,3.59409016 13.7042951,3.39007377 L13.7042951,1.71277869 C13.7042951,1.5087623 13.6233115,1.31253279 13.4784754,1.1692541 C13.3351967,1.02441803 13.1389672,0.943434426 12.9349508,0.943434426 L9.86691803,0.943434426 Z M12.9349508,5.05646721 L9.86691803,5.05646721 C8.9465082,5.05646721 8.20208197,4.31048361 8.20208197,3.39007377 L8.20208197,1.71277869 C8.20208197,0.79392623 8.9465082,0.047942623 9.86691803,0.047942623 L12.9349508,0.047942623 C13.3756885,0.047942623 13.7992951,0.22392623 14.1123279,0.535401639 C14.4238033,0.848434426 14.5997869,1.27204098 14.5997869,1.71277869 L14.5997869,3.39007377 C14.5997869,4.31048361 13.8538033,5.05646721 12.9349508,5.05646721 L12.9349508,5.05646721 Z" id="Fill-19" fill="#5B4029"></path>
                    <path d="M17.7991066,0.495532787 L20.8671393,0.495532787 C21.5383689,0.495532787 22.0834508,1.04061475 22.0834508,1.71340164 L22.0834508,3.39069672 C22.0834508,4.06348361 21.5383689,4.60856557 20.8671393,4.60856557 L17.7991066,4.60856557 C17.1263197,4.60856557 16.5812377,4.06348361 16.5812377,3.39069672 L16.5812377,1.71340164 C16.5812377,1.04061475 17.1263197,0.495532787 17.7991066,0.495532787" id="Fill-21" fill="#FFFFFF"></path>
                    <path d="M17.7991066,0.943434426 C17.3739426,0.943434426 17.0282049,1.28761475 17.0282049,1.71277869 L17.0282049,3.39007377 C17.0282049,3.8152377 17.3739426,4.15941803 17.7991066,4.15941803 L20.8733689,4.15941803 C21.0758279,4.15941803 21.2705,4.07843443 21.4153361,3.93359836 C21.5586148,3.79031967 21.638041,3.59409016 21.6365061,3.39007377 L21.6365061,1.71277869 C21.638041,1.51031967 21.5586148,1.31409016 21.4153361,1.1692541 C21.2705,1.02441803 21.0758279,0.943434426 20.8733689,0.943434426 L17.7991066,0.943434426 Z M20.8733689,5.05650822 L17.7991066,5.05650822 C16.8864836,5.04556557 16.1514016,4.30269672 16.1514016,3.39007377 L16.1514016,1.71277869 C16.1514016,1.27204098 16.3273852,0.848434426 16.6388607,0.535401639 C16.9518934,0.22392623 17.3755,0.047942623 17.8162377,0.047942623 L20.8905,0.047942623 C21.8077951,0.051057377 22.5491066,0.795483607 22.5491066,1.71277869 L22.5491066,3.39007377 C22.5491066,3.83392623 22.373123,4.25909016 22.0569754,4.57212295 C21.7423852,4.88515574 21.3156639,5.05958197 20.8733689,5.05650822 L20.8733689,5.05650822 Z" id="Fill-23" fill="#5B4029"></path>
                    <path d="M25.7303607,0.495532787 L28.7983934,0.495532787 C29.4711803,0.495532787 30.0162623,1.04061475 30.0162623,1.71340164 L30.0162623,3.39069672 C30.0162623,4.06348361 29.4711803,4.60856557 28.7983934,4.60856557 L25.7303607,4.60856557 C25.0575738,4.60856557 24.5124918,4.06348361 24.5124918,3.39069672 L24.5124918,1.71340164 C24.5124918,1.04061475 25.0575738,0.495532787 25.7303607,0.495532787" id="Fill-25" fill="#FFFFFF"></path>
                    <path d="M25.7303607,0.943434426 C25.5279016,0.943434426 25.3316721,1.02441803 25.1883934,1.1692541 C25.0451148,1.31409016 24.9656885,1.51031967 24.9672234,1.71277869 L24.9672234,3.39007377 C24.9656885,3.59409016 25.0451148,3.79031967 25.1883934,3.93359836 C25.3316721,4.07843443 25.5279016,4.15941803 25.7303607,4.15941803 L28.804623,4.15941803 C29.2297869,4.15941803 29.5739672,3.8152377 29.5739672,3.39007377 L29.5739672,1.71277869 C29.5739672,1.5087623 29.4929836,1.31253279 29.3481475,1.1692541 C29.2033115,1.02441803 29.0086393,0.943434426 28.804623,0.943434426 L25.7303607,0.943434426 Z M28.804623,5.05647746 L25.7303607,5.05647746 C24.8130656,5.05179508 24.0717541,4.30736885 24.0717541,3.39007377 L24.0717541,1.71277869 C24.0717541,0.795483607 24.8130656,0.051057377 25.7303607,0.0479322831 L28.804623,0.0479322831 C29.246918,0.0463852459 29.672082,0.220811475 29.9851148,0.533844262 C30.2997049,0.846877049 30.4756885,1.27048361 30.4756885,1.71277869 L30.4756885,3.39007377 C30.4756885,3.83236885 30.2997049,4.25753279 29.9851148,4.57056557 C29.672082,4.88204098 29.246918,5.05802459 28.804623,5.05647746 L28.804623,5.05647746 Z" id="Fill-27" fill="#5B4029"></path>
                    <path d="M33.668623,0.495532787 L36.7366557,0.495532787 C37.4078852,0.495532787 37.9545246,1.04061475 37.9545246,1.71340164 L37.9545246,3.39069672 C37.9545246,4.06348361 37.4078852,4.60856557 36.7366557,4.60856557 L33.668623,4.60856557 C32.9958361,4.60856557 32.4507541,4.06348361 32.4507541,3.39069672 L32.4507541,1.71340164 C32.4507541,1.04061475 32.9958361,0.495532787 33.668623,0.495532787" id="Fill-29" fill="#FFFFFF"></path>
                    <path d="M33.668623,0.943434426 C33.4646066,0.943434426 33.268377,1.02441803 33.123541,1.1692541 C32.9802623,1.31253279 32.8992787,1.5087623 32.8992787,1.71277869 L32.8992787,3.39007377 C32.8992787,3.8152377 33.243459,4.15941803 33.668623,4.15941803 L36.7366557,4.15941803 C37.1618197,4.15941803 37.506,3.8152377 37.506,3.39007377 L37.506,1.71277869 C37.506,1.28761475 37.1618197,0.943434426 36.7366557,0.943434426 L33.668623,0.943434426 Z M36.7366557,5.05646721 L33.668623,5.05646721 C32.7497705,5.05646721 32.0037869,4.31048361 32.0037869,3.39007377 L32.0037869,1.71277869 C32.0037869,1.27204098 32.1782131,0.848434426 32.4912459,0.535401639 C32.8027213,0.22392623 33.2263279,0.047942623 33.668623,0.047942623 L36.7366557,0.047942623 C37.6570656,0.047942623 38.4014918,0.79392623 38.4014918,1.71277869 L38.4014918,3.39007377 C38.4014918,3.83236885 38.2270656,4.25597541 37.9140328,4.56745082 C37.601,4.88048361 37.1773934,5.05646721 36.7366557,5.05646721 L36.7366557,5.05646721 Z" id="Fill-31" fill="#5B4029"></path>
                    <path d="M41.6000328,0.495532787 L44.669623,0.495532787 C45.3408525,0.495532787 45.8859344,1.04061475 45.8859344,1.71340164 L45.8859344,3.39069672 C45.8859344,4.06348361 45.3408525,4.60856557 44.669623,4.60856557 L41.6000328,4.60856557 C40.9272459,4.60856557 40.3837213,4.06348361 40.3837213,3.39069672 L40.3837213,1.71340164 C40.3837213,1.04061475 40.9272459,0.495532787 41.6000328,0.495532787" id="Fill-33" fill="#FFFFFF"></path>
                    <path d="M41.6000328,0.943434426 C41.1764262,0.943434426 40.8306885,1.28761475 40.8306885,1.71277869 L40.8306885,3.39007377 C40.8306885,3.8152377 41.1764262,4.15941803 41.6000328,4.15941803 L44.6742951,4.15941803 C44.8767541,4.15941803 45.0729836,4.07843443 45.2162623,3.93359836 C45.359541,3.79031967 45.4405246,3.59409016 45.4389893,3.39007377 L45.4389893,1.71277869 C45.4405246,1.51031967 45.359541,1.31409016 45.2162623,1.1692541 C45.0729836,1.02441803 44.8767541,0.943434426 44.6742951,0.943434426 L41.6000328,0.943434426 Z M44.6742951,5.05646721 L41.6000328,5.05646721 C40.6811803,5.05646721 39.9367541,4.31048361 39.9367541,3.39007377 L39.9367541,1.71277869 C39.9367541,0.79392623 40.6811803,0.047942623 41.6000328,0.047942623 L44.6742951,0.047942623 C45.5915902,0.051057377 46.3329016,0.795483607 46.3329016,1.71277869 L46.3329016,3.39007377 C46.3329016,4.30736885 45.5915902,5.05179508 44.6742951,5.05646721 L44.6742951,5.05646721 Z" id="Fill-35" fill="#5B4029"></path>
                    <path d="M49.5328443,0.495532787 L52.600877,0.495532787 C53.2721066,0.495532787 53.8171885,1.04061475 53.8171885,1.71340164 L53.8171885,3.39069672 C53.8171885,4.06348361 53.2721066,4.60856557 52.600877,4.60856557 L49.5328443,4.60856557 C48.8600574,4.60856557 48.3149754,4.06348361 48.3149754,3.39069672 L48.3149754,1.71340164 C48.3149754,1.04061475 48.8600574,0.495532787 49.5328443,0.495532787" id="Fill-37" fill="#FFFFFF"></path>
                    <path d="M49.5328443,0.943434426 C49.1076803,0.943434426 48.7635,1.28761475 48.7635,1.71277869 L48.7635,3.39007377 C48.7635,3.8152377 49.1076803,4.15941803 49.5328443,4.15941803 L52.6071066,4.15941803 C53.0307131,4.15941803 53.3764508,3.8152377 53.3764508,3.39007377 L53.3764508,1.71277869 C53.3764508,1.28761475 53.0307131,0.943434426 52.6071066,0.943434426 L49.5328443,0.943434426 Z M52.6071066,5.05646721 L49.5328443,5.05646721 C48.6124344,5.05646721 47.8680082,4.31048361 47.8680082,3.39007377 L47.8680082,1.71277869 C47.8680082,0.79392623 48.6124344,0.047942623 49.5328443,0.047942623 L52.6071066,0.047942623 C53.525959,0.047942623 54.2719426,0.79392623 54.2719426,1.71277869 L54.2719426,3.39007377 C54.2719426,4.31048361 53.525959,5.05646721 52.6071066,5.05646721 L52.6071066,5.05646721 Z" id="Fill-39" fill="#5B4029"></path>
                    <path d="M57.4703279,0.495532787 L60.5383607,0.495532787 C61.2095902,0.495532787 61.7562295,1.04061475 61.7562295,1.71340164 L61.7562295,3.39069672 C61.7562295,4.06348361 61.2095902,4.60856557 60.5383607,4.60856557 L57.4703279,4.60856557 C56.797541,4.60856557 56.2540164,4.06348361 56.2540164,3.39069672 L56.2540164,1.71340164 C56.2540164,1.04061475 56.797541,0.495532787 57.4703279,0.495532787" id="Fill-41" fill="#FFFFFF"></path>
                    <path d="M57.4642541,0.943434426 C57.2602377,0.943434426 57.0655656,1.02441803 56.9222869,1.1692541 C56.7790082,1.31409016 56.699582,1.51031967 56.7011169,1.71277869 L56.7011169,3.39007377 C56.699582,3.59409016 56.7790082,3.79031967 56.9222869,3.93359836 C57.0655656,4.07843443 57.2602377,4.15941803 57.4642541,4.15941803 L60.5385164,4.15941803 C60.9636803,4.15941803 61.3078607,3.8152377 61.3078607,3.39007377 L61.3078607,1.71277869 C61.3078607,1.28761475 60.9636803,0.943434426 60.5385164,0.943434426 L57.4642541,0.943434426 Z M60.5385164,5.05646721 L57.4642541,5.05646721 C56.546959,5.05179508 55.8056475,4.30736885 55.8056475,3.39007377 L55.8056475,1.71277869 C55.8056475,0.795483607 56.546959,0.051057377 57.4642541,0.047942623 L60.5385164,0.047942623 C61.4573689,0.047942623 62.2033525,0.79392623 62.2033525,1.71277869 L62.2033525,3.39007377 C62.2033525,4.31048361 61.4573689,5.05646721 60.5385164,5.05646721 L60.5385164,5.05646721 Z" id="Fill-43" fill="#5B4029"></path>
                    <path d="M65.2298033,0.495532787 L68.2978361,0.495532787 C68.9690656,0.495532787 69.5141475,1.04061475 69.5141475,1.71340164 L69.5141475,3.39069672 C69.5141475,4.06348361 68.9690656,4.60856557 68.2978361,4.60856557 L65.2298033,4.60856557 C64.5570164,4.60856557 64.0119344,4.06348361 64.0119344,3.39069672 L64.0119344,1.71340164 C64.0119344,1.04061475 64.5570164,0.495532787 65.2298033,0.495532787" id="Fill-45" fill="#FFFFFF"></path>
                    <path d="M65.2237295,0.943434426 C65.0197131,0.943434426 64.825041,1.02441803 64.6802049,1.1692541 C64.5384836,1.31409016 64.4575,1.51031967 64.4606148,1.71277869 L64.4606148,3.39007377 C64.4575,3.59409016 64.5384836,3.79031967 64.6802049,3.93359836 C64.825041,4.07843443 65.0197131,4.15941803 65.2237295,4.15941803 L68.2979918,4.15941803 C68.7215984,4.15941803 69.0673361,3.8152377 69.0673361,3.39007377 L69.0673361,1.71277869 C69.0673361,1.28761475 68.7215984,0.943434426 68.2979918,0.943434426 L65.2237295,0.943434426 Z M68.2979918,5.05646721 L65.2237295,5.05646721 C64.3064344,5.05179508 63.565123,4.30736885 63.565123,3.39007377 L63.565123,1.71277869 C63.565123,0.795483607 64.3064344,0.051057377 65.2237295,0.047942623 L68.2979918,0.047942623 C69.2168443,0.047942623 69.9628279,0.79392623 69.9628279,1.71277869 L69.9628279,3.39007377 C69.9628279,4.31048361 69.2168443,5.05646721 68.2979918,5.05646721 L68.2979918,5.05646721 Z" id="Fill-47" fill="#5B4029"></path>
                </g>
                <g id="Group-86" transform="translate(17.131148, 19.288139)">
                    <path d="M1.93472951,0.831614754 L5.0027623,0.831614754 C5.6739918,0.831614754 6.21907377,1.37669672 6.21907377,2.04948361 L6.21907377,3.72522131 C6.21907377,4.39956557 5.6739918,4.94309016 5.0027623,4.94309016 L1.93472951,4.94309016 C1.26194262,4.94309016 0.716860656,4.39956557 0.716860656,3.72522131 L0.716860656,2.04948361 C0.716860656,1.37669672 1.26194262,0.831614754 1.93472951,0.831614754" id="Fill-50" fill="#FFFFFF"></path>
                    <path d="M1.92865574,1.2787377 C1.72463934,1.2787377 1.52996721,1.35972131 1.38668852,1.50455738 C1.24340984,1.64939344 1.16242623,1.84562295 1.16396155,2.04963934 L1.16396155,3.72537705 C1.16242623,3.92939344 1.24340984,4.12562295 1.38668852,4.27045902 C1.52996721,4.41529508 1.72463934,4.49627869 1.92865574,4.49627869 L5.00291803,4.49627869 C5.20693443,4.49627869 5.40160656,4.41529508 5.54644262,4.27045902 C5.69127869,4.12562295 5.7722623,3.93095082 5.7722623,3.72537705 L5.7722623,2.04963934 C5.7722623,1.84406557 5.69127869,1.64939344 5.54644262,1.50455738 C5.40160656,1.35972131 5.20693443,1.2787377 5.00291803,1.2787377 L1.92865574,1.2787377 Z M5.00291803,5.39177049 L1.92865574,5.39177049 C1.01136066,5.38865574 0.27004918,4.64422951 0.27004918,3.72537705 L0.27004918,2.04963934 C0.27004918,1.13234426 1.01136066,0.386360656 1.92865574,0.383245902 L5.00291803,0.383245902 C5.92177049,0.383245902 6.6677541,1.12922951 6.6677541,2.04963934 L6.6677541,3.72537705 C6.6677541,4.64578689 5.92177049,5.39177049 5.00291803,5.39177049 L5.00291803,5.39177049 Z" id="Fill-52" fill="#5B4029"></path>
                    <path d="M9.86691803,0.831614754 L12.9349508,0.831614754 C13.6061803,0.831614754 14.1512623,1.37669672 14.1512623,2.04948361 L14.1512623,3.72522131 C14.1512623,4.39956557 13.6061803,4.94309016 12.9349508,4.94309016 L9.86691803,4.94309016 C9.19413115,4.94309016 8.64904918,4.39956557 8.64904918,3.72522131 L8.64904918,2.04948361 C8.64904918,1.37669672 9.19413115,0.831614754 9.86691803,0.831614754" id="Fill-54" fill="#FFFFFF"></path>
                    <path d="M9.86691803,1.2787377 C9.66290164,1.2787377 9.46667213,1.35972131 9.32183607,1.50455738 C9.17855738,1.64939344 9.09601639,1.84406557 9.09601639,2.04963934 L9.09601639,3.72537705 C9.09601639,3.93095082 9.17855738,4.12562295 9.32183607,4.27045902 C9.46667213,4.41529508 9.66290164,4.49627869 9.86691803,4.49627869 L12.9349508,4.49627869 C13.1389672,4.49627869 13.3351967,4.41529508 13.4784754,4.27045902 C13.6233115,4.12562295 13.7042951,3.93095082 13.7042951,3.72537705 L13.7042951,2.04963934 C13.7042951,1.84406557 13.6233115,1.64939344 13.4784754,1.50455738 C13.3351967,1.35972131 13.1389672,1.2787377 12.9349508,1.2787377 L9.86691803,1.2787377 Z M12.9349508,5.39177049 L9.86691803,5.39177049 C8.9465082,5.39177049 8.20208197,4.64578689 8.20208197,3.72537705 L8.20208197,2.04963934 C8.20208197,1.60734426 8.3765082,1.1837377 8.68954098,0.870704918 C9.00101639,0.559229508 9.42462295,0.383245902 9.86691803,0.383245902 L12.9349508,0.383245902 C13.3756885,0.383245902 13.7992951,0.559229508 14.1123279,0.870704918 C14.4238033,1.1837377 14.5997869,1.60734426 14.5997869,2.04963934 L14.5997869,3.72537705 C14.5997869,4.64578689 13.8538033,5.39177049 12.9349508,5.39177049 L12.9349508,5.39177049 Z" id="Fill-56" fill="#5B4029"></path>
                    <path d="M17.7991066,0.831614754 L20.8671393,0.831614754 C21.5383689,0.831614754 22.0834508,1.37669672 22.0834508,2.04948361 L22.0834508,3.72522131 C22.0834508,4.39956557 21.5383689,4.94309016 20.8671393,4.94309016 L17.7991066,4.94309016 C17.1263197,4.94309016 16.5812377,4.39956557 16.5812377,3.72522131 L16.5812377,2.04948361 C16.5812377,1.37669672 17.1263197,0.831614754 17.7991066,0.831614754" id="Fill-58" fill="#FFFFFF"></path>
                    <path d="M17.7991066,1.2787377 C17.5950902,1.2787377 17.3988607,1.35972131 17.2540246,1.50455738 C17.1107459,1.64939344 17.0282049,1.84406557 17.0282049,2.04963934 L17.0282049,3.72537705 C17.0282049,3.93095082 17.1107459,4.12562295 17.2540246,4.27045902 C17.3988607,4.41529508 17.5950902,4.49627869 17.7991066,4.49627869 L20.8733689,4.49627869 C21.0758279,4.49627869 21.2705,4.41529508 21.4153361,4.27045902 C21.5586148,4.12562295 21.638041,3.92939344 21.6365061,3.72537705 L21.6365061,2.04963934 C21.638041,1.84562295 21.5586148,1.64939344 21.4153361,1.50455738 C21.2705,1.35972131 21.0758279,1.2787377 20.8733689,1.2787377 L17.7991066,1.2787377 Z M20.8733689,5.3918115 L17.7991066,5.3918115 C16.8864836,5.38086885 16.1514016,4.63955738 16.1514016,3.72537705 L16.1514016,2.04963934 C16.1514016,1.60734426 16.3273852,1.1837377 16.6388607,0.870704918 C16.9518934,0.559229508 17.3755,0.383245902 17.8162377,0.383245902 L20.8905,0.383245902 C21.8077951,0.386360656 22.5491066,1.13234426 22.5491066,2.04963934 L22.5491066,3.72537705 C22.5491066,4.16922951 22.373123,4.59439344 22.0569754,4.90742623 C21.7423852,5.22045902 21.3156639,5.39488525 20.8733689,5.3918115 L20.8733689,5.3918115 Z" id="Fill-60" fill="#5B4029"></path>
                    <path d="M25.7303607,0.831614754 L28.7983934,0.831614754 C29.4711803,0.831614754 30.0162623,1.37669672 30.0162623,2.04948361 L30.0162623,3.72522131 C30.0162623,4.39956557 29.4711803,4.94309016 28.7983934,4.94309016 L25.7303607,4.94309016 C25.0575738,4.94309016 24.5124918,4.39956557 24.5124918,3.72522131 L24.5124918,2.04948361 C24.5124918,1.37669672 25.0575738,0.831614754 25.7303607,0.831614754" id="Fill-62" fill="#FFFFFF"></path>
                    <path d="M25.7303607,1.2787377 C25.5279016,1.2787377 25.3316721,1.35972131 25.1883934,1.50455738 C25.0451148,1.64939344 24.9656885,1.84562295 24.9672234,2.04963934 L24.9672234,3.72537705 C24.9656885,3.92939344 25.0451148,4.12562295 25.1883934,4.27045902 C25.3316721,4.41529508 25.5279016,4.49627869 25.7303607,4.49627869 L28.804623,4.49627869 C29.0086393,4.49627869 29.2033115,4.41529508 29.3481475,4.27045902 C29.4929836,4.12562295 29.5739672,3.93095082 29.5739672,3.72537705 L29.5739672,2.04963934 C29.5739672,1.84406557 29.4929836,1.64939344 29.3481475,1.50455738 C29.2033115,1.35972131 29.0086393,1.2787377 28.804623,1.2787377 L25.7303607,1.2787377 Z M28.804623,5.39178074 L25.7303607,5.39178074 C24.8130656,5.38865574 24.0717541,4.64422951 24.0717541,3.72537705 L24.0717541,2.04963934 C24.0717541,1.13234426 24.8130656,0.386360656 25.7303607,0.383235652 L28.804623,0.383235652 C29.246918,0.381688525 29.672082,0.557672131 29.9851148,0.869147541 C30.2997049,1.18218033 30.4756885,1.60578689 30.4756885,2.04963934 L30.4756885,3.72537705 C30.4756885,4.16767213 30.2997049,4.59283607 29.9851148,4.90586885 C29.672082,5.21734426 29.246918,5.39332787 28.804623,5.39178074 L28.804623,5.39178074 Z" id="Fill-64" fill="#5B4029"></path>
                    <path d="M33.668623,0.831614754 L36.7366557,0.831614754 C37.4078852,0.831614754 37.9545246,1.37669672 37.9545246,2.04948361 L37.9545246,3.72522131 C37.9545246,4.39956557 37.4078852,4.94309016 36.7366557,4.94309016 L33.668623,4.94309016 C32.9958361,4.94309016 32.4507541,4.39956557 32.4507541,3.72522131 L32.4507541,2.04948361 C32.4507541,1.37669672 32.9958361,0.831614754 33.668623,0.831614754" id="Fill-66" fill="#FFFFFF"></path>
                    <path d="M33.668623,1.2787377 C33.4646066,1.2787377 33.268377,1.35972131 33.123541,1.50455738 C32.9802623,1.64939344 32.8992787,1.84406557 32.8992787,2.04963934 L32.8992787,3.72537705 C32.8992787,3.93095082 32.9802623,4.12562295 33.123541,4.27045902 C33.268377,4.41529508 33.4646066,4.49627869 33.668623,4.49627869 L36.7366557,4.49627869 C36.9406721,4.49627869 37.1369016,4.41529508 37.2801803,4.27045902 C37.4250164,4.12562295 37.506,3.93095082 37.506,3.72537705 L37.506,2.04963934 C37.506,1.84406557 37.4250164,1.64939344 37.2801803,1.50455738 C37.1369016,1.35972131 36.9406721,1.2787377 36.7366557,1.2787377 L33.668623,1.2787377 Z M36.7366557,5.39177049 L33.668623,5.39177049 C32.7497705,5.39177049 32.0037869,4.64578689 32.0037869,3.72537705 L32.0037869,2.04963934 C32.0037869,1.60734426 32.1782131,1.1837377 32.4912459,0.870704918 C32.8027213,0.559229508 33.2263279,0.383245902 33.668623,0.383245902 L36.7366557,0.383245902 C37.1773934,0.383245902 37.601,0.559229508 37.9140328,0.870704918 C38.2270656,1.1837377 38.4014918,1.60734426 38.4014918,2.04963934 L38.4014918,3.72537705 C38.4014918,4.16767213 38.2270656,4.59127869 37.9140328,4.90431148 C37.601,5.21578689 37.1773934,5.39177049 36.7366557,5.39177049 L36.7366557,5.39177049 Z" id="Fill-68" fill="#5B4029"></path>
                    <path d="M41.6000328,0.831614754 L44.669623,0.831614754 C45.3408525,0.831614754 45.8859344,1.37669672 45.8859344,2.04948361 L45.8859344,3.72522131 C45.8859344,4.39956557 45.3408525,4.94309016 44.669623,4.94309016 L41.6000328,4.94309016 C40.9272459,4.94309016 40.3837213,4.39956557 40.3837213,3.72522131 L40.3837213,2.04948361 C40.3837213,1.37669672 40.9272459,0.831614754 41.6000328,0.831614754" id="Fill-70" fill="#FFFFFF"></path>
                    <path d="M41.6000328,1.2787377 C41.3960164,1.2787377 41.1997869,1.35972131 41.0549508,1.50455738 C40.9132295,1.64939344 40.8306885,1.84406557 40.8306885,2.04963934 L40.8306885,3.72537705 C40.8306885,3.93095082 40.9132295,4.12562295 41.0549508,4.27045902 C41.1997869,4.41529508 41.3960164,4.49627869 41.6000328,4.49627869 L44.6742951,4.49627869 C44.8767541,4.49627869 45.0729836,4.41529508 45.2162623,4.27045902 C45.359541,4.12562295 45.4405246,3.92939344 45.4389893,3.72537705 L45.4389893,2.04963934 C45.4405246,1.84562295 45.359541,1.64939344 45.2162623,1.50455738 C45.0729836,1.35972131 44.8767541,1.2787377 44.6742951,1.2787377 L41.6000328,1.2787377 Z M44.6742951,5.39177049 L41.6000328,5.39177049 C40.6811803,5.39177049 39.9367541,4.64578689 39.9367541,3.72537705 L39.9367541,2.04963934 C39.9367541,1.60734426 40.1111803,1.1837377 40.4226557,0.870704918 C40.7356885,0.559229508 41.1592951,0.383245902 41.6000328,0.383245902 L44.6742951,0.383245902 C45.5915902,0.386360656 46.3329016,1.13234426 46.3329016,2.04963934 L46.3329016,3.72537705 C46.3329016,4.64422951 45.5915902,5.38865574 44.6742951,5.39177049 L44.6742951,5.39177049 Z" id="Fill-72" fill="#5B4029"></path>
                    <path d="M49.5328443,0.831614754 L52.600877,0.831614754 C53.2721066,0.831614754 53.8171885,1.37669672 53.8171885,2.04948361 L53.8171885,3.72522131 C53.8171885,4.39956557 53.2721066,4.94309016 52.600877,4.94309016 L49.5328443,4.94309016 C48.8600574,4.94309016 48.3149754,4.39956557 48.3149754,3.72522131 L48.3149754,2.04948361 C48.3149754,1.37669672 48.8600574,0.831614754 49.5328443,0.831614754" id="Fill-74" fill="#FFFFFF"></path>
                    <path d="M49.5328443,1.2787377 C49.3288279,1.2787377 49.1325984,1.35972131 48.9877623,1.50455738 C48.8444836,1.64939344 48.7635,1.84406557 48.7635,2.04963934 L48.7635,3.72537705 C48.7635,3.93095082 48.8444836,4.12562295 48.9877623,4.27045902 C49.1325984,4.41529508 49.3288279,4.49627869 49.5328443,4.49627869 L52.6071066,4.49627869 C52.8095656,4.49627869 53.0057951,4.41529508 53.1506311,4.27045902 C53.2954672,4.12562295 53.3764508,3.93095082 53.3764508,3.72537705 L53.3764508,2.04963934 C53.3764508,1.84406557 53.2954672,1.64939344 53.1506311,1.50455738 C53.0057951,1.35972131 52.8095656,1.2787377 52.6071066,1.2787377 L49.5328443,1.2787377 Z M52.6071066,5.39177049 L49.5328443,5.39177049 C48.6124344,5.39177049 47.8680082,4.64578689 47.8680082,3.72537705 L47.8680082,2.04963934 C47.8680082,1.60734426 48.0424344,1.1837377 48.3554672,0.870704918 C48.6669426,0.559229508 49.0905492,0.383245902 49.5328443,0.383245902 L52.6071066,0.383245902 C53.0478443,0.383245902 53.4714508,0.559229508 53.7829262,0.870704918 C54.095959,1.1837377 54.2719426,1.60734426 54.2719426,2.04963934 L54.2719426,3.72537705 C54.2719426,4.64578689 53.525959,5.39177049 52.6071066,5.39177049 L52.6071066,5.39177049 Z" id="Fill-76" fill="#5B4029"></path>
                    <path d="M57.2437295,0.831614754 L58.9085656,0.831614754 C59.4567623,0.831614754 59.8990574,1.27546721 59.8990574,1.82210656 L59.8990574,3.95259836 C59.8990574,4.4992377 59.4567623,4.94309016 58.9085656,4.94309016 L57.2437295,4.94309016 C56.6955328,4.94309016 56.2532377,4.4992377 56.2532377,3.95259836 L56.2532377,1.82210656 C56.2532377,1.27546721 56.6955328,0.831614754 57.2437295,0.831614754" id="Fill-78" fill="#FFFFFF"></path>
                    <path d="M57.2437295,1.2787377 C56.9447131,1.2787377 56.7002049,1.52168852 56.7002049,1.8222623 L56.7002049,3.9527541 C56.7002049,4.25332787 56.9447131,4.49627869 57.2437295,4.49627869 L58.9085656,4.49627869 C59.2091393,4.49627869 59.4520902,4.25332787 59.4520902,3.9527541 L59.4520902,1.84562295 C59.4520902,1.54660656 59.2091393,1.30365574 58.9085656,1.30365574 L57.2437295,1.2787377 Z M58.9085656,5.39177049 L57.2437295,5.39177049 C56.4494672,5.39177049 55.8047131,4.74701639 55.8047131,3.9527541 L55.8047131,1.84562295 C55.8047131,1.05136066 56.4494672,0.408163934 57.2437295,0.408163934 L58.9085656,0.408163934 C59.290123,0.408163934 59.6561066,0.559229508 59.9270902,0.828655738 C60.1965164,1.09808197 60.347582,1.46406557 60.347582,1.84562295 L60.347582,3.97611475 C60.3335656,4.76103279 59.6934836,5.39177049 58.9085656,5.39177049 L58.9085656,5.39177049 Z" id="Fill-80" fill="#5B4029"></path>
                    <path d="M63.6770984,0.831614754 L68.1234098,0.831614754 C68.8927541,0.831614754 69.5141475,1.45456557 69.5141475,2.22235246 L69.5141475,3.55390984 C69.5141475,4.32169672 68.8927541,4.94309016 68.1234098,4.94309016 L63.6770984,4.94309016 C62.9093115,4.94309016 62.2863607,4.32169672 62.2863607,3.55390984 L62.2863607,2.22235246 C62.2863607,1.45456557 62.9093115,0.831614754 63.6770984,0.831614754" id="Fill-82" fill="#FFFFFF"></path>
                    <path d="M63.6770984,1.2787377 C63.155377,1.28185246 62.7348852,1.70545902 62.7348852,2.22718033 L62.7348852,3.5525082 C62.7348852,4.07422951 63.1569344,4.49627869 63.6770984,4.49627869 L68.1187377,4.49627869 C68.640459,4.49627869 69.0640656,4.07422951 69.0671803,3.5525082 L69.0671803,2.22718033 C69.0671803,1.70390164 68.6420164,1.2787377 68.1187377,1.2787377 L63.6770984,1.2787377 Z M68.1187377,5.39177049 L63.6770984,5.39177049 C62.6632459,5.39177049 61.8393934,4.56791803 61.8393934,3.5525082 L61.8393934,2.22718033 C61.8393934,1.21177049 62.6616885,0.386360656 63.6770984,0.383245902 L68.1187377,0.383245902 C69.1357049,0.386360656 69.9595574,1.21177049 69.9626721,2.22718033 L69.9626721,3.5525082 C69.9595574,4.56947541 69.1341475,5.39177049 68.1187377,5.39177049 L68.1187377,5.39177049 Z" id="Fill-84" fill="#5B4029"></path>
                </g>
                <g id="Group-115" transform="translate(17.131148, 32.484861)">
                    <path d="M1.93472951,0.76545082 L5.0027623,0.76545082 C5.6739918,0.76545082 6.21907377,1.31053279 6.21907377,1.98331967 L6.21907377,3.65905738 C6.21907377,4.33340164 5.6739918,4.87692623 5.0027623,4.87692623 L1.93472951,4.87692623 C1.26194262,4.87692623 0.716860656,4.33340164 0.716860656,3.65905738 L0.716860656,1.98331967 C0.716860656,1.31053279 1.26194262,0.76545082 1.93472951,0.76545082" id="Fill-87" fill="#FFFFFF"></path>
                    <path d="M1.92865574,1.21257377 C1.72463934,1.21257377 1.52996721,1.29355738 1.38668852,1.43839344 C1.24340984,1.58322951 1.16242623,1.77945902 1.16396155,1.98347541 L1.16396155,3.65921311 C1.16242623,3.86322951 1.24340984,4.05945902 1.38668852,4.20429508 C1.52996721,4.34913115 1.72463934,4.43011475 1.92865574,4.43011475 L5.00291803,4.43011475 C5.42808197,4.43011475 5.7722623,4.08593443 5.7722623,3.65921311 L5.7722623,1.98347541 C5.7722623,1.55831148 5.42808197,1.21257377 5.00291803,1.21257377 L1.92865574,1.21257377 Z M5.00291803,5.32560656 L1.92865574,5.32560656 C1.01136066,5.3224918 0.27004918,4.57806557 0.27004918,3.65921311 L0.27004918,1.98347541 C0.27004918,1.06618033 1.01136066,0.320196721 1.92865574,0.317081967 L5.00291803,0.317081967 C5.92177049,0.317081967 6.6677541,1.06306557 6.6677541,1.98347541 L6.6677541,3.65921311 C6.6677541,4.57962295 5.92177049,5.32560656 5.00291803,5.32560656 L5.00291803,5.32560656 Z" id="Fill-89" fill="#5B4029"></path>
                    <path d="M9.86691803,0.76545082 L12.9349508,0.76545082 C13.6061803,0.76545082 14.1512623,1.31053279 14.1512623,1.98331967 L14.1512623,3.65905738 C14.1512623,4.33340164 13.6061803,4.87692623 12.9349508,4.87692623 L9.86691803,4.87692623 C9.19413115,4.87692623 8.64904918,4.33340164 8.64904918,3.65905738 L8.64904918,1.98331967 C8.64904918,1.31053279 9.19413115,0.76545082 9.86691803,0.76545082" id="Fill-91" fill="#FFFFFF"></path>
                    <path d="M9.86691803,1.21257377 C9.4417541,1.21257377 9.09601639,1.55831148 9.09601639,1.98347541 L9.09601639,3.65921311 C9.09601639,4.08593443 9.4417541,4.43011475 9.86691803,4.43011475 L12.9349508,4.43011475 C13.1389672,4.43011475 13.3351967,4.34913115 13.4784754,4.20429508 C13.6233115,4.05945902 13.7042951,3.86478689 13.7042951,3.65921311 L13.7042951,1.98347541 C13.7042951,1.77790164 13.6233115,1.58322951 13.4784754,1.43839344 C13.3351967,1.29355738 13.1389672,1.21257377 12.9349508,1.21257377 L9.86691803,1.21257377 Z M12.9349508,5.32560656 L9.86691803,5.32560656 C8.9465082,5.32560656 8.20208197,4.57962295 8.20208197,3.65921311 L8.20208197,1.98347541 C8.20208197,1.06306557 8.9465082,0.317081967 9.86691803,0.317081967 L12.9349508,0.317081967 C13.3756885,0.317081967 13.7992951,0.493065574 14.1123279,0.804540984 C14.4238033,1.11757377 14.5997869,1.54118033 14.5997869,1.98347541 L14.5997869,3.65921311 C14.5997869,4.57962295 13.8538033,5.32560656 12.9349508,5.32560656 L12.9349508,5.32560656 Z" id="Fill-93" fill="#5B4029"></path>
                    <path d="M17.7991066,0.76545082 L20.8671393,0.76545082 C21.5383689,0.76545082 22.0834508,1.31053279 22.0834508,1.98331967 L22.0834508,3.65905738 C22.0834508,4.33340164 21.5383689,4.87692623 20.8671393,4.87692623 L17.7991066,4.87692623 C17.1263197,4.87692623 16.5812377,4.33340164 16.5812377,3.65905738 L16.5812377,1.98331967 C16.5812377,1.31053279 17.1263197,0.76545082 17.7991066,0.76545082" id="Fill-95" fill="#FFFFFF"></path>
                    <path d="M17.7991066,1.21257377 C17.3739426,1.21257377 17.0282049,1.55831148 17.0282049,1.98347541 L17.0282049,3.65921311 C17.0282049,4.08593443 17.3739426,4.43011475 17.7991066,4.43011475 L20.8733689,4.43011475 C21.0758279,4.43011475 21.2705,4.34913115 21.4153361,4.20429508 C21.5586148,4.05945902 21.638041,3.86322951 21.6365061,3.65921311 L21.6365061,1.98347541 C21.638041,1.77945902 21.5586148,1.58322951 21.4153361,1.43839344 C21.2705,1.29355738 21.0758279,1.21257377 20.8733689,1.21257377 L17.7991066,1.21257377 Z M20.8733689,5.32564757 L17.7991066,5.32564757 C16.8864836,5.31470492 16.1514016,4.57339344 16.1514016,3.65921311 L16.1514016,1.98347541 C16.1514016,1.54118033 16.3273852,1.11757377 16.6388607,0.804540984 C16.9518934,0.493065574 17.3755,0.317081967 17.8162377,0.317081967 L20.8905,0.317081967 C21.8077951,0.320196721 22.5491066,1.06618033 22.5491066,1.98347541 L22.5491066,3.65921311 C22.5491066,4.10306557 22.373123,4.52822951 22.0569754,4.8412623 C21.7423852,5.15429508 21.3156639,5.32872131 20.8733689,5.32564757 L20.8733689,5.32564757 Z" id="Fill-97" fill="#5B4029"></path>
                    <path d="M25.5517295,0.76545082 L45.3070574,0.76545082 C45.7851721,0.76545082 46.1714016,1.1532377 46.1714016,1.63135246 L46.1714016,4.01102459 C46.1714016,4.49069672 45.7851721,4.87692623 45.3070574,4.87692623 L25.5517295,4.87692623 C25.0736148,4.87692623 24.6858279,4.49069672 24.6858279,4.01102459 L24.6858279,1.63135246 C24.6858279,1.1532377 25.0736148,0.76545082 25.5517295,0.76545082" id="Fill-99" fill="#FFFFFF"></path>
                    <path d="M25.5456557,1.21257377 C25.435082,1.21257377 25.3291803,1.2577377 25.2528689,1.33560656 C25.175,1.41347541 25.1313934,1.52093443 25.1329105,1.6315082 L25.1329105,4.01740984 C25.1313934,4.12798361 25.175,4.23388525 25.2528689,4.31331148 C25.3291803,4.3927377 25.435082,4.43634426 25.5456557,4.43634426 L45.3056557,4.43634426 C45.5377049,4.43634426 45.7245902,4.24945902 45.7245902,4.01740984 L45.7245902,1.6315082 C45.7245902,1.39945902 45.5377049,1.21257377 45.3056557,1.21257377 L25.5456557,1.21257377 Z M45.3056557,5.32560656 L25.5456557,5.32560656 C25.1983607,5.32560656 24.865082,5.187 24.6190164,4.94093443 C24.3745082,4.69331148 24.237459,4.36003279 24.2390033,4.01118033 L24.2390033,1.62527869 C24.2390033,0.901098361 24.8230328,0.31552459 25.5456557,0.310852459 L45.3056557,0.310852459 C46.0298361,0.31552459 46.6169672,0.901098361 46.620082,1.62527869 L46.620082,4.01118033 C46.620082,4.36003279 46.4814754,4.69486885 46.2354098,4.94093443 C45.9893443,5.187 45.6545082,5.32560656 45.3056557,5.32560656 L45.3056557,5.32560656 Z" id="Fill-101" fill="#5B4029"></path>
                    <path d="M49.5328443,0.76545082 L52.600877,0.76545082 C53.2721066,0.76545082 53.8171885,1.31053279 53.8171885,1.98331967 L53.8171885,3.65905738 C53.8171885,4.33340164 53.2721066,4.87692623 52.600877,4.87692623 L49.5328443,4.87692623 C48.8600574,4.87692623 48.3149754,4.33340164 48.3149754,3.65905738 L48.3149754,1.98331967 C48.3149754,1.31053279 48.8600574,0.76545082 49.5328443,0.76545082" id="Fill-103" fill="#FFFFFF"></path>
                    <path d="M49.5328443,1.21257377 C49.1076803,1.21257377 48.7635,1.55831148 48.7635,1.98347541 L48.7635,3.65921311 C48.7635,4.08593443 49.1076803,4.43011475 49.5328443,4.43011475 L52.6071066,4.43011475 C53.0307131,4.43011475 53.3764508,4.08593443 53.3764508,3.65921311 L53.3764508,1.98347541 C53.3764508,1.55831148 53.0307131,1.21257377 52.6071066,1.21257377 L49.5328443,1.21257377 Z M52.6071066,5.32560656 L49.5328443,5.32560656 C48.6124344,5.32560656 47.8680082,4.57962295 47.8680082,3.65921311 L47.8680082,1.98347541 C47.8680082,1.06306557 48.6124344,0.317081967 49.5328443,0.317081967 L52.6071066,0.317081967 C53.525959,0.317081967 54.2719426,1.06306557 54.2719426,1.98347541 L54.2719426,3.65921311 C54.2719426,4.57962295 53.525959,5.32560656 52.6071066,5.32560656 L52.6071066,5.32560656 Z" id="Fill-105" fill="#5B4029"></path>
                    <path d="M57.4642541,0.76545082 L60.4793361,0.76545082 C61.1474508,0.76545082 61.6909754,1.30741803 61.6909754,1.97709016 L61.6909754,3.66528689 C61.6909754,4.33495902 61.1474508,4.87692623 60.4793361,4.87692623 L57.4642541,4.87692623 C56.794582,4.87692623 56.2541721,4.33495902 56.2541721,3.66528689 L56.2541721,1.97709016 C56.2541721,1.30741803 56.794582,0.76545082 57.4642541,0.76545082" id="Fill-107" fill="#FFFFFF"></path>
                    <path d="M57.4581803,1.21257377 C57.0376885,1.21568852 56.7012951,1.5567541 56.7012951,1.9772459 L56.7012951,3.67167213 C56.7012951,4.09060656 57.0392459,4.43013723 57.4581803,4.43013723 L60.4779344,4.43013723 C60.6803934,4.43167213 60.8750656,4.3522459 61.0183443,4.21052459 C61.161623,4.0672459 61.2426066,3.87413115 61.2426066,3.67167213 L61.2426066,1.9772459 C61.2426066,1.55519672 60.8999836,1.21257377 60.4779344,1.21257377 L57.4581803,1.21257377 Z M60.4779344,5.32560656 L57.4581803,5.32560656 C56.5455574,5.32560656 55.8042459,4.58585246 55.8042459,3.67167213 L55.8042459,1.9772459 C55.8042459,1.06306557 56.544,0.320196721 57.4581803,0.317081967 L60.4779344,0.317081967 C61.3936721,0.320196721 62.1349836,1.0615082 62.1380984,1.9772459 L62.1380984,3.67167213 C62.1349836,4.58585246 61.3921148,5.32560656 60.4779344,5.32560656 L60.4779344,5.32560656 Z" id="Fill-109" fill="#5B4029"></path>
                    <path d="M65.2830656,0.76545082 L68.3090492,0.76545082 C68.9740492,0.76545082 69.514459,1.30586066 69.514459,1.97086066 L69.514459,3.67151639 C69.514459,4.33807377 68.9740492,4.87692623 68.3090492,4.87692623 L65.2830656,4.87692623 C64.6165082,4.87692623 64.0776557,4.33807377 64.0776557,3.67151639 L64.0776557,1.97086066 C64.0776557,1.30586066 64.6165082,0.76545082 65.2830656,0.76545082" id="Fill-111" fill="#FFFFFF"></path>
                    <path d="M65.2830656,1.21257377 C65.0806066,1.21257377 64.8874918,1.29355738 64.7442131,1.43683607 C64.6024918,1.58011475 64.524623,1.77478689 64.5261574,1.9772459 L64.5261574,3.67167213 C64.5261574,4.09060656 64.8641311,4.43013723 65.2830656,4.43013723 L68.3028197,4.43013723 C68.5052787,4.43167213 68.6983934,4.3522459 68.8432295,4.21052459 C68.9865082,4.0672459 69.0674918,3.87413115 69.0674918,3.67167213 L69.0674918,1.9772459 C69.0674918,1.55519672 68.7248689,1.21257377 68.3028197,1.21257377 L65.2830656,1.21257377 Z M68.3028197,5.32560656 L65.2830656,5.32560656 C64.3704426,5.32560656 63.6291311,4.58585246 63.6291311,3.67167213 L63.6291311,1.9772459 C63.6291311,1.06306557 64.3688852,0.320196721 65.2830656,0.317081967 L68.3028197,0.317081967 C69.217,0.320196721 69.9598689,1.0615082 69.9629836,1.9772459 L69.9629836,3.67167213 C69.9598689,4.58585246 69.217,5.32560656 68.3028197,5.32560656 L68.3028197,5.32560656 Z" id="Fill-113" fill="#5B4029"></path>
                </g>
                <g id="Group-152" transform="translate(17.131148, 25.517648)">
                    <path d="M1.93472951,1.16691803 L5.0027623,1.16691803 C5.6739918,1.16691803 6.21907377,1.712 6.21907377,2.38478689 L6.21907377,4.06208197 C6.21907377,4.73486885 5.6739918,5.27995082 5.0027623,5.27995082 L1.93472951,5.27995082 C1.26194262,5.27995082 0.716860656,4.73486885 0.716860656,4.06208197 L0.716860656,2.38478689 C0.716860656,1.712 1.26194262,1.16691803 1.93472951,1.16691803" id="Fill-116" fill="#FFFFFF"></path>
                    <path d="M1.92865574,1.61481967 C1.72463934,1.61481967 1.52996721,1.69580328 1.38668852,1.84063934 C1.24340984,1.98547541 1.16242623,2.18170492 1.16396155,2.38416393 L1.16396155,4.06145902 C1.16242623,4.26547541 1.24340984,4.46170492 1.38668852,4.60498361 C1.52996721,4.74981967 1.72463934,4.83080328 1.92865574,4.83080328 L5.00291803,4.83080328 C5.20693443,4.83080328 5.40160656,4.75137705 5.54644262,4.60654098 C5.69127869,4.46170492 5.7722623,4.26547541 5.7722623,4.06145902 L5.7722623,2.38416393 C5.7722623,1.959 5.42808197,1.61481967 5.00291803,1.61481967 L1.92865574,1.61481967 Z M5.00291803,5.72785246 L1.92865574,5.72785246 C1.01136066,5.72318033 0.27004918,4.9787541 0.27004918,4.06145902 L0.27004918,2.38416393 C0.27004918,1.46686885 1.01136066,0.722442623 1.92865574,0.719327869 L5.00291803,0.719327869 C5.92177049,0.719327869 6.6677541,1.46531148 6.6677541,2.38416393 L6.6677541,4.06145902 C6.6677541,4.98186885 5.92177049,5.72785246 5.00291803,5.72785246 L5.00291803,5.72785246 Z" id="Fill-118" fill="#5B4029"></path>
                    <path d="M9.86691803,1.16691803 L12.9349508,1.16691803 C13.6061803,1.16691803 14.1512623,1.712 14.1512623,2.38478689 L14.1512623,4.06208197 C14.1512623,4.73486885 13.6061803,5.27995082 12.9349508,5.27995082 L9.86691803,5.27995082 C9.19413115,5.27995082 8.64904918,4.73486885 8.64904918,4.06208197 L8.64904918,2.38478689 C8.64904918,1.712 9.19413115,1.16691803 9.86691803,1.16691803" id="Fill-120" fill="#FFFFFF"></path>
                    <path d="M9.86691803,1.61481967 C9.4417541,1.61481967 9.09601639,1.959 9.09601639,2.38416393 L9.09601639,4.06145902 C9.09601639,4.48662295 9.4417541,4.83080328 9.86691803,4.83080328 L12.9349508,4.83080328 C13.1389672,4.83080328 13.3351967,4.75137705 13.4784754,4.60654098 C13.6233115,4.46170492 13.7042951,4.26547541 13.7042951,4.06145902 L13.7042951,2.38416393 C13.7042951,2.18014754 13.6233115,1.98391803 13.4784754,1.84063934 C13.3351967,1.69580328 13.1389672,1.61481967 12.9349508,1.61481967 L9.86691803,1.61481967 Z M12.9349508,5.72785246 L9.86691803,5.72785246 C9.42462295,5.72785246 9.00101639,5.55186885 8.68954098,5.23883607 C8.3765082,4.92736066 8.20208197,4.5037541 8.20208197,4.06145902 L8.20208197,2.38416393 C8.20208197,1.46531148 8.9465082,0.719327869 9.86691803,0.719327869 L12.9349508,0.719327869 C13.3756885,0.719327869 13.7992951,0.895311475 14.1123279,1.20678689 C14.4238033,1.51981967 14.5997869,1.94342623 14.5997869,2.38416393 L14.5997869,4.06145902 C14.5997869,4.98186885 13.8538033,5.72785246 12.9349508,5.72785246 L12.9349508,5.72785246 Z" id="Fill-122" fill="#5B4029"></path>
                    <path d="M17.7991066,1.16691803 L20.8671393,1.16691803 C21.5383689,1.16691803 22.0834508,1.712 22.0834508,2.38478689 L22.0834508,4.06208197 C22.0834508,4.73486885 21.5383689,5.27995082 20.8671393,5.27995082 L17.7991066,5.27995082 C17.1263197,5.27995082 16.5812377,4.73486885 16.5812377,4.06208197 L16.5812377,2.38478689 C16.5812377,1.712 17.1263197,1.16691803 17.7991066,1.16691803" id="Fill-124" fill="#FFFFFF"></path>
                    <path d="M17.7991066,1.61481967 C17.3739426,1.61481967 17.0282049,1.959 17.0282049,2.38416393 L17.0282049,4.06145902 C17.0282049,4.48662295 17.3739426,4.83080328 17.7991066,4.83080328 L20.8733689,4.83080328 C21.0758279,4.83080328 21.2705,4.74981967 21.4153361,4.60498361 C21.5586148,4.46170492 21.638041,4.26547541 21.6365061,4.06145902 L21.6365061,2.38416393 C21.638041,2.18170492 21.5586148,1.98547541 21.4153361,1.84063934 C21.2705,1.69580328 21.0758279,1.61481967 20.8733689,1.61481967 L17.7991066,1.61481967 Z M20.8733689,5.72789347 L17.7991066,5.72789347 C16.8864836,5.71695082 16.1514016,4.97408197 16.1514016,4.06145902 L16.1514016,2.38416393 C16.1514016,1.94342623 16.3273852,1.51981967 16.6388607,1.20678689 C16.9518934,0.895311475 17.3755,0.719327869 17.8162377,0.719327869 L20.8905,0.719327869 C21.8077951,0.722442623 22.5491066,1.46686885 22.5491066,2.38416393 L22.5491066,4.06145902 C22.5491066,4.50531148 22.373123,4.93047541 22.0569754,5.2435082 C21.7423852,5.55654098 21.3156639,5.73096721 20.8733689,5.72789347 L20.8733689,5.72789347 Z" id="Fill-126" fill="#5B4029"></path>
                    <path d="M25.7303607,1.16691803 L28.7983934,1.16691803 C29.4711803,1.16691803 30.0162623,1.712 30.0162623,2.38478689 L30.0162623,4.06208197 C30.0162623,4.73486885 29.4711803,5.27995082 28.7983934,5.27995082 L25.7303607,5.27995082 C25.0575738,5.27995082 24.5124918,4.73486885 24.5124918,4.06208197 L24.5124918,2.38478689 C24.5124918,1.712 25.0575738,1.16691803 25.7303607,1.16691803" id="Fill-128" fill="#FFFFFF"></path>
                    <path d="M25.7303607,1.61481967 C25.5279016,1.61481967 25.3316721,1.69580328 25.1883934,1.84063934 C25.0451148,1.98547541 24.9656885,2.18170492 24.9672234,2.38416393 L24.9672234,4.06145902 C24.9656885,4.26547541 25.0451148,4.46170492 25.1883934,4.60498361 C25.3316721,4.74981967 25.5279016,4.83080328 25.7303607,4.83080328 L28.804623,4.83080328 C29.0086393,4.83080328 29.2033115,4.75137705 29.3481475,4.60654098 C29.4929836,4.46170492 29.5739672,4.26547541 29.5739672,4.06145902 L29.5739672,2.38416393 C29.5739672,2.18014754 29.4929836,1.98391803 29.3481475,1.84063934 C29.2033115,1.69580328 29.0086393,1.61481967 28.804623,1.61481967 L25.7303607,1.61481967 Z M28.804623,5.72786271 L25.7303607,5.72786271 C24.8130656,5.72318033 24.0717541,4.9787541 24.0717541,4.06145902 L24.0717541,2.38416393 C24.0717541,1.46686885 24.8130656,0.722442623 25.7303607,0.719317529 L28.804623,0.719317529 C29.246918,0.717770492 29.672082,0.892196721 29.9851148,1.20522951 C30.2997049,1.5182623 30.4756885,1.94186885 30.4756885,2.38416393 L30.4756885,4.06145902 C30.4756885,4.5037541 30.2997049,4.92891803 29.9851148,5.24195082 C29.672082,5.55342623 29.246918,5.72940984 28.804623,5.72786271 L28.804623,5.72786271 Z" id="Fill-130" fill="#5B4029"></path>
                    <path d="M33.668623,1.16691803 L36.7366557,1.16691803 C37.4078852,1.16691803 37.9545246,1.712 37.9545246,2.38478689 L37.9545246,4.06208197 C37.9545246,4.73486885 37.4078852,5.27995082 36.7366557,5.27995082 L33.668623,5.27995082 C32.9958361,5.27995082 32.4507541,4.73486885 32.4507541,4.06208197 L32.4507541,2.38478689 C32.4507541,1.712 32.9958361,1.16691803 33.668623,1.16691803" id="Fill-132" fill="#FFFFFF"></path>
                    <path d="M33.668623,1.61481967 C33.4646066,1.61481967 33.268377,1.69580328 33.123541,1.84063934 C32.9802623,1.98391803 32.8992787,2.18014754 32.8992787,2.38416393 L32.8992787,4.06145902 C32.8992787,4.48662295 33.243459,4.83080328 33.668623,4.83080328 L36.7366557,4.83080328 C37.1618197,4.83080328 37.506,4.48662295 37.506,4.06145902 L37.506,2.38416393 C37.506,1.959 37.1618197,1.61481967 36.7366557,1.61481967 L33.668623,1.61481967 Z M36.7366557,5.72785246 L33.668623,5.72785246 C33.2263279,5.72785246 32.8027213,5.55186885 32.4912459,5.23883607 C32.1782131,4.92736066 32.0037869,4.5037541 32.0037869,4.06145902 L32.0037869,2.38416393 C32.0037869,1.94342623 32.1782131,1.51981967 32.4912459,1.20678689 C32.8027213,0.895311475 33.2263279,0.719327869 33.668623,0.719327869 L36.7366557,0.719327869 C37.1773934,0.719327869 37.601,0.895311475 37.9140328,1.20678689 C38.2270656,1.51981967 38.4014918,1.94342623 38.4014918,2.38416393 L38.4014918,4.06145902 C38.4014918,4.98186885 37.6570656,5.72785246 36.7366557,5.72785246 L36.7366557,5.72785246 Z" id="Fill-134" fill="#5B4029"></path>
                    <path d="M41.6000328,1.16691803 L44.669623,1.16691803 C45.3408525,1.16691803 45.8859344,1.712 45.8859344,2.38478689 L45.8859344,4.06208197 C45.8859344,4.73486885 45.3408525,5.27995082 44.669623,5.27995082 L41.6000328,5.27995082 C40.9272459,5.27995082 40.3837213,4.73486885 40.3837213,4.06208197 L40.3837213,2.38478689 C40.3837213,1.712 40.9272459,1.16691803 41.6000328,1.16691803" id="Fill-136" fill="#FFFFFF"></path>
                    <path d="M41.6000328,1.61481967 C41.1764262,1.61481967 40.8306885,1.959 40.8306885,2.38416393 L40.8306885,4.06145902 C40.8306885,4.48662295 41.1764262,4.83080328 41.6000328,4.83080328 L44.6742951,4.83080328 C44.8767541,4.83080328 45.0729836,4.74981967 45.2162623,4.60498361 C45.359541,4.46170492 45.4405246,4.26547541 45.4389893,4.06145902 L45.4389893,2.38416393 C45.4405246,2.18170492 45.359541,1.98547541 45.2162623,1.84063934 C45.0729836,1.69580328 44.8767541,1.61481967 44.6742951,1.61481967 L41.6000328,1.61481967 Z M44.6742951,5.72785246 L41.6000328,5.72785246 C41.1592951,5.72785246 40.7356885,5.55186885 40.4226557,5.23883607 C40.1111803,4.92736066 39.9367541,4.5037541 39.9367541,4.06145902 L39.9367541,2.38416393 C39.9367541,1.46531148 40.6811803,0.719327869 41.6000328,0.719327869 L44.6742951,0.719327869 C45.5915902,0.722442623 46.3329016,1.46686885 46.3329016,2.38416393 L46.3329016,4.06145902 C46.3329016,4.9787541 45.5915902,5.72318033 44.6742951,5.72785246 L44.6742951,5.72785246 Z" id="Fill-138" fill="#5B4029"></path>
                    <path d="M49.5328443,1.16691803 L52.600877,1.16691803 C53.2721066,1.16691803 53.8171885,1.712 53.8171885,2.38478689 L53.8171885,4.06208197 C53.8171885,4.73486885 53.2721066,5.27995082 52.600877,5.27995082 L49.5328443,5.27995082 C48.8600574,5.27995082 48.3149754,4.73486885 48.3149754,4.06208197 L48.3149754,2.38478689 C48.3149754,1.712 48.8600574,1.16691803 49.5328443,1.16691803" id="Fill-140" fill="#FFFFFF"></path>
                    <path d="M49.5328443,1.61481967 C49.1076803,1.61481967 48.7635,1.959 48.7635,2.38416393 L48.7635,4.06145902 C48.7635,4.48662295 49.1076803,4.83080328 49.5328443,4.83080328 L52.6071066,4.83080328 C53.0307131,4.83080328 53.3764508,4.48662295 53.3764508,4.06145902 L53.3764508,2.38416393 C53.3764508,1.959 53.0307131,1.61481967 52.6071066,1.61481967 L49.5328443,1.61481967 Z M52.6071066,5.72785246 L49.5328443,5.72785246 C49.0905492,5.72785246 48.6669426,5.55186885 48.3554672,5.23883607 C48.0424344,4.92736066 47.8680082,4.5037541 47.8680082,4.06145902 L47.8680082,2.38416393 C47.8680082,1.46531148 48.6124344,0.719327869 49.5328443,0.719327869 L52.6071066,0.719327869 C53.0478443,0.719327869 53.4714508,0.895311475 53.7829262,1.20678689 C54.095959,1.51981967 54.2719426,1.94342623 54.2719426,2.38416393 L54.2719426,4.06145902 C54.2719426,4.98186885 53.525959,5.72785246 52.6071066,5.72785246 L52.6071066,5.72785246 Z" id="Fill-142" fill="#5B4029"></path>
                    <path d="M57.4703279,1.16691803 L60.5383607,1.16691803 C61.2095902,1.16691803 61.7562295,1.712 61.7562295,2.38478689 L61.7562295,4.06208197 C61.7562295,4.73486885 61.2095902,5.27995082 60.5383607,5.27995082 L57.4703279,5.27995082 C56.797541,5.27995082 56.2540164,4.73486885 56.2540164,4.06208197 L56.2540164,2.38478689 C56.2540164,1.712 56.797541,1.16691803 57.4703279,1.16691803" id="Fill-144" fill="#FFFFFF"></path>
                    <path d="M57.4642541,1.61481967 C57.2602377,1.61481967 57.0655656,1.69580328 56.9222869,1.84063934 C56.7790082,1.98547541 56.699582,2.18170492 56.7011169,2.38416393 L56.7011169,4.06145902 C56.699582,4.26547541 56.7790082,4.46170492 56.9222869,4.60498361 C57.0655656,4.74981967 57.2602377,4.83080328 57.4642541,4.83080328 L60.5385164,4.83080328 C60.7425328,4.83080328 60.9372049,4.75137705 61.082041,4.60654098 C61.226877,4.46170492 61.3078607,4.26547541 61.3078607,4.06145902 L61.3078607,2.38416393 C61.3078607,1.959 60.9636803,1.61481967 60.5385164,1.61481967 L57.4642541,1.61481967 Z M60.5385164,5.72785246 L57.4642541,5.72785246 C56.546959,5.72318033 55.8056475,4.9787541 55.8056475,4.06145902 L55.8056475,2.38416393 C55.8056475,1.46686885 56.546959,0.722442623 57.4642541,0.719327869 L60.5385164,0.719327869 C61.4573689,0.719327869 62.2033525,1.46531148 62.2033525,2.38416393 L62.2033525,4.06145902 C62.2033525,4.98186885 61.4573689,5.72785246 60.5385164,5.72785246 L60.5385164,5.72785246 Z" id="Fill-146" fill="#5B4029"></path>
                    <path d="M65.2298033,1.16691803 L68.2978361,1.16691803 C68.9690656,1.16691803 69.5141475,1.712 69.5141475,2.38478689 L69.5141475,4.06208197 C69.5141475,4.73486885 68.9690656,5.27995082 68.2978361,5.27995082 L65.2298033,5.27995082 C64.5570164,5.27995082 64.0119344,4.73486885 64.0119344,4.06208197 L64.0119344,2.38478689 C64.0119344,1.712 64.5570164,1.16691803 65.2298033,1.16691803" id="Fill-148" fill="#FFFFFF"></path>
                    <path d="M65.2237295,1.61481967 C65.0197131,1.61481967 64.825041,1.69580328 64.6802049,1.84063934 C64.5384836,1.98547541 64.4575,2.18170492 64.4606148,2.38416393 L64.4606148,4.06145902 C64.4575,4.26547541 64.5384836,4.46170492 64.6802049,4.60498361 C64.825041,4.74981967 65.0197131,4.83080328 65.2237295,4.83080328 L68.2979918,4.83080328 C68.7215984,4.83080328 69.0673361,4.48662295 69.0673361,4.06145902 L69.0673361,2.38416393 C69.0673361,1.959 68.7215984,1.61481967 68.2979918,1.61481967 L65.2237295,1.61481967 Z M68.2979918,5.72785246 L65.2237295,5.72785246 C64.3064344,5.72318033 63.565123,4.9787541 63.565123,4.06145902 L63.565123,2.38416393 C63.565123,1.46686885 64.3064344,0.722442623 65.2237295,0.719327869 L68.2979918,0.719327869 C69.2168443,0.719327869 69.9628279,1.46531148 69.9628279,2.38416393 L69.9628279,4.06145902 C69.9628279,4.98186885 69.2168443,5.72785246 68.2979918,5.72785246 L68.2979918,5.72785246 Z" id="Fill-150" fill="#5B4029"></path>
                </g>
                <path d="M14.2554508,55.1066967 L16.5712705,48.3149754 L15.305123,42.7224344 L18.8092213,30.7851393 L21.9426639,28.8446475 L23.1371721,28.6188279 L24.5575,26.2313689 L26.9434016,25.4853852 L28.477418,26.0818607 L37.4307787,21.473582 L38.0272541,24.4590738 L41.0111885,22.6680902 L41.9066803,26.3980082 L35.4186475,31.4719426 L33.1043852,40.7227623 L33.879959,42.3471066 L36.3452869,41.6774344 L39.5488115,35.5600574 C39.5488115,35.5600574 42.2352869,34.5866967 43.4282377,35.1847295 L39.8478279,45.331041 L33.2102869,49.3599754 C33.2102869,49.3599754 30.7465164,50.7803033 30.2979918,52.4918607 C29.8510246,54.2049754 28.2811885,59.3318607 28.2811885,59.3318607 L14.2554508,55.1066967 Z" id="Fill-153" fill="#FFFFFF"></path>
                <path d="M24.3296557,58.4603525 C24.3296557,58.4603525 26.5676066,50.5519918 32.6849836,49.5085492 C32.6849836,49.5085492 29.1045738,52.4924836 27.911623,58.4603525 L27.3151475,59.6548607 L24.3296557,58.4603525 Z" id="Fill-155" fill="#b4975a"></path>
                <path d="M13.8196967,55.8520574 L16.4874836,48.320582 L15.2945328,44.9068115 C14.9581393,43.9443525 14.9316639,42.9009098 15.2166639,41.922877 L18.0635492,32.0989426 C18.4637951,30.7206639 19.5181393,29.6289426 20.8808443,29.180418 L23.1063361,28.5823852" id="Fill-157" fill="#FFFFFF"></path>
                <path d="M13.8196967,56.3842131 C13.7620738,56.392 13.7044508,56.392 13.6468279,56.3842131 C13.3727295,56.2860984 13.2294508,55.9839672 13.3244508,55.7083115 L15.9315,48.3497049 L14.816418,45.1088033 C14.4519918,44.0513443 14.4224016,42.9082295 14.7323197,41.832082 L17.5807623,32.001918 C18.0199426,30.4429836 19.2082213,29.2048689 20.7484672,28.7018361 L23.0113361,28.1053607 C23.2932213,28.0306066 23.5813361,28.1988033 23.6545328,28.4806885 C23.7292869,28.7625738 23.5610902,29.0522459 23.2792049,29.1254426 L21.0474836,29.721918 C19.863877,30.1237213 18.9528115,31.0768361 18.6070738,32.2775738 L15.7601885,42.1077377 C15.5094508,42.972082 15.5328115,43.8924918 15.8255984,44.744377 L17.0605984,48.3263443 L14.3274016,56.0306885 C14.2542049,56.2471639 14.0470738,56.3904426 13.8196967,56.3842131" id="Fill-159" fill="#5B4029"></path>
                <path d="M27.8574262,60.7705656 C27.8075902,60.7767951 27.7577541,60.7767951 27.707918,60.7705656 C27.5724262,60.7316311 27.4587377,60.6397459 27.3917705,60.5167131 C27.3248033,60.3936803 27.3092295,60.2488443 27.3497213,60.1133525 L28.2218525,57.129418 C29.5160328,52.0741721 30.9846393,50.4389262 31.0500492,50.3735164 C31.9938197,49.3472049 33.5091475,48.5358115 35.1085738,47.6699098 C36.0461148,47.1684344 37.0194754,46.6435984 37.9087377,46.0580246 C39.1437377,45.3338443 40.070377,44.1813852 40.5111148,42.8186803 L40.5111148,42.7579426 L42.9639836,35.3276967 C39.5128361,34.9632705 38.8151311,37.2136803 38.785541,37.237041 L37.430623,40.8174508 C37.1222623,41.6599918 36.5148852,42.3592541 35.7237377,42.7813033 C35.1070164,43.0367131 34.4093115,43.0117951 33.8143934,42.7096639 C32.1012787,41.9403197 32.6681639,39.9764672 32.9126721,39.1292541 L35.580459,29.9080246 L35.7720164,29.8005656 C35.8125082,29.8005656 39.6327541,27.6700738 41.0359508,26.6546639 C41.268,26.4880246 41.9781639,25.9678607 41.5016066,24.4696639 C41.3941475,24.056959 41.2399672,23.6551557 41.040623,23.2767131 L34.1725902,26.8104016 C32.6494754,27.6451557 32.5124262,28.0033525 32.1370984,28.9642541 C32.0825902,29.1028607 32.0296393,29.244582 31.9642295,29.4003197 L28.7825082,40.7754016 C28.703082,41.0572869 28.4118525,41.2192541 28.1315246,41.1413852 C27.8511967,41.061959 27.6892295,40.7691721 27.7670984,40.4904016 L30.9784098,29.0249918 C31.0438197,28.8692541 31.0983279,28.7197459 31.1512787,28.5826967 C31.5935738,27.4551557 31.8863607,26.8649098 33.6695574,25.8790902 L41.363,21.9093361 L41.6324262,22.2737623 C42.0233279,22.8422049 42.3316885,23.462041 42.5450492,24.1176967 C42.9998033,25.5504836 42.6945574,26.7449918 41.6916066,27.4722869 C40.4098852,28.4035984 37.3169344,30.1354016 36.505541,30.5823689 L33.9576721,39.3799918 C33.4437377,41.169418 33.8377541,41.4917951 34.2800492,41.6958115 C34.6086557,41.8717951 34.998,41.8967131 35.3484098,41.7612213 C35.8685738,41.4497459 36.2657049,40.9685164 36.4759508,40.4000738 L37.8246393,36.8663852 C37.8246393,36.8663852 38.8634098,33.4588443 43.7925082,34.341877 L44.390541,34.4493361 L41.5545574,43.032041 C41.0515246,44.6532705 39.9675902,46.0331066 38.5114426,46.9067951 C37.5801311,47.5017131 36.5943115,48.0452377 35.6349672,48.5654016 C34.1118525,49.3830246 32.6494754,50.1585984 31.8443115,51.0540902 C31.8443115,51.0540902 30.4831639,52.6114672 29.2590656,57.3676967 L28.3884918,60.3952377 C28.3184098,60.6257295 28.0988197,60.7814672 27.8574262,60.7705656" id="Fill-161" fill="#5B4029"></path>
                <path d="M20.2597623,38.5139344 L23.2436967,27.8552459 C23.4866475,26.9768852 24.0675492,26.2309016 24.8618115,25.7839344 C25.652959,25.3354098 26.5920574,25.2217213 27.4688607,25.4677869 L28.4718115,26.0642623" id="Fill-163" fill="#FFFFFF"></path>
                <path d="M20.2597623,39.0393934 C20.2114836,39.0440656 20.1632049,39.0440656 20.1164836,39.0393934 C19.9809918,39.0020164 19.8673033,38.9116885 19.7987787,38.7902131 C19.7302541,38.6671803 19.713123,38.5223443 19.7520574,38.3884098 L22.7359918,27.7297213 C23.0194344,26.7158689 23.6937787,25.8577541 24.6095164,25.3422623 C25.5174672,24.8283279 26.5905,24.6975082 27.5950082,24.9778361 L27.7195984,25.0307869 L28.7225492,25.6288197 C28.9732869,25.7767705 29.0558279,26.0991475 28.907877,26.3514426 C28.7599262,26.600623 28.4359918,26.6831639 28.1852541,26.5352131 L27.2477131,25.9807869 C25.7245984,25.593 24.1687787,26.4869344 23.7327131,27.9975902 L20.7487787,38.6578361 C20.6864836,38.8774262 20.4886967,39.0331639 20.2597623,39.0393934" id="Fill-165" fill="#5B4029"></path>
                <path d="M24.2642459,39.8333443 C24.2159672,39.8380164 24.1676885,39.8380164 24.1209672,39.8333443 C23.9776885,39.8006393 23.8546557,39.7103115 23.7799016,39.5841639 C23.7067049,39.456459 23.6895738,39.3053934 23.7331803,39.1652295 L26.9678525,27.6998197 L27.1407213,27.2575246 C27.5830164,26.1299836 27.8695738,25.5381803 29.659,24.553918 L37.3524426,20.5857213 L37.6156393,20.9548197 C37.6748197,21.0326885 39.006377,22.9186721 37.9084262,24.7143279 C37.7573607,24.9635082 37.4318689,25.0429344 37.1826885,24.8918689 C36.9335082,24.7392459 36.854082,24.4153115 37.0067049,24.1661311 C37.3851475,23.4793279 37.3851475,22.6445738 37.0067049,21.9577705 L30.1558033,25.4852295 C28.638918,26.3199836 28.4956393,26.6781803 28.1249836,27.639082 C28.0720328,27.7776885 28.019082,27.9209672 27.9521148,28.0751475 L24.7719508,39.4502295 C24.7080984,39.6776066 24.4994098,39.8333443 24.2642459,39.8333443" id="Fill-167" fill="#5B4029"></path>
                <path d="M11.8737541,60.1681721 L13.2458033,56.0380082 C13.496541,55.3496475 14.2549836,54.996123 14.9417869,55.2437459 L27.3151475,59.3318607 C28.0144098,59.5421066 28.411541,60.2787459 28.2028525,60.9795656 L26.8308033,65.115959" id="Fill-169" fill="#b4975a"></path>
                <path d="M26.8429508,65.683 C26.7853279,65.6907869 26.7261475,65.6907869 26.670082,65.683 C26.3866393,65.5864426 26.2340164,65.2796393 26.3290164,64.9961967 L27.6963934,60.8598033 C27.7586885,60.6760328 27.74,60.4735738 27.6418852,60.305377 C27.537541,60.1122623 27.3615574,59.9658689 27.1528689,59.8989016 L14.7810656,55.7516066 C14.5863934,55.6752951 14.369918,55.6799672 14.179918,55.7640656 C13.989918,55.8481639 13.8404098,56.0039016 13.7656557,56.1985738 L12.3936066,60.3396393 C12.3468852,60.540541 12.1911475,60.6993934 11.9902459,60.7476721 C11.7893443,60.7943934 11.5790984,60.7243115 11.4467213,60.5670164 C11.3143443,60.4081639 11.2831967,60.1901311 11.3657377,60.0016885 L12.7393443,55.8637377 C12.9059836,55.398082 13.2501639,55.0149672 13.6986885,54.8031639 C14.1456557,54.5898033 14.6595902,54.5633279 15.1268033,54.7299672 L27.5110656,58.8414426 C27.9813934,58.9940656 28.3738525,59.3211148 28.6090164,59.755623 C28.8488525,60.1916885 28.8955738,60.705623 28.7398361,61.1759508 L27.3568852,65.2998852 C27.2868033,65.5257049 27.0781148,65.6798852 26.8429508,65.683" id="Fill-171" fill="#5B4029"></path>
                <path d="M5.75606557,70.8935164 L8.97360656,61.9401557 C9.48131148,60.3703197 11.3610656,59.5526967 13.1520492,60.1507295 L25.9957377,64.2731066 C27.7867213,64.8711393 28.855082,66.5951557 28.3520492,68.1587623 L25.1298361,77.112123" id="Fill-173" fill="#b4975a"></path>
                <path d="M25.1296803,77.636959 C25.0705,77.6478607 25.0097623,77.6478607 24.950582,77.636959 C24.8197623,77.5902377 24.7107459,77.492123 24.6515656,77.3659754 C24.5923852,77.2382705 24.5861557,77.0934344 24.6344344,76.9626148 L27.8519754,68.0092541 C28.040418,67.3800738 27.9438607,66.7010574 27.5887787,66.1481885 C27.185418,65.5034344 26.5609098,65.0253197 25.8336148,64.8057295 L12.9899262,60.6272869 C11.4683689,60.1382705 9.89230328,60.7892541 9.48115574,62.0772049 L6.25115574,71.0710574 C6.15304098,71.3451557 5.85090984,71.486877 5.57681148,71.3872049 C5.30427049,71.2890902 5.16254918,70.986959 5.26066393,70.714418 L8.47820492,61.7610574 C9.07468033,59.9342541 11.2347623,58.9811393 13.3123033,59.6476967 L26.1559918,63.7731885 C27.1262377,64.0659754 27.9547623,64.7029426 28.4905,65.5626148 C29.0075492,66.3802377 29.1399262,67.3847459 28.8549262,68.3082705 L25.6249262,77.302123 C25.5455,77.5061393 25.3492705,77.6400738 25.1296803,77.636959" id="Fill-175" fill="#5B4029"></path>
                <path d="M37.4602131,41.1527541 L37.0007869,42.573082 C36.803,43.192918 36.365377,43.7084098 35.7860328,44.0043115 C35.2082459,44.3002131 34.5339016,44.3562787 33.915623,44.155377 C32.6261148,43.7348852 31.9190656,42.3534918 32.3333279,41.0624262 L32.6852951,39.9582459 C32.6852951,39.9582459 32.0888197,42.3472623 34.4762787,42.9421803 C36.2672623,43.5386557 37.4602131,41.1527541 37.4602131,41.1527541" id="Fill-177" fill="#b4975a"></path>
                <path d="M90.0839836,55.1066967 L87.7681639,48.3149754 L89.0389836,42.7224344 L85.5302131,30.7851393 L82.3952131,28.8446475 L81.2022623,28.6188279 L79.7881639,26.2313689 L77.4007049,25.4853852 L75.8666885,26.0818607 L66.8790656,21.473582 L66.2825902,24.4590738 L63.2986557,22.6680902 L62.4031639,26.3980082 L68.8974262,31.4719426 L71.205459,40.7227623 L70.4594754,42.3626803 L68.000377,41.696123 L64.790623,35.5771885 C64.790623,35.5771885 62.1041475,34.6038279 60.9111967,35.2018607 L64.4900492,45.3466148 L71.1338197,49.3755492 C71.1338197,49.3755492 73.592918,50.795877 74.0398852,52.5105492 C74.4884098,54.2236639 76.0582459,59.3739098 76.0582459,59.3739098 L90.0839836,55.1066967 Z" id="Fill-179" fill="#FFFFFF"></path>
                <path d="M80.0097787,58.4603525 C80.0097787,58.4603525 77.7718279,50.5519918 71.6544508,49.5085492 C71.6544508,49.5085492 75.2348607,52.4924836 76.4278115,58.4603525 L77.0242869,59.6548607 L80.0097787,58.4603525 Z" id="Fill-181" fill="#b4975a"></path>
                <path d="M90.518959,55.8520574 L87.8449426,48.320582 L89.0394508,44.9068115 C89.3758443,43.9443525 89.3992049,42.9009098 89.1110902,41.922877 L86.268877,32.0989426 C85.8561721,30.7206639 84.7878115,29.6367295 83.4157623,29.2037787 L81.1855984,28.6073033" id="Fill-183" fill="#FFFFFF"></path>
                <path d="M90.518959,56.3842131 C90.2931393,56.3842131 90.0937951,56.2424918 90.019041,56.0306885 L87.2905164,48.3263443 L88.5270738,44.744377 C88.8183033,43.8924918 88.8416639,42.972082 88.5924836,42.1077377 L85.7455984,32.2651148 C85.3936311,31.0550328 84.4654344,30.0972459 83.2678115,29.7047869 L81.0719098,29.1083115 C80.8881393,29.0600328 80.746418,28.9183115 80.696582,28.7360984 C80.6467459,28.5538852 80.6981393,28.3592131 80.8305164,28.2252787 C80.9628934,28.0913443 81.1575656,28.0399508 81.3397787,28.0882295 L83.5652705,28.6847049 C85.1086311,29.1799508 86.3062541,30.4102787 86.7594508,31.9660984 L89.6001066,41.7962623 C89.9162541,42.8692951 89.8897787,44.017082 89.5222377,45.0729836 L88.4071557,48.3138852 L91.0142049,55.6740492 C91.1107623,55.9481475 90.9659262,56.2487213 90.6918279,56.3483934 C90.6373197,56.367082 90.5781393,56.379541 90.518959,56.3842131" id="Fill-185" fill="#5B4029"></path>
                <path d="M76.4812295,60.7705656 C76.2491803,60.7705656 76.0436066,60.6163852 75.975082,60.3952377 L75.1029508,57.4097459 C73.91,52.6348279 72.5239344,51.0899098 72.5130328,51.0774508 C71.6891803,50.181959 70.2501639,49.4063852 68.7286066,48.5887623 C67.7677049,48.0701557 66.7772131,47.5390902 65.8521311,46.9285984 C64.3928689,46.059582 63.3089344,44.6797459 62.8090164,43.056959 L59.9730328,34.4742541 L60.5695082,34.3652377 C65.4705738,33.4884344 66.537377,36.8959754 66.537377,36.9317951 L67.8704918,40.4125328 C68.0760656,40.9887623 68.4763115,41.4731066 69.0027049,41.7861393 C69.35,41.9185164 69.7377869,41.8935984 70.0663934,41.7191721 C70.5133607,41.5167131 70.9011475,41.1756475 70.3887705,39.4033525 L67.8393443,30.5948279 C67.0341803,30.1463033 63.9412295,28.4160574 62.6595082,27.4847459 C62.105082,27.096959 61.7328689,26.5004836 61.6331967,25.8308115 C61.37,24.1784344 62.6657377,22.3765492 62.7186885,22.2986803 L62.9865574,21.9342541 L70.6628689,25.8962213 C72.4522951,26.8882705 72.757541,27.4785164 73.1998361,28.6076148 C73.2465574,28.7446639 73.3072951,28.8926148 73.3727049,29.0483525 L73.3727049,29.1075328 L76.5653279,40.5137623 C76.6229508,40.7878607 76.4578689,41.0588443 76.19,41.1351557 C75.9205738,41.2099098 75.6386885,41.0650738 75.5436885,40.8003197 L72.3635246,29.4252377 C72.3027869,29.2695 72.2436066,29.1262213 72.1968852,28.9891721 C71.82,28.0329426 71.6829508,27.6700738 70.1504918,26.8290902 L63.3151639,23.3000738 C62.8681967,24.0585164 62.0739344,25.7654016 63.2622131,26.6313033 C64.657623,27.6451557 68.4840984,29.7585164 68.5261475,29.7772049 L68.7177049,29.8831066 L71.3854918,39.1043361 C71.63,39.946877 72.1968852,41.9107295 70.4822131,42.6863033 C69.8857377,42.9884344 69.184918,43.0149098 68.5681967,42.7579426 C67.7754918,42.3296639 67.1696721,41.6272869 66.8597541,40.7816311 L65.5110656,37.2479426 C65.4705738,37.117123 64.7479508,34.9336803 61.332623,35.2981066 L63.7979508,42.7875328 C64.2371311,44.1517951 65.1637705,45.3058115 66.4003279,46.0284344 C67.2911475,46.6249098 68.2582787,47.1388443 69.2004918,47.6387623 C70.799918,48.5046639 72.3152459,49.3176148 73.2590164,50.3439262 C73.3244262,50.4093361 74.7868033,52.044582 76.0934426,57.1107295 L76.9593443,60.0946639 C77.0403279,60.3765492 76.879918,60.6693361 76.6011475,60.751877 L76.4812295,60.7705656 Z" id="Fill-187" fill="#5B4029"></path>
                <path d="M84.0795164,38.5139344 L81.095582,27.8552459 C80.8526311,26.9768852 80.2701721,26.2340164 79.4774672,25.7854918 C78.6847623,25.3385246 77.7472213,25.2232787 76.8688607,25.4677869 L75.8674672,26.0642623" id="Fill-189" fill="#FFFFFF"></path>
                <path d="M84.0795164,39.0394389 C83.8443525,39.0425082 83.6341066,38.8852131 83.5718115,38.6578361 L80.587877,27.9975902 C80.1627131,26.4775902 78.6022213,25.5743115 77.072877,25.9636557 L76.1353361,26.505623 C75.8845984,26.6535738 75.5606639,26.5710328 75.4142705,26.3202951 C75.2647623,26.0695574 75.3488607,25.7471803 75.5995984,25.5992295 L76.725582,24.9544754 C77.7409918,24.6648033 78.828041,24.7909508 79.7484508,25.3064426 C80.6688607,25.8219344 81.3432049,26.6831639 81.6266475,27.7001311 L84.610582,38.3588197 C84.6884508,38.6391475 84.5249262,38.9288197 84.2461557,39.0098033 C84.1916475,39.0269344 84.135582,39.0378361 84.0795164,39.0394389" id="Fill-191" fill="#5B4029"></path>
                <path d="M80.0751885,39.8333443 C79.8400246,39.8333443 79.6313361,39.6776066 79.5674836,39.4502295 L76.3873197,28.0751475 C76.3203525,27.9209672 76.2674016,27.7776885 76.2144508,27.639082 C75.8422377,26.6844098 75.698959,26.3199836 74.1665,25.479 L67.3498607,21.9577705 C66.9760902,22.6461311 66.9760902,23.4777705 67.3498607,24.1661311 C67.5009262,24.4168689 67.4215,24.7423607 67.1707623,24.8949836 C67.0524016,24.966623 66.909123,24.9884262 66.7736311,24.9541639 C66.636582,24.921459 66.5213361,24.8358033 66.4496967,24.7143279 C65.3501885,22.9249016 66.6817459,21.0326885 66.7362541,20.9548197 L67.004123,20.5857213 L74.6851066,24.5476885 C76.4745328,25.5381803 76.7751066,26.1299836 77.2158443,27.2575246 C77.2687951,27.3945738 77.3233033,27.544082 77.3887131,27.6998197 L77.3887131,27.759 L80.5813361,39.1652295 C80.6218279,39.2991639 80.6046967,39.444 80.5361721,39.5654754 C80.4676475,39.6885082 80.353959,39.7772787 80.2184672,39.8146557 C80.1717459,39.8271148 80.1219098,39.8333443 80.0751885,39.8333443" id="Fill-193" fill="#5B4029"></path>
                <path d="M92.4656803,60.1681721 L91.0920738,56.0380082 C90.8397787,55.3527623 90.0844508,54.9992377 89.3976475,55.2437459 L77.0133852,59.3318607 C76.3125656,59.5421066 75.9154344,60.2787459 76.124123,60.9795656 L77.4961721,65.115959" id="Fill-195" fill="#b4975a"></path>
                <path d="M77.4957049,65.683 C77.2620984,65.6814426 77.0549672,65.5288197 76.9833279,65.3061148 L75.6097213,61.1759508 C75.4633279,60.7040656 75.5100492,60.1932459 75.740541,59.7540656 C75.9710328,59.3164426 76.3666066,58.9878361 76.8400492,58.8414426 L89.2243115,54.7299672 C89.6915246,54.5633279 90.205459,54.5898033 90.6524262,54.8031639 C91.1009508,55.0149672 91.4451311,55.398082 91.6102131,55.8637377 L92.9838197,60.0016885 C93.0445574,60.185459 93.0025082,60.387918 92.8732459,60.5327541 C92.7439836,60.6775902 92.5477541,60.7414426 92.3577541,60.7025082 C92.1677541,60.6620164 92.0120164,60.5249672 91.9512787,60.3396393 L90.5792295,56.2048033 C90.4157049,55.8061148 89.9671803,55.6114426 89.5638197,55.7625082 L77.1795574,59.8693115 C76.7668525,59.9876721 76.525459,60.4143934 76.6360328,60.8302131 L78.0096393,64.9666066 C78.0548033,65.1036557 78.0439016,65.2531639 77.9800492,65.3824262 C77.9146393,65.5101311 77.7993934,65.6066885 77.6623443,65.6518525 C77.6093934,65.670541 77.5533279,65.6814426 77.4957049,65.683" id="Fill-197" fill="#5B4029"></path>
                <path d="M98.5825902,70.8935164 L95.360377,61.9401557 C94.8573443,60.3703197 92.9713607,59.5526967 91.1819344,60.1507295 L78.3382459,64.2731066 C76.5472623,64.8711393 75.4789016,66.5951557 75.980377,68.1587623 L79.2041475,77.112123" id="Fill-199" fill="#b4975a"></path>
                <g id="Group-203" transform="translate(74.754098, 58.960270)">
                    <mask id="mask-2" fill="white">
                        <use xlink:href="#path-1"></use>
                    </mask>
                    <g id="Clip-202"></g>
                    <path d="M4.48446721,18.6766885 C4.26331967,18.6766885 4.06397541,18.538082 3.99077869,18.3293934 L0.76545082,9.37759016 C0.16897541,7.52119672 1.36348361,5.4732459 3.45192623,4.81291803 L16.3018443,0.68742623 C18.3731557,0.0208688525 20.5456967,0.973983607 21.1421721,2.81791803 L24.3534836,11.7712787 C24.4173361,11.9488197 24.3815164,12.1466066 24.260041,12.2883279 C24.140123,12.4331639 23.9516803,12.5016885 23.7663525,12.4689836 C23.5810246,12.4347213 23.4268443,12.305459 23.3629918,12.1294754 L20.1407787,3.17767213 C19.7218443,1.86947541 18.1457787,1.2184918 16.6242213,1.7075082 L3.78053279,5.833 C2.2527459,6.32201639 1.35102459,7.76570492 1.76372951,9.05521311 L4.97971311,18.0070164 C5.02954918,18.1393934 5.0217623,18.2842295 4.96258197,18.410377 C4.90340164,18.538082 4.79594262,18.6361967 4.66356557,18.682918 C4.60438525,18.6922623 4.54364754,18.6907049 4.48446721,18.6766885" id="Fill-201" fill="#5B4029" mask="url(#mask-2)"></path>
                </g>
                <path d="M66.8784426,41.1527541 L67.3378689,42.573082 C67.7552459,43.8610328 69.1397541,44.568082 70.4292623,44.155377 C71.0490984,43.9544754 71.5630328,43.5152951 71.857377,42.9359508 C72.1548361,42.3550492 72.2062295,41.6822623 72.0053279,41.0624262 L71.6533607,39.9582459 C71.6533607,39.9582459 72.2498361,42.3472623 69.862377,42.9421803 C68.0729508,43.5386557 66.8784426,41.1527541 66.8784426,41.1527541" id="Fill-204" fill="#b4975a"></path>
                <path d="M0.52795082,70.1937869 C0.467213115,70.2062459 0.403360656,70.2062459 0.342622951,70.1937869 C0.0716393443,70.0941148 -0.0669672131,69.7919836 0.032704918,69.5194426 L2.42016393,62.9550984 C2.46688525,62.8242787 2.565,62.7152623 2.69114754,62.656082 C2.81729508,62.5969016 2.96213115,62.5906721 3.0945082,62.6373934 C3.3654918,62.738623 3.50721311,63.0391967 3.41065574,63.3132951 L1.02319672,69.8776393 C0.939098361,70.0754262 0.742868852,70.2000164 0.52795082,70.1937869" id="Fill-206" fill="#F9F9F9"></path>
                <path d="M94.9417541,70.1937999 C94.7190492,70.1953443 94.5212623,70.0567377 94.4465082,69.8480492 L92.0590492,63.2837049 C91.9936393,63.1061639 92.029459,62.9068197 92.149377,62.763541 C92.2692951,62.6187049 92.4592951,62.548623 92.644623,62.5797705 C92.8315082,62.6140328 92.9841311,62.7417377 93.049541,62.9192787 L95.437,69.483623 C95.5382295,69.7592787 95.3965082,70.0629672 95.1208525,70.1641967 C95.0632295,70.1828852 95.0024918,70.1937999 94.9417541,70.1937999" id="Fill-208" fill="#F9F9F9"></path>
                <path d="M64.5454918,61.5582869 C65.6559016,61.5582869 66.5560656,62.4584508 66.5560656,63.5688607 C66.5560656,64.6808279 65.6559016,65.5809918 64.5454918,65.5809918 C63.4335246,65.5809918 62.5333607,64.6808279 62.5333607,63.5688607 C62.5333607,62.4584508 63.4335246,61.5582869 64.5454918,61.5582869" id="Fill-210" fill="#FFFFFF"></path>
                <path d="M64.5454918,62.2259344 C63.802623,62.2259344 63.2030328,62.8286393 63.2030328,63.5683934 C63.2030328,64.3112623 63.802623,64.9124098 64.5454918,64.9124098 C65.2868033,64.9124098 65.8879508,64.3112623 65.8879508,63.5683934 C65.8879508,62.8286393 65.2868033,62.2259344 64.5454918,62.2259344 M64.5454918,66.2486393 C63.4584426,66.2486393 62.4788525,65.594541 62.0630328,64.5900328 C61.6487705,63.5855246 61.8792623,62.4299508 62.6470492,61.6621639 C63.4163934,60.8959344 64.5735246,60.6654426 65.5764754,61.084377 C66.5809836,61.5017541 67.2335246,62.4829016 67.23197,63.5683934 C67.2272951,65.049459 66.025,66.2486393 64.5454918,66.2486393" id="Fill-212" fill="#5B4029"></path>
                <path d="M8.08372131,0.680729508 C9.19413115,0.680729508 10.0958525,1.58089344 10.0958525,2.69286066 C10.0958525,3.80327049 9.19413115,4.70343443 8.08372131,4.70343443 C6.97331148,4.70343443 6.07159016,3.80327049 6.07159016,2.69286066 C6.07159016,1.58089344 6.97331148,0.680729508 8.08372131,0.680729508" id="Fill-214" fill="#FFFFFF"></path>
                <path d="M8.08372131,1.34915574 C7.53863934,1.34136885 7.04495082,1.6637459 6.83003279,2.16522131 C6.61667213,2.66669672 6.7272459,3.24759836 7.11036066,3.63538525 C7.49347541,4.02317213 8.0712623,4.13997541 8.57585246,3.93440164 C9.08044262,3.72727049 9.40906142,3.23669672 9.40906142,2.69161475 C9.41216393,1.95653279 8.82036066,1.35538525 8.08372131,1.34915574 M8.08372131,5.37186066 C6.99667213,5.37186066 6.01708197,4.71620492 5.60281967,3.7132541 C5.187,2.7087459 5.4174918,1.55161475 6.18683607,0.785385246 C6.95618033,0.0175983607 8.11331148,-0.211336066 9.1162623,0.206040984 C10.1192131,0.623418033 10.7717541,1.60612295 10.7701995,2.69161475 C10.767082,4.17268033 9.56478689,5.37186066 8.08372131,5.37186066" id="Fill-216" fill="#5B4029"></path>
            </g>
        </g>
    </g>
</svg>