<svg xmlns="http://www.w3.org/2000/svg" viewBox="0 0 49.72 49.93">
    <defs>
        <style>
        .cls-1 {
            opacity: 0.01;
        }

        .cls-2 {
            fill: #fff;
        }

        .cls-3 {
            fill: #f6e8c8;
        }

        .cls-4 {
            fill: #b4975a;
        }

        .cls-5 {
            fill: #5B4029;
        }

        .cls-6 {
            fill: #b4975a;
        }

        .cls-7 {
            fill: #b4975a;
        }
        </style>
    </defs>
    <title>Request a new service</title>
    <g id="Layer_2" data-name="Layer 2">
        <g id="Layer_1-2" data-name="Layer 1">
            <g class="cls-1">
                <rect class="cls-2" width="49.72" height="49.93" />
            </g>
            <path class="cls-3" d="M44.53,14.53a15.8,15.8,0,0,0-30.75.74A11.76,11.76,0,0,1,10,21.72a14.71,14.71,0,1,0,23.49,16,12.56,12.56,0,0,1,4.78-6.14A15.78,15.78,0,0,0,44.53,14.53Z" />
            <circle class="cls-4" cx="8.03" cy="36.77" r="1.29" />
            <path class="cls-5" d="M17,42.35a4,4,0,0,1-2.85-1.17,4,4,0,0,1-1.19-2.86A7.36,7.36,0,0,1,20.27,31h1.19a.38.38,0,1,1,0,.75H20.27a6.6,6.6,0,0,0-6.59,6.58,3.28,3.28,0,0,0,1,2.33,3.24,3.24,0,0,0,2.32,1h0l26.22-.11h0a.38.38,0,0,1,0,.75L17,42.35Z" />
            <path class="cls-2" d="M38.59,35.42H16.73a.9.9,0,0,1-.9-.8L13.35,14.7h35a.71.71,0,0,1,.69.93L44.17,31.31A5.84,5.84,0,0,1,38.59,35.42Z" />
            <path class="cls-6" d="M37.56,35.42h-21a.88.88,0,0,1-.86-.8L13.35,14.7H46.92a.71.71,0,0,1,.66.93L42.91,31.31A5.63,5.63,0,0,1,37.56,35.42Z" />
            <path class="cls-5" d="M30.14,35.49H16.65a1.28,1.28,0,0,1-1.27-1.13L12.9,14.44a.38.38,0,0,1,.09-.29.39.39,0,0,1,.28-.13H30a.38.38,0,1,1,0,.75H13.7l2.42,19.5a.53.53,0,0,0,.53.47H30.14a.37.37,0,0,1,.37.38A.36.36,0,0,1,30.14,35.49Z" />
            <path class="cls-5" d="M38.51,35.49h-6a.37.37,0,0,1-.37-.37.38.38,0,0,1,.37-.38h6a5.43,5.43,0,0,0,5.22-3.84L48.6,15.22a.31.31,0,0,0-.05-.31.32.32,0,0,0-.27-.14H33.51a.38.38,0,0,1,0-.75H48.28a1.09,1.09,0,0,1,1,1.42L44.45,31.12A6.18,6.18,0,0,1,38.51,35.49Z" />
            <path class="cls-5" d="M15.14,29.41a.39.39,0,0,1-.38-.33l-2-15.92A3.89,3.89,0,0,0,8.86,9.24H4.65a.38.38,0,0,1,0-.75H8.86a4.63,4.63,0,0,1,4.63,4.62l2,15.87a.37.37,0,0,1-.33.42Z" />
            <circle class="cls-2" cx="37.52" cy="42.43" r="3.6" />
            <path class="cls-5" d="M37.52,46.4a4,4,0,1,1,4-4A4,4,0,0,1,37.52,46.4Zm0-7.2a3.23,3.23,0,1,0,3.22,3.23A3.23,3.23,0,0,0,37.52,39.2Z" />
            <circle class="cls-2" cx="22.33" cy="42.43" r="3.6" />
            <path class="cls-5" d="M22.33,46.4a4,4,0,1,1,4-4A4,4,0,0,1,22.33,46.4Zm0-7.2a3.23,3.23,0,1,0,3.23,3.23A3.23,3.23,0,0,0,22.33,39.2Z" />
            <path class="cls-2" d="M40.85,22.56H19.23a.38.38,0,1,1,0-.75H40.85a.38.38,0,0,1,0,.75Z" />
            <path class="cls-2" d="M36.23,27.54H23.84a.38.38,0,0,1,0-.75H36.23a.38.38,0,0,1,0,.75Z" />
            <circle class="cls-7" cx="37.51" cy="42.42" r="2.06" />
            <circle class="cls-7" cx="22.41" cy="42.47" r="2.06" />
            <path class="cls-4" d="M43.05,12h0a.38.38,0,0,1-.33-.2,6.64,6.64,0,0,0-2.64-2.64.36.36,0,0,1,0-.65,6.64,6.64,0,0,0,2.64-2.64.39.39,0,0,1,.66,0A6.6,6.6,0,0,0,46,8.5a.36.36,0,0,1,.19.33.36.36,0,0,1-.19.32,6.66,6.66,0,0,0-2.65,2.64A.38.38,0,0,1,43.05,12ZM41,8.83a7.13,7.13,0,0,1,2.07,2.06,7.38,7.38,0,0,1,2.07-2.06,7.55,7.55,0,0,1-2.07-2.07A7.29,7.29,0,0,1,41,8.83Z" />
            <circle class="cls-4" cx="23.16" cy="6.36" r="0.84" />
        </g>
    </g>
</svg>