<svg width="143px" height="157px" viewBox="0 0 143 157" version="1.1" xmlns="http://www.w3.org/2000/svg" xmlns:xlink="http://www.w3.org/1999/xlink">
    <g id="New-Requester-Portal" stroke="none" stroke-width="1" fill="none" fill-rule="evenodd">
        <g id="01-Date-&amp;-Time-Picker" transform="translate(-1053.000000, -113.000000)">
            <g id="Group-121" transform="translate(1054.000000, 114.000000)">
                <g id="Group-7" transform="translate(0.000000, 0.157440)" stroke="#b4975a" stroke-linecap="round" stroke-width="0.73216">
                    <path d="M95.462592,154.834144 C95.462592,154.834144 95.030912,154.789024 94.253632,154.680544" id="Stroke-1"></path>
                    <path d="M91.856352,154.301024 C79.700512,152.180704 41.659232,142.721824 53.922912,108.641184 C53.922912,108.641184 71.621792,62.697504 123.377312,73.892384 C123.377312,73.892384 141.147872,79.197664 140.738912,95.291424 C140.738912,95.291424 134.474272,148.464864 26.570912,101.738144 C26.570912,101.738144 -64.075168,59.108064 89.772192,1.062944" id="Stroke-3" stroke-dasharray="2.428159904479981,2.428159904479981"></path>
                    <path d="M90.908832,0.635392 C91.288352,0.493312 91.669152,0.350912 92.051552,0.208512" id="Stroke-5"></path>
                </g>
                <path d="M102.713856,63.170016 L87.993856,63.170016 C83.575296,63.170016 79.993856,59.588576 79.993856,55.170016 C79.993856,50.751776 83.575296,47.170016 87.993856,47.170016 L102.713856,47.170016 C107.132096,47.170016 110.713856,50.751776 110.713856,55.170016 C110.713856,59.588576 107.132096,63.170016 102.713856,63.170016" id="Fill-8" fill="#FEFEFE"></path>
                <path d="M102.713856,63.170016 L87.993856,63.170016 C83.575296,63.170016 79.993856,59.588576 79.993856,55.170016 C79.993856,50.751776 83.575296,47.170016 87.993856,47.170016 L102.713856,47.170016 C107.132096,47.170016 110.713856,50.751776 110.713856,55.170016 C110.713856,59.588576 107.132096,63.170016 102.713856,63.170016 Z" id="Stroke-10" stroke="#5B4029" stroke-width="1.42752" stroke-linecap="round"></path>
                <g id="Group-16" transform="translate(30.720000, 48.477440)">
                    <path d="M65.812608,76.62976 L6.840448,76.62976 C3.177408,76.62976 0.207808,73.66016 0.207808,69.99712 L0.207808,6.75872 C0.207808,3.09568 3.177408,0.1264 6.840448,0.1264 L72.445248,0.1264 L72.445248,69.99712 C72.445248,73.66016 69.475648,76.62976 65.812608,76.62976" id="Fill-12" fill="#5B402966"></path>
                    <path d="M65.812608,76.62976 L6.840448,76.62976 C3.177408,76.62976 0.207808,73.66016 0.207808,69.99712 L0.207808,6.75872 C0.207808,3.09568 3.177408,0.1264 6.840448,0.1264 L72.445248,0.1264 L72.445248,69.99712 C72.445248,73.66016 69.475648,76.62976 65.812608,76.62976 Z" id="Stroke-14" stroke="#5B402966" stroke-width="1.42752" stroke-linecap="round"></path>
                </g>
                <path d="M95.105088,123.679712 L36.133248,123.679712 C32.470208,123.679712 29.500288,120.710432 29.500288,117.047072 L29.500288,53.808672 C29.500288,50.145952 32.470208,47.176352 36.133248,47.176352 L101.738048,47.176352 L101.738048,117.047072 C101.738048,120.710432 98.768128,123.679712 95.105088,123.679712" id="Fill-17" fill="#FEFEFE"></path>
                <path d="M95.105088,123.679712 L36.133248,123.679712 C32.470208,123.679712 29.500288,120.710432 29.500288,117.047072 L29.500288,53.808672 C29.500288,50.145952 32.470208,47.176352 36.133248,47.176352 L101.738048,47.176352 L101.738048,117.047072 C101.738048,120.710432 98.768128,123.679712 95.105088,123.679712 Z" id="Stroke-19" stroke="#5B4029" stroke-width="1.42752" stroke-linecap="round"></path>
                <path d="M65.793856,73.63504 L64.236416,73.63504 C60.205056,73.63504 56.937536,70.3672 56.937536,66.33584 L56.937536,64.93392 C56.937536,60.90288 60.205056,57.63504 64.236416,57.63504 L65.793856,57.63504 C69.825216,57.63504 73.093056,60.90288 73.093056,64.93392 L73.093056,66.33584 C73.093056,70.3672 69.825216,73.63504 65.793856,73.63504" id="Fill-21" fill="#FEFEFE"></path>
                <g id="Group-26" transform="translate(14.720000, 107.357440)">
                    <path d="M70.354784,16.248512 L8.062624,16.248512 C3.644384,16.248512 0.062624,12.667072 0.062624,8.248512 C0.062624,3.830272 3.644384,0.248512 8.062624,0.248512 L70.354784,0.248512" id="Fill-23" fill="#FEFEFE"></path>
                    <path d="M70.354784,16.248512 L8.062624,16.248512 C3.644384,16.248512 0.062624,12.667072 0.062624,8.248512 C0.062624,3.830272 3.644384,0.248512 8.062624,0.248512 L70.354784,0.248512" id="Stroke-25" stroke="#5B4029" stroke-width="1.42752" stroke-linecap="round"></path>
                </g>
                <g id="Group-30" transform="translate(76.800000, 107.357440)">
                    <path d="M8.286976,16.25728 L8.286976,16.25728 C3.868736,16.25728 0.286976,12.67584 0.286976,8.25728 C0.286976,3.83904 3.868736,0.25728 8.286976,0.25728" id="Fill-27" fill="#FEFEFE"></path>
                    <path d="M8.286976,16.25728 L8.286976,16.25728 C3.868736,16.25728 0.286976,12.67584 0.286976,8.25728 C0.286976,3.83904 3.868736,0.25728 8.286976,0.25728" id="Stroke-29" stroke="#5B4029" stroke-width="1.42752" stroke-linecap="round"></path>
                </g>
                <line x1="21.786496" y1="124.659392" x2="110.959936" y2="124.659392" id="Stroke-31" stroke="#f6e8c8" stroke-width="1.28" stroke-linecap="round"></line>
                <line x1="113.093216" y1="124.659392" x2="115.653216" y2="124.659392" id="Stroke-33" stroke="#f6e8c8" stroke-width="1.28" stroke-linecap="round"></line>
                <line x1="117.760736" y1="124.659392" x2="126.105056" y2="124.659392" id="Stroke-35" stroke="#f6e8c8" stroke-width="1.28" stroke-linecap="round"></line>
                <line x1="6.809472" y1="124.659392" x2="9.369472" y2="124.659392" id="Stroke-37" stroke="#f6e8c8" stroke-width="1.28" stroke-linecap="round"></line>
                <line x1="11.476832" y1="124.659392" x2="19.821472" y2="124.659392" id="Stroke-39" stroke="#f6e8c8" stroke-width="1.28" stroke-linecap="round"></line>
                <line x1="55.71696" y1="129.716288" x2="77.0296" y2="129.716288" id="Stroke-41" stroke="#f6e8c8" stroke-width="1.28" stroke-linecap="round"></line>
                <line x1="79.162912" y1="129.716288" x2="81.722912" y2="129.716288" id="Stroke-43" stroke="#f6e8c8" stroke-width="1.28" stroke-linecap="round"></line>
                <line x1="83.8304" y1="129.716288" x2="92.17472" y2="129.716288" id="Stroke-45" stroke="#f6e8c8" stroke-width="1.28" stroke-linecap="round"></line>
                <line x1="40.739776" y1="129.716288" x2="43.299776" y2="129.716288" id="Stroke-47" stroke="#f6e8c8" stroke-width="1.28" stroke-linecap="round"></line>
                <line x1="45.407296" y1="129.716288" x2="53.751616" y2="129.716288" id="Stroke-49" stroke="#f6e8c8" stroke-width="1.28" stroke-linecap="round"></line>
                <g id="Group-54" transform="translate(37.120000, 58.077440)">
                    <line x1="0.06448" y1="0.47728" x2="30.47824" y2="0.47728" id="Fill-51" fill="#FEFEFE"></line>
                    <line x1="0.06448" y1="0.47728" x2="30.47824" y2="0.47728" id="Stroke-53" stroke="#5B4029" stroke-width="1.42752" stroke-linecap="round"></line>
                </g>
                <g id="Group-58" transform="translate(37.120000, 65.757440)">
                    <line x1="0.06448" y1="0.328224" x2="35.15408" y2="0.328224" id="Fill-55" fill="#FEFEFE"></line>
                    <line x1="0.06448" y1="0.328224" x2="35.15408" y2="0.328224" id="Stroke-57" stroke="#5B4029" stroke-width="1.42752" stroke-linecap="round"></line>
                </g>
                <g id="Group-62" transform="translate(37.120000, 73.437440)">
                    <line x1="0.06448" y1="0.179168" x2="39.83024" y2="0.179168" id="Fill-59" fill="#FEFEFE"></line>
                    <line x1="0.06448" y1="0.179168" x2="39.83024" y2="0.179168" id="Stroke-61" stroke="#5B4029" stroke-width="1.42752" stroke-linecap="round"></line>
                </g>
                <g id="Group-66" transform="translate(37.120000, 80.797440)">
                    <line x1="0.06448" y1="0.3504" x2="44.50608" y2="0.3504" id="Fill-63" fill="#FEFEFE"></line>
                    <line x1="0.06448" y1="0.3504" x2="44.50608" y2="0.3504" id="Stroke-65" stroke="#5B4029" stroke-width="1.42752" stroke-linecap="round"></line>
                </g>
                <g id="Group-70" transform="translate(37.120000, 88.477440)">
                    <line x1="0.06448" y1="0.201344" x2="49.18192" y2="0.201344" id="Fill-67" fill="#FEFEFE"></line>
                    <line x1="0.06448" y1="0.201344" x2="49.18192" y2="0.201344" id="Stroke-69" stroke="#5B4029" stroke-width="1.42752" stroke-linecap="round"></line>
                </g>
                <g id="Group-74" transform="translate(37.120000, 95.837440)">
                    <line x1="0.06448" y1="0.372608" x2="53.85776" y2="0.372608" id="Fill-71" fill="#FEFEFE"></line>
                    <line x1="0.06448" y1="0.372608" x2="53.85776" y2="0.372608" id="Stroke-73" stroke="#5B4029" stroke-width="1.42752" stroke-linecap="round"></line>
                </g>
                <path d="M103.276672,72.018784 C103.276672,81.842784 95.312512,89.806624 85.488512,89.806624 C75.664512,89.806624 67.700672,81.842784 67.700672,72.018784 C67.700672,62.194784 75.664512,54.230624 85.488512,54.230624 C95.312512,54.230624 103.276672,62.194784 103.276672,72.018784" id="Fill-75" fill="#FEFEFE"></path>
                <path d="M103.276672,72.018784 C103.276672,81.842784 95.312512,89.806624 85.488512,89.806624 C75.664512,89.806624 67.700672,81.842784 67.700672,72.018784 C67.700672,62.194784 75.664512,54.230624 85.488512,54.230624 C95.312512,54.230624 103.276672,62.194784 103.276672,72.018784 Z" id="Stroke-77" stroke="#5B4029" stroke-width="1.42752" stroke-linecap="round"></path>
                <path d="M98.295712,72.018784 C98.295712,79.092064 92.561632,84.825824 85.488672,84.825824 C78.415392,84.825824 72.681312,79.092064 72.681312,72.018784 C72.681312,64.945504 78.415392,59.211744 85.488672,59.211744 C92.561632,59.211744 98.295712,64.945504 98.295712,72.018784" id="Fill-79" fill="#FEFEFE"></path>
                <path d="M98.295712,72.018784 C98.295712,79.092064 92.561632,84.825824 85.488672,84.825824 C78.415392,84.825824 72.681312,79.092064 72.681312,72.018784 C72.681312,64.945504 78.415392,59.211744 85.488672,59.211744 C92.561632,59.211744 98.295712,64.945504 98.295712,72.018784 Z" id="Stroke-81" stroke="#5B4029" stroke-width="1.42752" stroke-linecap="round"></path>
                <path d="M122.35072,109.322208 L122.35072,109.322208 C120.40224,111.270688 117.2432,111.270688 115.29472,109.322208 L100.416,94.443488 L107.472,87.387488 L122.35072,102.266208 C124.2992,104.214688 124.2992,107.373728 122.35072,109.322208" id="Fill-83" fill="#FEFEFE"></path>
                <path d="M122.35072,109.322208 L122.35072,109.322208 C120.40224,111.270688 117.2432,111.270688 115.29472,109.322208 L100.416,94.443488 L107.472,87.387488 L122.35072,102.266208 C124.2992,104.214688 124.2992,107.373728 122.35072,109.322208 Z" id="Stroke-85" stroke="#5B4029" stroke-width="1.28" stroke-linecap="round"></path>
                <polygon id="Fill-87" fill="#FEFEFE" points="105.213216 89.606272 102.453536 92.365952 96.609056 86.521792 99.369056 83.761792"></polygon>
                <polygon id="Stroke-89" stroke="#5B4029" stroke-width="1.28" stroke-linecap="round" points="105.213216 89.606272 102.453536 92.365952 96.609056 86.521792 99.369056 83.761792"></polygon>
                <g id="Group-94" transform="translate(102.720000, 89.757440)">
                    <line x1="0.138208" y1="7.074144" x2="6.968288" y2="0.244064" id="Fill-91" fill="#FEFEFE"></line>
                    <line x1="0.138208" y1="7.074144" x2="6.968288" y2="0.244064" id="Stroke-93" stroke="#5B4029" stroke-width="1.28" stroke-linecap="round"></line>
                </g>
                <g id="Group-98" transform="translate(115.200000, 102.237440)">
                    <line x1="0.211968" y1="7.147904" x2="7.042048" y2="0.317824" id="Fill-95" fill="#FEFEFE"></line>
                    <line x1="0.211968" y1="7.147904" x2="7.042048" y2="0.317824" id="Stroke-97" stroke="#5B4029" stroke-width="1.28" stroke-linecap="round"></line>
                </g>
                <g id="Group-102" transform="translate(104.960000, 94.877440)">
                    <line x1="0.089152" y1="0.086976" x2="12.160192" y2="12.158016" id="Fill-99" fill="#FEFEFE"></line>
                    <line x1="0.089152" y1="0.086976" x2="12.160192" y2="12.158016" id="Stroke-101" stroke="#5B4029" stroke-width="1.28" stroke-linecap="round"></line>
                </g>
                <g id="Group-106" transform="translate(107.520000, 91.997440)">
                    <line x1="0.2248" y1="0.271328" x2="12.29584" y2="12.342368" id="Fill-103" fill="#FEFEFE"></line>
                    <line x1="0.2248" y1="0.271328" x2="12.29584" y2="12.342368" id="Stroke-105" stroke="#5B4029" stroke-width="1.28" stroke-linecap="round"></line>
                </g>
                <path d="M84.388224,76.1816 C84.388224,75.85104 84.513984,75.56368 84.765504,75.31984 C85.017984,75.07568 85.316544,74.95312 85.663104,74.95312 C86.009344,74.95312 86.309504,75.07152 86.561024,75.30832 C86.813184,75.54448 86.938944,75.828 86.938944,76.15824 C86.938944,76.5048 86.816704,76.80048 86.572544,77.04432 C86.328384,77.28848 86.033024,77.41008 85.687424,77.41008 C85.340864,77.41008 85.037504,77.28848 84.777984,77.04432 C84.518144,76.80048 84.388224,76.51312 84.388224,76.1816 L84.388224,76.1816 Z M86.561024,73.72496 L84.694784,73.72496 L84.694784,72.7096 C84.694784,72.28432 84.745344,71.96528 84.848704,71.7528 C84.950464,71.53968 85.182464,71.25328 85.545664,70.8904 L86.749824,69.68592 C87.001344,69.41776 87.128064,69.0712 87.128064,68.64656 C87.128064,68.23696 86.998144,67.89872 86.738304,67.63056 C86.478464,67.36336 86.136064,67.22928 85.710784,67.22928 C85.285184,67.22928 84.930944,67.35952 84.648064,67.61904 C84.364224,67.87888 84.206784,68.22128 84.175104,68.64656 L82.167424,68.64656 C82.276864,67.66992 82.659584,66.90224 83.313344,66.3432 C83.966144,65.78448 84.789504,65.5048 85.781504,65.5048 C86.774144,65.5048 87.577024,65.77616 88.191424,66.32016 C88.805184,66.86288 89.112704,67.60752 89.112704,68.55184 C89.112704,69.19824 88.923584,69.74928 88.545344,70.2056 C88.308864,70.52048 88.009664,70.84336 87.647744,71.17424 C87.269504,71.5208 87.009664,71.78032 86.868224,71.95376 C86.663104,72.23696 86.561024,72.5832 86.561024,72.9928 L86.561024,73.72496 Z" id="Fill-107" fill="#5B4029"></path>
                <path d="M84.189152,27.955968 C84.189152,28.839488 83.472992,29.555968 82.589152,29.555968 C81.705632,29.555968 80.989152,28.839488 80.989152,27.955968 C80.989152,27.072128 81.705632,26.355968 82.589152,26.355968 C83.472992,26.355968 84.189152,27.072128 84.189152,27.955968" id="Fill-109" fill="#b4975a"></path>
                <path d="M109.473216,38.069408 C109.473216,40.968288 107.123136,43.318048 104.224576,43.318048 C101.325696,43.318048 98.975616,40.968288 98.975616,38.069408 C98.975616,35.170208 101.325696,32.820768 104.224576,32.820768 C107.123136,32.820768 109.473216,35.170208 109.473216,38.069408" id="Fill-111" fill="#b4975a"></path>
                <path d="M17.414784,115.10848 C17.414784,116.13376 16.583744,116.9648 15.558464,116.9648 C14.533504,116.9648 13.702144,116.13376 13.702144,115.10848 C13.702144,114.08352 14.533504,113.25216 15.558464,113.25216 C16.583744,113.25216 17.414784,114.08352 17.414784,115.10848" id="Fill-113" fill="#b4975a"></path>
                <polygon id="Fill-115" fill="#b4975a" points="22.20416 48.665024 20.91424 48.665024 20.91424 47.375104 20.0544 47.375104 20.0544 48.665024 18.76448 48.665024 18.76448 49.524864 20.0544 49.524864 20.0544 50.814784 20.91424 50.814784 20.91424 49.524864 22.20416 49.524864"></polygon>
                <polygon id="Fill-119" fill="#b4975a" points="113.415104 117.22096 112.125504 117.22096 112.125504 115.93136 111.265344 115.93136 111.265344 117.22096 109.975744 117.22096 109.975744 118.08112 111.265344 118.08112 111.265344 119.37104 112.125504 119.37104 112.125504 118.08112 113.415104 118.08112"></polygon>
            </g>
        </g>
    </g>
</svg>