<svg width="58" height="58" viewBox="0 0 58 58" fill="none" xmlns="http://www.w3.org/2000/svg">
    <path d="M14.0469 20.3906V16.5C14.0469 15.3954 14.9423 14.5 16.0469 14.5H31.7188H36.4766H41.2344H47.3906C48.4952 14.5 49.3906 15.3954 49.3906 16.5V18.5781M21.2969 35.7969H47.3906C48.4952 35.7969 49.3906 34.9014 49.3906 33.7969V24.4688V22.6562" stroke="black" stroke-width="1.5" stroke-linecap="round" />
    <path d="M5.4375 23.5625V22.8437C5.4375 21.7392 6.33293 20.8438 7.4375 20.8438H18.8438C19.9483 20.8438 20.8438 21.7392 20.8438 22.8437V41.9531C20.8438 43.0577 19.9483 43.9531 18.8438 43.9531H7.4375C6.33293 43.9531 5.4375 43.0577 5.4375 41.9531V29.4531" stroke="black" stroke-width="1.5" stroke-linecap="round" />
    <path d="M43.0469 41.9531V26.4688C43.0469 25.3642 43.9423 24.4688 45.0469 24.4688H51.0156C52.1202 24.4688 53.0156 25.3642 53.0156 26.4688V41.9531C53.0156 43.0577 52.1202 43.9531 51.0156 43.9531H45.0469C43.9423 43.9531 43.0469 43.0577 43.0469 41.9531Z" fill="#F7F6ED" stroke="black" stroke-width="1.5" stroke-linecap="round" />
    <path d="M33.8044 41.8438H29.1653V41.5365V37H33.8044V41.5365V41.8438Z" stroke="black" stroke-width="1.5" stroke-linecap="round" />
</svg>