<?xml version="1.0" encoding="utf-8"?>
<!-- Generator: Adobe Illustrator 16.0.0, SVG Export Plug-In . SVG Version: 6.00 Build 0)  -->
<!DOCTYPE svg PUBLIC "-//W3C//DTD SVG 1.1//EN" "http://www.w3.org/Graphics/SVG/1.1/DTD/svg11.dtd">
<svg version="1.1" id="Layer_1" xmlns="http://www.w3.org/2000/svg" xmlns:xlink="http://www.w3.org/1999/xlink" x="0px" y="0px"
	 width="64px" height="64px" viewBox="0 0 64 64" enable-background="new 0 0 64 64" xml:space="preserve">
<g>
	
		<path fill="none" stroke="#0470B7" stroke-width="3" stroke-linecap="round" stroke-linejoin="round" stroke-miterlimit="22.926" d="
		M35.271,18.182l9.254-8.539l3.201-6.472c0.695-1.405,3.441-0.924,3.999,0.541c0.554,1.453-0.066,5.307-0.831,6.687l-2.932,5.288
		l10.767-0.665c1.567-0.096,3.06,1.063,3.06,2.632v0c0,1.375-0.819,2.601-2.077,2.961c-0.177,0.05-0.964,0.114-1.156,0.099
		l-0.271-0.023l1.031,0.654c0.494,0.313,0.833,0.853,0.87,1.353c0.092,1.227-0.614,2.337-1.676,2.816
		c-0.175,0.078-1.089,0.054-1.278,0.096c0.15,0.093,1.022,0.286,1.153,0.403c0.525,0.475,0.877,1.143,0.935,1.9v0
		c0.092,1.228-0.616,2.34-1.682,2.818c-0.171,0.078-1.471,0.095-1.659,0.138c0.235,0.146,1.567,0.368,1.753,0.575
		c0.406,0.452,0.671,1.036,0.72,1.686c0.118,1.565-1.063,3.025-2.631,3.06l-11.543,0.253c-4.204,0.091-7.876-2.249-10.01-5.45"/>
	
		<path fill="none" stroke="#0470B7" stroke-width="3" stroke-linecap="round" stroke-linejoin="round" stroke-miterlimit="22.926" d="
		M26.452,14.625h5.28c1.211,0,2.201,0.99,2.201,2.201v17.419c0,1.211-0.99,2.2-2.201,2.2h-5.28c-1.211,0-2.201-0.989-2.201-2.2
		V16.826C24.251,15.615,25.241,14.625,26.452,14.625z"/>
	
		<line fill="none" stroke="#0470B7" stroke-width="3" stroke-linecap="round" stroke-linejoin="round" stroke-miterlimit="22.926" x1="29.138" y1="31.197" x2="29.245" y2="31.197"/>
	
		<path fill="none" stroke="#80CCEC" stroke-width="3" stroke-linecap="round" stroke-linejoin="round" stroke-miterlimit="22.926" d="
		M55.328,42.534c0,3.707-3.038,6.744-6.744,6.744h-19.96l-12.926,12.39v-12.39H8.956c-3.707,0-6.744-3.034-6.744-6.744V14.785
		c0-3.709,3.035-6.745,6.744-6.745h29.399"/>
</g>
</svg>
