<?xml version="1.0" encoding="utf-8"?>
<!-- Generator: Adobe Illustrator 16.0.0, SVG Export Plug-In . SVG Version: 6.00 Build 0)  -->
<!DOCTYPE svg PUBLIC "-//W3C//DTD SVG 1.1//EN" "http://www.w3.org/Graphics/SVG/1.1/DTD/svg11.dtd">
<svg version="1.1" id="Layer_1" xmlns="http://www.w3.org/2000/svg" xmlns:xlink="http://www.w3.org/1999/xlink" x="0px" y="0px"
	 width="64px" height="64px" viewBox="0 0 64 64" enable-background="new 0 0 64 64" xml:space="preserve">
<g>
	
		<line fill="none" stroke="#0470B7" stroke-width="3" stroke-linecap="round" stroke-linejoin="round" stroke-miterlimit="22.926" x1="49.308" y1="26.253" x2="53.181" y2="29.354"/>
	
		<path fill="none" stroke="#0470B7" stroke-width="3" stroke-linecap="round" stroke-linejoin="round" stroke-miterlimit="22.926" d="
		M46.394,17.039h2.39c1.726,0,3.139,1.413,3.139,3.14v4.844c0,1.727-1.413,3.139-3.139,3.139h-2.39
		c-1.726,0-3.138-1.412-3.138-3.139v-4.844C43.256,18.452,44.668,17.039,46.394,17.039z"/>
	
		<line fill="none" stroke="#0470B7" stroke-width="3" stroke-linecap="round" stroke-linejoin="round" stroke-miterlimit="22.926" x1="32.349" y1="26.062" x2="38.528" y2="26.062"/>
	
		<line fill="none" stroke="#0470B7" stroke-width="3" stroke-linecap="round" stroke-linejoin="round" stroke-miterlimit="22.926" x1="23.444" y1="17.109" x2="23.444" y2="28.21"/>
	
		<line fill="none" stroke="#0470B7" stroke-width="3" stroke-linecap="round" stroke-linejoin="round" stroke-miterlimit="22.926" x1="23.443" y1="17.11" x2="29.112" y2="17.11"/>
	
		<polyline fill="none" stroke="#0470B7" stroke-width="3" stroke-linecap="round" stroke-linejoin="round" stroke-miterlimit="22.926" points="
		39.034,28.21 36.271,17.112 34.701,17.131 34.607,17.112 31.844,28.21 	"/>
	
		<line fill="none" stroke="#0470B7" stroke-width="3" stroke-linecap="round" stroke-linejoin="round" stroke-miterlimit="22.926" x1="23.443" y1="22.66" x2="27.93" y2="22.66"/>
	
		<path fill="none" stroke="#80CCEC" stroke-width="3" stroke-linecap="round" stroke-linejoin="round" stroke-miterlimit="22.926" d="
		M38.596,49.157H28.146L15.689,61.099V49.157H9.191c-3.573,0-6.5-2.925-6.5-6.5V15.914c0-3.575,2.925-6.501,6.5-6.501"/>
	
		<path fill="none" stroke="#0470B7" stroke-width="3" stroke-linecap="round" stroke-linejoin="round" stroke-miterlimit="22.926" d="
		M13.046,36.146c0,3.573,2.928,6.501,6.5,6.501h18.72l12.457,11.94v-11.94h4.087c3.572,0,6.5-2.926,6.5-6.501V9.402
		c0-3.575-2.925-6.501-6.5-6.501H37.178H19.546c-3.575,0-6.5,2.926-6.5,6.501V36.146z"/>
</g>
</svg>
