<?xml version="1.0" encoding="utf-8"?>
<!-- Generator: Adobe Illustrator 16.0.0, SVG Export Plug-In . SVG Version: 6.00 Build 0)  -->
<!DOCTYPE svg PUBLIC "-//W3C//DTD SVG 1.1//EN" "http://www.w3.org/Graphics/SVG/1.1/DTD/svg11.dtd">
<svg version="1.1" id="Layer_1" xmlns="http://www.w3.org/2000/svg" xmlns:xlink="http://www.w3.org/1999/xlink" x="0px" y="0px"
	 width="64px" height="64px" viewBox="0 0 64 64" enable-background="new 0 0 64 64" xml:space="preserve">
<g>
	
		<path fill="none" stroke="#0470B7" stroke-width="3" stroke-linecap="round" stroke-linejoin="round" stroke-miterlimit="22.926" d="
		M17.041,3c2.625,0,4.754,2.328,4.754,5.201c0,1.94-0.972,3.633-2.412,4.527c-0.707,0.455-1.529,0.717-2.409,0.717
		c-2.625,0-4.754-2.329-4.754-5.202c0-1.94,0.971-3.633,2.41-4.526C15.337,3.261,16.161,3,17.041,3z M59.395,10.926
		c0.122,0.594,0.185,1.208,0.185,1.837c0,1.258-0.255,2.458-0.716,3.549c-0.461,1.09-1.129,2.073-1.952,2.897
		c-0.827,0.824-1.81,1.493-2.899,1.954c-1.09,0.461-2.291,0.716-3.549,0.716c-1.259,0-2.458-0.255-3.549-0.716
		c-1.09-0.46-2.073-1.128-2.897-1.954c-0.825-0.825-1.492-1.808-1.955-2.897c-0.46-1.091-0.715-2.291-0.715-3.549
		s0.254-2.458,0.715-3.548c0.463-1.091,1.13-2.074,1.955-2.898c0.824-0.825,1.807-1.493,2.897-1.954
		c0.544-0.23,1.118-0.41,1.711-0.531c0.594-0.121,1.208-0.185,1.838-0.185s1.244,0.064,1.838,0.185"/>
	
		<polyline fill="none" stroke="#80CCEC" stroke-width="3" stroke-linecap="round" stroke-linejoin="round" stroke-miterlimit="22.926" points="
		46.104,12.398 49.488,16.815 58.493,4.767 	"/>
	
		<path fill="none" stroke="#0470B7" stroke-width="3" stroke-linecap="round" stroke-linejoin="round" stroke-miterlimit="22.926" d="
		M59.395,30.362c0.122,0.594,0.185,1.208,0.185,1.837c0,1.259-0.255,2.458-0.716,3.549s-1.129,2.073-1.952,2.898
		c-0.827,0.823-1.81,1.492-2.899,1.953s-2.291,0.717-3.549,0.717c-1.259,0-2.458-0.256-3.549-0.717
		c-1.09-0.461-2.073-1.129-2.897-1.953c-0.825-0.825-1.492-1.808-1.955-2.898c-0.46-1.091-0.715-2.29-0.715-3.549
		c0-1.258,0.254-2.458,0.715-3.548c0.463-1.091,1.13-2.073,1.955-2.898"/>
	
		<polyline fill="none" stroke="#80CCEC" stroke-width="3" stroke-linecap="round" stroke-linejoin="round" stroke-miterlimit="22.926" points="
		46.104,31.748 49.488,36.163 58.493,24.115 	"/>
	
		<path fill="none" stroke="#0470B7" stroke-width="3" stroke-linecap="round" stroke-linejoin="round" stroke-miterlimit="22.926" d="
		M59.395,49.71c0.122,0.594,0.185,1.209,0.185,1.838c0,1.259-0.255,2.457-0.716,3.549c-0.461,1.091-1.129,2.073-1.952,2.897
		c-0.827,0.825-1.81,1.492-2.899,1.954c-1.09,0.461-2.291,0.717-3.549,0.717c-1.259,0-2.458-0.257-3.549-0.717
		c-1.09-0.462-2.073-1.129-2.897-1.954c-0.825-0.824-1.492-1.807-1.955-2.897c-0.46-1.092-0.715-2.29-0.715-3.549
		c0-1.26,0.254-2.458,0.715-3.549c0.463-1.092,1.13-2.073,1.955-2.898"/>
	
		<polyline fill="none" stroke="#80CCEC" stroke-width="3" stroke-linecap="round" stroke-linejoin="round" stroke-miterlimit="22.926" points="
		46.104,51.096 49.488,55.514 58.493,43.463 	"/>
	
		<path fill="none" stroke="#0470B7" stroke-width="3" stroke-linecap="round" stroke-linejoin="round" stroke-miterlimit="22.926" d="
		M6.167,39.149c-2.439-0.756-1.653-3.397-1.524-5.208L5.592,20.69c0.326-4.563,21.826-4.229,22.589-0.045 M16.968,41.357
		l-0.014,16.577c-0.003,4.12,7.121,4.066,7.077-0.061l-0.147-11.38l-0.188-21.025 M27.848,39.149
		c2.44-0.756,1.654-3.397,1.524-5.208L28.424,20.69 M10.526,25.469l-0.187,21.025l-0.149,11.38
		c-0.043,4.127,6.768,4.188,6.765,0.061"/>
</g>
</svg>
