<?xml version="1.0" encoding="utf-8"?>
<!-- Generator: Adobe Illustrator 16.0.0, SVG Export Plug-In . SVG Version: 6.00 Build 0)  -->
<!DOCTYPE svg PUBLIC "-//W3C//DTD SVG 1.1//EN" "http://www.w3.org/Graphics/SVG/1.1/DTD/svg11.dtd">
<svg version="1.1" id="Layer_1" xmlns="http://www.w3.org/2000/svg" xmlns:xlink="http://www.w3.org/1999/xlink" x="0px" y="0px"
	 width="64px" height="64px" viewBox="0 0 64 64" enable-background="new 0 0 64 64" xml:space="preserve">
<g>
	
		<path fill="none" stroke="#80CCEC" stroke-width="3" stroke-linecap="round" stroke-linejoin="round" stroke-miterlimit="22.926" d="
		M40.795,11H9.341c-3.481,0-6.33,2.849-6.33,6.331v26.044c0,3.481,2.85,6.33,6.33,6.33h6.328v11.628l12.132-11.628h18.733
		c3.48,0,6.331-2.852,6.331-6.33V27.756"/>
	
		<path fill="none" stroke="#0470B7" stroke-width="3" stroke-linecap="round" stroke-linejoin="round" stroke-miterlimit="22.926" d="
		M11.688,22.371h20.719 M11.688,29.503h15.58 M11.688,36.636h15.58"/>
	
		<polygon fill="none" stroke="#0470B7" stroke-width="3" stroke-linecap="round" stroke-linejoin="round" stroke-miterlimit="22.926" points="
		60.988,7.976 53.3,2.667 33.474,31.383 33.236,39.947 41.16,36.69 	"/>
	
		<line fill="none" stroke="#0470B7" stroke-width="3" stroke-linecap="round" stroke-linejoin="round" stroke-miterlimit="22.926" x1="50.662" y1="8.238" x2="56.788" y2="12.468"/>
	
		<line fill="none" stroke="#0470B7" stroke-width="3" stroke-linecap="round" stroke-linejoin="round" stroke-miterlimit="22.926" x1="38.224" y1="32.151" x2="53.725" y2="10.353"/>
	
		<line fill="none" stroke="#0470B7" stroke-width="3" stroke-linecap="round" stroke-linejoin="round" stroke-miterlimit="22.926" x1="34.423" y1="31.126" x2="40.549" y2="35.355"/>
</g>
</svg>
