<svg xmlns="http://www.w3.org/2000/svg" width="135.849" height="160" viewBox="0 0 135.849 160">
  <g id="Group_518" data-name="Group 518" transform="translate(-255.075 -1106)">
    <path id="Polygon_6" data-name="Polygon 6" d="M110.854,0a16,16,0,0,1,13.787,7.881l30.578,51.925a16,16,0,0,1,0,16.238l-30.578,51.925a16,16,0,0,1-13.787,7.881H49.146a16,16,0,0,1-13.787-7.881L4.781,76.044a16,16,0,0,1,0-16.238L35.359,7.881A16,16,0,0,1,49.146,0Z" transform="translate(390.924 1106) rotate(90)" fill="#00aff4" opacity="0.16"/>
    <path id="Icon_material-email" data-name="Icon material-email" d="M60.006,5.545h-51c-3.512,0-6,3.488-6,7v38c0,3.512,2.488,7,6,7h51a7.508,7.508,0,0,0,7-7v-38A7.508,7.508,0,0,0,60.006,5.545Zm0,13-25,16-26-16v-6l26,16,25-16Z" transform="translate(288.069 1154.455)" fill="#00aff4"/>
  </g>
</svg>
