<svg xmlns="http://www.w3.org/2000/svg" width="154.131" height="52" viewBox="0 0 154.131 52">
  <g id="ocean-technologies-group-logo" transform="translate(-2.669 -3.345)">
    <g id="Group_1" data-name="Group 1" transform="translate(2.8 3.52)">
      <path id="Path_1" data-name="Path 1" d="M129.929,22.345h7c.19,0,.03-.187,0,0-1.235,7.381-7.317,12-15,12-9.127,0-15-5.662-15-15s5.873-16,15-16c7.683,0,13.765,4.577,15,12,.03.187.187,1,0,1h-7c-.141,0,.033-.862,0-1-.985-3.789-3.073-6-7-6-5.076,0-9,4.241-9,10,0,5.8,3.924,9,9,9,3.927,0,6.015-2.251,7-6C129.959,22.21,129.788,22.345,129.929,22.345Z" transform="translate(-72.929 -3.52)" fill="#fff"/>
      <path id="Path_2" data-name="Path 2" d="M219.784,11.742v6c0,.069-.072,0,0,0h12c.069,0,0-.072,0,0v6c0,.069.072,0,0,0h-12c-.069,0,0-.072,0,0v6c0,.069-.072,0,0,0h14c.069,0,0-.072,0,0v6c0,.069.072,0,0,0h-21c-.069,0,0,.072,0,0v-30c0-.069-.072,0,0,0h21c.069,0,0-.072,0,0v5c0,.069.072,0,0,0h-14A4.834,4.834,0,0,0,219.784,11.742Z" transform="translate(-143.784 -4.917)" fill="#fff"/>
      <path id="Path_3" data-name="Path 3" d="M291,35.742h-6c-.1,0-1.036.1-1,0l13-30c.023-.053-.059,0,0,0h6c.056,0-.023-.056,0,0l13,30c.039.092-.9,0-1,0h-6a5.977,5.977,0,0,1-1,0l-1-4a5.988,5.988,0,0,0-3-3s-5.783-3.859-6-4a2.853,2.853,0,0,1-1-1c-.03-.092-.1,0,0,0h7c.1,0,.033.092,0,0l-4-11h0l-8,23A6.352,6.352,0,0,1,291,35.742Z" transform="translate(-192.003 -4.917)" fill="#fff"/>
      <path id="Path_4" data-name="Path 4" d="M415.711,5.742v29c0,.167.167,1,0,1h-5c-.1,0,.059.076,0,0l-14-18c-.072-.1,0-.118,0,0v17a2.859,2.859,0,0,1-1,1h-6c-.167,0,0-.833,0-1v-29c0-.167-.167,0,0,0h5c.1,0-.056-.076,0,0l14,18c.079.105,0,.131,0,0v-18c0-.167.833,0,1,0h6C415.885,5.742,415.711,5.574,415.711,5.742Z" transform="translate(-262.711 -4.917)" fill="#fff"/>
      <path id="Path_5" data-name="Path 5" d="M17.8,3.432c-7.249,0-12.066,4.742-14,11-.059.187-.2,0,0,0h7c.112,0-.046.1,0,0,1.418-2.916,3.6-5,7-5,5.033,0,9,4.241,9,10s-3.967,10-9,10c-4.876,0-7.734-4.609-8-10-.039-.785-.572-1.186-2-2l-4-2c-.167-.092-.954-.187-1,0a18.09,18.09,0,0,0,0,4c0,9.17,5.873,15,15,15,9.085,0,16-5.833,16-15A15.644,15.644,0,0,0,17.8,3.432Z" transform="translate(-2.8 -3.607)" fill="#fff"/>
    </g>
    <g id="Group_2" data-name="Group 2" transform="translate(3.151 40.161)">
      <path id="Path_6" data-name="Path 6" d="M7.519,120.574h-4v-2h10v2h-4v9h-2Z" transform="translate(-3.87 -117.39)" fill="#ff7300"/>
      <path id="Path_7" data-name="Path 7" d="M37.492,130.625h-6c.23,1.2.565,2,2,2a2.544,2.544,0,0,0,2-1l2,1a6.316,6.316,0,0,1-4,2c-2.761,0-4-1.547-4-4s1.547-5,4-5c2.407,0,4,2.423,4,5C37.489,130.776,37.508,130.441,37.492,130.625Zm-6-1h4c-.154-1.189-.736-2-2-2S31.676,128.423,31.492,129.625Z" transform="translate(-20.843 -122.441)" fill="#ff7300"/>
      <path id="Path_8" data-name="Path 8" d="M57.789,130.618a5.316,5.316,0,0,1,5-5,3.035,3.035,0,0,1,3,2l-1,1a2.119,2.119,0,0,0-2-1,3.219,3.219,0,0,0-3,3c0,1.606,1.582,2,3,2a2.119,2.119,0,0,0,2-1l1,1a3.062,3.062,0,0,1-3,2C60.179,134.621,57.789,133.087,57.789,130.618Z" transform="translate(-40.14 -122.435)" fill="#ff7300"/>
      <path id="Path_9" data-name="Path 9" d="M94.938,123.25v5h-2v-5a1.754,1.754,0,0,0-2-2,3.207,3.207,0,0,0-3,3v4h-2v-12h2v4a4.278,4.278,0,0,1,3-1A3.969,3.969,0,0,1,94.938,123.25Z" transform="translate(-59.29 -116.067)" fill="#ff7300"/>
      <path id="Path_10" data-name="Path 10" d="M125.821,129.625v5h-2v-5a1.754,1.754,0,0,0-2-2c-1.372,0-2,1.352-2,3v4h-2v-9h1v2c.634-.755,1.8-2,3-2A3.969,3.969,0,0,1,125.821,129.625Z" transform="translate(-80.172 -122.441)" fill="#ff7300"/>
      <path id="Path_11" data-name="Path 11" d="M146.447,130.618a5.379,5.379,0,0,1,5-5c2.561,0,4,2.531,4,5a3.666,3.666,0,0,1-4,4C148.916,134.621,146.447,133.087,146.447,130.618Zm7,0c0-1.573-.595-3-2-3a3.254,3.254,0,0,0-3,3c0,1.573,1.611,2,3,2S153.447,132.194,153.447,130.618Z" transform="translate(-99.798 -122.435)" fill="#ff7300"/>
      <rect id="Rectangle_2" data-name="Rectangle 2" width="2" height="12" transform="translate(57.649 0.183)" fill="#ff7300"/>
      <path id="Path_12" data-name="Path 12" d="M188.832,130.618c0-2.469,1.472-5,4-5a5.353,5.353,0,0,1,5,5c0,2.469-2.439,4-5,4A3.68,3.68,0,0,1,188.832,130.618Zm7,0a3.243,3.243,0,0,0-3-3c-1.389,0-2,1.424-2,3s.611,2,2,2C194.237,132.618,195.832,132.194,195.832,130.618Z" transform="translate(-128.183 -122.435)" fill="#ff7300"/>
      <path id="Path_13" data-name="Path 13" d="M227.855,125.625v7a4.79,4.79,0,0,1-5,5,6.473,6.473,0,0,1-4-1l1-2a4.87,4.87,0,0,0,3,1c1.819,0,3-.335,3-2v-1a4.12,4.12,0,0,1-3,1,4,4,0,1,1,0-8c1.156,0,2.32,1.182,3,2v-2Zm-2,4c0-1.389-1.549-2-3-2s-2,.614-2,2c0,1.405.532,3,2,3A3.352,3.352,0,0,0,225.855,129.625Z" transform="translate(-148.206 -122.441)" fill="#ff7300"/>
      <path id="Path_14" data-name="Path 14" d="M251.852,116.3a1,1,0,1,1,2,0c0,.68-.274,1-1,1A.875.875,0,0,1,251.852,116.3Zm0,2h2v9h-2Z" transform="translate(-170.203 -115.12)" fill="#ff7300"/>
      <path id="Path_15" data-name="Path 15" d="M271.469,130.625h-7a2.9,2.9,0,0,0,3,2,2.544,2.544,0,0,0,2-1l1,1c-.739.88-1.582,2-3,2-2.761,0-5-1.547-5-4a5.456,5.456,0,0,1,5-5c2.407,0,4,2.423,4,5C271.465,130.776,271.482,130.441,271.469,130.625Zm-7-1h5c-.154-1.189-.736-2-2-2S264.656,128.423,264.469,129.625Z" transform="translate(-177.82 -122.441)" fill="#ff7300"/>
      <path id="Path_16" data-name="Path 16" d="M291.242,133.625v-2a6.132,6.132,0,0,0,3,1c1.218,0,2-.429,2-1,0-1.573-5,.287-5-3a2.737,2.737,0,0,1,3-3,10.992,10.992,0,0,1,4,1l-1,2a7.663,7.663,0,0,0-3-1c-1.172,0-1,.458-1,1,0,1.665,5-.224,5,3,0,1.543-1.685,3-4,3A4.841,4.841,0,0,1,291.242,133.625Z" transform="translate(-196.593 -122.441)" fill="#ff7300"/>
      <path id="Path_17" data-name="Path 17" d="M336.933,123.265h2v5a5.964,5.964,0,0,1-4,1,6.035,6.035,0,0,1-6-6c0-3.224,2.622-5,6-5a5.056,5.056,0,0,1,4,2l-1,1a3.863,3.863,0,0,0-3-1c-2.3,0-4,.764-4,3a3.964,3.964,0,0,0,4,4c.772,0,1.3.4,2,0v-4Z" transform="translate(-222.285 -117.081)" fill="#ff7300"/>
      <path id="Path_18" data-name="Path 18" d="M370.859,125.625v2c-.171-.03.138,0,0,0a3.113,3.113,0,0,0-3,3v4h-2v-9h2v2A3.9,3.9,0,0,1,370.859,125.625Z" transform="translate(-247.211 -122.441)" fill="#ff7300"/>
      <path id="Path_19" data-name="Path 19" d="M382.908,130.618c0-2.469,1.472-5,4-5,2.561,0,4,2.531,4,5a4,4,0,0,1-8,0Zm7,0a3.246,3.246,0,0,0-3-3c-1.389,0-2,1.424-2,3s.611,2,2,2C388.313,132.618,389.908,132.194,389.908,130.618Z" transform="translate(-258.26 -122.435)" fill="#ff7300"/>
      <path id="Path_20" data-name="Path 20" d="M421.9,125.813v9h-2v-1a2.068,2.068,0,0,1-2,1,3.887,3.887,0,0,1-4-4v-5h2v5a1.747,1.747,0,0,0,2,2c1.343,0,2-.352,2-2v-5Z" transform="translate(-279.249 -122.629)" fill="#ff7300"/>
      <path id="Path_21" data-name="Path 21" d="M453.767,130.625a3.7,3.7,0,0,1-4,4,4.132,4.132,0,0,1-3-1v4h-2v-12h2v2c.647-.788,1.874-2,3-2C452.17,125.625,453.767,128.08,453.767,130.625Zm-2,0c0-1.573-.611-3-2-3a3.254,3.254,0,0,0-3,3c0,1.573,1.611,2,3,2S451.767,132.2,451.767,130.625Z" transform="translate(-300.118 -122.441)" fill="#ff7300"/>
    </g>
  </g>
</svg>
