<svg xmlns="http://www.w3.org/2000/svg" width="135.849" height="160" viewBox="0 0 135.849 160">
  <g id="Group_518" data-name="Group 518" transform="translate(-255.075 -1106)">
    <path id="Polygon_6" data-name="Polygon 6" d="M110.854,0a16,16,0,0,1,13.787,7.881l30.578,51.925a16,16,0,0,1,0,16.238l-30.578,51.925a16,16,0,0,1-13.787,7.881H49.146a16,16,0,0,1-13.787-7.881L4.781,76.044a16,16,0,0,1,0-16.238L35.359,7.881A16,16,0,0,1,49.146,0Z" transform="translate(390.924 1106) rotate(90)" fill="#00aff4" opacity="0.16"/>
    <path id="Icon_awesome-ticket-alt" data-name="Icon awesome-ticket-alt" d="M18,17.5H63v27H18Zm56,14a7.2,7.2,0,0,0,7,7v13a7.2,7.2,0,0,1-7,7H7a7.2,7.2,0,0,1-7-7v-13a7.2,7.2,0,0,0,7-7,7.2,7.2,0,0,0-7-7v-13a7.2,7.2,0,0,1,7-7H74a7.2,7.2,0,0,1,7,7v13A7.2,7.2,0,0,0,74,31.5Zm-7-15a2.775,2.775,0,0,0-3-3H17c-1.86,0-4,1.14-4,3v30c0,1.86,2.14,3,4,3H64a2.775,2.775,0,0,0,3-3Z" transform="translate(283.075 1154.5)" fill="#00aff4"/>
  </g>
</svg>
