<svg xmlns="http://www.w3.org/2000/svg" width="36" height="29" viewBox="0 0 36 29">
  <path id="Icon_awesome-twitter" data-name="Icon awesome-twitter" d="M32,10.381c.023.32,0,.68,0,1,0,9.754-7.431,21-21,21a19.525,19.525,0,0,1-11-3,19.48,19.48,0,0,0,2,0,14.2,14.2,0,0,0,9-3,7.416,7.416,0,0,1-7-5,4.879,4.879,0,0,0,1,0,8.37,8.37,0,0,0,2,0c-3.381-.685-6-4.414-6-8H1a10.535,10.535,0,0,0,4,1,6.874,6.874,0,0,1-3-6,8.374,8.374,0,0,1,1-4,20.81,20.81,0,0,0,15,8,11.7,11.7,0,0,1,0-2,6.746,6.746,0,0,1,7-7,6.251,6.251,0,0,1,5,2c1.667-.32,3.584-.155,5-1a6.822,6.822,0,0,1-3,4c1.485-.16,2.675-1.429,4-2A17.959,17.959,0,0,1,32,10.381Z" transform="translate(0 -3.381)" fill="#fff"/>
</svg>
