<svg version="1.2" xmlns="http://www.w3.org/2000/svg" viewBox="0 0 14 14" width="14" height="14"><defs><clipPath clipPathUnits="userSpaceOnUse" id="cp1"><path d="m-745-2720h1400v3013h-1400z"/></clipPath></defs><style>.a{fill:#fff}</style><g clip-path="url(#cp1)"><path class="a" d="m5.8 1.7l0.6-0.6c0.3-0.3 0.7-0.3 1 0l5.4 5.4c0.3 0.3 0.3 0.7 0 1l-5.4 5.4c-0.3 0.3-0.7 0.3-1 0l-0.6-0.6c-0.3-0.3-0.3-0.7 0-1l3.4-3.2h-8.1c-0.3 0-0.6-0.3-0.6-0.7v-0.8c0-0.4 0.3-0.7 0.6-0.7h8.1l-3.4-3.2c-0.3-0.3-0.3-0.7 0-1z"/></g></svg>