<svg version="1.2" xmlns="http://www.w3.org/2000/svg" viewBox="0 0 17 13" width="17" height="13"><defs><clipPath clipPathUnits="userSpaceOnUse" id="cp1"><path d="m-774-2618h1400v3013h-1400z"/></clipPath></defs><style>.a{fill:#989898}</style><g clip-path="url(#cp1)"><path class="a" d="m7.2 1.2l0.8-0.6c0.4-0.3 0.9-0.3 1.3 0l7.3 5.4c0.3 0.3 0.3 0.7 0 1l-7.3 5.4c-0.4 0.3-1 0.3-1.3 0l-0.8-0.6c-0.4-0.3-0.4-0.7 0-1l4.5-3.2h-10.8c-0.5 0-0.9-0.3-0.9-0.7v-0.8c0-0.4 0.4-0.7 0.9-0.7h10.8l-4.5-3.2c-0.4-0.3-0.4-0.7 0-1z"/></g></svg>