<svg version="1.2" xmlns="http://www.w3.org/2000/svg" viewBox="0 0 27 26" width="27" height="26"><defs><clipPath clipPathUnits="userSpaceOnUse" id="cp1"><path d="m-682-2858h1400v3013h-1400z"/></clipPath></defs><style>.a{fill:#989898}</style><g clip-path="url(#cp1)"><path fill-rule="evenodd" class="a" d="m26.3 18.5c-0.1 2-0.6 3.8-2.1 5.3-1.4 1.5-3.3 2-5.3 2.1-2.1 0.1-8.4 0.1-10.5 0-2.1-0.1-3.9-0.6-5.4-2.1-1.5-1.5-2-3.3-2.1-5.3-0.1-2.1-0.1-8.4 0-10.6 0.1-2 0.6-3.8 2.1-5.3 1.5-1.5 3.3-2 5.4-2.1 2.1-0.1 8.4-0.1 10.5 0 2 0.1 3.9 0.6 5.3 2.1 1.5 1.5 2 3.3 2.1 5.3 0.1 2.2 0.1 8.5 0 10.6zm-2.2-5.3c0-1.8 0.1-5.8-0.5-7.5-0.5-1.1-1.3-2-2.4-2.4-1.7-0.7-5.7-0.6-7.6-0.6-1.8 0-5.8-0.1-7.5 0.6-1.1 0.4-2 1.3-2.4 2.4-0.7 1.7-0.5 5.7-0.5 7.5 0 1.9-0.2 5.9 0.5 7.5 0.4 1.2 1.3 2 2.4 2.5 1.7 0.6 5.7 0.5 7.5 0.5 1.9 0 5.9 0.1 7.6-0.5 1.1-0.5 1.9-1.3 2.4-2.5 0.6-1.6 0.5-5.6 0.5-7.5zm-2.1-6.8c0 0.8-0.7 1.5-1.6 1.5-0.8 0-1.5-0.7-1.5-1.5 0-0.8 0.7-1.5 1.5-1.5 0.9 0 1.6 0.7 1.6 1.5zm-1.8 6.8c0 3.6-2.9 6.6-6.6 6.6-3.6 0-6.5-3-6.5-6.6 0-3.6 2.9-6.5 6.5-6.5 3.7 0 6.6 2.9 6.6 6.5zm-2.3 0c0-2.3-1.9-4.2-4.3-4.2-2.3 0-4.2 1.9-4.2 4.2 0 2.4 1.9 4.3 4.2 4.3 2.4 0 4.3-1.9 4.3-4.3z"/></g></svg>