<svg version="1.2" xmlns="http://www.w3.org/2000/svg" viewBox="0 0 26 26" width="26" height="26"><defs><clipPath clipPathUnits="userSpaceOnUse" id="cp1"><path d="m-762-2858h1400v3013h-1400z"/></clipPath></defs><style>.a{fill:#989898}</style><g clip-path="url(#cp1)"><path class="a" d="m6.1 26h-5.3v-17.1h5.3zm-2.7-19.3c-1.7 0-3.1-1.4-3.1-3.1 0-1.7 1.4-3.1 3.1-3.1 1.7 0 3.1 1.4 3.1 3.1 0 1.7-1.4 3.1-3.1 3.1zm22.5 19.3h-5.3v-8.3c0-1.9-0.1-4.5-2.8-4.5-2.7 0-3.1 2.2-3.1 4.4v8.4h-5.3v-17h5v2.3h0.1c0.7-1.3 2.5-2.7 5-2.7 5.4 0 6.4 3.5 6.4 8.1 0 0 0 9.3 0 9.3z"/></g></svg>