<svg version="1.2" xmlns="http://www.w3.org/2000/svg" viewBox="0 0 50 50" width="50" height="50"><defs><clipPath clipPathUnits="userSpaceOnUse" id="cp1"><path d="m-295-949h1600v1284h-1600z"/></clipPath></defs><style>.a{fill:none;stroke:#373737;stroke-width:4}</style><g clip-path="url(#cp1)"><path fill-rule="evenodd" class="a" d="m39 5v10c3.3 0 6 2.7 6 6 0 3.3-2.7 6-6 6v10c0 0-10-8-16-8v-16c6 0 16-8 16-8zm-14 40h-8l-6-16c0 0 2 0 2 0h10v-16h-10c-4.4 0-8 1.8-8 8 0 6.2 3.6 8 8 8h6zm4-14c0 4-4 6-6 6z"/></g></svg>