<svg version="1.2" xmlns="http://www.w3.org/2000/svg" viewBox="0 0 48 44" width="48" height="44"><defs><clipPath clipPathUnits="userSpaceOnUse" id="cp1"><path d="m-966-804h1600v1812h-1600z"/></clipPath></defs><style>.a{fill:#010142}</style><g clip-path="url(#cp1)"><path fill-rule="evenodd" class="a" d="m28.8 31.2v-2.4h16.8v9.6c0 2.7-2.1 4.8-4.8 4.8h-33.6c-2.7 0-4.8-2.1-4.8-4.8v-9.6h16.8v2.4zm19.2-16.8v7.2c0 2.6-2.2 4.8-4.8 4.8h-14.4v-4.8h-9.6v4.8h-14.4c-2.7 0-4.8-2.1-4.8-4.8v-7.2c0-2.6 2.2-4.8 4.8-4.8h9.6v-4.8l4.8-4.8h9.6l4.8 4.8v4.8h9.6c2.6 0 4.8 2.2 4.8 4.8zm-19.2-9.6h-9.6v4.8h9.6z"/></g></svg>