<svg version="1.2" xmlns="http://www.w3.org/2000/svg" viewBox="0 0 49 40" width="49" height="40"><defs><clipPath clipPathUnits="userSpaceOnUse" id="cp1"><path d="m-968-1023h1600v1812h-1600z"/></clipPath></defs><style>.a{fill:#010142}</style><g clip-path="url(#cp1)"><path class="a" d="m47.3 16.4h-4.8v-4.8c0-0.7-0.5-1.2-1.2-1.2h-2.4c-0.7 0-1.2 0.5-1.2 1.2v4.8h-4.8c-0.7 0-1.2 0.5-1.2 1.2v2.4c0 0.7 0.5 1.2 1.2 1.2h4.8v4.8c0 0.7 0.5 1.2 1.2 1.2h2.4c0.7 0 1.2-0.5 1.2-1.2v-4.8h4.8c0.7 0 1.2-0.5 1.2-1.2v-2.4c0-0.7-0.5-1.2-1.2-1.2zm-30 3.6c5.3 0 9.6-4.3 9.6-9.6 0-5.3-4.3-9.6-9.6-9.6-5.3 0-9.6 4.3-9.6 9.6 0 5.3 4.3 9.6 9.6 9.6zm6.7 2.4h-1.2c-1.7 0.8-3.6 1.2-5.5 1.2-2 0-3.8-0.4-5.5-1.2h-1.2c-5.6 0-10.1 4.5-10.1 10.1v3.1c0 2 1.6 3.6 3.6 3.6h26.4c2 0 3.6-1.6 3.6-3.6v-3.1c0-5.6-4.5-10.1-10.1-10.1z"/></g></svg>