<svg version="1.2" xmlns="http://www.w3.org/2000/svg" viewBox="0 0 48 38" width="48" height="38"><defs><clipPath clipPathUnits="userSpaceOnUse" id="cp1"><path d="m-1346-1024h1600v1812h-1600z"/></clipPath></defs><style>.a{fill:#010142}</style><g clip-path="url(#cp1)"><path class="a" d="m34.7 13.7c0-7.4-7.8-13.4-17.4-13.4-9.5 0-17.3 6-17.3 13.4 0 2.8 1.2 5.5 3.2 7.6-1.2 2.5-3 4.5-3 4.6-0.2 0.2-0.3 0.4-0.1 0.7 0.1 0.2 0.3 0.4 0.6 0.4 3 0 5.5-1 7.4-2.1 2.6 1.3 5.8 2.1 9.2 2.1 9.6 0 17.4-6 17.4-13.3zm10.1 18.3c2-2.2 3.2-4.8 3.2-7.7 0-5.5-4.5-10.3-10.8-12.3q0.1 0.8 0.1 1.7c0 8.8-8.9 16-20 16q-1.3 0-2.6-0.2c2.6 4.8 8.8 8.2 16 8.2 3.4 0 6.6-0.8 9.2-2.1 1.9 1 4.4 2.1 7.4 2.1 0.3 0 0.5-0.2 0.6-0.4 0.1-0.3 0.1-0.6-0.1-0.8 0 0-1.9-2-3-4.5z"/></g></svg>