<svg version="1.2" xmlns="http://www.w3.org/2000/svg" viewBox="0 0 32 32" width="32" height="32"><defs><clipPath clipPathUnits="userSpaceOnUse" id="cp1"><path d="m-1357-1686h1600v1812h-1600z"/></clipPath></defs><style>.a{fill:#fff}.b{fill:#010142}</style><g clip-path="url(#cp1)"><path class="a" d="m16 32c-8.8 0-16-7.2-16-16 0-8.8 7.2-16 16-16 8.8 0 16 7.2 16 16 0 8.8-7.2 16-16 16z"/><path class="b" d="m20.2 17.1l0.5-3.2h-3.1v-2.1c0-0.9 0.4-1.8 1.8-1.8h1.4v-2.8c0 0-1.3-0.2-2.5-0.2-2.6 0-4.3 1.6-4.3 4.4v2.5h-2.8v3.2h2.8v7.9h3.6v-7.9z"/></g></svg>