<svg version="1.2" xmlns="http://www.w3.org/2000/svg" viewBox="0 0 48 32" width="48" height="32"><defs><clipPath clipPathUnits="userSpaceOnUse" id="cp1"><path d="m-586-812h1600v1812h-1600z"/></clipPath></defs><style>.a{fill:#010142}</style><g clip-path="url(#cp1)"><path class="a" d="m32.7 13.8c3.6 0 6.6-2.9 6.6-6.5 0-3.6-3-6.6-6.6-6.6-3.6 0-6.5 3-6.5 6.6 0 3.6 2.9 6.5 6.5 6.5zm-17.4 0c3.6 0 6.5-2.9 6.5-6.5 0-3.6-2.9-6.6-6.5-6.6-3.6 0-6.6 3-6.6 6.6 0 3.6 3 6.5 6.6 6.5zm0 4.4c-5.1 0-15.3 2.5-15.3 7.6v5.5h30.5v-5.5c0-5.1-10.1-7.6-15.2-7.6zm17.4 0q-0.9 0-2.1 0.1c2.5 1.8 4.3 4.3 4.3 7.5v5.5h13.1v-5.5c0-5.1-10.2-7.6-15.3-7.6z"/></g></svg>