<svg version="1.2" xmlns="http://www.w3.org/2000/svg" viewBox="0 0 30 30" width="30" height="30"><defs><clipPath clipPathUnits="userSpaceOnUse" id="cp1"><path d="m-1098-38h1600v1129h-1600z"/></clipPath></defs><style>.a{fill:#010142;stroke:#010142;stroke-width:.8}</style><g clip-path="url(#cp1)"><path fill-rule="evenodd" class="a" d="m28.1 28.2c-0.2 0.2-0.5 0.3-0.8 0.3-0.3 0-0.6-0.1-0.8-0.4l-7.5-7.5c-1.8 1.5-4.2 2.4-6.7 2.4-6 0-10.8-4.8-10.8-10.7 0-6 4.8-10.8 10.8-10.8 5.9 0 10.7 4.8 10.7 10.8 0 2.5-0.9 4.8-2.3 6.7l7.5 7.6c0.4 0.4 0.4 1.1-0.1 1.6zm-9.9-10c1.6-1.6 2.5-3.7 2.5-5.9 0-2.3-0.9-4.4-2.5-6-1.6-1.6-3.7-2.5-5.9-2.5-2.3 0-4.4 0.9-6 2.5-1.6 1.6-2.5 3.7-2.5 6 0 2.2 0.9 4.3 2.5 5.9 1.6 1.6 3.7 2.5 6 2.5 2.2 0 4.3-0.9 5.9-2.5z"/></g></svg>