<svg version="1.2" xmlns="http://www.w3.org/2000/svg" viewBox="0 0 27 22" width="27" height="22"><defs><clipPath clipPathUnits="userSpaceOnUse" id="cp1"><path d="m-42-275h1600v1812h-1600z"/></clipPath></defs><style>.a{fill:#fff}</style><g clip-path="url(#cp1)"><path class="a" d="m25.3 0.3c-2.5 0.1-7.6 0.7-10.7 2.6-0.2 0.1-0.4 0.3-0.4 0.6v16.9c0 0.5 0.6 0.8 1.1 0.6 3.2-1.6 7.9-2.1 10.2-2.2 0.8 0 1.4-0.7 1.4-1.4v-15.7c0-0.8-0.7-1.5-1.6-1.4zm-12.9 2.6c-3.1-1.9-8.2-2.5-10.7-2.6-0.9-0.1-1.6 0.6-1.6 1.4v15.7c0 0.7 0.6 1.4 1.4 1.4 2.3 0.1 7 0.6 10.2 2.2 0.5 0.2 1.1-0.1 1.1-0.6v-16.9c0-0.3-0.2-0.5-0.4-0.6z"/></g></svg>