<svg version="1.2" xmlns="http://www.w3.org/2000/svg" viewBox="0 0 31 20" width="31" height="20"><defs><clipPath clipPathUnits="userSpaceOnUse" id="cp1"><path d="m-40-325h1600v1812h-1600z"/></clipPath></defs><style>.a{fill:#fff}</style><g clip-path="url(#cp1)"><path fill-rule="evenodd" class="a" d="m27.8 9.9c0 1.4 1.1 2.5 2.4 2.5v4.9c0 1.3-1.1 2.4-2.4 2.4h-24.6c-1.3 0-2.4-1.1-2.4-2.4v-4.9c1.3 0 2.4-1.1 2.4-2.5 0-1.3-1.1-2.4-2.4-2.4v-4.9c0-1.4 1.1-2.5 2.4-2.5h24.6c1.3 0 2.4 1.1 2.4 2.5v4.9c-1.3 0-2.4 1.1-2.4 2.4zm-2.5-5.3c0-0.7-0.5-1.2-1.2-1.2h-17.2c-0.7 0-1.2 0.5-1.2 1.2v10.6c0 0.7 0.5 1.3 1.2 1.3h17.2c0.7 0 1.2-0.6 1.2-1.3zm-18 0.4h16.4v9.8h-16.4z"/></g></svg>