<svg version="1.2" xmlns="http://www.w3.org/2000/svg" viewBox="0 0 48 48" width="48" height="48"><defs><clipPath clipPathUnits="userSpaceOnUse" id="cp1"><path d="m-1346-804h1600v1812h-1600z"/></clipPath></defs><style></style><g clip-path="url(#cp1)"><path fill-rule="evenodd" d="m48 14.2v7.5c0 1.3-1 2.3-2.3 2.3h-0.7v15.6c0 1.2-0.9 2.4-2.4 2.4h-0.6v3c0 1.7-1.3 3-3 3h-3c-1.7 0-3-1.3-3-3v-3h-18v3c0 1.7-1.3 3-3 3h-3c-1.7 0-3-1.3-3-3v-3c-1.7 0-3-1.3-3-3v-15h-0.8c-1.2 0-2.2-1-2.2-2.3v-7.5c0-1.2 1-2.2 2.2-2.2h0.8v-4.5c0-4.2 9.3-7.5 21-7.5 11.7 0 21 3.3 21 7.5v4.5h0.7c1.3 0 2.3 1 2.3 2.2zm-34.5 20.3c0-1.7-1.3-3-3-3-1.7 0-3 1.3-3 3 0 1.7 1.3 3 3 3 1.7 0 3-1.3 3-3zm22.5-7.5c1.7 0 3-1.3 3-3v-12c0-1.7-1.3-3-3-3h-24c-1.7 0-3 1.3-3 3v12c0 1.7 1.3 3 3 3zm4.5 7.5c0-1.7-1.3-3-3-3-1.7 0-3 1.3-3 3 0 1.7 1.3 3 3 3 1.7 0 3-1.3 3-3z"/></g></svg>