<svg version="1.2" xmlns="http://www.w3.org/2000/svg" viewBox="0 0 32 32" width="32" height="32"><defs><clipPath clipPathUnits="userSpaceOnUse" id="cp1"><path d="m-1441-1686h1600v1812h-1600z"/></clipPath></defs><style>.a{fill:#fff}.b{fill:#010142}</style><g clip-path="url(#cp1)"><path class="a" d="m16 32c-8.8 0-16-7.2-16-16 0-8.8 7.2-16 16-16 8.8 0 16 7.2 16 16 0 8.8-7.2 16-16 16z"/><path fill-rule="evenodd" class="b" d="m25.3 16c0 0 0 3.1-0.3 4.5-0.3 0.9-0.9 1.5-1.7 1.7-1.5 0.4-7.3 0.4-7.3 0.4 0 0-5.8 0-7.3-0.4-0.8-0.2-1.4-0.8-1.7-1.7-0.3-1.4-0.3-4.5-0.3-4.5 0 0 0-3 0.3-4.5 0.3-0.8 0.9-1.5 1.7-1.7 1.5-0.4 7.3-0.4 7.3-0.4 0 0 5.8 0 7.3 0.4 0.8 0.2 1.4 0.9 1.7 1.7 0.3 1.5 0.3 4.5 0.3 4.5zm-6.3 0l-4.9-2.8v5.6z"/></g></svg>