<svg xmlns="http://www.w3.org/2000/svg" width="48" height="48" viewBox="0 0 48 48">
    <defs>
        <style>
            .cls-11,.cls-12,.cls-15,.cls-16,.cls-2,.cls-5,.cls-9{fill-rule:evenodd}.cls-2{fill:#136cb3}.cls-11,.cls-12,.cls-15,.cls-16,.cls-2,.cls-5,.cls-9{stroke:#136cb5}.cls-5{fill:#136bab}.cls-9{fill:#0d66a6}.cls-11{fill:#1665a7}.cls-12{fill:#1263ac}.cls-15{fill:#156cb7}.cls-16{fill:#146bb1}
        </style>
    </defs>
    <g id="Group_8" transform="translate(-609 -824.384)">
        <path id="Path_17" fill="#136cb5" fill-rule="evenodd" d="M806.1 482.311v9.375h-9.375v-3.252h-29.25v3.252H758.1v-9.375h3.252v-29.25H758.1v-9.375h9.375v3.252h29.25v-3.252h9.375v9.375h-3.252v29.25zm-38.62 3.244h29.256V482.3h3.245v-29.24H796.7v-3.249h-29.24v3.266h-3.237v29.256h3.253zm-2.849-35.325v-3.694h-3.693v3.694zm38.623 0v-3.694h-3.693v3.694zm-38.623 38.623v-3.693h-3.693v3.694zm38.637-3.7h-3.694v3.692h3.694z" transform="translate(-149.101 380.698)"/>
        <g id="Group_6" transform="translate(481.08 717.857)">
            <path id="Path_19" d="M149.213 186.633c-.62 1.432-1.285 2.842-2.04 4.208-.195.135-.415.258-.247.554l-3.174 6.662h-3.485c-.184 0-.413.052-.331-.272.545-.65.731-1.5 1.226-2.181a2.545 2.545 0 0 1 .62 1.922.928.928 0 0 0 .152-.734c0-.288.1-.616-.063-.855-.148-.211-.5-.143-.709-.333.672-1.481 1.379-2.944 2.172-4.364a.159.159 0 0 1 .176-.025 19.333 19.333 0 0 1 .522 1.966 8.747 8.747 0 0 0 .12-1.915c-.047-.35-.37-.266-.552-.4a.124.124 0 0 1 .012-.17 12.79 12.79 0 0 1 1.083-2.18c.249-.108.184-.371.277-.557a.95.95 0 0 1 .265-.564c.307.322.258.75.336 1.139.048.236.1.461.406.434.266-.024.318-.249.3-.453-.072-.675.246-1.4-.236-2.022a9.051 9.051 0 0 1 .288-1.278 14.7 14.7 0 0 1 1.072-2.155c.2-.163.367-.249.368.132-.179.358-.16.8-.473 1.1a.236.236 0 0 0-.029.311c.422.627-.123.453-.429.512a4.64 4.64 0 0 0 .63.32c-.13-.669.237-.771.725-.763.519.009.636.326.643.758a1.3 1.3 0 0 0 .167.578c-.097.265.395.331.208.625z" class="cls-2" transform="translate(0 -55.58)"/>
            <path id="Path_20" fill="#136db5" fill-rule="evenodd" stroke="#136cb5" d="M286.909 275.026v-.144a2.378 2.378 0 0 1-.182-1.048c.007-.4.124-.717.589-.75.366-.026.478-.265.546-.577a.558.558 0 0 1 .574-.475c.292 0 .547.069.527.447-.008.16.1.189.218.173.364-.05.427.262.58.466.218.135.071.441.273.584.108.16.135.362.271.507a1.462 1.462 0 0 0 .274.538l.139.273z" transform="translate(-126.805 -132.548)"/>
            <path id="Path_21" d="M207.043 133.362c-.148-.167-.22-.643-.534-.13-.217.3-.53.171-.81.178-.749.02-.922.221-.767.932.05.228.095.443-.128.61a1.538 1.538 0 0 1-1.133 0 .579.579 0 0 1-.256-.6c.494-.662.813-1.506 1.816-1.624.329-.039.236-.379.258-.613a5.576 5.576 0 0 1 0-.739c.063-.623.007-1.173-.7-1.4a.392.392 0 0 1 .1-.369 1.244 1.244 0 0 0 .371-1.008 5.332 5.332 0 0 1 .68-1.366c.326-.029.479.717.912.2a.712.712 0 0 1 .155-.218c.286.162.177-.342.422-.251a.071.071 0 0 1 .031.081c.078.156-.017.4.244.462l1.245 2.563c.24.4.123.994.648 1.251a7.034 7.034 0 0 1 .7 1.51c.188.192-.188.7.384.678q1.382 2.747 2.761 5.5c.1.2.178.412.266.619a2.754 2.754 0 0 1 .174.544c-.325.305-.228.536.127.723a2.03 2.03 0 0 1-1.841 1.651c-.142 0-.2-.107-.262-.211a.4.4 0 0 0-.061-.107.1.1 0 0 0-.032.115 1 1 0 0 1-.02.248.327.327 0 0 1-.151.22c-1.509-2.937-2.946-5.908-4.342-8.9-.145-.152.085-.49-.257-.549z" class="cls-2" transform="translate(-54.837 -7.239)"/>
            <path id="Path_22" fill="#126cb3" fill-rule="evenodd" stroke="#136cb5" d="M263.914 229.724l.019-.315a.293.293 0 0 1 .408 0 2.61 2.61 0 0 1 .725-.321c.389-.128.861-.257.775-.847-.047-.321.291-.294.408-.466a.25.25 0 0 1 .14-.189.131.131 0 0 1 .141.048 1.029 1.029 0 0 1 .268.54 1.491 1.491 0 0 0 .273.553.8.8 0 0 1 .018.661c-.048.176-.225.445.2.293.167-.06.243.038.33.138.88 1.6 1.7 3.237 2.441 4.909-.212-.072-.267-.418-.613-.3-.157.055-.414.244-.554.036-.161-.239.174-.355.284-.533-.7-.267-.83-.208-.872.475-.023.362-.167.5-.5.451a2.88 2.88 0 0 0-.6 1.63 13.2 13.2 0 0 1-1.1-2.285 1.754 1.754 0 0 0-.108-1.395c-.137-.234.017-.527.208-.746.155-.178.086-.326-.069-.468s-.264-.079-.4.041c-.388.332-.7.171-.973-.181a8.531 8.531 0 0 1-.849-1.729z" transform="translate(-107.098 -94.154)"/>
            <path id="Path_23" d="M223.52 119.726c-.16.049-.07.467-.4.268-.129.091-.132.182 0 .272-.427.468-.779.38-1.092-.274a.3.3 0 0 1 .138-.272 2.485 2.485 0 0 0 .546-1.058l.135-.089.161.148a.241.241 0 0 1 .016.127c-.009.1-.122.179-.072.3.024-.1.058-.183.185-.11a1.711 1.711 0 0 1 .383.688z" class="cls-5" transform="translate(-70.923)"/>
            <path id="Path_24" fill="#0b69a9" fill-rule="evenodd" stroke="#136cb5" d="M244.764 151.08c-.3.085-.519.079-.527-.333a7.97 7.97 0 0 0-.12-.918 5.454 5.454 0 0 1 .647 1.251z" transform="translate(-89.998 -26.997)"/>
            <path id="Path_25" fill="#1868b1" fill-rule="evenodd" stroke="#136cb5" d="M285.318 240.81c-.1-.023-.2-.091-.3.018a.384.384 0 0 1-.535.064c-.23-.2.129-.311.147-.489.241-.189.406-.066.553.134a.3.3 0 0 1 .135.273z" transform="translate(-124.799 -105.148)"/>
            <path id="Path_26" fill="#0f68aa" fill-rule="evenodd" stroke="#136cb5" d="M253.22 170.774c-.128.08-.186.349-.417.151-.126-.108-.208-.217-.12-.4a3.77 3.77 0 0 0 .153-.432 1.259 1.259 0 0 1 .384.681z" transform="translate(-97.366 -44.502)"/>
            <path id="Path_27" d="M286.6 236.784a1 1 0 0 0-.553-.134l.14-.686a1.916 1.916 0 0 1 .413.82z" class="cls-9" transform="translate(-126.217 -101.395)"/>
            <path id="Path_28" fill="#1166a2" fill-rule="evenodd" stroke="#136cb5" d="M279.579 221.034h-.144a.4.4 0 0 1-.274-.544.882.882 0 0 1-.132-.553 3.281 3.281 0 0 1 .55 1.097z" transform="translate(-120.147 -87.554)"/>
            <path id="Path_29" d="M232.71 128.093c-.084.07-.188.213-.249.2-.215-.059-.047-.21-.036-.323s.027-.223.041-.335z" class="cls-5" transform="translate(-79.837 -7.824)"/>
            <path id="Path_30" d="M313.037 288.587a.363.363 0 0 1-.274-.538.871.871 0 0 1 .274.538z" class="cls-11" transform="translate(-149.257 -146.382)"/>
            <path id="Path_31" d="M228.42 119.975l-.252.158c-.085-.189.077-.315.122-.47a.318.318 0 0 1 .13.312z" class="cls-12" transform="translate(-76.202 -0.941)"/>
            <path id="Path_32" d="M285.323 232.481c-.258-.1-.293-.314-.273-.553a.9.9 0 0 1 .273.553z" class="cls-9" transform="translate(-125.35 -97.909)"/>
            <path id="Path_33" d="M311.279 284.8a.468.468 0 0 1-.271-.507.666.666 0 0 1 .271.507z" class="cls-11" transform="translate(-147.774 -143.139)"/>
            <path id="Path_34" fill="#126bb5" fill-rule="evenodd" stroke="#136cb5" d="M200.238 158.7c.059.539-.018.946-.726.825a.551.551 0 0 0-.578.385c-.18.443-.588.646-.877.971-.229.108-.363-.112-.548-.156-.127-.056-.289.005-.4-.115l1.089-2.181c.317-.245.481-.695.962-.721.476.204.674.708 1.078.992z" transform="translate(-49.4 -33.799)"/>
            <path id="Path_35" fill="#136cb7" fill-rule="evenodd" stroke="#136cb5" d="M179.77 208.706c.273-.015.416.09.411.388-.011.652-.009 1.3 0 1.955 0 .357-.221.4-.492.38-.251-.016-.566.093-.6-.339-.037-.49-.1-.977-.151-1.465a1 1 0 0 1 .253-.521c.24-.064.154-.604.579-.398z" transform="translate(-33.702 -77.812)"/>
            <path id="Path_36" d="M212.085 149.3c-.664.026-.712-.653-1.09-.954-.336-.374-.065-.758-.018-1.138.013-.135-.029-.29.133-.371.132-.037.2 0 .158.146a.356.356 0 0 0 .01.063c1.063 0 .789.78.805 1.387.009.289.002.579.002.867z" class="cls-15" transform="translate(-61.247 -24.401)"/>
            <path id="Path_37" d="M195.527 178.991c.237-.019.356.2.545.273l.136.545a.841.841 0 0 1-1.09 0c0-.271-.165-.176-.3-.145l.271-.585a.4.4 0 0 0 .438-.088z" class="cls-16" transform="translate(-47.414 -52.184)"/>
            <path id="Path_38" fill="#0d6daf" fill-rule="evenodd" stroke="#136cb5" d="M206.035 149.646l.018 1.138a3.037 3.037 0 0 1-.945.681 10.567 10.567 0 0 1 .927-1.819z" transform="translate(-56.305 -26.839)"/>
            <path id="Path_39" fill="#0b68ac" fill-rule="evenodd" stroke="#136cb5" d="M181.373 201.01c-.3-.016-.307.38-.579.4a8.663 8.663 0 0 1 .838-1.659 1.525 1.525 0 0 1-.259 1.259z" transform="translate(-35.305 -70.115)"/>
            <path id="Path_40" fill="#0d6aaa" fill-rule="evenodd" stroke="#136cb5" d="M213.051 140.236l-.158-.146.565-1.078c.591.65-.186.845-.407 1.224z" transform="translate(-63.03 -17.654)"/>
            <path id="Path_41" d="M223.591 119.227a.876.876 0 0 1-.546 1.058 2.7 2.7 0 0 1 .546-1.058z" class="cls-12" transform="translate(-71.798 -0.565)"/>
            <path id="Path_42" fill="#1a66ad" fill-rule="evenodd" stroke="#136cb5" d="M165.261 239.963l.012.141c.212.09.562.132.436.446-.162.4-.381-.037-.58-.038h-.144a.836.836 0 0 1 .276-.549z" transform="translate(-21.649 -104.849)"/>
            <path id="Path_43" fill="#1269a5" fill-rule="evenodd" stroke="#136cb5" d="M175.239 219.881c-.073.195.3.61-.277.557a.949.949 0 0 1 .277-.557z" transform="translate(-30.267 -87.503)"/>
            <path id="Path_44" fill="#1869bb" fill-rule="evenodd" stroke="#136cb5" d="M197.247 178.61c-.085.344-.239.339-.441.088a.1.1 0 0 1 .042-.087c.132.042.265-.159.399-.001z" transform="translate(-49.134 -51.803)"/>
            <path id="Path_45" fill="#146db5" fill-rule="evenodd" stroke="#136cb5" d="M189.771 184.028h2.317c.358-.174.708-.332.7.313a18.962 18.962 0 0 1-1.228 2.555c-.188.171-.373.035-.559-.006-.284-.127-.264-.38-.277-.632-.011-.206.1-.5-.209-.565a.9.9 0 0 0-.782.057c-.245.205.042.44.073.667a.515.515 0 0 1-.567-.108c-.2-.158-.635-.094-.61-.327.048-.456.5-.046.732-.232-.251-.241-.651-.486-.071-.8.209-.116.218-.325.214-.532s.024-.37.267-.39z" transform="translate(-42.067 -56.403)"/>
            <path id="Path_46" fill="#156ab1" fill-rule="evenodd" stroke="#136cb5" d="M270.1 253.741c.48.256.923.376 1.088-.356.3.132.365.441.626.56.214.1.18.287 0 .428-.472.361-.637.713.011 1.069.12.066.225.222.037.31-.6.283.222.289.083.472-.086.236-.5-.134-.494.266a19.382 19.382 0 0 1-1.351-2.749z" transform="translate(-112.441 -116.442)"/>
            <path id="Path_47" d="M213.275 174.912c-.073-.459-.438-.269-.7-.313a1.143 1.143 0 0 0-.1-.52.688.688 0 0 1 .614-1.11c.378-.023.758 0 1.137 0a10.659 10.659 0 0 1-.951 1.943z" class="cls-16" transform="translate(-62.557 -46.974)"/>
            <path id="Path_48" fill="#0b6da7" fill-rule="evenodd" stroke="#136cb5" d="M189.5 241.544c-.17-.078-.343-.185-.274-.394.086-.261.337-.135.521-.16a1.028 1.028 0 0 1-.247.554z" transform="translate(-42.576 -105.728)"/>
            <path id="Path_49" fill="#116aa7" fill-rule="evenodd" stroke="#136cb5" d="M205.915 205.379c.189-.246.372.053.559.006a.9.9 0 0 1-.277.561c.008-.24-.397-.274-.282-.567z" transform="translate(-56.985 -74.893)"/>
            <path id="Path_50" fill="#1267a7" fill-rule="evenodd" stroke="#136cb5" d="M230.086 173.168c.16-.025.406-.324.426.085.005.111-.173.278-.159.462a1.153 1.153 0 0 1-.267-.547z" transform="translate(-77.88 -47.044)"/>
            <path id="Path_51" d="M165.244 241.345c.174-.294.309.207.48.026.044-.267-.268-.256-.335-.434.741-.043.857.028.767.892-.051.493-.077.983-.1 1.476-.007.168-.035.323-.246.336-.254.016-.285-.16-.3-.355-.024-.4.1-.813-.347-1.136-.201-.15.295-.502.081-.805z" class="cls-15" transform="translate(-21.765 -105.681)"/>
            <path id="Path_52" d="M148.705 275.613c.25-.193.524.254.8-.041.077-.083.149.117.15.224v1.766c0 .166-.025.328-.236.346-.251.021-.3-.146-.3-.348v-.815c0-.133.026-.35-.1-.368-.575-.082-.29-.479-.31-.764z" class="cls-15" transform="translate(-7.543 -135.589)"/>
            <path id="Path_53" fill="#1a68af" fill-rule="evenodd" stroke="#136cb5" d="M276.907 224l.274.544-.137.138c-.218-.048-.568.135-.626-.17-.048-.252.21-.447.489-.512z" transform="translate(-117.894 -91.061)"/>
            <path id="Path_54" fill="#196bb5" fill-rule="evenodd" stroke="#136cb5" d="M268.951 209.384c0 .249-.114.325-.3.323-.154 0-.348.015-.335-.21s.215-.264.387-.3a.19.19 0 0 1 .248.187z" transform="translate(-110.904 -78.273)"/>
            <path id="Path_55" fill="#0d6cba" fill-rule="evenodd" stroke="#136cb5" d="M227.045 129.268c-.158-.034-.359.08-.473-.137.114-.217.315-.1.473-.136v.273z" transform="translate(-74.845 -9.001)"/>
            <path id="Path_56" fill="#1c6ab0" fill-rule="evenodd" stroke="#136cb5" d="M254.859 179.371c-.083.04-.135.085-.187.086-.1 0-.161-.063-.116-.159.018-.037.11-.061.162-.053s.082.069.141.126z" transform="translate(-99.004 -52.403)"/>
            <path id="Path_57" fill="#0e6abc" fill-rule="evenodd" stroke="#136cb5" d="M264.455 238.882h-.408v-.272a.182.182 0 0 1 .273 0 .282.282 0 0 1 .135.272z" transform="translate(-107.212 -103.626)"/>
            <path id="Path_58" fill="#1e65b2" fill-rule="evenodd" stroke="#136cb5" d="M264.319 237.374h-.273c.014-.14.054-.282.225-.253s.063.162.048.253z" transform="translate(-107.212 -102.392)"/>
            <path id="Path_59" fill="#1d68ae" fill-rule="evenodd" stroke="#136cb5" d="M184.847 211.509c-.1.021-.166.057-.209.037s-.055-.094-.081-.145c.039-.016.088-.055.114-.043a.988.988 0 0 1 .176.151z" transform="translate(-38.555 -80.14)"/>
        </g>
    </g>
</svg>
