<?xml version="1.0" encoding="utf-8"?>
<!-- Generator: Adobe Illustrator 17.1.0, SVG Export Plug-In . SVG Version: 6.00 Build 0)  -->
<!DOCTYPE svg PUBLIC "-//W3C//DTD SVG 1.1//EN" "http://www.w3.org/Graphics/SVG/1.1/DTD/svg11.dtd">
<svg version="1.1" id="Layer_1" xmlns="http://www.w3.org/2000/svg" xmlns:xlink="http://www.w3.org/1999/xlink" x="0px" y="0px"
	 viewBox="420 196 570 516" enable-background="new 420 196 570 516" xml:space="preserve">
<path opacity="0.31" fill="#FFFFFF" d="M676.3,226c21.8,0,39.2,17.6,39.2,39.2s-17.6,39.2-39.2,39.2s-39.2-17.6-39.2-39.2
	S654.4,226,676.3,226z"/>
<path opacity="0.31" fill="#FFFFFF" d="M481.7,676.4c-21.8,0-39.2-17.6-39.2-39.2s17.6-39.2,39.2-39.2s39.2,17.6,39.2,39.2
	S503.5,676.4,481.7,676.4z"/>
<path opacity="0.31" fill="#FFFFFF" d="M529.4,427.7c-21.8,0-39.2-17.6-39.2-39.2c0-21.6,17.6-39.2,39.2-39.2s39.2,17.6,39.2,39.2
	C568.5,410.1,551,427.7,529.4,427.7z"/>
<path opacity="0.31" fill="#FFFFFF" d="M604.8,676.4c-21.8,0-39.2-17.6-39.2-39.2s17.6-39.2,39.2-39.2s39.2,17.6,39.2,39.2
	S626.7,676.4,604.8,676.4z"/>
<path opacity="0.31" fill="#FFFFFF" d="M628.8,550.8c-21.8,0-39.2-17.6-39.2-39.2c0-21.6,17.6-39.2,39.2-39.2
	c21.6,0,39.2,17.6,39.2,39.2C668.2,533.3,650.4,550.8,628.8,550.8z"/>
<path opacity="0.31" fill="#FFFFFF" d="M652.5,427.7c-21.8,0-39.2-17.6-39.2-39.2c0-21.6,17.6-39.2,39.2-39.2s39.2,17.6,39.2,39.2
	C691.7,410.1,674.4,427.7,652.5,427.7z"/>
<path opacity="0.31" fill="#FFFFFF" d="M728,676.4c-21.8,0-39.2-17.6-39.2-39.2s17.6-39.2,39.2-39.2c21.8,0,39.2,17.6,39.2,39.2
	C767.6,658.8,749.8,676.4,728,676.4z"/>
<path opacity="0.31" fill="#FFFFFF" d="M751.9,550.8c-21.8,0-39.2-17.6-39.2-39.2c0-21.6,17.6-39.2,39.2-39.2
	c21.8,0,39.2,17.6,39.2,39.2C791.1,533.3,773.8,550.8,751.9,550.8z"/>
<path opacity="0.31" fill="#FFFFFF" d="M775.7,427.7c-21.8,0-39.2-17.6-39.2-39.2c0-21.6,17.6-39.2,39.2-39.2
	c21.6,0,39.2,17.6,39.2,39.2C814.8,410.1,797.5,427.7,775.7,427.7z"/>
<path opacity="0.31" fill="#FFFFFF" d="M799.4,304.5c-21.8,0-39.2-17.6-39.2-39.2c0-21.6,17.6-39.2,39.2-39.2s39.2,17.6,39.2,39.2
	C838.6,287,821.2,304.5,799.4,304.5z"/>
<path opacity="0.31" fill="#FFFFFF" d="M874.6,550.8c-21.8,0-39.2-17.6-39.2-39.2c0-21.6,17.3-39.4,39.2-39.4
	c21.8,0,39.2,17.6,39.2,39.2C913.8,533.3,896.5,550.8,874.6,550.8z"/>
<path opacity="0.31" fill="#FFFFFF" d="M922.3,304.5c-21.8,0-39.2-17.6-39.2-39.2c0-21.6,17.6-39.2,39.2-39.2
	c21.6,0,39.2,17.6,39.2,39.2C961.5,287,943.9,304.5,922.3,304.5z"/>
</svg>
