<svg xmlns="http://www.w3.org/2000/svg" viewBox="0 0 150 150" class="svg-icon svg-icon__instagram-grey"><defs><style>.a{fill:#464646}</style></defs><path class="a" d="M97.546 58.724a9.285 9.285 0 00-5.32-5.32 15.518 15.518 0 00-5.206-.966c-2.956-.134-3.842-.163-11.327-.163s-8.372.029-11.328.163a15.5 15.5 0 00-5.2.966 9.283 9.283 0 00-5.321 5.32 15.544 15.544 0 00-.965 5.205c-.135 2.956-.163 3.843-.163 11.328s.028 8.372.163 11.328a15.544 15.544 0 00.965 5.205 9.283 9.283 0 005.321 5.32 15.486 15.486 0 005.2.965c2.955.135 3.842.164 11.328.164s8.372-.029 11.327-.164a15.5 15.5 0 005.206-.965 9.285 9.285 0 005.32-5.32 15.518 15.518 0 00.965-5.205c.135-2.956.163-3.843.163-11.328s-.028-8.372-.163-11.328a15.518 15.518 0 00-.965-5.205zM75.693 89.652a14.395 14.395 0 1114.395-14.395 14.4 14.4 0 01-14.395 14.395zm14.964-26a3.364 3.364 0 113.364-3.364 3.364 3.364 0 01-3.364 3.369z"/><path class="a" d="M75.8 26.083A48.917 48.917 0 10124.72 75 48.973 48.973 0 0075.8 26.083zm27.761 60.732a20.565 20.565 0 01-1.3 6.8 14.335 14.335 0 01-8.2 8.2 20.572 20.572 0 01-6.805 1.3c-2.99.136-3.944.169-11.557.169s-8.568-.033-11.558-.169a20.572 20.572 0 01-6.805-1.3 14.335 14.335 0 01-8.2-8.2 20.591 20.591 0 01-1.3-6.8c-.136-2.99-.168-3.945-.168-11.558s.032-8.568.168-11.558a20.6 20.6 0 011.3-6.8 14.337 14.337 0 018.2-8.2 20.572 20.572 0 016.805-1.3c2.99-.137 3.944-.169 11.558-.169s8.567.032 11.557.169a20.572 20.572 0 016.805 1.3 14.337 14.337 0 018.2 8.2 20.572 20.572 0 011.3 6.805c.136 2.99.168 3.945.168 11.558s-.036 8.563-.172 11.553z"/><circle class="a" cx="75.693" cy="75.257" r="9.344" transform="rotate(-13.283 75.69 75.256)"/></svg>