<svg xmlns="http://www.w3.org/2000/svg" viewBox="0 0 150 150" class="svg-icon svg-icon__pinterest-grey"><path d="M76.218 26.083A48.917 48.917 0 10125.136 75a48.918 48.918 0 00-48.918-48.917zm3.947 65.506c-3.7-.29-5.249-2.12-8.15-3.884-1.6 8.362-3.542 16.38-9.315 20.569-1.78-12.641 2.614-22.135 4.658-32.209-3.479-5.863.417-17.658 7.761-14.75 9.035 3.573-7.826 21.788 3.5 24.062 11.815 2.375 16.64-20.5 9.312-27.944C77.338 46.69 57.105 57.19 59.6 72.569c.605 3.76 4.492 4.9 1.55 10.09-6.774-1.5-8.8-6.846-8.537-13.969.421-11.662 10.478-19.828 20.569-20.96 12.761-1.43 24.738 4.687 26.39 16.689 1.861 13.549-5.76 28.221-19.407 27.17z" fill="#464646"/></svg>