<?xml version="1.0" encoding="UTF-8"?> <!-- Generator: Adobe Illustrator 26.0.3, SVG Export Plug-In . SVG Version: 6.00 Build 0) --> <svg xmlns="http://www.w3.org/2000/svg" xmlns:xlink="http://www.w3.org/1999/xlink" version="1.1" x="0px" y="0px" viewBox="0 0 949.61 949.61" style="enable-background:new 0 0 949.61 949.61;" xml:space="preserve"> <style type="text/css"> .st0{fill:#D10075;} .st1{fill:#FFFFFF;} </style> <g id="BG"> <polygon class="st0" points="0.32,-0.02 0.32,949.58 949.93,949.58 949.93,-0.02 0.32,-0.02 "></polygon> </g> <g id="Ebene_1"> <g> <g> <path class="st1" d="M136.28,773.99h29.32v-74.12c0-23.23,15.77-39.27,39.83-39.27c21.02,0,32.36,12.17,32.36,35.4v77.99h29.32 v-82.97c0-35.95-21.3-58.08-54.76-58.08c-22.12,0-40.1,8.3-48.95,22.4l-4.15-19.64h-22.96V773.99L136.28,773.99z M439.28,705.12 c0-43.14-26.83-72.18-67.21-72.18c-41.76,0-72.18,30.15-72.18,71.08c0,42.31,29.59,72.74,69.97,72.74 c28.76,0,49.23-10.79,62.78-33.47l-25.45-11.34c-7.47,12.72-18.81,18.53-35.95,18.53c-22.96,0-37.89-12.72-41.49-35.12 l108.97-0.28C438.73,715.08,439.28,710.38,439.28,705.12L439.28,705.12z M330.04,691.57c4.15-21.02,19.08-32.91,41.76-32.91 c22.95,0,38.17,13,39,32.64L330.04,691.57L330.04,691.57z M565.99,743.41c0,0-9.68,7.47-24.89,7.19 c-17.42-0.28-23.79-6.91-23.79-26.83v-61.95h50.34v-25.72h-50.34v-38.44h-22.68c-1.11,27.38-11.62,41.21-32.36,42.04v22.13H488 v63.89c0,34.85,16.32,51.44,49.78,51.44c24.06,0,37.61-8.02,37.61-8.02L565.99,743.41L565.99,743.41z"></path> <path class="st1" d="M179.81,537.67c31.53,0,52.27-16.32,52.27-42.59c0-20.74-12.17-34.85-35.4-40.1l-16.32-3.87 c-14.66-3.6-21.57-6.64-21.57-17.98c0-9.68,7.47-14.93,20.74-14.93c18.81,0,22.4,13,22.4,13l26.27-9.13 c0,0-8.3-28.21-48.68-28.21c-30.42,0-49.78,15.77-49.78,40.93c0,20.47,12.17,34.57,35.95,40.1l15.76,3.87 c14.11,3.6,21.02,6.92,21.02,17.98c0,10.51-8.02,16.32-22.68,16.32c-22.12,0-25.44-17.15-25.44-17.15l-26.55,7.74 C127.81,503.65,135.28,537.67,179.81,537.67L179.81,537.67z M326.14,393.85c-35.95,0-56.97,16.04-56.97,16.04l15.76,21.85 c0,0,15.76-12.17,40.1-12.17c20.47,0,32.36,11.34,32.36,30.98v7.74c-6.36-2.77-20.47-7.47-42.04-7.47 c-34.29,0-54.21,15.49-54.21,42.87c0,27.93,18.81,43.97,51.17,43.97c23.51,0,39.27-7.47,48.12-21.3l4.7,18.53h21.3v-87.39 C386.43,414.87,362.92,393.85,326.14,393.85L326.14,393.85z M320.88,513.33c-19.91,0-29.87-6.91-29.87-20.19 c0-13.83,10.79-20.47,32.08-20.47c15.21,0,27.93,3.87,34.29,6.36v5.26C357.39,500.89,341.63,513.33,320.88,513.33L320.88,513.33z M428.16,534.9h29.32V328.86h-29.32V534.9L428.16,534.9z M607.02,328.86v84.63c-11.06-12.45-26.83-19.64-46.46-19.64 c-39,0-67.76,30.15-67.76,71.91c0,42.31,27.66,71.91,67.21,71.91c21.29,0,38.44-8.3,49.78-22.95l4.7,20.19h21.85V328.86H607.02 L607.02,328.86z M564.7,510.84c-24.89,0-42.04-18.81-42.04-45.08c0-26.55,17.42-44.8,42.04-44.8c25.17,0,43.14,19.08,43.14,44.8 C607.85,492.04,589.32,510.84,564.7,510.84L564.7,510.84z M745.44,537.67c43.15,0,74.67-30.7,74.67-71.91 c0-42.59-30.98-71.91-74.67-71.91c-43.14,0-74.4,30.42-74.4,71.91C671.04,507.52,702.02,537.67,745.44,537.67L745.44,537.67z M745.44,510.57c-26,0-44.53-18.81-44.53-44.8c0-26.27,18.53-45.08,44.53-45.08c26.83,0,44.8,18.25,44.8,45.08 C790.24,491.76,771.71,510.57,745.44,510.57L745.44,510.57z"></path> <path class="st1" d="M214.1,125.69c-21.57,0-38.72,8.3-50.06,22.68l-4.98-19.91h-21.85v199.13h29.32v-77.72 c11.34,12.45,27.38,19.64,46.74,19.64c39,0,67.76-29.87,67.76-71.63C281.03,155.56,253.65,125.69,214.1,125.69L214.1,125.69z M209.12,242.68c-24.61,0-43.42-19.36-43.42-44.8c0-26.27,19.08-45.08,43.98-45.08c24.34,0,41.21,18.53,41.21,45.08 C250.89,223.6,233.46,242.68,209.12,242.68L209.12,242.68z M316.23,266.74h29.32v-55.87c0-38.44,14.66-53.93,47.85-53.93h5.53 l1.94-29.87c-1.94-0.28-4.43-0.55-7.74-0.55c-24.34,0-42.32,9.96-49.78,27.38l-4.98-25.44h-22.13V266.74L316.23,266.74z M498.01,269.51c43.15,0,74.67-30.7,74.67-71.91c0-42.59-30.98-71.91-74.67-71.91c-43.14,0-74.4,30.42-74.4,71.91 C423.61,239.36,454.59,269.51,498.01,269.51L498.01,269.51z M498.01,242.4c-26,0-44.53-18.81-44.53-44.8 c0-26.27,18.53-45.08,44.53-45.08c26.83,0,44.8,18.25,44.8,45.08C542.81,223.6,524.28,242.4,498.01,242.4L498.01,242.4z"></path> </g> <polygon class="st1" points="136.28,834.24 136.28,863.55 819.69,863.55 819.69,834.24 136.28,834.24 "></polygon> </g> </g> <g id="Ebene_2"> </g> </svg> 