<?xml version="1.0" standalone="no"?>
<svg version="1.0" xmlns="http://www.w3.org/2000/svg"
 width="512.000000pt" height="512.000000pt" viewBox="0 0 512.000000 512.000000"
 preserveAspectRatio="xMidYMid meet">
<g transform="translate(0.000000,512.000000) scale(0.100000,-0.100000)"
fill="#464646" stroke="none">
<path d="M2235 5105 c-462 -60 -885 -237 -1255 -523 -117 -91 -316 -287 -413
-407 -276 -342 -459 -746 -537 -1186 -28 -156 -39 -531 -21 -702 82 -766 505
-1455 1156 -1880 324 -211 689 -344 1085 -393 152 -19 472 -18 630 1 1160 144
2081 1065 2225 2225 20 162 20 478 0 640 -92 744 -509 1411 -1140 1826 -329
216 -695 350 -1085 399 -152 18 -501 18 -645 0z m869 -1154 c17 -193 130 -396
282 -511 116 -87 283 -150 401 -150 l53 0 0 -236 0 -237 -88 7 c-200 15 -407
87 -576 200 -38 25 -70 46 -72 46 -2 0 -4 -258 -4 -572 0 -349 -4 -598 -11
-638 -74 -465 -527 -805 -996 -750 -446 52 -783 406 -810 850 -15 250 77 482
266 671 187 187 400 274 656 267 l110 -3 3 -236 2 -237 -37 9 c-136 31 -300
-18 -402 -122 -209 -212 -144 -575 126 -702 122 -56 293 -49 408 19 57 33 128
106 160 166 56 104 55 67 55 1191 l0 1037 234 0 233 0 7 -69z"/>
</g>
</svg>
