<svg xmlns="http://www.w3.org/2000/svg" viewBox="0 0 150 150" class="svg-icon svg-icon__twitter-grey"><path d="M75.8 26.083A48.917 48.917 0 10124.72 75 48.973 48.973 0 0075.8 26.083zm21.828 37.724c.017.48.027.971.027 1.463 0 14.874-11.322 32.026-32.036 32.026a31.791 31.791 0 01-17.26-5.059 22.649 22.649 0 0016.672-4.658 11.276 11.276 0 01-10.515-7.822 11.609 11.609 0 002.116.2 11.126 11.126 0 002.963-.394 11.259 11.259 0 01-9.034-11.034.708.708 0 01.01-.145 11.116 11.116 0 005.1 1.4 11.265 11.265 0 01-3.493-15.027 31.967 31.967 0 0023.2 11.766 11.269 11.269 0 0119.188-10.27 22.346 22.346 0 007.16-2.731 11.307 11.307 0 01-4.956 6.234 22.337 22.337 0 006.466-1.769 22.9 22.9 0 01-5.608 5.82zm0 0" fill="#464646"/></svg>