<svg xmlns="http://www.w3.org/2000/svg" viewBox="0 0 150 150" class="svg-icon svg-icon__youtube-grey"><defs><style>.a{fill:#464646}</style></defs><path class="a" d="M84.317 74.693l-15.31-7.758a.614.614 0 00-.892.548v15.061A.615.615 0 0069 83.1l15.3-7.3a.614.614 0 00.017-1.107z"/><path class="a" d="M75.8 26.083A48.917 48.917 0 10124.72 75 48.917 48.917 0 0075.8 26.083zm27.994 57.1a11.628 11.628 0 01-11.626 11.626H59.436a11.628 11.628 0 01-11.628-11.627V66.818a11.628 11.628 0 0111.628-11.627h32.732A11.628 11.628 0 01103.8 66.818z"/></svg>