<svg width="31" height="31" viewBox="0 0 31 31" fill="none" xmlns="http://www.w3.org/2000/svg">
<path d="M29.3804 0.749268H27.5054C26.9429 0.749268 26.5679 1.11509 26.5679 1.66382V4.40749L0.317871 11.724V19.0404L4.06787 20.1379V29.1005C4.06787 29.6493 4.44287 30.0151 5.00537 30.0151H18.1304C18.6929 30.0151 19.0679 29.6493 19.0679 29.1005V24.3448L26.5679 26.3569V29.1005C26.5679 29.6493 26.9429 30.0151 27.5054 30.0151H29.3804C29.9429 30.0151 30.3179 29.6493 30.3179 29.1005V1.66382C30.3179 1.11509 29.9429 0.749268 29.3804 0.749268ZM15.3179 26.3569H7.8179V21.2354L15.3179 23.2474V26.3569Z" fill="#050A52"/>
</svg>
