<svg width="20" height="19" viewBox="0 0 20 19" fill="none" xmlns="http://www.w3.org/2000/svg">
<path fill-rule="evenodd" clip-rule="evenodd" d="M19.55 9L15.15 1C14.95 0.7 14.65 0.5 14.25 0.5H5.45C5.05 0.5 4.75 0.7 4.55 1L0.15 9C-0.05 9.3 -0.05 9.7 0.15 10L4.55 18C4.75 18.3 5.05 18.5 5.45 18.5H14.25C14.65 18.5 14.95 18.3 15.15 18L19.55 10C19.75 9.7 19.75 9.3 19.55 9ZM10.85 15C10.85 15.3 10.65 15.5 10.35 15.5H9.35C9.05 15.5 8.85 15.3 8.85 15V14C8.85 13.7 9.05 13.5 9.35 13.5H10.35C10.65 13.5 10.85 13.7 10.85 14V15ZM10.85 11C10.85 11.3 10.65 11.5 10.35 11.5H9.35C9.05 11.5 8.85 11.3 8.85 11V4C8.85 3.7 9.05 3.5 9.35 3.5H10.35C10.65 3.5 10.85 3.7 10.85 4V11Z" fill="#BC431E"/>
</svg>
