<svg width="100" height="100" viewBox="0 0 100 100" fill="none" xmlns="http://www.w3.org/2000/svg">
<path d="M50 38.2084C56.5417 38.2084 61.875 43.5417 61.875 50.0834C61.875 56.6251 56.5417 61.9584 50 61.9584C43.4584 61.9584 38.125 56.6251 38.125 50.0834C38.125 43.5417 43.4584 38.2084 50 38.2084ZM50 35.2917C41.8334 35.2917 35.2084 41.9167 35.2084 50.0834C35.2084 58.2501 41.8334 64.8751 50 64.8751C58.1667 64.8751 64.7917 58.2501 64.7917 50.0834C64.7917 41.9167 58.1667 35.2917 50 35.2917Z" fill="#141414"/>
<path d="M50.0001 69.7084C62.9167 69.7084 74.4584 77.1251 79.8751 88.7501H20.1251C25.5417 77.1251 37.1251 69.7084 50.0001 69.7084ZM50.0001 66.7917C35.0001 66.7917 22.1667 76.0001 16.7917 89.0417C16.2917 90.2917 17.2501 91.6667 18.6251 91.6667H81.3334C82.7084 91.6667 83.6667 90.2917 83.1667 89.0417C77.7917 76.0001 64.9584 66.7917 49.9584 66.7917H50.0001Z" fill="#141414"/>
<path d="M50 26.4583C44.5834 26.4583 40.2084 22.0833 40.2084 16.6667C40.2084 11.25 44.5834 6.875 50 6.875C55.4167 6.875 59.7917 11.25 59.7917 16.6667C59.7917 22.0833 55.4167 26.4583 50 26.4583ZM50 9.79167C46.2084 9.79167 43.125 12.875 43.125 16.6667C43.125 20.4583 46.2084 23.5417 50 23.5417C53.7917 23.5417 56.875 20.4583 56.875 16.6667C56.875 12.875 53.7917 9.79167 50 9.79167Z" fill="#141414"/>
<path d="M50 30.6251C49.2083 30.6251 48.5416 29.9584 48.5416 29.1667V25.0001C48.5416 24.2084 49.2083 23.5417 50 23.5417C50.7916 23.5417 51.4583 24.2084 51.4583 25.0001V29.1667C51.4583 29.9584 50.7916 30.6251 50 30.6251Z" fill="#141414"/>
<path d="M25.5833 35.5416C23.0833 35.5416 20.5833 34.5833 18.6666 32.6666C16.75 30.7499 15.7916 28.3749 15.7916 25.7499C15.7916 23.1249 16.7916 20.6666 18.6666 18.8333C22.5 14.9999 28.7083 14.9999 32.5 18.8333C36.3333 22.6666 36.3333 28.8749 32.5 32.6666C30.5833 34.5833 28.0833 35.5416 25.5833 35.5416ZM25.5833 18.8749C23.8333 18.8749 22.0833 19.5416 20.7083 20.8749C19.4166 22.1666 18.7083 23.9166 18.7083 25.7499C18.7083 27.5833 19.4166 29.2916 20.7083 30.6249C23.375 33.2916 27.75 33.2916 30.4166 30.6249C31.7083 29.3333 32.4166 27.5833 32.4166 25.7499C32.4166 23.9166 31.7083 22.2083 30.4166 20.8749C29.125 19.5416 27.3333 18.8749 25.5416 18.8749H25.5833Z" fill="#141414"/>
<path d="M34.4166 36.0416C34.0416 36.0416 33.6666 35.9166 33.375 35.6249L30.4166 32.6666C29.8333 32.0833 29.8333 31.1666 30.4166 30.5833C31 29.9999 31.9166 29.9999 32.5 30.5833L35.4583 33.5416C36.0416 34.1249 36.0416 35.0416 35.4583 35.6249C35.1666 35.9166 34.7916 36.0416 34.4166 36.0416Z" fill="#141414"/>
<path d="M16.6667 59.7916C11.25 59.7916 6.875 55.4166 6.875 49.9999C6.875 44.5833 11.25 40.2083 16.6667 40.2083C22.0833 40.2083 26.4583 44.5833 26.4583 49.9999C26.4583 55.4166 22.0833 59.7916 16.6667 59.7916ZM16.6667 43.1249C12.875 43.1249 9.79167 46.2083 9.79167 49.9999C9.79167 53.7916 12.875 56.8749 16.6667 56.8749C20.4583 56.8749 23.5417 53.7916 23.5417 49.9999C23.5417 46.2083 20.4583 43.1249 16.6667 43.1249Z" fill="#141414"/>
<path d="M29.1666 51.4584H25C24.2083 51.4584 23.5416 50.7917 23.5416 50.0001C23.5416 49.2084 24.2083 48.5417 25 48.5417H29.1666C29.9583 48.5417 30.625 49.2084 30.625 50.0001C30.625 50.7917 29.9583 51.4584 29.1666 51.4584Z" fill="#141414"/>
<path d="M83.3333 59.7916C77.9166 59.7916 73.5416 55.4166 73.5416 49.9999C73.5416 44.5833 77.9166 40.2083 83.3333 40.2083C88.75 40.2083 93.125 44.5833 93.125 49.9999C93.125 55.4166 88.75 59.7916 83.3333 59.7916ZM83.3333 43.1249C79.5416 43.1249 76.4583 46.2083 76.4583 49.9999C76.4583 53.7916 79.5416 56.8749 83.3333 56.8749C87.125 56.8749 90.2083 53.7916 90.2083 49.9999C90.2083 46.2083 87.125 43.1249 83.3333 43.1249Z" fill="#141414"/>
<path d="M75 51.4584H70.8333C70.0417 51.4584 69.375 50.7917 69.375 50.0001C69.375 49.2084 70.0417 48.5417 70.8333 48.5417H75C75.7917 48.5417 76.4583 49.2084 76.4583 50.0001C76.4583 50.7917 75.7917 51.4584 75 51.4584Z" fill="#141414"/>
<path d="M74.4167 35.5416C71.9167 35.5416 69.4167 34.5833 67.5 32.6666C63.6667 28.8333 63.6667 22.6249 67.5 18.8333C71.3333 15.0416 77.5417 14.9999 81.3333 18.8333C83.1667 20.6666 84.2083 23.1249 84.2083 25.7499C84.2083 28.3749 83.2083 30.8333 81.3333 32.6666C79.4167 34.5833 76.9167 35.5416 74.4167 35.5416ZM74.4167 18.8749C72.6667 18.8749 70.9167 19.5416 69.5417 20.8749C68.1667 22.2083 67.5417 23.9166 67.5417 25.7499C67.5417 27.5833 68.25 29.2916 69.5417 30.6249C72.2083 33.2916 76.5833 33.2916 79.25 30.6249C80.5417 29.3333 81.25 27.5833 81.25 25.7499C81.25 23.9166 80.5417 22.2083 79.25 20.8749C77.9167 19.5416 76.1667 18.8749 74.375 18.8749H74.4167Z" fill="#141414"/>
<path d="M65.5833 36.0416C65.2083 36.0416 64.8333 35.9166 64.5416 35.6249C63.9583 35.0416 63.9583 34.1249 64.5416 33.5416L67.5 30.5833C68.0833 29.9999 69 29.9999 69.5833 30.5833C70.1666 31.1666 70.1666 32.0833 69.5833 32.6666L66.625 35.6249C66.3333 35.9166 65.9583 36.0416 65.5833 36.0416Z" fill="#141414"/>
<path d="M83.3333 51.4583C82.5417 51.4583 81.875 50.7917 81.875 50V45.8333C81.875 45.0417 82.5417 44.375 83.3333 44.375C84.125 44.375 84.7917 45.0417 84.7917 45.8333V50C84.7917 50.7917 84.125 51.4583 83.3333 51.4583Z" fill="#141414"/>
<path d="M83.3333 52.625C82.5417 52.625 81.875 53.2917 81.875 54.0833C81.875 54.875 82.5417 55.5417 83.3333 55.5417C84.125 55.5417 84.7917 54.875 84.7917 54.0833C84.7917 53.2917 84.125 52.625 83.3333 52.625Z" fill="#141414"/>
<path d="M74.5417 27.0416C73.75 27.0416 73.0834 26.3749 73.0834 25.5833V21.4166C73.0834 20.6249 73.75 19.9583 74.5417 19.9583C75.3334 19.9583 76 20.6249 76 21.4166V25.5833C76 26.3749 75.3334 27.0416 74.5417 27.0416Z" fill="#141414"/>
<path d="M74.5417 28.2083C73.75 28.2083 73.0834 28.8749 73.0834 29.6666C73.0834 30.4583 73.75 31.1249 74.5417 31.1249C75.3334 31.1249 76 30.4583 76 29.6666C76 28.8749 75.3334 28.2083 74.5417 28.2083Z" fill="#141414"/>
<path d="M50 18.2501C49.2083 18.2501 48.5416 17.5834 48.5416 16.7917V12.6251C48.5416 11.8334 49.2083 11.1667 50 11.1667C50.7916 11.1667 51.4583 11.8334 51.4583 12.6251V16.7917C51.4583 17.5834 50.7916 18.2501 50 18.2501Z" fill="#141414"/>
<path d="M50 19.4167C49.2083 19.4167 48.5416 20.0834 48.5416 20.8751C48.5416 21.6667 49.2083 22.3334 50 22.3334C50.7916 22.3334 51.4583 21.6667 51.4583 20.8751C51.4583 20.0834 50.7916 19.4167 50 19.4167Z" fill="#141414"/>
<path d="M25.625 27.3333C24.8333 27.3333 24.1666 26.6667 24.1666 25.875V21.7083C24.1666 20.9167 24.8333 20.25 25.625 20.25C26.4166 20.25 27.0833 20.9167 27.0833 21.7083V25.875C27.0833 26.6667 26.4166 27.3333 25.625 27.3333Z" fill="#141414"/>
<path d="M25.625 28.5417C24.8333 28.5417 24.1666 29.2084 24.1666 30.0001C24.1666 30.7917 24.8333 31.4584 25.625 31.4584C26.4166 31.4584 27.0833 30.7917 27.0833 30.0001C27.0833 29.2084 26.4166 28.5417 25.625 28.5417Z" fill="#141414"/>
<path d="M16.6667 51.4583C15.875 51.4583 15.2084 50.7917 15.2084 50V45.8333C15.2084 45.0417 15.875 44.375 16.6667 44.375C17.4584 44.375 18.125 45.0417 18.125 45.8333V50C18.125 50.7917 17.4584 51.4583 16.6667 51.4583Z" fill="#141414"/>
<path d="M16.6667 52.625C15.875 52.625 15.2084 53.2917 15.2084 54.0833C15.2084 54.875 15.875 55.5417 16.6667 55.5417C17.4584 55.5417 18.125 54.875 18.125 54.0833C18.125 53.2917 17.4584 52.625 16.6667 52.625Z" fill="#141414"/>
</svg>
