<svg width="17" height="20" viewBox="0 0 17 20" fill="none" xmlns="http://www.w3.org/2000/svg">
<path d="M1.4978 1.98071C1.4978 1.70415 1.72232 1.48012 1.99888 1.48071L10.5859 1.49916C10.7182 1.49944 10.8449 1.55212 10.9384 1.64567L16.3514 7.06066C16.4452 7.15443 16.4978 7.28158 16.4978 7.41415V18.9786C16.4978 19.2547 16.274 19.4786 15.9978 19.4786H1.9978C1.72166 19.4786 1.4978 19.2547 1.4978 18.9786V1.98071Z" stroke="#050A52" stroke-linejoin="round"/>
<path d="M10.5 1.5V6.5C10.5 7.05228 10.9477 7.5 11.5 7.5H16.5" stroke="#050A52"/>
<path d="M5 10.5H13.5" stroke="#050A52" stroke-linecap="round"/>
<path d="M5 13H13.5" stroke="#050A52" stroke-linecap="round"/>
<path d="M5 16H9" stroke="#050A52" stroke-linecap="round"/>
</svg>
