<svg width="26" height="31" viewBox="0 0 26 31" fill="none" xmlns="http://www.w3.org/2000/svg">
<path d="M25.6875 23.2289C25.606 24.7786 23.7799 25.1538 23.7799 25.1538H2.12769C2.12769 25.1538 0.301599 24.7786 0.220077 23.2289C0.138555 21.6629 1.58964 20.9941 3.12225 18.8409C4.65486 16.6876 3.57877 9.91795 5.37225 6.60653C7.18204 3.29511 11.6331 2.4958 11.6331 2.4958C11.6331 2.4958 11.6168 1.28868 11.7473 0.766684C11.8777 0.260999 12.3831 0.0163124 12.9538 0C13.5244 0.0163124 14.0299 0.260999 14.1603 0.766684C14.2908 1.28868 14.2744 2.4958 14.2744 2.4958C14.2744 2.4958 18.7255 3.29511 20.5353 6.60653C22.3288 9.91795 21.2527 16.6876 22.7853 18.8409C24.3179 20.9941 25.769 21.6629 25.6875 23.2289Z" fill="#050A52"/>
<path d="M12.9538 0.163124C13.5082 0.179437 13.8995 0.424123 13.9973 0.799309C14.1278 1.28868 14.1115 2.47949 14.1115 2.47949V2.60999L14.2419 2.64261C14.2908 2.64261 18.6441 3.47455 20.3886 6.67178C21.3017 8.35196 21.4484 10.913 21.6115 13.3762C21.7582 15.6762 21.8886 17.8295 22.6549 18.9224C23.2093 19.6891 23.731 20.26 24.2038 20.7657C25.0354 21.6629 25.5897 22.2665 25.5408 23.1963C25.4593 24.5991 23.8288 24.958 23.7962 24.9743H2.16035C2.16035 24.9743 0.448391 24.6154 0.383174 23.1963C0.334261 22.2501 0.888609 21.6629 1.72013 20.7657C2.19296 20.26 2.7147 19.6891 3.26905 18.9224C4.03535 17.8458 4.16578 15.6762 4.31252 13.3762C4.45926 10.8967 4.62231 8.33565 5.53535 6.67178C7.27992 3.47455 11.6332 2.65893 11.6821 2.64261L11.8125 2.60999V2.47949C11.8125 2.47949 11.7962 1.28868 11.9267 0.799309C12.0245 0.407811 12.4158 0.179437 12.9702 0.163124M12.9702 0C12.3995 0.0163124 11.8941 0.260999 11.7636 0.766684C11.6332 1.28868 11.6495 2.4958 11.6495 2.4958C11.6495 2.4958 7.19839 3.29511 5.38861 6.60653C3.59513 9.91795 4.67122 16.6876 3.13861 18.8409C1.606 20.9941 0.154913 21.6629 0.236434 23.2289C0.317956 24.7786 2.14405 25.1538 2.14405 25.1538H23.7962C23.7962 25.1538 25.6223 24.7786 25.7038 23.2289C25.7854 21.6629 24.3343 20.9941 22.8017 18.8409C21.2691 16.6876 22.3452 9.91795 20.5517 6.60653C18.7419 3.29511 14.2908 2.4958 14.2908 2.4958C14.2908 2.4958 14.3071 1.28868 14.1767 0.766684C14.0462 0.260999 13.5408 0.0163124 12.9702 0Z" fill="#050A52"/>
<path d="M8.87744 26.6548C8.99157 28.4818 10.7687 29.9336 12.9535 29.9336C15.1383 29.9336 16.9155 28.4818 17.0296 26.6548H8.87744Z" fill="#050A52"/>
<path d="M12.954 30.0149C10.7529 30.0149 8.91052 28.5468 8.79639 26.6545V26.573H17.1116V26.6545C16.9812 28.5305 15.1551 30.0149 12.954 30.0149ZM8.95943 26.7361C9.12247 28.4978 10.8507 29.8518 12.954 29.8518C15.0573 29.8518 16.7692 28.4978 16.9486 26.7361H8.97574H8.95943Z" fill="#050A52"/>
</svg>
