<svg width="30" height="31" viewBox="0 0 30 31" fill="none" xmlns="http://www.w3.org/2000/svg">
<path d="M15 14.2649C17.8995 14.2649 20.25 11.9144 20.25 9.01489C20.25 6.1154 17.8995 3.76489 15 3.76489C12.1005 3.76489 9.75 6.1154 9.75 9.01489C9.75 11.9144 12.1005 14.2649 15 14.2649Z" fill="#050A52"/>
<path d="M15 6.01489C16.65 6.01489 18 7.36489 18 9.01489C18 10.6649 16.65 12.0149 15 12.0149C13.35 12.0149 12 10.6649 12 9.01489C12 7.36489 13.35 6.01489 15 6.01489ZM15 3.76489C12.105 3.76489 9.75 6.11989 9.75 9.01489C9.75 11.9099 12.105 14.2649 15 14.2649C17.895 14.2649 20.25 11.9099 20.25 9.01489C20.25 6.11989 17.895 3.76489 15 3.76489Z" fill="#050A52"/>
<path d="M15.0002 16.4548C9.70523 16.4548 5.16023 19.6948 3.24023 24.2998C5.98523 27.7798 10.2302 30.0148 15.0002 30.0148C19.7702 30.0148 24.0152 27.7798 26.7602 24.2998C24.8402 19.6948 20.2952 16.4548 15.0002 16.4548Z" fill="#050A52"/>
<path d="M15.0002 19.4548C18.3152 19.4548 21.3452 21.1198 23.1302 23.8198C20.9252 25.8598 18.0452 26.9998 15.0002 26.9998C11.9552 26.9998 9.07523 25.8598 6.87023 23.8198C8.65523 21.1198 11.6852 19.4548 15.0002 19.4548ZM15.0002 16.4548C9.70523 16.4548 5.16023 19.6948 3.24023 24.2998C5.98523 27.7798 10.2302 30.0148 15.0002 30.0148C19.7702 30.0148 24.0152 27.7798 26.7602 24.2998C24.8402 19.6948 20.2952 16.4548 15.0002 16.4548Z" fill="#050A52"/>
<path d="M15 2.25C22.035 2.25 27.75 7.965 27.75 15C27.75 22.035 22.035 27.75 15 27.75C7.965 27.75 2.25 22.035 2.25 15C2.25 7.965 7.965 2.25 15 2.25ZM15 0C6.72 0 0 6.72 0 15C0 23.28 6.72 30 15 30C23.28 30 30 23.28 30 15C30 6.72 23.28 0 15 0Z" fill="#050A52"/>
</svg>
