<svg width="100" height="100" viewBox="0 0 100 100" fill="none" xmlns="http://www.w3.org/2000/svg">
<path d="M62.5 57.7082C51.375 57.7082 42.2917 48.6248 42.2917 37.4998C42.2917 26.3748 51.375 17.2915 62.5 17.2915C73.625 17.2915 82.7084 26.3748 82.7084 37.4998C82.7084 48.6248 73.625 57.7082 62.5 57.7082ZM62.5 20.2082C52.9584 20.2082 45.2084 27.9582 45.2084 37.4998C45.2084 47.0415 52.9584 54.7915 62.5 54.7915C72.0417 54.7915 79.7917 47.0415 79.7917 37.4998C79.7917 27.9582 72.0417 20.2082 62.5 20.2082Z" fill="#323336"/>
<path d="M62.5 66.0416C46.75 66.0416 33.9584 53.2499 33.9584 37.4999C33.9584 21.7499 46.75 8.95825 62.5 8.95825C78.25 8.95825 91.0417 21.7499 91.0417 37.4999C91.0417 53.2499 78.25 66.0416 62.5 66.0416ZM62.5 11.8749C48.375 11.8749 36.875 23.3749 36.875 37.4999C36.875 51.6249 48.375 63.1249 62.5 63.1249C76.625 63.1249 88.125 51.6249 88.125 37.4999C88.125 23.3749 76.625 11.8749 62.5 11.8749Z" fill="#323336"/>
<path d="M16.25 91.7917C14.125 91.7917 12.1667 90.9583 10.6667 89.5C9.16669 88 8.33336 86 8.37503 83.8333C8.37503 81.7083 9.25003 79.6667 10.75 78.1667L31.9167 57L43.2084 68.1667L21.9584 89.4167C20.4584 90.9167 18.4167 91.7917 16.2917 91.7917C16.2917 91.7917 16.25 91.7917 16.2084 91.7917H16.25ZM31.9584 61.0833L12.8334 80.2083C11.875 81.1667 11.3334 82.4583 11.2917 83.8333C11.2917 85.2083 11.7917 86.4583 12.75 87.4167C13.7084 88.375 15.0417 88.9167 16.3334 88.875C17.7084 88.875 19 88.3333 19.9584 87.3333L39.125 68.1667L31.9584 61.0833Z" fill="#323336"/>
<path d="M39.6227 53.1493L32.8463 59.9258L34.9086 61.9882L41.6851 55.2117L39.6227 53.1493Z" fill="#323336"/>
<path d="M45.0574 58.4828L38.2809 65.2593L40.3433 67.3217L47.1198 60.5452L45.0574 58.4828Z" fill="#323336"/>
<path d="M62.5417 45.2083C61.75 45.2083 61.0834 45.8749 61.0834 46.6666C61.0834 47.4582 61.75 48.1249 62.5417 48.1249C63.3334 48.1249 64 47.4582 64 46.6666C64 45.8749 63.3334 45.2083 62.5417 45.2083Z" fill="#323336"/>
<path d="M62.5417 43.0417H62.4584C61.6667 43 61.0417 42.2917 61.125 41.5C61.125 41.5 61.125 41.125 61.125 39.2083C61.125 37.5417 62.4167 36.3333 63.625 35.125C64.6667 34.125 65.75 33.0417 65.75 32.0417C65.75 30.125 64.4167 29.2083 63.1667 29C61.875 28.7917 60.2084 29.2917 59.5834 31.25C59.3334 32 58.5417 32.4583 57.75 32.2083C57 31.9583 56.5417 31.1667 56.7917 30.375C57.75 27.4167 60.5417 25.6667 63.5834 26.125C66.0834 26.5 68.625 28.5 68.625 32.0417C68.625 34.2917 66.9584 35.9167 65.5834 37.25C64.9584 37.875 63.9584 38.7917 63.9584 39.2083C63.9584 41.5 63.9584 41.6667 63.9584 41.6667C63.9167 42.4167 63.25 43 62.5 43L62.5417 43.0417Z" fill="#323336"/>
</svg>
