<svg width="100" height="100" viewBox="0 0 100 100" fill="none" xmlns="http://www.w3.org/2000/svg">
<path d="M50 15.1667C53.2083 15.1667 55.8333 17.7917 55.8333 21C55.8333 24.2083 53.2083 26.8333 50 26.8333C46.7917 26.8333 44.1667 24.2083 44.1667 21C44.1667 17.7917 46.7917 15.1667 50 15.1667M50 13.75C46 13.75 42.75 17 42.75 21C42.75 25 46 28.25 50 28.25C54 28.25 57.25 25 57.25 21C57.25 17 54 13.75 50 13.75V13.75Z" fill="#323336"/>
<path d="M50 28.7916C45.7084 28.7916 42.2084 25.2916 42.2084 20.9999C42.2084 16.7083 45.7084 13.2083 50 13.2083C54.2917 13.2083 57.7917 16.7083 57.7917 20.9999C57.7917 25.2916 54.2917 28.7916 50 28.7916ZM50 14.2499C46.2917 14.2499 43.2917 17.2499 43.2917 20.9583C43.2917 24.6666 46.2917 27.6666 50 27.6666C53.7084 27.6666 56.7084 24.6666 56.7084 20.9583C56.7084 17.2499 53.7084 14.2499 50 14.2499ZM50 27.3333C46.5 27.3333 43.625 24.4583 43.625 20.9583C43.625 17.4583 46.5 14.5833 50 14.5833C53.5 14.5833 56.375 17.4583 56.375 20.9583C56.375 24.4583 53.5 27.3333 50 27.3333ZM50 15.6666C47.0834 15.6666 44.7084 18.0416 44.7084 20.9583C44.7084 23.8749 47.0834 26.2499 50 26.2499C52.9167 26.2499 55.2917 23.8749 55.2917 20.9583C55.2917 18.0416 52.9167 15.6666 50 15.6666V15.6666Z" fill="#323336"/>
<path d="M50 33.4164C56.3334 33.4164 62.0417 37.0831 64.6667 42.7914H35.2917C37.9584 37.0831 43.625 33.4164 49.9584 33.4164M49.9584 31.9998C42.5834 31.9998 36.2917 36.4998 33.6667 42.9164C33.4167 43.5414 33.9167 44.2081 34.5834 44.2081H65.4167C66.0834 44.2081 66.5834 43.5414 66.3334 42.9164C63.7084 36.4998 57.375 31.9998 50.0417 31.9998H49.9584Z" fill="#323336"/>
<path d="M65.4167 44.7498H34.5833C34.0833 44.7498 33.625 44.4998 33.3333 44.0832C33.0417 43.6665 33 43.1665 33.2083 42.7082C36.0417 35.8748 42.625 31.4165 50.0417 31.4165C57.4583 31.4165 64.0417 35.8332 66.875 42.7082C67.0417 43.1665 67 43.6665 66.75 44.0832C66.4583 44.4998 66 44.7498 65.5 44.7498H65.4167ZM50 32.5415C43.0417 32.5415 36.8333 36.7082 34.2083 43.1248C34.1667 43.2915 34.2083 43.4165 34.25 43.4582C34.3333 43.5832 34.4583 43.6665 34.625 43.6665H65.4583C65.4583 43.6665 65.75 43.5832 65.8333 43.4582C65.875 43.3748 65.9167 43.2498 65.875 43.1248C63.2083 36.7082 57.0417 32.5415 50.0833 32.5415H50ZM65.5417 43.3332H34.4583L34.8333 42.5415C37.5833 36.6665 43.5417 32.8748 50 32.8748C56.4583 32.8748 62.4583 36.6665 65.1667 42.5415L65.5417 43.3332ZM36.2083 42.2498H63.7917C61.0833 37.1248 55.8333 33.9998 50 33.9998C44.1667 33.9998 38.9167 37.1248 36.2083 42.2498Z" fill="#323336"/>
<path d="M28.1667 17.2083C30.8333 17.2083 33.0417 19.375 33.0417 22.0833C33.0417 24.7917 30.875 26.9583 28.1667 26.9583C25.4583 26.9583 23.2917 24.7917 23.2917 22.0833C23.2917 19.375 25.4583 17.2083 28.1667 17.2083ZM28.1667 16C24.8333 16 22.125 18.7083 22.125 22.0417C22.125 25.375 24.8333 28.0833 28.1667 28.0833C31.5 28.0833 34.2083 25.375 34.2083 22.0417C34.2083 18.7083 31.5 16 28.1667 16V16Z" fill="#323336"/>
<path d="M28.1667 28.6667C24.5417 28.6667 21.5834 25.7083 21.5834 22.0833C21.5834 18.4583 24.5417 15.5 28.1667 15.5C31.7917 15.5 34.75 18.4583 34.75 22.0833C34.75 25.7083 31.7917 28.6667 28.1667 28.6667ZM28.1667 16.5417C25.125 16.5417 22.6667 19 22.6667 22.0417C22.6667 25.0833 25.125 27.5417 28.1667 27.5417C31.2084 27.5417 33.6667 25.0833 33.6667 22.0417C33.6667 19 31.2084 16.5417 28.1667 16.5417ZM28.1667 27.4583C25.1667 27.4583 22.75 25.0417 22.75 22.0417C22.75 19.0417 25.1667 16.625 28.1667 16.625C31.1667 16.625 33.5834 19.0417 33.5834 22.0417C33.5834 25.0417 31.1667 27.4583 28.1667 27.4583V27.4583ZM28.1667 17.75C25.7917 17.75 23.8334 19.6667 23.8334 22.0833C23.8334 24.5 25.75 26.375 28.1667 26.375C30.5834 26.375 32.5 24.4583 32.5 22.0833C32.5 19.7083 30.5834 17.75 28.1667 17.75Z" fill="#323336"/>
<path d="M28.1667 32.8749C32.0834 32.8749 35.7084 34.5416 38.2084 37.3749L39.0417 36.5416C36.3334 33.5833 32.4584 31.7083 28.1667 31.7083C22.0417 31.7083 16.7917 35.4583 14.5834 40.8333C14.375 41.3333 14.7917 41.9166 15.3334 41.9166H35.2084L35.3333 40.7083H15.9167C18.125 35.9583 22.875 32.9166 28.1667 32.9166" fill="#323336"/>
<path d="M35.7084 42.4167H15.3334C14.8751 42.4167 14.4584 42.2083 14.2084 41.7917C13.9584 41.4167 13.9167 40.9583 14.0834 40.5833C16.4584 34.8333 22.0001 31.125 28.1667 31.125C32.4584 31.125 36.5834 32.9583 39.4584 36.125L39.7917 36.5L38.1667 38.125L37.7917 37.7083C35.3334 34.9583 31.8334 33.4167 28.1667 33.4167C23.3751 33.4167 19.0834 35.9583 16.8334 40.125H35.9584L35.7084 42.4167V42.4167ZM15.1251 41.2083C15.1251 41.2083 15.2501 41.2917 15.3334 41.2917H34.7084V41.2083H15.1251ZM28.1667 32.2083C22.4167 32.2083 17.2917 35.6667 15.0834 41C15.0834 41.0833 15.0834 41.125 15.0834 41.1667L15.4167 40.4167C17.7084 35.5 22.7084 32.2917 28.1667 32.2917C31.9584 32.2917 35.6251 33.8333 38.2501 36.5417L38.3334 36.4583C35.6667 33.75 32.0001 32.1667 28.2084 32.1667L28.1667 32.2083Z" fill="#323336"/>
<path d="M71.8333 17.2083C74.5 17.2083 76.7083 19.375 76.7083 22.0833C76.7083 24.7917 74.5416 26.9583 71.8333 26.9583C69.125 26.9583 66.9583 24.7917 66.9583 22.0833C66.9583 19.375 69.125 17.2083 71.8333 17.2083M71.8333 16C68.5 16 65.7916 18.7083 65.7916 22.0417C65.7916 25.375 68.5 28.0833 71.8333 28.0833C75.1666 28.0833 77.875 25.375 77.875 22.0417C77.875 18.7083 75.1666 16 71.8333 16Z" fill="#323336"/>
<path d="M71.8333 28.6667C68.2083 28.6667 65.25 25.7083 65.25 22.0833C65.25 18.4583 68.2083 15.5 71.8333 15.5C75.4583 15.5 78.4167 18.4583 78.4167 22.0833C78.4167 25.7083 75.4583 28.6667 71.8333 28.6667V28.6667ZM71.8333 16.5417C68.7917 16.5417 66.3333 19 66.3333 22.0417C66.3333 25.0833 68.7917 27.5417 71.8333 27.5417C74.875 27.5417 77.3333 25.0833 77.3333 22.0417C77.3333 19 74.875 16.5417 71.8333 16.5417ZM71.8333 27.4583C68.8333 27.4583 66.4167 25.0417 66.4167 22.0417C66.4167 19.0417 68.8333 16.625 71.8333 16.625C74.8333 16.625 77.25 19.0417 77.25 22.0417C77.25 25.0417 74.8333 27.4583 71.8333 27.4583ZM71.8333 17.75C69.4583 17.75 67.5 19.6667 67.5 22.0833C67.5 24.5 69.4167 26.375 71.8333 26.375C74.25 26.375 76.1667 24.4583 76.1667 22.0833C76.1667 19.7083 74.25 17.75 71.8333 17.75Z" fill="#323336"/>
<path d="M71.8333 32.8748C77.125 32.8748 81.8333 35.9165 84.0833 40.6665H64.7083L64.7917 41.8748H84.7083C85.25 41.8748 85.6667 41.3332 85.4583 40.7915C83.25 35.4582 78 31.6665 71.875 31.6665C67.5833 31.6665 63.7083 33.4998 61 36.4582L61.8333 37.3332C64.3333 34.5415 67.9583 32.8748 71.875 32.8748" fill="#323336"/>
<path d="M84.6667 42.4165H64.2083L64.0833 40.1248H83.1667C80.875 35.9582 76.625 33.4165 71.8333 33.4165C68.1667 33.4165 64.625 34.9582 62.2083 37.7082L61.8333 38.1665L60.25 36.4998L60.5833 36.1248C63.4583 32.9582 67.5833 31.1665 71.8333 31.1665C78.0417 31.1665 83.5833 34.8748 85.9167 40.6248C86.0833 41.0415 86.0417 41.4998 85.7917 41.8332C85.5417 42.2082 85.125 42.4582 84.6667 42.4582V42.4165ZM65.25 41.3332H84.6667C84.6667 41.3332 84.8333 41.3332 84.875 41.2498H65.25V41.3332ZM71.8333 32.3332C77.2917 32.3332 82.25 35.4998 84.5833 40.4582L84.9167 41.2082C84.9167 41.2082 84.9583 41.0832 84.9167 41.0415C82.7083 35.7082 77.5833 32.2498 71.8333 32.2498C68.0417 32.2498 64.375 33.7915 61.7083 36.4998L61.7917 36.5832C64.4167 33.9165 68.0417 32.3748 71.8333 32.3748V32.3332Z" fill="#323336"/>
<path d="M15.7084 86.9998C15.7084 86.9998 15.4167 86.9998 15.2501 86.9165C14.8334 86.7498 14.5001 86.4165 14.3751 85.9998L8.33339 65.0415C8.20839 64.6665 8.29172 64.2915 8.50006 63.9582C8.70839 63.6248 9.04172 63.4165 9.37506 63.3332C11.7917 62.8332 13.2501 61.4582 14.9584 59.8332C17.6251 57.2915 20.6667 54.4165 27.7501 54.4165C34.1251 54.4165 36.5417 55.9998 38.5001 57.2915C39.2917 57.7915 39.8751 58.2082 40.6667 58.4165C43.4584 59.2082 47.0417 59.1248 50.5417 59.0415C53.7917 58.9582 56.8751 58.8748 59.2501 59.4998C62.2917 60.2915 64.7084 62.1248 65.6667 64.1665C68.4167 62.6248 76.9167 57.8748 81.2501 55.8332C85.0417 54.0415 89.6667 54.5415 91.1251 56.8332C91.7501 57.8748 92.3334 60.0415 88.7917 62.8332C83.7084 66.8748 61.4584 83.7082 53.8751 85.7498C49.1667 86.9998 43.4167 85.6248 37.2917 84.1248C33.6667 83.2498 29.8751 82.2915 26.0834 81.8748C24.7084 81.7082 19.9167 84.2915 16.4584 86.7915C16.2084 86.9582 15.9584 87.0415 15.6667 87.0415L15.7084 86.9998ZM26.0834 79.0832C26.0834 79.0832 26.3334 79.0832 26.4584 79.0832C30.4167 79.5415 34.2501 80.4582 38.0001 81.3748C43.7501 82.7915 49.1667 84.0832 53.2084 83.0415C59.7501 81.2915 80.6667 65.7498 87.1667 60.6248C88.7501 59.3748 89.0834 58.4998 88.8751 58.2082C88.3751 57.4165 85.3334 56.8748 82.5 58.2082C77.4584 60.5832 66.3334 66.8748 66.2501 66.9582C66.1667 66.9582 66.0834 67.0415 66.0417 67.0415C65.5834 68.4582 64.0001 70.2498 59.0001 70.3332C48.9584 70.4998 44.8334 70.3332 44.6667 70.3332C43.9167 70.3332 43.3334 69.6665 43.3334 68.9165C43.3334 68.1665 44.0834 67.5832 44.7501 67.5832C44.7501 67.5832 48.9584 67.7498 58.9584 67.5832C61.9584 67.5415 63.3751 66.7498 63.4584 66.0415C63.5834 64.9998 61.7501 62.9165 58.6251 62.0832C56.6251 61.5415 53.7501 61.6248 50.7084 61.7082C47.0001 61.7915 43.1667 61.8748 40.0001 60.9998C38.8334 60.6665 37.9584 60.0832 37.0834 59.5415C35.3334 58.4165 33.3751 57.1248 27.8334 57.1248C21.8334 57.1248 19.4584 59.4165 16.9167 61.7915C15.3751 63.2915 13.7501 64.7915 11.3751 65.6248L16.5001 83.4165C19.0001 81.7498 23.4584 79.0832 26.0834 79.0832V79.0832Z" fill="#323336"/>
<path d="M62.125 62.8331C61.6667 62.8331 61.25 62.6248 61 62.2081C60.5833 61.5831 60.75 60.7498 61.375 60.3331C61.5833 60.2081 66.2917 57.0831 71.625 54.5415C75.6667 52.6248 79.0417 53.4998 80.2917 55.4165C81.2083 56.8331 80.8333 58.5415 79.4167 59.7498C78.8333 60.2498 78 60.1665 77.5 59.5831C77 58.9998 77.0833 58.1665 77.6667 57.6665C78.0417 57.3331 78.1667 57.0831 78.0417 56.8748C77.625 56.2498 75.6667 55.6248 72.8333 56.9581C67.6667 59.4165 62.9583 62.5415 62.9167 62.5831C62.6667 62.7498 62.4167 62.7915 62.1667 62.7915L62.125 62.8331Z" fill="#323336"/>
<path d="M52.875 61.6665C52.4583 61.6665 52 61.4582 51.75 61.0832C51.3333 60.4582 51.4583 59.6249 52.0833 59.1665C62.9583 51.5832 67.0833 52.3749 68.5833 54.3332C69.875 56.0415 69.0833 58.4582 67.5833 59.7082C67 60.2082 66.125 60.1249 65.6667 59.5415C65.1667 58.9582 65.25 58.1249 65.8333 57.6249C66.4583 57.0832 66.6667 56.2499 66.4583 55.9999C66.4583 55.9999 64.2083 54.0415 53.6667 61.3749C53.4167 61.5415 53.1667 61.6249 52.875 61.6249V61.6665Z" fill="#323336"/>
</svg>
