<svg width="19" height="19" viewBox="0 0 19 19" fill="none" xmlns="http://www.w3.org/2000/svg">
<path fill-rule="evenodd" clip-rule="evenodd" d="M5.715 1.03188L7.815 5.83188C7.915 6.13188 7.915 6.53188 7.715 6.83188L6.115 9.23188C6.115 9.23188 7.015 11.3319 9.315 12.3319L11.615 10.7319C11.915 10.5319 12.215 10.5319 12.615 10.6319L17.415 12.6319C17.815 12.8319 18.015 13.2319 18.015 13.6319C17.915 14.8319 17.315 17.3319 14.215 18.2319C13.315 18.4319 12.415 18.4319 11.415 18.3319C9.515 18.1319 6.315 17.3319 3.715 14.6319C0.615 11.4319 0.115 8.33188 0.015 6.33188C-0.085 4.83188 0.315 3.43188 1.215 2.23188C1.915 1.43188 3.015 0.631885 4.715 0.431885C5.115 0.431885 5.515 0.631885 5.715 1.03188Z" fill="#050A52"/>
</svg>
