<svg width="24" height="14" viewBox="0 0 24 14" fill="none" xmlns="http://www.w3.org/2000/svg">
<path fill-rule="evenodd" clip-rule="evenodd" d="M23 1H5.5H1V4.14494C2.44574 4.57521 3.5 5.9145 3.5 7.5C3.5 9.0855 2.44574 10.4248 1 10.8551V13H5.5H23V10.9646C21.3039 10.7219 20 9.2632 20 7.5C20 5.7368 21.3039 4.27806 23 4.03544V1ZM5.5 13C5.22386 13 5 12.7761 5 12.5V11.8125C5 11.5364 5.22386 11.3125 5.5 11.3125C5.77614 11.3125 6 11.5364 6 11.8125V12.5C6 12.7761 5.77614 13 5.5 13ZM5.5 1C5.77614 1 6 1.22386 6 1.5V2.1875C6 2.46364 5.77614 2.6875 5.5 2.6875C5.22386 2.6875 5 2.46364 5 2.1875V1.5C5 1.22386 5.22386 1 5.5 1ZM23.5 5C22.1193 5 21 6.1193 21 7.5C21 8.8807 22.1193 10 23.5 10H24V13C24 13.5523 23.5523 14 23 14H1C0.447716 14 0 13.5523 0 13V11V10C1.38071 10 2.5 8.8807 2.5 7.5C2.5 6.1193 1.38071 5 0 5V4V1C0 0.44772 0.447715 0 1 0H23C23.5523 0 24 0.44772 24 1V5H23.5ZM5.5 3.97917C5.77614 3.97917 6 4.20302 6 4.47917V5.8542C6 6.1303 5.77614 6.3542 5.5 6.3542C5.22386 6.3542 5 6.1303 5 5.8542V4.47917C5 4.20302 5.22386 3.97917 5.5 3.97917ZM5.5 7.6458C5.77614 7.6458 6 7.8697 6 8.1458V9.5208C6 9.797 5.77614 10.0208 5.5 10.0208C5.22386 10.0208 5 9.797 5 9.5208V8.1458C5 7.8697 5.22386 7.6458 5.5 7.6458ZM9.5 3.5C9.22386 3.5 9 3.72386 9 4C9 4.27614 9.22386 4.5 9.5 4.5H17.5C17.7761 4.5 18 4.27614 18 4C18 3.72386 17.7761 3.5 17.5 3.5H9.5ZM9 7C9 6.7239 9.22386 6.5 9.5 6.5H17.5C17.7761 6.5 18 6.7239 18 7C18 7.2761 17.7761 7.5 17.5 7.5H9.5C9.22386 7.5 9 7.2761 9 7ZM9.5 9.5C9.22386 9.5 9 9.7239 9 10C9 10.2761 9.22386 10.5 9.5 10.5H17.5C17.7761 10.5 18 10.2761 18 10C18 9.7239 17.7761 9.5 17.5 9.5H9.5Z" fill="#050A52"/>
</svg>
