
<svg width="172px" height="157px" viewBox="0 0 172 157" version="1.1" xmlns="http://www.w3.org/2000/svg" xmlns:xlink="http://www.w3.org/1999/xlink">
  <!-- Generator: Sketch 48.1 (47250) - http://www.bohemiancoding.com/sketch -->
  <desc>Created with Sketch.</desc>
  <defs>
    <path d="M5.92672124,-6.20613587e-15 L88.8381537,0 C91.5995774,-5.07243986e-16 93.8381537,2.23857625 93.8381537,5 C93.8381537,5.32598452 93.8062741,5.65118776 93.7429701,5.9709666 L85.1573756,49.3409079 C84.6938185,51.6825564 82.6396501,53.3699413 80.2525592,53.3699413 L14.5123157,53.3699413 C12.1252248,53.3699413 10.0710564,51.6825564 9.60749933,49.3409079 L1.02190485,5.9709666 C0.485654801,3.26211131 2.24689934,0.631433653 4.95575464,0.0951836061 C5.27553348,0.0318795903 5.60073672,-7.04552519e-15 5.92672124,-7.10542736e-15 Z" id="path-1"></path>
    <path d="M0.144018963,23.9307958 L0.140897042,23.9307958 L0.140897042,5.31635132 C3.32062245,5.65507116 6.48452704,5.47779074 9.63261081,4.78451005 C12.795454,4.08797899 16.6625439,2.6697356 21.2338804,0.529779872 C21.257483,5.49207362 24.0698807,8.86040167 29.6710737,10.634764 L29.6710737,23.9307958 L29.6396652,23.9307958 C29.4764738,31.7473029 22.9361355,36.1631451 14.8918421,36.1631451 C6.84754863,36.1631451 0.307210364,31.7473029 0.144018963,23.9307958 Z" id="path-2"></path>
    <path d="M10.6162723,33.986038 L10.6162723,41.4147027 C10.6162723,41.9104299 10.8650962,42.3432858 11.3042164,42.5294976 C11.4920522,42.5923689 11.6798879,42.6528258 11.8652881,42.6528258 C12.114112,42.6528258 12.4263598,42.5899546 12.614183,42.4061694 L23.2306051,33.985778 L38.7162766,33.985778 C43.5243918,33.985778 47.4592125,30.0852338 47.4592125,25.3190026 L47.4592125,8.66677542 C47.4592125,3.90054418 43.5243918,0 38.7162766,0 L8.74293589,0 C3.93482075,0 0,3.90054418 0,8.66677542 L0,25.3190026 C0,30.0852338 3.93482075,33.985778 8.74293589,33.985778 L10.6162723,33.986038 Z" id="path-4"></path>
    <filter x="-59.0%" y="-42.2%" width="218.0%" height="231.3%" filterUnits="objectBoundingBox" id="filter-5">
      <feMorphology radius="0.5" operator="dilate" in="SourceAlpha" result="shadowSpreadOuter1"></feMorphology>
      <feOffset dx="0" dy="10" in="shadowSpreadOuter1" result="shadowOffsetOuter1"></feOffset>
      <feGaussianBlur stdDeviation="7.5" in="shadowOffsetOuter1" result="shadowBlurOuter1"></feGaussianBlur>
      <feComposite in="shadowBlurOuter1" in2="SourceAlpha" operator="out" result="shadowBlurOuter1"></feComposite>
      <feColorMatrix values="0 0 0 0 0   0 0 0 0 0   0 0 0 0 0  0 0 0 0.0502717391 0" type="matrix" in="shadowBlurOuter1"></feColorMatrix>
    </filter>
  </defs>
  <g id="Article-Page" stroke="none" stroke-width="1" fill="none" fill-rule="evenodd">
    <g id="HelpCenter–ArticlePage-(D)" transform="translate(-834.000000, -2225.000000)">
      <g id="Actions" transform="translate(136.000000, 2230.000000)">
        <g id="Share-it,-if-you-like-it." transform="translate(699.000000, 0.000000)">
          <g id="Illustration">
            <g id="Girl">
              <g id="Mug" transform="translate(13.000000, 132.000000) scale(-1, 1) translate(-13.000000, -132.000000) translate(0.000000, 120.000000)">
                <path d="M0.590909091,4.68292683 L0.590909091,20.467198 C3.30074873,22.8223993 6.8370559,24 11.1998306,24 C15.5626053,24 18.9202376,22.8223993 21.2727273,20.467198 L21.2727273,4.78294286 C18.7756872,6.75330941 15.6032481,7.73849269 11.7554101,7.73849269 C7.90757197,7.73849269 4.18607165,6.71997074 0.590909091,4.68292683 Z" id="Fill-Mug" fill="#F7F9F9"></path>
                <ellipse id="Mug-Top" stroke="#E2E5EC" fill="#D3D7DF" cx="10.9318182" cy="3.80487805" rx="10.3409091" ry="3.80487805"></ellipse>
                <ellipse id="Mug-Inside" fill="#9E6939" cx="11.2272727" cy="5.56097561" rx="8.86363636" ry="2.04878049"></ellipse>
                <path d="M0.590909091,4.09756098 L0.590909091,19.902439" id="Mug-Left" stroke="#E2E5EC"></path>
                <path d="M21.2727273,4.09756098 L21.2727273,19.902439" id="Mug-Right" stroke="#E2E5EC"></path>
                <path d="M26,16.9756098 L26,8.19512195 C23.7155494,8.19512195 21.8636364,10.3123046 21.8636364,12.5753619 C21.8636364,14.8384192 23.7155494,16.9756098 26,16.9756098 Z" id="Mug-Handle" stroke="#E2E5EC" stroke-width="2" stroke-linecap="round" stroke-linejoin="round" transform="translate(23.931818, 12.585366) scale(-1, 1) translate(-23.931818, -12.585366) "></path>
                <path d="M0.590909091,20.4878049 C3.02073468,22.8292683 6.46770438,24 10.9318182,24 C15.395932,24 18.8429017,22.8292683 21.2727273,20.4878049" id="Mug-Bottom" stroke="#E2E5EC" stroke-linecap="round"></path>
                <path d="M2.36363636,4.68292683 L2.36363636,20.0675868 C1.82532574,20.4947123 1.23441665,20.8299069 0.590909091,21.0731707 L0.590909091,5.97587011 L2.36363636,4.68292683 Z" id="Shadow" fill="#9DA5B2" opacity="0.200000003" transform="translate(1.477273, 12.878049) scale(-1, 1) translate(-1.477273, -12.878049) "></path>
              </g>
              <g id="Computer" transform="translate(38.000000, 98.000000)">
                <path d="M14.3896537,54.9702578 L80.4191404,54.9702578 C83.0220925,53.659984 84.3235685,52.2370462 84.3235685,50.7014443 C83.1172702,52.1395835 81.7024705,52.8586531 80.0791695,52.8586531 C78.4558686,52.8586531 56.7268594,52.8586531 14.892142,52.8586531 C12.6635279,52.8911407 11.2651432,52.1720711 10.6969879,50.7014443 C11.3053818,53.0921466 12.362419,54.5200358 13.8680994,54.9851117 L14.3896537,54.9702578 Z" id="Shadow" fill="#373C50" opacity="0"></path>
                <g id="Laptop">
                  <use fill="#E2E5EC" fill-rule="evenodd" xlink:href="#path-1"></use>
                  <path stroke="#BAC1D3" stroke-width="1" d="M5.92672124,0.5 C5.63333518,0.5 5.34065226,0.528691631 5.0528513,0.585665245 C2.61488153,1.06829029 1.02976144,3.43590018 1.51238649,5.87386994 L10.097981,49.2438113 C10.5151824,51.3512949 12.3639339,52.8699413 14.5123157,52.8699413 L80.2525592,52.8699413 C82.400941,52.8699413 84.2496926,51.3512949 84.666894,49.2438113 L93.2524884,5.87386994 C93.3094621,5.58606898 93.3381537,5.29338607 93.3381537,5 C93.3381537,2.51471863 91.3234351,0.5 88.8381537,0.5 L5.92672124,0.5 Z"></path>
                </g>
                <path d="M13.8382698,52.8354601 L80.6682993,52.8354601 C83.3028096,51.5251864 84.6200648,50.1022485 84.6200648,48.5666466 C83.3991412,50.0047858 81.9671885,50.7238555 80.3242066,50.7238555 C78.6812247,50.7238555 56.6887726,50.7238555 14.3468503,50.7238555 C12.0912164,50.756343 10.6758777,50.0372734 10.100834,48.5666466 C10.7166041,50.957349 11.7864569,52.3852381 13.3103922,52.8503141 L13.8382698,52.8354601 Z" id="Shadow" fill="#373C50" opacity="0.049999997"></path>
                <path d="M88.8660046,4.88149355 C91.4689567,3.57121979 92.7704327,2.14828195 92.7704327,0.612680026 C91.5641344,2.65267482 90.1493347,3.67267221 88.5260337,3.67267221 C86.9027327,3.67267221 59.446943,3.67267221 6.15866452,3.67267221 C3.93005043,3.10330422 2.53166571,2.08330683 1.96351037,0.612680026 C2.91960713,2.99347975 4.15049573,4.41641759 5.65617617,4.88149355 L88.8660046,4.88149355 Z" id="Light" fill="#FFFFFF" opacity="0.25" transform="translate(47.366972, 2.747087) scale(1, -1) translate(-47.366972, -2.747087) "></path>
                <ellipse id="Oval-2" fill="#9DA5B2" opacity="0.49682971" cx="47.4869378" cy="26.6849707" rx="5.28260657" ry="5.33699413"></ellipse>
              </g>
              <g id="Head" transform="translate(62.000000, 43.000000)">
                <rect id="Fill-Neck" fill="#FFDBC3" x="18.9395648" y="50.9812679" width="8.3377776" height="4.78413813"></rect>
                <path d="M19.018623,52.6272544 C22.1399047,53.3697515 25.1059284,53.3697515 27.9166941,52.6272544 L27.8995947,51.0567621 L18.983685,51.0567621" id="Shadow-Neck" fill="#804A54" opacity="0.300000012"></path>
                <path d="M10.6382049,55.7611881 L18.3733033,55.7611881 L18.3733033,50.4015949 C18.062653,50.5023078 17.864037,50.5023078 17.7774555,50.4015949 C13.0851088,44.9433897 8.2794086,41.4265454 8.2794086,38.4765201 C8.2794086,33.3525351 8.2794086,27.2204325 8.2794086,20.0802124 C15.8471169,20.876187 22.9484624,19.2740808 29.5834451,15.2738938 C29.5183659,16.0624215 29.5183659,16.6473305 29.5834451,17.0286208 C30.3259767,21.3790129 33.3786563,24.3088942 37.8704098,25.3984263 L37.8704098,38.4765201 C33.3402207,44.2578106 30.1863579,48.2328356 28.4088212,50.4015949 C28.316255,50.5145343 27.9474101,50.3632698 27.8156499,50.4015949 C27.8156499,53.974657 27.8156499,55.7611881 27.8156499,55.7611881 L35.5398976,55.7611881 C35.6414677,49.9012951 39.5637628,46.5698708 47.3067828,45.7669151 C44.2139005,39.1026254 42.618366,33.0158821 42.5201792,27.5066852 C42.3728991,19.2428898 41.6406183,4.67854119 29.6609779,2.18813211 C27.0319078,2.75390596 25.3544938,3.41316754 24.6287359,4.16591684 C25.2580236,1.70961346 23.0531134,0.481461777 18.0140051,0.481461777 C10.4553428,0.481461777 2.14277109,7.4699439 1.56644563,21.6232434 C5.49507218,34.5824356 5.00073176,43.0908397 0.083424397,47.1484559 L2.14277109,47.2087035 C6.34548637,47.8785271 8.94842032,49.8609003 9.95157295,53.1558232 L10.6382049,55.7611881 Z" id="Fill-Haircut" fill="#E7AA51"></path>
                <g id="Face-+-Microphone" transform="translate(8.296296, 14.893617)">
                  <mask id="mask-3" fill="white">
                    <use xlink:href="#path-2"></use>
                  </mask>
                  <use id="Mask" stroke="#7F4953" fill="#FFDBC3" stroke-linecap="round" stroke-linejoin="round" xlink:href="#path-2"></use>
                  <path d="M7.52344121,25.5263197 C8.94929222,27.2991239 11.4101403,28.185526 14.9059854,28.185526 C18.4018305,28.185526 20.8626785,27.2991239 22.2885296,25.5263197" id="Smile" stroke="#7F4953" stroke-width="2" stroke-linecap="round" stroke-linejoin="round" mask="url(#mask-3)"></path>
                  <path d="M14.9059854,28.185526 C21.7083678,25.8426413 26.8002178,22.724799 30.1815353,18.8319993" id="Microphone-Connection" stroke="#373C50" stroke-width="2" mask="url(#mask-3)"></path>
                </g>
                <path d="M8.9395421,40.5882146 C9.3269261,40.9778273 10.1554252,22.3333402 10.5556323,22.3631724 C17.0743547,22.8490903 22.9538195,21.6720603 29.019846,18.6484637 C30.5296387,22.7357816 33.346285,25.4059814 37.4697847,26.6590631 L37.4697847,25.5655165 C32.2942965,23.3676893 29.7065523,20.0304373 29.7065523,15.5537603 C23.770546,19.0097764 16.8482093,20.7377844 8.9395421,20.7377844 C8.65910136,33.6893504 8.65910136,40.3061604 8.9395421,40.5882146 Z" id="Path-4" fill="#DF9F84" opacity="0.5"></path>
                <path d="M20.5656778,33.5279971 C20.5609522,35.2861367 21.4361732,36.1652065 23.1913409,36.1652065 C24.9465086,36.1652065 25.8290298,35.2788044 25.8389046,33.5060001" id="Nose" stroke="#7F4953" stroke-linecap="round" stroke-linejoin="round"></path>
                <ellipse id="Eye-1" fill="#373C50" stroke-linecap="round" stroke-linejoin="round" cx="15.8197375" cy="27.6557462" rx="1.58197375" ry="1.59552382"></ellipse>
                <ellipse id="Eye-2" fill="#373C50" stroke-linecap="round" stroke-linejoin="round" cx="30.5848258" cy="27.6557462" rx="1.58197375" ry="1.59552382"></ellipse>
                <path d="M27.9482029,21.2736509 L33.2214488,23.401016" id="Eyebrow-1" stroke="#7F4953" stroke-width="2"></path>
                <path d="M12.65579,23.401016 L18.983685,21.8054922" id="Eyebrow-2" stroke="#7F4953" stroke-width="2"></path>
                <ellipse id="Shadow" fill="#373C50" opacity="0.200000003" cx="23.7296063" cy="43.6109843" rx="3.1639475" ry="3.19104763"></ellipse>
                <ellipse id="Microphone" fill="#373C50" cx="23.7296063" cy="42.5473018" rx="3.1639475" ry="3.19104763"></ellipse>
                <path d="M18.6119462,50.4051583 L18.6119462,55.7232995" id="Neck-1" stroke="#7F4953"></path>
                <path d="M27.5340382,50.4135214 L27.5340382,55.744171" id="Neck-2" stroke="#7F4953"></path>
                <path d="M10.5464917,55.8433336 C9.84493712,50.17036 6.3294399,47.3338732 0,47.3338732 C2.8115395,43.9696136 4.21730926,40.2460755 4.21730926,36.1632588 C4.21730926,30.0390339 1.58197375,24.9555091 1.58197375,20.7418096 C1.58197375,16.5281102 4.11895086,0.530542832 18.4563604,0.530542832 C24.0646771,1.23170076 25.9982006,2.47309654 24.2569308,4.25473018 C26.0275536,2.83648678 27.9610771,2.12736509 30.0575013,2.12736509 C33.2021376,2.12736509 42.1859667,8.23626845 42.1859667,20.7418096 C42.1859667,33.2473508 46.1589249,45.7383494 47.4592125,45.7383494 C48.7595002,45.7383494 35.3307471,45.9507743 35.3307471,55.8433336" id="Path-2" stroke="#D17358" stroke-linecap="round" stroke-linejoin="round"></path>
              </g>
              <g id="Balloon" transform="translate(14.000000, 0.000000)" fill-rule="nonzero">
                <g transform="translate(23.729606, 21.326413) scale(-1, 1) translate(-23.729606, -21.326413) ">
                  <use fill="black" fill-opacity="1" filter="url(#filter-5)" xlink:href="#path-4"></use>
                  <use stroke-opacity="0.246065444" stroke="#373C50" stroke-width="1" fill="#F7F9F9" fill-rule="evenodd" xlink:href="#path-4"></use>
                </g>
                <path d="M12.4185609,25.9000828 C14.6691208,21.6316918 17.2045184,18.3978173 24.4934221,18.7212048 C24.6196912,18.7212048 24.8103309,18.9157417 24.8103309,19.0445922 L24.8103309,22.2784667 C24.8103309,22.5045857 25.1272398,22.9252416 25.4441486,22.6018542 L33.9052981,15.292651 C34.0315673,15.1953825 34.0315673,15.0021068 33.9052981,14.9048448 L25.4441486,8.04935423 C25.2856942,7.92050373 24.8103309,8.04935423 24.8103309,8.37274168 L24.8103309,11.6066162 C24.8103309,11.7354667 24.6196912,11.9300036 24.4934221,11.9300036 C11.8170679,13.2235534 12.4832103,23.2485644 12.007847,25.6739703 C11.9434765,25.9329325 12.2925706,26.1261953 12.4188461,25.9000892 L12.4185609,25.9000828 Z" id="Shape" fill="#373C50" opacity="0.75"></path>
              </g>
            </g>
            <g id="Desk" transform="translate(98.000000, 137.000000) scale(-1, 1) translate(-98.000000, -137.000000) translate(26.000000, 136.000000)" opacity="0.100000001" stroke="#373C50" stroke-linecap="round" stroke-linejoin="round" stroke-width="2">
              <path d="M0.494636064,1.00411523 L4.72740622,1.00411523" id="Line"></path>
              <path d="M11.0106164,1.00411523 L45.4018739,1.00411523" id="Line"></path>
              <path d="M125.096808,1.00411523 L130.38777,1.00411523" id="Line"></path>
              <path d="M135.546843,1.00411523 L143.483287,1.00411523" id="Line"></path>
            </g>
          </g>
        </g>
      </g>
    </g>
  </g>
</svg>