<?xml version="1.0" encoding="UTF-8"?>
<svg width="166px" height="169px" viewBox="0 0 166 169" version="1.1" xmlns="http://www.w3.org/2000/svg" xmlns:xlink="http://www.w3.org/1999/xlink">
    <!-- Generator: sketchtool 63.1 (101010) - https://sketch.com -->
    <title>4BB98230-6F35-41E5-89E2-96576588E210</title>
    <desc>Created with sketchtool.</desc>
    <g id="New-Requester-Portal" stroke="none" stroke-width="1" fill="none" fill-rule="evenodd">
        <g id="05-Announcements" transform="translate(-1057.000000, -104.000000)">
            <g id="Group-24" transform="translate(815.000000, 0.000000)">
                <g id="No-announcement" transform="translate(242.000000, 104.000000)">
                    <g id="Group-45" transform="translate(9.175879, 28.361809)">
                        <g id="Fill-1" transform="translate(80.080402, 67.567839)" fill="#F1F3F8">
                            <path d="M2.03537688,49.399598 L49.0242211,2.41075377 C51.9822886,-0.345602261 56.5919164,-0.264270758 59.4509077,2.59472048 C62.3098989,5.45371173 62.3912304,10.0633395 59.6348744,13.021407 L12.6460302,60.0102513 C9.68796266,62.7666073 5.07833484,62.6852758 2.2193436,59.8262845 C-0.639647642,56.9672933 -0.720979146,52.3576655 2.03537688,49.399598" id="Path"></path>
                        </g>
                        <g id="Group-5" transform="translate(0.000000, 69.236181)" fill="#F1F3F8">
                            <g id="Fill-3">
                                <path d="M3.16984925,9.80984925 L10.4354774,2.54422111 C12.3070623,0.535672715 15.1257419,-0.291117435 17.7857463,0.388201008 C20.4457506,1.06751945 22.5228323,3.14460115 23.2021508,5.8046055 C23.8814692,8.46460985 23.054679,11.2832895 21.0461307,13.1548744 L13.7805025,20.4205025 C11.9089176,22.4290509 9.09023799,23.2558411 6.43023364,22.5765226 C3.77022929,21.8972042 1.69314759,19.8201225 1.01382915,17.1601181 C0.334510706,14.5001138 1.16130086,11.6814342 3.16984925,9.80984925" id="Path"></path>
                            </g>
                        </g>
                        <g id="Fill-6" transform="translate(85.085427, 70.904523)" fill="#F1F3F8">
                            <path d="M0.375376884,21.9303518 L21.8469347,0.45879397 C19.1399853,3.4237457 19.2447684,7.99366408 22.0847675,10.8314305 C24.9247667,13.669197 29.4947661,13.7703859 32.4575879,11.0611055 L10.9776884,32.5326633 C13.0181322,30.6697737 13.8704606,27.836689 13.1965831,25.1572007 C12.5227057,22.4777124 10.4315399,20.3849013 7.75258236,19.7089166 C5.07362487,19.032932 2.23987071,19.8830321 0.375376884,21.9220101" id="Path"></path>
                        </g>
                        <g id="Fill-8" transform="translate(75.909548, 40.040201)" fill="#F1F3F8">
                            <path d="M0.367035176,20.0784925 L20.4872362,0 C17.7308802,2.95806749 17.8122117,7.56769531 20.6712029,10.4266866 C23.5301941,13.2856778 28.139822,13.3670093 31.0978894,10.6106533 L10.9776884,30.7308543 C13.7340445,27.7727868 13.652713,23.163159 10.7937217,20.3041677 C7.93473048,17.4451765 3.32510267,17.363845 0.367035176,20.120201" id="Path"></path>
                        </g>
                        <g id="Fill-10" transform="translate(66.733668, 26.693467)" fill="#F1F3F8">
                            <path d="M2.41909548,61.3365829 L61.1196985,2.6359799 C64.0755926,-0.122744073 68.6853185,-0.0450561022 71.5465745,2.81170463 C74.4078305,5.66846536 74.4927664,10.2780634 71.7386935,13.2382915 L13.0380905,71.9472362 C10.0904459,74.7734284 5.42442265,74.7252758 2.53573128,71.8388537 C-0.352960089,68.9524315 -0.404779433,64.2864475 2.41909548,61.3365829" id="Path"></path>
                        </g>
                        <g id="Fill-12" transform="translate(9.175879, 20.854271)" fill="#F1F3F8">
                            <path d="M2.29396985,83.0917588 L82.2075377,3.17819095 C84.0720315,1.13921298 86.9057857,0.289112939 89.5847432,0.965097549 C92.2637007,1.64108216 94.3548665,3.73389326 95.0287439,6.41338156 C95.7026214,9.09286987 94.850293,11.9259546 92.8098492,13.7888442 L12.9046231,93.6940704 C9.94180124,96.4033508 5.37180186,96.3021618 2.53180269,93.4643954 C-0.308196474,90.6266289 -0.412979543,86.0567105 2.29396985,83.0917588" id="Path"></path>
                        </g>
                        <g id="Fill-14" transform="translate(23.356784, 19.185930)" fill="#F1F3F8">
                            <path d="M2.2439196,32.1489447 L31.8903518,2.50251256 C33.7842723,0.5996514 36.5494914,-0.148270241 39.1443778,0.540482484 C41.7392642,1.22923521 43.7695929,3.25002438 44.4705587,5.84163826 C45.1715245,8.43325215 44.4366341,11.201963 42.5427136,13.1048241 L12.8462312,42.759598 C9.88127942,45.4665474 5.31136104,45.3617643 2.47359458,42.5217651 C-0.364171889,39.681766 -0.46536081,35.1117666 2.2439196,32.1489447" id="Path"></path>
                        </g>
                        <g id="Fill-16" transform="translate(71.738693, 0.000000)" fill="#F1F3F8">
                            <path d="M2.91125628,2.28562814 L3.08643216,2.11045226 C6.04449965,-0.645903769 10.6541275,-0.564572265 13.5131187,2.29441898 C16.37211,5.15341022 16.4534415,9.76303804 13.6970854,12.7211055 L13.5135678,12.8962814 C10.5834102,15.8182046 5.8414139,15.8182046 2.91125628,12.8962814 L2.91125628,12.8962814 C-0.0162167291,9.96516305 -0.0162167291,5.2167465 2.91125628,2.28562814" id="Path"></path>
                        </g>
                        <g id="Fill-18" transform="translate(49.216080, 101.768844)" fill="#F1F3F8">
                            <path d="M2.68603015,3.01135678 L2.86120603,2.8361809 C4.72409568,0.795737184 7.55718039,-0.0565912609 10.2366687,0.617286213 C12.916157,1.29116369 15.0089681,3.3823295 15.6849527,6.06128698 C16.3609373,8.74024447 15.5108373,11.5739986 13.4718593,13.4384925 L13.2966834,13.6220101 C10.3655651,16.5494831 5.61714851,16.5494831 2.68603015,13.6220101 L2.68603015,13.6220101 C-0.24144286,10.6908917 -0.24144286,5.94247514 2.68603015,3.01135678" id="Path"></path>
                        </g>
                        <g id="Fill-22" transform="translate(152.653266, 130.964824)" fill="#717790">
                            <path d="M0.367035176,0.392060302 C0.860094004,0.222323605 1.38112498,0.148699662 1.90190955,0.175175879 C2.41994546,0.175504878 2.93674256,0.225787839 3.44512563,0.325326633 C3.65594396,0.375127699 3.80486687,0.563329078 3.80486687,0.779949749 C3.80486687,0.996570419 3.65594396,1.1847718 3.44512563,1.23457286 C2.93674256,1.33411166 2.41994546,1.38439462 1.90190955,1.38472362 C1.38112498,1.41119984 0.860094004,1.33757589 0.367035176,1.1678392 C0.199941793,1.11231555 0.0871836766,0.956026647 0.0871836766,0.779949749 C0.0871836766,0.603872851 0.199941793,0.447583949 0.367035176,0.392060302" id="Path"></path>
                        </g>
                        <g id="Fill-26" transform="translate(11.678392, 130.964824)" fill="#717790">
                            <path d="M0.759095477,0.408743719 C6.52321608,0.241909548 12.2873367,0.216884422 18.0514573,0.216884422 L35.3354774,0.216884422 L69.920201,0.216884422 L104.496583,0.216884422 L121.788945,0.216884422 C127.553065,0.216884422 133.308844,0.216884422 139.072965,0.383718593 C139.313576,0.415518328 139.493392,0.620663635 139.493392,0.863366834 C139.493392,1.10607003 139.313576,1.31121534 139.072965,1.34301508 C133.308844,1.49316583 127.553065,1.50150754 121.788945,1.50984925 L104.496583,1.50984925 L69.920201,1.50984925 L35.3354774,1.50984925 L18.0514573,1.50984925 C12.2873367,1.50984925 6.52321608,1.50984925 0.759095477,1.31798995 C0.660246465,1.31584611 0.566443072,1.27391232 0.498924801,1.20168347 C0.431406531,1.12945462 0.395884571,1.03304036 0.400018294,0.934271357 C0.408869749,0.73978581 0.56460993,0.584045629 0.759095477,0.575577889" id="Path"></path>
                        </g>
                        <g id="Fill-30" transform="translate(8.341709, 130.964824)" fill="#717790">
                            <path d="M0.692361809,0.233567839 C0.767205949,0.22523473 0.842743799,0.22523473 0.91758794,0.233567839 L1.02603015,0.233567839 C1.06768322,0.242994092 1.10726191,0.259956387 1.14281407,0.28361809 C1.40052207,0.462674169 1.46730919,0.81516177 1.29296482,1.0760804 C1.2515917,1.13411451 1.20084817,1.18485803 1.14281407,1.22623116 C1.10726191,1.24989286 1.06768322,1.26685515 1.02603015,1.27628141 L0.91758794,1.27628141 C0.842743799,1.28461452 0.767205949,1.28461452 0.692361809,1.27628141 C0.547354365,1.24437531 0.421002285,1.15608066 0.341187858,1.03088156 C0.26137343,0.905682458 0.2346572,0.753869955 0.266934673,0.608944724 C0.309845141,0.394249266 0.477666352,0.226428056 0.692361809,0.183517588" id="Path"></path>
                        </g>
                        <g id="Fill-34" transform="translate(2.502513, 130.964824)" fill="#717790">
                            <path d="M0.992663317,0.383718593 C1.35873394,0.293395948 1.73352263,0.243051198 2.11045226,0.233567839 C2.48879493,0.200432299 2.87001671,0.23431868 3.23658291,0.333668342 C3.48301473,0.409735225 3.62117513,0.671119765 3.54522613,0.91758794 C3.49608722,1.06295945 3.38195442,1.17709224 3.23658291,1.22623116 C2.87001671,1.32558082 2.48879493,1.3594672 2.11045226,1.32633166 C1.73352263,1.3168483 1.35873394,1.26650355 0.992663317,1.1761809 C0.886175487,1.15082375 0.794712261,1.08297449 0.739555889,0.988420707 C0.684399516,0.893866925 0.670359773,0.78085396 0.700703518,0.675678392 C0.732907216,0.529830544 0.846815468,0.415922292 0.992663317,0.383718593" id="Path"></path>
                        </g>
                        <g id="Group-40" transform="translate(65.065327, 138.472362)" fill="#717790">
                            <g id="Fill-38">
                                <path d="M0.600603015,0.258592965 C2.40241206,0.091758794 4.1958794,0.0667336683 5.99768844,0.0667336683 L11.3947739,0.0667336683 L22.1889447,0 L38.3718593,0 C40.1736683,0 41.9754774,0 43.7689447,0.166834171 C43.897376,0.175384668 44.0171061,0.234759477 44.101644,0.331821506 C44.1861819,0.428883535 44.2285582,0.555630985 44.219397,0.684020101 C44.1934324,0.92121314 44.0061378,1.10850778 43.7689447,1.13447236 C41.9754774,1.27628141 40.1736683,1.28462312 38.3718593,1.29296482 L22.1889447,1.29296482 L11.3947739,1.23457286 L5.99768844,1.23457286 C4.1958794,1.23457286 2.40241206,1.23457286 0.600603015,1.04271357 C0.416902357,1.01509843 0.281028358,0.857272249 0.281028358,0.671507538 C0.281028358,0.485742827 0.416902357,0.327916646 0.600603015,0.300301508" id="Path"></path>
                            </g>
                        </g>
                        <g id="Fill-43" transform="translate(46.713568, 138.472362)" fill="#717790">
                            <path d="M1.19286432,0.233567839 C3.03638191,0.133467337 4.8798995,0.100100503 6.72341709,0.0834170854 C8.56693467,0.0667336683 10.4104523,0.0834170854 12.2539698,0.183517588 C12.4770301,0.214084923 12.6432654,0.404654099 12.6432654,0.629798995 C12.6432654,0.854943891 12.4770301,1.04551307 12.2539698,1.0760804 C10.4104523,1.19286432 8.56693467,1.20120603 6.72341709,1.1761809 C4.8798995,1.15115578 3.03638191,1.12613065 1.19286432,1.02603015 C1.08585446,1.02397245 0.984337687,0.978255738 0.911872565,0.899489301 C0.839407443,0.820722864 0.802294267,0.71575485 0.809145729,0.608944724 C0.825455312,0.405595 0.989205295,0.245404799 1.19286432,0.233567839" id="Path"></path>
                        </g>
                    </g>
                    <g id="Group-48" transform="translate(0.000000, 41.708543)" fill="#C8D6EC" fill-rule="nonzero">
                        <g id="Stroke-15" transform="translate(154.321608, 82.582915)">
                            <path d="M2.7360804,5.00502513 C1.48297683,5.00502513 0.467135678,3.98918397 0.467135678,2.7360804 C0.467135678,1.48297683 1.48297683,0.467135678 2.7360804,0.467135678 C3.98918397,0.467135678 5.00502513,1.48297683 5.00502513,2.7360804 C5.00502513,3.98918397 3.98918397,5.00502513 2.7360804,5.00502513 Z M2.7360804,2.1438191 C2.4924051,2.1438426 2.27289419,2.29109386 2.18044228,2.51654961 C2.08799036,2.74200536 2.1409229,3.00097663 2.31442804,3.17207198 C2.48793319,3.34316733 2.74761941,3.39247289 2.97176014,3.29687694 C3.19590087,3.201281 3.3400678,2.9797322 3.33668342,2.7360804 C3.338916,2.5753502 3.27662533,2.42043271 3.16374753,2.30598716 C3.05086973,2.1915416 2.89682611,2.12712017 2.7360804,2.12713568 L2.7360804,2.1438191 Z" id="Shape"></path>
                        </g>
                        <g id="Group-23" transform="translate(0.000000, 10.844221)">
                            <g id="Stroke-19" transform="translate(3.336683, 0.000000)">
                                <path d="M1.13447236,9.12582915 C0.67377252,9.12582915 0.300301508,8.75235813 0.300301508,8.29165829 L0.300301508,1.20120603 C0.300301508,0.740506189 0.67377252,0.367035176 1.13447236,0.367035176 C1.5951722,0.367035176 1.96864322,0.740506189 1.96864322,1.20120603 L1.96864322,8.29165829 C1.96864322,8.75235813 1.5951722,9.12582915 1.13447236,9.12582915 Z" id="Path"></path>
                            </g>
                            <g id="Stroke-21" transform="translate(0.000000, 3.336683)">
                                <path d="M8.01638191,2.2439196 L0.925929648,2.2439196 C0.465229807,2.2439196 0.091758794,1.87044859 0.091758794,1.40974874 C0.091758794,0.949048902 0.465229807,0.575577889 0.925929648,0.575577889 L8.01638191,0.575577889 C8.47708175,0.575577889 8.85055276,0.949048902 8.85055276,1.40974874 C8.85055276,1.87044859 8.47708175,2.2439196 8.01638191,2.2439196 Z" id="Path"></path>
                            </g>
                        </g>
                        <g id="Stroke-24" transform="translate(47.547739, 7.507538)">
                            <path d="M3.06974874,4.6880402 C2.15204627,4.6880402 1.32470669,4.13522957 0.973517153,3.28738303 C0.62232762,2.4395365 0.816448899,1.46362292 1.46536254,0.814709277 C2.11427619,0.165795633 3.09018976,-0.0283256467 3.9380363,0.322863887 C4.78588283,0.67405342 5.33869347,1.501393 5.33869347,2.41909548 C5.33869347,3.67219905 4.32285231,4.6880402 3.06974874,4.6880402 L3.06974874,4.6880402 Z M3.06974874,1.82683417 C2.82607344,1.82685767 2.60656254,1.97410893 2.51411062,2.19956469 C2.4216587,2.42502044 2.47459124,2.68399171 2.64809638,2.85508705 C2.82160153,3.0261824 3.08128775,3.07548797 3.30542848,2.97989202 C3.52956921,2.88429607 3.67373614,2.66274728 3.67035176,2.41909548 C3.66578963,2.09065379 3.39822211,1.82680249 3.06974874,1.82683417 L3.06974874,1.82683417 Z" id="Shape"></path>
                        </g>
                        <g id="Stroke-26" transform="translate(155.155779, 38.371859)">
                            <path d="M2.35236181,4.85487437 C1.09925824,4.85487437 0.0834170854,3.83903322 0.0834170854,2.58592965 C0.0834170854,1.33282608 1.09925824,0.316984925 2.35236181,0.316984925 C3.60546538,0.316984925 4.62130653,1.33282608 4.62130653,2.58592965 C4.62130653,3.83903322 3.60546538,4.85487437 2.35236181,4.85487437 Z M2.35236181,1.99366834 C2.10868651,1.99369185 1.8891756,2.1409431 1.79672368,2.36639886 C1.70427177,2.59185461 1.75720431,2.85082588 1.93070945,3.02192123 C2.10421459,3.19301657 2.36390081,3.24232214 2.58804154,3.14672619 C2.81218228,3.05113024 2.9563492,2.82958145 2.95296482,2.58592965 C2.95298055,2.42739615 2.88943799,2.27547408 2.77655672,2.16416061 C2.66367545,2.05284714 2.51087958,1.99143547 2.35236181,1.99366834 Z" id="Shape"></path>
                        </g>
                        <g id="Stroke-28" transform="translate(75.909548, 0.000000)">
                            <path d="M2.07708543,5.41376884 C1.93137566,5.41156722 1.78832956,5.37437523 1.66,5.30532663 C1.46662738,5.19484856 1.32546109,5.01163274 1.2679397,4.79648241 L0.575577889,2.2439196 C0.516782545,2.03042208 0.545291458,1.80230757 0.654821979,1.6098468 C0.764352499,1.41738603 0.945914939,1.27637516 1.15949749,1.21788945 L3.7120603,0.51718593 C3.92555782,0.458390586 4.15367233,0.486899499 4.3461331,0.596430019 C4.53859387,0.705960539 4.67960474,0.887522979 4.73809045,1.10110553 L5.43879397,3.66201005 C5.49758931,3.87550757 5.4690804,4.10362208 5.35954988,4.29608285 C5.25001936,4.48854362 5.06845692,4.62955449 4.85487437,4.6880402 L2.29396985,5.38040201 C2.2242054,5.40421497 2.15078143,5.41551097 2.07708543,5.41376884 L2.07708543,5.41376884 Z M2.40241206,2.60261307 L2.66100503,3.55356784 L3.60361809,3.33668342 L3.33668342,2.35236181 L2.40241206,2.60261307 Z" id="Shape"></path>
                        </g>
                        <g id="Stroke-35" transform="translate(29.195980, 50.884422)">
                            <path d="M2.8278392,5.54723618 C1.44573967,5.54723618 0.325326633,4.42682314 0.325326633,3.04472362 C0.325326633,1.66262409 1.44573967,0.542211055 2.8278392,0.542211055 C4.20993872,0.542211055 5.33035176,1.66262409 5.33035176,3.04472362 C5.33035176,4.42682314 4.20993872,5.54723618 2.8278392,5.54723618 Z M2.8278392,2.21055276 C2.36713935,2.21055276 1.99366834,2.58402378 1.99366834,3.04472362 C1.99366834,3.50542346 2.36713935,3.87889447 2.8278392,3.87889447 C3.28853904,3.87889447 3.66201005,3.50542346 3.66201005,3.04472362 C3.66201005,2.58402378 3.28853904,2.21055276 2.8278392,2.21055276 Z" id="Shape"></path>
                        </g>
                    </g>
                    <g id="Group-11" transform="translate(27.527638, 3.336683)">
                        <g id="Stroke-1" fill="#CED6DE" fill-rule="nonzero">
                            <path d="M67.8764824,116.850653 L67.8097487,116.850653 C67.2842211,116.758894 66.7003015,116.650452 66.0663317,116.516985 C65.957915,116.494882 65.862724,116.430605 65.8017097,116.338301 C65.7406954,116.245997 65.7188584,116.133232 65.741005,116.024824 C65.7947024,115.804337 66.0092699,115.662504 66.2331658,115.699497 C66.858794,115.832965 67.4343719,115.941407 67.9515578,116.024824 C68.1005681,116.038235 68.2311046,116.130123 68.2939955,116.265875 C68.3568865,116.401628 68.3425772,116.56062 68.2564578,116.682961 C68.1703385,116.805302 68.0254927,116.872406 67.8764824,116.858995 L67.8764824,116.850653 Z M64.4313568,116.14995 L64.339598,116.14995 C63.7890452,116.016482 63.2134673,115.883015 62.6128643,115.724523 C62.463854,115.68727 62.3460369,115.573351 62.3037934,115.425678 C62.2615499,115.278005 62.301298,115.119013 62.4080648,115.008593 C62.5148316,114.898172 62.6723968,114.853099 62.821407,114.890352 C63.4136683,115.048844 63.9809045,115.182312 64.4897487,115.307437 C64.5984073,115.331328 64.6930176,115.39764 64.7525443,115.49163 C64.812071,115.585619 64.83158,115.699496 64.8067337,115.80794 C64.7708302,115.99231 64.6182638,116.131315 64.4313568,116.14995 L64.4313568,116.14995 Z M61.0279397,115.265729 C60.9894889,115.274349 60.9496066,115.274349 60.9111558,115.265729 C60.3522613,115.107236 59.7850251,114.940402 59.2428141,114.756884 C59.1362401,114.724257 59.0471583,114.650332 58.9954417,114.5516 C58.9437251,114.452869 58.9336765,114.337545 58.9675377,114.231357 C59.0390786,114.012638 59.2742464,113.893187 59.4930653,113.964422 L61.161407,114.464925 C61.3104173,114.484296 61.437774,114.581692 61.4955031,114.720424 C61.5532321,114.859157 61.5325632,115.018149 61.441282,115.13751 C61.3500007,115.256871 61.2019751,115.318467 61.0529648,115.299095 L61.0279397,115.265729 Z M57.6912563,114.206332 C57.6443195,114.214265 57.596384,114.214265 57.5494472,114.206332 C56.9988945,114.014472 56.4483417,113.80593 55.8811055,113.589045 C55.6679468,113.507287 55.5601304,113.269348 55.639196,113.055176 C55.6784109,112.950722 55.7578409,112.866335 55.8597321,112.820876 C55.9616233,112.775417 56.0774803,112.772676 56.181407,112.813266 C56.7319598,113.021809 57.2741709,113.230352 57.8497487,113.413869 C58.0662591,113.492477 58.1808837,113.729121 58.1083417,113.947739 C58.038295,114.121622 57.8608457,114.227409 57.6745729,114.206332 L57.6912563,114.206332 Z M54.4129648,112.93005 C54.3580575,112.942565 54.301038,112.942565 54.2461307,112.93005 C53.7039196,112.704824 53.1700503,112.462915 52.6278392,112.204322 C52.482512,112.147245 52.3812334,112.01378 52.3653802,111.858453 C52.3495269,111.703127 52.4217543,111.551953 52.5525542,111.466694 C52.683354,111.381435 52.8508192,111.37637 52.9865327,111.453568 C53.5120603,111.703819 54.0459296,111.937387 54.5714573,112.162613 C54.7836758,112.254428 54.8837019,112.498936 54.7966834,112.713166 C54.7179384,112.858369 54.5609207,112.943421 54.3962814,112.93005 L54.4129648,112.93005 Z M51.2347739,111.428543 C51.1675403,111.428956 51.1013783,111.411696 51.0429146,111.378492 C50.5173869,111.111558 50.000201,110.819598 49.4830151,110.544322 C49.2848624,110.425149 49.2181784,110.169527 49.3328643,109.968744 C49.4520371,109.770591 49.7076593,109.703907 49.9084422,109.818593 C50.4089447,110.110553 50.9177889,110.394171 51.4266332,110.652764 C51.5937401,110.742909 51.6788737,110.934543 51.6337472,111.118973 C51.5886206,111.303403 51.4246239,111.43408 51.2347739,111.436884 L51.2347739,111.428543 Z M48.198392,109.668442 C48.1186725,109.666914 48.04085,109.643856 47.9731658,109.601709 C47.4726633,109.276382 46.9805025,108.942714 46.5050251,108.592362 C46.4152299,108.527244 46.3550719,108.429039 46.3378527,108.319462 C46.3206335,108.209886 46.3477715,108.097963 46.4132663,108.008442 C46.5514117,107.825558 46.8096062,107.784985 46.9971859,107.916683 C47.4643216,108.258693 47.939799,108.58402 48.4236181,108.901005 C48.6168257,109.025593 48.6727898,109.283027 48.5487437,109.476583 C48.4678872,109.599791 48.3290261,109.672377 48.1817085,109.668442 L48.198392,109.668442 Z M45.3455276,107.60804 C45.248361,107.610871 45.1534828,107.578256 45.078593,107.516281 C44.6114573,107.132563 44.161005,106.732161 43.7355779,106.331759 C43.6571124,106.254879 43.6128952,106.149651 43.6128952,106.039799 C43.6128952,105.929947 43.6571124,105.824719 43.7355779,105.747839 C43.8138926,105.66888 43.9204979,105.624466 44.0317085,105.624466 C44.1429192,105.624466 44.2495245,105.66888 44.3278392,105.747839 C44.7365829,106.131558 45.1620101,106.515276 45.6291457,106.890653 C45.7613031,107.003652 45.8094925,107.186783 45.7500702,107.350195 C45.6906478,107.513606 45.5360827,107.623008 45.3622111,107.624724 L45.3455276,107.60804 Z M42.7929648,105.197286 C42.6757004,105.199136 42.5632908,105.150527 42.4843216,105.063819 C42.0755779,104.621709 41.6501508,104.162915 41.3331658,103.695779 C41.215793,103.582648 41.1750882,103.411505 41.2289601,103.257645 C41.282832,103.103786 41.4214055,102.995414 41.583713,102.98021 C41.7460205,102.965006 41.9023099,103.045757 41.9838191,103.186935 C42.3341709,103.629045 42.7095477,104.071156 43.101608,104.496583 C43.2615881,104.661593 43.2615881,104.923834 43.101608,105.088844 C43.0151569,105.159511 42.9039808,105.192563 42.7929648,105.180603 L42.7929648,105.197286 Z M40.640804,102.436181 C40.4993896,102.434437 40.3680867,102.362533 40.2904523,102.244322 C39.9651256,101.743819 39.6564824,101.226633 39.381206,100.701106 C39.2769678,100.498247 39.3550026,100.249279 39.5563819,100.142211 C39.6536696,100.088842 39.768214,100.07644 39.8746698,100.107751 C39.9811257,100.139061 40.0707163,100.211502 40.1236181,100.309045 C40.3763423,100.817798 40.6547584,101.313379 40.9577889,101.793869 C41.081835,101.987425 41.025871,102.24486 40.8326633,102.369447 C40.7733244,102.400441 40.7077217,102.417555 40.640804,102.419497 L40.640804,102.436181 Z M38.9724623,99.341407 C38.8047638,99.3383869 38.6544913,99.2371163 38.5887437,99.0828141 C38.3606533,98.537139 38.1601982,97.9803193 37.9881407,97.4144724 C37.9224772,97.1936584 38.0445054,96.9606955 38.2634171,96.8889447 C38.4820873,96.8237912 38.7125251,96.9464435 38.780603,97.1642211 C38.9466044,97.7135595 39.141516,98.253743 39.3645226,98.7825126 C39.4276642,98.9610651 39.3625788,99.1597466 39.2060302,99.2663317 C39.1470026,99.3061628 39.0770144,99.326576 39.0058291,99.3247236 L38.9724623,99.341407 Z M37.9547739,96.0047236 C37.7576776,96.0016277 37.5885221,95.8635416 37.5460302,95.6710553 C37.4292462,95.0871357 37.3374874,94.4948744 37.2707538,93.9026131 C37.2567022,93.7927552 37.2878324,93.6818978 37.3570192,93.5954144 C37.426206,93.5089309 37.5275261,93.4542254 37.6377889,93.4438191 C37.8655652,93.4194095 38.0703974,93.5832753 38.0965829,93.8108543 C38.1633166,94.3780905 38.2467337,94.9453266 38.3635176,95.479196 C38.4049122,95.7040097 38.261247,95.9213494 38.038191,95.9713568 L37.9547739,96.0047236 Z M37.5627136,92.5178896 C37.3387247,92.5180687 37.1545876,92.3412971 37.1456281,92.1174874 C37.1456281,91.9339698 37.1456281,91.7504523 37.1456281,91.5669347 C37.1456281,91.158191 37.1456281,90.7327638 37.1456281,90.3240201 C37.1520697,90.2133293 37.2023207,90.1097589 37.2852783,90.0361927 C37.3682359,89.9626265 37.4770718,89.9251198 37.5877387,89.9319598 C37.6984295,89.9384013 37.8019999,89.9886523 37.8755661,90.07161 C37.9491323,90.1545676 37.986639,90.2634034 37.979799,90.3740704 C37.979799,90.7744724 37.979799,91.2082412 37.979799,91.5669347 C37.979799,91.7421106 37.979799,91.9172864 37.979799,92.0924623 C37.9843443,92.2037286 37.9432954,92.3120326 37.8661429,92.3923342 C37.7889904,92.4726357 37.6824143,92.5179822 37.5710553,92.5178896 L37.5627136,92.5178896 Z M74.241206,91.758794 C74.0127196,91.7543561 73.8285585,91.570195 73.8241206,91.3417085 C73.8241206,91.1113586 74.0108561,90.9246231 74.241206,90.9246231 C74.8334673,90.9246231 75.4173869,90.9246231 75.9846231,90.8829126 C76.2117392,90.8822417 76.4009224,91.0568724 76.418392,91.2833166 C76.4229063,91.3939581 76.3832375,91.5018534 76.3081291,91.5832208 C76.2330207,91.6645882 76.1286385,91.7127481 76.0179899,91.7170854 C75.4340704,91.7170854 74.8501508,91.7170854 74.2495477,91.758794 L74.241206,91.758794 Z M72.4894472,91.758794 L72.4894472,91.758794 C71.9138693,91.758794 71.321608,91.758794 70.721005,91.700402 C70.6110446,91.696122 70.507455,91.647685 70.4336664,91.5660464 C70.3598777,91.4844079 70.3221241,91.3764653 70.3289447,91.2666332 C70.3308662,91.1558538 70.3786044,91.0508226 70.4608011,90.9765294 C70.5429978,90.9022363 70.6523043,90.8653232 70.7627136,90.8745729 L72.5061307,90.9246231 C72.7364806,90.9246231 72.9232161,91.1113586 72.9232161,91.3417085 C72.9232161,91.5720585 72.7364806,91.758794 72.5061307,91.758794 L72.4894472,91.758794 Z M77.7530653,91.6420101 C77.5227154,91.6420101 77.3359799,91.4552745 77.3359799,91.2249246 C77.3359799,90.9945747 77.5227154,90.8078392 77.7530653,90.8078392 C78.3369849,90.8078392 78.9209045,90.7244221 79.479799,90.6660302 C79.5896569,90.6519786 79.7005143,90.6831088 79.7869977,90.7522956 C79.8734812,90.8214823 79.9281866,90.9228024 79.938593,91.0330653 C79.9630025,91.2608416 79.7991367,91.4656738 79.5715578,91.4918593 C78.9959799,91.5502513 78.4037186,91.6003015 77.8031156,91.6420101 L77.7530653,91.6420101 Z M68.9859296,91.6420101 L68.9859296,91.6420101 C68.4103518,91.6420101 67.8264322,91.558593 67.2258291,91.500201 C67.1156922,91.491794 67.0136465,91.4391699 66.9429334,91.3543143 C66.8722204,91.2694586 66.8388607,91.1595961 66.8504523,91.0497487 C66.8724752,90.8223826 67.0732944,90.6550333 67.3009045,90.6743719 L69.0443216,90.8161809 C69.1543586,90.822546 69.2571612,90.8730812 69.329408,90.9563221 C69.4016549,91.039563 69.4372218,91.1484536 69.4280402,91.2582915 C69.3897739,91.4785441 69.1816623,91.6271952 68.9609045,91.5919598 L68.9859296,91.6420101 Z M65.4824121,91.3250251 L65.4824121,91.3250251 C64.9068342,91.2582915 64.3229146,91.1915578 63.7306533,91.1081407 C63.6202356,91.0957771 63.5196089,91.0389961 63.4519415,90.950871 C63.384274,90.862746 63.3553972,90.7508713 63.3719598,90.641005 C63.4022285,90.4131452 63.6111459,90.2527265 63.8390955,90.2823116 L65.5741709,90.499196 C65.8045208,90.513017 65.9800522,90.7109566 65.9662312,90.9413065 C65.9524102,91.1716565 65.7544705,91.3471878 65.5241206,91.3333668 L65.4824121,91.3250251 Z M81.2398995,91.3250251 C81.0095496,91.3411496 80.8097426,91.1674856 80.7936181,90.9371357 C80.7774936,90.7067858 80.9511576,90.5069788 81.1815075,90.4908543 C81.7737688,90.4157789 82.341005,90.3240201 82.8998995,90.2239196 C83.0489098,90.1970977 83.2009102,90.2518094 83.2986438,90.3674451 C83.3963773,90.4830809 83.4249959,90.642073 83.3737191,90.7845306 C83.3224424,90.9269882 83.1990605,91.0312686 83.0500503,91.0580905 C82.4828141,91.158191 81.8988945,91.2582915 81.2982915,91.3417085 L81.2398995,91.3250251 Z M62.0039196,90.8662312 L61.9455276,90.8662312 L60.2021106,90.5826131 C60.0930298,90.5662935 59.9951738,90.5065837 59.9307695,90.4170459 C59.8663651,90.3275081 59.8408792,90.2157427 59.8601005,90.1071357 C59.87642,89.9980549 59.9361299,89.900199 60.0256676,89.8357946 C60.1152054,89.7713902 60.2269709,89.7459043 60.3355779,89.7651256 L62.0623116,90.040402 C62.2926615,90.0565265 62.4663255,90.2563335 62.450201,90.4866834 C62.4340765,90.7170333 62.2342695,90.8906974 62.0039196,90.8745729 L62.0039196,90.8662312 Z M84.6933668,90.6994013 C84.4976685,90.7002772 84.3276752,90.5649764 84.2846231,90.3740704 C84.2376737,90.148989 84.3780566,89.9273319 84.601608,89.8735678 C85.1771859,89.7484422 85.7360804,89.6066332 86.2699497,89.4564824 C86.490913,89.3979171 86.7178457,89.5281244 86.778794,89.7484422 C86.8378162,89.9714849 86.7082949,90.2009226 86.4868342,90.2656281 C85.9279397,90.4157789 85.3607035,90.5575879 84.7684422,90.6910553 L84.6933668,90.6994013 Z M58.5421106,90.2823116 L58.4670352,90.2823116 C57.8914573,90.1738693 57.3158794,90.0654271 56.7319598,89.9403015 C56.6241959,89.9201586 56.5290407,89.8575702 56.4678673,89.7665943 C56.4066939,89.6756185 56.3846306,89.563882 56.4066332,89.4564824 C56.4528278,89.230045 56.6713433,89.0818989 56.898794,89.1228141 C57.4827136,89.239598 58.0499497,89.3563819 58.6171859,89.4564824 C58.8424428,89.498695 58.9914439,89.7147465 58.9508543,89.9403015 C58.8955602,90.1294695 58.7131535,90.2522433 58.5170854,90.2322613 L58.5421106,90.2823116 Z M88.0717588,89.7734673 C87.8917603,89.7709525 87.7336857,89.6532375 87.6796985,89.4815075 C87.6430978,89.3764761 87.6508804,89.2610647 87.7012508,89.161898 C87.7516212,89.0627312 87.840229,88.988374 87.9466332,88.9559799 C88.5055276,88.7724623 89.0477387,88.580603 89.5732663,88.3720603 C89.6771931,88.33147 89.7930501,88.3342107 89.8949413,88.3796699 C89.9968324,88.425129 90.0762625,88.5095163 90.1154774,88.6139698 C90.1945429,88.8281418 90.0867266,89.0660814 89.8735678,89.1478392 C89.3396985,89.3563819 88.780804,89.5565829 88.2052261,89.7484422 C88.1512091,89.7516213 88.0971433,89.7430846 88.0467337,89.7234171 L88.0717588,89.7734673 Z M55.0552764,89.5398995 L54.9718593,89.5398995 C54.4046231,89.4231156 53.8290452,89.2896482 53.2534673,89.1561809 C53.1448088,89.1322899 53.0501985,89.0659778 52.9906718,88.9719883 C52.9311451,88.8779988 52.9116361,88.7641225 52.9364824,88.6556784 C52.9900866,88.4326902 53.2136686,88.2948146 53.4369849,88.3470352 L55.1053266,88.7307538 C55.2133418,88.7526941 55.3079181,88.8173277 55.3676002,88.9099921 C55.4272824,89.0026565 55.4470114,89.1154968 55.4223116,89.2229146 C55.3802802,89.3961563 55.2327912,89.5235332 55.0552764,89.5398995 Z M37.7712563,88.9976884 L37.7128643,88.9976884 C37.6024467,88.9853248 37.50182,88.9285439 37.4341525,88.8404188 C37.366485,88.7522937 37.3376083,88.640419 37.3541709,88.5305528 C37.4292462,87.9549749 37.521005,87.3627136 37.6377889,86.7704523 C37.6577788,86.660902 37.7216006,86.5642503 37.8144985,86.5028432 C37.9073963,86.4414362 38.0213271,86.4205904 38.1299497,86.4451256 C38.2388528,86.4630752 38.3355166,86.5251823 38.3971041,86.616774 C38.4586916,86.7083656 38.4797399,86.8213177 38.4552764,86.9289447 C38.3468342,87.5045226 38.2550754,88.0801005 38.18,88.5972864 C38.1717926,88.8117453 38.0021783,88.9849685 37.7879397,88.9976884 L37.7712563,88.9976884 Z M51.6351759,88.7557789 L51.5350754,88.7557789 L49.8667337,88.3303518 C49.6459656,88.2692458 49.5132161,88.0443091 49.5664322,87.8215075 C49.5939185,87.7141053 49.6630336,87.6220651 49.7585102,87.5657182 C49.8539868,87.5093714 49.9679682,87.4933546 50.0752764,87.521206 L51.7436181,87.9466332 C51.9677586,88.0040894 52.1048784,88.2301518 52.0522613,88.4554774 C52.0003573,88.6334338 51.8372306,88.7557789 51.6518593,88.7557789 L51.6351759,88.7557789 Z M91.3,88.4471357 C91.0696501,88.4955092 90.8437001,88.3479881 90.7953266,88.1176382 C90.7469531,87.8872883 90.8944742,87.6613383 91.1248241,87.6129648 C91.6586935,87.3710553 92.1758794,87.1124623 92.6680402,86.8455276 C92.7663467,86.7927929 92.8816818,86.781638 92.9882724,86.8145557 C93.0948629,86.8474734 93.1838241,86.9217198 93.2352764,87.0207035 C93.2876692,87.1177598 93.2986149,87.2318705 93.2656273,87.3371167 C93.2326397,87.4423628 93.1585189,87.5298109 93.0601005,87.579598 C92.5512563,87.8548744 92.0257286,88.121809 91.4668342,88.4137688 C91.417824,88.4264257 91.366794,88.4292607 91.3166834,88.4221106 L91.3,88.4471357 Z M48.2317588,87.8798995 L48.1233166,87.8798995 L46.4549749,87.4127638 C46.3059646,87.372531 46.1897374,87.2558584 46.1500748,87.1066953 C46.1104123,86.9575323 46.1533402,86.7985402 46.2626879,86.6896099 C46.3720356,86.5806796 46.5311907,86.5383602 46.680201,86.578593 C47.2474372,86.7454271 47.8146734,86.8955779 48.3485427,87.0457286 C48.5788926,87.0756741 48.7413525,87.2866853 48.711407,87.5170352 C48.6814615,87.7473851 48.4704504,87.909845 48.2401005,87.8798995 L48.2317588,87.8798995 Z M44.8950754,86.920603 C44.8565225,86.9282453 44.8168444,86.9282453 44.7782915,86.920603 L43.1099497,86.4201005 C42.891038,86.3483497 42.7690099,86.1153869 42.8346734,85.8945729 C42.9027513,85.6767953 43.133189,85.5541429 43.3518593,85.6192965 L45.020201,86.119799 C45.2413369,86.184297 45.3683171,86.415849 45.3038191,86.6369849 C45.2453033,86.8228222 45.0637557,86.9415264 44.8700503,86.920603 L44.8950754,86.920603 Z M94.4281407,86.7871357 C94.2434263,86.7866589 94.0810268,86.6647434 94.0290107,86.4875036 C93.9769947,86.3102637 94.0477533,86.1199214 94.2029146,86.0196985 C94.6950754,85.7110553 95.1788945,85.3857286 95.6376884,85.0520603 C95.8242719,84.9161538 96.0857016,84.9572357 96.221608,85.1438191 C96.3575145,85.3304025 96.3164327,85.5918322 96.1298492,85.7277387 C95.6543719,86.0697487 95.1538693,86.4034171 94.6450251,86.720402 C94.5709997,86.7601762 94.4851442,86.7720183 94.4031156,86.7537688 L94.4281407,86.7871357 Z M41.5166834,85.919598 L41.3832161,85.919598 L39.7148744,85.3773869 C39.6084702,85.3449928 39.5198624,85.2706356 39.469492,85.1714689 C39.4191216,85.0723021 39.411339,84.9568908 39.4479397,84.8518593 C39.5194806,84.6331403 39.7546484,84.51369 39.9734673,84.5849246 L41.641809,85.1271357 C41.7462363,85.1596745 41.8332656,85.2327099 41.8834316,85.3299066 C41.9335976,85.4271033 41.9427147,85.5403514 41.9087437,85.6443216 C41.8534145,85.8127609 41.6939021,85.9247589 41.5166834,85.919598 Z M38.4552764,85.5692462 L38.3718593,85.5692462 C38.1510912,85.5081403 38.0183417,85.2832036 38.0715578,85.060402 C38.094918,84.9863911 38.1144084,84.9112139 38.1299497,84.8351759 L38.0632161,84.8351759 L36.3948744,84.2679397 C36.176042,84.1919242 36.060266,83.9529028 36.1362814,83.7340704 C36.2122969,83.515238 36.4513183,83.3994619 36.6701508,83.4754774 L38.3384925,84.0427136 L38.3384925,84.0427136 C38.4052261,83.8174874 38.4719598,83.5922613 38.5470352,83.3586935 C38.6161402,83.1283435 38.8588963,82.9976287 39.0892462,83.0667337 C39.3195962,83.1358386 39.450311,83.3785948 39.381206,83.6089447 C39.1976884,84.1761809 39.039196,84.7267337 38.8973869,85.2772864 C38.8320121,85.4598875 38.6473131,85.5714038 38.4552764,85.5442211 L38.4552764,85.5692462 Z M97.2392965,84.7350754 C97.1184979,84.7340076 97.0036167,84.6826134 96.9223116,84.5932663 C96.7754526,84.4149926 96.7976684,84.1521053 96.9723618,84.001005 C97.4061307,83.6339698 97.8065327,83.2419095 98.2486432,82.8415075 C98.3255234,82.763042 98.4307513,82.7188248 98.540603,82.7188248 C98.6504547,82.7188248 98.7556826,82.763042 98.8325628,82.8415075 C98.9115224,82.9198223 98.955936,83.0264276 98.955936,83.1376382 C98.955936,83.2488488 98.9115224,83.3554541 98.8325628,83.4337688 C98.4071357,83.8425126 97.998392,84.2679397 97.5062312,84.6349749 C97.4313413,84.6969497 97.3364631,84.7295641 97.2392965,84.7267337 L97.2392965,84.7350754 Z M34.86,83.6673367 C34.8131233,83.6759565 34.7650677,83.6759565 34.718191,83.6673367 C34.1676382,83.4671357 33.6170854,83.2752764 33.0498492,83.0667337 C32.94447,83.0310084 32.8582097,82.9538657 32.8109828,82.853115 C32.7637559,82.7523643 32.7596446,82.6367143 32.799598,82.5328643 C32.8779906,82.3164026 33.116943,82.2043937 33.3334673,82.2826131 L35.001809,82.8832161 C35.2183194,82.9618236 35.332944,83.1984681 35.260402,83.4170854 C35.1855784,83.5689494 35.0292389,83.6634045 34.86,83.658995 L34.86,83.6673367 Z M31.5233166,82.4577889 C31.4764399,82.4664088 31.4283843,82.4664088 31.3815075,82.4577889 L29.7131658,81.8405025 C29.5021651,81.751987 29.3989718,81.5124309 29.479598,81.2982915 C29.5170267,81.1944317 29.594876,81.1101287 29.6954325,81.064564 C29.7959891,81.0189993 29.9107009,81.0160481 30.0134673,81.0563819 L31.681809,81.6736683 C31.7862626,81.7128833 31.8706499,81.7923133 31.916109,81.8942045 C31.9615682,81.9960957 31.9643089,82.1119526 31.9237186,82.2158794 C31.8548834,82.3564301 31.7131595,82.446618 31.5566834,82.4494472 L31.5233166,82.4577889 Z M99.7084422,82.2826131 C99.6078525,82.2821738 99.5105423,82.2467883 99.4331658,82.1825126 C99.2610284,82.0290316 99.2425291,81.7663424 99.3914573,81.5902513 C99.7755173,81.1612971 100.137461,80.7130437 100.475879,80.2472362 C100.616522,80.0671097 100.874347,80.0302775 101.059799,80.1638191 C101.244079,80.302029 101.281426,80.5634588 101.143216,80.7477387 C100.792864,81.2232161 100.417487,81.6903518 100.025427,82.140804 C99.9508292,82.2190903 99.8496799,82.26669 99.741809,82.2742714 L99.7084422,82.2826131 Z M39.4896482,82.2075377 C39.4346537,82.2192519 39.3778086,82.2192519 39.3228141,82.2075377 C39.2208043,82.1635732 39.140546,82.0807332 39.0998323,81.977383 C39.0591186,81.8740327 39.0613132,81.7587113 39.1059296,81.6569849 C39.239397,81.34 39.4813065,80.8228141 39.8483417,79.9886432 C39.9524361,79.7841408 40.2021746,79.7021371 40.4072362,79.8051256 C40.5063574,79.8519634 40.5825086,79.9366559 40.6185852,80.0401801 C40.6546618,80.1437043 40.6476395,80.2573816 40.5990955,80.3556784 C40.240402,81.081407 39.9984925,81.6319598 39.8733668,81.940603 C39.8128899,82.0845655 39.6784063,82.1838272 39.5230151,82.199196 L39.4896482,82.2075377 Z M28.2450251,81.2065327 C28.1952908,81.2144852 28.1446087,81.2144852 28.0948744,81.2065327 L26.4265327,80.5558794 C26.3235928,80.5150321 26.2411248,80.4349213 26.1973102,80.3332089 C26.1534956,80.2314966 26.1519323,80.1165345 26.1929648,80.0136683 C26.2814804,79.8026677 26.5210364,79.6994743 26.7351759,79.7801005 C27.2773869,80.0053266 27.819598,80.2138693 28.4035176,80.4307538 C28.6166763,80.5125116 28.7244927,80.7504512 28.6454271,80.9646231 C28.5751523,81.1038784 28.4343043,81.1935089 28.278392,81.198191 L28.2450251,81.2065327 Z M25.0251256,79.8968844 C24.9725986,79.9048968 24.9191602,79.9048968 24.8666332,79.8968844 L23.24,79.2295477 C23.1364914,79.1871718 23.0543395,79.1049986 23.0119906,79.001479 C22.9696416,78.8979593 22.9706444,78.7817683 23.0147739,78.678995 C23.1064404,78.4712477 23.3451038,78.3721107 23.5569849,78.4537688 L25.2253266,79.1211055 C25.3282514,79.161723 25.4103117,79.2423332 25.4527575,79.3445175 C25.4952033,79.4467019 25.4944078,79.561729 25.4505528,79.6633166 C25.3733026,79.8241568 25.2022964,79.9180425 25.0251256,79.8968844 Z M101.84392,79.4547867 C101.765026,79.4553697 101.68736,79.435234 101.618693,79.3963819 C101.425486,79.2717944 101.369522,79.0143597 101.493568,78.820804 C101.793869,78.3369849 102.085829,77.8281407 102.327739,77.3276382 C102.431833,77.1231358 102.681572,77.0411321 102.886633,77.1441206 C103.092216,77.2515502 103.173848,77.503866 103.070151,77.7113568 C102.794874,78.2368844 102.494573,78.7540704 102.177588,79.2629146 C102.104847,79.3821383 101.97524,79.4548448 101.835578,79.4547867 L101.84392,79.4547867 Z M41.0662312,79.029354 C40.9989976,79.0297601 40.9328356,79.0125005 40.8743719,78.9792965 C40.7753881,78.9278442 40.7011417,78.838883 40.6682241,78.7322925 C40.6353064,78.6257019 40.6464613,78.5103668 40.699196,78.4120603 C40.9577889,77.9365829 41.2497487,77.419397 41.5333668,76.8688442 C41.6591636,76.6958697 41.8954157,76.6460841 42.0803172,76.753585 C42.2652188,76.8610859 42.3388379,77.0910291 42.2507538,77.2859296 C41.9337688,77.8281407 41.6501508,78.3369849 41.4165829,78.8124623 C41.3434011,78.9427302 41.2072445,79.0250575 41.0578894,79.029354 L41.0662312,79.029354 Z M21.780201,78.5538693 C21.7252065,78.5655836 21.6683613,78.5655836 21.6133668,78.5538693 L20.0201005,77.8364824 C19.8081786,77.7443424 19.7110761,77.4978516 19.8032161,77.2859296 C19.895356,77.0740077 20.1418469,76.9769053 20.3537688,77.0690452 L21.9637186,77.7530653 C22.1127289,77.7813773 22.2353158,77.8870346 22.2853021,78.0302373 C22.3352883,78.1734399 22.3050798,78.332432 22.2060558,78.4473227 C22.1070318,78.5622134 21.9542364,78.6155481 21.8052261,78.5872362 L21.780201,78.5538693 Z M18.5853266,77.1024121 C18.494983,77.1030274 18.4069811,77.0736934 18.3350754,77.018995 C18.0514573,76.8021106 17.5676382,76.4267337 16.9420101,75.901206 C16.7646406,75.7537821 16.740365,75.490485 16.887789,75.3131156 C17.0352129,75.1357462 17.29851,75.1114706 17.4758794,75.2588945 C18.0931658,75.7760804 18.5686432,76.1431156 18.8439196,76.3516583 C19.025486,76.4924066 19.0590523,76.753478 18.918995,76.9355779 C18.837603,77.0419178 18.710892,77.1037281 18.5769849,77.1024121 L18.5853266,77.1024121 Z M103.437186,76.3433166 C103.384587,76.3503179 103.331292,76.3503179 103.278693,76.3433166 C103.069794,76.2482785 102.971076,76.0069664 103.053467,75.7927638 C103.278693,75.2588945 103.478894,74.7166834 103.645729,74.1828141 C103.714834,73.9524641 103.95759,73.8217493 104.18794,73.8908543 C104.41829,73.9599592 104.549004,74.2027154 104.479899,74.4330653 C104.296382,74.9919598 104.087839,75.559196 103.862613,76.101407 C103.786021,76.2637026 103.615824,76.3604817 103.437186,76.3433166 Z M42.8346734,75.9929648 C42.754542,75.9942626 42.6759375,75.9709724 42.6094472,75.9262312 C42.4162396,75.8016436 42.3602755,75.544209 42.4843216,75.3506533 C42.7846231,74.8779564 43.1099497,74.3857956 43.4603015,73.8741709 C43.5228515,73.7817288 43.6198435,73.7182144 43.7295827,73.6978342 C43.8393219,73.6774541 43.9526511,73.7019089 44.0442211,73.7657286 C44.2277082,73.8982041 44.2753634,74.1511437 44.1526633,74.3413065 C43.8106533,74.841809 43.4853266,75.3256281 43.1850251,75.8011055 C43.1122845,75.9203293 42.9826772,75.9930163 42.8430151,75.9929648 L42.8346734,75.9929648 Z M15.8492462,74.8501508 C15.7473188,74.8488566 15.649394,74.8102802 15.5739698,74.7417085 C15.1652261,74.3830151 14.739799,73.9826131 14.2643216,73.5488442 C14.1043416,73.3838338 14.1043416,73.1215933 14.2643216,72.9565829 C14.3426363,72.8776234 14.4492416,72.8332097 14.5604523,72.8332097 C14.6716629,72.8332097 14.7782682,72.8776234 14.8565829,72.9565829 C15.3153769,73.3820101 15.740804,73.7907538 16.1495477,74.1327638 C16.2841697,74.2477192 16.3315594,74.4351331 16.2677598,74.6002617 C16.2039601,74.7653902 16.0428716,74.8722557 15.8659296,74.8668342 L15.8492462,74.8501508 Z M44.82,73.0900662 C44.7309245,73.0908075 44.6436977,73.0646395 44.5697487,73.0149749 C44.3868649,72.8768295 44.3462915,72.618635 44.4779899,72.4310553 C44.82,71.9639196 45.1786935,71.4967839 45.5540704,71.0213065 C45.6968873,70.8393301 45.9601844,70.8075851 46.1421608,70.950402 C46.3241372,71.093219 46.3558822,71.356516 46.2130653,71.5384925 C45.8376884,72.0056281 45.4873367,72.4644221 45.1536683,72.9232161 C45.0777093,73.0227685 44.961749,73.0838002 44.8366834,73.0900662 L44.82,73.0900662 Z M104.479899,72.981608 L104.396482,72.981608 C104.288066,72.9595048 104.192875,72.8952278 104.13186,72.802924 C104.070846,72.7106203 104.049009,72.597855 104.071156,72.4894472 C104.129548,72.1891457 104.154573,72.0139698 104.154573,72.0056281 L104.154573,71.6469347 C104.154573,71.3716583 104.154573,71.1047236 104.154573,70.8127638 C104.147733,70.7020969 104.18524,70.5932611 104.258806,70.5103034 C104.332372,70.4273458 104.435942,70.3770948 104.546633,70.3706533 C104.658408,70.3589329 104.769963,70.3947282 104.854051,70.4692962 C104.938138,70.5438642 104.987015,70.6503389 104.988744,70.7627136 C104.988744,71.0463317 104.988744,71.3299497 104.988744,71.5968844 L104.988744,72.0139698 C104.988744,72.0556784 104.988744,72.2475377 104.888643,72.6062312 C104.871888,72.8125938 104.703479,72.9738365 104.496583,72.981608 L104.479899,72.981608 Z M13.3467337,72.439397 C13.2367194,72.43783 13.1317805,72.3928562 13.0547739,72.3142714 C12.6543719,71.9138693 12.220603,71.4801005 11.820201,71.0463317 C11.7039039,70.9417429 11.6558976,70.7808785 11.6958548,70.6296592 C11.735812,70.47844 11.8570157,70.3622865 12.0097976,70.3287974 C12.1625795,70.2953083 12.3212565,70.3501133 12.420804,70.4707538 C12.8378894,70.9156449 13.2466332,71.3327303 13.6470352,71.7220101 C13.8070152,71.8870205 13.8070152,72.149261 13.6470352,72.3142714 C13.567465,72.394118 13.4594582,72.4391208 13.3467337,72.439397 L13.3467337,72.439397 Z M47.0555779,70.3372864 C46.8898635,70.3460465 46.7347212,70.2557352 46.660508,70.1073088 C46.5862948,69.9588824 46.6071312,69.7805818 46.7135678,69.6532663 C47.0889447,69.2111558 47.481005,68.7607035 47.8897487,68.318593 C47.9666289,68.2401275 48.0718568,68.1959103 48.1817085,68.1959103 C48.2915602,68.1959103 48.3967882,68.2401275 48.4736683,68.318593 C48.5526279,68.3969077 48.5970415,68.503513 48.5970415,68.6147236 C48.5970415,68.7259342 48.5526279,68.8325396 48.4736683,68.9108543 C48.0732663,69.3446231 47.6895477,69.7450251 47.3141709,70.2121608 C47.2356957,70.2936246 47.1269711,70.3389265 47.0138693,70.3372864 L47.0555779,70.3372864 Z M10.9276382,69.8784925 C10.8105865,69.8792845 10.6985893,69.8308533 10.618995,69.7450251 C10.2352764,69.3112563 9.84321608,68.9108543 9.45949749,68.4020101 C9.38722432,68.3185769 9.35176852,68.2094595 9.36119539,68.0994793 C9.37062226,67.9894992 9.42413029,67.8880073 9.50954774,67.8180905 C9.68782149,67.6712315 9.95070873,67.6934473 10.101809,67.8681407 C10.4771859,68.3269347 10.8609045,68.7607035 11.2446231,69.1861307 C11.4046031,69.3511411 11.4046031,69.6133816 11.2446231,69.778392 C11.1450936,69.8619337 11.0143356,69.8984243 10.8859296,69.8784925 L10.9276382,69.8784925 Z M104.413166,69.4864322 C104.211108,69.4891406 104.037396,69.34379 104.004422,69.1444221 C103.908947,68.5806173 103.778,68.0233968 103.612362,67.4760804 C103.546698,67.2552664 103.668726,67.0223036 103.887638,66.9505528 C104.106308,66.8853992 104.336746,67.0080516 104.404824,67.2258291 C104.579955,67.803971 104.721994,68.391624 104.830251,68.9859296 C104.865424,69.2112739 104.713071,69.4230824 104.488241,69.461407 L104.413166,69.4864322 Z M49.3912563,67.7430151 C49.2228752,67.7440042 49.0704153,67.6436483 49.0047467,67.4885974 C48.939078,67.3335465 48.9730831,67.1542172 49.0909548,67.0339698 C49.4996985,66.6168844 49.9251256,66.199799 50.3588945,65.799397 C50.4372092,65.7204374 50.5438145,65.6760238 50.6550251,65.6760238 C50.7662358,65.6760238 50.8728411,65.7204374 50.9511558,65.799397 C51.0318011,65.8750841 51.0775482,65.9807575 51.0775482,66.0913568 C51.0775482,66.2019561 51.0318011,66.3076295 50.9511558,66.3833166 C50.5257286,66.7920603 50.1169849,67.2174874 49.7082412,67.601206 C49.6289095,67.693241 49.5127435,67.74521 49.3912563,67.7430151 L49.3912563,67.7430151 Z M8.63366834,67.1841206 C8.5038384,67.186108 8.38048878,67.1275169 8.3,67.0256281 C7.94130653,66.5668342 7.58261307,66.0996985 7.23226131,65.6158794 C7.09635488,65.429296 7.1374367,65.1678663 7.32402012,65.0319598 C7.51060355,64.8960534 7.77203324,64.9371352 7.9079397,65.1237186 C8.24994975,65.599196 8.60030151,66.0579899 8.95899497,66.5167839 C9.0990523,66.6988838 9.06548597,66.9599552 8.8839196,67.1007035 C8.81201387,67.1554019 8.72401198,67.1847359 8.63366834,67.1841206 L8.63366834,67.1841206 Z M103.345427,66.1414131 C103.183417,66.1422903 103.036176,66.0474016 102.97005,65.8994975 C102.722015,65.3802029 102.443471,64.8760389 102.135879,64.3896482 C102.016097,64.1915473 102.079588,63.9338523 102.277688,63.8140704 C102.475789,63.6942884 102.733484,63.7577785 102.853266,63.9558794 C103.165527,64.4712259 103.444165,65.0062096 103.687437,65.5574874 C103.781408,65.7671201 103.688169,66.0132731 103.478894,66.1080402 C103.436464,66.1261917 103.391408,66.1374556 103.345427,66.1414131 L103.345427,66.1414131 Z M51.9438191,65.3072362 C51.8230401,65.3085526 51.7086907,65.2529232 51.6351759,65.1570854 C51.5567104,65.0802052 51.5124932,64.9749773 51.5124932,64.8651256 C51.5124932,64.7552739 51.5567104,64.650046 51.6351759,64.5731658 C52.0772864,64.1894472 52.5360804,63.8057286 52.9948744,63.4303518 C53.1787419,63.2919721 53.4386716,63.3212599 53.5871357,63.4970854 C53.657532,63.5826446 53.6901788,63.6931165 53.6775981,63.8031971 C53.6650175,63.9132778 53.6082874,64.0135352 53.520402,64.081005 C53.061608,64.4480402 52.6194975,64.8234171 52.1857286,65.198794 C52.1258699,65.2748894 52.0394582,65.3255446 51.9438191,65.340603 L51.9438191,65.3072362 Z M6.55658291,64.3479499 C6.41895357,64.3482482 6.29040929,64.2792732 6.21457286,64.1644221 C5.88924623,63.680603 5.5639196,63.1801005 5.24693467,62.6712563 C5.18923077,62.5775553 5.17174623,62.4645454 5.19843575,62.3577873 C5.22512526,62.2510293 5.29373394,62.1595427 5.38874372,62.1040201 C5.48077008,62.0432212 5.59380071,62.0230762 5.70116541,62.0483385 C5.8085301,62.0736008 5.9007191,62.1420327 5.9559799,62.2374874 C6.26462312,62.7296482 6.58160804,63.221809 6.90693467,63.6972864 C7.03258052,63.8886797 6.98045641,64.1455771 6.79015075,64.2728643 C6.72233116,64.322232 6.64046557,64.348546 6.55658291,64.3479499 Z M101.535276,63.1467337 C101.405446,63.148721 101.282097,63.09013 101.201608,62.9882412 C100.856663,62.5495657 100.489131,62.1291316 100.100503,61.7286432 C100.021543,61.6503285 99.9771293,61.5437232 99.9771293,61.4325126 C99.9771293,61.3213019 100.021543,61.2146966 100.100503,61.1363819 C100.265513,60.9764019 100.527753,60.9764019 100.692764,61.1363819 C101.109478,61.5676884 101.502132,62.021608 101.868945,62.4960804 C102.009002,62.6781803 101.975436,62.9392517 101.793869,63.08 C101.717575,63.1305713 101.626515,63.1540708 101.535276,63.1467337 Z M54.6882412,63.1467337 C54.5543342,63.1480497 54.4276231,63.0862394 54.3462312,62.9798995 C54.2145327,62.7923197 54.2551061,62.5341253 54.4379899,62.3959799 C54.9051256,62.0456281 55.3889447,61.7036181 55.8811055,61.3699497 C55.9726756,61.30613 56.0860048,61.2816752 56.1957439,61.3020553 C56.3054831,61.3224355 56.4024751,61.3859499 56.4650251,61.478392 C56.5915118,61.6723757 56.5396072,61.9318984 56.3482412,62.0623116 C55.8644221,62.3876382 55.3889447,62.7213065 54.9301508,63.0633166 C54.8603362,63.1150015 54.7750509,63.1414693 54.6882412,63.138392 L54.6882412,63.1467337 Z M4.71306533,61.3532663 C4.56197696,61.3553695 4.42156702,61.2755911 4.34603015,61.1447236 C4.06241206,60.6275377 3.77879397,60.1103518 3.5118593,59.5764824 C3.46298129,59.4769591 3.45574286,59.3620696 3.49174335,59.2571986 C3.52774383,59.1523277 3.60401994,59.0661073 3.70371859,59.0175879 C3.80180711,58.965779 3.91674046,58.9560628 4.02213438,58.9906698 C4.1275283,59.0252767 4.21432997,59.1012343 4.26261307,59.2011055 C4.52120603,59.7182915 4.79648241,60.2354774 5.09678392,60.7359799 C5.15314361,60.8317322 5.16809486,60.9463021 5.13819528,61.0533111 C5.1082957,61.1603202 5.036122,61.2505464 4.93829146,61.3032161 C4.86941579,61.3407455 4.79135339,61.3580927 4.71306533,61.3532663 Z M57.5577889,61.1697487 C57.4122013,61.1674472 57.2774804,61.0922541 57.1990955,60.9695477 C57.0829188,60.7709112 57.1457474,60.515901 57.3409045,60.3939698 C57.8358459,60.0825461 58.3446901,59.7822446 58.8674372,59.4930653 C59.0701451,59.3801939 59.3259728,59.4530207 59.4388442,59.6557286 C59.5517157,59.8584366 59.4788888,60.1142642 59.2761809,60.2271357 C58.758995,60.5107538 58.2668342,60.8027136 57.7746734,61.0613065 C57.7147135,61.1181353 57.6392279,61.1558781 57.5577889,61.1697487 Z M99.0661307,60.619196 C98.9680226,60.6189458 98.8732775,60.5834164 98.799196,60.5190955 C98.3737688,60.160402 97.9650251,59.8017085 97.4394975,59.4596985 C97.2566137,59.3215531 97.2160402,59.0633587 97.3477387,58.8757789 C97.4113932,58.7840639 97.5097918,58.7223766 97.6200786,58.7050458 C97.7303654,58.6877151 97.8429417,58.7162491 97.9316583,58.7840201 C98.4238191,59.1343719 98.8992965,59.5097487 99.341407,59.8851256 C99.5135445,60.0386066 99.5320437,60.3012958 99.3831156,60.4773869 C99.3098609,60.5587562 99.2085457,60.6094138 99.0994975,60.619196 L99.0661307,60.619196 Z M60.619196,59.4513568 C60.4620807,59.4513568 60.3177557,59.3647618 60.2438191,59.2261307 C60.1949411,59.1266073 60.1877027,59.0117178 60.2237031,58.9068469 C60.2597036,58.8019759 60.3359797,58.7157556 60.4356784,58.6672362 C60.9528643,58.4003015 61.4867337,58.1500503 62.0289447,57.899799 C62.2385774,57.8058279 62.4847304,57.8990676 62.5794975,58.1083417 C62.6269936,58.2087205 62.6316036,58.3241038 62.5922672,58.4279518 C62.5529308,58.5317999 62.4730342,58.6151731 62.3709548,58.6588945 C61.8454271,58.900804 61.3198995,59.1510553 60.8110553,59.4096482 C60.7616653,59.4343301 60.7077043,59.4485304 60.6525628,59.4513568 L60.619196,59.4513568 Z M96.221608,58.5671357 C96.1452229,58.5687627 96.0699668,58.5485014 96.0047236,58.5087437 C95.5209045,58.2084422 95.0120603,57.9248241 94.4948744,57.6745729 C94.290372,57.5704785 94.2083683,57.3207399 94.3113568,57.1156784 C94.4217779,56.9136729 94.6707731,56.8331156 94.878593,56.9321608 C95.4124623,57.2074372 95.9379899,57.5077387 96.4384925,57.7663317 C96.6336496,57.8882628 96.6964782,58.143273 96.5803015,58.3419095 C96.514411,58.4649533 96.3933373,58.5487736 96.2549749,58.5671357 L96.221608,58.5671357 Z M3.13648241,58.2167839 C2.97074893,58.2152344 2.82100276,58.1175738 2.75276382,57.9665327 C2.51919598,57.4326633 2.29396985,56.8821106 2.08542714,56.298191 C2.01830239,56.1569178 2.03585987,55.9899636 2.13090468,55.8657448 C2.2259495,55.7415259 2.38250418,55.6809241 2.53641408,55.7087734 C2.69032399,55.7366227 2.81571615,55.8482415 2.86120603,55.9978894 C3.06974874,56.5401005 3.28663317,57.0739698 3.52020101,57.5994975 C3.56481746,57.7012238 3.56701209,57.8165453 3.52629836,57.9198955 C3.48558463,58.0232457 3.4053264,58.1060858 3.30331658,58.1500503 C3.2539278,58.1854731 3.19667627,58.2083737 3.13648241,58.2167839 L3.13648241,58.2167839 Z M63.8474372,58.0082412 C63.6797386,58.005221 63.5294662,57.9039505 63.4637186,57.7496482 C63.4226861,57.646782 63.4242494,57.53182 63.468064,57.4301076 C63.5118785,57.3283953 63.5943465,57.2482845 63.6972864,57.2074372 C64.2394975,56.9905528 64.7900503,56.7820101 65.3656281,56.581809 C65.5959781,56.5057936 65.8443363,56.6309064 65.9203518,56.8612563 C65.9963672,57.0916062 65.8712544,57.3399644 65.6409045,57.4159799 C65.0903518,57.6078392 64.5481407,57.8080402 63.9725628,58.0249246 C63.9303047,58.0248518 63.8882382,58.0192429 63.8474372,58.0082412 L63.8474372,58.0082412 Z M93.1268342,56.9655276 C93.0715013,56.9733995 93.0153328,56.9733995 92.96,56.9655276 C92.0340704,56.5651256 91.4334673,56.3899497 91.4251256,56.381608 C91.2030396,56.3204703 91.0651097,56.0990565 91.1081407,55.8727638 C91.1217724,55.7695014 91.1786357,55.6768937 91.2645592,55.6180202 C91.3504827,55.5591467 91.4573737,55.5395524 91.558593,55.5641206 L91.6336683,55.5641206 C92.2014929,55.7367308 92.7585842,55.9428546 93.3020101,56.181407 C93.4049348,56.2220245 93.4869951,56.3026347 93.5294409,56.404819 C93.5718867,56.5070034 93.5710912,56.6220306 93.5272362,56.7236181 C93.4540602,56.8769847 93.2966368,56.9720947 93.1268342,56.9655276 L93.1268342,56.9655276 Z M67.1590955,56.8487437 C66.9287456,56.8809927 66.7158671,56.7204002 66.6836181,56.4900503 C66.6513691,56.2597003 66.8119616,56.0468219 67.0423116,56.0145729 C67.601206,55.839397 68.1684422,55.6809045 68.7106533,55.5390955 C68.9410032,55.4838115 69.1725552,55.6257305 69.2278392,55.8560804 C69.2831232,56.0864303 69.1412042,56.3179824 68.9108543,56.3732663 C68.3436181,56.5234171 67.7930653,56.6735678 67.2425126,56.840402 C67.215183,56.8467685 67.1871446,56.8495724 67.1590955,56.8487437 L67.1590955,56.8487437 Z M89.7484422,56.0145729 L89.6733668,56.0145729 C89.0894472,55.9061307 88.5222111,55.8060302 87.9549749,55.7226131 C87.8453979,55.7061562 87.7468732,55.6467729 87.6811433,55.557568 C87.6154134,55.4683632 87.5878814,55.3566695 87.6046231,55.2471357 C87.62108,55.1375587 87.6804633,55.039034 87.7696681,54.9733041 C87.858873,54.9075742 87.9705667,54.8800422 88.0801005,54.8967839 L89.8235176,55.1970854 C90.0538675,55.2178169 90.2237968,55.4213586 90.2030653,55.6517085 C90.1823338,55.8820585 89.9787921,56.0519878 89.7484422,56.0312563 L89.7484422,56.0145729 Z M70.5625126,56.0145771 C70.3668143,56.0154531 70.1968209,55.8801523 70.1537688,55.6892462 C70.1073215,55.4615615 70.2521616,55.2387307 70.4790955,55.1887437 C71.0463317,55.0719598 71.6302513,54.9635176 72.2141709,54.8634171 C72.4413727,54.827924 72.6556559,54.9794 72.6979899,55.2054271 C72.7334831,55.432629 72.582007,55.6469122 72.3559799,55.6892462 C71.780402,55.781005 71.2048241,55.8894472 70.6876382,56.0062312 L70.5625126,56.0145771 Z M86.2782915,55.4973869 L86.2282412,55.4973869 C85.6443216,55.4306533 85.0687437,55.3639196 84.4931658,55.3138693 C84.2628159,55.2931378 84.0928867,55.0895961 84.1136181,54.8592462 C84.1343496,54.6288963 84.3378913,54.458967 84.5682412,54.4796985 C85.1521608,54.5380905 85.7360804,54.5964824 86.3283417,54.6715578 C86.5586916,54.6853788 86.734223,54.8833184 86.720402,55.1136683 C86.706581,55.3440183 86.5086414,55.5195496 86.2782915,55.5057286 L86.2782915,55.4973869 Z M74.0243216,55.438995 C73.7939717,55.4551195 73.5941647,55.2814554 73.5780402,55.0511055 C73.5619157,54.8207556 73.7355797,54.6209486 73.9659296,54.6048241 C74.5498492,54.5297487 75.1337688,54.4713568 75.7343719,54.4213065 C75.9605453,54.4064567 76.1586452,54.5715399 76.1848241,54.7966834 C76.1940365,54.9073812 76.158711,55.0171809 76.086679,55.1017402 C76.014647,55.1862994 75.91186,55.2386319 75.8011055,55.2471357 C75.2171859,55.2971859 74.641608,55.3639196 74.0743719,55.4306533 L74.0243216,55.438995 Z M82.7831156,55.1720603 L82.7831156,55.1720603 L81.0146734,55.0552764 C80.7881179,55.0422192 80.6099178,54.8567456 80.6059296,54.6298492 C80.6080818,54.5177335 80.655289,54.4112072 80.7369006,54.3343039 C80.8185122,54.2574006 80.9276527,54.2165994 81.0396985,54.2211055 L82.8081407,54.2961809 C83.0384906,54.2961809 83.2252261,54.4829164 83.2252261,54.7132663 C83.2252261,54.9436163 83.0384906,55.1303518 82.8081407,55.1303518 L82.7831156,55.1720603 Z M77.5194975,55.1720603 C77.2891476,55.1720603 77.1024121,54.9853248 77.1024121,54.7549749 C77.1024121,54.524625 77.2891476,54.3378894 77.5194975,54.3378894 C78.1034171,54.3378894 78.6956784,54.2878392 79.2879397,54.2794975 L79.2879397,54.2794975 C79.5182896,54.2794975 79.7050251,54.466233 79.7050251,54.6965829 C79.7050251,54.9269328 79.5182896,55.1136683 79.2879397,55.1136683 C78.7040201,55.1136683 78.1284422,55.1136683 77.5528643,55.1637186 L77.5194975,55.1720603 Z M1.90190955,55.0135756 C1.71882878,55.0146764 1.55642942,54.8962602 1.50150754,54.721608 C1.32633166,54.1543719 1.15949749,53.5871357 1.01768844,53.0115578 C0.965071322,52.7862322 1.10219112,52.5601698 1.32633166,52.5027136 C1.54964794,52.450493 1.77323,52.5883686 1.82683417,52.8113568 C1.96864322,53.3702513 2.12713568,53.920804 2.29396985,54.4796985 C2.36520448,54.6985174 2.24575417,54.9336852 2.02703518,55.0052261 L1.90190955,55.0135756 Z M1.06773869,51.6101508 C0.865680517,51.6128592 0.691968877,51.4675086 0.658994975,51.2681407 C0.550552764,50.6758794 0.467135678,50.0836181 0.40040201,49.4996985 C0.38876938,49.3889671 0.421893328,49.2781811 0.492398513,49.1920081 C0.562903697,49.1058351 0.664936676,49.0514293 0.775778894,49.0409045 C1.00355516,49.016495 1.2083874,49.1803608 1.23457286,49.4079397 C1.29296482,49.9751759 1.37638191,50.5507538 1.47648241,51.0762814 C1.51707203,51.3018364 1.36807097,51.5178879 1.14281407,51.5601005 L1.06773869,51.6101508 Z M0.692361809,48.1233167 C0.468372946,48.1234958 0.284235868,47.9467242 0.275276382,47.7229146 C0.275276382,47.4476382 0.275276382,47.1807035 0.275276382,46.8887437 C0.275276382,46.5967839 0.275276382,46.2380905 0.275276382,45.9044221 C0.29653518,45.6798342 0.483476856,45.5072726 0.709045226,45.5040201 C0.937435372,45.5174259 1.11432628,45.7090577 1.10944724,45.9377889 C1.10944724,46.2547739 1.10944724,46.5717588 1.10944724,46.8887437 C1.10944724,47.2057286 1.10944724,47.4059296 1.10944724,47.6645226 C1.11396155,47.7751641 1.07429273,47.8830594 0.999184356,47.9644268 C0.924075984,48.0457942 0.819693812,48.0939542 0.709045226,48.0982915 L0.692361809,48.1233167 Z M0.834170854,44.5447238 L0.784120603,44.5447238 C0.673164099,44.5322186 0.571854737,44.4757459 0.502869428,44.3879465 C0.43388412,44.300147 0.402983903,44.1883529 0.417085427,44.0775879 C0.483819095,43.4936683 0.583919598,42.901407 0.692361809,42.3174874 C0.73612831,42.0871375 0.958343553,41.9358818 1.18869346,41.9796483 C1.41904337,42.0234148 1.57029913,42.24563 1.52653266,42.4759799 C1.40974874,43.0320938 1.31798995,43.5882077 1.25125628,44.1443216 C1.2422968,44.3681313 1.05815972,44.5449029 0.834170854,44.5447238 Z M1.50984925,41.1079397 L1.40140704,41.1079397 C1.29237499,41.080834 1.1993073,41.0100439 1.14407627,40.9122061 C1.08884524,40.8143683 1.07632111,40.69811 1.10944724,40.5907538 C1.2679397,40.0318593 1.44311558,39.4562814 1.64331658,38.9224121 C1.67928394,38.8169338 1.75596694,38.730236 1.85626266,38.6816553 C1.95655838,38.6330745 2.07212453,38.6266516 2.17718593,38.6638191 C2.39369627,38.7424267 2.50832093,38.9790711 2.43577889,39.1976884 C2.23557789,39.7398995 2.06040201,40.298794 1.91025126,40.8660302 C1.83882369,41.0209708 1.68023186,41.1167867 1.50984925,41.1079397 Z M2.68603015,37.7712563 C2.63103564,37.7829705 2.57419049,37.7829705 2.51919598,37.7712563 C2.31021119,37.6763029 2.21423844,37.4326797 2.30231156,37.2207035 C2.54422111,36.6868342 2.80281407,36.1446231 3.07809045,35.6190955 C3.12637355,35.5192242 3.21317522,35.4432667 3.31856914,35.4086597 C3.42396306,35.3740528 3.53889641,35.383769 3.63698492,35.4355779 C3.73596868,35.4870302 3.81021505,35.5759913 3.84313272,35.6825819 C3.8760504,35.7891725 3.86489552,35.9045076 3.8121608,36.0028141 C3.54522613,36.5116583 3.29497487,37.0371859 3.06974874,37.5543719 C3.00320146,37.7068536 2.85239988,37.8052025 2.68603015,37.8046257 L2.68603015,37.7712563 Z M4.30432161,34.659799 C4.22793643,34.661426 4.15268033,34.6411647 4.08743719,34.601407 C3.99242741,34.5458845 3.92381873,34.4543979 3.89712921,34.3476398 C3.8704397,34.2408818 3.88792424,34.1278718 3.94562814,34.0341709 C4.24592965,33.5336683 4.56291457,33.0331658 4.90492462,32.5326633 C4.98986047,32.4089848 5.13432615,32.3400138 5.28390283,32.3517312 C5.43347951,32.3634485 5.56544293,32.454074 5.63008374,32.5894699 C5.69472456,32.7248658 5.6822223,32.8844622 5.59728643,33.0081407 C5.26361809,33.4919598 4.95497487,33.9757789 4.66301508,34.459598 C4.59556287,34.5975474 4.4577659,34.6872757 4.30432161,34.6931658 L4.30432161,34.659799 Z M6.27296482,31.7652261 C6.11349942,31.7686834 5.96658974,31.6790642 5.89669522,31.5356909 C5.8268007,31.3923175 5.84669074,31.2213835 5.94763819,31.0978894 C6.29798995,30.6390955 6.66502513,30.1719598 7.05708543,29.7131658 C7.12700224,29.6277484 7.22849416,29.5742404 7.33847432,29.5648135 C7.44845448,29.5553866 7.55757187,29.5908424 7.64100503,29.6631156 C7.72642247,29.7330324 7.7799305,29.8345243 7.78935737,29.9445045 C7.79878424,30.0544846 7.76332844,30.163602 7.69105528,30.2470352 C7.31567839,30.6974874 6.94864322,31.1479397 6.60663317,31.598392 C6.53634695,31.7171826 6.41085594,31.7924772 6.27296482,31.798593 L6.27296482,31.7652261 Z M8.53356784,29.0875377 C8.42998414,29.0865047 8.33101891,29.0445194 8.25829146,28.9707538 C8.17764613,28.8950667 8.13189902,28.7893933 8.13189902,28.678794 C8.13189902,28.5681947 8.17764613,28.4625213 8.25829146,28.3868342 C8.65313233,27.9641876 9.06187605,27.5387605 9.48452261,27.1105528 C9.56283733,27.0315932 9.66944264,26.9871796 9.78065327,26.9871796 C9.8918639,26.9871796 9.99846921,27.0315932 10.0767839,27.1105528 C10.236764,27.2755632 10.236764,27.5378037 10.0767839,27.7028141 C9.65135678,28.1198995 9.24261307,28.5369849 8.86723618,28.9540704 C8.78682845,29.0571115 8.66424536,29.118403 8.53356784,29.1209045 L8.53356784,29.0875377 Z M11.0360804,26.5850251 C10.9179729,26.5826571 10.8061676,26.5312872 10.7274372,26.4432161 C10.568468,26.2810351 10.568468,26.0214774 10.7274372,25.8592965 C11.1528643,25.4672362 11.561608,25.0751759 12.0454271,24.6831156 C12.2215183,24.5341874 12.4842075,24.5526867 12.6376884,24.7248241 C12.7161539,24.8017043 12.7603711,24.9069322 12.7603711,25.0167839 C12.7603711,25.1266356 12.7161539,25.2318635 12.6376884,25.3087437 C12.1872362,25.700804 11.7534673,26.0845226 11.3363819,26.4682412 C11.2620918,26.5709384 11.1458785,26.6351616 11.019397,26.6434171 L11.0360804,26.5850251 Z M13.6970854,24.2910553 C13.571005,24.3158369 13.4406909,24.2786044 13.3467337,24.1909548 C13.2754112,24.1064559 13.2413667,23.9966657 13.2523694,23.886639 C13.2633721,23.7766122 13.3184831,23.6757375 13.4051256,23.6070352 L14.8065327,22.5226131 C14.9919845,22.3890715 15.2498101,22.4259037 15.3904523,22.6060302 C15.4590723,22.6936974 15.488964,22.8055616 15.4732196,22.9157722 C15.4574753,23.0259828 15.3974573,23.1250028 15.3070352,23.1899497 C14.8398995,23.5486432 14.3811055,23.9073367 13.938995,24.2660302 C13.864233,24.321355 13.7734006,24.3506557 13.680402,24.3494472 L13.6970854,24.2910553 Z M16.4915578,22.1639196 C16.3576508,22.1652356 16.2309397,22.1034253 16.1495477,21.9970854 C16.0178493,21.8095057 16.0584227,21.5513112 16.2413065,21.4131658 C16.7167839,21.0711558 17.200603,20.7374874 17.6927638,20.4038191 C17.8800951,20.3061552 18.1108646,20.363981 18.2300078,20.5384406 C18.3491509,20.7129002 18.3190364,20.9488907 18.1598995,21.0878392 C17.6760804,21.4215075 17.1922613,21.7551759 16.7334673,22.0888442 C16.6652098,22.1617826 16.573869,22.2089262 16.4748744,22.2223116 L16.4915578,22.1639196 Z M19.3944724,20.1952764 C19.250098,20.1963318 19.1150415,20.1240923 19.0357789,20.0034171 C18.9117328,19.8098614 18.9676969,19.5524267 19.1609045,19.4278392 C19.6530653,19.1108543 20.1452261,18.7938693 20.6540704,18.4852261 C20.7480448,18.4264082 20.8615696,18.407424 20.9695678,18.432467 C21.0775659,18.4575101 21.1711502,18.5245196 21.2296482,18.6186935 C21.3473727,18.8151965 21.2883729,19.0696331 21.0961809,19.1942714 C20.5873367,19.5029146 20.0951759,19.8115578 19.6196985,20.1285427 C19.5532806,20.1933539 19.469064,20.2369142 19.3777889,20.2536683 L19.3944724,20.1952764 Z M22.380804,18.3517588 C22.1921965,18.3536047 22.0258233,18.2286431 21.9750391,18.0469918 C21.9242548,17.8653406 22.0017003,17.6722146 22.1639196,17.5759799 C22.6644221,17.2840201 23.1732663,16.9837186 23.698794,16.6917588 C23.7960817,16.6383894 23.910626,16.6259879 24.0170819,16.6572985 C24.1235377,16.688609 24.2131283,16.7610502 24.2660302,16.858593 C24.3737749,17.0595897 24.303865,17.3097937 24.1075377,17.4258291 C23.5903518,17.7094472 23.0815075,18.001407 22.5893467,18.26 C22.5344781,18.3352019 22.454641,18.3884266 22.3641206,18.4101508 L22.380804,18.3517588 Z M25.4171859,16.6834171 C25.2643433,16.6838343 25.1235149,16.6006175 25.0501508,16.4665327 C24.9977579,16.3694763 24.9868122,16.2553657 25.0197998,16.1501195 C25.0527874,16.0448733 25.1269082,15.9574253 25.2253266,15.9076382 C25.7341709,15.6240201 26.2513568,15.3570854 26.7768844,15.0734673 C26.9821913,14.968481 27.2337637,15.0461725 27.3441206,15.2486432 C27.4471091,15.4537047 27.3651054,15.7034433 27.160603,15.8075377 L25.6173869,16.6417085 C25.5564688,16.6757041 25.4866116,16.6902577 25.4171859,16.6834171 Z M28.5369849,15.0734673 C28.3785945,15.0700041 28.2346909,14.9804641 28.161608,14.8398995 C28.0586195,14.634838 28.1406232,14.3850994 28.3451256,14.281005 L29.9300503,13.5052261 C30.0657637,13.4280278 30.2332289,13.4330929 30.3640287,13.5183521 C30.4948286,13.6036113 30.567056,13.7547848 30.5512027,13.9101116 C30.5353495,14.0654384 30.4340709,14.1989033 30.2887437,14.2559799 L28.7205025,15.0150754 C28.6652884,15.0498233 28.6021266,15.0699203 28.5369849,15.0734673 Z M31.6984925,13.5469347 C31.5052945,13.5439132 31.3394659,13.4085919 31.2977606,13.2199248 C31.2560552,13.0312578 31.3493935,12.8386469 31.5233166,12.7544724 L33.1249246,12.020402 C33.3310377,11.9424373 33.562237,12.0382654 33.6527591,12.2391804 C33.7432813,12.4400954 33.6618874,12.6767623 33.4669347,12.7794975 L31.8736683,13.5052261 C31.8200505,13.5345274 31.7595618,13.5489295 31.6984925,13.5469347 L31.6984925,13.5469347 Z M34.9017085,12.1121608 C34.6713586,12.1582308 34.447276,12.0088424 34.401206,11.7784925 C34.3551361,11.5481425 34.5045245,11.3240599 34.7348744,11.2779899 L36.3531658,10.5856281 C36.5673684,10.5032365 36.8086805,10.601955 36.9037186,10.8108543 C36.9901116,11.0227737 36.8896082,11.2647264 36.6784925,11.3530653 L35.0351759,12.078794 C34.9931222,12.0980435 34.9478733,12.1093557 34.9017085,12.1121608 L34.9017085,12.1121608 Z M38.1382915,10.7524736 C37.9699133,10.7516218 37.8185553,10.6496197 37.7545729,10.4938693 C37.7107178,10.3922818 37.7099223,10.2772546 37.7523682,10.1750703 C37.794814,10.0728859 37.8768742,9.99227575 37.979799,9.95165829 L39.6481407,9.29266332 C39.8622801,9.21203708 40.1018362,9.31523047 40.1903518,9.52623116 C40.2313843,9.62909735 40.2298209,9.74405937 40.1860064,9.84577175 C40.1421918,9.94748412 40.0597238,10.0275949 39.9567839,10.0684422 L38.2884422,10.7190955 C38.2415747,10.7414741 38.190226,10.7528849 38.1382915,10.7524736 Z M41.4082412,9.4678392 C41.2341419,9.46310976 41.0797533,9.35470926 41.0161809,9.19256281 C40.9371154,8.97839085 41.0449317,8.7404513 41.2580905,8.65869347 L42.9264322,8.03306533 C43.1449616,7.95899075 43.3832345,8.06896285 43.4686432,8.28331658 C43.5468626,8.49984095 43.4348537,8.73879334 43.218392,8.81718593 L41.5500503,9.43447236 C41.5047356,9.45268831 41.456924,9.46393809 41.4082412,9.4678392 L41.4082412,9.4678392 Z M44.6948744,8.24160804 C44.5207751,8.2368786 44.3663865,8.12847811 44.3028141,7.96633166 C44.2245947,7.74980729 44.3366036,7.5108549 44.5530653,7.43246231 L46.221407,6.84020101 C46.3650831,6.77529099 46.5330807,6.79694177 46.6556048,6.89615849 C46.778129,6.99537522 46.8342375,7.15519942 46.80062,7.30923185 C46.7670024,7.46326428 46.6494049,7.58517717 46.4966834,7.62432161 L44.8283417,8.21658291 C44.7856469,8.23262435 44.7404804,8.24109306 44.6948744,8.24160804 L44.6948744,8.24160804 Z M48.0315578,7.07376884 C47.8537814,7.07244849 47.6963826,6.95858555 47.6394975,6.79015075 C47.5675111,6.57373645 47.6827052,6.33963229 47.8980905,6.26462312 L49.5664322,5.69738693 C49.7852511,5.62615231 50.0204189,5.74560262 50.0919598,5.96432161 C50.1288923,6.06824912 50.1222571,6.18269134 50.0735611,6.28165416 C50.0248651,6.38061698 49.9382419,6.45570007 49.8333668,6.48984925 L48.1650251,7.05708543 L48.0315578,7.07376884 Z M51.3682412,5.96432933 C51.1851604,5.96543019 51.0227611,5.84701399 50.9678392,5.67236181 C50.9013895,5.45393837 51.0191965,5.22200578 51.2347739,5.14683417 L52.9031156,4.61296482 C53.0093039,4.57910368 53.1246276,4.58915225 53.2233592,4.64086883 C53.3220909,4.6925854 53.3960161,4.78166721 53.4286432,4.88824121 C53.4622947,4.99332353 53.4520328,5.10754732 53.4001901,5.2049488 C53.3483474,5.30235029 53.2593281,5.37465483 53.1533668,5.40542714 L51.4850251,5.94763819 L51.3682412,5.96432933 Z M54.7049246,4.90492462 C54.5227025,4.90340324 54.361686,4.78599533 54.3045226,4.61296482 C54.2388591,4.39215082 54.3608873,4.159188 54.579799,4.08743719 L56.2481407,3.57859296 C56.353223,3.54494145 56.4674468,3.55520336 56.5648483,3.60704609 C56.6622498,3.65888881 56.7345543,3.74790811 56.7653266,3.85386935 C56.8304802,4.0725396 56.7078278,4.30297739 56.4900503,4.37105528 L54.8217085,4.88824121 L54.7049246,4.90492462 Z M58.041608,3.88723618 C57.8112581,3.91948516 57.5983797,3.75889263 57.5661307,3.52854271 C57.5338817,3.29819279 57.6944742,3.08531432 57.9248241,3.05306533 L59.5931658,2.56924623 C59.6993766,2.53587672 59.8146034,2.54727433 59.9122185,2.60080519 C60.0098336,2.65433605 60.08139,2.74536792 60.1103518,2.85286432 C60.1748497,3.07400025 60.0478696,3.30555227 59.8267337,3.37005025 L58.158392,3.85386935 C58.1250533,3.87263403 58.0880706,3.88401332 58.0499497,3.88723618 L58.041608,3.88723618 Z M61.3782915,2.91959799 C61.1479415,2.95184697 60.9350631,2.79125444 60.9028141,2.56090452 C60.8705651,2.3305546 61.0311576,2.11767613 61.2615075,2.08542714 L62.9298492,1.61829146 C63.0788595,1.57805868 63.2380146,1.62037809 63.3473624,1.72930839 C63.4567101,1.83823868 63.499638,1.99723075 63.4599754,2.14639382 C63.4203129,2.29555689 63.3040857,2.41222954 63.1550754,2.45246231 L61.4867337,2.91959799 C61.4673364,2.92187657 61.447739,2.92187657 61.4283417,2.91959799 L61.3782915,2.91959799 Z M64.7650251,1.99366834 C64.6160149,2.01303968 64.4679892,1.9514435 64.376708,1.83208248 C64.2854268,1.71272147 64.2647578,1.5537294 64.3224869,1.41499706 C64.380216,1.27626471 64.5075726,1.17886882 64.6565829,1.15949749 L66.1580905,0.759095477 C66.3884404,0.701508012 66.6218597,0.841559642 66.6794472,1.07190955 C66.7370347,1.30225947 66.5969831,1.53567884 66.3666332,1.59326633 L64.8734673,1.99366834 L64.7650251,1.99366834 Z" id="Shape"></path>
                        </g>
                        <polygon id="Path" fill="#DAE1E7" points="33.7672362 98.8909548 32.1155779 98.8909548 32.1155779 97.2226131 31.0061307 97.2226131 31.0061307 98.8909548 29.3544724 98.8909548 29.3544724 100.000402 31.0061307 100.000402 31.0061307 101.677085 32.1155779 101.677085 32.1155779 100.000402 33.7672362 100.000402"></polygon>
                    </g>
                    <g id="Oval" transform="translate(92.592965, 0.000000)" fill-rule="nonzero">
                        <circle fill="#FFFFFF" cx="3.17819095" cy="3.57859296" r="2.74442211"></circle>
                        <path d="M3.17819095,6.7401005 C1.43213856,6.7401005 0.0166834171,5.32464536 0.0166834171,3.57859296 C0.0166834171,1.83254057 1.43213856,0.417085427 3.17819095,0.417085427 C4.92424335,0.417085427 6.33969849,1.83254057 6.33969849,3.57859296 C6.33969849,5.32464536 4.92424335,6.7401005 3.17819095,6.7401005 L3.17819095,6.7401005 Z M3.17819095,1.25125628 C1.8928384,1.25125628 0.850854271,2.29324041 0.850854271,3.57859296 C0.850854271,4.86394552 1.8928384,5.90592965 3.17819095,5.90592965 C4.46354351,5.90592965 5.50552764,4.86394552 5.50552764,3.57859296 C5.50552764,2.9613449 5.2603268,2.36937771 4.82386651,1.93291741 C4.38740621,1.49645712 3.79543902,1.25125628 3.17819095,1.25125628 Z" id="Shape" fill="#CED6DE"></path>
                    </g>
                    <path d="M67.1007035,103.720804 L73.4070352,130.072261 C74.1022227,132.992291 72.304147,135.924422 69.3863317,136.628844 L69.3863317,136.628844 C66.4728043,137.32107 63.5449672,135.53907 62.821407,132.633166 L56.3732663,105.689447" id="Path" fill="#FFFFFF" fill-rule="nonzero"></path>
                    <path d="M68.1100503,137.63821 C65.2100782,137.633789 62.6900743,135.644675 62.0122613,132.825025 L55.5641206,105.872965 C55.4596794,105.426332 55.7354306,104.979168 56.181407,104.87196 C56.3971528,104.819291 56.6249944,104.854827 56.8144538,104.970695 C57.0039132,105.086563 57.1393483,105.273196 57.1907538,105.489246 L63.6388945,132.432965 C64.3518361,134.764796 66.7590256,136.136552 69.1285862,135.561308 C71.4981469,134.986065 73.0084375,132.663287 72.5728643,130.264121 L66.2665327,103.912663 C66.1582682,103.451963 66.4439736,102.990727 66.9046734,102.882462 C67.3653732,102.774198 67.8266099,103.059903 67.9348744,103.520603 L74.241206,129.880402 C74.691512,131.756237 74.2560727,133.734972 73.0599086,135.248486 C71.8637445,136.762 70.039172,137.642871 68.1100503,137.63821 L68.1100503,137.63821 Z" id="Path" fill="#717790" fill-rule="nonzero"></path>
                    <g id="Group" opacity="0.2" transform="translate(55.889447, 103.437186)" fill="#717790" fill-rule="nonzero">
                        <polygon id="Path" points="2.0520603 8.75879397 12.7878392 6.89859296 11.2112563 0.28361809 0.483819095 2.21889447"></polygon>
                    </g>
                    <path d="M117.134271,24.6080402 C114.712755,23.1213661 111.599554,23.4173753 109.501608,25.3337688 L85.5108543,47.138995 C74.3507192,57.2844379 60.8068033,64.4437748 46.1379899,67.9515578 L46.1379899,67.9515578 C42.7103927,68.7716167 40.5965533,72.2150088 41.4165829,75.6426131 L47.6645226,101.768844 C48.4700897,105.168583 51.8656489,107.283361 55.2721608,106.506935 L55.2721608,106.506935 C70.0770139,103.159528 85.451931,103.247988 100.217286,106.765528 L130.964824,114.056181" id="Path" fill="#CBDBFF" fill-rule="nonzero"></path>
                    <path d="M130.964824,114.890352 C130.901128,114.898466 130.836661,114.898466 130.772965,114.890352 L100.058794,107.574673 C85.4142561,104.105459 70.1716165,104.019874 55.4890452,107.324422 C51.6399471,108.181315 47.8128925,105.800531 46.880402,101.969045 L40.640804,75.8594975 C39.7163422,71.9852583 42.1059302,68.0947104 45.9794975,67.1674372 C60.505741,63.6822705 73.9184772,56.5900172 84.9769849,46.5467337 L108.942714,24.7164824 C111.308571,22.5426475 114.829455,22.2021365 117.56804,23.8823116 C117.958209,24.122911 118.08114,24.633258 117.843317,25.0251256 C117.605503,25.4182734 117.094539,25.5450818 116.700503,25.3087437 C114.590048,23.9861631 111.854992,24.2425747 110.027136,25.9343719 L86.0697487,47.7562814 C74.7974874,57.9860569 61.1306334,65.2125063 46.3298492,68.7690452 C44.9005454,69.1095441 43.6650963,70.0039938 42.895388,71.255552 C42.1256796,72.5071103 41.8847889,74.0132134 42.2257286,75.4424121 L48.4736683,101.543618 C49.1841437,104.47753 52.1045282,106.309711 55.0552764,105.672764 C69.9853555,102.312747 85.4850143,102.401186 100.375779,105.931357 L131.08995,113.238693 C131.55065,113.291674 131.881171,113.708094 131.828191,114.168794 C131.77521,114.629494 131.35879,114.960016 130.89809,114.907035 L130.964824,114.890352 Z" id="Path" fill="#717790" fill-rule="nonzero"></path>
                    <ellipse id="Oval" fill="#FFFFFF" fill-rule="nonzero" transform="translate(123.885054, 68.931158) rotate(-13.460000) translate(-123.885054, -68.931158) " cx="123.885054" cy="68.9311579" rx="13.2382915" ry="46.7719598"></ellipse>
                    <path d="M133.851055,115.374202 C125.509347,115.374202 115.415879,94.0027136 110.202312,72.2141709 C104.755176,49.4579899 104.23799,24.6664322 112.804925,22.639397 C121.371859,20.6123618 132.124322,42.9097487 137.563116,65.6659296 C143.00191,88.4221106 143.527437,113.213668 134.960503,115.240704 C134.597598,115.33073 134.224957,115.375559 133.851055,115.374202 Z M113.90603,24.1907974 C113.667092,24.1884223 113.428811,24.2164553 113.196985,24.2743719 C107.357789,25.6674372 105.430854,45.1286432 111.820603,71.8221106 C117.968442,97.4895477 127.928442,113.697487 133.867739,113.697487 C134.10639,113.69512 134.344099,113.667154 134.576784,113.61407 C140.41598,112.221005 142.334573,92.759799 135.944824,66.0663317 L135.944824,66.0663317 C129.796985,40.3822111 119.836985,24.1907974 113.90603,24.1907974 Z" id="Shape" fill="#717790" fill-rule="nonzero"></path>
                    <path d="M39.3840923,78.8453047 L44.6393687,78.8453047 L44.6393687,100.600481 L39.3840923,100.600481 C36.4816833,100.600481 34.128816,98.2476132 34.128816,95.3452042 L34.128816,84.1089228 C34.128816,81.2065138 36.4816833,78.8536464 39.3840923,78.8536464 L39.3840923,78.8453047 Z" id="Path" fill="#FFFFFF" fill-rule="nonzero" transform="translate(39.384092, 89.722893) rotate(-13.460000) translate(-39.384092, -89.722893) "></path>
                    <path d="M40.6908543,101.285025 C37.8748762,101.277051 35.4274388,99.3493926 34.7598995,96.6136683 L32.1489447,85.6776884 C31.3703316,82.4074488 33.3852214,79.1239247 36.6534673,78.3369849 L42.5760804,76.9188945 L48.0315578,99.7001005 L42.1089447,101.118191 C41.6439655,101.226609 41.1682996,101.282569 40.6908543,101.285025 L40.6908543,101.285025 Z M41.3415075,78.9292462 L37.0455276,79.9552764 C34.6687581,80.5280229 33.2028868,82.9151925 33.7672362,85.2939698 L36.3865327,96.221608 C36.9592773,98.5897964 39.3371285,100.050796 41.7085427,99.4915578 L46.021206,98.4321608 L41.3415075,78.9292462 Z" id="Shape" fill="#717790" fill-rule="nonzero"></path>
                    <path d="M56.2648241,94.9119598 C55.8697095,94.922523 55.5214209,94.6543408 55.4306533,94.2696482 L51.660201,78.4120603 C51.5684688,78.115492 51.6490087,77.7925161 51.8692503,77.5737441 C52.089492,77.3549722 52.4129999,77.2765966 52.7089474,77.3703124 C53.0048949,77.4640282 53.224322,77.7143317 53.2784925,78.02 L57.0739698,93.8692462 C57.1266383,94.084992 57.0911022,94.3128336 56.9752344,94.502293 C56.8593667,94.6917524 56.6727336,94.8271875 56.4566834,94.878593 C56.3944281,94.8979064 56.3299446,94.909121 56.2648241,94.9119598 L56.2648241,94.9119598 Z" id="Path" fill="#717790" fill-rule="nonzero"></path>
                    <path d="M63.6722613,93.1351759 C63.2771467,93.1457391 62.9288581,92.8775569 62.8380905,92.4928643 L59.0342714,76.6436181 C58.9298301,76.1969855 59.2055813,75.7498214 59.6515578,75.6426131 C59.8673035,75.5899446 60.0951451,75.6254808 60.2846045,75.7413485 C60.4740639,75.8572162 60.6094991,76.0438493 60.6609045,76.2598995 L64.4563819,92.1091457 C64.5608231,92.5557783 64.2850719,93.0029424 63.8390955,93.1101508 L63.6722613,93.1351759 Z" id="Path" fill="#717790" fill-rule="nonzero"></path>
                    <g id="Group" opacity="0.2" transform="translate(108.442211, 58.391960)" fill="#717790">
                        <polygon id="Path" points="4.5879397 0.258592965 10.018392 22.9730653 5.42211055 24.0324623 0.108442211 1.11778894"></polygon>
                    </g>
                    <path d="M113.722513,84.0760804 L113.071859,82.6746734 C110.660794,75.1543437 108.872419,67.4484281 107.724824,59.6348744 L107.616382,58.8757789 L110.644422,58.1500503 C115.74965,56.9457223 121.07861,58.9263152 124.158032,63.1725987 C127.237453,67.4188822 127.46441,73.0994679 124.733568,77.5778894 C122.961888,80.5459904 120.064094,82.6704374 116.700503,83.4671357 L116.658794,83.4671357 L113.722513,84.0760804 Z M114.648442,82.1157789 L114.648442,82.199196 L116.316784,81.8738693 C119.243475,81.1766728 121.76435,79.3266271 123.307136,76.7437186 C125.702672,72.8392846 125.515069,67.8772869 122.831556,64.164881 C120.148043,60.4524752 115.495218,58.718164 111.036482,59.7683417 L109.484925,60.1353769 C110.621955,67.5872293 112.348547,74.9371003 114.648442,82.1157789 L114.648442,82.1157789 Z" id="Shape" fill="#717790" fill-rule="nonzero"></path>
                    <g id="Group" opacity="0.2" transform="translate(38.371859, 77.577889)" fill="#717790">
                        <polygon id="Path" points="0.275276382 2.01035176 5.09678392 21.379799 8.95065327 19.8365829 3.58693467 0.350351759"></polygon>
                    </g>
                </g>
            </g>
        </g>
    </g>
</svg>