<?xml version="1.0" encoding="utf-8"?>
<!-- Generator: Adobe Illustrator 24.3.0, SVG Export Plug-In . SVG Version: 6.00 Build 0)  -->
<!DOCTYPE svg PUBLIC "-//W3C//DTD SVG 1.1//EN" "http://www.w3.org/Graphics/SVG/1.1/DTD/svg11.dtd" [
	<!ENTITY ns_extend "http://ns.adobe.com/Extensibility/1.0/">
	<!ENTITY ns_ai "http://ns.adobe.com/AdobeIllustrator/10.0/">
	<!ENTITY ns_graphs "http://ns.adobe.com/Graphs/1.0/">
	<!ENTITY ns_vars "http://ns.adobe.com/Variables/1.0/">
	<!ENTITY ns_imrep "http://ns.adobe.com/ImageReplacement/1.0/">
	<!ENTITY ns_sfw "http://ns.adobe.com/SaveForWeb/1.0/">
	<!ENTITY ns_custom "http://ns.adobe.com/GenericCustomNamespace/1.0/">
	<!ENTITY ns_adobe_xpath "http://ns.adobe.com/XPath/1.0/">
]>
<svg version="1.1" id="Layer_1" xmlns:x="&ns_extend;" xmlns:i="&ns_ai;" xmlns:graph="&ns_graphs;"
	 xmlns="http://www.w3.org/2000/svg" xmlns:xlink="http://www.w3.org/1999/xlink" x="0px" y="0px" width="50px" height="50px"
	 viewBox="0 0 50 50" style="enable-background:new 0 0 50 50;" xml:space="preserve">
<style type="text/css">
	.st0{opacity:0.8;fill:#FFFFFF;}
</style>
<metadata>
	<sfw  xmlns="&ns_sfw;">
		<slices></slices>
		<sliceSourceBounds  bottomLeftOrigin="true" height="50" width="50" x="-8.5" y="-41.5"></sliceSourceBounds>
	</sfw>
</metadata>
<g>
	<path class="st0" d="M26.2,29c-0.1,0.1-0.4,0.3-0.7,0.6c-0.3,0.2-0.4,0.8-0.2,1.1c0.1,0.1,0.3-0.1,0.5-0.3c0.1-0.1,0.3-0.3,0.5-0.4
		c0.4-0.4,0.5-1,0.3-1.1C26.5,28.8,26.4,28.8,26.2,29z"/>
	<path class="st0" d="M24.7,24.4c-0.1,0-0.2,0.3-0.1,0.5c0.1,0.2,0.2,0.4,0.3,0.3c0.1,0,0.2-0.3,0.1-0.5
		C25,24.5,24.8,24.3,24.7,24.4z"/>
	<path class="st0" d="M24.5,27.6c0.2,0.2,0.3,0.2,0.4,0.2c0.2-0.1,0.2-0.8-0.3-1.2c-0.2-0.2-0.3-0.2-0.4-0.3
		c-0.2-0.2-0.3-0.2-0.4-0.2c-0.2,0.1-0.1,0.8,0.3,1.2C24.3,27.4,24.4,27.5,24.5,27.6z"/>
	<path class="st0" d="M25,26.3c0.1-0.1,0.1-0.4,0-0.6c-0.1-0.3-0.4-0.4-0.5-0.4c-0.1,0.1-0.1,0.4,0,0.6C24.6,26.2,24.8,26.4,25,26.3
		z"/>
	<path class="st0" d="M26.7,27.2c-0.2,0.2-0.6,0.5-1.1,0.9c-0.5,0.4-0.5,1.1-0.3,1.2c0.1,0,0.2,0,0.5-0.3c0.2-0.2,0.6-0.5,1.1-0.9
		c0.4-0.4,0.5-1.1,0.3-1.2C27.2,26.9,27,27,26.7,27.2z"/>
	<path class="st0" d="M23.8,27.4C23.3,27,23.2,27,23.2,27c-0.2,0.1-0.2,0.8,0.3,1.2c0.5,0.4,0.8,0.6,1,0.8c0.3,0.2,0.4,0.3,0.5,0.3
		c0.2-0.1,0.2-0.9-0.3-1.3C24.2,27.7,24,27.5,23.8,27.4z"/>
	<path class="st0" d="M25.9,26c0.1-0.3,0.1-0.6,0-0.6c-0.1-0.1-0.4,0.1-0.5,0.4c-0.1,0.2-0.1,0.5,0,0.6C25.5,26.5,25.7,26.3,25.9,26
		z"/>
	<path class="st0" d="M25.3,27.7c0.1,0.1,0.2,0,0.5-0.2c0.1-0.1,0.4-0.3,0.4-0.3c0.1,0,0,0,0.1-0.1c0.2-0.2,0.3-0.8,0.1-0.9
		c-0.1,0-0.2,0-0.5,0.2c-0.1,0.1-0.2,0.2-0.4,0.3C25.3,26.9,25.1,27.5,25.3,27.7z"/>
	<path class="st0" d="M25,0C11.2,0,0,11.2,0,25c0,13.8,11.2,25,25,25s25-11.2,25-25C50,11.2,38.8,0,25,0z M25,8.7
		c3,0,5.5,2.4,5.5,5.5c0,0,0,13.2-0.1,14c0,0,0,0,0,0.1c-0.4,2.7-2.6,4.7-5.4,4.7c-2.8,0-5.1-2.1-5.4-4.8c0,0,0-2.4,0-5.3
		c0-0.3,0.2-0.5,0.5-0.5h7.5c1,0,1.8-0.8,1.8-1.8v-4.7c0-1-0.8-1.8-1.8-1.8h-7.5c-0.3,0-0.5-0.3-0.5-0.5C19.9,10.8,22.2,8.7,25,8.7z
		 M19.6,16.3c0-0.1,0.1-0.1,0.1-0.1h8c0.1,0,0.1,0.1,0.1,0.1v1.4c0,0.1-0.1,0.1-0.1,0.1h-8c-0.1,0-0.1-0.1-0.1-0.1V16.3z M19.6,19.2
		c0-0.1,0.1-0.1,0.1-0.1h8c0.1,0,0.1,0.1,0.1,0.1v1.4c0,0.1-0.1,0.1-0.1,0.1h-8c-0.1,0-0.1-0.1-0.1-0.1V19.2z M30,41.3
		c-1.6,0-3.1,0-4.7,0c-1.7,0-3.4,0-5.1,0c-0.8,0-1.3-0.5-1.3-1.2c0-0.7,0.5-1.1,1.3-1.1c1.2,0,2.4,0,3.8,0v-1.7h1.4h0.3h0.7V39
		c1.3,0,2.5,0,3.8,0c0.8,0,1.3,0.5,1.3,1.1C31.2,40.8,30.7,41.3,30,41.3z M33.9,30.1c-1.2,3.9-5,6.6-9,6.5v0
		c-3.9,0.1-7.6-2.6-8.8-6.5c-0.7-2.5-0.6-5-0.4-7.7c0.5,0,2.6,0,2.6,0c0.1,0,0.2,0.1,0.3,0.2c0.1,0.1,0.1,0.2,0.1,0.3v2.1
		c0,0.1,0,0.1,0,0.2c0,0.1-0.1,0.2-0.2,0.3c-0.1,0-0.1,0.1-0.2,0.1h-0.3c0,0.9-0.1,1.8,0,2.7c0.4,3.3,3.1,6.2,7,6.2
		c4.2,0,6.8-2.9,7.2-6.2c0.1-0.9,0-1.8,0-2.7h-0.4c-0.3,0-0.5-0.2-0.5-0.5v-2.1c0-0.1,0.1-0.3,0.2-0.4c0.1,0,0.1-0.1,0.2-0.1
		c0,0,2.1,0,2.7,0C34.5,25.1,34.6,27.6,33.9,30.1z"/>
</g>
</svg>
