<?xml version="1.0" encoding="utf-8"?>
<!-- Generator: Adobe Illustrator 24.0.1, SVG Export Plug-In . SVG Version: 6.00 Build 0)  -->
<svg version="1.1" id="Layer_1" xmlns="http://www.w3.org/2000/svg" xmlns:xlink="http://www.w3.org/1999/xlink" x="0px" y="0px"
	 viewBox="0 0 51 51" style="enable-background:new 0 0 51 51;" xml:space="preserve">
<style type="text/css">
	.st0{opacity:0.89;}
	.st1{fill:#EFEFEF;}
</style>
<g id="Group_63" class="st0">
	<path id="Path_258" class="st1" d="M35.9,17.4c-0.4-1.2-1.4-2.1-2.5-2.5c-0.8-0.3-1.6-0.4-2.5-0.5c-1.4-0.1-1.8-0.1-5.4-0.1
		s-4,0-5.4,0.1c-0.8,0-1.7,0.2-2.5,0.5c-1.2,0.4-2.1,1.4-2.5,2.5c-0.3,0.8-0.4,1.6-0.5,2.5c-0.1,1.4-0.1,1.8-0.1,5.4s0,4,0.1,5.4
		c0,0.8,0.2,1.7,0.5,2.5c0.4,1.2,1.4,2.1,2.5,2.5c0.8,0.3,1.6,0.4,2.5,0.5c1.4,0.1,1.8,0.1,5.4,0.1s4,0,5.4-0.1
		c0.8,0,1.7-0.2,2.5-0.5c1.2-0.4,2.1-1.4,2.5-2.5c0.3-0.8,0.4-1.6,0.5-2.5c0.1-1.4,0.1-1.8,0.1-5.4s0-4-0.1-5.4
		C36.4,19,36.2,18.2,35.9,17.4z M25.5,32.1c-3.8,0-6.9-3.1-6.9-6.9s3.1-6.9,6.9-6.9c3.8,0,6.9,3.1,6.9,6.9
		C32.4,29.1,29.3,32.1,25.5,32.1C25.5,32.1,25.5,32.1,25.5,32.1L25.5,32.1z M32.6,19.8c-0.9,0-1.6-0.7-1.6-1.6
		c0-0.9,0.7-1.6,1.6-1.6c0.9,0,1.6,0.7,1.6,1.6S33.5,19.8,32.6,19.8C32.6,19.8,32.6,19.8,32.6,19.8L32.6,19.8z"/>
	<ellipse id="Ellipse_32" class="st1" cx="25.5" cy="25.3" rx="4.4" ry="4.4"/>
	<path id="Path_259" class="st1" d="M25.5,0.3c-13.8,0-25,11.2-25,25s11.2,25,25,25s25-11.2,25-25l0,0C50.5,11.5,39.3,0.3,25.5,0.3z
		 M38.8,30.8c0,1.1-0.2,2.2-0.6,3.2c-0.7,1.8-2.1,3.2-3.9,3.9c-1,0.4-2.1,0.6-3.2,0.6c-1.4,0.1-1.9,0.1-5.5,0.1s-4.1,0-5.5-0.1
		c-1.1,0-2.2-0.2-3.2-0.6c-1.8-0.7-3.2-2.1-3.9-3.9c-0.4-1-0.6-2.1-0.6-3.2c-0.1-1.4-0.1-1.9-0.1-5.5s0-4.1,0.1-5.5
		c0-1.1,0.2-2.2,0.6-3.2c0.7-1.8,2.1-3.2,3.9-3.9c1-0.4,2.1-0.6,3.2-0.6c1.4-0.1,1.9-0.1,5.5-0.1s4.1,0,5.5,0.1
		c1.1,0,2.2,0.2,3.2,0.6c1.8,0.7,3.2,2.1,3.9,3.9c0.4,1,0.6,2.1,0.6,3.2c0.1,1.4,0.1,1.9,0.1,5.5S38.8,29.4,38.8,30.8L38.8,30.8z"/>
</g>
</svg>
