<?xml version="1.0" encoding="utf-8"?>
<!-- Generator: Adobe Illustrator 27.9.0, SVG Export Plug-In . SVG Version: 6.00 Build 0)  -->
<svg version="1.1" id="Layer_1" xmlns="http://www.w3.org/2000/svg" xmlns:xlink="http://www.w3.org/1999/xlink" x="0px" y="0px"
	 viewBox="0 0 51 51" style="enable-background:new 0 0 51 51;" xml:space="preserve">
<style type="text/css">
	.st0{opacity:0.89;fill:#EFEFEF;enable-background:new    ;}
</style>
<g>
	<polygon class="st0" points="25.9,23.3 19.1,13.5 15.5,13.5 23.9,25.6 25,27.1 25,27.1 32.3,37.5 35.9,37.5 27,24.8 	"/>
	<path class="st0" d="M25.5,0.5c-13.8,0-25,11.2-25,25s11.2,25,25,25s25-11.2,25-25S39.3,0.5,25.5,0.5z M30.9,39.3l-7.3-10.7
		l-9.2,10.7H12L22.5,27L12,11.7h8l7,10.1l8.7-10.1h2.4l-10,11.7h0L39,39.3H30.9z"/>
</g>
</svg>
