<?xml version="1.0" encoding="utf-8"?>
<!-- Generator: Adobe Illustrator 24.0.1, SVG Export Plug-In . SVG Version: 6.00 Build 0)  -->
<svg version="1.1" id="Layer_1" xmlns="http://www.w3.org/2000/svg" xmlns:xlink="http://www.w3.org/1999/xlink" x="0px" y="0px"
	 viewBox="0 0 51 51" style="enable-background:new 0 0 51 51;" xml:space="preserve">
<style type="text/css">
	.st0{opacity:0.89;fill:#EFEFEF;enable-background:new    ;}
</style>
<path id="Path_261" class="st0" d="M25.5,0.3c-13.8,0-25,11.2-25,25s11.2,25,25,25s25-11.2,25-25l0,0C50.5,11.5,39.3,0.3,25.5,0.3z
	 M18.5,37.9h-5.3V21h5.3L18.5,37.9z M15.9,18.7c-1.7,0-3-1.4-3-3s1.4-3,3-3c1.7,0,3,1.4,3,3c0,0,0,0,0,0
	C18.9,17.4,17.6,18.7,15.9,18.7C15.9,18.7,15.9,18.7,15.9,18.7L15.9,18.7z M38.2,37.9h-5.2v-8.2c0-2,0-4.5-2.7-4.5
	c-2.7,0-3.1,2.1-3.1,4.3v8.4h-5.2V21h5v2.3h0.1c1-1.8,2.9-2.8,5-2.7c5.3,0,6.3,3.5,6.3,8L38.2,37.9z"/>
</svg>
