<?xml version="1.0" encoding="utf-8"?>
<!-- Generator: Adobe Illustrator 24.0.1, SVG Export Plug-In . SVG Version: 6.00 Build 0)  -->
<svg version="1.1" id="Layer_1" xmlns="http://www.w3.org/2000/svg" xmlns:xlink="http://www.w3.org/1999/xlink" x="0px" y="0px"
	 viewBox="0 0 51 51" style="enable-background:new 0 0 51 51;" xml:space="preserve">
<style type="text/css">
	.st0{opacity:0.89;}
	.st1{fill:#EFEFEF;}
</style>
<g id="Group_62" class="st0">
	<g id="Group_61" transform="translate(0 0)">
		<path id="Path_256" class="st1" d="M25.5,0.3c-13.8,0-25,11.2-25,25s11.2,25,25,25s25-11.2,25-25l0,0C50.5,11.5,39.3,0.3,25.5,0.3
			z M39.6,26.7c0,1.5-0.1,3.1-0.3,4.6c-0.1,1-0.5,2-1.1,2.8c-0.7,0.8-1.8,1.2-2.8,1.2c-3.9,0.3-9.9,0.3-9.9,0.3s-7.3-0.1-9.6-0.3
			c-1.1,0-2.3-0.4-3.1-1.2c-0.6-0.8-1-1.8-1.1-2.8c-0.2-1.5-0.3-3-0.3-4.6v-2.1c0-1.5,0.1-3.1,0.3-4.6c0.1-1,0.5-2,1.1-2.8
			c0.7-0.8,1.8-1.2,2.8-1.2c3.9-0.3,9.9-0.3,9.9-0.3h0c0,0,5.9,0,9.9,0.3c1.1,0,2.1,0.4,2.8,1.2c0.6,0.8,1,1.8,1.1,2.8
			c0.2,1.5,0.3,3,0.3,4.6L39.6,26.7z"/>
	</g>
	<path id="Path_257" class="st1" d="M22.6,21.4v7.9l7.6-4L22.6,21.4z"/>
</g>
</svg>
