<?xml version="1.0" encoding="utf-8"?>
<!-- Generator: Adobe Illustrator 24.0.1, SVG Export Plug-In . SVG Version: 6.00 Build 0)  -->
<svg version="1.1" id="Layer_1" xmlns="http://www.w3.org/2000/svg" xmlns:xlink="http://www.w3.org/1999/xlink" x="0px" y="0px"
	 viewBox="0 0 51 51" style="enable-background:new 0 0 51 51;" xml:space="preserve">
<style type="text/css">
	.st0{opacity:0.89;fill:#EFEFEF;enable-background:new    ;}
</style>
<path id="Path_254" class="st0" d="M25.5,0.3c-13.8,0-25,11.2-25,25s11.2,25,25,25s25-11.2,25-25l0,0C50.5,11.5,39.3,0.3,25.5,0.3z
	 M34.1,14.3H31c-2.4,0-2.9,1.2-2.9,2.9v3.7h5.8l-0.8,5.9h-5.1v15h-6v-15h-5.1v-5.9H22v-4.3c0-5,3.1-7.7,7.5-7.7c1.5,0,3,0.1,4.5,0.2
	V14.3z"/>
</svg>
