<?xml version="1.0" encoding="utf-8"?>
<!-- Generator: Adobe Illustrator 27.9.0, SVG Export Plug-In . SVG Version: 6.00 Build 0)  -->
<svg version="1.1" id="Layer_1" xmlns="http://www.w3.org/2000/svg" xmlns:xlink="http://www.w3.org/1999/xlink" x="0px" y="0px"
	 viewBox="0 0 51 51" style="enable-background:new 0 0 51 51;" xml:space="preserve">
<style type="text/css">
	.st0{opacity:0.89;fill:#EFEFEF;enable-background:new    ;}
</style>
<g>
	<path class="st0" d="M26.1,25.9c-2.3,0.1-3.8,1.2-3.7,2.7c0.1,1.6,1.9,2.3,3.5,2.3c1.6-0.1,3.6-0.7,3.9-4.7C29,26,28,25.9,27,25.9
		C26.7,25.9,26.4,25.9,26.1,25.9z"/>
	<path class="st0" d="M25.5,0.5c-13.8,0-25,11.2-25,25s11.2,25,25,25s25-11.2,25-25S39.3,0.5,25.5,0.5z M17.4,34.6
		c1.8,2.3,4.6,3.4,8.3,3.5c3.3,0,5.6-0.8,7.4-2.6c2.1-2.1,2.1-4.6,1.4-6.1c-0.4-0.9-1.1-1.7-2.1-2.2c-0.2,1.7-0.8,3.1-1.6,4.2
		c-1.1,1.4-2.7,2.2-4.8,2.3c-1.5,0.1-3-0.3-4.2-1c-1.4-0.9-2.1-2.2-2.2-3.8c-0.1-1.5,0.5-2.9,1.7-3.9c1.1-1,2.7-1.5,4.6-1.6
		c1.4-0.1,2.7,0,3.8,0.2c-0.2-0.9-0.5-1.7-1-2.2c-0.7-0.7-1.7-1.1-3-1.1c0,0,0,0,0,0c-1.1,0-2.5,0.3-3.5,1.7l-2.2-1.5
		c1.2-1.9,3.3-2.9,5.7-2.9c0,0,0,0,0.1,0c4.1,0,6.5,2.5,6.7,6.9c0.1,0.1,0.3,0.1,0.4,0.2c1.9,0.9,3.3,2.2,4,3.9c1,2.3,1.1,6.1-2,9.1
		c-2.4,2.3-5.2,3.3-9.3,3.4h0h0c-4.6,0-8.1-1.5-10.4-4.5c-2.1-2.6-3.2-6.3-3.2-10.8v0c0-4.6,1.1-8.2,3.2-10.8
		c2.4-2.9,5.9-4.4,10.4-4.5h0h0c3.5,0,6.4,0.9,8.7,2.7c2.1,1.6,3.6,4,4.5,7l-2.6,0.7c-1.4-5-5-7.6-10.6-7.7c-3.7,0-6.5,1.2-8.3,3.5
		c-1.7,2.1-2.6,5.2-2.6,9.1C14.8,29.4,15.7,32.5,17.4,34.6z"/>
</g>
</svg>
