<svg width="320" height="320" viewBox="0 0 320 320" fill="none" xmlns="http://www.w3.org/2000/svg">
<path d="M173.832 79.0098C178.795 89.965 178.37 102.055 175.048 109.805L200.525 111.294C204.067 96.6983 202.445 81.3257 195.934 67.7905C188.445 51.9882 175.01 39.7882 158.562 33.8506C142.113 27.913 123.984 28.7194 108.127 36.094C92.2709 43.4686 79.973 56.8132 73.9154 73.218C67.8579 89.6228 68.5318 107.757 75.7904 123.667C76.1626 124.485 76.6925 125.22 77.3496 125.833C78.0067 126.445 78.7782 126.921 79.6198 127.234C80.4614 127.548 81.3566 127.692 82.2541 127.658C83.1515 127.625 84.0336 127.415 84.8496 127.04L94.9424 122.419C95.7594 122.047 96.4949 121.517 97.1069 120.86C97.7187 120.202 98.195 119.431 98.5085 118.59C98.8219 117.748 98.9664 116.853 98.9334 115.956C98.9006 115.058 98.6911 114.176 98.3168 113.36L97.1069 111L81.5 99.5C81.5 99.5 74.5 93.5 75.7904 85.5C77.0808 77.5 84.5 77 84.5 77L100.923 74.0194C105.307 67.1212 111.606 61.6501 119.05 58.2754C129.068 53.7908 140.454 53.4543 150.719 57.3396C160.984 61.2248 169.294 69.0159 173.832 79.0098Z" fill="#FFE67E"/>
<path d="M179.141 196.61C180.038 196.576 182.184 195.874 183 195.5L193 167L192 159L191.5 149.5L194.5 131L168.5 129L165.898 144.584L169.454 184.378C170.379 187.18 171.456 189.93 172.677 192.616C173.048 193.434 173.578 194.17 174.235 194.783L176.5 196.5L179.141 196.61Z" fill="#FFE67E"/>
<path d="M150.88 232.259C152.501 227.301 153.563 219.644 153.5 214.5L150.5 202L147.5 214.5L145 215.5V219.5L150.88 232.259Z" fill="#FFE67E"/>
<path d="M150.272 201.159C153.98 211.16 154.195 222.122 150.88 232.259" stroke="#101E2C" stroke-linecap="round" stroke-linejoin="round"/>
<path d="M90.6701 261.827C98.6787 264.651 107.304 265.251 115.626 263.562L127.5 259.5L138 252L125.5 227.5L124.5 221.5L126.013 174.952C118.307 171.384 109.777 169.971 101.332 170.867C92.8875 171.763 84.8438 174.933 78.0581 180.039C71.2723 185.144 65.9984 191.995 62.7983 199.863C59.5983 207.728 58.5917 216.315 59.8859 224.707C61.1802 233.101 64.7266 240.986 70.1477 247.522C75.5688 254.059 82.6615 259.003 90.6701 261.827Z" fill="#FFE67E"/>
<path d="M137.93 252.232C131.657 257.957 123.948 261.872 115.626 263.562C107.304 265.251 98.6787 264.651 90.6701 261.827C82.6615 259.003 75.5688 254.059 70.1477 247.522C64.7266 240.986 61.1802 233.101 59.8859 224.707C58.5917 216.315 59.5983 207.728 62.7983 199.863C65.9984 191.995 71.2723 185.144 78.0581 180.039C84.8438 174.933 92.8875 171.763 101.332 170.867C109.777 169.971 118.307 171.384 126.013 174.952" stroke="#101E2C" stroke-linecap="round" stroke-linejoin="round"/>
<path d="M165.35 36.7825C164.539 39.2612 164.317 41.8951 164.701 44.475C165.086 47.0546 166.067 49.5092 167.566 51.6433L164.317 59.9793L172.677 56.6641C175.355 58.4174 178.39 59.551 181.562 59.9822C184.733 60.4135 187.962 60.1314 191.01 59.1569C184.581 49.5655 175.728 41.8462 165.35 36.7825Z" fill="#9FC7EA"/>
<path d="M120.874 85.3025C120.144 85.1809 119.354 84.9985 118.442 84.8225L120.874 85.3025Z" fill="#DEE7F3"/>
<path d="M86.9472 14.5905C87.892 16.6292 88.2111 18.9023 87.8639 21.1225C87.5165 23.3425 86.5187 25.4097 84.9965 27.0627C83.4744 28.7155 81.4962 29.8799 79.3122 30.4084C77.1282 30.9369 74.8365 30.8059 72.7269 30.0318C70.6175 29.2577 68.785 27.8755 67.4611 26.0598C66.1373 24.2441 65.3816 22.0766 65.2898 19.8315C65.1979 17.5863 65.7739 15.3644 66.945 13.4466C68.116 11.5289 69.8296 10.0015 71.8688 9.0577C74.6021 7.79266 77.7259 7.66486 80.5535 8.70238C83.381 9.7399 85.6808 11.8578 86.9472 14.5905Z" fill="#DEE7F3"/>
<path d="M158.08 176.747L169.45 184.408L190.365 200.368C194.125 197.631 197.547 194.456 200.56 190.912C202.797 188.248 204.73 185.343 206.32 182.25C206.32 182.25 200.67 175.344 192.88 167.232C184.587 158.592 171.782 146.378 161.811 142.73C151.203 149.083 140.503 151.879 129.803 150.816C125.93 171.693 123.613 192.829 122.87 214.05C130.87 215.88 139.145 216.17 147.253 214.901L153.12 188.208C154.114 184.135 155.791 180.259 158.08 176.747Z" fill="#DEE7F3"/>
<path d="M161.811 142.73C151.202 149.083 140.501 151.88 129.8 150.816M161.811 142.73C171.782 146.378 184.587 158.592 192.88 167.232C200.67 175.344 206.32 182.25 206.32 182.25C204.73 185.343 202.797 188.248 200.56 190.912C197.547 194.456 194.125 197.631 190.365 200.368L169.45 184.408L158.08 176.747C155.791 180.259 154.114 184.135 153.12 188.208L147.253 214.901C139.145 216.17 130.87 215.88 122.87 214.05C123.613 192.829 125.93 171.693 129.803 150.816C140.503 151.879 151.203 149.083 161.811 142.73Z" stroke="#101E2C" stroke-linecap="round" stroke-linejoin="round"/>
<path d="M158.08 176.747C155.803 180.266 154.127 184.139 153.12 188.208L152.086 172.431L158.08 176.747Z" fill="#9FC7EA"/>
<path d="M244.726 163.189L236.886 168.479C240.598 173.293 243.952 178.373 246.918 183.679L249.381 182.067C252.117 180.243 255.126 179.97 258.41 179.667C264.461 179.09 274.89 176.384 284.251 173.131C274.338 168.661 258.072 164.891 244.726 163.189Z" fill="#9FC7EA"/>
<path d="M160.091 262.386C155.351 264.762 150.366 266.616 145.226 267.919L146.077 270.413C147.658 275.247 147.566 280.96 147.87 286.008C148.153 292.498 148.844 298.965 149.938 305.368C157.963 292.235 161.429 280.347 164.986 271.623L160.091 262.386Z" fill="#9FC7EA"/>
<path d="M114.915 71.8945C113.456 71.7137 112.544 73.2929 112.088 74.9345C113.202 74.9397 114.293 75.2435 115.25 75.8145C116.922 76.7889 118.29 77.5473 119.57 78.1873C118.381 74.6017 116.587 72.1089 114.915 71.8945Z" fill="#9FC7EA"/>
<path d="M112.939 87.613C114.246 91.5346 116.283 94.1186 118.077 93.8146C119.019 93.6626 119.749 92.7506 120.235 91.3522C118.442 90.349 115.341 88.829 112.939 87.613Z" fill="#9FC7EA"/>
<path d="M145.894 76.4562C146.046 74.7234 143.827 73.8962 142.459 75.6962C142.49 74.0226 139.814 73.4146 138.325 75.5442C138.173 73.749 135.125 73.8722 133.886 75.7858C133.734 74.2066 131.09 74.845 130.421 77.1538C130.026 78.5522 129.661 79.8914 129.326 81.1378C133.035 81.2594 136.622 81.0146 137.838 81.077C138.355 81.1074 138.814 81.8962 135.957 82.717C136.17 82.9485 136.433 83.1293 136.725 83.2462C137.018 83.3634 137.333 83.4134 137.647 83.3933C137.961 83.373 138.267 83.2829 138.542 83.1293C138.817 82.9757 139.055 82.7627 139.237 82.5058C139.097 83.0554 138.995 83.6141 138.933 84.1778C139.45 84.4802 139.45 84.8178 138.872 85.1202C138.872 86.2402 139.206 86.7314 139.966 85.4242C141.395 83.053 144.192 85.2114 141.79 88.2818C141.385 88.9379 141.178 89.6976 141.194 90.4688C141.21 91.2402 141.449 91.9902 141.882 92.629C143.548 88.0558 145.774 83.7066 148.509 79.6802C150.576 76.0002 148.022 74.7202 145.894 76.4562Z" fill="#9FC7EA"/>
<path d="M168.542 128.622L159.027 127.954L158.389 124.549L168.542 128.622Z" fill="#9FC7EA"/>
<path d="M108.379 95.0913L98.3472 96.4289L114.24 99.1041C110.842 96.8545 108.349 95.0913 108.379 95.0913Z" fill="#9FC7EA"/>
<path d="M136.014 97.4929L133.363 101.567C133.493 100.527 133.566 99.4822 133.582 98.4353C133.552 98.4657 134.981 97.9201 136.014 97.4929Z" fill="#9FC7EA"/>
<path d="M262.602 74.3586C262.691 74.5812 262.714 74.8256 262.666 75.0608C262.618 75.2962 262.499 75.5117 262.33 75.6804C262.158 75.849 261.941 75.9631 261.704 76.0084C261.469 76.0535 261.224 76.0276 261.003 75.934C260.782 75.8404 260.594 75.6832 260.461 75.4824C260.33 75.2816 260.261 75.0463 260.262 74.806C260.264 74.5658 260.338 74.3316 260.472 74.1328C260.606 73.9341 260.798 73.7799 261.021 73.6898C261.168 73.628 261.326 73.5964 261.486 73.5967C261.646 73.597 261.805 73.6292 261.952 73.6916C262.099 73.7538 262.232 73.8448 262.344 73.9594C262.456 74.074 262.544 74.2098 262.602 74.3586Z" fill="#9FC7EA"/>
<path d="M213.718 219.613C214.888 221.99 215.326 224.662 214.978 227.29C214.629 229.915 213.509 232.381 211.758 234.371C210.01 236.362 207.709 237.789 205.149 238.47C202.589 239.154 199.883 239.062 197.374 238.208C194.866 237.354 192.667 235.774 191.056 233.67C189.446 231.566 188.494 229.032 188.325 226.387C188.154 223.742 188.771 221.107 190.099 218.814C191.427 216.52 193.405 214.672 195.782 213.502C198.971 211.936 202.651 211.699 206.014 212.845C209.378 213.99 212.149 216.426 213.718 219.613Z" fill="#FFE67E"/>
<path d="M175.048 109.805C178.37 102.055 178.795 89.965 173.832 79.0098C169.294 69.0159 160.984 61.2248 150.719 57.3396C140.454 53.4543 129.068 53.7908 119.05 58.2754C111.606 61.6501 105.307 67.1212 100.923 74.0194" stroke="#101E2C" stroke-linecap="round" stroke-linejoin="round"/>
<path d="M165.898 144.584C166.51 139.213 167.472 133.887 168.778 128.64" stroke="#101E2C" stroke-linecap="round" stroke-linejoin="round"/>
<path d="M183.56 195.17L181.736 195.991" stroke="#101E2C" stroke-linecap="round" stroke-linejoin="round"/>
<path d="M181.736 195.991C180.92 196.365 180.038 196.576 179.141 196.61C178.243 196.642 177.347 196.498 176.506 196.184C175.664 195.871 174.893 195.396 174.235 194.783C173.578 194.17 173.048 193.434 172.677 192.616C171.456 189.93 170.379 187.18 169.454 184.378" stroke="#101E2C" stroke-linecap="round" stroke-linejoin="round"/>
<path d="M194.56 130.477C192.491 139.117 190.302 153.037 192.886 167.232" stroke="#101E2C" stroke-linecap="round" stroke-linejoin="round"/>
<path d="M200.525 111.294C204.067 96.6983 202.445 81.3257 195.934 67.7905C188.445 51.9882 175.01 39.7882 158.562 33.8506C142.113 27.913 123.984 28.7194 108.127 36.094C92.2709 43.4686 79.973 56.8132 73.9154 73.218C67.8579 89.6228 68.5318 107.757 75.7904 123.667C76.1626 124.485 76.6925 125.22 77.3496 125.833C78.0067 126.445 78.7782 126.921 79.6198 127.234C80.4614 127.548 81.3566 127.692 82.2541 127.658C83.1515 127.625 84.0336 127.415 84.8496 127.04L94.9424 122.419C95.7594 122.047 96.4949 121.517 97.1069 120.86C97.7187 120.202 98.195 119.431 98.5085 118.59C98.8219 117.748 98.9664 116.853 98.9334 115.956C98.9006 115.058 98.6911 114.176 98.3168 113.36C97.8621 112.433 97.4661 111.479 97.1312 110.502" stroke="#101E2C" stroke-linecap="round" stroke-linejoin="round"/>
<path d="M158.08 176.747L169.45 184.408L190.365 200.368C194.125 197.631 197.547 194.456 200.56 190.912C202.797 188.248 204.73 185.343 206.32 182.25C206.32 182.25 200.67 175.344 192.88 167.232C184.587 158.592 171.782 146.378 161.811 142.73" stroke="#101E2C" stroke-linecap="round" stroke-linejoin="round"/>
<path d="M153.13 188.178L152.096 172.431L158.085 176.747" stroke="#101E2C" stroke-linecap="round" stroke-linejoin="round"/>
<path d="M129.813 150.816C125.94 171.693 123.623 192.829 122.88 214.05C130.88 215.88 139.155 216.17 147.262 214.901L153.13 188.208C154.123 184.135 155.8 180.259 158.09 176.747" stroke="#101E2C" stroke-linecap="round" stroke-linejoin="round"/>
<path d="M236.853 168.448C240.576 173.254 243.93 178.336 246.885 183.648" stroke="#101E2C" stroke-linecap="round" stroke-linejoin="round"/>
<path d="M205.662 183.496C211.165 181.003 226.365 174.163 236.853 168.448L248.678 160.514C261.872 161.547 282.424 166.229 288.534 171.458C278.909 175.541 268.773 178.301 258.406 179.666C255.245 179.702 252.141 180.526 249.378 182.066L246.915 183.646C235.971 190.73 222.202 199.006 213.779 203.954C211.214 205.466 208.245 206.147 205.278 205.902C202.31 205.658 199.493 204.498 197.211 202.586L192.528 198.694" stroke="#101E2C" stroke-linecap="round" stroke-linejoin="round"/>
<path d="M36.208 158.082L44.9936 176.383" stroke="#101E2C" stroke-linecap="round" stroke-linejoin="round"/>
<path d="M49.7664 162.824L31.4656 171.61" stroke="#101E2C" stroke-linecap="round" stroke-linejoin="round"/>
<path d="M145.226 267.919C150.366 266.616 155.351 264.762 160.091 262.386" stroke="#101E2C" stroke-linecap="round" stroke-linejoin="round"/>
<path d="M125.314 214.536L124.949 219.096C124.701 222.41 125.319 225.731 126.742 228.733L142.824 262.416C144.114 265.003 145.202 267.687 146.077 270.442C147.677 275.242 147.566 280.962 147.87 286.039C148.163 292.528 148.853 298.994 149.938 305.399C150.339 307.586 150.819 309.776 151.427 311.995C160.334 298.103 163.314 285.487 166.84 276.975C166.371 275.152 165.752 273.371 164.986 271.653C160.128 262.482 159.677 262.095 158.602 257.791C151.475 228.611 145.528 221.179 145.072 220.642L145.317 215.17" stroke="#101E2C" stroke-linecap="round" stroke-linejoin="round"/>
<path d="M218.4 124.762C222.616 122.26 226.558 119.326 230.165 116.007" stroke="#101E2C" stroke-linecap="round" stroke-linejoin="round"/>
<path d="M236.214 119.29C235.12 119.685 234.056 119.989 233.022 120.323" stroke="#101E2C" stroke-linecap="round" stroke-linejoin="round"/>
<path d="M225.514 127.954C229.155 125.804 231.971 122.497 233.514 118.56" stroke="#101E2C" stroke-linecap="round" stroke-linejoin="round"/>
<path d="M209.614 114.456C213.019 114.882 223.445 115.823 228.645 111.933C235.149 107.067 236.026 108.456 231.168 114.821C230.866 115.218 230.528 115.611 230.134 116.037C233.059 115.727 235.963 115.24 238.829 114.578C244.938 113.202 246.074 114.597 239.65 117.831C238.534 118.386 237.387 118.873 236.214 119.29C237.856 119.199 239.65 118.987 241.626 118.682C247.328 117.8 247.79 118.957 244.514 120.565C239.848 122.561 234.909 123.842 229.861 124.367" stroke="#101E2C" stroke-linecap="round" stroke-linejoin="round"/>
<path d="M231.168 127.559C233.509 127.559 237.43 129.779 230.499 130.021C223.538 130.266 212.837 129.869 208.338 129.656" stroke="#101E2C" stroke-linecap="round" stroke-linejoin="round"/>
<path d="M239.586 122.422C244.909 121.874 244.336 123.917 238.677 125.856C234.424 127.229 229.982 127.937 225.514 127.954" stroke="#101E2C" stroke-linecap="round" stroke-linejoin="round"/>
<path d="M86.9472 14.5905C87.892 16.6292 88.2111 18.9023 87.8639 21.1225C87.5165 23.3425 86.5187 25.4097 84.9965 27.0627C83.4744 28.7155 81.4962 29.8799 79.3122 30.4084C77.1282 30.9369 74.8365 30.8059 72.7269 30.0318C70.6175 29.2577 68.785 27.8755 67.4611 26.0598C66.1373 24.2441 65.3816 22.0766 65.2898 19.8315C65.1979 17.5863 65.7739 15.3644 66.945 13.4466C68.116 11.5289 69.8296 10.0015 71.8688 9.0577C74.6021 7.79266 77.7259 7.66486 80.5535 8.70238C83.381 9.7399 85.6808 11.8578 86.9472 14.5905Z" stroke="#101E2C" stroke-linecap="round" stroke-linejoin="round"/>
<path d="M73.3888 12.3408L76.6416 19.3632L83.512 16.1712" stroke="#101E2C" stroke-linecap="round" stroke-linejoin="round"/>
<path d="M200.525 111.294C201.995 117.788 201.595 124.566 199.37 130.842" stroke="#101E2C" stroke-linecap="round" stroke-linejoin="round"/>
<path d="M114.126 71.9521L85.944 76.3649C83.5624 76.7329 81.3439 77.8008 79.5707 79.4329C77.7976 81.0649 76.5498 83.1873 75.9861 85.5304C75.4223 87.8734 75.568 90.3313 76.4047 92.5913C77.2415 94.8513 78.7312 96.8115 80.6848 98.2225L122.424 129.44L129.813 150.816" stroke="#101E2C" stroke-linecap="round" stroke-linejoin="round"/>
<path d="M120.235 91.36C119.755 92.7584 119.019 93.6672 118.077 93.8224C114.608 94.3968 112.317 86.3968 111.784 82.5584C111.282 78.9056 111.576 71.4816 114.915 71.9024C116.589 72.1136 118.381 74.6096 119.566 78.1968" stroke="#101E2C" stroke-linecap="round" stroke-linejoin="round"/>
<path d="M112.058 74.936C113.172 74.9372 114.265 75.242 115.219 75.8176C118.539 77.8135 122.017 79.5319 125.619 80.9552C128.755 82.1327 132.021 82.9288 135.347 83.3264C136.422 83.4784 138.949 83.9136 139.24 84.544C139.627 85.3792 136.437 85.8496 135.53 85.9712C133.554 86.23 131.557 86.281 129.571 86.1232C126.654 86.1312 123.743 85.8666 120.875 85.3328C120.675 85.9469 120.686 86.6103 120.906 87.2176C121.685 88.6832 123.57 90.6288 124.008 91.4432C125.013 93.3136 126.058 95.4624 121.331 92.0208C120.186 91.1856 114.634 88.4576 112.941 87.6128" stroke="#101E2C" stroke-linecap="round" stroke-linejoin="round"/>
<path d="M138.928 84.2481C138.99 83.6709 139.093 83.0987 139.237 82.5361C139.054 82.7933 138.817 83.0064 138.542 83.1601C138.267 83.3139 137.96 83.4041 137.646 83.4246C137.331 83.4449 137.016 83.3949 136.723 83.2781C136.431 83.1611 136.168 82.9803 135.954 82.7489" stroke="#101E2C" stroke-linecap="round" stroke-linejoin="round"/>
<path d="M138.902 85.1313C138.902 86.2513 139.238 86.7313 139.997 85.4241C141.395 83.0241 144.192 85.1809 141.821 88.2817C141.415 88.9289 141.206 89.68 141.219 90.4438C141.232 91.2077 141.467 91.9512 141.894 92.5841C143.493 88.14 145.649 83.9164 148.31 80.0145C150.664 76.1457 148.15 74.6193 145.894 76.4945C146.046 74.7617 143.827 73.9345 142.459 75.7345C142.49 74.0625 139.814 73.4545 138.325 75.5825C138.173 73.7889 135.125 73.9105 133.886 75.8257C133.734 74.2449 131.082 74.8801 130.421 77.1937C130.021 78.5905 129.661 79.9297 129.326 81.1761" stroke="#101E2C" stroke-linecap="round" stroke-linejoin="round"/>
<path d="M141.882 92.6594C140.149 98.3442 140.453 104.303 147.566 107.13C142.368 110.778 135.376 110.565 129.752 107.647C132.853 108.083 133.552 101.543 133.552 98.4658C132.754 98.7082 131.923 98.821 131.09 98.8002C127.168 98.8002 126.195 95.2434 128.171 86.0322" stroke="#101E2C" stroke-linecap="round" stroke-linejoin="round"/>
<path d="M159.027 127.954L158.389 124.549L168.542 128.622" stroke="#101E2C" stroke-linecap="round" stroke-linejoin="round"/>
<path d="M114.246 99.1041L98.3168 96.4289L108.349 95.0913" stroke="#101E2C" stroke-linecap="round" stroke-linejoin="round"/>
<path d="M129.76 107.646C129.561 107.623 129.367 107.572 129.182 107.494C123.357 105.123 113.149 98.5217 108.357 95.0913L118.085 93.8113" stroke="#101E2C" stroke-linecap="round" stroke-linejoin="round"/>
<path d="M120.874 85.333C120.144 85.2114 119.354 84.9986 118.442 84.8162" stroke="#101E2C" stroke-linecap="round" stroke-linejoin="round"/>
<path d="M125.44 80.864L129.331 81.168C133.04 81.2896 136.626 81.0768 137.843 81.1072C138.36 81.12 138.819 81.896 135.962 82.7168L134.362 83.1696" stroke="#101E2C" stroke-linecap="round" stroke-linejoin="round"/>
<path d="M103.971 73.6897C102.784 77.2855 102.46 81.1103 103.025 84.8547C103.59 88.599 105.029 92.1579 107.224 95.2433" stroke="#101E2C" stroke-linecap="round" stroke-linejoin="round"/>
<path d="M133.552 98.4657C133.552 98.4657 135.011 97.9185 136.014 97.4929L133.363 101.567" stroke="#101E2C" stroke-linecap="round" stroke-linejoin="round"/>
<path d="M184.563 23.893C175.504 23.8018 167.813 29.2434 165.35 36.7826C164.541 39.2616 164.32 41.8952 164.704 44.4746C165.09 47.0539 166.069 49.5083 167.566 51.6434L164.317 59.9474L172.677 56.6338C175.355 58.3871 178.39 59.5207 181.562 59.9519C184.733 60.3832 187.962 60.1011 191.01 59.1266C194.718 58.065 197.997 55.8591 200.376 52.8237C202.757 49.7883 204.117 46.0787 204.264 42.2242C204.355 32.2226 195.539 23.9842 184.563 23.893Z" stroke="#101E2C" stroke-linecap="round" stroke-linejoin="round"/>
<path d="M259.258 70.0418C258.618 68.613 258.68 67.3042 259.379 64.0818C260.859 57.261 256.942 54.7442 253.573 56.117C252.979 56.3645 252.446 56.7394 252.013 57.2152C251.579 57.6911 251.256 58.256 251.064 58.8706C250.872 59.4852 250.819 60.1343 250.906 60.772C250.992 61.4098 251.218 62.0207 251.566 62.5618" stroke="#101E2C" stroke-linecap="round" stroke-linejoin="round"/>
<path d="M262.602 74.3586C262.691 74.5812 262.714 74.8256 262.666 75.0608C262.618 75.2962 262.499 75.5117 262.33 75.6804C262.158 75.849 261.941 75.9631 261.704 76.0084C261.469 76.0535 261.224 76.0276 261.003 75.934C260.782 75.8404 260.594 75.6832 260.461 75.4824C260.33 75.2816 260.261 75.0463 260.262 74.806C260.264 74.5658 260.338 74.3316 260.472 74.1328C260.606 73.9341 260.798 73.7799 261.021 73.6898C261.168 73.628 261.326 73.5964 261.486 73.5967C261.646 73.597 261.805 73.6292 261.952 73.6916C262.099 73.7538 262.232 73.8448 262.344 73.9594C262.456 74.074 262.544 74.2098 262.602 74.3586Z" stroke="#101E2C" stroke-linecap="round" stroke-linejoin="round"/>
<path d="M129.174 107.494L139.906 128.622L147.566 107.13" stroke="#101E2C" stroke-linecap="round" stroke-linejoin="round"/>
<path d="M147.566 107.13C150.386 108.15 153.354 108.704 156.352 108.771C162.067 109.05 209.25 111.842 209.25 111.842C210.742 121.302 209.79 125.89 207.669 131.389L159.029 127.954L161.826 142.73" stroke="#101E2C" stroke-linecap="round" stroke-linejoin="round"/>
<path d="M145.317 149.691L139.906 128.623" stroke="#101E2C" stroke-linecap="round" stroke-linejoin="round"/>
<path d="M213.718 219.613C214.888 221.99 215.326 224.662 214.978 227.29C214.629 229.915 213.509 232.381 211.758 234.371C210.01 236.362 207.709 237.789 205.149 238.47C202.589 239.154 199.883 239.062 197.374 238.208C194.866 237.354 192.667 235.774 191.056 233.67C189.446 231.566 188.494 229.032 188.325 226.387C188.154 223.742 188.771 221.107 190.099 218.814C191.427 216.52 193.405 214.672 195.782 213.502C198.971 211.936 202.651 211.699 206.014 212.845C209.378 213.99 212.149 216.426 213.718 219.613Z" stroke="#101E2C" stroke-linecap="round" stroke-linejoin="round"/>
</svg>
