<svg xmlns="http://www.w3.org/2000/svg" width="381" height="371.114" viewBox="0 0 381 371.114">
  <g id="Group_11739" data-name="Group 11739" transform="translate(-9.5 -14.446)">
    <circle id="Ellipse_101" data-name="Ellipse 101" cx="117.5" cy="117.5" r="117.5" transform="translate(46 45)" fill="#9fc7ea" opacity="0.3"/>
    <path id="Path_624" data-name="Path 624" d="M350.239,111.736l-20.194,64.282H243.681l20.192-64.282Z" fill="#dee7f3" stroke="#101e2c" stroke-width="1"/>
    <path id="Path_625" data-name="Path 625" d="M282.084,49.84c.112-11.214,10.178-20.206,22.464-20.1s22.166,9.334,22.056,20.548-10.176,20.206-22.462,20.1a23.655,23.655,0,0,1-12.9-3.914l-8.708,3.441.247-.635m-.695-19.44a19.08,19.08,0,0,0,3.442,11l-3.381,8.691.634-.251m-.695-19.44.5.005v0m-.5,0,.5,0v0m.195,19.437,3.213-8.259.1-.249-.153-.219a18.579,18.579,0,0,1-3.352-10.71m.195,19.437,8.277-3.271.242-.1.217.143a23.157,23.157,0,0,0,12.63,3.831h0C316.2,70,326,61.182,326.1,50.287S316.6,30.354,304.543,30.244s-21.849,8.7-21.959,19.6m24.8.217h0a3.131,3.131,0,0,1-.526,1.737h0a3.134,3.134,0,0,1-1.4,1.151h0a3.127,3.127,0,0,1-3.408-.678Zm0,0a3.134,3.134,0,0,0-.918-2.207h0a3.141,3.141,0,0,0-2.208-.919h0a3.128,3.128,0,0,0-1.738.527h0a3.119,3.119,0,0,0-1.152,1.4m6.018,1.195-6.2.612m0,0v0a3.142,3.142,0,0,1,.179-1.805m-.178,1.807a3.122,3.122,0,0,0,.857,1.6Zm.178-1.807.462.191-.462-.191ZM318.29,51.8h0a3.134,3.134,0,0,1-1.4,1.151h0a3.127,3.127,0,0,1-3.408-.678Zm0,0a3.131,3.131,0,0,0,.526-1.737h0M318.29,51.8l.526-1.739m0,0a3.134,3.134,0,0,0-.918-2.207h0m.918,2.208-.918-2.208m0,0a3.141,3.141,0,0,0-2.208-.919h0m2.21.919-2.21-.919m0,0a3.128,3.128,0,0,0-1.738.527h0m1.738-.527-1.738.527m0,0a3.119,3.119,0,0,0-1.152,1.4m1.152-1.4-1.33,3.212m0,0v0a3.142,3.142,0,0,1,.179-1.805m-.178,1.807a3.122,3.122,0,0,0,.857,1.6Zm.178-1.807.462.191-.462-.191ZM295.455,51.8h0a3.131,3.131,0,0,0,.526-1.737h0a3.134,3.134,0,0,0-.918-2.207h0a3.141,3.141,0,0,0-2.208-.919h0a3.128,3.128,0,0,0-1.738.527h0a3.132,3.132,0,0,0-1.331,3.21v0a3.128,3.128,0,0,0,4.265,2.279h0A3.134,3.134,0,0,0,295.455,51.8Z" fill="#ffe67e" stroke="#fff" stroke-width="1"/>
    <path id="Path_626" data-name="Path 626" d="M128.834,319.26c-1.888,2.184-2.834,3.24-2.834,3.24-2.22,10.326.356,42.824,5.5,56,8.2-12.06,10.436-14.276,16.876-41.994l1.776-2.59A72.063,72.063,0,0,1,128.834,319.26Z" fill="#9fc7ea"/>
    <path id="Path_627" data-name="Path 627" d="M71,142.5c-9.51-4.506-41.788-9.484-55.788-7.558C25.5,145.5,26.8,148.282,52.3,160.942l2.072,2.332a71.211,71.211,0,0,1,19.17-17.356C71.878,143.546,72,143.5,71,142.5Z" fill="#9fc7ea"/>
    <path id="Path_628" data-name="Path 628" d="M246.26,64.05a7.686,7.686,0,0,0-1.814-15.062,7.688,7.688,0,0,0-5.254-13.4,7.785,7.785,0,0,0-1.85.258,7.692,7.692,0,0,0-11.324-9.622,7.688,7.688,0,0,0-14.286-4.736c-1.276-8.582-14.35-8.836-15.692-.074A7.7,7.7,0,0,0,181.682,26a7.678,7.678,0,0,0-12.14,6.364,7.221,7.221,0,0,0,.7,3.108A7.68,7.68,0,0,0,163,48.508a7.676,7.676,0,0,0-1.924,15.026,7.668,7.668,0,0,0,1.886,15.024,7.7,7.7,0,0,0,7.18,13.1,7.721,7.721,0,0,0,3.182,10c4.6-5.812,9.438-8,13.88-8.216,13.766-.63,16.32-7.772,17.762-16.32l-4.144-.038c-2.442,0-4.4-3.7-4.4-8.252s1.962-8.254,4.4-8.254h5.662c2.052,0,3.568,2.626,4.146,4.6a4.153,4.153,0,0,0,5.8-1.222,4.56,4.56,0,0,0,7,.188,16.388,16.388,0,0,0-.494-3.3l2.264-.05c1.962,0,3.924,3.7,3.924,8.254,0,4.4-3.136,7.982-5.43,8.288-1.14,11.112-7.572,10.546-16.22,3.4a20.521,20.521,0,0,0,3.368,7.106c.666,5.18,6.624,5.476,14.322,9.288a14.01,14.01,0,0,1,4.81,5.81,7.688,7.688,0,0,0,6.92-10.88,7.665,7.665,0,0,0,9.734-7.512,7.747,7.747,0,0,0-2.4-5.478,7.688,7.688,0,0,0,7.44-7.8,7.6,7.6,0,0,0-5.408-7.226Z" fill="#9fc7ea"/>
    <path id="Path_629" data-name="Path 629" d="M201.962,185.92a553.059,553.059,0,0,1-43.856,47.666,33.644,33.644,0,0,1-46.518.222c-14.686-13.884-33.2-32.642-45.964-49.924a55.18,55.18,0,0,1,26.46-26.054,420.755,420.755,0,0,0,43.152,43.522,442.763,442.763,0,0,0,31.864-36.12" fill="#dee7f3"/>
    <path id="Path_630" data-name="Path 630" d="M167.5,165.9S186,182.629,203,186.5L224,164l-10.5-8-6,2-5.5-2s-3.5,0-6-8.5,1-11,1-11l16.5-1.5,16,.5,9-.5v2l-3.5,2,9,5,2.5,3-6.5-.5,7.5,6H249l2.5-8.5-4-4.5L239,123.75,234,110c-6.5-14-14-15-20.5-18L207,93l-10-1.5-9.2,1.824c-10.548.494-23.26,11.952-29.46,56.846a14.06,14.06,0,0,0,4.836,12.675A27.254,27.254,0,0,0,167.5,165.9Z" fill="#dee7f3"/>
    <path id="Path_631" data-name="Path 631" d="M390,249.87a56.241,56.241,0,1,1-4.28-21.528A56.244,56.244,0,0,1,390,249.87Z" fill="rgba(159,199,234,0.3)" stroke="#fff" stroke-linecap="round" stroke-linejoin="round" stroke-width="1"/>
    <path id="Path_632" data-name="Path 632" d="M247.482,152.574c.776,1.37-.518,1.85-3.332.814-.554-.184-1.184-.48-1.924-.814a57.25,57.25,0,0,0-9.844-4.218c2.516,1.738,5.552,3.738,7.846,5.662,3.848,3.256,3.626,4.7-.518,3.22-2.258-.814-9.142-4.516-13.286-6.032a83.43,83.43,0,0,1,7.55,5.624c3.848,3.258,3.072,4.478-1.036,2.812a103.948,103.948,0,0,0-17.284-5.55,12,12,0,0,0-1.258-.038,8.22,8.22,0,0,1-1.148,1.37l28.6,20.244,7.254-23.13Z" fill="#9fc7ea"/>
    <path id="Path_633" data-name="Path 633" d="M122.948,190.212l7.4,15.766c1.554-1.4,3.184-2.962,4.886-4.626C131.054,197.724,126.946,194.024,122.948,190.212Z" fill="#9fc7ea"/>
    <path id="Path_634" data-name="Path 634" d="M219.466,80.334a2.054,2.054,0,1,1-.6-1.433A2.06,2.06,0,0,1,219.466,80.334Z" fill="#fff"/>
    <path id="Path_635" data-name="Path 635" d="M352.288,211.084c.112-2.922-3.626-4.07-5.772-.962-.074-2.812-4.516-3.626-6.848.038-.37-2.962-5.4-2.518-7.326.74-.4-2.6-4.738-1.332-5.662,2.554-.964,4.144-1.778,7.844-2.4,11.176a59.4,59.4,0,0,1,17.246-1.7c-1.4,4.554-1.186,10.77,1,6.626,2.148-4.072,6.958-.74,3.22,4.588a5.913,5.913,0,0,0,.926,7.328c2.332-9.956,7.882-20.576,10.214-25.24C360.06,209.9,355.694,208.012,352.288,211.084Z" fill="#ffe67e"/>
    <path id="Path_636" data-name="Path 636" d="M213.212,135.328c-5.588.222-12.546.964-17.4,1.556C198.6,128.15,207.734,127.632,213.212,135.328Z" fill="#9fc7ea"/>
    <path id="Path_637" data-name="Path 637" d="M214.4,154.1c-2.96,4.33-8.14,4.882-12.506,1.772A106.9,106.9,0,0,1,214.4,154.1Z" fill="#9fc7ea"/>
    <path id="Path_638" data-name="Path 638" d="M108.812,58.278A108.473,108.473,0,0,0,71.4,88.81a24.3,24.3,0,0,0,37.412-30.532Z" fill="#9fc7ea"/>
    <path id="Path_639" data-name="Path 639" d="M202,185.956l-31.6,35.38v9.4Z" fill="#9fc7ea"/>
    <path id="Path_640" data-name="Path 640" d="M202,185.956l-31.6,44.78Z" fill="#9fc7ea"/>
    <path id="Path_641" data-name="Path 641" d="M206.866,109.09a2.11,2.11,0,1,1-3.6-1.492Zm0,0a2.111,2.111,0,0,0-.618-1.492Zm-2.11-2.11a2.106,2.106,0,0,0-1.491.618h2.982A2.1,2.1,0,0,0,204.756,106.98Z" fill="#9fc7ea" stroke="#101e2c" stroke-width="1"/>
    <path id="Path_642" data-name="Path 642" d="M219.874,129.13a2.055,2.055,0,1,0-1.452-.6A2.051,2.051,0,0,0,219.874,129.13Z" fill="#9fc7ea" stroke="#101e2c" stroke-width="1"/>
    <path id="Path_643" data-name="Path 643" d="M197.816,274.59a117.092,117.092,0,0,0,82.374-97.945" fill="none" stroke="#fff" stroke-linecap="round" stroke-linejoin="round" stroke-width="1"/>
    <path id="Path_644" data-name="Path 644" d="M246.26,64.05a7.686,7.686,0,0,0-1.814-15.062,7.688,7.688,0,0,0-5.254-13.4,7.785,7.785,0,0,0-1.85.258,7.692,7.692,0,0,0-11.324-9.622,7.688,7.688,0,0,0-14.286-4.736c-1.276-8.582-14.35-8.836-15.692-.074A7.7,7.7,0,0,0,181.682,26a7.678,7.678,0,0,0-12.14,6.364,7.221,7.221,0,0,0,.7,3.108A7.68,7.68,0,0,0,163,48.508a7.676,7.676,0,0,0-1.924,15.026,7.668,7.668,0,0,0,1.886,15.024,7.7,7.7,0,0,0,7.18,13.1,7.721,7.721,0,0,0,3.182,10c4.6-5.812,9.438-8,13.88-8.216,13.766-.63,16.32-7.772,17.762-16.32l-4.144-.038c-2.442,0-4.4-3.7-4.4-8.252s1.962-8.254,4.4-8.254h5.662c2.052,0,3.568,2.626,4.146,4.6a4.153,4.153,0,0,0,5.8-1.222,4.56,4.56,0,0,0,7,.188,16.388,16.388,0,0,0-.494-3.3l2.264-.05c1.962,0,3.924,3.7,3.924,8.254,0,4.4-3.136,7.982-5.43,8.288-1.14,11.112-7.572,10.546-16.22,3.4a20.521,20.521,0,0,0,3.368,7.106c.666,5.18,6.624,5.476,14.322,9.288a14.01,14.01,0,0,1,4.81,5.81,7.688,7.688,0,0,0,6.92-10.88,7.665,7.665,0,0,0,9.734-7.512,7.747,7.747,0,0,0-2.4-5.478,7.688,7.688,0,0,0,7.44-7.8,7.6,7.6,0,0,0-5.408-7.226Z" fill="none" stroke="#101e2c" stroke-linejoin="round" stroke-width="1"/>
    <path id="Path_645" data-name="Path 645" d="M308.878,146.024a11.942,11.942,0,0,1-11.066,9,7.123,7.123,0,0,1-7.106-9.178,11.942,11.942,0,0,1,11.066-9,7.115,7.115,0,0,1,7.106,9.178ZM313.838,133a9.624,9.624,0,0,1-5.886,2.478.381.381,0,0,1-.37-.37,8.4,8.4,0,0,1,8.328-8.362.377.377,0,0,1,.37.37A10.1,10.1,0,0,1,313.838,133Z" fill="#9fc7ea" stroke="#101e2c" stroke-linejoin="round" stroke-width="0.75"/>
    <path id="Path_646" data-name="Path 646" d="M161.518,44.738c-59.117,1.476-99.137,38.485-110.969,86.4" fill="none" stroke="#fff" stroke-linecap="round" stroke-linejoin="round" stroke-width="1"/>
    <path id="Path_647" data-name="Path 647" d="M149.6,278.7A117.1,117.1,0,0,1,46.9,162.5q0-2.216.074-4.417" fill="none" stroke="#fff" stroke-linecap="round" stroke-linejoin="round" stroke-width="1"/>
    <path id="Path_648" data-name="Path 648" d="M213.511,155.917l.29-.408,27.784,19.666-.29.408Z" fill="#101e2c" stroke="#dee7f3" stroke-width="1"/>
    <path id="Path_649" data-name="Path 649" d="M224.056,163.122,212.434,243.5a36.995,36.995,0,0,1-3.886,12.028,402.677,402.677,0,0,1-40.93,62.95A61.4,61.4,0,0,1,136.456,299.5,400.987,400.987,0,0,0,170.4,238.84v-17.5" fill="#dee7f3"/>
    <path id="Path_650" data-name="Path 650" d="M224.056,163.122,212.434,243.5a36.995,36.995,0,0,1-3.886,12.028,402.677,402.677,0,0,1-40.93,62.95A61.4,61.4,0,0,1,136.456,299.5,400.987,400.987,0,0,0,170.4,238.84v-17.5" fill="none" stroke="#101e2c" stroke-linecap="round" stroke-linejoin="round" stroke-width="1"/>
    <path id="Path_651" data-name="Path 651" d="M224.24,161.16a76.588,76.588,0,0,1-26.6-1.332" fill="none" stroke="#101e2c" stroke-linecap="round" stroke-linejoin="round" stroke-width="1"/>
    <path id="Path_652" data-name="Path 652" d="M211.252,83.584a38.519,38.519,0,0,1-3.74-2.768,20.644,20.644,0,0,0,3.29,7" fill="none" stroke="#101e2c" stroke-linecap="round" stroke-linejoin="round" stroke-width="1"/>
    <path id="Path_653" data-name="Path 653" d="M204.4,77.2c-1.036,6.068-2.146,11.4-7.8,14.21,7.364,1.85,13.47,2.554,16.764.518-2.4-1.63-3.22-3.74-2.108-8.334,10.67,6.828,14.906-.8,11.514-22.714" fill="none" stroke="#101e2c" stroke-linecap="round" stroke-linejoin="round" stroke-width="1"/>
    <path id="Path_654" data-name="Path 654" d="M223.74,77.3c2.256-.312,5.386-3.858,5.386-8.214,0-4.552-1.962-8.252-3.924-8.252l-2.436.038" fill="none" stroke="#101e2c" stroke-linecap="round" stroke-linejoin="round" stroke-width="1"/>
    <path id="Path_655" data-name="Path 655" d="M135.236,201.352c-1.7,1.664-3.332,3.22-4.886,4.626l-7.4-15.766" fill="none" stroke="#101e2c" stroke-linecap="round" stroke-linejoin="round" stroke-width="1"/>
    <path id="Path_656" data-name="Path 656" d="M201.962,185.92a553.059,553.059,0,0,1-43.856,47.666,33.644,33.644,0,0,1-46.518.222c-14.686-13.884-33.2-32.642-45.964-49.924a55.18,55.18,0,0,1,26.46-26.054,420.755,420.755,0,0,0,43.152,43.522,442.763,442.763,0,0,0,31.864-36.12" fill="none" stroke="#101e2c" stroke-linecap="round" stroke-linejoin="round" stroke-width="1"/>
    <path id="Path_657" data-name="Path 657" d="M202,185.956l-31.6,44.78" fill="none" stroke="#101e2c" stroke-linecap="round" stroke-linejoin="round" stroke-width="1"/>
    <path id="Path_658" data-name="Path 658" d="M128.834,319.26c-1.888,2.184-4.22,4.664-7.4,8.178-2.22,10.326.222,44.446,5.366,57.622,9.178-11.138,15.136-20.836,21.576-48.554l1.776-2.59A72.063,72.063,0,0,1,128.834,319.26Z" fill="none" stroke="#101e2c" stroke-linecap="round" stroke-linejoin="round" stroke-width="1"/>
    <path id="Path_659" data-name="Path 659" d="M140.158,303.2a102.174,102.174,0,0,1-11.324,16.062m21.316,14.654c1.2-1.686,10.946-15.4,12.138-17.062" fill="none" stroke="#101e2c" stroke-linecap="round" stroke-linejoin="round" stroke-width="1"/>
    <path id="Path_660" data-name="Path 660" d="M67.288,136.8C57.778,132.294,24,126.816,10,128.742c8.734,11.472,16.8,19.54,42.3,32.2l2.072,2.332a71.211,71.211,0,0,1,19.17-17.356C71.878,143.546,69.99,140.768,67.288,136.8Z" fill="none" stroke="#101e2c" stroke-linecap="round" stroke-linejoin="round" stroke-width="1"/>
    <path id="Path_661" data-name="Path 661" d="M176.832,136.366A87.842,87.842,0,0,1,203,129.888c-5.384,1.2-9.894,7.964-6.8,18.016,1.382,4.5,5.308,9.746,11.212,9.888a251.721,251.721,0,0,0-30.94,7.736,14.056,14.056,0,0,1-18.134-15.358c6.2-44.894,18.912-56.352,29.46-56.846a23.269,23.269,0,0,0,9-1.96" fill="none" stroke="#101e2c" stroke-linecap="round" stroke-linejoin="round" stroke-width="1"/>
    <path id="Path_662" data-name="Path 662" d="M86.68,160.8a102.7,102.7,0,0,1-13.138-14.876" fill="none" stroke="#101e2c" stroke-linecap="round" stroke-linejoin="round" stroke-width="1"/>
    <path id="Path_663" data-name="Path 663" d="M54.372,163.27c1.222,1.4,12.49,14.3,13.842,15.8" fill="none" stroke="#101e2c" stroke-linecap="round" stroke-linejoin="round" stroke-width="1"/>
    <path id="Path_664" data-name="Path 664" d="M209.342,75.506a17.6,17.6,0,0,0,6.2,4.066" fill="none" stroke="#101e2c" stroke-linecap="round" stroke-linejoin="round" stroke-width="1"/>
    <path id="Path_665" data-name="Path 665" d="M219.466,80.334a2.054,2.054,0,1,1-.6-1.433A2.06,2.06,0,0,1,219.466,80.334Z" fill="none" stroke="#101e2c" stroke-linecap="round" stroke-linejoin="round" stroke-width="1"/>
    <path id="Path_666" data-name="Path 666" d="M213.544,91.918l7.476,8.956L207.846,93.14l-7.734,8.844-3.332-10.62" fill="none" stroke="#101e2c" stroke-linecap="round" stroke-linejoin="round" stroke-width="1"/>
    <path id="Path_667" data-name="Path 667" d="M211,157c-.3,1.708-.6,3.14-.944,4.616" fill="none" stroke="#101e2c" stroke-linecap="round" stroke-linejoin="round" stroke-width="1"/>
    <path id="Path_668" data-name="Path 668" d="M207.846,93.14c5.468,12.45,5.92,28.512,5.368,42.116Z" fill="#dee7f3"/>
    <path id="Path_669" data-name="Path 669" d="M207.846,93.14c5.468,12.45,5.92,28.512,5.368,42.116" fill="none" stroke="#101e2c" stroke-linecap="round" stroke-linejoin="round" stroke-width="1"/>
    <path id="Path_670" data-name="Path 670" d="M226.386,97.692s9.364,14.728,3.184,38.23" fill="none" stroke="#101e2c" stroke-linecap="round" stroke-linejoin="round" stroke-width="1"/>
    <path id="Path_671" data-name="Path 671" d="M184.124,94s9.066,19.43,2.7,38.86Z" fill="#dee7f3"/>
    <path id="Path_672" data-name="Path 672" d="M184.124,94s9.066,19.43,2.7,38.86" fill="none" stroke="#101e2c" stroke-linecap="round" stroke-linejoin="round" stroke-width="1"/>
    <path id="Path_673" data-name="Path 673" d="M143.34,288.912a71.363,71.363,0,0,0,31.46,20.134" fill="none" stroke="#101e2c" stroke-linecap="round" stroke-linejoin="round" stroke-width="1"/>
    <path id="Path_674" data-name="Path 674" d="M72.728,192.988A95.629,95.629,0,0,1,99.412,166.12" fill="none" stroke="#101e2c" stroke-linecap="round" stroke-linejoin="round" stroke-width="1"/>
    <path id="Path_675" data-name="Path 675" d="M86.68,176.3c12.14,14.286,24.5,27.94,37.9,38.97a14.426,14.426,0,0,0,19.2-.85,356.871,356.871,0,0,0,36.306-40.08" fill="none" stroke="#101e2c" stroke-linecap="round" stroke-linejoin="round" stroke-width="1"/>
    <path id="Path_676" data-name="Path 676" d="M151.252,296.318a460.146,460.146,0,0,0,30.8-52,41.309,41.309,0,0,0,4.254-14.47q.952-11.3.9-22.65" fill="none" stroke="#101e2c" stroke-linecap="round" stroke-linejoin="round" stroke-width="1"/>
    <path id="Path_677" data-name="Path 677" d="M318.5,265.5l3-3.5,5.5-2c2.137,1.4,9.921,3.483,23.956.6,0,1.681,14.84,3.5,21.044,6.4a25.96,25.96,0,0,1,11,10s-6.378,10.033-12,15c-5.972,5.277-17.5,10.5-17.5,10.5s-12,4-23.5,3.5-22.5-6.5-22.5-6.5l15-32.5Z" fill="#dee7f3"/>
    <path id="Path_678" data-name="Path 678" d="M324.236,224.6a61.021,61.021,0,0,1,17.284-1.7c-1.4,4.552-1.148,10.77,1.036,6.624,2.146-4.07,6.976-.726,3.22,4.6a6.65,6.65,0,0,0,.4,7.142" fill="none" stroke="#101e2c" stroke-linecap="round" stroke-linejoin="round" stroke-width="1"/>
    <path id="Path_679" data-name="Path 679" d="M321.054,261.934a27.874,27.874,0,0,0,3.182-.7,10.583,10.583,0,0,0,7.92-8.122,23.054,23.054,0,0,0,.366-4.292c-11.11,2.84-12.924-5.742-5.88-35.4.922-3.886,5.292-5.144,5.662-2.554,1.924-3.256,6.958-3.7,7.328-.74,2.332-3.664,6.772-2.85,6.846-.036,2.146-3.072,5.884-1.888,5.774,1,3.4-3.072,7.756-1.2,4.588,5.108-2.936,5.84-11,22.168-11.25,31.752-.118,4.6-.258,14.4,15.544,15.692,10.362.85,18.1,7.884,22.2,12.658" fill="none" stroke="#101e2c" stroke-linecap="round" stroke-linejoin="round" stroke-width="1"/>
    <path id="Path_680" data-name="Path 680" d="M322.5,267.374,298.664,255.9C295.776,261.6,287,274.5,285,277.5a63.194,63.194,0,0,0,22.434,21.96A221.994,221.994,0,0,0,322.5,267.374Z" fill="#dee7f3"/>
    <path id="Path_681" data-name="Path 681" d="M284.6,277.218c6.108-7.734,11.918-15.84,14.064-21.316L322.5,267.374a221.994,221.994,0,0,1-15.064,32.086" fill="none" stroke="#101e2c" stroke-linecap="round" stroke-linejoin="round" stroke-width="1"/>
    <path id="Path_682" data-name="Path 682" d="M315.762,248.684v2.074a2.756,2.756,0,0,0,1.812,2.664l5.922,2.11a2.733,2.733,0,0,0,3.628-2.48l.148-3.886" fill="none" stroke="#101e2c" stroke-linecap="round" stroke-linejoin="round" stroke-width="1"/>
    <path id="Path_683" data-name="Path 683" d="M324.866,220.6l-4-1.4a2.731,2.731,0,0,0-3.626,2.478l-.186,3.96" fill="none" stroke="#101e2c" stroke-linecap="round" stroke-linejoin="round" stroke-width="1"/>
    <path id="Path_684" data-name="Path 684" d="M314.43,243.836c3.552,2.7,6.476-.6,3.22-3.4-2.444-2.11-4.214-3.522-6.182-5.106-3.32-2.676-6.3.934-3.738,3.33C309.28,240.1,311.172,241.358,314.43,243.836Z" fill="none" stroke="#101e2c" stroke-linecap="round" stroke-linejoin="round" stroke-width="1"/>
    <path id="Path_685" data-name="Path 685" d="M315.724,238.434c3.514,2.742,6.484-.6,3.258-3.4-2.438-2.116-4.186-3.512-6.182-5.144-3.3-2.7-6.284.882-3.736,3.294C310.622,234.654,312.5,235.92,315.724,238.434Z" fill="none" stroke="#101e2c" stroke-linecap="round" stroke-linejoin="round" stroke-width="1"/>
    <path id="Path_686" data-name="Path 686" d="M319.24,230.7a2.332,2.332,0,1,0,.6-4.626c-2.222-.4-3.776-.58-5.55-.814-2.964-.388-3.326,4.234-.926,4.812A48.667,48.667,0,0,0,319.24,230.7Z" fill="none" stroke="#101e2c" stroke-linecap="round" stroke-linejoin="round" stroke-width="1"/>
    <path id="Path_687" data-name="Path 687" d="M312.2,248.018c3.622,2.562,6.476-.85,3.072-3.552-2.516-2-4.338-3.318-6.4-4.848-3.42-2.534-6.28,1.214-3.59,3.478C306.938,244.484,308.872,245.658,312.2,248.018Z" fill="none" stroke="#101e2c" stroke-linecap="round" stroke-linejoin="round" stroke-width="1"/>
    <path id="Path_688" data-name="Path 688" d="M325.568,255.42s-5.18,7.366-6.882,10.1" fill="none" stroke="#101e2c" stroke-linecap="round" stroke-linejoin="round" stroke-width="1"/>
    <path id="Path_689" data-name="Path 689" d="M301.81,257.418c4-.4,4.218-13.248,4.218-13.248" fill="none" stroke="#101e2c" stroke-linecap="round" stroke-linejoin="round" stroke-width="1"/>
    <path id="Path_690" data-name="Path 690" d="M317.256,253.282c-.332.2-3.746,4.172-6.712,4.136" fill="none" stroke="#101e2c" stroke-linecap="round" stroke-linejoin="round" stroke-width="1"/>
    <path id="Path_691" data-name="Path 691" d="M326.716,260.268a43.354,43.354,0,0,0,24.24.334" fill="none" stroke="#101e2c" stroke-linecap="round" stroke-linejoin="round" stroke-width="1"/>
    <path id="Path_692" data-name="Path 692" d="M251.442,291.318l-4.7,23.8m14.248-9.548-23.8-4.7" fill="none" stroke="#fff" stroke-linecap="round" stroke-linejoin="round" stroke-width="1"/>
    <path id="Path_693" data-name="Path 693" d="M203.848,75.228c-2.836,4.448-7.252.7-7.252-6.328,0-7.07,4.416-10.778,7.252-6.33a13.318,13.318,0,0,1,0,12.658Z" fill="none" stroke="#101e2c" stroke-linecap="round" stroke-linejoin="round" stroke-width="1"/>
    <path id="Path_694" data-name="Path 694" d="M201,60.646h5.7c2.442,0,4.4,3.7,4.4,8.254s-1.96,8.252-4.4,8.252H201" fill="none" stroke="#101e2c" stroke-linecap="round" stroke-linejoin="round" stroke-width="1"/>
    <path id="Path_695" data-name="Path 695" d="M203,129.888a11.492,11.492,0,0,1,10.164,5.37" fill="none" stroke="#101e2c" stroke-linecap="round" stroke-linejoin="round" stroke-width="1"/>
    <path id="Path_696" data-name="Path 696" d="M213.544,91.918c2.554,1.888,6.742,2.542,11.8,5.07,7.966,3.978,15.766,39.748,27.424,48.074" fill="none" stroke="#101e2c" stroke-linecap="round" stroke-linejoin="round" stroke-width="1"/>
    <path id="Path_697" data-name="Path 697" d="M195.9,136.91c6.714-.87,19.574-2.39,26.268-1.434A56.75,56.75,0,0,1,237.86,140.4c8.958,4.582,12.82,9.316,1.11,4.922a13.975,13.975,0,0,0-2.442-.556" fill="none" stroke="#101e2c" stroke-linecap="round" stroke-linejoin="round" stroke-width="1"/>
    <path id="Path_698" data-name="Path 698" d="M222.76,149.058a69.41,69.41,0,0,1,11.176,7.81c3.838,3.27,3.076,4.468-1.036,2.812a107.672,107.672,0,0,0-17.282-5.55,80.827,80.827,0,0,0-13.73,1.738" fill="none" stroke="#101e2c" stroke-linecap="round" stroke-linejoin="round" stroke-width="1"/>
    <path id="Path_699" data-name="Path 699" d="M226.386,151.2c4.626,1.7,10.922,5.168,13.324,6.032,4.152,1.494,4.364.04.518-3.22a66.317,66.317,0,0,0-12.324-8.178" fill="none" stroke="#101e2c" stroke-linecap="round" stroke-linejoin="round" stroke-width="1"/>
    <path id="Path_700" data-name="Path 700" d="M232.716,148.578c4.626,1.4,8.99,3.926,11.4,4.81,4.142,1.524,4.96-.222.888-3.218a72.9,72.9,0,0,0-13.324-7.77" fill="none" stroke="#101e2c" stroke-linecap="round" stroke-linejoin="round" stroke-width="1"/>
    <path id="Path_701" data-name="Path 701" d="M234.326,138.828c3.044-.92,5.414-1.8,4.422-3.426-.888-1.442-10.214,1.482-14.286.482" fill="none" stroke="#101e2c" stroke-linecap="round" stroke-linejoin="round" stroke-width="1"/>
    <path id="Path_702" data-name="Path 702" d="M214.4,154.1a8.384,8.384,0,0,1-7,3.7" fill="none" stroke="#101e2c" stroke-linecap="round" stroke-linejoin="round" stroke-width="1"/>
    <path id="Path_703" data-name="Path 703" d="M62.218,37.6a3.926,3.926,0,1,1-1.15-2.772A3.924,3.924,0,0,1,62.218,37.6Z" fill="none" stroke="#fff" stroke-linecap="round" stroke-linejoin="round" stroke-width="1"/>
    <path id="Path_704" data-name="Path 704" d="M88.384,47.138A24.268,24.268,0,1,0,97.7,48.977,24.314,24.314,0,0,0,88.384,47.138Z" fill="none" stroke="#fff" stroke-linecap="round" stroke-linejoin="round" stroke-width="1"/>
    <path id="Path_705" data-name="Path 705" d="M191.414,131.74c-6.018,7.384-3.342,23.2,5.382,28.24" fill="none" stroke="#101e2c" stroke-linecap="round" stroke-linejoin="round" stroke-width="1"/>
    <path id="Path_706" data-name="Path 706" d="M171.1,173.226s11.7,5.846,25.684-8" fill="none" stroke="#101e2c" stroke-linecap="round" stroke-linejoin="round" stroke-width="1"/>
    <path id="Path_707" data-name="Path 707" d="M16.624,264.266l9.142-1.628m16.21-2.85,9.14-1.592m-20.28-14.212,1.628,9.142m2.85,16.21,1.628,9.14M19.548,251.164l7.586,5.33m13.508,9.436,7.588,5.33m-4.294-24.388-5.328,7.586M29.17,267.966l-5.328,7.586" fill="none" stroke="#fff" stroke-linecap="round" stroke-linejoin="round" stroke-width="1"/>
    <path id="Path_708" data-name="Path 708" d="M316.908,230.514l-.11,2.664" fill="none" stroke="#101e2c" stroke-linecap="round" stroke-linejoin="round" stroke-width="1"/>
    <path id="Path_709" data-name="Path 709" d="M245.186,78.152a117.094,117.094,0,0,1,24.024,33.033" fill="none" stroke="#fff" stroke-linecap="round" stroke-linejoin="round" stroke-width="1"/>
  </g>
</svg>
