<svg width="400" height="400" viewBox="0 0 400 400" fill="none" xmlns="http://www.w3.org/2000/svg">
<path d="M134.756 136.218C135.794 136.55 136.48 135.872 136.998 135.018C137.485 134.246 137.725 133.344 137.686 132.432C137.514 131.232 136.652 130.192 135.446 130.71C133.55 131.218 132.524 135.502 134.756 136.218Z" fill="#191919"/>
<path d="M158.372 135.872C158.2 134.672 157.344 133.646 156.132 134.148C154.416 134.86 153.202 139.148 155.442 139.664C156.692 139.874 158.372 138.58 158.372 135.872Z" fill="#191919"/>
<path d="M141.48 121.738C138.952 119.968 133.902 121.75 135.28 123.806C135.796 124.496 136.658 123.978 137.348 123.806C138.728 123.46 139.416 124.322 140.624 124.84C141.83 125.446 143.872 124.13 141.48 121.738Z" fill="#191919"/>
<path d="M159.924 127.426C161.124 127.942 160.958 129.494 161.82 130.356C161.992 130.524 162.206 130.642 162.439 130.698C162.672 130.755 162.916 130.747 163.146 130.677C163.375 130.606 163.581 130.475 163.743 130.297C163.904 130.119 164.014 129.901 164.062 129.666C164.578 127.77 162.156 125.226 160.442 124.84C159.743 124.674 159.011 124.716 158.335 124.962C157.66 125.207 157.071 125.644 156.642 126.22C156.567 126.331 156.516 126.457 156.493 126.589C156.47 126.721 156.475 126.856 156.507 126.986C156.54 127.116 156.6 127.238 156.682 127.343C156.765 127.449 156.869 127.536 156.988 127.598C158 128.262 158.892 127.082 159.924 127.426Z" fill="#191919"/>
<path d="M145.788 131.39C146.134 130.702 144.926 130.19 144.588 130.874C143.049 133.918 141.777 137.09 140.788 140.354C140.426 141.554 139.408 143.802 141.132 144.32C141.994 144.492 145.442 145.008 146.304 145.008C146.539 145.003 146.765 144.911 146.937 144.75C147.109 144.589 147.215 144.371 147.237 144.137C147.258 143.902 147.192 143.668 147.052 143.479C146.912 143.29 146.707 143.159 146.476 143.112C145.762 142.97 142.534 142.596 141.994 142.596C142.342 141.906 144.754 134.322 145.788 131.39Z" fill="#191919"/>
<path d="M137 155.87C138.554 155.54 140.102 155.352 141.654 155.008C141.92 158.988 148.254 167.13 153.548 162.248C155.79 160.178 155.962 156.904 155.962 153.972C155.986 153.609 155.92 153.246 155.77 152.915C155.619 152.585 155.389 152.296 155.1 152.076C154.294 151.699 153.391 151.579 152.514 151.732C150.962 151.732 149.24 151.92 147.688 152.076C143.916 152.368 140.203 153.181 136.654 154.49C136.478 154.542 136.329 154.66 136.238 154.82C136.147 154.979 136.121 155.168 136.166 155.346C136.21 155.524 136.322 155.678 136.477 155.775C136.633 155.873 136.82 155.907 137 155.87ZM153.548 154.146C153.59 154.954 153.532 155.764 153.376 156.558C152.044 165.886 144.432 159.078 143.722 154.834C146.974 154.35 150.258 154.12 153.546 154.146H153.548Z" fill="#191919"/>
<path d="M138.376 213.272C135.443 216.031 132.34 218.789 129.068 221.548L133.722 231.718L127.86 250.162C129.894 253.684 131.296 257.535 132 261.54C133.444 268.594 137.172 285.33 140.446 300.326L142.516 231.726L150.618 223.624C148.722 220.004 146.818 216.212 144.928 212.592C143.548 213.446 140.444 214.652 138.376 213.272ZM137.86 228.788C137.68 228.96 137.458 229.083 137.216 229.143C136.974 229.203 136.72 229.199 136.48 229.132C135.521 228.254 134.752 227.189 134.219 226.004C133.685 224.818 133.399 223.536 133.378 222.236C133.378 222.007 133.469 221.788 133.631 221.627C133.792 221.465 134.011 221.374 134.24 221.374C134.469 221.374 134.688 221.465 134.85 221.627C135.011 221.788 135.102 222.007 135.102 222.236C135.165 223.16 135.41 224.063 135.824 224.892C136.238 225.721 136.813 226.459 137.514 227.064C138.032 227.752 138.2 228.442 137.86 228.788Z" fill="#83969D"/>
<path d="M137.342 110.532C144.06 112.67 155.488 114.434 161.476 117.428C162.812 117.936 164 118.769 164.933 119.851C165.866 120.934 166.514 122.232 166.82 123.628C167.571 126.637 168.147 129.688 168.544 132.764C170.824 145.534 177.056 145.856 177.334 143.624C177.53 142.08 177.645 140.526 177.68 138.97C179.312 125.138 187.748 126.77 186.298 118.8C184.992 111.612 178.174 105.872 173.37 105.872C170.156 93.826 150.854 74.234 134.756 77.6C132.221 78.0859 129.818 79.1059 127.708 80.5921C125.597 82.0784 123.827 83.9969 122.516 86.22C118.17 94.318 122.558 105.83 137.342 110.532ZM133.032 81.572C137.089 80.4372 141.414 80.7418 145.272 82.434C157.96 87.296 153.916 92.852 152 90.88C147.088 85.84 139.45 82.25 132.694 84.502C131.695 84.931 130.814 85.593 130.124 86.4327C129.434 87.2724 128.955 88.2652 128.728 89.328C128.342 89.996 127.35 89.674 127.006 89.156C124.758 85.2 130.288 82.478 133.032 81.572ZM158.2 94.5C158.442 94.674 161.982 96.806 162.166 98.3C162.3 99.396 161.852 99.852 160.614 99.852C159.91 99.852 156.834 96.556 156.648 95.888C156.376 94.892 157.488 93.986 158.2 94.5Z" fill="#191919"/>
<path d="M172.854 90.536C175.6 91.02 178.23 92.0138 180.61 93.466C188.712 98.638 191.48 108.12 190.436 117.082C190.103 119.985 189.585 122.865 188.884 125.702C182.684 128.184 180.342 135.89 180.094 142.596C179.926 147.078 180.782 152.248 184.576 155.008C183.06 156.816 181.448 158.542 179.748 160.178C176.927 162.73 173.569 164.615 169.922 165.694C169.236 165.878 168.37 166.04 167.682 166.212C167.108 165.314 166.268 164.616 165.28 164.215C164.292 163.813 163.204 163.729 162.166 163.972C160.989 164.413 159.984 165.221 159.3 166.276C158.616 167.331 158.289 168.577 158.366 169.832C158.938 174.396 167.134 175.644 168.366 169.488C175.308 168.342 181.576 164.655 185.95 159.144C186.656 158.296 187.33 157.42 188.018 156.558C198.664 159.462 204.902 147.268 201.982 136.218C200.796 131.73 198.018 126.392 193.018 125.358C193.19 125.358 194.218 115.876 194.218 115.014C194.419 109.718 193.779 104.424 192.322 99.328C191.665 97.1723 190.557 95.1811 189.071 93.4869C187.585 91.7927 185.756 90.4343 183.704 89.502C180.351 87.9552 176.709 87.1327 173.016 87.088C171.982 87.088 171.464 87.26 171.464 88.288C171.646 89.328 172.164 90.364 172.854 90.536ZM187.334 151.042C185.489 149.202 184.384 146.748 184.23 144.146C184.23 143.286 185.696 142.946 185.782 143.974C186.018 146.824 188.56 150.164 190.782 150.526C191.782 150.688 191.982 150.696 192.506 150.18C192.732 150.011 193.008 149.923 193.29 149.929C193.572 149.935 193.843 150.035 194.062 150.214C194.28 150.392 194.432 150.639 194.494 150.914C194.555 151.189 194.523 151.477 194.402 151.732C193.8 153.418 190.048 153.758 187.334 151.042Z" fill="#191919"/>
<path d="M45.7999 115.532C48.0287 116.274 50.2153 117.137 52.3499 118.118C51.6939 126.002 53.5299 130.118 53.7299 130.012C51.4358 130.657 49.2758 131.708 47.3519 133.114C46.8835 133.548 46.5899 134.137 46.5261 134.772C46.4624 135.407 46.633 136.044 47.0059 136.562C48.5976 138.84 50.3858 140.974 52.3499 142.94C55.1079 145.698 60.4519 138.458 60.4519 138.458C62.3476 139.722 64.444 140.654 66.6519 141.216C66.3546 144.028 66.413 146.866 66.8259 149.664C67.1277 150.253 67.6042 150.735 68.1901 151.044C68.7761 151.352 69.4431 151.473 70.0999 151.388C73.3159 151.388 79.3099 151.988 80.4439 148.974C80.7879 147.594 78.8919 140.174 78.8919 140.174C80.8257 139.353 82.6267 138.249 84.2359 136.898C85.6139 138.278 86.9939 139.83 88.5459 141.208C89.5799 142.242 90.7859 142.932 92.1659 141.726C94.7473 139.046 97.1102 136.163 99.2319 133.106C100.598 131.2 98.3899 129.624 96.8199 128.796C96.1379 128.438 90.9439 126.38 91.1299 125.522C91.8821 122.464 91.8821 119.27 91.1299 116.212C94.0619 114.662 97.1639 113.11 97.5099 112.076C98.0259 110.524 96.8259 109.658 95.9579 108.276C94.7579 106.374 93.4099 103.944 92.3379 102.076C92.2264 101.89 92.0754 101.732 91.8957 101.611C91.716 101.49 91.5119 101.411 91.298 101.378C91.084 101.345 90.8655 101.359 90.6577 101.42C90.45 101.481 90.2582 101.587 90.0959 101.73C87.9898 103.216 85.9754 104.828 84.0639 106.558C84.5799 106.212 79.9259 103.282 78.0299 102.938C78.6159 96.1879 78.5939 95.2139 77.6859 93.9739C76.8099 92.7739 75.0999 92.9399 73.8859 92.9399C69.0599 92.9399 64.0599 93.2839 64.2339 95.3519C64.5186 97.9659 64.979 100.558 65.6119 103.11C58.5339 104.88 57.3379 109.06 57.3379 107.764C54.9239 105.696 50.6459 101.248 48.5379 103.11C47.3843 104.317 46.4569 105.721 45.7999 107.256C43.9099 110.014 42.0139 113.98 45.7999 115.532ZM72.6919 113.118C79.2439 113.032 82.5319 121.572 79.5879 126.918C78.702 128.476 77.3843 129.744 75.7938 130.57C74.2033 131.396 72.4078 131.744 70.6239 131.572C69.2814 131.398 67.9956 130.923 66.8629 130.182C65.7302 129.44 64.78 128.452 64.0834 127.291C63.3869 126.131 62.9622 124.827 62.841 123.479C62.7199 122.131 62.9055 120.772 63.3839 119.506C64.1837 117.677 65.4804 116.108 67.1268 114.979C68.7732 113.85 70.7034 113.205 72.6979 113.118H72.6919Z" fill="#355662"/>
<path d="M26.6719 206.378C26.6729 206.835 26.8549 207.273 27.178 207.596C27.5011 207.919 27.939 208.101 28.3959 208.102C34.8828 208.793 41.4328 208.618 47.8739 207.584C48.2447 207.459 48.5718 207.23 48.8164 206.924C49.061 206.618 49.2129 206.249 49.2539 205.86C48.7359 200.688 48.3919 195.518 47.8739 190.518C47.8739 190.174 59.0739 174.318 63.9059 167.074C64.1212 166.705 64.1877 166.267 64.0919 165.851C63.996 165.434 63.745 165.07 63.3899 164.832C63.0227 164.608 62.5823 164.536 62.1632 164.633C61.744 164.73 61.3795 164.987 61.1479 165.35C56.6659 172.074 52.0119 178.968 47.3479 185.52C47.2285 185.194 47.0195 184.908 46.7449 184.696C46.4703 184.484 46.1414 184.353 45.7959 184.32C42.8659 184.492 29.0779 185.372 27.5239 185.7C27.3202 185.745 27.1274 185.83 26.9566 185.949C26.7858 186.069 26.6404 186.222 26.5289 186.398C26.4173 186.574 26.3418 186.771 26.3066 186.976C26.2714 187.182 26.2773 187.393 26.3239 187.596C26.4819 188.282 26.6719 203.274 26.6719 206.378ZM44.2539 188.45C44.2539 189.14 44.4279 189.65 44.4279 190.346C43.7379 191.38 39.5999 197.242 38.2279 199.146C37.5379 198.284 34.2619 193.63 33.0559 192.422C32.8645 192.256 32.6194 192.164 32.3659 192.164C32.1123 192.164 31.8673 192.256 31.6759 192.422C31.4618 192.572 31.3091 192.794 31.2459 193.048C31.1827 193.301 31.2132 193.569 31.3319 193.802C33.0662 196.837 34.965 199.774 37.0199 202.602C37.1582 202.82 37.3492 202.999 37.5753 203.123C37.8013 203.247 38.055 203.312 38.3129 203.312C38.5708 203.312 38.8245 203.247 39.0505 203.123C39.2765 202.999 39.4676 202.82 39.6059 202.602C41.3299 200.188 43.2259 197.774 44.9499 195.36C45.1219 198.464 45.4679 201.56 45.6399 204.67C40.5506 205.302 35.4104 205.417 30.2979 205.014C30.1259 202.428 29.4359 190.706 29.2639 189.672C30.2919 189.484 41.8419 188.622 44.2539 188.45Z" fill="#83969D"/>
<path d="M158.718 305.842C158.842 305.876 158.971 305.884 159.099 305.868C159.226 305.852 159.349 305.81 159.461 305.746C159.572 305.683 159.67 305.597 159.748 305.496C159.827 305.394 159.884 305.278 159.918 305.154C161.621 301.461 164.596 298.505 168.3 296.827C172.004 295.148 176.189 294.861 180.088 296.016C181.288 296.37 182.154 294.47 180.948 293.948C173.028 290.524 161.44 294.764 157.85 304.636C157.684 304.98 158.2 305.67 158.718 305.842Z" fill="#191919"/>
<path d="M158.028 291.362C151.152 292.394 146.052 300.216 147.34 306.016C147.512 307.216 149.236 306.878 149.408 305.67V303.6C149.788 301.519 150.679 299.566 152 297.914C153.669 295.736 156.048 294.211 158.724 293.604C159.766 293.254 159.812 291.362 158.028 291.362Z" fill="#191919"/>
<path d="M254.736 143.974H256.976C257.521 145.14 258.282 146.193 259.218 147.078C261.288 149.664 264.148 149.312 266.112 146.56C266.905 145.209 267.21 143.627 266.974 142.078C266.974 141.562 266.284 141.388 265.774 141.388C262.178 141.981 258.553 142.382 254.914 142.588C253.874 142.6 253.874 143.974 254.736 143.974ZM261.63 147.078C260.63 146.678 259.47 144.878 258.872 143.974C260.838 143.981 262.8 143.808 264.734 143.458C265.034 144.962 263.518 147.616 261.63 147.078Z" fill="#191919"/>
<path d="M255.424 133.114C254.024 135.556 258.208 139.438 258.7 137.252C258.9 136.394 257.5 135.356 257.148 134.838C256.632 134.148 256.976 133.804 257.494 133.286C257.838 132.77 258.694 131.736 258.528 131.046C258.164 129.6 255.816 132.528 255.424 133.114Z" fill="#191919"/>
<path d="M254.736 122.426C255.708 121.128 253.136 119.57 251.632 120.702C250.598 121.392 251.116 122.426 252.322 122.082C253.114 122.082 254.17 123 254.736 122.426Z" fill="#191919"/>
<path d="M268.526 123.634C269.762 123.014 267.488 120.446 264.562 121.91C264.389 122.011 264.258 122.172 264.195 122.362C264.131 122.552 264.139 122.759 264.216 122.944C264.734 123.634 265.416 122.944 266.112 123.116C266.768 123.116 267.536 124.128 268.526 123.634Z" fill="#191919"/>
<path d="M120.276 142.078C122.11 140.316 122.11 134.856 125.448 122.078C126.448 118.278 127.938 114.522 129.248 110.878C129.614 109.852 128.048 109.156 127.352 110.19C125.987 112.287 124.886 114.545 124.076 116.912C119.076 116.222 114.6 120.018 112.526 124.498C110.292 129.326 108.888 136.236 112.872 140.698C114.4 142.43 118.076 144.2 120.276 142.078Z" fill="#191919"/>
<path d="M329.032 118.634C330.42 120.26 332.2 121.506 334.204 122.254C334.328 122.288 334.458 122.297 334.585 122.281C334.713 122.265 334.836 122.223 334.948 122.159C335.06 122.095 335.157 122.009 335.236 121.907C335.314 121.805 335.371 121.688 335.404 121.564C335.854 120.214 334.638 120.442 330.404 116.738C329.059 115.513 327.948 114.052 327.128 112.428C326.989 112.253 326.798 112.126 326.583 112.064C326.368 112.002 326.139 112.009 325.928 112.084C325.41 112.428 325.41 112.774 325.582 113.284C326.506 115.203 327.665 117.001 329.032 118.634Z" fill="#191919"/>
<path d="M339.72 124.322C341.27 125.356 342.46 123.616 341.444 122.6C338.763 120.4 336.786 117.463 335.756 114.152C335.687 113.923 335.531 113.731 335.32 113.618C335.11 113.505 334.864 113.48 334.635 113.549C334.406 113.618 334.214 113.774 334.101 113.985C333.988 114.195 333.963 114.441 334.032 114.67C334.902 118.391 336.886 121.758 339.72 124.322Z" fill="#191919"/>
<path d="M341.1 119.324C342.452 120 343.718 119.348 345.754 120.876C349.108 123.112 348.772 128.1 349.202 134.322C345.488 134.852 343.448 140.3 345.402 143.112C345.54 143.312 345.802 143.824 345.918 143.974C345.918 144.338 343.888 146.082 343.678 146.216C342.828 146.754 341.954 147.078 341.092 147.594C340.402 148.112 340.574 149.49 341.608 149.318C342.908 149.289 344.169 148.871 345.228 148.118C345.574 147.946 348.16 145.704 347.986 145.532C351.842 147.634 357.542 139.282 352.642 135.362C352.462 127.666 352.078 119.522 345.228 117.434C344.99 117.36 342.1 116.548 340.92 117.606C340.698 117.8 340.36 118.954 341.1 119.324ZM348 142.768C347.587 142.23 347.306 141.602 347.178 140.936C347.05 140.27 347.079 139.583 347.264 138.93C347.448 138.277 347.782 137.676 348.239 137.175C348.697 136.674 349.265 136.287 349.898 136.044C350.035 136.02 350.175 136.041 350.299 136.104C350.423 136.166 350.523 136.266 350.586 136.39C350.936 137.008 349.724 137.252 349.386 137.59C348.636 138.34 347.964 141.124 348.868 141.728C349.214 142.072 349.904 142.244 349.73 142.928C349.546 143.974 348.512 143.458 348 142.768Z" fill="#191919"/>
<path d="M205.088 94.328C206.382 95.9507 208.035 97.2514 209.916 98.128C213.938 99.8397 218.315 100.55 222.672 100.198C225.748 105.278 230.505 109.12 236.118 111.058C237.318 111.402 238.014 109.858 237.318 108.988C234.613 106.023 233.134 102.141 233.182 98.128C247.804 91.996 248.794 71.928 234.56 65.728C229.705 63.7369 224.45 62.9108 219.218 63.316C215.875 63.6651 212.652 64.7601 209.788 66.5202C206.924 68.2803 204.492 70.6608 202.67 73.486C198.074 80.426 199.7 88.218 205.088 94.328ZM224.396 78.986C225.059 79.3868 225.58 79.9834 225.889 80.6935C226.198 81.4036 226.279 82.1921 226.12 82.95C225.959 83.7299 225.553 84.4382 224.962 84.9722C224.371 85.5062 223.626 85.8383 222.834 85.9203C222.042 86.0022 221.244 85.8299 220.556 85.4281C219.868 85.0264 219.327 84.4161 219.009 83.6858C218.691 82.9554 218.614 82.1429 218.789 81.366C218.965 80.589 219.382 79.888 219.983 79.3644C220.583 78.8408 221.334 78.5219 222.127 78.4539C222.921 78.3859 223.715 78.5722 224.396 78.986ZM231.118 82.434C231.057 81.8357 231.145 81.2317 231.372 80.675C231.599 80.1182 231.96 79.6257 232.421 79.2407C232.883 78.8556 233.433 78.5897 234.021 78.4663C234.61 78.343 235.22 78.3659 235.797 78.533C236.375 78.7002 236.903 79.0065 237.334 79.4251C237.766 79.8437 238.088 80.3618 238.273 80.9341C238.458 81.5063 238.5 82.1151 238.395 82.7072C238.289 83.2992 238.041 83.8565 237.67 84.33C237.214 84.9009 236.6 85.3238 235.904 85.5451C235.208 85.7664 234.462 85.7761 233.76 85.5731C233.058 85.3701 232.433 84.9634 231.962 84.4046C231.492 83.8458 231.198 83.1599 231.118 82.434ZM213.536 82.95C213.446 83.5074 213.224 84.0353 212.889 84.4903C212.555 84.9453 212.117 85.3142 211.612 85.5668C211.107 85.8193 210.549 85.9482 209.984 85.9429C209.42 85.9375 208.864 85.7981 208.364 85.536C207.578 85.1244 206.958 84.4523 206.613 83.6348C206.267 82.8173 206.216 81.905 206.468 81.054C207.8 76.732 214.722 78.292 213.536 82.95Z" fill="#C88C8C"/>
<path d="M291.28 230C300.336 226.144 303.378 217.528 300.59 211.554C300.244 210.694 298.866 211.382 299.21 212.072C299.773 214.181 299.749 216.403 299.141 218.499C298.534 220.595 297.365 222.485 295.762 223.966C292.621 226.892 288.643 228.76 284.386 229.31C286.281 221.52 287.777 213.637 288.868 205.694C290.268 194.836 278.352 192.58 270.068 191.904C255.068 190.676 217.838 190.094 214.216 190.18C207.006 190.35 205.952 197.282 208.016 204.142C200.404 202.184 192.576 201.195 184.716 201.2C184.552 201.2 184.204 200.908 184.058 200.682C181.778 197.178 174.232 184.14 174.232 183.962C174.476 180.75 174.533 177.527 174.404 174.308C174.371 174.118 174.29 173.939 174.17 173.788C174.049 173.638 173.892 173.52 173.714 173.446C173.37 173.446 172.854 173.618 172.854 173.964C172.454 176.146 172.17 182.872 171.992 184.652C163.104 192.122 153.715 198.975 143.892 205.164C142.82 202.664 137.692 186.036 137.514 185.34C137.514 185.22 137.686 186.838 137.686 176.204C139.563 176.548 141.468 176.721 143.376 176.722C147.071 176.508 150.722 175.812 154.236 174.652C155.098 174.308 155.098 172.756 154.064 172.93C148.962 173.496 137.504 177.4 130.446 169.998C126.7 166.07 126.846 160.726 127.172 155.346C127.968 140.924 130.875 126.697 135.8 113.118C136.146 112.428 134.922 111.904 134.6 112.6C129.71 122.98 126.36 136.87 125.292 154.49C124.944 160.198 124.726 165.748 128.222 170.35C129.856 172.407 131.991 174.009 134.422 175.004C134.938 175.176 135.622 175.348 136.146 175.52V184.484C127.576 193.054 125.904 193.946 123.044 197.586C118.48 196.512 108.044 197.25 103.738 197.93C83.9039 201.062 67.7379 210.382 58.0559 227.408C56.4968 230.253 55.1148 233.192 53.9179 236.208C41.6779 235.174 30.6459 234.322 24.6119 233.794C5.30192 232.104 9.95992 245.344 12.0279 252.24C14.0959 259.136 36.6799 315.504 36.6799 315.504C152.252 328.81 145.546 328.346 150.97 327.572C161.57 325.45 180.37 319.172 181.694 319.128C183.626 319.06 184.46 323.484 183.55 324.128C181.01 325.91 156.656 331.656 154.246 332.23C151.595 332.978 148.884 333.496 146.144 333.78C138.118 333.78 56.4579 325.336 44.9539 322.748C44.5921 322.668 44.2132 322.732 43.898 322.927C43.5827 323.121 43.3559 323.432 43.266 323.791C43.176 324.151 43.23 324.531 43.4164 324.851C43.6028 325.172 43.9069 325.407 44.2639 325.506C56.7899 327.848 122.1 335.44 143.73 336.706C145.528 336.925 147.352 336.748 149.074 336.188C153.696 335.23 180.336 328.832 184.24 326.88C186.628 325.388 186.394 320.904 184.412 318.26C183.887 317.613 183.171 317.148 182.366 316.933C181.561 316.717 180.708 316.762 179.93 317.06C169.996 319.77 171.464 319.672 158.556 323.26C155.978 323.978 153.518 324.478 150.97 325.156C150.236 325.356 146.262 326.22 145.996 324.998C131.134 256.588 131.144 254.998 127.87 249.652C126.728 247.566 125.126 245.768 123.186 244.394C121.245 243.02 119.017 242.106 116.67 241.722C112.716 241.122 81.8479 238.792 55.8179 236.722C58.6454 229.35 62.9914 222.655 68.5739 217.072C79.8339 205.812 95.6659 200.046 111.842 199.66C114.098 199.606 113.28 199.488 122.358 199.488C123.048 207.074 124.254 214.658 124.944 222.242C125.116 223.104 125.978 223.622 126.668 222.932C127.324 222.276 134.278 216.874 142.868 208.28C144.956 211.934 148.106 218.436 150.626 223.104C151.523 224.665 152.329 226.277 153.038 227.932C153.14 228.091 153.28 228.221 153.446 228.311C153.612 228.402 153.797 228.449 153.986 228.449C154.175 228.449 154.36 228.402 154.526 228.311C154.691 228.221 154.832 228.091 154.934 227.932C159.334 220.398 175.774 208.046 182.334 202.932C189.744 202.977 197.132 203.727 204.4 205.172C218.625 208.022 231.73 214.904 242.152 224.996C253.523 235.897 261.386 249.942 264.734 265.334C267.842 281.442 264.494 295.494 252.666 308.086C236.652 325.136 216.956 326.686 194.228 321.532C192.678 321.18 190.964 320.974 189.228 320.498C189.092 320.462 188.95 320.454 188.81 320.474C188.67 320.493 188.536 320.54 188.415 320.612C188.294 320.684 188.188 320.779 188.104 320.892C188.02 321.005 187.959 321.134 187.924 321.27C187.89 321.407 187.883 321.549 187.904 321.689C187.925 321.828 187.974 321.962 188.047 322.082C188.12 322.203 188.216 322.307 188.33 322.391C188.444 322.474 188.573 322.533 188.71 322.566C191.854 323.274 194.122 325.008 209.568 326.366C224.91 327.708 238.258 324.106 249.906 314.128C267.534 299.026 271.964 278.592 265.076 257.928C265.386 258.24 265.214 258.128 274.384 257.584C276.068 257.838 277.788 257.659 279.384 257.066C281.276 256.024 281.108 251.55 280.074 249.998C279.576 249.252 278.118 249.136 278.35 249.136C279.384 248.964 283.004 231.382 283.35 231.382C286.07 231.655 288.813 231.177 291.28 230ZM43.3999 305.842C42.4699 303.87 32.3299 277.756 29.5999 269.814C29.2459 268.784 30.7999 268.44 31.1519 269.298C39.1319 288.564 45.1919 300.976 45.9759 304.636C46.1519 306.36 44.1179 307.378 43.3999 305.842ZM58.2259 244.302C71.0399 245.726 101.724 245.95 110.114 248.266C116.208 249.95 116.898 254.398 118.388 260.334C121.856 274.156 122.03 275.358 122.352 278.262C122.332 278.533 122.216 278.788 122.024 278.981C121.832 279.174 121.577 279.291 121.306 279.312C121.035 279.333 120.765 279.256 120.546 279.094C120.327 278.933 120.173 278.699 120.112 278.434C119.562 277.198 117.566 268.812 117.526 268.608C112.35 248.936 116.944 250.782 90.8059 248.44C79.9559 247.466 69.0859 246.888 58.2259 245.508C58.1343 245.532 58.0384 245.535 57.9457 245.516C57.8529 245.497 57.7656 245.457 57.6906 245.399C57.6155 245.342 57.5546 245.268 57.5124 245.183C57.4703 245.098 57.4481 245.005 57.4474 244.91C57.4468 244.816 57.4678 244.722 57.5088 244.637C57.5498 244.551 57.6097 244.477 57.6841 244.418C57.7584 244.359 57.8451 244.318 57.9376 244.298C58.0301 244.278 58.126 244.28 58.2179 244.302H58.2259ZM123.896 198.964C124.096 198.964 125.162 197.46 130.274 192.764C132.34 190.864 134.412 188.798 136.308 186.902C137.789 193.698 139.747 200.381 142.168 206.902C137.342 211.73 132.342 216.556 127 221.038C125.964 213.446 124.93 206.2 123.896 198.964ZM170.612 210C164.551 214.562 159.054 219.828 154.236 225.686C151.132 219.652 147.858 213.62 144.754 207.586C154.751 201.347 164.312 194.435 173.37 186.898C176.258 192.674 179.782 198.75 181.472 201.378C177.852 204.136 174.24 207.078 170.612 210ZM237.152 193.8C248.526 193.928 258.006 193.29 271.628 196.04C274.744 196.67 278.18 197.24 280.248 199.84C281.1 200.739 281.644 201.887 281.8 203.116C282.788 207.551 282.729 212.154 281.628 216.562C281.458 217.252 281.11 217.942 280.428 217.942C278.876 217.768 279.734 214.838 279.912 213.976C280.41 211.655 280.584 209.277 280.428 206.908C279.928 199.216 274.766 198.834 267.154 197.6C256.566 195.882 250.224 196.046 237.154 195.358C236.118 195.172 236.118 193.782 237.152 193.8ZM221.81 194.144C222.051 194.16 222.277 194.266 222.441 194.442C222.606 194.619 222.698 194.851 222.698 195.092C222.698 195.333 222.606 195.566 222.441 195.742C222.277 195.918 222.051 196.024 221.81 196.04C220.022 195.983 218.232 196.099 216.466 196.386C215.759 196.391 215.066 196.585 214.459 196.949C213.853 197.312 213.355 197.832 213.018 198.454C212.684 199.32 211.294 198.97 211.468 198.11C212.55 194.13 217.952 194.138 221.81 194.138V194.144ZM266.286 256.374C266.149 256.369 266.012 256.392 265.884 256.443C265.756 256.493 265.639 256.569 265.542 256.666C265.445 256.764 265.369 256.88 265.318 257.008C265.268 257.136 265.245 257.273 265.25 257.41C264.734 255.686 264.05 253.962 263.354 252.238C264.522 252.472 264.374 252.41 278.87 252.41V255.686C277.548 255.68 267.6 256.29 266.286 256.368V256.374Z" fill="#0F3644"/>
<path d="M252.666 170.176C252.547 171.28 252.665 172.397 253.012 173.452C254.49 180.84 260.25 184.228 264.044 177.59C265.08 182.248 268.564 184.052 272.49 182.416C277.834 180.52 281.454 174.486 283.868 169.66C284.212 168.97 284.386 168.282 284.73 167.592C284.986 167.074 284.694 166.644 284.212 166.392C283.874 166.21 278.524 165.192 278.696 165.014C278.982 159.014 279.214 148.148 279.214 147.948C279.58 148.191 279.986 148.366 280.414 148.464C285.24 149.844 289.05 144.332 289.896 140.362C290.776 136.23 290.224 129.73 285.414 128.296C280.398 126.8 277.39 131.766 276.104 135.88C275.547 137.56 275.365 139.342 275.573 141.1C275.78 142.857 276.371 144.548 277.304 146.052C275.141 148.303 272.565 150.117 269.718 151.396C268.684 150.196 264.35 150.368 265.408 153.98C265.532 154.572 265.872 155.097 266.361 155.453C266.85 155.808 267.454 155.97 268.055 155.905C268.657 155.841 269.213 155.556 269.616 155.105C270.019 154.654 270.24 154.069 270.236 153.464C272.823 152.525 275.218 151.123 277.304 149.326C277.118 149.512 275.858 166.048 276.442 166.048C272.642 168.978 268.856 171.736 265.064 174.494C265.236 174.322 261.616 168.294 261.616 167.426C261.444 166.91 261.616 161.566 261.444 161.566C262.134 161.738 263.168 161.91 263.512 161.22C263.582 161.098 263.625 160.962 263.637 160.822C263.648 160.682 263.629 160.541 263.58 160.409C263.53 160.277 263.452 160.158 263.351 160.06C263.25 159.962 263.129 159.888 262.996 159.842C258.142 158.986 254.84 158.596 251.796 154.326C247.91 149.792 247.314 145.776 247.314 139.674C247.342 131.798 248.151 123.945 249.728 116.228C249.728 116.574 252.314 116.918 252.658 116.918C255.762 117.264 264.898 115.718 268.858 115.366C270.41 118.986 275.37 121.734 274.202 126.228C273.846 127.604 271.642 131.702 273.34 132.778C273.582 132.921 273.865 132.982 274.145 132.951C274.424 132.92 274.687 132.799 274.892 132.606C275.933 131.032 277.085 129.534 278.34 128.124C280.064 126.4 283.34 126.054 284.202 125.192C284.727 124.586 285.096 123.861 285.277 123.08C285.457 122.298 285.443 121.485 285.236 120.71C284.322 117.254 282.805 113.986 280.754 111.058C284.654 109.64 287.154 113.71 296.786 116.918C300.574 118.362 304.662 118.836 308.68 118.298C310.568 117.912 309.542 115.884 307.818 114.85C303.592 111.776 299.218 105.438 297.992 103.818C290.826 95.9361 283.448 99.7341 278.512 108.988C277.37 108.181 276.033 107.691 274.64 107.57C273.247 107.45 271.846 107.701 270.582 108.3C263.154 90.9661 239.382 96.1921 244.726 111.23C245.316 113.131 246.611 114.735 248.346 115.712C246.26 124.884 243.206 141.746 246.966 150.36C248.228 153.451 250.243 156.177 252.828 158.29C254.945 159.912 257.434 160.979 260.068 161.394C260.09 162.89 260.033 164.386 259.896 165.876C260.42 165.876 254.912 165.758 253.746 166.664C253.139 167.744 252.771 168.942 252.666 170.176ZM248.866 107.084C248.952 107.795 249.179 108.481 249.534 109.103C249.889 109.725 250.365 110.269 250.934 110.704C252.454 111.844 253.442 111.566 255.244 111.566C256.278 111.394 256.796 113.118 255.762 113.636C254.717 113.995 253.6 114.092 252.508 113.92C251.416 113.747 250.384 113.31 249.5 112.647C248.616 111.984 247.907 111.115 247.436 110.115C246.966 109.116 246.746 108.016 246.798 106.912C246.864 106.674 247.01 106.466 247.213 106.325C247.415 106.184 247.661 106.118 247.907 106.138C248.153 106.158 248.385 106.264 248.561 106.437C248.738 106.61 248.848 106.838 248.874 107.084H248.866ZM278.866 140.7C278.622 139.545 278.619 138.351 278.856 137.194C279.093 136.038 279.567 134.942 280.246 133.976C280.764 133.286 281.778 133.976 281.626 134.838C281.226 137.07 280.404 139.154 281.28 141.388C281.455 141.794 281.715 142.157 282.042 142.455C282.369 142.752 282.755 142.976 283.176 143.112C283.366 143.244 283.512 143.431 283.594 143.647C283.676 143.864 283.69 144.101 283.634 144.326C283.578 144.55 283.454 144.753 283.28 144.906C283.107 145.059 282.89 145.155 282.66 145.182C281.606 144.991 280.651 144.44 279.959 143.622C279.267 142.804 278.881 141.771 278.868 140.7H278.866ZM278.178 166.556C278.412 166.626 279.126 166.902 282.66 167.756C280.892 171.512 277.156 178.156 273.522 180.168C272.759 180.716 271.879 181.078 270.952 181.228C270.025 181.378 269.076 181.31 268.18 181.03C266.3 180.132 266.11 178.098 265.594 176.374C269.7 172.62 277.536 167.2 278.18 166.556H278.178ZM254.318 168.492C254.329 168.343 254.395 168.203 254.504 168.1C254.613 167.997 254.756 167.939 254.906 167.936C255.306 167.936 259.184 167.616 259.388 167.592C260.458 170.214 261.728 172.75 263.188 175.176C262.669 176.69 261.708 178.013 260.43 178.976C258.86 179.804 257.47 178.826 256.466 177.424C254.765 174.773 254.009 171.626 254.32 168.492H254.318Z" fill="#191919"/>
<path d="M250.6 129.15C250.214 131.852 253.12 132.376 253.53 129.494C253.914 126.8 251.01 126.268 250.6 129.15Z" fill="#191919"/>
<path d="M265.94 128.116C264.108 128.116 263.646 131.862 265.596 132.252C266.05 132.199 266.465 131.972 266.755 131.618C267.044 131.264 267.184 130.811 267.146 130.356C267.146 129.15 266.63 128.288 265.94 128.116Z" fill="#191919"/>
<path d="M329.378 135.7C329.794 135.633 330.176 135.426 330.458 135.112C330.74 134.798 330.906 134.397 330.928 133.976C331.102 132.942 330.6 131.994 329.894 131.908C329.188 131.822 328.516 132.598 328.344 133.632C328.172 134.666 328.688 135.7 329.378 135.7Z" fill="#191919"/>
<path d="M339.892 134.494C340.066 133.46 339.564 132.512 338.858 132.424C338.152 132.336 337.48 133.114 337.308 134.148C337.136 135.182 337.636 136.13 338.342 136.218C339.048 136.306 339.72 135.528 339.892 134.494Z" fill="#191919"/>
<path d="M333.17 132.942C333.17 132.252 332.136 132.252 331.97 132.942C331.796 134.666 331.796 136.39 331.624 138.114C331.624 138.804 331.452 139.664 332.142 140.182C332.658 140.51 333.255 140.689 333.866 140.7C334.04 140.687 334.202 140.608 334.321 140.48C334.44 140.352 334.505 140.184 334.505 140.01C334.505 139.836 334.44 139.668 334.321 139.54C334.202 139.412 334.04 139.333 333.866 139.32C333.52 139.32 333.004 139.32 332.832 139.148C332.826 138.8 333.17 134.322 333.17 132.942Z" fill="#191919"/>
<path d="M329.032 127.942C327.706 128.606 328.202 129.322 328.688 129.322H330.928C331.022 129.338 331.118 129.33 331.209 129.301C331.3 129.272 331.383 129.222 331.45 129.154C331.518 129.087 331.568 129.004 331.597 128.913C331.626 128.823 331.633 128.726 331.618 128.632C331.618 127.36 329.6 127.664 329.032 127.942Z" fill="#191919"/>
<path d="M340.582 128.8C340.066 127.938 338.182 127.852 337.306 127.938C337.148 127.964 337.006 128.051 336.91 128.18C336.814 128.308 336.771 128.469 336.79 128.628C336.79 129.146 337.31 129.082 337.824 129.146C338.486 129.285 339.124 129.517 339.72 129.836C340.124 130 340.89 129.42 340.582 128.8Z" fill="#191919"/>
<path d="M330.412 144.32C331.092 144.463 331.786 144.52 332.48 144.492C333.11 148.274 339.03 148.246 339.03 145.182C339.03 138.87 337.318 142.582 330.24 143.286C330.066 143.286 329.722 144.146 330.412 144.32ZM337.48 143.12C337.48 143.294 337.824 145.534 336.28 145.706C335.758 145.755 335.237 145.604 334.821 145.284C334.406 144.964 334.127 144.499 334.04 143.982C335.226 143.876 336.387 143.583 337.48 143.112V143.12Z" fill="#191919"/>
<path d="M349.718 202.068C350.316 201.529 351.041 201.151 351.825 200.97C352.609 200.789 353.427 200.811 354.2 201.034C355.747 201.749 357.15 202.742 358.338 203.964C358.499 204.036 358.675 204.063 358.85 204.043C359.024 204.023 359.19 203.957 359.331 203.852C359.471 203.747 359.581 203.606 359.649 203.443C359.717 203.281 359.74 203.104 359.716 202.93C359.289 201.792 358.502 200.824 357.476 200.172C356.853 199.633 356.122 199.232 355.332 198.999C354.541 198.765 353.71 198.703 352.894 198.816C352.078 198.93 351.295 199.217 350.599 199.657C349.902 200.098 349.308 200.683 348.856 201.372C348.766 201.487 348.725 201.632 348.741 201.777C348.757 201.922 348.83 202.054 348.944 202.146C349.057 202.237 349.202 202.28 349.347 202.266C349.492 202.251 349.625 202.18 349.718 202.068Z" fill="#191919"/>
<path d="M348.512 198.62C349.946 195.754 353.922 196.322 354.546 196.206C354.734 196.153 354.899 196.04 355.016 195.884C355.134 195.729 355.197 195.539 355.197 195.344C355.197 195.149 355.134 194.959 355.016 194.804C354.899 194.648 354.734 194.535 354.546 194.482C352.27 193.724 349.27 194.346 347.306 198.282C347.132 198.8 348.168 199.138 348.512 198.62Z" fill="#191919"/>
<path d="M351.96 192.07C353.534 192.07 353.424 190.992 352.476 190.518C349.892 189.484 347.132 192.242 345.926 194.318C345.466 195.238 346.628 195.518 346.96 195.18C347.491 194.305 348.22 193.568 349.089 193.028C349.957 192.488 350.941 192.159 351.96 192.07Z" fill="#191919"/>
<path d="M169.06 309.636C172.934 303.368 180.486 304.546 181.128 304.118C181.335 304.053 181.521 303.932 181.664 303.768C181.806 303.605 181.901 303.404 181.936 303.19C181.972 302.976 181.948 302.755 181.866 302.554C181.784 302.353 181.647 302.178 181.472 302.05C180.416 301.216 178.37 301.534 176.99 301.706C174.942 301.984 172.992 302.758 171.31 303.959C169.628 305.16 168.264 306.753 167.336 308.6C167.164 309.8 168.532 310.49 169.06 309.636Z" fill="#191919"/>
<path d="M213.88 282.054C209.28 289.178 200.328 291.708 191.642 291.708C191.466 291.718 191.3 291.794 191.178 291.922C191.057 292.051 190.989 292.22 190.989 292.397C190.989 292.574 191.057 292.743 191.178 292.872C191.3 293 191.466 293.077 191.642 293.086C197.723 293.907 203.905 292.694 209.226 289.638C216.306 285.286 219.052 279.016 219.052 271.194C219.137 269.34 218.963 267.484 218.534 265.678C218.48 265.492 218.366 265.328 218.211 265.211C218.055 265.095 217.866 265.032 217.672 265.032C217.478 265.032 217.289 265.095 217.133 265.211C216.978 265.328 216.865 265.492 216.81 265.678C216.094 269.07 218.182 275.4 213.88 282.054Z" fill="#191919"/>
<path d="M253.158 167.95C225.772 167.982 215.466 182.662 212.268 190.436C212.909 190.278 213.566 190.19 214.226 190.174C216.532 190.118 232.468 190.336 247.614 190.816C248.732 184.067 250.421 177.425 252.664 170.962C252.619 169.935 252.787 168.909 253.158 167.95ZM243.358 172.418C242.456 172.672 241.533 172.846 240.6 172.936C237.948 173.281 235.38 174.098 233.016 175.348C229.762 177.051 226.888 179.397 224.568 182.244C224.45 182.443 224.259 182.588 224.036 182.649C223.813 182.709 223.575 182.68 223.373 182.568C223.171 182.455 223.02 182.269 222.954 182.047C222.887 181.826 222.909 181.587 223.016 181.382C224.139 179.723 225.472 178.217 226.982 176.9C229.982 174.245 233.505 172.248 237.324 171.038C239.263 170.373 241.31 170.081 243.358 170.176C244.562 170.364 244.4 172.074 243.358 172.418Z" fill="#83969D"/>
<path d="M325.068 202.758C312.668 164.856 285.378 169.358 283.942 169.484C283.528 170.382 282.59 172.152 281.644 173.706C279.311 179.881 277.53 186.251 276.32 192.74C283.234 194.124 289.934 197.392 288.868 205.688C287.777 213.631 286.281 221.514 284.386 229.304C296.636 227.262 301.324 218.406 299.21 212.066C298.866 211.376 300.244 210.686 300.59 211.548C303.378 217.522 300.336 226.148 291.28 229.994C288.813 231.171 286.07 231.648 283.35 231.374C283.09 231.374 280.962 241.402 279.49 246.374C279.166 247.728 278.92 248.708 278.77 249.224C279.088 249.302 279.391 249.43 279.668 249.604C284.635 250.5 289.684 250.857 294.728 250.67C312.39 250.47 327 243.442 328.516 225.846C328.915 217.997 327.742 210.148 325.068 202.758Z" fill="#83969D"/>
<path d="M389.366 187.932C388.024 181.568 385.159 175.623 381.016 170.609C376.873 165.595 371.575 161.661 365.578 159.144C359.682 156.813 353.458 155.417 347.132 155.008H345.582C345.811 153.641 345.868 152.251 345.754 150.87C345.754 150.18 344.554 149.836 344.374 150.698C344.202 151.898 344.19 153.098 344.03 154.146C343.584 157.032 343.458 159.888 340.754 162.592C340.029 163.223 339.176 163.688 338.253 163.956C337.33 164.224 336.36 164.288 335.41 164.144C334.567 163.864 333.8 163.391 333.172 162.762C332.543 162.134 332.07 161.367 331.79 160.524C331.209 158.331 331.092 156.041 331.446 153.8C333.914 153.972 336.39 153.972 338.858 153.8C339.064 153.8 339.261 153.718 339.407 153.573C339.552 153.427 339.634 153.23 339.634 153.024C339.634 152.818 339.552 152.621 339.407 152.475C339.261 152.33 339.064 152.248 338.858 152.248C336.79 152.248 328.516 152.594 326.792 151.732C326.421 151.419 326.132 151.019 325.952 150.568C325.771 150.117 325.705 149.629 325.758 149.146C324.522 139.262 326.102 128.85 326.102 123.806C326.936 124.17 327.802 124.459 328.688 124.668C330.622 124.668 330.3 122.914 329.378 122.598C326.015 121.582 323.135 119.379 321.276 116.398C321.175 116.225 321.014 116.094 320.824 116.031C320.634 115.967 320.427 115.975 320.242 116.052C319.896 116.224 319.558 116.738 319.724 117.086C320.901 119.658 322.822 121.818 325.24 123.286C323.892 132.013 323.661 140.876 324.55 149.662C324.574 150.805 324.998 151.903 325.75 152.764C327.133 153.5 328.666 153.911 330.232 153.964C330.087 154.818 330.029 155.684 330.058 156.55C319.784 156.55 309.324 160.15 302.478 168.446C301.607 169.487 300.809 170.586 300.088 171.736C300.608 171.948 301.133 172.179 301.664 172.43C305.967 165.97 312.53 161.352 320.064 159.482C323.289 158.746 326.582 158.344 329.89 158.282C329.879 159.227 330.055 160.164 330.408 161.04C333.24 169.534 343.808 167.722 345.578 157.076C351.538 157.469 357.406 158.75 362.988 160.876C368.147 162.716 372.809 165.728 376.606 169.676C385.224 178.832 388.024 189.11 387.294 196.396C386.888 199.896 385.577 203.23 383.492 206.071C381.406 208.911 378.618 211.16 375.4 212.596C371.954 213.988 368.253 214.634 364.54 214.492C364.316 214.515 364.107 214.615 363.949 214.775C363.791 214.935 363.694 215.145 363.674 215.369C363.653 215.593 363.711 215.817 363.838 216.003C363.965 216.189 364.152 216.325 364.368 216.388C374.368 218.828 386.634 211.374 389.19 200.356C390.215 196.285 390.275 192.031 389.366 187.932Z" fill="#191919"/>
<path d="M354.89 206.032C354.85 205.894 354.774 205.769 354.671 205.669C354.567 205.57 354.439 205.499 354.3 205.464C354.16 205.429 354.014 205.432 353.876 205.471C353.738 205.51 353.612 205.585 353.512 205.688C352.724 206.608 349.444 210.744 348.856 211.722C344.374 191.3 342.478 185.016 342.478 183.45C342.478 182.934 342.306 182.416 341.616 182.416C332.632 183.087 323.615 183.204 314.616 182.766C315.08 183.332 315.54 183.926 315.996 184.54C324.293 185.155 332.625 185.136 340.92 184.484C341.034 185.748 346.12 208.498 347.12 212.238C345.046 212.654 334.32 212.238 327.986 212.238C328.158 212.756 328.158 213.438 328.332 213.962C329.856 213.962 347.766 214.868 348.844 213.79C350.314 212.32 353.21 208.39 353.672 207.928C353.853 208.547 353.968 209.183 354.016 209.826C354.016 210.708 352.074 212.372 350.914 214.308C350.455 215.094 349.936 215.842 349.362 216.548C347.852 217.748 334.814 216.776 332.986 216.548C328.152 216.548 328.82 215.572 328.36 217.272C328.384 217.492 328.394 217.712 328.416 217.932C334.736 218.31 345.438 219.638 349.534 218.272C350.498 217.863 351.291 217.132 351.776 216.204C355.54 210.274 356.4 212.06 354.89 206.032Z" fill="#191919"/>
</svg>
