<svg width="200" height="200" viewBox="0 0 200 200" fill="none" xmlns="http://www.w3.org/2000/svg">
<path d="M20.792 101.748C20.792 122.756 29.1371 142.903 43.9915 157.757C58.8458 172.611 78.9927 180.956 99.9999 180.956C121.007 180.956 141.154 172.611 156.008 157.757C170.863 142.903 179.208 122.756 179.208 101.748C179.208 80.7412 170.863 60.5944 156.008 45.74C141.154 30.8856 121.007 22.5405 99.9999 22.5405C78.9927 22.5405 58.8458 30.8856 43.9915 45.74C29.1371 60.5944 20.792 80.7412 20.792 101.748Z" fill="#F3F4F6"/>
<path d="M48.408 154.721C48.408 155.248 49.7298 155.77 52.2981 156.258C54.8664 156.745 58.6307 157.188 63.3763 157.561C68.1218 157.933 73.7556 158.229 79.9559 158.431C86.1562 158.633 92.8017 158.737 99.5129 158.737C106.224 158.737 112.87 158.633 119.07 158.431C125.27 158.229 130.904 157.933 135.65 157.561C140.395 157.188 144.159 156.745 146.728 156.258C149.296 155.77 150.618 155.248 150.618 154.721C150.618 154.194 149.296 153.671 146.728 153.184C144.159 152.697 140.395 152.254 135.65 151.881C130.904 151.508 125.27 151.213 119.07 151.011C112.87 150.809 106.224 150.705 99.5129 150.705C92.8017 150.705 86.1562 150.809 79.9559 151.011C73.7556 151.213 68.1218 151.508 63.3763 151.881C58.6307 152.254 54.8664 152.697 52.2981 153.184C49.7298 153.671 48.408 154.194 48.408 154.721Z" fill="#CBDEE5"/>
<path d="M146.705 69.2297L144.554 60.6317C144.411 60.0576 144.08 59.548 143.613 59.1841C143.147 58.8202 142.572 58.623 141.98 58.6238H119.604C119.012 58.623 118.437 58.8202 117.971 59.1841C117.504 59.548 117.173 60.0576 117.03 60.6317L114.879 69.2297H45.9405C45.238 69.2308 44.5646 69.5106 44.0682 70.0077C43.5718 70.5049 43.293 71.1787 43.293 71.8812V148.778C43.293 150.185 43.8517 151.534 44.8462 152.528C45.8407 153.523 47.1895 154.081 48.5959 154.081H149.356C150.762 154.08 152.109 153.52 153.102 152.526C154.095 151.532 154.653 150.184 154.653 148.778V71.8812C154.653 71.178 154.374 70.5036 153.877 70.0063C153.38 69.5091 152.705 69.2297 152.002 69.2297H146.705Z" fill="#CBDEE5" stroke="#0F3644" stroke-width="2" stroke-linecap="round" stroke-linejoin="round"/>
<path d="M150.166 154.081H47.7902C46.5347 154.081 45.3198 153.636 44.3618 152.825C43.4038 152.013 42.7648 150.888 42.5585 149.65L33.206 93.5308C33.1425 93.1509 33.1624 92.7618 33.2645 92.3904C33.3666 92.0191 33.5483 91.6744 33.7971 91.3804C34.0458 91.0864 34.3557 90.8502 34.705 90.688C35.0543 90.5259 35.4348 90.4418 35.8199 90.4417H162.137C162.522 90.4418 162.902 90.5259 163.252 90.688C163.601 90.8502 163.911 91.0864 164.16 91.3804C164.408 91.6744 164.59 92.0191 164.692 92.3904C164.794 92.7618 164.814 93.1509 164.751 93.5308L155.398 149.65C155.192 150.888 154.553 152.013 153.595 152.825C152.637 153.636 151.422 154.081 150.166 154.081Z" fill="white" stroke="#0F3644" stroke-width="2" stroke-linecap="round" stroke-linejoin="round"/>
<path d="M134.521 19.0435H73.9882L57.6892 35.3464V90.4415H136.85V21.3722C136.85 21.0663 136.79 20.7634 136.673 20.4807C136.556 20.1981 136.384 19.9412 136.168 19.7249C135.952 19.5086 135.695 19.3371 135.412 19.2202C135.13 19.1033 134.827 19.0432 134.521 19.0435Z" fill="white" stroke="#0F3644" stroke-width="2" stroke-linecap="round" stroke-linejoin="round"/>
<path d="M57.6892 35.3464H71.6595C72.277 35.3459 72.869 35.1004 73.3056 34.6638C73.7422 34.2272 73.9877 33.6352 73.9882 33.0177V19.0435L57.6892 35.3464Z" fill="#C88C8C" stroke="#0F3644" stroke-width="2" stroke-linecap="round" stroke-linejoin="round"/>
<path d="M66.4199 77.8318H82.7189" stroke="#0F3644" stroke-width="2" stroke-linecap="round" stroke-linejoin="round"/>
<path d="M66.4199 70.8474H78.0615" stroke="#0F3644" stroke-width="2" stroke-linecap="round" stroke-linejoin="round"/>
<path d="M66.4199 63.8613H73.4061" stroke="#0F3644" stroke-width="2" stroke-linecap="round" stroke-linejoin="round"/>
<path d="M66.4199 56.8772H75.7328" stroke="#0F3644" stroke-width="2" stroke-linecap="round" stroke-linejoin="round"/>
<path d="M85.0457 54.5486C85.0457 60.7236 87.4987 66.6458 91.8651 71.0122C96.2316 75.3787 102.154 77.8317 108.329 77.8317C114.504 77.8317 120.426 75.3787 124.793 71.0122C129.159 66.6458 131.612 60.7236 131.612 54.5486C131.612 48.3735 129.159 42.4513 124.793 38.0849C120.426 33.7184 114.504 31.2654 108.329 31.2654C102.154 31.2654 96.2316 33.7184 91.8651 38.0849C87.4987 42.4513 85.0457 48.3735 85.0457 54.5486Z" fill="white" stroke="#0F3644" stroke-width="2" stroke-linecap="round" stroke-linejoin="round"/>
<path d="M108.329 77.8317C113.685 77.8395 118.879 75.9923 123.028 72.604C121.546 70.013 119.407 67.8595 116.825 66.3618C114.244 64.864 111.312 64.0752 108.328 64.0752C105.343 64.0752 102.412 64.864 99.8302 66.3618C97.2487 67.8595 95.1089 70.013 93.6277 72.604C97.7773 75.992 102.972 77.8391 108.329 77.8317Z" fill="#CBDEE5" stroke="#0F3644" stroke-width="2" stroke-linecap="round" stroke-linejoin="round"/>
<path d="M108.329 72.5405V77.8316" stroke="#0F3644" stroke-width="2" stroke-linecap="round" stroke-linejoin="round"/>
<path d="M113.404 64.8514C113.002 64.725 112.651 64.4736 112.401 64.1339C112.152 63.7941 112.018 63.3837 112.018 62.9623V59.4712H104.639V62.9702C104.64 63.3916 104.505 63.802 104.256 64.1418C104.007 64.4815 103.655 64.7329 103.253 64.8593C101.913 65.2793 100.631 65.866 99.4375 66.6058C100.165 68.365 101.398 69.8688 102.981 70.9269C104.564 71.9849 106.425 72.5497 108.329 72.5497C110.232 72.5497 112.093 71.9849 113.676 70.9269C115.259 69.8688 116.492 68.365 117.22 66.6058C116.027 65.8629 114.744 65.2734 113.404 64.8514Z" fill="white" stroke="#0F3644" stroke-width="2" stroke-linecap="round" stroke-linejoin="round"/>
<path d="M120.178 51.9386C120.174 51.4565 120.003 50.9907 119.695 50.6204C119.386 50.25 118.959 49.9979 118.485 49.9069V48.5524C118.504 47.2066 118.255 45.8705 117.753 44.6216C117.251 43.3728 116.506 42.2362 115.561 41.2778C114.616 40.3195 113.49 39.5585 112.248 39.0391C111.006 38.5197 109.674 38.2522 108.328 38.2522C106.982 38.2522 105.649 38.5197 104.408 39.0391C103.166 39.5585 102.04 40.3195 101.095 41.2778C100.15 42.2362 99.4045 43.3728 98.9024 44.6216C98.4004 45.8705 98.1516 47.2066 98.1704 48.5524V49.901C97.6762 49.9929 97.2323 50.2612 96.9212 50.656C96.6101 51.0508 96.453 51.5452 96.4791 52.0471C96.5053 52.5491 96.7129 53.0244 97.0633 53.3847C97.4138 53.7451 97.8832 53.9658 98.3842 54.0059C98.8606 56.2909 100.109 58.3421 101.921 59.8146C103.732 61.287 105.995 62.0909 108.329 62.0909C110.663 62.0909 112.926 61.287 114.737 59.8146C116.548 58.3421 117.797 56.2909 118.273 54.0059C118.791 53.9588 119.272 53.7212 119.624 53.3392C119.976 52.9572 120.174 52.458 120.178 51.9386Z" fill="white" stroke="#0F3644" stroke-width="2" stroke-linecap="round" stroke-linejoin="round"/>
<path d="M98.1704 44.3209V49.9011C99.3792 49.4088 100.462 48.6513 101.339 47.6844C102.215 46.7175 102.864 45.566 103.236 44.315L98.5308 41.9565C98.2921 42.722 98.1706 43.5191 98.1704 44.3209Z" fill="white" stroke="#0F3644" stroke-width="2" stroke-linecap="round" stroke-linejoin="round"/>
<path d="M118.485 44.3209V49.9011C117.277 49.4086 116.194 48.6509 115.318 47.6841C114.442 46.7172 113.794 45.5658 113.422 44.315L118.125 41.9565C118.365 42.7217 118.486 43.519 118.485 44.3209Z" fill="white" stroke="#0F3644" stroke-width="2" stroke-linecap="round" stroke-linejoin="round"/>
<path d="M113.743 36.2931L111.749 38.002C111.621 38.1112 111.459 38.1712 111.291 38.1712C111.123 38.1712 110.961 38.1112 110.834 38.002L108.786 36.2476C108.659 36.1384 108.497 36.0784 108.329 36.0784C108.161 36.0784 107.999 36.1384 107.871 36.2476L105.824 38.002C105.696 38.1112 105.534 38.1712 105.366 38.1712C105.199 38.1712 105.036 38.1112 104.909 38.002L102.913 36.2931C102.777 36.1734 102.6 36.1113 102.419 36.1198C102.238 36.1283 102.067 36.2068 101.943 36.3386C100.434 37.9614 99.2733 39.8751 98.5308 41.9624L103.236 44.3208H113.422L118.125 41.9624C117.384 39.8748 116.223 37.961 114.715 36.3386C114.59 36.2066 114.419 36.1281 114.238 36.1196C114.057 36.1111 113.879 36.1733 113.743 36.2931Z" fill="white" stroke="#0F3644" stroke-width="2" stroke-linecap="round" stroke-linejoin="round"/>
<path d="M101.556 53.208C101.556 53.3747 101.589 53.5398 101.653 53.6938C101.717 53.8478 101.81 53.9877 101.928 54.1056C102.046 54.2234 102.186 54.3169 102.34 54.3807C102.494 54.4445 102.659 54.4773 102.826 54.4773C102.992 54.4773 103.157 54.4445 103.311 54.3807C103.465 54.3169 103.605 54.2234 103.723 54.1056C103.841 53.9877 103.935 53.8478 103.998 53.6938C104.062 53.5398 104.095 53.3747 104.095 53.208C104.095 53.0413 104.062 52.8763 103.998 52.7223C103.935 52.5683 103.841 52.4284 103.723 52.3105C103.605 52.1926 103.465 52.0991 103.311 52.0353C103.157 51.9716 102.992 51.9387 102.826 51.9387C102.659 51.9387 102.494 51.9716 102.34 52.0353C102.186 52.0991 102.046 52.1926 101.928 52.3105C101.81 52.4284 101.717 52.5683 101.653 52.7223C101.589 52.8763 101.556 53.0413 101.556 53.208Z" fill="#CBDEE5"/>
<path d="M112.56 53.208C112.56 53.3747 112.593 53.5398 112.657 53.6938C112.721 53.8478 112.814 53.9877 112.932 54.1056C113.05 54.2234 113.19 54.3169 113.344 54.3807C113.498 54.4445 113.663 54.4773 113.83 54.4773C113.996 54.4773 114.161 54.4445 114.315 54.3807C114.469 54.3169 114.609 54.2234 114.727 54.1056C114.845 53.9877 114.939 53.8478 115.002 53.6938C115.066 53.5398 115.099 53.3747 115.099 53.208C115.099 53.0413 115.066 52.8763 115.002 52.7223C114.939 52.5683 114.845 52.4284 114.727 52.3105C114.609 52.1926 114.469 52.0991 114.315 52.0353C114.161 51.9716 113.996 51.9387 113.83 51.9387C113.663 51.9387 113.498 51.9716 113.344 52.0353C113.19 52.0991 113.05 52.1926 112.932 52.3105C112.814 52.4284 112.721 52.5683 112.657 52.7223C112.593 52.8763 112.56 53.0413 112.56 53.208Z" fill="#CBDEE5"/>
<path d="M110.867 56.1704C110.135 56.7205 109.244 57.0179 108.329 57.0179C107.413 57.0179 106.522 56.7205 105.79 56.1704" stroke="#0F3644" stroke-width="2" stroke-linecap="round" stroke-linejoin="round"/>
<path d="M112.659 50.0217C112.533 49.895 112.383 49.7944 112.218 49.7258C112.052 49.6571 111.875 49.6218 111.696 49.6218C111.517 49.6218 111.34 49.6571 111.175 49.7258C111.009 49.7944 110.859 49.895 110.733 50.0217" stroke="#0F3644" stroke-width="2" stroke-linecap="round" stroke-linejoin="round"/>
<path d="M103.998 50.0217C104.124 49.895 104.275 49.7944 104.44 49.7258C104.605 49.6571 104.782 49.6218 104.961 49.6218C105.14 49.6218 105.318 49.6571 105.483 49.7258C105.648 49.7944 105.798 49.895 105.925 50.0217" stroke="#0F3644" stroke-width="2" stroke-linecap="round" stroke-linejoin="round"/>
</svg>
