<svg width="200" height="200" viewBox="0 0 200 200" fill="none" xmlns="http://www.w3.org/2000/svg">
<path d="M20.792 99.9999C20.792 121.007 29.1371 141.154 43.9915 156.008C58.8458 170.863 78.9927 179.208 99.9999 179.208C121.007 179.208 141.154 170.863 156.008 156.008C170.863 141.154 179.208 121.007 179.208 99.9999C179.208 78.9927 170.863 58.8458 156.008 43.9915C141.154 29.1371 121.007 20.792 99.9999 20.792C78.9927 20.792 58.8458 29.1371 43.9915 43.9915C29.1371 58.8458 20.792 78.9927 20.792 99.9999Z" fill="#F3F4F6"/>
<path d="M40.2437 100.588C40.2437 108.472 41.7966 116.279 44.8137 123.564C47.8309 130.848 52.2533 137.466 57.8283 143.041C63.4033 148.616 70.0218 153.039 77.3059 156.056C84.59 159.073 92.397 160.626 100.281 160.626C108.166 160.626 115.973 159.073 123.257 156.056C130.541 153.039 137.159 148.616 142.734 143.041C148.309 137.466 152.732 130.848 155.749 123.564C158.766 116.279 160.319 108.472 160.319 100.588C160.319 92.7039 158.766 84.8969 155.749 77.6128C152.732 70.3287 148.309 63.7102 142.734 58.1352C137.159 52.5601 130.541 48.1378 123.257 45.1206C115.973 42.1035 108.166 40.5505 100.281 40.5505C92.397 40.5505 84.59 42.1035 77.3059 45.1206C70.0218 48.1378 63.4033 52.5601 57.8283 58.1352C52.2533 63.7102 47.8309 70.3287 44.8137 77.6128C41.7966 84.8969 40.2437 92.7039 40.2437 100.588Z" fill="#CBDEE5" stroke="#0F3644" stroke-width="2" stroke-linecap="round" stroke-linejoin="round"/>
<path d="M113.731 67.7921C123.05 69.9254 131.722 74.2603 139.022 80.4337H147.24C148.869 80.4333 150.46 79.932 151.795 78.9976C153.13 78.0632 154.146 76.7409 154.705 75.2099C151.121 67.5447 145.961 60.7212 139.562 55.1845C133.163 49.6478 125.669 45.5223 117.568 43.0772H108.64C106.705 43.0344 104.816 43.6735 103.305 44.8827C101.794 46.0918 100.757 47.7939 100.374 49.6911C100.181 50.8316 100.239 52.0006 100.544 53.1164C100.849 54.2323 101.393 55.2682 102.14 56.152C102.886 57.0358 103.816 57.7462 104.865 58.2336C105.914 58.721 107.057 58.9738 108.214 58.9742C109.188 58.9751 110.15 59.1995 111.024 59.6301C111.898 60.0608 112.662 60.6863 113.256 61.4584C113.851 62.2306 114.26 63.1289 114.453 64.0841C114.646 65.0393 114.617 66.026 114.368 66.9683C114.291 67.2762 114.189 67.5775 114.063 67.8693" fill="white"/>
<path d="M154.705 75.2099C151.121 67.5447 145.961 60.7212 139.562 55.1845C133.163 49.6478 125.669 45.5223 117.568 43.0772H108.639C106.705 43.0344 104.816 43.6735 103.305 44.8827C101.794 46.0918 100.757 47.7939 100.374 49.6911C100.181 50.8316 100.239 52.0006 100.544 53.1164C100.849 54.2323 101.393 55.2682 102.14 56.152C102.886 57.0358 103.816 57.7462 104.865 58.2336C105.914 58.721 107.057 58.9738 108.214 58.9742C109.188 58.9751 110.15 59.1995 111.024 59.6301C111.898 60.0608 112.662 60.6863 113.256 61.4584C113.85 62.2306 114.26 63.1289 114.453 64.0841C114.645 65.0393 114.617 66.026 114.368 66.9683C113.968 68.3502 113.123 69.5614 111.964 70.4139C110.805 71.2663 109.397 71.7125 107.958 71.6832H85.2672C81.0849 71.5987 77.0267 73.1059 73.9134 75.8998C70.8 78.6936 68.864 82.5657 68.4969 86.7327C68.3807 88.889 68.7051 91.0465 69.4503 93.0733C70.1956 95.1002 71.346 96.9539 72.8314 98.5214C74.3168 100.089 76.106 101.337 78.0899 102.19C80.0738 103.043 82.2107 103.483 84.3702 103.483H93.7108C94.8168 103.483 95.8775 103.923 96.6596 104.705C97.4417 105.487 97.8811 106.547 97.8811 107.653V111.034C97.8764 111.501 97.9641 111.964 98.1394 112.397C98.3146 112.83 98.5737 113.224 98.9019 113.557C99.2301 113.889 99.6208 114.153 100.052 114.334C100.482 114.515 100.945 114.609 101.412 114.61C101.885 114.604 102.355 114.692 102.794 114.869C103.233 115.047 103.633 115.309 103.969 115.642C104.306 115.974 104.574 116.371 104.756 116.807C104.939 117.244 105.033 117.713 105.034 118.186V122.558C105.09 123.236 104.905 123.911 104.511 124.465C103.099 126.193 102.337 128.36 102.356 130.591C102.375 132.822 103.175 134.976 104.616 136.679C105.588 137.771 106.786 138.638 108.128 139.219C109.469 139.8 110.921 140.082 112.382 140.046H116.16C126.493 140.046 129.673 130.509 129.673 125.739V109.84C129.67 108.258 130.102 106.706 130.921 105.353C131.74 104 132.914 102.897 134.317 102.166C136.174 101.027 137.708 99.4298 138.772 97.5283C139.837 95.6267 140.396 93.4841 140.396 91.3049C140.393 91.1612 140.334 91.0243 140.231 90.9233C140.129 90.8224 139.991 90.7653 139.847 90.7643H133.647C132.806 90.7649 131.998 90.4316 131.402 89.8377C130.806 89.2437 130.47 88.4376 130.467 87.596V83.6119C130.47 82.7703 130.806 81.9642 131.402 81.3702C131.998 80.7763 132.806 80.443 133.647 80.4436H147.239C148.87 80.4425 150.462 79.9397 151.797 79.0035C153.133 78.0672 154.148 76.7428 154.705 75.2099Z" fill="white" stroke="#0F3644" stroke-width="2" stroke-linecap="round" stroke-linejoin="round"/>
<path d="M38.8435 137.339C38.8435 141.181 39.6002 144.985 41.0704 148.534C42.5407 152.084 44.6956 155.309 47.4122 158.025C50.1288 160.742 53.3539 162.897 56.9034 164.367C60.4528 165.837 64.2571 166.594 68.099 166.594C71.9408 166.594 75.7451 165.837 79.2945 164.367C82.844 162.897 86.0691 160.742 88.7857 158.025C91.5023 155.309 93.6572 152.084 95.1275 148.534C96.5977 144.985 97.3544 141.181 97.3544 137.339C97.3544 133.497 96.5977 129.693 95.1275 126.143C93.6572 122.594 91.5023 119.369 88.7857 116.652C86.0691 113.935 82.844 111.78 79.2945 110.31C75.7451 108.84 71.9408 108.083 68.099 108.083C64.2571 108.083 60.4528 108.84 56.9034 110.31C53.3539 111.78 50.1288 113.935 47.4122 116.652C44.6956 119.369 42.5407 122.594 41.0704 126.143C39.6002 129.693 38.8435 133.497 38.8435 137.339Z" fill="white" stroke="#0F3644" stroke-width="2" stroke-linecap="round" stroke-linejoin="round"/>
<path d="M68.9109 149.451C65.0938 149.45 61.3467 150.476 58.0629 152.422C54.7791 154.368 52.0795 157.162 50.2476 160.511C55.5565 164.603 62.1099 166.749 68.8112 166.588C75.5126 166.426 81.9554 163.969 87.0614 159.626C85.1618 156.516 82.4947 153.947 79.3163 152.166C76.1378 150.384 72.5547 149.449 68.9109 149.451Z" fill="#CBDEE5" stroke="#0F3644" stroke-width="2" stroke-linecap="round" stroke-linejoin="round"/>
<path d="M75.107 150.37C74.7014 150.246 74.3463 149.996 74.0939 149.655C73.8415 149.314 73.7052 148.901 73.705 148.477V141.481H64.0991V148.477C64.0989 148.901 63.9626 149.314 63.7102 149.655C63.4578 149.996 63.1027 150.246 62.6971 150.37C60.9515 150.903 59.2817 151.659 57.7288 152.618C58.6431 154.829 60.1929 156.719 62.1818 158.048C64.1707 159.378 66.5095 160.088 68.902 160.088C71.2946 160.088 73.6333 159.378 75.6223 158.048C77.6112 156.719 79.1609 154.829 80.0753 152.618C78.5221 151.659 76.8524 150.904 75.107 150.37Z" fill="white" stroke="#0F3644" stroke-width="2" stroke-linecap="round" stroke-linejoin="round"/>
<path d="M68.9009 160.087V166.596" stroke="#0F3644" stroke-width="2" stroke-linecap="round" stroke-linejoin="round"/>
<path d="M83.8 134.701C83.7949 134.095 83.58 133.509 83.1919 133.044C82.8039 132.578 82.2666 132.261 81.6713 132.147V130.444C81.6713 127.056 80.3256 123.808 77.9304 121.412C75.5351 119.017 72.2864 117.671 68.899 117.671C65.5116 117.671 62.2629 119.017 59.8676 121.412C57.4724 123.808 56.1267 127.056 56.1267 130.444V132.147C55.5049 132.262 54.9462 132.599 54.5546 133.095C54.163 133.592 53.9652 134.214 53.9982 134.845C54.0311 135.476 54.2925 136.074 54.7337 136.527C55.1749 136.98 55.7657 137.257 56.396 137.307C56.9945 140.18 58.5642 142.759 60.8411 144.611C63.1181 146.462 65.9633 147.473 68.898 147.473C71.8327 147.473 74.6779 146.462 76.9549 144.611C79.2318 142.759 80.8015 140.18 81.4 137.307C82.0525 137.249 82.6599 136.95 83.1036 136.468C83.5474 135.986 83.7957 135.356 83.8 134.701Z" fill="white" stroke="#0F3644" stroke-width="2" stroke-linecap="round" stroke-linejoin="round"/>
<path d="M60.3882 136.297C60.3882 136.72 60.5563 137.126 60.8557 137.426C61.155 137.725 61.5609 137.893 61.9842 137.893C62.4075 137.893 62.8135 137.725 63.1128 137.426C63.4121 137.126 63.5803 136.72 63.5803 136.297C63.5803 135.874 63.4121 135.468 63.1128 135.168C62.8135 134.869 62.4075 134.701 61.9842 134.701C61.5609 134.701 61.155 134.869 60.8557 135.168C60.5563 135.468 60.3882 135.874 60.3882 136.297Z" fill="#CBDEE5"/>
<path d="M74.2217 136.297C74.2217 136.72 74.3898 137.126 74.6892 137.426C74.9885 137.725 75.3944 137.893 75.8177 137.893C76.241 137.893 76.647 137.725 76.9463 137.426C77.2456 137.126 77.4138 136.72 77.4138 136.297C77.4138 135.874 77.2456 135.468 76.9463 135.168C76.647 134.869 76.241 134.701 75.8177 134.701C75.3944 134.701 74.9885 134.869 74.6892 135.168C74.3898 135.468 74.2217 135.874 74.2217 136.297Z" fill="#CBDEE5"/>
<path d="M72.0951 140.022C71.1736 140.712 70.0533 141.085 68.9021 141.085C67.7508 141.085 66.6305 140.712 65.709 140.022" stroke="#0F3644" stroke-width="2" stroke-linecap="round" stroke-linejoin="round"/>
<path d="M62.5168 132.04C62.5168 132.463 62.685 132.869 62.9843 133.168C63.2836 133.468 63.6896 133.636 64.1129 133.636C64.5362 133.636 64.9421 133.468 65.2415 133.168C65.5408 132.869 65.7089 132.463 65.7089 132.04C65.7089 131.616 65.5408 131.21 65.2415 130.911C64.9421 130.612 64.5362 130.444 64.1129 130.444C63.6896 130.444 63.2836 130.612 62.9843 130.911C62.685 131.21 62.5168 131.616 62.5168 132.04Z" fill="#0F3644"/>
<path d="M72.095 132.04C72.095 132.463 72.2631 132.869 72.5624 133.168C72.8618 133.468 73.2677 133.636 73.691 133.636C74.1143 133.636 74.5203 133.468 74.8196 133.168C75.1189 132.869 75.287 132.463 75.287 132.04C75.287 131.616 75.1189 131.21 74.8196 130.911C74.5203 130.612 74.1143 130.444 73.691 130.444C73.2677 130.444 72.8618 130.612 72.5624 130.911C72.2631 131.21 72.095 131.616 72.095 132.04Z" fill="#0F3644"/>
<path d="M56.1308 132.146C56.1308 132.146 60.3961 131.847 60.3961 125.123C63.1541 125.955 66.033 126.315 68.911 126.186C71.7889 126.314 74.6678 125.955 77.4258 125.123C77.4258 131.855 81.6813 132.146 81.6813 132.146C82.3496 132.284 82.9419 132.668 83.3407 133.222C84.3816 131.801 84.9214 130.075 84.8754 128.315C84.8754 125.23 83.412 122.667 81.4734 122.075C81.3901 122.048 81.3139 122.003 81.2501 121.943C81.1864 121.882 81.1368 121.809 81.1048 121.727C81.0728 121.646 81.0593 121.558 81.0651 121.471C81.071 121.383 81.0961 121.298 81.1387 121.222C81.4926 120.493 81.678 119.693 81.6813 118.883C81.6813 110.606 70.4536 112.628 75.4615 107.667C75.4952 107.637 75.5189 107.597 75.5295 107.552C75.5402 107.508 75.5374 107.462 75.5214 107.419C75.5054 107.376 75.477 107.339 75.4398 107.313C75.4027 107.287 75.3585 107.272 75.313 107.271C63.9902 107.41 56.1407 111.756 56.1407 118.877C56.1449 119.687 56.3303 120.486 56.6833 121.216C56.7259 121.292 56.7511 121.377 56.7571 121.464C56.7631 121.552 56.7497 121.639 56.7179 121.721C56.6861 121.802 56.6367 121.876 56.5732 121.936C56.5097 121.996 56.4337 122.042 56.3506 122.069C54.41 122.663 52.9486 125.224 52.9486 128.309C52.9017 130.069 53.4416 131.796 54.4833 133.216C54.88 132.667 55.4676 132.285 56.1308 132.146Z" fill="white" stroke="#0F3644" stroke-width="2" stroke-linecap="round" stroke-linejoin="round"/>
<path d="M95.1841 62.2991C95.1841 67.3224 96.1735 72.2964 98.0958 76.9373C100.018 81.5782 102.836 85.795 106.388 89.347C109.94 92.899 114.156 95.7165 118.797 97.6389C123.438 99.5612 128.412 100.551 133.436 100.551C138.459 100.551 143.433 99.5612 148.074 97.6389C152.715 95.7165 156.931 92.899 160.483 89.347C164.035 85.795 166.853 81.5782 168.775 76.9373C170.698 72.2964 171.687 67.3224 171.687 62.2991C171.687 57.2758 170.698 52.3018 168.775 47.6609C166.853 43.02 164.035 38.8032 160.483 35.2512C156.931 31.6992 152.715 28.8816 148.074 26.9593C143.433 25.037 138.459 24.0476 133.436 24.0476C128.412 24.0476 123.438 25.037 118.797 26.9593C114.156 28.8816 109.94 31.6992 106.388 35.2512C102.836 38.8032 100.018 43.02 98.0958 47.6609C96.1735 52.3018 95.1841 57.2758 95.1841 62.2991Z" fill="white" stroke="#0F3644" stroke-width="2" stroke-linecap="round" stroke-linejoin="round"/>
<path d="M133.434 76.4614C128.344 76.461 123.36 77.9145 119.069 80.6508C114.777 83.3871 111.357 87.2924 109.21 91.907C116.044 97.498 124.603 100.553 133.433 100.553C142.263 100.553 150.821 97.498 157.655 91.907C155.509 87.2922 152.089 83.3868 147.798 80.6504C143.507 77.914 138.523 76.4607 133.434 76.4614Z" fill="#CBDEE5" stroke="#0F3644" stroke-width="2" stroke-linecap="round" stroke-linejoin="round"/>
<path d="M140.885 77.515C140.474 77.3954 140.112 77.1454 139.854 76.8026C139.597 76.4598 139.458 76.0427 139.457 75.614V66.5981H127.408V75.614C127.408 76.0427 127.269 76.4598 127.011 76.8026C126.754 77.1454 126.392 77.3954 125.98 77.515C123.667 78.1873 121.455 79.1705 119.406 80.4377C120.554 83.2136 122.499 85.5865 124.996 87.2561C127.493 88.9257 130.429 89.8169 133.433 89.8169C136.436 89.8169 139.373 88.9257 141.87 87.2561C144.366 85.5865 146.312 83.2136 147.459 80.4377C145.411 79.1702 143.199 78.1869 140.885 77.515Z" fill="white" stroke="#0F3644" stroke-width="2" stroke-linecap="round" stroke-linejoin="round"/>
<path d="M133.434 89.814V98.9961" stroke="#0F3644" stroke-width="2" stroke-linecap="round" stroke-linejoin="round"/>
<path d="M152.109 58.4712C152.103 57.7117 151.834 56.9778 151.347 56.3944C150.861 55.8109 150.188 55.414 149.442 55.2712V53.1346C149.395 48.9196 147.687 44.8932 144.69 41.9291C141.693 38.9651 137.648 37.3027 133.433 37.3027C129.217 37.3027 125.172 38.9651 122.175 41.9291C119.178 44.8932 117.471 48.9196 117.424 53.1346V55.2712C116.645 55.4159 115.945 55.8387 115.455 56.4609C114.964 57.083 114.716 57.8622 114.758 58.6534C114.799 59.4445 115.126 60.1938 115.678 60.7617C116.231 61.3296 116.971 61.6774 117.76 61.7405C118.512 65.3411 120.48 68.5732 123.334 70.8933C126.188 73.2133 129.754 74.4798 133.433 74.4798C137.111 74.4798 140.677 73.2133 143.531 70.8933C146.385 68.5732 148.353 65.3411 149.105 61.7405C149.922 61.6662 150.683 61.2903 151.238 60.6859C151.793 60.0815 152.104 59.292 152.109 58.4712Z" fill="white" stroke="#0F3644" stroke-width="2" stroke-linecap="round" stroke-linejoin="round"/>
<path d="M122.758 60.4732C122.758 61.0041 122.969 61.5133 123.345 61.8888C123.72 62.2642 124.229 62.4752 124.76 62.4752C125.291 62.4752 125.8 62.2642 126.176 61.8888C126.551 61.5133 126.762 61.0041 126.762 60.4732C126.762 59.9422 126.551 59.433 126.176 59.0576C125.8 58.6821 125.291 58.4712 124.76 58.4712C124.229 58.4712 123.72 58.6821 123.345 59.0576C122.969 59.433 122.758 59.9422 122.758 60.4732Z" fill="#CBDEE5"/>
<path d="M140.103 60.4732C140.103 61.0041 140.314 61.5133 140.689 61.8888C141.065 62.2642 141.574 62.4752 142.105 62.4752C142.636 62.4752 143.145 62.2642 143.521 61.8888C143.896 61.5133 144.107 61.0041 144.107 60.4732C144.107 59.9422 143.896 59.433 143.521 59.0576C143.145 58.6821 142.636 58.4712 142.105 58.4712C141.574 58.4712 141.065 58.6821 140.689 59.0576C140.314 59.433 140.103 59.9422 140.103 60.4732Z" fill="#CBDEE5"/>
<path d="M129.43 65.2634C130.615 66.0535 132.008 66.4752 133.433 66.4752C134.857 66.4752 136.25 66.0535 137.436 65.2634" stroke="#0F3644" stroke-width="2" stroke-linecap="round" stroke-linejoin="round"/>
<path d="M125.428 55.2476C125.428 55.7785 125.639 56.2878 126.014 56.6632C126.39 57.0386 126.899 57.2496 127.43 57.2496C127.961 57.2496 128.47 57.0386 128.845 56.6632C129.221 56.2878 129.432 55.7785 129.432 55.2476C129.432 54.7166 129.221 54.2074 128.845 53.832C128.47 53.4565 127.961 53.2456 127.43 53.2456C126.899 53.2456 126.39 53.4565 126.014 53.832C125.639 54.2074 125.428 54.7166 125.428 55.2476Z" fill="#0F3644"/>
<path d="M137.434 55.2476C137.434 55.7785 137.645 56.2878 138.02 56.6632C138.395 57.0386 138.905 57.2496 139.436 57.2496C139.967 57.2496 140.476 57.0386 140.851 56.6632C141.227 56.2878 141.438 55.7785 141.438 55.2476C141.438 54.7166 141.227 54.2074 140.851 53.832C140.476 53.4565 139.967 53.2456 139.436 53.2456C138.905 53.2456 138.395 53.4565 138.02 53.832C137.645 54.2074 137.434 54.7166 137.434 55.2476Z" fill="#0F3644"/>
<path d="M132.915 31.2593C128.255 31.5259 123.878 33.5826 120.698 36.9999C117.518 40.4171 115.782 44.9307 115.851 49.5979V52.5563C115.851 52.7755 115.905 52.9913 116.007 53.1849C116.11 53.3784 116.259 53.5436 116.441 53.6659C116.623 53.7882 116.832 53.8639 117.05 53.8862C117.268 53.9086 117.488 53.8769 117.691 53.794C120.265 52.7445 124.655 50.2752 124.655 45.6158C131.028 51.7979 141.592 51.4415 148.94 49.4791C149.573 49.3115 150.123 48.9194 150.487 48.376C150.851 47.8327 151.006 47.1753 150.921 46.5266C150.342 42.2041 148.181 38.2499 144.854 35.4296C141.528 32.6092 137.274 31.1232 132.915 31.2593Z" fill="white" stroke="#0F3644" stroke-width="2" stroke-linecap="round" stroke-linejoin="round"/>
<path d="M29.5862 73.4793C29.5862 78.2406 31.4776 82.8069 34.8443 86.1736C38.2111 89.5404 42.7774 91.4318 47.5387 91.4318C52.2999 91.4318 56.8662 89.5404 60.233 86.1736C63.5997 82.8069 65.4911 78.2406 65.4911 73.4793C65.4911 68.718 63.5997 64.1518 60.233 60.785C56.8662 57.4183 52.2999 55.5269 47.5387 55.5269C42.7774 55.5269 38.2111 57.4183 34.8443 60.785C31.4776 64.1518 29.5862 68.718 29.5862 73.4793Z" fill="white" stroke="#0F3644" stroke-width="2" stroke-linecap="round" stroke-linejoin="round"/>
<path d="M39.6633 69.7486C39.6633 71.7963 40.4768 73.7601 41.9247 75.2081C43.3726 76.656 45.3364 77.4694 47.3841 77.4694C49.4318 77.4694 51.3956 76.656 52.8435 75.2081C54.2915 73.7601 55.1049 71.7963 55.1049 69.7486C55.1049 67.7009 54.2915 65.7371 52.8435 64.2892C51.3956 62.8413 49.4318 62.0278 47.3841 62.0278C45.3364 62.0278 43.3726 62.8413 41.9247 64.2892C40.4768 65.7371 39.6633 67.7009 39.6633 69.7486Z" fill="#CBDEE5" stroke="#0F3644" stroke-width="2" stroke-linecap="round" stroke-linejoin="round"/>
<path d="M47.5385 91.4338C51.5704 91.4392 55.4859 90.0819 58.6494 87.5823C57.3426 85.8539 55.6557 84.4494 53.7191 83.4775C51.7825 82.5056 49.6483 81.9923 47.4816 81.9774C45.3149 81.9625 43.1738 82.4463 41.224 83.3914C39.2742 84.3366 37.568 85.7177 36.2375 87.4278C39.4315 90.0235 43.4229 91.4383 47.5385 91.4338Z" fill="#CBDEE5" stroke="#0F3644" stroke-width="2" stroke-linecap="round" stroke-linejoin="round"/>
<path d="M126.133 140.907C126.133 143.103 126.565 145.279 127.406 147.308C128.246 149.337 129.478 151.181 131.032 152.734C132.585 154.288 134.429 155.52 136.458 156.36C138.488 157.201 140.663 157.634 142.859 157.634C145.056 157.634 147.231 157.201 149.26 156.36C151.29 155.52 153.134 154.288 154.687 152.734C156.24 151.181 157.472 149.337 158.313 147.308C159.153 145.279 159.586 143.103 159.586 140.907C159.586 138.71 159.153 136.535 158.313 134.506C157.472 132.476 156.24 130.633 154.687 129.079C153.134 127.526 151.29 126.294 149.26 125.453C147.231 124.613 145.056 124.18 142.859 124.18C140.663 124.18 138.488 124.613 136.458 125.453C134.429 126.294 132.585 127.526 131.032 129.079C129.478 130.633 128.246 132.476 127.406 134.506C126.565 136.535 126.133 138.71 126.133 140.907Z" fill="white" stroke="#0F3644" stroke-width="2" stroke-linecap="round" stroke-linejoin="round"/>
<path d="M135.523 137.432C135.523 139.339 136.28 141.168 137.629 142.517C138.978 143.866 140.807 144.624 142.715 144.624C144.622 144.624 146.452 143.866 147.8 142.517C149.149 141.168 149.907 139.339 149.907 137.432C149.907 135.524 149.149 133.695 147.8 132.346C146.452 130.997 144.622 130.24 142.715 130.24C140.807 130.24 138.978 130.997 137.629 132.346C136.28 133.695 135.523 135.524 135.523 137.432Z" fill="#C88C8C" stroke="#0F3644" stroke-width="2" stroke-linecap="round" stroke-linejoin="round"/>
<path d="M142.861 157.636C146.617 157.64 150.265 156.376 153.212 154.048C151.994 152.438 150.422 151.129 148.617 150.224C146.813 149.319 144.825 148.84 142.806 148.826C140.787 148.813 138.792 149.263 136.975 150.143C135.159 151.024 133.569 152.31 132.329 153.903C135.305 156.322 139.025 157.641 142.861 157.636Z" fill="#C88C8C" stroke="#0F3644" stroke-width="2" stroke-linecap="round" stroke-linejoin="round"/>
</svg>
