<svg width="200" height="200" viewBox="0 0 200 200" fill="none" xmlns="http://www.w3.org/2000/svg">
<path d="M179.208 100C179.21 88.1785 176.565 76.5066 171.468 65.8402C166.371 55.1739 158.952 45.7836 149.754 38.3581C140.555 30.9325 129.811 25.6601 118.31 22.9274C106.809 20.1947 94.842 20.071 83.2865 22.5654C71.7313 25.0599 60.8808 30.109 51.5311 37.3428C42.1812 44.5767 34.5691 53.8115 29.2531 64.3702C23.937 74.929 21.0517 86.5436 20.8087 98.3626C20.5659 110.182 22.9717 121.905 27.8495 132.673H172.15C176.809 122.411 179.216 111.27 179.208 100Z" fill="#F3F4F6"/>
<path d="M22.7722 132.673H177.228" stroke="#0F3644" stroke-width="2" stroke-linecap="round" stroke-linejoin="round"/>
<path d="M13.8613 132.673H18.8118" stroke="#0F3644" stroke-width="2" stroke-linecap="round" stroke-linejoin="round"/>
<path d="M181.188 132.673H186.139" stroke="#0F3644" stroke-width="2" stroke-linecap="round" stroke-linejoin="round"/>
<path d="M22.7722 132.673H177.228" stroke="#0F3644" stroke-width="2" stroke-linecap="round" stroke-linejoin="round"/>
<path d="M13.8613 132.673H18.8118" stroke="#0F3644" stroke-width="2" stroke-linecap="round" stroke-linejoin="round"/>
<path d="M181.188 132.673H186.139" stroke="#0F3644" stroke-width="2" stroke-linecap="round" stroke-linejoin="round"/>
<path d="M67.2792 176.026C81.8028 176.026 93.5762 174.26 93.5762 172.081C93.5762 169.903 81.8028 168.136 67.2792 168.136C52.7558 168.136 40.9822 169.903 40.9822 172.081C40.9822 174.26 52.7558 176.026 67.2792 176.026Z" fill="#CBDEE5"/>
<path d="M88.4417 131.323C88.4163 132.561 87.9064 133.741 87.0215 134.608C86.1365 135.475 84.9468 135.961 83.708 135.961C82.469 135.961 81.2795 135.475 80.3946 134.608C79.5096 133.741 78.9997 132.561 78.9744 131.323V125.01H88.4417V131.323Z" fill="white" stroke="#0F3644" stroke-width="2" stroke-linecap="round" stroke-linejoin="round"/>
<path d="M76.1484 162.879C78.2094 162.855 80.2506 163.28 82.1306 164.125V118.699H47.4177V162.879H54.3682C56.3965 162.857 58.406 163.268 60.2633 164.083L61.4811 136.053C61.5227 135.208 61.8876 134.411 62.5007 133.827C63.1138 133.244 63.9278 132.918 64.7742 132.918C65.6207 132.918 66.4348 133.244 67.0478 133.827C67.6609 134.411 68.0258 135.208 68.0672 136.053L69.2336 162.879H76.1484Z" fill="#CBDEE5"/>
<path d="M76.1484 162.879C78.2094 162.855 80.2506 163.28 82.1306 164.125V118.699H47.4177V162.879H54.3682C56.3965 162.857 58.406 163.268 60.2633 164.083L61.4811 136.053C61.5227 135.208 61.8876 134.411 62.5007 133.827C63.1138 133.244 63.9278 132.918 64.7742 132.918C65.6207 132.918 66.4348 133.244 67.0478 133.827C67.6609 134.411 68.0258 135.208 68.0672 136.053L69.2336 162.879H76.1484Z" stroke="#0F3644" stroke-width="2" stroke-linecap="round" stroke-linejoin="round"/>
<path d="M86.5564 170.766C86.5564 165.117 81.0336 162.877 76.1484 162.877H69.2019V168.136C69.2017 168.482 69.2696 168.824 69.4015 169.143C69.5336 169.462 69.7275 169.752 69.9716 169.997C70.2158 170.241 70.5059 170.434 70.8251 170.566C71.1441 170.699 71.4863 170.766 71.8316 170.766H86.5564Z" fill="white" stroke="#0F3644" stroke-width="2" stroke-linecap="round" stroke-linejoin="round"/>
<path d="M64.7742 170.766C64.7742 165.117 59.2514 162.877 54.3682 162.877H47.4177V168.136C47.4177 168.834 47.695 169.503 48.188 169.996C48.6813 170.489 49.35 170.766 50.0474 170.766H64.7742Z" fill="white" stroke="#0F3644" stroke-width="2" stroke-linecap="round" stroke-linejoin="round"/>
<path d="M28.485 140.792H56.887C57.7237 140.792 58.526 141.124 59.1175 141.716C59.7092 142.307 60.0415 143.11 60.0415 143.946V162.881C60.0415 163.718 59.709 164.521 59.1169 165.113C58.525 165.705 57.7223 166.038 56.885 166.038H28.485C27.648 166.038 26.845 165.705 26.2532 165.113C25.6613 164.521 25.3286 163.718 25.3286 162.881V143.942C25.3296 143.106 25.6629 142.304 26.2548 141.714C26.8466 141.123 27.6488 140.791 28.485 140.792Z" fill="white" stroke="#0F3644" stroke-width="2" stroke-miterlimit="10"/>
<path d="M33.2175 140.788V165.915" stroke="#0F3644" stroke-width="2" stroke-miterlimit="10"/>
<path d="M52.1523 140.906V166.033" stroke="#0F3644" stroke-width="2" stroke-miterlimit="10"/>
<path d="M36.374 140.632V136.766C36.374 135.741 36.7812 134.758 37.5061 134.032C38.2309 133.307 39.214 132.9 40.2394 132.899H45.1324C46.1574 132.9 47.1402 133.308 47.8645 134.033C48.5889 134.758 48.9958 135.741 48.9958 136.766V140.632" stroke="#0F3644" stroke-width="2" stroke-miterlimit="10"/>
<path d="M28.485 140.792H56.887C57.7237 140.792 58.526 141.124 59.1175 141.716C59.7092 142.307 60.0415 143.11 60.0415 143.946V162.881C60.0415 163.718 59.709 164.521 59.1169 165.113C58.525 165.705 57.7223 166.038 56.885 166.038H28.485C27.648 166.038 26.845 165.705 26.2532 165.113C25.6613 164.521 25.3286 163.718 25.3286 162.881V143.942C25.3296 143.106 25.6629 142.304 26.2548 141.714C26.8466 141.123 27.6488 140.791 28.485 140.792Z" stroke="#0F3644" stroke-width="2" stroke-miterlimit="10"/>
<path d="M47.4177 131.323C47.4177 132.578 46.9191 133.782 46.0316 134.669C45.1441 135.557 43.9403 136.056 42.6851 136.056C41.4298 136.056 40.2261 135.557 39.3385 134.669C38.451 133.782 37.9524 132.578 37.9524 131.323V125.01H47.4177V131.323Z" fill="white" stroke="#0F3644" stroke-width="2" stroke-linecap="round" stroke-linejoin="round"/>
<path d="M90.0176 99.7681C90.0176 92.6544 87.1917 85.8322 82.1617 80.8021C77.1316 75.772 70.3095 72.9463 63.1958 72.9463C56.0821 72.9463 49.26 75.772 44.2299 80.8021C39.2 85.8322 36.374 92.6544 36.374 99.7681V122.376C36.3734 122.722 36.4414 123.065 36.5736 123.385C36.7059 123.705 36.9002 123.995 37.1449 124.24C37.3899 124.485 37.6806 124.679 38.0006 124.811C38.3206 124.943 38.6635 125.01 39.0097 125.01H47.4235V136.843H55.9384C57.6881 136.843 59.4109 136.411 60.9536 135.586C62.4964 134.76 63.8115 133.566 64.7819 132.111C65.7526 133.566 67.0677 134.76 68.6105 135.586C70.153 136.411 71.8758 136.843 73.6255 136.843H82.1404V125.01H87.3998C88.096 125.007 88.7627 124.728 89.2536 124.234C89.7443 123.741 90.0192 123.072 90.0176 122.376V99.7681Z" fill="#CBDEE5"/>
<path d="M90.0176 99.7681C90.0176 92.6544 87.1916 85.8322 82.1617 80.8021C77.1316 75.772 70.3095 72.9463 63.1958 72.9463C56.0821 72.9463 49.26 75.772 44.2299 80.8021C39.2 85.8322 36.374 92.6544 36.374 99.7681V122.376C36.3734 122.722 36.4414 123.065 36.5736 123.385C36.7059 123.705 36.9002 123.995 37.1449 124.24C37.3899 124.485 37.6806 124.679 38.0006 124.811C38.3206 124.943 38.6635 125.01 39.0097 125.01H47.4235V136.843H55.9384C57.6881 136.843 59.4109 136.411 60.9536 135.586C62.4964 134.76 63.8115 133.566 64.7819 132.111C65.7526 133.566 67.0677 134.76 68.6105 135.586C70.153 136.411 71.8758 136.843 73.6255 136.843H82.1404V125.01H87.3998C88.096 125.007 88.7627 124.728 89.2536 124.234C89.7443 123.741 90.0192 123.072 90.0176 122.376V99.7681Z" stroke="#0F3644" stroke-width="2" stroke-linecap="round" stroke-linejoin="round"/>
<path d="M82.1309 125.01V98.1899" stroke="#0F3644" stroke-width="2" stroke-linecap="round" stroke-linejoin="round"/>
<path d="M47.4177 125.01V98.1899" stroke="#0F3644" stroke-width="2" stroke-linecap="round" stroke-linejoin="round"/>
<path d="M64.7742 113.966L75.7366 76.0651C72.3337 74.2558 68.5788 73.2057 64.7309 72.9873C60.883 72.7686 57.0333 73.3871 53.4475 74.7997L64.7742 113.966Z" fill="white" stroke="#0F3644" stroke-width="2" stroke-linecap="round" stroke-linejoin="round"/>
<path d="M70.2437 73.9268C69.8223 73.8138 69.45 73.5648 69.1847 73.2185C68.9193 72.8724 68.7757 72.4482 68.7763 72.012L68.7862 64.4219H57.7229V71.9783C57.7223 72.414 57.5781 72.8375 57.3124 73.1831C57.0468 73.5284 56.6746 73.7767 56.2536 73.8892C55.305 74.1399 54.3716 74.444 53.4575 74.8001L64.7843 82.8951L75.7466 76.0654C73.9991 75.1466 72.153 74.4292 70.2437 73.9268Z" fill="white" stroke="#0F3644" stroke-width="2" stroke-linecap="round" stroke-linejoin="round"/>
<path d="M64.7742 113.966L77.396 96.6118V88.7227L83.6653 82.4534" stroke="#0F3644" stroke-width="2" stroke-linecap="round" stroke-linejoin="round"/>
<path d="M64.7743 82.8948L60.0872 97.7562L64.7743 113.966L69.4634 97.7562L64.7743 82.8948Z" fill="#CBDEE5" stroke="#0F3644" stroke-width="2" stroke-linecap="round" stroke-linejoin="round"/>
<path d="M64.7742 132.117V113.966" stroke="#0F3644" stroke-width="2" stroke-linecap="round" stroke-linejoin="round"/>
<path d="M72.3148 87.8987L64.7742 82.8948" stroke="#0F3644" stroke-width="2" stroke-linecap="round" stroke-linejoin="round"/>
<path d="M44.2 80.8315L52.1524 88.7226V96.6117L64.7742 113.966" stroke="#0F3644" stroke-width="2" stroke-linecap="round" stroke-linejoin="round"/>
<path d="M64.7745 82.8948L57.2339 87.8987" stroke="#0F3644" stroke-width="2" stroke-linecap="round" stroke-linejoin="round"/>
<path d="M132.976 64.9502C132.014 64.95 131.073 65.2421 130.28 65.788C129.487 66.334 128.878 67.108 128.535 68.0076L103.854 132.673H162.97L138.004 67.9918C137.659 67.0967 137.051 66.3272 136.26 65.7843C135.469 65.2415 134.532 64.9506 133.572 64.9502H132.976Z" fill="#CBDEE5"/>
<path d="M132.976 64.9502C132.014 64.95 131.073 65.2421 130.28 65.788C129.487 66.334 128.878 67.108 128.535 68.0076L103.854 132.673H162.97L138.004 67.9918C137.659 67.0967 137.051 66.3272 136.26 65.7843C135.469 65.2415 134.532 64.9506 133.572 64.9502H132.976Z" stroke="#0F3644" stroke-width="2" stroke-linejoin="round"/>
<path d="M133.267 64.9504V45.9407" stroke="#0F3644" stroke-width="2" stroke-linecap="round" stroke-linejoin="round"/>
<path d="M133.267 24.1584C133.267 23.6331 133.476 23.1295 133.847 22.758C134.219 22.3867 134.722 22.1782 135.248 22.1782H163.865C164.095 22.1786 164.319 22.2454 164.511 22.3703C164.703 22.4953 164.855 22.6731 164.948 22.8824C165.041 23.0915 165.072 23.3234 165.037 23.5497C165.002 23.7762 164.901 23.9875 164.749 24.1584L157.026 32.7327C156.699 33.0962 156.517 33.5681 156.517 34.0574C156.517 34.5465 156.699 35.0184 157.026 35.3822L164.749 43.9564C164.901 44.1271 165.002 44.3384 165.037 44.565C165.072 44.7913 165.041 45.0232 164.948 45.2323C164.855 45.4416 164.703 45.6194 164.511 45.7444C164.319 45.8693 164.095 45.936 163.865 45.9366H133.267V24.1584Z" fill="#C88C8C"/>
<path d="M133.267 24.1584C133.267 23.6331 133.476 23.1295 133.847 22.758C134.219 22.3867 134.722 22.1782 135.248 22.1782H163.865C164.095 22.1786 164.319 22.2454 164.511 22.3703C164.703 22.4953 164.855 22.6731 164.948 22.8824C165.041 23.0915 165.072 23.3234 165.037 23.5497C165.002 23.7762 164.901 23.9875 164.749 24.1584L157.026 32.7327C156.699 33.0962 156.517 33.5681 156.517 34.0574C156.517 34.5465 156.699 35.0184 157.026 35.3822L164.749 43.9564C164.901 44.1271 165.002 44.3384 165.037 44.565C165.072 44.7913 165.041 45.0232 164.948 45.2323C164.855 45.4416 164.703 45.6194 164.511 45.7444C164.319 45.8693 164.095 45.936 163.865 45.9366H133.267V24.1584Z" stroke="#0F3644" stroke-width="2" stroke-linejoin="round"/>
<path d="M109.848 97.7166C109.65 97.3223 109.347 96.9906 108.972 96.7588C108.596 96.5271 108.164 96.4043 107.723 96.4043C107.282 96.4043 106.849 96.5271 106.474 96.7588C106.099 96.9906 105.796 97.3223 105.598 97.7166L88.1189 132.673H127.327L109.848 97.7166Z" fill="#CBDEE5" stroke="#0F3644" stroke-width="2" stroke-linejoin="round"/>
<path d="M101.431 106.047L105.901 111.376C106.124 111.642 106.402 111.856 106.717 112.003C107.031 112.149 107.374 112.225 107.721 112.225C108.069 112.225 108.412 112.149 108.726 112.003C109.041 111.856 109.319 111.642 109.542 111.376L114.014 106.047L109.855 97.7166C109.658 97.3223 109.354 96.9906 108.979 96.7588C108.604 96.5271 108.171 96.4043 107.73 96.4043C107.289 96.4043 106.857 96.5271 106.482 96.7588C106.106 96.9906 105.803 97.3223 105.606 97.7166L101.431 106.047Z" fill="white" stroke="#0F3644" stroke-width="2" stroke-linejoin="round"/>
<path d="M124.576 94.3997C124.761 94.711 125.014 94.9758 125.317 95.1742C125.62 95.3724 125.964 95.4989 126.323 95.5441C126.682 95.5892 127.047 95.5516 127.39 95.4344C127.732 95.3169 128.043 95.1229 128.299 94.867L131.586 91.5819C131.807 91.3605 132.069 91.1847 132.358 91.0647C132.647 90.9449 132.956 90.8831 133.269 90.8831C133.582 90.8831 133.892 90.9449 134.181 91.0647C134.469 91.1847 134.732 91.3605 134.952 91.5819L138.238 94.8651C138.494 95.1209 138.805 95.3148 139.148 95.432C139.49 95.549 139.855 95.5864 140.214 95.5411C140.573 95.496 140.917 95.3692 141.22 95.1706C141.522 94.9722 141.776 94.7072 141.96 94.3958L145.743 88.0156L138.02 67.9918C137.673 67.0944 137.063 66.3229 136.269 65.7799C135.475 65.2367 134.534 64.9474 133.572 64.9502H132.978C132.015 64.95 131.075 65.2421 130.282 65.788C129.489 66.3342 128.88 67.108 128.537 68.0076L120.855 88.1324L124.576 94.3997Z" fill="white"/>
<path d="M124.576 94.3997C124.761 94.711 125.014 94.9758 125.317 95.1742C125.62 95.3724 125.964 95.4989 126.323 95.5441C126.682 95.5892 127.047 95.5516 127.39 95.4344C127.732 95.3169 128.043 95.1229 128.299 94.867L131.586 91.5819C131.807 91.3605 132.069 91.1847 132.358 91.0647C132.647 90.9449 132.956 90.8831 133.269 90.8831C133.582 90.8831 133.892 90.9449 134.181 91.0647C134.469 91.1847 134.732 91.3605 134.952 91.5819L138.238 94.8651C138.494 95.1209 138.805 95.3148 139.148 95.432C139.49 95.549 139.855 95.5864 140.214 95.5411C140.573 95.496 140.917 95.3692 141.22 95.1706C141.522 94.9722 141.776 94.7072 141.96 94.3958L145.743 88.0156L138.02 67.9918C137.673 67.0944 137.063 66.3229 136.269 65.7799C135.475 65.2367 134.534 64.9474 133.572 64.9502H132.978C132.015 64.95 131.075 65.2421 130.282 65.788C129.489 66.3342 128.88 67.108 128.537 68.0076L120.855 88.1324L124.576 94.3997Z" stroke="#0F3644" stroke-width="2" stroke-linejoin="round"/>
<path d="M64.7999 33.0991C62.7281 33.0991 60.6764 33.5072 58.7621 34.3001C56.8479 35.0932 55.1086 36.2554 53.6437 37.7205C52.1787 39.1857 51.0168 40.9251 50.2239 42.8393C49.4312 44.7536 49.0233 46.8053 49.0237 48.8773V52.0338C44.5187 52.0338 44.8257 59.9229 49.8158 59.9229H49.8296C50.9504 63.5185 53.3241 66.593 56.5191 68.5872C59.7144 70.5815 63.5189 71.3633 67.2415 70.7906C70.9641 70.2179 74.3578 68.3288 76.8059 65.4664C79.2538 62.6041 80.5938 58.9585 80.5821 55.1922V48.8773C80.5823 46.8049 80.1742 44.7526 79.3811 42.8379C78.5881 40.9233 77.4255 39.1837 75.9599 37.7183C74.4944 36.2532 72.7544 35.091 70.8395 34.2985C68.9247 33.5059 66.8724 33.0983 64.7999 33.0991Z" fill="white" stroke="#0F3644" stroke-width="2" stroke-linecap="round" stroke-linejoin="round"/>
<path d="M62.0398 50.4556C61.6481 50.4556 61.2654 50.5716 60.9396 50.7892C60.6141 51.0069 60.3602 51.3162 60.2103 51.6779C60.0604 52.0397 60.0212 52.4379 60.0976 52.8221C60.1741 53.2063 60.3626 53.5589 60.6396 53.836C60.9165 54.1128 61.2693 54.3015 61.6535 54.3779C62.0376 54.4544 62.4357 54.415 62.7976 54.2653C63.1594 54.1154 63.4687 53.8615 63.6862 53.536C63.9038 53.2102 64.02 52.8274 64.02 52.4358C64.02 51.9106 63.8113 51.4069 63.44 51.0356C63.0685 50.6641 62.565 50.4556 62.0398 50.4556Z" fill="#0F3644"/>
<path d="M73.8731 50.4556C73.4814 50.4556 73.0986 50.5716 72.7729 50.7892C72.4473 51.0069 72.1935 51.3162 72.0436 51.6779C71.8937 52.0397 71.8545 52.4379 71.9309 52.8221C72.0073 53.2063 72.1958 53.5589 72.4729 53.836C72.7499 54.1128 73.1026 54.3015 73.4867 54.3779C73.8709 54.4544 74.2691 54.415 74.6309 54.2653C74.9927 54.1154 75.302 53.8615 75.5196 53.536C75.7372 53.2102 75.8533 52.8274 75.8533 52.4358C75.8533 51.9106 75.6448 51.4069 75.2733 51.0356C74.902 50.6641 74.3982 50.4556 73.8731 50.4556Z" fill="#0F3644"/>
<path d="M60.0673 58.7387C60.0673 59.0522 59.9744 59.3583 59.8003 59.6189C59.6263 59.8795 59.3787 60.0825 59.0892 60.2023C58.7999 60.3223 58.4813 60.3535 58.174 60.2926C57.8667 60.2314 57.5845 60.0805 57.3629 59.8589C57.1413 59.6373 56.9904 59.3551 56.9294 59.0478C56.8682 58.7405 56.8995 58.4221 57.0195 58.1326C57.1393 57.8431 57.3425 57.5957 57.6029 57.4217C57.8635 57.2476 58.1698 57.1545 58.4831 57.1545C58.9033 57.1545 59.3061 57.3215 59.6033 57.6187C59.9003 57.9157 60.0673 58.3187 60.0673 58.7387Z" fill="#CBDEE5"/>
<path d="M64.0117 61.3506C64.9525 62.1848 66.1343 62.6979 67.3862 62.8153C68.6381 62.933 69.8947 62.6486 70.9741 62.0041C71.2996 61.8106 71.6093 61.592 71.9008 61.3506" stroke="#0F3644" stroke-width="2" stroke-linecap="round" stroke-linejoin="round"/>
<path d="M56.1208 42.5247C63.0396 49.2356 74.9723 48.1287 82.1564 45.6931C82.1046 41.1222 80.2515 36.7562 76.9998 33.5436C73.7481 30.3307 69.3604 28.5303 64.7891 28.5335C60.218 28.5366 55.8327 30.343 52.5854 33.5602C49.338 36.7774 47.4911 41.1459 47.4456 45.7168V51.196C47.4456 51.196 56.1208 49.0277 56.1208 42.5188" fill="white"/>
<path d="M56.1208 42.5247C63.0396 49.2356 74.9723 48.1287 82.1564 45.6931C82.1046 41.1222 80.2515 36.7562 76.9998 33.5436C73.7481 30.3307 69.3604 28.5303 64.7891 28.5335C60.218 28.5366 55.8327 30.343 52.5854 33.5602C49.338 36.7774 47.4911 41.1459 47.4456 45.7168V51.196C47.4456 51.196 56.1208 49.0277 56.1208 42.5188" stroke="#0F3644" stroke-width="2" stroke-linecap="round" stroke-linejoin="round"/>
<path d="M56.1208 42.5247C63.0396 49.2356 74.9723 48.1287 82.1564 45.6931C82.1046 41.1222 80.2515 36.7562 76.9998 33.5436C73.7481 30.3307 69.3604 28.5303 64.7891 28.5335C60.218 28.5366 55.8327 30.343 52.5854 33.5602C49.338 36.7774 47.4911 41.1459 47.4456 45.7168V51.196C47.4456 51.196 56.1208 49.0277 56.1208 42.5188" stroke="#0F3644" stroke-width="2" stroke-linecap="round" stroke-linejoin="round"/>
<path d="M56.1208 42.5245C55.3287 41.7502 55.2059 41.871 54.5564 40.877" stroke="#0F3644" stroke-width="2" stroke-linecap="round" stroke-linejoin="round"/>
</svg>
