<svg width="200" height="200" viewBox="0 0 200 200" fill="none" xmlns="http://www.w3.org/2000/svg">
<path d="M99.9999 179.208C143.745 179.208 179.208 143.745 179.208 99.9999C179.208 56.2546 143.745 20.792 99.9999 20.792C56.2546 20.792 20.792 56.2546 20.792 99.9999C20.792 143.745 56.2546 179.208 99.9999 179.208Z" fill="#F3F4F6"/>
<path d="M122.038 158.812C121.485 149.594 124.045 140.458 129.307 132.871C129.7 132.31 130.2 131.833 130.779 131.467C131.357 131.101 132.003 130.853 132.678 130.737C133.352 130.622 134.043 130.641 134.711 130.794C135.378 130.948 136.008 131.231 136.566 131.629C137.123 132.027 137.595 132.532 137.956 133.114C138.317 133.695 138.56 134.343 138.669 135.019C138.779 135.695 138.753 136.385 138.594 137.051C138.435 137.717 138.146 138.345 137.743 138.899C133.916 144.429 132.021 151.067 132.35 157.784C132.487 159.152 132.074 160.519 131.204 161.583C130.332 162.647 129.074 163.321 127.706 163.458C126.338 163.595 124.971 163.182 123.907 162.311C122.843 161.44 122.168 160.182 122.032 158.814L122.038 158.812Z" fill="white" stroke="#0F3644" stroke-width="2" stroke-linecap="round" stroke-linejoin="round"/>
<path d="M112.358 154.976C111.807 145.758 114.369 136.622 119.634 129.035C120.027 128.475 120.527 127.997 121.106 127.631C121.684 127.265 122.329 127.017 123.004 126.902C123.679 126.786 124.37 126.806 125.037 126.959C125.705 127.112 126.335 127.396 126.892 127.794C127.449 128.192 127.922 128.696 128.283 129.278C128.644 129.86 128.886 130.507 128.996 131.183C129.105 131.859 129.08 132.55 128.921 133.216C128.762 133.882 128.472 134.509 128.069 135.063C124.243 140.593 122.347 147.231 122.675 153.948C122.748 154.628 122.685 155.315 122.491 155.971C122.296 156.626 121.974 157.237 121.543 157.767C121.112 158.298 120.579 158.738 119.977 159.062C119.375 159.386 118.715 159.588 118.035 159.655C117.355 159.723 116.668 159.656 116.014 159.457C115.359 159.259 114.751 158.932 114.223 158.498C113.696 158.063 113.259 157.528 112.939 156.924C112.619 156.32 112.422 155.658 112.358 154.978V154.976Z" fill="white" stroke="#0F3644" stroke-width="2" stroke-linecap="round" stroke-linejoin="round"/>
<path d="M103.182 151.572C102.631 142.354 105.193 133.218 110.457 125.631C110.853 125.077 111.354 124.607 111.932 124.247C112.51 123.887 113.153 123.644 113.825 123.532C114.496 123.42 115.183 123.442 115.847 123.596C116.51 123.75 117.136 124.032 117.69 124.428C118.244 124.824 118.714 125.325 119.075 125.903C119.435 126.481 119.678 127.124 119.79 127.796C119.901 128.467 119.88 129.154 119.726 129.817C119.572 130.481 119.289 131.107 118.893 131.661C115.067 137.191 113.171 143.828 113.499 150.544C113.569 151.223 113.504 151.908 113.308 152.561C113.112 153.214 112.789 153.822 112.358 154.35C111.927 154.879 111.396 155.317 110.795 155.639C110.194 155.962 109.536 156.163 108.858 156.231C108.179 156.299 107.494 156.232 106.841 156.035C106.189 155.837 105.581 155.513 105.054 155.081C104.527 154.648 104.09 154.116 103.769 153.515C103.448 152.913 103.249 152.254 103.182 151.576V151.572Z" fill="white" stroke="#0F3644" stroke-width="2" stroke-linecap="round" stroke-linejoin="round"/>
<path d="M166.156 149.671C161.404 133.849 153.022 118.883 139.301 113.02C130.174 109.119 120.111 108.069 110.909 111.794L105.309 114.059C104.143 114.531 103.189 115.411 102.625 116.535C102.061 117.659 101.925 118.95 102.244 120.167C102.562 121.383 103.313 122.442 104.356 123.145C105.398 123.849 106.662 124.148 107.909 123.988C109.295 123.717 109.323 124.394 110.182 126.778C120.281 144.039 123.358 149.107 131.392 161.827C134.465 166.184 138.323 168.164 140.699 172.109C149.962 165.56 158.496 158.038 166.156 149.671Z" fill="white"/>
<path d="M166.156 149.669C161.404 133.847 153.022 118.883 139.301 113.02C130.174 109.119 120.111 108.069 110.909 111.794L105.309 114.059C104.143 114.531 103.189 115.411 102.625 116.535C102.061 117.659 101.925 118.95 102.244 120.167C102.562 121.383 103.313 122.442 104.356 123.145C105.398 123.849 106.662 124.148 107.909 123.988C109.295 123.717 109.323 124.394 110.182 126.778C120.281 144.039 123.358 149.107 131.392 161.827C134.465 166.184 138.323 168.164 140.699 172.109L166.156 149.669ZM140.545 141.823C136.909 140.007 133.637 137.54 130.891 134.544C129.626 133.168 133.842 137.988 118.432 120.307C144.212 115.81 145.148 144.158 140.545 141.82V141.823Z" stroke="#0F3644" stroke-width="2" stroke-linecap="round" stroke-linejoin="round"/>
<path d="M135.252 40.6377H63.5367C62.0625 40.6377 60.8674 41.8327 60.8674 43.307V142.396C60.8674 143.87 62.0625 145.065 63.5367 145.065H135.252C136.726 145.065 137.921 143.87 137.921 142.396V43.307C137.921 41.8327 136.726 40.6377 135.252 40.6377Z" fill="white"/>
<path d="M137.921 58.3981V43.307C137.921 42.9561 137.852 42.6086 137.717 42.2846C137.583 41.9605 137.386 41.666 137.138 41.4181C136.889 41.1702 136.595 40.9735 136.27 40.8397C135.946 40.7058 135.599 40.6371 135.248 40.6377H63.5367C62.8288 40.6377 62.1498 40.9189 61.6492 41.4195C61.1486 41.9201 60.8674 42.5991 60.8674 43.307V58.3981H137.921Z" fill="#CBDEE5"/>
<path d="M135.252 40.6377H63.5367C62.0625 40.6377 60.8674 41.8327 60.8674 43.307V142.396C60.8674 143.87 62.0625 145.065 63.5367 145.065H135.252C136.726 145.065 137.921 143.87 137.921 142.396V43.307C137.921 41.8327 136.726 40.6377 135.252 40.6377Z" stroke="#0F3644" stroke-width="2" stroke-linecap="round" stroke-linejoin="round"/>
<path d="M90.5107 77.5623H104.723" stroke="#0F3644" stroke-width="2" stroke-linecap="round" stroke-linejoin="round"/>
<path d="M90.5107 84.667H122.487" stroke="#0F3644" stroke-width="2" stroke-linecap="round" stroke-linejoin="round"/>
<path d="M90.5107 91.7747H113.632" stroke="#0F3644" stroke-width="2" stroke-linecap="round" stroke-linejoin="round"/>
<path d="M90.5107 113.091H108.275" stroke="#0F3644" stroke-width="2" stroke-linecap="round" stroke-linejoin="round"/>
<path d="M90.5107 120.197H99.9028" stroke="#0F3644" stroke-width="2" stroke-linecap="round" stroke-linejoin="round"/>
<path d="M90.5107 127.301H99.3226" stroke="#0F3644" stroke-width="2" stroke-linecap="round" stroke-linejoin="round"/>
<path d="M72.2969 88.6721C72.2969 89.464 72.5317 90.238 72.9717 90.8964C73.4117 91.555 74.0371 92.0681 74.7688 92.3713C75.5002 92.6743 76.3054 92.7535 77.082 92.599C77.8589 92.4446 78.5721 92.0632 79.1321 91.5032C79.6921 90.9434 80.0735 90.2299 80.228 89.4533C80.3824 88.6764 80.3032 87.8715 80 87.1398C79.6971 86.4081 79.1838 85.7828 78.5254 85.3428C77.867 84.903 77.0929 84.6681 76.301 84.6681C75.509 84.6681 74.7347 84.4333 74.0763 83.9931C73.4177 83.5531 72.9046 82.9277 72.6016 82.1958C72.2987 81.4642 72.2195 80.659 72.3741 79.8822C72.5288 79.1055 72.9103 78.3921 73.4703 77.8323C74.0305 77.2723 74.7442 76.8911 75.521 76.7368C76.2979 76.5826 77.103 76.6622 77.8345 76.9655C78.5662 77.2689 79.1913 77.7824 79.6311 78.441C80.0707 79.0998 80.3052 79.8741 80.305 80.6661" stroke="#C88C8C" stroke-width="2" stroke-linecap="round" stroke-linejoin="round"/>
<path d="M76.301 76.6617V73.9924" stroke="#C88C8C" stroke-width="2" stroke-linecap="round" stroke-linejoin="round"/>
<path d="M76.301 95.3451V92.6758" stroke="#C88C8C" stroke-width="2" stroke-linecap="round" stroke-linejoin="round"/>
<path d="M72.2969 124.201C72.2967 124.993 72.5311 125.767 72.9707 126.426C73.4105 127.084 74.0357 127.598 74.7674 127.901C75.4989 128.204 76.304 128.284 77.0808 128.13C77.8577 127.976 78.5713 127.594 79.1315 127.035C79.6915 126.475 80.0731 125.761 80.2278 124.984C80.3824 124.208 80.3032 123.402 80.0002 122.671C79.6973 121.939 79.1842 121.314 78.5256 120.874C77.8672 120.434 77.0929 120.199 76.301 120.199C75.509 120.199 74.7349 119.964 74.0765 119.524C73.4181 119.084 72.9048 118.458 72.6018 117.727C72.2987 116.995 72.2195 116.19 72.3739 115.414C72.5284 114.637 72.9097 113.923 73.4697 113.363C74.0297 112.803 74.743 112.422 75.5198 112.268C76.2965 112.113 77.1016 112.192 77.8331 112.496C78.5648 112.798 79.1901 113.312 79.6301 113.97C80.0701 114.629 80.305 115.403 80.305 116.195" stroke="#C88C8C" stroke-width="2" stroke-linecap="round" stroke-linejoin="round"/>
<path d="M76.301 112.188V109.519" stroke="#C88C8C" stroke-width="2" stroke-linecap="round" stroke-linejoin="round"/>
<path d="M76.301 130.874V128.204" stroke="#C88C8C" stroke-width="2" stroke-linecap="round" stroke-linejoin="round"/>
<path d="M60.8674 58.3984H137.921" stroke="#0F3644" stroke-width="2" stroke-linecap="round" stroke-linejoin="round"/>
<path d="M131.04 161.269C123.18 148.824 120.087 143.728 109.901 126.315C109.296 125.493 108.911 124.53 108.782 123.518C108.654 122.506 108.787 121.477 109.168 120.53C109.552 119.776 110.115 119.127 110.808 118.64C111.5 118.153 112.302 117.843 113.142 117.738C113.982 117.632 114.835 117.734 115.626 118.034C116.418 118.334 117.124 118.823 117.683 119.459L118.422 120.307C133.899 138.065 129.626 133.178 130.881 134.544C133.63 137.539 136.903 140.005 140.541 141.82" fill="white"/>
<path d="M131.04 161.269C123.18 148.824 120.087 143.728 109.901 126.315C109.296 125.493 108.911 124.53 108.782 123.518C108.654 122.506 108.787 121.477 109.168 120.53C109.552 119.776 110.115 119.127 110.808 118.64C111.5 118.153 112.302 117.843 113.142 117.738C113.982 117.632 114.835 117.734 115.626 118.034C116.418 118.334 117.124 118.823 117.683 119.459L118.422 120.307C133.899 138.065 129.626 133.178 130.881 134.544C133.63 137.539 136.903 140.005 140.541 141.82" stroke="#0F3644" stroke-width="2" stroke-linecap="round" stroke-linejoin="round"/>
</svg>
