<svg width="24" height="23" viewBox="0 0 24 23" fill="none" xmlns="http://www.w3.org/2000/svg">
<path d="M12.9897 0.710194C12.7272 0.447734 12.3712 0.300293 11.9999 0.300293C11.6287 0.300293 11.2727 0.447734 11.0101 0.710194L1.21014 10.5102C0.955114 10.7742 0.814002 11.1279 0.817192 11.495C0.820381 11.862 0.967618 12.2132 1.22719 12.4727C1.48676 12.7323 1.8379 12.8795 2.20497 12.8827C2.57205 12.8859 2.92569 12.7448 3.18974 12.4898L3.59994 12.0796V21.3C3.59994 21.6713 3.74744 22.0274 4.00999 22.2899C4.27254 22.5525 4.62863 22.7 4.99994 22.7H7.79994C8.17124 22.7 8.52733 22.5525 8.78988 22.2899C9.05243 22.0274 9.19993 21.6713 9.19993 21.3V18.5C9.19993 18.1287 9.34743 17.7726 9.60999 17.51C9.87254 17.2475 10.2286 17.1 10.5999 17.1H13.3999C13.7712 17.1 14.1273 17.2475 14.3899 17.51C14.6524 17.7726 14.7999 18.1287 14.7999 18.5V21.3C14.7999 21.6713 14.9474 22.0274 15.21 22.2899C15.4725 22.5525 15.8286 22.7 16.1999 22.7H18.9999C19.3712 22.7 19.7273 22.5525 19.9899 22.2899C20.2524 22.0274 20.3999 21.6713 20.3999 21.3V12.0796L20.8101 12.4898C21.0742 12.7448 21.4278 12.8859 21.7949 12.8827C22.162 12.8795 22.5131 12.7323 22.7727 12.4727C23.0323 12.2132 23.1795 11.862 23.1827 11.495C23.1859 11.1279 23.0448 10.7742 22.7897 10.5102L12.9897 0.710194Z" fill="#9CA3AF"/>
</svg>
