<svg width="151" height="30" viewBox="0 0 151 30" fill="none" xmlns="http://www.w3.org/2000/svg">
<path d="M111.571 18.3565C111.036 13.3027 106.844 9.312 101.771 9.01816C95.6952 8.66579 90.6584 13.488 90.6584 19.4868C90.6584 20.5426 90.817 21.5619 91.1071 22.5239C91.1425 22.6386 91.2498 22.7166 91.3705 22.7166H94.8308C95.0283 22.7166 95.1624 22.513 95.0783 22.335C94.6454 21.4169 94.415 20.3841 94.4455 19.2953C94.5467 15.6936 97.59 12.7601 101.194 12.7857C104.873 12.8125 107.848 15.8021 107.848 19.488C107.848 20.5061 107.62 21.4705 107.212 22.335C107.128 22.5142 107.262 22.7178 107.46 22.7178H110.92C111.041 22.7178 111.149 22.6398 111.184 22.5239C111.576 21.2218 111.726 19.816 111.571 18.3565Z" fill="#A24557"/>
<path d="M108.341 26.3732H93.948C93.6761 26.3732 93.5371 26.7048 93.7297 26.8975C95.6269 28.7959 98.2471 29.9724 101.144 29.9724C104.041 29.9724 106.661 28.7959 108.558 26.8975C108.752 26.7048 108.615 26.3732 108.341 26.3732Z" fill="white"/>
<path d="M124.814 8.50651C119.931 8.37703 118.111 10.2058 117.262 11.5918L117.202 9.45232C117.202 9.11321 116.93 8.83822 116.595 8.83822H114.462C114.127 8.83822 113.855 9.11321 113.855 9.45232V29.3797C113.855 29.7188 114.127 29.9938 114.462 29.9938H117.153C117.488 29.9938 117.76 29.7188 117.76 29.3797L117.698 27.1378L117.744 18.1964C117.744 18.1964 118.089 12.4722 122.995 12.1405C125.094 12.1245 127.785 12.439 127.867 17.3505C127.933 21.2866 127.903 27.0145 127.889 29.133C127.885 29.5918 128.25 29.9654 128.702 29.9716L130.95 29.9999C131.41 30.0061 131.785 29.63 131.784 29.1651L131.754 16.5551C131.754 16.5539 131.688 8.68901 124.814 8.50651Z" fill="white"/>
<path d="M88.3491 9.305H73.8801C73.4095 9.305 73.0266 9.68663 73.0266 10.1585V11.952C73.0266 12.4227 73.4083 12.8055 73.8801 12.8055H83.1465L73.9387 26.265L73.9484 26.2796L72.3195 28.5852C71.9 29.179 72.3244 29.9984 73.051 29.9984H87.3652C87.8358 29.9984 88.2187 29.6167 88.2187 29.1449V27.3513C88.2187 26.8807 87.837 26.4979 87.3652 26.4979H78.0659L86.5544 14.1126C86.5617 14.1113 86.5666 14.1101 86.5666 14.1065C86.5666 14.1016 86.5861 14.0699 86.6202 14.0175L87.1335 13.2688C87.2384 13.1176 87.3493 12.9591 87.4579 12.8043H87.4737L88.0053 12.024C88.0894 11.9045 88.1419 11.8301 88.1419 11.8301H88.1382L89.01 10.5523C89.3709 10.0231 88.9917 9.305 88.3491 9.305Z" fill="white"/>
<path d="M68.3666 9.05496H64.0858C63.5627 9.05496 63.1396 9.47805 63.1396 10.0011V11.7837C63.1396 12.3067 63.5627 12.7298 64.0858 12.7298H65.3819V29.5C65.3819 29.9755 65.7671 30 66.2414 30H68.4617C68.9372 30 69.3213 29.9743 69.3213 29.5V12.7298H69.3298V10.0182C69.3298 9.48658 68.8982 9.05496 68.3666 9.05496Z" fill="white"/>
<path d="M67.0558 5.27768C68.3719 5.14746 69.3331 3.97489 69.2028 2.65894C69.0726 1.34286 67.9001 0.381595 66.5841 0.511813C65.268 0.642152 64.3067 1.8146 64.4371 3.13067C64.5673 4.44675 65.7397 5.4079 67.0558 5.27768Z" fill="white"/>
<path d="M59.8525 8.50025C58.938 8.5161 55.7484 8.30273 53.0697 12.2763L52.9892 9.48298C52.9892 9.2062 52.7588 8.98308 52.4735 8.98308H50.2239C49.9386 8.98308 49.7082 9.20742 49.7082 9.48298V29.5C49.7082 29.7768 49.9386 30 50.2239 30H53.0478C53.3331 30 53.5635 29.7756 53.5635 29.5L53.6123 20.204C53.6123 20.204 53.4318 12.7884 59.7318 12.2312C60.1914 12.2471 60.7596 12.1544 60.7706 11.3667C60.7815 10.5791 60.7815 9.34398 60.7815 9.34398C60.7815 9.34398 60.8157 8.48318 59.8525 8.50025Z" fill="white"/>
<path d="M21.9833 0H19.0303C18.7584 0 18.5377 0.220687 18.5377 0.492583V13.2096H3.93701V0.492583C3.93701 0.220687 3.71632 0 3.44442 0H0.492583C0.220687 0 0 0.220687 0 0.492583V29.5C0 29.7719 0.220687 30 0.492583 30H3.44564C3.71754 30 3.93823 29.7719 3.93823 29.5V17.1686H18.5377V29.5C18.5377 29.7719 18.7584 30 19.0303 30H21.9833C22.2552 30 22.4759 29.7719 22.4759 29.5V0.492583C22.4759 0.220687 22.2552 0 21.9833 0Z" fill="white"/>
<path d="M150.998 23.1923C150.932 20.0856 148.767 18.5981 145.004 17.68C141.241 16.7619 138.825 16.5095 138.944 14.038C139.064 11.5666 144.993 11.73 147.476 12.6603C148.492 13.0102 149.346 13.098 149.553 12.442C149.76 11.786 149.723 11.808 149.723 11.808L150.009 10.6351C150.009 10.6351 150.346 9.76573 149.353 9.41336C148.361 9.06099 145.725 8.25384 142.98 8.34163C140.234 8.42941 136.145 8.7574 135.029 13.5259C134.92 14.0514 134.811 18.5127 139.272 19.771C143.734 21.0293 147.245 21.3792 147.137 23.6531C147.027 25.9283 143.561 26.7818 140.848 26.2234C138.135 25.6662 136.889 25.1626 136.341 25.0858C135.794 25.009 135.601 25.2406 135.405 25.7247L135.209 26.2087L134.721 27.328C134.721 27.328 134.344 28.2388 135.328 28.6326C136.312 29.0264 139.864 30.303 144.764 29.9311C149.664 29.5568 151.064 26.2977 150.998 23.1923Z" fill="white"/>
<path d="M35.5672 8.28C29.5696 8.28 24.7072 13.1424 24.7072 19.14C24.7072 25.1376 29.5696 30 35.5672 30C41.5647 30 46.4272 25.1376 46.4272 19.14C46.4272 13.1424 41.5647 8.28 35.5672 8.28ZM35.5672 26.0301C31.7618 26.0301 28.6771 22.9453 28.6771 19.14C28.6771 15.3347 31.7618 12.2499 35.5672 12.2499C39.3725 12.2499 42.4572 15.3347 42.4572 19.14C42.4572 22.9453 39.3725 26.0301 35.5672 26.0301Z" fill="white"/>
</svg>
