<svg width="121" height="24" viewBox="0 0 121 24" fill="none" xmlns="http://www.w3.org/2000/svg">
<path d="M89.257 14.6852C88.8288 10.6421 85.4753 7.4496 81.4166 7.21453C76.5562 6.93263 72.5267 10.7904 72.5267 15.5894C72.5267 16.4341 72.6535 17.2496 72.8857 18.0192C72.914 18.1108 72.9998 18.1733 73.0964 18.1733H75.8646C76.0226 18.1733 76.1299 18.0104 76.0626 17.868C75.7163 17.1335 75.532 16.3073 75.5564 15.4363C75.6373 12.5549 78.072 10.2081 80.9553 10.2285C83.8981 10.25 86.2781 12.6417 86.2781 15.5904C86.2781 16.4049 86.0957 17.1764 85.7699 17.868C85.7026 18.0114 85.8099 18.1742 85.9679 18.1742H88.7361C88.8327 18.1742 88.9195 18.1118 88.9468 18.0192C89.2609 16.9774 89.3809 15.8528 89.257 14.6852Z" fill="white"/>
<path d="M86.6731 21.0985H75.1584C74.9409 21.0985 74.8297 21.3639 74.9838 21.518C76.5015 23.0367 78.5977 23.978 80.9153 23.978C83.2328 23.978 85.329 23.0367 86.8467 21.518C87.0018 21.3639 86.8916 21.0985 86.6731 21.0985Z" fill="white"/>
<path d="M99.8509 6.80521C95.9444 6.70163 94.4891 8.16461 93.8092 9.27344L93.7614 7.56186C93.7614 7.29057 93.5439 7.07058 93.2757 7.07058H91.5697C91.3015 7.07058 91.0839 7.29057 91.0839 7.56186V23.5037C91.0839 23.775 91.3015 23.995 91.5697 23.995H93.7224C93.9907 23.995 94.2082 23.775 94.2082 23.5037L94.1584 21.7103L94.1955 14.5571C94.1955 14.5571 94.4715 9.9778 98.3956 9.71243C100.075 9.69961 102.228 9.95116 102.293 13.8804C102.346 17.0293 102.323 21.6116 102.311 23.3064C102.308 23.6734 102.6 23.9723 102.962 23.9773L104.76 23.9999C105.128 24.0049 105.428 23.704 105.427 23.3321L105.403 13.2441C105.403 13.2441 105.35 6.95121 99.8509 6.80521Z" fill="white"/>
<path d="M70.6793 7.444H59.1041C58.7276 7.444 58.4213 7.7493 58.4213 8.12679V9.56162C58.4213 9.93813 58.7266 10.2444 59.1041 10.2444H66.5172L59.1509 21.012L59.1587 21.0237L57.8556 22.8682C57.52 23.3432 57.8595 23.9987 58.4408 23.9987H69.8922C70.2687 23.9987 70.5749 23.6934 70.5749 23.3159V21.8811C70.5749 21.5046 70.2696 21.1983 69.8922 21.1983H62.4527L69.2435 11.29C69.2494 11.2891 69.2533 11.2881 69.2533 11.2852C69.2533 11.2813 69.2689 11.2559 69.2962 11.214L69.7068 10.6151C69.7907 10.4941 69.8795 10.3673 69.9663 10.2434H69.979L70.4042 9.61917C70.4715 9.52358 70.5135 9.46408 70.5135 9.46408H70.5106L71.208 8.44185C71.4967 8.01852 71.1934 7.444 70.6793 7.444Z" fill="white"/>
<path d="M54.6933 7.24397H51.2686C50.8502 7.24397 50.5117 7.58244 50.5117 8.00089V9.42694C50.5117 9.84539 50.8502 10.1839 51.2686 10.1839H52.3055V23.6C52.3055 23.9804 52.6137 24 52.9931 24H54.7694C55.1498 24 55.457 23.9794 55.457 23.6V10.1839H55.4639V8.01454C55.4639 7.58926 55.1186 7.24397 54.6933 7.24397Z" fill="white"/>
<path d="M53.6446 4.22214C54.6975 4.11797 55.4665 3.17992 55.3622 2.12715C55.2581 1.07429 54.3201 0.305276 53.2673 0.40945C52.2144 0.513722 51.4454 1.45168 51.5496 2.50454C51.6538 3.5574 52.5918 4.32632 53.6446 4.22214Z" fill="white"/>
<path d="M47.882 6.8002C47.1504 6.81288 44.5987 6.64218 42.4558 9.82105L42.3914 7.58638C42.3914 7.36496 42.207 7.18646 41.9788 7.18646H40.1792C39.9509 7.18646 39.7666 7.36594 39.7666 7.58638V23.6C39.7666 23.8214 39.9509 24 40.1792 24H42.4382C42.6664 24 42.8508 23.8204 42.8508 23.6L42.8898 16.1632C42.8898 16.1632 42.7455 10.2307 47.7854 9.78496C48.1531 9.79764 48.6077 9.72351 48.6165 9.09339C48.6252 8.46328 48.6252 7.47519 48.6252 7.47519C48.6252 7.47519 48.6526 6.78655 47.882 6.8002Z" fill="white"/>
<path d="M17.5867 0H15.2242C15.0067 0 14.8302 0.176549 14.8302 0.394066V10.5677H3.1496V0.394066C3.1496 0.176549 2.97306 0 2.75554 0H0.394066C0.17655 0 0 0.176549 0 0.394066V23.6C0 23.8175 0.17655 24 0.394066 24H2.75651C2.97403 24 3.15058 23.8175 3.15058 23.6V13.7348H14.8302V23.6C14.8302 23.8175 15.0067 24 15.2242 24H17.5867C17.8042 24 17.9807 23.8175 17.9807 23.6V0.394066C17.9807 0.176549 17.8042 0 17.5867 0Z" fill="white"/>
<path d="M120.798 18.5538C120.746 16.0685 119.013 14.8785 116.003 14.144C112.993 13.4095 111.06 13.2076 111.156 11.2304C111.251 9.25326 115.995 9.38397 117.98 10.1282C118.794 10.4082 119.477 10.4784 119.643 9.95361C119.808 9.42884 119.778 9.4464 119.778 9.4464L120.007 8.50805C120.007 8.50805 120.277 7.81258 119.483 7.53069C118.689 7.24879 116.58 6.60307 114.384 6.6733C112.187 6.74353 108.916 7.00592 108.023 10.8208C107.936 11.2412 107.849 14.8102 111.418 15.8168C114.987 16.8234 117.796 17.1034 117.709 18.9225C117.622 20.7426 114.848 21.4254 112.678 20.9787C110.508 20.5329 109.511 20.1301 109.073 20.0686C108.635 20.0072 108.481 20.1925 108.324 20.5797L108.167 20.967L107.777 21.8624C107.777 21.8624 107.475 22.591 108.262 22.9061C109.05 23.2212 111.891 24.2424 115.811 23.9449C119.731 23.6455 120.851 21.0382 120.798 18.5538Z" fill="white"/>
<path d="M28.4537 6.624C23.6557 6.624 19.7657 10.5139 19.7657 15.312C19.7657 20.11 23.6557 24 28.4537 24C33.2518 24 37.1417 20.11 37.1417 15.312C37.1417 10.5139 33.2518 6.624 28.4537 6.624ZM28.4537 20.824C25.4095 20.824 22.9417 18.3563 22.9417 15.312C22.9417 12.2677 25.4095 9.79994 28.4537 9.79994C31.498 9.79994 33.9658 12.2677 33.9658 15.312C33.9658 18.3563 31.498 20.824 28.4537 20.824Z" fill="white"/>
</svg>
