<svg width="200" height="200" viewBox="0 0 200 200" fill="none" xmlns="http://www.w3.org/2000/svg">
<path d="M9.36035 99.9999C9.36035 121.007 17.7054 141.154 32.5598 156.008C47.4142 170.863 67.561 179.208 88.5683 179.208C109.576 179.208 129.722 170.863 144.577 156.008C159.431 141.154 167.776 121.007 167.776 99.9999C167.776 78.9927 159.431 58.8458 144.577 43.9915C129.722 29.1371 109.576 20.792 88.5683 20.792C67.561 20.792 47.4142 29.1371 32.5598 43.9915C17.7054 58.8458 9.36035 78.9927 9.36035 99.9999Z" fill="#F3F4F6"/>
<path d="M118.248 125.485C118.248 126.283 118.007 127.062 117.556 127.721C117.105 128.38 116.466 128.887 115.723 129.176C85.9505 140.778 63.5782 131.127 43.6753 130.562C32.4041 130.501 21.24 132.752 10.8733 137.176C10.2714 137.426 9.6171 137.524 8.96835 137.461C8.3196 137.398 7.69648 137.176 7.15428 136.814C6.61208 136.452 6.16756 135.962 5.86016 135.387C5.55276 134.812 5.39198 134.171 5.39209 133.519V74.6356C5.39166 73.8827 5.60583 73.1453 6.00951 72.5098C6.41318 71.8743 6.98963 71.3671 7.6713 71.0475C18.9298 65.7377 31.2275 62.9964 43.6753 63.0217C62.9703 63.5643 84.5545 72.5584 112.97 62.5564C113.568 62.3458 114.207 62.2815 114.834 62.369C115.462 62.4565 116.059 62.6932 116.576 63.0593C117.093 63.4253 117.514 63.91 117.805 64.4727C118.096 65.0354 118.248 65.6596 118.248 66.293V125.485Z" fill="white" stroke="#0F3644" stroke-width="2" stroke-linecap="round" stroke-linejoin="round"/>
<path d="M155.543 95.3921L148.751 96.0496C148.284 96.0858 147.817 95.9705 147.421 95.7208C147.025 95.4711 146.719 95.1003 146.551 94.6634L143.675 88.8694C143.405 88.3154 142.958 87.8673 142.405 87.5957C141.852 87.3241 141.224 87.2446 140.62 87.3698C140.017 87.4949 139.473 87.8175 139.073 88.2867C138.673 88.7559 138.441 89.3448 138.414 89.9604L137.802 101.933C137.818 102.411 137.99 102.871 138.292 103.242C138.595 103.613 139.01 103.875 139.475 103.988L154.537 107.457C155.923 107.768 157.325 108.032 158.743 108.216L171.554 108.481L186.733 108.063C187.764 108.035 188.743 107.605 189.462 106.865C190.181 106.125 190.583 105.134 190.582 104.103V98.1624C190.583 97.6277 190.475 97.0984 190.265 96.6065C190.056 96.1145 189.749 95.6701 189.363 95.3C188.977 94.93 188.52 94.6419 188.019 94.4532C187.519 94.2645 186.986 94.179 186.452 94.202L155.543 95.3921Z" fill="#C88C8C"/>
<path d="M155.543 95.3921L148.751 96.0496C148.284 96.0858 147.817 95.9705 147.421 95.7208C147.025 95.4711 146.719 95.1003 146.551 94.6634L143.675 88.8694C143.405 88.3154 142.958 87.8673 142.405 87.5957C141.852 87.3241 141.224 87.2446 140.62 87.3698C140.017 87.4949 139.473 87.8175 139.073 88.2867C138.673 88.7559 138.441 89.3448 138.414 89.9604L137.802 101.933C137.818 102.411 137.99 102.871 138.292 103.242C138.595 103.613 139.01 103.875 139.475 103.988L154.537 107.457C155.923 107.768 157.325 108.032 158.743 108.216L171.554 108.481L186.733 108.063C187.764 108.035 188.743 107.605 189.462 106.865C190.181 106.125 190.583 105.134 190.582 104.103V98.1624C190.583 97.6277 190.475 97.0984 190.265 96.6065C190.056 96.1145 189.749 95.6701 189.363 95.3C188.977 94.93 188.52 94.6419 188.019 94.4532C187.519 94.2645 186.986 94.179 186.452 94.202L155.543 95.3921Z" stroke="#0F3644" stroke-width="2" stroke-linecap="round" stroke-linejoin="round"/>
<path d="M161.713 119.149C161.378 119.577 160.952 119.926 160.466 120.17C159.98 120.415 159.447 120.549 158.903 120.562L158.085 120.584C157.663 120.595 157.245 120.497 156.872 120.299C156.499 120.102 156.183 119.811 155.955 119.456C155.726 119.101 155.594 118.693 155.569 118.271C155.544 117.85 155.629 117.429 155.814 117.05L161.669 105.046C161.887 104.6 162.222 104.222 162.64 103.953C163.057 103.685 163.54 103.536 164.036 103.523L171.02 103.337C171.298 103.33 171.573 103.402 171.812 103.546C172.051 103.689 172.244 103.898 172.369 104.147C172.493 104.397 172.544 104.676 172.516 104.953C172.487 105.231 172.381 105.494 172.208 105.713L161.713 119.149Z" fill="#C88C8C" stroke="#0F3644" stroke-width="2" stroke-linecap="round" stroke-linejoin="round"/>
<path d="M190.582 101.176H194.608" stroke="#0F3644" stroke-width="2" stroke-linecap="round" stroke-linejoin="round"/>
<path d="M194.608 93.6475V108.705" stroke="#0F3644" stroke-width="2" stroke-linecap="round" stroke-linejoin="round"/>
<path d="M177.341 94.5684C176.473 92.872 175.135 91.462 173.486 90.5073C171.838 89.5526 169.949 89.0939 168.046 89.1862C165.607 89.3056 163.263 90.1694 161.331 91.6614L156.547 95.3545L177.341 94.5684Z" fill="white" stroke="#0F3644" stroke-width="2" stroke-linecap="round" stroke-linejoin="round"/>
<path d="M118.248 84.0457L137.941 99.2239L118.248 115.234" stroke="#0F3644" stroke-width="2" stroke-linecap="round" stroke-linejoin="round"/>
<path d="M135.212 152.653C134.482 152.657 133.758 152.797 133.079 153.065C132.716 150.749 131.537 148.638 129.755 147.114C127.973 145.59 125.705 144.752 123.36 144.752C121.015 144.752 118.748 145.59 116.966 147.114C115.184 148.638 114.005 150.749 113.642 153.065C112.83 152.75 111.959 152.618 111.091 152.677C110.223 152.737 109.378 152.987 108.617 153.411C107.857 153.834 107.199 154.42 106.691 155.127C106.182 155.833 105.836 156.643 105.677 157.499C105.517 158.355 105.548 159.235 105.768 160.077C105.987 160.92 106.39 161.703 106.947 162.372C107.504 163.041 108.201 163.579 108.99 163.948C109.778 164.316 110.638 164.507 111.509 164.505H135.212C135.999 164.519 136.781 164.377 137.513 164.085C138.245 163.794 138.911 163.36 139.473 162.808C140.034 162.256 140.481 161.598 140.785 160.872C141.09 160.146 141.247 159.367 141.247 158.579C141.247 157.792 141.09 157.012 140.785 156.286C140.481 155.56 140.034 154.902 139.473 154.35C138.911 153.798 138.245 153.364 137.513 153.073C136.781 152.782 135.999 152.639 135.212 152.653Z" fill="white" stroke="#0F3644" stroke-width="2" stroke-linecap="round" stroke-linejoin="round"/>
<path d="M84.2436 29.2318C83.5134 29.2362 82.7903 29.3759 82.1109 29.6436C81.7476 27.327 80.5687 25.2164 78.7868 23.6922C77.0049 22.1679 74.7371 21.3303 72.3921 21.3303C70.0472 21.3303 67.7794 22.1679 65.9975 23.6922C64.2155 25.2164 63.0367 27.327 62.6733 29.6436C61.862 29.3284 60.9911 29.1959 60.1227 29.2556C59.2543 29.3153 58.4098 29.5658 57.6492 29.9892C56.8887 30.4125 56.2308 30.9984 55.7225 31.705C55.2142 32.4116 54.868 33.2216 54.7084 34.0773C54.5489 34.933 54.58 35.8134 54.7996 36.6557C55.0191 37.498 55.4216 38.2816 55.9785 38.9505C56.5355 39.6195 57.233 40.1575 58.0216 40.5261C58.8101 40.8947 59.6702 41.085 60.5407 41.0832H84.2436C85.0309 41.0976 85.8132 40.955 86.5447 40.6637C87.2763 40.3723 87.9424 39.9381 88.5043 39.3865C89.0662 38.8348 89.5125 38.1767 89.8171 37.4506C90.1218 36.7245 90.2787 35.9449 90.2787 35.1575C90.2787 34.3701 90.1218 33.5905 89.8171 32.8644C89.5125 32.1383 89.0662 31.4802 88.5043 30.9285C87.9424 30.3769 87.2763 29.9427 86.5447 29.6513C85.8132 29.36 85.0309 29.2174 84.2436 29.2318Z" fill="white" stroke="#0F3644" stroke-width="2" stroke-linecap="round" stroke-linejoin="round"/>
<path d="M184.646 94.2932L186.451 94.2258C186.986 94.2028 187.519 94.2883 188.019 94.477C188.52 94.6657 188.977 94.9538 189.363 95.3238C189.749 95.6939 190.056 96.1383 190.265 96.6303C190.475 97.1222 190.583 97.6515 190.582 98.1862V104.127C190.583 105.158 190.181 106.149 189.462 106.889C188.743 107.628 187.764 108.058 186.733 108.087L184.646 108.145V94.2932Z" fill="white" stroke="#0F3644" stroke-width="2" stroke-linecap="round" stroke-linejoin="round"/>
<path d="M52.1229 122.507C50.847 122.506 49.6237 121.999 48.7215 121.096C47.8193 120.194 47.312 118.971 47.311 117.695V105.283L34.7605 103.81V115.77C34.7605 117.047 34.2535 118.27 33.3511 119.173C32.4487 120.075 31.2248 120.582 29.9486 120.582C28.6724 120.582 27.4485 120.075 26.5461 119.173C25.6437 118.27 25.1367 117.047 25.1367 115.77V79.507C25.1367 78.2308 25.6437 77.0068 26.5461 76.1044C27.4485 75.202 28.6724 74.6951 29.9486 74.6951C31.2248 74.6951 32.4487 75.202 33.3511 76.1044C34.2535 77.0068 34.7605 78.2308 34.7605 79.507V94.1604L47.311 95.6337V81.4317C47.311 80.1555 47.8179 78.9316 48.7203 78.0292C49.6227 77.1268 50.8467 76.6198 52.1229 76.6198C53.399 76.6198 54.623 77.1268 55.5254 78.0292C56.4278 78.9316 56.9347 80.1555 56.9347 81.4317V117.695C56.9332 118.971 56.4257 120.194 55.5236 121.096C54.6216 121.998 53.3986 122.505 52.1229 122.507Z" fill="#CBDEE6" stroke="#0F3644" stroke-width="2" stroke-linecap="round" stroke-linejoin="round"/>
<path d="M68.9466 122.483C67.6709 122.482 66.4479 121.974 65.5459 121.072C64.6438 120.17 64.1363 118.947 64.1348 117.671V92.808C64.1348 91.5318 64.6417 90.3079 65.5441 89.4055C66.4465 88.5031 67.6705 87.9961 68.9466 87.9961C70.2228 87.9961 71.4468 88.5031 72.3492 89.4055C73.2516 90.3079 73.7585 91.5318 73.7585 92.808V117.671C73.757 118.947 73.2495 120.17 72.3474 121.072C71.4454 121.974 70.2224 122.482 68.9466 122.483Z" fill="#CBDEE6" stroke="#0F3644" stroke-width="2" stroke-linecap="round" stroke-linejoin="round"/>
<path d="M63.0059 79.3188C63.0059 80.0989 63.1595 80.8714 63.4581 81.5921C63.7566 82.3129 64.1942 82.9678 64.7458 83.5194C65.2974 84.071 65.9523 84.5086 66.6731 84.8072C67.3938 85.1057 68.1663 85.2594 68.9465 85.2594C69.7266 85.2594 70.4991 85.1057 71.2198 84.8072C71.9406 84.5086 72.5954 84.071 73.1471 83.5194C73.6987 82.9678 74.1363 82.3129 74.4348 81.5921C74.7334 80.8714 74.887 80.0989 74.887 79.3188C74.887 78.5386 74.7334 77.7662 74.4348 77.0454C74.1363 76.3247 73.6987 75.6698 73.1471 75.1181C72.5954 74.5665 71.9406 74.1289 71.2198 73.8304C70.4991 73.5318 69.7266 73.3782 68.9465 73.3782C68.1663 73.3782 67.3938 73.5318 66.6731 73.8304C65.9523 74.1289 65.2974 74.5665 64.7458 75.1181C64.1942 75.6698 63.7566 76.3247 63.4581 77.0454C63.1595 77.7662 63.0059 78.5386 63.0059 79.3188Z" fill="#CBDEE6" stroke="#0F3644" stroke-width="2" stroke-linecap="round" stroke-linejoin="round"/>
<path d="M94.1209 122.911C93.0082 122.911 91.9205 122.581 90.9954 121.963C90.0702 121.345 89.3491 120.466 88.9234 119.438C88.4976 118.41 88.3861 117.279 88.6032 116.188C88.8203 115.096 89.3561 114.094 90.1429 113.307C90.9296 112.52 91.932 111.985 93.0233 111.768C94.1146 111.55 95.2458 111.662 96.2737 112.088C97.3017 112.513 98.1803 113.235 98.7985 114.16C99.4167 115.085 99.7466 116.173 99.7466 117.285C99.745 118.777 99.1518 120.207 98.0971 121.261C97.0424 122.316 95.6124 122.909 94.1209 122.911Z" fill="#CBDEE6" stroke="#0F3644" stroke-width="2" stroke-linecap="round" stroke-linejoin="round"/>
<path d="M94.1208 108.481C93.513 108.481 92.9224 108.279 92.4428 107.905C91.9632 107.532 91.622 107.009 91.4733 106.42L88.9862 96.6157C87.3208 90.0514 86.8179 88.0692 86.6931 87.3207H86.6595C86.5531 86.2769 86.667 85.2225 86.9936 84.2255C87.3202 83.2284 87.8523 82.311 88.5556 81.5325C89.2589 80.7539 90.1176 80.1316 91.0764 79.7056C92.0352 79.2797 93.0727 79.0596 94.1218 79.0596C95.171 79.0596 96.2085 79.2797 97.1673 79.7056C98.1261 80.1316 98.9848 80.7539 99.6881 81.5325C100.391 82.311 100.924 83.2284 101.25 84.2255C101.577 85.2225 101.691 86.2769 101.584 87.3207H101.555C101.446 87.988 101.014 89.687 99.6199 95.19L96.7664 106.43C96.6166 107.017 96.275 107.538 95.7958 107.91C95.3167 108.281 94.7272 108.482 94.1208 108.481Z" fill="#CBDEE6" stroke="#0F3644" stroke-width="2" stroke-linecap="round" stroke-linejoin="round"/>
</svg>
