<svg width="20" height="20" viewBox="0 0 20 20" fill="none" xmlns="http://www.w3.org/2000/svg">
<path fill-rule="evenodd" clip-rule="evenodd" d="M6.39991 0.400024C7.06266 0.400024 7.59991 0.937283 7.59991 1.60002V2.80002H8.47858C8.4927 2.79977 8.50687 2.79977 8.52108 2.80002H11.1999C11.8627 2.80002 12.3999 3.33728 12.3999 4.00002C12.3999 4.66277 11.8627 5.20002 11.1999 5.20002H9.49351C9.05952 7.225 8.35681 9.14987 7.42477 10.9356C7.77369 11.3606 8.13947 11.7713 8.5211 12.1666C8.98139 12.6434 8.96799 13.4031 8.49117 13.8634C8.01435 14.3237 7.25467 14.3103 6.79438 13.8335C6.56745 13.5984 6.34552 13.3584 6.12876 13.1138C5.06664 14.6921 3.81255 16.1301 2.40021 17.3942C1.90638 17.8361 1.14774 17.7941 0.705752 17.3003C0.26376 16.8065 0.305785 16.0478 0.799617 15.6058C2.25533 14.3029 3.52247 12.7946 4.55562 11.1267C3.88786 10.1799 3.29031 9.17985 2.7706 8.13406C2.47566 7.54057 2.71768 6.82035 3.31118 6.52541C3.90467 6.23047 4.62489 6.47249 4.91983 7.06599C5.20015 7.63005 5.50585 8.17936 5.83543 8.71241C6.3363 7.59129 6.73887 6.41685 7.03228 5.20002H1.59991C0.937172 5.20002 0.399914 4.66277 0.399914 4.00002C0.399914 3.33728 0.937172 2.80002 1.59991 2.80002H5.19991V1.60002C5.19991 0.937283 5.73717 0.400024 6.39991 0.400024ZM13.5999 7.60002C14.0544 7.60002 14.47 7.85683 14.6732 8.26337L18.2624 15.4418C18.2702 15.4565 18.2777 15.4715 18.2849 15.4866L19.4732 17.8634C19.7696 18.4561 19.5293 19.177 18.9366 19.4733C18.3438 19.7697 17.623 19.5295 17.3266 18.9367L16.4583 17.2H10.7416L9.87323 18.9367C9.57684 19.5295 8.85603 19.7697 8.26326 19.4733C7.67048 19.177 7.43021 18.4561 7.7266 17.8634L8.91497 15.4866C8.92214 15.4715 8.92962 15.4565 8.9374 15.4418L12.5266 8.26337C12.7299 7.85683 13.1454 7.60002 13.5999 7.60002ZM11.9416 14.8H15.2583L13.5999 11.4833L11.9416 14.8Z" fill="#6B7280"/>
</svg>
