<svg width="200" height="200" viewBox="0 0 200 200" fill="none" xmlns="http://www.w3.org/2000/svg">
<path d="M20.792 99.9999C20.792 121.007 29.1371 141.154 43.9915 156.008C58.8458 170.863 78.9927 179.208 99.9999 179.208C121.007 179.208 141.154 170.863 156.008 156.008C170.863 141.154 179.208 121.007 179.208 99.9999C179.208 78.9927 170.863 58.8458 156.008 43.9915C141.154 29.1371 121.007 20.792 99.9999 20.792C78.9927 20.792 58.8458 29.1371 43.9915 43.9915C29.1371 58.8458 20.792 78.9927 20.792 99.9999Z" fill="#F3F4F6"/>
<path d="M58.5188 150.218C58.5188 150.62 59.5917 151.019 61.6764 151.391C63.761 151.763 66.8165 152.101 70.6684 152.385C74.5202 152.67 79.0931 152.896 84.1258 153.05C89.1586 153.204 94.5526 153.283 100 153.283C105.447 153.283 110.841 153.204 115.874 153.05C120.907 152.896 125.48 152.67 129.332 152.385C133.183 152.101 136.239 151.763 138.324 151.391C140.408 151.019 141.481 150.62 141.481 150.218C141.481 149.815 140.408 149.417 138.324 149.045C136.239 148.673 133.183 148.335 129.332 148.05C125.48 147.766 120.907 147.54 115.874 147.386C110.841 147.232 105.447 147.152 100 147.152C94.5526 147.152 89.1586 147.232 84.1258 147.386C79.0931 147.54 74.5202 147.766 70.6684 148.05C66.8165 148.335 63.761 148.673 61.6764 149.045C59.5917 149.417 58.5188 149.815 58.5188 150.218Z" fill="#CBDEE5"/>
<path d="M47.1802 58.7227H153.085V147.986H47.1802V58.7227Z" fill="white" stroke="#0F3644" stroke-width="2" stroke-linejoin="round"/>
<path d="M153.085 85.9563H47.1802V63.4751C47.1802 62.2147 47.6809 61.0059 48.5721 60.1146C49.4634 59.2234 50.6722 58.7227 51.9327 58.7227H148.333C148.957 58.7227 149.575 58.8456 150.151 59.0844C150.728 59.3232 151.252 59.6733 151.693 60.1146C152.134 60.5559 152.485 61.0798 152.723 61.6564C152.962 62.233 153.085 62.851 153.085 63.4751V85.9563Z" fill="#CBDEE5"/>
<path d="M153.085 104.111V141.933C153.085 143.538 152.448 145.077 151.313 146.212C150.178 147.347 148.639 147.984 147.034 147.984H104.671C104.671 147.984 128.877 140.422 153.085 104.111Z" fill="white"/>
<path d="M153.085 104.111V141.933C153.085 143.538 152.448 145.077 151.313 146.212C150.178 147.347 148.639 147.984 147.034 147.984H104.671C104.671 147.984 128.877 140.422 153.085 104.111Z" stroke="#0F3644" stroke-width="2" stroke-linejoin="round"/>
<path d="M153.085 85.9563H47.1802V63.4751C47.1802 62.2147 47.6809 61.0059 48.5721 60.1146C49.4634 59.2234 50.6722 58.7227 51.9327 58.7227H148.333C148.957 58.7227 149.575 58.8456 150.151 59.0844C150.728 59.3232 151.252 59.6733 151.693 60.1146C152.134 60.5559 152.485 61.0798 152.723 61.6564C152.962 62.233 153.085 62.851 153.085 63.4751V85.9563Z" stroke="#0F3644" stroke-width="2" stroke-linejoin="round"/>
<path d="M69.8734 67.8C68.0781 67.8 66.3231 67.2676 64.8303 66.2702C63.3376 65.2728 62.1741 63.8551 61.4871 62.1964C60.8001 60.5378 60.6203 58.7127 60.9706 56.9519C61.3208 55.191 62.1853 53.5736 63.4548 52.3042C64.7243 51.0347 66.3417 50.1702 68.1025 49.8199C69.8633 49.4697 71.6884 49.6494 73.3471 50.3365C75.0057 51.0235 76.4234 52.187 77.4208 53.6797C78.4182 55.1724 78.9506 56.9274 78.9506 58.7227" stroke="#0F3644" stroke-width="2" stroke-linecap="round" stroke-linejoin="round"/>
<path d="M101.646 67.8C99.8503 67.8 98.0953 67.2676 96.6026 66.2702C95.1098 65.2728 93.9464 63.8551 93.2593 62.1964C92.5723 60.5378 92.3925 58.7127 92.7428 56.9519C93.093 55.191 93.9576 53.5736 95.227 52.3042C96.4965 51.0347 98.1139 50.1702 99.8747 49.8199C101.636 49.4697 103.461 49.6494 105.119 50.3365C106.778 51.0235 108.196 52.187 109.193 53.6797C110.19 55.1724 110.723 56.9274 110.723 58.7227" stroke="#0F3644" stroke-width="2" stroke-linecap="round" stroke-linejoin="round"/>
<path d="M133.418 67.8C131.622 67.8 129.868 67.2676 128.375 66.2702C126.882 65.2728 125.719 63.8551 125.032 62.1964C124.345 60.5378 124.165 58.7127 124.515 56.9519C124.865 55.191 125.73 53.5736 126.999 52.3042C128.269 51.0347 129.886 50.1702 131.647 49.8199C133.408 49.4697 135.233 49.6494 136.892 50.3365C138.55 51.0235 139.968 52.187 140.965 53.6797C141.963 55.1724 142.495 56.9274 142.495 58.7227" stroke="#0F3644" stroke-width="2" stroke-linecap="round" stroke-linejoin="round"/>
<path d="M47.1802 101.085H153.085" stroke="#0F3644" stroke-width="2" stroke-linecap="round" stroke-linejoin="round"/>
<path d="M47.1802 116.214H110.477" stroke="#0F3644" stroke-width="2" stroke-linecap="round" stroke-linejoin="round"/>
<path d="M47.1802 131.344H110.477" stroke="#0F3644" stroke-width="2" stroke-linecap="round" stroke-linejoin="round"/>
<path d="M68.3604 85.9565V147.986" stroke="#0F3644" stroke-width="2" stroke-linecap="round" stroke-linejoin="round"/>
<path d="M89.5425 85.9565V147.986" stroke="#0F3644" stroke-width="2" stroke-linecap="round" stroke-linejoin="round"/>
<path d="M110.723 85.9565V106.487" stroke="#0F3644" stroke-width="2" stroke-linecap="round" stroke-linejoin="round"/>
<path d="M131.903 85.9565V109.25" stroke="#0F3644" stroke-width="2" stroke-linecap="round" stroke-linejoin="round"/>
<path d="M47.1802 101.085H68.3604V116.214H47.1802V101.085Z" fill="#C88C8C" stroke="#0F3644" stroke-width="2" stroke-linejoin="round"/>
<path d="M68.3604 131.344H89.5405V147.986H68.3604V131.344Z" fill="#C88C8C" stroke="#0F3644" stroke-width="2" stroke-linejoin="round"/>
<path d="M89.5425 85.9565H110.723V101.085H89.5425V85.9565Z" fill="#CBDEE5" stroke="#0F3644" stroke-width="2" stroke-linejoin="round"/>
<path d="M153.085 104.111C128.877 140.422 104.671 147.986 104.671 147.986C108.116 141.962 110.24 135.274 110.9 128.366C111.56 121.458 110.743 114.488 108.501 107.921C108.425 107.706 108.408 107.475 108.454 107.251C108.499 107.028 108.604 106.821 108.758 106.653C108.912 106.485 109.109 106.362 109.327 106.297C109.546 106.232 109.777 106.228 109.998 106.285C116.984 108.2 138.065 112.871 153.085 104.111Z" fill="white" stroke="#0F3644" stroke-width="2" stroke-linecap="round" stroke-linejoin="round"/>
<path d="M85.002 76.8772H115.261" stroke="#0F3644" stroke-width="2" stroke-linecap="round" stroke-linejoin="round"/>
<path d="M131.903 76.8772H144.008" stroke="#0F3644" stroke-width="2" stroke-linecap="round" stroke-linejoin="round"/>
<path d="M68.3603 76.8772H56.2573" stroke="#0F3644" stroke-width="2" stroke-linecap="round" stroke-linejoin="round"/>
</svg>
