<svg width="200" height="200" viewBox="0 0 200 200" fill="none" xmlns="http://www.w3.org/2000/svg">
<path d="M20.792 99.9999C20.792 121.007 29.1371 141.154 43.9915 156.008C58.8458 170.863 78.9927 179.208 99.9999 179.208C121.007 179.208 141.154 170.863 156.008 156.008C170.863 141.154 179.208 121.007 179.208 99.9999C179.208 78.9927 170.863 58.8458 156.008 43.9915C141.154 29.1371 121.007 20.792 99.9999 20.792C78.9927 20.792 58.8458 29.1371 43.9915 43.9915C29.1371 58.8458 20.792 78.9927 20.792 99.9999Z" fill="#F3F4F6"/>
<path d="M94.812 61.4158H113.109V151.79H94.812V61.4158Z" fill="#CBDEE5" stroke="#0F3644" stroke-width="2" stroke-linecap="round" stroke-linejoin="round"/>
<path d="M113.109 151.79L166.733 138.885C167.741 138.653 168.64 138.087 169.285 137.277C169.929 136.468 170.279 135.464 170.279 134.43V53.4396C170.279 52.7517 170.123 52.0727 169.824 51.4531C169.525 50.8335 169.091 50.2893 168.552 49.861C168.014 49.4327 167.386 49.1312 166.715 48.9791C166.044 48.8269 165.348 48.828 164.677 48.9822L113.109 61.4158V151.79Z" fill="#CBDEE5" stroke="#0F3644" stroke-width="2" stroke-linecap="round" stroke-linejoin="round"/>
<path d="M94.8119 151.79L41.1881 138.885C40.18 138.653 39.2803 138.087 38.6361 137.277C37.9919 136.468 37.6413 135.464 37.6416 134.43V53.4396C37.642 52.7517 37.7974 52.0727 38.0964 51.4531C38.3954 50.8335 38.8302 50.2893 39.3685 49.861C39.9068 49.4327 40.5348 49.1312 41.2057 48.9791C41.8766 48.8269 42.5731 48.828 43.2436 48.9822L94.8119 61.4158V151.79Z" fill="#CBDEE5" stroke="#0F3644" stroke-width="2" stroke-linecap="round" stroke-linejoin="round"/>
<path d="M43.0713 132.317C43.0714 132.831 43.2446 133.33 43.5628 133.733C43.8811 134.136 44.326 134.421 44.8257 134.541L94.8119 146.493V72.2575L45.901 60.5585C45.5649 60.4784 45.2151 60.4754 44.8777 60.5497C44.5403 60.6241 44.2241 60.7738 43.9528 60.9878C43.6815 61.2017 43.4622 61.4743 43.3112 61.7851C43.1603 62.0958 43.0816 62.4367 43.0812 62.7822L43.0713 132.317Z" fill="white" stroke="#0F3644" stroke-width="2" stroke-linecap="round" stroke-linejoin="round"/>
<path d="M65.0791 157.851C65.0791 158.347 66.0552 158.838 67.9518 159.296C69.8483 159.754 72.6281 160.17 76.1325 160.52C79.6368 160.871 83.7971 161.149 88.3758 161.338C92.9544 161.528 97.8618 161.626 102.818 161.626C107.774 161.626 112.681 161.528 117.26 161.338C121.838 161.149 125.999 160.871 129.503 160.52C133.007 160.17 135.787 159.754 137.684 159.296C139.58 158.838 140.556 158.347 140.556 157.851C140.556 157.356 139.58 156.865 137.684 156.407C135.787 155.949 133.007 155.533 129.503 155.183C125.999 154.832 121.838 154.554 117.26 154.364C112.681 154.175 107.774 154.077 102.818 154.077C97.8618 154.077 92.9544 154.175 88.3758 154.364C83.7971 154.554 79.6368 154.832 76.1325 155.183C72.6281 155.533 69.8483 155.949 67.9518 156.407C66.0552 156.865 65.0791 157.356 65.0791 157.851Z" fill="#CBDEE5"/>
<path d="M49.1089 128.178C49.109 128.692 49.2822 129.191 49.6004 129.594C49.9187 129.998 50.3636 130.282 50.8634 130.402L96.8317 141.398C97.1677 141.479 97.5177 141.483 97.8554 141.409C98.193 141.335 98.5094 141.185 98.7807 140.971C99.0521 140.757 99.2713 140.484 99.4218 140.172C99.5722 139.861 99.6501 139.52 99.6495 139.174V70.1942C99.6497 69.6802 99.4767 69.1812 99.1584 68.7777C98.84 68.3742 98.3949 68.0898 97.895 67.9704L51.9188 56.9744C51.5825 56.8954 51.2328 56.8937 50.8958 56.9692C50.5587 57.0447 50.2432 57.1956 49.9728 57.4106C49.7024 57.6255 49.4842 57.8989 49.3346 58.2102C49.185 58.5215 49.1078 58.8626 49.1089 59.208V128.178Z" fill="white" stroke="#0F3644" stroke-width="2" stroke-linecap="round" stroke-linejoin="round"/>
<path d="M164.849 132.317C164.849 132.831 164.676 133.33 164.358 133.733C164.04 134.136 163.595 134.421 163.095 134.541L113.109 146.493V72.2575L162.03 60.5585C162.366 60.4784 162.716 60.4754 163.053 60.5497C163.39 60.6241 163.707 60.7738 163.978 60.9878C164.249 61.2017 164.468 61.4743 164.619 61.7851C164.77 62.0958 164.849 62.4367 164.849 62.7822V132.317Z" fill="white" stroke="#0F3644" stroke-width="2" stroke-linecap="round" stroke-linejoin="round"/>
<path d="M158.822 128.178C158.822 128.692 158.648 129.191 158.33 129.594C158.012 129.998 157.567 130.282 157.067 130.402L111.089 141.398C110.753 141.479 110.403 141.483 110.065 141.409C109.728 141.335 109.411 141.185 109.14 140.971C108.869 140.757 108.649 140.484 108.499 140.172C108.348 139.861 108.271 139.52 108.271 139.174V70.1941C108.271 69.6802 108.444 69.1811 108.762 68.7776C109.081 68.3741 109.526 68.0897 110.026 67.9704L156.008 56.9743C156.344 56.8947 156.695 56.8924 157.032 56.9676C157.37 57.0428 157.686 57.1936 157.957 57.4086C158.227 57.6236 158.446 57.8973 158.596 58.2089C158.746 58.5206 158.823 58.8622 158.822 59.208V128.178Z" fill="white" stroke="#0F3644" stroke-width="2" stroke-linecap="round" stroke-linejoin="round"/>
<path d="M60.5049 67.1663V87.7504L87.9504 94.6118" stroke="#0F3644" stroke-width="2" stroke-linecap="round" stroke-linejoin="round"/>
<path d="M65.0791 80.8892L71.9405 74.0278L76.5147 83.1764L78.8019 80.8892L82.2336 87.7506L87.3781 79.1744" stroke="#0F3644" stroke-width="2" stroke-linecap="round" stroke-linejoin="round"/>
<path d="M69.6536 101.473L87.9506 106.047" stroke="#0F3644" stroke-width="2" stroke-linecap="round" stroke-linejoin="round"/>
<path d="M60.5049 108.335L87.9504 115.196" stroke="#0F3644" stroke-width="2" stroke-linecap="round" stroke-linejoin="round"/>
<path d="M60.5049 117.483L87.9504 124.345" stroke="#0F3644" stroke-width="2" stroke-linecap="round" stroke-linejoin="round"/>
<path d="M111.03 79.6416C110.516 79.917 109.915 79.9823 109.354 79.8238C108.793 79.6654 108.316 79.2956 108.022 78.7921C107.637 78.0471 107.055 77.4223 106.339 76.9861C105.623 76.5499 104.801 76.3192 103.962 76.3192C103.124 76.3192 102.302 76.5499 101.586 76.9861C100.87 77.4223 100.287 78.0471 99.9029 78.7921C99.7902 79.0354 99.6306 79.2541 99.4333 79.4356C99.236 79.6171 99.0048 79.7578 98.7529 79.8498C98.5011 79.9418 98.2336 79.9832 97.9657 79.9716C97.6978 79.96 97.4349 79.8956 97.192 79.7822L96.8949 79.6337C96.6238 79.4963 96.3831 79.3057 96.1872 79.0733C95.9913 78.8409 95.8441 78.5714 95.7545 78.281C95.6649 77.9905 95.6346 77.685 95.6656 77.3826C95.6965 77.0802 95.788 76.7871 95.9345 76.5208C96.7169 75.0728 97.8762 73.8634 99.2897 73.0204C100.703 72.1775 102.318 71.7324 103.964 71.7324C105.61 71.7324 107.225 72.1775 108.639 73.0204C110.052 73.8634 111.212 75.0728 111.994 76.5208C112.142 76.7877 112.234 77.0817 112.265 77.3851C112.297 77.6885 112.266 77.9951 112.176 78.2866C112.086 78.578 111.938 78.8482 111.741 79.0811C111.544 79.3139 111.302 79.5046 111.03 79.6416Z" fill="white"/>
<path d="M111.03 79.6416C110.516 79.917 109.915 79.9823 109.354 79.8238C108.793 79.6654 108.316 79.2956 108.022 78.7921C107.637 78.0471 107.055 77.4223 106.339 76.9861C105.623 76.5499 104.801 76.3192 103.962 76.3192C103.124 76.3192 102.302 76.5499 101.586 76.9861C100.87 77.4223 100.287 78.0471 99.9029 78.7921C99.7902 79.0354 99.6306 79.2541 99.4333 79.4356C99.236 79.6171 99.0047 79.7578 98.7529 79.8498C98.5011 79.9418 98.2336 79.9832 97.9657 79.9716C97.6978 79.96 97.4349 79.8956 97.192 79.7822L96.8949 79.6337C96.6238 79.4963 96.3831 79.3057 96.1872 79.0733C95.9913 78.8409 95.8441 78.5714 95.7545 78.281C95.6649 77.9905 95.6346 77.685 95.6656 77.3826C95.6965 77.0802 95.788 76.7871 95.9345 76.5208C96.7169 75.0728 97.8762 73.8634 99.2897 73.0204C100.703 72.1775 102.318 71.7324 103.964 71.7324C105.61 71.7324 107.225 72.1775 108.639 73.0204C110.052 73.8634 111.212 75.0728 111.994 76.5208C112.142 76.7877 112.234 77.0817 112.265 77.3851C112.297 77.6885 112.266 77.9951 112.176 78.2866C112.086 78.578 111.938 78.8482 111.741 79.0811C111.544 79.3139 111.302 79.5046 111.03 79.6416Z" stroke="#0F3644" stroke-width="2" stroke-linecap="round" stroke-linejoin="round"/>
<path d="M111.804 94.499C110.979 93.1121 109.801 91.9686 108.39 91.1853C106.979 90.402 105.386 90.0068 103.772 90.04C102.159 90.0732 100.583 90.5337 99.2053 91.3744C97.8278 92.2151 96.6979 93.406 95.9306 94.8258C95.7841 95.0921 95.6926 95.3851 95.6617 95.6875C95.6307 95.9899 95.661 96.2954 95.7506 96.5859C95.8402 96.8764 95.9874 97.1458 96.1833 97.3782C96.3792 97.6106 96.6199 97.8012 96.891 97.9386L97.1881 98.0871C97.2709 98.1282 97.3562 98.1639 97.4435 98.1941C97.3988 97.7696 97.4859 97.3416 97.693 96.9683C98.4754 95.5198 99.634 94.3092 101.047 93.464C102.46 92.6189 104.074 92.1706 105.721 92.1664C107.968 92.1617 110.136 92.9932 111.804 94.499Z" fill="white"/>
<path d="M111.03 97.9387C110.516 98.2141 109.915 98.2794 109.354 98.121C108.793 97.9625 108.316 97.5927 108.022 97.0892C107.637 96.3442 107.055 95.7194 106.339 95.2832C105.623 94.847 104.801 94.6163 103.962 94.6163C103.124 94.6163 102.302 94.847 101.586 95.2832C100.87 95.7194 100.287 96.3442 99.9029 97.0892C99.7902 97.3325 99.6306 97.5512 99.4333 97.7327C99.236 97.9142 99.0047 98.055 98.7529 98.1469C98.5011 98.2389 98.2336 98.2803 97.9657 98.2687C97.6978 98.2571 97.4349 98.1927 97.192 98.0793L96.8949 97.9308C96.6238 97.7934 96.3831 97.6028 96.1872 97.3704C95.9913 97.138 95.8441 96.8685 95.7545 96.5781C95.6649 96.2876 95.6346 95.9821 95.6656 95.6797C95.6965 95.3773 95.788 95.0842 95.9345 94.8179C96.7169 93.37 97.8762 92.1605 99.2897 91.3175C100.703 90.4746 102.318 90.0295 103.964 90.0295C105.61 90.0295 107.225 90.4746 108.639 91.3175C110.052 92.1605 111.212 93.37 111.994 94.8179C112.142 95.0848 112.234 95.3788 112.265 95.6822C112.297 95.9856 112.266 96.2922 112.176 96.5837C112.086 96.8751 111.938 97.1453 111.741 97.3782C111.544 97.611 111.302 97.8017 111.03 97.9387Z" stroke="#0F3644" stroke-width="2" stroke-linecap="round" stroke-linejoin="round"/>
<path d="M111.03 116.238C110.516 116.513 109.915 116.578 109.354 116.42C108.793 116.261 108.316 115.892 108.022 115.388C107.637 114.643 107.055 114.018 106.339 113.582C105.623 113.146 104.801 112.915 103.962 112.915C103.124 112.915 102.302 113.146 101.586 113.582C100.87 114.018 100.287 114.643 99.9029 115.388C99.7902 115.631 99.6306 115.85 99.4333 116.032C99.236 116.213 99.0048 116.354 98.7529 116.446C98.5011 116.538 98.2336 116.579 97.9657 116.568C97.6978 116.556 97.4349 116.492 97.192 116.378L96.8949 116.23C96.6238 116.092 96.3831 115.902 96.1872 115.669C95.9913 115.437 95.8441 115.167 95.7545 114.877C95.6649 114.586 95.6346 114.281 95.6656 113.979C95.6965 113.676 95.788 113.383 95.9345 113.117C96.7169 111.669 97.8762 110.459 99.2897 109.616C100.703 108.773 102.318 108.328 103.964 108.328C105.61 108.328 107.225 108.773 108.639 109.616C110.052 110.459 111.212 111.669 111.994 113.117C112.142 113.384 112.234 113.678 112.265 113.981C112.297 114.284 112.266 114.591 112.176 114.883C112.086 115.174 111.938 115.444 111.741 115.677C111.544 115.91 111.302 116.101 111.03 116.238Z" fill="white"/>
<path d="M111.03 116.238C110.516 116.513 109.915 116.578 109.354 116.42C108.793 116.261 108.316 115.892 108.022 115.388C107.637 114.643 107.055 114.018 106.339 113.582C105.623 113.146 104.801 112.915 103.962 112.915C103.124 112.915 102.302 113.146 101.586 113.582C100.87 114.018 100.287 114.643 99.9029 115.388C99.7902 115.631 99.6306 115.85 99.4333 116.032C99.236 116.213 99.0047 116.354 98.7529 116.446C98.5011 116.538 98.2336 116.579 97.9657 116.568C97.6978 116.556 97.4349 116.492 97.192 116.378L96.8949 116.23C96.6238 116.092 96.3831 115.902 96.1872 115.669C95.9913 115.437 95.8441 115.167 95.7545 114.877C95.6649 114.586 95.6346 114.281 95.6656 113.979C95.6965 113.676 95.788 113.383 95.9345 113.117C96.7169 111.669 97.8762 110.459 99.2897 109.616C100.703 108.773 102.318 108.328 103.964 108.328C105.61 108.328 107.225 108.773 108.639 109.616C110.052 110.459 111.212 111.669 111.994 113.117C112.142 113.384 112.234 113.678 112.265 113.981C112.297 114.284 112.266 114.591 112.176 114.883C112.086 115.174 111.938 115.444 111.741 115.677C111.544 115.91 111.302 116.101 111.03 116.238V116.238Z" stroke="#0F3644" stroke-width="2" stroke-linecap="round" stroke-linejoin="round"/>
<path d="M111.804 131.089C110.979 129.702 109.801 128.559 108.39 127.775C106.979 126.992 105.386 126.597 103.772 126.63C102.159 126.663 100.583 127.124 99.2053 127.964C97.8278 128.805 96.6979 129.996 95.9306 131.416C95.7841 131.682 95.6926 131.975 95.6617 132.278C95.6307 132.58 95.661 132.886 95.7506 133.176C95.8402 133.466 95.9874 133.736 96.1833 133.968C96.3792 134.201 96.6199 134.391 96.891 134.529L97.1881 134.677C97.2709 134.718 97.3562 134.754 97.4435 134.784C97.3988 134.36 97.4859 133.932 97.693 133.558C98.4754 132.11 99.634 130.899 101.047 130.054C102.46 129.209 104.074 128.761 105.721 128.756C107.968 128.752 110.136 129.583 111.804 131.089Z" fill="white"/>
<path d="M111.03 134.533C110.516 134.808 109.915 134.873 109.354 134.715C108.793 134.557 108.316 134.187 108.022 133.683C107.637 132.938 107.055 132.313 106.339 131.877C105.623 131.441 104.801 131.21 103.962 131.21C103.124 131.21 102.302 131.441 101.586 131.877C100.87 132.313 100.287 132.938 99.9029 133.683C99.7902 133.927 99.6306 134.145 99.4333 134.327C99.236 134.508 99.0047 134.649 98.7529 134.741C98.5011 134.833 98.2336 134.874 97.9657 134.863C97.6978 134.851 97.4349 134.787 97.192 134.673L96.8949 134.525C96.6238 134.387 96.3831 134.197 96.1872 133.964C95.9913 133.732 95.8441 133.463 95.7545 133.172C95.6649 132.882 95.6346 132.576 95.6656 132.274C95.6965 131.971 95.788 131.678 95.9345 131.412C96.7169 129.964 97.8762 128.754 99.2897 127.912C100.703 127.069 102.318 126.624 103.964 126.624C105.61 126.624 107.225 127.069 108.639 127.912C110.052 128.754 111.212 129.964 111.994 131.412C112.142 131.679 112.234 131.973 112.265 132.276C112.297 132.58 112.266 132.886 112.176 133.178C112.086 133.469 111.938 133.739 111.741 133.972C111.544 134.205 111.302 134.396 111.03 134.533Z" stroke="#0F3644" stroke-width="2" stroke-linecap="round" stroke-linejoin="round"/>
<path d="M111.03 97.9387C110.516 98.2141 109.915 98.2794 109.354 98.121C108.793 97.9625 108.316 97.5927 108.022 97.0892C107.637 96.3442 107.055 95.7194 106.339 95.2832C105.623 94.847 104.801 94.6163 103.962 94.6163C103.124 94.6163 102.302 94.847 101.586 95.2832C100.87 95.7194 100.287 96.3442 99.9029 97.0892C99.7902 97.3325 99.6306 97.5512 99.4333 97.7327C99.236 97.9142 99.0048 98.055 98.7529 98.1469C98.5011 98.2389 98.2336 98.2803 97.9657 98.2687C97.6978 98.2571 97.4349 98.1927 97.192 98.0793L96.8949 97.9308C96.6238 97.7934 96.3831 97.6028 96.1872 97.3704C95.9913 97.138 95.8441 96.8685 95.7545 96.5781C95.6649 96.2876 95.6346 95.9821 95.6656 95.6797C95.6965 95.3773 95.788 95.0842 95.9345 94.8179C96.7169 93.37 97.8762 92.1605 99.2897 91.3175C100.703 90.4746 102.318 90.0295 103.964 90.0295C105.61 90.0295 107.225 90.4746 108.639 91.3175C110.052 92.1605 111.212 93.37 111.994 94.8179C112.142 95.0848 112.234 95.3788 112.265 95.6822C112.297 95.9856 112.266 96.2922 112.176 96.5837C112.086 96.8751 111.938 97.1453 111.741 97.3782C111.544 97.611 111.302 97.8017 111.03 97.9387Z" fill="white" stroke="#0F3644" stroke-width="2" stroke-linecap="round" stroke-linejoin="round"/>
<path d="M111.03 134.533C110.516 134.808 109.915 134.873 109.354 134.715C108.793 134.557 108.316 134.187 108.022 133.683C107.637 132.938 107.055 132.313 106.339 131.877C105.623 131.441 104.801 131.21 103.962 131.21C103.124 131.21 102.302 131.441 101.586 131.877C100.87 132.313 100.287 132.938 99.9029 133.683C99.7902 133.927 99.6306 134.145 99.4333 134.327C99.236 134.508 99.0048 134.649 98.7529 134.741C98.5011 134.833 98.2336 134.874 97.9657 134.863C97.6978 134.851 97.4349 134.787 97.192 134.673L96.8949 134.525C96.6238 134.387 96.3831 134.197 96.1872 133.964C95.9913 133.732 95.8441 133.463 95.7545 133.172C95.6649 132.882 95.6346 132.576 95.6656 132.274C95.6965 131.971 95.788 131.678 95.9345 131.412C96.7169 129.964 97.8762 128.754 99.2897 127.912C100.703 127.069 102.318 126.624 103.964 126.624C105.61 126.624 107.225 127.069 108.639 127.912C110.052 128.754 111.212 129.964 111.994 131.412C112.142 131.679 112.234 131.973 112.265 132.276C112.297 132.58 112.266 132.886 112.176 133.178C112.086 133.469 111.938 133.739 111.741 133.972C111.544 134.205 111.302 134.396 111.03 134.533Z" fill="white"/>
<path d="M111.03 134.533C110.516 134.808 109.915 134.873 109.354 134.715C108.793 134.557 108.316 134.187 108.022 133.683C107.637 132.938 107.055 132.313 106.339 131.877C105.623 131.441 104.801 131.21 103.962 131.21C103.124 131.21 102.302 131.441 101.586 131.877C100.87 132.313 100.287 132.938 99.9029 133.683C99.7902 133.927 99.6306 134.145 99.4333 134.327C99.236 134.508 99.0047 134.649 98.7529 134.741C98.5011 134.833 98.2336 134.874 97.9657 134.863C97.6978 134.851 97.4349 134.787 97.192 134.673L96.8949 134.525C96.6238 134.387 96.3831 134.197 96.1872 133.964C95.9913 133.732 95.8441 133.463 95.7545 133.172C95.6649 132.882 95.6346 132.576 95.6656 132.274C95.6965 131.971 95.788 131.678 95.9345 131.412C96.7169 129.964 97.8762 128.754 99.2897 127.912C100.703 127.069 102.318 126.624 103.964 126.624C105.61 126.624 107.225 127.069 108.639 127.912C110.052 128.754 111.212 129.964 111.994 131.412C112.142 131.679 112.234 131.973 112.265 132.276C112.297 132.58 112.266 132.886 112.176 133.178C112.086 133.469 111.938 133.739 111.741 133.972C111.544 134.205 111.302 134.396 111.03 134.533Z" stroke="#0F3644" stroke-width="2" stroke-linecap="round" stroke-linejoin="round"/>
<path d="M138.267 90.5387C138.267 91.0488 138.097 91.5444 137.783 91.9465C137.469 92.3487 137.029 92.6345 136.535 92.7585L122.812 96.1882C122.475 96.2724 122.123 96.2787 121.783 96.2067C121.443 96.1346 121.124 95.986 120.85 95.7723C120.576 95.5585 120.355 95.2851 120.202 94.9729C120.05 94.6607 119.97 94.3178 119.97 93.9704V75.8139C119.97 75.3039 120.141 74.8085 120.455 74.4066C120.769 74.0047 121.208 73.7194 121.703 73.5961L135.426 70.1644C135.763 70.0801 136.115 70.0739 136.455 70.146C136.795 70.2182 137.114 70.3669 137.388 70.5809C137.662 70.7949 137.884 71.0686 138.036 71.381C138.188 71.6935 138.267 72.0366 138.267 72.3842V90.5387Z" fill="#CBDEE5" stroke="#0F3644" stroke-width="2" stroke-linecap="round" stroke-linejoin="round"/>
<path d="M151.99 119.63C151.99 120.14 151.819 120.635 151.506 121.038C151.192 121.44 150.752 121.726 150.257 121.85L136.535 125.279C136.198 125.363 135.846 125.37 135.506 125.298C135.166 125.226 134.847 125.077 134.573 124.863C134.299 124.65 134.078 124.376 133.925 124.064C133.773 123.752 133.693 123.409 133.693 123.061V104.905C133.693 104.395 133.864 103.899 134.178 103.497C134.492 103.095 134.931 102.809 135.426 102.685L149.149 99.2555C149.486 99.1712 149.838 99.1649 150.177 99.237C150.517 99.3091 150.836 99.4576 151.11 99.6714C151.384 99.8852 151.606 100.159 151.758 100.471C151.911 100.783 151.99 101.126 151.99 101.473V119.63Z" fill="#C88C8C" stroke="#0F3644" stroke-width="2" stroke-linecap="round" stroke-linejoin="round"/>
</svg>
