<svg width="200" height="200" viewBox="0 0 200 200" fill="none" xmlns="http://www.w3.org/2000/svg">
<path d="M99.5922 173.384C143.338 173.384 178.8 137.922 178.8 94.1762C178.8 50.4308 143.338 14.9683 99.5922 14.9683C55.8468 14.9683 20.3843 50.4308 20.3843 94.1762C20.3843 137.922 55.8468 173.384 99.5922 173.384Z" fill="#F3F4F6"/>
<path d="M101.548 110.693H81.8652V163.182H94.986L96.485 128.727C96.5219 127.844 96.8987 127.009 97.5365 126.397C98.1743 125.785 99.024 125.444 99.9078 125.444C100.792 125.444 101.641 125.785 102.279 126.397C102.917 127.009 103.294 127.844 103.331 128.727L104.83 163.182H117.95V110.693H101.548Z" fill="#CBDEE5" stroke="#0F3644" stroke-width="2" stroke-linecap="round" stroke-linejoin="round"/>
<path d="M101.548 110.693H81.8652V163.182H94.986L96.485 128.727C96.5219 127.844 96.8987 127.009 97.5365 126.397C98.1743 125.785 99.024 125.444 99.9078 125.444C100.792 125.444 101.641 125.785 102.279 126.397C102.917 127.009 103.294 127.844 103.331 128.727L104.83 163.182H117.95V110.693H101.548Z" stroke="#0F3644" stroke-width="2" stroke-linecap="round" stroke-linejoin="round"/>
<path d="M99.907 63.1228H99.8773C92.0501 63.1276 84.5452 66.2402 79.0123 71.7769C73.4796 77.3133 70.3719 84.8204 70.3723 92.6476V112.156C70.3723 112.514 70.443 112.869 70.58 113.2C70.7171 113.53 70.9179 113.831 71.1711 114.084C71.4244 114.337 71.725 114.538 72.0557 114.674C72.3866 114.811 72.741 114.881 73.0991 114.881H81.8555V129.554H90.7129C92.528 129.554 94.3149 129.107 95.9159 128.252C97.5171 127.397 98.883 126.161 99.8931 124.653C100.903 126.161 102.268 127.397 103.869 128.252C105.47 129.107 107.257 129.554 109.071 129.554H117.921V114.881H126.677C127.4 114.881 128.093 114.594 128.605 114.083C129.116 113.572 129.404 112.879 129.404 112.156V92.6476C129.404 84.8218 126.297 77.3163 120.766 71.7802C115.235 66.244 107.733 63.1301 99.907 63.1228Z" fill="#CBDEE5"/>
<path d="M111.551 65.5208L99.907 105.77L88.2634 65.5089C91.9325 63.9329 95.884 63.121 99.8773 63.1228H99.907C103.911 63.122 107.873 63.9379 111.551 65.5208Z" fill="white" stroke="#0F3644" stroke-width="2" stroke-linecap="round" stroke-linejoin="round"/>
<path d="M81.8653 120.372C81.8396 121.66 81.3097 122.887 80.3895 123.789C79.4693 124.691 78.232 125.196 76.9435 125.196C75.655 125.196 74.418 124.691 73.4978 123.789C72.5776 122.887 72.0477 121.66 72.0217 120.372V114.881H81.8653V120.372Z" fill="white" stroke="#0F3644" stroke-width="2" stroke-linecap="round" stroke-linejoin="round"/>
<path d="M127.822 120.372C127.796 121.661 127.266 122.887 126.346 123.789C125.426 124.691 124.189 125.196 122.9 125.196C121.612 125.196 120.375 124.691 119.454 123.789C118.534 122.887 118.004 121.661 117.978 120.372V114.852H127.822V120.372Z" fill="white" stroke="#0F3644" stroke-width="2" stroke-linecap="round" stroke-linejoin="round"/>
<path d="M99.907 63.1228H99.8773C92.0501 63.1276 84.5452 66.2402 79.0123 71.7769C73.4796 77.3133 70.3719 84.8204 70.3723 92.6476V112.156C70.3723 112.514 70.443 112.869 70.58 113.2C70.7171 113.53 70.9179 113.831 71.1711 114.084C71.4244 114.337 71.725 114.538 72.0557 114.674C72.3866 114.811 72.741 114.881 73.0991 114.881H81.8555V129.554H90.7129C92.528 129.554 94.3149 129.107 95.9159 128.252C97.5171 127.397 98.883 126.161 99.8931 124.653C100.903 126.161 102.268 127.397 103.869 128.252C105.47 129.107 107.257 129.554 109.071 129.554H117.921V114.881H126.677C127.4 114.881 128.093 114.594 128.605 114.083C129.116 113.572 129.404 112.879 129.404 112.156V92.6476C129.404 84.8218 126.297 77.3163 120.766 71.7802C115.235 66.244 107.733 63.1301 99.907 63.1228Z" stroke="#0F3644" stroke-width="2" stroke-linecap="round" stroke-linejoin="round"/>
<path d="M117.95 117.253V89.3662" stroke="#0F3644" stroke-width="2" stroke-linecap="round" stroke-linejoin="round"/>
<path d="M81.8652 117.253V89.3662" stroke="#0F3644" stroke-width="2" stroke-linecap="round" stroke-linejoin="round"/>
<path d="M99.907 105.77L88.2635 65.5088C84.8163 66.9912 81.6827 69.1161 79.0298 71.7702L86.7842 79.5246V87.7226L99.907 105.77Z" fill="white" stroke="#0F3644" stroke-width="2" stroke-linecap="round" stroke-linejoin="round"/>
<path d="M99.907 63.1208L95.0317 88.9169L99.907 105.77L104.782 88.9169L99.907 63.1208Z" fill="#CBDEE5" stroke="#0F3644" stroke-width="2" stroke-linecap="round" stroke-linejoin="round"/>
<path d="M99.907 124.634V105.77" stroke="#0F3644" stroke-width="2" stroke-linecap="round" stroke-linejoin="round"/>
<path d="M108.687 75.4139L99.9069 63.1208L91.1267 75.4139" stroke="#0F3644" stroke-width="2" stroke-linecap="round" stroke-linejoin="round"/>
<path d="M111.551 65.5208C114.993 67.0055 118.122 69.131 120.77 71.7841L113.03 79.5247V87.7227L99.907 105.766L111.551 65.5208Z" fill="white" stroke="#0F3644" stroke-width="2" stroke-linecap="round" stroke-linejoin="round"/>
<path d="M105.974 63.81L99.8931 69.9625L93.7981 63.81L93.812 50.7981H105.988L105.974 63.81Z" fill="white" stroke="#0F3644" stroke-width="2" stroke-linecap="round" stroke-linejoin="round"/>
<path d="M99.9069 60.6396C103.387 60.6315 106.773 59.5132 109.573 57.4477C112.374 55.382 114.442 52.4766 115.477 49.1544H115.491C120.677 49.1544 120.992 40.9524 116.311 40.9524V37.6752C116.335 35.5059 115.928 33.3536 115.114 31.3425C114.301 29.3317 113.096 27.502 111.571 25.9596C110.045 24.4172 108.229 23.1926 106.227 22.357C104.225 21.5214 102.077 21.0911 99.9079 21.0911C97.7386 21.0911 95.5906 21.5214 93.5887 22.357C91.5869 23.1926 89.7704 24.4172 88.2449 25.9596C86.7196 27.502 85.515 29.3317 84.7013 31.3425C83.8877 33.3536 83.4811 35.5059 83.5049 37.6752V40.9544C78.8237 40.9544 79.1485 49.1564 84.3247 49.1564H84.3386C85.374 52.478 87.4421 55.3825 90.2419 57.4479C93.0419 59.513 96.4277 60.6313 99.9069 60.6396Z" fill="white" stroke="#0F3644" stroke-width="2" stroke-linecap="round" stroke-linejoin="round"/>
<path d="M96.6219 41.3664C96.6219 41.7722 96.5017 42.1688 96.2763 42.5062C96.0508 42.8435 95.7304 43.1064 95.3555 43.2617C94.9807 43.4171 94.5682 43.4577 94.1702 43.3785C93.7724 43.2993 93.4068 43.1041 93.1199 42.8171C92.833 42.5302 92.6375 42.1646 92.5585 41.7666C92.4793 41.3688 92.5199 40.9561 92.6751 40.5813C92.8304 40.2064 93.0934 39.886 93.4308 39.6607C93.768 39.4353 94.1646 39.3149 94.5704 39.3149C94.8399 39.3147 95.1068 39.3676 95.3559 39.4706C95.6048 39.5736 95.8312 39.7246 96.0217 39.9151C96.2122 40.1058 96.3633 40.332 96.4664 40.5811C96.5694 40.83 96.6223 41.0969 96.6219 41.3664Z" fill="#0F3644"/>
<path d="M107.283 41.3664C107.283 41.7722 107.163 42.169 106.937 42.5064C106.712 42.8439 106.391 43.1068 106.016 43.2619C105.641 43.4171 105.229 43.4577 104.831 43.3783C104.433 43.2991 104.067 43.1035 103.78 42.8163C103.494 42.5292 103.298 42.1635 103.219 41.7654C103.14 41.3674 103.181 40.9547 103.337 40.5801C103.492 40.2052 103.756 39.8848 104.093 39.6597C104.431 39.4345 104.828 39.3145 105.234 39.3149C105.503 39.3149 105.77 39.368 106.018 39.4712C106.267 39.5743 106.493 39.7254 106.684 39.9159C106.874 40.1064 107.025 40.3326 107.128 40.5815C107.231 40.8304 107.284 41.0971 107.283 41.3664Z" fill="#0F3644"/>
<path d="M91.7009 45.8772C91.7013 46.2019 91.6053 46.5197 91.4251 46.7898C91.2449 47.0601 90.9884 47.2708 90.6884 47.3954C90.3884 47.5199 90.0581 47.5526 89.7395 47.4892C89.4209 47.4261 89.1282 47.2696 88.8985 47.0399C88.6688 46.8102 88.5124 46.5175 88.4492 46.1989C88.3859 45.8803 88.4185 45.55 88.5431 45.25C88.6676 44.95 88.8783 44.6936 89.1486 44.5134C89.4187 44.3332 89.7366 44.2372 90.0613 44.2376C90.4962 44.2376 90.9132 44.4102 91.2207 44.7177C91.5282 45.0253 91.7009 45.4423 91.7009 45.8772Z" fill="#CBDEE5"/>
<path d="M111.384 45.8772C111.385 46.2019 111.289 46.5195 111.109 46.7896C110.928 47.0599 110.672 47.2706 110.372 47.3952C110.072 47.5197 109.742 47.5526 109.424 47.4894C109.105 47.4263 108.812 47.27 108.583 47.0405C108.353 46.811 108.196 46.5185 108.133 46.2001C108.069 45.8817 108.102 45.5514 108.226 45.2514C108.35 44.9512 108.561 44.6948 108.83 44.5144C109.101 44.3338 109.418 44.2375 109.743 44.2375C109.958 44.2374 110.172 44.2795 110.371 44.3617C110.57 44.4441 110.751 44.5649 110.903 44.7172C111.056 44.8694 111.177 45.0502 111.259 45.2492C111.342 45.4482 111.384 45.6617 111.384 45.8772Z" fill="#CBDEE5"/>
<path d="M95.8081 50.9485C97.0222 51.7582 98.4487 52.1901 99.9081 52.1901C101.367 52.1901 102.794 51.7582 104.008 50.9485" stroke="#0F3644" stroke-width="2" stroke-linecap="round" stroke-linejoin="round"/>
<path d="M90.9109 31.0713C98.103 38.0475 110.515 36.897 117.978 34.3703C117.975 29.5848 116.071 24.9968 112.684 21.6152C109.298 18.2339 104.707 16.3362 99.9218 16.3396C95.1365 16.343 90.5483 18.2473 87.167 21.6335C83.7856 25.0198 81.8878 29.6105 81.8911 34.396V40.0931C81.8911 40.0931 90.9109 37.8376 90.9109 31.0713Z" fill="white"/>
<path d="M90.9109 31.0713C98.103 38.0475 110.515 36.897 117.978 34.3703C117.975 29.5848 116.071 24.9968 112.684 21.6152C109.298 18.2339 104.707 16.3362 99.9218 16.3396C95.1365 16.343 90.5483 18.2473 87.167 21.6335C83.7856 25.0198 81.8878 29.6105 81.8911 34.396V40.0931C81.8911 40.0931 90.9109 37.8376 90.9109 31.0713Z" stroke="#0F3644" stroke-width="2" stroke-linecap="round" stroke-linejoin="round"/>
<path d="M90.9109 31.0712C90.0812 30.2653 89.9606 30.392 89.2854 29.3604" stroke="#0F3644" stroke-width="2" stroke-linecap="round" stroke-linejoin="round"/>
<path d="M99.0694 185.034C110.513 185.034 119.79 183.103 119.79 180.721C119.79 178.339 110.513 176.408 99.0694 176.408C87.6257 176.408 78.3486 178.339 78.3486 180.721C78.3486 183.103 87.6257 185.034 99.0694 185.034Z" fill="#CBDEE5"/>
<path d="M100.554 170.024C112.056 170.024 121.38 168.044 121.38 165.602C121.38 163.16 112.056 161.18 100.554 161.18C89.0527 161.18 79.7288 163.16 79.7288 165.602C79.7288 168.044 89.0527 170.024 100.554 170.024Z" fill="#CBDEE5"/>
<path d="M47.5069 162.04C59.4516 162.04 69.1346 160.587 69.1346 158.796C69.1346 157.005 59.4516 155.552 47.5069 155.552C35.5623 155.552 25.8792 157.005 25.8792 158.796C25.8792 160.587 35.5623 162.04 47.5069 162.04Z" fill="#CBDEE5"/>
<path d="M58.2693 127.293H58.1584C57.1647 127.293 56.2119 126.898 55.5093 126.196C54.8067 125.493 54.4119 124.54 54.4119 123.547V104.158H62.0158V123.539C62.017 124.031 61.9208 124.519 61.7331 124.975C61.5451 125.43 61.2693 125.844 60.9214 126.193C60.5733 126.542 60.16 126.818 59.7049 127.007C59.2499 127.196 58.762 127.293 58.2693 127.293Z" fill="white" stroke="#0F3644" stroke-width="2" stroke-linecap="round" stroke-linejoin="round"/>
<path d="M46.2634 151.196H38.6574L37.5723 135.984H46.2634V151.196Z" fill="white"/>
<path d="M46.2634 151.196H38.6574L37.5723 135.984H46.2634V151.196Z" stroke="#0F3644" stroke-width="2" stroke-linecap="round" stroke-linejoin="round"/>
<path d="M46.2634 151.196H53.8694L54.9545 135.984H46.2634V151.196Z" fill="white"/>
<path d="M46.2634 151.196H53.8694L54.9545 135.984H46.2634V151.196Z" stroke="#0F3644" stroke-width="2" stroke-linecap="round" stroke-linejoin="round"/>
<path d="M46.2634 151.196H52.8555C54.0121 151.169 55.1591 151.412 56.205 151.906C57.2511 152.4 58.1676 153.131 58.8812 154.042C59.149 154.373 59.3175 154.773 59.3672 155.196C59.4169 155.619 59.346 156.047 59.1624 156.432C58.9789 156.816 58.6904 157.14 58.3302 157.367C57.97 157.595 57.5527 157.715 57.1268 157.715H46.2634V151.196Z" fill="#CBDEE5" stroke="#0F3644" stroke-width="2" stroke-linecap="round" stroke-linejoin="round"/>
<path d="M38.6575 151.196H45.2496C46.408 151.167 47.5573 151.41 48.6054 151.904C49.6538 152.398 50.572 153.13 51.2872 154.042C51.5542 154.373 51.7219 154.773 51.7712 155.196C51.8205 155.619 51.7494 156.046 51.566 156.43C51.3827 156.814 51.0946 157.139 50.7348 157.366C50.375 157.593 49.9583 157.714 49.5328 157.715H40.8318C40.5458 157.715 40.2625 157.659 39.9983 157.549C39.734 157.44 39.4938 157.279 39.2916 157.077C39.0894 156.875 38.9288 156.635 38.8195 156.37C38.71 156.106 38.6536 155.823 38.6536 155.537L38.6575 151.196Z" fill="#CBDEE5" stroke="#0F3644" stroke-width="2" stroke-linecap="round" stroke-linejoin="round"/>
<path d="M34.313 115.032L35.3031 133.816C35.331 134.4 35.5831 134.952 36.0067 135.355C36.4304 135.759 36.9932 135.984 37.5783 135.984H54.9625C55.5494 135.984 56.1136 135.757 56.5377 135.351C56.9617 134.946 57.2132 134.392 57.2397 133.806L58.2298 115.024L34.313 115.032Z" fill="#CBDEE5" stroke="#0F3644" stroke-width="2" stroke-linecap="round" stroke-linejoin="round"/>
<path d="M63.6456 95.513C63.5702 90.6247 61.572 85.9627 58.0841 82.5369C54.5959 79.1112 49.8989 77.1975 45.01 77.21C40.1557 77.21 35.5003 79.1383 32.0678 82.5708C28.6353 86.0033 26.707 90.6587 26.707 95.513V104.159H34.313V115.024H58.2179V104.159H61.1446C61.8019 104.06 62.4066 103.743 62.8613 103.258C63.3159 102.773 63.5936 102.149 63.6496 101.487L63.6456 95.513Z" fill="white"/>
<path d="M63.6456 95.513C63.5702 90.6247 61.572 85.9627 58.0841 82.5369C54.5959 79.1112 49.8989 77.1975 45.01 77.21C40.1557 77.21 35.5003 79.1383 32.0678 82.5708C28.6353 86.0033 26.707 90.6587 26.707 95.513V104.159H34.313V115.024H58.2179V104.159H61.1447C61.8019 104.06 62.4066 103.743 62.8613 103.258C63.3159 102.773 63.5936 102.149 63.6496 101.487L63.6456 95.513Z" stroke="#0F3644" stroke-width="2" stroke-linecap="round" stroke-linejoin="round"/>
<path d="M34.313 108.588V95.4753" stroke="#0F3644" stroke-width="2" stroke-linecap="round" stroke-linejoin="round"/>
<path d="M46.2634 94.3882V115.125" stroke="#0F3644" stroke-width="2" stroke-linecap="round" stroke-linejoin="round"/>
<path d="M55.5624 85.9585C55.7009 86.2874 55.7555 86.6454 55.7218 87.0007C55.688 87.3559 55.5668 87.6973 55.3688 87.9941C55.171 88.2912 54.9026 88.5345 54.5878 88.7024C54.2729 88.8704 53.9212 88.9575 53.5644 88.9565H48.2278L51.9902 78.5664C52.2298 78.6634 52.4654 78.7644 52.6991 78.8694L55.5624 85.9585Z" fill="#CBDEE5" stroke="#0F3644" stroke-width="2" stroke-linecap="round" stroke-linejoin="round"/>
<path d="M36.9624 85.9584L40.2515 77.8395L40.3742 77.8079L44.3346 88.9603H38.9624C38.6051 88.9615 38.2531 88.8742 37.9376 88.7061C37.6224 88.538 37.3536 88.2942 37.1554 87.997C36.9574 87.6995 36.836 87.3578 36.8024 87.0019C36.7687 86.6463 36.8235 86.2877 36.9624 85.9584Z" fill="#CBDEE5" stroke="#0F3644" stroke-width="2" stroke-linecap="round" stroke-linejoin="round"/>
<path d="M58.2178 104.159C58.0936 102.63 58.4756 101.103 59.3049 99.814C60.0708 98.4997 60.4491 96.9955 60.396 95.4753" stroke="#0F3644" stroke-width="2" stroke-linecap="round" stroke-linejoin="round"/>
<path d="M19.9999 130.364H41.0098C41.6284 130.364 42.2219 130.61 42.6593 131.047C43.0967 131.485 43.3425 132.078 43.3425 132.697V146.697C43.3425 147.316 43.0965 147.91 42.6587 148.348C42.2209 148.786 41.627 149.032 41.0078 149.032H19.9999C19.3808 149.032 18.7869 148.786 18.3491 148.348C17.9113 147.91 17.6653 147.316 17.6653 146.697V132.697C17.6653 132.39 17.7257 132.087 17.843 131.804C17.9604 131.521 18.1324 131.263 18.3492 131.047C18.566 130.83 18.8234 130.658 19.1066 130.541C19.3899 130.424 19.6934 130.364 19.9999 130.364Z" fill="white" stroke="#0F3644" stroke-width="2" stroke-linecap="round" stroke-linejoin="round"/>
<path d="M23.5088 130.364V148.944" stroke="#0F3644" stroke-width="2" stroke-linecap="round" stroke-linejoin="round"/>
<path d="M37.511 130.451V149.032" stroke="#0F3644" stroke-width="2" stroke-linecap="round" stroke-linejoin="round"/>
<path d="M25.8435 130.364V127.394C25.8435 126.636 26.1445 125.909 26.6803 125.373C27.2162 124.837 27.9429 124.535 28.7009 124.535H32.3188C33.0768 124.535 33.8037 124.837 34.3393 125.373C34.8752 125.909 35.1762 126.636 35.1762 127.394V130.364" stroke="#0F3644" stroke-width="2" stroke-linecap="round" stroke-linejoin="round"/>
<path d="M19.9999 130.364H41.0098C41.6284 130.364 42.2219 130.61 42.6593 131.047C43.0967 131.485 43.3425 132.078 43.3425 132.697V146.697C43.3425 147.316 43.0965 147.91 42.6587 148.348C42.2209 148.786 41.627 149.032 41.0078 149.032H19.9999C19.3808 149.032 18.7869 148.786 18.3491 148.348C17.9113 147.91 17.6653 147.316 17.6653 146.697V132.697C17.6653 132.39 17.7257 132.087 17.843 131.804C17.9604 131.521 18.1324 131.263 18.3492 131.047C18.566 130.83 18.8234 130.658 19.1066 130.541C19.3899 130.424 19.6934 130.364 19.9999 130.364Z" stroke="#0F3644" stroke-width="2" stroke-linecap="round" stroke-linejoin="round"/>
<path d="M30.5645 127.293H30.4555C29.9635 127.293 29.4759 127.197 29.0213 127.009C28.5664 126.82 28.1532 126.544 27.8051 126.196C27.4569 125.849 27.1809 125.435 26.9924 124.981C26.8041 124.526 26.707 124.039 26.707 123.547V104.158H34.313V123.539C34.3138 124.031 34.2173 124.519 34.0294 124.975C33.8413 125.431 33.5652 125.844 33.2171 126.193C32.869 126.542 32.4555 126.818 32.0003 127.007C31.545 127.196 31.0571 127.293 30.5645 127.293Z" fill="white" stroke="#0F3644" stroke-width="2" stroke-linecap="round" stroke-linejoin="round"/>
<path d="M51.2259 78.2772C50.8641 78.1529 50.55 77.9182 50.3282 77.6065C50.1063 77.2947 49.9874 76.9214 49.9882 76.5386V71.5168H42.3764V75.8733C42.374 76.2899 42.23 76.6931 41.968 77.017C41.7061 77.3408 41.3417 77.566 40.9348 77.6555C40.7486 77.6951 40.5665 77.7386 40.3843 77.7862L46.2694 94.3604L51.9882 78.5485C51.7328 78.4594 51.4853 78.3663 51.2259 78.2772Z" fill="white" stroke="#0F3644" stroke-width="2" stroke-linecap="round" stroke-linejoin="round"/>
<path d="M45.9663 43.9426C42.5002 43.9426 39.176 45.3197 36.7249 47.7705C34.2741 50.2214 32.897 53.5458 32.897 57.0119V59.6258C29.1624 59.6258 29.4178 66.1604 33.5505 66.1604H33.5604C34.4901 69.1391 36.4572 71.6856 39.1046 73.3373C41.7517 74.9892 44.9036 75.6367 47.9877 75.1624C51.0719 74.6882 53.8836 73.1234 55.9123 70.7525C57.9408 68.3818 59.0519 65.362 59.0436 62.2416V57.0179C59.0444 55.3005 58.7067 53.5997 58.0497 52.0127C57.3929 50.426 56.4295 48.9842 55.215 47.7698C54.0006 46.5555 52.5586 45.5925 50.9717 44.9357C49.3848 44.2791 47.684 43.9416 45.9663 43.9426Z" fill="white" stroke="#0F3644" stroke-width="2" stroke-linecap="round" stroke-linejoin="round"/>
<path d="M42.0435 65.7207C42.0435 65.9792 41.9668 66.2318 41.8233 66.4469C41.6797 66.6617 41.4755 66.8293 41.2367 66.9283C40.9979 67.0271 40.7351 67.053 40.4817 67.0025C40.2282 66.952 39.9953 66.8277 39.8126 66.6449C39.6298 66.4621 39.5052 66.2293 39.4547 65.9758C39.4044 65.7221 39.4302 65.4594 39.5292 65.2206C39.628 64.9817 39.7955 64.7776 40.0106 64.634C40.2254 64.4905 40.4781 64.4138 40.7365 64.4138C41.0833 64.4138 41.4157 64.5514 41.6607 64.7966C41.9058 65.0417 42.0435 65.374 42.0435 65.7207Z" fill="#CBDEE5"/>
<path d="M45.313 67.8853C46.2146 68.6825 47.3768 69.1225 48.5803 69.1225C49.7839 69.1225 50.9459 68.6825 51.8476 67.8853" stroke="#0F3644" stroke-width="2" stroke-linecap="round" stroke-linejoin="round"/>
<path d="M36.2257 60.9901C36.3473 59.553 37.0083 58.2154 38.0758 57.2461C39.1434 56.2766 40.5382 55.7471 41.9802 55.7643H59.0099C60.3802 55.7643 61.4515 54.9722 61.1505 53.6455C60.34 49.6542 58.0764 46.1059 54.7986 43.6885C51.5208 41.2712 47.4622 40.157 43.4095 40.5619C39.357 40.9669 35.599 42.8619 32.8641 45.8802C30.1295 48.8982 28.6127 52.8241 28.6079 56.897V76.0633C28.6461 76.4099 28.758 76.7443 28.9356 77.0443C29.1135 77.3445 29.3531 77.6031 29.6386 77.8033C29.9241 78.0033 30.2491 78.1404 30.5917 78.2049C30.9344 78.2697 31.2869 78.2606 31.6257 78.1782C34.897 77.398 35.8139 75.097 36.2139 71.9307L36.2257 60.9901Z" fill="white"/>
<path d="M36.2257 60.9901C36.3473 59.553 37.0083 58.2154 38.0758 57.2461C39.1434 56.2766 40.5382 55.7471 41.9802 55.7643H59.0099C60.3802 55.7643 61.4515 54.9722 61.1505 53.6455C60.34 49.6542 58.0764 46.1059 54.7986 43.6885C51.5208 41.2712 47.4622 40.157 43.4095 40.5619C39.357 40.9669 35.599 42.8619 32.8641 45.8802C30.1295 48.8982 28.6127 52.8241 28.6079 56.897V76.0633C28.6461 76.4099 28.758 76.7443 28.9356 77.0443C29.1135 77.3445 29.3531 77.6031 29.6386 77.8033C29.9241 78.0033 30.2491 78.1404 30.5917 78.2049C30.9344 78.2697 31.2869 78.2606 31.6257 78.1782C34.897 77.398 35.8139 75.097 36.2139 71.9307L36.2257 60.9901Z" stroke="#0F3644" stroke-width="2" stroke-linecap="round" stroke-linejoin="round"/>
<path d="M44.9167 55.7644V51.0139" stroke="#0F3644" stroke-width="2" stroke-linecap="round" stroke-linejoin="round"/>
<path d="M39.4851 56.3387V51.0139" stroke="#0F3644" stroke-width="2" stroke-linecap="round" stroke-linejoin="round"/>
<path d="M50.3486 55.7644V51.0139" stroke="#0F3644" stroke-width="2" stroke-linecap="round" stroke-linejoin="round"/>
<path d="M55.7822 55.7644V51.0139" stroke="#0F3644" stroke-width="2" stroke-linecap="round" stroke-linejoin="round"/>
<path d="M54.9229 60.3961C54.607 60.0822 54.1799 59.906 53.7348 59.906C53.2894 59.906 52.8623 60.0822 52.5466 60.3961" stroke="#0F3644" stroke-width="2" stroke-linecap="round" stroke-linejoin="round"/>
<path d="M45.3902 60.3961C45.0745 60.0822 44.6474 59.906 44.202 59.906C43.7569 59.906 43.3298 60.0822 43.0139 60.3961" stroke="#0F3644" stroke-width="2" stroke-linecap="round" stroke-linejoin="round"/>
<path d="M152.493 162.04C164.438 162.04 174.121 160.587 174.121 158.796C174.121 157.005 164.438 155.552 152.493 155.552C140.548 155.552 130.865 157.005 130.865 158.796C130.865 160.587 140.548 162.04 152.493 162.04Z" fill="#CBDEE5"/>
<path d="M141.731 127.293H141.842C142.835 127.293 143.788 126.898 144.491 126.196C145.193 125.493 145.588 124.54 145.588 123.547V104.158H137.984V123.539C137.983 124.031 138.079 124.519 138.267 124.975C138.455 125.43 138.731 125.844 139.079 126.193C139.427 126.542 139.84 126.818 140.295 127.007C140.75 127.196 141.238 127.293 141.731 127.293Z" fill="white" stroke="#0F3644" stroke-width="2" stroke-linecap="round" stroke-linejoin="round"/>
<path d="M153.737 151.196H161.343L162.428 135.984H153.737V151.196Z" fill="white"/>
<path d="M153.737 151.196H161.343L162.428 135.984H153.737V151.196Z" stroke="#0F3644" stroke-width="2" stroke-linecap="round" stroke-linejoin="round"/>
<path d="M153.737 151.196H146.131L145.046 135.984H153.737V151.196Z" fill="white"/>
<path d="M153.737 151.196H146.131L145.046 135.984H153.737V151.196Z" stroke="#0F3644" stroke-width="2" stroke-linecap="round" stroke-linejoin="round"/>
<path d="M153.737 151.196H147.145C145.988 151.169 144.841 151.412 143.795 151.906C142.749 152.4 141.833 153.131 141.119 154.042C140.851 154.373 140.683 154.773 140.633 155.196C140.583 155.619 140.654 156.047 140.838 156.432C141.021 156.816 141.31 157.14 141.67 157.367C142.03 157.595 142.447 157.715 142.873 157.715H153.737V151.196Z" fill="#CBDEE5" stroke="#0F3644" stroke-width="2" stroke-linecap="round" stroke-linejoin="round"/>
<path d="M161.343 151.196H154.751C153.594 151.169 152.447 151.412 151.4 151.906C150.354 152.4 149.437 153.131 148.723 154.042C148.456 154.373 148.288 154.773 148.239 155.196C148.189 155.619 148.261 156.046 148.444 156.43C148.627 156.814 148.916 157.139 149.275 157.366C149.635 157.593 150.052 157.714 150.477 157.715H159.168C159.746 157.715 160.3 157.485 160.709 157.077C161.117 156.668 161.347 156.114 161.347 155.537L161.343 151.196Z" fill="#CBDEE5" stroke="#0F3644" stroke-width="2" stroke-linecap="round" stroke-linejoin="round"/>
<path d="M165.687 115.032L164.697 133.816C164.669 134.4 164.417 134.952 163.994 135.355C163.57 135.759 163.007 135.984 162.422 135.984H145.046C144.459 135.984 143.895 135.757 143.471 135.351C143.046 134.946 142.795 134.392 142.768 133.806L141.778 115.024L165.687 115.032Z" fill="#CBDEE5" stroke="#0F3644" stroke-width="2" stroke-linecap="round" stroke-linejoin="round"/>
<path d="M136.354 95.513C136.43 90.6247 138.428 85.9627 141.916 82.5369C145.404 79.1112 150.101 77.1975 154.99 77.21C159.844 77.21 164.5 79.1383 167.932 82.5708C171.365 86.0033 173.293 90.6587 173.293 95.513V104.159H165.687V115.024H141.782V104.159H138.859C138.202 104.06 137.597 103.743 137.143 103.258C136.688 102.773 136.411 102.149 136.354 101.487V95.513Z" fill="white"/>
<path d="M136.354 95.513C136.43 90.6247 138.428 85.9627 141.916 82.5369C145.404 79.1112 150.101 77.1975 154.99 77.21C159.844 77.21 164.5 79.1383 167.932 82.5708C171.365 86.0033 173.293 90.6587 173.293 95.513V104.159H165.687V115.024H141.782V104.159H138.859C138.202 104.06 137.597 103.743 137.143 103.258C136.688 102.773 136.411 102.149 136.354 101.487V95.513Z" stroke="#0F3644" stroke-width="2" stroke-linecap="round" stroke-linejoin="round"/>
<path d="M165.687 108.588V95.4753" stroke="#0F3644" stroke-width="2" stroke-linecap="round" stroke-linejoin="round"/>
<path d="M153.737 94.3882V115.125" stroke="#0F3644" stroke-width="2" stroke-linecap="round" stroke-linejoin="round"/>
<path d="M144.438 85.9585C144.299 86.2874 144.245 86.6454 144.278 87.0007C144.312 87.3559 144.434 87.6973 144.632 87.9941C144.829 88.2912 145.098 88.5345 145.412 88.7024C145.727 88.8704 146.079 88.9575 146.436 88.9565H151.773L148.01 78.5664C147.771 78.6634 147.535 78.7644 147.301 78.8694L144.438 85.9585Z" fill="#CBDEE5" stroke="#0F3644" stroke-width="2" stroke-linecap="round" stroke-linejoin="round"/>
<path d="M163.038 85.9584L159.748 77.8395L159.626 77.8079L155.665 88.9603H161.038C161.395 88.9615 161.747 88.8742 162.062 88.7061C162.378 88.538 162.646 88.2942 162.844 87.997C163.043 87.6995 163.164 87.3578 163.198 87.0019C163.231 86.6463 163.176 86.2877 163.038 85.9584Z" fill="#CBDEE5" stroke="#0F3644" stroke-width="2" stroke-linecap="round" stroke-linejoin="round"/>
<path d="M141.782 104.158C141.907 102.63 141.525 101.103 140.695 99.8138C139.93 98.4966 139.554 96.9897 139.61 95.4673" stroke="#0F3644" stroke-width="2" stroke-linecap="round" stroke-linejoin="round"/>
<path d="M179.99 130.364H158.992C157.703 130.364 156.658 131.41 156.658 132.699V146.697C156.658 147.986 157.703 149.032 158.992 149.032H179.99C181.28 149.032 182.325 147.986 182.325 146.697V132.699C182.325 131.41 181.28 130.364 179.99 130.364Z" fill="white" stroke="#0F3644" stroke-width="2" stroke-linecap="round" stroke-linejoin="round"/>
<path d="M176.491 130.364V148.944" stroke="#0F3644" stroke-width="2" stroke-linecap="round" stroke-linejoin="round"/>
<path d="M162.489 130.451V149.032" stroke="#0F3644" stroke-width="2" stroke-linecap="round" stroke-linejoin="round"/>
<path d="M174.157 130.364V127.394C174.157 126.636 173.856 125.909 173.32 125.373C172.784 124.837 172.057 124.535 171.299 124.535H167.681C166.923 124.535 166.197 124.837 165.661 125.373C165.125 125.909 164.824 126.636 164.824 127.394V130.364" stroke="#0F3644" stroke-width="2" stroke-linecap="round" stroke-linejoin="round"/>
<path d="M179.99 130.364H158.992C157.703 130.364 156.658 131.41 156.658 132.699V146.697C156.658 147.986 157.703 149.032 158.992 149.032H179.99C181.28 149.032 182.325 147.986 182.325 146.697V132.699C182.325 131.41 181.28 130.364 179.99 130.364Z" stroke="#0F3644" stroke-width="2" stroke-linecap="round" stroke-linejoin="round"/>
<path d="M169.436 127.293H169.545C170.037 127.293 170.524 127.197 170.979 127.009C171.434 126.82 171.847 126.544 172.195 126.196C172.543 125.849 172.819 125.435 173.008 124.981C173.196 124.526 173.293 124.039 173.293 123.547V104.158H165.687V123.539C165.686 124.032 165.783 124.519 165.971 124.975C166.159 125.431 166.435 125.844 166.783 126.193C167.131 126.542 167.545 126.818 168 127.007C168.455 127.196 168.943 127.293 169.436 127.293Z" fill="white" stroke="#0F3644" stroke-width="2" stroke-linecap="round" stroke-linejoin="round"/>
<path d="M148.766 78.2693C149.129 78.145 149.444 77.9103 149.666 77.5982C149.889 77.286 150.009 76.9121 150.008 76.5287V71.499H157.624V75.8555C157.624 76.2745 157.768 76.6806 158.031 77.0068C158.294 77.3331 158.66 77.5598 159.069 77.6495C159.253 77.6891 159.438 77.7327 159.62 77.7802L153.725 94.3802L147.998 78.5386C148.259 78.4515 148.515 78.3584 148.766 78.2693Z" fill="white" stroke="#0F3644" stroke-width="2" stroke-linecap="round" stroke-linejoin="round"/>
<path d="M173.674 76.1267C170.828 73.0222 169.25 68.9637 169.25 64.7525V63.4475C169.229 64.2717 168.887 65.055 168.298 65.6315C167.708 66.2079 166.918 66.5319 166.093 66.5346H166.081C165.545 68.2332 164.658 69.8 163.478 71.1336C162.297 72.4671 160.849 73.5374 159.228 74.2752C162.194 76.6192 165.863 77.8952 169.644 77.897H172.925C173.13 77.8978 173.332 77.838 173.503 77.7247C173.675 77.6117 173.809 77.4503 173.889 77.261C173.969 77.0719 173.991 76.8632 173.953 76.6614C173.914 76.4596 173.817 76.2734 173.674 76.1267Z" fill="white" stroke="#0F3644" stroke-width="2" stroke-linecap="round" stroke-linejoin="round"/>
<path d="M154.101 45.0693C155.76 45.0683 157.402 45.3941 158.935 46.028C160.467 46.662 161.86 47.5915 163.033 48.764C164.206 49.9363 165.136 51.3283 165.771 52.8604C166.406 54.3925 166.733 56.0347 166.733 57.6931V60.2159C170.337 60.2159 170.099 66.5287 166.101 66.5287C165.204 69.406 163.305 71.866 160.748 73.4616C158.192 75.0575 155.148 75.683 152.169 75.2246C149.19 74.7664 146.475 73.2545 144.516 70.964C142.558 68.6735 141.486 65.7563 141.495 62.7426V57.6931C141.495 54.3481 142.823 51.14 145.186 48.7731C147.55 46.4062 150.756 45.0741 154.101 45.0693Z" fill="white" stroke="#0F3644" stroke-width="2" stroke-linecap="round" stroke-linejoin="round"/>
<path d="M159.15 65.5207C159.15 65.7706 159.225 66.0149 159.363 66.2229C159.502 66.4306 159.7 66.5926 159.931 66.688C160.162 66.7837 160.416 66.8086 160.661 66.7597C160.906 66.7108 161.131 66.5902 161.308 66.4134C161.484 66.2365 161.605 66.0112 161.653 65.7658C161.702 65.5207 161.676 65.2666 161.58 65.0359C161.484 64.805 161.322 64.6078 161.114 64.4692C160.906 64.3308 160.662 64.2569 160.412 64.2573C160.246 64.2573 160.082 64.29 159.929 64.3536C159.776 64.4171 159.636 64.5102 159.519 64.6274C159.402 64.7449 159.309 64.8841 159.246 65.0373C159.183 65.1906 159.15 65.355 159.15 65.5207Z" fill="#CBDEE5"/>
<path d="M154.733 67.6714C153.98 68.3389 153.035 68.7496 152.033 68.8435C151.032 68.9375 150.026 68.71 149.162 68.1942C148.901 68.0405 148.653 67.8656 148.42 67.6714" stroke="#0F3644" stroke-width="2" stroke-linecap="round" stroke-linejoin="round"/>
<path d="M140.214 53.905C140.214 53.905 140.004 57.0872 141.477 57.6931C141.477 57.6931 142.739 53.905 145.263 53.905C145.263 56.4298 148.174 57.4694 149.052 57.6931C149.921 56.091 151.236 54.7751 152.838 53.905C153.332 54.8818 154.045 55.7315 154.92 56.3884C155.796 57.0454 156.811 57.4917 157.887 57.6931C157.95 56.8989 158.215 56.1337 158.657 55.4708C159.099 54.8076 159.703 54.2688 160.412 53.905C160.412 53.905 164.2 63.4515 169.25 63.4515V57.6931C169.25 48.7367 162.937 41.2812 154.101 41.2812C147.129 41.2812 140.214 46.9308 140.214 53.905Z" fill="white"/>
<path d="M140.214 53.905C140.214 53.905 140.004 57.0872 141.477 57.6931C141.477 57.6931 142.739 53.905 145.263 53.905C145.263 56.4298 148.174 57.4694 149.052 57.6931C149.921 56.091 151.236 54.7751 152.838 53.905C153.332 54.8818 154.045 55.7315 154.92 56.3884C155.796 57.0454 156.811 57.4917 157.887 57.6931C157.95 56.8989 158.215 56.1337 158.657 55.4708C159.099 54.8076 159.703 54.2688 160.412 53.905C160.412 53.905 164.2 63.4515 169.25 63.4515V57.6931C169.25 48.7367 162.937 41.2812 154.101 41.2812C147.129 41.2812 140.214 46.9308 140.214 53.905Z" stroke="#0F3644" stroke-width="2" stroke-linecap="round" stroke-linejoin="round"/>
<path d="M155.02 60.3051C155.02 60.6282 155.116 60.9441 155.295 61.2126C155.475 61.4813 155.73 61.6908 156.028 61.8144C156.327 61.9379 156.655 61.9704 156.972 61.9072C157.289 61.8443 157.58 61.6886 157.809 61.4603C158.037 61.2318 158.193 60.9407 158.256 60.6237C158.319 60.3068 158.287 59.9783 158.163 59.6799C158.039 59.3813 157.83 59.1262 157.561 58.9466C157.292 58.7672 156.977 58.6714 156.653 58.6714C156.22 58.6714 155.805 58.8435 155.498 59.1498C155.192 59.4563 155.02 59.8718 155.02 60.3051Z" fill="#0F3644"/>
<path d="M145.214 60.3051C145.213 60.6288 145.309 60.9452 145.489 61.2146C145.668 61.4839 145.924 61.6938 146.223 61.8177C146.522 61.9419 146.851 61.9744 147.168 61.9114C147.486 61.8482 147.777 61.6924 148.006 61.4637C148.235 61.2348 148.391 60.9431 148.454 60.6256C148.517 60.3082 148.484 59.9791 148.36 59.6801C148.236 59.3813 148.026 59.1258 147.757 58.9462C147.488 58.7666 147.171 58.671 146.848 58.6714C146.414 58.6714 145.999 58.8435 145.692 59.1498C145.386 59.4563 145.214 59.8718 145.214 60.3051Z" fill="#0F3644"/>
<path d="M99.0694 180.081C118.481 180.081 134.218 164.345 134.218 144.933C134.218 125.521 118.481 109.784 99.0694 109.784C79.6575 109.784 63.9209 125.521 63.9209 144.933C63.9209 164.345 79.6575 180.081 99.0694 180.081Z" fill="white"/>
<path d="M99.0694 180.081C118.481 180.081 134.218 164.345 134.218 144.933C134.218 125.521 118.481 109.784 99.0694 109.784C79.6575 109.784 63.9209 125.521 63.9209 144.933C63.9209 164.345 79.6575 180.081 99.0694 180.081Z" stroke="#0F3644" stroke-width="2" stroke-linecap="round" stroke-linejoin="round"/>
<path d="M92.9704 162.279C92.2983 162.28 91.6326 162.148 91.0118 161.891C90.3908 161.634 89.827 161.256 89.3526 160.78L79.1169 150.545C78.1571 149.585 77.6179 148.283 77.6179 146.926C77.6179 145.569 78.1571 144.267 79.1169 143.307C80.0765 142.347 81.3783 141.808 82.7357 141.808C84.093 141.808 85.3947 142.347 86.3546 143.307L92.9704 149.925L113.808 129.087C114.283 128.612 114.847 128.235 115.468 127.978C116.089 127.721 116.755 127.588 117.427 127.588C118.099 127.588 118.764 127.721 119.385 127.978C120.006 128.235 120.57 128.612 121.046 129.087C121.521 129.562 121.898 130.127 122.155 130.748C122.412 131.368 122.544 132.034 122.544 132.706C122.544 133.378 122.412 134.044 122.155 134.664C121.898 135.285 121.521 135.85 121.046 136.325L96.5902 160.78C96.1153 161.256 95.551 161.634 94.9298 161.891C94.3086 162.148 93.6427 162.28 92.9704 162.279Z" fill="#C88C8C" stroke="#0F3644" stroke-width="2" stroke-linecap="round" stroke-linejoin="round"/>
</svg>
