<svg width="200" height="200" viewBox="0 0 200 200" fill="none" xmlns="http://www.w3.org/2000/svg">
<path d="M179.208 100.293C179.21 88.4718 176.565 76.7999 171.468 66.1336C166.371 55.467 158.952 46.077 149.754 38.6514C140.555 31.2259 129.811 25.9534 118.31 23.2207C106.809 20.4879 94.842 20.3642 83.2865 22.8585C71.7313 25.353 60.8808 30.4023 51.5311 37.636C42.1812 44.8698 34.5691 54.1047 29.2531 64.6635C23.937 75.2221 21.0517 86.8369 20.8087 98.6558C20.5659 110.475 22.9717 122.198 27.8495 132.966H172.15C176.81 122.704 179.216 111.563 179.208 100.293Z" fill="#F3F4F6"/>
<path d="M22.7722 132.966H177.228" stroke="#0F3644" stroke-width="2" stroke-linecap="round" stroke-linejoin="round"/>
<path d="M13.8613 132.966H18.8118" stroke="#0F3644" stroke-width="2" stroke-linecap="round" stroke-linejoin="round"/>
<path d="M181.188 132.966H186.139" stroke="#0F3644" stroke-width="2" stroke-linecap="round" stroke-linejoin="round"/>
<path d="M152.475 118.115C152.475 109.975 149.242 102.168 143.486 96.4118C137.729 90.6555 129.923 87.4219 121.782 87.4219C113.642 87.4219 105.835 90.6555 100.079 96.4118C94.3228 102.168 91.0891 109.975 91.0891 118.115V132.966H152.475V118.115Z" fill="white"/>
<path d="M152.475 118.115C152.475 109.975 149.242 102.168 143.486 96.4118C137.729 90.6555 129.923 87.4219 121.782 87.4219C113.642 87.4219 105.835 90.6555 100.079 96.4118C94.3228 102.168 91.0891 109.975 91.0891 118.115V132.966H152.475V118.115Z" stroke="#0F3644" stroke-width="2" stroke-linecap="round" stroke-linejoin="round"/>
<path d="M135.644 93.0179C135.644 91.0086 134.845 89.0815 133.424 87.6607C132.004 86.2399 130.077 85.4417 128.067 85.4417H115.497C114.278 85.4407 113.078 85.7335 111.997 86.2953C110.915 86.8571 109.986 87.6714 109.286 88.669C108.587 89.6666 108.138 90.8183 107.978 92.0262C107.818 93.2341 107.952 94.4628 108.368 95.608L111.053 102.988C111.153 103.263 111.312 103.512 111.52 103.717C111.727 103.923 111.977 104.08 112.252 104.178C112.527 104.276 112.821 104.311 113.111 104.282C113.402 104.253 113.682 104.16 113.933 104.01L121.782 99.303L129.624 104.01C129.874 104.16 130.155 104.253 130.445 104.282C130.736 104.311 131.029 104.276 131.304 104.178C131.579 104.08 131.83 103.923 132.037 103.717C132.244 103.512 132.403 103.263 132.503 102.988L135.188 95.608C135.489 94.7777 135.643 93.9013 135.644 93.0179Z" fill="#C88C8C" stroke="#0F3644" stroke-width="2" stroke-linecap="round" stroke-linejoin="round"/>
<path d="M121.782 99.303V132.966" stroke="#0F3644" stroke-width="2" stroke-linecap="round" stroke-linejoin="round"/>
<path d="M128.713 90.7327C128.713 91.783 128.295 92.7901 127.553 93.5327L121.782 99.303L116.012 93.5327C115.269 92.7901 114.852 91.783 114.852 90.7327V81.4812H128.713V90.7327Z" fill="white"/>
<path d="M128.713 90.7327C128.713 91.783 128.295 92.7901 127.553 93.5327L121.782 99.303L116.012 93.5327C115.269 92.7901 114.852 91.783 114.852 90.7327V81.4812H128.713V90.7327Z" stroke="#0F3644" stroke-width="2" stroke-linecap="round" stroke-linejoin="round"/>
<path d="M141.584 60.689V55.7385C141.584 50.4866 139.498 45.45 135.784 41.7363C132.071 38.0229 127.034 35.9365 121.782 35.9365C116.53 35.9365 111.494 38.0229 107.78 41.7363C104.067 45.45 101.98 50.4866 101.98 55.7385V60.689C101.46 60.689 100.945 60.7914 100.465 60.9906C99.9841 61.1896 99.5475 61.4813 99.1798 61.849C98.8121 62.2167 98.5204 62.6534 98.3212 63.1338C98.1221 63.6143 98.0198 64.1294 98.0198 64.6494C98.0198 65.1696 98.1221 65.6844 98.3212 66.165C98.5204 66.6454 98.8121 67.0821 99.1798 67.4498C99.5475 67.8175 99.9841 68.1094 100.465 68.3084C100.945 68.5074 101.46 68.6098 101.98 68.6098C102.063 68.6098 102.141 68.592 102.224 68.586C102.922 73.274 105.281 77.5549 108.871 80.6496C112.461 83.7442 117.043 85.4466 121.782 85.4466C126.522 85.4466 131.104 83.7442 134.693 80.6496C138.283 77.5549 140.642 73.274 141.341 68.586C141.424 68.586 141.501 68.6098 141.584 68.6098C142.634 68.6098 143.642 68.1926 144.385 67.4498C145.127 66.7072 145.545 65.6997 145.545 64.6494C145.545 63.5991 145.127 62.5918 144.385 61.849C143.642 61.1062 142.634 60.689 141.584 60.689Z" fill="white" stroke="#0F3644" stroke-width="2" stroke-linecap="round" stroke-linejoin="round"/>
<path d="M132.673 62.6694C132.428 62.0819 132.014 61.5801 131.484 61.2272C130.954 60.8744 130.332 60.686 129.695 60.686C129.058 60.686 128.436 60.8744 127.906 61.2272C127.376 61.5801 126.962 62.0819 126.717 62.6694" stroke="#0F3644" stroke-width="2" stroke-linecap="round" stroke-linejoin="round"/>
<path d="M116.848 62.6694C116.602 62.0819 116.188 61.5801 115.658 61.2272C115.129 60.8744 114.506 60.686 113.869 60.686C113.233 60.686 112.61 60.8744 112.08 61.2272C111.55 61.5801 111.137 62.0819 110.891 62.6694" stroke="#0F3644" stroke-width="2" stroke-linecap="round" stroke-linejoin="round"/>
<path d="M110.396 71.5801C111.763 71.5801 112.871 70.472 112.871 69.1049C112.871 67.738 111.763 66.6296 110.396 66.6296C109.029 66.6296 107.921 67.738 107.921 69.1049C107.921 70.472 109.029 71.5801 110.396 71.5801Z" fill="#CBDEE5"/>
<path d="M133.168 71.5801C134.535 71.5801 135.644 70.472 135.644 69.1049C135.644 67.738 134.535 66.6296 133.168 66.6296C131.801 66.6296 130.693 67.738 130.693 69.1049C130.693 70.472 131.801 71.5801 133.168 71.5801Z" fill="#CBDEE5"/>
<path d="M115.825 74.1484C117.431 75.6787 119.564 76.5322 121.782 76.5322C124 76.5322 126.133 75.6787 127.738 74.1484" stroke="#0F3644" stroke-width="2" stroke-linecap="round" stroke-linejoin="round"/>
<path d="M126.733 121.085C127.28 121.085 127.723 120.642 127.723 120.095C127.723 119.548 127.28 119.105 126.733 119.105C126.186 119.105 125.743 119.548 125.743 120.095C125.743 120.642 126.186 121.085 126.733 121.085Z" stroke="#0F3644" stroke-width="2" stroke-linecap="round" stroke-linejoin="round"/>
<path d="M126.733 113.164C127.28 113.164 127.723 112.721 127.723 112.174C127.723 111.627 127.28 111.184 126.733 111.184C126.186 111.184 125.743 111.627 125.743 112.174C125.743 112.721 126.186 113.164 126.733 113.164Z" stroke="#0F3644" stroke-width="2" stroke-linecap="round" stroke-linejoin="round"/>
<path d="M126.733 129.006C127.28 129.006 127.723 128.563 127.723 128.016C127.723 127.469 127.28 127.026 126.733 127.026C126.186 127.026 125.743 127.469 125.743 128.016C125.743 128.563 126.186 129.006 126.733 129.006Z" stroke="#0F3644" stroke-width="2" stroke-linecap="round" stroke-linejoin="round"/>
<path d="M102.97 115.145V132.966" stroke="#0F3644" stroke-width="2" stroke-linecap="round" stroke-linejoin="round"/>
<path d="M140.594 115.145V132.966" stroke="#0F3644" stroke-width="2" stroke-linecap="round" stroke-linejoin="round"/>
<path d="M104.951 55.7386C104.951 55.7386 121.238 56.6435 132.188 45.4791C132.371 45.292 132.595 45.1508 132.843 45.0673C133.091 44.9839 133.355 44.9605 133.613 44.9991C133.872 45.038 134.118 45.1376 134.33 45.2898C134.543 45.4421 134.716 45.6427 134.836 45.8752C137.394 51.0995 138.689 56.8524 138.614 62.6692C139.006 62.6776 139.396 62.6065 139.76 62.4601C140.125 62.314 140.455 62.0954 140.733 61.818C141.01 61.5403 141.229 61.2096 141.375 60.8455C141.521 60.4813 141.593 60.0912 141.584 59.6989C142.961 59.4172 144.201 58.6756 145.1 57.5962C146 56.5166 146.506 55.1633 146.535 53.7584C146.535 48.8079 146.535 36.9267 135.644 36.9267C135.644 36.9267 123.762 25.0455 106.931 35.9366C103.637 38.2629 100.996 41.397 99.2619 45.0382C97.528 48.6791 96.7593 52.7049 97.0298 56.7287C97.0215 57.1209 97.0925 57.511 97.2389 57.8752C97.3852 58.2393 97.6036 58.57 97.8811 58.8477C98.1587 59.1251 98.4894 59.3437 98.8535 59.4898C99.2177 59.6362 99.6078 59.7073 100 59.6989C100.288 60.5332 100.819 61.2621 101.525 61.7916C102.231 62.3211 103.079 62.6269 103.96 62.6692C103.96 62.6692 103.96 55.7386 104.951 55.7386Z" fill="white"/>
<path d="M104.951 55.7386C104.951 55.7386 121.238 56.6435 132.188 45.4791C132.371 45.292 132.595 45.1508 132.843 45.0673C133.091 44.9839 133.355 44.9605 133.613 44.9991C133.872 45.038 134.118 45.1376 134.33 45.2898C134.543 45.4421 134.716 45.6427 134.836 45.8752C137.394 51.0995 138.689 56.8524 138.614 62.6692C139.006 62.6776 139.396 62.6065 139.76 62.4601C140.125 62.314 140.455 62.0954 140.733 61.818C141.01 61.5403 141.229 61.2096 141.375 60.8455C141.521 60.4813 141.593 60.0912 141.584 59.6989C142.961 59.4172 144.201 58.6756 145.1 57.5962C146 56.5166 146.506 55.1633 146.535 53.7584C146.535 48.8079 146.535 36.9267 135.644 36.9267C135.644 36.9267 123.762 25.0455 106.931 35.9366C103.637 38.2629 100.996 41.397 99.2619 45.0382C97.528 48.6791 96.7593 52.7049 97.0298 56.7287C97.0215 57.1209 97.0925 57.511 97.2389 57.8752C97.3852 58.2393 97.6036 58.57 97.8811 58.8477C98.1587 59.1251 98.4894 59.3437 98.8535 59.4898C99.2177 59.6362 99.6078 59.7073 100 59.6989C100.288 60.5332 100.819 61.2621 101.525 61.7916C102.231 62.3211 103.079 62.6269 103.96 62.6692C103.96 62.6692 103.96 55.7386 104.951 55.7386Z" stroke="#0F3644" stroke-width="2" stroke-linecap="round" stroke-linejoin="round"/>
<path d="M66.976 117.477L56.4809 109.517C55.7374 108.994 54.9094 108.603 54.0334 108.36L42.5483 105.172C41.0552 104.008 41.1621 106.024 39.9997 107.517C38.8374 109.01 35.8215 115.139 37.3146 116.303L50.5007 126.303L50.976 129.287C51.1192 130.178 51.6077 130.976 52.3358 131.51C53.0639 132.042 53.9728 132.267 54.8653 132.134C55.7578 132.001 56.5617 131.521 57.1029 130.799C57.6441 130.077 57.879 129.171 57.7562 128.277C58.3724 128.49 59.0364 128.523 59.6706 128.372C60.3049 128.221 60.8827 127.892 61.3368 127.424C61.7908 126.956 62.1023 126.369 62.2344 125.731C62.3665 125.092 62.314 124.429 62.0829 123.82L61.3126 121.782L62.7582 122.879C63.1124 123.161 63.5191 123.37 63.9548 123.494C64.3904 123.618 64.8463 123.655 65.296 123.601C65.7459 123.548 66.1805 123.406 66.5752 123.184C66.9698 122.962 67.3164 122.664 67.5952 122.307C67.8738 121.95 68.079 121.541 68.1988 121.104C68.3184 120.667 68.3504 120.211 68.2928 119.762C68.2354 119.313 68.0892 118.879 67.8633 118.487C67.6372 118.094 67.3356 117.751 66.976 117.475V117.477Z" fill="#F3F4F6" stroke="#0F3644" stroke-width="2" stroke-linecap="round" stroke-linejoin="round"/>
<path d="M54.1265 122.178L55.677 126.257C55.8368 126.678 56.0781 127.064 56.3869 127.391C56.6958 127.719 57.0661 127.982 57.4768 128.167C57.8875 128.351 58.3304 128.453 58.7805 128.467C59.2304 128.48 59.6787 128.405 60.0997 128.245C60.5205 128.085 60.9059 127.843 61.2334 127.534C61.5611 127.226 61.8247 126.855 62.0092 126.445C62.1938 126.034 62.2956 125.591 62.3088 125.141C62.3221 124.691 62.2467 124.243 62.0869 123.822" stroke="#0F3644" stroke-width="2" stroke-linecap="round" stroke-linejoin="round"/>
<path d="M55.1047 117.079L62.7582 122.881" stroke="#0F3644" stroke-width="2" stroke-linecap="round" stroke-linejoin="round"/>
<path d="M47.7165 112.954L44.7185 112.055" stroke="#0F3644" stroke-width="2" stroke-linecap="round" stroke-linejoin="round"/>
<path d="M45.38 152.129L27.2909 150.442V150.408C24.3404 128.224 22.7879 104.356 51.5424 89.5842L53.178 88.7366C53.578 88.5297 54.0147 88.4038 54.4632 88.3655C54.9117 88.3275 55.3634 88.378 55.7923 88.5145C56.2214 88.6509 56.6192 88.8705 56.9634 89.1608C57.3075 89.4511 57.5911 89.8061 57.7978 90.2059C58.0048 90.6057 58.1309 91.0424 58.1689 91.4909C58.2071 91.9396 58.1565 92.3911 58.02 92.8202C57.8836 93.2491 57.664 93.6471 57.3739 93.9913C57.0836 94.3352 56.7285 94.6188 56.3285 94.8257L54.6929 95.6733C47.4493 99.4218 42.4355 103.737 40.8889 111.713C38.4434 123.735 45.0473 119.541 46.6949 115.317L50.5523 106.406C50.9034 105.567 51.5733 104.902 52.4147 104.558C53.2561 104.213 54.1998 104.216 55.0384 104.567C55.8772 104.918 56.5422 105.588 56.887 106.43C57.2317 107.271 57.2281 108.215 56.8771 109.053C52.6474 126.768 53.8256 130.188 49.4731 136.087C46.2236 140.489 46.1503 143.889 45.38 152.129Z" fill="white"/>
<path d="M45.38 152.129L27.2909 150.442V150.408C24.3404 128.224 22.7879 104.356 51.5424 89.5842L53.178 88.7366C53.578 88.5297 54.0147 88.4038 54.4632 88.3655C54.9117 88.3275 55.3634 88.378 55.7923 88.5145C56.2214 88.6509 56.6192 88.8705 56.9634 89.1608C57.3075 89.4511 57.5911 89.8061 57.7978 90.2059C58.0048 90.6057 58.1309 91.0424 58.1689 91.4909C58.2071 91.9396 58.1565 92.3911 58.02 92.8202C57.8836 93.2491 57.664 93.6471 57.3739 93.9913C57.0836 94.3352 56.7285 94.6188 56.3285 94.8257L54.6929 95.6733C47.4493 99.4218 42.4355 103.737 40.8889 111.713C38.4434 123.735 45.0474 119.541 46.6949 115.317L50.5523 106.406C50.9034 105.567 51.5733 104.902 52.4147 104.558C53.2561 104.213 54.1998 104.216 55.0384 104.567C55.8772 104.918 56.5422 105.588 56.887 106.43C57.2317 107.271 57.2281 108.215 56.8771 109.053C52.6474 126.768 53.8256 130.188 49.4731 136.087C46.2236 140.489 46.1503 143.889 45.38 152.129Z" stroke="#0F3644" stroke-width="2" stroke-linecap="round" stroke-linejoin="round"/>
<path d="M93.1948 73.1272L48.9845 77.9753C46.8102 78.2137 45.2411 80.1696 45.4795 82.3438L51.9934 141.746C52.2318 143.92 54.1876 145.49 56.3619 145.251L100.572 140.403C102.746 140.165 104.316 138.209 104.077 136.035L97.5633 76.6324C97.3249 74.4581 95.369 72.8888 93.1948 73.1272Z" fill="#CBDEE5" stroke="#0F3644" stroke-width="2" stroke-linecap="round" stroke-linejoin="round"/>
<path d="M92.584 135.788L57.2553 139.661L51.287 85.2059C51.2316 84.685 51.3848 84.163 51.7133 83.7549C52.0417 83.3465 52.5187 83.085 53.0395 83.0277L90.3365 78.9386C90.8577 78.8832 91.3795 79.0364 91.7878 79.3648C92.1961 79.6933 92.4575 80.1703 92.5147 80.6911L97.8415 129.236C98.0131 130.802 97.5557 132.372 96.5698 133.601C95.5838 134.83 94.1502 135.616 92.584 135.788Z" fill="white" stroke="#0F3644" stroke-width="2" stroke-linecap="round" stroke-linejoin="round"/>
<path d="M75.1921 72.9051C75.0658 71.7542 74.4876 70.7005 73.5844 69.976C72.6813 69.2514 71.5272 68.9154 70.3763 69.0417C69.2254 69.168 68.1717 69.7465 67.4472 70.6494C66.7226 71.5526 66.3866 72.7067 66.5129 73.8575L62.1723 74.3328C61.0211 74.4593 59.967 75.0379 59.242 75.9413C58.5173 76.8449 58.1809 77.9991 58.307 79.1506L58.5446 81.3288C58.5751 81.6142 58.6618 81.8906 58.7995 82.1423C58.9373 82.394 59.1232 82.616 59.347 82.7956C59.5708 82.9752 59.8278 83.1086 60.1032 83.1886C60.3789 83.2686 60.6674 83.2934 60.9525 83.2615L82.6555 80.8853C82.9409 80.8548 83.2173 80.768 83.469 80.6304C83.7207 80.4928 83.9426 80.3067 84.1222 80.0829C84.3018 79.8591 84.4353 79.6021 84.5153 79.3267C84.5953 79.051 84.6201 78.7625 84.5882 78.4773L84.3486 76.2991C84.2872 75.7288 84.1137 75.1762 83.8383 74.673C83.5628 74.1698 83.1908 73.7261 82.7432 73.3671C82.2957 73.008 81.7818 72.7411 81.2308 72.5813C80.6799 72.4215 80.1028 72.372 79.5327 72.4358L75.1921 72.9051Z" fill="white"/>
<path d="M75.1921 72.9051C75.0658 71.7542 74.4876 70.7005 73.5844 69.976C72.6813 69.2514 71.5272 68.9154 70.3763 69.0417C69.2254 69.168 68.1717 69.7465 67.4472 70.6494C66.7226 71.5526 66.3866 72.7067 66.5129 73.8575L62.1723 74.3328C61.0211 74.4593 59.967 75.0379 59.242 75.9413C58.5173 76.8449 58.1809 77.9991 58.307 79.1506L58.5446 81.3288C58.5751 81.6142 58.6618 81.8906 58.7995 82.1423C58.9373 82.394 59.1232 82.616 59.347 82.7956C59.5708 82.9752 59.8278 83.1086 60.1032 83.1886C60.3789 83.2686 60.6674 83.2934 60.9525 83.2615L82.6555 80.8853C82.9409 80.8548 83.2173 80.768 83.469 80.6304C83.7207 80.4928 83.9426 80.3067 84.1222 80.0829C84.3018 79.8591 84.4353 79.6021 84.5153 79.3267C84.5953 79.051 84.6201 78.7625 84.5882 78.4773L84.3486 76.2991C84.2872 75.7288 84.1137 75.1762 83.8383 74.673C83.5628 74.1698 83.1908 73.7261 82.7432 73.3671C82.2957 73.008 81.7818 72.7411 81.2308 72.5813C80.6799 72.4215 80.1028 72.372 79.5327 72.4358L75.1921 72.9051Z" stroke="#0F3644" stroke-width="2" stroke-linecap="round" stroke-linejoin="round"/>
<path d="M78.9952 85.6682L65.5708 87.1407C64.4837 87.2599 63.6992 88.2377 63.8184 89.3249L65.4101 103.838C65.5293 104.925 66.5073 105.71 67.5944 105.59L81.0188 104.118C82.1059 103.999 82.8906 103.021 82.7712 101.934L81.1796 87.4207C81.0604 86.3336 80.0823 85.549 78.9952 85.6682Z" fill="white" stroke="#0F3644" stroke-width="2" stroke-linecap="round" stroke-linejoin="round"/>
<path d="M70.2534 93.9246C70.3779 94.6365 70.769 95.2743 71.347 95.7082C71.9248 96.1423 72.6464 96.3397 73.3648 96.2609C74.0833 96.1819 74.7446 95.8324 75.2145 95.2833C75.6846 94.7343 75.9278 94.0268 75.8949 93.3048L75.7504 91.99C75.6256 91.2783 75.2347 90.6409 74.6569 90.2072C74.0793 89.7734 73.3581 89.5757 72.6399 89.6543C71.9219 89.733 71.2605 90.0821 70.7904 90.6306C70.3203 91.1791 70.0765 91.886 70.1088 92.6078L70.2534 93.9246Z" fill="#CBDEE5"/>
<path d="M67.604 104.493L67.5664 104.146C67.4698 102.45 68.0278 100.782 69.1252 99.4851C70.2226 98.1885 71.7759 97.3621 73.4646 97.177C75.1533 96.9918 76.8488 97.4619 78.2011 98.49C79.5533 99.5182 80.4597 101.026 80.7327 102.703L80.7704 103.049L67.604 104.493Z" fill="#CBDEE5"/>
<path d="M57.2555 139.661C56.4003 139.755 55.5349 139.68 54.709 139.439C53.883 139.198 53.1127 138.797 52.4418 138.258C51.7709 137.72 51.2129 137.054 50.7993 136.3C50.3858 135.545 50.125 134.717 50.0317 133.861L82.8674 130.261C83.3636 130.22 83.8597 130.345 84.2775 130.616C84.6953 130.887 85.0113 131.289 85.1763 131.758C85.7064 133.091 86.6587 134.212 87.8874 134.951C89.1159 135.69 90.5531 136.006 91.9783 135.849L57.2555 139.661Z" fill="white" stroke="#0F3644" stroke-width="2" stroke-linecap="round" stroke-linejoin="round"/>
<path d="M69.1368 112.006L61.8107 112.813C60.7237 112.932 59.9396 113.911 60.0592 114.998L60.8661 122.324C60.9859 123.411 61.9641 124.195 63.0512 124.075L70.3772 123.269C71.4643 123.149 72.2485 122.171 72.1287 121.084L71.3217 113.757C71.2021 112.67 70.2237 111.886 69.1368 112.006Z" stroke="#0F3644" stroke-width="2" stroke-linecap="round" stroke-linejoin="round"/>
<path d="M86.6613 110.217L79.3354 111.024C78.2482 111.143 77.4641 112.122 77.5839 113.209L78.3906 120.535C78.5104 121.622 79.4886 122.406 80.5758 122.286L87.9017 121.479C88.9888 121.36 89.773 120.381 89.6534 119.295L88.8464 111.968C88.7266 110.881 87.7484 110.097 86.6613 110.217Z" stroke="#0F3644" stroke-width="2" stroke-linecap="round" stroke-linejoin="round"/>
<path d="M63.6711 117.689L66.6969 120.115L73.6731 108.311" stroke="#0F3644" stroke-width="2" stroke-linecap="round" stroke-linejoin="round"/>
<path d="M41.4514 119.418C42.994 120.319 45.7207 117.822 46.695 115.313L50.5524 106.402C50.7262 105.987 50.9801 105.61 51.2997 105.293C51.6191 104.975 51.9981 104.724 52.4146 104.554C52.8312 104.383 53.2773 104.296 53.7274 104.298C54.1777 104.299 54.6233 104.39 55.0385 104.563C55.4538 104.737 55.8308 104.991 56.1478 105.311C56.4651 105.63 56.7161 106.009 56.8868 106.426C57.0575 106.842 57.1447 107.288 57.1429 107.739C57.1413 108.189 57.051 108.634 56.8771 109.05C52.6474 126.764 53.8256 130.184 49.4732 136.083C46.2237 140.487 46.1504 143.887 45.3801 152.123L36.5425 151.299" fill="white"/>
<path d="M41.4514 119.418C42.994 120.319 45.7207 117.822 46.695 115.313L50.5524 106.402C50.7262 105.987 50.9801 105.61 51.2997 105.293C51.6191 104.975 51.9981 104.724 52.4146 104.554C52.8312 104.383 53.2773 104.296 53.7274 104.298C54.1777 104.299 54.6233 104.39 55.0385 104.563C55.4538 104.737 55.8308 104.991 56.1478 105.311C56.4651 105.63 56.7161 106.009 56.8868 106.426C57.0575 106.842 57.1447 107.288 57.1429 107.739C57.1413 108.189 57.051 108.634 56.8771 109.05C52.6474 126.764 53.8256 130.184 49.4732 136.083C46.2237 140.487 46.1504 143.887 45.3801 152.123L36.5425 151.299" stroke="#0F3644" stroke-width="2" stroke-linecap="round" stroke-linejoin="round"/>
<path d="M48.3406 162.458L49.0872 154.456C49.1361 153.933 48.9761 153.413 48.642 153.009C48.3078 152.604 47.827 152.349 47.305 152.299L24.7921 150.2C24.27 150.151 23.7496 150.311 23.3452 150.645C22.941 150.979 22.6858 151.46 22.6357 151.982L21.8892 160L48.3406 162.458Z" fill="#CBDEE5"/>
<path d="M48.3406 162.458L49.0872 154.456C49.1361 153.933 48.9761 153.413 48.642 153.009C48.3078 152.604 47.827 152.349 47.305 152.299L24.7921 150.2C24.27 150.151 23.7496 150.311 23.3452 150.645C22.941 150.979 22.6858 151.46 22.6357 151.982L21.8892 160" stroke="#0F3644" stroke-width="2" stroke-linecap="round" stroke-linejoin="round"/>
<path d="M24.5266 150.174L24.8197 147.028C24.8698 146.506 25.125 146.025 25.5294 145.691C25.9335 145.357 26.4539 145.196 26.9761 145.246L46.0712 147.028C46.5931 147.078 47.0741 147.333 47.4082 147.737C47.7423 148.142 47.9025 148.662 47.8533 149.184L47.5603 152.333L24.5266 150.174Z" fill="white" stroke="#0F3644" stroke-width="2" stroke-linecap="round" stroke-linejoin="round"/>
<path d="M127.921 135.733C128.356 135.743 128.785 135.84 129.183 136.016C129.582 136.192 129.941 136.445 130.241 136.761C130.541 137.076 130.777 137.448 130.934 137.854C131.09 138.26 131.165 138.694 131.155 139.129L130.891 149.901C130.881 150.336 130.784 150.765 130.608 151.163C130.432 151.562 130.179 151.921 129.863 152.221C129.548 152.522 129.177 152.757 128.771 152.914C128.364 153.071 127.931 153.146 127.496 153.136C127.061 153.125 126.632 153.029 126.234 152.853C125.836 152.676 125.476 152.423 125.176 152.108C124.875 151.793 124.64 151.421 124.483 151.015C124.326 150.609 124.251 150.176 124.261 149.741L124.521 138.966C124.532 138.531 124.628 138.102 124.805 137.703C124.981 137.305 125.235 136.945 125.551 136.645C125.867 136.345 126.238 136.11 126.645 135.953C127.052 135.797 127.485 135.722 127.921 135.733Z" fill="#F3F4F6" stroke="#0F3644" stroke-width="2" stroke-linecap="round" stroke-linejoin="round"/>
<path d="M124.463 134.802C124.853 134.995 125.202 135.263 125.489 135.591C125.776 135.918 125.995 136.299 126.135 136.712C126.274 137.124 126.331 137.56 126.302 137.994C126.273 138.429 126.159 138.853 125.966 139.244L122.241 147.061C122.059 147.469 121.796 147.836 121.469 148.139C121.142 148.443 120.756 148.678 120.336 148.829C119.916 148.98 119.47 149.045 119.024 149.019C118.578 148.994 118.142 148.878 117.742 148.68C117.342 148.482 116.986 148.205 116.695 147.866C116.404 147.527 116.185 147.133 116.051 146.707C115.916 146.282 115.869 145.833 115.912 145.389C115.955 144.944 116.087 144.513 116.301 144.121L120.026 136.305C120.415 135.518 121.101 134.917 121.933 134.635C122.765 134.353 123.675 134.413 124.463 134.802Z" fill="#F3F4F6" stroke="#0F3644" stroke-width="2" stroke-linecap="round" stroke-linejoin="round"/>
<path d="M136.372 148.911C140.441 150.022 144.205 152.039 147.384 154.81L150.812 157.65L164.935 142.652L161.525 140.03C156.398 136.499 155.305 127.721 146.125 123.271C134.525 117.65 120.443 119.497 108.501 135.362C107.991 136.064 107.776 136.938 107.902 137.796C108.029 138.655 108.486 139.429 109.177 139.954C109.868 140.479 110.737 140.712 111.598 140.604C112.459 140.496 113.243 140.054 113.782 139.374C114.574 138.333 115.366 137.362 116.158 136.452C117.706 134.718 119.389 133.11 121.19 131.642C124.886 128.446 129.696 126.841 134.57 127.176C138.414 127.56 139.402 130.921 138.158 132.899C137.103 134.255 135.608 135.199 133.93 135.568C132.253 135.937 130.499 135.708 128.972 134.921L121.19 131.642C119.389 133.11 117.706 134.718 116.158 136.452C116.46 136.753 116.818 136.994 117.212 137.159C130.495 146.602 133.15 147.772 136.372 148.911Z" fill="white"/>
<path d="M138.17 132.899C137.115 134.255 135.619 135.198 133.942 135.568C132.264 135.937 130.511 135.708 128.984 134.921L121.202 131.642C124.898 128.446 129.707 126.841 134.582 127.176C138.425 127.56 139.406 130.921 138.17 132.899Z" fill="#F3F4F6" stroke="#0F3644" stroke-width="2" stroke-linecap="round" stroke-linejoin="round"/>
<path d="M136.372 148.911C140.441 150.022 144.205 152.039 147.384 154.81L150.812 157.65L164.935 142.652L161.525 140.03C156.398 136.499 155.305 127.721 146.125 123.271C134.525 117.65 120.443 119.497 108.501 135.362C107.991 136.064 107.776 136.938 107.902 137.796C108.029 138.655 108.486 139.429 109.177 139.954C109.868 140.479 110.737 140.712 111.598 140.604C112.459 140.496 113.243 140.054 113.782 139.374C114.574 138.333 115.366 137.362 116.158 136.452C117.706 134.718 119.389 133.11 121.19 131.642C124.886 128.446 129.696 126.841 134.57 127.176C138.414 127.56 139.402 130.921 138.158 132.899C137.103 134.255 135.608 135.199 133.93 135.568C132.253 135.937 130.499 135.708 128.972 134.921L121.19 131.642C119.389 133.11 117.706 134.718 116.158 136.452C116.46 136.753 116.818 136.994 117.212 137.159C130.495 146.602 133.15 147.772 136.372 148.911Z" stroke="#0F3644" stroke-width="2" stroke-linecap="round" stroke-linejoin="round"/>
<path d="M173.465 147.636L167.899 142.394C167.709 142.216 167.487 142.076 167.243 141.984C167 141.892 166.741 141.848 166.481 141.856C166.221 141.864 165.965 141.924 165.728 142.03C165.491 142.137 165.277 142.29 165.099 142.479L150.196 158.305C150.017 158.494 149.878 158.717 149.786 158.96C149.693 159.203 149.65 159.462 149.657 159.722C149.665 159.982 149.724 160.238 149.831 160.475C149.937 160.713 150.09 160.926 150.279 161.105L155.841 166.346L173.465 147.636Z" fill="#CBDEE5"/>
<path d="M173.465 147.636L167.899 142.394C167.709 142.216 167.487 142.076 167.243 141.984C167 141.892 166.741 141.848 166.481 141.856C166.221 141.864 165.965 141.924 165.728 142.03C165.491 142.137 165.277 142.29 165.099 142.479L150.196 158.305C150.017 158.494 149.878 158.717 149.786 158.96C149.693 159.203 149.65 159.462 149.657 159.722C149.665 159.982 149.724 160.238 149.831 160.475C149.937 160.713 150.09 160.926 150.279 161.105L155.841 166.346" stroke="#0F3644" stroke-width="2" stroke-linecap="round" stroke-linejoin="round"/>
<path d="M149.976 158.539L147.798 156.487C147.608 156.309 147.456 156.095 147.349 155.858C147.242 155.621 147.183 155.365 147.175 155.105C147.167 154.845 147.211 154.586 147.303 154.343C147.395 154.099 147.534 153.877 147.713 153.687L160.344 140.275C160.705 139.893 161.202 139.67 161.726 139.654C162.251 139.639 162.76 139.832 163.142 140.192L165.321 142.244L149.976 158.539Z" fill="white" stroke="#0F3644" stroke-width="2" stroke-linecap="round" stroke-linejoin="round"/>
<path d="M139.406 123.168L109.404 141.712L113.308 148.028L143.31 129.484L139.406 123.168Z" fill="#CBDEE5"/>
<path d="M109.323 141.729C109.15 141.745 103.382 149.762 103.382 149.762L113.226 148.042L109.323 141.729Z" fill="white"/>
<path d="M139.406 123.168L109.404 141.712L113.308 148.028L143.31 129.484L139.406 123.168Z" stroke="#0F3644" stroke-width="2" stroke-linecap="round" stroke-linejoin="round"/>
<path d="M142.555 121.248L139.397 123.2L143.3 129.516L146.459 127.564L142.555 121.248Z" fill="white"/>
<path d="M142.555 121.248L139.397 123.2L143.3 129.516L146.459 127.564L142.555 121.248Z" stroke="#0F3644" stroke-width="2" stroke-linecap="round" stroke-linejoin="round"/>
<path d="M148.743 126.095C149.58 125.577 150.177 124.748 150.403 123.791C150.629 122.833 150.465 121.824 149.948 120.987C149.43 120.15 148.601 119.553 147.643 119.327C146.685 119.101 145.677 119.265 144.84 119.782L142.463 121.245L146.366 127.558L148.743 126.095Z" fill="white"/>
<path d="M148.743 126.095C149.58 125.577 150.177 124.748 150.403 123.791C150.629 122.833 150.465 121.824 149.948 120.987C149.43 120.15 148.601 119.553 147.643 119.327C146.685 119.101 145.677 119.265 144.84 119.782L142.463 121.245L146.366 127.558L148.743 126.095Z" stroke="#0F3644" stroke-width="2" stroke-linecap="round" stroke-linejoin="round"/>
<path d="M103.38 149.762L101.8 150.735" stroke="#0F3644" stroke-width="2" stroke-linecap="round" stroke-linejoin="round"/>
<path d="M109.323 141.729C109.15 141.745 103.382 149.762 103.382 149.762L113.226 148.042L109.323 141.729Z" stroke="#0F3644" stroke-width="2" stroke-linecap="round" stroke-linejoin="round"/>
<path d="M138.17 132.899C137.115 134.254 135.619 135.198 133.942 135.567C132.264 135.937 130.511 135.708 128.984 134.921L119.802 131.049C119.399 130.872 118.965 130.777 118.525 130.769C118.085 130.761 117.648 130.841 117.239 131.003C116.83 131.166 116.458 131.408 116.143 131.717C115.829 132.025 115.579 132.392 115.408 132.798C115.238 133.203 115.149 133.639 115.148 134.079C115.148 134.519 115.234 134.955 115.404 135.361C115.573 135.767 115.822 136.136 116.135 136.445C116.448 136.754 116.819 136.998 117.228 137.162C130.495 146.602 133.158 147.772 136.378 148.913" fill="white"/>
<path d="M138.17 132.899C137.115 134.254 135.619 135.198 133.942 135.567C132.264 135.937 130.511 135.708 128.984 134.921L119.802 131.049C119.399 130.872 118.965 130.777 118.525 130.769C118.085 130.761 117.648 130.841 117.239 131.003C116.83 131.166 116.458 131.408 116.143 131.717C115.829 132.025 115.579 132.392 115.408 132.798C115.238 133.203 115.149 133.639 115.148 134.079C115.148 134.519 115.234 134.955 115.404 135.361C115.573 135.767 115.822 136.136 116.135 136.445C116.448 136.754 116.819 136.998 117.228 137.162C130.495 146.602 133.158 147.772 136.378 148.913" stroke="#0F3644" stroke-width="2" stroke-linecap="round" stroke-linejoin="round"/>
<path d="M138.17 132.899C137.115 134.254 135.619 135.198 133.942 135.567C132.264 135.937 130.511 135.708 128.984 134.921L119.802 131.049C119.399 130.872 118.965 130.777 118.525 130.769C118.085 130.761 117.648 130.841 117.239 131.003C116.83 131.166 116.458 131.408 116.143 131.717C115.829 132.025 115.579 132.392 115.408 132.798C115.238 133.203 115.149 133.639 115.148 134.079C115.148 134.519 115.234 134.955 115.404 135.361C115.573 135.767 115.822 136.136 116.135 136.445C116.448 136.754 116.819 136.998 117.228 137.162C130.495 146.602 133.158 147.772 136.378 148.913" fill="white"/>
<path d="M138.17 132.899C137.115 134.254 135.619 135.198 133.942 135.567C132.264 135.937 130.511 135.708 128.984 134.921L119.802 131.049C119.399 130.872 118.965 130.777 118.525 130.769C118.085 130.761 117.648 130.841 117.239 131.003C116.83 131.166 116.458 131.408 116.143 131.717C115.829 132.025 115.579 132.392 115.408 132.798C115.238 133.203 115.149 133.639 115.148 134.079C115.148 134.519 115.234 134.955 115.404 135.361C115.573 135.767 115.822 136.136 116.135 136.445C116.448 136.754 116.819 136.998 117.228 137.162C130.495 146.602 133.158 147.772 136.378 148.913" stroke="#0F3644" stroke-width="2" stroke-linecap="round" stroke-linejoin="round"/>
</svg>
