<?xml version="1.0" encoding="utf-8"?>
<!-- Generator: Adobe Illustrator 25.2.0, SVG Export Plug-In . SVG Version: 6.00 Build 0)  -->
<svg version="1.1" id="Layer_1" xmlns="http://www.w3.org/2000/svg" xmlns:xlink="http://www.w3.org/1999/xlink" x="0px" y="0px"
	 viewBox="0 0 7820 1692.3" style="enable-background:new 0 0 7820 1692.3;" xml:space="preserve">
<style type="text/css">
	.st0{fill:#FFFFFF;}
</style>
<title>Asset 9</title>
<g>
	<g>
		<path class="st0" d="M195.8,1065.3c0,282,125.9,456.8,321.7,456.8c202.8,0,333.3-179.5,333.3-456.8
			c0-277.4-130.5-454.6-333.3-454.6C321.7,610.7,195.8,785.6,195.8,1065.3 M209.8,638.7C275,519.8,412.6,445.2,571.1,445.2
			c300.7,0,494.2,242.4,494.2,620.1c0,377.6-193.5,622.3-496.5,622.3c-158.5,0-298.4-76.9-361.3-200.5h-4.7v172.5H0V0h205.1v638.7
			H209.8z"/>
	</g>
	<rect x="1205" class="st0" width="205.1" height="1659.7"/>
	<g>
		<path class="st0" d="M1601.3,1198.1V475.5h205.1v706.3c0,247.1,102.5,335.7,272.7,335.7c165.5,0,307.7-125.9,307.7-363.6V475.5
			h205.1v1184.1h-198.1v-156.2h-4.7c-72.3,109.6-202.8,181.8-361.3,181.8C1757.4,1685.3,1601.3,1522.1,1601.3,1198.1"/>
		<path class="st0" d="M2915.8,953.4h680.7c-21-230.8-156.2-352-338-352C3069.7,601.4,2936.8,727.2,2915.8,953.4 M3577.8,1305.3
			h209.8c-39.6,207.5-219.1,387-522.1,387c-349.7,0-557.1-254.1-557.1-641.1c0-349.6,205.1-608.4,550.1-608.4
			c268,0,456.9,158.5,517.5,412.6c16.3,67.6,23.3,151.5,23.3,254.1h-885.8c9.3,291.4,158.5,424.2,352,424.2
			C3438,1533.8,3549.9,1438.2,3577.8,1305.3"/>
	</g>
	<polygon class="st0" points="3939.1,0 3939.1,1659.7 4144.2,1659.7 4144.2,1067.6 4148.9,1067.6 4673.3,1659.7 4943.7,1659.7 
		4349.3,1011.6 4880.8,475.5 4626.7,475.5 4148.9,967.4 4144.2,967.4 4144.2,0 	"/>
	<g>
		<path class="st0" d="M5032.2,953.4h680.7c-21-230.8-156.2-352-338-352C5186.1,601.4,5053.2,727.2,5032.2,953.4 M5694.3,1305.3
			h209.8c-39.6,207.5-219.1,387-522.1,387c-349.7,0-557.1-254.1-557.1-641.1c0-349.6,205.1-608.4,550.1-608.4
			c268,0,456.9,158.5,517.5,412.6c16.3,67.6,23.3,151.5,23.3,254.1h-885.8c9.3,291.4,158.5,424.2,352,424.2
			C5554.4,1533.8,5666.3,1438.2,5694.3,1305.3"/>
		<path class="st0" d="M6691.8,473.2v184.1c-25.7-2.3-56-7-81.6-7c-223.8,0-349.6,144.5-349.6,405.6v603.7h-205.1V475.5h195.8v181.8
			h4.7c79.3-130.5,198.1-193.5,349.6-193.5C6631.2,463.8,6666.2,466.2,6691.8,473.2"/>
		<path class="st0" d="M7820,937v722.6h-205.1V953.3c0-247.1-102.5-335.6-272.7-335.6c-167.8,0-307.7,125.9-307.7,363.6v678.3
			h-205.1V475.5h198.1v156.2h4.7c72.3-109.5,200.5-181.8,359-181.8C7661.5,449.9,7820,613,7820,937"/>
	</g>
</g>
</svg>
