<svg xmlns="http://www.w3.org/2000/svg" width="74.936" height="42.693" viewBox="0 0 74.936 42.693">
  <g id="check_ticket" transform="translate(-646.838 -554.307)">
    <g id="Group_95091" data-name="Group 95091" transform="translate(290)">
      <path id="Path_155691" data-name="Path 155691" d="M2664.273,1752.048v-16.241h-71.936V1746.4s7.823-1.03,7.823,7.823-7.823,7.823-7.823,7.823v9.715h45.7" transform="translate(-2234 -1180)" fill="none" stroke="#fff" stroke-linecap="round" stroke-linejoin="round" stroke-width="3"/>
    </g>
    <g id="Group_95092" data-name="Group 95092" transform="translate(-21 -2.763)">
      <path id="Path_155692" data-name="Path 155692" d="M43.2,20.548h.11a.188.188,0,0,0,.192-.192V18.707a1.948,1.948,0,0,1,1.319-1.758c1.291-.742,3.737-2.28,3.737-4.808,0-2.28-1.978-4.039-4.918-4.039a6.211,6.211,0,0,0-5.138,2.473c-.082.137,0,.165.055.22l.137.11a.152.152,0,0,0,.22-.055A5.7,5.7,0,0,1,43.644,8.6c2.665,0,4.451,1.539,4.451,3.544,0,2.253-2.253,3.709-3.489,4.368a2.516,2.516,0,0,0-1.594,2.2v1.648A.188.188,0,0,0,43.2,20.548Z" transform="translate(687 571)" fill="#fff" stroke="#fff" stroke-width="3"/>
      <circle id="Ellipse_11812" data-name="Ellipse 11812" cx="2" cy="2" r="2" transform="translate(728.5 595.763)" fill="#fff"/>
    </g>
  </g>
</svg>
