<svg id="logo" xmlns="http://www.w3.org/2000/svg" width="131.625" height="28.484" viewBox="0 0 131.625 28.484">
  <g id="Group_31352" data-name="Group 31352">
    <path id="Path_49242" data-name="Path 49242" d="M3.3,17.931c0,4.747,2.119,7.689,5.415,7.689,3.413,0,5.61-3.021,5.61-7.689s-2.2-7.652-5.61-7.652c-3.3,0-5.415,2.944-5.415,7.652m.236-7.18A6.788,6.788,0,0,1,9.613,7.494c5.061,0,8.318,4.08,8.318,10.437S14.674,28.405,9.574,28.405a6.68,6.68,0,0,1-6.081-3.375H3.413v2.9H0V0H3.452V10.75Z" fill="#fff"/>
  </g>
  <rect id="Rectangle_19635" data-name="Rectangle 19635" width="3.452" height="27.936" transform="translate(20.282)" fill="#fff"/>
  <g id="Group_31353" data-name="Group 31353" transform="translate(26.953 7.453)">
    <path id="Path_49243" data-name="Path 49243" d="M1601.3,487.663V475.5h3.452v11.888c0,4.159,1.725,5.65,4.589,5.65,2.786,0,5.18-2.119,5.18-6.12V475.5h3.452V495.43h-3.334V492.8h-.079a7.133,7.133,0,0,1-6.081,3.06c-4.551,0-7.179-2.745-7.179-8.2" transform="translate(-1601.3 -474.949)" fill="#fff"/>
    <path id="Path_49244" data-name="Path 49244" d="M2711.891,451.394h11.458c-.354-3.885-2.63-5.925-5.69-5.925-3.178,0-5.415,2.117-5.768,5.925m11.142,5.923h3.531c-.667,3.493-3.688,6.514-8.788,6.514-5.886,0-9.377-4.277-9.377-10.791,0-5.884,3.453-10.24,9.26-10.24a8.529,8.529,0,0,1,8.71,6.945,18.655,18.655,0,0,1,.392,4.277h-14.909c.156,4.9,2.668,7.14,5.925,7.14,2.9,0,4.787-1.607,5.257-3.845" transform="translate(-2689.765 -442.8)" fill="#fff"/>
  </g>
  <path id="Path_49245" data-name="Path 49245" d="M3939.1,0V27.936h3.452V17.97h.08l8.826,9.966h4.551l-10-10.909L3954.951,8h-4.277l-8.042,8.28h-.08V0Z" transform="translate(-3872.799)" fill="#fff"/>
  <g id="Group_31354" data-name="Group 31354" transform="translate(81.212 7.453)">
    <path id="Path_49246" data-name="Path 49246" d="M4828.389,451.394h11.457c-.353-3.885-2.628-5.925-5.688-5.925-3.178,0-5.415,2.117-5.769,5.925m11.145,5.923h3.531c-.666,3.493-3.687,6.514-8.787,6.514-5.886,0-9.378-4.277-9.378-10.791,0-5.884,3.453-10.24,9.26-10.24a8.527,8.527,0,0,1,8.709,6.945,18.648,18.648,0,0,1,.393,4.277h-14.909c.155,4.9,2.668,7.14,5.925,7.14,2.9,0,4.785-1.607,5.256-3.845" transform="translate(-4824.899 -442.8)" fill="#fff"/>
    <path id="Path_49247" data-name="Path 49247" d="M6066.21,463.958v3.1c-.433-.039-.942-.118-1.374-.118-3.767,0-5.885,2.432-5.885,6.827v10.161H6055.5V464h3.295v3.06h.08a6.477,6.477,0,0,1,5.885-3.257,6.086,6.086,0,0,1,1.45.158" transform="translate(-6034.787 -463.446)" fill="#fff"/>
    <path id="Path_49248" data-name="Path 49248" d="M6846.073,458.1v12.163h-3.452V458.373c0-4.159-1.725-5.649-4.591-5.649-2.823,0-5.178,2.119-5.178,6.12v11.417H6829.4V450.331h3.334v2.629h.081a7.064,7.064,0,0,1,6.042-3.06c4.55,0,7.217,2.745,7.217,8.2" transform="translate(-6795.659 -449.781)" fill="#fff"/>
  </g>
</svg>
