<svg xmlns="http://www.w3.org/2000/svg" width="34.696" height="36.066" viewBox="0 0 34.696 36.066">
  <path id="Path_155694" data-name="Path 155694" d="M240.11,201.367a20.533,20.533,0,0,1,.62-3.962c.034-.138.138-.413.207-.655.138-.413.413-1.171.551-1.482a21.37,21.37,0,0,1,2.033-3.549c.241-.345.482-.655.517-.689s.241-.276.448-.517a12.8,12.8,0,0,1,1.55-1.516,2,2,0,0,0,.379-.345c.035-.034.207-.172.379-.31s.31-.241.344-.276a11.319,11.319,0,0,1,1.275-.827.12.12,0,0,0,.069-.034A12.78,12.78,0,0,1,250.86,186a1.767,1.767,0,0,1,.345-.138.913.913,0,0,1,.345-.1c.069,0,.1-.034.138-.034s.207-.1.413-.172.482-.138.586-.172a15.934,15.934,0,0,1,3-.586,30.5,30.5,0,0,1,3.549,0,15.388,15.388,0,0,1,3,.586c.1.034.379.1.586.172s.413.138.413.172.069.034.138.034a.913.913,0,0,1,.345.1,1.163,1.163,0,0,0,.345.138,17.409,17.409,0,0,1,2.377,1.206c0,.034.034.034.069.034.069,0,1.137.724,1.275.827a3.783,3.783,0,0,1,.345.276,1.279,1.279,0,0,1,.379.31,5.051,5.051,0,0,0,.379.345,21.4,21.4,0,0,1,1.551,1.516,5.536,5.536,0,0,1,.448.517c0,.034.276.345.517.689a20.051,20.051,0,0,1,2.033,3.549c.138.31.413,1.068.551,1.482.069.241.172.517.207.655a20.536,20.536,0,0,1,.62,3.962v.172H240.145v-.172Zm16.367-19.123a8.472,8.472,0,0,1-7.339-6.822,9.164,9.164,0,0,1,0-3.066,8.53,8.53,0,0,1,6.753-6.753,9.161,9.161,0,0,1,3.067,0,8.53,8.53,0,0,1,6.753,6.753,9.162,9.162,0,0,1,0,3.066,8.237,8.237,0,0,1-2.343,4.41,8.389,8.389,0,0,1-4.376,2.343,12.351,12.351,0,0,1-2.515.069Z" transform="translate(-240.11 -165.474)"/>
</svg>
