<svg class="custom-block__icon" xmlns="http://www.w3.org/2000/svg" width="98" height="98" viewBox="0 0 98 98" xmlns:xlink="http://www.w3.org/1999/xlink">
    <defs>
        <path id="c" d="M435,576 C435,576 571.772295,537.153456 825.5,547.5 C1079.22771,557.846544 1244,571.5 1606,607.5 C1968,643.5 2335,576 2335,576 L2335,1170 L435,1170 L435,576 Z" />
        <rect id="f" width="270" height="270" rx="8" />
        <linearGradient id="h" x1="0%" x2="97.178%" y1="0%" y2="100%">
            <stop stop-color="#504D7F" offset="0%" />
            <stop stop-color="#3C3A5E" offset="100%" />
        </linearGradient>
        <path id="g" d="M0,34.0063161 C0,30.6891193 2.20638385,26.4606624 4.92216725,24.5659298 L38.0778328,1.43407017 C40.7962707,-0.462514413 45.2063839,-0.460662428 47.9221672,1.43407017 L81.0778328,24.5659298 C83.7962707,26.4625144 86,30.6882172 86,34.0063161 L86,71.9936839 C86,75.3108807 83.3080675,78 80.0038876,78 L5.99611244,78 C2.68455098,78 0,75.3117828 0,71.9936839 L0,34.0063161 Z" />
        <rect id="i" width="70" height="62" x="8" y="7" rx="3" />
        <polygon id="j" points="0 40 43 54.431 0 72" />
        <polygon id="k" points="86 40 43 54.431 86 72" />
        <path id="l" d="M0,71.0003297 C0,69.3432934 1.21764088,67.4336554 2.72246404,66.7337377 L37.5540203,50.5330138 C40.5617518,49.1340689 45.4350702,49.1325908 48.4459797,50.5330138 L83.277536,66.7337377 C84.7811113,67.433075 86,69.3486445 86,71.0003297 L86,72.009763 C86,75.3180795 83.3080675,78 80.0038876,78 L5.99611244,78 C2.68455098,78 0,75.3201835 0,72.009763 L0,71.0003297 Z" />
    </defs>
    <g fill="none" fill-rule="evenodd" transform="translate(-1057 -555)">
        <g transform="translate(965 510)">
            <use xlink:href="#f" />
            <use fill="#FFFFFF" xlink:href="#f" />
            <g transform="translate(98 55)">
                <use fill="#FFFFFF" xlink:href="#g" />
                <path class="icon-color-stroke-primary icon-color-fill" stroke="url(#h)" stroke-width="2" d="M1,34.0063161 L1,71.9936839 C1,74.7595436 3.23688236,77 5.99611244,77 L80.0038876,77 C82.7581417,77 85,74.7562347 85,71.9936839 L85,34.0063161 C85,31.0153301 82.95622,27.0957559 80.5056512,25.3860568 L47.3499857,2.25419713 C44.9770003,0.598625959 41.0237359,0.598112337 38.6500143,2.25419713 L5.49434884,25.3860568 C3.04575166,27.0943804 1,31.0170651 1,34.0063161 Z" />
                <use fill="#FFFFFF" xlink:href="#i" />
                <rect fill="#FFFFFF" class="icon-color-stroke-primary" width="68" height="60" x="9" y="8" stroke="url(#h)" stroke-width="2" rx="3" />
                <rect class="icon-color-fill-secondary" width="50" height="2" x="18" y="17" fill="#FFA15A" rx="1" />
                <rect class="icon-color-fill-secondary" width="40" height="2" x="18" y="27" fill="#FFA15A" rx="1" />
                <rect class="icon-color-fill-secondary" width="45" height="2" x="18" y="37" fill="#FFA15A" rx="1" />
                <use fill="#FFFFFF" xlink:href="#j" />
                <path fill="#FFFFFF" class="icon-color-stroke-primary" stroke="url(#h)" stroke-width="2" d="M1,41.3904291 L1,70.5111811 L40.1310106,54.5233173 L1,41.3904291 Z" />
                <g>
                    <use fill="#FFFFFF" xlink:href="#k" />
                    <path fill="#FFFFFF" class="icon-color-stroke-primary" stroke="url(#h)" stroke-width="2" d="M85,41.3904291 L45.8689894,54.5233173 L85,70.5111811 L85,41.3904291 Z" />
                </g>
                <g>
                    <use fill="#FFFFFF" xlink:href="#l" />
                    <path class="icon-color-stroke-primary" stroke="url(#h)" stroke-width="2" d="M1,71.0003297 L1,72.009763 C1,74.7668982 3.2358346,77 5.99611244,77 L80.0038876,77 C82.7587414,77 85,74.7628399 85,72.009763 L85,71.0003297 C85,69.7357201 84.0049486,68.174944 82.8558052,67.6404588 L48.024249,51.4397349 C45.2818676,50.1642087 40.7172122,50.1646367 37.975751,51.4397349 L3.14419479,67.6404588 C1.99245655,68.176151 1,69.7318557 1,71.0003297 Z" />
                </g>
            </g>
        </g>
    </g>
</svg>