<svg class="custom-block__icon" xmlns="http://www.w3.org/2000/svg" width="98" height="98" viewBox="0 0 98 98" xmlns:xlink="http://www.w3.org/1999/xlink">
    <defs>
        <path id="c" d="M435,576 C435,576 571.772295,537.153456 825.5,547.5 C1079.22771,557.846544 1244,571.5 1606,607.5 C1968,643.5 2335,576 2335,576 L2335,1170 L435,1170 L435,576 Z" />
        <filter id="b" width="106.3%" height="119.2%" x="-3.2%" y="-14.4%" filterUnits="objectBoundingBox">
            <feOffset dy="-30" in="SourceAlpha" result="shadowOffsetOuter1" />
            <feGaussianBlur stdDeviation="15" in="shadowOffsetOuter1" result="shadowBlurOuter1" />
            <feColorMatrix values="0 0 0 0 0.239215686 0 0 0 0 0.22745098 0 0 0 0 0.37254902 0 0 0 0.2 0" in="shadowBlurOuter1" />
        </filter>
        <rect id="f" width="270" height="270" rx="8" />
        <filter id="e" width="131.5%" height="131.5%" x="-15.7%" y="-12%" filterUnits="objectBoundingBox">
            <feOffset dy="10" in="SourceAlpha" result="shadowOffsetOuter1" />
            <feGaussianBlur stdDeviation="12.5" in="shadowOffsetOuter1" result="shadowBlurOuter1" />
            <feColorMatrix values="0 0 0 0 0.243137255 0 0 0 0 0.235294118 0 0 0 0 0.384313725 0 0 0 0.0878623188 0" in="shadowBlurOuter1" />
        </filter>
        <rect id="g" width="80" height="50" x="3" rx="6" />
        <path id="h" d="M1.78989821e-13,60 L86,60 L86,65.5 C86,68.5375661 83.5418753,71 80.5059158,71 L5.49408424,71 C2.4597853,71 1.53870445e-13,68.5313853 1.62795902e-13,65.5 L1.78989821e-13,60 Z" />
        <path id="i" d="M2.34731462,47.9510689 C2.6i7328069,46.3212385 4.27587311,45 5.92761581,45 L79.947441,45 C81.5988207,45 83.1999796,46.3122559 83.5277422,47.9510689 L85.7590311,59.1075134 C86.4098972,62.3618439 84.2558136,65 80.9408518,65 L4.93420502,65 C1.62233197,65 -0.53542821,62.364783 0.116025709,59.1075134 L2.34731462,47.9510689 Z" />
        <path id="j" d="M33.8338738,57.8976712 C34.1832254,56.8496163 35.3609446,56 36.4604911,56 L48.4723706,56 C49.5736596,56 50.7486636,56.8466982 51.0989879,57.8976712 L52.8338738,63.1023288 C53.1832254,64.1503837 52.5767569,65 51.4752758,65 L33.4575858,65 C32.3579013,65 31.7486636,64.1533018 32.0989879,63.1023288 L33.8338738,57.8976712 Z" />
    </defs>
    <g fill="none" fill-rule="evenodd" transform="translate(-457 -558)">
        <g transform="translate(365 510)">
            <use xlink:href="#f" />
            <use fill="#FFFFFF" xlink:href="#f" />
            <g transform="translate(98 62)">
                <use fill="#FFFFFF" xlink:href="#g" />
                <rect class="icon-color-stroke-primary" width="78" height="48" x="4" y="1" stroke="#504D7F" stroke-width="2" rx="6" />
                <rect class="icon-color-fill-secondary" width="58" height="2" x="14" y="11" fill="#FFA15A" rx="1" />
                <rect class="icon-color-fill-secondary" width="35" height="2" x="14" y="23" fill="#FFA15A" rx="1" />
                <rect class="icon-color-fill-secondary" width="39" height="2" x="14" y="35" fill="#FFA15A" rx="1" />
                <use fill="#F8F8F8" xlink:href="#h" />
                <path class="icon-color-stroke-primary" stroke="#504D7F" stroke-width="2" d="M1,61 L1,65.5 C1,67.9816494 3.01461582,70 5.49408424,70 L80.5059158,70 C82.9887292,70 85,67.9861431 85,65.5 L85,61 L1,61 Z" />
                <use class="icon-color-fill" fill="#F8F8F8" xlink:href="#i" />
                <path class="icon-color-stroke-primary" stroke="#504D7F" stroke-width="2" d="M3.3278953,48.147185 L1.09660639,59.3036296 C0.569013609,61.9415934 2.25285728,64 4.93420502,64 L80.9408518,64 C83.6229814,64 85.3059084,61.9409197 84.7784504,59.3036296 L82.5471615,48.147185 C82.3133575,46.978165 81.1245381,46 79.947441,46 L5.92761581,46 C4.75380868,46 3.56062119,46.9835555 3.3278953,48.147185 Z" />
                <g>
                    <use fill="#FFFFFF" xlink:href="#j" />
                    <path class="icon-color-stroke-primary" stroke="#504D7F" stroke-width="2" d="M34.7825571,58.213899 L33.0476712,63.4185566 C32.913134,63.8221683 33.0406472,64 33.4575858,64 L51.4752758,64 C51.8917344,64 52.0194751,63.8214104 51.8851905,63.4185566 L50.1503046,58.213899 C49.9363352,57.5719909 49.1439883,57 48.4723706,57 L36.4604911,57 C35.7911411,57 34.9957199,57.5744105 34.7825571,58.213899 Z" />
                </g>
                <path class="icon-color-fill-primary" fill="#504D7F" d="M62.070328,31.0361031 L62.070328,30.1436465 C62.070328,29.3717884 62.2351494,28.7004426 62.5647972,28.1295892 C62.8944449,27.5587358 63.4974501,26.9517106 64.3738307,26.3084954 C65.2180506,25.7054813 65.7748253,25.2150371 66.0441717,24.8371482 C66.313518,24.4592593 66.4481892,24.0371557 66.4481892,23.5708247 C66.4481892,23.0482124 66.2552275,22.650229 65.8692984,22.3768626 C65.4833693,22.1034961 64.9446847,21.966815 64.2532285,21.966815 C63.0472001,21.966815 61.6723484,22.3607783 60.128632,23.1487169 L58.8140677,20.5075279 C60.6070299,19.5025043 62.5085061,19 64.5185534,19 C66.1748324,19 67.4913936,19.3979834 68.4682766,20.1939621 C69.4451596,20.9899409 69.9335937,22.0512299 69.9335937,23.3778611 C69.9335937,24.2622819 69.732592,25.0260885 69.3305826,25.6693036 C68.9285731,26.3125187 68.1647666,27.0361249 67.0391401,27.8401438 C66.2672819,28.4109973 65.7788478,28.845161 65.573823,29.142648 C65.3687981,29.440135 65.2662873,29.8300783 65.2662873,30.3124897 L65.2662873,31.0361031 L62.070328,31.0361031 Z M61.6844009,35.1606995 C61.6844009,34.4853236 61.8653024,33.9747793 62.2271109,33.6290511 C62.5889194,33.283323 63.1155439,33.1104615 63.8070002,33.1104615 C64.4743359,33.1104615 64.9909103,33.287343 65.3567389,33.6411113 C65.7225675,33.9948797 65.9054791,34.501404 65.9054791,35.1606995 C65.9054791,35.7958745 65.7205575,36.2963687 65.3507088,36.6621973 C64.9808601,37.0280259 64.4662957,37.2109375 63.8070002,37.2109375 C63.1316243,37.2109375 62.6090199,37.032046 62.2391712,36.6742576 C61.8693224,36.3164691 61.6844009,35.8119548 61.6844009,35.1606995 Z" />
            </g>
        </g>
    </g>
</svg>