<svg xmlns="http://www.w3.org/2000/svg" width="15.559" height="15.559" viewBox="0 0 15.559 15.559">
  <g id="arrow-up-short" transform="translate(5.659 -14.316) rotate(45)">
    <path id="Path_73" data-name="Path 73" d="M17.875,12.375a1,1,0,0,1,1,1v10a1,1,0,1,1-2,0v-10A1,1,0,0,1,17.875,12.375Z" transform="translate(-0.751 -0.25)" fill="#0da07c" fill-rule="evenodd"/>
    <path id="Path_74" data-name="Path 74" d="M16.416,10.417a1,1,0,0,1,1.416,0l6,6a1,1,0,0,1-1.416,1.416l-5.291-5.294-5.292,5.293a1,1,0,0,1-1.416-1.416l6-6Z" fill="#0da07c" fill-rule="evenodd"/>
  </g>
</svg>
