<svg xmlns="http://www.w3.org/2000/svg" xmlns:xlink="http://www.w3.org/1999/xlink" width="22" height="22" viewBox="0 0 22 22">
  <defs>
    <clipPath id="clip-path">
      <path id="Path_55" data-name="Path 55" d="M0,0H22V22H0Z" transform="translate(139)" fill="#0da07c"/>
    </clipPath>
  </defs>
  <g id="Mask_Group_5" data-name="Mask Group 5" transform="translate(-139)" clip-path="url(#clip-path)">
    <g id="__TEMP__SVG__" transform="translate(139)">
      <path id="Path_56" data-name="Path 56" d="M11,20.625A9.625,9.625,0,1,0,1.375,11,9.625,9.625,0,0,0,11,20.625ZM11,22A11,11,0,1,0,0,11,11,11,0,0,0,11,22Z" fill="#0da07c" fill-rule="evenodd"/>
      <path id="Path_57" data-name="Path 57" d="M15.084,6.833a1.031,1.031,0,1,1,1.473,1.444l-5.489,6.861a1.032,1.032,0,0,1-1.485.028L5.945,11.528A1.032,1.032,0,1,1,7.4,10.07l2.88,2.878,4.775-6.084a.325.325,0,0,1,.028-.03Z" fill="#0da07c" fill-rule="evenodd"/>
    </g>
  </g>
</svg>
