<svg width="130" height="36" viewBox="0 0 130 36" fill="none" xmlns="http://www.w3.org/2000/svg">
<g clip-path="url(#clip0_1077_2918)">
<path d="M63.2453 28.4753C63.082 28.1485 62.9492 27.565 62.8471 26.7248C61.5304 28.0931 59.9579 28.7772 58.1296 28.7772C56.4968 28.7772 55.1572 28.3153 54.1108 27.3915C53.6049 26.9589 53.2015 26.4191 52.93 25.8113C52.6585 25.2035 52.5257 24.5429 52.5413 23.8774C52.5413 22.1522 53.1972 20.8121 54.5091 19.8572C55.8209 18.9022 57.6662 18.4252 60.0449 18.4262H62.8077V17.1235C62.8077 16.1326 62.5121 15.3439 61.9208 14.7575C61.3296 14.1711 60.4543 13.8793 59.2951 13.8823C58.2838 13.8823 57.4367 14.1375 56.754 14.6481C56.0714 15.1586 55.731 15.7762 55.7329 16.5007H52.8782C52.8782 15.674 53.17 14.8752 53.7535 14.104C54.3806 13.3008 55.2026 12.6711 56.1414 12.2747C57.1879 11.8163 58.3204 11.587 59.4629 11.6023C61.3709 11.6023 62.8666 12.0798 63.9499 13.0347C65.0332 13.9897 65.5944 15.3026 65.6333 16.9733V24.5995C65.6333 26.1204 65.8278 27.3302 66.2168 28.2288V28.4738L63.2453 28.4753ZM58.5439 26.3164C59.4325 26.316 60.3049 26.0778 61.0704 25.6264C61.8189 25.2208 62.4252 24.5957 62.8077 23.8351V20.4363H60.5803C57.1095 20.4363 55.3741 21.452 55.3741 23.4836C55.3741 24.3705 55.6702 25.0643 56.2625 25.5651C56.8547 26.066 57.6152 26.3164 58.5439 26.3164Z" fill="#1E3139"/>
<path d="M78.3931 24.0804C78.4082 23.7347 78.337 23.3906 78.186 23.0792C78.035 22.7677 77.8089 22.4988 77.5281 22.2964C76.9534 21.8773 75.9474 21.5121 74.51 21.2009C73.0727 20.8897 71.9349 20.5226 71.0966 20.0996C70.2535 19.6707 69.6306 19.1602 69.228 18.5679C68.8143 17.9421 68.6029 17.2042 68.6226 16.4542C68.6226 15.0928 69.1969 13.9443 70.3454 13.0087C71.4939 12.0732 72.9614 11.6045 74.7478 11.6025C76.6266 11.6025 78.1505 12.0888 79.3194 13.0613C79.8787 13.5043 80.3277 14.0708 80.6314 14.7164C80.9351 15.362 81.0852 16.0692 81.0699 16.7825H78.2239C78.2239 16.0045 77.8947 15.3354 77.2364 14.7753C76.578 14.2151 75.7485 13.9345 74.7478 13.9336C73.716 13.9336 72.9098 14.1582 72.3292 14.6075C72.0521 14.8085 71.8277 15.0737 71.6753 15.3803C71.5229 15.6869 71.4469 16.0259 71.454 16.3682C71.454 17.0489 71.7244 17.5643 72.2651 17.9144C72.8058 18.2645 73.7865 18.5947 75.2073 18.9049C76.6213 19.2219 77.7674 19.5997 78.6455 20.0383C79.5236 20.4769 80.1742 21.005 80.5973 21.6225C81.0359 22.2927 81.2579 23.0815 81.2333 23.882C81.2517 24.5755 81.0992 25.2629 80.7894 25.8836C80.4796 26.5042 80.0218 27.0392 79.4565 27.4413C78.2721 28.335 76.7355 28.7819 74.847 28.7819C73.636 28.8057 72.4343 28.5653 71.3256 28.0773C70.3605 27.6551 69.531 26.974 68.929 26.1095C68.3635 25.3101 68.0597 24.3551 68.0596 23.3759H70.8895C70.8989 23.8138 71.0062 24.244 71.2036 24.635C71.401 25.026 71.6834 25.3678 72.0302 25.6354C72.7391 26.1907 73.6756 26.4688 74.8397 26.4698C75.9094 26.4698 76.7696 26.2525 77.4202 25.8178C78.0708 25.3831 78.3951 24.804 78.3931 24.0804Z" fill="#1E3139"/>
<path d="M87.4295 7.89453V11.906H90.5235V14.0941H87.431V24.381C87.431 25.0462 87.5686 25.5446 87.8438 25.8762C88.119 26.2078 88.5887 26.3741 89.2529 26.375C89.7072 26.3586 90.1587 26.2971 90.6008 26.1913V28.4741C89.8927 28.6727 89.1612 28.7752 88.4258 28.779C87.1616 28.779 86.2071 28.3964 85.5624 27.631C84.9176 26.8657 84.5962 25.778 84.5982 24.3679V14.097H81.5801V11.9089H84.5967V7.89745L87.4295 7.89453Z" fill="#1E3139"/>
<path d="M100.508 14.4485C100.048 14.3747 99.5818 14.3391 99.1153 14.342C97.2569 14.342 95.9961 15.1331 95.3328 16.7153V28.4756H92.5V11.906H95.257L95.3022 13.8213C96.2319 12.3421 97.5486 11.6025 99.2524 11.6025C99.8038 11.6025 100.222 11.6745 100.508 11.8184V14.4485Z" fill="#1E3139"/>
<path d="M104.859 28.4759H102.026V11.9062H104.859V28.4759Z" fill="#1E3139"/>
<path d="M109.456 28.4756V14.097H106.838V11.9089H109.456V10.2066C109.456 8.42984 109.931 7.0567 110.88 6.08714C111.829 5.11758 113.172 4.63134 114.908 4.62842C115.564 4.63078 116.218 4.71955 116.852 4.89245L116.706 7.1768C116.201 7.07922 115.689 7.03037 115.174 7.03093C114.255 7.03093 113.546 7.29982 113.046 7.8376C112.546 8.37538 112.296 9.14607 112.296 10.1497V11.9001H114.261L115.12 14.0882H112.289V28.4668L109.456 28.4756Z" fill="#1E3139"/>
<path d="M122.375 24.3258L126.234 11.9062H129.266L122.604 31.033C121.575 33.79 119.936 35.168 117.689 35.167L117.153 35.1218L116.097 34.9219V32.6259L116.863 32.6872C117.823 32.6872 118.57 32.4927 119.105 32.1037C119.64 31.7147 120.08 31.0077 120.427 29.9827L121.054 28.2979L115.147 11.9062H118.238L122.375 24.3258Z" fill="#1E3139"/>
<path d="M42.4967 18.0319C39.8409 17.2685 37.9076 16.3305 36.6968 15.218C36.1146 14.7027 35.6509 14.0674 35.3376 13.3558C35.0243 12.6441 34.869 11.8731 34.8822 11.0957C34.8822 9.24796 35.6218 7.71825 37.1009 6.50654C38.58 5.29483 40.5021 4.68946 42.8672 4.69043C44.4806 4.69043 45.9189 5.0026 47.1821 5.62693C48.3826 6.19552 49.3995 7.08957 50.1171 8.2074C50.8039 9.28086 51.1651 10.5303 51.1571 11.8046H48.0457C48.0457 10.3809 47.594 9.26254 46.6905 8.44955C45.7871 7.63656 44.5127 7.22909 42.8672 7.22714C41.3404 7.22714 40.1496 7.56411 39.2948 8.23804C38.44 8.91196 38.0116 9.84506 38.0097 11.0373C38.0097 11.9972 38.4152 12.8077 39.2263 13.469C40.0373 14.1303 41.4197 14.7366 43.3734 15.288C45.3252 15.8375 46.852 16.4428 47.9538 17.1041C49.0556 17.7654 49.8739 18.5371 50.4088 19.4191C50.9407 20.3012 51.2072 21.3388 51.2082 22.532C51.2082 24.4352 50.4657 25.9595 48.9807 27.1051C47.4957 28.2507 45.5119 28.8235 43.0291 28.8235C41.4733 28.8362 39.9323 28.5201 38.5071 27.8957C37.1097 27.2772 36.0317 26.4307 35.2731 25.3561C34.5161 24.2862 34.1178 23.0038 34.1353 21.6933H37.2482C37.2482 23.1141 37.7729 24.2353 38.8222 25.0571C39.8715 25.8788 41.2724 26.2902 43.0248 26.2912C44.6585 26.2912 45.9111 25.9581 46.7824 25.2919C47.6538 24.6258 48.0914 23.7165 48.0953 22.5641C48.0953 21.4147 47.6922 20.5248 46.886 19.8947C46.0798 19.2645 44.6167 18.6436 42.4967 18.0319Z" fill="#1E3139"/>
<path d="M101.792 7.62449C101.78 7.19899 101.93 6.78481 102.21 6.46481C102.491 6.14875 102.905 5.99072 103.455 5.99072C104.004 5.99072 104.421 6.14875 104.706 6.46481C104.992 6.78242 105.145 7.19747 105.134 7.62449C105.146 8.04739 104.993 8.45846 104.706 8.76958C104.421 9.07397 104.004 9.22616 103.455 9.22616C102.905 9.22616 102.491 9.07397 102.21 8.76958C101.929 8.45605 101.779 8.04586 101.792 7.62449Z" fill="#1E3139"/>
<g clip-path="url(#clip1_1077_2918)">
<path d="M10.837 22.2174C9.38349 22.2287 7.94331 21.9397 6.60671 21.3684C5.31949 20.8175 4.15211 20.0207 3.16997 19.0228C2.60786 18.4466 2.1104 17.8107 1.68645 17.1265C1.36526 17.6291 1.08524 18.157 0.849145 18.7048C0.283119 20.0357 -0.00479683 21.4684 0.00308734 22.9147V33.7515L11.562 22.1911C11.3169 22.2072 11.0806 22.2174 10.837 22.2174Z" fill="#FFCD3C"/>
<path d="M21.6985 22.915C21.7063 21.4687 21.4184 20.0361 20.8524 18.7051C20.6177 18.1613 20.3412 17.6365 20.0253 17.1355L20.0136 17.118C19.5906 16.4331 19.093 15.7972 18.5301 15.2217L11.5691 22.1812L11.5589 22.1914L0 33.7518H10.8616C12.3149 33.7639 13.7551 33.4759 15.0919 32.9057C16.3747 32.3573 17.5407 31.5685 18.5272 30.582C18.6483 30.4609 18.7664 30.3369 18.8802 30.2115C19.702 29.3067 20.3675 28.2715 20.8495 27.1482C21.421 25.8106 21.7101 24.3694 21.6985 22.915Z" fill="#F67031"/>
<path d="M21.6985 0.492676L10.1367 12.0545C10.3832 12.0384 10.6327 12.0268 10.8836 12.0268C12.337 12.0151 13.7771 12.3037 15.1139 12.8743C16.4007 13.4259 17.568 14.2226 18.5506 15.2199C19.112 15.7967 19.6094 16.4325 20.0341 17.1162C20.3553 16.6141 20.6363 16.0873 20.8744 15.5408C21.4407 14.2099 21.7291 12.7773 21.7219 11.331V0.492676H21.6985Z" fill="#35D0BA"/>
<path d="M10.8368 0.493096C9.38347 0.480116 7.94314 0.768182 6.60656 1.33915C4.01712 2.44468 1.95452 4.50729 0.848991 7.09672C0.290503 8.43408 0.00292969 9.86897 0.00292969 11.3183C0.00292969 12.7675 0.290503 14.2024 0.848991 15.5398C1.08689 16.0901 1.36783 16.6208 1.68921 17.1269C2.11316 17.8111 2.61062 18.447 3.17273 19.0232L10.1337 12.0637L10.1425 12.0549L21.7043 0.493096H10.8368Z" fill="#08A07C"/>
<path d="M11.5693 22.1809C11.3271 22.197 11.0835 22.2174 10.8399 22.2174C9.38642 22.2287 7.94624 21.9397 6.60964 21.3684C5.32242 20.8175 4.15504 20.0207 3.1729 19.0228C2.61079 18.4466 2.11333 17.8107 1.68938 17.1265C1.36819 17.6291 1.08817 18.157 0.852074 18.7048C0.286048 20.0357 -0.00186714 21.4684 0.00601702 22.9147V24.2275C7.35213 25.6614 11.5635 22.1853 11.5693 22.1809Z" fill="#F7DD0E"/>
<path d="M10.1504 12.075C10.394 12.059 10.6361 12.04 10.8798 12.04C12.3332 12.0282 13.7733 12.3167 15.11 12.8875C16.394 13.4394 17.5576 14.2372 18.5351 15.2361C19.1013 15.816 19.6022 16.4563 20.0288 17.1455C20.353 16.6375 20.6359 16.1043 20.8749 15.5511C21.4414 14.2203 21.7298 12.7877 21.7224 11.3413V10.0284C14.369 8.59451 10.1577 12.0706 10.1504 12.075Z" fill="#6DDFCE"/>
</g>
</g>
<defs>
<clipPath id="clip0_1077_2918">
<rect width="129.243" height="34.8634" fill="white" transform="translate(0 0.347168)"/>
</clipPath>
<clipPath id="clip1_1077_2918">
<rect width="21.7349" height="33.5506" fill="white" transform="translate(0 0.347168)"/>
</clipPath>
</defs>
</svg>
