<?xml version="1.0" encoding="UTF-8"?>
<svg width="210px" height="57px" viewBox="0 0 210 57" version="1.1" xmlns="http://www.w3.org/2000/svg" xmlns:xlink="http://www.w3.org/1999/xlink">
    <!-- Generator: Sketch 47.1 (45422) - http://www.bohemiancoding.com/sketch -->
    <title>logo</title>
    <desc>Created with Sketch.</desc>
    <defs>
        <polygon id="path-1" points="0 57 210 57 210 0 0 0"></polygon>
    </defs>
    <g id="Symbols" stroke="none" stroke-width="1" fill="none" fill-rule="evenodd">
        <g id="NAV/globalReversed">
            <g id="nav">
                <g id="logo">
                    <path d="M82.2981083,45.5586905 C84.1567732,45.5586905 85.3700805,44.2872591 85.3700805,42.5238891 L85.3700805,42.5 C85.3700805,40.7375147 84.1567732,39.4395399 82.2981083,39.4395399 L80.5551207,39.4395399 L80.5551207,45.5586905 L82.2981083,45.5586905 Z M79,38 L82.2981083,38 C85.0795825,38 87,39.9420959 87,42.4743413 L87,42.5 C87,45.0313606 85.0795825,47 82.2981083,47 L79,47 L79,38 Z" id="Fill-1" fill="#FEFEFE"></path>
                    <polygon id="Fill-3" fill="#FEFEFE" points="89 38 95.9337975 38 95.9337975 39.4138812 90.6431105 39.4138812 90.6431105 41.7532442 95.3333771 41.7532442 95.3333771 43.1671254 90.6431105 43.1671254 90.6431105 45.5843492 96 45.5843492 96 47 89 47"></polygon>
                    <polygon id="Fill-5" fill="#FEFEFE" points="98 38 99.4936823 38 104.413357 44.2226701 104.413357 38 106 38 106 47 104.648917 47 99.5866426 40.5977192 99.5866426 47 98 47"></polygon>
                    <polygon id="Fill-7" fill="#FEFEFE" points="109.735038 39.4651986 107 39.4651986 107 38 114 38 114 39.4651986 111.262418 39.4651986 111.262418 47 109.735038 47"></polygon>
                    <path d="M120.965777,43.4514838 L119.474121,39.8757321 L117.994343,43.4514838 L120.965777,43.4514838 Z M118.797869,38 L120.203828,38 L124,47 L122.397191,47 L121.520694,44.8413706 L117.441124,44.8413706 L116.552748,47 L115,47 L118.797869,38 Z" id="Fill-9" fill="#FEFEFE"></path>
                    <polygon id="Fill-11" fill="#FEFEFE" points="126 38 127.502733 38 127.502733 45.5586905 132 45.5586905 132 47 126 47"></polygon>
                    <path d="M138,45.5990444 L138.956444,44.4990922 C139.821333,45.2240803 140.685333,45.6360248 141.810667,45.6360248 C142.792,45.6360248 143.411556,45.19914 143.411556,44.5377926 L143.411556,44.5119924 C143.411556,43.8859054 143.050667,43.5496417 141.369778,43.1755375 C139.446222,42.7248925 138.360889,42.1744864 138.360889,40.5619685 L138.360889,40.5361682 C138.360889,39.0380315 139.652444,38 141.448,38 C142.767111,38 143.810667,38.3878643 144.728889,39.0999522 L143.876444,40.2626851 C143.060444,39.6761586 142.249778,39.3622551 141.424,39.3622551 C140.493333,39.3622551 139.949333,39.8240803 139.949333,40.4002867 L139.949333,40.4252269 C139.949333,41.0994744 140.364444,41.3996178 142.093333,41.7995222 C144.007111,42.2493072 145,42.9132346 145,44.3614907 L145,44.386431 C145,46.0238892 143.670222,47 141.770667,47 C140.389333,47 139.085333,46.5364548 138,45.5990444" id="Fill-13" fill="#FEFEFE"></path>
                    <polygon id="Fill-15" fill="#FEFEFE" points="147 38 153.933797 38 153.933797 39.4138812 148.64311 39.4138812 148.64311 41.7532442 153.332458 41.7532442 153.332458 43.1671254 148.64311 43.1671254 148.64311 45.5843492 154 45.5843492 154 47 147 47"></polygon>
                    <path d="M159.080176,42.4601848 C160.26567,42.4601848 161.021087,41.8691506 161.021087,40.9569406 L161.021087,40.9303972 C161.021087,39.9668698 160.293477,39.4395399 159.0672,39.4395399 L156.656355,39.4395399 L156.656355,42.4601848 L159.080176,42.4601848 Z M155,38 L159.201599,38 C160.387093,38 161.315838,38.3335627 161.922025,38.9007078 C162.420693,39.3873378 162.704322,40.0562328 162.704322,40.8410342 L162.704322,40.8666929 C162.704322,42.346048 161.773723,43.2325993 160.453829,43.5918207 L163,47 L161.047967,47 L158.730738,43.8616791 L158.703858,43.8616791 L156.656355,43.8616791 L156.656355,47 L155,47 L155,38 Z" id="Fill-17" fill="#FEFEFE"></path>
                    <polygon id="Fill-19" fill="#FEFEFE" points="164 38 165.773067 38 168.525586 44.8668489 171.266434 38 173 38 169.204289 47 167.796608 47"></polygon>
                    <mask id="mask-2" fill="white">
                        <use xlink:href="#path-1"></use>
                    </mask>
                    <g id="Clip-22"></g>
                    <polygon id="Fill-21" fill="#FEFEFE" mask="url(#mask-2)" points="175 47 177 47 177 38 175 38"></polygon>
                    <path d="M179,42.5235289 L179,42.5004278 C179,40.0269037 180.861706,38 183.511453,38 C185.12625,38 186.100979,38.5578477 186.938058,39.3535507 L185.949564,40.486358 C185.249274,39.8378173 184.499946,39.4040308 183.499409,39.4040308 C181.82439,39.4040308 180.611356,40.7704154 180.611356,42.47476 L180.611356,42.5004278 C180.611356,44.2030611 181.82439,45.5951136 183.499409,45.5951136 C184.573933,45.5951136 185.262179,45.1604715 186.013227,44.4640175 L187,45.4582185 C186.087214,46.4036505 185.089257,47 183.449511,47 C180.898699,47 179,45.0235764 179,42.5235289" id="Fill-23" fill="#FEFEFE" mask="url(#mask-2)"></path>
                    <polygon id="Fill-24" fill="#FEFEFE" mask="url(#mask-2)" points="189 38 195.933815 38 195.933815 39.4138812 190.644517 39.4138812 190.644517 41.7532442 195.332633 41.7532442 195.332633 43.1671254 190.644517 43.1671254 190.644517 45.5843492 196 45.5843492 196 47 189 47"></polygon>
                    <path d="M197,45.5990444 L197.956444,44.4990922 C198.821333,45.2240803 199.687111,45.6360248 200.810667,45.6360248 C201.793778,45.6360248 202.413333,45.19914 202.413333,44.5377926 L202.413333,44.5119924 C202.413333,43.8859054 202.050667,43.5496417 200.373333,43.1755375 C198.448,42.7248925 197.360889,42.1744864 197.360889,40.5619685 L197.360889,40.5361682 C197.360889,39.0380315 198.652444,38 200.449778,38 C201.767111,38 202.812444,38.3878643 203.728889,39.0999522 L202.876444,40.2626851 C202.064,39.6761586 201.249778,39.3622551 200.424,39.3622551 C199.493333,39.3622551 198.949333,39.8240803 198.949333,40.4002867 L198.949333,40.4252269 C198.949333,41.0994744 199.364444,41.3996178 201.095111,41.7995222 C203.007111,42.2493072 204,42.9132346 204,44.3614907 L204,44.386431 C204,46.0238892 202.670222,47 200.772444,47 C199.389333,47 198.085333,46.5364548 197,45.5990444" id="Fill-25" fill="#FEFEFE" mask="url(#mask-2)"></path>
                    <path d="M87.3411621,21.4400348 C90.2583989,21.4400348 92.0793934,19.8059926 92.0793934,17.5118982 L92.0793934,17.4492845 C92.0793934,14.8725591 90.22802,13.5211479 87.3411621,13.5211479 L82.8581129,13.5211479 L82.8581129,21.4400348 L87.3411621,21.4400348 Z M80.1656796,32 L79.4834576,32 C79.2178597,32 79,31.7843308 79,31.5173532 L79,29.3397897 L79,29.2415211 L79.0043398,12.278441 L79.0043398,10.4843861 C79.0043398,10.2165389 79.2213316,10 79.4869294,10 L81.7332278,10 L87.6553661,10 C92.7685592,10 96,12.9228398 96,17.3553641 L96,17.4179777 C96,22.3514112 92.0481466,24.9290062 87.2170428,24.9290062 L82.8581129,24.9290062 L82.8581129,29.6519883 L82.8581129,29.721559 L82.8581129,31.5173532 C82.8581129,31.7843308 82.6419892,32 82.3737874,32 L80.2012662,32 L80.1656796,32 Z" id="Fill-26" fill="#FEFEFE" mask="url(#mask-2)"></path>
                    <path d="M139.839181,28.6920049 L138.056267,26.8742261 C137.871948,26.6817244 137.560091,26.6579913 137.367036,26.839945 L137.307635,26.8909272 C135.564904,28.452037 133.886815,29.4110296 131.364878,29.4110296 C127.135152,29.4110296 124.072488,25.8537033 124.072488,21.500879 L124.072488,21.4384698 C124.072488,17.0847665 127.135152,13.5907284 131.364878,13.5907284 C133.713853,13.5907284 135.517732,14.552358 137.179223,16.0150195 L137.202809,16.0352366 C137.413335,16.2057632 137.7051,16.1732401 137.885925,15.9693113 L139.745712,13.8069632 C139.916054,13.5977605 139.883732,13.2901093 139.675828,13.1195827 L139.670586,13.1125506 C137.637837,11.2675227 135.232955,10 131.3972,10 C124.704064,10 120,15.1790874 120,21.500879 L120,21.5650462 C120,27.9501261 124.799281,33 131.238214,33 C135.150842,33 137.621239,31.6366659 139.826952,29.4453107 L139.881985,29.3855385 C140.057569,29.1860047 140.032236,28.8722006 139.839181,28.6920049" id="Fill-27" fill="#FEFEFE" mask="url(#mask-2)"></path>
                    <path d="M204.839195,28.6920049 L203.05469,26.8742261 C202.870387,26.6817244 202.560304,26.6579913 202.36552,26.839945 L202.306123,26.8909272 C200.563544,28.452037 198.885603,29.4110296 196.365633,29.4110296 C192.134529,29.4110296 189.070385,25.8537033 189.070385,21.500879 L189.070385,21.4384698 C189.070385,17.0847665 192.134529,13.5907284 196.365633,13.5907284 C198.712655,13.5907284 200.51463,14.552358 202.177723,16.0150195 L202.203054,16.0352366 C202.411814,16.2057632 202.703554,16.1732401 202.884363,15.9693113 L204.743987,13.8069632 C204.912567,13.5977605 204.881996,13.2901093 204.674109,13.1195827 L204.670615,13.1125506 C202.63717,11.2675227 200.229878,10 196.396204,10 C189.7054,10 185,15.1790874 185,21.500879 L185,21.5650462 C185,27.9501261 189.798861,33 196.238979,33 C200.149518,33 202.6197,31.6366659 204.82522,29.4453107 L204.881996,29.3855385 C205.057564,29.1860047 205.032233,28.8722006 204.839195,28.6920049" id="Fill-28" fill="#FEFEFE" mask="url(#mask-2)"></path>
                    <path d="M148,10.5409765 L147.998201,10.5409765 L147.998201,10.4835738 C147.998201,10.2165645 147.775129,10 147.498988,10 L146.792894,10 L146.754216,10 L144.50371,10 C144.22667,10 144.001799,10.2165645 144.001799,10.4835738 L144.001799,10.5409765 L144,10.5409765 L144,31.1867958 L144.001799,31.1867958 L144.001799,31.5181656 C144.001799,31.7843052 144.22667,32 144.501911,32 L145.209804,32 L145.246683,32 L147.498988,32 C147.775129,32 147.998201,31.7843052 147.998201,31.5181656 L147.998201,31.1867958 L148,31.1867958 L148,10.5409765 Z" id="Fill-29" fill="#FEFEFE" mask="url(#mask-2)"></path>
                    <path d="M180,10.5409765 L179.998201,10.5409765 L179.998201,10.4835738 C179.998201,10.2165645 179.77333,10 179.497189,10 L178.791095,10 L178.752417,10 L176.500112,10 C176.224871,10 176,10.2165645 176,10.4835738 L176,10.5409765 L176,31.1867958 L176,31.5181656 C176,31.7843052 176.224871,32 176.500112,32 L177.208005,32 L177.244884,32 L179.497189,32 C179.77333,32 179.998201,31.7843052 179.998201,31.5181656 L179.998201,31.1867958 L180,31.1867958 L180,10.5409765 Z" id="Fill-30" fill="#FEFEFE" mask="url(#mask-2)"></path>
                    <path d="M154.47751,10 C154.214115,10 154.001699,10.2165132 154.001699,10.4834592 L154.001699,10.5408482 L154,10.5408482 L154,31.5174104 C154,31.7843563 154.212416,32 154.474961,32 L155.141947,32 L155.176783,32 L157.305188,32 C157.565185,32 157.77845,31.7843563 157.77845,31.5174104 L157.77845,23.0420932 L168.141787,23.0420932 C168.405183,23.0420932 168.617599,22.82558 168.617599,22.558634 L168.617599,20.0048219 C168.617599,19.737876 168.405183,19.5213628 168.141787,19.5213628 L157.77845,19.5222323 L157.77845,13.5207304 L169.526738,13.5224695 C169.788434,13.5224695 170,13.3042172 170,13.0390103 L170,10.4851982 C170,10.2173827 169.788434,10.0008695 169.526738,10.0008695 L154.47751,10 Z" id="Fill-31" fill="#FEFEFE" mask="url(#mask-2)"></path>
                    <path d="M112.73041,26.722244 L102.145196,26.722244 L100.072269,31.4856022 C99.948248,31.7678305 99.5885863,32 99.273218,32 L96.3932674,32 C96.077899,32 95.9166714,31.7574735 96.0433502,31.4752452 L105.487569,10.4272264 C105.593873,10.1924676 105.895067,10 106.158169,10 L108.851202,10 C109.114304,10 109.416385,10.1924676 109.521803,10.4272264 L118.956277,31.4873284 C119.08207,31.7695567 118.927043,32 118.611675,32 L115.601502,32 C115.287019,32 114.927358,31.7678305 114.805994,31.483876 L112.73041,26.722244 Z M111.245698,23.3216948 L107.625163,15.0119262 C107.521517,14.7771675 107.350545,14.7771675 107.246899,15.0119262 L103.628136,23.3199686 L111.245698,23.3216948 Z" id="Fill-32" fill="#FEFEFE" mask="url(#mask-2)"></path>
                    <path d="M207.628509,40.3999664 C207.887217,40.3999664 208.030944,40.2713517 208.030944,40.0864156 C208.030944,39.8863484 207.887217,39.7711836 207.628509,39.7711836 L207.15421,39.7711836 L207.15421,40.3999664 L207.628509,40.3999664 Z M206.406831,39.1432414 L207.671627,39.1432414 C208.318397,39.1432414 208.777477,39.4139206 208.777477,40.0284129 C208.777477,40.4419973 208.562732,40.7286483 208.232161,40.8564223 L208.863713,41.7701748 L208.002198,41.7701748 L207.470409,40.985037 L207.15421,40.985037 L207.15421,41.7701748 L206.406831,41.7701748 L206.406831,39.1432414 Z M209.711701,40.5 L209.711701,40.4857095 C209.711701,39.2718561 208.763104,38.2723605 207.5,38.2723605 C206.248732,38.2723605 205.285763,39.2861466 205.285763,40.5 L205.285763,40.5142905 C205.285763,41.7281439 206.235205,42.7293208 207.5,42.7293208 C208.748732,42.7293208 209.711701,41.7138534 209.711701,40.5 L209.711701,40.5 Z M205,40.5142905 L205,40.5 C205,39.1432414 206.105005,38 207.5,38 C208.906831,38 210,39.1272697 210,40.4857095 L210,40.5 C210,41.855918 208.892459,43 207.5,43 C206.091478,43 205,41.8702085 205,40.5142905 L205,40.5142905 Z" id="Fill-33" fill="#FEFEFE" mask="url(#mask-2)"></path>
                    <path d="M28.0075647,13.1072767 C28.1139041,13.1072767 28.2168943,13.2003731 28.2545736,13.3777833 C28.3048127,13.7844215 28.6263429,15.7157336 28.8582801,17.0094229 C29.0810067,18.2750075 31.1575559,18.4392437 31.4447561,16.8478215 C31.486622,16.5992716 31.5326745,16.2927559 31.5937988,15.9326659 L32.8640105,5.19759202 C33.0708281,3.55698676 33.1327897,2.0665654 32.3750167,1.33233307 C31.2454744,0.248549939 29.2735899,0.00439134168 28.0058901,0 C26.7273051,0.00439134168 24.7629565,0.248549939 23.6242037,1.33057653 C22.8681054,2.06393059 22.9300669,3.55698676 23.1335352,5.19759202 L24.4137948,15.9326659 C24.4715698,16.2927559 24.5184596,16.5992716 24.5544643,16.8451867 C24.8358032,18.4374872 26.9157017,18.2750075 27.1392657,17.0094229 C27.366179,15.7174901 27.6860345,13.7844215 27.7479961,13.3795398 C27.7706037,13.2232081 27.842613,13.1072767 28.0075647,13.1072767" id="Fill-34" fill="#FEFEFE" mask="url(#mask-2)"></path>
                    <path d="M43.9039786,28.535811 C43.9039786,28.6617148 43.7983513,28.7830235 43.6275872,28.8087557 C43.2130001,28.8758431 41.2861826,29.2351743 39.9948892,29.4814678 C38.7335235,29.7387894 38.5768431,32.0372225 40.1744556,32.3349804 C40.4173983,32.3763356 40.7281185,32.428719 41.0854908,32.4847783 L51.8154613,33.8660438 C53.4570852,34.0728201 54.9525914,34.1435835 55.6840602,33.2944223 C56.7640991,32.0565217 57,29.8904253 57,28.4935367 C56.9964791,27.0865391 56.7324109,24.9176857 55.6479709,23.6871372 C54.9129811,22.846247 53.4227563,22.9298765 51.7881743,23.1440048 L41.0582038,24.5978718 C40.7025919,24.6548501 40.3857101,24.7063144 40.1427674,24.7541027 C38.5601187,25.0674837 38.7273619,27.3530507 39.9948892,27.6021013 C41.2835419,27.8428807 43.2156408,28.1911839 43.6275872,28.2619473 C43.7833874,28.2950315 43.9039786,28.3611999 43.9039786,28.535811" id="Fill-35" fill="#FEFEFE" mask="url(#mask-2)"></path>
                    <path d="M13.1013756,28.539979 C13.1057756,28.6640454 13.1928951,28.7890308 13.3697743,28.8156821 C13.7816122,28.8800129 15.7123227,29.237508 16.9988764,29.4893168 C18.2669502,29.7448018 18.4227094,32.043247 16.8219973,32.3391684 C16.5808785,32.3805239 16.27816,32.4319885 15.9156017,32.4862101 L5.1858145,33.8674829 C3.54462257,34.0733412 2.04686993,34.141348 1.3226335,33.2940203 C0.242878806,32.0542751 0.00439997836,29.8881674 0,28.4958665 C0.00439997836,27.0861044 0.26223871,24.9199966 1.34991336,23.6848465 C2.08734974,22.8439519 3.58334238,22.9303389 5.22013433,23.1463063 L15.9428816,24.604776 C16.3036798,24.6599166 16.6099183,24.7104622 16.8536771,24.7564127 C18.4438293,25.0743904 18.2704702,27.3599695 17.0032764,27.6090213 C15.7149627,27.8479641 13.7816122,28.19535 13.3724142,28.2670329 C13.209615,28.2991982 13.1013756,28.368124 13.1013756,28.539979" id="Fill-36" fill="#FEFEFE" mask="url(#mask-2)"></path>
                    <path d="M17.5470034,17.5405561 C17.6312757,17.4538337 17.7743631,17.4415699 17.9156948,17.551068 C18.2554177,17.7910877 19.8486915,18.9246116 20.9310644,19.6534306 C21.9914912,20.3831256 23.6541142,18.9491391 22.7306299,17.6185188 C22.590176,17.4161664 22.4084637,17.1682628 22.1960272,16.8783119 L15.574504,8.34709947 C14.5676251,7.06027834 13.562502,5.94515015 12.4792513,6.00208913 C10.8710542,6.08180372 9.25056743,7.360741 8.29635879,8.30242427 C7.35180636,9.2633792 6.0754316,10.8874543 6.00169331,12.48087 C5.95077877,13.5723466 7.05509751,14.5735969 8.36131872,15.5853589 L16.8895036,22.2042973 C17.1765562,22.4110296 17.4205949,22.5958623 17.6312757,22.7325159 C18.958565,23.6514236 20.3964617,21.9923091 19.6608345,20.9323679 C18.9190623,19.8496511 17.7892863,18.2509795 17.5470034,17.9207334 C17.452197,17.7910877 17.4311289,17.6500542 17.5470034,17.5405561" id="Fill-37" fill="#FEFEFE" mask="url(#mask-2)"></path>
                    <path d="M39.4413504,17.5383068 C39.358868,17.4515999 39.2184723,17.4393383 39.0710569,17.5514442 C38.7420046,17.7861659 37.1406166,18.9194861 36.0665898,19.6534292 C35.0030927,20.378614 33.3516888,18.9448851 34.2660155,17.6162554 C34.4002689,17.4139394 34.5880481,17.1687078 34.8003965,16.8735541 L41.4253166,8.34825332 C42.4387977,7.05728421 43.4373618,5.94761131 44.5236732,6.00191259 C46.1206738,6.08424034 47.7404887,7.36207204 48.6907918,8.30271031 C49.6296878,9.26699592 50.9195729,10.8907793 50.9985454,12.4856604 C51.045929,13.5751893 49.928906,14.5762596 48.6337561,15.5869641 L40.1047199,22.2012101 C39.8142764,22.409657 39.5659516,22.5927048 39.358868,22.733713 C38.032129,23.6507039 36.6018483,21.98926 37.3266409,20.9295092 C38.0786351,19.846987 39.2035553,18.25123 39.4395955,17.9210432 C39.5378725,17.7861659 39.5659516,17.6495368 39.4413504,17.5383068" id="Fill-38" fill="#049CD8" mask="url(#mask-2)"></path>
                    <path d="M28.0099374,43.8951215 C28.117962,43.8933653 28.2209622,43.8029202 28.2569705,43.6255424 C28.3088893,43.205807 28.6312883,41.2792388 28.8624108,39.9875424 C29.0876714,38.7239455 31.1619116,38.5623737 31.4491399,40.1535048 C31.4918473,40.4011311 31.5379043,40.701444 31.5956849,41.0614681 L32.866021,51.7980903 C33.0678344,53.4375173 33.1356638,54.9320565 32.3761419,55.6696669 C31.2439769,56.7497393 29.2744117,56.9956095 28.0057504,57 C26.7253655,56.9956095 24.7616622,56.7497393 23.6236353,55.6696669 C22.8699752,54.9320565 22.930268,53.4331267 23.131244,51.7936998 L24.4191655,41.0597119 C24.4761087,40.6996877 24.5204909,40.4011311 24.5581739,40.1517486 C24.8420526,38.5650081 26.9221546,38.7239455 27.1457404,39.9849081 C27.3701637,41.2792388 27.6900505,43.2101975 27.7520182,43.6255424 C27.774628,43.7809675 27.8466444,43.8977558 28.0099374,43.8951215" id="Fill-39" fill="#FEFEFE" mask="url(#mask-2)"></path>
                    <path d="M17.5459721,39.4616265 C17.6346257,39.5457281 17.7759448,39.5579929 17.920775,39.4467335 C18.2560788,39.2031894 19.8492107,38.0739506 20.9314871,37.3371858 C21.9918195,36.614438 23.6525389,38.0467928 22.7317701,39.3748967 C22.5886954,39.5816464 22.4096327,39.8295708 22.193704,40.1283066 L15.575404,48.6470947 C14.5659815,49.936652 13.5609479,51.0474936 12.4742827,50.9984343 C10.8706177,50.9204652 9.24851976,49.6309078 8.29351837,48.6961539 C7.34992784,47.7386225 6.07278903,46.1135349 6.00169059,44.5085966 C5.95078059,43.4222847 7.05675646,42.4165701 8.36373906,41.4152358 L16.8902864,34.801874 C17.179069,34.5872398 17.4213304,34.4058957 17.6319924,34.2666025 C18.9600412,33.3502459 20.3986876,35.0051194 19.6613704,36.0739102 C18.9214199,37.1400728 17.7926223,38.7380026 17.5477276,39.0787891 C17.4538074,39.2137021 17.4301079,39.3547474 17.5459721,39.4616265" id="Fill-40" fill="#FEFEFE" mask="url(#mask-2)"></path>
                    <path d="M39.4396558,39.4622876 C39.3597998,39.5446315 39.2185161,39.5586475 39.0710896,39.4447676 C38.7428902,39.2038678 37.1387495,38.0747048 36.0672749,37.3336094 C35.0028205,36.6126621 33.3521704,38.0431688 34.2656881,39.3755637 C34.400829,39.5822995 34.5859897,39.8328353 34.8027417,40.127171 L41.4220156,48.6471396 C42.4373278,49.9392385 43.4359667,51.0491295 44.5223596,50.9983216 C46.1177248,50.9229856 47.7376611,49.6361427 48.6897905,48.7005756 C49.6270018,47.7413564 50.9204937,46.1207578 50.9985946,44.5141752 C51.0451042,43.4235561 49.9306301,42.423165 48.6353831,41.4201459 L40.1074627,34.8028476 C39.8169974,34.5882278 39.5677765,34.406896 39.3615549,34.2684881 C38.0347165,33.3486889 36.6043285,35.0016995 37.3265428,36.0730465 C38.081226,37.1391376 39.2018429,38.7387122 39.4414109,39.0777239 C39.5388177,39.2126278 39.5660214,39.3554157 39.4396558,39.4622876" id="Fill-41" fill="#FEFEFE" mask="url(#mask-2)"></path>
                </g>
            </g>
        </g>
    </g>
</svg>