<svg xmlns="http://www.w3.org/2000/svg" width="49.72" height="49.93" viewBox="0 0 49.72 49.93">
  <g id="approvals" transform="translate(-0.14 -0.03)">
    <g id="Group_12754" data-name="Group 12754" opacity="0.01">
      <rect id="Rectangle_2480" data-name="Rectangle 2480" width="49.72" height="49.93" transform="translate(0.14 0.03)" fill="#fff"/>
    </g>
    <path id="Path_9810" data-name="Path 9810" d="M44.57,14.69a15.61,15.61,0,0,0-30.38.73,11.7,11.7,0,0,1-3.77,6.38A14.53,14.53,0,1,0,33.63,37.55a12.44,12.44,0,0,1,4.72-6.06,15.63,15.63,0,0,0,6.22-16.8Z" fill="#e3f9ff"/>
    <path id="Path_9811" data-name="Path 9811" d="M45.41,10.14a.41.41,0,0,1-.24-.08A7.07,7.07,0,0,0,41.46,8.5a.4.4,0,0,1-.31-.23.37.37,0,0,1,.06-.38,7.2,7.2,0,0,0,1.57-3.71.36.36,0,0,1,.23-.3.37.37,0,0,1,.38.05A7.07,7.07,0,0,0,47.1,5.49a.39.39,0,0,1,.31.23.38.38,0,0,1-.06.38,7.16,7.16,0,0,0-1.57,3.71.38.38,0,0,1-.23.3ZM42.17,7.85a7.91,7.91,0,0,1,3,1.24,8,8,0,0,1,1.25-2.95,7.94,7.94,0,0,1-3-1.24,7.81,7.81,0,0,1-1.25,2.95Z" fill="#1aa4de"/>
    <path id="Path_9812" data-name="Path 9812" d="M34.22,22.85l-.17-10.51L27.22,6.15l-5-4.78h-20V43.54H25.09a12.78,12.78,0,0,1,9.13-20.69Z" fill="#fff"/>
    <path id="Path_9813" data-name="Path 9813" d="M25.09,43.91H14.45a.37.37,0,0,1-.38-.37.38.38,0,0,1,.38-.38h9.89A13,13,0,0,1,22,35.6,13.21,13.21,0,0,1,33.84,22.5l-.16-10L27,6.43,22.1,1.75H10.6a.38.38,0,0,1,0-.75H22.25a.42.42,0,0,1,.26.1l5,4.78,6.83,6.18a.4.4,0,0,1,.12.27l.17,10.51a.37.37,0,0,1-.35.38,12.42,12.42,0,0,0-8.87,20.09.37.37,0,0,1,.05.39.38.38,0,0,1-.37.21Z" fill="#525666"/>
    <path id="Path_9814" data-name="Path 9814" d="M11.25,43.91h-9a.37.37,0,0,1-.38-.37V1.37A.38.38,0,0,1,2.24,1H7.47a.38.38,0,1,1,0,.75H2.61V43.16h8.64a.38.38,0,0,1,.38.38.37.37,0,0,1-.38.37Z" fill="#525666"/>
    <path id="Path_9815" data-name="Path 9815" d="M33.51,43.45l.26-22.22A13.93,13.93,0,0,0,20.62,34.9a17.21,17.21,0,0,0,2.43,8.19" fill="#d0f1fa"/>
    <circle id="Ellipse_58" data-name="Ellipse 58" cx="12.8" cy="12.8" r="12.8" transform="translate(22.32 22.8)" fill="#fff"/>
    <path id="Path_9816" data-name="Path 9816" d="M34.7,22.8A12.6,12.6,0,0,0,22.32,35.6,12.59,12.59,0,0,0,34.7,48.4c6.83,0,12.21-5.73,12.21-12.8S41.53,22.8,34.7,22.8Z" fill="#1aa4de"/>
    <path id="Path_9817" data-name="Path 9817" d="M35.12,48.78A13,13,0,0,1,30.65,48a.376.376,0,1,1,.25-.71A12.42,12.42,0,0,0,45,28.12a.37.37,0,0,1,.07-.53.38.38,0,0,1,.53.07A13.18,13.18,0,0,1,35.12,48.78Z" fill="#525666"/>
    <path id="Path_9818" data-name="Path 9818" d="M28.57,47a.35.35,0,0,1-.19-.06,13.17,13.17,0,1,1,15.13-21.5A.38.38,0,1,1,43,26,12.43,12.43,0,1,0,28.76,46.28a.38.38,0,0,1-.19.7Z" fill="#525666"/>
    <path id="Path_9819" data-name="Path 9819" d="M35.12,37.32a.286.286,0,0,1-.37-.33V26.42a.38.38,0,1,1,.75,0v9.85l5-3.11a.38.38,0,0,1,.4.64l-5.57,3.47a.46.46,0,0,1-.21.05Z" fill="#fff"/>
    <path id="Path_9820" data-name="Path 9820" d="M24.05,17.2H6a.38.38,0,1,1,0-.75H24a.38.38,0,1,1,0,.75Z" fill="#727890"/>
    <path id="Path_9821" data-name="Path 9821" d="M24.05,23.22H6a.38.38,0,0,1-.38-.38A.37.37,0,0,1,6,22.47H24a.37.37,0,0,1,.38.37.38.38,0,0,1-.33.38Z" fill="#727890"/>
    <path id="Path_9822" data-name="Path 9822" d="M17.24,29.23H6a.38.38,0,1,1,0-.75H17.2a.38.38,0,0,1,0,.75Z" fill="#727890"/>
    <path id="Path_9823" data-name="Path 9823" d="M21.93,1.73l-1.22,10.9a1,1,0,0,0,1.12,1.12l12-1,.17-.82Z" fill="#d0f1fa"/>
    <path id="Path_9824" data-name="Path 9824" d="M22.32,1.63l.07,10.53,11.56.1Z" fill="#fff"/>
    <path id="Path_9825" data-name="Path 9825" d="M34,12.64h0l-11.56-.1a.37.37,0,0,1-.37-.37L21.94,1.63a.39.39,0,0,1,.22-.35.38.38,0,0,1,.41.07L34.21,12a.38.38,0,0,1-.25.65Zm-11.2-.85,10.2.09L22.7,2.48Z" fill="#525666"/>
    <circle id="Ellipse_59" data-name="Ellipse 59" cx="0.84" cy="0.84" r="0.84" transform="translate(6.74 46.14)" fill="#1aa4de"/>
    <circle id="Ellipse_60" data-name="Ellipse 60" cx="1.38" cy="1.38" r="1.38" transform="translate(39.18 16.66)" fill="#1aa4de"/>
  </g>
</svg>
