<svg version="1.2" xmlns="http://www.w3.org/2000/svg" viewBox="0 0 8 9" width="8" height="9"><defs><clipPath clipPathUnits="userSpaceOnUse" id="cp1"><path d="m-1243-1163h1400v1869h-1400z"/></clipPath></defs><style>.a{fill:#1aa4de}</style><g clip-path="url(#cp1)"><path class="a" d="m6.7 3.9l0.4 0.4c0.1 0.2 0.1 0.4 0 0.6l-3.2 3.2c-0.2 0.1-0.4 0.1-0.6 0l-3.2-3.2c-0.1-0.2-0.1-0.4 0-0.6l0.4-0.4c0.1-0.1 0.4-0.1 0.5 0.1l1.9 1.9v-4.7c0-0.2 0.2-0.4 0.4-0.4h0.6c0.2 0 0.4 0.2 0.4 0.4v4.7l1.8-1.9c0.2-0.2 0.4-0.2 0.6-0.1z"/></g></svg>