<svg version="1.2" xmlns="http://www.w3.org/2000/svg" viewBox="0 0 65 71" width="65" height="71"><defs><clipPath clipPathUnits="userSpaceOnUse" id="cp1"><path d="m-218-929h1400v1869h-1400z"/></clipPath></defs><style>.a{opacity:.2;fill:#1aa4de}.b{fill:#fff}.c{fill:#1aa4de}.d{fill:#525666}</style><g clip-path="url(#cp1)"><path class="a" d="m63.5 18.6c-3-11.2-13.2-18.9-24.8-18.6-11.6 0.3-21.5 8.5-23.9 19.8-0.8 4-2.9 7.5-6 10.2-7.4 6.4-10 16.7-6.6 25.9 3.5 9.1 12.3 15.1 22.1 15 9.8-0.2 18.5-6.4 21.7-15.6 1.4-4 4.1-7.4 7.6-9.8 8.6-5.9 12.6-16.7 9.9-26.9z"/><path class="b" d="m50.3 22.9c0-5.5-2.5-10.8-6.8-14.2-4.3-3.5-10-4.8-15.4-3.6-6.2 1.4-11.2 5.9-13.2 12-2.1 6-0.8 12.6 3.3 17.5 4 4.8 6.1 10.8 6.1 17v1h15.4v-0.6c0.1-6.5 2.5-12.8 6.7-17.7 2.6-3.3 4-7.3 3.9-11.4z"/><path fill-rule="evenodd" class="c" d="m6.9 39.8q-0.2 0-0.4-0.1c-1.7-1.4-3.8-2.3-6-2.5-0.2 0-0.4-0.2-0.4-0.4-0.1-0.2-0.1-0.4 0-0.6 1.4-1.7 2.3-3.7 2.5-5.9 0-0.2 0.2-0.4 0.4-0.5 0.2-0.1 0.4-0.1 0.6 0.1 1.7 1.4 3.8 2.2 5.9 2.5 0.3 0 0.5 0.1 0.5 0.3 0.1 0.2 0.1 0.5-0.1 0.7-1.4 1.6-2.2 3.7-2.5 5.9 0 0.2-0.1 0.4-0.3 0.5q-0.1 0-0.2 0zm-5.2-3.6c1.7 0.3 3.4 1 4.8 1.9 0.3-1.7 1-3.3 2-4.8-1.7-0.3-3.3-1-4.8-1.9-0.3 1.7-1 3.3-2 4.8z"/><path class="c" d="m45.7 17.8c-0.3 0.1-0.5-0.1-0.6-0.3-1.6-4.6-5.5-7.9-10.2-8.7-0.4-0.1-0.6-0.4-0.5-0.7q0-0.3 0.2-0.4 0.2-0.2 0.5-0.1c5.1 0.9 9.4 4.5 11.2 9.4q0.1 0.2 0 0.5-0.1 0.2-0.3 0.3z"/><path class="c" d="m57.5 24.1c-1.2 0-2.2-1-2.2-2.2 0-1.3 1-2.3 2.2-2.3 1.2 0 2.2 1 2.2 2.3 0 1.2-1 2.2-2.2 2.2z"/><path class="c" d="m16.2 57.1c-0.8 0-1.4-0.6-1.4-1.3 0-0.8 0.6-1.4 1.4-1.4 0.7 0 1.3 0.6 1.3 1.4 0 0.7-0.6 1.3-1.3 1.3z"/><path class="d" d="m42.8 40.4q-0.2 0.1-0.3 0-0.2-0.1-0.3-0.3-0.1-0.3 0-0.5 1.6-3 3.7-5.7c2.5-3.1 3.9-7 3.9-11 0-5.3-2.4-10.4-6.6-13.8-4.2-3.3-9.7-4.6-14.9-3.5-2.3 0.5-4.4 1.5-6.3 2.8-0.3 0.2-0.6 0.1-0.8-0.2q-0.2-0.2-0.1-0.4 0-0.3 0.2-0.4c2-1.4 4.3-2.4 6.7-2.9 5.6-1.3 11.5 0.1 16 3.7 8.1 6.5 9.4 18.3 2.9 26.4q-2 2.6-3.5 5.5c-0.1 0.2-0.4 0.4-0.6 0.3z"/><path class="d" d="m39.7 53.2h-15.4c-0.4 0-0.6-0.3-0.6-0.6v-1c0-6.1-2.1-11.9-6-16.6-3.8-4.6-5.3-10.7-3.9-16.4 0.5-2.3 1.5-4.5 2.9-6.5q0.1-0.2 0.3-0.2 0.3 0 0.5 0.1c0.3 0.2 0.3 0.6 0.2 0.8q-0.7 0.9-1.2 1.9-1.1 2-1.6 4.1c-1.3 5.5 0.1 11.2 3.7 15.5 4.1 4.8 6.3 11 6.3 17.3v0.4h14.2c0-2.4 0.4-4.8 1.1-7.2 0-0.2 0.2-0.4 0.4-0.5 0.2-0.1 0.5 0 0.6 0.2 0.2 0.2 0.2 0.4 0.1 0.7-0.6 2.2-1 4.5-1 6.8v0.6q0 0.2-0.2 0.4-0.1 0.2-0.4 0.2z"/><path class="d" d="m40.4 56.4h-16.5c-0.3 0-0.6-0.3-0.6-0.6q0-0.3 0.2-0.5 0.2-0.1 0.4-0.1h16.5q0.2 0 0.4 0.1 0.2 0.2 0.2 0.5c0 0.3-0.3 0.6-0.6 0.6z"/><path class="b" d="m38.8 58.2c0 3.6-3 6.6-6.7 6.6-3.6 0-6.6-3-6.6-6.6z"/><path class="c" d="m37.1 58.2c0.2 3.4-2.3 6.3-5.8 6.6-3.4-0.3-6-3.2-5.8-6.6z"/><path class="d" d="m32.2 65.4c-4 0-7.3-3.3-7.3-7.2v-0.7h10.8c0.2 0 0.4 0.1 0.6 0.3 0.1 0.2 0.1 0.5 0 0.7-0.2 0.2-0.4 0.3-0.6 0.2h-9.5c0.3 3.2 3 5.6 6.2 5.4 3.2-0.1 5.7-2.8 5.7-5.9 0-0.4 0.3-0.7 0.7-0.7q0.2 0.1 0.4 0.2 0.1 0.2 0.1 0.5c0 3.9-3.2 7.1-7.1 7.2z"/><path fill-rule="evenodd" class="d" d="m30.1 48.4c-0.4 0-0.6-0.3-0.6-0.7v-14.3h-3.7c-2.1-0.1-3.8-1.9-3.8-4 0-2.1 1.7-3.9 3.8-4.1h0.8c2.3 0.1 4.1 1.9 4.1 4.1v2.8h2.9c0.3 0 0.6 0.3 0.6 0.6q0 0.3-0.2 0.5-0.1 0.1-0.4 0.1h-2.9v14.3c0 0.4-0.3 0.6-0.6 0.7zm-4.3-21.9c-1.5 0.2-2.6 1.4-2.6 2.9 0 1.5 1.1 2.7 2.6 2.8h3.7v-2.8c0-1.6-1.3-2.8-2.9-2.9z"/><path fill-rule="evenodd" class="d" d="m34.2 48.4c-0.3 0-0.6-0.3-0.6-0.7v-14.3h-2.9q-0.3 0-0.5-0.1-0.1-0.2-0.1-0.5c0-0.3 0.2-0.6 0.6-0.6h2.9v-2.8c0-2.2 1.8-4.1 4.1-4.1h0.7c2.2 0.2 3.8 2 3.8 4.1 0 2.1-1.6 3.9-3.8 4h-3.6v14.3c0 0.4-0.3 0.6-0.6 0.7zm0.6-16.2h3.6c1.5-0.1 2.7-1.3 2.7-2.8 0-1.5-1.2-2.7-2.7-2.9h-0.7c-1.6 0-2.9 1.3-2.9 2.9z"/></g></svg>