<?xml version="1.0" encoding="UTF-8"?>
<svg width="512px" height="512px" viewBox="0 0 512 512" version="1.1" xmlns="http://www.w3.org/2000/svg" xmlns:xlink="http://www.w3.org/1999/xlink">
    <title>Combined Shape</title>
    <g id="Other" stroke="none" stroke-width="1" fill="none" fill-rule="evenodd">
        <g id="Profile-Photo" fill="#1AA4DE">
            <path d="M256,0 C397.384896,0 512,114.615104 512,256 C512,397.384896 397.384896,512 256,512 C114.615104,512 0,397.384896 0,256 C0,114.615104 114.615104,0 256,0 Z M254.349271,76 C160.029794,76 81,148.128757 81,256.482839 C81,362.360823 151.342474,436 248.814207,436 C302.700414,436 340.899803,416.711191 365.745539,393.559667 C383.591777,376.969805 392.105351,349.386065 368.376556,325.863127 C351.523154,309.174221 331.964273,301.077378 305.008759,320.836646 L305.008759,320.836646 L304.260629,321.388319 C304.011041,321.572836 303.761207,321.757945 303.511018,321.943546 L302.759283,322.50172 C302.63378,322.594961 302.508163,322.688299 302.382416,322.781723 L301.626281,323.343181 C300.9947,323.811745 300.359224,324.2818 299.71817,324.751768 L298.946121,325.315588 C288.096939,333.205651 275.483784,340.893046 253.133047,340.893046 C212.079253,340.893046 184.627321,305.955293 184.627321,256.433317 C184.627321,204.484765 213.245836,167.665176 256.657617,167.665176 C285.201669,167.665176 299.200665,181.754178 311.908974,191.361442 C333.304603,207.530367 359.167996,200.820139 374.929277,178.188596 C390.765021,155.507531 387.885795,133.495013 369.071541,116.013756 C344.920791,93.5060183 306.771044,76 254.349271,76 Z" id="Combined-Shape"></path>
        </g>
    </g>
</svg>