<svg version="1.2" xmlns="http://www.w3.org/2000/svg" viewBox="0 0 26 26" width="26" height="26"><defs><clipPath clipPathUnits="userSpaceOnUse" id="cp1"><path d="m-550-1802h1400v1869h-1400z"/></clipPath></defs><style>.a{fill:#fff}</style><g clip-path="url(#cp1)"><path class="a" d="m6.1 25.5h-5.3v-17h5.3zm-2.7-19.4c-1.7 0-3.1-1.4-3.1-3.1 0-1.7 1.4-3 3.1-3 1.7 0 3.1 1.3 3.1 3 0 1.7-1.4 3.1-3.1 3.1zm22.5 19.4h-5.3v-8.3c0-2-0.1-4.5-2.8-4.5-2.7 0-3.1 2.1-3.1 4.3v8.5h-5.3v-17.1h5v2.4h0.1c0.7-1.4 2.5-2.8 5-2.8 5.4 0 6.4 3.5 6.4 8.1 0 0 0 9.4 0 9.4z"/></g></svg>