<svg version="1.2" xmlns="http://www.w3.org/2000/svg" viewBox="0 0 14 14" width="14" height="14"><defs><clipPath clipPathUnits="userSpaceOnUse" id="cp1"><path d="m-1155-1663h1400v1869h-1400z"/></clipPath></defs><style>.a{fill:#00b9c8}</style><g clip-path="url(#cp1)"><path class="a" d="m13.2 10l-3-1.2c-0.3-0.2-0.6-0.1-0.7 0.1l-1.4 1.6c-2-0.9-3.7-2.6-4.6-4.6l1.6-1.4c0.2-0.1 0.3-0.4 0.1-0.7l-1.2-3c-0.2-0.2-0.5-0.4-0.8-0.3l-2.7 0.6c-0.3 0.1-0.5 0.3-0.5 0.6 0 6.8 5.5 12.3 12.3 12.3 0.3 0 0.5-0.2 0.6-0.5l0.6-2.7c0.1-0.3-0.1-0.6-0.3-0.8z"/></g></svg>