<svg version="1.2" xmlns="http://www.w3.org/2000/svg" viewBox="0 0 73 73" width="73" height="73"><defs><clipPath clipPathUnits="userSpaceOnUse" id="cp1"><path d="m-666-927h1400v1869h-1400z"/></clipPath></defs><style>.a{fill:#fff}.b{opacity:.2;fill:#0b5e9d}.c{opacity:.6;fill:#0b5e9d}.d{fill:#525666}.e{fill:#244663}.f{fill:#0b5e9d}</style><g clip-path="url(#cp1)"><g style="opacity:0"><path class="a" d="m0.3 0.3h72.3v72.6h-72.3z"/></g><path class="b" d="m65 20.3c-3-11-13.1-18.5-24.4-18.2-11.4 0.2-21.1 8.2-23.6 19.3-0.8 3.9-2.9 7.5-5.9 10.1-7.4 6.3-10 16.5-6.6 25.6 3.4 9 12.2 15 21.8 14.8 9.7-0.1 18.3-6.3 21.4-15.5 1.4-3.9 4-7.3 7.5-9.6 8.5-5.9 12.4-16.5 9.8-26.5z"/><path class="c" d="m21.8 66.2c-1.1 0-2.1-1-2.1-2.1 0-1.2 1-2.1 2.1-2.1 1.2 0 2.2 0.9 2.2 2.1 0 1.1-1 2.1-2.2 2.1z"/><path class="a" d="m35.1 14.6h-24.4c0 3.7-3 6.7-6.7 6.7v26.3c1.8 0 3.5 0.7 4.7 1.9 1.3 1.3 2 3 2 4.7h11.1 35.6c-0.1-1.7 0.6-3.4 1.9-4.7 1.2-1.2 2.9-1.9 4.7-1.9v-26.4c-3.7 0-6.6-3-6.6-6.6h-18.7"/><path class="d" d="m11 55.3q-0.3 0-0.4-0.2-0.2-0.2-0.2-0.4c0-3.4-2.7-6.1-6.1-6.1q-0.2 0-0.4-0.1-0.2-0.2-0.2-0.4v-26.3q0-0.3 0.2-0.4 0.1-0.2 0.4-0.2c3.4 0 6.1-2.7 6.1-6.1q0-0.3 0.1-0.4 0.2-0.2 0.4-0.2h24.5c0.3 0 0.5 0.3 0.5 0.6q0 0.2-0.1 0.3-0.2 0.2-0.4 0.2h-24c-0.1 1.7-0.8 3.3-2 4.6-1.2 1.2-2.9 2-4.6 2.1v25.2c1.7 0.1 3.4 0.9 4.6 2.1 1.2 1.2 1.9 2.8 2.1 4.6h45.6c0.3-3.6 3.1-6.4 6.6-6.7v-25.2c-3.5-0.3-6.3-3.1-6.6-6.7h-18.2c-0.2 0.1-0.4 0-0.5-0.2-0.1-0.2-0.1-0.4 0-0.6 0.1-0.2 0.3-0.3 0.5-0.3h18.7c0.3 0 0.5 0.3 0.5 0.6 0.1 3.3 2.7 6 6.1 6.1q0.2 0 0.4 0.1 0.1 0.2 0.1 0.4v26.3q0 0.2-0.1 0.4-0.2 0.1-0.4 0.1c-1.6 0-3.2 0.7-4.3 1.8-1.2 1.2-1.8 2.7-1.8 4.4q0 0.2-0.2 0.3-0.2 0.2-0.4 0.2h-46.6z"/><path class="b" d="m13.9 22.9c0-0.7 0.6-1.3 1.3-1.3h38.1c0.8 0 1.4 0.6 1.4 1.3v23.9c0 0.8-0.6 1.4-1.4 1.4h-38.1c-0.7 0-1.3-0.6-1.3-1.4z"/><path fill-rule="evenodd" class="d" d="m15.9 48.7c-0.7 0-1.4-0.2-1.8-0.7-0.5-0.5-0.8-1.1-0.8-1.8v-22.6c0-0.7 0.3-1.3 0.7-1.8 0.5-0.5 1.2-0.8 1.8-0.7h36.8c1.4 0 2.6 1.1 2.6 2.5v22.5c0 0.7-0.3 1.4-0.7 1.9-0.5 0.4-1.2 0.7-1.8 0.7zm36.7-26.6h-36.8c-0.8 0-1.4 0.6-1.4 1.4v22.6c0 0.8 0.6 1.5 1.4 1.5h36.8c0.8 0 1.5-0.7 1.5-1.5v-22.6c0-0.8-0.7-1.4-1.5-1.4z"/><path class="a" d="m23.2 30.9h22.1"/><path class="d" d="m23.2 31.4q-0.2 0.1-0.3-0.1-0.2-0.2-0.2-0.4c0-0.3 0.2-0.5 0.5-0.5h22.1c0.3 0 0.4 0.2 0.4 0.5 0 0.3-0.1 0.5-0.4 0.5z"/><path class="a" d="m28.5 38.8h11.6"/><path class="d" d="m28.4 39.4c-0.3 0-0.5-0.3-0.5-0.6 0-0.2 0.2-0.5 0.5-0.5h11.7c0.2 0 0.4 0.3 0.4 0.5 0 0.3-0.2 0.5-0.4 0.6z"/><path fill-rule="evenodd" class="c" d="m66.1 15.1q-0.2 0-0.3-0.2c-1.6-1.2-3.4-2.1-5.4-2.3-0.2 0-0.4-0.2-0.5-0.3 0-0.2 0-0.4 0.1-0.6 1.3-1.5 2.1-3.4 2.3-5.4 0-0.2 0.1-0.3 0.3-0.4 0.2-0.1 0.4-0.1 0.6 0.1 1.5 1.2 3.4 2 5.3 2.2 0.2 0 0.4 0.2 0.5 0.4 0.1 0.2 0 0.4-0.1 0.5-1.3 1.6-2 3.4-2.3 5.4 0 0.2-0.1 0.4-0.3 0.4q-0.1 0.1-0.2 0.2zm-4.7-3.4c1.6 0.2 3.1 0.9 4.4 1.8 0.3-1.6 0.9-3.1 1.8-4.4-1.6-0.3-3-0.9-4.4-1.7-0.3 1.5-0.9 3-1.8 4.3z"/><g style="opacity:.2"><path class="e" d="m64.9 40.1c-3.1-2.9-7.2-4.4-11.4-4.4-11.2-0.1-18.9 9.1-18.9 19.3"/></g><path class="a" d="m53.4 71c-9.2 0-16.7-7.5-16.7-16.7 0-9.1 7.5-16.6 16.7-16.6 9.2 0 16.6 7.5 16.6 16.6 0 9.2-7.4 16.7-16.6 16.7z"/><path class="f" d="m49.7 71c-8.8 0-16-7.5-16-16.7 0-9.1 7.2-16.6 16-16.6 8.9 0 16 7.5 16 16.6 0 9.2-7.1 16.7-16 16.7z"/><path class="d" d="m53.4 71.5c-2.4 0-4.7-0.5-6.8-1.4q-0.2-0.1-0.3-0.3-0.1-0.3 0-0.5c0.1-0.2 0.4-0.4 0.7-0.3 6.1 2.6 13.1 1.3 17.7-3.4 4.7-4.7 6-11.8 3.4-17.8-0.2-0.3 0-0.6 0.2-0.7 0.3-0.1 0.6 0 0.7 0.3 1 2.2 1.5 4.5 1.5 6.9 0 9.5-7.7 17.2-17.1 17.2z"/><path class="d" d="m42.8 67.7q-0.2 0-0.4-0.1c-4.9-4.1-7.1-10.6-5.8-16.8 1.4-6.3 6.1-11.3 12.2-13 6.2-1.7 12.8 0.2 17.2 4.9 0.2 0.2 0.2 0.5 0 0.8q-0.2 0.1-0.4 0.1-0.3 0-0.4-0.1c-4.1-4.5-10.3-6.4-16.1-4.8-5.9 1.6-10.3 6.3-11.6 12.2-1.2 5.9 1 12 5.7 15.8 0.2 0.2 0.2 0.6 0 0.8q-0.2 0.2-0.4 0.2z"/><path class="a" d="m53.6 63.7c-0.3 0-0.5-0.3-0.5-0.6v-17.7c-0.1-0.2 0-0.4 0.2-0.5 0.2-0.2 0.4-0.2 0.6 0 0.2 0.1 0.3 0.3 0.3 0.5v17.7c-0.1 0.3-0.3 0.6-0.6 0.6z"/><path class="a" d="m62.5 54.8h-17.8c-0.3 0-0.5-0.2-0.5-0.5q0-0.3 0.2-0.4 0.1-0.2 0.3-0.2h17.8q0.2 0 0.4 0.2 0.1 0.1 0.1 0.4c0 0.3-0.2 0.5-0.5 0.5z"/><path class="c" d="m15.1 9.3c-0.7 0-1.3-0.5-1.3-1.2 0-0.7 0.6-1.2 1.3-1.2 0.6 0 1.2 0.5 1.2 1.2 0 0.7-0.6 1.2-1.2 1.2z"/></g></svg>