<svg version="1.2" xmlns="http://www.w3.org/2000/svg" viewBox="0 0 71 71" width="71" height="71"><defs><clipPath clipPathUnits="userSpaceOnUse" id="cp1"><path d="m-1112-929h1400v1869h-1400z"/></clipPath></defs><style>.a{fill:#fff}.b{opacity:.2;fill:#00b9c8}.c{opacity:.6;fill:#00b9c8}.d{fill:#525666}.e{fill:#00b9c8}.f{opacity:.3;fill:#00b9c8}</style><g clip-path="url(#cp1)"><g style="opacity:0"><path class="a" d="m0 0h70.6v70.9h-70.6z"/></g><path class="b" d="m63.2 21.6c-2.6-10-11.8-17-22.2-16.7-10.4 0.2-19.3 7.6-21.4 17.8-0.8 3.5-2.7 6.7-5.4 9.1-6.7 5.8-9 15-5.9 23.3 3.1 8.2 11 13.5 19.8 13.4 8.8-0.1 16.5-5.7 19.4-13.9 1.3-3.6 3.7-6.7 6.8-8.8 7.8-5.3 11.4-15 8.9-24.2z"/><path class="c" d="m11.4 54c-1 0-1.8-0.8-1.8-1.8 0-1 0.8-1.8 1.8-1.8 1 0 1.8 0.8 1.8 1.8 0 1-0.8 1.8-1.8 1.8z"/><path class="d" d="m24.1 60.1c-1.5 0-2.9-0.6-4-1.6-1.1-1.1-1.7-2.6-1.7-4.1 0-5.7 4.7-10.4 10.4-10.4h1.7c0.2 0 0.4 0.1 0.5 0.2 0.1 0.2 0.1 0.5 0 0.6-0.1 0.2-0.3 0.3-0.5 0.3h-1.7c-5.2 0-9.4 4.2-9.4 9.3 0 1.3 0.5 2.5 1.4 3.3 0.9 0.9 2.1 1.4 3.3 1.4l37.3-0.1c0.2 0 0.4 0.3 0.4 0.5 0 0.3-0.2 0.5-0.4 0.6z"/><path class="a" d="m54.8 50.3h-31c-0.7 0-1.3-0.5-1.3-1.1l-3.5-28.3h49.6c0.4 0 0.7 0.1 0.9 0.4 0.2 0.2 0.2 0.6 0.1 0.9l-6.9 22.3c-1.1 3.4-4.3 5.8-7.9 5.8z"/><path class="e" d="m53.3 50.3h-29.8c-0.6 0-1.2-0.5-1.2-1.1l-3.3-28.3h47.6c0.3 0 0.6 0.1 0.8 0.4 0.2 0.3 0.2 0.6 0.2 0.9l-6.7 22.3c-0.9 3.4-4 5.7-7.6 5.8z"/><path class="d" d="m42.8 50.4h-19.2c-0.9 0-1.7-0.7-1.8-1.6l-3.5-28.3q0-0.2 0.1-0.4 0.2-0.2 0.4-0.2h23.8c0.2 0 0.4 0.1 0.5 0.2 0.1 0.2 0.1 0.5 0 0.6-0.1 0.2-0.3 0.3-0.5 0.3h-23.1l3.4 27.7c0 0.3 0.4 0.6 0.7 0.6h19.2q0.2 0 0.4 0.2 0.1 0.1 0.1 0.4 0 0.2-0.1 0.3-0.2 0.2-0.4 0.2z"/><path class="d" d="m54.7 50.4h-8.5c-0.3 0-0.6-0.2-0.6-0.5 0-0.3 0.3-0.6 0.6-0.6h8.5c3.4 0 6.4-2.2 7.4-5.4l6.9-22.3c0.1-0.1 0-0.3-0.1-0.4q-0.1-0.2-0.4-0.2h-20.9c-0.3-0.1-0.5-0.3-0.5-0.6 0-0.2 0.2-0.5 0.5-0.5h20.9c0.5 0 1 0.3 1.3 0.7 0.2 0.4 0.3 0.9 0.2 1.3l-6.9 22.3c-1.1 3.7-4.6 6.2-8.4 6.2z"/><path class="d" d="m21.5 41.8c-0.3 0-0.5-0.2-0.5-0.5l-2.9-22.6c0-1.5-0.6-2.9-1.6-4-1-1-2.4-1.6-3.9-1.6h-6c-0.3 0-0.5-0.3-0.5-0.5 0-0.3 0.2-0.5 0.5-0.5h6c3.6 0 6.5 2.9 6.6 6.5l2.8 22.5q0 0.3-0.1 0.4-0.2 0.2-0.4 0.2z"/><path class="a" d="m53.3 65.3c-2.9 0-5.1-2.2-5.1-5.1 0-2.8 2.2-5.1 5.1-5.1 2.8 0 5.1 2.3 5.1 5.1 0 2.9-2.3 5.1-5.1 5.1z"/><path fill-rule="evenodd" class="d" d="m53.3 65.9c-3.2 0-5.7-2.6-5.7-5.7 0-3.1 2.5-5.7 5.7-5.7 3.1 0 5.6 2.6 5.6 5.7 0 3.1-2.5 5.7-5.6 5.7zm0-10.2c-1.9-0.1-3.6 1.1-4.3 2.8-0.7 1.7-0.3 3.7 1 5 1.3 1.3 3.3 1.7 5 1 1.7-0.7 2.8-2.4 2.8-4.3 0-2.5-2-4.5-4.5-4.5z"/><path class="a" d="m31.7 65.3c-2.8 0-5.1-2.2-5.1-5.1 0-2.8 2.3-5.1 5.1-5.1 2.8 0 5.1 2.3 5.1 5.1 0 2.9-2.3 5.1-5.1 5.1z"/><path fill-rule="evenodd" class="d" d="m31.7 65.9c-3.1 0-5.7-2.6-5.7-5.7 0-3.1 2.6-5.7 5.7-5.7 3.1 0 5.7 2.6 5.7 5.7 0 3.1-2.6 5.7-5.7 5.7zm0-10.2c-2.5 0-4.6 2-4.6 4.5 0 2.6 2.1 4.6 4.6 4.6 2.5 0 4.6-2 4.6-4.6 0-2.5-2.1-4.5-4.6-4.5z"/><path class="a" d="m58 32h-30.7c-0.2 0.1-0.4 0-0.5-0.2-0.2-0.2-0.2-0.4 0-0.6 0.1-0.2 0.3-0.3 0.5-0.2h30.7c0.3 0 0.4 0.2 0.4 0.5 0 0.3-0.1 0.5-0.4 0.5z"/><path class="a" d="m51.4 39.1h-17.6c-0.2 0-0.4-0.3-0.4-0.5 0-0.3 0.2-0.5 0.4-0.6h17.6c0.3 0.1 0.5 0.3 0.5 0.6 0 0.2-0.2 0.5-0.5 0.5z"/><path class="f" d="m53.3 63.1c-1.7 0-3-1.3-3-2.9 0-1.6 1.3-2.9 3-2.9 1.6 0 2.9 1.3 2.9 2.9 0 1.6-1.3 2.9-2.9 2.9z"/><path class="f" d="m31.8 63.2c-1.6 0-2.9-1.3-2.9-2.9 0-1.6 1.3-2.9 2.9-2.9 1.6 0 2.9 1.3 2.9 2.9 0 1.6-1.3 2.9-2.9 2.9z"/><path fill-rule="evenodd" class="c" d="m61.1 17c-0.2 0-0.4-0.1-0.4-0.2-0.9-1.6-2.2-2.9-3.8-3.8-0.2-0.1-0.3-0.3-0.3-0.5 0-0.2 0.1-0.3 0.3-0.4 1.6-0.9 2.9-2.2 3.8-3.8 0.1-0.1 0.2-0.2 0.4-0.2 0.2 0 0.4 0.1 0.5 0.2 0.8 1.6 2.1 2.9 3.7 3.8 0.2 0.1 0.3 0.2 0.3 0.4 0 0.2-0.1 0.4-0.3 0.5-1.6 0.9-2.9 2.2-3.8 3.7 0 0.2-0.2 0.3-0.4 0.3zm-2.9-4.5c1.2 0.8 2.2 1.8 2.9 3 0.8-1.2 1.8-2.2 3-3-1.2-0.7-2.2-1.7-3-2.9-0.7 1.2-1.7 2.2-2.9 2.9z"/><path class="c" d="m32.9 10.2c-0.7 0-1.2-0.5-1.2-1.2 0-0.6 0.5-1.2 1.2-1.2 0.6 0 1.2 0.6 1.2 1.2 0 0.7-0.6 1.2-1.2 1.2z"/></g></svg>