<svg version="1.2" xmlns="http://www.w3.org/2000/svg" viewBox="0 0 15 15" width="15" height="15"><defs><clipPath clipPathUnits="userSpaceOnUse" id="cp1"><path d="m-1206-13h1400v1869h-1400z"/></clipPath></defs><style>.a{fill:#fff}</style><g clip-path="url(#cp1)"><path fill-rule="evenodd" class="a" d="m14.9 13.6l-1.1 1.1-3.7-3.7c-1 0.8-2.3 1.3-3.8 1.3-3.3 0-6.1-2.8-6.1-6.2 0-3.3 2.8-6.1 6.1-6.1 3.4 0 6.2 2.7 6.2 6.1 0 1.5-0.5 2.8-1.3 3.8zm-3.9-7.5c0-2.5-2.1-4.6-4.6-4.6-2.6 0-4.6 2.1-4.6 4.6 0 2.6 2 4.7 4.6 4.7 2.5 0 4.6-2.1 4.6-4.7z"/></g></svg>