
<svg width="173px" height="157px" viewBox="0 0 173 157" version="1.1" xmlns="http://www.w3.org/2000/svg" xmlns:xlink="http://www.w3.org/1999/xlink">
  <!-- Generator: Sketch 48.1 (47250) - http://www.bohemiancoding.com/sketch -->
  <desc>Created with Sketch.</desc>
  <defs>
    <path d="M5.92860283,-7.09550691e-15 L89.0122965,8.8817842e-16 C91.7737203,-6.97700361e-15 94.0122965,2.23857625 94.0122965,5 C94.0122965,5.3270834 93.9802016,5.65337758 93.9164732,5.97419254 L85.317667,49.2613898 C84.8528108,51.6015198 82.7993445,53.2871972 80.4134904,53.2871972 L14.527409,53.2871972 C12.1415548,53.2871972 10.0880886,51.6015198 9.62323231,49.2613898 L1.02442615,5.97419254 C0.486394471,3.26569055 2.2459083,0.633855004 4.95441029,0.0958233213 C5.27522525,0.0320948799 5.60151943,-6.15718414e-15 5.92860283,-6.21724894e-15 Z" id="path-1"></path>
    <path d="M10.6552981,33.9676573 L10.6552981,41.3923042 C10.6552981,41.8877633 10.9050367,42.3203851 11.3457712,42.5064963 C11.5342974,42.5693335 11.7228236,42.6297578 11.9089053,42.6297578 C12.158644,42.6297578 12.4720395,42.5669205 12.6605532,42.3832348 L23.3160017,33.9673974 L38.8585991,33.9673974 C43.6843891,33.9673974 47.6336744,30.0689628 47.6336744,25.3053093 L47.6336744,8.66208814 C47.6336744,3.89843464 43.6843891,0 38.8585991,0 L8.77507525,0 C3.9492853,0 0,3.89843464 0,8.66208814 L0,25.3053093 C0,30.0689628 3.9492853,33.9673974 8.77507525,33.9673974 L10.6552981,33.9676573 Z" id="path-2"></path>
    <filter x="-58.8%" y="-42.2%" width="217.6%" height="231.4%" filterUnits="objectBoundingBox" id="filter-3">
      <feMorphology radius="0.5" operator="dilate" in="SourceAlpha" result="shadowSpreadOuter1"></feMorphology>
      <feOffset dx="0" dy="10" in="shadowSpreadOuter1" result="shadowOffsetOuter1"></feOffset>
      <feGaussianBlur stdDeviation="7.5" in="shadowOffsetOuter1" result="shadowBlurOuter1"></feGaussianBlur>
      <feComposite in="shadowBlurOuter1" in2="SourceAlpha" operator="out" result="shadowBlurOuter1"></feComposite>
      <feColorMatrix values="0 0 0 0 0   0 0 0 0 0   0 0 0 0 0  0 0 0 0.0502717391 0" type="matrix" in="shadowBlurOuter1"></feColorMatrix>
    </filter>
  </defs>
  <g id="Article-Page" stroke="none" stroke-width="1" fill="none" fill-rule="evenodd">
    <g id="HelpCenter–ArticlePage-(D)" transform="translate(-135.000000, -2225.000000)">
      <g id="Actions" transform="translate(136.000000, 2230.000000)">
        <g id="Have-more-questions?">
          <g id="Illustration">
            <g id="Boy" transform="translate(38.000000, 0.000000)">
              <g id="Mug" transform="translate(106.719457, 120.573643)">
                <path d="M0.597285068,4.7751938 L0.597285068,20.8704599 C3.33636419,23.2720655 6.91082852,24.4728682 11.3206781,24.4728682 C15.7305276,24.4728682 19.1243891,23.2720655 21.5022624,20.8704599 L21.5022624,4.87718043 C18.978279,6.8863688 15.771609,7.89096299 11.8822523,7.89096299 C7.99289558,7.89096299 4.23123984,6.85237326 0.597285068,4.7751938 Z" id="Fill-Mug" fill="#F7F9F9"></path>
                <ellipse id="Mug-Top" stroke="#E2E5EC" fill="#D3D7DF" cx="11.0497738" cy="3.87984496" rx="10.4524887" ry="3.87984496"></ellipse>
                <ellipse id="Mug-Inside" fill="#9E6939" cx="11.2170134" cy="5.23082056" rx="8.49339382" ry="1.64942521"></ellipse>
                <path d="M0.597285068,4.17829457 L0.597285068,20.2945736" id="Mug-Left" stroke="#E2E5EC"></path>
                <path d="M21.5022624,4.17829457 L21.5022624,20.2945736" id="Mug-Right" stroke="#E2E5EC"></path>
                <path d="M26.280543,17.3100775 L26.280543,8.35658915 C23.9714429,8.35658915 22.0995475,10.5154863 22.0995475,12.8231323 C22.0995475,15.1307782 23.9714429,17.3100775 26.280543,17.3100775 Z" id="Mug-Handle" stroke="#E2E5EC" stroke-width="2" stroke-linecap="round" stroke-linejoin="round" transform="translate(24.190045, 12.833333) scale(-1, 1) translate(-24.190045, -12.833333) "></path>
                <path d="M0.597285068,20.8914729 C3.05332876,23.2790698 6.53749165,24.4728682 11.0497738,24.4728682 C15.5620559,24.4728682 19.0462188,23.2790698 21.5022624,20.8914729" id="Mug-Bottom" stroke="#E2E5EC" stroke-linecap="round"></path>
                <path d="M2.38914027,4.7751938 L2.38914027,20.4629753 C1.84502122,20.8985163 1.24773615,21.2403153 0.597285068,21.4883721 L0.597285068,6.09361174 L2.38914027,4.7751938 Z" id="Shadow" fill="#9DA5B2" opacity="0.100000001" transform="translate(1.493213, 13.131783) scale(-1, 1) translate(-1.493213, -13.131783) "></path>
              </g>
              <g id="Computer" transform="translate(0.000000, 98.581315)">
                <path d="M14.415061,54.8850326 L80.5698409,54.8850326 C83.1777321,53.5767903 84.4816777,52.1560585 84.4816777,50.6228374 C83.2730904,52.0587469 81.8556061,52.7767017 80.2292249,52.7767017 C78.6028436,52.7767017 56.8326029,52.7767017 14.9185028,52.7767017 C12.6856598,52.8091389 11.2846216,52.0911841 10.7153882,50.6228374 C11.3249366,53.0098332 12.3839796,54.4355086 13.8925171,54.8998635 L14.415061,54.8850326 Z" id="Shadow" fill="#373C50" opacity="0"></path>
                <g id="Laptop">
                  <use fill="#E2E5EC" fill-rule="evenodd" xlink:href="#path-1"></use>
                  <path stroke="#BAC1D3" stroke-width="1" d="M5.92860283,0.5 C5.63422777,0.5 5.34056301,0.528885392 5.05182955,0.586240989 C2.61417776,1.0704695 1.03061531,3.43912149 1.51484382,5.87677329 L10.11365,49.1639705 C10.5320206,51.2700876 12.3801402,52.7871972 14.527409,52.7871972 L80.4134904,52.7871972 C82.5607591,52.7871972 84.4088787,51.2700876 84.8272494,49.1639705 L93.4260555,5.87677329 C93.4834111,5.58803983 93.5122965,5.29437506 93.5122965,5 C93.5122965,2.51471863 91.4975779,0.5 89.0122965,0.5 L5.92860283,0.5 Z"></path>
                </g>
                <path d="M88.6646797,4.85909443 C91.2725709,3.55085211 92.5765165,2.13012037 92.5765165,0.596899225 C91.3679292,2.63373123 89.9504449,3.65214724 88.3240637,3.65214724 C86.6976824,3.65214724 59.1897944,3.65214724 5.80039966,3.65214724 C3.5675567,3.08366199 2.1665185,2.06524598 1.59728507,0.596899225 C2.55519605,2.97400779 3.78842031,4.39473952 5.29695782,4.85909443 L88.6646797,4.85909443 Z" id="Light" fill="#FFFFFF" opacity="0.25" transform="translate(47.086901, 2.727997) scale(1, -1) translate(-47.086901, -2.727997) "></path>
                <path d="M13.8626308,52.7535447 L80.8194726,52.7535447 C83.4589819,51.4453024 84.7787366,50.0245706 84.7787366,48.4913495 C83.5554964,49.927259 82.1208265,50.6452138 80.4747269,50.6452138 C78.8286274,50.6452138 56.7944439,50.6452138 14.3721764,50.6452138 C12.1122624,50.677651 10.694238,49.9596962 10.1181031,48.4913495 C10.7350417,50.8783453 11.8069245,52.3040207 13.3337516,52.7683756 L13.8626308,52.7535447 Z" id="Shadow" fill="#373C50" opacity="0.049999997"></path>
                <ellipse id="Oval-2" fill="#9DA5B2" opacity="0.49682971" cx="47.5751483" cy="26.6435986" rx="5.29263049" ry="5.32871972"></ellipse>
              </g>
              <g id="Head" transform="translate(28.521679, 39.901371)">
                <rect id="Fill-Neck" fill="#FFDBC3" x="14.8193654" y="53.8840965" width="8.46820878" height="4.79584775"></rect>
                <path d="M14.8524855,55.4576323 C17.8113614,56.2015684 20.6230576,56.2015684 23.2875741,55.4576323 L23.2713645,53.8840965 L14.8193654,53.8840965" id="Shadow-Neck" fill="#804A54" opacity="0.300000012"></path>
                <path d="M2.01674135,27.2404978 C0.672247116,22.505982 1.31472294e-13,19.2725804 1.31450243e-13,17.5402933 C1.31450243e-13,14.9418625 1.33465631,2.7550648 17.9949437,0.750147921 C21.239202,1.92489558 24.7333196,1.92489558 28.4772963,0.750147921 C34.0932614,-1.01197356 35.4026442,4.62005228 31.9439236,5.98096261 C35.0960873,7.81665592 36.373383,14.3969001 35.7758107,25.7216951 L34.1065914,25.7216951 C33.9071388,21.5832412 33.6795719,19.1299621 33.4238907,18.3618578 C33.1682096,17.5937536 32.1529438,15.9552807 30.3780935,13.4464391 C29.894138,13.1315995 29.4512927,13.1315995 29.0495577,13.4464391 C28.446955,13.9186985 25.3532826,14.7964849 23.3888397,13.4464391 C21.4243968,12.0963933 20.1642912,9.93901029 15.6065234,10.3495339 C11.0487556,10.7600575 5.37580867,12.5105384 4.61500985,21.1548152 L4.19844387,26.4877419 L2.01674135,27.2404978 Z" id="Fill-Haircut" fill="#BC7856"></path>
                <path d="M33.8653063,22.4351931 L33.8728351,22.4351931 L33.8728351,41.6243545 L33.834586,41.6243545 C33.5479604,49.323742 27.0473636,53.8840965 19.0534698,53.8840965 C11.0595759,53.8840965 4.53184357,49.323742 4.24400482,41.6243545 L4.23410439,41.6243545 L4.23410439,22.4351931 L4.27864548,22.4351931 C4.70314802,14.2707942 8.81654776,10.1885947 16.6188447,10.1885947 C22.6904891,10.1885947 21.1242746,13.8912092 25.7761263,13.8912092 C30.427978,13.8912092 28.8520371,11.5131089 31.1690252,14.4348353 C33.3082379,17.1323867 33.8021129,20.5769583 33.8653063,22.4351931 Z" id="Face" stroke="#7F4953" fill="#FFDBC3" stroke-linecap="round" stroke-linejoin="round"></path>
                <path d="M19.0799723,41.3425012 L19.0799723,41.1974132 C31.6143553,41.1974132 31.6101265,37.5880382 31.6101265,36.4037121 C31.6101265,35.6141613 32.2271461,35.2186087 33.4611852,35.2170543 L33.4611852,35.7259138 L33.4611852,44.4556792 C31.9649589,49.9756369 27.1712213,53.0551785 19.0799723,53.6943041 L19.0799723,53.8393921 C10.9887234,53.2002665 6.19498578,50.1207249 4.69875946,44.6007671 L4.69875946,35.8710018 L4.69875946,35.3621422 C5.93279863,35.3636967 6.54981822,35.7592493 6.54981822,36.5488 C6.54981822,37.7331262 6.54558939,41.3425012 19.0799723,41.3425012 Z" id="Combined-Shape" fill="#825059" opacity="0.152513587"></path>
                <path d="M5.32312514,25.1473882 C5.80569864,18.3919523 7.9380843,14.3023941 11.7202821,12.8787135 C15.5024799,11.455033 18.3016561,11.455033 20.1178105,12.8787135 C22.5364496,14.4330102 24.5871286,15.1645817 26.2698474,15.0734279 C28.7939256,14.9366974 30.1354317,13.1753317 30.7393808,14.3360455 C30.1816905,13.3826175 29.8232061,12.8968402 29.6639276,12.8787135 C29.4250098,12.8515235 27.7496131,14.0127577 25.9606368,13.8995745 C24.1716605,13.7863912 22.0994458,12.5460588 20.1178105,10.7556819 C18.7967203,9.56209722 15.6431947,9.73013749 10.6572335,11.2598027 C7.48863281,13.1242475 5.55631444,15.5940709 4.8602784,18.669273 C4.16424236,21.7444751 4.1201371,23.9038468 4.72796263,25.1473882 L5.32312514,25.1473882 Z" id="Shadow-Haircut" fill="#DF9F84" opacity="0.5"></path>
                <path d="M4.23410439,34.7007055 L4.23410439,26.7076259 C2.18797702,26.7076259 0.529263049,28.6349458 0.529263049,30.6950588 C0.529263049,32.7551718 2.18797702,34.7007055 4.23410439,34.7007055 Z" id="Ear-1" stroke="#7F4953" fill="#FFDBC3" stroke-linecap="round" stroke-linejoin="round"></path>
                <path d="M38.1069395,34.7007055 L38.1069395,26.7076259 C36.0608121,26.7076259 34.4020982,28.6349458 34.4020982,30.6950588 C34.4020982,32.7551718 36.0608121,34.7007055 38.1069395,34.7007055 Z" id="Ear-2" stroke="#373C50" stroke-width="4" fill="#373C50" stroke-linecap="round" stroke-linejoin="round" transform="translate(36.254519, 30.704166) scale(-1, 1) translate(-36.254519, -30.704166) "></path>
                <path d="M1.91589231,27.2404978 C-2.9611962,13.6001377 1.47303939,5.05061581 15.2185991,1.59193217 C20.8635659,0.171534968 19.8715376,2.86728957 26.8976992,1.02679417 C33.9238607,-0.813701226 36.8026208,3.71433045 31.1461302,5.95090205 C34.6384538,5.95090205 36.1902355,12.5783755 35.8014753,25.8333223" id="Haircut" stroke="#905F64" stroke-linecap="round" stroke-linejoin="round"></path>
                <path d="M11.6437871,43.226657 C13.0748796,45.0028969 15.5447738,45.8910169 19.0534698,45.8910169 C22.5621657,45.8910169 25.0320599,45.0028969 26.4631524,43.226657" id="Smile" stroke="#7F4953" stroke-width="2" stroke-linecap="round" stroke-linejoin="round"></path>
                <path d="M16.4071736,36.8542329 C16.4024306,38.6157798 17.280869,39.4965532 19.0424887,39.4965532 C20.8041085,39.4965532 21.6898739,38.6084333 21.699785,36.8321933" id="Nose" stroke="#7F4953" stroke-linecap="round" stroke-linejoin="round"></path>
                <polygon id="Rectangle-2" fill="#F7F9F9" opacity="0.200000003" points="12.1730501 26.1747539 14.8193654 26.1747539 12.1730501 32.5692176 9.52673488 32.5692176"></polygon>
                <polygon id="Rectangle-2" fill="#F7F9F9" opacity="0.200000003" points="9.36857619 26.1747539 10.585261 26.1747539 7.93894573 32.5692176 6.72226095 32.5692176"></polygon>
                <polygon id="Rectangle-2" fill="#F7F9F9" opacity="0.200000003" points="30.6972568 26.1747539 33.3435721 26.1747539 30.6972568 32.5692176 28.0509416 32.5692176"></polygon>
                <polygon id="Rectangle-2" fill="#F7F9F9" opacity="0.200000003" points="28.0509416 26.1747539 29.2676264 26.1747539 26.6213111 32.5692176 25.4046263 32.5692176"></polygon>
                <ellipse id="Eye-1" fill="#373C50" cx="10.585261" cy="29.3719857" rx="1.58778915" ry="1.59861592"></ellipse>
                <ellipse id="Eye-2" fill="#373C50" cx="27.5216785" cy="29.3719857" rx="1.58778915" ry="1.59861592"></ellipse>
                <path d="M5.55726201,33.9013975 L15.2154063,33.9013975" id="Line-3" stroke="#707482" opacity="0.200000003" stroke-linecap="square"></path>
                <path d="M23.0229426,33.9013975 L32.6810869,33.9013975" id="Line-3" stroke="#707482" opacity="0.200000003" stroke-linecap="square"></path>
                <path d="M16.671786,29.6384217 L21.5674692,29.6384217" id="Line-3" stroke="#707482" opacity="0.200000003" stroke-linecap="square"></path>
                <rect id="Glass-1" stroke="#373C50" stroke-width="1.5" fill-opacity="0.0504415761" fill="#F7F9F9" stroke-linecap="round" stroke-linejoin="round" x="4.76336744" y="25.6418819" width="11.114524" height="7.46020761" rx="1.5"></rect>
                <rect id="Glass-2" stroke="#373C50" stroke-width="1.5" fill-opacity="0.0504415761" fill="#F7F9F9" stroke-linecap="round" stroke-linejoin="round" x="22.229048" y="25.6418819" width="11.114524" height="7.46020761" rx="1.5"></rect>
                <rect id="Glasses-Connection" fill="#373C50" x="15.8778915" y="28.3062418" width="6.35115658" height="1.06574394"></rect>
                <path d="M24.3461002,20.3131622 L30.1679938,22.4446501" id="Eyebrow-1" stroke="#7F4953" stroke-width="2"></path>
                <path d="M8.46820878,21.3789061 L14.8193654,20.3131622" id="Eyebrow-2" stroke="#7F4953" stroke-width="2"></path>
                <ellipse id="Microphone-Shadow" fill="#373C50" opacity="0.200000003" cx="19.5827328" cy="46.4238888" rx="3.17557829" ry="3.19723183"></ellipse>
                <ellipse id="Microphone" fill="#373C50" cx="19.5827328" cy="45.3581449" rx="3.17557829" ry="3.19723183"></ellipse>
                <path d="M19.0534698,46.9567608 C30.6972568,43.0121811 36.5191504,37.6834614 36.5191504,30.9706016" id="Microphone-Connection-Shadow" stroke="#373C50" stroke-width="4" opacity="0.200000003"></path>
                <path d="M19.0534698,45.8910169 C30.6972568,41.9464372 36.5191504,36.6177175 36.5191504,29.9048577" id="Microphone-Connection" stroke="#373C50" stroke-width="2"></path>
                <path d="M14.5915121,53.2502473 L14.5915121,58.6099535" id="Neck-1" stroke="#7F4953"></path>
                <path d="M23.5404348,53.2357474 L23.5404348,58.5726473" id="Neck-2" stroke="#7F4953"></path>
              </g>
              <g id="Balloon" transform="translate(71.391985, 0.000000)" fill-rule="nonzero">
                <g>
                  <use fill="black" fill-opacity="1" filter="url(#filter-3)" xlink:href="#path-2"></use>
                  <use stroke-opacity="0.246065444" stroke="#373C50" stroke-width="1" fill="#FFFFFF" fill-rule="evenodd" xlink:href="#path-2"></use>
                </g>
                <path d="M24.31501,27.0419172 C23.5910649,27.3151449 22.7584713,27.1645917 22.2059818,26.6599579 C21.651925,26.1566982 21.4866601,25.3983469 21.7866289,24.7389916 C22.0850774,24.0809925 22.7921669,23.6502489 23.5742563,23.6502489 C24.0869773,23.6502489 24.5797943,23.8370496 24.9425309,24.1674267 C25.3052596,24.4978109 25.5103401,24.9466907 25.5103401,25.4136923 C25.5103401,26.1274347 25.038955,26.7700884 24.31501,27.0419172 Z M19.9991189,12.7461349 C20.4812396,12.5927909 20.8761045,12.2721743 21.098025,11.8525651 C21.5479781,10.9896505 22.4984278,10.4348229 23.5468297,10.4250803 C25.0299042,10.4418083 26.242043,11.5068283 26.3170352,12.8548736 C26.3552976,13.9547506 25.5992415,14.9473165 24.4559436,15.3000123 C22.7968686,15.7948856 21.6688903,17.1972824 21.6505145,18.7864656 L21.6505145,20.1860787 C21.6505145,21.1549127 22.5121803,21.9397795 23.5759019,21.9397795 C24.6396235,21.9397795 25.5028174,21.1549484 25.5028174,20.1860787 L25.5028174,18.7864656 C25.5028174,18.6833084 25.6941298,18.6219694 25.6941298,18.6219694 C27.030276,18.2135303 28.1873264,17.424488 28.9923759,16.3692199 C29.7974253,15.3153435 30.209138,14.0537324 30.1647461,12.7698169 C30.101994,11.211289 29.3811285,9.73501985 28.1536701,8.64617011 C26.9262116,7.55881924 25.2870405,6.9426811 23.5742093,6.92733564 L23.5344172,6.92733564 C22.3039026,6.93430605 21.0994041,7.25632807 20.0586425,7.85855536 C19.0194482,8.45938372 18.1868545,9.31530362 17.6572858,10.3287822 C17.4353614,10.7469995 17.4047533,11.229311 17.5731096,11.668441 C17.7414659,12.107571 18.0949989,12.4686176 18.5556876,12.6693576 C18.9874687,12.8716001 19.5169983,12.8994789 19.9991189,12.7461349 Z" id="Question-Mark" fill="#373C50" opacity="0.75"></path>
              </g>
            </g>
            <g id="Desk" transform="translate(0.000000, 137.000000)" opacity="0.100000001" stroke="#373C50" stroke-linecap="round" stroke-linejoin="round" stroke-width="2">
              <path d="M0.498071037,1.00411523 L4.76023543,1.00411523" id="Line"></path>
              <path d="M11.087079,1.00411523 L45.7171647,1.00411523" id="Line"></path>
              <path d="M125.965535,1.00411523 L131.293241,1.00411523" id="Line"></path>
              <path d="M136.48814,1.00411523 L144.479699,1.00411523" id="Line"></path>
            </g>
          </g>
        </g>
      </g>
    </g>
  </g>
</svg>