<svg width="13px" height="13px" viewBox="0 0 13 13" version="1.1" xmlns="http://www.w3.org/2000/svg" xmlns:xlink="http://www.w3.org/1999/xlink">
  <g id="Article-Page" stroke="none" stroke-width="1" fill="none" fill-rule="evenodd">
    <g id="HelpCenter–ArticlePage-(D)" transform="translate(-772.000000, -1077.000000)" fill="#E76F51" fill-rule="nonzero">
      <g id="Question" transform="translate(135.000000, 942.000000)">
        <g id="Buttons" transform="translate(445.000000, 116.000000)">
          <g id="Red" transform="translate(155.000000, 0.000000)">
            <path d="M48.0789804,19.3298615 L43.5,23.9084453 L38.9221457,19.3298615 C38.4822922,18.8900462 37.7697155,18.8900462 37.3298901,19.3298615 C36.8900648,19.7696769 36.8900366,20.4821919 37.3298901,20.9219792 L41.9077445,25.499437 L37.3298901,30.0768949 C36.8900366,30.5167103 36.8900366,31.2292253 37.3298901,31.6690125 C37.7697436,32.1087998 38.4823203,32.1088279 38.9221457,31.6690125 L43.5,27.0926806 L48.0778543,31.6701385 C48.5177078,32.1099538 49.2302845,32.1099538 49.6701099,31.6701385 C50.1099352,31.2303231 50.1099634,30.5178081 49.6701099,30.0780208 L45.0922555,25.500563 L49.6701099,20.9231051 C50.1099634,20.4832897 50.1099634,19.7707747 49.6701099,19.3309875 C49.2313824,18.8900462 48.5188057,18.8900462 48.0789804,19.3298615 Z" id="Shape"></path>
          </g>
        </g>
      </g>
    </g>
  </g>
</svg>