<svg xmlns="http://www.w3.org/2000/svg" xmlns:xlink="http://www.w3.org/1999/xlink" width="86px" height="86px" viewBox="0 0 86 86" version="1.1" class="custom-block__image replaced-svg">
  <g id="Main-Page" stroke="none" stroke-width="1" fill-rule="evenodd" fill="#000000">
    <g id="HelpCenter–MainPage-(D)" transform="translate(-292.000000, -646.000000)">
      <g id="Actions" transform="translate(135.000000, 555.000000)">
        <g id="Guides" transform="translate(30.000000, 30.000000)">
          <g id="Icon" transform="translate(127.000000, 61.000000)">
            <rect id="Rectangle-3" opacity="0.149999991" x="34" y="1" width="18" height="7"></rect>
            <rect id="Rectangle-3" opacity="0.149999991" x="34" y="35" width="18" height="8"></rect>
            <rect id="Rectangle-3" opacity="0.149999991" x="35" y="69" width="16" height="16"></rect>
            <path d="M34.82,0.0039 C34.34344,0.093744 33.99969,0.51562 34.0075,1.0039 L34.0075,8.0039 L29.0075,8.0039 C28.945,7.996088 28.8825,7.996088 28.82,8.0039 C28.33953,8.093744 27.99969,8.51562 28.0075,9.0039 L28.0075,35.0039 L28.0075,34.999994 C28.0075,35.554684 28.45281,35.999994 29.0075,35.999994 L34.0075,35.999994 L34.0075,41.999994 L18.0035,41.999994 C17.941,41.996088 17.8785,41.996088 17.816,41.999994 C17.66756,42.031244 17.53084,42.09765 17.40975,42.187494 L0.40575,55.187494 C0.15575,55.378904 0.01122,55.671874 0.01122,55.984374 C0.01122,56.296874 0.15575,56.593754 0.40575,56.781254 L17.40975,69.781254 C17.57772,69.917974 17.78866,69.992194 18.0035,70.000004 L34.0075,70.000004 L34.0075,85.000004 C34.0075,85.550784 34.45672,86.000004 35.0075,86.000004 L51.0115,86.000004 C51.56619,86.000004 52.0115,85.550784 52.0115,85.000004 L52.0115,70.000004 L57.0154,70.000004 C57.56618,70.000004 58.0154,69.550784 58.0154,69.000004 L58.0154,43.000004 C58.0154,42.449224 57.56618,42.000004 57.0154,42.000004 L52.0154,42.000004 L52.0154,36.000004 L68.0194,36.000004 L68.015494,36.000004 C68.234244,35.996098 68.441274,35.917973 68.609244,35.781254 L85.613244,22.781254 L85.613244,22.78516 C85.863244,22.59375 86.011684,22.30078 86.011684,21.98828 C86.011684,21.67187 85.863244,21.3789 85.613244,21.1914 L68.609244,8.1914 C68.437364,8.0664 68.230334,7.99999 68.015494,8.0039 L52.011494,8.0039 L52.011494,1.0039 C52.011494,0.45312 51.566184,0.0039 51.011494,0.0039 L35.007494,0.0039 C34.944994,-6e-06 34.882494,-6e-06 34.819994,0.0039 L34.82,0.0039 Z M36.0075,2.0039 L50.0115,2.0039 L50.0115,8.0039 L36.0075,8.0039 L36.0075,2.0039 Z M30.0075,10.0039 L67.7025,10.0039 L83.3935,22.0039 L67.6705,34.0039 L30.0065,34.0039 L30.0075,10.0039 Z M36.0075,36.0039 L50.0115,36.0039 L50.0115,42.0039 L36.0075,42.0039 L36.0075,36.0039 Z M18.3165,44.0039 L56.0115,44.0039 L56.0115,68.0039 L18.3475,68.0039 L2.6245,56.0039 L18.3165,44.0039 Z M36.0075,70.0039 L50.0115,70.0039 L50.0115,84.0039 L36.0075,84.0039 L36.0075,70.0039 Z" id="Shape" fill-rule="nonzero"></path>
          </g>
        </g>
      </g>
    </g>
  </g>
</svg>