<?xml version="1.0" encoding="UTF-8" standalone="no"?>
<svg xmlns:inkscape="http://www.inkscape.org/namespaces/inkscape" xmlns:sodipodi="http://sodipodi.sourceforge.net/DTD/sodipodi-0.dtd" xmlns="http://www.w3.org/2000/svg" xmlns:svg="http://www.w3.org/2000/svg" version="1.1" id="svg2" width="3440.5332" height="1000.1333" viewBox="0 0 3440.5332 1000.1333" sodipodi:docname="Connect 3PL -Logo.eps">
  <defs id="defs6"></defs>
  <g id="g8" inkscape:groupmode="layer" inkscape:label="ink_ext_XXXXXX" transform="matrix(1.3333333,0,0,-1.3333333,0,1000.1333)">
    <g id="g10" transform="scale(0.1)">
      <path d="M 3539.22,7440.36 6390.16,5794.35 c 17.36,-10.02 33.98,-21.13 49.88,-33.33 15.9,-12.2 30.93,-25.38 45.1,-39.55 14.17,-14.17 27.36,-29.2 39.56,-45.1 12.19,-15.9 23.3,-32.53 33.32,-49.88 10.02,-17.35 18.86,-35.29 26.53,-53.8 7.67,-18.51 14.1,-37.44 19.28,-56.8 5.19,-19.35 9.09,-38.96 11.71,-58.83 2.61,-19.87 3.92,-39.82 3.92,-59.86 V 2105.19 c 0,-20.04 -1.31,-39.99 -3.92,-59.86 -2.62,-19.87 -6.52,-39.47 -11.71,-58.83 -5.19,-19.36 -11.62,-38.29 -19.28,-56.8 -7.67,-18.51 -16.51,-36.45 -26.53,-53.8 -10.02,-17.35 -21.13,-33.97 -33.33,-49.87 -12.2,-15.9 -25.38,-30.93 -39.55,-45.1 -14.17,-14.17 -29.2,-27.35 -45.1,-39.55 -15.9,-12.2 -32.52,-23.31 -49.88,-33.33 L 3539.22,62.0391 c -17.35,-10.0196 -35.29,-18.8594 -53.8,-26.5274 -18.51,-7.6719 -37.44,-14.1015 -56.8,-19.2812 -19.35,-5.1914 -38.97,-9.08987 -58.83,-11.71097 -19.87,-2.60937 -39.82,-3.917967 -59.86,-3.917967 -20.04,0 -39.99,1.308597 -59.86,3.917967 -19.86,2.6211 -39.48,6.51957 -58.83,11.71097 -19.36,5.1797 -38.29,11.6093 -56.8,19.2812 -18.52,7.668 -36.45,16.5078 -53.8,26.5274 L 229.691,1708.05 c -17.351,10.02 -33.98,21.13 -49.871,33.33 -15.898,12.2 -30.929,25.39 -45.109,39.55 -14.16,14.17 -27.352,29.21 -39.5508,45.1 -12.1993,15.9 -23.3008,32.52 -33.3204,49.88 -10.0195,17.35 -18.8593,35.29 -26.5312,53.8 -7.668,18.51 -14.0977,37.45 -19.2773,56.8 -5.1915,19.36 -9.08989,38.97 -11.71099,58.83 -2.60937,19.87 -3.921872,39.82 -3.921872,59.86 v 3292.01 c 0,20.04 1.312502,39.99 3.921872,59.86 2.6211,19.87 6.51949,39.48 11.71099,58.83 5.1796,19.35 11.6093,38.29 19.2773,56.8 7.6719,18.51 16.5117,36.44 26.5312,53.8 10.0196,17.35 21.129,33.98 33.3321,49.88 12.1991,15.89 25.3791,30.92 39.5471,45.09 14.172,14.17 29.203,27.35 45.101,39.55 15.891,12.2 32.52,23.31 49.871,33.33 L 3080.64,7440.36 c 17.35,10.02 35.28,18.86 53.8,26.53 18.51,7.67 37.44,14.1 56.8,19.29 19.35,5.18 38.97,9.08 58.83,11.7 19.87,2.61 39.82,3.92 59.86,3.92 20.04,0 39.99,-1.31 59.86,-3.92 19.86,-2.62 39.48,-6.52 58.83,-11.7 19.36,-5.19 38.29,-11.62 56.8,-19.29 18.51,-7.67 36.45,-16.51 53.8,-26.53 v 0" style="fill:#5046e5;fill-opacity:1;fill-rule:nonzero;stroke:none" id="path12"></path>
      <path d="m 4117.64,3832.01 h -1615.3 c -10.45,0.2 -20.87,0.9 -31.25,2.11 -10.39,1.21 -20.69,2.92 -30.91,5.13 -10.22,2.21 -20.3,4.91 -30.26,8.09 -9.96,3.2 -19.73,6.86 -29.33,11 -9.61,4.13 -18.98,8.72 -28.14,13.77 -9.15,5.05 -18.04,10.53 -26.66,16.44 -8.63,5.91 -16.94,12.22 -24.95,18.94 -8.02,6.72 -15.68,13.81 -23,21.27 -7.32,7.46 -14.27,15.26 -20.83,23.4 -6.57,8.13 -12.72,16.57 -18.47,25.3 -5.75,8.74 -11.06,17.73 -15.93,26.98 -4.87,9.24 -9.29,18.71 -13.24,28.38 -3.96,9.68 -7.43,19.53 -10.43,29.54 -3,10.02 -5.51,20.16 -7.52,30.41 -2.02,10.26 -3.53,20.59 -4.54,31 -1.02,10.4 -1.52,20.83 -1.52,31.29 0,10.45 0.5,20.88 1.52,31.29 1.01,10.4 2.52,20.73 4.54,30.99 2.01,10.26 4.52,20.39 7.52,30.41 3,10.02 6.47,19.86 10.43,29.54 3.95,9.67 8.37,19.14 13.24,28.39 4.87,9.25 10.18,18.24 15.93,26.97 5.75,8.73 11.9,17.17 18.47,25.31 6.56,8.13 13.51,15.93 20.83,23.39 7.32,7.46 14.98,14.55 23,21.27 8.01,6.72 16.32,13.03 24.95,18.95 8.62,5.91 17.51,11.38 26.66,16.43 9.16,5.05 18.53,9.64 28.14,13.78 9.6,4.14 19.37,7.8 29.33,10.99 9.96,3.19 20.04,5.89 30.26,8.1 10.22,2.2 20.52,3.92 30.91,5.12 10.38,1.21 20.8,1.92 31.25,2.12 h 1938.29 c 5.17,0.19 10.28,0.88 15.32,2.05 5.04,1.18 9.92,2.83 14.64,4.95 4.73,2.11 9.21,4.66 13.45,7.64 4.23,2.97 8.14,6.33 11.73,10.06 3.59,3.73 6.8,7.76 9.61,12.11 2.82,4.34 5.19,8.92 7.13,13.72 1.93,4.8 3.39,9.74 4.38,14.82 0.99,5.09 1.48,10.22 1.48,15.39 0,5.18 -0.49,10.31 -1.48,15.39 -0.99,5.08 -2.45,10.03 -4.38,14.83 -1.94,4.8 -4.31,9.37 -7.13,13.72 -2.81,4.34 -6.02,8.38 -9.61,12.11 -3.59,3.73 -7.5,7.08 -11.73,10.06 -4.24,2.97 -8.72,5.52 -13.45,7.64 -4.72,2.11 -9.6,3.76 -14.64,4.94 -5.04,1.17 -10.15,1.86 -15.32,2.06 H 2502.22 c -15.86,-0.01 -31.68,-0.8 -47.47,-2.37 -15.79,-1.56 -31.46,-3.89 -47.02,-7 -15.56,-3.1 -30.93,-6.96 -46.1,-11.58 -15.18,-4.61 -30.1,-9.95 -44.75,-16.03 -14.65,-6.08 -28.98,-12.87 -42.96,-20.35 -13.99,-7.48 -27.58,-15.64 -40.76,-24.46 -13.19,-8.82 -25.91,-18.26 -38.18,-28.33 -12.25,-10.07 -23.99,-20.71 -35.2,-31.93 -11.22,-11.23 -21.85,-22.97 -31.92,-35.24 -10.06,-12.26 -19.49,-24.99 -28.3,-38.18 -8.81,-13.2 -16.95,-26.79 -24.43,-40.78 -7.47,-14 -14.25,-28.32 -20.32,-42.98 -6.06,-14.66 -11.4,-29.58 -16,-44.76 -4.61,-15.18 -8.45,-30.55 -11.55,-46.11 -3.09,-15.56 -5.42,-31.23 -6.97,-47.02 -1.56,-15.79 -2.33,-31.62 -2.33,-47.48 0,-15.86 0.77,-31.69 2.33,-47.48 1.55,-15.79 3.88,-31.46 6.97,-47.02 3.1,-15.56 6.94,-30.93 11.55,-46.11 4.6,-15.18 9.94,-30.1 16,-44.76 6.07,-14.66 12.85,-28.99 20.32,-42.98 7.48,-13.99 15.62,-27.58 24.43,-40.77 8.81,-13.2 18.24,-25.93 28.3,-38.2 10.07,-12.26 20.7,-24 31.92,-35.23 11.21,-11.22 22.95,-21.86 35.2,-31.93 12.27,-10.07 24.99,-19.52 38.18,-28.34 13.18,-8.81 26.77,-16.97 40.76,-24.45 13.98,-7.49 28.31,-14.27 42.96,-20.35 14.65,-6.08 29.57,-11.42 44.75,-16.04 15.17,-4.61 30.54,-8.47 46.1,-11.57 15.56,-3.11 31.23,-5.44 47.02,-7.01 15.79,-1.56 31.61,-2.35 47.47,-2.36 h 1615.3 c 10.45,-0.2 20.87,-0.9 31.25,-2.11 10.39,-1.21 20.69,-2.92 30.91,-5.13 10.21,-2.21 20.3,-4.91 30.26,-8.1 9.95,-3.18 19.73,-6.85 29.33,-10.99 9.61,-4.13 18.98,-8.73 28.14,-13.77 9.15,-5.05 18.04,-10.53 26.66,-16.44 8.63,-5.91 16.95,-12.23 24.95,-18.94 8.02,-6.72 15.68,-13.81 23,-21.27 7.32,-7.47 14.27,-15.26 20.83,-23.4 6.57,-8.14 12.72,-16.57 18.47,-25.3 5.75,-8.74 11.06,-17.73 15.93,-26.98 4.87,-9.25 9.29,-18.71 13.24,-28.39 3.96,-9.67 7.43,-19.52 10.43,-29.54 3,-10.01 5.51,-20.15 7.52,-30.4 2.02,-10.26 3.53,-20.59 4.54,-31 1.02,-10.41 1.52,-20.84 1.52,-31.29 0,-10.45 -0.5,-20.88 -1.52,-31.29 -1.01,-10.4 -2.52,-20.74 -4.54,-30.99 -2.01,-10.26 -4.52,-20.4 -7.52,-30.41 -3,-10.02 -6.47,-19.86 -10.43,-29.54 -3.95,-9.68 -8.37,-19.14 -13.24,-28.39 -4.87,-9.25 -10.18,-18.24 -15.93,-26.97 -5.75,-8.74 -11.9,-17.17 -18.47,-25.31 -6.56,-8.13 -13.51,-15.93 -20.83,-23.4 -7.32,-7.46 -14.98,-14.55 -23,-21.26 -8,-6.72 -16.32,-13.04 -24.95,-18.95 -8.62,-5.91 -17.51,-11.39 -26.66,-16.43 -9.16,-5.05 -18.53,-9.64 -28.14,-13.78 -9.6,-4.14 -19.38,-7.8 -29.33,-10.99 -9.96,-3.19 -20.05,-5.89 -30.26,-8.1 -10.22,-2.21 -20.52,-3.91 -30.91,-5.13 -10.38,-1.2 -20.8,-1.91 -31.25,-2.11 H 2179.23 c -5.17,-0.19 -10.28,-0.88 -15.32,-2.06 -5.04,-1.17 -9.92,-2.82 -14.64,-4.94 -4.73,-2.12 -9.21,-4.66 -13.45,-7.64 -4.23,-2.98 -8.14,-6.33 -11.73,-10.06 -3.59,-3.73 -6.8,-7.76 -9.61,-12.11 -2.82,-4.35 -5.19,-8.92 -7.12,-13.72 -1.94,-4.8 -3.4,-9.74 -4.39,-14.82 -0.99,-5.09 -1.48,-10.22 -1.48,-15.4 0,-5.17 0.49,-10.3 1.48,-15.38 0.99,-5.08 2.45,-10.03 4.39,-14.83 1.93,-4.8 4.3,-9.37 7.12,-13.71 2.81,-4.35 6.02,-8.39 9.61,-12.12 3.59,-3.73 7.5,-7.08 11.73,-10.06 4.24,-2.97 8.72,-5.52 13.45,-7.64 4.72,-2.11 9.6,-3.76 14.64,-4.94 5.04,-1.18 10.15,-1.87 15.32,-2.06 h 1938.41 c 15.86,0.01 31.68,0.8 47.47,2.36 15.79,1.57 31.46,3.9 47.02,7.01 15.56,3.1 30.92,6.96 46.1,11.57 15.18,4.62 30.1,9.96 44.75,16.04 14.66,6.08 28.98,12.86 42.96,20.35 13.99,7.49 27.58,15.64 40.76,24.45 13.19,8.82 25.91,18.27 38.18,28.34 12.25,10.07 23.99,20.71 35.2,31.93 11.22,11.23 21.85,22.97 31.92,35.23 10.05,12.27 19.49,25 28.3,38.2 8.81,13.19 16.95,26.78 24.43,40.77 7.47,13.99 14.25,28.32 20.32,42.98 6.06,14.66 11.4,29.58 16,44.76 4.61,15.18 8.45,30.55 11.55,46.11 3.09,15.56 5.42,31.23 6.97,47.02 1.56,15.79 2.33,31.62 2.33,47.48 0,15.86 -0.77,31.69 -2.33,47.48 -1.55,15.79 -3.88,31.46 -6.97,47.02 -3.1,15.56 -6.94,30.93 -11.55,46.11 -4.6,15.18 -9.94,30.1 -16,44.76 -6.07,14.66 -12.85,28.98 -20.32,42.98 -7.48,13.99 -15.62,27.58 -24.43,40.78 -8.81,13.19 -18.25,25.92 -28.3,38.18 -10.07,12.27 -20.7,24.01 -31.92,35.24 -11.21,11.22 -22.95,21.86 -35.2,31.93 -12.27,10.07 -24.99,19.51 -38.18,28.33 -13.18,8.82 -26.77,16.98 -40.76,24.46 -13.98,7.48 -28.3,14.27 -42.96,20.35 -14.65,6.08 -29.57,11.42 -44.75,16.03 -15.18,4.62 -30.54,8.48 -46.1,11.58 -15.56,3.11 -31.23,5.44 -47.02,7 -15.79,1.57 -31.61,2.36 -47.47,2.37 z m 645.86,1454.03 c 0,-156.73 -218.27,-408.67 -262.39,-458.59 -7.86,-8.32 -17.03,-14.79 -27.5,-19.42 -10.47,-4.63 -21.43,-7.06 -32.87,-7.28 -11.47,0.1 -22.45,2.48 -32.94,7.12 -10.49,4.64 -19.64,11.17 -27.43,19.58 -44.12,49.92 -262.39,301.86 -262.39,458.59 0,10.57 0.52,21.12 1.56,31.64 1.03,10.52 2.59,20.96 4.64,31.33 2.07,10.37 4.63,20.61 7.7,30.72 3.07,10.12 6.63,20.06 10.67,29.82 4.05,9.77 8.56,19.32 13.54,28.64 4.99,9.32 10.41,18.38 16.29,27.17 5.87,8.78 12.16,17.27 18.87,25.44 6.7,8.17 13.79,15.99 21.27,23.47 7.47,7.47 15.3,14.56 23.46,21.27 8.18,6.7 16.66,12.99 25.45,18.87 8.78,5.87 17.84,11.3 27.16,16.28 9.33,4.98 18.87,9.5 28.64,13.54 9.76,4.05 19.7,7.6 29.82,10.67 10.11,3.07 20.36,5.64 30.72,7.7 10.37,2.06 20.82,3.61 31.34,4.65 10.52,1.03 21.06,1.55 31.63,1.55 10.57,0 21.12,-0.52 31.64,-1.55 10.52,-1.04 20.96,-2.59 31.33,-4.65 10.36,-2.06 20.61,-4.63 30.72,-7.7 10.12,-3.07 20.06,-6.62 29.82,-10.67 9.77,-4.04 19.32,-8.56 28.64,-13.54 9.32,-4.98 18.38,-10.41 27.16,-16.28 8.79,-5.88 17.27,-12.17 25.45,-18.87 8.17,-6.71 15.99,-13.8 23.46,-21.27 7.48,-7.48 14.57,-15.3 21.27,-23.47 6.71,-8.17 13,-16.66 18.87,-25.44 5.88,-8.79 11.3,-17.85 16.29,-27.17 4.98,-9.32 9.49,-18.87 13.54,-28.64 4.05,-9.76 7.6,-19.7 10.67,-29.82 3.07,-10.11 5.63,-20.35 7.7,-30.72 2.06,-10.37 3.61,-20.81 4.65,-31.33 1.03,-10.52 1.55,-21.07 1.55,-31.64 z M 2501.88,2377.75 c 0,-156.74 -218.27,-408.68 -262.39,-457.44 -7.64,-8.63 -16.73,-15.28 -27.27,-19.94 -10.54,-4.66 -21.58,-6.92 -33.1,-6.76 -11.5,-0.04 -22.51,2.27 -33.03,6.93 -10.52,4.65 -19.63,11.24 -27.34,19.77 -44.12,48.76 -262.39,300.7 -262.39,457.44 0,10.57 0.52,21.11 1.55,31.63 1.04,10.52 2.59,20.96 4.65,31.33 2.07,10.37 4.63,20.61 7.7,30.73 3.07,10.11 6.62,20.05 10.67,29.82 4.05,9.76 8.56,19.31 13.54,28.63 4.98,9.32 10.41,18.38 16.28,27.17 5.88,8.79 12.17,17.27 18.88,25.44 6.7,8.17 13.79,15.99 21.26,23.47 7.48,7.47 15.3,14.57 23.47,21.27 8.18,6.71 16.66,12.99 25.44,18.87 8.79,5.87 17.85,11.3 27.17,16.28 9.32,4.99 18.87,9.5 28.64,13.54 9.76,4.05 19.7,7.61 29.82,10.68 10.11,3.06 20.36,5.63 30.72,7.69 10.37,2.06 20.81,3.61 31.33,4.65 10.52,1.03 21.07,1.55 31.64,1.55 10.57,0 21.11,-0.52 31.63,-1.55 10.52,-1.04 20.97,-2.59 31.34,-4.65 10.36,-2.06 20.61,-4.63 30.72,-7.69 10.12,-3.07 20.06,-6.63 29.82,-10.68 9.77,-4.04 19.31,-8.55 28.64,-13.54 9.32,-4.98 18.37,-10.41 27.16,-16.28 8.79,-5.88 17.27,-12.16 25.45,-18.87 8.16,-6.7 15.99,-13.8 23.46,-21.27 7.48,-7.48 14.57,-15.3 21.27,-23.47 6.71,-8.17 13,-16.65 18.87,-25.44 5.88,-8.79 11.3,-17.85 16.29,-27.17 4.98,-9.32 9.49,-18.87 13.54,-28.63 4.04,-9.77 7.6,-19.71 10.67,-29.82 3.07,-10.12 5.63,-20.36 7.69,-30.73 2.06,-10.37 3.62,-20.81 4.65,-31.33 1.04,-10.52 1.56,-21.06 1.56,-31.63 v 0" style="fill:#ebedef;fill-opacity:1;fill-rule:nonzero;stroke:none" id="path14"></path>
      <path d="m 9048.18,2911.31 c 206.48,0 384.31,48.65 532.95,146.47 v 456.19 c -155.66,-97.83 -316.74,-146.47 -484.29,-146.47 -196.2,0 -294.57,132.96 -294.57,399.44 0,131.34 24.85,232.96 75.66,305.4 50.27,72.42 123.78,108.1 218.91,108.1 95.66,0 219.45,-32.98 371.87,-98.93 l 169.18,423.24 c -171.35,84.86 -352.96,127.55 -544.29,127.55 -279.99,0 -496.2,-76.21 -647.55,-227.55 -151.34,-151.35 -227.55,-365.39 -227.55,-641.06 0,-276.19 70.81,-487 211.89,-633.47 141.6,-145.93 347.54,-218.91 617.79,-218.91 z M 10857.3,4099.9 c 37.8,-69.73 56.7,-178.37 56.7,-325.94 0,-147.01 -18.3,-256.74 -56.2,-329.16 -37.3,-72.42 -100,-108.11 -187.5,-108.11 -87,0 -150.3,36.22 -189.8,109.18 -38.9,72.44 -58.3,182.16 -58.3,328.09 0,146.49 18.9,254.59 57.8,325.4 38.4,70.27 101.6,105.94 188.6,105.94 87.6,0 150.3,-35.13 188.7,-105.4 z m 640.5,-324.85 c 3.2,258.36 -71.9,467 -224.9,624.84 -153.5,157.82 -353.5,235.65 -599.9,232.41 -263.8,0 -469.2,-75.67 -616.2,-226.48 -145.41,-151.33 -218.38,-360.51 -218.38,-627.52 0,-267.57 74.59,-478.9 223.18,-634.03 150.3,-155.67 354.1,-232.96 611.4,-232.96 257.3,0 459.4,75.66 605.3,228.1 146,151.87 219.5,363.76 219.5,635.64 z m 1949.1,-834.55 v 1080.49 c 0,193.5 -51.4,343.76 -153.5,450.78 -102.2,107.03 -244.9,160.53 -428.6,160.53 -236.8,0 -403.8,-78.37 -501.7,-235.12 h -34.5 l -71.4,205.4 h -433.5 V 2940.5 h 573.5 v 726.99 c 0,188.64 22.2,321.6 66,398.36 43.7,76.74 114,114.59 209.1,114.59 134.1,0 200.6,-111.35 200.6,-334.04 v -905.9 z m 2012.3,0 v 1080.49 c 0,193.5 -50.8,343.76 -153,450.78 -102.1,107.03 -244.9,160.53 -428.6,160.53 -236.7,0 -404.3,-78.37 -502.1,-235.12 h -34.1 l -71.8,205.4 h -433.5 V 2940.5 h 574 v 726.99 c 0,188.64 21.6,321.6 65.9,398.36 43.8,76.74 113.5,114.59 209.2,114.59 133.5,0 200.6,-111.35 200.6,-334.04 v -905.9 z m 1335,1228.58 c 43.4,-47.56 65.4,-111.89 66.6,-191.89 h -491.9 c 7.6,87.58 32.9,153.52 77.4,197.84 43.7,43.78 102.1,65.95 173.9,65.95 72.5,0 130.3,-23.8 174,-71.9 z m -142,-1257.77 c 134.6,0 250.3,8.65 346.4,26.49 96.2,18.36 187.5,49.73 274.6,95.66 v 412.41 c -97.9,-47.03 -189.8,-79.98 -275.7,-98.91 -85.3,-18.92 -181.1,-28.64 -285.9,-28.64 -104.9,0 -189.2,26.47 -253.6,79.45 -63.6,52.44 -97.3,125.4 -100.4,218.91 h 1024.8 v 254.58 c 0,244.32 -68.1,432.41 -204.3,563.76 -136.9,131.34 -333.6,197.28 -590.8,197.28 -257.8,0 -457.3,-75.13 -598.3,-224.85 -141.2,-150.27 -212,-363.23 -212,-638.88 0,-276.21 76.9,-488.63 229.7,-637.28 153.5,-147 368.6,-219.98 645.5,-219.98 z m 1810.6,0 c 206.6,0 384.4,48.65 533,146.47 v 456.19 c -155.7,-97.83 -316.7,-146.47 -484.3,-146.47 -196.2,0 -294.5,132.96 -294.5,399.44 0,131.34 24.8,232.96 75.6,305.4 50.3,72.42 123.7,108.1 218.9,108.1 95.6,0 219.4,-32.98 371.9,-98.93 l 169.1,423.24 c -171.3,84.86 -353,127.55 -544.3,127.55 -280,0 -496.1,-76.21 -647.5,-227.55 -151.3,-151.35 -227.6,-365.39 -227.6,-641.06 0,-276.19 70.9,-487 212,-633.47 141.5,-145.93 346.9,-218.91 617.7,-218.91 z m 1522.1,614.03 v 646.98 h 407.7 v 430.26 h -407.7 v 332.41 h -376.2 l -148.7,-348.63 -253.9,-180.54 v -233.5 h 200.5 v -684.28 c 0,-197.84 43.2,-343.23 129.2,-436.73 86.4,-93.51 224.8,-140 415.1,-140 95.6,0 179.4,7.56 251.9,22.71 71.8,15.12 143.3,38.36 214,70.27 v 416.73 c -108.7,-37.84 -201,-56.76 -277.3,-56.76 -102.7,0 -154.6,53.51 -154.6,161.08 z m 1266.5,-614.03 c 281,0 500.4,57.29 658.3,171.88 157.3,114.6 236.2,271.33 236.2,470.25 0,292.96 -179,462.68 -536.1,508.07 v 8.12 c 153,43.78 270.7,112.42 351.7,207.01 81.7,94.59 122.2,208.65 122.2,342.68 0,155.13 -62.7,276.75 -188.6,364.86 -125.9,88.09 -300.4,131.89 -523.2,131.89 -155.7,0 -292.4,-17.31 -411.4,-51.36 -119.4,-34.05 -234,-89.72 -344.9,-167.01 l 239.6,-385.93 c 146.4,90.81 288.6,136.75 425.3,136.75 76.2,0 135.1,-14.06 177.8,-41.62 42.2,-27.56 63.3,-69.19 63.3,-124.86 0,-150.81 -147.1,-226.47 -441.6,-226.47 h -135.1 v -435.12 h 131.8 c 167.6,-3.24 285.5,-21.61 353.5,-54.59 68.7,-32.97 102.7,-89.73 102.7,-170.27 0,-80.52 -29.1,-138.36 -87.6,-174.57 -58.8,-35.69 -151.2,-53.52 -277.2,-53.52 -188,0 -372.9,46.49 -555.6,140 v -480.53 c 198.8,-77.29 411.8,-115.66 638.9,-115.66 z m 1830.2,1705.86 h 148 c 160.6,0 241.1,-72.44 241.1,-218.37 0,-85.4 -25.3,-152.96 -76.2,-201.6 -51.3,-49.2 -121.1,-73.52 -208.7,-73.52 h -104.2 z m 162.7,468.08 H 22501 V 2940.5 h 580.6 v 710.77 h 162.7 c 258.8,0 458.8,64.86 601.6,195.13 141,131.89 211.8,312.41 211.8,542.13 0,229.72 -68.7,403.23 -205.4,520.51 -137.2,117.3 -339.5,176.21 -608,176.21 z M 25804.6,2940.5 v 467.54 h -824.8 v 1677.21 h -579.9 V 2940.5 h 1404.7" style="fill:#5046e5;fill-opacity:1;fill-rule:nonzero;stroke:none" id="path16"></path>
    </g>
  </g>
</svg>
