<svg xmlns="http://www.w3.org/2000/svg" xmlns:xlink="http://www.w3.org/1999/xlink" width="72px" height="86px" viewBox="0 0 72 86" version="1.1" class="custom-block__image replaced-svg">
  <g id="Main-Page" stroke="none" stroke-width="1" fill-rule="evenodd" fill="#000000">
    <g id="HelpCenter–MainPage-(D)" transform="translate(-1070.000000, -645.000000)">
      <g id="Actions" transform="translate(135.000000, 555.000000)">
        <g id="Community" transform="translate(800.000000, 30.000000)">
          <g id="Icon" transform="translate(134.000000, 60.000000)">
            <path d="M15.71149,74.00012 L16.273713,79.09382 C16.3222302,79.6091933 16.7558192,80.0023489 17.27322,80.00012 L56.722526,80.00012 C57.2399268,80.0023489 57.6735158,79.6091933 57.722033,79.09382 L58.284256,74.00012 L62.282286,74.00012 L66.467723,84.00002 L55.972895,84.00002 L37.044725,84.00002 C37.0308462,83.9995859 30.6798095,83.9995859 17.991615,84.00002 L7.496788,84.00002 L11.682225,74.00012 L15.71149,74.00012 Z" id="Path" opacity="0.149999991"></path>
            <polygon id="Path" opacity="0.149999991" points="20.521619 50.00042 53.442892 50.00042 58.846479 50.00042 55.816722 78.00012 18.179024 78.00012 15.118033 50.00042"></polygon>
            <path d="M36.982256,0.00107 C28.161892,0.00107 20.958904,7.17627 20.958904,16.00087 C20.958904,19.99761 22.461769,23.6592 24.894464,26.46949 L18.553839,30.09444 L18.491369,30.12564 L6.55975,36.09432 C6.26762985,36.2293898 6.05837098,36.4969042 5.997527,36.81306 L0.99999,64.81272 C0.943529994,65.1085571 1.02333707,65.4140975 1.21724446,65.6444759 C1.41115185,65.8748542 1.69850782,66.0055346 1.999498,66.00022 L14.83692,66.00022 L15.492847,72.00012 L10.995064,72.00012 C10.9327325,71.9942483 10.8699875,71.9942483 10.807656,72.00012 C10.4732503,72.0578845 10.1909752,72.2814438 10.058026,72.59382 L5.060489,84.59372 C4.92121607,84.9069389 4.952002,85.2697015 5.14206355,85.5549445 C5.3321251,85.8401875 5.6549738,86.0081574 5.997527,86.00002 L17.991615,86.00002 L36.982255,86.00002 C37.0134712,86.0014854 37.0447388,86.0014854 37.075955,86.00002 L55.97289,86.00002 L67.966979,86.00002 C68.3095322,86.0081574 68.6323809,85.8401875 68.8224424,85.5549445 C69.012504,85.2697015 69.0432899,84.9069389 68.904017,84.59372 L63.90648,72.59382 C63.7425815,72.2248014 63.3729469,71.9906038 62.969442,72.00012 L58.502893,72.00012 L59.15882,66.00022 L71.965008,66.00022 C72.265998,66.0055343 72.5533537,65.8748538 72.7472609,65.6444755 C72.941168,65.4140971 73.020975,65.108557 72.964515,64.81272 L67.966979,36.81306 C67.906135,36.4969042 67.6968762,36.2293898 67.404756,36.09432 L55.473137,30.12564 L55.410667,30.09444 L49.070042,26.46949 C51.502737,23.6592 52.974367,19.99761 52.974367,16.00087 C52.974367,7.17627 45.802613,0.00107 36.98225,0.00107 L36.982256,0.00107 Z M36.982256,2.00104 C44.722271,2.00104 50.975359,8.25714 50.975359,16.00087 C50.975359,23.7446 44.722271,30.0007 36.982256,30.0007 C29.24224,30.0007 22.989153,23.7446 22.989153,16.00087 C22.989153,8.25714 29.24224,2.00104 36.982256,2.00104 Z M26.331256,27.93822 C29.163512,30.46869 32.89937,32.03192 36.982256,32.03192 C41.065141,32.03192 44.801,30.46869 47.633256,27.93822 L54.473634,31.84442 C54.4940878,31.8555446 54.5149239,31.865951 54.536104,31.87562 L66.061673,37.62555 L70.746863,64.00022 L59.377467,64.00022 L60.970432,49.09412 C60.9968436,48.8130892 60.9033216,48.5339785 60.7129423,48.325658 C60.522563,48.1173374 60.2530572,47.9992088 59.970925,48.00042 L53.442892,48.00042 L20.521619,48.00042 L13.993587,48.00042 C13.9312555,47.9945483 13.8685105,47.9945483 13.806179,48.00042 C13.2907422,48.0955916 12.9363127,48.5729215 12.994079,49.09412 L14.618279,64.00022 L3.217648,64.00022 L7.902839,37.62555 L19.428408,31.87562 C19.4495881,31.865951 19.4704242,31.8555446 19.490878,31.84442 L26.331257,27.93822 L26.331256,27.93822 Z M20.521619,50.00042 L53.442892,50.00042 L58.846479,50.00042 L55.816722,78.00012 L18.179024,78.00012 L15.118033,50.00042 L20.521619,50.00042 Z M11.682226,74.00012 L15.71149,74.00012 L16.273713,79.09382 C16.3222302,79.6091933 16.7558192,80.0023489 17.27322,80.00012 L56.722526,80.00012 C57.2399268,80.0023489 57.6735158,79.6091933 57.722033,79.09382 L58.284256,74.00012 L62.282286,74.00012 L66.467723,84.00002 L55.972895,84.00002 L37.044725,84.00002 C37.0239068,83.9993689 37.0030732,83.9993689 36.982255,84.00002 L17.991615,84.00002 L7.496788,84.00002 L11.682225,74.00012 L11.682226,74.00012 Z" id="Shape" fill-rule="nonzero"></path>
          </g>
        </g>
      </g>
    </g>
  </g>
</svg>