<svg version="1.2" xmlns="http://www.w3.org/2000/svg" viewBox="0 0 20 14" width="20" height="14"><defs><clipPath clipPathUnits="userSpaceOnUse" id="cp1"><path d="m-1447-1695h1600v1812h-1600z"/></clipPath></defs><style>.a{fill:#FFFFFF}</style><g clip-path="url(#cp1)"><path fill-rule="evenodd" class="a" d="m19.3 7c0 0 0 3.1-0.3 4.5-0.3 0.9-0.9 1.5-1.7 1.7-1.5 0.4-7.3 0.4-7.3 0.4 0 0-5.8 0-7.3-0.4-0.8-0.2-1.4-0.8-1.7-1.7-0.3-1.4-0.3-4.5-0.3-4.5 0 0 0-3 0.3-4.5 0.3-0.8 0.9-1.5 1.7-1.7 1.5-0.4 7.3-0.4 7.3-0.4 0 0 5.8 0 7.3 0.4 0.8 0.2 1.4 0.9 1.7 1.7 0.3 1.5 0.3 4.5 0.3 4.5zm-6.3 0l-4.9-2.8v5.6z"/></g></svg>