<svg version="1.1" id="Layer_1" xmlns="http://www.w3.org/2000/svg" xmlns:xlink="http://www.w3.org/1999/xlink" x="0px" y="0px"
	 viewBox="0 0 842.87903 95.04446" enable-background="new 0 0 842.87903 95.04446" xml:space="preserve">
<g id="Lockup_hz">
	<g>
		<g>
			
				<radialGradient id="SVGID_1_" cx="407.05823" cy="-191.5744" r="119.9643" gradientTransform="matrix(0.5 0 0 -0.5 -153.20724 -52.97391)" gradientUnits="userSpaceOnUse">
				<stop  offset="0" style="stop-color:#009697"/>
				<stop  offset="1" style="stop-color:#00AB4E"/>
			</radialGradient>
			<path fill="url(#SVGID_1_)" d="M11.42,85.33948l27.4869-41.69009c0.07505-0.51396,0.18665-1.01577,0.32965-1.50433
				c0.0041-0.0148,0.00825-0.0309,0.0123-0.04535L9.33491,83.22559C10.00027,83.95895,10.69694,84.66316,11.42,85.33948z"/>
			
				<radialGradient id="SVGID_00000094618003616559518020000004474068819364661411_" cx="407.05817" cy="-191.57437" r="119.96469" gradientTransform="matrix(0.5 0 0 -0.5 -153.20724 -52.97391)" gradientUnits="userSpaceOnUse">
				<stop  offset="0" style="stop-color:#009697"/>
				<stop  offset="1" style="stop-color:#00AB4E"/>
			</radialGradient>
			<path fill="url(#SVGID_00000094618003616559518020000004474068819364661411_)" d="M4.00998,75.56101
				c0.44596,0.86217,0.92672,1.70328,1.43857,2.52304l34.27251-37.27081c0.28841-0.65716,0.63841-1.28077,1.04322-1.86393
				L4.00998,75.56101z"/>
			
				<radialGradient id="SVGID_00000099648987958653555540000013631795019978566279_" cx="407.05829" cy="-191.57437" r="119.96445" gradientTransform="matrix(0.5 0 0 -0.5 -153.20724 -52.97391)" gradientUnits="userSpaceOnUse">
				<stop  offset="0" style="stop-color:#009697"/>
				<stop  offset="1" style="stop-color:#00AB4E"/>
			</radialGradient>
			<path fill="url(#SVGID_00000099648987958653555540000013631795019978566279_)" d="M68.6766,43.91434
				c-0.36741-0.79211-0.76272-1.56853-1.18472-2.32814l-7.00241,6.92501c-0.1368,0.44771-0.30291,0.88232-0.49286,1.30397
				L68.6766,43.91434z"/>
			
				<radialGradient id="SVGID_00000155112558002033607710000016937133637067016111_" cx="407.06003" cy="-191.57448" r="119.95385" gradientTransform="matrix(0.5 0 0 -0.5 -153.20724 -52.97391)" gradientUnits="userSpaceOnUse">
				<stop  offset="0" style="stop-color:#009697"/>
				<stop  offset="1" style="stop-color:#00AB4E"/>
			</radialGradient>
			<path fill="url(#SVGID_00000155112558002033607710000016937133637067016111_)" d="M56.37504,54.25581l15.5634,6.92797
				c0.0697-0.93851,0.06255-2.20139,0.06255-2.33914l-15.13765-4.96193C56.70435,54.01171,56.54115,54.13561,56.37504,54.25581z"/>
			
				<radialGradient id="SVGID_00000106860369587691264810000011049536428226609061_" cx="407.05838" cy="-191.5743" r="119.96415" gradientTransform="matrix(0.5 0 0 -0.5 -153.20724 -52.97391)" gradientUnits="userSpaceOnUse">
				<stop  offset="0" style="stop-color:#009697"/>
				<stop  offset="1" style="stop-color:#00AB4E"/>
			</radialGradient>
			<path fill="url(#SVGID_00000106860369587691264810000011049536428226609061_)" d="M70.80958,49.82324l-11.79854,1.73953
				c-0.15365,0.2224-0.31541,0.43866-0.48451,0.64886l12.81506-0.0603C71.18929,51.36591,71.01203,50.58955,70.80958,49.82324z"/>
			
				<radialGradient id="SVGID_00000165192704096103185160000007410865817927447185_" cx="407.05658" cy="-191.57457" r="119.96584" gradientTransform="matrix(0.5 0 0 -0.5 -153.20724 -52.97391)" gradientUnits="userSpaceOnUse">
				<stop  offset="0" style="stop-color:#009697"/>
				<stop  offset="1" style="stop-color:#00AB4E"/>
			</radialGradient>
			<path fill="url(#SVGID_00000165192704096103185160000007410865817927447185_)" d="M63.84411,36.22076
				c-0.61256-0.74627-1.25502-1.46688-1.92463-2.16129l-0.85572,7.67712L56.9515,29.76476
				c-0.93832-0.67251-1.91023-1.30097-2.9128-1.88256l3.49411,7.8822l-9.0397-10.4934
				c-1.20712-0.44656-2.44499-0.82946-3.70911-1.14632l9.1619,9.59003L38.963,23.16602
				c-1.01286-0.08585-2.49074-0.14665-3.78536-0.11135l15.73426,9.99929l-21.39305-9.42593
				c-1.15252,0.20965-2.28624,0.47336-3.39771,0.78996l22.54557,8.73712l-28.32187-6.53533
				c-1.04687,0.50651-2.06544,1.06217-3.05285,1.6641l29.48014,5.24208l-34.45752-1.58777
				c-0.88711,0.77596-1.73543,1.59503-2.54249,2.45344l35.54369-0.2454L6.06686,39.04586
				c-0.62646,0.93591-1.21077,1.90228-1.74898,2.89745l39.64941-7.01497L1.71139,48.06486
				c-0.29825,0.93237-0.56171,1.88033-0.78431,2.84405l41.69179-14.84784L0.05511,57.12386
				c-0.0571,0.87426-0.0727,2.05408-0.0332,3.0113L41.4247,37.37403L0.77382,66.47576
				c0.1956,0.93197,0.42801,1.85023,0.69416,2.7541L41.28349,38.2582c2.03403-2.49244,5.12923-4.08472,8.59724-4.08472
				c6.1261,0,11.09233,4.96623,11.09233,11.09238c0,0.62511-0.0543,1.23727-0.15371,1.83418L63.84411,36.22076z"/>
			
				<radialGradient id="SVGID_00000006705075808145942710000002606301181649515657_" cx="407.05829" cy="-191.5743" r="119.96441" gradientTransform="matrix(0.5 0 0 -0.5 -153.20724 -52.97391)" gradientUnits="userSpaceOnUse">
				<stop  offset="0" style="stop-color:#009697"/>
				<stop  offset="1" style="stop-color:#00AB4E"/>
			</radialGradient>
			<path fill="url(#SVGID_00000006705075808145942710000002606301181649515657_)" d="M38.86855,46.58054
				c-0.049-0.41461-0.07695-0.83567-0.0789-1.26302L16.54233,89.33419c0.75766,0.48781,1.53458,0.94827,2.32979,1.37933
				L38.86855,46.58054z"/>
			
				<radialGradient id="SVGID_00000094606222104234101450000006751188281862313610_" cx="407.05826" cy="-191.57408" r="119.96467" gradientTransform="matrix(0.5 0 0 -0.5 -153.20724 -52.97391)" gradientUnits="userSpaceOnUse">
				<stop  offset="0" style="stop-color:#009697"/>
				<stop  offset="1" style="stop-color:#00AB4E"/>
			</radialGradient>
			<path fill="url(#SVGID_00000094606222104234101450000006751188281862313610_)" d="M51.44426,56.24635
				c-0.1896,0.02675-0.38071,0.04845-0.57321,0.0655l15.2925,22.39167c0.49351-0.75556,0.95977-1.53043,1.39662-2.32394
				L51.44426,56.24635z"/>
			
				<radialGradient id="SVGID_00000011739636495760112050000003522749007931369888_" cx="407.05829" cy="-191.57446" r="119.9644" gradientTransform="matrix(0.5 0 0 -0.5 -153.20724 -52.97391)" gradientUnits="userSpaceOnUse">
				<stop  offset="0" style="stop-color:#009697"/>
				<stop  offset="1" style="stop-color:#00AB4E"/>
			</radialGradient>
			<path fill="url(#SVGID_00000011739636495760112050000003522749007931369888_)" d="M54.28791,55.44603
				c-0.17261,0.0748-0.34721,0.1457-0.52421,0.21185l16.43292,14.67169c0.26246-0.79561,0.49871-1.60307,0.70612-2.42213
				L54.28791,55.44603z"/>
			
				<radialGradient id="SVGID_00000016072955859106796020000008315881134552093601_" cx="407.05829" cy="-191.57433" r="119.96426" gradientTransform="matrix(0.5 0 0 -0.5 -153.20724 -52.97391)" gradientUnits="userSpaceOnUse">
				<stop  offset="0" style="stop-color:#009697"/>
				<stop  offset="1" style="stop-color:#00AB4E"/>
			</radialGradient>
			<path fill="url(#SVGID_00000016072955859106796020000008315881134552093601_)" d="M62.32714,83.59779L48.61041,56.28365
				c-0.2334-0.02665-0.46421-0.0613-0.69296-0.1022l12.53396,29.28474C61.09927,84.86647,61.72483,84.24326,62.32714,83.59779z"/>
			
				<radialGradient id="SVGID_00000134230900190780719610000003070992512303436439_" cx="407.0582" cy="-191.57405" r="119.96665" gradientTransform="matrix(0.5 0 0 -0.5 -153.20724 -52.97391)" gradientUnits="userSpaceOnUse">
				<stop  offset="0" style="stop-color:#009697"/>
				<stop  offset="1" style="stop-color:#00AB4E"/>
			</radialGradient>
			<path fill="url(#SVGID_00000134230900190780719610000003070992512303436439_)" d="M37.13492,95.02434l3.92902-43.03016
				c-0.18245-0.23875-0.35456-0.48566-0.51751-0.73911l-6.18995,43.74961C35.25284,95.05214,36.61181,95.05508,37.13492,95.02434z"
				/>
			
				<radialGradient id="SVGID_00000125589815038980056580000001640542730036600734_" cx="407.05826" cy="-191.57436" r="119.96482" gradientTransform="matrix(0.5 0 0 -0.5 -153.20724 -52.97391)" gradientUnits="userSpaceOnUse">
				<stop  offset="0" style="stop-color:#009697"/>
				<stop  offset="1" style="stop-color:#00AB4E"/>
			</radialGradient>
			<path fill="url(#SVGID_00000125589815038980056580000001640542730036600734_)" d="M45.71711,55.54723
				c-0.2123-0.08605-0.42241-0.17635-0.62796-0.27496l7.51698,35.72054c0.83302-0.43381,1.64653-0.89951,2.43979-1.39493
				L45.71711,55.54723z"/>
			
				<radialGradient id="SVGID_00000009572883267601874600000007311199529436000420_" cx="407.05841" cy="-191.5744" r="119.9646" gradientTransform="matrix(0.5 0 0 -0.5 -153.20724 -52.97391)" gradientUnits="userSpaceOnUse">
				<stop  offset="0" style="stop-color:#009697"/>
				<stop  offset="1" style="stop-color:#00AB4E"/>
			</radialGradient>
			<path fill="url(#SVGID_00000009572883267601874600000007311199529436000420_)" d="M39.60331,49.43958
				c-0.13155-0.32351-0.2485-0.65431-0.34951-0.99222L25.07467,93.35261c0.88267,0.28091,1.77968,0.52956,2.69044,0.74281
				L39.60331,49.43958z"/>
			
				<radialGradient id="SVGID_00000033367922926850834640000018065993066537077141_" cx="407.05823" cy="-191.57431" r="119.96442" gradientTransform="matrix(0.5 0 0 -0.5 -153.20724 -52.97391)" gradientUnits="userSpaceOnUse">
				<stop  offset="0" style="stop-color:#009697"/>
				<stop  offset="1" style="stop-color:#00AB4E"/>
			</radialGradient>
			<path fill="url(#SVGID_00000033367922926850834640000018065993066537077141_)" d="M43.16122,54.08956
				c-0.21111-0.16105-0.41571-0.32991-0.61456-0.50536l1.20247,40.62147c0.94372-0.20695,1.87393-0.44996,2.78835-0.72942
				L43.16122,54.08956z"/>
		</g>
		<path fill="#58595B" d="M85.50143,45.54522h2.59048v26.9998h-2.59048V59.04479V45.54522z M95.17093,45.54522h2.59055v11.56599
			h14.63104V45.54522h2.59049v26.9998h-2.59049V59.48275H97.76147v13.06227h-2.59055v-26.9998H95.17093z M119.95214,65.90466
			l2.29874-0.83942c1.20397,3.75806,3.94062,5.69225,7.73508,5.69225c4.05011,0,6.677-1.86083,6.677-4.88923
			c0-2.80945-1.34982-4.23237-7.07822-6.0568c-5.80145-1.82443-8.75679-3.39351-8.75679-7.84488
			c0-3.86726,3.46606-6.93261,8.39169-6.93261c5.07178,0,7.99072,2.59104,9.26775,6.20295l-2.18924,1.02147
			c-1.34987-3.50276-3.72165-4.88928-7.11491-4.88928c-3.61221,0-5.80145,1.93418-5.80145,4.41497
			c0,3.0284,1.78803,4.05032,7.47997,5.87425c5.61894,1.78803,8.39169,3.64886,8.39169,8.02738
			c0,4.48772-3.97702,7.37003-9.37695,7.37003C124.80497,73.05573,121.22916,70.28318,119.95214,65.90466z M153.42084,45.54522
			h3.35657l9.04884,23.64319h0.0733l8.97549-23.64319h3.42941v26.9998h-2.59055V49.92319h-0.0728
			c-0.36511,1.20452-1.02142,2.99205-1.67828,4.74363l-7.00542,17.8782h-2.37158l-7.00542-17.8782
			c-0.65686-1.75158-1.09477-2.88275-1.67882-4.81643h-0.07281v22.69463h-2.40794V45.54522z M183.59909,68.05724
			c0-3.79446,3.24686-6.56751,13.02531-8.06379v-0.98502c0-2.66329-1.38652-3.94061-3.90421-3.94061
			c-3.02841,0-5.18098,1.27732-7.18747,3.0284l-1.35013-1.56853c2.29874-2.11623,4.96208-3.57606,8.7571-3.57606
			c4.30518,0,6.166,2.29874,6.166,6.13015v8.7201c0,2.33514,0.14615,3.75811,0.54712,4.74313h-2.5905
			c-0.25536-0.80251-0.43791-1.64188-0.43791-2.73615c-2.22539,2.00648-4.70668,3.0648-7.58893,3.0648
			C185.60558,72.87367,183.59909,71.04924,183.59909,68.05724z M196.6244,67.76549v-5.984
			c-8.24577,1.38652-10.54453,3.42991-10.54453,5.9476c0,2.00643,1.35013,3.0648,3.50272,3.0648
			C192.28229,70.79388,194.65437,69.66272,196.6244,67.76549z M204.9995,53.3167h2.51768v3.79451H207.59
			c1.49626-2.37154,3.83141-4.15957,7.62587-4.15957h0.43791l-0.25536,2.33514c0,0-0.69327-0.0364-0.76607-0.0364
			c-3.13815,0-5.61888,1.75163-7.11517,4.78003v12.51461h-2.51768V53.3167z M219.34088,45.54522h2.5177v17.91455l9.15805-10.14307
			h2.95509l-6.27525,6.78651l7.04181,12.44181h-2.73663l-5.98401-10.50817l-4.15906,4.45133v6.05685h-2.5177V45.54522z
			 M238.7166,46.16513h2.66385v2.70024h-2.66385V46.16513z M238.79126,53.3167h2.51718v19.22832h-2.51718V53.3167z
			 M248.95168,68.05724V55.46933h-3.35655V53.3167h3.35655v-6.89621h2.51768v6.89621h4.99899v2.15263h-4.99899v12.0772
			c0,2.04338,0.65686,3.13765,3.02846,3.13765c0.72966,0,1.45932-0.07285,2.00642-0.25536v2.15259
			c-0.5835,0.10976-1.60497,0.21896-2.48079,0.21896C250.3382,72.80037,248.95168,71.37744,248.95168,68.05724z M262.87054,48.78667
			c0-0.65021-0.45389-1.00827-1.27811-1.00827h-1.23679v3.57026h0.52768v-1.51318h0.69055l0.80005,1.48207l0.01721,0.0311h0.57642
			l-0.85257-1.58973C262.60974,49.62918,262.87054,49.29458,262.87054,48.78667z M262.35126,48.80267
			c0,0.39471-0.23901,0.57061-0.77509,0.57061h-0.69284v-1.10827h0.68451C262.10944,48.26501,262.35126,48.43092,262.35126,48.80267
			z M261.55112,46.42048c-1.78531,0-3.18362,1.40572-3.18362,3.20035c0,1.79443,1.39505,3.20015,3.17624,3.20015
			c1.78534,0,3.18365-1.40572,3.18365-3.20015C264.72739,47.82621,263.33231,46.42048,261.55112,46.42048z M264.24887,49.62083
			c0,1.53988-1.18481,2.74604-2.69775,2.74604c-1.49155,0-2.70468-1.23192-2.70468-2.74604
			c0-1.53983,1.18481-2.74625,2.6973-2.74625C263.03531,46.87459,264.24887,48.10651,264.24887,49.62083z"/>
	</g>
</g>
</svg>
