<?xml version="1.0" standalone="no"?>
<!DOCTYPE svg PUBLIC "-//W3C//DTD SVG 1.1//EN" "http://www.w3.org/Graphics/SVG/1.1/DTD/svg11.dtd" >
<svg xmlns="http://www.w3.org/2000/svg" xmlns:xlink="http://www.w3.org/1999/xlink" version="1.1">
<metadata>
Created by FontForge 20170731 at Tue May 30 10:07:16 2023
 By Aleksey,,,
Copyright (c) 2019 Monotype Imaging Inc. All rights reserved.
</metadata>
<defs>
<font id="HelveticaNowText-Bold" horiz-adv-x="1351" >
  <font-face 
    font-family="HelveticaNowText Bold"
    font-weight="700"
    font-stretch="normal"
    units-per-em="2048"
    panose-1="2 11 8 4 3 2 2 2 2 4"
    ascent="1792"
    descent="-256"
    x-height="1057"
    cap-height="1458"
    bbox="-868 -717 3236 2271"
    underline-thickness="102"
    underline-position="-614"
    unicode-range="U+000D-FEFF"
  />
<missing-glyph horiz-adv-x="1441" 
d="M1309 0h-1176v1458h1176v-1458zM436 1188v-918h570v918h-570z" />
    <glyph glyph-name="fi" unicode="fi" horiz-adv-x="1222" 
d="M178 1051v69q0 164 87 251t251 87h152v-231h-80q-121 0 -121 -121v-55l201 6v-213l-201 6v-850h-289v850l-147 -6v213zM811 1196v262h289v-262h-289zM1100 0h-289v1057h289v-1057z" />
    <glyph glyph-name="fl" unicode="fl" horiz-adv-x="1222" 
d="M178 1051v69q0 164 87 251t251 87h152v-231h-80q-121 0 -121 -121v-55l201 6v-213l-201 6v-850h-289v850l-147 -6v213zM811 0v1458h289v-1458h-289z" />
    <glyph glyph-name=".notdef" horiz-adv-x="1441" 
d="M1309 0h-1176v1458h1176v-1458zM436 1188v-918h570v918h-570z" />
    <glyph glyph-name=".null" horiz-adv-x="0" 
 />
    <glyph glyph-name="nonmarkingreturn" horiz-adv-x="681" 
 />
    <glyph glyph-name="NULL" horiz-adv-x="0" 
 />
    <glyph glyph-name="NULL" horiz-adv-x="0" 
 />
    <glyph glyph-name="CR" unicode="&#xd;" horiz-adv-x="512" 
 />
    <glyph glyph-name="space" unicode=" " horiz-adv-x="512" 
 />
    <glyph glyph-name="exclam" unicode="!" horiz-adv-x="577" 
d="M362 479h-145l-80 608v371h303v-371zM444 0h-311v307h311v-307z" />
    <glyph glyph-name="quotedbl" unicode="&#x22;" horiz-adv-x="983" 
d="M389 866h-266v596h266v-596zM860 866h-266v596h266v-596z" />
    <glyph glyph-name="numbersign" unicode="#" horiz-adv-x="1480" 
d="M1413 1141v-238l-260 6l-47 -338l229 4v-235l-260 6l-49 -346h-238l50 348h-306l-49 -348h-233l49 344l-231 -4v235l262 -6l47 340l-232 -6v238l265 -6l45 323h233l-45 -325h305l45 325h238l-45 -321zM612 911l-49 -344h305l50 344h-306z" />
    <glyph glyph-name="dollar" unicode="$" 
d="M1319 436q0 -180 -124 -294t-351 -136v-301h-226v301q-233 22 -365 145q-130 121 -136 324h280q5 -124 82 -176q79 -53 254 -53q154 0 225 40q72 40 72 126q0 59 -35 94t-116 53l-396 86q-163 35 -251 135q-89 101 -89 248q0 172 123 290q122 118 352 136v281h226v-285
q209 -30 328 -148q121 -119 131 -298h-279q-12 109 -86 159q-73 49 -231 49q-275 0 -275 -155q0 -118 143 -148l373 -82q371 -83 371 -391z" />
    <glyph glyph-name="percent" unicode="%" horiz-adv-x="2396" 
d="M799 688q-99 -123 -285 -123q-187 0 -283 123q-98 122 -98 346q0 223 98 340q99 119 283 119t283 -119q98 -117 98 -340q0 -222 -96 -346zM850 -31h-221l917 1520h217zM356 1030q0 -278 158 -278t158 278q0 144 -38 211q-38 66 -120 66t-120 -66q-38 -67 -38 -211z
M2167 90q-99 -123 -285 -123q-187 0 -283 123q-98 122 -98 346q0 223 98 340q99 119 283 119t283 -119q98 -117 98 -340q0 -222 -96 -346zM1724 432q0 -278 158 -278t158 278q0 144 -38 211q-38 66 -120 66t-120 -66q-38 -67 -38 -211z" />
    <glyph glyph-name="ampersand" unicode="&#x26;" horiz-adv-x="1501" 
d="M1192 338l276 -340h-346l-110 143q-179 -172 -420 -172q-210 0 -338 113q-131 113 -131 295q0 297 348 454l-10 13q-148 187 -148 317q0 145 111 240q112 92 278 92q176 0 287 -98q111 -99 111 -244q0 -225 -258 -383l184 -225q49 107 64 241h276q-33 -240 -174 -446z
M711 1255q-53 0 -87 -31t-34 -85q0 -62 57 -131l43 -54q144 90 144 181q0 55 -35 88q-33 32 -88 32zM625 219q134 0 239 111l-241 307q-201 -99 -201 -240q0 -80 55 -129t148 -49z" />
    <glyph glyph-name="quotesingle" unicode="'" horiz-adv-x="512" 
d="M389 866h-266v596h266v-596z" />
    <glyph glyph-name="parenleft" unicode="(" horiz-adv-x="720" 
d="M653 -418h-280q-301 437 -301 965q0 547 301 983h280q-291 -438 -291 -983q0 -521 291 -965z" />
    <glyph glyph-name="parenright" unicode=")" horiz-adv-x="720" 
d="M348 -418h-280q290 442 290 965q0 547 -290 983h280q301 -436 301 -983q0 -528 -301 -965z" />
    <glyph glyph-name="asterisk" unicode="*" horiz-adv-x="1099" 
d="M551 903l-170 -252l-176 125l196 223l-278 72l72 205l266 -109l-17 291h211l-16 -291l266 109l72 -205l-277 -72l201 -223l-176 -125z" />
    <glyph glyph-name="plus" unicode="+" 
d="M850 760h430v-246h-430v-440h-266v440h-430v246h430v438h266v-438z" />
    <glyph glyph-name="comma" unicode="," horiz-adv-x="579" 
d="M164 -326h-39v131h39q135 0 135 136v59h-176v307h334v-366q0 -267 -293 -267z" />
    <glyph glyph-name="hyphen" unicode="-" horiz-adv-x="778" 
d="M676 455h-574v250h574v-250z" />
    <glyph glyph-name="period" unicode="." horiz-adv-x="583" 
d="M461 0h-338v307h338v-307z" />
    <glyph glyph-name="slash" unicode="/" horiz-adv-x="1021" 
d="M354 0h-293l607 1458h293z" />
    <glyph glyph-name="zero" unicode="0" 
d="M1116 170q-156 -203 -440 -203q-282 0 -440 203q-156 201 -156 567q0 356 157 555t439 199t439 -199t157 -555q0 -366 -156 -567zM387 731q0 -508 289 -508t289 508q0 504 -289 504t-289 -504z" />
    <glyph glyph-name="one" unicode="1" horiz-adv-x="937" 
d="M737 0h-303v993h-366v203h106q139 0 217 72q64 58 76 172l2 18h268v-1458z" />
    <glyph glyph-name="two" unicode="2" 
d="M1214 0h-1077q0 174 72 302t235 249l279 205q85 64 122 123q38 61 38 139q0 104 -59 163q-58 58 -158 58q-105 0 -162 -64q-58 -66 -58 -188v-41h-292v27q0 244 137 381t381 137q238 0 383 -125q145 -127 145 -334q0 -284 -297 -481l-248 -164q-67 -43 -97 -75
q-25 -27 -30 -58h686v-254z" />
    <glyph glyph-name="three" unicode="3" 
d="M688 -35q-282 0 -433 143t-155 388h299q5 -132 79 -206q75 -75 204 -75q118 0 183 59q67 61 67 158q0 101 -72 158t-201 57h-106v225h94q98 0 160 51q59 49 59 136t-58 136q-59 50 -163 50q-213 0 -223 -237h-289q18 483 524 483q238 0 376 -105t138 -278
q0 -108 -58 -190q-58 -81 -163 -119v-4q148 -33 226 -128q77 -93 77 -241q0 -203 -147 -332q-152 -129 -418 -129z" />
    <glyph glyph-name="four" unicode="4" 
d="M1053 1458v-907h219v-244h-219v-307h-297v307h-674v314l651 837h320zM338 551h418v530h-6z" />
    <glyph glyph-name="five" unicode="5" 
d="M668 -33q-229 0 -381 113q-153 114 -183 307l299 25q51 -187 265 -187q121 0 198 71q76 70 76 183q0 112 -75 181t-208 69q-132 0 -233 -88l-281 41l136 776h866v-266h-641l-49 -285l4 -2q124 80 291 80q213 0 354 -135q139 -135 139 -358q0 -234 -160 -379
q-163 -146 -417 -146z" />
    <glyph glyph-name="six" unicode="6" 
d="M758 995q229 0 370 -141q140 -145 140 -367q0 -230 -158 -376t-405 -146q-289 0 -453 189q-168 195 -168 555q0 380 156 581t446 201q221 0 363 -109q141 -108 165 -295h-290q-17 72 -82 117q-66 45 -156 45q-293 0 -309 -436q139 182 381 182zM702 219q119 0 191 77
q72 76 72 191q0 119 -76 194q-77 75 -193 75q-117 0 -193 -74q-75 -74 -75 -190q0 -119 74 -193q77 -80 200 -80z" />
    <glyph glyph-name="seven" unicode="7" 
d="M696 0h-340q0 593 514 1186h-735v272h1082v-252q-272 -310 -388 -577q-118 -272 -133 -629z" />
    <glyph glyph-name="eight" unicode="8" 
d="M1110 92q-158 -125 -434 -125t-434 125q-160 124 -160 336q0 134 74 232q74 99 204 139v8q-92 39 -149 123t-57 182q0 175 139 277t383 102t383 -102t139 -277q0 -104 -57 -189q-57 -86 -150 -116v-8q131 -41 205 -139t74 -232q0 -212 -160 -336zM502 936q63 -51 174 -51
q113 0 176 51q63 50 63 137q0 88 -61 137q-67 47 -178 47q-112 0 -176 -47q-64 -50 -64 -137t66 -137zM465 266q77 -63 211 -63q135 0 213 63q78 62 78 168q0 108 -77 170t-214 62t-214 -62t-77 -170q0 -106 80 -168z" />
    <glyph glyph-name="nine" unicode="9" 
d="M1100 1288q168 -195 168 -555q0 -380 -156 -581t-446 -201q-222 0 -363 108q-142 109 -166 295h291q16 -71 82 -116t156 -45q293 0 309 436q-139 -183 -381 -183q-229 0 -369 142q-141 141 -141 366q0 231 158 377t405 146q289 0 453 -189zM655 686q118 0 194 74
q75 74 75 190q0 119 -74 193q-77 80 -201 80q-118 0 -190 -77q-72 -76 -72 -192q0 -118 76 -193q77 -75 192 -75z" />
    <glyph glyph-name="colon" unicode=":" horiz-adv-x="583" 
d="M461 719h-338v307h338v-307zM461 0h-338v307h338v-307z" />
    <glyph glyph-name="semicolon" unicode=";" horiz-adv-x="583" 
d="M461 719h-338v307h338v-307zM164 -326h-39v131h39q135 0 135 136v59h-176v307h334v-366q0 -267 -293 -267z" />
    <glyph glyph-name="less" unicode="&#x3c;" 
d="M147 754l1141 393v-287l-788 -239l788 -238v-287l-1141 391v267z" />
    <glyph glyph-name="equal" unicode="=" 
d="M1270 756h-1106v245h1106v-245zM1270 266h-1106v246h1106v-246z" />
    <glyph glyph-name="greater" unicode="&#x3e;" 
d="M147 860v287l1141 -393v-267l-1141 -391v287l789 238z" />
    <glyph glyph-name="question" unicode="?" horiz-adv-x="1206" 
d="M748 479h-275v56q0 102 42 171q40 66 155 144q79 52 112 99t33 106q0 88 -64 134t-167 46q-224 0 -234 -231h-293q6 234 145 361q138 126 388 126q252 0 399 -117q146 -117 146 -309q0 -201 -183 -322l-96 -63q-66 -44 -87 -79q-21 -36 -21 -93v-29zM766 0h-311v307h311
v-307z" />
    <glyph glyph-name="at" unicode="@" horiz-adv-x="2203" 
d="M1116 1493q452 0 705 -231q250 -231 250 -588q0 -252 -123 -414t-340 -162q-203 0 -283 146q-108 -146 -305 -146q-180 0 -287 131q-108 131 -108 342q0 207 108 338q108 127 287 127q182 0 287 -129l22 94h219v-593q0 -121 103 -121q94 0 154 100q61 102 61 264
q0 282 -203 465q-202 178 -553 178q-350 0 -545 -192q-198 -192 -198 -535q0 -333 196 -528q198 -195 543 -195q214 0 442 84v-209q-202 -69 -432 -69q-457 0 -721 244q-262 243 -262 673q0 422 264 674t719 252zM1081 303q79 0 131 54q54 55 70 145v137q-16 87 -71 140
q-53 52 -130 52q-88 0 -139 -70q-51 -71 -51 -192q0 -125 51 -195q51 -71 139 -71z" />
    <glyph glyph-name="A" unicode="A" horiz-adv-x="1472" 
d="M1421 0h-323l-99 303h-528l-98 -303h-322l516 1458h351zM612 733l-59 -180h367l-60 180l-123 420z" />
    <glyph glyph-name="B" unicode="B" horiz-adv-x="1386" 
d="M1010 793q282 -72 282 -365q0 -186 -125 -305q-125 -123 -352 -123h-682v1458h678q199 0 318 -95q118 -94 118 -261q0 -118 -61 -197t-176 -112zM758 1212h-322v-317h309q104 0 154 43q51 44 51 119q0 155 -192 155zM436 256h326q113 0 174 53q59 52 59 148q0 93 -57 142
q-58 50 -162 50h-340v-393z" />
    <glyph glyph-name="C" unicode="C" horiz-adv-x="1419" 
d="M750 -47q-298 0 -488 213q-190 212 -190 563q0 348 192 555q195 207 490 207q266 0 430 -138q163 -138 184 -378h-289q-18 121 -99 187q-82 67 -212 67q-184 0 -289 -135q-104 -134 -104 -365q0 -239 104 -376q105 -138 289 -138q134 0 213 72q80 73 98 190h287
q-18 -245 -182 -385q-163 -139 -434 -139z" />
    <glyph glyph-name="D" unicode="D" horiz-adv-x="1427" 
d="M133 1458h537q692 0 692 -729q0 -349 -165 -539t-486 -190h-578v1458zM436 256h236q210 0 299 110q88 109 88 363q0 258 -92 373q-95 110 -336 110h-195v-956z" />
    <glyph glyph-name="E" unicode="E" horiz-adv-x="1296" 
d="M436 627v-371h778v-256h-1081v1458h1061v-256h-758v-315h682v-260h-682z" />
    <glyph glyph-name="F" unicode="F" horiz-adv-x="1173" 
d="M1163 1458v-270h-727v-314h635v-270h-635v-604h-303v1458h1030z" />
    <glyph glyph-name="G" unicode="G" horiz-adv-x="1519" 
d="M778 788h608v-788h-196l-47 158q-128 -191 -408 -191q-284 0 -473 209q-190 205 -190 553q0 347 192 553q190 207 488 207q263 0 426 -128q160 -126 198 -364l-297 -18q-22 118 -102 184q-79 66 -209 66q-184 0 -289 -135q-104 -134 -104 -365q0 -237 104 -375
q105 -139 289 -139q141 0 238 83q95 82 118 237h-346v253z" />
    <glyph glyph-name="H" unicode="H" horiz-adv-x="1441" 
d="M1006 895v563h303v-1458h-303v625h-570v-625h-303v1458h303v-563h570z" />
    <glyph glyph-name="I" unicode="I" horiz-adv-x="569" 
d="M436 0h-303v1458h303v-1458z" />
    <glyph glyph-name="J" unicode="J" horiz-adv-x="1177" 
d="M922 86q-125 -119 -349 -119t-346 119q-125 119 -125 332v129h287v-133q0 -185 178 -185q174 0 174 185v1044h303v-1040q0 -214 -122 -332z" />
    <glyph glyph-name="K" unicode="K" horiz-adv-x="1417" 
d="M1407 0h-375l-461 670l-135 -135v-535h-303v1458h303v-563l516 563h387l-553 -586z" />
    <glyph glyph-name="L" unicode="L" horiz-adv-x="1177" 
d="M436 1458v-1188h711v-270h-1014v1458h303z" />
    <glyph glyph-name="M" unicode="M" horiz-adv-x="1699" 
d="M911 602l224 856h432v-1458h-283v547l35 713l-100 -441l-213 -819h-310l-217 834l-100 428l35 -715v-547h-281v1458h426l227 -856l60 -291z" />
    <glyph glyph-name="N" unicode="N" horiz-adv-x="1443" 
d="M1008 522v936h303v-1458h-297l-578 936v-936h-303v1458h297z" />
    <glyph glyph-name="O" unicode="O" horiz-adv-x="1527" 
d="M1257 168q-201 -215 -497 -215q-297 0 -492 215q-196 212 -196 563q0 345 194 555q195 207 494 207q296 0 497 -207q199 -208 199 -555q0 -349 -199 -563zM479 356q102 -141 281 -141t287 141q106 139 106 375q0 227 -106 363q-107 137 -287 137t-281 -137
q-104 -138 -104 -363q0 -235 104 -375z" />
    <glyph glyph-name="P" unicode="P" horiz-adv-x="1251" 
d="M133 1458h580q236 0 372 -125t136 -344q0 -226 -140 -354q-139 -127 -395 -127h-250v-508h-303v1458zM436 764h223q131 0 200 57t69 164q0 102 -64 160q-63 57 -174 57h-254v-438z" />
    <glyph glyph-name="Q" unicode="Q" horiz-adv-x="1519" 
d="M1456 729q0 -314 -170 -526l170 -144l-166 -180l-164 178q-162 -104 -366 -104q-297 0 -492 215q-196 212 -196 561q0 345 194 555q195 207 494 207q296 0 497 -207q199 -208 199 -555zM375 729q0 -236 103 -375t282 -139q89 0 160 37l-150 125l166 180l139 -156
q78 133 78 328q0 227 -106 363q-107 137 -287 137t-281 -137q-104 -135 -104 -363z" />
    <glyph glyph-name="R" unicode="R" horiz-adv-x="1386" 
d="M995 700q111 -23 156 -80q46 -58 61 -157l60 -463h-311l-35 375q-10 99 -61 145q-49 45 -160 45h-269v-565h-303v1458h680q241 0 352 -112q109 -115 109 -289q0 -283 -279 -357zM436 1204v-393h291q124 0 187 54t63 151q0 89 -52 138q-53 50 -157 50h-332z" />
    <glyph glyph-name="S" unicode="S" horiz-adv-x="1357" 
d="M698 -47q-283 0 -447 133q-165 134 -171 367h297q6 -121 90 -187q83 -65 229 -65q125 0 197 48t72 134q0 72 -52 110t-172 68l-268 68q-174 44 -265 147q-93 105 -93 258q0 190 141 324q139 133 403 133t422 -131q157 -133 172 -348h-295q-15 109 -94 170t-202 61
q-112 0 -177 -49t-65 -127q0 -120 170 -164l291 -72q397 -96 397 -419q0 -213 -155 -336t-425 -123z" />
    <glyph glyph-name="T" unicode="T" horiz-adv-x="1259" 
d="M41 1458h1178v-270h-437v-1188h-303v1188h-438v270z" />
    <glyph glyph-name="U" unicode="U" horiz-adv-x="1398" 
d="M1116 82q-150 -129 -418 -129t-415 129q-150 129 -150 367v1009h303v-1014q0 -229 264 -229q263 0 263 229v1014h303v-1009q0 -238 -150 -367z" />
    <glyph glyph-name="V" unicode="V" horiz-adv-x="1378" 
d="M817 823l189 635h321l-496 -1458h-286l-494 1458h322l194 -635l125 -481z" />
    <glyph glyph-name="W" unicode="W" horiz-adv-x="1988" 
d="M1438 729l188 729h311l-426 -1458h-290l-224 995l-225 -995h-295l-426 1458h322l188 -729l70 -293l59 293l160 729h299l160 -729l59 -293z" />
    <glyph glyph-name="X" unicode="X" horiz-adv-x="1396" 
d="M1313 1458l-443 -690l476 -768h-345l-237 428l-59 139l-64 -141l-240 -426h-350l492 770l-432 688h338l190 -336l72 -164l71 160l201 340h330z" />
    <glyph glyph-name="Y" unicode="Y" horiz-adv-x="1343" 
d="M756 1006l225 452h326l-484 -893v-565h-303v565l-483 893h334l221 -452l80 -203z" />
    <glyph glyph-name="Z" unicode="Z" horiz-adv-x="1394" 
d="M145 1458h1155v-235l-804 -965h804v-258h-1206v236l805 964h-754v258z" />
    <glyph glyph-name="bracketleft" unicode="[" horiz-adv-x="741" 
d="M674 -418h-541v1948h541v-225h-262v-1498h262v-225z" />
    <glyph glyph-name="backslash" unicode="\" horiz-adv-x="1021" 
d="M961 0h-293l-607 1458h293z" />
    <glyph glyph-name="bracketright" unicode="]" horiz-adv-x="741" 
d="M608 -418h-540v225h262v1498h-262v225h540v-1948z" />
    <glyph glyph-name="asciicircum" unicode="^" 
d="M569 1458h295l348 -1057h-290l-97 318q-53 180 -104 418q-29 -128 -107 -418l-88 -318h-305z" />
    <glyph glyph-name="underscore" unicode="_" horiz-adv-x="1024" 
d="M1024 -315h-1024v161h1024v-161z" />
    <glyph glyph-name="grave" unicode="`" horiz-adv-x="1024" 
d="M737 1169h-192l-256 289h352z" />
    <glyph glyph-name="a" unicode="a" horiz-adv-x="1140" 
d="M1059 0h-293q-23 104 -23 106q-113 -137 -325 -137q-166 0 -266 88q-101 89 -101 234q0 256 322 319l368 74v78q0 115 -178 115q-88 0 -133 -33q-44 -33 -55 -107l-264 4q27 340 450 340q457 0 457 -393v-467q0 -148 41 -221zM500 182q108 0 175 65q66 65 66 175v78
l-270 -58q-137 -27 -137 -133q0 -57 44 -92t122 -35z" />
    <glyph glyph-name="b" unicode="b" horiz-adv-x="1214" 
d="M719 1083q187 0 309 -149q123 -152 123 -402q0 -252 -127 -409q-128 -158 -328 -158q-201 0 -307 166l-10 -131h-256v1458h289v-508q108 133 307 133zM635 219q106 0 172 86q65 84 65 227t-65 227q-66 85 -172 85t-172 -85t-66 -227q0 -140 67 -227q66 -86 171 -86z" />
    <glyph glyph-name="c" unicode="c" horiz-adv-x="1122" 
d="M575 -35q-230 0 -370 152q-137 151 -137 407q0 257 137 408q139 151 370 151q203 0 330 -103t160 -292h-283q-47 170 -202 170q-110 0 -172 -87q-62 -88 -62 -247q0 -158 62 -246t172 -88q152 0 202 175h283q-33 -189 -162 -294q-130 -106 -328 -106z" />
    <glyph glyph-name="d" unicode="d" horiz-adv-x="1218" 
d="M807 950v508h289v-1458h-256l-11 131q-108 -166 -307 -166t-327 158q-127 157 -127 409t122 402q122 149 310 149q199 0 307 -133zM584 219q105 0 171 86q66 85 66 227q0 143 -65 227q-66 85 -172 85t-172 -85t-66 -227t66 -227q66 -86 172 -86z" />
    <glyph glyph-name="e" unicode="e" horiz-adv-x="1193" 
d="M1130 492v-50h-765q8 -119 73 -186q66 -68 174 -68q153 0 205 138l287 -21q-52 -167 -178 -255q-124 -87 -308 -87q-255 0 -403 160q-147 159 -147 409q0 240 141 396q140 155 379 155q240 0 391 -159q151 -161 151 -432zM758 811q-61 61 -160 61q-100 0 -162 -61
q-64 -67 -74 -172h469q-12 111 -73 172z" />
    <glyph glyph-name="f" unicode="f" horiz-adv-x="688" 
d="M668 1227h-80q-121 0 -121 -121v-55l201 6v-213l-201 6v-850h-289v850l-147 -6v213l147 -6v69q0 164 87 251t251 87h152v-231z" />
    <glyph glyph-name="g" unicode="g" horiz-adv-x="1218" 
d="M829 926l11 131h256v-1069q0 -208 -132 -319t-372 -111q-220 0 -345 92t-141 264h267q24 -141 213 -141q119 0 170 52q51 53 51 159v145q-107 -129 -287 -129q-200 0 -325 154q-127 151 -127 395q0 246 127 391q124 143 325 143q204 0 309 -157zM584 246q105 0 171 84
t66 219t-66 219t-171 84q-106 0 -172 -82t-66 -221t66 -221t172 -82z" />
    <glyph glyph-name="h" unicode="h" horiz-adv-x="1183" 
d="M715 1083q164 0 255 -100t91 -274v-709h-289v643q0 87 -40 133q-41 47 -114 47q-92 0 -149 -70q-57 -71 -57 -188v-565h-289v1458h289v-543q105 168 303 168z" />
    <glyph glyph-name="i" unicode="i" horiz-adv-x="534" 
d="M412 1196h-289v262h289v-262zM412 0h-289v1057h289v-1057z" />
    <glyph glyph-name="j" unicode="j" horiz-adv-x="534" 
d="M412 1196h-289v262h289v-262zM133 -418h-188v254h73q58 0 82 19q23 18 23 65v1137h289v-1176q0 -159 -65 -229t-214 -70z" />
    <glyph glyph-name="k" unicode="k" horiz-adv-x="1171" 
d="M1141 0h-342l-281 459l-106 -109v-350h-289v1458h289v-801l358 400h363l-412 -416z" />
    <glyph glyph-name="l" unicode="l" horiz-adv-x="534" 
d="M412 0h-289v1458h289v-1458z" />
    <glyph glyph-name="m" unicode="m" horiz-adv-x="1771" 
d="M1311 1083q158 0 248 -102t90 -274v-707h-289v649q0 78 -36 126t-105 48q-85 0 -137 -70t-52 -188v-565h-289v649q0 79 -35 126q-36 48 -106 48q-84 0 -136 -70t-52 -188v-565h-289v1057h283l4 -135q98 161 286 161q225 0 303 -190q102 190 312 190z" />
    <glyph glyph-name="n" unicode="n" horiz-adv-x="1183" 
d="M715 1083q164 0 255 -100t91 -274v-709h-289v643q0 87 -40 133q-41 47 -114 47q-92 0 -149 -70q-57 -71 -57 -188v-565h-289v1057h283l4 -144q102 170 305 170z" />
    <glyph glyph-name="o" unicode="o" horiz-adv-x="1212" 
d="M997 125q-151 -160 -389 -160t-389 160q-151 157 -151 399q0 241 151 402q151 157 389 157t389 -157q152 -163 152 -402q0 -241 -152 -399zM418 281q73 -91 190 -91q120 0 193 91q69 89 69 243q0 156 -69 244q-72 90 -193 90q-118 0 -190 -90t-72 -244q0 -153 72 -243z
" />
    <glyph glyph-name="p" unicode="p" horiz-adv-x="1214" 
d="M719 1083q187 0 309 -149q123 -152 123 -402q0 -252 -127 -409q-128 -158 -328 -158q-179 0 -284 133v-516h-289v1475h256l10 -137q108 163 330 163zM635 219q106 0 172 86q65 84 65 227t-65 227q-66 85 -172 85t-172 -85t-66 -227q0 -140 67 -227q66 -86 171 -86z" />
    <glyph glyph-name="q" unicode="q" horiz-adv-x="1218" 
d="M829 920l11 137h256v-1458h-289v499q-105 -133 -285 -133q-199 0 -327 158q-127 157 -127 409t122 402q122 149 310 149q221 0 329 -163zM584 219q105 0 171 86q66 85 66 227q0 143 -65 227q-66 85 -172 85t-172 -85t-66 -227t66 -227q66 -86 172 -86z" />
    <glyph glyph-name="r" unicode="r" horiz-adv-x="774" 
d="M641 1094q51 0 92 -15v-264q-47 4 -59 4q-262 0 -262 -305v-514h-289v1057h283l-5 -142q69 179 240 179z" />
    <glyph glyph-name="s" unicode="s" horiz-adv-x="1105" 
d="M907 55q-124 -94 -342 -94q-217 0 -336 92q-120 91 -143 262l264 11q29 -164 225 -164q87 0 140 31q51 30 51 86q0 78 -139 106l-209 41q-307 61 -307 309q0 160 116 254t314 94q191 0 313 -91t143 -247l-260 -10q-11 71 -64 109q-54 39 -136 39q-70 0 -115 -31
q-43 -30 -43 -82q0 -79 119 -106l227 -48q157 -33 233 -106t76 -197q0 -167 -127 -258z" />
    <glyph glyph-name="t" unicode="t" horiz-adv-x="700" 
d="M659 844l-196 6v-518q0 -54 23 -77q24 -24 77 -24h96v-231h-188q-159 0 -228 69t-69 228v553l-143 -6v213l143 -4v329h289v-331l196 6v-213z" />
    <glyph glyph-name="u" unicode="u" horiz-adv-x="1183" 
d="M772 492v565h289v-1057h-283l-4 143q-102 -170 -305 -170q-163 0 -255 101q-91 100 -91 274v709h289v-643q0 -87 40 -133q42 -48 113 -48q93 0 150 71q57 70 57 188z" />
    <glyph glyph-name="v" unicode="v" horiz-adv-x="1052" 
d="M635 739l96 318h291l-348 -1057h-295l-348 1057h305l88 -318l108 -460z" />
    <glyph glyph-name="w" unicode="w" horiz-adv-x="1591" 
d="M1141 588l116 469h304l-314 -1057h-274l-152 588l-24 139l-27 -139l-152 -588h-274l-313 1057h303l117 -469l49 -266l49 266l119 469h256l118 -465l50 -270z" />
    <glyph glyph-name="x" unicode="x" horiz-adv-x="1122" 
d="M719 557l373 -557h-336l-191 346l-211 -346h-323l391 555l-340 502h330l163 -297l179 297h305z" />
    <glyph glyph-name="y" unicode="y" horiz-adv-x="1138" 
d="M575 309l226 748h307l-422 -1245q-44 -132 -112 -181t-189 -49h-242v246h140q116 0 149 90l10 29l-411 1110h317l195 -594z" />
    <glyph glyph-name="z" unicode="z" horiz-adv-x="993" 
d="M932 821l-526 -583h546v-238h-911v231l543 588h-478v238h826v-236z" />
    <glyph glyph-name="braceleft" unicode="{" horiz-adv-x="835" 
d="M768 -418h-252q-120 0 -190 73t-70 202v432q0 164 -188 170v205q188 6 188 180v411q0 121 74 198t186 77h252v-225h-123q-110 0 -110 -125v-371q0 -223 -211 -244v-6q211 -27 211 -244v-383q0 -125 112 -125h121v-225z" />
    <glyph glyph-name="bar" unicode="|" horiz-adv-x="555" 
d="M422 -418h-289v1948h289v-1948z" />
    <glyph glyph-name="braceright" unicode="}" horiz-adv-x="835" 
d="M319 -418h-251v225h120q113 0 113 125v383q0 217 211 244v6q-211 21 -211 244v371q0 125 -111 125h-122v225h251q113 0 187 -77t74 -198v-411q0 -174 188 -180v-205q-188 -6 -188 -170v-432q0 -129 -70 -202t-191 -73z" />
    <glyph glyph-name="asciitilde" unicode="~" 
d="M424 483h-246q0 402 307 402q112 0 244 -62q129 -63 186 -63q52 0 73 30q22 31 22 95h245q0 -402 -307 -402q-109 0 -239 64q-129 61 -191 61q-52 0 -73 -27t-21 -98z" />
    <glyph glyph-name="uni00A0" unicode="&#xa0;" horiz-adv-x="512" 
 />
    <glyph glyph-name="exclamdown" unicode="&#xa1;" horiz-adv-x="577" 
d="M444 750h-311v307h311v-307zM440 -418h-303v377l80 619h145l78 -619v-377z" />
    <glyph glyph-name="cent" unicode="&#xa2;" 
d="M731 190q153 0 203 175h283q-27 -159 -124 -260t-251 -130v-270h-226v270q-186 33 -291 180q-106 148 -106 369q0 222 106 370q104 146 291 179v291h226v-291q154 -27 250 -126t125 -259h-283q-47 170 -203 170q-111 0 -172 -87q-61 -86 -61 -247q0 -160 61 -246
q62 -88 172 -88z" />
    <glyph glyph-name="sterling" unicode="&#xa3;" 
d="M834 256h477v-256h-1188v256h121q199 0 305 61t106 154q0 46 -28 86l-504 -14v256l289 -13q-203 131 -203 320q0 160 129 274q124 111 375 111q257 0 407 -129q146 -129 156 -330h-295q-6 98 -72 155q-65 56 -174 56q-98 0 -160 -44q-61 -43 -61 -122q0 -150 270 -291
l422 13v-256l-254 12q17 -46 17 -82q0 -133 -135 -217z" />
    <glyph glyph-name="currency" unicode="&#xa4;" 
d="M1378 1206l-202 -194q71 -126 71 -277q0 -150 -71 -276l202 -195l-190 -190l-197 205q-122 -68 -274 -68q-153 0 -275 68l-196 -205l-191 190l203 195q-72 128 -72 276q0 149 72 277l-203 194l191 191l196 -205q122 68 275 68q152 0 274 -68l197 205zM512 522
q78 -80 205 -80q130 0 207 80q75 76 75 213t-75 213q-78 80 -207 80q-127 0 -205 -80q-78 -82 -78 -213t78 -213z" />
    <glyph glyph-name="yen" unicode="&#xa5;" 
d="M1026 1458h326l-369 -680h274v-225h-389v-158h389v-225h-389v-170h-303v170h-387v225h387v158h-387v225h273l-369 680h334l221 -452l80 -203l84 203z" />
    <glyph glyph-name="brokenbar" unicode="&#xa6;" horiz-adv-x="555" 
d="M422 842h-289v688h289v-688zM422 -418h-289v688h289v-688z" />
    <glyph glyph-name="section" unicode="&#xa7;" horiz-adv-x="1243" 
d="M1171 623q0 -205 -192 -310q98 -88 98 -233q0 -160 -120 -255q-121 -95 -326 -95q-202 0 -320 91q-119 92 -141 257l266 14q12 -77 66 -120q52 -42 139 -42q79 0 125 33q47 33 47 94q0 98 -141 131l-260 60q-340 76 -340 377q0 204 192 309q-98 89 -98 233q0 161 120 255
q122 96 326 96q200 0 321 -92q120 -91 142 -257l-266 -14q-24 162 -207 162q-78 0 -125 -33t-47 -94q0 -96 141 -131l260 -60q340 -76 340 -376zM504 477l252 -57q157 52 157 178q0 133 -174 172l-252 57q-157 -52 -157 -178q0 -133 174 -172z" />
    <glyph glyph-name="dieresis" unicode="&#xa8;" horiz-adv-x="1024" 
d="M440 1196h-288v262h288v-262zM872 1196h-288v262h288v-262z" />
    <glyph glyph-name="copyright" unicode="&#xa9;" horiz-adv-x="1683" 
d="M1395 184q-217 -217 -553 -217q-334 0 -551 217q-219 214 -219 545q0 335 217 549q220 215 553 215t553 -215q217 -214 217 -549q0 -331 -217 -545zM842 154q252 0 411 163q160 165 160 414q0 253 -160 416q-162 162 -411 162q-251 0 -410 -162q-162 -162 -162 -416
q0 -252 162 -414q159 -163 410 -163zM848 340q-166 0 -260 103t-94 288q0 188 93 290q92 101 261 101q123 0 208 -58t118 -169l-187 -41q-33 92 -135 92q-154 0 -154 -215q0 -213 154 -213q104 0 137 94l185 -41q-72 -231 -326 -231z" />
    <glyph glyph-name="ordfeminine" unicode="&#xaa;" horiz-adv-x="1026" 
d="M526 1485q194 0 286 -71q91 -70 91 -218v-434h-221l-16 72q-91 -89 -256 -89q-132 0 -210 61q-77 60 -77 165q0 187 252 205l289 22v29q0 106 -140 106q-118 0 -145 -73l-238 34q51 191 385 191zM479 899q82 0 133 42q52 43 52 116v22l-203 -16q-96 -11 -96 -82
q0 -82 114 -82z" />
    <glyph glyph-name="guillemotleft" unicode="&#xab;" horiz-adv-x="1447" 
d="M678 317v-337l-555 426v241l555 426v-338l-289 -209zM1325 317v-337l-555 426v241l555 426v-338l-289 -209z" />
    <glyph glyph-name="logicalnot" unicode="&#xac;" 
d="M1270 240h-266v383h-840v245h1106v-628z" />
    <glyph glyph-name="uni00AD" unicode="&#xad;" horiz-adv-x="778" 
d="M676 455h-574v250h574v-250z" />
    <glyph glyph-name="registered" unicode="&#xae;" horiz-adv-x="1245" 
d="M231 1335q160 154 392 154q231 0 391 -154q160 -157 160 -381q0 -222 -160 -376q-158 -156 -391 -156q-235 0 -392 156q-159 153 -159 376q0 225 159 381zM328 664q119 -117 295 -117q175 0 297 117q118 117 118 290q0 176 -118 293q-122 117 -297 117t-297 -117
q-119 -117 -119 -293q0 -173 121 -290zM854 823l4 -69q1 -44 21 -60h-166q-14 26 -15 60l-4 57q-2 35 -15 47t-46 12h-68v-176h-159v529h260q94 0 146 -42t52 -118q0 -79 -71 -119q56 -30 61 -121zM565 1094v-103h78q55 0 55 51q0 52 -55 52h-78z" />
    <glyph glyph-name="overscore" unicode="&#xaf;" horiz-adv-x="1024" 
d="M885 1241h-744v215h744v-215z" />
    <glyph glyph-name="degree" unicode="&#xb0;" horiz-adv-x="890" 
d="M446 776q-161 0 -270 109q-108 108 -108 272q0 165 108 273q106 106 270 106q169 0 275 -106t106 -273q0 -166 -106 -272q-109 -109 -275 -109zM446 969q83 0 134 53q51 52 51 135q0 81 -51 134q-51 52 -134 52q-80 0 -131 -52q-51 -53 -51 -134q0 -83 51 -135
q51 -53 131 -53z" />
    <glyph glyph-name="plusminus" unicode="&#xb1;" 
d="M850 1280v-336h420v-246h-420v-338h-266v338h-420v246h420v336h266zM1270 -47h-1106v246h1106v-246z" />
    <glyph glyph-name="two.sups" unicode="&#xb2;" horiz-adv-x="886" 
d="M782 762h-676q0 149 41 239q40 88 140 144l198 110q95 51 95 121q0 50 -37 78q-38 29 -103 29q-134 0 -141 -123h-197q1 144 91 220q89 75 249 75q158 0 250 -75t92 -200q0 -155 -170 -247l-204 -111q-60 -34 -66 -80h438v-180z" />
    <glyph glyph-name="three.sups" unicode="&#xb3;" horiz-adv-x="913" 
d="M721 805q-94 -76 -262 -76q-166 0 -258 80q-95 77 -101 221h197q11 -129 162 -129t151 111q0 106 -159 106h-72v170h78q133 0 133 94q0 47 -38 74q-37 27 -103 27q-134 0 -146 -107h-197q7 133 98 207q89 72 247 72q156 0 247 -68q90 -67 90 -180q0 -148 -145 -188v-2
q77 -18 126 -77q48 -59 48 -139q0 -118 -96 -196z" />
    <glyph glyph-name="acute" unicode="&#xb4;" horiz-adv-x="1024" 
d="M481 1169h-192l96 289h352z" />
    <glyph glyph-name="uni00B5" unicode="&#xb5;" horiz-adv-x="1183" 
d="M412 -418h-289v1475h289v-629q0 -195 153 -195q93 0 150 71q57 70 57 188v565h289v-1057h-283l-4 143q-35 -80 -104 -124q-70 -44 -156 -44q-77 0 -149 39l-5 -4l52 -235v-193z" />
    <glyph glyph-name="paragraph" unicode="&#xb6;" horiz-adv-x="1370" 
d="M766 -211h-246v881q-234 0 -361 103q-128 104 -128 284q0 401 524 401h682v-1669h-246v1423h-225v-1423z" />
    <glyph glyph-name="middot" unicode="&#xb7;" horiz-adv-x="679" 
d="M496 582h-312v307h312v-307z" />
    <glyph glyph-name="cedilla" unicode="&#xb8;" horiz-adv-x="1024" 
d="M414 -514h-101v131h72q92 0 92 61q0 54 -57 54h-45l-76 106l102 162h154l-78 -117h23q94 0 149 -48q56 -48 56 -132q0 -103 -78 -160t-213 -57z" />
    <glyph glyph-name="one.sups" unicode="&#xb9;" horiz-adv-x="606" 
d="M483 762h-204v563h-218v154h62q77 0 123 37q47 38 47 102v18h190v-874z" />
    <glyph glyph-name="ordmasculine" unicode="&#xba;" horiz-adv-x="952" 
d="M479 745q-195 0 -303 99t-108 272q0 174 108 272q107 97 303 97q194 0 301 -97q109 -98 109 -272q0 -175 -109 -273t-301 -98zM354 973q45 -51 125 -51t125 51q43 50 43 143q0 89 -44 141t-124 52q-79 0 -125 -52q-45 -51 -45 -141q0 -92 45 -143z" />
    <glyph glyph-name="guillemotright" unicode="&#xbb;" horiz-adv-x="1443" 
d="M676 406l-553 -426v337l287 209l-287 209v338l553 -426v-241zM1321 406l-553 -426v337l287 209l-287 209v338l553 -426v-241z" />
    <glyph glyph-name="onequarter" unicode="&#xbc;" horiz-adv-x="2162" 
d="M655 -31h-221l918 1520h217zM555 598h-205v563h-217v154h62q76 0 122 37q48 39 48 102v19h190v-875zM1888 0h-194v160l-441 -6v165l404 555h231v-542l142 6v-184l-142 6v-160zM1690 631l-211 -295l215 -4v299h-4z" />
    <glyph glyph-name="onehalf" unicode="&#xbd;" horiz-adv-x="2162" 
d="M655 -31h-221l918 1520h217zM555 598h-205v563h-217v154h62q76 0 122 37q48 39 48 102v19h190v-875zM2028 0h-676q0 150 41 240q40 88 139 143l199 111q94 51 94 120q0 50 -37 78q-38 29 -102 29q-134 0 -142 -123h-196q1 145 90 220t250 75q158 0 249 -75
q93 -76 93 -200q0 -155 -170 -247l-205 -111q-60 -34 -66 -80h439v-180z" />
    <glyph glyph-name="threequarters" unicode="&#xbe;" horiz-adv-x="2353" 
d="M743 641q-94 -76 -262 -76q-166 0 -258 80q-94 76 -100 221h196q7 -129 162 -129q152 0 152 111q0 106 -160 106h-72v170h78q133 0 133 95q0 46 -38 73t-103 27q-133 0 -145 -107h-197q7 134 97 207q89 72 247 72q157 0 248 -68q90 -67 90 -180q0 -148 -145 -188v-2
q77 -18 126 -77q48 -58 48 -138q0 -118 -97 -197zM856 -31h-221l917 1520h217zM2089 0h-195v160l-440 -6v165l404 555h231v-542l141 6v-184l-141 6v-160zM1890 631l-211 -295l215 -4v299h-4z" />
    <glyph glyph-name="questiondown" unicode="&#xbf;" horiz-adv-x="1206" 
d="M752 750h-312v307h312v-307zM616 -434q-251 0 -397 117q-147 117 -147 309q0 200 182 321l96 64q66 44 87 79q22 38 22 93v29h274v-56q0 -102 -42 -171q-41 -67 -154 -144q-80 -53 -113 -99q-33 -47 -33 -106q0 -87 65 -134q64 -46 167 -46q223 0 233 231h293
q-6 -235 -144 -361t-389 -126z" />
    <glyph glyph-name="Agrave" unicode="&#xc0;" horiz-adv-x="1472" 
d="M813 1860l96 -289h-192l-256 289h352zM1421 0h-323l-99 303h-528l-98 -303h-322l516 1458h351zM612 733l-59 -180h367l-60 180l-123 420z" />
    <glyph glyph-name="Aacute" unicode="&#xc1;" horiz-adv-x="1472" 
d="M698 1860h353l-256 -289h-193zM1421 0h-323l-99 303h-528l-98 -303h-322l516 1458h351zM612 733l-59 -180h367l-60 180l-123 420z" />
    <glyph glyph-name="Acircumflex" unicode="&#xc2;" horiz-adv-x="1472" 
d="M879 1591l-123 168l-123 -168h-256l246 301h266l246 -301h-256zM1421 0h-323l-99 303h-528l-98 -303h-322l516 1458h351zM612 733l-59 -180h367l-60 180l-123 420z" />
    <glyph glyph-name="Atilde" unicode="&#xc3;" horiz-adv-x="1472" 
d="M629 1710q-86 0 -86 -108h-221q0 364 262 364q79 0 170 -53q89 -55 129 -55q86 0 86 108h221q0 -364 -262 -364q-81 0 -170 55q-91 53 -129 53zM1421 0h-323l-99 303h-528l-98 -303h-322l516 1458h351zM612 733l-59 -180h367l-60 180l-123 420z" />
    <glyph glyph-name="Adieresis" unicode="&#xc4;" horiz-adv-x="1472" 
d="M395 1860h289v-263h-289v263zM827 1860h289v-263h-289v263zM1421 0h-323l-99 303h-528l-98 -303h-322l516 1458h351zM612 733l-59 -180h367l-60 180l-123 420z" />
    <glyph glyph-name="Aring" unicode="&#xc5;" horiz-adv-x="1472" 
d="M1421 0h-323l-99 303h-528l-98 -303h-322l490 1382q-88 88 -88 220q0 131 86 217t217 86t217 -86t86 -217q0 -147 -109 -238zM860 1708q-41 41 -104 41q-64 0 -103 -41q-39 -40 -39 -106t39 -105q41 -39 104 -39t103 39q41 39 41 105q0 65 -41 106zM612 733l-59 -180h367
l-60 180l-123 420z" />
    <glyph glyph-name="AE" unicode="&#xc6;" horiz-adv-x="2332" 
d="M1473 627v-371h778v-256h-1082v367h-561l-221 -367h-336l879 1458h1300v-256h-757v-315h681v-260h-681zM1106 1196l-344 -573h407v573h-63z" />
    <glyph glyph-name="Ccedilla" unicode="&#xc7;" horiz-adv-x="1419" 
d="M768 215q134 0 213 72q80 73 98 190h287q-17 -232 -163 -368q-148 -138 -390 -154l-61 -92h22q94 0 150 -48q55 -48 55 -132q0 -103 -78 -160q-79 -58 -213 -58h-100v132h71q93 0 93 61q0 53 -58 53h-45l-76 107l89 141q-263 30 -426 240q-164 212 -164 530
q0 348 192 555q195 207 490 207q266 0 430 -138q163 -138 184 -378h-289q-18 121 -99 187q-82 67 -212 67q-184 0 -289 -135q-104 -134 -104 -365q0 -239 104 -376q105 -138 289 -138z" />
    <glyph glyph-name="Egrave" unicode="&#xc8;" horiz-adv-x="1296" 
d="M715 1860l96 -289h-193l-256 289h353zM436 627v-371h778v-256h-1081v1458h1061v-256h-758v-315h682v-260h-682z" />
    <glyph glyph-name="Eacute" unicode="&#xc9;" horiz-adv-x="1296" 
d="M600 1860h352l-256 -289h-192zM436 627v-371h778v-256h-1081v1458h1061v-256h-758v-315h682v-260h-682z" />
    <glyph glyph-name="Ecircumflex" unicode="&#xca;" horiz-adv-x="1296" 
d="M780 1591l-123 168l-122 -168h-256l245 301h267l245 -301h-256zM436 627v-371h778v-256h-1081v1458h1061v-256h-758v-315h682v-260h-682z" />
    <glyph glyph-name="Edieresis" unicode="&#xcb;" horiz-adv-x="1296" 
d="M297 1860h289v-263h-289v263zM729 1860h289v-263h-289v263zM436 627v-371h778v-256h-1081v1458h1061v-256h-758v-315h682v-260h-682z" />
    <glyph glyph-name="Igrave" unicode="&#xcc;" horiz-adv-x="569" 
d="M438 1571h-192l-256 289h352zM436 0h-303v1458h303v-1458z" />
    <glyph glyph-name="Iacute" unicode="&#xcd;" horiz-adv-x="569" 
d="M324 1571h-193l96 289h353zM436 0h-303v1458h303v-1458z" />
    <glyph glyph-name="Icircumflex" unicode="&#xce;" horiz-adv-x="569" 
d="M162 1591h-256l246 301h266l246 -301h-256l-123 168zM436 0h-303v1458h303v-1458z" />
    <glyph glyph-name="Idieresis" unicode="&#xcf;" horiz-adv-x="569" 
d="M213 1597h-289v263h289v-263zM645 1597h-289v263h289v-263zM436 0h-303v1458h303v-1458z" />
    <glyph glyph-name="Eth" unicode="&#xd0;" horiz-adv-x="1542" 
d="M248 1458h536q693 0 693 -729q0 -349 -165 -539t-487 -190h-577v623l-217 -9v248l217 -8v604zM551 256h235q210 0 299 110t89 363q0 257 -93 373q-94 110 -336 110h-194v-360l340 10v-248l-340 11v-369z" />
    <glyph glyph-name="Ntilde" unicode="&#xd1;" horiz-adv-x="1443" 
d="M596 1710q-86 0 -86 -108h-221q0 364 262 364q79 0 170 -53q89 -55 129 -55q86 0 86 108h221q0 -364 -262 -364q-81 0 -170 55q-91 53 -129 53zM1008 522v936h303v-1458h-297l-578 936v-936h-303v1458h297z" />
    <glyph glyph-name="Ograve" unicode="&#xd2;" horiz-adv-x="1527" 
d="M918 1571h-193l-256 289h352zM1257 168q-201 -215 -497 -215q-297 0 -492 215q-196 212 -196 563q0 345 194 555q195 207 494 207q296 0 497 -207q199 -208 199 -555q0 -349 -199 -563zM479 356q102 -141 281 -141t287 141q106 139 106 375q0 227 -106 363
q-107 137 -287 137t-281 -137q-104 -138 -104 -363q0 -235 104 -375z" />
    <glyph glyph-name="Oacute" unicode="&#xd3;" horiz-adv-x="1527" 
d="M803 1571h-193l97 289h352zM1257 168q-201 -215 -497 -215q-297 0 -492 215q-196 212 -196 563q0 345 194 555q195 207 494 207q296 0 497 -207q199 -208 199 -555q0 -349 -199 -563zM479 356q102 -141 281 -141t287 141q106 139 106 375q0 227 -106 363
q-107 137 -287 137t-281 -137q-104 -138 -104 -363q0 -235 104 -375z" />
    <glyph glyph-name="Ocircumflex" unicode="&#xd4;" horiz-adv-x="1527" 
d="M641 1591h-256l246 301h266l246 -301h-256l-123 168zM1257 168q-201 -215 -497 -215q-297 0 -492 215q-196 212 -196 563q0 345 194 555q195 207 494 207q296 0 497 -207q199 -208 199 -555q0 -349 -199 -563zM479 356q102 -141 281 -141t287 141q106 139 106 375
q0 227 -106 363q-107 137 -287 137t-281 -137q-104 -138 -104 -363q0 -235 104 -375z" />
    <glyph glyph-name="Otilde" unicode="&#xd5;" horiz-adv-x="1527" 
d="M551 1602h-221q0 364 262 364q79 0 170 -53q89 -55 129 -55q86 0 86 108h221q0 -364 -262 -364q-81 0 -170 55q-91 53 -129 53q-86 0 -86 -108zM1257 168q-201 -215 -497 -215q-297 0 -492 215q-196 212 -196 563q0 345 194 555q195 207 494 207q296 0 497 -207
q199 -208 199 -555q0 -349 -199 -563zM479 356q102 -141 281 -141t287 141q106 139 106 375q0 227 -106 363q-107 137 -287 137t-281 -137q-104 -138 -104 -363q0 -235 104 -375z" />
    <glyph glyph-name="Odieresis" unicode="&#xd6;" horiz-adv-x="1527" 
d="M692 1597h-289v263h289v-263zM1124 1597h-288v263h288v-263zM1257 168q-201 -215 -497 -215q-297 0 -492 215q-196 212 -196 563q0 345 194 555q195 207 494 207q296 0 497 -207q199 -208 199 -555q0 -349 -199 -563zM479 356q102 -141 281 -141t287 141q106 139 106 375
q0 227 -106 363q-107 137 -287 137t-281 -137q-104 -138 -104 -363q0 -235 104 -375z" />
    <glyph glyph-name="multiply" unicode="&#xd7;" 
d="M717 463l-391 -393l-176 174l393 393l-393 393l174 174l393 -393l395 393l172 -174l-393 -393l393 -393l-174 -174z" />
    <glyph glyph-name="Oslash" unicode="&#xd8;" horiz-adv-x="1527" 
d="M1405 1413l-119 -160q170 -208 170 -522q0 -349 -199 -563q-201 -215 -497 -215q-210 0 -367 106l-119 -157l-151 108l129 174q-180 212 -180 547q0 345 194 555q195 207 494 207q216 0 387 -115l106 144zM375 731q0 -181 61 -303l545 729q-92 74 -221 74
q-180 0 -281 -137q-104 -138 -104 -363zM760 215q179 0 287 141q106 139 106 375q0 151 -53 275l-543 -727q85 -64 203 -64z" />
    <glyph glyph-name="Ugrave" unicode="&#xd9;" horiz-adv-x="1398" 
d="M854 1571h-192l-256 289h352zM1116 82q-150 -129 -418 -129t-415 129q-150 129 -150 367v1009h303v-1014q0 -229 264 -229q263 0 263 229v1014h303v-1009q0 -238 -150 -367z" />
    <glyph glyph-name="Uacute" unicode="&#xda;" horiz-adv-x="1398" 
d="M739 1571h-192l96 289h352zM1116 82q-150 -129 -418 -129t-415 129q-150 129 -150 367v1009h303v-1014q0 -229 264 -229q263 0 263 229v1014h303v-1009q0 -238 -150 -367z" />
    <glyph glyph-name="Ucircumflex" unicode="&#xdb;" horiz-adv-x="1398" 
d="M578 1591h-256l245 301h267l245 -301h-256l-123 168zM1116 82q-150 -129 -418 -129t-415 129q-150 129 -150 367v1009h303v-1014q0 -229 264 -229q263 0 263 229v1014h303v-1009q0 -238 -150 -367z" />
    <glyph glyph-name="Udieresis" unicode="&#xdc;" horiz-adv-x="1398" 
d="M629 1597h-289v263h289v-263zM1061 1597h-289v263h289v-263zM1116 82q-150 -129 -418 -129t-415 129q-150 129 -150 367v1009h303v-1014q0 -229 264 -229q263 0 263 229v1014h303v-1009q0 -238 -150 -367z" />
    <glyph glyph-name="Yacute" unicode="&#xdd;" horiz-adv-x="1343" 
d="M614 1860h353l-256 -289h-193zM756 1006l225 452h326l-484 -893v-565h-303v565l-483 893h334l221 -452l80 -203z" />
    <glyph glyph-name="Thorn" unicode="&#xde;" horiz-adv-x="1251" 
d="M436 1231h277q236 0 372 -125t136 -344q0 -226 -140 -354q-139 -127 -395 -127h-250v-281h-303v1458h303v-227zM436 537h223q131 0 200 57t69 164q0 102 -64 160q-63 57 -174 57h-254v-438z" />
    <glyph glyph-name="germandbls" unicode="&#xdf;" horiz-adv-x="1206" 
d="M412 0h-289v1047q0 225 115 331q114 105 352 105q239 0 368 -100q127 -99 127 -273q0 -234 -211 -295v-4q269 -72 269 -373q0 -206 -126 -322q-127 -116 -349 -116h-88v225h55q213 0 213 219q0 220 -213 220h-55v225h26q195 0 195 180q0 188 -197 188q-93 0 -142 -49
q-50 -50 -50 -137v-1071z" />
    <glyph glyph-name="agrave" unicode="&#xe0;" horiz-adv-x="1140" 
d="M621 1458l96 -289h-193l-256 289h353zM1059 0h-293q-23 104 -23 106q-113 -137 -325 -137q-166 0 -266 88q-101 89 -101 234q0 256 322 319l368 74v78q0 115 -178 115q-88 0 -133 -33q-44 -33 -55 -107l-264 4q27 340 450 340q457 0 457 -393v-467q0 -148 41 -221z
M500 182q108 0 175 65q66 65 66 175v78l-270 -58q-137 -27 -137 -133q0 -57 44 -92t122 -35z" />
    <glyph glyph-name="aacute" unicode="&#xe1;" horiz-adv-x="1140" 
d="M506 1458h352l-256 -289h-192zM1059 0h-293q-23 104 -23 106q-113 -137 -325 -137q-166 0 -266 88q-101 89 -101 234q0 256 322 319l368 74v78q0 115 -178 115q-88 0 -133 -33q-44 -33 -55 -107l-264 4q27 340 450 340q457 0 457 -393v-467q0 -148 41 -221zM500 182
q108 0 175 65q66 65 66 175v78l-270 -58q-137 -27 -137 -133q0 -57 44 -92t122 -35z" />
    <glyph glyph-name="acircumflex" unicode="&#xe2;" horiz-adv-x="1140" 
d="M686 1190l-123 168l-123 -168h-256l246 301h266l246 -301h-256zM1059 0h-293q-23 104 -23 106q-113 -137 -325 -137q-166 0 -266 88q-101 89 -101 234q0 256 322 319l368 74v78q0 115 -178 115q-88 0 -133 -33q-44 -33 -55 -107l-264 4q27 340 450 340q457 0 457 -393
v-467q0 -148 41 -221zM500 182q108 0 175 65q66 65 66 175v78l-270 -58q-137 -27 -137 -133q0 -57 44 -92t122 -35z" />
    <glyph glyph-name="atilde" unicode="&#xe3;" horiz-adv-x="1140" 
d="M436 1309q-86 0 -86 -109h-221q0 365 262 365q79 0 172 -54q89 -55 127 -55q86 0 86 109h221q0 -365 -262 -365q-81 0 -170 55q-93 54 -129 54zM1059 0h-293q-23 104 -23 106q-113 -137 -325 -137q-166 0 -266 88q-101 89 -101 234q0 256 322 319l368 74v78
q0 115 -178 115q-88 0 -133 -33q-44 -33 -55 -107l-264 4q27 340 450 340q457 0 457 -393v-467q0 -148 41 -221zM500 182q108 0 175 65q66 65 66 175v78l-270 -58q-137 -27 -137 -133q0 -57 44 -92t122 -35z" />
    <glyph glyph-name="adieresis" unicode="&#xe4;" horiz-adv-x="1140" 
d="M203 1458h289v-262h-289v262zM635 1458h289v-262h-289v262zM1059 0h-293q-23 104 -23 106q-113 -137 -325 -137q-166 0 -266 88q-101 89 -101 234q0 256 322 319l368 74v78q0 115 -178 115q-88 0 -133 -33q-44 -33 -55 -107l-264 4q27 340 450 340q457 0 457 -393v-467
q0 -148 41 -221zM500 182q108 0 175 65q66 65 66 175v78l-270 -58q-137 -27 -137 -133q0 -57 44 -92t122 -35z" />
    <glyph glyph-name="aring" unicode="&#xe5;" horiz-adv-x="1140" 
d="M780 1255q-86 -86 -217 -86t-217 86q-86 84 -86 215q0 132 86 218t217 86t217 -86t86 -218q0 -131 -86 -215zM668 1577q-41 41 -105 41q-63 0 -102 -41t-39 -107q0 -65 39 -104t102 -39q65 0 105 39q41 39 41 104q0 66 -41 107zM1059 0h-293q-23 104 -23 106
q-113 -137 -325 -137q-166 0 -266 88q-101 89 -101 234q0 256 322 319l368 74v78q0 115 -178 115q-88 0 -133 -33q-44 -33 -55 -107l-264 4q27 340 450 340q457 0 457 -393v-467q0 -148 41 -221zM500 182q108 0 175 65q66 65 66 175v78l-270 -58q-137 -27 -137 -133
q0 -57 44 -92t122 -35z" />
    <glyph glyph-name="ae" unicode="&#xe6;" horiz-adv-x="1867" 
d="M1804 492v-52h-766q11 -120 76 -185q67 -67 172 -67q147 0 203 131l283 -32q-114 -324 -480 -324q-300 0 -428 221q-128 -215 -413 -215q-188 0 -294 89t-106 241q0 143 97 230q98 87 286 87h307v105q0 156 -186 156q-83 0 -127 -33q-42 -32 -53 -107l-264 4
q30 340 434 340q276 0 375 -153q136 155 380 155q240 0 372 -156t132 -435zM1434 807q-61 65 -162 65q-99 0 -164 -65q-61 -66 -72 -191h469q-7 124 -71 191zM500 182q108 0 175 65q66 65 66 175v20h-235q-87 0 -129 -35q-43 -36 -43 -96q0 -59 44 -94t122 -35z" />
    <glyph glyph-name="ccedilla" unicode="&#xe7;" horiz-adv-x="1122" 
d="M580 190q152 0 202 175h283q-29 -175 -142 -278q-114 -103 -290 -120l-68 -100h23q94 0 149 -48q56 -48 56 -132q0 -103 -78 -160t-213 -57h-101v131h72q92 0 92 61q0 53 -57 53h-45l-76 107l94 149q-194 30 -304 177q-109 146 -109 376q0 257 137 408q139 151 370 151
q203 0 330 -103t160 -292h-283q-47 170 -202 170q-110 0 -172 -87q-62 -88 -62 -247q0 -158 62 -246t172 -88z" />
    <glyph glyph-name="egrave" unicode="&#xe8;" horiz-adv-x="1193" 
d="M655 1458l97 -289h-193l-256 289h352zM1130 492v-50h-765q8 -119 73 -186q66 -68 174 -68q153 0 205 138l287 -21q-52 -167 -178 -255q-124 -87 -308 -87q-255 0 -403 160q-147 159 -147 409q0 240 141 396q140 155 379 155q240 0 391 -159q151 -161 151 -432zM758 811
q-61 61 -160 61q-100 0 -162 -61q-64 -67 -74 -172h469q-12 111 -73 172z" />
    <glyph glyph-name="eacute" unicode="&#xe9;" horiz-adv-x="1193" 
d="M541 1458h352l-256 -289h-193zM1130 492v-50h-765q8 -119 73 -186q66 -68 174 -68q153 0 205 138l287 -21q-52 -167 -178 -255q-124 -87 -308 -87q-255 0 -403 160q-147 159 -147 409q0 240 141 396q140 155 379 155q240 0 391 -159q151 -161 151 -432zM758 811
q-61 61 -160 61q-100 0 -162 -61q-64 -67 -74 -172h469q-12 111 -73 172z" />
    <glyph glyph-name="ecircumflex" unicode="&#xea;" horiz-adv-x="1193" 
d="M721 1190l-123 168l-123 -168h-256l246 301h266l246 -301h-256zM1130 492v-50h-765q8 -119 73 -186q66 -68 174 -68q153 0 205 138l287 -21q-52 -167 -178 -255q-124 -87 -308 -87q-255 0 -403 160q-147 159 -147 409q0 240 141 396q140 155 379 155q240 0 391 -159
q151 -161 151 -432zM758 811q-61 61 -160 61q-100 0 -162 -61q-64 -67 -74 -172h469q-12 111 -73 172z" />
    <glyph glyph-name="edieresis" unicode="&#xeb;" horiz-adv-x="1193" 
d="M238 1458h288v-262h-288v262zM670 1458h288v-262h-288v262zM1130 492v-50h-765q8 -119 73 -186q66 -68 174 -68q153 0 205 138l287 -21q-52 -167 -178 -255q-124 -87 -308 -87q-255 0 -403 160q-147 159 -147 409q0 240 141 396q140 155 379 155q240 0 391 -159
q151 -161 151 -432zM758 811q-61 61 -160 61q-100 0 -162 -61q-64 -67 -74 -172h469q-12 111 -73 172z" />
    <glyph glyph-name="igrave" unicode="&#xec;" horiz-adv-x="534" 
d="M422 1169h-193l-256 289h353zM412 0h-289v1057h289v-1057z" />
    <glyph glyph-name="iacute" unicode="&#xed;" horiz-adv-x="534" 
d="M307 1169h-192l96 289h352zM412 0h-289v1057h289v-1057z" />
    <glyph glyph-name="icircumflex" unicode="&#xee;" horiz-adv-x="534" 
d="M145 1190h-256l246 301h266l246 -301h-256l-123 168zM412 0h-289v1057h289v-1057z" />
    <glyph glyph-name="idieresis" unicode="&#xef;" horiz-adv-x="534" 
d="M184 1196h-239v262h239v-262zM592 1196h-260v262h260v-262zM412 0h-289v1057h289v-1057z" />
    <glyph glyph-name="eth" unicode="&#xf0;" horiz-adv-x="1163" 
d="M967 1358l-183 -98q316 -304 316 -721q0 -271 -143 -422q-143 -150 -388 -150q-235 0 -366 135q-135 135 -135 361q0 210 122 342q123 133 314 133q174 0 280 -96q-60 158 -219 293l-207 -134l-104 156l160 84q-87 48 -160 78l108 211q149 -67 275 -152l219 152zM821 504
v22q-7 69 -84 129q-73 58 -168 58q-99 0 -161 -70t-62 -186q0 -123 63 -194q63 -70 171 -70q115 0 178 79q63 80 63 232z" />
    <glyph glyph-name="ntilde" unicode="&#xf1;" horiz-adv-x="1183" 
d="M473 1309q-86 0 -86 -109h-221q0 365 262 365q77 0 170 -54q89 -55 129 -55q86 0 86 109h221q0 -365 -262 -365q-81 0 -170 55q-93 54 -129 54zM715 1083q164 0 255 -100t91 -274v-709h-289v643q0 87 -40 133q-41 47 -114 47q-92 0 -149 -70q-57 -71 -57 -188v-565h-289
v1057h283l4 -144q102 170 305 170z" />
    <glyph glyph-name="ograve" unicode="&#xf2;" horiz-adv-x="1212" 
d="M762 1169h-193l-256 289h353zM997 125q-151 -160 -389 -160t-389 160q-151 157 -151 399q0 241 151 402q151 157 389 157t389 -157q152 -163 152 -402q0 -241 -152 -399zM418 281q73 -91 190 -91q120 0 193 91q69 89 69 243q0 156 -69 244q-72 90 -193 90
q-118 0 -190 -90t-72 -244q0 -153 72 -243z" />
    <glyph glyph-name="oacute" unicode="&#xf3;" horiz-adv-x="1212" 
d="M647 1169h-192l96 289h352zM997 125q-151 -160 -389 -160t-389 160q-151 157 -151 399q0 241 151 402q151 157 389 157t389 -157q152 -163 152 -402q0 -241 -152 -399zM418 281q73 -91 190 -91q120 0 193 91q69 89 69 243q0 156 -69 244q-72 90 -193 90q-118 0 -190 -90
t-72 -244q0 -153 72 -243z" />
    <glyph glyph-name="ocircumflex" unicode="&#xf4;" horiz-adv-x="1212" 
d="M485 1190h-256l246 301h266l246 -301h-256l-123 168zM997 125q-151 -160 -389 -160t-389 160q-151 157 -151 399q0 241 151 402q151 157 389 157t389 -157q152 -163 152 -402q0 -241 -152 -399zM418 281q73 -91 190 -91q120 0 193 91q69 89 69 243q0 156 -69 244
q-72 90 -193 90q-118 0 -190 -90t-72 -244q0 -153 72 -243z" />
    <glyph glyph-name="otilde" unicode="&#xf5;" horiz-adv-x="1212" 
d="M395 1200h-221q0 365 262 365q79 0 172 -54q88 -55 127 -55q86 0 86 109h221q0 -365 -262 -365q-81 0 -170 55q-93 54 -129 54q-86 0 -86 -109zM997 125q-151 -160 -389 -160t-389 160q-151 157 -151 399q0 241 151 402q151 157 389 157t389 -157q152 -163 152 -402
q0 -241 -152 -399zM418 281q73 -91 190 -91q120 0 193 91q69 89 69 243q0 156 -69 244q-72 90 -193 90q-118 0 -190 -90t-72 -244q0 -153 72 -243z" />
    <glyph glyph-name="odieresis" unicode="&#xf6;" horiz-adv-x="1212" 
d="M537 1196h-289v262h289v-262zM969 1196h-289v262h289v-262zM997 125q-151 -160 -389 -160t-389 160q-151 157 -151 399q0 241 151 402q151 157 389 157t389 -157q152 -163 152 -402q0 -241 -152 -399zM418 281q73 -91 190 -91q120 0 193 91q69 89 69 243q0 156 -69 244
q-72 90 -193 90q-118 0 -190 -90t-72 -244q0 -153 72 -243z" />
    <glyph glyph-name="divide" unicode="&#xf7;" 
d="M866 901h-297v297h297v-297zM1311 506h-1188v246h1188v-246zM866 59h-297v297h297v-297z" />
    <glyph glyph-name="oslash" unicode="&#xf8;" horiz-adv-x="1212" 
d="M1120 983l-88 -100q117 -152 117 -359q0 -241 -152 -399q-151 -160 -389 -160q-166 0 -299 84l-84 -96l-127 110l88 101q-118 149 -118 360q0 241 151 402q151 157 389 157q170 0 301 -86l84 97zM346 524q0 -75 23 -149l383 440q-61 43 -144 43q-121 0 -191 -90
q-71 -91 -71 -244zM608 190q121 0 192 91q70 89 70 243q0 84 -20 148l-381 -441q61 -41 139 -41z" />
    <glyph glyph-name="ugrave" unicode="&#xf9;" horiz-adv-x="1183" 
d="M649 1458l96 -289h-192l-256 289h352zM772 492v565h289v-1057h-283l-4 143q-102 -170 -305 -170q-163 0 -255 101q-91 100 -91 274v709h289v-643q0 -87 40 -133q42 -48 113 -48q93 0 150 71q57 70 57 188z" />
    <glyph glyph-name="uacute" unicode="&#xfa;" horiz-adv-x="1183" 
d="M535 1458h352l-256 -289h-193zM772 492v565h289v-1057h-283l-4 143q-102 -170 -305 -170q-163 0 -255 101q-91 100 -91 274v709h289v-643q0 -87 40 -133q42 -48 113 -48q93 0 150 71q57 70 57 188z" />
    <glyph glyph-name="ucircumflex" unicode="&#xfb;" horiz-adv-x="1183" 
d="M715 1190l-123 168l-123 -168h-256l246 301h266l246 -301h-256zM772 492v565h289v-1057h-283l-4 143q-102 -170 -305 -170q-163 0 -255 101q-91 100 -91 274v709h289v-643q0 -87 40 -133q42 -48 113 -48q93 0 150 71q57 70 57 188z" />
    <glyph glyph-name="udieresis" unicode="&#xfc;" horiz-adv-x="1183" 
d="M231 1458h289v-262h-289v262zM664 1458h288v-262h-288v262zM772 492v565h289v-1057h-283l-4 143q-102 -170 -305 -170q-163 0 -255 101q-91 100 -91 274v709h289v-643q0 -87 40 -133q42 -48 113 -48q93 0 150 71q57 70 57 188z" />
    <glyph glyph-name="yacute" unicode="&#xfd;" horiz-adv-x="1138" 
d="M518 1458h352l-256 -289h-192zM575 309l226 748h307l-422 -1245q-44 -132 -112 -181t-189 -49h-242v246h140q116 0 149 90l10 29l-411 1110h317l195 -594z" />
    <glyph glyph-name="thorn" unicode="&#xfe;" horiz-adv-x="1214" 
d="M719 1083q187 0 309 -149q123 -152 123 -402q0 -252 -127 -409q-128 -158 -328 -158q-179 0 -284 133v-516h-289v1876h289v-508q108 133 307 133zM635 219q106 0 172 86q65 84 65 227t-65 227q-66 85 -172 85t-172 -85t-66 -227q0 -140 67 -227q66 -86 171 -86z" />
    <glyph glyph-name="ydieresis" unicode="&#xff;" horiz-adv-x="1138" 
d="M215 1458h289v-262h-289v262zM647 1458h289v-262h-289v262zM575 309l226 748h307l-422 -1245q-44 -132 -112 -181t-189 -49h-242v246h140q116 0 149 90l10 29l-411 1110h317l195 -594z" />
    <glyph glyph-name="Amacron" unicode="&#x100;" horiz-adv-x="1472" 
d="M385 1858h743v-216h-743v216zM1421 0h-323l-99 303h-528l-98 -303h-322l516 1458h351zM612 733l-59 -180h367l-60 180l-123 420z" />
    <glyph glyph-name="amacron" unicode="&#x101;" horiz-adv-x="1140" 
d="M193 1456h743v-215h-743v215zM1059 0h-293q-23 104 -23 106q-113 -137 -325 -137q-166 0 -266 88q-101 89 -101 234q0 256 322 319l368 74v78q0 115 -178 115q-88 0 -133 -33q-44 -33 -55 -107l-264 4q27 340 450 340q457 0 457 -393v-467q0 -148 41 -221zM500 182
q108 0 175 65q66 65 66 175v78l-270 -58q-137 -27 -137 -133q0 -57 44 -92t122 -35z" />
    <glyph glyph-name="Abreve" unicode="&#x102;" horiz-adv-x="1472" 
d="M1030 1659q-86 -86 -276 -86q-189 0 -273 86q-84 84 -90 246h176q6 -144 189 -144q182 0 188 144h176q-6 -162 -90 -246zM1421 0h-323l-99 303h-528l-98 -303h-322l516 1458h351zM612 733l-59 -180h367l-60 180l-123 420z" />
    <glyph glyph-name="abreve" unicode="&#x103;" horiz-adv-x="1140" 
d="M838 1257q-86 -86 -277 -86q-188 0 -272 86q-84 84 -90 246h176q6 -143 188 -143q183 0 189 143h176q-6 -162 -90 -246zM1059 0h-293q-23 104 -23 106q-113 -137 -325 -137q-166 0 -266 88q-101 89 -101 234q0 256 322 319l368 74v78q0 115 -178 115q-88 0 -133 -33
q-44 -33 -55 -107l-264 4q27 340 450 340q457 0 457 -393v-467q0 -148 41 -221zM500 182q108 0 175 65q66 65 66 175v78l-270 -58q-137 -27 -137 -133q0 -57 44 -92t122 -35z" />
    <glyph glyph-name="Aogonek" unicode="&#x104;" horiz-adv-x="1472" 
d="M1245 -199q0 -75 103 -75h73v-179h-170q-264 0 -264 191q0 69 42 126t147 126l14 10h-92l-99 303h-528l-98 -303h-322l516 1458h351l503 -1458l-106 -90q-70 -58 -70 -109zM612 733l-59 -180h367l-60 180l-123 420z" />
    <glyph glyph-name="aogonek" unicode="&#x105;" horiz-adv-x="1140" 
d="M883 -199q0 -75 102 -75h74v-179h-170q-264 0 -264 191q0 65 34 115q33 49 119 112q-28 93 -35 141q-113 -137 -325 -137q-166 0 -266 88q-101 89 -101 234q0 256 322 319l368 74v78q0 115 -178 115q-88 0 -133 -33q-44 -33 -55 -107l-264 4q27 340 450 340
q457 0 457 -393v-467q0 -148 41 -221l-107 -90q-69 -57 -69 -109zM500 182q108 0 175 65q66 65 66 175v78l-270 -58q-137 -27 -137 -133q0 -57 44 -92t122 -35z" />
    <glyph glyph-name="Cacute" unicode="&#x106;" horiz-adv-x="1419" 
d="M782 1571h-192l96 289h352zM750 -47q-298 0 -488 213q-190 212 -190 563q0 348 192 555q195 207 490 207q266 0 430 -138q163 -138 184 -378h-289q-18 121 -99 187q-82 67 -212 67q-184 0 -289 -135q-104 -134 -104 -365q0 -239 104 -376q105 -138 289 -138q134 0 213 72
q80 73 98 190h287q-18 -245 -182 -385q-163 -139 -434 -139z" />
    <glyph glyph-name="cacute" unicode="&#x107;" horiz-adv-x="1122" 
d="M625 1169h-193l96 289h353zM575 -35q-230 0 -370 152q-137 151 -137 407q0 257 137 408q139 151 370 151q203 0 330 -103t160 -292h-283q-47 170 -202 170q-110 0 -172 -87q-62 -88 -62 -247q0 -158 62 -246t172 -88q152 0 202 175h283q-33 -189 -162 -294
q-130 -106 -328 -106z" />
    <glyph glyph-name="Ccircumflex" unicode="&#x108;" horiz-adv-x="1419" 
d="M621 1591h-256l245 301h267l245 -301h-256l-123 168zM750 -47q-298 0 -488 213q-190 212 -190 563q0 348 192 555q195 207 490 207q266 0 430 -138q163 -138 184 -378h-289q-18 121 -99 187q-82 67 -212 67q-184 0 -289 -135q-104 -134 -104 -365q0 -239 104 -376
q105 -138 289 -138q134 0 213 72q80 73 98 190h287q-18 -245 -182 -385q-163 -139 -434 -139z" />
    <glyph glyph-name="ccircumflex" unicode="&#x109;" horiz-adv-x="1122" 
d="M463 1190h-256l246 301h266l246 -301h-256l-123 168zM575 -35q-230 0 -370 152q-137 151 -137 407q0 257 137 408q139 151 370 151q203 0 330 -103t160 -292h-283q-47 170 -202 170q-110 0 -172 -87q-62 -88 -62 -247q0 -158 62 -246t172 -88q152 0 202 175h283
q-33 -189 -162 -294q-130 -106 -328 -106z" />
    <glyph glyph-name="Cdotaccent" unicode="&#x10a;" horiz-adv-x="1419" 
d="M887 1597h-289v263h289v-263zM750 -47q-298 0 -488 213q-190 212 -190 563q0 348 192 555q195 207 490 207q266 0 430 -138q163 -138 184 -378h-289q-18 121 -99 187q-82 67 -212 67q-184 0 -289 -135q-104 -134 -104 -365q0 -239 104 -376q105 -138 289 -138
q134 0 213 72q80 73 98 190h287q-18 -245 -182 -385q-163 -139 -434 -139z" />
    <glyph glyph-name="cdotaccent" unicode="&#x10b;" horiz-adv-x="1122" 
d="M729 1196h-289v262h289v-262zM575 -35q-230 0 -370 152q-137 151 -137 407q0 257 137 408q139 151 370 151q203 0 330 -103t160 -292h-283q-47 170 -202 170q-110 0 -172 -87q-62 -88 -62 -247q0 -158 62 -246t172 -88q152 0 202 175h283q-33 -189 -162 -294
q-130 -106 -328 -106z" />
    <glyph glyph-name="Ccaron" unicode="&#x10c;" horiz-adv-x="1419" 
d="M877 1571h-267l-245 301h256l122 -168l123 168h256zM750 -47q-298 0 -488 213q-190 212 -190 563q0 348 192 555q195 207 490 207q266 0 430 -138q163 -138 184 -378h-289q-18 121 -99 187q-82 67 -212 67q-184 0 -289 -135q-104 -134 -104 -365q0 -239 104 -376
q105 -138 289 -138q134 0 213 72q80 73 98 190h287q-18 -245 -182 -385q-163 -139 -434 -139z" />
    <glyph glyph-name="ccaron" unicode="&#x10d;" horiz-adv-x="1122" 
d="M719 1169h-266l-246 301h256l123 -167l123 167h256zM575 -35q-230 0 -370 152q-137 151 -137 407q0 257 137 408q139 151 370 151q203 0 330 -103t160 -292h-283q-47 170 -202 170q-110 0 -172 -87q-62 -88 -62 -247q0 -158 62 -246t172 -88q152 0 202 175h283
q-33 -189 -162 -294q-130 -106 -328 -106z" />
    <glyph glyph-name="Dcaron" unicode="&#x10e;" horiz-adv-x="1427" 
d="M1083 1872l-245 -301h-267l-245 301h256l123 -168l122 168h256zM133 1458h537q692 0 692 -729q0 -349 -165 -539t-486 -190h-578v1458zM436 256h236q210 0 299 110q88 109 88 363q0 258 -92 373q-95 110 -336 110h-195v-956z" />
    <glyph glyph-name="dcaron" unicode="&#x10f;" horiz-adv-x="1679" 
d="M807 950v508h289v-1458h-256l-11 131q-108 -166 -307 -166t-327 158q-127 157 -127 409t122 402q122 149 310 149q199 0 307 -133zM1272 1012l100 446h307l-184 -446h-223zM584 219q105 0 171 86q66 85 66 227q0 143 -65 227q-66 85 -172 85t-172 -85t-66 -227t66 -227
q66 -86 172 -86z" />
    <glyph glyph-name="Dcroat" unicode="&#x110;" horiz-adv-x="1542" 
d="M248 1458h536q693 0 693 -729q0 -349 -165 -539t-487 -190h-577v623l-217 -9v248l217 -8v604zM551 256h235q210 0 299 110t89 363q0 257 -93 373q-94 110 -336 110h-194v-360l340 10v-248l-340 11v-369z" />
    <glyph glyph-name="dslash" unicode="&#x111;" horiz-adv-x="1308" 
d="M1096 1374l192 6v-227l-192 6v-1159h-256l-11 131q-108 -166 -307 -166t-327 158q-127 157 -127 409t122 402q122 149 310 149q199 0 307 -133v209l-248 -6v227l248 -6v125h289v-125zM584 219q105 0 171 86q66 85 66 227q0 143 -65 227q-66 85 -172 85t-172 -85t-66 -227
t66 -227q66 -86 172 -86z" />
    <glyph glyph-name="Emacron" unicode="&#x112;" horiz-adv-x="1296" 
d="M287 1858h743v-216h-743v216zM436 627v-371h778v-256h-1081v1458h1061v-256h-758v-315h682v-260h-682z" />
    <glyph glyph-name="emacron" unicode="&#x113;" horiz-adv-x="1193" 
d="M227 1456h744v-215h-744v215zM1130 492v-50h-765q8 -119 73 -186q66 -68 174 -68q153 0 205 138l287 -21q-52 -167 -178 -255q-124 -87 -308 -87q-255 0 -403 160q-147 159 -147 409q0 240 141 396q140 155 379 155q240 0 391 -159q151 -161 151 -432zM758 811
q-61 61 -160 61q-100 0 -162 -61q-64 -67 -74 -172h469q-12 111 -73 172z" />
    <glyph glyph-name="Ebreve" unicode="&#x114;" horiz-adv-x="1296" 
d="M932 1659q-86 -86 -277 -86q-188 0 -272 86q-84 84 -90 246h176q6 -144 188 -144q183 0 189 144h176q-6 -162 -90 -246zM436 627v-371h778v-256h-1081v1458h1061v-256h-758v-315h682v-260h-682z" />
    <glyph glyph-name="ebreve" unicode="&#x115;" horiz-adv-x="1193" 
d="M872 1257q-86 -86 -276 -86q-189 0 -272 86q-85 85 -91 246h177q6 -143 188 -143t188 143h177q-6 -161 -91 -246zM1130 492v-50h-765q8 -119 73 -186q66 -68 174 -68q153 0 205 138l287 -21q-52 -167 -178 -255q-124 -87 -308 -87q-255 0 -403 160q-147 159 -147 409
q0 240 141 396q140 155 379 155q240 0 391 -159q151 -161 151 -432zM758 811q-61 61 -160 61q-100 0 -162 -61q-64 -67 -74 -172h469q-12 111 -73 172z" />
    <glyph glyph-name="Edotaccent" unicode="&#x116;" horiz-adv-x="1296" 
d="M512 1860h289v-263h-289v263zM436 627v-371h778v-256h-1081v1458h1061v-256h-758v-315h682v-260h-682z" />
    <glyph glyph-name="edotaccent" unicode="&#x117;" horiz-adv-x="1193" 
d="M453 1458h288v-262h-288v262zM1130 492v-50h-765q8 -119 73 -186q66 -68 174 -68q153 0 205 138l287 -21q-52 -167 -178 -255q-124 -87 -308 -87q-255 0 -403 160q-147 159 -147 409q0 240 141 396q140 155 379 155q240 0 391 -159q151 -161 151 -432zM758 811
q-61 61 -160 61q-100 0 -162 -61q-64 -67 -74 -172h469q-12 111 -73 172z" />
    <glyph glyph-name="Eogonek" unicode="&#x118;" horiz-adv-x="1296" 
d="M1214 0l-106 -90q-70 -58 -70 -109q0 -75 103 -75h73v-179h-170q-264 0 -264 191q0 69 42 126t147 126l14 10h-850v1458h1061v-256h-758v-315h682v-260h-682v-371h778v-256z" />
    <glyph glyph-name="eogonek" unicode="&#x119;" horiz-adv-x="1193" 
d="M1130 492v-50h-765q8 -119 73 -186q66 -68 174 -68q153 0 205 138l287 -21q-78 -238 -291 -311l-98 -84q-70 -58 -70 -109q0 -75 103 -75h73v-179h-170q-264 0 -264 191q0 63 35 116q32 49 121 113q-223 24 -348 180q-127 157 -127 385q0 240 141 396q140 155 379 155
q240 0 391 -159q151 -161 151 -432zM758 811q-61 61 -160 61q-100 0 -162 -61q-64 -67 -74 -172h469q-12 111 -73 172z" />
    <glyph glyph-name="Ecaron" unicode="&#x11a;" horiz-adv-x="1296" 
d="M1036 1872l-245 -301h-267l-245 301h256l122 -168l123 168h256zM436 627v-371h778v-256h-1081v1458h1061v-256h-758v-315h682v-260h-682z" />
    <glyph glyph-name="ecaron" unicode="&#x11b;" horiz-adv-x="1193" 
d="M977 1470l-246 -301h-266l-246 301h256l123 -167l123 167h256zM1130 492v-50h-765q8 -119 73 -186q66 -68 174 -68q153 0 205 138l287 -21q-52 -167 -178 -255q-124 -87 -308 -87q-255 0 -403 160q-147 159 -147 409q0 240 141 396q140 155 379 155q240 0 391 -159
q151 -161 151 -432zM758 811q-61 61 -160 61q-100 0 -162 -61q-64 -67 -74 -172h469q-12 111 -73 172z" />
    <glyph glyph-name="Gcircumflex" unicode="&#x11c;" horiz-adv-x="1519" 
d="M883 1591l-123 168l-123 -168h-256l246 301h266l246 -301h-256zM778 788h608v-788h-196l-47 158q-128 -191 -408 -191q-284 0 -473 209q-190 205 -190 553q0 347 192 553q190 207 488 207q263 0 426 -128q160 -126 198 -364l-297 -18q-22 118 -102 184q-79 66 -209 66
q-184 0 -289 -135q-104 -134 -104 -365q0 -237 104 -375q105 -139 289 -139q141 0 238 83q95 82 118 237h-346v253z" />
    <glyph glyph-name="gcircumflex" unicode="&#x11d;" horiz-adv-x="1218" 
d="M690 1190l-123 168l-123 -168h-256l246 301h266l246 -301h-256zM829 926l11 131h256v-1069q0 -208 -132 -319t-372 -111q-220 0 -345 92t-141 264h267q24 -141 213 -141q119 0 170 52q51 53 51 159v145q-107 -129 -287 -129q-200 0 -325 154q-127 151 -127 395
q0 246 127 391q124 143 325 143q204 0 309 -157zM584 246q105 0 171 84t66 219t-66 219t-171 84q-106 0 -172 -82t-66 -221t66 -221t172 -82z" />
    <glyph glyph-name="Gbreve" unicode="&#x11e;" horiz-adv-x="1519" 
d="M1034 1659q-86 -86 -276 -86q-189 0 -273 86q-84 84 -90 246h176q6 -144 189 -144q182 0 188 144h176q-6 -162 -90 -246zM778 788h608v-788h-196l-47 158q-128 -191 -408 -191q-284 0 -473 209q-190 205 -190 553q0 347 192 553q190 207 488 207q263 0 426 -128
q160 -126 198 -364l-297 -18q-22 118 -102 184q-79 66 -209 66q-184 0 -289 -135q-104 -134 -104 -365q0 -237 104 -375q105 -139 289 -139q141 0 238 83q95 82 118 237h-346v253z" />
    <glyph glyph-name="gbreve" unicode="&#x11f;" horiz-adv-x="1218" 
d="M842 1257q-86 -86 -277 -86q-188 0 -272 86q-84 84 -90 246h176q6 -143 188 -143q183 0 189 143h176q-6 -162 -90 -246zM829 926l11 131h256v-1069q0 -208 -132 -319t-372 -111q-220 0 -345 92t-141 264h267q24 -141 213 -141q119 0 170 52q51 53 51 159v145
q-107 -129 -287 -129q-200 0 -325 154q-127 151 -127 395q0 246 127 391q124 143 325 143q204 0 309 -157zM584 246q105 0 171 84t66 219t-66 219t-171 84q-106 0 -172 -82t-66 -221t66 -221t172 -82z" />
    <glyph glyph-name="Gdotaccent" unicode="&#x120;" horiz-adv-x="1519" 
d="M614 1860h289v-263h-289v263zM778 788h608v-788h-196l-47 158q-128 -191 -408 -191q-284 0 -473 209q-190 205 -190 553q0 347 192 553q190 207 488 207q263 0 426 -128q160 -126 198 -364l-297 -18q-22 118 -102 184q-79 66 -209 66q-184 0 -289 -135
q-104 -134 -104 -365q0 -237 104 -375q105 -139 289 -139q141 0 238 83q95 82 118 237h-346v253z" />
    <glyph glyph-name="gdotaccent" unicode="&#x121;" horiz-adv-x="1218" 
d="M422 1458h289v-262h-289v262zM829 926l11 131h256v-1069q0 -208 -132 -319t-372 -111q-220 0 -345 92t-141 264h267q24 -141 213 -141q119 0 170 52q51 53 51 159v145q-107 -129 -287 -129q-200 0 -325 154q-127 151 -127 395q0 246 127 391q124 143 325 143
q204 0 309 -157zM584 246q105 0 171 84t66 219t-66 219t-171 84q-106 0 -172 -82t-66 -221t66 -221t172 -82z" />
    <glyph glyph-name="uni0122" unicode="&#x122;" horiz-adv-x="1519" 
d="M778 788h608v-788h-196l-47 158q-128 -191 -408 -191q-284 0 -473 209q-190 205 -190 553q0 347 192 553q190 207 488 207q263 0 426 -128q160 -126 198 -364l-297 -18q-22 118 -102 184q-79 66 -209 66q-184 0 -289 -135q-104 -134 -104 -365q0 -237 104 -375
q105 -139 289 -139q141 0 238 83q95 82 118 237h-346v253zM774 -360h-201v237h324v-285q0 -208 -229 -208h-95v104h95q106 0 106 104v48z" />
    <glyph glyph-name="uni0123" unicode="&#x123;" horiz-adv-x="1218" 
d="M532 1389l199 18v-211h-321v211q0 209 227 209h94v-105h-94q-105 0 -105 -104v-18zM829 926l11 131h256v-1069q0 -208 -132 -319t-372 -111q-220 0 -345 92t-141 264h267q24 -141 213 -141q119 0 170 52q51 53 51 159v145q-107 -129 -287 -129q-200 0 -325 154
q-127 151 -127 395q0 246 127 391q124 143 325 143q204 0 309 -157zM584 246q105 0 171 84t66 219t-66 219t-171 84q-106 0 -172 -82t-66 -221t66 -221t172 -82z" />
    <glyph glyph-name="Hcircumflex" unicode="&#x124;" horiz-adv-x="1441" 
d="M844 1591l-123 168l-123 -168h-256l246 301h266l246 -301h-256zM1006 895v563h303v-1458h-303v625h-570v-625h-303v1458h303v-563h570z" />
    <glyph glyph-name="hcircumflex" unicode="&#x125;" horiz-adv-x="1183" 
d="M391 1591l-123 168l-123 -168h-256l246 301h266l246 -301h-256zM715 1083q164 0 255 -100t91 -274v-709h-289v643q0 87 -40 133q-41 47 -114 47q-92 0 -149 -70q-57 -71 -57 -188v-565h-289v1458h289v-543q105 168 303 168z" />
    <glyph glyph-name="Hbar" unicode="&#x126;" horiz-adv-x="1441" 
d="M1006 1305v153h303v-1458h-303v600h-570v-600h-303v1458h303v-153h570zM436 1038v-172h570v172h-570z" />
    <glyph glyph-name="hbar" unicode="&#x127;" horiz-adv-x="1224" 
d="M756 1083q164 0 255 -100t91 -274v-709h-289v643q0 87 -40 133q-41 47 -114 47q-92 0 -149 -70q-57 -71 -57 -188v-565h-289v1161l-144 -4v213l144 -4v92h289v-94l266 6v-213l-266 6v-248q105 168 303 168z" />
    <glyph glyph-name="Itilde" unicode="&#x128;" horiz-adv-x="569" 
d="M72 1602h-222q0 364 263 364q81 0 172 -53q89 -55 127 -55q86 0 86 108h221q0 -364 -262 -364q-81 0 -170 55q-91 53 -129 53q-86 0 -86 -108zM436 0h-303v1458h303v-1458z" />
    <glyph glyph-name="itilde" unicode="&#x129;" horiz-adv-x="534" 
d="M55 1200h-221q0 365 262 365q77 0 170 -54q89 -55 129 -55q86 0 86 109h221q0 -365 -262 -365q-81 0 -170 55q-93 54 -129 54q-86 0 -86 -109zM412 0h-289v1057h289v-1057z" />
    <glyph glyph-name="Imacron" unicode="&#x12a;" horiz-adv-x="569" 
d="M657 1642h-743v216h743v-216zM436 0h-303v1458h303v-1458z" />
    <glyph glyph-name="imacron" unicode="&#x12b;" horiz-adv-x="534" 
d="M641 1241h-743v215h743v-215zM412 0h-289v1057h289v-1057z" />
    <glyph glyph-name="Ibreve" unicode="&#x12c;" horiz-adv-x="569" 
d="M559 1659q-86 -86 -276 -86q-189 0 -273 86q-84 79 -90 246h176q6 -144 189 -144q182 0 188 144h176q-6 -162 -90 -246zM436 0h-303v1458h303v-1458z" />
    <glyph glyph-name="ibreve" unicode="&#x12d;" horiz-adv-x="534" 
d="M543 1257q-86 -86 -277 -86q-188 0 -274 86q-82 82 -88 246h176q6 -143 188 -143q183 0 189 143h176q-6 -162 -90 -246zM412 0h-289v1057h289v-1057z" />
    <glyph glyph-name="Iogonek" unicode="&#x12e;" horiz-adv-x="569" 
d="M436 0l-106 -90q-70 -58 -70 -109q0 -75 102 -75h74v-179h-149q-264 0 -264 191q0 66 36 116t144 146h-70v1458h303v-1458z" />
    <glyph glyph-name="iogonek" unicode="&#x12f;" horiz-adv-x="534" 
d="M123 1196v262h289v-262h-289zM178 0h-55v1057h289v-1057l-107 -90q-69 -57 -69 -109q0 -75 102 -75h74v-179h-150q-264 0 -264 191q0 64 37 116t143 146z" />
    <glyph glyph-name="Idot" unicode="&#x130;" horiz-adv-x="569" 
d="M428 1597h-289v263h289v-263zM436 0h-303v1458h303v-1458z" />
    <glyph glyph-name="dotlessi" unicode="&#x131;" horiz-adv-x="534" 
d="M412 0h-289v1057h289v-1057z" />
    <glyph glyph-name="IJ" unicode="&#x132;" horiz-adv-x="1726" 
d="M436 0h-303v1458h303v-1458zM1470 86q-125 -119 -348 -119q-224 0 -346 119q-125 119 -125 332v129h287v-133q0 -185 178 -185q174 0 174 185v1044h303v-1040q0 -214 -123 -332z" />
    <glyph glyph-name="ij" unicode="&#x133;" horiz-adv-x="1069" 
d="M412 1196h-289v262h289v-262zM946 1196h-289v262h289v-262zM412 0h-289v1057h289v-1057zM668 -418h-189v254h74q58 0 82 19q22 18 22 65v1137h289v-1176q0 -161 -64 -229q-65 -70 -214 -70z" />
    <glyph glyph-name="Jcircumflex" unicode="&#x134;" horiz-adv-x="1177" 
d="M770 1591h-256l246 301h266l246 -301h-256l-123 168zM922 86q-125 -119 -349 -119t-346 119q-125 119 -125 332v129h287v-133q0 -185 178 -185q174 0 174 185v1044h303v-1040q0 -214 -122 -332z" />
    <glyph glyph-name="jcircumflex" unicode="&#x135;" horiz-adv-x="534" 
d="M135 1190h-256l246 301h266l246 -301h-256l-123 168zM133 -418h-188v254h73q58 0 82 19q23 18 23 65v1137h289v-1176q0 -159 -65 -229t-214 -70z" />
    <glyph glyph-name="uni0136" unicode="&#x136;" horiz-adv-x="1417" 
d="M1339 1458l-553 -586l621 -872h-375l-461 670l-135 -135v-535h-303v1458h303v-563l516 563h387zM772 -360h-201v237h324v-285q0 -208 -229 -208h-95v104h95q106 0 106 104v48z" />
    <glyph glyph-name="uni0137" unicode="&#x137;" horiz-adv-x="1171" 
d="M1133 1057l-412 -416l420 -641h-342l-281 459l-106 -109v-350h-289v1458h289v-801l358 400h363zM637 -360h-201v237h324v-285q0 -208 -230 -208h-94v104h94q107 0 107 104v48z" />
    <glyph glyph-name="kgreenlandic" unicode="&#x138;" horiz-adv-x="1171" 
d="M1141 0h-342l-281 459l-106 -109v-350h-289v1057h289v-400l358 400h363l-412 -416z" />
    <glyph glyph-name="Lacute" unicode="&#x139;" horiz-adv-x="1177" 
d="M227 1860h353l-256 -289h-193zM436 1458v-1188h711v-270h-1014v1458h303z" />
    <glyph glyph-name="lacute" unicode="&#x13a;" horiz-adv-x="534" 
d="M307 1571h-192l96 289h352zM412 0h-289v1458h289v-1458z" />
    <glyph glyph-name="uni013B" unicode="&#x13b;" horiz-adv-x="1177" 
d="M436 1458v-1188h711v-270h-1014v1458h303zM680 -360h-201v237h324v-285q0 -208 -230 -208h-94v104h94q107 0 107 104v48z" />
    <glyph glyph-name="uni013C" unicode="&#x13c;" horiz-adv-x="534" 
d="M123 1458h289v-1458h-289v1458zM106 -360v237h324v-285q0 -208 -229 -208h-95v104h95q106 0 106 104v48h-201z" />
    <glyph glyph-name="Lcaron" unicode="&#x13d;" horiz-adv-x="1177" 
d="M436 1458v-1188h711v-270h-1014v1458h303zM764 1458h307l-184 -446h-223z" />
    <glyph glyph-name="lcaron" unicode="&#x13e;" horiz-adv-x="980" 
d="M412 0h-289v1458h289v-1458zM797 1012h-224l101 446h307z" />
    <glyph glyph-name="Ldot" unicode="&#x13f;" horiz-adv-x="1177" 
d="M436 1458v-1188h711v-270h-1014v1458h303zM713 985h311v-307h-311v307z" />
    <glyph glyph-name="ldot" unicode="&#x140;" horiz-adv-x="864" 
d="M412 0h-289v1458h289v-1458zM831 584h-311v307h311v-307z" />
    <glyph glyph-name="Lslash" unicode="&#x141;" horiz-adv-x="1357" 
d="M616 678v-408h711v-270h-1014v535l-245 -119v256l245 108v678h303v-536l500 241v-256z" />
    <glyph glyph-name="lslash" unicode="&#x142;" horiz-adv-x="745" 
d="M520 956l162 97v-269l-162 -82v-702h-289v543l-163 -99v269l163 82v663h289v-502z" />
    <glyph glyph-name="Nacute" unicode="&#x143;" horiz-adv-x="1443" 
d="M666 1860h352l-256 -289h-193zM1008 522v936h303v-1458h-297l-578 936v-936h-303v1458h297z" />
    <glyph glyph-name="nacute" unicode="&#x144;" horiz-adv-x="1183" 
d="M543 1458h352l-256 -289h-193zM715 1083q164 0 255 -100t91 -274v-709h-289v643q0 87 -40 133q-41 47 -114 47q-92 0 -149 -70q-57 -71 -57 -188v-565h-289v1057h283l4 -144q102 170 305 170z" />
    <glyph glyph-name="uni0145" unicode="&#x145;" horiz-adv-x="1443" 
d="M1008 522v936h303v-1458h-297l-578 936v-936h-303v1458h297zM762 -360h-201v237h324v-285q0 -208 -230 -208h-94v104h94q107 0 107 104v48z" />
    <glyph glyph-name="uni0146" unicode="&#x146;" horiz-adv-x="1183" 
d="M715 1083q164 0 255 -100t91 -274v-709h-289v643q0 87 -40 133q-41 47 -114 47q-92 0 -149 -70q-57 -71 -57 -188v-565h-289v1057h283l4 -144q102 170 305 170zM631 -360h-201v237h324v-285q0 -208 -230 -208h-94v104h94q107 0 107 104v48z" />
    <glyph glyph-name="Ncaron" unicode="&#x147;" horiz-adv-x="1443" 
d="M1102 1872l-246 -301h-266l-246 301h256l123 -168l123 168h256zM1008 522v936h303v-1458h-297l-578 936v-936h-303v1458h297z" />
    <glyph glyph-name="ncaron" unicode="&#x148;" horiz-adv-x="1183" 
d="M979 1470l-246 -301h-266l-246 301h256l123 -167l123 167h256zM715 1083q164 0 255 -100t91 -274v-709h-289v643q0 87 -40 133q-41 47 -114 47q-92 0 -149 -70q-57 -71 -57 -188v-565h-289v1057h283l4 -144q102 170 305 170z" />
    <glyph glyph-name="napostrophe" unicode="&#x149;" horiz-adv-x="1685" 
d="M238 1151h-177v307h334v-366q0 -267 -293 -267h-39v131h39q136 0 136 136v59zM1217 1083q163 0 254 -100q92 -101 92 -274v-709h-289v643q0 87 -40 133q-41 47 -114 47q-92 0 -149 -70q-58 -72 -58 -188v-565h-288v1057h282l4 -144q102 170 306 170z" />
    <glyph glyph-name="Eng" unicode="&#x14a;" horiz-adv-x="1443" 
d="M1008 522v936h303v-1577q0 -159 -65 -229t-214 -70h-203v254h74q58 0 82 19q23 18 23 65v90l-572 926v-936h-303v1458h297z" />
    <glyph glyph-name="eng" unicode="&#x14b;" horiz-adv-x="1183" 
d="M715 1083q164 0 255 -100t91 -274v-828q0 -159 -65 -229t-214 -70h-188v254h74q58 0 82 19q22 18 22 65v723q0 87 -40 133q-41 47 -114 47q-92 0 -149 -70q-57 -71 -57 -188v-565h-289v1057h283l4 -144q102 170 305 170z" />
    <glyph glyph-name="Omacron" unicode="&#x14c;" horiz-adv-x="1527" 
d="M1137 1642h-744v216h744v-216zM1257 168q-201 -215 -497 -215q-297 0 -492 215q-196 212 -196 563q0 345 194 555q195 207 494 207q296 0 497 -207q199 -208 199 -555q0 -349 -199 -563zM479 356q102 -141 281 -141t287 141q106 139 106 375q0 227 -106 363
q-107 137 -287 137t-281 -137q-104 -138 -104 -363q0 -235 104 -375z" />
    <glyph glyph-name="omacron" unicode="&#x14d;" horiz-adv-x="1212" 
d="M981 1241h-743v215h743v-215zM997 125q-151 -160 -389 -160t-389 160q-151 157 -151 399q0 241 151 402q151 157 389 157t389 -157q152 -163 152 -402q0 -241 -152 -399zM418 281q73 -91 190 -91q120 0 193 91q69 89 69 243q0 156 -69 244q-72 90 -193 90
q-118 0 -190 -90t-72 -244q0 -153 72 -243z" />
    <glyph glyph-name="Obreve" unicode="&#x14e;" horiz-adv-x="1527" 
d="M1038 1659q-86 -86 -276 -86q-189 0 -273 86q-84 84 -90 246h176q6 -144 189 -144q182 0 188 144h176q-6 -162 -90 -246zM1257 168q-201 -215 -497 -215q-297 0 -492 215q-196 212 -196 563q0 345 194 555q195 207 494 207q296 0 497 -207q199 -208 199 -555
q0 -349 -199 -563zM479 356q102 -141 281 -141t287 141q106 139 106 375q0 227 -106 363q-107 137 -287 137t-281 -137q-104 -138 -104 -363q0 -235 104 -375z" />
    <glyph glyph-name="obreve" unicode="&#x14f;" horiz-adv-x="1212" 
d="M883 1257q-86 -86 -277 -86q-188 0 -272 86q-84 84 -90 246h176q6 -143 188 -143q183 0 189 143h176q-6 -162 -90 -246zM997 125q-151 -160 -389 -160t-389 160q-151 157 -151 399q0 241 151 402q151 157 389 157t389 -157q152 -163 152 -402q0 -241 -152 -399zM418 281
q73 -91 190 -91q120 0 193 91q69 89 69 243q0 156 -69 244q-72 90 -193 90q-118 0 -190 -90t-72 -244q0 -153 72 -243z" />
    <glyph glyph-name="Ohungarumlaut" unicode="&#x150;" horiz-adv-x="1527" 
d="M608 1571h-192l116 319h312zM1016 1571h-193l138 319h311zM1257 168q-201 -215 -497 -215q-297 0 -492 215q-196 212 -196 563q0 345 194 555q195 207 494 207q296 0 497 -207q199 -208 199 -555q0 -349 -199 -563zM479 356q102 -141 281 -141t287 141q106 139 106 375
q0 227 -106 363q-107 137 -287 137t-281 -137q-104 -138 -104 -363q0 -235 104 -375z" />
    <glyph glyph-name="ohungarumlaut" unicode="&#x151;" horiz-adv-x="1212" 
d="M453 1169h-193l117 320h311zM860 1169h-192l137 320h311zM997 125q-151 -160 -389 -160t-389 160q-151 157 -151 399q0 241 151 402q151 157 389 157t389 -157q152 -163 152 -402q0 -241 -152 -399zM418 281q73 -91 190 -91q120 0 193 91q69 89 69 243q0 156 -69 244
q-72 90 -193 90q-118 0 -190 -90t-72 -244q0 -153 72 -243z" />
    <glyph glyph-name="OE" unicode="&#x152;" horiz-adv-x="2316" 
d="M1456 627v-371h778v-256h-1081v135q-153 -170 -410 -170q-284 0 -479 209q-192 207 -192 555q0 343 192 549q191 203 479 203q257 0 410 -164v141h1061v-256h-758v-315h682v-260h-682zM768 217q181 0 283 136q102 137 102 376q0 236 -102 368t-283 132q-183 0 -288 -136
q-105 -137 -105 -364q0 -236 105 -374t288 -138z" />
    <glyph glyph-name="oe" unicode="&#x153;" horiz-adv-x="1996" 
d="M1933 492v-50h-766q7 -118 74 -186q66 -68 174 -68q153 0 205 138l287 -21q-52 -167 -178 -255q-125 -87 -308 -87q-258 0 -411 174q-157 -172 -402 -172q-238 0 -389 160q-151 157 -151 399q0 241 151 402q151 157 389 157q244 0 396 -165q143 165 387 165
q239 0 391 -159q151 -161 151 -432zM1401 872q-101 0 -163 -62t-73 -171h469q-12 111 -73 172t-160 61zM418 281q73 -91 190 -91q120 0 193 91q69 89 69 243q0 156 -69 244q-72 90 -193 90q-118 0 -190 -90t-72 -244q0 -153 72 -243z" />
    <glyph glyph-name="Racute" unicode="&#x154;" horiz-adv-x="1386" 
d="M633 1860h352l-256 -289h-192zM995 700q111 -23 156 -80q46 -58 61 -157l60 -463h-311l-35 375q-10 99 -61 145q-49 45 -160 45h-269v-565h-303v1458h680q241 0 352 -112q109 -115 109 -289q0 -283 -279 -357zM436 1204v-393h291q124 0 187 54t63 151q0 89 -52 138
q-53 50 -157 50h-332z" />
    <glyph glyph-name="racute" unicode="&#x155;" horiz-adv-x="774" 
d="M373 1458h352l-256 -289h-193zM641 1094q51 0 92 -15v-264q-47 4 -59 4q-262 0 -262 -305v-514h-289v1057h283l-5 -142q69 179 240 179z" />
    <glyph glyph-name="uni0156" unicode="&#x156;" horiz-adv-x="1386" 
d="M995 700q111 -23 156 -80q46 -58 61 -157l60 -463h-311l-35 375q-10 99 -61 145q-49 45 -160 45h-269v-565h-303v1458h680q241 0 352 -112q109 -115 109 -289q0 -283 -279 -357zM436 1204v-393h291q124 0 187 54t63 151q0 89 -52 138q-53 50 -157 50h-332zM737 -360h-200
v237h323v-285q0 -208 -229 -208h-94v104h94q106 0 106 104v48z" />
    <glyph glyph-name="uni0157" unicode="&#x157;" horiz-adv-x="774" 
d="M641 1094q51 0 92 -15v-264q-47 4 -59 4q-262 0 -262 -305v-514h-289v1057h283l-5 -142q69 179 240 179zM307 -360h-201v237h324v-285q0 -208 -229 -208h-95v104h95q106 0 106 104v48z" />
    <glyph glyph-name="Rcaron" unicode="&#x158;" horiz-adv-x="1386" 
d="M1069 1872l-246 -301h-266l-246 301h256l123 -168l123 168h256zM995 700q111 -23 156 -80q46 -58 61 -157l60 -463h-311l-35 375q-10 99 -61 145q-49 45 -160 45h-269v-565h-303v1458h680q241 0 352 -112q109 -115 109 -289q0 -283 -279 -357zM436 1204v-393h291
q124 0 187 54t63 151q0 89 -52 138q-53 50 -157 50h-332z" />
    <glyph glyph-name="rcaron" unicode="&#x159;" horiz-adv-x="774" 
d="M809 1470l-246 -301h-266l-246 301h256l123 -167l123 167h256zM406 1057l-5 -142q69 179 240 179q51 0 92 -15v-264q-47 4 -59 4q-262 0 -262 -305v-514h-289v1057h283z" />
    <glyph glyph-name="Sacute" unicode="&#x15a;" horiz-adv-x="1357" 
d="M713 1571h-193l96 289h353zM698 -47q-283 0 -447 133q-165 134 -171 367h297q6 -121 90 -187q83 -65 229 -65q125 0 197 48t72 134q0 72 -52 110t-172 68l-268 68q-174 44 -265 147q-93 105 -93 258q0 190 141 324q139 133 403 133t422 -131q157 -133 172 -348h-295
q-15 109 -94 170t-202 61q-112 0 -177 -49t-65 -127q0 -120 170 -164l291 -72q397 -96 397 -419q0 -213 -155 -336t-425 -123z" />
    <glyph glyph-name="sacute" unicode="&#x15b;" horiz-adv-x="1105" 
d="M600 1169h-192l96 289h352zM907 55q-124 -94 -342 -94q-217 0 -336 92q-120 91 -143 262l264 11q29 -164 225 -164q87 0 140 31q51 30 51 86q0 78 -139 106l-209 41q-307 61 -307 309q0 160 116 254t314 94q191 0 313 -91t143 -247l-260 -10q-11 71 -64 109
q-54 39 -136 39q-70 0 -115 -31q-43 -30 -43 -82q0 -79 119 -106l227 -48q157 -33 233 -106t76 -197q0 -167 -127 -258z" />
    <glyph glyph-name="Scircumflex" unicode="&#x15c;" horiz-adv-x="1357" 
d="M551 1591h-256l246 301h266l246 -301h-256l-123 168zM698 -47q-283 0 -447 133q-165 134 -171 367h297q6 -121 90 -187q83 -65 229 -65q125 0 197 48t72 134q0 72 -52 110t-172 68l-268 68q-174 44 -265 147q-93 105 -93 258q0 190 141 324q139 133 403 133t422 -131
q157 -133 172 -348h-295q-15 109 -94 170t-202 61q-112 0 -177 -49t-65 -127q0 -120 170 -164l291 -72q397 -96 397 -419q0 -213 -155 -336t-425 -123z" />
    <glyph glyph-name="scircumflex" unicode="&#x15d;" horiz-adv-x="1105" 
d="M438 1190h-256l246 301h266l246 -301h-256l-123 168zM907 55q-124 -94 -342 -94q-217 0 -336 92q-120 91 -143 262l264 11q29 -164 225 -164q87 0 140 31q51 30 51 86q0 78 -139 106l-209 41q-307 61 -307 309q0 160 116 254t314 94q191 0 313 -91t143 -247l-260 -10
q-11 71 -64 109q-54 39 -136 39q-70 0 -115 -31q-43 -30 -43 -82q0 -79 119 -106l227 -48q157 -33 233 -106t76 -197q0 -167 -127 -258z" />
    <glyph glyph-name="Scedilla" unicode="&#x15e;" horiz-adv-x="1357" 
d="M1278 412q0 -200 -136 -321t-376 -136l-64 -94h23q94 0 149 -48q56 -48 56 -132q0 -103 -78 -160q-79 -58 -213 -58h-100v131h71q92 0 92 62q0 53 -57 53h-45l-76 107l88 141q-245 21 -386 151q-140 130 -146 345h297q6 -121 90 -187q83 -65 229 -65q125 0 197 48t72 134
q0 72 -52 110t-172 68l-268 68q-174 44 -265 147q-93 105 -93 258q0 190 141 324q139 133 403 133t422 -131q157 -133 172 -348h-295q-15 109 -94 170t-202 61q-112 0 -177 -49t-65 -127q0 -120 170 -164l291 -72q397 -96 397 -419z" />
    <glyph glyph-name="scedilla" unicode="&#x15f;" horiz-adv-x="1105" 
d="M1034 313q0 -151 -105 -242t-294 -108l-66 -96h23q94 0 149 -48q56 -48 56 -132q0 -103 -78 -160t-213 -57h-100v131h71q92 0 92 61q0 53 -57 53h-45l-76 107l90 143q-355 33 -395 350l264 11q29 -164 225 -164q87 0 140 31q51 30 51 86q0 78 -139 106l-209 41
q-307 61 -307 309q0 160 116 254t314 94q191 0 313 -91t143 -247l-260 -10q-11 71 -64 109q-54 39 -136 39q-70 0 -115 -31q-43 -30 -43 -82q0 -79 119 -106l227 -48q157 -33 233 -106t76 -197z" />
    <glyph glyph-name="Scaron" unicode="&#x160;" horiz-adv-x="1357" 
d="M807 1571h-266l-246 301h256l123 -168l123 168h256zM698 -47q-283 0 -447 133q-165 134 -171 367h297q6 -121 90 -187q83 -65 229 -65q125 0 197 48t72 134q0 72 -52 110t-172 68l-268 68q-174 44 -265 147q-93 105 -93 258q0 190 141 324q139 133 403 133t422 -131
q157 -133 172 -348h-295q-15 109 -94 170t-202 61q-112 0 -177 -49t-65 -127q0 -120 170 -164l291 -72q397 -96 397 -419q0 -213 -155 -336t-425 -123z" />
    <glyph glyph-name="scaron" unicode="&#x161;" horiz-adv-x="1105" 
d="M694 1169h-266l-246 301h256l123 -167l123 167h256zM907 55q-124 -94 -342 -94q-217 0 -336 92q-120 91 -143 262l264 11q29 -164 225 -164q87 0 140 31q51 30 51 86q0 78 -139 106l-209 41q-307 61 -307 309q0 160 116 254t314 94q191 0 313 -91t143 -247l-260 -10
q-11 71 -64 109q-54 39 -136 39q-70 0 -115 -31q-43 -30 -43 -82q0 -79 119 -106l227 -48q157 -33 233 -106t76 -197q0 -167 -127 -258z" />
    <glyph glyph-name="uni0162" unicode="&#x162;" horiz-adv-x="1259" 
d="M782 1188v-1188h-69l-78 -117h22q95 0 150 -48t55 -132q0 -103 -78 -160t-213 -57h-100v131h72q92 0 92 61q0 54 -57 54h-46l-75 106l102 162h-80v1188h-438v270h1178v-270h-437z" />
    <glyph glyph-name="uni0163" unicode="&#x163;" horiz-adv-x="700" 
d="M659 844l-196 6v-518q0 -54 23 -77q24 -24 77 -24h96v-231h-188h-2l-63 -96h22q94 0 150 -48q55 -48 55 -132q0 -103 -78 -160q-79 -58 -213 -58h-100v132h71q93 0 93 61q0 53 -58 53h-45l-76 107l101 159q-154 50 -154 279v553l-143 -6v213l143 -4v329h289v-331l196 6
v-213z" />
    <glyph glyph-name="Tcaron" unicode="&#x164;" horiz-adv-x="1259" 
d="M1010 1872l-246 -301h-266l-246 301h256l123 -168l123 168h256zM41 1458h1178v-270h-437v-1188h-303v1188h-438v270z" />
    <glyph glyph-name="tcaron" unicode="&#x165;" horiz-adv-x="804" 
d="M571 1167l101 447h307l-184 -447h-224zM463 1382v-331l196 6v-213l-196 6v-518q0 -54 23 -77q24 -24 77 -24h96v-231h-188q-159 0 -228 69t-69 228v553l-143 -6v213l143 -4v329h289z" />
    <glyph glyph-name="Tbar" unicode="&#x166;" horiz-adv-x="1259" 
d="M1219 1458v-270h-437v-369l392 8v-270l-392 8v-565h-303v565l-391 -8v270l391 -8v369h-438v270h1178z" />
    <glyph glyph-name="tbar" unicode="&#x167;" horiz-adv-x="710" 
d="M670 1057v-213l-217 6v-203l217 6v-213l-205 6l8 -77v-37q0 -53 24 -77t76 -24h97v-231h-189q-159 0 -228 69t-69 228v72l4 77l-147 -6v213l154 -6v203l-154 -6v213l149 -6l-6 108v223h289v-223l-10 -108z" />
    <glyph glyph-name="Utilde" unicode="&#x168;" horiz-adv-x="1398" 
d="M487 1602h-221q0 364 262 364q81 0 172 -53q89 -55 127 -55q86 0 86 108h222q0 -364 -263 -364q-82 0 -170 55q-91 53 -129 53q-86 0 -86 -108zM1116 82q-150 -129 -418 -129t-415 129q-150 129 -150 367v1009h303v-1014q0 -229 264 -229q263 0 263 229v1014h303v-1009
q0 -238 -150 -367z" />
    <glyph glyph-name="utilde" unicode="&#x169;" horiz-adv-x="1183" 
d="M465 1309q-86 0 -86 -109h-221q0 365 262 365q77 0 170 -54q89 -55 129 -55q86 0 86 109h221q0 -365 -262 -365q-81 0 -170 55q-93 54 -129 54zM772 492v565h289v-1057h-283l-4 143q-102 -170 -305 -170q-163 0 -255 101q-91 100 -91 274v709h289v-643q0 -87 40 -133
q42 -48 113 -48q93 0 150 71q57 70 57 188z" />
    <glyph glyph-name="Umacron" unicode="&#x16a;" horiz-adv-x="1398" 
d="M1073 1642h-743v216h743v-216zM1116 82q-150 -129 -418 -129t-415 129q-150 129 -150 367v1009h303v-1014q0 -229 264 -229q263 0 263 229v1014h303v-1009q0 -238 -150 -367z" />
    <glyph glyph-name="umacron" unicode="&#x16b;" horiz-adv-x="1183" 
d="M221 1456h744v-215h-744v215zM772 492v565h289v-1057h-283l-4 143q-102 -170 -305 -170q-163 0 -255 101q-91 100 -91 274v709h289v-643q0 -87 40 -133q42 -48 113 -48q93 0 150 71q57 70 57 188z" />
    <glyph glyph-name="Ubreve" unicode="&#x16c;" horiz-adv-x="1398" 
d="M975 1659q-86 -86 -277 -86q-189 0 -272 86q-84 84 -90 246h176q6 -144 188 -144q183 0 189 144h176q-6 -162 -90 -246zM1116 82q-150 -129 -418 -129t-415 129q-150 129 -150 367v1009h303v-1014q0 -229 264 -229q263 0 263 229v1014h303v-1009q0 -238 -150 -367z" />
    <glyph glyph-name="ubreve" unicode="&#x16d;" horiz-adv-x="1183" 
d="M866 1257q-86 -86 -276 -86q-189 0 -273 86q-84 84 -90 246h176q6 -143 189 -143q182 0 188 143h176q-6 -162 -90 -246zM772 492v565h289v-1057h-283l-4 143q-102 -170 -305 -170q-163 0 -255 101q-91 100 -91 274v709h289v-643q0 -87 40 -133q42 -48 113 -48
q93 0 150 71q57 70 57 188z" />
    <glyph glyph-name="Uring" unicode="&#x16e;" horiz-adv-x="1398" 
d="M918 1657q-86 -86 -218 -86q-131 0 -217 86q-86 84 -86 215t86 217t217 86q132 0 218 -86t86 -217t-86 -215zM598 1767q38 -38 103 -38q66 0 104 38q39 39 39 105t-39 106q-39 41 -103 41q-63 0 -104 -41t-41 -106q0 -66 41 -105zM1116 82q-150 -129 -418 -129t-415 129
q-150 129 -150 367v1009h303v-1014q0 -229 264 -229q263 0 263 229v1014h303v-1009q0 -238 -150 -367z" />
    <glyph glyph-name="uring" unicode="&#x16f;" horiz-adv-x="1183" 
d="M809 1255q-86 -86 -217 -86t-217 86q-86 84 -86 215q0 132 86 218t217 86t217 -86t86 -218q0 -131 -86 -215zM696 1577q-41 41 -104 41q-64 0 -103 -41q-38 -39 -38 -107q0 -66 38 -104q41 -39 104 -39t103 39q41 39 41 104q0 66 -41 107zM772 492v565h289v-1057h-283
l-4 143q-102 -170 -305 -170q-163 0 -255 101q-91 100 -91 274v709h289v-643q0 -87 40 -133q42 -48 113 -48q93 0 150 71q57 70 57 188z" />
    <glyph glyph-name="Uhungarumlaut" unicode="&#x170;" horiz-adv-x="1398" 
d="M545 1571h-193l117 319h311zM952 1571h-192l137 319h311zM1116 82q-150 -129 -418 -129t-415 129q-150 129 -150 367v1009h303v-1014q0 -229 264 -229q263 0 263 229v1014h303v-1009q0 -238 -150 -367z" />
    <glyph glyph-name="uhungarumlaut" unicode="&#x171;" horiz-adv-x="1183" 
d="M360 1489h312l-236 -320h-192zM1100 1489l-256 -320h-193l137 320h312zM772 492v565h289v-1057h-283l-4 143q-102 -170 -305 -170q-163 0 -255 101q-91 100 -91 274v709h289v-643q0 -87 40 -133q42 -48 113 -48q93 0 150 71q57 70 57 188z" />
    <glyph glyph-name="Uogonek" unicode="&#x172;" horiz-adv-x="1398" 
d="M963 444v1014h303v-1009q0 -196 -104 -321q-103 -123 -294 -161l-98 -82q-70 -58 -70 -108q0 -76 103 -76h74v-178h-170q-265 0 -265 190q0 67 39 123q38 55 135 121q-234 18 -358 145q-125 128 -125 347v1009h303v-1014q0 -229 264 -229q263 0 263 229z" />
    <glyph glyph-name="uogonek" unicode="&#x173;" horiz-adv-x="1183" 
d="M1061 0l-107 -90q-69 -57 -69 -109q0 -75 102 -75h74v-179h-170q-264 0 -264 191q0 67 41 123q41 57 141 125l-33 164q-103 -177 -305 -177q-154 0 -254 103q-94 100 -94 299v682h289v-629q0 -100 41 -147q45 -48 112 -48q93 0 150 71q57 70 57 188v565h289v-1057z" />
    <glyph glyph-name="Wcircumflex" unicode="&#x174;" horiz-adv-x="1988" 
d="M1122 1591l-123 168l-122 -168h-256l245 301h267l245 -301h-256zM1438 729l188 729h311l-426 -1458h-290l-224 995l-225 -995h-295l-426 1458h322l188 -729l70 -293l59 293l160 729h299l160 -729l59 -293z" />
    <glyph glyph-name="wcircumflex" unicode="&#x175;" horiz-adv-x="1591" 
d="M920 1190l-123 168l-123 -168h-256l246 301h266l246 -301h-256zM1141 588l116 469h304l-314 -1057h-274l-152 588l-24 139l-27 -139l-152 -588h-274l-313 1057h303l117 -469l49 -266l49 266l119 469h256l118 -465l50 -270z" />
    <glyph glyph-name="Ycircumflex" unicode="&#x176;" horiz-adv-x="1343" 
d="M795 1591l-123 168l-123 -168h-256l246 301h266l246 -301h-256zM756 1006l225 452h326l-484 -893v-565h-303v565l-483 893h334l221 -452l80 -203z" />
    <glyph glyph-name="ycircumflex" unicode="&#x177;" horiz-adv-x="1138" 
d="M698 1190l-123 168l-122 -168h-256l245 301h267l245 -301h-256zM575 309l226 748h307l-422 -1245q-44 -132 -112 -181t-189 -49h-242v246h140q116 0 149 90l10 29l-411 1110h317l195 -594z" />
    <glyph glyph-name="Ydieresis" unicode="&#x178;" horiz-adv-x="1343" 
d="M311 1860h289v-263h-289v263zM743 1860h289v-263h-289v263zM756 1006l225 452h326l-484 -893v-565h-303v565l-483 893h334l221 -452l80 -203z" />
    <glyph glyph-name="Zacute" unicode="&#x179;" horiz-adv-x="1394" 
d="M641 1860h352l-256 -289h-192zM145 1458h1155v-235l-804 -965h804v-258h-1206v236l805 964h-754v258z" />
    <glyph glyph-name="zacute" unicode="&#x17a;" horiz-adv-x="993" 
d="M461 1458h352l-256 -289h-192zM932 821l-526 -583h546v-238h-911v231l543 588h-478v238h826v-236z" />
    <glyph glyph-name="Zdotaccent" unicode="&#x17b;" horiz-adv-x="1394" 
d="M553 1860h289v-263h-289v263zM145 1458h1155v-235l-804 -965h804v-258h-1206v236l805 964h-754v258z" />
    <glyph glyph-name="zdotaccent" unicode="&#x17c;" horiz-adv-x="993" 
d="M373 1458h289v-262h-289v262zM932 821l-526 -583h546v-238h-911v231l543 588h-478v238h826v-236z" />
    <glyph glyph-name="Zcaron" unicode="&#x17d;" horiz-adv-x="1394" 
d="M1077 1872l-246 -301h-266l-246 301h256l123 -168l123 168h256zM145 1458h1155v-235l-804 -965h804v-258h-1206v236l805 964h-754v258z" />
    <glyph glyph-name="zcaron" unicode="&#x17e;" horiz-adv-x="993" 
d="M897 1470l-246 -301h-266l-246 301h256l123 -167l123 167h256zM932 821l-526 -583h546v-238h-911v231l543 588h-478v238h826v-236z" />
    <glyph glyph-name="uni018F" unicode="&#x18f;" horiz-adv-x="1527" 
d="M748 1491q324 0 516 -205t192 -557q0 -346 -192 -559q-192 -217 -512 -217q-312 0 -496 207q-184 206 -184 569q0 38 2 62h1077q-12 210 -117 324t-289 114q-105 0 -187 -41q-80 -40 -120 -115h-329q67 196 237 307t402 111zM756 215q144 0 242 83q97 82 135 239h-740
q21 -154 116 -238q94 -84 247 -84z" />
    <glyph glyph-name="florin" unicode="&#x192;" 
d="M1083 1458h152l-49 -252h-80q-119 0 -143 -121l-37 -196l180 6l-41 -213l-178 6l-133 -688q-33 -164 -137 -251q-103 -87 -267 -87h-151l49 252h80q119 0 143 121l125 653l-180 -6l41 213l178 -6l45 231q33 165 136 251q104 87 267 87z" />
    <glyph glyph-name="uni01F4" unicode="&#x1f4;" horiz-adv-x="1519" 
d="M702 1860h353l-256 -289h-193zM778 788h608v-788h-196l-47 158q-128 -191 -408 -191q-284 0 -473 209q-190 205 -190 553q0 347 192 553q190 207 488 207q263 0 426 -128q160 -126 198 -364l-297 -18q-22 118 -102 184q-79 66 -209 66q-184 0 -289 -135
q-104 -134 -104 -365q0 -237 104 -375q105 -139 289 -139q141 0 238 83q95 82 118 237h-346v253z" />
    <glyph glyph-name="uni01F5" unicode="&#x1f5;" horiz-adv-x="1218" 
d="M510 1458h352l-256 -289h-192zM829 926l11 131h256v-1069q0 -208 -132 -319t-372 -111q-220 0 -345 92t-141 264h267q24 -141 213 -141q119 0 170 52q51 53 51 159v145q-107 -129 -287 -129q-200 0 -325 154q-127 151 -127 395q0 246 127 391q124 143 325 143
q204 0 309 -157zM584 246q105 0 171 84t66 219t-66 219t-171 84q-106 0 -172 -82t-66 -221t66 -221t172 -82z" />
    <glyph glyph-name="Aringacute" unicode="&#x1fa;" horiz-adv-x="1472" 
d="M696 2271h353l-254 -289h-193zM1421 0h-323l-99 303h-528l-98 -303h-322l490 1384q-88 82 -88 220q0 131 86 217t217 86t217 -86t86 -217q0 -154 -111 -238zM860 1710q-40 39 -104 39t-103 -39t-39 -105q0 -67 39 -106q41 -39 104 -39t103 39q41 39 41 106q0 66 -41 105z
M612 733l-59 -180h367l-60 180l-123 420z" />
    <glyph glyph-name="aringacute" unicode="&#x1fb;" horiz-adv-x="1140" 
d="M506 2134h352l-256 -289h-192zM780 1247q-86 -86 -217 -86t-217 86q-86 84 -86 215t86 217t217 86t217 -86t86 -217t-86 -215zM668 1569q-41 41 -105 41q-63 0 -102 -41t-39 -107q0 -65 39 -104t102 -39q65 0 105 39q41 39 41 104q0 66 -41 107zM1059 0h-293
q-23 104 -23 106q-113 -137 -325 -137q-166 0 -266 88q-101 89 -101 234q0 256 322 319l368 74v78q0 115 -178 115q-88 0 -133 -33q-44 -33 -55 -107l-264 4q27 340 450 340q457 0 457 -393v-467q0 -148 41 -221zM500 182q108 0 175 65q66 65 66 175v78l-270 -58
q-137 -27 -137 -133q0 -57 44 -92t122 -35z" />
    <glyph glyph-name="AEacute" unicode="&#x1fc;" horiz-adv-x="2332" 
d="M1305 1860h352l-256 -289h-193zM1473 627v-371h778v-256h-1082v367h-561l-221 -367h-336l879 1458h1300v-256h-757v-315h681v-260h-681zM1106 1196l-344 -573h407v573h-63z" />
    <glyph glyph-name="aeacute" unicode="&#x1fd;" horiz-adv-x="1867" 
d="M877 1458h352l-256 -289h-193zM1804 492v-52h-766q11 -120 76 -185q67 -67 172 -67q147 0 203 131l283 -32q-114 -324 -480 -324q-300 0 -428 221q-128 -215 -413 -215q-188 0 -294 89t-106 241q0 143 97 230q98 87 286 87h307v105q0 156 -186 156q-83 0 -127 -33
q-42 -32 -53 -107l-264 4q30 340 434 340q276 0 375 -153q136 155 380 155q240 0 372 -156t132 -435zM1434 807q-61 65 -162 65q-99 0 -164 -65q-61 -66 -72 -191h469q-7 124 -71 191zM500 182q108 0 175 65q66 65 66 175v20h-235q-87 0 -129 -35q-43 -36 -43 -96
q0 -59 44 -94t122 -35z" />
    <glyph glyph-name="Oslashacute" unicode="&#x1fe;" horiz-adv-x="1527" 
d="M707 1860h352l-256 -289h-193zM1405 1413l-119 -160q170 -208 170 -522q0 -349 -199 -563q-201 -215 -497 -215q-210 0 -367 106l-119 -157l-151 108l129 174q-180 212 -180 547q0 345 194 555q195 207 494 207q216 0 387 -115l106 144zM375 731q0 -181 61 -303l545 729
q-92 74 -221 74q-180 0 -281 -137q-104 -138 -104 -363zM760 215q179 0 287 141q106 139 106 375q0 151 -53 275l-543 -727q85 -64 203 -64z" />
    <glyph glyph-name="oslashacute" unicode="&#x1ff;" horiz-adv-x="1212" 
d="M551 1458h352l-256 -289h-192zM1120 983l-88 -100q117 -152 117 -359q0 -241 -152 -399q-151 -160 -389 -160q-166 0 -299 84l-84 -96l-127 110l88 101q-118 149 -118 360q0 241 151 402q151 157 389 157q170 0 301 -86l84 97zM346 524q0 -75 23 -149l383 440
q-61 43 -144 43q-121 0 -191 -90q-71 -91 -71 -244zM608 190q121 0 192 91q70 89 70 243q0 84 -20 148l-381 -441q61 -41 139 -41z" />
    <glyph glyph-name="uni0218" unicode="&#x218;" horiz-adv-x="1357" 
d="M590 903l291 -72q397 -96 397 -419q0 -213 -155 -336t-425 -123q-283 0 -447 133q-165 134 -171 367h297q6 -121 90 -187q83 -65 229 -65q125 0 197 48t72 134q0 72 -52 110t-172 68l-268 68q-174 44 -265 147q-93 105 -93 258q0 190 141 324q139 133 403 133t422 -131
q157 -133 172 -348h-295q-15 109 -94 170t-202 61q-112 0 -177 -49t-65 -127q0 -120 170 -164zM737 -383h-200v238h323v-285q0 -209 -229 -209h-94v104h94q106 0 106 105v47z" />
    <glyph glyph-name="uni0219" unicode="&#x219;" horiz-adv-x="1105" 
d="M498 664l227 -48q157 -33 233 -106t76 -197q0 -163 -126 -258q-125 -94 -343 -94q-214 0 -336 91t-143 263l264 11q29 -164 225 -164q87 0 140 31q51 30 51 86q0 78 -139 106l-209 41q-307 61 -307 309q0 160 116 254t314 94q191 0 313 -91t143 -247l-260 -10
q-11 71 -64 109q-54 39 -136 39q-70 0 -115 -31q-43 -30 -43 -82q0 -79 119 -106zM604 -377h-201v238h324v-285q0 -209 -229 -209h-95v105h95q106 0 106 104v47z" />
    <glyph glyph-name="uni021A" unicode="&#x21a;" horiz-adv-x="1259" 
d="M41 1458h1178v-270h-437v-1188h-303v1188h-438v270zM670 -360h-201v237h324v-285q0 -208 -230 -208h-94v104h94q107 0 107 104v48z" />
    <glyph glyph-name="uni021B" unicode="&#x21b;" horiz-adv-x="700" 
d="M659 844l-196 6v-518q0 -54 23 -77q24 -24 77 -24h96v-231h-188q-159 0 -228 69t-69 228v553l-143 -6v213l143 -4v329h289v-331l196 6v-213zM369 -360h-201v237h324v-285q0 -208 -230 -208h-94v104h94q107 0 107 104v48z" />
    <glyph glyph-name="uni0237" unicode="&#x237;" horiz-adv-x="534" 
d="M133 -418h-188v254h73q58 0 82 19q23 18 23 65v1137h289v-1176q0 -159 -65 -229t-214 -70z" />
    <glyph glyph-name="uni0259" unicode="&#x259;" horiz-adv-x="1193" 
d="M575 1094q256 0 404 -160q147 -159 147 -410q0 -237 -141 -393q-141 -158 -379 -158q-240 0 -391 160q-152 163 -152 432v49h766q-8 120 -73 187q-66 67 -174 67q-154 0 -205 -137l-287 21q52 167 178 255q124 87 307 87zM596 184q100 0 163 63q61 61 72 171h-469
q12 -110 74 -172t160 -62z" />
    <glyph glyph-name="h.sups" unicode="&#x2b0;" horiz-adv-x="985" 
d="M590 1483q128 0 201 -64q71 -62 71 -184v-473h-237v426q0 112 -117 112q-67 0 -107 -37q-41 -38 -41 -118v-383h-237v962h237v-333q86 92 230 92z" />
    <glyph glyph-name="r.sups" unicode="&#x2b3;" horiz-adv-x="694" 
d="M588 1479h65v-228h-73q-120 0 -169 -43q-51 -45 -51 -145v-301h-237v696h207l18 -141q37 94 88 128q50 34 152 34z" />
    <glyph glyph-name="circumflex" unicode="&#x2c6;" horiz-adv-x="1024" 
d="M389 1190h-256l246 301h266l246 -301h-256l-123 168z" />
    <glyph glyph-name="caron" unicode="&#x2c7;" horiz-adv-x="1024" 
d="M645 1169h-266l-246 301h256l123 -167l123 167h256z" />
    <glyph glyph-name="uni02C9" unicode="&#x2c9;" horiz-adv-x="1024" 
d="M885 1241h-744v215h744v-215z" />
    <glyph glyph-name="breve" unicode="&#x2d8;" horiz-adv-x="1024" 
d="M786 1257q-86 -86 -276 -86q-188 0 -272 86q-85 85 -91 246h177q6 -143 188 -143t188 143h177q-6 -161 -91 -246z" />
    <glyph glyph-name="dotaccent" unicode="&#x2d9;" horiz-adv-x="1024" 
d="M657 1196h-288v262h288v-262z" />
    <glyph glyph-name="ring" unicode="&#x2da;" horiz-adv-x="1024" 
d="M729 1255q-86 -86 -217 -86t-217 86q-86 84 -86 215q0 132 86 218t217 86t217 -86t86 -218q0 -131 -86 -215zM410 1366q40 -39 104 -39q63 0 102 39t39 104q0 66 -39 107t-102 41t-104 -41t-41 -107q0 -65 41 -104z" />
    <glyph glyph-name="ogonek" unicode="&#x2db;" horiz-adv-x="1024" 
d="M707 -453h-170q-265 0 -265 191q0 69 42 126t147 126l59 41l187 -31l-107 -90q-70 -58 -70 -109q0 -75 103 -75h74v-179z" />
    <glyph glyph-name="tilde" unicode="&#x2dc;" horiz-adv-x="1024" 
d="M297 1282h-221q0 365 262 365q77 0 170 -54q89 -55 129 -55q86 0 86 109h221q0 -365 -262 -365q-81 0 -170 55q-93 54 -129 54q-86 0 -86 -109z" />
    <glyph glyph-name="hungarumlaut" unicode="&#x2dd;" horiz-adv-x="1024" 
d="M276 1169h-192l117 320h311zM684 1169h-192l137 320h311z" />
    <glyph glyph-name="s.sups" unicode="&#x2e2;" horiz-adv-x="847" 
d="M432 741q-319 0 -364 224l233 20q24 -78 143 -78q136 0 136 68q0 51 -86 59l-152 13q-123 11 -188 65q-66 56 -66 148q0 105 87 165t247 60q291 0 340 -205l-221 -14q-16 65 -123 65q-117 0 -117 -57q0 -45 66 -51l151 -13q266 -21 266 -219q0 -117 -93 -183
q-94 -67 -259 -67z" />
    <glyph glyph-name="gravecomb" unicode="&#x300;" horiz-adv-x="0" 
d="M156 1169h-193l-256 289h352z" />
    <glyph glyph-name="acutecomb" unicode="&#x301;" horiz-adv-x="0" 
d="M39 1169h-193l97 289h352z" />
    <glyph glyph-name="uni0302" unicode="&#x302;" horiz-adv-x="0" 
d="M-123 1190h-256l246 301h266l246 -301h-256l-123 168z" />
    <glyph glyph-name="tildecomb" unicode="&#x303;" horiz-adv-x="0" 
d="M-213 1282h-221q0 365 262 365q79 0 172 -54q89 -55 127 -55q86 0 86 109h221q0 -365 -262 -365q-82 0 -170 55q-93 54 -129 54q-86 0 -86 -109z" />
    <glyph glyph-name="uni0304" unicode="&#x304;" horiz-adv-x="0" 
d="M373 1241h-744v215h744v-215z" />
    <glyph glyph-name="uni0306" unicode="&#x306;" horiz-adv-x="0" 
d="M274 1257q-86 -86 -276 -86t-274 86q-83 83 -89 246h177q6 -143 188 -143t188 143h177q-6 -161 -91 -246z" />
    <glyph glyph-name="uni0307" unicode="&#x307;" horiz-adv-x="0" 
d="M143 1196h-288v262h288v-262z" />
    <glyph glyph-name="uni0308" unicode="&#x308;" horiz-adv-x="0" 
d="M-72 1196h-288v262h288v-262zM360 1196h-288v262h288v-262z" />
    <glyph glyph-name="uni030A" unicode="&#x30a;" horiz-adv-x="0" 
d="M217 1255q-86 -86 -217 -86t-217 86q-86 84 -86 215q0 132 86 218t217 86t217 -86t86 -218q0 -131 -86 -215zM-104 1366q39 -39 104 -39t104 39t39 104q0 66 -39 107t-104 41t-104 -41t-39 -107q0 -65 39 -104z" />
    <glyph glyph-name="uni030B" unicode="&#x30b;" horiz-adv-x="0" 
d="M-156 1169h-192l117 320h311zM252 1169h-193l138 320h311z" />
    <glyph glyph-name="uni030C" unicode="&#x30c;" horiz-adv-x="0" 
d="M133 1169h-266l-246 301h256l123 -167l123 167h256z" />
    <glyph glyph-name="uni0312" unicode="&#x312;" horiz-adv-x="0" 
d="M162 1511h-94q-105 0 -105 -104v-18l199 18v-211h-322v211q0 209 228 209h94v-105z" />
    <glyph glyph-name="uni0313" unicode="&#x313;" horiz-adv-x="0" 
d="M-160 1405v211h322v-211q0 -209 -228 -209h-94v104h94q105 0 105 105v18z" />
    <glyph glyph-name="dotbelowcomb" unicode="&#x323;" horiz-adv-x="0" 
d="M143 -401h-288v262h288v-262z" />
    <glyph glyph-name="uni0324" unicode="&#x324;" horiz-adv-x="0" 
d="M-72 -401h-288v262h288v-262zM360 -401h-288v262h288v-262z" />
    <glyph glyph-name="uni0325" unicode="&#x325;" horiz-adv-x="0" 
d="M217 -631q-86 -86 -217 -86t-217 86t-86 217t86 215q86 86 217 86t217 -86q86 -84 86 -215t-86 -217zM-104 -520q39 -41 104 -41t104 41t39 106q0 66 -39 105t-104 39t-104 -39t-39 -105t39 -106z" />
    <glyph glyph-name="uni0326" unicode="&#x326;" horiz-adv-x="0" 
d="M-162 -360v237h324v-285q0 -208 -230 -208h-94v104h94q107 0 107 104v48h-201z" />
    <glyph glyph-name="uni0327" unicode="&#x327;" horiz-adv-x="0" 
d="M-59 -514h-101v131h72q92 0 92 61q0 54 -57 54h-45l-76 106l102 162h154l-78 -117h23q93 0 149 -48q55 -48 55 -132q0 -104 -77 -160q-78 -57 -213 -57z" />
    <glyph glyph-name="uni0328" unicode="&#x328;" horiz-adv-x="0" 
d="M-434 -453h-170q-264 0 -264 191q0 69 42 126q43 58 146 126l59 41l187 -31l-107 -90q-69 -57 -69 -109q0 -75 102 -75h74v-179z" />
    <glyph glyph-name="uni032E" unicode="&#x32e;" horiz-adv-x="0" 
d="M274 -362q-88 -84 -276 -84q-190 0 -274 84q-83 85 -89 247h177q6 -143 188 -143t188 143h177q-6 -157 -91 -247z" />
    <glyph glyph-name="uni0331" unicode="&#x331;" horiz-adv-x="0" 
d="M373 -399h-744v215h744v-215z" />
    <glyph glyph-name="uni0335" unicode="&#x335;" horiz-adv-x="0" 
d="M2 668l-317 -11v213l317 -10l313 10v-213z" />
    <glyph glyph-name="uni0337" unicode="&#x337;" horiz-adv-x="0" 
d="M508 1057l-864 -1155l-152 108l864 1155z" />
    <glyph glyph-name="uni0338" unicode="&#x338;" horiz-adv-x="0" 
d="M641 1413l-1130 -1511l-152 108l1130 1512z" />
    <glyph glyph-name="uni0394" unicode="&#x394;" horiz-adv-x="1472" 
d="M567 1458h351l503 -1458h-1370zM612 733l-157 -483h561l-156 483l-123 420z" />
    <glyph glyph-name="uni03A9" unicode="&#x3a9;" horiz-adv-x="1540" 
d="M696 0h-624v246h274v4q-270 196 -270 555q0 307 190 498q189 190 502 190q318 0 504 -190q188 -194 188 -498q0 -363 -266 -555v-4h274v-246h-622v231q311 157 311 543q0 224 -103 340q-104 117 -286 117q-180 0 -285 -117q-104 -116 -104 -340q0 -384 317 -543v-231z
" />
    <glyph glyph-name="uni03BC" unicode="&#x3bc;" horiz-adv-x="1183" 
d="M412 -418h-289v1475h289v-629q0 -195 153 -195q93 0 150 71q57 70 57 188v565h289v-1057h-283l-4 143q-35 -80 -104 -124q-70 -44 -156 -44q-77 0 -149 39l-5 -4l52 -235v-193z" />
    <glyph glyph-name="pi" unicode="&#x3c0;" horiz-adv-x="1368" 
d="M1327 1057v-266h-244v-408q0 -76 32 -108q31 -31 106 -31h53v-244h-109q-350 0 -350 373v418h-283v-791h-268v791h-233v266h1296z" />
    <glyph glyph-name="d.sups" unicode="&#x1d48;" horiz-adv-x="942" 
d="M580 1378v346h239v-962h-223l-6 82q-89 -113 -225 -113q-132 0 -215 107q-82 106 -82 274q0 172 80 273q81 102 217 102q124 0 215 -109zM442 934q86 -6 123 88t0 189q-38 95 -123 89q-61 0 -96 -47t-35 -137q0 -88 35 -135t96 -47z" />
    <glyph glyph-name="t.sups" unicode="&#x1d57;" horiz-adv-x="600" 
d="M559 1460v-170l-151 4v-276q0 -80 67 -80h82v-176h-168q-123 0 -172 46t-49 175v311l-137 -4v170l137 -4v211h240v-211z" />
    <glyph glyph-name="Wgrave" unicode="&#x1e80;" horiz-adv-x="1988" 
d="M1057 1860l96 -289h-192l-256 289h352zM1438 729l188 729h311l-426 -1458h-290l-224 995l-225 -995h-295l-426 1458h322l188 -729l70 -293l59 293l160 729h299l160 -729l59 -293z" />
    <glyph glyph-name="wgrave" unicode="&#x1e81;" horiz-adv-x="1591" 
d="M854 1458l96 -289h-192l-256 289h352zM1141 588l116 469h304l-314 -1057h-274l-152 588l-24 139l-27 -139l-152 -588h-274l-313 1057h303l117 -469l49 -266l49 266l119 469h256l118 -465l50 -270z" />
    <glyph glyph-name="Wacute" unicode="&#x1e82;" horiz-adv-x="1988" 
d="M942 1860h352l-256 -289h-192zM1438 729l188 729h311l-426 -1458h-290l-224 995l-225 -995h-295l-426 1458h322l188 -729l70 -293l59 293l160 729h299l160 -729l59 -293z" />
    <glyph glyph-name="wacute" unicode="&#x1e83;" horiz-adv-x="1591" 
d="M739 1458h353l-256 -289h-193zM1141 588l116 469h304l-314 -1057h-274l-152 588l-24 139l-27 -139l-152 -588h-274l-313 1057h303l117 -469l49 -266l49 266l119 469h256l118 -465l50 -270z" />
    <glyph glyph-name="Wdieresis" unicode="&#x1e84;" horiz-adv-x="1988" 
d="M639 1860h289v-263h-289v263zM1071 1860h289v-263h-289v263zM1438 729l188 729h311l-426 -1458h-290l-224 995l-225 -995h-295l-426 1458h322l188 -729l70 -293l59 293l160 729h299l160 -729l59 -293z" />
    <glyph glyph-name="wdieresis" unicode="&#x1e85;" horiz-adv-x="1591" 
d="M436 1458h289v-262h-289v262zM868 1458h289v-262h-289v262zM1141 588l116 469h304l-314 -1057h-274l-152 588l-24 139l-27 -139l-152 -588h-274l-313 1057h303l117 -469l49 -266l49 266l119 469h256l118 -465l50 -270z" />
    <glyph glyph-name="uni1E9E" unicode="&#x1e9e;" horiz-adv-x="1472" 
d="M1339 1243l-311 -373q182 -34 282 -146q99 -111 99 -278q0 -214 -147 -337t-422 -123q-98 0 -205 18v248q92 -16 184 -16q275 0 275 208q0 99 -73 152t-206 53q-37 0 -121 -4v201l312 395q-94 10 -218 10q-188 0 -269 -83q-81 -82 -81 -248v-920h-305v918q0 287 169 438
t482 151q260 0 555 -37v-227z" />
    <glyph glyph-name="Ygrave" unicode="&#x1ef2;" horiz-adv-x="1343" 
d="M729 1860l96 -289h-192l-256 289h352zM756 1006l225 452h326l-484 -893v-565h-303v565l-483 893h334l221 -452l80 -203z" />
    <glyph glyph-name="ygrave" unicode="&#x1ef3;" horiz-adv-x="1138" 
d="M633 1458l96 -289h-192l-256 289h352zM575 309l226 748h307l-422 -1245q-44 -132 -112 -181t-189 -49h-242v246h140q116 0 149 90l10 29l-411 1110h317l195 -594z" />
    <glyph glyph-name="thinspace" unicode="&#x2009;" horiz-adv-x="534" 
 />
    <glyph glyph-name="uni2011" unicode="&#x2011;" horiz-adv-x="778" 
d="M676 455h-574v250h574v-250z" />
    <glyph glyph-name="endash" unicode="&#x2013;" horiz-adv-x="1095" 
d="M993 455h-891v229h891v-229z" />
    <glyph glyph-name="emdash" unicode="&#x2014;" horiz-adv-x="1697" 
d="M1595 455h-1493v229h1493v-229z" />
    <glyph glyph-name="quoteleft" unicode="&#x2018;" horiz-adv-x="456" 
d="M395 825h-334v367q0 266 293 266h39v-131h-39q-135 0 -135 -135v-59h176v-308z" />
    <glyph glyph-name="quoteright" unicode="&#x2019;" horiz-adv-x="456" 
d="M102 825h-39v131h39q136 0 136 136v59h-177v307h334v-366q0 -267 -293 -267z" />
    <glyph glyph-name="quotesinglbase" unicode="&#x201a;" horiz-adv-x="579" 
d="M164 -326h-39v131h39q135 0 135 136v59h-176v307h334v-366q0 -267 -293 -267z" />
    <glyph glyph-name="quotedblleft" unicode="&#x201c;" horiz-adv-x="890" 
d="M395 825h-334v367q0 266 293 266h39v-131h-39q-135 0 -135 -135v-59h176v-308zM829 825h-333v367q0 266 292 266h39v-131h-39q-135 0 -135 -135v-59h176v-308z" />
    <glyph glyph-name="quotedblright" unicode="&#x201d;" horiz-adv-x="890" 
d="M102 825h-39v131h39q136 0 136 136v59h-177v307h334v-366q0 -267 -293 -267zM537 825h-39v131h39q135 0 135 136v59h-176v307h333v-366q0 -267 -292 -267z" />
    <glyph glyph-name="quotedblbase" unicode="&#x201e;" horiz-adv-x="1013" 
d="M164 -326h-39v131h39q135 0 135 136v59h-176v307h334v-366q0 -267 -293 -267zM598 -326h-39v131h39q135 0 135 136v59h-176v307h334v-366q0 -267 -293 -267z" />
    <glyph glyph-name="dagger" unicode="&#x2020;" horiz-adv-x="1255" 
d="M762 1257l360 11v-256l-360 12v-1239h-266v1239l-363 -12v256l363 -11v484h266v-484z" />
    <glyph glyph-name="daggerdbl" unicode="&#x2021;" horiz-adv-x="1255" 
d="M1122 1268v-256l-360 12v-512l360 10v-256l-360 13v-494h-266v494l-363 -13v256l363 -10v512l-363 -12v256l363 -11v484h266v-484z" />
    <glyph glyph-name="bullet" unicode="&#x2022;" horiz-adv-x="851" 
d="M719 322h-586v532h586v-532z" />
    <glyph glyph-name="ellipsis" unicode="&#x2026;" horiz-adv-x="1751" 
d="M461 0h-338v307h338v-307zM1044 0h-337v307h337v-307zM1628 0h-338v307h338v-307z" />
    <glyph glyph-name="perthousand" unicode="&#x2030;" horiz-adv-x="3368" 
d="M799 688q-99 -123 -285 -123q-187 0 -283 123q-98 122 -98 346q0 223 98 340q99 119 283 119t283 -119q98 -117 98 -340q0 -222 -96 -346zM850 -31h-221l917 1520h217zM356 1030q0 -278 158 -278t158 278q0 144 -38 211q-38 66 -120 66t-120 -66q-38 -67 -38 -211z
M2167 90q-99 -123 -285 -123q-187 0 -283 123q-98 122 -98 346q0 223 98 340q99 119 283 119t283 -119q98 -117 98 -340q0 -222 -96 -346zM3140 90q-99 -123 -285 -123q-189 0 -283 123q-98 122 -98 346q0 223 98 340q99 119 283 119t283 -119q98 -117 98 -340
q0 -222 -96 -346zM1724 432q0 -278 158 -278t158 278q0 144 -38 211q-38 66 -120 66t-120 -66q-38 -67 -38 -211zM2697 432q0 -278 158 -278t158 278q0 144 -38 211q-37 66 -120 66t-120 -66q-38 -67 -38 -211z" />
    <glyph glyph-name="guilsinglleft" unicode="&#x2039;" horiz-adv-x="800" 
d="M678 317v-337l-555 426v241l555 426v-338l-289 -209z" />
    <glyph glyph-name="guilsinglright" unicode="&#x203a;" horiz-adv-x="798" 
d="M676 406l-553 -426v337l287 209l-287 209v338l553 -426v-241z" />
    <glyph glyph-name="uni203D" unicode="&#x203d;" horiz-adv-x="1265" 
d="M616 1491q276 0 427 -112t151 -314q0 -226 -205 -332l-88 -47q-93 -47 -136 -92t-54 -115h-187l-59 453v137h303v-137l-8 -66l16 11q63 35 87 71q26 38 26 94q0 193 -275 193q-141 0 -205 -53q-62 -52 -67 -178h-285q6 235 149 361q142 126 410 126zM772 0h-311v307h311
v-307z" />
    <glyph glyph-name="fraction" unicode="&#x2044;" horiz-adv-x="765" 
d="M37 -31h-221l917 1520h217z" />
    <glyph glyph-name="zero.sups" unicode="&#x2070;" horiz-adv-x="872" 
d="M721 852q-99 -123 -285 -123t-282 123q-99 123 -99 346q0 222 99 340q99 119 282 119q184 0 283 -119q98 -117 98 -340q0 -222 -96 -346zM279 1194q0 -279 157 -279q158 0 158 279q0 144 -38 211q-37 65 -120 65t-120 -65t-37 -211z" />
    <glyph glyph-name="four.sups" unicode="&#x2074;" horiz-adv-x="915" 
d="M696 762h-194v160l-441 -7v166l404 555h231v-542l142 6v-185l-142 7v-160zM498 1393l-211 -295l215 -4v299h-4z" />
    <glyph glyph-name="five.sups" unicode="&#x2075;" horiz-adv-x="911" 
d="M449 729q-138 0 -230 62t-119 167l205 25q35 -84 146 -84q72 0 112 35q39 35 39 98q0 66 -40 102q-39 35 -109 35q-83 0 -140 -57l-196 25l78 499h555v-176h-412l-31 -172l4 -2q83 49 189 49q137 0 223 -80t86 -213q0 -136 -99 -225q-98 -88 -261 -88z" />
    <glyph glyph-name="six.sups" unicode="&#x2076;" horiz-adv-x="944" 
d="M502 729q-192 0 -296 120q-104 121 -104 337q0 228 100 349q99 120 292 120q130 0 219 -53q88 -52 112 -142l-207 -26q-33 63 -131 63q-174 0 -184 -250q83 107 240 107q140 0 228 -86q87 -86 87 -221q0 -142 -98 -230t-258 -88zM494 897q73 0 115 44q42 43 42 110
q0 65 -43 105t-114 40q-74 0 -118 -42t-44 -107q0 -69 46 -109q47 -41 116 -41z" />
    <glyph glyph-name="seven.sups" unicode="&#x2077;" horiz-adv-x="825" 
d="M438 762h-217q7 352 297 690h-436v184h661v-170q-154 -167 -225 -329q-73 -163 -80 -375z" />
    <glyph glyph-name="eight.sups" unicode="&#x2078;" horiz-adv-x="968" 
d="M485 729q-183 0 -288 75t-105 206q0 83 47 142q47 58 129 81v6q-56 22 -94 74q-37 50 -37 110q0 109 91 170q92 62 257 62q163 0 255 -63q91 -63 91 -169q0 -67 -36 -115q-39 -51 -95 -69v-6q82 -23 129 -81q48 -60 48 -142q0 -131 -104 -206q-103 -75 -288 -75z
M377 1323q44 -29 108 -29q65 0 109 29q40 28 42 77q1 47 -40 75q-38 26 -111 26q-72 0 -110 -26q-41 -29 -41 -76q0 -48 43 -76zM352 920q49 -37 133 -37t133 37q50 35 50 94q0 60 -48 95q-47 34 -135 34q-86 0 -135 -34t-49 -95t51 -94z" />
    <glyph glyph-name="nine.sups" unicode="&#x2079;" horiz-adv-x="944" 
d="M451 729q-131 0 -220 53q-88 52 -112 142l207 26q33 -63 131 -63q174 0 184 250q-83 -107 -240 -107q-140 0 -228 86q-87 86 -87 221q0 142 98 230t258 88q192 0 296 -120q104 -121 104 -337q0 -228 -100 -349q-99 -120 -291 -120zM451 1188q73 0 117 42t44 107
q0 69 -46 109q-47 41 -115 41q-74 0 -116 -44q-42 -43 -42 -110q0 -65 43 -105t115 -40z" />
    <glyph glyph-name="plus.sups" unicode="&#x207a;" horiz-adv-x="897" 
d="M522 1214h295v-153h-295v-299h-153v299h-291v153h291v304h153v-304z" />
    <glyph glyph-name="minus.sups" unicode="&#x207b;" horiz-adv-x="892" 
d="M813 1069h-735v152h735v-152z" />
    <glyph glyph-name="parenleft.sups" unicode="&#x207d;" horiz-adv-x="622" 
d="M545 485h-240q-180 281 -180 650q0 363 180 637h240q-139 -302 -139 -644q0 -343 139 -643z" />
    <glyph glyph-name="parenright.sups" unicode="&#x207e;" horiz-adv-x="622" 
d="M317 485h-239q139 302 139 643q0 338 -139 644h239q181 -276 181 -637q0 -368 -181 -650z" />
    <glyph glyph-name="n.sups" unicode="&#x207f;" horiz-adv-x="985" 
d="M590 1483q128 0 201 -64q71 -62 71 -184v-473h-237v426q0 112 -117 112q-67 0 -107 -37q-41 -38 -41 -118v-383h-237v696h207l6 -98q90 123 254 123z" />
    <glyph glyph-name="zero.subs" unicode="&#x2080;" horiz-adv-x="872" 
d="M721 -268q-99 -123 -285 -123t-282 123q-99 123 -99 346q0 222 99 340q99 119 282 119q184 0 283 -119q98 -117 98 -340q0 -222 -96 -346zM279 74q0 -279 157 -279q158 0 158 279q0 144 -38 211q-37 65 -120 65t-120 -65t-37 -211z" />
    <glyph glyph-name="one.subs" unicode="&#x2081;" horiz-adv-x="606" 
d="M483 -358h-204v563h-218v153h62q77 0 123 37q47 38 47 103v18h190v-874z" />
    <glyph glyph-name="two.subs" unicode="&#x2082;" horiz-adv-x="886" 
d="M782 -358h-676q0 149 41 239q40 88 140 144l198 110q95 51 95 121q0 50 -37 78t-103 28q-134 0 -141 -122h-197q1 144 91 220q89 75 249 75q158 0 250 -75t92 -200q0 -156 -170 -248l-204 -110q-60 -34 -66 -80h438v-180z" />
    <glyph glyph-name="three.subs" unicode="&#x2083;" horiz-adv-x="913" 
d="M721 -315q-94 -76 -262 -76q-163 0 -258 78q-95 80 -101 223h197q11 -129 162 -129t151 110q0 107 -159 107h-72v170h78q133 0 133 94q0 47 -38 74q-36 26 -103 26q-134 0 -146 -106h-197q7 133 98 207q88 72 247 72q156 0 247 -68q90 -67 90 -180q0 -149 -145 -189v-2
q77 -18 126 -77q48 -59 48 -138q0 -118 -96 -196z" />
    <glyph glyph-name="four.subs" unicode="&#x2084;" horiz-adv-x="915" 
d="M696 -358h-194v159l-441 -6v166l404 555h231v-543l142 7v-185l-142 6v-159zM498 272l-211 -295l215 -4v299h-4z" />
    <glyph glyph-name="five.subs" unicode="&#x2085;" horiz-adv-x="911" 
d="M449 -391q-139 0 -230 61q-92 62 -119 168l205 25q35 -84 146 -84q72 0 112 35q39 34 39 98q0 65 -40 101t-109 36q-83 0 -140 -57l-196 24l78 500h555v-176h-412l-31 -172l4 -2q83 49 189 49q137 0 223 -80t86 -213q0 -136 -99 -225q-98 -88 -261 -88z" />
    <glyph glyph-name="six.subs" unicode="&#x2086;" horiz-adv-x="944" 
d="M502 -391q-192 0 -296 120q-104 121 -104 337q0 228 100 349q99 120 292 120q128 0 219 -54q88 -52 112 -141l-207 -27q-34 64 -131 64q-174 0 -184 -250q82 106 240 106q140 0 228 -86q87 -86 87 -221q0 -141 -98 -229t-258 -88zM494 -223q73 0 115 44t42 109
q0 66 -43 106t-114 40q-74 0 -118 -42t-44 -108q0 -68 46 -108q47 -41 116 -41z" />
    <glyph glyph-name="seven.subs" unicode="&#x2087;" horiz-adv-x="825" 
d="M438 -358h-217q7 352 297 690h-436v184h661v-170q-153 -166 -225 -330q-73 -165 -80 -374z" />
    <glyph glyph-name="eight.subs" unicode="&#x2088;" horiz-adv-x="968" 
d="M485 -391q-183 0 -288 75t-105 205q0 84 47 143q47 58 129 81v6q-56 22 -94 74q-37 50 -37 110q0 109 91 170q92 62 257 62q163 0 255 -63q91 -63 91 -169q0 -68 -36 -116q-38 -50 -95 -68v-6q82 -23 129 -81q48 -60 48 -143q0 -130 -104 -205q-103 -75 -288 -75z
M377 203q44 -29 108 -29q65 0 109 29q40 28 42 77q1 46 -40 74q-39 27 -111 27q-71 0 -110 -27q-41 -29 -41 -75q0 -49 43 -76zM352 -203q52 -35 133 -35t133 35q50 38 50 96q0 61 -48 96q-47 34 -135 34q-86 0 -135 -34t-49 -96q0 -59 51 -96z" />
    <glyph glyph-name="nine.subs" unicode="&#x2089;" horiz-adv-x="944" 
d="M451 -391q-131 0 -220 53q-88 52 -112 141l207 27q33 -63 131 -63q174 0 184 249q-82 -106 -240 -106q-140 0 -228 86q-87 86 -87 221q0 141 98 229q100 89 258 89q192 0 296 -120q104 -121 104 -337q0 -228 -100 -349q-99 -120 -291 -120zM451 68q73 0 117 42t44 107
q0 69 -46 109q-47 41 -115 41q-74 0 -116 -44q-42 -43 -42 -110q0 -65 43 -105t115 -40z" />
    <glyph glyph-name="plus.subs" unicode="&#x208a;" horiz-adv-x="897" 
d="M522 156h295v-154h-295v-299h-153v299h-291v154h291v303h153v-303z" />
    <glyph glyph-name="minus.subs" unicode="&#x208b;" horiz-adv-x="892" 
d="M813 10h-735v152h735v-152z" />
    <glyph glyph-name="equal.subs" unicode="&#x208c;" horiz-adv-x="892" 
d="M813 184h-735v150h735v-150zM813 -176h-735v151h735v-151z" />
    <glyph glyph-name="uni208D" unicode="&#x208d;" horiz-adv-x="622" 
d="M545 -635h-240q-180 281 -180 649q0 362 180 637h240q-139 -302 -139 -643q0 -343 139 -643z" />
    <glyph glyph-name="uni208E" unicode="&#x208e;" horiz-adv-x="622" 
d="M317 -635h-239q139 302 139 643q0 337 -139 643h239q181 -276 181 -637q0 -367 -181 -649z" />
    <glyph glyph-name="n.subs" unicode="&#x2099;" horiz-adv-x="985" 
d="M590 362q129 0 201 -63q71 -62 71 -184v-473h-237v426q0 112 -117 112q-66 0 -107 -38t-41 -117v-383h-237v696h207l6 -98q89 122 254 122z" />
    <glyph glyph-name="Euro" unicode="&#x20ac;" 
d="M1061 1229q-291 0 -377 -201h627v-211h-672q-4 -69 -4 -94q0 -58 2 -80h674v-211h-631q90 -203 381 -203q124 0 250 37v-260q-141 -39 -277 -39q-246 0 -419 123t-242 342h-250v211h209q-2 24 -2 80q0 21 4 94h-211v211h252q72 222 243 342q172 121 416 121
q136 0 277 -39v-260q-126 37 -250 37z" />
    <glyph glyph-name="uni20B8" unicode="&#x20b8;" horiz-adv-x="1259" 
d="M41 1188v270h1178v-270h-1178zM479 737h-438v271h1178v-271h-437v-737h-303v737z" />
    <glyph glyph-name="uni20B9" unicode="&#x20b9;" 
d="M1311 1458v-205h-385q41 -58 53 -133h332v-205h-344q-51 -160 -256 -215q98 -18 154 -77t89 -177l125 -446h-317l-100 387q-27 112 -78 152q-51 39 -170 39h-291v204h344q172 0 209 133h-553v205h559q-27 133 -174 133h-385v205h1188z" />
    <glyph glyph-name="uni20BA" unicode="&#x20ba;" 
d="M1073 522h289q-24 -249 -187 -385q-164 -137 -434 -137h-389v328l-278 -146v258l278 146v184l-278 -145v258l278 145v430h303v-270l402 209v-258l-402 -209v-185l402 209v-258l-402 -209v-217h64q166 0 250 60q83 59 104 192z" />
    <glyph glyph-name="uni20BC" unicode="&#x20bc;" 
d="M858 1458v-371q488 -18 488 -495v-592h-283v606q0 116 -48 172t-157 62v-633h-280v633q-109 -6 -157 -62t-48 -172v-606h-283v592q0 477 488 495v371h280z" />
    <glyph glyph-name="uni20BF" unicode="&#x20bf;" 
d="M1307 428q0 -152 -85 -262t-239 -148v-313h-225v295h-174v-295h-226v295h-170v1458h170v277h226v-277h174v277h225v-295q132 -33 205 -121q74 -89 74 -217q0 -117 -62 -197q-61 -79 -176 -112q283 -72 283 -365zM772 1212h-301v-317h289q103 0 153 43q52 44 52 119
q0 155 -193 155zM471 256h305q113 0 174 53q60 53 60 148q0 92 -58 142t-161 50h-320v-393z" />
    <glyph glyph-name="uni2105" unicode="&#x2105;" horiz-adv-x="2322" 
d="M807 -31h-221l917 1520h217zM524 739q-173 0 -282 100t-109 269q0 172 105 274q106 103 278 103q149 0 252 -73q102 -72 123 -193l-240 -27q-17 117 -129 117q-137 0 -137 -197t137 -197q112 0 127 136l240 -27q-21 -132 -117 -208q-97 -77 -248 -77zM1780 -33
q-195 0 -303 99q-109 100 -109 272q0 173 109 271t303 98q192 0 301 -98q108 -97 108 -271q0 -176 -108 -273q-109 -98 -301 -98zM1655 195q46 -52 125 -52t125 52q43 52 43 143q0 89 -44 141q-44 51 -124 51t-125 -51t-45 -141q0 -92 45 -143z" />
    <glyph glyph-name="uni2113" unicode="&#x2113;" horiz-adv-x="1089" 
d="M643 203q95 0 195 88l131 -182q-157 -146 -357 -146q-148 0 -245 83t-97 222v90l-147 -67l-92 215l239 96v555q0 157 94 246q92 88 263 88q184 0 283 -102q100 -103 100 -289q0 -243 -110 -392q-111 -150 -363 -241v-148q0 -57 28 -86q29 -30 78 -30zM631 1262
q-43 0 -69 -27q-25 -26 -25 -72v-434q115 71 161 144q45 72 45 190q0 199 -112 199z" />
    <glyph glyph-name="uni2116" unicode="&#x2116;" horiz-adv-x="2396" 
d="M1923 1485q194 0 301 -97q109 -98 109 -272q0 -175 -109 -273t-301 -98q-195 0 -303 99q-109 100 -109 272q0 174 109 272q107 97 303 97zM430 1458l578 -936v936h303v-1458h-297l-578 936v-936h-303v1458h297zM1798 973q45 -51 125 -51t125 51q43 50 43 143
q0 89 -44 141t-124 52q-79 0 -125 -52q-45 -51 -45 -141q0 -92 45 -143z" />
    <glyph glyph-name="uni2117" unicode="&#x2117;" horiz-adv-x="1683" 
d="M289 1278q220 215 553 215t553 -215q217 -214 217 -549q0 -331 -217 -545q-217 -217 -553 -217q-334 0 -551 217q-219 214 -219 545q0 335 217 549zM842 152q252 0 411 163q160 165 160 414q0 253 -160 416q-162 162 -411 162q-251 0 -410 -162q-162 -162 -162 -416
q0 -252 162 -414q159 -163 410 -163zM586 1120h323q128 0 201 -74q74 -76 74 -200q0 -127 -78 -202t-207 -75h-108v-221h-205v772zM791 743h79q109 0 109 103q0 100 -105 100h-83v-203z" />
    <glyph glyph-name="trademark" unicode="&#x2122;" horiz-adv-x="2048" 
d="M543 676h-226v588h-249v194h723v-194h-248v-588zM1108 676h-205v782h373l133 -606h16l125 606h375v-782h-205v606h-16l-125 -606h-324l-131 606h-16v-606z" />
    <glyph glyph-name="uni2126" unicode="&#x2126;" horiz-adv-x="1540" 
d="M696 0h-624v246h274v4q-270 196 -270 555q0 307 190 498q189 190 502 190q318 0 504 -190q188 -194 188 -498q0 -363 -266 -555v-4h274v-246h-622v231q311 157 311 543q0 224 -103 340q-104 117 -286 117q-180 0 -285 -117q-104 -116 -104 -340q0 -384 317 -543v-231z
" />
    <glyph glyph-name="estimated" unicode="&#x212e;" horiz-adv-x="1865" 
d="M330 1276q224 215 604 215q379 0 604 -225q223 -224 223 -557h-1323q-28 0 -28 -27v-360q0 -68 32 -97q200 -196 492 -196q153 0 290 64t226 171h149q-89 -126 -263 -209q-171 -82 -402 -82q-373 0 -602 213q-230 212 -230 543q0 328 228 547zM934 1434q-291 0 -492 -201
q-32 -29 -32 -90v-361q0 -26 28 -26h985q29 0 29 26v361q0 60 -33 90q-205 201 -485 201z" />
    <glyph glyph-name="uni2153" unicode="&#x2153;" horiz-adv-x="2207" 
d="M655 -31h-221l918 1520h217zM555 598h-205v563h-217v154h62q76 0 122 37q48 39 48 102v19h190v-875zM1978 43q-94 -76 -262 -76q-166 0 -258 80q-94 76 -100 221h196q10 -129 162 -129t152 111q0 106 -160 106h-72v170h78q133 0 133 95q0 46 -38 73q-37 27 -103 27
q-133 0 -145 -107h-197q7 134 97 207q89 72 247 72q157 0 248 -68q90 -67 90 -180q0 -148 -145 -188v-2q76 -18 125 -77q49 -60 49 -138q0 -118 -97 -197z" />
    <glyph glyph-name="uni2154" unicode="&#x2154;" horiz-adv-x="2469" 
d="M813 598h-676q0 150 41 240q40 88 139 143l199 111q94 51 94 120q0 50 -37 78q-38 29 -102 29q-131 0 -141 -123h-197q1 145 90 220t250 75q159 0 250 -75q92 -75 92 -199q0 -156 -170 -248l-205 -111q-59 -34 -65 -80h438v-180zM918 -31h-222l918 1520h217zM2241 43
q-94 -76 -263 -76q-166 0 -258 80q-94 76 -100 221h197q11 -129 161 -129q152 0 152 111q0 106 -160 106h-72v170h78q133 0 133 95q0 46 -37 73t-104 27q-133 0 -145 -107h-197q7 134 97 207q89 72 247 72q157 0 248 -68q90 -67 90 -180q0 -148 -145 -188v-2q77 -18 126 -77
q48 -58 48 -138q0 -119 -96 -197z" />
    <glyph glyph-name="uni2155" unicode="&#x2155;" horiz-adv-x="2252" 
d="M655 -31h-221l918 1520h217zM555 598h-205v563h-217v154h62q76 0 122 37q48 39 48 102v19h190v-875zM1759 -33q-137 0 -229 62t-119 168l205 24q34 -84 145 -84q73 0 113 35q39 34 39 98q0 66 -40 102q-41 36 -110 36q-81 0 -139 -58l-197 25l78 499h555v-176h-411
l-31 -172l4 -2q82 49 188 49q139 0 224 -79q86 -80 86 -213q0 -137 -100 -226q-98 -88 -261 -88z" />
    <glyph glyph-name="uni2156" unicode="&#x2156;" horiz-adv-x="2502" 
d="M813 598h-676q0 150 41 240q40 88 139 143l199 111q94 51 94 120q0 50 -37 78q-38 29 -102 29q-131 0 -141 -123h-197q1 145 90 220t250 75q159 0 250 -75q92 -75 92 -199q0 -156 -170 -248l-205 -111q-59 -34 -65 -80h438v-180zM905 -31h-221l918 1520h217zM2009 -33
q-137 0 -229 62t-119 168l205 24q34 -84 145 -84q73 0 113 35q39 34 39 98q0 66 -40 102t-110 36q-81 0 -139 -58l-197 25l78 499h555v-176h-412l-30 -172l4 -2q82 49 188 49q139 0 224 -79q86 -80 86 -213q0 -137 -100 -226q-98 -88 -261 -88z" />
    <glyph glyph-name="uni2157" unicode="&#x2157;" horiz-adv-x="2463" 
d="M754 641q-94 -76 -262 -76q-167 0 -259 80q-94 76 -100 221h197q10 -129 162 -129q151 0 151 111q0 106 -160 106h-71v170h77q134 0 134 95q0 46 -38 73q-37 27 -104 27q-133 0 -145 -107h-197q7 133 98 207q89 72 246 72t248 -68q90 -67 90 -180q0 -148 -145 -188v-2
q77 -18 126 -77q48 -58 48 -138q0 -119 -96 -197zM866 -31h-221l918 1520h217zM1970 -33q-137 0 -229 62t-119 168l205 24q35 -84 145 -84q73 0 113 35q39 34 39 98q0 66 -40 102t-110 36q-81 0 -139 -58l-197 25l78 499h555v-176h-411l-31 -172l4 -2q83 49 188 49
q139 0 224 -79q86 -80 86 -213q0 -137 -100 -226q-98 -88 -261 -88z" />
    <glyph glyph-name="uni2158" unicode="&#x2158;" horiz-adv-x="2553" 
d="M956 -31h-221l918 1520h217zM768 598h-195v160l-440 -6v166l404 555h231v-543l141 6v-184l-141 6v-160zM569 1229l-211 -295l215 -4v299h-4zM2060 -33q-137 0 -229 62t-119 168l205 24q35 -84 145 -84q73 0 113 35q39 34 39 98q0 66 -40 102t-110 36q-81 0 -139 -58
l-196 25l77 499h555v-176h-411l-31 -172l4 -2q83 49 188 49q139 0 224 -79q86 -80 86 -213q0 -137 -100 -226q-98 -88 -261 -88z" />
    <glyph glyph-name="uni2159" unicode="&#x2159;" horiz-adv-x="2209" 
d="M655 -31h-221l918 1520h217zM555 598h-205v563h-217v154h62q76 0 122 37q48 39 48 102v19h190v-875zM1720 -33q-192 0 -296 120q-103 119 -103 337q0 229 99 349t292 120q130 0 219 -53t113 -142l-207 -26q-33 63 -131 63q-174 0 -184 -250q83 107 239 107q141 0 229 -86
q87 -86 87 -221q0 -141 -99 -230q-98 -88 -258 -88zM1712 135q74 0 116 44q42 43 42 110q0 65 -43 105t-115 40q-74 0 -118 -42t-44 -107q0 -69 46 -109q47 -41 116 -41z" />
    <glyph glyph-name="uni215A" unicode="&#x215a;" horiz-adv-x="2398" 
d="M844 -31h-221l917 1520h217zM481 565q-137 0 -229 62t-119 168l205 24q34 -84 145 -84q73 0 113 35q39 34 39 98q0 66 -40 102t-110 36q-81 0 -139 -58l-196 25l77 500h555v-177h-411l-31 -172l4 -2q82 49 188 49q139 0 224 -79q86 -80 86 -213q0 -137 -100 -226
q-98 -88 -261 -88zM1909 -33q-193 0 -296 120q-104 121 -104 337q0 228 100 349q99 120 292 120q130 0 219 -53q88 -52 112 -142l-207 -26q-33 63 -131 63q-174 0 -184 -250q83 107 240 107q140 0 228 -86q87 -86 87 -221q0 -142 -98 -230t-258 -88zM1901 135q73 0 115 44
q42 43 42 110q0 65 -43 105t-114 40q-75 0 -118 -42q-44 -42 -44 -107q0 -69 46 -109q47 -41 116 -41z" />
    <glyph glyph-name="oneeighth" unicode="&#x215b;" horiz-adv-x="2252" 
d="M655 -31h-221l918 1520h217zM555 598h-205v563h-217v154h62q76 0 122 37q48 39 48 102v19h190v-875zM1729 -33q-184 0 -289 75t-105 206q0 83 47 142q46 58 129 81v6q-56 22 -94 74q-37 50 -37 111q0 108 91 169q92 62 258 62q163 0 254 -63q92 -63 92 -168
q0 -67 -37 -116q-39 -52 -94 -69v-6q82 -23 129 -81q47 -59 47 -142q0 -131 -104 -206t-287 -75zM1620 561q44 -29 109 -29q64 0 108 29q40 28 42 77q1 47 -40 75q-38 26 -110 26q-73 0 -111 -26q-41 -29 -41 -76q0 -48 43 -76zM1595 158q49 -37 134 -37q84 0 133 37
q49 34 49 94t-48 95q-47 34 -134 34t-136 -34t-49 -95t51 -94z" />
    <glyph glyph-name="threeeighths" unicode="&#x215c;" horiz-adv-x="2463" 
d="M754 641q-94 -76 -262 -76q-167 0 -259 80q-94 76 -100 221h197q10 -129 162 -129q151 0 151 111q0 106 -160 106h-71v170h77q134 0 134 95q0 46 -38 73q-37 27 -104 27q-133 0 -145 -107h-197q7 133 98 207q89 72 246 72t248 -68q90 -67 90 -180q0 -148 -145 -188v-2
q77 -18 126 -77q48 -58 48 -138q0 -119 -96 -197zM866 -31h-221l918 1520h217zM1939 -33q-183 0 -288 75t-105 206q0 83 47 142q47 58 129 81v6q-56 22 -94 74q-37 50 -37 111q0 108 91 169q92 62 257 62q163 0 255 -63t92 -168q0 -67 -37 -116q-39 -51 -95 -69v-6
q84 -23 130 -81q47 -59 47 -142q0 -131 -104 -206q-103 -75 -288 -75zM1831 561q44 -29 108 -29q65 0 109 29q40 28 42 77q1 47 -40 75q-38 26 -111 26q-72 0 -110 -26q-41 -29 -41 -76q0 -48 43 -76zM1806 158q49 -37 133 -37q85 0 134 37q49 34 49 94t-48 95
q-47 34 -135 34q-86 0 -135 -34t-49 -95t51 -94z" />
    <glyph glyph-name="fiveeighths" unicode="&#x215d;" horiz-adv-x="2441" 
d="M844 -31h-221l917 1520h217zM481 565q-137 0 -229 62t-119 168l205 24q34 -84 145 -84q73 0 113 35q39 34 39 98q0 66 -40 102t-110 36q-81 0 -139 -58l-196 25l77 500h555v-177h-411l-31 -172l4 -2q82 49 188 49q139 0 224 -79q86 -80 86 -213q0 -137 -100 -226
q-98 -88 -261 -88zM1917 -33q-184 0 -289 75q-104 74 -104 206q0 83 47 142q47 58 129 81v6q-56 22 -94 74q-37 50 -37 111q0 108 91 169q92 62 257 62q163 0 255 -63q91 -63 91 -168q0 -67 -37 -116q-39 -52 -94 -69v-6q82 -23 129 -81q47 -59 47 -142q0 -131 -103 -206
t-288 -75zM1808 561q44 -29 109 -29q64 0 108 29q40 28 42 77q1 48 -39 75q-38 26 -111 26t-111 -26q-41 -29 -41 -76q0 -48 43 -76zM1784 158q49 -37 133 -37t133 37q49 34 49 94t-48 95q-47 34 -134 34q-86 0 -135 -34t-49 -95t51 -94z" />
    <glyph glyph-name="seveneighths" unicode="&#x215e;" horiz-adv-x="2226" 
d="M629 -31h-221l917 1520h217zM489 598h-217q8 352 297 690h-436v185h662v-170q-155 -169 -226 -330q-70 -163 -80 -375zM1702 -33q-184 0 -289 75q-104 74 -104 206q0 83 47 142q46 58 129 81v6q-56 22 -94 74q-37 50 -37 111q0 108 91 169q92 62 257 62q164 0 255 -63
t91 -168q0 -67 -37 -116q-39 -52 -94 -69v-6q83 -23 129 -81q47 -59 47 -142q0 -131 -103 -206q-104 -75 -288 -75zM1593 561q44 -29 109 -29q64 0 108 29q40 28 42 77q1 47 -40 75q-38 26 -110 26q-73 0 -111 -26q-41 -29 -41 -76q0 -48 43 -76zM1569 158q49 -37 133 -37
t133 37q49 34 49 94t-48 95q-47 34 -134 34q-86 0 -135 -34t-49 -95t51 -94z" />
    <glyph glyph-name="arrowleft" unicode="&#x2190;" horiz-adv-x="1636" 
d="M481 866h1084v-276h-1080l201 -252l254 -338h-317l-551 729l551 729h317l-254 -336z" />
    <glyph glyph-name="arrowup" unicode="&#x2191;" horiz-adv-x="1624" 
d="M82 942l729 551l731 -551v-317l-338 254l-250 198v-1077h-288v1075l-246 -196l-338 -254v317z" />
    <glyph glyph-name="arrowright" unicode="&#x2192;" horiz-adv-x="1636" 
d="M696 1458h318l551 -729l-551 -729h-318l254 338l201 252h-1079v276h1083l-205 256z" />
    <glyph glyph-name="arrowdown" unicode="&#x2193;" horiz-adv-x="1624" 
d="M954 381l250 199l338 254v-318l-731 -551l-729 551v318l338 -254l246 -197v1075h288v-1077z" />
    <glyph glyph-name="arrowboth" unicode="&#x2194;" horiz-adv-x="2410" 
d="M1470 1458h318l551 -729l-551 -729h-318l254 338l201 252h-1440l201 -252l254 -338h-317l-551 729l551 729h317l-254 -336l-205 -256h1448l-205 256z" />
    <glyph glyph-name="arrowupdn" unicode="&#x2195;" horiz-adv-x="1622" 
d="M1540 995l-336 254l-256 205v-1450l256 205l336 254v-318l-729 -551l-729 551v318l338 -254l252 -201v1442l-252 -201l-338 -254v318l729 551l729 -551v-318z" />
    <glyph glyph-name="uni2196" unicode="&#x2196;" horiz-adv-x="1517" 
d="M537 1106l940 -907l-205 -199l-928 911l14 -364v-447h-276v1268h1292v-276h-471z" />
    <glyph glyph-name="uni2197" unicode="&#x2197;" horiz-adv-x="1517" 
d="M143 1092v276h1293v-1268h-277v447l15 364l-928 -911l-205 199l940 907l-367 -14h-471z" />
    <glyph glyph-name="uni2198" unicode="&#x2198;" horiz-adv-x="1517" 
d="M1159 821v447h277v-1268h-1293v276h471l367 -14l-940 907l205 199l928 -911z" />
    <glyph glyph-name="uni2199" unicode="&#x2199;" horiz-adv-x="1517" 
d="M1477 1169l-940 -907l366 14h471v-276h-1292v1268h276v-447l-14 -364l928 911z" />
    <glyph glyph-name="partialdiff" unicode="&#x2202;" horiz-adv-x="1212" 
d="M549 1477q300 0 446 -182t146 -562q0 -758 -563 -758q-236 0 -371 129t-135 361q0 225 126 354t343 129q187 0 309 -104q-18 204 -96 296q-78 91 -228 91q-106 0 -278 -60l-82 232q213 74 383 74zM586 221q222 0 260 305q-40 82 -113 129t-155 47q-96 0 -156 -63
t-60 -178q0 -112 58 -176t166 -64z" />
    <glyph glyph-name="uni2206" unicode="&#x2206;" horiz-adv-x="1472" 
d="M567 1458h351l503 -1458h-1370zM612 733l-157 -483h561l-156 483l-123 420z" />
    <glyph glyph-name="product" unicode="&#x220f;" horiz-adv-x="1441" 
d="M133 1458h1176v-1876h-303v1606h-570v-1606h-303v1876z" />
    <glyph glyph-name="summation" unicode="&#x2211;" horiz-adv-x="1349" 
d="M98 1458h1180v-258h-801l561 -670l-573 -690h786v-258h-1179v232l604 729l-578 684v231z" />
    <glyph glyph-name="minus" unicode="&#x2212;" 
d="M1270 506h-1106v246h1106v-246z" />
    <glyph glyph-name="uni2215" unicode="&#x2215;" horiz-adv-x="765" 
d="M37 -31h-221l917 1520h217z" />
    <glyph glyph-name="uni2219" unicode="&#x2219;" horiz-adv-x="831" 
d="M709 322h-586v532h586v-532z" />
    <glyph glyph-name="radical" unicode="&#x221a;" 
d="M1006 -418h-371l-209 588l-233 -92l-91 246l494 184l205 -621l336 1643h274z" />
    <glyph glyph-name="infinity" unicode="&#x221e;" horiz-adv-x="1626" 
d="M432 324q-168 0 -266 101t-98 280q0 178 98 279t266 101q111 0 197 -50q84 -49 186 -169q102 120 186 169q86 50 197 50q168 0 266 -101q99 -102 99 -279q0 -178 -99 -280q-98 -101 -266 -101q-111 0 -197 50q-84 49 -186 169q-102 -120 -186 -169q-86 -50 -197 -50z
M1192 547q67 0 106 42t39 116q0 77 -39 120t-106 43q-104 0 -225 -163q114 -158 225 -158zM438 541q104 0 226 164q-114 157 -226 157q-67 0 -106 -42t-39 -115q0 -77 39 -121q39 -43 106 -43z" />
    <glyph glyph-name="integral" unicode="&#x222b;" 
d="M522 -418h-131v232h60q120 0 120 120v1258q0 164 87 251t251 87h131v-232h-59q-121 0 -121 -120v-1258q0 -164 -87 -251t-251 -87z" />
    <glyph glyph-name="approxequal" unicode="&#x2248;" 
d="M424 705h-246q0 401 307 401q112 0 244 -62q129 -63 186 -63q52 0 73 30q22 31 22 95h245q0 -401 -307 -401q-112 0 -239 63q-129 61 -191 61q-52 0 -73 -27t-21 -97zM424 193h-246q0 401 307 401q112 0 244 -62q129 -63 186 -63q52 0 73 30q22 31 22 95h245
q0 -401 -307 -401q-112 0 -239 63q-129 61 -191 61q-52 0 -73 -27t-21 -97z" />
    <glyph glyph-name="notequal" unicode="&#x2260;" 
d="M1270 1001v-245h-402l-108 -244h510v-246h-621l-153 -346l-162 86l117 260h-287v246h395l109 244h-504v245h614l162 365l162 -86l-125 -279h293z" />
    <glyph glyph-name="lessequal" unicode="&#x2264;" 
d="M147 938l1141 332v-287l-792 -178l792 -176v-287l-1141 330v266zM1288 0h-1143v246h1143v-246z" />
    <glyph glyph-name="greaterequal" unicode="&#x2265;" 
d="M147 983v287l1141 -332v-266l-1141 -330v287l793 176zM1288 0h-1143v246h1143v-246z" />
    <glyph glyph-name="uni2460" unicode="&#x2460;" horiz-adv-x="2207" 
d="M1843 63q-289 -286 -739 -286t-739 286q-293 287 -293 719q0 434 293 721q291 285 739 285t739 -285q293 -287 293 -721q0 -432 -293 -719zM575 258q209 -209 529 -209q318 0 530 209q209 206 209 524t-209 527q-213 207 -530 207q-318 0 -529 -207q-210 -207 -210 -527
t210 -524zM1251 352h-204v563h-218v154h62q77 0 123 37q47 38 47 102v19h190v-875z" />
    <glyph glyph-name="uni2461" unicode="&#x2461;" horiz-adv-x="2207" 
d="M1843 63q-289 -286 -739 -286t-739 286q-293 287 -293 719q0 434 293 721q291 285 739 285t739 -285q293 -287 293 -721q0 -432 -293 -719zM575 258q209 -209 529 -209q318 0 530 209q209 206 209 524t-209 527q-213 207 -530 207q-318 0 -529 -207q-210 -207 -210 -527
t210 -524zM1448 360h-676q0 150 41 240q40 88 139 143l199 111q94 51 94 121q0 50 -37 78t-102 28q-130 0 -141 -123h-197q2 146 90 221q87 74 250 74q160 0 250 -74q92 -75 92 -200q0 -156 -170 -248l-205 -110q-59 -34 -65 -80h438v-181z" />
    <glyph glyph-name="uni2462" unicode="&#x2462;" horiz-adv-x="2207" 
d="M1843 63q-289 -286 -739 -286t-739 286q-293 287 -293 719q0 434 293 721q291 285 739 285t739 -285q293 -287 293 -721q0 -432 -293 -719zM575 258q209 -209 529 -209q318 0 530 209q209 206 209 524t-209 527q-213 207 -530 207q-318 0 -529 -207q-210 -207 -210 -527
t210 -524zM1366 395q-94 -76 -262 -76q-166 0 -258 80q-95 77 -101 222h197q8 -129 162 -129q151 0 151 110q0 107 -159 107h-72v170h78q133 0 133 94q0 47 -38 74q-36 26 -103 26q-134 0 -146 -106h-196q7 134 97 207q87 71 247 71q158 0 247 -67q91 -68 91 -181
q0 -147 -146 -188v-2q77 -18 126 -77q48 -58 48 -138q0 -119 -96 -197z" />
    <glyph glyph-name="uni2463" unicode="&#x2463;" horiz-adv-x="2207" 
d="M1843 63q-289 -286 -739 -286t-739 286q-293 287 -293 719q0 434 293 721q291 285 739 285t739 -285q293 -287 293 -721q0 -432 -293 -719zM575 258q209 -209 529 -209q318 0 530 209q209 206 209 524t-209 527q-213 207 -530 207q-318 0 -529 -207q-210 -207 -210 -527
t210 -524zM1331 352h-194v160l-441 -6v166l404 555h231v-543l142 6v-184l-142 6v-160zM922 688l215 -4v299h-4z" />
    <glyph glyph-name="uni2464" unicode="&#x2464;" horiz-adv-x="2207" 
d="M1843 63q-289 -286 -739 -286t-739 286q-293 287 -293 719q0 434 293 721q291 285 739 285t739 -285q293 -287 293 -721q0 -432 -293 -719zM575 258q209 -209 529 -209q318 0 530 209q209 206 209 524t-209 527q-213 207 -530 207q-318 0 -529 -207q-210 -207 -210 -527
t210 -524zM1114 324q-138 0 -229 61q-92 62 -119 168l205 25q35 -84 145 -84q75 0 113 34q39 34 39 99t-40 101t-110 36q-82 0 -139 -57l-197 24l78 500h555v-176h-411l-31 -172l4 -2q83 49 188 49q138 0 224 -80t86 -213q0 -136 -100 -225q-98 -88 -261 -88z" />
    <glyph glyph-name="uni2465" unicode="&#x2465;" horiz-adv-x="2207" 
d="M1843 63q-289 -286 -739 -286t-739 286q-293 287 -293 719q0 434 293 721q291 285 739 285t739 -285q293 -287 293 -721q0 -432 -293 -719zM575 258q209 -209 529 -209q318 0 530 209q209 206 209 524t-209 527q-213 207 -530 207q-318 0 -529 -207q-210 -207 -210 -527
t210 -524zM1128 319q-191 0 -295 120q-104 121 -104 337q0 229 99 349t292 120q130 0 219 -53t113 -141l-207 -27q-33 63 -131 63q-174 0 -184 -249q82 106 239 106q141 0 229 -86q87 -85 87 -221q0 -141 -99 -229q-100 -89 -258 -89zM1120 487q74 0 116 44q42 43 42 110
q0 65 -43 105t-115 40q-74 0 -118 -42t-44 -107q0 -68 47 -109t115 -41z" />
    <glyph glyph-name="uni2466" unicode="&#x2466;" horiz-adv-x="2207" 
d="M1843 63q-289 -286 -739 -286t-739 286q-293 287 -293 719q0 434 293 721q291 285 739 285t739 -285q293 -287 293 -721q0 -432 -293 -719zM575 258q209 -209 529 -209q318 0 530 209q209 206 209 524t-209 527q-213 207 -530 207q-318 0 -529 -207q-210 -207 -210 -527
t210 -524zM1155 311h-217q8 353 297 690h-436v185h661v-170q-153 -166 -225 -330q-73 -163 -80 -375z" />
    <glyph glyph-name="uni2467" unicode="&#x2467;" horiz-adv-x="2207" 
d="M1843 63q-289 -286 -739 -286t-739 286q-293 287 -293 719q0 434 293 721q291 285 739 285t739 -285q293 -287 293 -721q0 -432 -293 -719zM575 258q209 -209 529 -209q318 0 530 209q209 206 209 524t-209 527q-213 207 -530 207q-318 0 -529 -207q-210 -207 -210 -527
t210 -524zM1106 319q-184 0 -289 75q-104 74 -104 206q0 83 47 142q46 58 129 81v6q-56 22 -94 74q-37 50 -37 111q0 109 91 170t257 61q165 0 255 -62q91 -63 91 -169q0 -67 -37 -116q-39 -52 -94 -69v-6q83 -23 129 -81q47 -59 47 -142q0 -131 -103 -206
q-104 -75 -288 -75zM997 913q43 -28 109 -28q65 0 108 28q40 28 42 77q2 48 -39 75q-39 27 -111 27t-111 -27q-41 -29 -41 -76q0 -48 43 -76zM973 510q49 -37 133 -37t133 37q49 34 49 94t-48 95q-47 34 -134 34q-86 0 -135 -34t-49 -95t51 -94z" />
    <glyph glyph-name="uni2468" unicode="&#x2468;" horiz-adv-x="2207" 
d="M1843 63q-289 -286 -739 -286t-739 286q-293 287 -293 719q0 434 293 721q291 285 739 285t739 -285q293 -287 293 -721q0 -432 -293 -719zM575 258q209 -209 529 -209q318 0 530 209q209 206 209 524t-209 527q-213 207 -530 207q-318 0 -529 -207q-210 -207 -210 -527
t210 -524zM1108 319q-128 0 -219 54q-89 53 -113 141l207 27q34 -64 131 -64q174 0 184 250q-82 -106 -239 -106q-141 0 -229 86q-87 85 -87 221q0 140 99 229q98 88 258 88q192 0 296 -120q103 -119 103 -337q0 -229 -99 -349t-292 -120zM1108 778q75 0 118 42
q44 42 44 108q0 68 -46 108q-47 41 -116 41q-74 0 -116 -44q-42 -43 -42 -109t43 -106t115 -40z" />
    <glyph glyph-name="uni24EA" unicode="&#x24ea;" horiz-adv-x="2207" 
d="M1843 63q-289 -286 -739 -286t-739 286q-293 287 -293 719q0 434 293 721q291 285 739 285t739 -285q293 -287 293 -721q0 -432 -293 -719zM575 258q209 -209 529 -209q318 0 530 209q209 206 209 524t-209 527q-213 207 -530 207q-318 0 -529 -207q-210 -207 -210 -527
t210 -524zM1389 442q-99 -123 -285 -123q-187 0 -283 123q-98 122 -98 346q0 223 98 340q99 119 283 119q183 0 282 -119q99 -118 99 -340t-96 -346zM946 784q0 -278 158 -278t158 278q0 144 -38 211q-38 66 -120 66t-120 -66q-38 -67 -38 -211z" />
    <glyph glyph-name="uni24FF" unicode="&#x24ff;" horiz-adv-x="2207" 
d="M1843 63q-289 -286 -739 -286t-739 286q-293 287 -293 719q0 434 293 721q291 285 739 285t739 -285q293 -287 293 -721q0 -432 -293 -719zM821 442q96 -123 283 -123q186 0 285 123q96 124 96 346t-99 340q-99 119 -282 119q-184 0 -283 -119q-98 -117 -98 -340
q0 -224 98 -346zM1262 784q0 -278 -158 -278t-158 278q0 144 38 211q38 66 120 66t120 -66q38 -67 38 -211z" />
    <glyph glyph-name="filledbox" unicode="&#x25a0;" horiz-adv-x="2125" 
d="M1993 -180h-1860v1818h1860v-1818z" />
    <glyph glyph-name="uni25A1" unicode="&#x25a1;" horiz-adv-x="2125" 
d="M1993 -180h-1860v1818h1860v-1818zM428 1366v-1274h1270v1274h-1270z" />
    <glyph glyph-name="lozenge" unicode="&#x25ca;" horiz-adv-x="1228" 
d="M424 1458h381l356 -729l-356 -729h-381l-356 729zM352 729l262 -565l263 565l-263 565z" />
    <glyph glyph-name="circle" unicode="&#x25cb;" horiz-adv-x="2207" 
d="M1843 63q-289 -286 -739 -286t-739 286q-293 287 -293 719q0 434 293 721q291 285 739 285t739 -285q293 -287 293 -721q0 -432 -293 -719zM575 258q209 -209 529 -209q318 0 530 209q209 206 209 524t-209 527q-213 207 -530 207q-318 0 -529 -207q-210 -207 -210 -527
t210 -524z" />
    <glyph glyph-name="uni25CF" unicode="&#x25cf;" horiz-adv-x="2207" 
d="M1843 63q-289 -286 -739 -286t-739 286q-293 287 -293 719q0 434 293 721q291 285 739 285t739 -285q293 -287 293 -721q0 -432 -293 -719z" />
    <glyph glyph-name="uni2776" unicode="&#x2776;" horiz-adv-x="2207" 
d="M1843 63q-289 -286 -739 -286t-739 286q-293 287 -293 719q0 434 293 721q291 285 739 285t739 -285q293 -287 293 -721q0 -432 -293 -719zM1034 915v-563h205v875h-190v-19q0 -63 -48 -102q-46 -37 -122 -37h-62v-154h217z" />
    <glyph glyph-name="uni2777" unicode="&#x2777;" horiz-adv-x="2207" 
d="M365 1503q291 285 739 285t739 -285q293 -287 293 -721q0 -432 -293 -719q-289 -286 -739 -286t-739 286q-293 287 -293 719q0 434 293 721zM1438 360v181h-439q6 46 66 80l205 110q170 92 170 248q0 125 -92 200q-90 74 -250 74q-163 0 -250 -74q-88 -75 -90 -221h196
q8 123 142 123q65 0 102 -28t37 -78q0 -70 -94 -121l-199 -111q-99 -55 -139 -143q-41 -90 -41 -240h676z" />
    <glyph glyph-name="uni2778" unicode="&#x2778;" horiz-adv-x="2207" 
d="M1843 63q-289 -286 -739 -286t-739 286q-293 287 -293 719q0 434 293 721q291 285 739 285t739 -285q293 -287 293 -721q0 -432 -293 -719zM846 399q92 -80 258 -80q168 0 262 76q96 78 96 197q0 80 -48 138q-49 59 -126 77v2q146 41 146 188q0 113 -91 181
q-89 67 -247 67q-160 0 -247 -71q-90 -73 -97 -207h196q12 106 146 106q67 0 103 -26q38 -27 38 -74q0 -94 -133 -94h-78v-170h72q159 0 159 -107q0 -110 -151 -110q-154 0 -162 129h-197q6 -145 101 -222z" />
    <glyph glyph-name="uni2779" unicode="&#x2779;" horiz-adv-x="2207" 
d="M1843 63q-289 -286 -739 -286t-739 286q-293 287 -293 719q0 434 293 721q291 285 739 285t739 -285q293 -287 293 -721q0 -432 -293 -719zM1120 522v-160h195v160l141 -6v184l-141 -6v543h-232l-403 -555v-166zM1120 993v-299l-215 4l211 295h4z" />
    <glyph glyph-name="uni277A" unicode="&#x277a;" horiz-adv-x="2207" 
d="M365 1503q291 285 739 285t739 -285q293 -287 293 -721q0 -432 -293 -719q-289 -286 -739 -286t-739 286q-293 287 -293 719q0 434 293 721zM1116 313q163 0 261 88q100 89 100 226q0 133 -86 213t-224 80q-105 0 -188 -50l-4 2l31 172h411v177h-555l-78 -500l197 -25
q58 58 139 58q70 0 110 -36t40 -102q0 -64 -39 -98q-40 -35 -113 -35q-111 0 -145 84l-205 -24q27 -106 119 -168t229 -62z" />
    <glyph glyph-name="uni277B" unicode="&#x277b;" horiz-adv-x="2207" 
d="M1843 63q-289 -286 -739 -286t-739 286q-293 287 -293 719q0 434 293 721q291 285 739 285t739 -285q293 -287 293 -721q0 -432 -293 -719zM1128 319q158 0 258 89q99 88 99 229q0 135 -87 221q-88 86 -229 86q-157 0 -239 -106q10 249 184 249q98 0 131 -63l207 27
q-24 88 -113 141t-219 53q-193 0 -292 -120t-99 -349q0 -216 104 -337q104 -120 295 -120zM1120 487q-68 0 -115 41t-47 109q0 65 44 107t118 42q72 0 115 -40t43 -105q0 -67 -42 -110q-42 -44 -116 -44z" />
    <glyph glyph-name="uni277C" unicode="&#x277c;" horiz-adv-x="2207" 
d="M1843 63q-289 -286 -739 -286t-739 286q-293 287 -293 719q0 434 293 721q291 285 739 285t739 -285q293 -287 293 -721q0 -432 -293 -719zM936 311h217q10 212 80 375q72 164 225 330v170h-661v-185h436q-289 -337 -297 -690z" />
    <glyph glyph-name="uni277D" unicode="&#x277d;" horiz-adv-x="2207" 
d="M1843 63q-289 -286 -739 -286t-739 286q-293 287 -293 719q0 434 293 721q291 285 739 285t739 -285q293 -287 293 -721q0 -432 -293 -719zM1106 319q184 0 288 75q103 75 103 206q0 83 -47 142q-46 58 -129 81v6q55 17 94 69q37 49 37 116q0 106 -91 169q-90 62 -255 62
q-166 0 -257 -61t-91 -170q0 -61 37 -111q38 -52 94 -74v-6q-83 -23 -129 -81q-47 -59 -47 -142q0 -132 104 -206q105 -75 289 -75zM1214 913q-43 -28 -108 -28q-66 0 -109 28t-43 76t41 75q42 28 111 28q72 0 111 -27q41 -27 39 -75q-2 -49 -42 -77zM1239 510
q-49 -37 -133 -37t-133 37q-51 33 -51 94t49 95t135 34q87 0 134 -34q48 -34 48 -95q0 -60 -49 -94z" />
    <glyph glyph-name="uni277E" unicode="&#x277e;" horiz-adv-x="2207" 
d="M1843 63q-289 -286 -739 -286t-739 286q-293 287 -293 719q0 434 293 721q291 285 739 285t739 -285q293 -287 293 -721q0 -432 -293 -719zM1104 319q193 0 292 120t99 349q0 218 -103 337q-104 120 -296 120q-160 0 -258 -88q-99 -89 -99 -229q0 -136 87 -221
q88 -86 229 -86q157 0 239 106q-10 -250 -184 -250q-97 0 -131 64l-207 -27q24 -88 113 -141q91 -54 219 -54zM1104 778q-72 0 -115 40t-43 106t42 109q42 44 116 44q69 0 116 -41q46 -40 46 -108q0 -66 -44 -108t-118 -42z" />
    <glyph glyph-name="uni2E18" unicode="&#x2e18;" horiz-adv-x="1265" 
d="M494 1057h311v-307h-311v307zM924 53h284q-6 -235 -148 -361t-411 -126q-277 0 -427 111t-150 315q0 226 204 332l89 47q93 47 136 92t54 115h186l60 -453v-137h-303v137l8 63q-5 0 -10 -4l-7 -4q-112 -57 -112 -166q0 -192 274 -192q142 0 206 53q62 52 67 178z" />
    <glyph glyph-name="uniF8FF" unicode="&#xf8ff;" horiz-adv-x="2015" 
d="M813 1333q-22 25 -59 25q-50 0 -80 -37q-31 -39 -31 -100v-301h-154v778h154v-291q55 90 162 90q84 0 135 -55q49 -52 49 -158v-364h-153v335q0 50 -23 78zM1694 1698h153v-778h-153v778zM1352 899q-134 0 -214 84q-79 83 -79 221q0 129 76 211t200 82q131 0 210 -85
t79 -230v-27h-410q7 -62 43 -99q35 -36 91 -36q80 0 110 72l152 -11q-55 -182 -258 -182zM1341 1384q-54 0 -87 -33q-34 -34 -40 -91h252q-6 59 -40 92q-33 32 -85 32zM1593 870q131 0 210 -85t79 -230v-27h-409q7 -62 43 -99q34 -36 90 -36q80 0 110 72l152 -10
q-56 -183 -258 -183q-134 0 -214 84q-79 83 -79 222q0 128 76 210t200 82zM983 293l-186 563h161l48 -168q23 -82 57 -223q34 151 55 223l51 168h156l-186 -563h-156zM1599 758q-53 0 -87 -34q-33 -33 -39 -91h251q-6 59 -40 92q-35 33 -85 33zM702 297h-153v141h153v-141z
M365 397v-176l104 2v-112l-104 2v-277q0 -53 53 -53h51v-123h-100q-86 0 -123 37t-37 121v295l-76 -2v112l76 -2v176h156zM1040 117q-125 0 -125 -176q0 -179 125 -179q82 0 109 93h149q-16 -100 -85 -157q-68 -56 -175 -56q-126 0 -197 80q-73 82 -73 219q0 134 73 216
q72 81 197 81q107 0 177 -56q68 -55 83 -155h-149q-29 90 -109 90zM1855 27v-248q0 -85 21 -119h-156q-3 12 -7 36q-3 20 -3 21q-61 -73 -174 -73q-87 0 -142 47t-55 125q0 136 172 170l197 39v41q0 61 -94 61q-91 0 -103 -74l-139 2q15 181 240 181q243 0 243 -209z
M702 -340h-153v563h153v-563zM1579 -244q56 0 93 35q36 35 36 94v41l-143 -30q-74 -15 -74 -72q0 -68 88 -68z" />
    <glyph glyph-name="uniFEFF" unicode="&#xfeff;" horiz-adv-x="0" 
 />
    <glyph glyph-name="null" horiz-adv-x="0" 
 />
    <glyph glyph-name="Adieresis.ss01" horiz-adv-x="1472" 
d="M627 1651q-46 -49 -121 -49t-121 49q-47 47 -47 118q0 74 47 121t121 47t121 -47t47 -121q0 -71 -47 -118zM1126 1651q-46 -49 -120 -49q-75 0 -121 49q-47 47 -47 118q0 74 47 121t121 47q73 0 120 -47q48 -48 48 -121q0 -70 -48 -118zM1421 0h-323l-99 303h-528
l-98 -303h-322l516 1458h351zM612 733l-59 -180h367l-60 180l-123 420z" />
    <glyph glyph-name="Cdotaccent.ss01" horiz-adv-x="1419" 
d="M864 1651q-46 -49 -121 -49q-74 0 -120 49q-48 48 -48 118q0 73 48 121q47 47 120 47q74 0 121 -47t47 -121q0 -71 -47 -118zM750 -47q-298 0 -488 213q-190 212 -190 563q0 348 192 555q195 207 490 207q266 0 430 -138q163 -138 184 -378h-289q-18 121 -99 187
q-82 67 -212 67q-184 0 -289 -135q-104 -134 -104 -365q0 -239 104 -376q105 -138 289 -138q134 0 213 72q80 73 98 190h287q-18 -245 -182 -385q-163 -139 -434 -139z" />
    <glyph glyph-name="Edieresis.ss01" horiz-adv-x="1296" 
d="M528 1651q-46 -49 -120 -49q-75 0 -121 49q-47 47 -47 118q0 74 47 121t121 47q73 0 120 -47t47 -121q0 -71 -47 -118zM1028 1651q-46 -49 -121 -49t-121 49q-47 47 -47 118q0 74 47 121t121 47t121 -47t47 -121q0 -71 -47 -118zM436 627v-371h778v-256h-1081v1458h1061
v-256h-758v-315h682v-260h-682z" />
    <glyph glyph-name="Edotaccent.ss01" horiz-adv-x="1296" 
d="M778 1651q-46 -49 -121 -49q-74 0 -120 49q-48 48 -48 118q0 73 48 121q47 47 120 47q74 0 121 -47t47 -121q0 -71 -47 -118zM436 627v-371h778v-256h-1081v1458h1061v-256h-758v-315h682v-260h-682z" />
    <glyph glyph-name="uni0122.ss01" horiz-adv-x="1519" 
d="M778 788h608v-788h-196l-47 158q-128 -191 -408 -191q-284 0 -473 209q-190 205 -190 553q0 347 192 553q190 207 488 207q263 0 426 -128q160 -126 198 -364l-297 -18q-22 118 -102 184q-79 66 -209 66q-184 0 -289 -135q-104 -134 -104 -365q0 -237 104 -375
q105 -139 289 -139q141 0 238 83q95 82 118 237h-346v253zM723 -137q195 0 195 -209v-29q0 -243 -238 -243h-96v106h75q71 0 104 28q32 27 32 89v10q-26 -10 -68 -10q-174 0 -174 131q0 127 170 127z" />
    <glyph glyph-name="Gdotaccent.ss01" horiz-adv-x="1519" 
d="M881 1651q-46 -49 -121 -49t-121 49q-47 47 -47 118q0 74 47 121t121 47t121 -47t47 -121q0 -71 -47 -118zM778 788h608v-788h-196l-47 158q-128 -191 -408 -191q-284 0 -473 209q-190 205 -190 553q0 347 192 553q190 207 488 207q263 0 426 -128q160 -126 198 -364
l-297 -18q-22 118 -102 184q-79 66 -209 66q-184 0 -289 -135q-104 -134 -104 -365q0 -237 104 -375q105 -139 289 -139q141 0 238 83q95 82 118 237h-346v253z" />
    <glyph glyph-name="Idieresis.ss01" horiz-adv-x="569" 
d="M156 1651q-46 -49 -121 -49t-121 49q-47 47 -47 118q0 74 47 121t121 47t121 -47t47 -121q0 -71 -47 -118zM655 1651q-46 -49 -120 -49q-75 0 -121 49q-47 47 -47 118q0 74 47 121t121 47q73 0 120 -47t47 -121q0 -71 -47 -118zM436 0h-303v1458h303v-1458z" />
    <glyph glyph-name="Idotaccent.ss01" horiz-adv-x="569" 
d="M406 1651q-46 -49 -121 -49t-121 49q-47 47 -47 118q0 74 47 121t121 47t121 -47t47 -121q0 -71 -47 -118zM436 0h-303v1458h303v-1458z" />
    <glyph glyph-name="uni0136.ss01" horiz-adv-x="1417" 
d="M1339 1458l-553 -586l621 -872h-375l-461 670l-135 -135v-535h-303v1458h303v-563l516 563h387zM721 -137q194 0 194 -209v-29q0 -243 -237 -243h-96v106h75q71 0 104 28q32 27 32 89v10q-29 -10 -68 -10q-174 0 -174 131q0 127 170 127z" />
    <glyph glyph-name="uni013B.ss01" horiz-adv-x="1177" 
d="M436 1458v-1188h711v-270h-1014v1458h303zM629 -137q194 0 194 -209v-29q0 -243 -237 -243h-97v106h76q71 0 104 28q31 27 31 89v10q-26 -10 -67 -10q-174 0 -174 131q0 127 170 127z" />
    <glyph glyph-name="Ldot.ss01" horiz-adv-x="1177" 
d="M436 1458v-1188h711v-270h-1014v1458h303zM1004 684q-51 -51 -136 -51q-82 0 -133 51q-51 50 -51 127q0 78 51 129q50 49 133 49q84 0 136 -49q53 -51 53 -129q0 -77 -53 -127z" />
    <glyph glyph-name="uni0145.ss01" horiz-adv-x="1443" 
d="M1008 522v936h303v-1458h-297l-578 936v-936h-303v1458h297zM711 -137q194 0 194 -209v-29q0 -243 -237 -243h-97v106h76q71 0 104 28q31 27 31 89v10q-26 -10 -67 -10q-174 0 -174 131q0 127 170 127z" />
    <glyph glyph-name="Odieresis.ss01" horiz-adv-x="1527" 
d="M635 1651q-46 -49 -121 -49t-121 49q-47 47 -47 118q0 74 47 121t121 47t121 -47t47 -121q0 -71 -47 -118zM1135 1651q-46 -49 -121 -49t-121 49q-47 47 -47 118q0 74 47 121t121 47t121 -47t47 -121q0 -71 -47 -118zM1257 168q-201 -215 -497 -215q-297 0 -492 215
q-196 212 -196 563q0 345 194 555q195 207 494 207q296 0 497 -207q199 -208 199 -555q0 -349 -199 -563zM479 356q102 -141 281 -141t287 141q106 139 106 375q0 227 -106 363q-107 137 -287 137t-281 -137q-104 -138 -104 -363q0 -235 104 -375z" />
    <glyph glyph-name="uni0156.ss01" horiz-adv-x="1386" 
d="M995 700q111 -23 156 -80q46 -58 61 -157l60 -463h-311l-35 375q-10 99 -61 145q-49 45 -160 45h-269v-565h-303v1458h680q241 0 352 -112q109 -115 109 -289q0 -283 -279 -357zM436 1204v-393h291q124 0 187 54t63 151q0 89 -52 138q-53 50 -157 50h-332zM686 -137
q195 0 195 -209v-29q0 -243 -238 -243h-96v106h76q70 0 103 28q32 27 32 89v10q-26 -10 -68 -10q-174 0 -174 131q0 127 170 127z" />
    <glyph glyph-name="uni0218.ss01" horiz-adv-x="1357" 
d="M590 903l291 -72q397 -96 397 -419q0 -213 -155 -336t-425 -123q-283 0 -447 133q-165 134 -171 367h297q6 -121 90 -187q83 -65 229 -65q125 0 197 48t72 134q0 72 -52 110t-172 68l-268 68q-174 44 -265 147q-93 105 -93 258q0 190 141 324q139 133 403 133t422 -131
q157 -133 172 -348h-295q-15 109 -94 170t-202 61q-112 0 -177 -49t-65 -127q0 -120 170 -164zM686 -160q195 0 195 -209v-28q0 -244 -238 -244h-96v106h76q70 0 103 28q32 27 32 89v10q-26 -10 -68 -10q-174 0 -174 131q0 127 170 127z" />
    <glyph glyph-name="uni021A.ss01" horiz-adv-x="1259" 
d="M41 1458h1178v-270h-437v-1188h-303v1188h-438v270zM618 -137q195 0 195 -209v-29q0 -243 -238 -243h-96v106h76q70 0 103 28q32 27 32 89v10q-29 -10 -67 -10q-174 0 -174 131q0 127 169 127z" />
    <glyph glyph-name="Udieresis.ss01" horiz-adv-x="1398" 
d="M571 1651q-46 -49 -120 -49q-75 0 -121 49q-47 47 -47 118q0 74 47 121t121 47q73 0 120 -47t47 -121q0 -71 -47 -118zM1071 1651q-46 -49 -121 -49t-121 49q-47 47 -47 118q0 74 47 121t121 47t121 -47t47 -121q0 -71 -47 -118zM1116 82q-150 -129 -418 -129t-415 129
q-150 129 -150 367v1009h303v-1014q0 -229 264 -229q263 0 263 229v1014h303v-1009q0 -238 -150 -367z" />
    <glyph glyph-name="Wdieresis.ss01" horiz-adv-x="1988" 
d="M870 1651q-46 -49 -120 -49q-75 0 -121 49q-47 47 -47 118q0 74 47 121t121 47q73 0 120 -47q48 -48 48 -121q0 -70 -48 -118zM1370 1651q-46 -49 -121 -49t-121 49q-47 47 -47 118q0 74 47 121t121 47t121 -47t47 -121q0 -71 -47 -118zM1438 729l188 729h311l-426 -1458
h-290l-224 995l-225 -995h-295l-426 1458h322l188 -729l70 -293l59 293l160 729h299l160 -729l59 -293z" />
    <glyph glyph-name="Ydieresis.ss01" horiz-adv-x="1343" 
d="M543 1651q-46 -49 -121 -49t-121 49q-47 47 -47 118q0 74 47 121t121 47t121 -47t47 -121q0 -71 -47 -118zM1042 1651q-46 -49 -120 -49q-75 0 -121 49q-47 47 -47 118q0 74 47 121t121 47q73 0 120 -47q48 -48 48 -121q0 -70 -48 -118zM756 1006l225 452h326l-484 -893
v-565h-303v565l-483 893h334l221 -452l80 -203z" />
    <glyph glyph-name="Zdotaccent.ss01" horiz-adv-x="1394" 
d="M819 1651q-46 -49 -121 -49q-74 0 -120 49q-48 48 -48 118q0 73 48 121q47 47 120 47q74 0 121 -47t47 -121q0 -71 -47 -118zM145 1458h1155v-235l-804 -965h804v-258h-1206v236l805 964h-754v258z" />
    <glyph glyph-name="G.ss03" horiz-adv-x="1488" 
d="M756 788h657q4 -61 4 -98q0 -332 -176 -528q-179 -195 -481 -195q-313 0 -502 209q-186 207 -186 553q0 352 186 557q189 207 510 207q259 0 426 -137t197 -381h-291q-27 123 -115 189q-90 67 -223 67q-184 0 -286 -130q-101 -129 -101 -370q0 -239 101 -370
q102 -132 296 -132q292 0 336 306h-352v253z" />
    <glyph glyph-name="uni01F4.ss03" horiz-adv-x="1488" 
d="M711 1860h352l-256 -289h-193zM756 788h657q4 -61 4 -98q0 -332 -176 -528q-179 -195 -481 -195q-313 0 -502 209q-186 207 -186 553q0 352 186 557q189 207 510 207q259 0 426 -137t197 -381h-291q-27 123 -115 189q-90 67 -223 67q-184 0 -286 -130
q-101 -129 -101 -370q0 -239 101 -370q102 -132 296 -132q292 0 336 306h-352v253z" />
    <glyph glyph-name="Gbreve.ss03" horiz-adv-x="1488" 
d="M1042 1659q-86 -86 -276 -86q-188 0 -272 86q-85 85 -91 246h177q6 -144 188 -144t188 144h177q-6 -161 -91 -246zM756 788h657q4 -61 4 -98q0 -332 -176 -528q-179 -195 -481 -195q-313 0 -502 209q-186 207 -186 553q0 352 186 557q189 207 510 207q259 0 426 -137
t197 -381h-291q-27 123 -115 189q-90 67 -223 67q-184 0 -286 -130q-101 -129 -101 -370q0 -239 101 -370q102 -132 296 -132q292 0 336 306h-352v253z" />
    <glyph glyph-name="Gcircumflex.ss03" horiz-adv-x="1488" 
d="M891 1591l-123 168l-123 -168h-256l246 301h266l246 -301h-256zM756 788h657q4 -61 4 -98q0 -332 -176 -528q-179 -195 -481 -195q-313 0 -502 209q-186 207 -186 553q0 352 186 557q189 207 510 207q259 0 426 -137t197 -381h-291q-27 123 -115 189q-90 67 -223 67
q-184 0 -286 -130q-101 -129 -101 -370q0 -239 101 -370q102 -132 296 -132q292 0 336 306h-352v253z" />
    <glyph glyph-name="uni0122.ss03" horiz-adv-x="1488" 
d="M756 788h657q4 -61 4 -98q0 -332 -176 -528q-179 -195 -481 -195q-313 0 -502 209q-186 207 -186 553q0 352 186 557q189 207 510 207q259 0 426 -137t197 -381h-291q-27 123 -115 189q-90 67 -223 67q-184 0 -286 -130q-101 -129 -101 -370q0 -239 101 -370
q102 -132 296 -132q292 0 336 306h-352v253zM774 -360h-201v237h324v-285q0 -208 -229 -208h-95v104h95q106 0 106 104v48z" />
    <glyph glyph-name="Gdotaccent.ss03" horiz-adv-x="1488" 
d="M623 1860h288v-263h-288v263zM756 788h657q4 -61 4 -98q0 -332 -176 -528q-179 -195 -481 -195q-313 0 -502 209q-186 207 -186 553q0 352 186 557q189 207 510 207q259 0 426 -137t197 -381h-291q-27 123 -115 189q-90 67 -223 67q-184 0 -286 -130q-101 -129 -101 -370
q0 -239 101 -370q102 -132 296 -132q292 0 336 306h-352v253z" />
    <glyph glyph-name="uni0122.ss01.ss03" horiz-adv-x="1488" 
d="M756 788h657q4 -61 4 -98q0 -332 -176 -528q-179 -195 -481 -195q-313 0 -502 209q-186 207 -186 553q0 352 186 557q189 207 510 207q259 0 426 -137t197 -381h-291q-27 123 -115 189q-90 67 -223 67q-184 0 -286 -130q-101 -129 -101 -370q0 -239 101 -370
q102 -132 296 -132q292 0 336 306h-352v253zM723 -137q195 0 195 -209v-29q0 -243 -238 -243h-96v106h75q71 0 104 28q32 27 32 89v10q-26 -10 -68 -10q-174 0 -174 131q0 127 170 127z" />
    <glyph glyph-name="Gdotaccent.ss01.ss03" horiz-adv-x="1488" 
d="M889 1651q-46 -49 -121 -49t-121 49q-47 47 -47 118q0 74 47 121t121 47t121 -47t47 -121q0 -71 -47 -118zM756 788h657q4 -61 4 -98q0 -332 -176 -528q-179 -195 -481 -195q-313 0 -502 209q-186 207 -186 553q0 352 186 557q189 207 510 207q259 0 426 -137t197 -381
h-291q-27 123 -115 189q-90 67 -223 67q-184 0 -286 -130q-101 -129 -101 -370q0 -239 101 -370q102 -132 296 -132q292 0 336 306h-352v253z" />
    <glyph glyph-name="R.ss04" horiz-adv-x="1372" 
d="M1352 0h-332l-344 551h-240v-551h-303v1458h645q238 0 377 -123q137 -123 137 -323q0 -154 -82 -264q-83 -111 -235 -162zM774 1202h-338v-397h338q99 0 157 55t58 144q0 93 -56 145q-58 53 -159 53z" />
    <glyph glyph-name="Racute.ss04" horiz-adv-x="1372" 
d="M618 1860h353l-256 -289h-193zM1352 0h-332l-344 551h-240v-551h-303v1458h645q238 0 377 -123q137 -123 137 -323q0 -154 -82 -264q-83 -111 -235 -162zM774 1202h-338v-397h338q99 0 157 55t58 144q0 93 -56 145q-58 53 -159 53z" />
    <glyph glyph-name="Rcaron.ss04" horiz-adv-x="1372" 
d="M1055 1872l-246 -301h-266l-246 301h256l123 -168l123 168h256zM1352 0h-332l-344 551h-240v-551h-303v1458h645q238 0 377 -123q137 -123 137 -323q0 -154 -82 -264q-83 -111 -235 -162zM774 1202h-338v-397h338q99 0 157 55t58 144q0 93 -56 145q-58 53 -159 53z" />
    <glyph glyph-name="uni0156.ss04" horiz-adv-x="1372" 
d="M975 586l377 -586h-332l-344 551h-240v-551h-303v1458h645q238 0 377 -123q137 -123 137 -323q0 -154 -82 -264q-83 -111 -235 -162zM774 1202h-338v-397h338q99 0 157 55t58 144q0 93 -56 145q-58 53 -159 53zM715 -360h-201v237h324v-285q0 -208 -230 -208h-94v104h94
q107 0 107 104v48z" />
    <glyph glyph-name="uni0156.ss01.ss04" horiz-adv-x="1372" 
d="M975 586l377 -586h-332l-344 551h-240v-551h-303v1458h645q238 0 377 -123q137 -123 137 -323q0 -154 -82 -264q-83 -111 -235 -162zM774 1202h-338v-397h338q99 0 157 55t58 144q0 93 -56 145q-58 53 -159 53zM664 -137q194 0 194 -209v-29q0 -243 -237 -243h-97v106h76
q70 0 103 28q32 27 32 89v10q-26 -10 -67 -10q-174 0 -174 131q0 127 170 127z" />
    <glyph glyph-name="i.loclTRK" horiz-adv-x="534" 
d="M412 1196h-289v262h289v-262zM412 0h-289v1057h289v-1057z" />
    <glyph glyph-name="adieresis.ss01" horiz-adv-x="1140" 
d="M434 1235q-46 -49 -121 -49q-74 0 -120 49q-48 48 -48 119q0 73 48 121q47 47 120 47q74 0 121 -47t47 -121q0 -72 -47 -119zM934 1235q-46 -49 -121 -49t-121 49q-47 47 -47 119q0 74 47 121t121 47t121 -47t47 -121q0 -72 -47 -119zM1059 0h-293q-23 104 -23 106
q-113 -137 -325 -137q-166 0 -266 88q-101 89 -101 234q0 256 322 319l368 74v78q0 115 -178 115q-88 0 -133 -33q-44 -33 -55 -107l-264 4q27 340 450 340q457 0 457 -393v-467q0 -148 41 -221zM500 182q108 0 175 65q66 65 66 175v78l-270 -58q-137 -27 -137 -133
q0 -57 44 -92t122 -35z" />
    <glyph glyph-name="cdotaccent.ss01" horiz-adv-x="1122" 
d="M707 1235q-46 -49 -121 -49t-121 49q-47 47 -47 119q0 74 47 121t121 47t121 -47t47 -121q0 -72 -47 -119zM575 -35q-230 0 -370 152q-137 151 -137 407q0 257 137 408q139 151 370 151q203 0 330 -103t160 -292h-283q-47 170 -202 170q-110 0 -172 -87q-62 -88 -62 -247
q0 -158 62 -246t172 -88q152 0 202 175h283q-33 -189 -162 -294q-130 -106 -328 -106z" />
    <glyph glyph-name="edieresis.ss01" horiz-adv-x="1193" 
d="M469 1235q-46 -49 -121 -49t-121 49q-47 47 -47 119q0 74 47 121t121 47t121 -47t47 -121q0 -72 -47 -119zM969 1235q-46 -49 -121 -49t-121 49q-47 47 -47 119q0 74 47 121t121 47t121 -47t47 -121q0 -72 -47 -119zM1130 492v-50h-765q8 -119 73 -186q66 -68 174 -68
q153 0 205 138l287 -21q-52 -167 -178 -255q-124 -87 -308 -87q-255 0 -403 160q-147 159 -147 409q0 240 141 396q140 155 379 155q240 0 391 -159q151 -161 151 -432zM758 811q-61 61 -160 61q-100 0 -162 -61q-64 -67 -74 -172h469q-12 111 -73 172z" />
    <glyph glyph-name="edotaccent.ss01" horiz-adv-x="1193" 
d="M719 1235q-46 -49 -121 -49t-121 49q-47 47 -47 119q0 74 47 121t121 47t121 -47t47 -121q0 -72 -47 -119zM1130 492v-50h-765q8 -119 73 -186q66 -68 174 -68q153 0 205 138l287 -21q-52 -167 -178 -255q-124 -87 -308 -87q-255 0 -403 160q-147 159 -147 409
q0 240 141 396q140 155 379 155q240 0 391 -159q151 -161 151 -432zM758 811q-61 61 -160 61q-100 0 -162 -61q-64 -67 -74 -172h469q-12 111 -73 172z" />
    <glyph glyph-name="uni0123.ss01" horiz-adv-x="1218" 
d="M580 1190q-193 0 -193 199v28q0 100 63 157q62 56 173 56h96v-106h-76q-62 0 -98 -22q-35 -21 -35 -54v-31q29 13 74 13q166 0 166 -119q0 -121 -170 -121zM829 926l11 131h256v-1069q0 -208 -132 -319t-372 -111q-220 0 -345 92t-141 264h267q24 -141 213 -141
q119 0 170 52q51 53 51 159v145q-107 -129 -287 -129q-200 0 -325 154q-127 151 -127 395q0 246 127 391q124 143 325 143q204 0 309 -157zM584 246q105 0 171 84t66 219t-66 219t-171 84q-106 0 -172 -82t-66 -221t66 -221t172 -82z" />
    <glyph glyph-name="gdotaccent.ss01" horiz-adv-x="1218" 
d="M688 1235q-46 -49 -121 -49t-121 49q-47 47 -47 119q0 74 47 121t121 47t121 -47t47 -121q0 -72 -47 -119zM829 926l11 131h256v-1069q0 -208 -132 -319t-372 -111q-220 0 -345 92t-141 264h267q24 -141 213 -141q119 0 170 52q51 53 51 159v145q-107 -129 -287 -129
q-200 0 -325 154q-127 151 -127 395q0 246 127 391q124 143 325 143q204 0 309 -157zM584 246q105 0 171 84t66 219t-66 219t-171 84q-106 0 -172 -82t-66 -221t66 -221t172 -82z" />
    <glyph glyph-name="i.ss01" horiz-adv-x="534" 
d="M387 1233q-47 -45 -119 -45q-71 0 -116 45q-46 46 -46 117q0 70 46 118t116 48q71 0 119 -48q47 -47 47 -118q0 -72 -47 -117zM412 0h-289v1057h289v-1057z" />
    <glyph glyph-name="idieresis.ss01" horiz-adv-x="534" 
d="M139 1235q-46 -49 -121 -49q-74 0 -120 49q-48 48 -48 119q0 73 48 121q47 47 120 47q74 0 121 -47t47 -121q0 -72 -47 -119zM639 1235q-46 -49 -121 -49t-121 49q-47 47 -47 119q0 74 47 121t121 47t121 -47t47 -121q0 -72 -47 -119zM412 0h-289v1057h289v-1057z" />
    <glyph glyph-name="i.loclTRK.ss01" horiz-adv-x="534" 
d="M387 1233q-47 -45 -119 -45q-71 0 -116 45q-46 46 -46 117q0 70 46 118t116 48q71 0 119 -48q47 -47 47 -118q0 -72 -47 -117zM412 0h-289v1057h289v-1057z" />
    <glyph glyph-name="ij.ss01" horiz-adv-x="1069" 
d="M387 1233q-47 -45 -119 -45q-71 0 -116 45q-46 46 -46 117q0 70 46 118t116 48q71 0 119 -48q47 -47 47 -118q0 -72 -47 -117zM922 1233q-45 -45 -117 -45q-73 0 -119 45q-47 45 -47 117q0 71 47 118q48 48 119 48t117 -48q45 -46 45 -118t-45 -117zM412 0h-289v1057h289
v-1057zM668 -418h-189v254h74q58 0 82 19q22 18 22 65v1137h289v-1176q0 -161 -64 -229q-65 -70 -214 -70z" />
    <glyph glyph-name="iogonek.ss01" horiz-adv-x="534" 
d="M389 1235q-46 -49 -121 -49t-121 49q-47 47 -47 119q0 74 47 121t121 47t121 -47t47 -121q0 -72 -47 -119zM178 0h-55v1057h289v-1057l-107 -90q-69 -57 -69 -109q0 -75 102 -75h74v-179h-150q-264 0 -264 191q0 64 37 116t143 146z" />
    <glyph glyph-name="j.ss01" horiz-adv-x="534" 
d="M387 1233q-47 -45 -119 -45q-71 0 -116 45q-46 46 -46 117q0 70 46 118t116 48q71 0 119 -48q47 -47 47 -118q0 -72 -47 -117zM133 -418h-188v254h73q58 0 82 19q23 18 23 65v1137h289v-1176q0 -159 -65 -229t-214 -70z" />
    <glyph glyph-name="uni0137.ss01" horiz-adv-x="1171" 
d="M1133 1057l-412 -416l420 -641h-342l-281 459l-106 -109v-350h-289v1458h289v-801l358 400h363zM586 -137q194 0 194 -209v-29q0 -243 -237 -243h-97v106h76q71 0 104 28q31 27 31 89v10q-29 -10 -67 -10q-174 0 -174 131q0 127 170 127z" />
    <glyph glyph-name="uni013C.ss01" horiz-adv-x="534" 
d="M123 1458h289v-1458h-289v1458zM256 -137q195 0 195 -209v-29q0 -243 -238 -243h-96v106h76q70 0 103 28q32 27 32 89v10q-26 -10 -68 -10q-174 0 -174 131q0 127 170 127z" />
    <glyph glyph-name="ldot.ss01" horiz-adv-x="935" 
d="M412 0h-289v1458h289v-1458zM852 610q-51 -51 -135 -51q-82 0 -133 51q-52 50 -52 127t52 129q50 49 133 49t135 -49q53 -51 53 -129q0 -77 -53 -127z" />
    <glyph glyph-name="napostrophe.ss01" horiz-adv-x="1806" 
d="M319 1475q92 0 145 -61q52 -59 52 -169v-143q0 -277 -293 -277h-39v131h39q135 0 135 136v26h-39q-89 0 -142 49q-54 49 -54 129t54 129q55 50 142 50zM1337 1083q164 0 255 -100t91 -274v-709h-288v643q0 87 -40 133q-41 47 -114 47q-92 0 -149 -70q-58 -72 -58 -188
v-565h-289v1057h283l4 -144q102 170 305 170z" />
    <glyph glyph-name="uni0146.ss01" horiz-adv-x="1183" 
d="M715 1083q164 0 255 -100t91 -274v-709h-289v643q0 87 -40 133q-41 47 -114 47q-92 0 -149 -70q-57 -71 -57 -188v-565h-289v1057h283l4 -144q102 170 305 170zM580 -137q194 0 194 -209v-29q0 -243 -237 -243h-97v106h76q71 0 104 28q31 27 31 89v10q-29 -10 -67 -10
q-174 0 -174 131q0 127 170 127z" />
    <glyph glyph-name="odieresis.ss01" horiz-adv-x="1212" 
d="M479 1235q-46 -49 -121 -49q-74 0 -120 49q-48 48 -48 119q0 73 48 121q47 47 120 47q74 0 121 -47t47 -121q0 -72 -47 -119zM979 1235q-46 -49 -121 -49t-121 49q-47 47 -47 119q0 74 47 121t121 47t121 -47t47 -121q0 -72 -47 -119zM997 125q-151 -160 -389 -160
t-389 160q-151 157 -151 399q0 241 151 402q151 157 389 157t389 -157q152 -163 152 -402q0 -241 -152 -399zM418 281q73 -91 190 -91q120 0 193 91q69 89 69 243q0 156 -69 244q-72 90 -193 90q-118 0 -190 -90t-72 -244q0 -153 72 -243z" />
    <glyph glyph-name="uni0157.ss01" horiz-adv-x="774" 
d="M641 1094q51 0 92 -15v-264q-47 4 -59 4q-262 0 -262 -305v-514h-289v1057h283l-5 -142q69 179 240 179zM256 -137q195 0 195 -209v-29q0 -243 -238 -243h-96v106h76q70 0 103 28q32 27 32 89v10q-26 -10 -68 -10q-174 0 -174 131q0 127 170 127z" />
    <glyph glyph-name="uni0219.ss01" horiz-adv-x="1105" 
d="M498 664l227 -48q157 -33 233 -106t76 -197q0 -163 -126 -258q-125 -94 -343 -94q-214 0 -336 91t-143 263l264 11q29 -164 225 -164q87 0 140 31q51 30 51 86q0 78 -139 106l-209 41q-307 61 -307 309q0 160 116 254t314 94q191 0 313 -91t143 -247l-260 -10
q-11 71 -64 109q-54 39 -136 39q-70 0 -115 -31q-43 -30 -43 -82q0 -79 119 -106zM555 -137q195 0 195 -209v-29q0 -243 -238 -243h-96v106h76q70 0 103 28q32 27 32 89v10q-29 -10 -68 -10q-174 0 -174 131q0 127 170 127z" />
    <glyph glyph-name="uni021B.ss01" horiz-adv-x="700" 
d="M659 844l-196 6v-518q0 -54 23 -77q24 -24 77 -24h96v-231h-188q-159 0 -228 69t-69 228v553l-143 -6v213l143 -4v329h289v-331l196 6v-213zM317 -137q195 0 195 -209v-29q0 -243 -238 -243h-96v106h76q70 0 103 28q32 27 32 89v10q-26 -10 -67 -10q-175 0 -175 131
q0 127 170 127z" />
    <glyph glyph-name="udieresis.ss01" horiz-adv-x="1183" 
d="M463 1235q-46 -49 -121 -49t-121 49q-47 47 -47 119q0 74 47 121t121 47t121 -47t47 -121q0 -72 -47 -119zM963 1235q-46 -49 -121 -49t-121 49q-47 47 -47 119q0 74 47 121t121 47t121 -47t47 -121q0 -72 -47 -119zM772 492v565h289v-1057h-283l-4 143
q-102 -170 -305 -170q-163 0 -255 101q-91 100 -91 274v709h289v-643q0 -87 40 -133q42 -48 113 -48q93 0 150 71q57 70 57 188z" />
    <glyph glyph-name="wdieresis.ss01" horiz-adv-x="1591" 
d="M668 1235q-46 -49 -121 -49t-121 49q-47 47 -47 119q0 74 47 121t121 47t121 -47t47 -121q0 -72 -47 -119zM1167 1235q-46 -49 -120 -49q-75 0 -121 49q-47 47 -47 119q0 74 47 121t121 47q73 0 120 -47t47 -121q0 -72 -47 -119zM1141 588l116 469h304l-314 -1057h-274
l-152 588l-24 139l-27 -139l-152 -588h-274l-313 1057h303l117 -469l49 -266l49 266l119 469h256l118 -465l50 -270z" />
    <glyph glyph-name="ydieresis.ss01" horiz-adv-x="1138" 
d="M446 1235q-46 -49 -120 -49q-75 0 -121 49q-47 47 -47 119q0 74 47 121t121 47q73 0 120 -47q48 -48 48 -121q0 -71 -48 -119zM946 1235q-46 -49 -121 -49q-74 0 -120 49q-48 48 -48 119q0 73 48 121q47 47 120 47q74 0 121 -47t47 -121q0 -72 -47 -119zM575 309l226 748
h307l-422 -1245q-44 -132 -112 -181t-189 -49h-242v246h140q116 0 149 90l10 29l-411 1110h317l195 -594z" />
    <glyph glyph-name="zdotaccent.ss01" horiz-adv-x="993" 
d="M639 1235q-46 -49 -121 -49t-121 49q-47 47 -47 119q0 74 47 121t121 47t121 -47t47 -121q0 -72 -47 -119zM932 821l-526 -583h546v-238h-911v231l543 588h-478v238h826v-236z" />
    <glyph glyph-name="a.ss02" horiz-adv-x="1222" 
d="M838 932l8 125h254v-1057h-254l-10 143q-92 -168 -314 -168q-206 0 -331 149q-123 147 -123 404q0 260 131 406q129 147 327 147q212 0 312 -149zM590 197q237 0 237 331q0 332 -237 332q-236 0 -236 -332q0 -331 236 -331z" />
    <glyph glyph-name="aacute.ss02" horiz-adv-x="1222" 
d="M545 1458h352l-256 -289h-192zM838 932l8 125h254v-1057h-254l-10 143q-92 -168 -314 -168q-206 0 -331 149q-123 147 -123 404q0 260 131 406q129 147 327 147q212 0 312 -149zM590 197q237 0 237 331q0 332 -237 332q-236 0 -236 -332q0 -331 236 -331z" />
    <glyph glyph-name="abreve.ss02" horiz-adv-x="1222" 
d="M877 1257q-86 -86 -277 -86q-189 0 -272 86q-84 84 -90 246h176q6 -143 188 -143q183 0 189 143h176q-6 -162 -90 -246zM838 932l8 125h254v-1057h-254l-10 143q-92 -168 -314 -168q-206 0 -331 149q-123 147 -123 404q0 260 131 406q129 147 327 147q212 0 312 -149z
M590 197q237 0 237 331q0 332 -237 332q-236 0 -236 -332q0 -331 236 -331z" />
    <glyph glyph-name="acircumflex.ss02" horiz-adv-x="1222" 
d="M725 1190l-123 168l-123 -168h-256l246 301h266l246 -301h-256zM838 932l8 125h254v-1057h-254l-10 143q-92 -168 -314 -168q-206 0 -331 149q-123 147 -123 404q0 260 131 406q129 147 327 147q212 0 312 -149zM590 197q237 0 237 331q0 332 -237 332q-236 0 -236 -332
q0 -331 236 -331z" />
    <glyph glyph-name="adieresis.ss02" horiz-adv-x="1222" 
d="M242 1458h288v-262h-288v262zM674 1458h289v-262h-289v262zM838 932l8 125h254v-1057h-254l-10 143q-92 -168 -314 -168q-206 0 -331 149q-123 147 -123 404q0 260 131 406q129 147 327 147q212 0 312 -149zM590 197q237 0 237 331q0 332 -237 332q-236 0 -236 -332
q0 -331 236 -331z" />
    <glyph glyph-name="agrave.ss02" horiz-adv-x="1222" 
d="M659 1458l97 -289h-193l-256 289h352zM838 932l8 125h254v-1057h-254l-10 143q-92 -168 -314 -168q-206 0 -331 149q-123 147 -123 404q0 260 131 406q129 147 327 147q212 0 312 -149zM590 197q237 0 237 331q0 332 -237 332q-236 0 -236 -332q0 -331 236 -331z" />
    <glyph glyph-name="amacron.ss02" horiz-adv-x="1222" 
d="M231 1456h744v-215h-744v215zM838 932l8 125h254v-1057h-254l-10 143q-92 -168 -314 -168q-206 0 -331 149q-123 147 -123 404q0 260 131 406q129 147 327 147q212 0 312 -149zM590 197q237 0 237 331q0 332 -237 332q-236 0 -236 -332q0 -331 236 -331z" />
    <glyph glyph-name="aogonek.ss02" horiz-adv-x="1222" 
d="M1100 0l-107 -90q-69 -57 -69 -109q0 -75 102 -75h74v-179h-150q-264 0 -264 191q0 64 37 116t143 146l19 16l-43 156q-102 -176 -326 -176q-212 0 -330 141q-118 140 -118 391q0 260 131 406q129 147 327 147q212 0 312 -149l8 125h254v-1057zM590 207q237 0 237 332
q0 331 -237 331q-236 0 -236 -331q0 -332 236 -332z" />
    <glyph glyph-name="aring.ss02" horiz-adv-x="1222" 
d="M819 1255q-86 -86 -217 -86t-217 86q-86 84 -86 215q0 132 86 218t217 86t217 -86t86 -218q0 -131 -86 -215zM707 1577q-39 41 -103 41q-63 0 -104 -41t-41 -107q0 -65 41 -104t104 -39q64 0 103 39q38 38 38 104q0 68 -38 107zM838 932l8 125h254v-1057h-254l-10 143
q-92 -168 -314 -168q-206 0 -331 149q-123 147 -123 404q0 260 131 406q129 147 327 147q212 0 312 -149zM590 197q237 0 237 331q0 332 -237 332q-236 0 -236 -332q0 -331 236 -331z" />
    <glyph glyph-name="aringacute.ss02" horiz-adv-x="1222" 
d="M545 2134h352l-256 -289h-192zM819 1247q-86 -86 -217 -86t-217 86q-86 84 -86 215t86 217t217 86t217 -86t86 -217t-86 -215zM707 1569q-39 41 -103 41q-63 0 -104 -41t-41 -107q0 -65 41 -104t104 -39q64 0 103 39q38 38 38 104q0 68 -38 107zM838 932l8 125h254v-1057
h-254l-10 143q-92 -168 -314 -168q-206 0 -331 149q-123 147 -123 404q0 260 131 406q129 147 327 147q212 0 312 -149zM590 197q237 0 237 331q0 332 -237 332q-236 0 -236 -332q0 -331 236 -331z" />
    <glyph glyph-name="atilde.ss02" horiz-adv-x="1222" 
d="M475 1309q-86 0 -86 -109h-221q0 365 262 365q79 0 172 -54q89 -55 127 -55q86 0 86 109h221q0 -365 -262 -365q-82 0 -170 55q-93 54 -129 54zM838 932l8 125h254v-1057h-254l-10 143q-92 -168 -314 -168q-206 0 -331 149q-123 147 -123 404q0 260 131 406
q129 147 327 147q212 0 312 -149zM590 197q237 0 237 331q0 332 -237 332q-236 0 -236 -332q0 -331 236 -331z" />
    <glyph glyph-name="adieresis.ss01.ss02" horiz-adv-x="1222" 
d="M473 1235q-46 -49 -121 -49t-121 49q-47 47 -47 119q0 74 47 121t121 47t121 -47t47 -121q0 -72 -47 -119zM973 1235q-46 -49 -121 -49t-121 49q-47 47 -47 119q0 74 47 121t121 47t121 -47t47 -121q0 -72 -47 -119zM838 932l8 125h254v-1057h-254l-10 143
q-92 -168 -314 -168q-206 0 -331 149q-123 147 -123 404q0 260 131 406q129 147 327 147q212 0 312 -149zM590 197q237 0 237 331q0 332 -237 332q-236 0 -236 -332q0 -331 236 -331z" />
    <glyph glyph-name="uni021B.ss01.ss05" horiz-adv-x="690" 
d="M489 1382v-331l170 6v-213l-170 6v-850h-288v850l-170 -6v213l170 -6v331h288zM334 -137q194 0 194 -209v-29q0 -243 -237 -243h-96v106h75q71 0 104 28q32 27 32 89v10q-29 -10 -68 -10q-174 0 -174 131q0 127 170 127z" />
    <glyph glyph-name="udieresis.ss01.ss05" horiz-adv-x="1183" 
d="M463 1235q-46 -49 -121 -49t-121 49q-47 47 -47 119q0 74 47 121t121 47t121 -47t47 -121q0 -72 -47 -119zM963 1235q-46 -49 -121 -49t-121 49q-47 47 -47 119q0 74 47 121t121 47t121 -47t47 -121q0 -72 -47 -119zM772 492v565h289v-1057h-283l-4 143
q-102 -170 -305 -170q-163 0 -255 101q-91 100 -91 274v709h289v-643q0 -87 40 -133q42 -48 113 -48q93 0 150 71q57 70 57 188z" />
    <glyph glyph-name="t.ss05" horiz-adv-x="690" 
d="M489 1051l170 6v-213l-170 6v-850h-288v850l-170 -6v213l170 -6v331h288v-331z" />
    <glyph glyph-name="tbar.ss05" horiz-adv-x="690" 
d="M489 569l175 6v-213l-175 7v-369h-288v369l-168 -7v213l168 -6v281l-170 -6v213l170 -6v331h288v-331l170 6v-213l-170 6v-281z" />
    <glyph glyph-name="tcaron.ss05" horiz-adv-x="794" 
d="M590 1167l100 447h307l-184 -447h-223zM201 1382h288v-331l170 6v-213l-170 6v-850h-288v850l-170 -6v213l170 -6v331z" />
    <glyph glyph-name="uni0163.ss05" horiz-adv-x="690" 
d="M489 850v-850h-61l-78 -117h23q93 0 149 -48t56 -132q0 -103 -78 -160t-213 -57h-101v131h72q92 0 92 61q0 54 -57 54h-45l-76 106l102 162h-73v850l-170 -6v213l170 -6v331h288v-331l170 6v-213z" />
    <glyph glyph-name="uni021B.ss05" horiz-adv-x="690" 
d="M489 1382v-331l170 6v-213l-170 6v-850h-288v850l-170 -6v213l170 -6v331h288zM385 -360h-201v237h324v-285q0 -208 -229 -208h-95v104h95q106 0 106 104v48z" />
    <glyph glyph-name="udieresis.ss01.ss06" horiz-adv-x="1183" 
d="M463 1235q-46 -49 -121 -49t-121 49q-47 47 -47 119q0 74 47 121t121 47t121 -47t47 -121q0 -72 -47 -119zM963 1235q-46 -49 -121 -49t-121 49q-47 47 -47 119q0 74 47 121t121 47t121 -47t47 -121q0 -72 -47 -119zM938 82q-129 -109 -346 -109q-218 0 -344 109
q-125 107 -125 307v668h289v-664q0 -194 180 -194t180 194v664h289v-668q0 -201 -123 -307z" />
    <glyph glyph-name="u.ss06" horiz-adv-x="1183" 
d="M938 82q-129 -109 -346 -109q-218 0 -344 109q-125 107 -125 307v668h289v-664q0 -194 180 -194t180 194v664h289v-668q0 -201 -123 -307z" />
    <glyph glyph-name="uacute.ss06" horiz-adv-x="1183" 
d="M631 1169h-193l97 289h352zM938 82q-129 -109 -346 -109q-218 0 -344 109q-125 107 -125 307v668h289v-664q0 -194 180 -194t180 194v664h289v-668q0 -201 -123 -307z" />
    <glyph glyph-name="ubreve.ss06" horiz-adv-x="1183" 
d="M866 1257q-86 -86 -276 -86q-189 0 -273 86q-84 84 -90 246h176q6 -143 189 -143q182 0 188 143h176q-6 -162 -90 -246zM938 82q-129 -109 -346 -109q-218 0 -344 109q-125 107 -125 307v668h289v-664q0 -194 180 -194t180 194v664h289v-668q0 -201 -123 -307z" />
    <glyph glyph-name="ucircumflex.ss06" horiz-adv-x="1183" 
d="M469 1190h-256l246 301h266l246 -301h-256l-123 168zM938 82q-129 -109 -346 -109q-218 0 -344 109q-125 107 -125 307v668h289v-664q0 -194 180 -194t180 194v664h289v-668q0 -201 -123 -307z" />
    <glyph glyph-name="udieresis.ss06" horiz-adv-x="1183" 
d="M520 1196h-289v262h289v-262zM952 1196h-288v262h288v-262zM938 82q-129 -109 -346 -109q-218 0 -344 109q-125 107 -125 307v668h289v-664q0 -194 180 -194t180 194v664h289v-668q0 -201 -123 -307z" />
    <glyph glyph-name="ugrave.ss06" horiz-adv-x="1183" 
d="M745 1169h-192l-256 289h352zM938 82q-129 -109 -346 -109q-218 0 -344 109q-125 107 -125 307v668h289v-664q0 -194 180 -194t180 194v664h289v-668q0 -201 -123 -307z" />
    <glyph glyph-name="uhungarumlaut.ss06" horiz-adv-x="1183" 
d="M436 1169h-192l116 320h312zM844 1169h-193l137 320h312zM938 82q-129 -109 -346 -109q-218 0 -344 109q-125 107 -125 307v668h289v-664q0 -194 180 -194t180 194v664h289v-668q0 -201 -123 -307z" />
    <glyph glyph-name="umacron.ss06" horiz-adv-x="1183" 
d="M965 1241h-744v215h744v-215zM938 82q-129 -109 -346 -109q-218 0 -344 109q-125 107 -125 307v668h289v-664q0 -194 180 -194t180 194v664h289v-668q0 -201 -123 -307z" />
    <glyph glyph-name="uogonek.ss06" horiz-adv-x="1183" 
d="M772 393v664h289v-668q0 -154 -78 -256t-221 -139l-98 -84q-70 -58 -70 -109q0 -75 102 -75h74v-179h-170q-264 0 -264 191q0 66 39 121q38 54 131 118q-183 21 -283 127t-100 285v668h289v-664q0 -194 180 -194t180 194z" />
    <glyph glyph-name="uring.ss06" horiz-adv-x="1183" 
d="M809 1255q-86 -86 -217 -86t-217 86q-86 84 -86 215q0 132 86 218t217 86t217 -86t86 -218q0 -131 -86 -215zM489 1366q41 -39 104 -39t103 39q41 39 41 104q0 66 -41 107t-104 41q-64 0 -103 -41q-38 -39 -38 -107q0 -66 38 -104zM938 82q-129 -109 -346 -109
q-218 0 -344 109q-125 107 -125 307v668h289v-664q0 -194 180 -194t180 194v664h289v-668q0 -201 -123 -307z" />
    <glyph glyph-name="utilde.ss06" horiz-adv-x="1183" 
d="M379 1200h-221q0 365 262 365q77 0 170 -54q89 -55 129 -55q86 0 86 109h221q0 -365 -262 -365q-81 0 -170 55q-93 54 -129 54q-86 0 -86 -109zM938 82q-129 -109 -346 -109q-218 0 -344 109q-125 107 -125 307v668h289v-664q0 -194 180 -194t180 194v664h289v-668
q0 -201 -123 -307z" />
    <glyph glyph-name="ydieresis.ss01.ss07" horiz-adv-x="1138" 
d="M440 1235q-46 -49 -121 -49q-74 0 -120 49q-47 47 -47 119q0 74 47 121t120 47q74 0 121 -47t47 -121q0 -72 -47 -119zM940 1235q-46 -49 -121 -49t-121 49q-47 47 -47 119q0 74 47 121t121 47t121 -47t47 -121q0 -72 -47 -119zM582 330l219 727h307l-500 -1475h-289
l127 363l-415 1112h317l195 -594q11 -28 39 -133z" />
    <glyph glyph-name="y.ss07" horiz-adv-x="1138" 
d="M582 330l219 727h307l-500 -1475h-289l127 363l-415 1112h317l195 -594q11 -28 39 -133z" />
    <glyph glyph-name="yacute.ss07" horiz-adv-x="1138" 
d="M512 1458h352l-256 -289h-192zM582 330l219 727h307l-500 -1475h-289l127 363l-415 1112h317l195 -594q11 -28 39 -133z" />
    <glyph glyph-name="ycircumflex.ss07" horiz-adv-x="1138" 
d="M692 1190l-123 168l-123 -168h-256l246 301h266l246 -301h-256zM582 330l219 727h307l-500 -1475h-289l127 363l-415 1112h317l195 -594q11 -28 39 -133z" />
    <glyph glyph-name="ydieresis.ss07" horiz-adv-x="1138" 
d="M209 1458h289v-262h-289v262zM641 1458h289v-262h-289v262zM582 330l219 727h307l-500 -1475h-289l127 363l-415 1112h317l195 -594q11 -28 39 -133z" />
    <glyph glyph-name="ygrave.ss07" horiz-adv-x="1138" 
d="M627 1458l96 -289h-193l-256 289h353zM582 330l219 727h307l-500 -1475h-289l127 363l-415 1112h317l195 -594q11 -28 39 -133z" />
    <glyph glyph-name="l.ss08" horiz-adv-x="638" 
d="M588 0h-168q-160 0 -229 69q-68 68 -68 228v1161h289v-1126q0 -54 23 -77q24 -24 77 -24h76v-231z" />
    <glyph glyph-name="lacute.ss08" horiz-adv-x="638" 
d="M307 1571h-192l96 289h352zM588 0h-168q-160 0 -229 69q-68 68 -68 228v1161h289v-1126q0 -54 23 -77q24 -24 77 -24h76v-231z" />
    <glyph glyph-name="lcaron.ss08" horiz-adv-x="980" 
d="M588 0h-168q-160 0 -229 69q-68 68 -68 228v1161h289v-1126q0 -54 23 -77q24 -24 77 -24h76v-231zM797 1012h-224l101 446h307z" />
    <glyph glyph-name="uni013C.ss08" horiz-adv-x="638" 
d="M512 231h76v-231h-168q-160 0 -229 69q-68 68 -68 228v1161h289v-1126q0 -54 23 -77q24 -24 77 -24zM307 -360h-201v237h324v-285q0 -208 -229 -208h-95v104h95q106 0 106 104v48z" />
    <glyph glyph-name="ldot.ss08" horiz-adv-x="864" 
d="M588 0h-168q-160 0 -229 69q-68 68 -68 228v1161h289v-1126q0 -54 23 -77q24 -24 77 -24h76v-231zM831 584h-311v307h311v-307z" />
    <glyph glyph-name="lslash.ss08" horiz-adv-x="780" 
d="M621 231h75v-231h-168q-159 0 -228 69t-69 228v246l-163 -99v269l163 82v663h289v-502l162 97v-269l-162 -82v-370q0 -53 24 -77t77 -24z" />
    <glyph glyph-name="uni013C.ss01.ss08" horiz-adv-x="638" 
d="M512 231h76v-231h-168q-160 0 -229 69q-68 68 -68 228v1161h289v-1126q0 -54 23 -77q24 -24 77 -24zM256 -137q195 0 195 -209v-29q0 -243 -238 -243h-96v106h76q70 0 103 28q32 27 32 89v10q-26 -10 -68 -10q-174 0 -174 131q0 127 170 127z" />
    <glyph glyph-name="ldot.ss01.ss08" horiz-adv-x="935" 
d="M588 0h-168q-160 0 -229 69q-68 68 -68 228v1161h289v-1126q0 -54 23 -77q24 -24 77 -24h76v-231zM852 610q-51 -51 -135 -51q-82 0 -133 51q-52 50 -52 127t52 129q50 49 133 49t135 -49q53 -51 53 -129q0 -77 -53 -127z" />
    <glyph glyph-name="fi.ss01" horiz-adv-x="1222" 
d="M1075 1233q-47 -45 -119 -45q-71 0 -116 45t-45 117t45 118q46 48 116 48q71 0 119 -48q47 -47 47 -118q0 -72 -47 -117zM178 1051v69q0 164 87 251t251 87h152v-231h-80q-121 0 -121 -121v-55l201 6v-213l-201 6v-850h-289v850l-147 -6v213zM1100 0h-289v1057h289v-1057
z" />
    <glyph glyph-name="fl.ss08" horiz-adv-x="1327" 
d="M178 1051v69q0 164 87 251t251 87h152v-231h-80q-121 0 -121 -121v-55l201 6v-213l-201 6v-850h-289v850l-147 -6v213zM1200 231h76v-231h-168q-159 0 -228 69t-69 228v1161h289v-1126q0 -54 23 -77q24 -24 77 -24z" />
    <glyph glyph-name="ordfeminine.ss02" horiz-adv-x="942" 
d="M588 1368l8 92h223v-698h-223l-6 82q-89 -113 -225 -113q-132 0 -215 107q-82 106 -82 274q0 172 80 273q81 102 217 102q134 0 223 -119zM442 934q86 -6 123 88t0 189q-38 95 -123 89q-61 0 -96 -47t-35 -137q0 -88 35 -135t96 -47z" />
    <glyph glyph-name="t.sups.ss05" horiz-adv-x="610" 
d="M426 1456l154 4v-170l-154 4v-532h-240v532l-155 -4v170l155 -4v211h240v-211z" />
    <glyph glyph-name="zero.ss09" horiz-adv-x="2125" 
d="M1993 -180h-1860v1818h1860v-1818zM780 408q96 -123 283 -123q186 0 285 123q96 124 96 346q0 223 -98 340q-99 118 -283 118t-283 -118q-98 -117 -98 -340q0 -224 98 -346zM1221 750q0 -279 -158 -279t-158 279q0 144 38 211q37 65 120 65t120 -65q38 -67 38 -211z" />
    <glyph glyph-name="one.ss09" horiz-adv-x="2125" 
d="M1993 -180h-1860v1818h1860v-1818zM1004 881v-564h204v875h-190v-18q0 -65 -47 -103q-46 -37 -123 -37h-62v-153h218z" />
    <glyph glyph-name="two.ss09" horiz-adv-x="2125" 
d="M133 -180v1818h1860v-1818h-1860zM1399 328v180h-438q6 46 65 80l205 110q170 92 170 248q0 125 -92 200q-91 75 -250 75q-161 0 -250 -75t-90 -220h196q11 123 142 123q64 0 102 -29q37 -28 37 -78q0 -70 -94 -121l-199 -110q-98 -55 -139 -144q-41 -90 -41 -239h676z
" />
    <glyph glyph-name="three.ss09" horiz-adv-x="2125" 
d="M1993 -180h-1860v1818h1860v-1818zM805 365q92 -80 258 -80q169 0 262 75q96 78 96 197q0 79 -48 138q-49 59 -126 77v2q146 41 146 189q0 113 -90 180q-89 67 -248 67q-160 0 -247 -71q-90 -73 -97 -207h196q12 106 146 106q67 0 103 -26q38 -27 38 -74q0 -94 -133 -94
h-78v-170h72q159 0 159 -107q0 -110 -151 -110q-155 0 -162 129h-196q6 -145 100 -221z" />
    <glyph glyph-name="four.ss09" horiz-adv-x="2125" 
d="M1993 -180h-1860v1818h1860v-1818zM1108 471v-160h195v160l141 -6v184l-141 -6v543h-232l-403 -555v-166zM1108 643l-215 4l211 295h4v-299z" />
    <glyph glyph-name="five.ss09" horiz-adv-x="2125" 
d="M133 -180v1818h1860v-1818h-1860zM1057 274q163 0 261 88q99 89 99 226q0 133 -86 213t-223 80q-103 0 -188 -50l-5 3l31 172h412v176h-555l-78 -500l197 -25q58 58 139 58q69 0 109 -36t40 -101q0 -64 -39 -99q-40 -35 -112 -35q-111 0 -146 84l-204 -24
q27 -107 118 -168q92 -62 230 -62z" />
    <glyph glyph-name="six.ss09" horiz-adv-x="2125" 
d="M1993 -180h-1860v1818h1860v-1818zM1096 285q160 0 258 88t98 229q0 136 -87 221q-88 86 -228 86q-158 0 -240 -106q10 250 184 250q97 0 131 -64l207 27q-24 89 -112 141q-89 53 -220 53q-193 0 -291 -119q-100 -121 -100 -350q0 -216 104 -337q103 -119 296 -119z
M1087 453q-68 0 -115 41q-46 40 -46 108q0 66 44 108t117 42q72 0 115 -40t43 -106t-42 -109q-42 -44 -116 -44z" />
    <glyph glyph-name="seven.ss09" horiz-adv-x="2125" 
d="M1993 -180h-1860v1818h1860v-1818zM881 297h217q7 210 80 375q71 162 225 329v170h-662v-184h437q-290 -337 -297 -690z" />
    <glyph glyph-name="eight.ss09" horiz-adv-x="2125" 
d="M1993 -180h-1860v1818h1860v-1818zM1065 285q186 0 288 74q103 75 103 206q0 84 -47 143q-45 57 -129 80v7q56 18 94 68q37 49 37 116q0 106 -91 169q-90 62 -255 62q-166 0 -257 -61t-91 -170q0 -61 37 -111q37 -51 94 -73v-7q-84 -23 -129 -80q-47 -59 -47 -143
q0 -132 104 -206t289 -74zM1174 879q-44 -29 -109 -29t-109 29q-43 28 -43 75q0 48 41 75q42 28 111 28q72 0 111 -27q40 -27 39 -75q-2 -48 -41 -76zM1198 475q-49 -37 -133 -37t-133 37q-51 33 -51 94q0 62 49 96q47 33 135 33t134 -33q48 -35 48 -96t-49 -94z" />
    <glyph glyph-name="nine.ss09" horiz-adv-x="2125" 
d="M1993 -180h-1860v1818h1860v-1818zM1044 285q194 0 292 119q100 121 100 350q0 216 -104 337q-103 119 -296 119q-160 0 -258 -88t-98 -229q0 -135 87 -221q88 -86 228 -86q158 0 240 106q-10 -250 -184 -250q-97 0 -131 64l-207 -27q24 -89 112 -141q89 -53 219 -53z
M1044 743q-71 0 -114 40t-43 106q0 65 42 109t115 44q69 0 116 -41q46 -40 46 -108q0 -66 -44 -108t-118 -42z" />
    <glyph glyph-name="zero.ss10" horiz-adv-x="2125" 
d="M1993 -180h-1860v1818h1860v-1818zM428 1366v-1274h1270v1274h-1270zM1348 408q-99 -123 -285 -123q-187 0 -283 123q-98 122 -98 346q0 223 98 340q99 118 283 118t283 -118q98 -117 98 -340q0 -222 -96 -346zM905 750q0 -279 158 -279t158 279q0 144 -38 211
q-37 65 -120 65t-120 -65q-38 -67 -38 -211z" />
    <glyph glyph-name="one.ss10" horiz-adv-x="2125" 
d="M1993 -180h-1860v1818h1860v-1818zM428 1366v-1274h1270v1274h-1270zM1208 317h-204v564h-218v153h62q77 0 123 37q47 38 47 103v18h190v-875z" />
    <glyph glyph-name="two.ss10" horiz-adv-x="2125" 
d="M1993 -180h-1860v1818h1860v-1818zM428 1366v-1274h1270v1274h-1270zM1403 307h-676q0 150 41 240q40 88 139 143l199 111q94 51 94 121q0 49 -37 77q-38 29 -102 29q-131 0 -141 -123h-197q1 145 90 220t250 75q159 0 250 -75q92 -75 92 -199q0 -156 -170 -248
l-205 -111q-59 -34 -65 -80h438v-180z" />
    <glyph glyph-name="three.ss10" horiz-adv-x="2125" 
d="M1993 -180h-1860v1818h1860v-1818zM428 1366v-1274h1270v1274h-1270zM1323 356q-93 -75 -262 -75q-167 0 -258 79q-95 77 -101 222h197q11 -129 162 -129t151 110q0 107 -159 107h-72v170h78q133 0 133 94q0 47 -38 74q-36 26 -103 26q-134 0 -146 -106h-196
q7 134 97 207q87 71 247 71q158 0 247 -67q91 -68 91 -181q0 -147 -146 -188v-2q77 -18 126 -77q48 -59 48 -138q0 -119 -96 -197z" />
    <glyph glyph-name="four.ss10" horiz-adv-x="2125" 
d="M1993 -180h-1860v1818h1860v-1818zM428 1366v-1274h1270v1274h-1270zM1300 309h-194v160l-440 -6v166l403 555h231v-543l142 6v-184l-142 6v-160zM1102 940l-211 -295l215 -4v299h-4z" />
    <glyph glyph-name="five.ss10" horiz-adv-x="2125" 
d="M1993 -180h-1860v1818h1860v-1818zM428 1366v-1274h1270v1274h-1270zM1059 274q-138 0 -230 62q-91 61 -118 168l204 24q35 -84 146 -84q73 0 113 35q38 34 38 99t-40 101t-109 36q-81 0 -139 -58l-197 25l78 500h555v-176h-412l-30 -172l4 -3q83 50 188 50
q137 0 223 -80t86 -213q0 -137 -99 -226q-98 -88 -261 -88z" />
    <glyph glyph-name="six.ss10" horiz-adv-x="2125" 
d="M1993 -180h-1860v1818h1860v-1818zM428 1366v-1274h1270v1274h-1270zM1094 274q-192 0 -296 120q-104 121 -104 337q0 228 100 349q99 120 291 120q131 0 220 -53q88 -52 112 -141l-207 -27q-33 63 -131 63q-174 0 -184 -249q82 106 240 106q140 0 228 -86
q87 -86 87 -221q0 -142 -98 -230t-258 -88zM1085 442q74 0 116 44t42 110q0 65 -43 105t-115 40q-73 0 -117 -42t-44 -107q0 -69 46 -109q47 -41 115 -41z" />
    <glyph glyph-name="seven.ss10" horiz-adv-x="2125" 
d="M1993 -180h-1860v1818h1860v-1818zM428 1366v-1274h1270v1274h-1270zM1112 297h-217q7 353 297 690h-436v184h661v-170q-154 -167 -225 -329q-70 -165 -80 -375z" />
    <glyph glyph-name="eight.ss10" horiz-adv-x="2125" 
d="M1993 -180h-1860v1818h1860v-1818zM428 1366v-1274h1270v1274h-1270zM1065 274q-184 0 -289 75q-104 74 -104 206q0 83 47 142t129 81v6q-56 22 -94 74q-37 50 -37 111q0 109 91 170t257 61q165 0 255 -62q91 -63 91 -169q0 -67 -37 -116q-39 -52 -94 -69v-6
q82 -22 129 -81t47 -142q0 -131 -103 -206t-288 -75zM956 868q43 -28 109 -28t109 28q39 28 41 77q1 48 -39 75q-39 27 -111 27t-111 -27q-41 -29 -41 -76q0 -48 43 -76zM932 465q49 -37 133 -37t133 37q49 34 49 94q0 61 -48 95q-47 34 -134 34q-86 0 -135 -34t-49 -95
t51 -94z" />
    <glyph glyph-name="nine.ss10" horiz-adv-x="2125" 
d="M1993 -180h-1860v1818h1860v-1818zM428 1366v-1274h1270v1274h-1270zM1049 279q-131 0 -220 53q-88 52 -112 141l207 27q34 -64 131 -64q174 0 184 250q-82 -106 -240 -106q-140 0 -228 86q-87 86 -87 221q0 141 98 229t258 88q192 0 296 -120q104 -121 104 -336
q0 -229 -100 -350q-98 -119 -291 -119zM1049 737q73 0 117 42t44 108q0 68 -46 108q-47 41 -115 41q-74 0 -116 -44t-42 -109q0 -66 43 -106t115 -40z" />
    <glyph glyph-name="zero.zero" 
d="M236 1292q157 199 440 199t440 -199q156 -198 156 -555q0 -363 -157 -567q-156 -203 -439 -203t-439 203q-157 204 -157 567q0 357 156 555zM676 1235q-289 0 -289 -504q0 -230 59 -358l357 831q-57 31 -127 31zM676 223q289 0 289 508q0 237 -62 361l-358 -836
q51 -33 131 -33z" />
    <glyph glyph-name="zero.dnom" horiz-adv-x="872" 
d="M721 90q-99 -123 -285 -123t-282 123q-99 123 -99 346q0 222 99 340q99 119 282 119q184 0 283 -119q98 -117 98 -340q0 -222 -96 -346zM279 432q0 -278 157 -278q158 0 158 278q0 144 -38 211q-38 66 -120 66t-120 -66q-37 -65 -37 -211z" />
    <glyph glyph-name="one.dnom" horiz-adv-x="606" 
d="M483 0h-204v563h-218v154h62q77 0 123 37q47 38 47 102v18h190v-874z" />
    <glyph glyph-name="two.dnom" horiz-adv-x="886" 
d="M782 0h-676q0 150 41 240q40 87 140 143l198 111q95 51 95 120q0 50 -37 78q-38 29 -103 29q-134 0 -141 -123h-197q1 144 91 220q89 75 249 75q158 0 250 -75t92 -200q0 -155 -170 -247l-204 -111q-60 -34 -66 -80h438v-180z" />
    <glyph glyph-name="three.dnom" horiz-adv-x="913" 
d="M721 43q-94 -76 -262 -76q-166 0 -258 80q-95 77 -101 221h197q11 -129 162 -129t151 111q0 106 -159 106h-72v170h78q133 0 133 95q0 46 -38 73q-37 27 -103 27q-134 0 -146 -107h-197q7 133 98 207q89 72 247 72q156 0 247 -68q90 -67 90 -180q0 -148 -145 -188v-2
q77 -18 126 -77q48 -58 48 -138q0 -119 -96 -197z" />
    <glyph glyph-name="four.dnom" horiz-adv-x="915" 
d="M696 0h-194v160l-441 -6v165l404 555h231v-542l142 6v-184l-142 6v-160zM498 631l-211 -295l215 -4v299h-4z" />
    <glyph glyph-name="five.dnom" horiz-adv-x="911" 
d="M449 -33q-138 0 -230 62t-119 168l205 24q35 -84 146 -84q72 0 112 35q39 34 39 98q0 66 -40 102t-109 36q-82 0 -140 -58l-196 25l78 499h555v-176h-412l-31 -172l4 -2q83 49 189 49q138 0 223 -79q86 -80 86 -213q0 -137 -99 -226q-98 -88 -261 -88z" />
    <glyph glyph-name="six.dnom" horiz-adv-x="944" 
d="M502 -33q-192 0 -296 120q-104 121 -104 337q0 228 100 349q99 120 292 120q130 0 219 -53q88 -52 112 -142l-207 -26q-33 63 -131 63q-174 0 -184 -250q83 107 240 107q140 0 228 -86q87 -86 87 -221q0 -142 -98 -230t-258 -88zM494 135q73 0 115 44q42 43 42 110
q0 65 -43 105t-114 40q-74 0 -118 -42t-44 -107q0 -69 46 -109q47 -41 116 -41z" />
    <glyph glyph-name="seven.dnom" horiz-adv-x="825" 
d="M438 0h-217q7 352 297 690h-436v184h661v-169q-153 -167 -225 -330q-73 -163 -80 -375z" />
    <glyph glyph-name="eight.dnom" horiz-adv-x="968" 
d="M485 -33q-183 0 -288 75t-105 206q0 83 47 142q47 58 129 81v6q-56 22 -94 74q-37 50 -37 111q0 108 91 169q92 62 257 62q163 0 255 -63q91 -63 91 -168q0 -68 -36 -116q-39 -51 -95 -69v-6q82 -23 129 -81q48 -60 48 -142q0 -131 -104 -206q-103 -75 -288 -75zM377 561
q44 -29 108 -29q65 0 109 29q40 28 42 77q1 47 -40 75q-38 26 -111 26q-72 0 -110 -26q-41 -29 -41 -76q0 -48 43 -76zM352 158q49 -37 133 -37t133 37q50 35 50 94q0 60 -48 95q-47 34 -135 34q-86 0 -135 -34t-49 -95t51 -94z" />
    <glyph glyph-name="nine.dnom" horiz-adv-x="944" 
d="M451 -33q-131 0 -220 53q-88 52 -112 142l207 26q33 -63 131 -63q174 0 184 250q-83 -107 -240 -107q-140 0 -228 86q-87 86 -87 221q0 142 98 230t258 88q192 0 296 -120q104 -121 104 -337q0 -228 -100 -349q-99 -120 -291 -120zM451 426q73 0 117 42t44 107
q0 69 -46 109q-47 41 -115 41q-74 0 -116 -44q-42 -43 -42 -110q0 -65 43 -105t115 -40z" />
    <glyph glyph-name="zero.numr" horiz-adv-x="872" 
d="M721 688q-99 -123 -285 -123t-282 123q-99 123 -99 346q0 222 99 340q99 119 282 119q184 0 283 -119q98 -117 98 -340q0 -222 -96 -346zM279 1030q0 -278 157 -278q158 0 158 278q0 144 -38 211q-38 66 -120 66t-120 -66q-37 -65 -37 -211z" />
    <glyph glyph-name="one.numr" horiz-adv-x="606" 
d="M483 598h-204v563h-218v154h62q77 0 123 37q47 38 47 102v19h190v-875z" />
    <glyph glyph-name="two.numr" horiz-adv-x="886" 
d="M782 598h-676q0 150 41 240q40 87 140 143l198 111q95 51 95 120q0 50 -37 78q-38 29 -103 29q-134 0 -141 -123h-197q1 144 91 220q89 75 249 75q158 0 250 -75t92 -199q0 -156 -170 -248l-204 -111q-60 -34 -66 -80h438v-180z" />
    <glyph glyph-name="three.numr" horiz-adv-x="913" 
d="M721 641q-94 -76 -262 -76q-166 0 -258 80q-95 77 -101 221h197q11 -129 162 -129t151 111q0 106 -159 106h-72v170h78q133 0 133 95q0 46 -38 73q-37 27 -103 27q-134 0 -146 -107h-197q7 133 98 207q89 72 247 72q156 0 247 -68q90 -67 90 -180q0 -148 -145 -188v-2
q77 -18 126 -77q48 -58 48 -138q0 -119 -96 -197z" />
    <glyph glyph-name="four.numr" horiz-adv-x="915" 
d="M696 598h-194v160l-441 -6v166l404 555h231v-543l142 6v-184l-142 6v-160zM498 1229l-211 -295l215 -4v299h-4z" />
    <glyph glyph-name="five.numr" horiz-adv-x="911" 
d="M449 565q-138 0 -230 62t-119 168l205 24q35 -84 146 -84q72 0 112 35q39 34 39 98q0 66 -40 102t-109 36q-82 0 -140 -58l-196 25l78 500h555v-177h-412l-31 -172l4 -2q83 49 189 49q138 0 223 -79q86 -80 86 -213q0 -137 -99 -226q-98 -88 -261 -88z" />
    <glyph glyph-name="six.numr" horiz-adv-x="944" 
d="M502 565q-192 0 -296 120q-104 121 -104 337q0 228 100 349q99 120 292 120q130 0 219 -53q88 -52 112 -142l-207 -26q-33 63 -131 63q-174 0 -184 -250q83 107 240 107q140 0 228 -86q87 -86 87 -221q0 -142 -98 -230t-258 -88zM494 733q73 0 115 44q42 43 42 110
q0 65 -43 105t-114 40q-74 0 -118 -42t-44 -107q0 -69 46 -109q47 -41 116 -41z" />
    <glyph glyph-name="seven.numr" horiz-adv-x="825" 
d="M438 598h-217q7 352 297 690h-436v185h661v-170q-153 -167 -225 -330q-73 -163 -80 -375z" />
    <glyph glyph-name="eight.numr" horiz-adv-x="968" 
d="M485 565q-183 0 -288 75t-105 206q0 83 47 142q47 58 129 81v6q-56 22 -94 74q-37 50 -37 111q0 109 91 170t257 61q163 0 255 -63q91 -63 91 -168q0 -68 -36 -116q-39 -51 -95 -69v-6q82 -23 129 -81q48 -60 48 -142q0 -131 -104 -206q-103 -75 -288 -75zM377 1159
q44 -29 108 -29q65 0 109 29q40 28 42 77q1 47 -40 75q-38 26 -111 26q-72 0 -110 -26q-41 -29 -41 -76q0 -48 43 -76zM352 756q49 -37 133 -37t133 37q50 35 50 94q0 61 -48 95q-47 34 -135 34q-86 0 -135 -34t-49 -95t51 -94z" />
    <glyph glyph-name="nine.numr" horiz-adv-x="944" 
d="M451 565q-131 0 -220 53q-88 52 -112 142l207 26q33 -63 131 -63q174 0 184 250q-83 -107 -240 -107q-140 0 -228 86q-87 86 -87 222q0 141 98 229t258 88q192 0 296 -120q104 -121 104 -337q0 -228 -100 -349q-99 -120 -291 -120zM451 1024q73 0 117 42t44 108
q0 68 -46 108q-47 41 -115 41q-74 0 -116 -44q-42 -43 -42 -110q0 -65 43 -105t115 -40z" />
    <glyph glyph-name="zero.tf" 
d="M1116 170q-156 -203 -440 -203q-282 0 -440 203q-156 201 -156 567q0 356 157 555t439 199t439 -199t157 -555q0 -366 -156 -567zM387 731q0 -508 289 -508t289 508q0 504 -289 504t-289 -504z" />
    <glyph glyph-name="one.tf" 
d="M883 1458v-1198h346v-260h-1036v260h387v733h-367v203h106q140 0 218 72q63 57 75 172l2 18h269z" />
    <glyph glyph-name="two.tf" 
d="M1214 0h-1077q0 174 72 302t235 249l279 205q85 64 122 123q38 61 38 139q0 104 -59 163q-58 58 -158 58q-105 0 -162 -64q-58 -66 -58 -188v-41h-292v27q0 244 137 381t381 137q238 0 383 -125q145 -127 145 -334q0 -284 -297 -481l-248 -164q-67 -43 -97 -75
q-25 -27 -30 -58h686v-254z" />
    <glyph glyph-name="three.tf" 
d="M688 -35q-282 0 -433 143t-155 388h299q5 -132 79 -206q75 -75 204 -75q118 0 183 59q67 61 67 158q0 101 -72 158t-201 57h-106v225h94q98 0 160 51q59 49 59 136t-58 136q-59 50 -163 50q-213 0 -223 -237h-289q18 483 524 483q238 0 376 -105t138 -278
q0 -108 -58 -190q-58 -81 -163 -119v-4q148 -33 226 -128q77 -93 77 -241q0 -203 -147 -332q-152 -129 -418 -129z" />
    <glyph glyph-name="four.tf" 
d="M1053 1458v-907h219v-244h-219v-307h-297v307h-674v314l651 837h320zM338 551h418v530h-6z" />
    <glyph glyph-name="five.tf" 
d="M668 -33q-229 0 -381 113q-153 114 -183 307l299 25q51 -187 265 -187q121 0 198 71q76 70 76 183q0 112 -75 181t-208 69q-132 0 -233 -88l-281 41l136 776h866v-266h-641l-49 -285l4 -2q124 80 291 80q213 0 354 -135q139 -135 139 -358q0 -234 -160 -379
q-163 -146 -417 -146z" />
    <glyph glyph-name="six.tf" 
d="M758 995q229 0 370 -141q140 -145 140 -367q0 -230 -158 -376t-405 -146q-289 0 -453 189q-168 195 -168 555q0 380 156 581t446 201q221 0 363 -109q141 -108 165 -295h-290q-17 72 -82 117q-66 45 -156 45q-293 0 -309 -436q139 182 381 182zM702 219q119 0 191 77
q72 76 72 191q0 119 -76 194q-77 75 -193 75q-117 0 -193 -74q-75 -74 -75 -190q0 -119 74 -193q77 -80 200 -80z" />
    <glyph glyph-name="seven.tf" 
d="M696 0h-340q0 593 514 1186h-735v272h1082v-252q-272 -310 -388 -577q-118 -272 -133 -629z" />
    <glyph glyph-name="eight.tf" 
d="M1110 92q-158 -125 -434 -125t-434 125q-160 124 -160 336q0 134 74 232q74 99 204 139v8q-92 39 -149 123t-57 182q0 175 139 277t383 102t383 -102t139 -277q0 -104 -57 -189q-57 -86 -150 -116v-8q131 -41 205 -139t74 -232q0 -212 -160 -336zM502 936q63 -51 174 -51
q113 0 176 51q63 50 63 137q0 88 -61 137q-67 47 -178 47q-112 0 -176 -47q-64 -50 -64 -137t66 -137zM465 266q77 -63 211 -63q135 0 213 63q78 62 78 168q0 108 -77 170t-214 62t-214 -62t-77 -170q0 -106 80 -168z" />
    <glyph glyph-name="nine.tf" 
d="M1100 1305q168 -195 168 -555q0 -381 -156 -582t-446 -201q-221 0 -363 109t-166 295h291q17 -72 82 -117q66 -45 156 -45q293 0 309 436q-139 -182 -381 -182q-230 0 -369 141q-141 141 -141 367q0 231 158 377q157 145 405 145q290 0 453 -188zM655 702q118 0 194 74
q75 74 75 191q0 118 -74 192q-77 80 -201 80q-118 0 -190 -77q-72 -76 -72 -191q0 -119 76 -194q77 -75 192 -75z" />
    <glyph glyph-name="zero.tf.zero" 
d="M236 1292q157 199 440 199t440 -199q156 -198 156 -555q0 -363 -157 -567q-156 -203 -439 -203t-439 203q-157 204 -157 567q0 357 156 555zM676 1235q-289 0 -289 -504q0 -275 84 -403l367 852q-62 55 -162 55zM676 223q289 0 289 508q0 182 -41 307l-342 -798
q51 -17 94 -17z" />
    <glyph glyph-name="period.ss01" horiz-adv-x="618" 
d="M444 18q-51 -51 -135 -51q-82 0 -133 51q-53 50 -53 127q0 78 53 129q53 50 133 50q83 0 135 -50q52 -52 52 -129t-52 -127z" />
    <glyph glyph-name="comma.ss01" horiz-adv-x="638" 
d="M319 324q92 0 145 -61q52 -59 52 -169v-143q0 -277 -293 -277h-39v131h39q135 0 135 136v26h-39q-89 0 -142 49q-54 50 -54 129t54 129q55 50 142 50z" />
    <glyph glyph-name="colon.ss01" horiz-adv-x="618" 
d="M444 752q-52 -52 -135 -52q-81 0 -133 52q-53 50 -53 127q0 78 53 129q52 49 133 49q85 0 135 -49q52 -52 52 -129t-52 -127zM444 18q-51 -51 -135 -51q-82 0 -133 51q-53 50 -53 127q0 78 53 129q53 50 133 50q83 0 135 -50q52 -52 52 -129t-52 -127z" />
    <glyph glyph-name="semicolon.ss01" horiz-adv-x="638" 
d="M444 752q-52 -52 -135 -52q-81 0 -133 52q-53 50 -53 127q0 78 53 129q52 49 133 49q85 0 135 -49q52 -52 52 -129t-52 -127zM319 324q92 0 145 -61q52 -59 52 -169v-143q0 -277 -293 -277h-39v131h39q135 0 135 136v26h-39q-89 0 -142 49q-54 50 -54 129t54 129
q55 50 142 50z" />
    <glyph glyph-name="ellipsis.ss01" horiz-adv-x="1855" 
d="M444 18q-51 -51 -135 -51q-82 0 -133 51q-53 50 -53 127q0 78 53 129q53 50 133 50q83 0 135 -50q52 -52 52 -129t-52 -127zM1063 18q-51 -51 -135 -51q-82 0 -133 51q-54 51 -54 127q0 77 54 129q53 50 133 50q83 0 135 -50q51 -51 51 -129q0 -77 -51 -127zM1681 18
q-51 -51 -135 -51q-82 0 -133 51q-53 50 -53 127q0 78 53 129q53 50 133 50q83 0 135 -50q52 -52 52 -129t-52 -127z" />
    <glyph glyph-name="exclam.ss01" horiz-adv-x="577" 
d="M362 479h-145l-80 608v371h303v-371zM418 14q-52 -47 -129 -47t-127 47q-51 45 -51 123q0 74 50 122q49 48 128 48t128 -48q50 -48 50 -122q0 -77 -49 -123z" />
    <glyph glyph-name="exclamdown.ss01" horiz-adv-x="577" 
d="M418 793q-52 -50 -129 -50t-127 50q-51 45 -51 120q0 76 50 123t128 47t128 -47t50 -123q0 -74 -49 -120zM440 -418h-303v371l78 608h145l80 -608v-371z" />
    <glyph glyph-name="question.ss01" horiz-adv-x="1206" 
d="M748 479h-275v56q0 102 42 171q40 66 155 144q79 52 112 99t33 106q0 88 -64 134t-167 46q-224 0 -234 -231h-293q6 234 145 361q138 126 388 126q252 0 399 -117q146 -117 146 -309q0 -201 -183 -322l-96 -63q-66 -44 -87 -79q-21 -36 -21 -93v-29zM739 14
q-52 -47 -129 -47t-127 47q-51 45 -51 123q0 74 50 122t128 48t128 -48t50 -122q0 -77 -49 -123z" />
    <glyph glyph-name="questiondown.ss01" horiz-adv-x="1206" 
d="M725 793q-52 -50 -129 -50t-127 50q-51 45 -51 120q0 76 50 123t128 47t128 -47t50 -123q0 -74 -49 -120zM616 -449q-251 0 -397 117q-147 117 -147 309q0 201 182 322l96 63q66 44 87 79q22 38 22 94v36h274v-63q0 -102 -42 -171q-41 -67 -154 -144q-79 -52 -113 -100
q-33 -47 -33 -105q0 -87 65 -134t167 -47q222 0 233 232h293q-6 -236 -144 -362t-389 -126z" />
    <glyph glyph-name="periodcentered.ss01" horiz-adv-x="618" 
d="M444 610q-51 -51 -135 -51q-82 0 -133 51q-53 50 -53 127q0 78 53 129q52 49 133 49q85 0 135 -49q52 -52 52 -129t-52 -127z" />
    <glyph glyph-name="bullet.ss01" horiz-adv-x="890" 
d="M446 274q-141 0 -232 87t-91 223q0 135 91 222t232 87q140 0 232 -86q90 -90 90 -223q0 -136 -90 -222q-89 -88 -232 -88z" />
    <glyph glyph-name="uni203D.ss01" horiz-adv-x="1265" 
d="M616 1491q276 0 427 -112t151 -314q0 -226 -205 -332l-88 -47q-93 -47 -136 -92t-54 -115h-187l-59 453v137h303v-137l-8 -66l16 11q63 35 87 71q26 38 26 94q0 193 -275 193q-141 0 -205 -53q-62 -52 -67 -178h-285q6 235 149 361q142 126 410 126zM489 260
q50 47 127 47t129 -47q50 -50 50 -123q0 -75 -51 -123q-50 -47 -128 -47t-128 47t-50 123q0 73 51 123z" />
    <glyph glyph-name="uni2E18.ss01" horiz-adv-x="1265" 
d="M778 793q-52 -50 -129 -50t-127 50q-51 45 -51 120q0 76 50 123t128 47t128 -47t50 -123q0 -74 -49 -120zM924 53h284q-6 -235 -148 -361t-411 -126q-277 0 -427 111t-150 315q0 226 204 332l89 47q93 47 136 92t54 115h186l60 -453v-137h-303v137l8 63q-5 0 -10 -4
l-7 -4q-112 -61 -112 -166q0 -192 274 -192q142 0 206 53q62 52 67 178z" />
    <glyph glyph-name="period.tf.ss01" 
d="M811 18q-51 -51 -135 -51q-82 0 -133 51q-51 49 -51 127t51 129q52 50 133 50q82 0 135 -50q53 -51 53 -129q0 -77 -53 -127z" />
    <glyph glyph-name="comma.tf.ss01" 
d="M676 324q91 0 144 -61q52 -59 52 -169v-143q0 -277 -292 -277h-39v131h39q135 0 135 136v26h-39q-89 0 -142 49q-55 50 -55 129t55 129t142 50z" />
    <glyph glyph-name="colon.tf.ss01" 
d="M811 752q-52 -52 -135 -52q-81 0 -133 52q-51 50 -51 127q0 78 51 129q50 49 133 49t135 -49q53 -51 53 -129q0 -77 -53 -127zM811 18q-51 -51 -135 -51q-82 0 -133 51q-51 49 -51 127t51 129q52 50 133 50q82 0 135 -50q53 -51 53 -129q0 -77 -53 -127z" />
    <glyph glyph-name="semicolon.tf.ss01" 
d="M801 752q-52 -52 -135 -52q-82 0 -134 52q-53 50 -53 127q0 78 53 129q52 49 134 49q85 0 135 -49q51 -51 51 -129q0 -77 -51 -127zM676 324q91 0 144 -61q52 -59 52 -169v-143q0 -277 -292 -277h-39v131h39q135 0 135 136v26h-39q-89 0 -142 49q-55 50 -55 129t55 129
t142 50z" />
    <glyph glyph-name="period.tf" 
d="M846 0h-338v307h338v-307z" />
    <glyph glyph-name="comma.tf" 
d="M551 -326h-39v131h39q135 0 135 136v59h-176v307h334v-366q0 -267 -293 -267z" />
    </font>
</defs>
</svg>
