<?xml version="1.0" standalone="no"?>
<!DOCTYPE svg PUBLIC "-//W3C//DTD SVG 1.1//EN" "http://www.w3.org/Graphics/SVG/1.1/DTD/svg11.dtd" >
<svg xmlns="http://www.w3.org/2000/svg" xmlns:xlink="http://www.w3.org/1999/xlink" version="1.1">
<metadata>
Created by FontForge 20170731 at Tue May 30 10:07:18 2023
 By Aleksey,,,
Copyright (c) 2019 Monotype Imaging Inc. All rights reserved.
</metadata>
<defs>
<font id="HelveticaNowText-ExtraLight" horiz-adv-x="1310" >
  <font-face 
    font-family="HelveticaNowText ExtraLight"
    font-weight="300"
    font-stretch="normal"
    units-per-em="2048"
    panose-1="2 11 3 4 3 2 2 2 2 4"
    ascent="1792"
    descent="-256"
    x-height="1057"
    cap-height="1458"
    bbox="-651 -659 3303 2255"
    underline-thickness="102"
    underline-position="-614"
    unicode-range="U+000D-FEFF"
  />
<missing-glyph horiz-adv-x="1513" 
d="M1307 0h-1100v1458h1100v-1458zM289 1384v-1310h934v1310h-934z" />
    <glyph glyph-name="fi" unicode="fi" horiz-adv-x="1122" 
d="M248 1053v116q0 152 66 221q65 68 208 68h107v-72h-105q-100 0 -147 -48q-47 -49 -47 -160v-125l299 4v-68l-299 4v-993h-82v993l-193 -4v68zM850 1315v143h98v-143h-98zM940 0h-82v1057h82v-1057z" />
    <glyph glyph-name="fl" unicode="fl" horiz-adv-x="1122" 
d="M248 1053v116q0 152 66 221q65 68 208 68h107v-72h-105q-100 0 -147 -48q-47 -49 -47 -160v-125l299 4v-68l-299 4v-993h-82v993l-193 -4v68zM858 0v1458h82v-1458h-82z" />
    <glyph glyph-name=".notdef" horiz-adv-x="1513" 
d="M1307 0h-1100v1458h1100v-1458zM289 1384v-1310h934v1310h-934z" />
    <glyph glyph-name=".null" horiz-adv-x="0" 
 />
    <glyph glyph-name="nonmarkingreturn" horiz-adv-x="681" 
 />
    <glyph glyph-name="NULL" horiz-adv-x="0" 
 />
    <glyph glyph-name="NULL" horiz-adv-x="0" 
 />
    <glyph glyph-name="CR" unicode="&#xd;" horiz-adv-x="593" 
 />
    <glyph glyph-name="space" unicode=" " horiz-adv-x="593" 
 />
    <glyph glyph-name="exclam" unicode="!" horiz-adv-x="534" 
d="M289 344h-43l-21 694v420h84v-420zM328 0h-121v121h121v-121z" />
    <glyph glyph-name="quotedbl" unicode="&#x22;" horiz-adv-x="849" 
d="M258 893h-74v565h74v-565zM666 893h-74v565h74v-565z" />
    <glyph glyph-name="numbersign" unicode="#" horiz-adv-x="1357" 
d="M1253 1036v-69l-266 2l-65 -480l254 5v-70l-265 2l-59 -426h-70l60 426h-412l-59 -426h-70l59 426l-256 -2v70l267 -5l65 480l-254 -2v69l264 -2l60 424h69l-59 -424h412l59 424h70l-60 -424zM506 969l-66 -480h412l66 480h-412z" />
    <glyph glyph-name="dollar" unicode="$" 
d="M1149 401q0 -180 -117 -285q-118 -106 -327 -116v-295h-74v295q-422 18 -467 442h80q39 -370 424 -370q194 0 298 86q103 85 103 237q0 120 -70 192q-68 70 -213 103l-231 53q-346 76 -346 355q0 166 110 264t312 104v269h74v-271q183 -12 290 -114t119 -275h-78
q-15 156 -113 238t-270 82q-173 0 -268 -78q-94 -78 -94 -217q0 -113 67 -181q68 -70 217 -104l232 -51q177 -40 260 -129q82 -88 82 -234z" />
    <glyph glyph-name="percent" unicode="%" horiz-adv-x="2543" 
d="M565 639q-358 0 -358 455q0 456 358 456q361 0 361 -456q0 -455 -361 -455zM825 -31h-84l918 1520h82zM565 705q146 0 215 95q70 96 70 294q0 389 -285 389q-284 0 -284 -389t284 -389zM1976 -20q-360 0 -360 456q0 457 360 457q359 0 359 -457q0 -456 -359 -456z
M1976 47q285 0 285 389t-285 389q-284 0 -284 -389q0 -199 69 -294t215 -95z" />
    <glyph glyph-name="ampersand" unicode="&#x26;" horiz-adv-x="1531" 
d="M1208 264l267 -264h-111l-205 203q-198 -223 -502 -223q-219 0 -346 108t-127 293q0 145 87 247q86 101 284 175q-115 116 -160 198q-47 85 -47 168q0 139 98 224q100 86 259 86q158 0 258 -86q98 -85 98 -224q0 -247 -373 -391l469 -463q95 134 119 318h80
q-29 -209 -148 -369zM702 1407q-121 0 -198 -65q-76 -64 -76 -171q0 -73 45 -149q42 -72 152 -180l10 -11q179 66 264 148q82 79 82 186t-76 174q-77 68 -203 68zM659 51q276 0 449 203l-500 496q-183 -67 -265 -155q-81 -87 -81 -212q0 -154 106 -243t291 -89z" />
    <glyph glyph-name="quotesingle" unicode="'" horiz-adv-x="442" 
d="M258 893h-74v565h74v-565z" />
    <glyph glyph-name="parenleft" unicode="(" horiz-adv-x="649" 
d="M545 -418h-76q-313 421 -313 965q0 564 313 983h76q-307 -427 -307 -983q0 -540 307 -965z" />
    <glyph glyph-name="parenright" unicode=")" horiz-adv-x="649" 
d="M180 -418h-76q308 427 308 965q0 555 -308 983h76q314 -421 314 -983q0 -543 -314 -965z" />
    <glyph glyph-name="asterisk" unicode="*" horiz-adv-x="1122" 
d="M563 1036l-209 -284l-57 39l217 280l-330 113l23 61l325 -121l-4 334h68l-4 -334l323 121l23 -61l-328 -113l213 -280l-55 -39z" />
    <glyph glyph-name="plus" unicode="+" 
d="M690 672h527v-74h-527v-524h-74v524h-524v74h524v526h74v-526z" />
    <glyph glyph-name="comma" unicode="," horiz-adv-x="522" 
d="M205 -301h-19v51h19q78 0 78 78v178l-97 -10v129h150v-287q0 -139 -131 -139z" />
    <glyph glyph-name="hyphen" unicode="-" horiz-adv-x="772" 
d="M674 473h-574v76h574v-76z" />
    <glyph glyph-name="period" unicode="." horiz-adv-x="512" 
d="M332 0h-152v131h152v-131z" />
    <glyph glyph-name="slash" unicode="/" horiz-adv-x="905" 
d="M190 0h-81l606 1458h82z" />
    <glyph glyph-name="zero" unicode="0" 
d="M1137 729q0 -745 -482 -745q-481 0 -481 745q0 746 481 746q482 0 482 -746zM356 221q96 -164 299 -164q202 0 301 164q97 165 97 508t-97 508q-99 164 -301 164q-203 0 -299 -164q-98 -162 -98 -508t98 -508z" />
    <glyph glyph-name="one" unicode="1" horiz-adv-x="905" 
d="M516 1458h78v-1458h-82v1311q-67 -77 -177 -127q-112 -51 -231 -58v74q139 10 249 77q110 66 163 181z" />
    <glyph glyph-name="two" unicode="2" 
d="M1114 0h-926q4 184 101 324q95 138 297 251l190 111q139 78 202 165q62 86 62 202q0 152 -98 247q-100 97 -270 97q-176 0 -275 -102q-98 -101 -98 -306v-14h-82v16q0 233 123 358q123 124 332 124q214 0 332 -117q118 -118 118 -299q0 -262 -297 -430l-174 -101
q-184 -106 -271 -215q-85 -107 -91 -235h825v-76z" />
    <glyph glyph-name="three" unicode="3" 
d="M662 -18q-238 0 -381 124q-147 128 -148 328h82q5 -173 125 -274q123 -103 324 -103q195 0 313 95q117 94 117 254q0 150 -106 239q-104 88 -292 88h-121v76h103q158 0 247 80t89 211q0 141 -100 221t-273 80q-180 0 -275 -89t-100 -259h-82q5 200 125 310
q123 112 334 112q204 0 330 -100q125 -99 125 -269q0 -248 -250 -326v-6q157 -27 243 -125q87 -99 87 -243q0 -193 -142 -308q-143 -116 -374 -116z" />
    <glyph glyph-name="four" unicode="4" 
d="M950 1458v-989h226v-74h-226v-395h-82v395h-733v76l754 987h61zM223 469h645v838h-4z" />
    <glyph glyph-name="five" unicode="5" 
d="M645 -33q-194 0 -319 107q-126 108 -148 286h82q21 -147 124 -234t263 -87q182 0 290 114q107 113 107 304q0 188 -103 298q-103 111 -279 111q-240 0 -353 -192l-92 8l133 776h705v-76h-645l-105 -620l4 -2q127 178 365 178q209 0 332 -133q122 -134 122 -346
q0 -220 -129 -355q-129 -137 -354 -137z" />
    <glyph glyph-name="six" unicode="6" 
d="M686 928q205 0 326 -127q118 -124 118 -332q0 -220 -124 -350q-124 -135 -332 -135q-249 0 -373 178q-123 162 -123 528q0 386 127 586q127 201 375 201q176 0 287 -99q110 -98 125 -270h-80q-16 140 -104 219q-87 78 -228 78q-422 0 -422 -709q0 -31 2 -41
q57 129 168 201t258 72zM676 53q168 0 270 114q103 115 103 298q0 178 -101 285q-100 106 -272 106q-158 0 -267 -95t-139 -259q16 -194 95 -301q109 -148 311 -148z" />
    <glyph glyph-name="seven" unicode="7" 
d="M504 0h-86q24 409 182 760q158 350 434 620h-864v78h969v-65q-590 -545 -635 -1393z" />
    <glyph glyph-name="eight" unicode="8" 
d="M1036 96q-150 -114 -381 -114q-234 0 -379 114q-147 112 -147 312q0 146 87 245q86 98 247 131v4q-136 33 -207 118q-72 86 -72 206q0 165 127 264t344 99t344 -99t127 -264q0 -120 -72 -206q-71 -85 -208 -118v-4q165 -33 250 -130q86 -98 86 -246q0 -198 -146 -312z
M367 895q100 -76 288 -76q190 0 291 76q103 79 103 213q0 139 -105 217t-289 78q-182 0 -288 -77q-105 -76 -105 -218q0 -136 105 -213zM334 152q122 -99 321 -99q205 0 324 99q119 95 119 258q0 160 -117 248q-119 90 -326 90q-209 0 -326 -90q-116 -89 -116 -248
q0 -162 121 -258z" />
    <glyph glyph-name="nine" unicode="9" 
d="M1010 1298q123 -164 123 -528q0 -386 -127 -586t-375 -200q-177 0 -287 98t-125 270h80q16 -144 104 -221q89 -78 228 -78q422 0 422 711q0 31 -2 41q-57 -129 -168 -201t-258 -72q-203 0 -324 127t-121 332q0 216 127 352q128 134 330 134q248 0 373 -179zM635 604
q160 0 267 94q108 95 138 260q-17 193 -94 299q-109 148 -311 148q-168 0 -270 -113q-103 -114 -103 -297q0 -178 100 -284q101 -107 273 -107z" />
    <glyph glyph-name="colon" unicode=":" horiz-adv-x="512" 
d="M332 831h-152v132h152v-132zM332 0h-152v131h152v-131z" />
    <glyph glyph-name="semicolon" unicode=";" horiz-adv-x="536" 
d="M340 831h-154v132h154v-132zM217 -301h-16v51h18q78 0 78 78v178l-96 -10v129h149v-287q0 -139 -133 -139z" />
    <glyph glyph-name="less" unicode="&#x3c;" 
d="M121 666l1069 456v-82l-993 -419l993 -418v-82l-1069 454v91z" />
    <glyph glyph-name="equal" unicode="=" 
d="M1196 821h-1083v74h1083v-74zM1196 373h-1083v73h1083v-73z" />
    <glyph glyph-name="greater" unicode="&#x3e;" 
d="M121 1040v82l1069 -456v-91l-1069 -454v82l991 418z" />
    <glyph glyph-name="question" unicode="?" horiz-adv-x="1245" 
d="M625 348h-78v47q0 133 49 215q45 80 188 162q126 73 175 146q51 76 51 174q0 150 -106 233q-104 82 -290 82q-197 0 -301 -97t-110 -282h-78q6 213 133 330q128 117 356 117q219 0 347 -101q126 -99 126 -284q0 -113 -52 -198q-53 -86 -173 -157l-69 -43
q-104 -67 -136 -127q-32 -61 -32 -186v-31zM649 0h-123v121h123v-121z" />
    <glyph glyph-name="at" unicode="@" horiz-adv-x="2191" 
d="M1102 1479q408 0 647 -222q236 -224 236 -598q0 -257 -100 -412q-99 -153 -271 -153q-204 0 -211 211q-47 -105 -134 -158q-88 -53 -192 -53q-179 0 -283 126q-104 127 -104 341q0 208 107 333q106 124 280 124q106 0 192 -52q88 -53 134 -153l6 178h70v-682
q0 -151 139 -151q134 0 214 129q79 128 79 364q0 351 -217 553q-218 203 -594 203q-385 0 -598 -221q-215 -224 -215 -625q0 -402 217 -620q219 -222 602 -222q196 0 387 72l2 -78q-192 -63 -387 -63q-420 0 -659 239q-242 242 -242 672q0 432 239 674q238 244 656 244z
M1083 156q126 0 211 83q85 84 109 226v194q-23 137 -107 217q-82 78 -213 78q-147 0 -232 -106t-85 -287q0 -189 84 -297t233 -108z" />
    <glyph glyph-name="A" unicode="A" horiz-adv-x="1466" 
d="M1393 0h-93l-194 473h-746l-196 -473h-88l614 1462h88zM711 1313l-320 -766h684l-317 766l-23 71z" />
    <glyph glyph-name="B" unicode="B" horiz-adv-x="1492" 
d="M1012 768q325 -63 325 -373q0 -179 -114 -287t-303 -108h-713v1458h657q193 0 300 -98q108 -99 108 -258q0 -122 -68 -211t-192 -123zM852 1384h-563v-587h557q164 0 253 80t89 215q0 134 -87 213q-86 79 -249 79zM289 74h626q155 0 246 85q92 86 92 236q0 157 -101 242
q-103 86 -284 86h-579v-649z" />
    <glyph glyph-name="C" unicode="C" horiz-adv-x="1507" 
d="M801 -29q-299 0 -471 213q-174 212 -174 547q0 339 176 547q174 205 467 205q235 0 399 -131q166 -133 193 -336h-84q-30 176 -168 284q-141 109 -338 109q-257 0 -408 -182q-153 -185 -153 -496q0 -307 151 -495q152 -189 412 -189q207 0 352 125q145 127 160 330h82
q-22 -233 -187 -381q-164 -150 -409 -150z" />
    <glyph glyph-name="D" unicode="D" horiz-adv-x="1488" 
d="M207 1458h491q320 0 485 -190t165 -539t-172 -539t-506 -190h-463v1458zM289 74h379q298 0 447 168q149 169 149 487q0 316 -146 486q-145 169 -432 169h-397v-1310z" />
    <glyph glyph-name="E" unicode="E" horiz-adv-x="1363" 
d="M289 723v-649h930v-74h-1012v1458h979v-74h-897v-587h835v-74h-835z" />
    <glyph glyph-name="F" unicode="F" horiz-adv-x="1247" 
d="M1184 1458v-74h-895v-591h770v-74h-770v-719h-82v1458h977z" />
    <glyph glyph-name="G" unicode="G" horiz-adv-x="1673" 
d="M846 662v73h620v-735h-65l-15 330q-68 -171 -214 -263q-149 -94 -349 -94q-307 0 -487 209q-180 207 -180 551q0 347 178 549q179 203 493 203q254 0 420 -121t205 -334l-80 -6q-33 175 -172 281t-369 106q-279 0 -436 -182q-155 -179 -155 -498q0 -310 155 -495
q157 -189 430 -189q232 0 383 137q149 135 176 379v99h-538z" />
    <glyph glyph-name="H" unicode="H" horiz-adv-x="1513" 
d="M1223 813v645h84v-1458h-84v739h-934v-739h-82v1458h82v-645h934z" />
    <glyph glyph-name="I" unicode="I" horiz-adv-x="495" 
d="M289 0h-82v1458h82v-1458z" />
    <glyph glyph-name="J" unicode="J" horiz-adv-x="1148" 
d="M532 -25q-198 0 -307 106q-108 105 -108 310v96h82v-94q0 -170 86 -256t247 -86q157 0 243 86q85 85 85 256v1065h82v-1067q0 -206 -107 -310q-109 -106 -303 -106z" />
    <glyph glyph-name="K" unicode="K" horiz-adv-x="1441" 
d="M1368 0h-104l-623 807l-352 -330v-477h-82v1458h82v-878l938 878h112l-639 -598z" />
    <glyph glyph-name="L" unicode="L" horiz-adv-x="1243" 
d="M289 1458v-1384h850v-74h-932v1458h82z" />
    <glyph glyph-name="M" unicode="M" horiz-adv-x="1822" 
d="M946 178l557 1280h113v-1458h-78v1231l4 131l-51 -131l-539 -1231h-75l-549 1243l-49 117l4 -129v-1231h-76v1458h112l562 -1280l32 -90z" />
    <glyph glyph-name="N" unicode="N" horiz-adv-x="1517" 
d="M1231 119v1339h78v-1458h-88l-936 1337v-1337h-78v1458h86z" />
    <glyph glyph-name="O" unicode="O" horiz-adv-x="1660" 
d="M829 -29q-305 0 -489 213q-184 212 -184 545t184 545q185 209 489 209q307 0 492 -209q184 -212 184 -545t-184 -545q-185 -213 -492 -213zM829 47q269 0 433 189q159 186 159 493q0 305 -159 494q-162 186 -433 186q-269 0 -428 -186q-161 -185 -161 -494
q0 -306 161 -491q159 -191 428 -191z" />
    <glyph glyph-name="P" unicode="P" horiz-adv-x="1323" 
d="M207 1458h569q203 0 323 -105t120 -296q0 -194 -122 -301t-339 -107h-469v-649h-82v1458zM289 723h471q178 0 278 86q99 86 99 248q0 155 -99 241q-100 86 -264 86h-485v-661z" />
    <glyph glyph-name="Q" unicode="Q" horiz-adv-x="1628" 
d="M1505 729q0 -375 -223 -586l223 -180l-43 -55l-231 192q-169 -129 -402 -129q-305 0 -489 213q-184 212 -184 545t184 545q185 209 489 209q307 0 492 -209q184 -212 184 -545zM240 729q0 -306 161 -491q159 -191 428 -191q194 0 338 105l-245 198l45 56l254 -211
q200 190 200 534q0 305 -159 494q-162 186 -433 186q-269 0 -428 -186q-161 -185 -161 -494z" />
    <glyph glyph-name="R" unicode="R" horiz-adv-x="1470" 
d="M1235 414l49 -414h-84l-45 385q-15 135 -78 207q-74 80 -278 80h-510v-672h-82v1458h645q195 0 309 -102q115 -103 115 -279q0 -152 -81 -247q-81 -94 -224 -121q125 -18 188 -91q61 -72 76 -204zM289 1384v-636h520q183 0 283 85t100 238q0 150 -91 232q-90 81 -259 81
h-553z" />
    <glyph glyph-name="S" unicode="S" horiz-adv-x="1363" 
d="M698 -27q-530 0 -575 467h80q43 -397 497 -397q218 0 339 89q120 89 120 249q0 125 -80 200q-79 74 -250 109l-270 53q-383 77 -383 359q0 178 133 280q135 103 367 103t373 -109q138 -107 149 -303h-80q-8 165 -126 253q-119 89 -318 89q-197 0 -307 -82
q-111 -83 -111 -225q0 -224 315 -287l287 -59q381 -78 381 -379q0 -194 -140 -301q-142 -109 -401 -109z" />
    <glyph glyph-name="T" unicode="T" horiz-adv-x="1325" 
d="M98 1458h1129v-74h-525v-1384h-81v1384h-523v74z" />
    <glyph glyph-name="U" unicode="U" horiz-adv-x="1503" 
d="M752 -27q-261 0 -403 124t-142 380v981h82v-983q0 -428 463 -428q460 0 460 428v983h82v-981q0 -255 -143 -379q-145 -125 -399 -125z" />
    <glyph glyph-name="V" unicode="V" horiz-adv-x="1378" 
d="M768 293l449 1165h88l-570 -1466h-90l-569 1466h90l448 -1165l78 -209z" />
    <glyph glyph-name="W" unicode="W" horiz-adv-x="1927" 
d="M1440 354l329 1104h84l-438 -1466h-76l-378 1364l-377 -1364h-78l-430 1466h84l323 -1104l64 -245l61 245l310 1104h88l307 -1104l63 -245z" />
    <glyph glyph-name="X" unicode="X" horiz-adv-x="1380" 
d="M1264 1458l-525 -698l568 -760h-105l-463 631l-45 69l-49 -69l-471 -631h-98l571 760l-526 698h104l422 -571l47 -66l45 66l424 571h101z" />
    <glyph glyph-name="Y" unicode="Y" horiz-adv-x="1378" 
d="M1231 1458h94l-590 -868v-590h-84v590l-598 868h99l510 -747l32 -54l31 54z" />
    <glyph glyph-name="Z" unicode="Z" horiz-adv-x="1390" 
d="M1217 1389l-977 -1313h1005v-76h-1102v80l969 1302h-915v76h1020v-69z" />
    <glyph glyph-name="bracketleft" unicode="[" horiz-adv-x="673" 
d="M571 -418h-364v1948h364v-72h-286v-1804h286v-72z" />
    <glyph glyph-name="backslash" unicode="\" horiz-adv-x="905" 
d="M797 0h-82l-606 1458h81z" />
    <glyph glyph-name="bracketright" unicode="]" horiz-adv-x="675" 
d="M469 -418h-365v72h285v1804h-285v72h365v-1948z" />
    <glyph glyph-name="asciicircum" unicode="^" 
d="M610 1466h84l428 -1056h-88l-332 835q-30 83 -51 150q-4 -13 -26 -77l-25 -73l-328 -835h-84z" />
    <glyph glyph-name="underscore" unicode="_" horiz-adv-x="1024" 
d="M1024 -272h-1024v73h1024v-73z" />
    <glyph glyph-name="grave" unicode="`" horiz-adv-x="1024" 
d="M707 1255h-78l-256 310h110z" />
    <glyph glyph-name="a" unicode="a" horiz-adv-x="1179" 
d="M1120 66h31v-66h-47q-111 0 -159 53t-48 174l-2 6q-46 -124 -156 -191t-262 -67q-170 0 -263 81t-93 218q0 263 334 306l264 36q94 12 132 51q36 37 36 109v15q0 106 -79 164q-80 59 -237 59t-232 -60t-91 -188h-82q28 317 412 317q191 0 290 -78q101 -80 101 -221v-540
q0 -100 32 -139t119 -39zM489 41q166 0 270 88q105 89 128 248v235q-39 -40 -142 -57l-278 -41q-266 -39 -266 -238q0 -108 75 -171q76 -64 213 -64z" />
    <glyph glyph-name="b" unicode="b" horiz-adv-x="1220" 
d="M657 1081q205 0 328 -145q121 -149 121 -393q0 -253 -121 -410q-123 -158 -332 -158q-138 0 -245 80q-106 79 -150 211v-266h-74v1458h82v-645q45 121 150 195q104 73 241 73zM645 49q178 0 279 137q100 133 100 357q0 220 -100 342q-100 123 -275 123q-176 0 -281 -127
q-106 -129 -106 -349q0 -219 107 -350q108 -133 276 -133z" />
    <glyph glyph-name="c" unicode="c" horiz-adv-x="1116" 
d="M584 -25q-218 0 -342 147q-125 148 -125 404q0 260 125 408q124 147 346 147q184 0 295 -98q113 -100 131 -256h-78q-18 125 -109 206q-89 79 -239 79q-188 0 -289 -126q-100 -125 -100 -358q0 -228 102 -355q102 -128 287 -128q148 0 237 82q90 83 111 227h78
q-22 -174 -135 -276q-114 -103 -295 -103z" />
    <glyph glyph-name="d" unicode="d" horiz-adv-x="1220" 
d="M956 813v645h82v-1458h-73v268q-44 -131 -150 -212q-107 -81 -246 -81q-207 0 -329 158q-123 157 -123 406q0 243 123 395q122 147 325 147q138 0 242 -73t149 -195zM575 49q169 0 277 133q106 130 106 350q0 222 -105 349t-280 127q-173 0 -274 -125
q-100 -124 -100 -344q0 -224 100 -357t276 -133z" />
    <glyph glyph-name="e" unicode="e" horiz-adv-x="1167" 
d="M1053 573v-45h-854v-6q0 -222 106 -349q107 -128 293 -128q140 0 232 72q92 73 131 190l73 -12q-41 -141 -155 -230q-116 -90 -283 -90q-222 0 -350 154q-129 150 -129 406q0 248 127 399q125 147 344 147q213 0 340 -139q125 -140 125 -369zM590 1012q-169 0 -275 -112
q-103 -109 -114 -308h776q-11 195 -112 307q-102 113 -275 113z" />
    <glyph glyph-name="f" unicode="f" horiz-adv-x="673" 
d="M629 1386h-105q-100 0 -147 -48q-47 -49 -47 -160v-125l299 4v-68l-299 4v-993h-82v993l-193 -4v68l193 -4v116q0 152 66 221q65 68 208 68h107v-72z" />
    <glyph glyph-name="g" unicode="g" horiz-adv-x="1224" 
d="M965 791v266h75v-1059q0 -211 -118 -317q-119 -107 -338 -107q-184 0 -294 77q-109 76 -130 195h82q21 -92 107 -148q85 -56 237 -56q377 0 377 350v270q-45 -126 -151 -207q-106 -80 -243 -80q-207 0 -329 158q-123 157 -123 406q0 243 123 395q122 147 325 147
q145 0 251 -80t149 -210zM575 49q169 0 277 133q106 130 106 350q0 222 -105 349t-280 127q-173 0 -274 -125q-100 -124 -100 -344q0 -224 100 -357t276 -133z" />
    <glyph glyph-name="h" unicode="h" horiz-adv-x="1200" 
d="M649 1081q175 0 271 -100t96 -281v-700h-82v686q0 157 -76 240q-76 84 -223 84q-170 0 -269 -111q-100 -112 -100 -324v-575h-82v1458h82v-627q99 250 383 250z" />
    <glyph glyph-name="i" unicode="i" horiz-adv-x="450" 
d="M274 1315h-98v143h98v-143zM266 0h-82v1057h82v-1057z" />
    <glyph glyph-name="j" unicode="j" horiz-adv-x="450" 
d="M274 1315h-98v143h98v-143zM-2 -418h-51v72h51q96 0 141 45t45 143v1215h82v-1204q0 -271 -268 -271z" />
    <glyph glyph-name="k" unicode="k" horiz-adv-x="1138" 
d="M1065 0h-98l-441 598l-260 -236v-362h-82v1458h82v-1007l662 606h108l-452 -408z" />
    <glyph glyph-name="l" unicode="l" horiz-adv-x="450" 
d="M266 0h-82v1458h82v-1458z" />
    <glyph glyph-name="m" unicode="m" horiz-adv-x="1759" 
d="M1253 1081q156 0 240 -94q84 -95 84 -276v-711h-82v711q0 299 -266 299q-135 0 -221 -108q-86 -109 -86 -310v-592h-82v711q0 299 -267 299q-135 0 -221 -110t-86 -312v-588h-82v1057h78l-2 -223l2 -3q91 250 336 250q127 0 208 -66t105 -194q83 260 342 260z" />
    <glyph glyph-name="n" unicode="n" horiz-adv-x="1200" 
d="M649 1081q175 0 271 -100t96 -281v-700h-82v686q0 157 -76 240q-76 84 -223 84q-170 0 -269 -111q-100 -112 -100 -324v-575h-82v1057h78v-238q96 262 387 262z" />
    <glyph glyph-name="o" unicode="o" horiz-adv-x="1204" 
d="M602 -25q-218 0 -352 152q-133 151 -133 401q0 254 135 404q130 149 352 149t352 -149q134 -152 134 -402t-136 -401q-136 -154 -352 -154zM309 176q107 -131 293 -131q184 0 295 131q111 130 111 354q0 223 -110 353q-110 129 -296 129q-185 0 -294 -130t-109 -354
t110 -352z" />
    <glyph glyph-name="p" unicode="p" horiz-adv-x="1220" 
d="M657 1081q205 0 328 -145q121 -149 121 -393q0 -253 -121 -410q-123 -158 -332 -158q-132 0 -235 74t-152 195v-662h-82v1475h74v-266q43 130 149 210t250 80zM645 49q178 0 279 137q100 133 100 357q0 220 -100 342q-100 123 -275 123q-176 0 -281 -127
q-106 -129 -106 -349q0 -219 107 -350q108 -133 276 -133z" />
    <glyph glyph-name="q" unicode="q" horiz-adv-x="1220" 
d="M965 791v266h73v-1475h-82v664q-50 -122 -152 -196q-104 -75 -235 -75q-207 0 -329 158q-123 157 -123 406q0 243 123 395q122 147 325 147q145 0 251 -80t149 -210zM575 49q169 0 277 133q106 130 106 350q0 222 -105 349t-280 127q-173 0 -274 -125
q-100 -124 -100 -344q0 -224 100 -357t276 -133z" />
    <glyph glyph-name="r" unicode="r" horiz-adv-x="761" 
d="M633 1083q41 0 84 -6v-80q-61 7 -94 7q-157 0 -256 -108q-100 -109 -101 -304v-592h-82v1057h78v-242q44 130 138 199t233 69z" />
    <glyph glyph-name="s" unicode="s" horiz-adv-x="1071" 
d="M545 -25q-195 0 -306 90q-109 88 -120 257h78q21 -279 350 -279q157 0 243 62q87 63 87 174q0 178 -240 215l-178 30q-160 27 -235 89q-77 63 -77 178q0 134 102 209t275 75q179 0 286 -82q108 -83 120 -229h-82q-11 118 -95 180q-87 64 -231 64q-137 0 -218 -57
t-81 -156q0 -83 61 -129q62 -46 193 -70l174 -29q305 -53 305 -282q0 -146 -109 -228t-302 -82z" />
    <glyph glyph-name="t" unicode="t" horiz-adv-x="677" 
d="M616 989l-280 4v-762q0 -83 36 -121t115 -38h127v-72h-145q-215 0 -215 221v772l-199 -4v68l199 -4v311h82v-311l280 4v-68z" />
    <glyph glyph-name="u" unicode="u" horiz-adv-x="1200" 
d="M934 481v576h82v-1057h-78v238q-99 -263 -387 -263q-176 0 -271 101q-96 102 -96 280v701h82v-686q0 -157 76 -240q76 -84 223 -84q171 0 270 111t99 323z" />
    <glyph glyph-name="v" unicode="v" horiz-adv-x="1089" 
d="M600 221l328 836h84l-422 -1057h-84l-428 1057h88l332 -836l51 -149z" />
    <glyph glyph-name="w" unicode="w" horiz-adv-x="1568" 
d="M1155 264l250 793h86l-346 -1057h-80l-242 817l-37 166l-41 -166l-243 -817h-82l-342 1057h88l248 -793l47 -174l45 174l237 793h84l238 -793l43 -170z" />
    <glyph glyph-name="x" unicode="x" horiz-adv-x="1134" 
d="M612 559l445 -559h-103l-387 504l-389 -504h-100l446 559l-397 498h100l340 -443l338 443h101z" />
    <glyph glyph-name="y" unicode="y" horiz-adv-x="1112" 
d="M563 51l385 1006h86l-508 -1290q-40 -105 -100 -145q-59 -40 -176 -40h-74v72h68q94 0 141 31q46 31 80 118l65 166l-452 1088h88l381 -932z" />
    <glyph glyph-name="z" unicode="z" horiz-adv-x="1073" 
d="M926 1004l-711 -934h743v-70h-841v59l704 928h-680v70h785v-53z" />
    <glyph glyph-name="braceleft" unicode="{" horiz-adv-x="780" 
d="M678 -420h-137q-215 0 -215 223v506q0 115 -50 162t-174 47v76q124 0 174 47t50 162v504q0 223 215 223h137v-72h-117q-81 0 -119 -39q-36 -37 -36 -127v-487q0 -215 -175 -248v-2q175 -33 175 -248v-489q0 -87 36 -126q37 -40 119 -40h117v-72z" />
    <glyph glyph-name="bar" unicode="|" horiz-adv-x="495" 
d="M289 -418h-82v1948h82v-1948z" />
    <glyph glyph-name="braceright" unicode="}" horiz-adv-x="780" 
d="M240 -420h-138v72h117q82 0 119 40t37 126v489q0 215 174 248v2q-174 33 -174 248v487q0 89 -37 127q-38 39 -119 39h-117v72h138q215 0 215 -223v-504q0 -116 49 -162q50 -47 174 -47v-76q-124 0 -174 -47q-49 -46 -49 -162v-506q0 -223 -215 -223z" />
    <glyph glyph-name="asciitilde" unicode="~" 
d="M223 504h-71q0 175 71 267q72 93 193 93q65 0 119 -29q53 -29 95 -72q27 -28 79 -84q39 -42 87 -72q46 -29 99 -29q89 0 140 75q52 76 52 211h72q0 -174 -72 -267t-192 -93q-63 0 -119 30q-55 30 -95 71t-79 85q-37 42 -86 73q-46 30 -100 30q-89 0 -141 -76t-52 -213z
" />
    <glyph glyph-name="uni00A0" unicode="&#xa0;" horiz-adv-x="593" 
 />
    <glyph glyph-name="exclamdown" unicode="&#xa1;" horiz-adv-x="534" 
d="M328 936h-121v121h121v-121zM309 -401h-84v419l21 695h43l20 -695v-419z" />
    <glyph glyph-name="cent" unicode="&#xa2;" 
d="M678 45q148 0 237 82q90 83 111 227h78q-21 -164 -121 -264q-101 -101 -264 -113v-272h-74v270q-204 10 -321 156q-117 145 -117 395q0 249 116 397q115 146 322 158v283h74v-285q166 -12 266 -109q101 -98 119 -243h-76q-18 129 -109 207t-241 78q-189 0 -289 -127
t-100 -357q0 -228 102 -355q102 -128 287 -128z" />
    <glyph glyph-name="sterling" unicode="&#xa3;" 
d="M387 74h799v-74h-1059v74h20q173 0 295 102q119 101 119 246q0 115 -92 233l-342 -4v70l289 -4q-93 100 -134 184q-40 81 -40 178q0 175 120 291q123 115 332 115q208 0 336 -113q127 -112 148 -297h-82q-27 181 -142 260q-112 76 -260 76q-172 0 -271 -93t-99 -247
q0 -83 36 -158q38 -78 144 -196l493 4v-70l-440 4q82 -106 82 -229q0 -112 -68 -207q-67 -94 -184 -145z" />
    <glyph glyph-name="currency" unicode="&#xa4;" 
d="M1163 737q0 -201 -123 -340l213 -211l-47 -49l-211 213q-143 -121 -340 -121t-340 121l-211 -213l-47 49l213 211q-123 139 -123 340q0 197 121 340l-211 209l47 49l209 -213q137 123 342 123t342 -123l209 213l47 -49l-211 -209q121 -143 121 -340zM344 422
q118 -123 311 -123t312 123q120 123 120 315q0 193 -120 316q-121 121 -312 121q-190 0 -311 -121q-121 -124 -121 -316q0 -191 121 -315z" />
    <glyph glyph-name="yen" unicode="&#xa5;" 
d="M1196 1458h96l-547 -790h441v-74h-486v-223h486v-74h-486v-297h-82v297h-483v74h483v223h-483v74h438l-555 790h101l510 -733l33 -51l30 51z" />
    <glyph glyph-name="brokenbar" unicode="&#xa6;" horiz-adv-x="495" 
d="M289 842h-82v688h82v-688zM289 -418h-82v688h82v-688z" />
    <glyph glyph-name="section" unicode="&#xa7;" horiz-adv-x="1288" 
d="M1133 584q0 -209 -226 -281q109 -86 109 -227q0 -140 -105 -223q-106 -80 -282 -80q-185 0 -288 88t-114 248h78q15 -267 326 -267q147 0 227 62t80 170q0 183 -252 243l-205 52q-325 73 -325 305q0 210 225 282q-111 84 -111 226q0 141 105 225q106 80 284 80
q185 0 288 -88t114 -248h-78q-18 266 -326 266q-148 0 -228 -61q-81 -62 -81 -172q0 -184 250 -244l205 -49q330 -78 330 -307zM834 344q105 22 164 84t59 152q0 183 -283 245l-217 56q-40 7 -104 32q-106 -21 -163 -80q-59 -61 -59 -153q0 -185 279 -248l219 -53
q52 -11 105 -35z" />
    <glyph glyph-name="dieresis" unicode="&#xa8;" horiz-adv-x="1024" 
d="M362 1313h-108v147h108v-147zM770 1313h-108v147h108v-147z" />
    <glyph glyph-name="copyright" unicode="&#xa9;" horiz-adv-x="1783" 
d="M1421 193q-207 -213 -530 -213q-322 0 -529 213q-206 212 -206 538q0 325 206 537q205 211 529 211q325 0 530 -211t205 -537q0 -327 -205 -538zM891 41q294 0 483 195q187 193 187 495q0 301 -187 494q-186 192 -483 192q-295 0 -481 -192q-189 -195 -189 -494
q0 -300 189 -495t481 -195zM891 354q-148 0 -232 101t-84 278q0 179 84 279t234 100q121 0 198 -60t95 -163l-62 -12q-18 81 -76 127q-59 47 -155 47q-122 0 -188 -82q-66 -83 -66 -236q0 -151 67 -235q66 -82 185 -82q188 0 235 176l62 -10q-24 -107 -103 -168
q-78 -60 -194 -60z" />
    <glyph glyph-name="ordfeminine" unicode="&#xaa;" horiz-adv-x="999" 
d="M506 1485q158 0 234 -65q75 -64 75 -197v-461h-59l-8 149q-88 -166 -308 -166q-118 0 -187 57t-69 152q0 188 236 205l325 23v51q0 190 -237 190q-192 0 -236 -129l-63 23q57 168 297 168zM453 807q125 0 205 71q80 70 87 183v65l-303 -20q-186 -15 -186 -150
q0 -71 52 -110t145 -39z" />
    <glyph glyph-name="guillemotleft" unicode="&#xab;" horiz-adv-x="1454" 
d="M696 76v-96l-512 499v94l512 500v-96l-458 -451zM1270 76v-96l-512 499v94l512 500v-96l-459 -451z" />
    <glyph glyph-name="logicalnot" unicode="&#xac;" 
d="M1147 240h-74v452h-909v74h983v-526z" />
    <glyph glyph-name="uni00AD" unicode="&#xad;" horiz-adv-x="772" 
d="M674 473h-574v76h574v-76z" />
    <glyph glyph-name="registered" unicode="&#xae;" horiz-adv-x="1312" 
d="M301 1335q147 142 356 142q210 0 357 -142q143 -140 143 -344t-143 -344q-146 -141 -357 -141t-356 141t-145 344t145 344zM336 682q133 -127 321 -127q190 0 320 127q129 124 129 309t-129 312q-130 127 -320 127q-191 0 -321 -127q-131 -125 -131 -312q0 -184 131 -309
zM860 879l6 -93q1 -39 25 -67h-49q-20 26 -21 67l-6 84q-5 56 -29 77q-25 22 -86 22h-184v-250h-47v557h225q85 0 131 -40q47 -41 47 -112q0 -100 -96 -135q78 -23 84 -110zM516 1010h180q129 0 129 110q0 113 -131 113h-178v-223z" />
    <glyph glyph-name="overscore" unicode="&#xaf;" horiz-adv-x="1024" 
d="M815 1327h-606v66h606v-66z" />
    <glyph glyph-name="degree" unicode="&#xb0;" horiz-adv-x="907" 
d="M455 809q-146 0 -242 96t-96 242t96 242t242 96q145 0 241 -96q97 -97 97 -242t-97 -242q-96 -96 -241 -96zM260 952q78 -78 195 -78q116 0 194 78q76 76 76 195q0 120 -76 196t-194 76q-119 0 -195 -76q-78 -78 -78 -196q0 -117 78 -195z" />
    <glyph glyph-name="plusminus" unicode="&#xb1;" 
d="M692 1178v-383h525v-74h-525v-381h-74v381h-526v74h526v383h74zM1198 45h-1083v74h1083v-74z" />
    <glyph glyph-name="two.sups" unicode="&#xb2;" horiz-adv-x="942" 
d="M797 762h-647q0 237 268 364l133 64q170 80 170 209q0 84 -64 137t-178 53q-237 0 -243 -231h-76q1 144 86 221q83 76 233 76q145 0 231 -72q85 -72 85 -184q0 -87 -49 -150q-48 -61 -162 -114l-113 -56q-218 -105 -235 -252h561v-65z" />
    <glyph glyph-name="three.sups" unicode="&#xb3;" horiz-adv-x="886" 
d="M446 743q-156 0 -250 74t-94 199h74q1 -97 73 -155q69 -56 200 -56q123 0 192 51q70 52 70 145q0 87 -67 137t-183 50h-70v65h70q98 0 152 45q55 46 55 121q0 79 -64 126q-62 46 -170 46q-111 0 -173 -49t-64 -141h-74q0 116 83 185q82 69 226 69q138 0 224 -63
q85 -63 85 -167q0 -74 -41 -127t-114 -71v-2q87 -18 143 -80q55 -61 55 -146q0 -117 -92 -186q-93 -70 -246 -70z" />
    <glyph glyph-name="acute" unicode="&#xb4;" horiz-adv-x="1024" 
d="M424 1255h-78l223 310h111z" />
    <glyph glyph-name="uni00B5" unicode="&#xb5;" horiz-adv-x="1200" 
d="M266 -418h-82v1475h82v-686q0 -157 76 -240q76 -84 223 -84q171 0 270 111t99 323v576h82v-1057h-80l4 244q-99 -269 -385 -269q-219 0 -301 172l-4 -2l16 -333v-230z" />
    <glyph glyph-name="paragraph" unicode="&#xb6;" horiz-adv-x="1222" 
d="M608 -211h-73v942q-212 0 -321 94q-110 95 -110 271q0 174 111 268q110 94 320 94h481v-1669h-74v1595h-334v-1595z" />
    <glyph glyph-name="middot" unicode="&#xb7;" horiz-adv-x="686" 
d="M416 655h-146v131h146v-131z" />
    <glyph glyph-name="cedilla" unicode="&#xb8;" horiz-adv-x="1024" 
d="M436 -457h-76v56h70q174 0 174 110q0 94 -129 94h-88l-29 47l93 150h57l-84 -137h61q185 0 185 -152q0 -80 -62 -124t-172 -44z" />
    <glyph glyph-name="one.sups" unicode="&#xb9;" horiz-adv-x="628" 
d="M444 762h-71v608h-281v60h176q55 0 82 18q28 18 29 63l2 125h63v-874z" />
    <glyph glyph-name="ordmasculine" unicode="&#xba;" horiz-adv-x="933" 
d="M471 745q-155 0 -254 105q-100 100 -100 264q0 167 100 268q100 103 254 103q153 0 252 -105q98 -104 98 -266q0 -165 -98 -264q-99 -105 -252 -105zM471 807q125 0 202 84q77 85 77 223q0 140 -77 225q-77 84 -202 84q-129 0 -207 -84t-78 -225q0 -140 79 -223
q79 -84 206 -84z" />
    <glyph glyph-name="guillemotright" unicode="&#xbb;" horiz-adv-x="1454" 
d="M696 479l-512 -499v96l457 450l-457 451v96l512 -500v-94zM1270 479l-512 -499v96l456 450l-456 451v96l512 -500v-94z" />
    <glyph glyph-name="onequarter" unicode="&#xbc;" horiz-adv-x="2166" 
d="M557 657h-72v609h-278v59h174q110 0 111 82l2 125h63v-875zM610 -31h-84l918 1520h82zM1806 0h-71v231l-500 -2v64l496 581h75v-585l154 2v-62l-154 2v-231zM1731 784l-424 -493l428 -2v495h-4z" />
    <glyph glyph-name="onehalf" unicode="&#xbd;" horiz-adv-x="2248" 
d="M557 657h-72v609h-278v59h174q110 0 111 82l2 125h63v-875zM610 -31h-84l918 1520h82zM2040 0h-645q0 240 266 365l135 63q170 84 170 209q0 85 -64 137q-65 53 -180 53q-237 0 -243 -231h-74q1 144 86 221q83 76 231 76q146 0 231 -72t85 -184q0 -89 -48 -150t-161 -114
l-115 -56q-219 -106 -235 -251h561v-66z" />
    <glyph glyph-name="threequarters" unicode="&#xbe;" horiz-adv-x="2316" 
d="M528 639q-156 0 -250 74t-94 198h74q0 -97 72 -154t200 -57q123 0 193 52t70 145q0 86 -67 136t-183 50h-72v66h72q96 0 151 46q56 47 56 120q0 79 -64 126q-62 46 -170 46q-111 0 -173 -49t-64 -142h-74q0 117 83 186q81 68 226 68q140 0 224 -62q85 -63 85 -167
q0 -72 -42 -126q-43 -56 -113 -73v-2q87 -18 142 -79q54 -60 54 -146q0 -117 -91 -186q-93 -70 -245 -70zM782 -31h-84l918 1520h84zM1978 0h-71v231l-498 -2v64l494 581h75v-585l154 2v-62l-154 2v-231zM1903 784l-422 -493l426 -2v495h-4z" />
    <glyph glyph-name="questiondown" unicode="&#xbf;" horiz-adv-x="1245" 
d="M717 936h-121v121h121v-121zM631 -418q-219 0 -347 101t-128 284q0 112 53 198q52 85 174 157l70 43q98 63 133 129q32 61 32 184v33h80v-49q0 -131 -47 -216q-49 -81 -190 -161q-127 -72 -177 -146q-51 -76 -51 -174q0 -152 106 -234q105 -81 292 -81q191 0 295 97
q103 96 114 282h80q-7 -213 -134 -330q-126 -117 -355 -117z" />
    <glyph glyph-name="Agrave" unicode="&#xc0;" horiz-adv-x="1466" 
d="M598 1966l223 -309h-78l-256 309h111zM1393 0h-93l-194 473h-746l-196 -473h-88l614 1462h88zM711 1313l-320 -766h684l-317 766l-23 71z" />
    <glyph glyph-name="Aacute" unicode="&#xc1;" horiz-adv-x="1466" 
d="M858 1966h111l-254 -309h-78zM1393 0h-93l-194 473h-746l-196 -473h-88l614 1462h88zM711 1313l-320 -766h684l-317 766l-23 71z" />
    <glyph glyph-name="Acircumflex" unicode="&#xc2;" horiz-adv-x="1466" 
d="M958 1638l-225 275l-225 -275h-90l272 328h86l273 -328h-91zM1393 0h-93l-194 473h-746l-196 -473h-88l614 1462h88zM711 1313l-320 -766h684l-317 766l-23 71z" />
    <glyph glyph-name="Atilde" unicode="&#xc3;" horiz-adv-x="1466" 
d="M557 1917q-126 0 -137 -244h-66q8 309 203 309q63 0 112 -34q51 -35 79 -86q69 -123 163 -123q125 0 136 243h65q-8 -309 -203 -309q-61 0 -111 36q-50 37 -77 87q-28 50 -73 86q-44 35 -91 35zM1393 0h-93l-194 473h-746l-196 -473h-88l614 1462h88zM711 1313l-320 -766
h684l-317 766l-23 71z" />
    <glyph glyph-name="Adieresis" unicode="&#xc4;" horiz-adv-x="1466" 
d="M475 1821h109v-148h-109v148zM883 1821h108v-148h-108v148zM1393 0h-93l-194 473h-746l-196 -473h-88l614 1462h88zM711 1313l-320 -766h684l-317 766l-23 71z" />
    <glyph glyph-name="Aring" unicode="&#xc5;" horiz-adv-x="1466" 
d="M1393 0h-93l-194 473h-746l-196 -473h-88l594 1413q-80 18 -128 81t-48 148q0 104 67 172t172 68t172 -68q68 -70 68 -172q0 -85 -47 -147q-46 -61 -127 -82zM608 1772q-51 -50 -51 -130q0 -81 51 -126q50 -50 125 -50t127 50q49 45 49 126t-49 130q-50 49 -127 49
q-76 0 -125 -49zM711 1313l-320 -766h684l-317 766l-23 71z" />
    <glyph glyph-name="AE" unicode="&#xc6;" horiz-adv-x="2322" 
d="M1247 723v-649h930v-74h-1012v459h-710l-291 -459h-88l925 1458h1143v-74h-897v-587h836v-74h-836zM1044 1389l-544 -861h665v861h-121z" />
    <glyph glyph-name="Ccedilla" unicode="&#xc7;" horiz-adv-x="1507" 
d="M1315 502h82q-22 -230 -183 -377q-165 -153 -401 -154l-76 -123h62q184 0 184 -151q0 -81 -61 -124q-62 -44 -172 -44h-76v55h69q175 0 175 111q0 94 -130 94h-88l-28 47l84 137q-280 15 -439 226q-161 206 -161 532q0 339 176 547q174 205 467 205q235 0 399 -131
q166 -133 193 -336h-84q-30 176 -168 284q-141 109 -338 109q-257 0 -408 -182q-153 -185 -153 -496q0 -307 151 -495q152 -189 412 -189q207 0 352 125q145 127 160 330z" />
    <glyph glyph-name="Egrave" unicode="&#xc8;" horiz-adv-x="1363" 
d="M582 1966l223 -309h-78l-256 309h111zM289 723v-649h930v-74h-1012v1458h979v-74h-897v-587h835v-74h-835z" />
    <glyph glyph-name="Eacute" unicode="&#xc9;" horiz-adv-x="1363" 
d="M842 1966h110l-254 -309h-77zM289 723v-649h930v-74h-1012v1458h979v-74h-897v-587h835v-74h-835z" />
    <glyph glyph-name="Ecircumflex" unicode="&#xca;" horiz-adv-x="1363" 
d="M940 1638l-225 275l-226 -275h-90l273 328h86l272 -328h-90zM289 723v-649h930v-74h-1012v1458h979v-74h-897v-587h835v-74h-835z" />
    <glyph glyph-name="Edieresis" unicode="&#xcb;" horiz-adv-x="1363" 
d="M457 1821h108v-148h-108v148zM864 1821h109v-148h-109v148zM289 723v-649h930v-74h-1012v1458h979v-74h-897v-587h835v-74h-835z" />
    <glyph glyph-name="Igrave" unicode="&#xcc;" horiz-adv-x="495" 
d="M336 1657h-78l-256 309h111zM289 0h-82v1458h82v-1458z" />
    <glyph glyph-name="Iacute" unicode="&#xcd;" horiz-adv-x="495" 
d="M229 1657h-77l221 309h110zM289 0h-82v1458h82v-1458z" />
    <glyph glyph-name="Icircumflex" unicode="&#xce;" horiz-adv-x="495" 
d="M23 1638h-91l273 328h86l272 -328h-90l-225 275zM289 0h-82v1458h82v-1458z" />
    <glyph glyph-name="Idieresis" unicode="&#xcf;" horiz-adv-x="495" 
d="M98 1673h-108v148h108v-148zM506 1673h-109v148h109v-148zM289 0h-82v1458h82v-1458z" />
    <glyph glyph-name="Eth" unicode="&#xd0;" horiz-adv-x="1658" 
d="M375 1458h493q321 0 484 -190q164 -191 164 -539q0 -349 -171 -539t-505 -190h-465v709l-320 -4v73l320 -6v686zM459 74h379q298 0 447 168q149 169 149 487q0 316 -146 486q-145 169 -432 169h-397v-612l440 6v-73l-440 4v-635z" />
    <glyph glyph-name="Ntilde" unicode="&#xd1;" horiz-adv-x="1517" 
d="M582 1917q-127 0 -138 -244h-65q7 309 203 309q62 0 111 -34q51 -35 79 -86q69 -123 164 -123q124 0 135 243h66q-7 -309 -203 -309q-62 0 -112 36q-50 37 -77 87q-29 52 -72 86q-44 35 -91 35zM1231 119v1339h78v-1458h-88l-936 1337v-1337h-78v1458h86z" />
    <glyph glyph-name="Ograve" unicode="&#xd2;" horiz-adv-x="1660" 
d="M915 1657h-77l-256 309h110zM829 -29q-305 0 -489 213q-184 212 -184 545t184 545q185 209 489 209q307 0 492 -209q184 -212 184 -545t-184 -545q-185 -213 -492 -213zM829 47q269 0 433 189q159 186 159 493q0 305 -159 494q-162 186 -433 186q-269 0 -428 -186
q-161 -185 -161 -494q0 -306 161 -491q159 -191 428 -191z" />
    <glyph glyph-name="Oacute" unicode="&#xd3;" horiz-adv-x="1660" 
d="M809 1657h-78l221 309h111zM829 -29q-305 0 -489 213q-184 212 -184 545t184 545q185 209 489 209q307 0 492 -209q184 -212 184 -545t-184 -545q-185 -213 -492 -213zM829 47q269 0 433 189q159 186 159 493q0 305 -159 494q-162 186 -433 186q-269 0 -428 -186
q-161 -185 -161 -494q0 -306 161 -491q159 -191 428 -191z" />
    <glyph glyph-name="Ocircumflex" unicode="&#xd4;" horiz-adv-x="1660" 
d="M602 1638h-90l272 328h86l273 -328h-90l-226 275zM829 -29q-305 0 -489 213q-184 212 -184 545t184 545q185 209 489 209q307 0 492 -209q184 -212 184 -545t-184 -545q-185 -213 -492 -213zM829 47q269 0 433 189q159 186 159 493q0 305 -159 494q-162 186 -433 186
q-269 0 -428 -186q-161 -185 -161 -494q0 -306 161 -491q159 -191 428 -191z" />
    <glyph glyph-name="Otilde" unicode="&#xd5;" horiz-adv-x="1660" 
d="M514 1673h-65q8 309 202 309q63 0 112 -34q51 -35 79 -86q69 -123 164 -123q124 0 135 243h65q-8 -309 -202 -309q-62 0 -112 36q-50 37 -77 87q-28 50 -73 86q-44 35 -91 35q-126 0 -137 -244zM829 -29q-305 0 -489 213q-184 212 -184 545t184 545q185 209 489 209
q307 0 492 -209q184 -212 184 -545t-184 -545q-185 -213 -492 -213zM829 47q269 0 433 189q159 186 159 493q0 305 -159 494q-162 186 -433 186q-269 0 -428 -186q-161 -185 -161 -494q0 -306 161 -491q159 -191 428 -191z" />
    <glyph glyph-name="Odieresis" unicode="&#xd6;" horiz-adv-x="1660" 
d="M678 1673h-109v148h109v-148zM1085 1673h-108v148h108v-148zM829 -29q-305 0 -489 213q-184 212 -184 545t184 545q185 209 489 209q307 0 492 -209q184 -212 184 -545t-184 -545q-185 -213 -492 -213zM829 47q269 0 433 189q159 186 159 493q0 305 -159 494
q-162 186 -433 186q-269 0 -428 -186q-161 -185 -161 -494q0 -306 161 -491q159 -191 428 -191z" />
    <glyph glyph-name="multiply" unicode="&#xd7;" 
d="M653 586l-446 -449l-47 51l446 447l-446 444l47 51l446 -448l449 448l49 -49l-446 -446l446 -449l-49 -49z" />
    <glyph glyph-name="Oslash" unicode="&#xd8;" horiz-adv-x="1660" 
d="M1489 1427l-152 -174q168 -201 168 -524q0 -333 -184 -545q-185 -213 -492 -213q-270 0 -454 176l-137 -157l-50 39l144 164q-176 214 -176 536q0 333 184 545q185 209 489 209q282 0 465 -183l148 168zM240 729q0 -287 145 -475l858 987q-156 168 -414 168
q-269 0 -428 -186q-161 -185 -161 -494zM829 47q269 0 433 189q159 186 159 493q0 282 -137 463l-858 -985q165 -160 403 -160z" />
    <glyph glyph-name="Ugrave" unicode="&#xd9;" horiz-adv-x="1503" 
d="M840 1657h-78l-256 309h110zM752 -27q-261 0 -403 124t-142 380v981h82v-983q0 -428 463 -428q460 0 460 428v983h82v-981q0 -255 -143 -379q-145 -125 -399 -125z" />
    <glyph glyph-name="Uacute" unicode="&#xda;" horiz-adv-x="1503" 
d="M733 1657h-78l222 309h110zM752 -27q-261 0 -403 124t-142 380v981h82v-983q0 -428 463 -428q460 0 460 428v983h82v-981q0 -255 -143 -379q-145 -125 -399 -125z" />
    <glyph glyph-name="Ucircumflex" unicode="&#xdb;" horiz-adv-x="1503" 
d="M526 1638h-90l273 328h86l272 -328h-90l-225 275zM752 -27q-261 0 -403 124t-142 380v981h82v-983q0 -428 463 -428q460 0 460 428v983h82v-981q0 -255 -143 -379q-145 -125 -399 -125z" />
    <glyph glyph-name="Udieresis" unicode="&#xdc;" horiz-adv-x="1503" 
d="M602 1673h-108v148h108v-148zM1010 1673h-109v148h109v-148zM752 -27q-261 0 -403 124t-142 380v981h82v-983q0 -428 463 -428q460 0 460 428v983h82v-981q0 -255 -143 -379q-145 -125 -399 -125z" />
    <glyph glyph-name="Yacute" unicode="&#xdd;" horiz-adv-x="1378" 
d="M815 1966h111l-254 -309h-78zM1231 1458h94l-590 -868v-590h-84v590l-598 868h99l510 -747l32 -54l31 54z" />
    <glyph glyph-name="Thorn" unicode="&#xde;" horiz-adv-x="1323" 
d="M289 1163h487q207 0 324 -104q119 -105 119 -295q0 -193 -121 -301q-123 -109 -340 -109h-469v-354h-82v1458h82v-295zM289 428h471q182 0 279 87q98 87 98 247q0 153 -99 240q-100 88 -264 88h-485v-662z" />
    <glyph glyph-name="germandbls" unicode="&#xdf;" horiz-adv-x="1226" 
d="M739 805q373 -56 373 -389q0 -196 -126 -306q-127 -110 -349 -110h-152v72h158q183 0 286 89q101 88 101 255q0 344 -432 344h-113v71h105q173 0 267 76q95 77 95 215q0 135 -91 213t-253 78q-166 0 -254 -85t-88 -245v-1083h-82v1069q0 200 110 307t316 107
q201 0 313 -95q111 -94 111 -258q0 -130 -77 -216q-76 -85 -218 -109z" />
    <glyph glyph-name="agrave" unicode="&#xe0;" horiz-adv-x="1179" 
d="M442 1565l224 -310h-78l-256 310h110zM1120 66h31v-66h-47q-111 0 -159 53t-48 174l-2 6q-46 -124 -156 -191t-262 -67q-170 0 -263 81t-93 218q0 263 334 306l264 36q94 12 132 51q36 37 36 109v15q0 106 -79 164q-80 59 -237 59t-232 -60t-91 -188h-82q28 317 412 317
q191 0 290 -78q101 -80 101 -221v-540q0 -100 32 -139t119 -39zM489 41q166 0 270 88q105 89 128 248v235q-39 -40 -142 -57l-278 -41q-266 -39 -266 -238q0 -108 75 -171q76 -64 213 -64z" />
    <glyph glyph-name="aacute" unicode="&#xe1;" horiz-adv-x="1179" 
d="M702 1565h111l-254 -310h-78zM1120 66h31v-66h-47q-111 0 -159 53t-48 174l-2 6q-46 -124 -156 -191t-262 -67q-170 0 -263 81t-93 218q0 263 334 306l264 36q94 12 132 51q36 37 36 109v15q0 106 -79 164q-80 59 -237 59t-232 -60t-91 -188h-82q28 317 412 317
q191 0 290 -78q101 -80 101 -221v-540q0 -100 32 -139t119 -39zM489 41q166 0 270 88q105 89 128 248v235q-39 -40 -142 -57l-278 -41q-266 -39 -266 -238q0 -108 75 -171q76 -64 213 -64z" />
    <glyph glyph-name="acircumflex" unicode="&#xe2;" horiz-adv-x="1179" 
d="M803 1237l-225 274l-226 -274h-90l273 328h86l272 -328h-90zM1120 66h31v-66h-47q-111 0 -159 53t-48 174l-2 6q-46 -124 -156 -191t-262 -67q-170 0 -263 81t-93 218q0 263 334 306l264 36q94 12 132 51q36 37 36 109v15q0 106 -79 164q-80 59 -237 59t-232 -60
t-91 -188h-82q28 317 412 317q191 0 290 -78q101 -80 101 -221v-540q0 -100 32 -139t119 -39zM489 41q166 0 270 88q105 89 128 248v235q-39 -40 -142 -57l-278 -41q-266 -39 -266 -238q0 -108 75 -171q76 -64 213 -64z" />
    <glyph glyph-name="atilde" unicode="&#xe3;" horiz-adv-x="1179" 
d="M401 1516q-126 0 -137 -244h-65q7 309 202 309q62 0 112 -35q51 -35 79 -86q69 -123 164 -123q124 0 135 244h65q-8 -309 -202 -309q-62 0 -112 36q-50 37 -77 87q-29 52 -72 86q-44 35 -92 35zM1120 66h31v-66h-47q-111 0 -159 53t-48 174l-2 6q-46 -124 -156 -191
t-262 -67q-170 0 -263 81t-93 218q0 263 334 306l264 36q94 12 132 51q36 37 36 109v15q0 106 -79 164q-80 59 -237 59t-232 -60t-91 -188h-82q28 317 412 317q191 0 290 -78q101 -80 101 -221v-540q0 -100 32 -139t119 -39zM489 41q166 0 270 88q105 89 128 248v235
q-39 -40 -142 -57l-278 -41q-266 -39 -266 -238q0 -108 75 -171q76 -64 213 -64z" />
    <glyph glyph-name="adieresis" unicode="&#xe4;" horiz-adv-x="1179" 
d="M319 1460h109v-147h-109v147zM727 1460h109v-147h-109v147zM1120 66h31v-66h-47q-111 0 -159 53t-48 174l-2 6q-46 -124 -156 -191t-262 -67q-170 0 -263 81t-93 218q0 263 334 306l264 36q94 12 132 51q36 37 36 109v15q0 106 -79 164q-80 59 -237 59t-232 -60t-91 -188
h-82q28 317 412 317q191 0 290 -78q101 -80 101 -221v-540q0 -100 32 -139t119 -39zM489 41q166 0 270 88q105 89 128 248v235q-39 -40 -142 -57l-278 -41q-266 -39 -266 -238q0 -108 75 -171q76 -64 213 -64z" />
    <glyph glyph-name="aring" unicode="&#xe5;" horiz-adv-x="1179" 
d="M750 1284q-67 -67 -172 -67t-172 67q-68 68 -68 170t68 172q68 68 172 68t172 -68q67 -68 67 -172q0 -103 -67 -170zM705 1585q-49 45 -127 45t-127 -45q-50 -50 -50 -131q0 -76 51 -127q49 -49 126 -49q76 0 125 49q51 51 51 127q0 82 -49 131zM1120 66h31v-66h-47
q-111 0 -159 53t-48 174l-2 6q-46 -124 -156 -191t-262 -67q-170 0 -263 81t-93 218q0 263 334 306l264 36q94 12 132 51q36 37 36 109v15q0 106 -79 164q-80 59 -237 59t-232 -60t-91 -188h-82q28 317 412 317q191 0 290 -78q101 -80 101 -221v-540q0 -100 32 -139t119 -39
zM489 41q166 0 270 88q105 89 128 248v235q-39 -40 -142 -57l-278 -41q-266 -39 -266 -238q0 -108 75 -171q76 -64 213 -64z" />
    <glyph glyph-name="ae" unicode="&#xe6;" horiz-adv-x="1933" 
d="M1819 573v-45h-856v-6q0 -223 107 -349q108 -128 294 -128q140 0 232 72q91 72 130 190l74 -12q-43 -143 -158 -232q-113 -88 -280 -88q-155 0 -268 80t-164 226q-50 -148 -163 -227t-280 -79q-175 0 -270 85q-96 86 -96 225q0 142 97 224q98 83 278 83h389v162
q0 124 -83 192t-243 68q-148 0 -223 -61q-73 -60 -88 -187h-82q28 317 399 317q334 0 385 -243q118 241 404 241q213 0 340 -139q125 -140 125 -369zM1354 1012q-169 0 -275 -112q-103 -109 -114 -308h778q-10 194 -113 307q-102 113 -276 113zM494 43q177 0 282 101
q108 103 109 286v98l-396 -4q-138 -1 -214 -65q-74 -62 -74 -174q0 -110 77 -176q76 -66 216 -66z" />
    <glyph glyph-name="ccedilla" unicode="&#xe7;" horiz-adv-x="1116" 
d="M588 45q148 0 237 82q90 83 111 227h78q-22 -169 -128 -270q-106 -102 -280 -109l-76 -125h62q184 0 184 -151q0 -81 -61 -124q-62 -44 -172 -44h-76v55h70q174 0 174 111q0 94 -129 94h-88l-29 47l86 137q-204 12 -319 159q-115 146 -115 392q0 260 125 408
q124 147 346 147q184 0 295 -98q113 -100 131 -256h-78q-18 125 -109 206q-89 79 -239 79q-188 0 -289 -126q-100 -125 -100 -358q0 -228 102 -355q102 -128 287 -128z" />
    <glyph glyph-name="egrave" unicode="&#xe8;" horiz-adv-x="1167" 
d="M453 1565l223 -310h-78l-256 310h111zM1053 573v-45h-854v-6q0 -222 106 -349q107 -128 293 -128q140 0 232 72q92 73 131 190l73 -12q-41 -141 -155 -230q-116 -90 -283 -90q-222 0 -350 154q-129 150 -129 406q0 248 127 399q125 147 344 147q213 0 340 -139
q125 -140 125 -369zM590 1012q-169 0 -275 -112q-103 -109 -114 -308h776q-11 195 -112 307q-102 113 -275 113z" />
    <glyph glyph-name="eacute" unicode="&#xe9;" horiz-adv-x="1167" 
d="M713 1565h110l-254 -310h-77zM1053 573v-45h-854v-6q0 -222 106 -349q107 -128 293 -128q140 0 232 72q92 73 131 190l73 -12q-41 -141 -155 -230q-116 -90 -283 -90q-222 0 -350 154q-129 150 -129 406q0 248 127 399q125 147 344 147q213 0 340 -139q125 -140 125 -369
zM590 1012q-169 0 -275 -112q-103 -109 -114 -308h776q-11 195 -112 307q-102 113 -275 113z" />
    <glyph glyph-name="ecircumflex" unicode="&#xea;" horiz-adv-x="1167" 
d="M813 1237l-225 274l-226 -274h-90l273 328h86l272 -328h-90zM1053 573v-45h-854v-6q0 -222 106 -349q107 -128 293 -128q140 0 232 72q92 73 131 190l73 -12q-41 -141 -155 -230q-116 -90 -283 -90q-222 0 -350 154q-129 150 -129 406q0 248 127 399q125 147 344 147
q213 0 340 -139q125 -140 125 -369zM590 1012q-169 0 -275 -112q-103 -109 -114 -308h776q-11 195 -112 307q-102 113 -275 113z" />
    <glyph glyph-name="edieresis" unicode="&#xeb;" horiz-adv-x="1167" 
d="M330 1460h108v-147h-108v147zM737 1460h109v-147h-109v147zM1053 573v-45h-854v-6q0 -222 106 -349q107 -128 293 -128q140 0 232 72q92 73 131 190l73 -12q-41 -141 -155 -230q-116 -90 -283 -90q-222 0 -350 154q-129 150 -129 406q0 248 127 399q125 147 344 147
q213 0 340 -139q125 -140 125 -369zM590 1012q-169 0 -275 -112q-103 -109 -114 -308h776q-11 195 -112 307q-102 113 -275 113z" />
    <glyph glyph-name="igrave" unicode="&#xec;" horiz-adv-x="450" 
d="M313 1255h-77l-256 310h110zM266 0h-82v1057h82v-1057z" />
    <glyph glyph-name="iacute" unicode="&#xed;" horiz-adv-x="450" 
d="M207 1255h-78l221 310h111zM266 0h-82v1057h82v-1057z" />
    <glyph glyph-name="icircumflex" unicode="&#xee;" horiz-adv-x="450" 
d="M-90 1237h-90l272 328h86l273 -328h-91l-225 274zM176 0h-82v1057h82v-1057z" />
    <glyph glyph-name="idieresis" unicode="&#xef;" horiz-adv-x="450" 
d="M100 1313h-108v147h108v-147zM457 1313h-109v147h109v-147zM266 0h-82v1057h82v-1057z" />
    <glyph glyph-name="eth" unicode="&#xf0;" horiz-adv-x="1157" 
d="M924 1464l-267 -186q385 -312 385 -756q0 -255 -121 -398q-121 -144 -339 -144q-211 0 -338 133t-127 344q0 205 123 340t325 135q126 0 227 -55t154 -158q-60 295 -342 520l-219 -168l-41 49l213 154q-127 93 -266 158l33 53q168 -79 288 -170l267 203zM963 520v17
q-18 151 -125 237t-263 86q-174 0 -275 -110t-101 -291q0 -182 104 -293q106 -115 279 -115q180 0 280 123q101 124 101 346z" />
    <glyph glyph-name="ntilde" unicode="&#xf1;" horiz-adv-x="1200" 
d="M436 1516q-126 0 -137 -244h-66q7 309 203 309q62 0 112 -35q51 -35 79 -86q69 -123 164 -123q124 0 135 244h65q-7 -309 -203 -309q-62 0 -111 36q-50 37 -77 87q-28 50 -73 86q-44 35 -91 35zM649 1081q175 0 271 -100t96 -281v-700h-82v686q0 157 -76 240
q-76 84 -223 84q-170 0 -269 -111q-100 -112 -100 -324v-575h-82v1057h78v-238q96 262 387 262z" />
    <glyph glyph-name="ograve" unicode="&#xf2;" horiz-adv-x="1204" 
d="M694 1255h-78l-256 310h111zM602 -25q-218 0 -352 152q-133 151 -133 401q0 254 135 404q130 149 352 149t352 -149q134 -152 134 -402t-136 -401q-136 -154 -352 -154zM309 176q107 -131 293 -131q184 0 295 131q111 130 111 354q0 223 -110 353q-110 129 -296 129
q-185 0 -294 -130t-109 -354t110 -352z" />
    <glyph glyph-name="oacute" unicode="&#xf3;" horiz-adv-x="1204" 
d="M588 1255h-78l221 310h111zM602 -25q-218 0 -352 152q-133 151 -133 401q0 254 135 404q130 149 352 149t352 -149q134 -152 134 -402t-136 -401q-136 -154 -352 -154zM309 176q107 -131 293 -131q184 0 295 131q111 130 111 354q0 223 -110 353q-110 129 -296 129
q-185 0 -294 -130t-109 -354t110 -352z" />
    <glyph glyph-name="ocircumflex" unicode="&#xf4;" horiz-adv-x="1204" 
d="M379 1237h-90l272 328h86l273 -328h-91l-225 274zM602 -25q-218 0 -352 152q-133 151 -133 401q0 254 135 404q130 149 352 149t352 -149q134 -152 134 -402t-136 -401q-136 -154 -352 -154zM309 176q107 -131 293 -131q184 0 295 131q111 130 111 354q0 223 -110 353
q-110 129 -296 129q-185 0 -294 -130t-109 -354t110 -352z" />
    <glyph glyph-name="otilde" unicode="&#xf5;" horiz-adv-x="1204" 
d="M291 1272h-66q7 309 203 309q62 0 112 -35q49 -34 78 -86q69 -123 164 -123q124 0 135 244h66q-7 -309 -203 -309q-62 0 -111 36q-50 37 -77 87q-28 50 -73 86q-44 35 -91 35q-126 0 -137 -244zM602 -25q-218 0 -352 152q-133 151 -133 401q0 254 135 404
q130 149 352 149t352 -149q134 -152 134 -402t-136 -401q-136 -154 -352 -154zM309 176q107 -131 293 -131q184 0 295 131q111 130 111 354q0 223 -110 353q-110 129 -296 129q-185 0 -294 -130t-109 -354t110 -352z" />
    <glyph glyph-name="odieresis" unicode="&#xf6;" horiz-adv-x="1204" 
d="M455 1313h-109v147h109v-147zM862 1313h-108v147h108v-147zM602 -25q-218 0 -352 152q-133 151 -133 401q0 254 135 404q130 149 352 149t352 -149q134 -152 134 -402t-136 -401q-136 -154 -352 -154zM309 176q107 -131 293 -131q184 0 295 131q111 130 111 354
q0 223 -110 353q-110 129 -296 129q-185 0 -294 -130t-109 -354t110 -352z" />
    <glyph glyph-name="divide" unicode="&#xf7;" 
d="M731 924h-151v137h151v-137zM1212 592h-1114v82h1114v-82zM731 205h-151v137h151v-137z" />
    <glyph glyph-name="oslash" unicode="&#xf8;" horiz-adv-x="1204" 
d="M1067 1044l-102 -122q125 -146 125 -392q0 -250 -136 -401q-136 -154 -352 -154q-193 0 -321 119l-99 -119l-47 37l105 127q-123 151 -123 389q0 254 135 404q130 149 352 149q197 0 320 -116l96 116zM199 528q0 -204 92 -329l583 708q-105 105 -272 105
q-185 0 -294 -130t-109 -354zM602 45q184 0 295 131q111 130 111 354q0 200 -93 330l-585 -706q106 -109 272 -109z" />
    <glyph glyph-name="ugrave" unicode="&#xf9;" horiz-adv-x="1200" 
d="M465 1565l223 -310h-78l-256 310h111zM934 481v576h82v-1057h-78v238q-99 -263 -387 -263q-176 0 -271 101q-96 102 -96 280v701h82v-686q0 -157 76 -240q76 -84 223 -84q171 0 270 111t99 323z" />
    <glyph glyph-name="uacute" unicode="&#xfa;" horiz-adv-x="1200" 
d="M725 1565h111l-254 -310h-78zM934 481v576h82v-1057h-78v238q-99 -263 -387 -263q-176 0 -271 101q-96 102 -96 280v701h82v-686q0 -157 76 -240q76 -84 223 -84q171 0 270 111t99 323z" />
    <glyph glyph-name="ucircumflex" unicode="&#xfb;" horiz-adv-x="1200" 
d="M825 1237l-225 274l-225 -274h-90l272 328h86l272 -328h-90zM934 481v576h82v-1057h-78v238q-99 -263 -387 -263q-176 0 -271 101q-96 102 -96 280v701h82v-686q0 -157 76 -240q76 -84 223 -84q171 0 270 111t99 323z" />
    <glyph glyph-name="udieresis" unicode="&#xfc;" horiz-adv-x="1200" 
d="M342 1460h109v-147h-109v147zM750 1460h108v-147h-108v147zM934 481v576h82v-1057h-78v238q-99 -263 -387 -263q-176 0 -271 101q-96 102 -96 280v701h82v-686q0 -157 76 -240q76 -84 223 -84q171 0 270 111t99 323z" />
    <glyph glyph-name="yacute" unicode="&#xfd;" horiz-adv-x="1112" 
d="M682 1565h111l-254 -310h-78zM563 51l385 1006h86l-508 -1290q-40 -105 -100 -145q-59 -40 -176 -40h-74v72h68q94 0 141 31q46 31 80 118l65 166l-452 1088h88l381 -932z" />
    <glyph glyph-name="thorn" unicode="&#xfe;" horiz-adv-x="1220" 
d="M657 1081q205 0 328 -145q121 -149 121 -393q0 -253 -121 -410q-123 -158 -332 -158q-132 0 -235 74t-152 195v-662h-82v1876h82v-645q45 121 150 195q104 73 241 73zM645 49q178 0 279 137q100 133 100 357q0 220 -100 342q-100 123 -275 123q-176 0 -281 -127
q-106 -129 -106 -349q0 -219 107 -350q108 -133 276 -133z" />
    <glyph glyph-name="ydieresis" unicode="&#xff;" horiz-adv-x="1112" 
d="M299 1460h109v-147h-109v147zM707 1460h108v-147h-108v147zM563 51l385 1006h86l-508 -1290q-40 -105 -100 -145q-59 -40 -176 -40h-74v72h68q94 0 141 31q46 31 80 118l65 166l-452 1088h88l381 -932z" />
    <glyph glyph-name="Amacron" unicode="&#x100;" horiz-adv-x="1466" 
d="M430 1794h606v-65h-606v65zM1393 0h-93l-194 473h-746l-196 -473h-88l614 1462h88zM711 1313l-320 -766h684l-317 766l-23 71z" />
    <glyph glyph-name="amacron" unicode="&#x101;" horiz-adv-x="1179" 
d="M274 1393h607v-66h-607v66zM1120 66h31v-66h-47q-111 0 -159 53t-48 174l-2 6q-46 -124 -156 -191t-262 -67q-170 0 -263 81t-93 218q0 263 334 306l264 36q94 12 132 51q36 37 36 109v15q0 106 -79 164q-80 59 -237 59t-232 -60t-91 -188h-82q28 317 412 317
q191 0 290 -78q101 -80 101 -221v-540q0 -100 32 -139t119 -39zM489 41q166 0 270 88q105 89 128 248v235q-39 -40 -142 -57l-278 -41q-266 -39 -266 -238q0 -108 75 -171q76 -64 213 -64z" />
    <glyph glyph-name="Abreve" unicode="&#x102;" horiz-adv-x="1466" 
d="M999 1917h60q-16 -268 -326 -268q-309 0 -325 268h59q12 -209 266 -209t266 209zM1393 0h-93l-194 473h-746l-196 -473h-88l614 1462h88zM711 1313l-320 -766h684l-317 766l-23 71z" />
    <glyph glyph-name="abreve" unicode="&#x103;" horiz-adv-x="1179" 
d="M844 1516h59q-17 -269 -325 -269q-309 0 -326 269h59q12 -209 267 -209q254 0 266 209zM1120 66h31v-66h-47q-111 0 -159 53t-48 174l-2 6q-46 -124 -156 -191t-262 -67q-170 0 -263 81t-93 218q0 263 334 306l264 36q94 12 132 51q36 37 36 109v15q0 106 -79 164
q-80 59 -237 59t-232 -60t-91 -188h-82q28 317 412 317q191 0 290 -78q101 -80 101 -221v-540q0 -100 32 -139t119 -39zM489 41q166 0 270 88q105 89 128 248v235q-39 -40 -142 -57l-278 -41q-266 -39 -266 -238q0 -108 75 -171q76 -64 213 -64z" />
    <glyph glyph-name="Aogonek" unicode="&#x104;" horiz-adv-x="1466" 
d="M1128 -229q0 -119 158 -119h74v-64h-88q-108 0 -164 44q-55 43 -55 126q0 119 151 197l94 49l-192 469h-746l-196 -473h-88l614 1462h88l615 -1462l-148 -80q-117 -63 -117 -149zM711 1313l-320 -766h684l-317 766l-23 71z" />
    <glyph glyph-name="aogonek" unicode="&#x105;" horiz-adv-x="1179" 
d="M1151 0l-147 -80q-117 -63 -117 -149q0 -119 157 -119h74v-64h-88q-108 0 -164 44q-55 43 -55 126q0 119 152 197l94 47q-85 10 -123 65q-37 53 -37 160l-2 6q-46 -124 -156 -191t-262 -67q-170 0 -263 81t-93 218q0 263 334 306l264 36q94 12 132 51q36 37 36 109v17
q0 101 -79 161q-80 60 -237 60t-232 -60t-91 -188h-82q28 317 412 317q189 0 289 -78q102 -79 102 -219v-542q0 -100 32 -139t119 -39h31v-66zM489 41q166 0 270 88q105 89 128 248v235q-40 -40 -142 -57l-278 -41q-266 -39 -266 -238q0 -108 75 -171q76 -64 213 -64z" />
    <glyph glyph-name="Cacute" unicode="&#x106;" horiz-adv-x="1507" 
d="M780 1657h-78l222 309h110zM801 -29q-299 0 -471 213q-174 212 -174 547q0 339 176 547q174 205 467 205q235 0 399 -131q166 -133 193 -336h-84q-30 176 -168 284q-141 109 -338 109q-257 0 -408 -182q-153 -185 -153 -496q0 -307 151 -495q152 -189 412 -189
q207 0 352 125q145 127 160 330h82q-22 -233 -187 -381q-164 -150 -409 -150z" />
    <glyph glyph-name="cacute" unicode="&#x107;" horiz-adv-x="1116" 
d="M567 1255h-78l222 310h110zM584 -25q-218 0 -342 147q-125 148 -125 404q0 260 125 408q124 147 346 147q184 0 295 -98q113 -100 131 -256h-78q-18 125 -109 206q-89 79 -239 79q-188 0 -289 -126q-100 -125 -100 -358q0 -228 102 -355q102 -128 287 -128q148 0 237 82
q90 83 111 227h78q-22 -174 -135 -276q-114 -103 -295 -103z" />
    <glyph glyph-name="Ccircumflex" unicode="&#x108;" horiz-adv-x="1507" 
d="M573 1638h-90l273 328h86l272 -328h-90l-225 275zM801 -29q-299 0 -471 213q-174 212 -174 547q0 339 176 547q174 205 467 205q235 0 399 -131q166 -133 193 -336h-84q-30 176 -168 284q-141 109 -338 109q-257 0 -408 -182q-153 -185 -153 -496q0 -307 151 -495
q152 -189 412 -189q207 0 352 125q145 127 160 330h82q-22 -233 -187 -381q-164 -150 -409 -150z" />
    <glyph glyph-name="ccircumflex" unicode="&#x109;" horiz-adv-x="1116" 
d="M360 1237h-90l273 328h86l272 -328h-90l-225 274zM584 -25q-218 0 -342 147q-125 148 -125 404q0 260 125 408q124 147 346 147q184 0 295 -98q113 -100 131 -256h-78q-18 125 -109 206q-89 79 -239 79q-188 0 -289 -126q-100 -125 -100 -358q0 -228 102 -355
q102 -128 287 -128q148 0 237 82q90 83 111 227h78q-22 -174 -135 -276q-114 -103 -295 -103z" />
    <glyph glyph-name="Cdotaccent" unicode="&#x10a;" horiz-adv-x="1507" 
d="M854 1673h-109v148h109v-148zM801 -29q-299 0 -471 213q-174 212 -174 547q0 339 176 547q174 205 467 205q235 0 399 -131q166 -133 193 -336h-84q-30 176 -168 284q-141 109 -338 109q-257 0 -408 -182q-153 -185 -153 -496q0 -307 151 -495q152 -189 412 -189
q207 0 352 125q145 127 160 330h82q-22 -233 -187 -381q-164 -150 -409 -150z" />
    <glyph glyph-name="cdotaccent" unicode="&#x10b;" horiz-adv-x="1116" 
d="M641 1313h-109v147h109v-147zM584 -25q-218 0 -342 147q-125 148 -125 404q0 260 125 408q124 147 346 147q184 0 295 -98q113 -100 131 -256h-78q-18 125 -109 206q-89 79 -239 79q-188 0 -289 -126q-100 -125 -100 -358q0 -228 102 -355q102 -128 287 -128
q148 0 237 82q90 83 111 227h78q-22 -174 -135 -276q-114 -103 -295 -103z" />
    <glyph glyph-name="Ccaron" unicode="&#x10c;" horiz-adv-x="1507" 
d="M842 1647h-86l-273 325h90l226 -272l225 272h90zM801 -29q-299 0 -471 213q-174 212 -174 547q0 339 176 547q174 205 467 205q235 0 399 -131q166 -133 193 -336h-84q-30 176 -168 284q-141 109 -338 109q-257 0 -408 -182q-153 -185 -153 -496q0 -307 151 -495
q152 -189 412 -189q207 0 352 125q145 127 160 330h82q-22 -233 -187 -381q-164 -150 -409 -150z" />
    <glyph glyph-name="ccaron" unicode="&#x10d;" horiz-adv-x="1116" 
d="M629 1235h-86l-273 328h90l226 -273l225 273h90zM584 -25q-218 0 -342 147q-125 148 -125 404q0 260 125 408q124 147 346 147q184 0 295 -98q113 -100 131 -256h-78q-18 125 -109 206q-89 79 -239 79q-188 0 -289 -126q-100 -125 -100 -358q0 -228 102 -355
q102 -128 287 -128q148 0 237 82q90 83 111 227h78q-22 -174 -135 -276q-114 -103 -295 -103z" />
    <glyph glyph-name="Dcaron" unicode="&#x10e;" horiz-adv-x="1488" 
d="M1040 1972l-272 -325h-86l-272 325h90l225 -272l225 272h90zM207 1458h491q320 0 485 -190t165 -539t-172 -539t-506 -190h-463v1458zM289 74h379q298 0 447 168q149 169 149 487q0 316 -146 486q-145 169 -432 169h-397v-1310z" />
    <glyph glyph-name="dcaron" unicode="&#x10f;" horiz-adv-x="1515" 
d="M956 813v645h82v-1458h-73v268q-44 -131 -150 -212q-107 -81 -246 -81q-207 0 -329 158q-123 157 -123 406q0 243 123 395q122 147 325 147q138 0 242 -73t149 -195zM1296 1053l125 405h95l-154 -405h-66zM575 49q169 0 277 133q106 130 106 350q0 222 -105 349t-280 127
q-173 0 -274 -125q-100 -124 -100 -344q0 -224 100 -357t276 -133z" />
    <glyph glyph-name="Dcroat" unicode="&#x110;" horiz-adv-x="1658" 
d="M375 1458h493q321 0 484 -190q164 -191 164 -539q0 -349 -171 -539t-505 -190h-465v709l-320 -4v73l320 -6v686zM459 74h379q298 0 447 168q149 169 149 487q0 316 -146 486q-145 169 -432 169h-397v-612l440 6v-73l-440 4v-635z" />
    <glyph glyph-name="dslash" unicode="&#x111;" horiz-adv-x="1323" 
d="M1038 1317l265 4v-66l-265 2v-1257h-73v268q-44 -131 -150 -212q-107 -81 -246 -81q-207 0 -329 158q-123 157 -123 406q0 243 123 395q122 147 325 147q138 0 242 -73t149 -195v444l-360 -2v66l360 -4v141h82v-141zM575 49q169 0 277 133q106 130 106 350
q0 222 -105 349t-280 127q-173 0 -274 -125q-100 -124 -100 -344q0 -224 100 -357t276 -133z" />
    <glyph glyph-name="Emacron" unicode="&#x112;" horiz-adv-x="1363" 
d="M412 1794h606v-65h-606v65zM289 723v-649h930v-74h-1012v1458h979v-74h-897v-587h835v-74h-835z" />
    <glyph glyph-name="emacron" unicode="&#x113;" horiz-adv-x="1167" 
d="M285 1393h606v-66h-606v66zM1053 573v-45h-854v-6q0 -222 106 -349q107 -128 293 -128q140 0 232 72q92 73 131 190l73 -12q-41 -141 -155 -230q-116 -90 -283 -90q-222 0 -350 154q-129 150 -129 406q0 248 127 399q125 147 344 147q213 0 340 -139q125 -140 125 -369z
M590 1012q-169 0 -275 -112q-103 -109 -114 -308h776q-11 195 -112 307q-102 113 -275 113z" />
    <glyph glyph-name="Ebreve" unicode="&#x114;" horiz-adv-x="1363" 
d="M981 1917h59q-16 -268 -325 -268q-310 0 -326 268h60q12 -209 266 -209t266 209zM289 723v-649h930v-74h-1012v1458h979v-74h-897v-587h835v-74h-835z" />
    <glyph glyph-name="ebreve" unicode="&#x115;" horiz-adv-x="1167" 
d="M854 1516h59q-17 -269 -325 -269q-309 0 -326 269h60q12 -209 266 -209t266 209zM1053 573v-45h-854v-6q0 -222 106 -349q107 -128 293 -128q140 0 232 72q92 73 131 190l73 -12q-41 -141 -155 -230q-116 -90 -283 -90q-222 0 -350 154q-129 150 -129 406q0 248 127 399
q125 147 344 147q213 0 340 -139q125 -140 125 -369zM590 1012q-169 0 -275 -112q-103 -109 -114 -308h776q-11 195 -112 307q-102 113 -275 113z" />
    <glyph glyph-name="Edotaccent" unicode="&#x116;" horiz-adv-x="1363" 
d="M662 1821h108v-148h-108v148zM289 723v-649h930v-74h-1012v1458h979v-74h-897v-587h835v-74h-835z" />
    <glyph glyph-name="edotaccent" unicode="&#x117;" horiz-adv-x="1167" 
d="M535 1460h108v-147h-108v147zM1053 573v-45h-854v-6q0 -222 106 -349q107 -128 293 -128q140 0 232 72q92 73 131 190l73 -12q-41 -141 -155 -230q-116 -90 -283 -90q-222 0 -350 154q-129 150 -129 406q0 248 127 399q125 147 344 147q213 0 340 -139q125 -140 125 -369
zM590 1012q-169 0 -275 -112q-103 -109 -114 -308h776q-11 195 -112 307q-102 113 -275 113z" />
    <glyph glyph-name="Eogonek" unicode="&#x118;" horiz-adv-x="1363" 
d="M1219 0l-148 -80q-117 -63 -117 -149q0 -119 158 -119h74v-64h-88q-108 0 -164 44q-55 43 -55 126q0 119 151 197l88 45h-911v1458h979v-74h-897v-587h835v-74h-835v-649h930v-74z" />
    <glyph glyph-name="eogonek" unicode="&#x119;" horiz-adv-x="1167" 
d="M1053 573v-45h-854v-6q0 -222 106 -349q107 -128 293 -128q140 0 232 72q92 73 131 190l73 -12q-52 -182 -215 -268h2l-147 -80q-117 -63 -117 -150q0 -119 158 -119h73v-63h-88q-107 0 -163 44t-56 126q0 111 142 190h-27q-222 0 -350 154q-129 150 -129 406
q0 248 127 399q125 147 344 147q213 0 340 -139q125 -140 125 -369zM590 1012q-169 0 -275 -112q-103 -109 -114 -308h776q-11 195 -112 307q-102 113 -275 113z" />
    <glyph glyph-name="Ecaron" unicode="&#x11a;" horiz-adv-x="1363" 
d="M1030 1972l-272 -325h-86l-273 325h90l226 -272l225 272h90zM289 723v-649h930v-74h-1012v1458h979v-74h-897v-587h835v-74h-835z" />
    <glyph glyph-name="ecaron" unicode="&#x11b;" horiz-adv-x="1167" 
d="M903 1563l-272 -328h-86l-273 328h90l226 -273l225 273h90zM1053 573v-45h-854v-6q0 -222 106 -349q107 -128 293 -128q140 0 232 72q92 73 131 190l73 -12q-41 -141 -155 -230q-116 -90 -283 -90q-222 0 -350 154q-129 150 -129 406q0 248 127 399q125 147 344 147
q213 0 340 -139q125 -140 125 -369zM590 1012q-169 0 -275 -112q-103 -109 -114 -308h776q-11 195 -112 307q-102 113 -275 113z" />
    <glyph glyph-name="Gcircumflex" unicode="&#x11c;" horiz-adv-x="1673" 
d="M1053 1638l-226 275l-225 -275h-90l272 328h86l273 -328h-90zM846 662v73h620v-735h-65l-15 330q-68 -171 -214 -263q-149 -94 -349 -94q-307 0 -487 209q-180 207 -180 551q0 347 178 549q179 203 493 203q254 0 420 -121t205 -334l-80 -6q-33 175 -172 281t-369 106
q-279 0 -436 -182q-155 -179 -155 -498q0 -310 155 -495q157 -189 430 -189q232 0 383 137q149 135 176 379v99h-538z" />
    <glyph glyph-name="gcircumflex" unicode="&#x11d;" horiz-adv-x="1224" 
d="M795 1237l-226 274l-225 -274h-90l272 328h86l273 -328h-90zM965 791v266h75v-1059q0 -211 -118 -317q-119 -107 -338 -107q-184 0 -294 77q-109 76 -130 195h82q21 -92 107 -148q85 -56 237 -56q377 0 377 350v270q-45 -126 -151 -207q-106 -80 -243 -80
q-207 0 -329 158q-123 157 -123 406q0 243 123 395q122 147 325 147q145 0 251 -80t149 -210zM575 49q169 0 277 133q106 130 106 350q0 222 -105 349t-280 127q-173 0 -274 -125q-100 -124 -100 -344q0 -224 100 -357t276 -133z" />
    <glyph glyph-name="Gbreve" unicode="&#x11e;" horiz-adv-x="1673" 
d="M1094 1917h59q-16 -268 -326 -268q-309 0 -325 268h59q12 -209 266 -209q255 0 267 209zM846 662v73h620v-735h-65l-15 330q-68 -171 -214 -263q-149 -94 -349 -94q-307 0 -487 209q-180 207 -180 551q0 347 178 549q179 203 493 203q254 0 420 -121t205 -334l-80 -6
q-33 175 -172 281t-369 106q-279 0 -436 -182q-155 -179 -155 -498q0 -310 155 -495q157 -189 430 -189q232 0 383 137q149 135 176 379v99h-538z" />
    <glyph glyph-name="gbreve" unicode="&#x11f;" horiz-adv-x="1224" 
d="M836 1516h59q-17 -269 -326 -269q-308 0 -325 269h59q12 -209 266 -209q255 0 267 209zM965 791v266h75v-1059q0 -211 -118 -317q-119 -107 -338 -107q-184 0 -294 77q-109 76 -130 195h82q21 -92 107 -148q85 -56 237 -56q377 0 377 350v270q-45 -126 -151 -207
q-106 -80 -243 -80q-207 0 -329 158q-123 157 -123 406q0 243 123 395q122 147 325 147q145 0 251 -80t149 -210zM575 49q169 0 277 133q106 130 106 350q0 222 -105 349t-280 127q-173 0 -274 -125q-100 -124 -100 -344q0 -224 100 -357t276 -133z" />
    <glyph glyph-name="Gdotaccent" unicode="&#x120;" horiz-adv-x="1673" 
d="M774 1821h109v-148h-109v148zM846 662v73h620v-735h-65l-15 330q-68 -171 -214 -263q-149 -94 -349 -94q-307 0 -487 209q-180 207 -180 551q0 347 178 549q179 203 493 203q254 0 420 -121t205 -334l-80 -6q-33 175 -172 281t-369 106q-279 0 -436 -182
q-155 -179 -155 -498q0 -310 155 -495q157 -189 430 -189q232 0 383 137q149 135 176 379v99h-538z" />
    <glyph glyph-name="gdotaccent" unicode="&#x121;" horiz-adv-x="1224" 
d="M516 1460h109v-147h-109v147zM965 791v266h75v-1059q0 -211 -118 -317q-119 -107 -338 -107q-184 0 -294 77q-109 76 -130 195h82q21 -92 107 -148q85 -56 237 -56q377 0 377 350v270q-45 -126 -151 -207q-106 -80 -243 -80q-207 0 -329 158q-123 157 -123 406
q0 243 123 395q122 147 325 147q145 0 251 -80t149 -210zM575 49q169 0 277 133q106 130 106 350q0 222 -105 349t-280 127q-173 0 -274 -125q-100 -124 -100 -344q0 -224 100 -357t276 -133z" />
    <glyph glyph-name="uni0122" unicode="&#x122;" horiz-adv-x="1673" 
d="M846 662v73h620v-735h-65l-15 330q-68 -171 -214 -263q-149 -94 -349 -94q-307 0 -487 209q-180 207 -180 551q0 347 178 549q179 203 493 203q254 0 420 -121t205 -334l-80 -6q-33 175 -172 281t-369 106q-279 0 -436 -182q-155 -179 -155 -498q0 -310 155 -495
q157 -189 430 -189q232 0 383 137q149 135 176 379v99h-538zM854 -256l-84 -8v104h129v-205q0 -94 -92 -94h-37v43h35q49 0 49 47v113z" />
    <glyph glyph-name="uni0123" unicode="&#x123;" horiz-adv-x="1224" 
d="M565 1411l84 8v-104h-127v188q0 94 90 94h37v-43h-37q-47 0 -47 -47v-96zM965 791v266h75v-1059q0 -211 -118 -317q-119 -107 -338 -107q-184 0 -294 77q-109 76 -130 195h82q21 -92 107 -148q85 -56 237 -56q377 0 377 350v270q-45 -126 -151 -207q-106 -80 -243 -80
q-207 0 -329 158q-123 157 -123 406q0 243 123 395q122 147 325 147q145 0 251 -80t149 -210zM575 49q169 0 277 133q106 130 106 350q0 222 -105 349t-280 127q-173 0 -274 -125q-100 -124 -100 -344q0 -224 100 -357t276 -133z" />
    <glyph glyph-name="Hcircumflex" unicode="&#x124;" horiz-adv-x="1513" 
d="M983 1638l-225 275l-226 -275h-90l273 328h86l272 -328h-90zM1223 813v645h84v-1458h-84v739h-934v-739h-82v1458h82v-645h934z" />
    <glyph glyph-name="hcircumflex" unicode="&#x125;" horiz-adv-x="1200" 
d="M541 1638h-90l-226 275l-225 -275h-90l272 328h86zM649 1081q175 0 271 -100t96 -281v-700h-82v686q0 157 -76 240q-76 84 -223 84q-170 0 -269 -111q-100 -112 -100 -324v-575h-82v1458h82v-627q99 250 383 250z" />
    <glyph glyph-name="Hbar" unicode="&#x126;" horiz-adv-x="1513" 
d="M1223 1159v299h84v-1458h-84v715h-934v-715h-82v1458h82v-299h934zM289 1085v-297h934v297h-934z" />
    <glyph glyph-name="hbar" unicode="&#x127;" horiz-adv-x="1304" 
d="M754 1081q174 0 270 -100t96 -281v-700h-82v686q0 158 -75 240q-77 84 -224 84q-170 0 -269 -111t-99 -324v-575h-82v1257l-269 -2v66l269 -4v141h82v-141l366 4v-66l-366 2v-426q99 250 383 250z" />
    <glyph glyph-name="Itilde" unicode="&#x128;" horiz-adv-x="495" 
d="M-66 1673h-65q7 309 203 309q62 0 111 -34q51 -35 79 -86q69 -123 164 -123q124 0 135 243h66q-7 -309 -203 -309q-63 0 -112 36q-49 35 -76 87q-28 50 -73 86q-44 35 -91 35q-127 0 -138 -244zM289 0h-82v1458h82v-1458z" />
    <glyph glyph-name="itilde" unicode="&#x129;" horiz-adv-x="450" 
d="M-88 1272h-66q8 309 203 309q62 0 112 -35q51 -35 79 -86q69 -123 163 -123q125 0 136 244h65q-8 -309 -203 -309q-61 0 -111 36q-50 37 -77 87q-28 50 -73 86q-44 35 -91 35q-126 0 -137 -244zM266 0h-82v1057h82v-1057z" />
    <glyph glyph-name="Imacron" unicode="&#x12a;" horiz-adv-x="495" 
d="M551 1729h-606v65h606v-65zM289 0h-82v1458h82v-1458z" />
    <glyph glyph-name="imacron" unicode="&#x12b;" horiz-adv-x="450" 
d="M528 1327h-606v66h606v-66zM266 0h-82v1057h82v-1057z" />
    <glyph glyph-name="Ibreve" unicode="&#x12c;" horiz-adv-x="495" 
d="M514 1917h59q-16 -268 -325 -268q-310 0 -326 268h60q12 -209 266 -209t266 209zM289 0h-82v1458h82v-1458z" />
    <glyph glyph-name="ibreve" unicode="&#x12d;" horiz-adv-x="450" 
d="M492 1516h59q-17 -269 -326 -269q-308 0 -325 269h59q12 -209 266 -209q255 0 267 209zM266 0h-82v1057h82v-1057z" />
    <glyph glyph-name="Iogonek" unicode="&#x12e;" horiz-adv-x="495" 
d="M289 0l-105 -84q-61 -46 -84 -77q-22 -29 -22 -72q0 -115 151 -115h60v-64h-68q-105 0 -163 44q-56 43 -56 124q0 58 32 99t116 104l57 41v1458h82v-1458z" />
    <glyph glyph-name="iogonek" unicode="&#x12f;" horiz-adv-x="450" 
d="M170 1313v147h109v-147h-109zM125 -41l59 43v1055h82v-1057l-104 -84q-61 -46 -84 -77t-23 -72q0 -115 150 -115h61v-64h-67q-105 0 -163 44q-56 43 -56 124q0 57 30 98q26 35 115 105z" />
    <glyph glyph-name="Idot" unicode="&#x130;" horiz-adv-x="495" 
d="M301 1673h-108v148h108v-148zM289 0h-82v1458h82v-1458z" />
    <glyph glyph-name="dotlessi" unicode="&#x131;" horiz-adv-x="450" 
d="M266 0h-82v1057h82v-1057z" />
    <glyph glyph-name="IJ" unicode="&#x132;" horiz-adv-x="1630" 
d="M289 0h-82v1458h82v-1458zM1012 -25q-198 0 -307 106t-109 310v96h82v-94q0 -170 86 -256t248 -86q156 0 242 86q85 85 85 256v1065h82v-1067q0 -206 -107 -310q-109 -106 -302 -106z" />
    <glyph glyph-name="ij" unicode="&#x133;" horiz-adv-x="899" 
d="M274 1315h-98v143h98v-143zM725 1315h-98v143h98v-143zM266 0h-82v1057h82v-1057zM449 -418h-52v72h52q96 0 141 45t45 143v1215h82v-1204q0 -271 -268 -271z" />
    <glyph glyph-name="Jcircumflex" unicode="&#x134;" horiz-adv-x="1148" 
d="M676 1638h-90l272 328h86l273 -328h-91l-225 275zM532 -25q-198 0 -307 106q-108 105 -108 310v96h82v-94q0 -170 86 -256t247 -86q157 0 243 86q85 85 85 256v1065h82v-1067q0 -206 -107 -310q-109 -106 -303 -106z" />
    <glyph glyph-name="jcircumflex" unicode="&#x135;" horiz-adv-x="450" 
d="M-90 1237h-90l272 328h86l273 -328h-91l-225 274zM-92 -418h-51v72h51q96 0 141 45t45 143v1215h82v-1204q0 -271 -268 -271z" />
    <glyph glyph-name="uni0136" unicode="&#x136;" horiz-adv-x="1441" 
d="M1339 1458l-639 -598l668 -860h-104l-623 807l-352 -330v-477h-82v1458h82v-878l938 878h112zM750 -256l-86 -8v104h129v-205q0 -94 -93 -94h-36v43h34q52 0 52 47v113z" />
    <glyph glyph-name="uni0137" unicode="&#x137;" horiz-adv-x="1138" 
d="M1036 1057l-452 -408l481 -649h-98l-441 598l-260 -236v-362h-82v1458h82v-1007l662 606h108zM604 -256l-86 -8v104h129v-205q0 -94 -92 -94h-37v43h35q51 0 51 47v113z" />
    <glyph glyph-name="kgreenlandic" unicode="&#x138;" horiz-adv-x="1138" 
d="M1065 0h-98l-441 584l-260 -236v-348h-82v1057h82v-619l662 619h108l-452 -422z" />
    <glyph glyph-name="Lacute" unicode="&#x139;" horiz-adv-x="1243" 
d="M403 1966h111l-254 -309h-78zM289 1458v-1384h850v-74h-932v1458h82z" />
    <glyph glyph-name="lacute" unicode="&#x13a;" horiz-adv-x="450" 
d="M207 1657h-78l221 309h111zM266 0h-82v1458h82v-1458z" />
    <glyph glyph-name="uni013B" unicode="&#x13b;" horiz-adv-x="1243" 
d="M289 1458v-1384h850v-74h-932v1458h82zM698 -256l-86 -8v104h129v-205q0 -94 -92 -94h-37v43h35q51 0 51 47v113z" />
    <glyph glyph-name="uni013C" unicode="&#x13c;" horiz-adv-x="450" 
d="M184 1458h82v-1458h-82v1458zM162 -264v104h129v-205q0 -94 -92 -94h-37v43h35q51 0 51 47v113z" />
    <glyph glyph-name="Lcaron" unicode="&#x13d;" horiz-adv-x="1243" 
d="M289 1458v-1384h850v-74h-932v1458h82zM825 1458h97l-156 -405h-66z" />
    <glyph glyph-name="lcaron" unicode="&#x13e;" horiz-adv-x="700" 
d="M266 0h-82v1458h82v-1458zM547 1053h-66l125 405h94z" />
    <glyph glyph-name="Ldot" unicode="&#x13f;" horiz-adv-x="1243" 
d="M289 1458v-1384h850v-74h-932v1458h82zM657 823h146v-131h-146v131z" />
    <glyph glyph-name="ldot" unicode="&#x140;" horiz-adv-x="614" 
d="M266 0h-82v1458h82v-1458zM557 664h-145v129h145v-129z" />
    <glyph glyph-name="Lslash" unicode="&#x141;" horiz-adv-x="1482" 
d="M526 666v-592h850v-74h-932v625l-327 -162v78l327 155v762h82v-721l582 289v-78z" />
    <glyph glyph-name="lslash" unicode="&#x142;" horiz-adv-x="749" 
d="M418 831l219 119v-82l-219 -110v-758h-82v715l-219 -123v84l219 110v672h82v-627z" />
    <glyph glyph-name="Nacute" unicode="&#x143;" horiz-adv-x="1517" 
d="M883 1966h110l-254 -309h-77zM1231 119v1339h78v-1458h-88l-936 1337v-1337h-78v1458h86z" />
    <glyph glyph-name="nacute" unicode="&#x144;" horiz-adv-x="1200" 
d="M737 1565h111l-254 -310h-78zM649 1081q175 0 271 -100t96 -281v-700h-82v686q0 157 -76 240q-76 84 -223 84q-170 0 -269 -111q-100 -112 -100 -324v-575h-82v1057h78v-238q96 262 387 262z" />
    <glyph glyph-name="uni0145" unicode="&#x145;" horiz-adv-x="1517" 
d="M1231 119v1339h78v-1458h-88l-936 1337v-1337h-78v1458h86zM784 -256l-86 -8v104h129v-205q0 -94 -92 -94h-37v43h35q51 0 51 47v113z" />
    <glyph glyph-name="uni0146" unicode="&#x146;" horiz-adv-x="1200" 
d="M649 1081q175 0 271 -100t96 -281v-700h-82v686q0 157 -76 240q-76 84 -223 84q-170 0 -269 -111q-100 -112 -100 -324v-575h-82v1057h78v-238q96 262 387 262zM616 -256l-86 -8v104h129v-205q0 -94 -92 -94h-37v43h35q51 0 51 47v113z" />
    <glyph glyph-name="Ncaron" unicode="&#x147;" horiz-adv-x="1517" 
d="M1073 1972l-272 -325h-86l-273 325h90l226 -272l225 272h90zM1231 119v1339h78v-1458h-88l-936 1337v-1337h-78v1458h86z" />
    <glyph glyph-name="ncaron" unicode="&#x148;" horiz-adv-x="1200" 
d="M928 1563l-273 -328h-86l-272 328h90l225 -273l226 273h90zM649 1081q175 0 271 -100t96 -281v-700h-82v686q0 157 -76 240q-76 84 -223 84q-170 0 -269 -111q-100 -112 -100 -324v-575h-82v1057h78v-238q96 262 387 262z" />
    <glyph glyph-name="napostrophe" unicode="&#x149;" horiz-adv-x="1556" 
d="M188 1339l-96 -10v129h150v-287q0 -139 -131 -139h-17v51h17q77 0 77 78v178zM1006 1081q177 0 271 -100q95 -101 95 -281v-700h-82v686q0 157 -76 240q-77 84 -223 84q-170 0 -269 -111t-99 -324v-575h-82v1057h77v-238q96 262 388 262z" />
    <glyph glyph-name="Eng" unicode="&#x14a;" horiz-adv-x="1517" 
d="M1231 135v1323h78v-1605q0 -138 -64 -205q-63 -66 -201 -66h-59v72h59q97 0 142 45t45 143v160l-946 1337v-1339h-78v1458h86z" />
    <glyph glyph-name="eng" unicode="&#x14b;" horiz-adv-x="1200" 
d="M649 1081q175 0 271 -100t96 -281v-847q0 -271 -268 -271h-52v72h52q96 0 141 45t45 143v844q0 157 -76 240q-76 84 -223 84q-170 0 -269 -111q-100 -112 -100 -324v-575h-82v1057h78v-238q96 262 387 262z" />
    <glyph glyph-name="Omacron" unicode="&#x14c;" horiz-adv-x="1660" 
d="M1130 1729h-606v65h606v-65zM829 -29q-305 0 -489 213q-184 212 -184 545t184 545q185 209 489 209q307 0 492 -209q184 -212 184 -545t-184 -545q-185 -213 -492 -213zM829 47q269 0 433 189q159 186 159 493q0 305 -159 494q-162 186 -433 186q-269 0 -428 -186
q-161 -185 -161 -494q0 -306 161 -491q159 -191 428 -191z" />
    <glyph glyph-name="omacron" unicode="&#x14d;" horiz-adv-x="1204" 
d="M907 1327h-606v66h606v-66zM602 -25q-218 0 -352 152q-133 151 -133 401q0 254 135 404q130 149 352 149t352 -149q134 -152 134 -402t-136 -401q-136 -154 -352 -154zM309 176q107 -131 293 -131q184 0 295 131q111 130 111 354q0 223 -110 353q-110 129 -296 129
q-185 0 -294 -130t-109 -354t110 -352z" />
    <glyph glyph-name="Obreve" unicode="&#x14e;" horiz-adv-x="1660" 
d="M1094 1917h59q-16 -268 -326 -268q-309 0 -325 268h59q12 -209 266 -209q255 0 267 209zM829 -29q-305 0 -489 213q-184 212 -184 545t184 545q185 209 489 209q307 0 492 -209q184 -212 184 -545t-184 -545q-185 -213 -492 -213zM829 47q269 0 433 189q159 186 159 493
q0 305 -159 494q-162 186 -433 186q-269 0 -428 -186q-161 -185 -161 -494q0 -306 161 -491q159 -191 428 -191z" />
    <glyph glyph-name="obreve" unicode="&#x14f;" horiz-adv-x="1204" 
d="M870 1516h60q-17 -269 -326 -269q-308 0 -325 269h59q12 -209 266 -209t266 209zM602 -25q-218 0 -352 152q-133 151 -133 401q0 254 135 404q130 149 352 149t352 -149q134 -152 134 -402t-136 -401q-136 -154 -352 -154zM309 176q107 -131 293 -131q184 0 295 131
q111 130 111 354q0 223 -110 353q-110 129 -296 129q-185 0 -294 -130t-109 -354t110 -352z" />
    <glyph glyph-name="Ohungarumlaut" unicode="&#x150;" horiz-adv-x="1660" 
d="M643 1634h-76l213 336h97zM1010 1634h-76l237 336h97zM829 -29q-305 0 -489 213q-184 212 -184 545t184 545q185 209 489 209q307 0 492 -209q184 -212 184 -545t-184 -545q-185 -213 -492 -213zM829 47q269 0 433 189q159 186 159 493q0 305 -159 494q-162 186 -433 186
q-269 0 -428 -186q-161 -185 -161 -494q0 -306 161 -491q159 -191 428 -191z" />
    <glyph glyph-name="ohungarumlaut" unicode="&#x151;" horiz-adv-x="1204" 
d="M420 1233h-76l213 336h96zM786 1233h-75l237 336h96zM602 -25q-218 0 -352 152q-133 151 -133 401q0 254 135 404q130 149 352 149t352 -149q134 -152 134 -402t-136 -401q-136 -154 -352 -154zM309 176q107 -131 293 -131q184 0 295 131q111 130 111 354q0 223 -110 353
q-110 129 -296 129q-185 0 -294 -130t-109 -354t110 -352z" />
    <glyph glyph-name="OE" unicode="&#x152;" horiz-adv-x="2578" 
d="M1503 723v-649h930v-74h-1014v371q-77 -191 -228 -295q-153 -105 -362 -105q-306 0 -489 213q-184 212 -184 545t184 545q180 209 489 209q207 0 362 -103q151 -101 228 -288v366h979v-74h-895v-587h836v-74h-836zM829 47q255 0 414 168q158 169 176 449v131
q-18 279 -176 448q-159 166 -414 166q-271 0 -430 -186q-159 -189 -159 -494q0 -308 161 -493q159 -189 428 -189z" />
    <glyph glyph-name="oe" unicode="&#x153;" horiz-adv-x="2058" 
d="M1946 573v-45h-856v-6q0 -223 107 -349q108 -128 294 -128q135 0 228 70q91 69 132 186l74 -10q-44 -143 -157 -229q-114 -87 -279 -87q-161 0 -275 81t-165 229q-56 -149 -172 -229q-117 -81 -275 -81q-218 0 -352 152q-133 151 -133 401q0 254 135 404q130 149 352 149
q157 0 273 -79q118 -80 170 -222q50 142 163 222q112 79 271 79q215 0 340 -141q125 -140 125 -367zM309 176q107 -131 293 -131q184 0 295 131q111 130 111 354q0 223 -110 353q-110 129 -296 129q-185 0 -294 -130t-109 -354t110 -352zM1481 1012q-169 0 -275 -112
q-103 -109 -114 -308h776q-11 195 -112 307q-102 113 -275 113z" />
    <glyph glyph-name="Racute" unicode="&#x154;" horiz-adv-x="1470" 
d="M848 1966h110l-253 -309h-78zM1235 414l49 -414h-84l-45 385q-15 135 -78 207q-74 80 -278 80h-510v-672h-82v1458h645q195 0 309 -102q115 -103 115 -279q0 -152 -81 -247q-81 -94 -224 -121q125 -18 188 -91q61 -72 76 -204zM289 1384v-636h520q183 0 283 85t100 238
q0 150 -91 232q-90 81 -259 81h-553z" />
    <glyph glyph-name="racute" unicode="&#x155;" horiz-adv-x="761" 
d="M584 1565h110l-254 -310h-78zM633 1083q41 0 84 -6v-80q-61 7 -94 7q-157 0 -256 -108q-100 -109 -101 -304v-592h-82v1057h78v-242q44 130 138 199t233 69z" />
    <glyph glyph-name="uni0156" unicode="&#x156;" horiz-adv-x="1470" 
d="M1235 414l49 -414h-84l-45 385q-15 135 -78 207q-74 80 -278 80h-510v-672h-82v1458h645q195 0 309 -102q115 -103 115 -279q0 -152 -81 -247q-81 -94 -224 -121q125 -18 188 -91q61 -72 76 -204zM289 1384v-636h520q183 0 283 85t100 238q0 150 -91 232q-90 81 -259 81
h-553zM774 -256l-86 -8v104h129v-205q0 -94 -92 -94h-37v43h35q51 0 51 47v113z" />
    <glyph glyph-name="uni0157" unicode="&#x157;" horiz-adv-x="761" 
d="M633 1083q41 0 84 -6v-80q-61 7 -94 7q-157 0 -256 -108q-100 -109 -101 -304v-592h-82v1057h78v-242q44 130 138 199t233 69zM248 -256l-86 -8v104h129v-205q0 -94 -92 -94h-37v43h35q51 0 51 47v113z" />
    <glyph glyph-name="Rcaron" unicode="&#x158;" horiz-adv-x="1470" 
d="M1036 1972l-272 -325h-86l-272 325h90l225 -272l225 272h90zM1235 414l49 -414h-84l-45 385q-15 135 -78 207q-74 80 -278 80h-510v-672h-82v1458h645q195 0 309 -102q115 -103 115 -279q0 -152 -81 -247q-81 -94 -224 -121q125 -18 188 -91q61 -72 76 -204zM289 1384
v-636h520q183 0 283 85t100 238q0 150 -91 232q-90 81 -259 81h-553z" />
    <glyph glyph-name="rcaron" unicode="&#x159;" horiz-adv-x="761" 
d="M772 1563l-272 -328h-86l-273 328h90l226 -273l225 273h90zM262 1057v-242q44 130 138 199t233 69q41 0 84 -6v-80q-61 7 -94 7q-157 0 -256 -108q-100 -109 -101 -304v-592h-82v1057h78z" />
    <glyph glyph-name="Sacute" unicode="&#x15a;" horiz-adv-x="1363" 
d="M659 1657h-77l221 309h110zM698 -27q-530 0 -575 467h80q43 -397 497 -397q218 0 339 89q120 89 120 249q0 125 -80 200q-79 74 -250 109l-270 53q-383 77 -383 359q0 178 133 280q135 103 367 103t373 -109q138 -107 149 -303h-80q-8 165 -126 253q-119 89 -318 89
q-197 0 -307 -82q-111 -83 -111 -225q0 -224 315 -287l287 -59q381 -78 381 -379q0 -194 -140 -301q-142 -109 -401 -109z" />
    <glyph glyph-name="sacute" unicode="&#x15b;" horiz-adv-x="1071" 
d="M512 1255h-78l221 310h111zM545 -25q-195 0 -306 90q-109 88 -120 257h78q21 -279 350 -279q157 0 243 62q87 63 87 174q0 178 -240 215l-178 30q-160 27 -235 89q-77 63 -77 178q0 134 102 209t275 75q179 0 286 -82q108 -83 120 -229h-82q-11 118 -95 180
q-87 64 -231 64q-137 0 -218 -57t-81 -156q0 -83 61 -129q62 -46 193 -70l174 -29q305 -53 305 -282q0 -146 -109 -228t-302 -82z" />
    <glyph glyph-name="Scircumflex" unicode="&#x15c;" horiz-adv-x="1363" 
d="M451 1638h-91l273 328h86l272 -328h-90l-225 275zM698 -27q-530 0 -575 467h80q43 -397 497 -397q218 0 339 89q120 89 120 249q0 125 -80 200q-79 74 -250 109l-270 53q-383 77 -383 359q0 178 133 280q135 103 367 103t373 -109q138 -107 149 -303h-80q-8 165 -126 253
q-119 89 -318 89q-197 0 -307 -82q-111 -83 -111 -225q0 -224 315 -287l287 -59q381 -78 381 -379q0 -194 -140 -301q-142 -109 -401 -109z" />
    <glyph glyph-name="scircumflex" unicode="&#x15d;" horiz-adv-x="1071" 
d="M305 1237h-90l272 328h86l273 -328h-90l-226 274zM545 -25q-195 0 -306 90q-109 88 -120 257h78q21 -279 350 -279q157 0 243 62q87 63 87 174q0 178 -240 215l-178 30q-160 27 -235 89q-77 63 -77 178q0 134 102 209t275 75q179 0 286 -82q108 -83 120 -229h-82
q-11 118 -95 180q-87 64 -231 64q-137 0 -218 -57t-81 -156q0 -83 61 -129q62 -46 193 -70l174 -29q305 -53 305 -282q0 -146 -109 -228t-302 -82z" />
    <glyph glyph-name="Scedilla" unicode="&#x15e;" horiz-adv-x="1363" 
d="M1239 383q0 -186 -134 -296q-133 -109 -384 -114l-76 -123h62q184 0 184 -151q0 -80 -62 -124t-172 -44h-75v55h69q174 0 174 111q0 94 -129 94h-88l-28 47l84 135q-498 15 -541 467h80q43 -397 497 -397q218 0 339 89q120 89 120 249q0 125 -80 200q-79 74 -250 109
l-270 53q-383 77 -383 359q0 178 133 280q135 103 367 103t373 -109q138 -107 149 -303h-80q-8 165 -126 253q-119 89 -318 89q-197 0 -307 -82q-111 -83 -111 -225q0 -224 315 -287l287 -59q381 -78 381 -379z" />
    <glyph glyph-name="scedilla" unicode="&#x15f;" horiz-adv-x="1071" 
d="M956 285q0 -142 -103 -224q-102 -81 -286 -86l-75 -125h61q184 0 184 -151q0 -81 -61 -124q-62 -44 -172 -44h-76v55h70q174 0 174 111q0 94 -129 94h-88l-29 47l86 137q-179 7 -282 97q-100 87 -111 250h78q21 -279 350 -279q157 0 243 62q87 63 87 174q0 178 -240 215
l-178 30q-160 27 -235 89q-77 63 -77 178q0 134 102 209t275 75q179 0 286 -82q108 -83 120 -229h-82q-11 118 -95 180q-87 64 -231 64q-137 0 -218 -57t-81 -156q0 -83 61 -129q62 -46 193 -70l174 -29q305 -53 305 -282z" />
    <glyph glyph-name="Scaron" unicode="&#x160;" horiz-adv-x="1363" 
d="M719 1647h-86l-273 325h91l225 -272l225 272h90zM698 -27q-530 0 -575 467h80q43 -397 497 -397q218 0 339 89q120 89 120 249q0 125 -80 200q-79 74 -250 109l-270 53q-383 77 -383 359q0 178 133 280q135 103 367 103t373 -109q138 -107 149 -303h-80q-8 165 -126 253
q-119 89 -318 89q-197 0 -307 -82q-111 -83 -111 -225q0 -224 315 -287l287 -59q381 -78 381 -379q0 -194 -140 -301q-142 -109 -401 -109z" />
    <glyph glyph-name="scaron" unicode="&#x161;" horiz-adv-x="1071" 
d="M573 1235h-86l-272 328h90l225 -273l226 273h90zM545 -25q-195 0 -306 90q-109 88 -120 257h78q21 -279 350 -279q157 0 243 62q87 63 87 174q0 178 -240 215l-178 30q-160 27 -235 89q-77 63 -77 178q0 134 102 209t275 75q179 0 286 -82q108 -83 120 -229h-82
q-11 118 -95 180q-87 64 -231 64q-137 0 -218 -57t-81 -156q0 -83 61 -129q62 -46 193 -70l174 -29q305 -53 305 -282q0 -146 -109 -228t-302 -82z" />
    <glyph glyph-name="uni0162" unicode="&#x162;" horiz-adv-x="1325" 
d="M702 1384v-1384h-10l-86 -137h62q186 0 186 -152q0 -79 -62 -123q-63 -45 -174 -45h-73v56h69q172 0 172 110q0 94 -127 94h-88l-28 47l92 150h-14v1384h-523v74h1129v-74h-525z" />
    <glyph glyph-name="uni0163" unicode="&#x163;" horiz-adv-x="677" 
d="M616 989l-280 4v-762q0 -83 36 -121t115 -38h127v-72h-145h-27l-75 -123h61q91 0 138 -40q48 -41 48 -111q0 -79 -62 -123q-63 -45 -173 -45h-74v55h70q172 0 172 111q0 94 -129 94h-86l-29 47l88 143q-137 33 -137 213v772l-199 -4v68l199 -4v311h82v-311l280 4v-68z
" />
    <glyph glyph-name="Tcaron" unicode="&#x164;" horiz-adv-x="1325" 
d="M979 1972l-272 -325h-86l-273 325h90l226 -272l225 272h90zM98 1458h1129v-74h-525v-1384h-81v1384h-523v74z" />
    <glyph glyph-name="tcaron" unicode="&#x165;" horiz-adv-x="677" 
d="M633 1649h94l-154 -406h-65zM336 1364v-311l280 4v-68l-280 4v-762q0 -83 36 -121t115 -38h127v-72h-145q-215 0 -215 221v772l-199 -4v68l199 -4v311h82z" />
    <glyph glyph-name="Tbar" unicode="&#x166;" horiz-adv-x="1325" 
d="M1227 1458v-74h-525v-606l486 4v-73l-486 4v-713h-81v713l-484 -4v73l484 -4v606h-523v74h1129z" />
    <glyph glyph-name="tbar" unicode="&#x167;" horiz-adv-x="684" 
d="M623 1057v-68l-283 4v-405l283 4v-66l-283 4l2 -51v-248q0 -83 36 -121t116 -38h127v-72h-146q-215 0 -215 221v258l2 51l-201 -4v66l201 -4v405l-201 -4v68l201 -4l-2 37v274h82v-274l-2 -37z" />
    <glyph glyph-name="Utilde" unicode="&#x168;" horiz-adv-x="1503" 
d="M438 1673h-65q7 309 202 309q63 0 112 -34q51 -35 79 -86q69 -123 164 -123q124 0 135 243h65q-8 -309 -202 -309q-62 0 -112 36q-50 37 -77 87q-29 52 -72 86q-44 35 -92 35q-126 0 -137 -244zM752 -27q-261 0 -403 124t-142 380v981h82v-983q0 -428 463 -428
q460 0 460 428v983h82v-981q0 -255 -143 -379q-145 -125 -399 -125z" />
    <glyph glyph-name="utilde" unicode="&#x169;" horiz-adv-x="1200" 
d="M424 1516q-126 0 -137 -244h-66q7 309 203 309q62 0 112 -35q49 -34 78 -86q69 -123 164 -123q124 0 135 244h66q-7 -309 -203 -309q-62 0 -111 36q-50 37 -77 87q-28 50 -73 86q-44 35 -91 35zM934 481v576h82v-1057h-78v238q-99 -263 -387 -263q-176 0 -271 101
q-96 102 -96 280v701h82v-686q0 -157 76 -240q76 -84 223 -84q171 0 270 111t99 323z" />
    <glyph glyph-name="Umacron" unicode="&#x16a;" horiz-adv-x="1503" 
d="M1055 1729h-606v65h606v-65zM752 -27q-261 0 -403 124t-142 380v981h82v-983q0 -428 463 -428q460 0 460 428v983h82v-981q0 -255 -143 -379q-145 -125 -399 -125z" />
    <glyph glyph-name="umacron" unicode="&#x16b;" horiz-adv-x="1200" 
d="M297 1393h606v-66h-606v66zM934 481v576h82v-1057h-78v238q-99 -263 -387 -263q-176 0 -271 101q-96 102 -96 280v701h82v-686q0 -157 76 -240q76 -84 223 -84q171 0 270 111t99 323z" />
    <glyph glyph-name="Ubreve" unicode="&#x16c;" horiz-adv-x="1503" 
d="M1018 1917h59q-16 -268 -325 -268q-310 0 -326 268h59q12 -209 267 -209q254 0 266 209zM752 -27q-261 0 -403 124t-142 380v981h82v-983q0 -428 463 -428q460 0 460 428v983h82v-981q0 -255 -143 -379q-145 -125 -399 -125z" />
    <glyph glyph-name="ubreve" unicode="&#x16d;" horiz-adv-x="1200" 
d="M866 1516h60q-17 -269 -326 -269t-326 269h60q12 -209 266 -209t266 209zM934 481v576h82v-1057h-78v238q-99 -263 -387 -263q-176 0 -271 101q-96 102 -96 280v701h82v-686q0 -157 76 -240q76 -84 223 -84q171 0 270 111t99 323z" />
    <glyph glyph-name="Uring" unicode="&#x16e;" horiz-adv-x="1503" 
d="M924 1686q-68 -68 -172 -68t-172 68t-68 169q0 103 68 173q67 67 172 67t172 -67q67 -68 67 -173q0 -102 -67 -169zM627 1729q58 -49 125 -50q68 -1 126 50q56 50 50 126q0 80 -50 130q-49 49 -126 49t-126 -49q-51 -51 -51 -130q0 -76 52 -126zM752 -27q-261 0 -403 124
t-142 380v981h82v-983q0 -428 463 -428q460 0 460 428v983h82v-981q0 -255 -143 -379q-145 -125 -399 -125z" />
    <glyph glyph-name="uring" unicode="&#x16f;" horiz-adv-x="1200" 
d="M772 1284q-67 -67 -172 -67t-172 67q-68 68 -68 170t68 172q68 68 172 68t172 -68q68 -70 68 -172t-68 -170zM727 1585q-49 45 -127 45t-127 -45q-49 -49 -49 -131q0 -77 50 -127q49 -49 126 -49t126 49q50 50 50 127q0 82 -49 131zM934 481v576h82v-1057h-78v238
q-99 -263 -387 -263q-176 0 -271 101q-96 102 -96 280v701h82v-686q0 -157 76 -240q76 -84 223 -84q171 0 270 111t99 323z" />
    <glyph glyph-name="Uhungarumlaut" unicode="&#x170;" horiz-adv-x="1503" 
d="M567 1634h-75l213 336h96zM934 1634h-76l238 336h96zM752 -27q-261 0 -403 124t-142 380v981h82v-983q0 -428 463 -428q460 0 460 428v983h82v-981q0 -255 -143 -379q-145 -125 -399 -125z" />
    <glyph glyph-name="uhungarumlaut" unicode="&#x171;" horiz-adv-x="1200" 
d="M553 1569h96l-233 -336h-76zM944 1569h96l-258 -336h-75zM934 481v576h82v-1057h-78v238q-99 -263 -387 -263q-176 0 -271 101q-96 102 -96 280v701h82v-686q0 -157 76 -240q76 -84 223 -84q171 0 270 111t99 323z" />
    <glyph glyph-name="Uogonek" unicode="&#x172;" horiz-adv-x="1503" 
d="M1212 475v983h82v-981q0 -430 -401 -493l-137 -74q-117 -63 -117 -150q0 -118 158 -118h73v-64h-88q-108 0 -164 44q-55 43 -55 126q0 119 152 197l57 28h-20q-261 0 -403 124t-142 380v981h82v-983q0 -428 463 -428q460 0 460 428z" />
    <glyph glyph-name="uogonek" unicode="&#x173;" horiz-adv-x="1200" 
d="M1016 -14l-150 -78q-114 -60 -114 -141q0 -115 157 -115h74v-64h-88q-219 0 -219 166q0 118 151 191l123 59l-10 260q-91 -268 -389 -268q-176 0 -275 102q-92 95 -92 287v672h82v-666q0 -156 74 -239q78 -84 225 -84q172 0 270 110q99 111 99 324v555h82v-1071z" />
    <glyph glyph-name="Wcircumflex" unicode="&#x174;" horiz-adv-x="1927" 
d="M1190 1638l-225 275l-226 -275h-90l273 328h86l272 -328h-90zM1440 354l329 1104h84l-438 -1466h-76l-378 1364l-377 -1364h-78l-430 1466h84l323 -1104l64 -245l61 245l310 1104h88l307 -1104l63 -245z" />
    <glyph glyph-name="wcircumflex" unicode="&#x175;" horiz-adv-x="1568" 
d="M1008 1237l-226 274l-225 -274h-90l272 328h86l273 -328h-90zM1155 264l250 793h86l-346 -1057h-80l-242 817l-37 166l-41 -166l-243 -817h-82l-342 1057h88l248 -793l47 -174l45 174l237 793h84l238 -793l43 -170z" />
    <glyph glyph-name="Ycircumflex" unicode="&#x176;" horiz-adv-x="1378" 
d="M915 1638l-225 275l-225 -275h-90l272 328h86l273 -328h-91zM1231 1458h94l-590 -868v-590h-84v590l-598 868h99l510 -747l32 -54l31 54z" />
    <glyph glyph-name="ycircumflex" unicode="&#x177;" horiz-adv-x="1112" 
d="M782 1237l-225 274l-225 -274h-90l272 328h86l272 -328h-90zM563 51l385 1006h86l-508 -1290q-40 -105 -100 -145q-59 -40 -176 -40h-74v72h68q94 0 141 31q46 31 80 118l65 166l-452 1088h88l381 -932z" />
    <glyph glyph-name="Ydieresis" unicode="&#x178;" horiz-adv-x="1378" 
d="M432 1821h109v-148h-109v148zM840 1821h108v-148h-108v148zM1231 1458h94l-590 -868v-590h-84v590l-598 868h99l510 -747l32 -54l31 54z" />
    <glyph glyph-name="Zacute" unicode="&#x179;" horiz-adv-x="1390" 
d="M821 1966h111l-254 -309h-78zM1217 1389l-977 -1313h1005v-76h-1102v80l969 1302h-915v76h1020v-69z" />
    <glyph glyph-name="zacute" unicode="&#x17a;" horiz-adv-x="1073" 
d="M662 1565h110l-254 -310h-78zM926 1004l-711 -934h743v-70h-841v59l704 928h-680v70h785v-53z" />
    <glyph glyph-name="Zdotaccent" unicode="&#x17b;" horiz-adv-x="1390" 
d="M641 1821h109v-148h-109v148zM1217 1389l-977 -1313h1005v-76h-1102v80l969 1302h-915v76h1020v-69z" />
    <glyph glyph-name="zdotaccent" unicode="&#x17c;" horiz-adv-x="1073" 
d="M483 1460h109v-147h-109v147zM926 1004l-711 -934h743v-70h-841v59l704 928h-680v70h785v-53z" />
    <glyph glyph-name="Zcaron" unicode="&#x17d;" horiz-adv-x="1390" 
d="M1010 1972l-273 -325h-86l-272 325h90l225 -272l226 272h90zM1217 1389l-977 -1313h1005v-76h-1102v80l969 1302h-915v76h1020v-69z" />
    <glyph glyph-name="zcaron" unicode="&#x17e;" horiz-adv-x="1073" 
d="M852 1563l-272 -328h-86l-273 328h90l226 -273l225 273h90zM926 1004l-711 -934h743v-70h-841v59l704 928h-680v70h785v-53z" />
    <glyph glyph-name="uni018F" unicode="&#x18f;" horiz-adv-x="1662" 
d="M823 1483q309 0 498 -207q184 -206 184 -547q0 -337 -182 -547q-184 -211 -496 -211q-302 0 -485 203q-180 201 -186 516v35h1265q0 315 -161 500q-162 184 -439 184q-179 0 -310 -84t-198 -240h-92q73 189 231 294q157 104 371 104zM829 47q256 0 414 164
q154 160 176 438h-1177q17 -270 172 -436q156 -166 415 -166z" />
    <glyph glyph-name="florin" unicode="&#x192;" 
d="M1012 1458h114l-12 -69h-102q-85 0 -131 -44q-45 -43 -66 -151l-74 -377l260 4l-14 -65l-256 2l-158 -807q-27 -136 -90 -196t-186 -60h-113l15 69h98q84 0 131 45q45 43 66 150l155 799l-250 -2l15 65l248 -4l73 385q27 138 91 197q63 59 186 59z" />
    <glyph glyph-name="uni01F4" unicode="&#x1f4;" horiz-adv-x="1673" 
d="M952 1966h111l-254 -309h-78zM846 662v73h620v-735h-65l-15 330q-68 -171 -214 -263q-149 -94 -349 -94q-307 0 -487 209q-180 207 -180 551q0 347 178 549q179 203 493 203q254 0 420 -121t205 -334l-80 -6q-33 175 -172 281t-369 106q-279 0 -436 -182
q-155 -179 -155 -498q0 -310 155 -495q157 -189 430 -189q232 0 383 137q149 135 176 379v99h-538z" />
    <glyph glyph-name="uni01F5" unicode="&#x1f5;" horiz-adv-x="1224" 
d="M696 1565h111l-254 -310h-78zM965 791v266h75v-1059q0 -211 -118 -317q-119 -107 -338 -107q-184 0 -294 77q-109 76 -130 195h82q21 -92 107 -148q85 -56 237 -56q377 0 377 350v270q-45 -126 -151 -207q-106 -80 -243 -80q-207 0 -329 158q-123 157 -123 406
q0 243 123 395q122 147 325 147q145 0 251 -80t149 -210zM575 49q169 0 277 133q106 130 106 350q0 222 -105 349t-280 127q-173 0 -274 -125q-100 -124 -100 -344q0 -224 100 -357t276 -133z" />
    <glyph glyph-name="Aringacute" unicode="&#x1fa;" horiz-adv-x="1466" 
d="M856 2255h111l-254 -305h-78zM1393 0h-93l-194 473h-746l-196 -473h-88l594 1411q-80 21 -129 83t-49 148q0 103 67 170q68 68 172 68q102 0 170 -68t68 -170q0 -82 -47 -146q-46 -62 -123 -83zM604 1772q-51 -50 -51 -130q0 -81 51 -126q50 -50 127 -50q76 0 126 50
t50 126q0 81 -49 130q-50 49 -127 49t-127 -49zM711 1315l-320 -768h684l-317 768l-23 69z" />
    <glyph glyph-name="aringacute" unicode="&#x1fb;" horiz-adv-x="1179" 
d="M702 2081h111l-256 -309h-78zM575 1194q-100 0 -169 67q-68 66 -68 169q0 104 68 172q67 67 169 67q106 0 173 -67t67 -172q0 -103 -67 -169q-69 -67 -173 -67zM705 1561q-52 47 -130 47q-76 0 -126 -47q-50 -50 -50 -131q0 -76 51 -127q50 -50 125 -50t127 50t52 127
q0 82 -49 131zM1120 66h31v-66h-47q-111 0 -159 53t-48 174l-2 6q-46 -124 -156 -191t-262 -67q-170 0 -263 81t-93 218q0 263 334 306l264 36q94 12 132 51q36 37 36 109v15q0 106 -79 164q-80 59 -237 59t-232 -60t-91 -188h-82q28 317 412 317q191 0 290 -78
q101 -80 101 -221v-540q0 -100 32 -139t119 -39zM489 41q166 0 270 88q105 89 128 248v235q-39 -40 -142 -57l-278 -41q-266 -39 -266 -238q0 -108 75 -171q76 -64 213 -64z" />
    <glyph glyph-name="AEacute" unicode="&#x1fc;" horiz-adv-x="2322" 
d="M1389 1966h110l-254 -309h-78zM1247 723v-649h930v-74h-1012v459h-710l-291 -459h-88l925 1458h1143v-74h-897v-587h836v-74h-836zM1044 1389l-544 -861h665v861h-121z" />
    <glyph glyph-name="aeacute" unicode="&#x1fd;" horiz-adv-x="1933" 
d="M1094 1565h110l-254 -310h-78zM1819 573v-45h-856v-6q0 -223 107 -349q108 -128 294 -128q140 0 232 72q91 72 130 190l74 -12q-43 -143 -158 -232q-113 -88 -280 -88q-155 0 -268 80t-164 226q-50 -148 -163 -227t-280 -79q-175 0 -270 85q-96 86 -96 225q0 142 97 224
q98 83 278 83h389v162q0 124 -83 192t-243 68q-148 0 -223 -61q-73 -60 -88 -187h-82q28 317 399 317q334 0 385 -243q118 241 404 241q213 0 340 -139q125 -140 125 -369zM1354 1012q-169 0 -275 -112q-103 -109 -114 -308h778q-10 194 -113 307q-102 113 -276 113zM494 43
q177 0 282 101q108 103 109 286v98l-396 -4q-138 -1 -214 -65q-74 -62 -74 -174q0 -110 77 -176q76 -66 216 -66z" />
    <glyph glyph-name="Oslashacute" unicode="&#x1fe;" horiz-adv-x="1660" 
d="M952 1966h111l-254 -309h-78zM1489 1427l-152 -174q168 -201 168 -524q0 -333 -184 -545q-185 -213 -492 -213q-270 0 -454 176l-137 -157l-50 39l144 164q-176 214 -176 536q0 333 184 545q185 209 489 209q282 0 465 -183l148 168zM240 729q0 -287 145 -475l858 987
q-156 168 -414 168q-269 0 -428 -186q-161 -185 -161 -494zM829 47q269 0 433 189q159 186 159 493q0 282 -137 463l-858 -985q165 -160 403 -160z" />
    <glyph glyph-name="oslashacute" unicode="&#x1ff;" horiz-adv-x="1204" 
d="M731 1575h111l-254 -309h-78zM1067 1044l-102 -122q125 -146 125 -392q0 -250 -136 -401q-136 -154 -352 -154q-193 0 -321 119l-99 -119l-47 37l105 127q-123 151 -123 389q0 254 135 404q130 149 352 149q197 0 320 -116l96 116zM199 528q0 -204 92 -329l583 708
q-105 105 -272 105q-185 0 -294 -130t-109 -354zM602 45q184 0 295 131q111 130 111 354q0 200 -93 330l-585 -706q106 -109 272 -109z" />
    <glyph glyph-name="uni0218" unicode="&#x218;" horiz-adv-x="1363" 
d="M571 821l287 -59q381 -78 381 -379q0 -194 -140 -301q-142 -109 -401 -109q-530 0 -575 467h80q43 -397 497 -397q218 0 339 89q120 89 120 249q0 125 -80 200q-79 74 -250 109l-270 53q-383 77 -383 359q0 178 133 280q135 103 367 103t373 -109q138 -107 149 -303h-80
q-8 165 -126 253q-119 89 -318 89q-197 0 -307 -82q-111 -83 -111 -225q0 -224 315 -287zM721 -268l-86 -8v104h129v-205q0 -94 -92 -94h-37v43h35q51 0 51 47v113z" />
    <glyph glyph-name="uni0219" unicode="&#x219;" horiz-adv-x="1071" 
d="M477 596l174 -29q305 -53 305 -282q0 -146 -109 -228t-302 -82q-195 0 -306 90q-109 88 -120 257h78q21 -279 350 -279q157 0 243 62q87 63 87 174q0 178 -240 215l-178 30q-160 27 -235 89q-77 63 -77 178q0 134 102 209t275 75q179 0 286 -82q108 -83 120 -229h-82
q-11 118 -95 180q-87 64 -231 64q-137 0 -218 -57t-81 -156q0 -83 61 -129q62 -46 193 -70zM565 -260l-86 -8v104h129v-205q0 -94 -92 -94h-37v43h35q51 0 51 47v113z" />
    <glyph glyph-name="uni021A" unicode="&#x21a;" horiz-adv-x="1325" 
d="M98 1384v74h1129v-74h-525v-1384h-81v1384h-523zM686 -256l-86 -8v104h129v-205q0 -94 -92 -94h-37v43h35q51 0 51 47v113z" />
    <glyph glyph-name="uni021B" unicode="&#x21b;" horiz-adv-x="677" 
d="M616 989l-280 4v-762q0 -83 36 -121t115 -38h127v-72h-145q-215 0 -215 221v772l-199 -4v68l199 -4v311h82v-311l280 4v-68zM326 -242l-86 -8v105h129v-205q0 -94 -93 -94h-36v43h34q52 0 52 47v112z" />
    <glyph glyph-name="uni0237" unicode="&#x237;" horiz-adv-x="450" 
d="M-2 -418h-51v72h51q96 0 141 45t45 143v1215h82v-1204q0 -271 -268 -271z" />
    <glyph glyph-name="uni0259" unicode="&#x259;" horiz-adv-x="1167" 
d="M571 1081q224 0 353 -151q127 -155 127 -408q0 -248 -127 -397q-124 -150 -344 -150q-215 0 -340 142q-125 140 -125 366v45h854v7q0 221 -107 349t-293 128q-141 0 -232 -72t-130 -190l-74 12q40 140 156 230q115 89 282 89zM578 45q168 0 274 112q104 110 115 308h-777
q11 -195 112 -307q102 -113 276 -113z" />
    <glyph glyph-name="h.sups" unicode="&#x2b0;" horiz-adv-x="989" 
d="M535 1475q127 0 200 -68q72 -67 72 -197v-448h-72v436q0 105 -57 159t-162 54q-120 0 -191 -72q-71 -73 -71 -202v-375h-70v962h70v-421q69 172 281 172z" />
    <glyph glyph-name="r.sups" unicode="&#x2b3;" horiz-adv-x="630" 
d="M518 1466h70v-65h-70q-124 0 -194 -73t-70 -216v-350h-70v696h66l2 -166q60 174 266 174z" />
    <glyph glyph-name="circumflex" unicode="&#x2c6;" horiz-adv-x="1024" 
d="M287 1237h-90l272 328h86l272 -328h-90l-225 274z" />
    <glyph glyph-name="caron" unicode="&#x2c7;" horiz-adv-x="1024" 
d="M555 1235h-86l-272 328h90l225 -273l225 273h90z" />
    <glyph glyph-name="uni02C9" unicode="&#x2c9;" horiz-adv-x="1024" 
d="M815 1327h-606v66h606v-66z" />
    <glyph glyph-name="breve" unicode="&#x2d8;" horiz-adv-x="1024" 
d="M778 1538h60q-16 -268 -326 -268t-326 268h60q12 -209 266 -209t266 209z" />
    <glyph glyph-name="dotaccent" unicode="&#x2d9;" horiz-adv-x="1024" 
d="M567 1313h-108v147h108v-147z" />
    <glyph glyph-name="ring" unicode="&#x2da;" horiz-adv-x="1024" 
d="M684 1284q-67 -67 -172 -67t-172 67q-68 68 -68 170t68 172q68 68 172 68t172 -68q68 -70 68 -172t-68 -170zM387 1327q57 -48 125 -49q70 -2 126 49q56 50 50 127q0 82 -49 130q-50 48 -127 48q-78 0 -127 -48t-49 -130q0 -78 51 -127z" />
    <glyph glyph-name="ogonek" unicode="&#x2db;" horiz-adv-x="1024" 
d="M674 -412h-88q-108 0 -164 44q-55 43 -55 126q0 119 151 197l129 65l60 -20l-148 -80q-117 -63 -117 -149q0 -119 158 -119h74v-64z" />
    <glyph glyph-name="tilde" unicode="&#x2dc;" horiz-adv-x="1024" 
d="M199 1300h-66q8 310 203 310q61 0 111 -35q51 -35 79 -86q69 -123 164 -123q124 0 135 244h66q-8 -310 -203 -310q-62 0 -111 36q-50 37 -77 87q-28 50 -73 86q-44 35 -91 35q-126 0 -137 -244z" />
    <glyph glyph-name="hungarumlaut" unicode="&#x2dd;" horiz-adv-x="1024" 
d="M248 1233h-76l213 336h96zM614 1233h-75l237 336h96z" />
    <glyph glyph-name="s.sups" unicode="&#x2e2;" horiz-adv-x="878" 
d="M451 743q-303 0 -336 218l67 6q21 -166 273 -166q245 0 245 147q0 111 -184 129l-156 19q-221 24 -221 180q0 94 76 145q78 52 211 52q136 0 219 -53q81 -52 98 -148l-65 -6q-27 149 -254 149q-104 0 -163 -36q-58 -36 -58 -101q0 -98 164 -121l170 -20q120 -15 175 -59
q54 -44 54 -124q0 -102 -83 -156q-84 -55 -232 -55z" />
    <glyph glyph-name="gravecomb" unicode="&#x300;" horiz-adv-x="0" 
d="M90 1255h-78l-256 310h111z" />
    <glyph glyph-name="acutecomb" unicode="&#x301;" horiz-adv-x="0" 
d="M-16 1255h-78l221 310h111z" />
    <glyph glyph-name="uni0302" unicode="&#x302;" horiz-adv-x="0" 
d="M-225 1237h-90l272 328h86l272 -328h-90l-225 274z" />
    <glyph glyph-name="tildecomb" unicode="&#x303;" horiz-adv-x="0" 
d="M-313 1300h-66q8 310 203 310q61 0 111 -35q51 -35 79 -86q69 -123 164 -123q124 0 135 244h66q-8 -310 -203 -310q-121 0 -190 123q-27 51 -71 86t-91 35q-126 0 -137 -244z" />
    <glyph glyph-name="uni0304" unicode="&#x304;" horiz-adv-x="0" 
d="M303 1327h-606v66h606v-66z" />
    <glyph glyph-name="uni0306" unicode="&#x306;" horiz-adv-x="0" 
d="M266 1538h60q-16 -268 -326 -268t-326 268h60q12 -209 266 -209t266 209z" />
    <glyph glyph-name="uni0307" unicode="&#x307;" horiz-adv-x="0" 
d="M55 1313h-110v147h110v-147z" />
    <glyph glyph-name="uni0308" unicode="&#x308;" horiz-adv-x="0" 
d="M-150 1313h-108v147h108v-147zM258 1313h-108v147h108v-147z" />
    <glyph glyph-name="uni030A" unicode="&#x30a;" horiz-adv-x="0" 
d="M172 1284q-67 -67 -172 -67t-172 67q-68 68 -68 170t68 172q68 68 172 68t172 -68q68 -70 68 -172t-68 -170zM-127 1327q78 -80 195 -35q116 44 108 162q0 82 -49 130t-127 48t-127 -48t-49 -130q0 -78 49 -127z" />
    <glyph glyph-name="uni030B" unicode="&#x30b;" horiz-adv-x="0" 
d="M-184 1233h-76l213 336h96zM182 1233h-76l238 336h96z" />
    <glyph glyph-name="uni030C" unicode="&#x30c;" horiz-adv-x="0" 
d="M43 1235h-86l-272 328h90l225 -273l225 273h90z" />
    <glyph glyph-name="uni0312" unicode="&#x312;" horiz-adv-x="0" 
d="M63 1554h-34q-49 0 -49 -47v-96l83 8v-104h-126v188q0 94 90 94h36v-43z" />
    <glyph glyph-name="uni0313" unicode="&#x313;" horiz-adv-x="0" 
d="M-63 1495v102h126v-186q0 -96 -90 -96h-36v45h34q49 0 49 47v96z" />
    <glyph glyph-name="dotbelowcomb" unicode="&#x323;" horiz-adv-x="0" 
d="M55 -369h-110v148h110v-148z" />
    <glyph glyph-name="uni0324" unicode="&#x324;" horiz-adv-x="0" 
d="M-150 -362h-108v147h108v-147zM258 -362h-108v147h108v-147z" />
    <glyph glyph-name="uni0325" unicode="&#x325;" horiz-adv-x="0" 
d="M172 -569q-68 -68 -172 -68t-172 68q-68 70 -68 172t68 170q67 67 172 67t172 -67q68 -68 68 -170t-68 -172zM-127 -526q58 -48 127 -49q70 -2 126 49q56 50 50 129q0 77 -50 127q-49 49 -126 49t-126 -49q-50 -50 -50 -127q0 -80 49 -129z" />
    <glyph glyph-name="uni0326" unicode="&#x326;" horiz-adv-x="0" 
d="M-66 -264v104h129v-205q0 -94 -92 -94h-37v43h35q51 0 51 47v113z" />
    <glyph glyph-name="uni0327" unicode="&#x327;" horiz-adv-x="0" 
d="M-37 -457h-76v56h70q174 0 174 110q0 94 -129 94h-88l-29 47l92 150h58l-84 -137h61q185 0 185 -152q0 -80 -62 -124t-172 -44z" />
    <glyph glyph-name="uni0328" unicode="&#x328;" horiz-adv-x="0" 
d="M-33 -412h-88q-108 0 -164 44q-55 43 -55 126q0 119 152 197l129 65l59 -20l-150 -80q-114 -66 -114 -149q0 -119 158 -119h73v-64z" />
    <glyph glyph-name="uni032E" unicode="&#x32e;" horiz-adv-x="0" 
d="M266 -190h60q-17 -269 -326 -269t-326 269h60q12 -209 266 -209t266 209z" />
    <glyph glyph-name="uni0331" unicode="&#x331;" horiz-adv-x="0" 
d="M303 -336h-606v66h606v-66z" />
    <glyph glyph-name="uni0335" unicode="&#x335;" horiz-adv-x="0" 
d="M-283 733l-282 -4v68l282 -4l281 4v-68z" />
    <glyph glyph-name="uni0337" unicode="&#x337;" horiz-adv-x="0" 
d="M487 1057l-927 -1067l-47 39l927 1069z" />
    <glyph glyph-name="uni0338" unicode="&#x338;" horiz-adv-x="0" 
d="M651 1427l-1253 -1437l-49 39l1253 1439z" />
    <glyph glyph-name="uni0394" unicode="&#x394;" horiz-adv-x="1466" 
d="M692 1464h86l615 -1464h-1317zM713 1313l-518 -1239h1075l-510 1239l-23 69z" />
    <glyph glyph-name="uni03A9" unicode="&#x3a9;" horiz-adv-x="1665" 
d="M729 0h-573v74h446v4q-204 112 -317 291t-113 411q0 325 182 516q183 189 477 189q295 0 478 -189q178 -185 178 -516q0 -232 -111 -411t-313 -291v-4h446v-74h-571v66q465 243 465 714q0 292 -154 463q-156 166 -418 166q-261 0 -417 -168q-158 -170 -158 -461
q0 -472 473 -714v-66z" />
    <glyph glyph-name="uni03BC" unicode="&#x3bc;" horiz-adv-x="1200" 
d="M266 -418h-82v1475h82v-686q0 -157 76 -240q76 -84 223 -84q171 0 270 111t99 323v576h82v-1057h-80l4 244q-99 -269 -385 -269q-219 0 -301 172l-4 -2l16 -333v-230z" />
    <glyph glyph-name="pi" unicode="&#x3c0;" horiz-adv-x="1312" 
d="M1251 1057v-78h-274v-719q0 -103 41 -147q40 -43 141 -43h31v-70h-43q-133 0 -193 61q-59 60 -59 201v717h-510v-979h-82v979h-248v78h1196z" />
    <glyph glyph-name="d.sups" unicode="&#x1d48;" horiz-adv-x="993" 
d="M739 1309v415h70v-962h-59l-7 166q-38 -84 -113 -133q-77 -50 -179 -50q-154 0 -244 102t-90 269q0 166 90 262q91 97 244 97q101 0 177 -44q73 -42 111 -122zM465 803q126 0 203 83q75 81 75 224q0 146 -76 226q-77 81 -208 81q-127 0 -201 -80t-74 -221q0 -147 74 -230
t207 -83z" />
    <glyph glyph-name="t.sups" unicode="&#x1d57;" horiz-adv-x="573" 
d="M512 1458v-59h-205v-469q0 -111 117 -111h86v-57h-104q-85 0 -126 38q-40 37 -40 122v477h-185v59l185 -2v207h67v-207z" />
    <glyph glyph-name="Wgrave" unicode="&#x1e80;" horiz-adv-x="1927" 
d="M829 1966l224 -309h-78l-256 309h110zM1440 354l329 1104h84l-438 -1466h-76l-378 1364l-377 -1364h-78l-430 1466h84l323 -1104l64 -245l61 245l310 1104h88l307 -1104l63 -245z" />
    <glyph glyph-name="wgrave" unicode="&#x1e81;" horiz-adv-x="1568" 
d="M647 1565l223 -310h-77l-256 310h110zM1155 264l250 793h86l-346 -1057h-80l-242 817l-37 166l-41 -166l-243 -817h-82l-342 1057h88l248 -793l47 -174l45 174l237 793h84l238 -793l43 -170z" />
    <glyph glyph-name="Wacute" unicode="&#x1e82;" horiz-adv-x="1927" 
d="M1090 1966h110l-254 -309h-78zM1440 354l329 1104h84l-438 -1466h-76l-378 1364l-377 -1364h-78l-430 1466h84l323 -1104l64 -245l61 245l310 1104h88l307 -1104l63 -245z" />
    <glyph glyph-name="wacute" unicode="&#x1e83;" horiz-adv-x="1568" 
d="M907 1565h111l-254 -310h-78zM1155 264l250 793h86l-346 -1057h-80l-242 817l-37 166l-41 -166l-243 -817h-82l-342 1057h88l248 -793l47 -174l45 174l237 793h84l238 -793l43 -170z" />
    <glyph glyph-name="Wdieresis" unicode="&#x1e84;" horiz-adv-x="1927" 
d="M707 1821h108v-148h-108v148zM1114 1821h109v-148h-109v148zM1440 354l329 1104h84l-438 -1466h-76l-378 1364l-377 -1364h-78l-430 1466h84l323 -1104l64 -245l61 245l310 1104h88l307 -1104l63 -245z" />
    <glyph glyph-name="wdieresis" unicode="&#x1e85;" horiz-adv-x="1568" 
d="M524 1460h109v-147h-109v147zM932 1460h108v-147h-108v147zM1155 264l250 793h86l-346 -1057h-80l-242 817l-37 166l-41 -166l-243 -817h-82l-342 1057h88l248 -793l47 -174l45 174l237 793h84l238 -793l43 -170z" />
    <glyph glyph-name="uni1E9E" unicode="&#x1e9e;" horiz-adv-x="1404" 
d="M756 821h32q230 0 366 -111t136 -302q0 -203 -131 -317t-371 -114q-126 0 -272 31v74q144 -31 270 -31q208 0 314 91t106 266q0 160 -112 248q-113 89 -312 89q-70 0 -131 -6v70l484 569q-161 23 -385 23q-242 0 -352 -110q-109 -109 -109 -328v-963h-82v963
q0 512 543 512q274 0 483 -33v-64z" />
    <glyph glyph-name="Ygrave" unicode="&#x1ef2;" horiz-adv-x="1378" 
d="M555 1966l223 -309h-78l-256 309h111zM1231 1458h94l-590 -868v-590h-84v590l-598 868h99l510 -747l32 -54l31 54z" />
    <glyph glyph-name="ygrave" unicode="&#x1ef3;" horiz-adv-x="1112" 
d="M422 1565l223 -310h-78l-256 310h111zM563 51l385 1006h86l-508 -1290q-40 -105 -100 -145q-59 -40 -176 -40h-74v72h68q94 0 141 31q46 31 80 118l65 166l-452 1088h88l381 -932z" />
    <glyph glyph-name="thinspace" unicode="&#x2009;" horiz-adv-x="450" 
 />
    <glyph glyph-name="uni2011" unicode="&#x2011;" horiz-adv-x="772" 
d="M674 473h-574v76h574v-76z" />
    <glyph glyph-name="endash" unicode="&#x2013;" horiz-adv-x="1089" 
d="M991 473h-891v76h891v-76z" />
    <glyph glyph-name="emdash" unicode="&#x2014;" horiz-adv-x="1691" 
d="M1593 473h-1493v76h1493v-76z" />
    <glyph glyph-name="quoteleft" unicode="&#x2018;" horiz-adv-x="352" 
d="M260 1036h-149v287q0 139 133 139h16v-51h-18q-78 0 -78 -78v-178l96 10v-129z" />
    <glyph glyph-name="quoteright" unicode="&#x2019;" horiz-adv-x="352" 
d="M111 1032h-17v51h17q77 0 77 78v178l-96 -10v129h150v-287q0 -139 -131 -139z" />
    <glyph glyph-name="quotesinglbase" unicode="&#x201a;" horiz-adv-x="522" 
d="M205 -301h-19v51h19q78 0 78 78v178l-97 -10v129h150v-287q0 -139 -131 -139z" />
    <glyph glyph-name="quotedblleft" unicode="&#x201c;" horiz-adv-x="647" 
d="M555 1038h-149v287q0 137 131 137h16v-51h-16q-78 0 -78 -78v-178l96 10v-127zM260 1034h-149v287q0 139 133 139h16v-51h-18q-78 0 -78 -78v-178l96 10v-129z" />
    <glyph glyph-name="quotedblright" unicode="&#x201d;" horiz-adv-x="647" 
d="M111 1032h-17v51h17q77 0 77 78v178l-96 -10v129h150v-287q0 -139 -131 -139zM406 1032h-19v51h19q77 0 77 78v178l-96 -10v129h150v-287q0 -139 -131 -139z" />
    <glyph glyph-name="quotedblbase" unicode="&#x201e;" horiz-adv-x="815" 
d="M205 -301h-19v53h19q78 0 78 78v176l-97 -10v129h150v-287q0 -139 -131 -139zM496 -301h-17v51h19q77 0 77 78v178l-96 -10v129h150v-287q0 -139 -133 -139z" />
    <glyph glyph-name="dagger" unicode="&#x2020;" horiz-adv-x="1308" 
d="M694 1176l408 2v-74l-408 4v-1323h-80v1323l-407 -4v74l407 -2v565h80v-565z" />
    <glyph glyph-name="daggerdbl" unicode="&#x2021;" horiz-adv-x="1308" 
d="M1102 1178v-74l-408 4v-680l408 2v-74l-408 4v-575h-80v575l-407 -4v74l407 -2v680l-407 -4v74l407 -2v565h80v-565z" />
    <glyph glyph-name="bullet" unicode="&#x2022;" horiz-adv-x="679" 
d="M471 475h-264v225h264v-225z" />
    <glyph glyph-name="ellipsis" unicode="&#x2026;" horiz-adv-x="1544" 
d="M336 0h-152v131h152v-131zM848 0h-152v131h152v-131zM1360 0h-154v131h154v-131z" />
    <glyph glyph-name="perthousand" unicode="&#x2030;" horiz-adv-x="3510" 
d="M565 639q-358 0 -358 455q0 456 358 456q361 0 361 -456q0 -455 -361 -455zM825 -31h-84l918 1520h82zM565 705q146 0 215 95q70 96 70 294q0 389 -285 389q-284 0 -284 -389t284 -389zM1976 -20q-360 0 -360 456q0 457 360 457q359 0 359 -457q0 -456 -359 -456z
M3303 436q0 -456 -360 -456t-360 456q0 457 360 457t360 -457zM1976 47q285 0 285 389t-285 389q-284 0 -284 -389q0 -199 69 -294t215 -95zM2943 47q285 0 285 389t-285 389t-285 -389q0 -198 70 -294q69 -95 215 -95z" />
    <glyph glyph-name="guilsinglleft" unicode="&#x2039;" horiz-adv-x="880" 
d="M696 76v-96l-512 499v94l512 500v-96l-458 -451z" />
    <glyph glyph-name="guilsinglright" unicode="&#x203a;" horiz-adv-x="880" 
d="M696 479l-512 -499v96l457 450l-457 451v96l512 -500v-94z" />
    <glyph glyph-name="uni203D" unicode="&#x203d;" horiz-adv-x="1245" 
d="M614 1475q219 0 347 -101q126 -99 126 -284q0 -113 -52 -198t-171 -157l-71 -43q-105 -63 -134 -127q-32 -66 -34 -211v-6h-58l-12 551v223h82v-223l-6 -270q46 72 155 135q124 74 173 148q51 77 51 178q0 151 -107 234t-289 83q-197 0 -301 -97t-110 -282h-78
q6 213 133 330q128 117 356 117zM657 0h-120v121h120v-121z" />
    <glyph glyph-name="fraction" unicode="&#x2044;" horiz-adv-x="628" 
d="M-102 -31h-84l917 1520h84z" />
    <glyph glyph-name="zero.sups" unicode="&#x2070;" horiz-adv-x="917" 
d="M819 1198q0 -455 -360 -455q-361 0 -361 455q0 457 361 457q360 0 360 -457zM459 809q284 0 284 389t-284 389q-285 0 -285 -389q0 -198 70 -294q69 -95 215 -95z" />
    <glyph glyph-name="four.sups" unicode="&#x2074;" horiz-adv-x="876" 
d="M645 762h-72v231l-497 -2v64l495 581h74v-585l156 2v-62l-156 2v-231zM569 1546l-422 -493l426 -2v495h-4z" />
    <glyph glyph-name="five.sups" unicode="&#x2075;" horiz-adv-x="884" 
d="M438 737q-132 0 -220 56t-116 155l74 17q21 -77 90 -120q70 -44 172 -44q129 0 200 62q73 64 73 167q0 104 -71 167q-70 63 -194 63q-159 0 -237 -105l-82 16l90 465h508v-63h-457l-63 -344l4 -4q85 96 250 96q150 0 236 -79q87 -79 87 -208q0 -132 -93 -215
q-92 -82 -251 -82z" />
    <glyph glyph-name="six.sups" unicode="&#x2076;" horiz-adv-x="886" 
d="M459 743q-357 0 -357 428q0 235 92 360q91 124 267 124q114 0 192 -54t105 -149l-70 -18q-46 157 -227 157q-283 0 -289 -411q94 143 297 143q144 0 230 -77q85 -76 85 -206q0 -132 -89 -215q-88 -82 -236 -82zM459 805q116 0 184 64q70 65 70 169q0 105 -68 165
q-69 61 -184 61q-106 0 -180 -50t-101 -129q7 -135 82 -208q74 -72 197 -72z" />
    <glyph glyph-name="seven.sups" unicode="&#x2077;" horiz-adv-x="761" 
d="M281 762h-74q33 493 409 811h-565v63h660v-59q-397 -324 -430 -815z" />
    <glyph glyph-name="eight.sups" unicode="&#x2078;" horiz-adv-x="917" 
d="M719 819q-99 -71 -260 -71t-260 71q-99 69 -99 191q0 83 56 144q56 60 153 81v4q-80 21 -126 73t-46 122q0 101 87 161t235 60q147 0 234 -60t87 -161q0 -70 -46 -122t-126 -73v-4q100 -21 154 -80q55 -59 55 -145q0 -123 -98 -191zM274 1307q65 -43 185 -43
q119 0 184 43q66 43 66 120q0 80 -67 124t-183 44q-117 0 -184 -44q-66 -43 -66 -124q0 -77 65 -120zM250 864q76 -57 209 -57t209 57q75 54 75 150q0 92 -74 141t-210 49q-137 0 -211 -50t-74 -140q0 -95 76 -150z" />
    <glyph glyph-name="nine.sups" unicode="&#x2079;" horiz-adv-x="886" 
d="M428 743q-115 0 -195 54q-77 52 -104 151l70 17q47 -158 227 -158q283 0 289 412q-91 -144 -297 -144q-145 0 -231 77q-85 76 -85 206q0 132 89 215q88 82 237 82q356 0 356 -428q0 -235 -90 -360q-90 -124 -266 -124zM426 1137q106 0 180 48t101 128q-7 136 -82 209
q-72 71 -197 71q-115 0 -184 -63q-70 -64 -70 -168q0 -105 68 -165t184 -60z" />
    <glyph glyph-name="plus.sups" unicode="&#x207a;" horiz-adv-x="1099" 
d="M584 1161h387v-59h-387v-340h-66v340h-385v59h385v342h66v-342z" />
    <glyph glyph-name="minus.sups" unicode="&#x207b;" horiz-adv-x="1073" 
d="M942 1100h-809v61h809v-61z" />
    <glyph glyph-name="parenleft.sups" unicode="&#x207d;" horiz-adv-x="587" 
d="M463 485h-72q-231 281 -231 637q0 371 231 650h72q-234 -280 -234 -650q0 -352 234 -637z" />
    <glyph glyph-name="parenright.sups" unicode="&#x207e;" horiz-adv-x="587" 
d="M197 485h-70q231 287 231 637q0 370 -231 650h70q231 -280 231 -650q0 -350 -231 -637z" />
    <glyph glyph-name="n.sups" unicode="&#x207f;" horiz-adv-x="989" 
d="M535 1475q127 0 200 -68q72 -67 72 -197v-448h-72v436q0 105 -57 159t-162 54q-120 0 -191 -72q-71 -73 -71 -202v-375h-70v696h68l2 -158q69 175 281 175z" />
    <glyph glyph-name="zero.subs" unicode="&#x2080;" horiz-adv-x="917" 
d="M819 80q0 -457 -360 -457q-361 0 -361 457t361 457q360 0 360 -457zM459 -309q284 0 284 389t-284 389q-285 0 -285 -389q0 -198 70 -294q69 -95 215 -95z" />
    <glyph glyph-name="one.subs" unicode="&#x2081;" horiz-adv-x="628" 
d="M444 -356h-71v608h-281v59h176q54 0 82 19q28 18 29 63l2 125h63v-874z" />
    <glyph glyph-name="two.subs" unicode="&#x2082;" horiz-adv-x="942" 
d="M797 -356h-647q0 237 268 364l133 64q170 80 170 209q0 84 -64 137t-178 53q-237 0 -243 -231h-76q1 144 86 221q83 76 233 76q145 0 231 -72q85 -72 85 -184q0 -87 -49 -150t-162 -115l-113 -55q-218 -105 -235 -252h561v-65z" />
    <glyph glyph-name="three.subs" unicode="&#x2083;" horiz-adv-x="886" 
d="M446 -377q-157 0 -250 75q-94 76 -94 200h74q1 -97 73 -155q69 -56 200 -56q123 0 192 51q70 52 70 145q0 86 -67 136q-68 51 -183 51h-70v65h70q98 0 152 45q55 46 55 121q0 79 -64 126q-62 46 -170 46q-111 0 -173 -49t-64 -141h-74q0 116 83 185q82 69 226 69
q138 0 224 -63q85 -63 85 -167q0 -74 -41 -127t-114 -71v-3q88 -18 143 -79t55 -146q0 -116 -92 -187t-246 -71z" />
    <glyph glyph-name="four.subs" unicode="&#x2084;" horiz-adv-x="876" 
d="M645 -356h-72v231l-497 -2v64l495 581h74v-586l156 2v-61l-156 2v-231zM569 428l-422 -494l426 -2v496h-4z" />
    <glyph glyph-name="five.subs" unicode="&#x2085;" horiz-adv-x="884" 
d="M438 -381q-134 0 -220 55q-88 56 -116 156l74 16q21 -75 90 -119q70 -44 172 -44q129 0 200 62q73 64 73 167q0 104 -71 167q-69 62 -194 62q-160 0 -237 -104l-82 16l90 465h508v-63h-457l-63 -344l4 -5q86 97 250 97q150 0 236 -79q87 -79 87 -208q0 -133 -93 -215
q-92 -82 -251 -82z" />
    <glyph glyph-name="six.subs" unicode="&#x2086;" horiz-adv-x="886" 
d="M459 -375q-357 0 -357 428q0 235 92 360q91 124 267 124q113 0 192 -55q78 -54 105 -148l-70 -19q-47 158 -227 158q-283 0 -289 -412q94 144 297 144q144 0 230 -77q85 -76 85 -206q0 -132 -89 -215q-88 -82 -236 -82zM459 -313q116 0 184 64q70 65 70 169
q0 105 -68 165q-67 60 -184 60q-107 0 -180 -49q-74 -50 -101 -129q7 -136 82 -209q72 -71 197 -71z" />
    <glyph glyph-name="seven.subs" unicode="&#x2087;" horiz-adv-x="761" 
d="M281 -356h-74q33 493 409 811h-565v63h660v-59q-397 -324 -430 -815z" />
    <glyph glyph-name="eight.subs" unicode="&#x2088;" horiz-adv-x="917" 
d="M719 -299q-101 -72 -260 -72t-260 72q-99 69 -99 190q0 84 56 145q56 60 153 81v4q-80 21 -126 73t-46 121q0 102 87 162t235 60q147 0 234 -60t87 -162q0 -69 -46 -121t-126 -73v-4q100 -21 154 -80q55 -59 55 -146q0 -122 -98 -190zM274 188q65 -43 185 -43
q119 0 184 43q66 44 66 121q0 80 -67 124t-183 44q-117 0 -184 -44q-66 -43 -66 -124q0 -78 65 -121zM250 -256q77 -55 209 -55t209 55q75 56 75 152q0 92 -74 141t-210 49q-137 0 -211 -50t-74 -140q0 -95 76 -152z" />
    <glyph glyph-name="nine.subs" unicode="&#x2089;" horiz-adv-x="886" 
d="M428 -375q-116 0 -195 53q-77 52 -104 152l70 16q46 -157 227 -157q283 0 289 411q-91 -143 -297 -143q-145 0 -231 77q-85 76 -85 206q0 132 89 215q88 82 237 82q356 0 356 -428q0 -235 -90 -360q-90 -124 -266 -124zM426 18q105 0 180 49q74 48 101 128
q-7 135 -82 208q-73 72 -197 72q-115 0 -184 -63q-70 -64 -70 -168q0 -105 68 -165q69 -61 184 -61z" />
    <glyph glyph-name="plus.subs" unicode="&#x208a;" horiz-adv-x="1099" 
d="M584 92h387v-59h-387v-340h-66v340h-385v59h385v342h66v-342z" />
    <glyph glyph-name="minus.subs" unicode="&#x208b;" horiz-adv-x="1073" 
d="M942 31h-809v61h809v-61z" />
    <glyph glyph-name="equal.subs" unicode="&#x208c;" horiz-adv-x="1073" 
d="M942 184h-809v62h809v-62zM942 -123h-809v64h809v-64z" />
    <glyph glyph-name="uni208D" unicode="&#x208d;" horiz-adv-x="587" 
d="M463 -633h-72q-231 281 -231 637q0 370 231 649h72q-234 -281 -234 -649q0 -352 234 -637z" />
    <glyph glyph-name="uni208E" unicode="&#x208e;" horiz-adv-x="587" 
d="M197 -633h-70q231 287 231 637q0 368 -231 649h70q231 -281 231 -649q0 -350 -231 -637z" />
    <glyph glyph-name="n.subs" unicode="&#x2099;" horiz-adv-x="989" 
d="M535 356q129 0 200 -67q72 -67 72 -197v-448h-72v436q0 105 -57 159t-162 54q-120 0 -191 -72q-71 -73 -71 -203v-374h-70v696h68l2 -158q69 174 281 174z" />
    <glyph glyph-name="Euro" unicode="&#x20ac;" 
d="M938 1401q-202 0 -335 -117q-135 -118 -181 -328h815v-73h-827q-11 -90 -11 -152q0 -80 9 -141h829v-74h-817q44 -218 178 -339q136 -122 338 -122q160 0 301 66v-80q-129 -61 -301 -61q-240 0 -397 141q-159 142 -205 395h-260v74h250q-9 61 -9 141q0 62 11 152h-252v73
h264q49 245 206 382t390 137q171 0 303 -62v-80q-142 68 -299 68z" />
    <glyph glyph-name="uni20B8" unicode="&#x20b8;" horiz-adv-x="1325" 
d="M98 1384v74h1129v-74h-1129zM621 1069h-523v74h1129v-74h-525v-1069h-81v1069z" />
    <glyph glyph-name="uni20B9" unicode="&#x20b9;" 
d="M106 1458h1098v-74h-575q183 -88 198 -290h377v-74h-377q-11 -126 -87 -211q-77 -86 -199 -113q109 -11 170 -67q59 -55 98 -183l127 -446h-86l-123 428q-38 131 -106 180q-73 47 -228 47h-287v74h300q146 0 237 77q89 76 100 214h-637v74h637q-11 138 -100 214t-237 76
h-300v74z" />
    <glyph glyph-name="uni20BA" unicode="&#x20ba;" 
d="M1153 504h76q-15 -237 -180 -369q-163 -135 -416 -135h-256v535l-293 -154v80l293 153v308l-293 -154v80l293 153v457h82v-414l487 256v-81l-487 -254v-308l487 254v-80l-487 -253v-502h174q224 0 362 113q140 114 158 315z" />
    <glyph glyph-name="uni20BC" unicode="&#x20bc;" 
d="M698 1075h9q246 0 357 -117q112 -118 112 -370v-588h-82v592q0 220 -90 315q-90 94 -306 99v-779h-82v779q-214 -4 -306 -99q-91 -94 -91 -315v-592h-82v588q0 258 110 373q109 114 359 114h10v383h82v-383z" />
    <glyph glyph-name="uni20BF" unicode="&#x20bf;" 
d="M1225 395q0 -175 -109 -282q-108 -107 -289 -113v-295h-71v295h-262v-295h-72v295h-260v1458h260v277h72v-277h258h4v277h71v-281q157 -18 245 -114q87 -95 87 -238q0 -123 -67 -211t-193 -123q326 -63 326 -373zM739 1384h-495v-587h489q164 0 253 80t89 215
q0 134 -87 213q-86 79 -249 79zM244 74h559q155 0 246 85q92 86 92 236q0 157 -102 242q-103 86 -283 86h-512v-649z" />
    <glyph glyph-name="uni2105" unicode="&#x2105;" horiz-adv-x="2451" 
d="M817 -31h-84l918 1520h84zM557 748q-165 0 -257 98q-93 99 -93 268q0 168 93 264q94 97 257 97q131 0 215 -63t105 -161l-68 -8q-44 170 -250 170q-136 0 -208 -79q-72 -80 -72 -222q0 -145 73 -224t207 -79q207 0 250 182l68 -8q-23 -108 -108 -173q-81 -62 -212 -62z
M1894 -20q-156 0 -254 104q-100 101 -100 266q0 167 100 268q100 103 254 103q153 0 252 -105t99 -266t-99 -266q-98 -104 -252 -104zM1894 43q125 0 202 84q77 85 77 223q0 141 -77 224t-202 83q-128 0 -206 -83t-78 -224q0 -140 79 -223q79 -84 205 -84z" />
    <glyph glyph-name="uni2113" unicode="&#x2113;" horiz-adv-x="989" 
d="M813 174l51 -53q-118 -141 -303 -141q-131 0 -206 72q-74 71 -74 206v209l-195 -88l-31 70l226 92v651q0 136 70 209q71 74 204 74q287 0 287 -373q0 -300 -207 -451q-95 -68 -273 -147v-244q0 -101 55 -154t150 -53q147 0 246 121zM557 1403q-95 0 -144 -56
q-51 -59 -51 -159v-613q224 105 314 213t90 310q0 305 -209 305z" />
    <glyph glyph-name="uni2116" unicode="&#x2116;" horiz-adv-x="2451" 
d="M1733 1382q100 103 254 103t254 -103q96 -106 96 -268t-96 -264q-99 -105 -254 -105t-254 105q-101 101 -101 264q0 165 101 268zM293 1458l938 -1339v1339h78v-1458h-88l-936 1337v-1337h-78v1458h86zM1987 807q124 0 201 83t77 224q0 140 -77 225q-76 84 -201 84
q-127 0 -205 -84t-78 -225q0 -139 78 -223t205 -84z" />
    <glyph glyph-name="uni2117" unicode="&#x2117;" horiz-adv-x="1781" 
d="M362 1268q205 211 529 211q325 0 530 -211t205 -537q0 -327 -205 -538q-207 -213 -530 -213q-322 0 -529 213q-206 212 -206 538q0 325 206 537zM410 236q189 -195 481 -195q294 0 483 195q187 193 187 495q0 301 -187 494q-186 192 -483 192q-295 0 -481 -192
q-189 -195 -189 -494q0 -300 189 -495zM664 1120h299q117 0 184 -63t67 -170q0 -110 -68 -172q-70 -64 -188 -64h-231v-303h-63v772zM727 707h225q96 0 148 47q51 46 51 133q0 83 -51 130q-50 46 -146 46h-227v-356z" />
    <glyph glyph-name="trademark" unicode="&#x2122;" horiz-adv-x="1980" 
d="M442 676h-65v725h-260v57h590v-57h-265v-725zM1014 676h-64v782h142l270 -741h22l269 741h143v-782h-65v741h-31l-266 -741h-121l-271 741h-28v-741z" />
    <glyph glyph-name="uni2126" unicode="&#x2126;" horiz-adv-x="1665" 
d="M729 0h-573v74h446v4q-204 112 -317 291t-113 411q0 325 182 516q183 189 477 189q295 0 478 -189q178 -185 178 -516q0 -232 -111 -411t-313 -291v-4h446v-74h-571v66q465 243 465 714q0 292 -154 463q-156 166 -418 166q-261 0 -417 -168q-158 -170 -158 -461
q0 -472 473 -714v-66z" />
    <glyph glyph-name="estimated" unicode="&#x212e;" horiz-adv-x="1845" 
d="M922 1475q376 0 600 -224q221 -226 221 -551h-1309q-28 0 -28 -26v-357q0 -65 32 -94q200 -196 484 -196q152 0 288 63q137 63 226 172h145q-90 -128 -261 -207q-172 -80 -398 -80q-368 0 -594 209q-228 208 -228 537q0 326 224 541q225 213 598 213zM922 1419
q-284 0 -484 -200q-32 -29 -32 -89v-356q0 -26 28 -26h975q29 0 29 26v356q0 59 -33 89q-204 200 -483 200z" />
    <glyph glyph-name="uni2153" unicode="&#x2153;" horiz-adv-x="2287" 
d="M557 657h-72v609h-278v59h174q110 0 111 82l2 125h63v-875zM610 -31h-84l918 1520h82zM1745 -20q-161 0 -253 74q-93 75 -93 200h74q1 -98 72 -155q69 -56 200 -56q123 0 192 51q70 52 70 146q0 86 -67 136t-183 50h-69v66h69q99 0 153 45t54 120q0 79 -63 126
q-62 46 -170 46q-111 0 -173 -49q-64 -50 -65 -141h-74q0 116 83 185t229 69q137 0 222 -63t85 -166q0 -74 -41 -127q-42 -54 -115 -72v-2q89 -18 144 -79t55 -146q0 -118 -91 -188t-245 -70z" />
    <glyph glyph-name="uni2154" unicode="&#x2154;" horiz-adv-x="2527" 
d="M852 657h-645q0 240 266 365l133 63q91 44 131 93q41 50 41 116q0 86 -64 138q-65 53 -179 53q-238 0 -244 -232h-74q1 145 86 222q82 75 232 75q146 0 230 -71q85 -72 85 -185q0 -88 -48 -149q-49 -63 -161 -115l-115 -55q-218 -105 -235 -252h561v-66zM850 -31h-84
l917 1520h82zM1985 -20q-159 0 -252 74q-95 75 -95 200h74q1 -97 73 -155q69 -56 200 -56q123 0 192 51q70 52 70 146q0 86 -67 136t-183 50h-70v66h70q98 0 152 45q55 46 55 120q0 79 -64 126q-62 46 -170 46q-111 0 -173 -49t-64 -141h-72q0 116 82 185q83 69 227 69
q136 0 222 -63q85 -63 85 -166q0 -74 -41 -127q-42 -54 -114 -72v-2q89 -18 144 -79q54 -60 54 -146q0 -118 -91 -188t-244 -70z" />
    <glyph glyph-name="uni2155" unicode="&#x2155;" horiz-adv-x="2320" 
d="M557 657h-72v609h-278v59h174q110 0 111 82l2 125h63v-875zM610 -31h-84l918 1520h82zM1767 -25q-132 0 -220 56q-87 55 -115 155l73 17q21 -77 91 -120q71 -44 171 -44q129 0 200 62q73 64 73 167q0 104 -71 167t-193 63q-158 0 -238 -105l-82 17l90 464h508v-63h-457
l-63 -344l4 -4q86 96 250 96q150 0 236 -79q87 -80 87 -208q0 -132 -93 -215q-92 -82 -251 -82z" />
    <glyph glyph-name="uni2156" unicode="&#x2156;" horiz-adv-x="2537" 
d="M852 657h-645q0 240 266 365l133 63q91 44 131 93q41 50 41 116q0 86 -64 138q-65 53 -179 53q-238 0 -244 -232h-74q1 145 86 222q82 75 232 75q146 0 230 -71q85 -72 85 -185q0 -88 -48 -149q-49 -63 -161 -115l-115 -55q-218 -105 -235 -252h561v-66zM829 -31h-84
l918 1520h82zM1985 -25q-131 0 -219 57q-89 57 -115 154l73 17q21 -76 91 -120t172 -44q127 0 198 62q72 63 72 167t-71 167q-70 63 -191 63q-160 0 -238 -105l-82 17l88 464h508v-63h-454l-64 -344l4 -4q85 96 250 96q151 0 237 -79q87 -80 87 -208q0 -132 -95 -215
q-94 -82 -251 -82z" />
    <glyph glyph-name="uni2157" unicode="&#x2157;" horiz-adv-x="2514" 
d="M551 639q-157 0 -251 74q-93 73 -93 198h72q1 -97 72 -154q70 -57 200 -57q123 0 193 52q69 51 69 145q0 87 -65 136q-67 50 -183 50h-71v66h71q97 0 152 46t55 120q0 80 -64 126t-171 46q-111 0 -172 -49q-62 -50 -64 -142h-74q0 117 83 186q81 68 227 68q138 0 222 -62
q85 -63 85 -167q0 -74 -41 -127q-42 -54 -113 -72v-2q88 -18 143 -79q54 -60 54 -146q0 -117 -91 -186q-93 -70 -245 -70zM805 -31h-84l917 1520h82zM1962 -25q-130 0 -219 57t-115 154l72 17q21 -77 91 -120q71 -44 171 -44q129 0 200 62q72 63 72 167t-70 167
q-71 63 -194 63q-158 0 -237 -105l-82 17l90 464h508v-63h-455l-63 -344l2 -4q85 96 249 96q153 0 239 -79q87 -80 87 -208q0 -133 -94 -215t-252 -82z" />
    <glyph glyph-name="uni2158" unicode="&#x2158;" horiz-adv-x="2592" 
d="M776 657h-71v232l-498 -2v63l493 582h76v-586l154 2v-61l-154 2v-232zM883 -31h-84l917 1520h82zM700 1442l-424 -494l429 -2v496h-5zM2040 -25q-130 0 -219 57t-115 154l72 17q21 -77 91 -120q71 -44 171 -44q128 0 199 62q73 64 73 167q0 104 -70 167t-194 63
q-158 0 -238 -105l-81 17l90 464h508v-63h-455l-64 -344l2 -4q85 96 250 96q153 0 239 -79q87 -80 87 -208q0 -133 -94 -215t-252 -82z" />
    <glyph glyph-name="uni2159" unicode="&#x2159;" horiz-adv-x="2254" 
d="M557 657h-72v609h-278v59h174q110 0 111 82l2 125h63v-875zM610 -31h-84l918 1520h82zM1722 -18q-356 0 -356 428q0 235 91 359t267 124q237 0 299 -203l-71 -18q-46 157 -228 157q-282 0 -288 -411q43 66 120 104q78 39 177 39q144 0 230 -77q85 -76 85 -205
q0 -136 -89 -217q-87 -80 -237 -80zM1722 43q116 0 186 65q68 64 68 168q0 105 -67 165q-69 61 -185 61q-107 0 -180 -49t-100 -129q7 -136 82 -209q74 -72 196 -72z" />
    <glyph glyph-name="uni215A" unicode="&#x215a;" horiz-adv-x="2437" 
d="M541 633q-132 0 -219 56q-88 57 -115 155l72 16q21 -77 91 -120q71 -44 171 -44q127 0 199 63q73 64 73 167q0 104 -71 167q-69 62 -193 62q-159 0 -238 -104l-82 16l90 465h508v-64h-454l-64 -344l2 -4q86 97 250 97q150 0 238 -79t88 -208q0 -133 -94 -215t-252 -82z
M791 -31h-84l917 1520h84zM1905 -18q-357 0 -357 428q0 234 90 359q90 124 267 124q237 0 299 -203l-70 -18q-46 157 -227 157q-283 0 -289 -411q88 143 295 143q145 0 231 -77t86 -205q0 -133 -89 -216q-87 -81 -236 -81zM1905 43q114 0 184 65t70 168q0 105 -68 165
q-69 61 -184 61q-108 0 -181 -49t-100 -129q7 -136 82 -209q74 -72 197 -72z" />
    <glyph glyph-name="oneeighth" unicode="&#x215b;" horiz-adv-x="2314" 
d="M557 657h-72v609h-278v59h174q110 0 111 82l2 125h63v-875zM610 -31h-84l918 1520h82zM2009 57q-99 -71 -260 -71t-260 71q-98 68 -98 191q0 85 55 144q56 60 153 81v4q-79 21 -125 73q-47 53 -47 122q0 102 87 162q86 59 235 59q151 0 237 -59q87 -60 87 -162
q0 -68 -48 -122q-46 -52 -127 -73v-4q100 -21 154 -80q55 -59 55 -145q0 -123 -98 -191zM1749 502q119 0 184 43q66 43 66 121q0 80 -67 124t-183 44t-183 -44t-67 -124q0 -77 67 -121q65 -43 183 -43zM1749 45q134 0 209 56q76 57 76 151q0 92 -75 141q-74 49 -210 49
q-135 0 -209 -50t-74 -140q0 -94 77 -151q75 -56 206 -56z" />
    <glyph glyph-name="threeeighths" unicode="&#x215c;" horiz-adv-x="2510" 
d="M551 639q-157 0 -251 74q-93 73 -93 198h72q1 -97 72 -154q70 -57 200 -57q123 0 193 52q69 51 69 145q0 87 -65 136q-67 50 -183 50h-71v66h71q97 0 152 46t55 120q0 80 -64 126t-171 46q-111 0 -172 -49q-62 -50 -64 -142h-74q0 117 83 186q81 68 227 68q138 0 222 -62
q85 -63 85 -167q0 -74 -41 -127q-42 -54 -113 -72v-2q88 -18 143 -79q54 -60 54 -146q0 -117 -91 -186q-93 -70 -245 -70zM805 -31h-84l917 1520h82zM1944 -14q-164 0 -260 71q-97 72 -97 191q0 86 55 145q54 59 154 80v4q-81 21 -128 72q-46 50 -46 123q0 102 87 162
q86 59 235 59q150 0 236 -59q87 -60 87 -162q0 -70 -45 -122q-44 -52 -129 -73v-4q102 -21 155 -80q54 -60 54 -145q0 -119 -97 -191q-96 -71 -261 -71zM1944 502q119 0 184 43t65 121q0 80 -66 124q-67 44 -183 44t-183 -44q-65 -43 -65 -124q0 -78 65 -121t183 -43z
M1944 45q133 0 208 56q76 57 76 151q0 92 -75 141q-74 49 -209 49t-209 -50t-74 -140q0 -94 77 -151q75 -56 206 -56z" />
    <glyph glyph-name="fiveeighths" unicode="&#x215d;" horiz-adv-x="2496" 
d="M541 633q-132 0 -219 56q-88 57 -115 155l72 16q21 -77 91 -120q71 -44 171 -44q127 0 199 63q73 64 73 167q0 104 -71 167q-69 62 -193 62q-159 0 -238 -104l-82 16l90 465h508v-64h-454l-64 -344l2 -4q86 97 250 97q150 0 238 -79t88 -208q0 -133 -94 -215t-252 -82z
M791 -31h-84l917 1520h84zM2191 57q-99 -71 -260 -71t-260 71q-98 68 -98 191q0 86 55 145q54 59 154 80v4q-82 21 -127 72t-45 123q0 102 87 162q86 59 234 59q149 0 235 -59q87 -60 87 -162q0 -70 -46 -122t-126 -73v-4q98 -21 153 -80q56 -61 56 -145q0 -122 -99 -191z
M1747 545q62 -43 184 -43q123 0 185 43q65 43 65 121q0 80 -66 124q-67 44 -184 44q-116 0 -183 -44t-67 -124q0 -78 66 -121zM1722 102q76 -57 209 -57t209 57q76 55 76 150q0 92 -75 141q-74 49 -210 49q-137 0 -211 -50q-73 -49 -73 -140q0 -96 75 -150z" />
    <glyph glyph-name="seveneighths" unicode="&#x215e;" horiz-adv-x="2252" 
d="M436 657h-74q29 490 408 811h-563v64h659v-59q-400 -322 -430 -816zM549 -31h-84l917 1520h82zM1688 -14q-164 0 -260 71q-97 72 -97 191q0 86 55 145q54 59 154 80v4q-81 21 -128 72q-46 50 -46 123q0 102 87 162q86 59 235 59q150 0 236 -59q87 -60 87 -162
q0 -70 -45 -122q-44 -52 -129 -73v-4q102 -21 155 -80q54 -60 54 -145q0 -119 -97 -191q-96 -71 -261 -71zM1688 502q119 0 184 43t65 121q0 80 -66 124q-67 44 -183 44q-117 0 -184 -44q-66 -44 -66 -124q0 -78 66 -121q65 -43 184 -43zM1688 45q133 0 208 56q76 57 76 151
q0 92 -75 141q-74 49 -209 49t-209 -50t-74 -140q0 -94 77 -151q75 -56 206 -56z" />
    <glyph glyph-name="arrowleft" unicode="&#x2190;" horiz-adv-x="1796" 
d="M279 770h1361v-82h-1361l268 -348l258 -340h-98l-551 729l551 729h98l-258 -340z" />
    <glyph glyph-name="arrowup" unicode="&#x2191;" horiz-adv-x="1742" 
d="M143 934l729 551l730 -551v-96l-340 256l-349 268v-1362h-82v1366l-350 -272l-338 -256v96z" />
    <glyph glyph-name="arrowright" unicode="&#x2192;" horiz-adv-x="1796" 
d="M991 1458h96l553 -729l-553 -729h-96l525 688h-1360v82h1360z" />
    <glyph glyph-name="arrowdown" unicode="&#x2193;" horiz-adv-x="1742" 
d="M913 98l349 267l340 256v-97l-730 -551l-729 551v97l688 -525v1362h82v-1360z" />
    <glyph glyph-name="arrowboth" unicode="&#x2194;" horiz-adv-x="2424" 
d="M1620 1458h96l553 -729l-553 -729h-96l256 340l268 348h-1865l268 -348l258 -340h-98l-551 729l551 729h98l-258 -340l-268 -348h1865l-268 348z" />
    <glyph glyph-name="arrowupdn" unicode="&#x2195;" horiz-adv-x="1742" 
d="M1602 1270l-340 256l-349 266v-1931l689 524v-98l-730 -551l-729 551v98l688 -526v1935l-688 -524v96l729 551l730 -551v-96z" />
    <glyph glyph-name="uni2196" unicode="&#x2196;" horiz-adv-x="1568" 
d="M270 1290l1231 -1233l-57 -57l-1231 1235l4 -240v-966h-82v1339h1340v-82h-959z" />
    <glyph glyph-name="uni2197" unicode="&#x2197;" horiz-adv-x="1568" 
d="M96 1286v82h1338v-1339h-82v966l4 238l-1231 -1233l-57 57l1232 1233l-247 -4h-957z" />
    <glyph glyph-name="uni2198" unicode="&#x2198;" horiz-adv-x="1568" 
d="M1352 373v966h82v-1339h-1338v82h957l247 -4l-1232 1233l57 57l1231 -1233z" />
    <glyph glyph-name="uni2199" unicode="&#x2199;" horiz-adv-x="1568" 
d="M1501 1311l-1231 -1233l246 4h959v-82h-1340v1339h82v-966l-4 -240l1231 1235z" />
    <glyph glyph-name="partialdiff" unicode="&#x2202;" horiz-adv-x="1210" 
d="M563 1473q492 0 492 -736q0 -371 -121 -562t-352 -191q-196 0 -310 127q-116 126 -116 329q0 208 115 329q116 122 309 122q256 0 393 -215v49q0 674 -414 674q-148 0 -289 -66l-28 68q159 72 321 72zM584 55q339 0 383 512q-121 252 -381 252q-160 0 -254 -102
q-94 -101 -94 -275t94 -280q95 -107 252 -107z" />
    <glyph glyph-name="uni2206" unicode="&#x2206;" horiz-adv-x="1466" 
d="M692 1464h86l615 -1464h-1317zM713 1313l-518 -1239h1075l-510 1239l-23 69z" />
    <glyph glyph-name="product" unicode="&#x220f;" horiz-adv-x="1513" 
d="M207 1458h1100v-1876h-84v1798h-934v-1798h-82v1876z" />
    <glyph glyph-name="summation" unicode="&#x2211;" horiz-adv-x="1388" 
d="M918 530l-658 -868h973v-80h-1077v72l665 876l-641 856v72h1030v-80h-925z" />
    <glyph glyph-name="minus" unicode="&#x2212;" 
d="M1196 598h-1083v74h1083v-74z" />
    <glyph glyph-name="uni2215" unicode="&#x2215;" horiz-adv-x="628" 
d="M-102 -31h-84l917 1520h84z" />
    <glyph glyph-name="uni2219" unicode="&#x2219;" horiz-adv-x="632" 
d="M449 475h-265v225h265v-225z" />
    <glyph glyph-name="radical" unicode="&#x221a;" 
d="M784 -418h-112l-277 735l-243 -96l-25 68l315 123l279 -754l438 1872h80z" />
    <glyph glyph-name="infinity" unicode="&#x221e;" horiz-adv-x="1648" 
d="M424 385q-142 0 -224 90q-83 91 -83 234q0 142 84 234q84 91 221 91q111 0 205 -64q91 -62 198 -212q106 149 199 213q92 63 201 63q141 0 226 -90q85 -89 85 -233q0 -146 -85 -237t-226 -91q-111 0 -204 63q-94 64 -196 209q-107 -149 -197 -209q-92 -61 -204 -61z
M424 455q99 0 181 58q84 59 175 194q-101 138 -183 197q-84 61 -175 61q-106 0 -171 -73t-65 -183t65 -183q64 -71 173 -71zM1227 453q109 0 173 71t64 185q0 113 -65 184q-66 72 -174 72q-90 0 -174 -61q-81 -59 -181 -197q91 -134 174 -194q84 -60 183 -60z" />
    <glyph glyph-name="integral" unicode="&#x222b;" 
d="M422 -418h-45v72h43q100 0 147 48q47 49 47 161v1378q0 150 67 220q66 69 208 69h45v-72h-43q-101 0 -148 -48q-47 -49 -47 -161v-1378q0 -151 -66 -220t-208 -69z" />
    <glyph glyph-name="approxequal" unicode="&#x2248;" 
d="M223 713h-71q0 175 71 267q72 93 193 93q64 0 119 -30t95 -71q27 -28 79 -84q39 -42 87 -72t99 -30q88 0 140 76t52 211h72q0 -174 -72 -267t-192 -93q-65 0 -119 29q-53 29 -95 72q-40 41 -79 85q-37 42 -86 73q-45 29 -100 29q-90 0 -141 -75q-52 -76 -52 -213z
M223 227h-71q0 176 71 268q72 93 193 93q64 0 119 -30q54 -29 95 -73q27 -29 79 -85q37 -40 87 -71q48 -30 99 -30q88 0 140 76t52 213h72q0 -174 -72 -267q-73 -94 -192 -94q-63 0 -119 30q-53 29 -95 72q-27 28 -79 84q-36 39 -86 71q-46 30 -100 30q-89 0 -141 -76
t-52 -211z" />
    <glyph glyph-name="notequal" unicode="&#x2260;" 
d="M1196 895v-74h-422l-168 -375h590v-73h-623l-186 -418l-57 20l176 398h-393v73h428l166 375h-594v74h626l197 440l57 -20l-186 -420h389z" />
    <glyph glyph-name="lessequal" unicode="&#x2264;" 
d="M115 788l1083 379v-82l-1008 -342l1008 -340v-81l-1083 376v90zM1198 45h-1083v74h1083v-74z" />
    <glyph glyph-name="greaterequal" unicode="&#x2265;" 
d="M115 1085v82l1083 -379v-90l-1083 -376v81l1007 340zM1198 45h-1083v74h1083v-74z" />
    <glyph glyph-name="uni2460" unicode="&#x2460;" horiz-adv-x="2375" 
d="M1927 63q-289 -286 -739 -286t-739 286q-293 287 -293 719q0 434 293 721q291 285 739 285t739 -285q293 -287 293 -721q0 -432 -293 -719zM1188 -150q411 0 682 265q268 264 268 667q0 404 -268 668q-270 264 -682 264q-413 0 -682 -264q-270 -264 -270 -668
q0 -403 270 -667q270 -265 682 -265zM1274 342h-72v608h-278v60h174q109 0 110 82l2 125h64v-875z" />
    <glyph glyph-name="uni2461" unicode="&#x2461;" horiz-adv-x="2375" 
d="M1927 63q-289 -286 -739 -286t-739 286q-293 287 -293 719q0 434 293 721q291 285 739 285t739 -285q293 -287 293 -721q0 -432 -293 -719zM1188 -150q411 0 682 265q268 264 268 667q0 404 -268 668q-270 264 -682 264q-413 0 -682 -264q-270 -264 -270 -668
q0 -403 270 -667q270 -265 682 -265zM1520 373h-646q0 239 267 364l133 64q170 80 170 209q0 84 -64 137t-178 53q-238 0 -244 -231h-73q1 144 85 221q82 76 232 76q146 0 231 -72t85 -184q0 -87 -49 -150q-50 -63 -160 -115l-115 -55q-220 -105 -236 -252h562v-65z" />
    <glyph glyph-name="uni2462" unicode="&#x2462;" horiz-adv-x="2375" 
d="M1927 63q-289 -286 -739 -286t-739 286q-293 287 -293 719q0 434 293 721q291 285 739 285t739 -285q293 -287 293 -721q0 -432 -293 -719zM1188 -150q411 0 682 265q268 264 268 667q0 404 -268 668q-270 264 -682 264q-413 0 -682 -264q-270 -264 -270 -668
q0 -403 270 -667q270 -265 682 -265zM1208 336q-158 0 -251 75t-93 199h72q1 -96 73 -154q71 -57 199 -57q123 0 193 52q69 51 69 145q0 87 -65 136q-67 50 -182 50h-72v66h72q98 0 152 45t54 121q0 80 -64 126t-171 46q-111 0 -173 -49q-63 -50 -65 -142h-71q0 117 82 186
q81 68 227 68q138 0 222 -62q85 -63 85 -167q0 -74 -41 -127q-42 -55 -112 -72v-2q87 -18 142 -79q54 -60 54 -146q0 -117 -91 -187q-92 -71 -245 -71z" />
    <glyph glyph-name="uni2463" unicode="&#x2463;" horiz-adv-x="2375" 
d="M1927 63q-289 -286 -739 -286t-739 286q-293 287 -293 719q0 434 293 721q291 285 739 285t739 -285q293 -287 293 -721q0 -432 -293 -719zM1188 -150q411 0 682 265q268 264 268 667q0 404 -268 668q-270 264 -682 264q-413 0 -682 -264q-270 -264 -270 -668
q0 -403 270 -667q270 -265 682 -265zM1370 360h-72v232l-497 -2v63l493 582h76v-586l154 2v-61l-154 2v-232zM872 651l426 -2v496h-4z" />
    <glyph glyph-name="uni2464" unicode="&#x2464;" horiz-adv-x="2375" 
d="M1927 63q-289 -286 -739 -286t-739 286q-293 287 -293 719q0 434 293 721q291 285 739 285t739 -285q293 -287 293 -721q0 -432 -293 -719zM1188 -150q411 0 682 265q268 264 268 667q0 404 -268 668q-270 264 -682 264q-413 0 -682 -264q-270 -264 -270 -668
q0 -403 270 -667q270 -265 682 -265zM1194 340q-131 0 -218 56q-89 58 -116 155l72 16q22 -77 93 -120q71 -44 169 -44q128 0 200 63t72 167t-70 167q-69 62 -194 62q-158 0 -237 -104l-80 16l88 465h508v-63h-455l-63 -345l2 -4q86 97 249 97q153 0 239 -79q87 -79 87 -208
q0 -133 -94 -215t-252 -82z" />
    <glyph glyph-name="uni2465" unicode="&#x2465;" horiz-adv-x="2375" 
d="M1927 63q-289 -286 -739 -286t-739 286q-293 287 -293 719q0 434 293 721q291 285 739 285t739 -285q293 -287 293 -721q0 -432 -293 -719zM1188 -150q411 0 682 265q268 264 268 667q0 404 -268 668q-270 264 -682 264q-413 0 -682 -264q-270 -264 -270 -668
q0 -403 270 -667q270 -265 682 -265zM1214 346q-356 0 -356 428q0 236 90 360q89 123 266 123q242 0 299 -204l-69 -17q-47 158 -227 158q-283 0 -289 -412q88 144 297 144q143 0 229 -78t86 -205q0 -132 -89 -215q-88 -82 -237 -82zM1214 408q116 0 185 63t69 168t-67 165
q-68 60 -184 60q-107 0 -181 -48q-73 -47 -100 -128q7 -136 82 -209q72 -71 196 -71z" />
    <glyph glyph-name="uni2466" unicode="&#x2466;" horiz-adv-x="2375" 
d="M1927 63q-289 -286 -739 -286t-739 286q-293 287 -293 719q0 434 293 721q291 285 739 285t739 -285q293 -287 293 -721q0 -432 -293 -719zM1188 -150q411 0 682 265q268 264 268 667q0 404 -268 668q-270 264 -682 264q-413 0 -682 -264q-270 -264 -270 -668
q0 -403 270 -667q270 -265 682 -265zM1126 319h-73q33 493 409 811h-565v64h659v-59q-400 -322 -430 -816z" />
    <glyph glyph-name="uni2467" unicode="&#x2467;" horiz-adv-x="2375" 
d="M1927 63q-289 -286 -739 -286t-739 286q-293 287 -293 719q0 434 293 721q291 285 739 285t739 -285q293 -287 293 -721q0 -432 -293 -719zM1188 -150q411 0 682 265q268 264 268 667q0 404 -268 668q-270 264 -682 264q-413 0 -682 -264q-270 -264 -270 -668
q0 -403 270 -667q270 -265 682 -265zM1448 414q-100 -72 -260 -72t-260 72q-99 69 -99 190q0 85 56 146q54 58 153 79v5q-82 21 -128 71t-46 123q0 102 87 162q86 59 237 59q148 0 234 -59q87 -60 87 -162q0 -72 -45 -123q-44 -50 -127 -71v-5q101 -21 154 -79
q55 -59 55 -146q0 -122 -98 -190zM1188 856q116 0 183 44t67 122q0 80 -67 124t-183 44t-183 -44t-67 -124q0 -78 66 -122q67 -44 184 -44zM1188 401q130 0 206 57t76 148q0 94 -73 143q-74 50 -209 50q-137 0 -211 -50t-74 -143q0 -91 76 -148q77 -57 209 -57z" />
    <glyph glyph-name="uni2468" unicode="&#x2468;" horiz-adv-x="2375" 
d="M1927 63q-289 -286 -739 -286t-739 286q-293 287 -293 719q0 434 293 721q291 285 739 285t739 -285q293 -287 293 -721q0 -432 -293 -719zM1188 -150q411 0 682 265q268 264 268 667q0 404 -268 668q-270 264 -682 264q-413 0 -682 -264q-270 -264 -270 -668
q0 -403 270 -667q270 -265 682 -265zM1184 332q-242 0 -299 203l71 18q47 -160 228 -160q283 0 289 412q-94 -143 -297 -143q-146 0 -231 76t-85 206q0 132 89 215q88 82 237 82q356 0 356 -428q0 -236 -91 -358q-91 -123 -267 -123zM1184 723q106 0 180 48q73 47 100 128
q-7 136 -82 209q-74 72 -196 72q-115 0 -185 -64q-69 -63 -69 -168t67 -165t185 -60z" />
    <glyph glyph-name="uni24EA" unicode="&#x24ea;" horiz-adv-x="2375" 
d="M1927 63q-289 -286 -739 -286t-739 286q-293 287 -293 719q0 434 293 721q291 285 739 285t739 -285q293 -287 293 -721q0 -432 -293 -719zM1188 -150q411 0 682 265q268 264 268 667q0 404 -268 668q-270 264 -682 264q-413 0 -682 -264q-270 -264 -270 -668
q0 -403 270 -667q270 -265 682 -265zM1548 793q0 -457 -360 -457q-361 0 -361 457q0 456 361 456q360 0 360 -456zM1188 403q285 0 285 390q0 389 -285 389t-285 -389q0 -198 70 -294t215 -96z" />
    <glyph glyph-name="uni24FF" unicode="&#x24ff;" horiz-adv-x="2375" 
d="M1927 63q-289 -286 -739 -286t-739 286q-293 287 -293 719q0 434 293 721q291 285 739 285t739 -285q293 -287 293 -721q0 -432 -293 -719zM827 793q0 -457 361 -457q360 0 360 457q0 456 -360 456q-361 0 -361 -456zM1188 403q-145 0 -215 96t-70 294q0 389 285 389
t285 -389q0 -390 -285 -390z" />
    <glyph glyph-name="filledbox" unicode="&#x25a0;" horiz-adv-x="2273" 
d="M2066 -180h-1859v1818h1859v-1818z" />
    <glyph glyph-name="uni25A1" unicode="&#x25a1;" horiz-adv-x="2273" 
d="M2066 -180h-1859v1818h1859v-1818zM287 1565v-1671h1698v1671h-1698z" />
    <glyph glyph-name="lozenge" unicode="&#x25ca;" horiz-adv-x="1118" 
d="M512 1458h96l406 -729l-406 -729h-96l-408 729zM186 729l373 -678l371 678l-371 678z" />
    <glyph glyph-name="circle" unicode="&#x25cb;" horiz-adv-x="2375" 
d="M1927 63q-289 -286 -739 -286t-739 286q-293 287 -293 719q0 434 293 721q291 285 739 285t739 -285q293 -287 293 -721q0 -432 -293 -719zM1188 -150q411 0 682 265q268 264 268 667q0 404 -268 668q-270 264 -682 264q-413 0 -682 -264q-270 -264 -270 -668
q0 -403 270 -667q270 -265 682 -265z" />
    <glyph glyph-name="uni25CF" unicode="&#x25cf;" horiz-adv-x="2375" 
d="M1927 63q-289 -286 -739 -286t-739 286q-293 287 -293 719q0 434 293 721q291 285 739 285t739 -285q293 -287 293 -721q0 -432 -293 -719z" />
    <glyph glyph-name="uni2776" unicode="&#x2776;" horiz-adv-x="2375" 
d="M1927 63q-289 -286 -739 -286t-739 286q-293 287 -293 719q0 434 293 721q291 285 739 285t739 -285q293 -287 293 -721q0 -432 -293 -719zM1196 958v-608h72v875h-64l-2 -125q-2 -46 -28 -64q-27 -18 -82 -18h-177v-60h281z" />
    <glyph glyph-name="uni2777" unicode="&#x2777;" horiz-adv-x="2375" 
d="M449 1503q291 285 739 285t739 -285q293 -287 293 -721q0 -432 -293 -719q-289 -286 -739 -286t-739 286q-293 287 -293 719q0 434 293 721zM874 373h646v65h-562q16 147 236 252l115 55q110 52 160 115q49 63 49 150q0 112 -85 184t-231 72q-148 0 -231 -76
q-85 -77 -86 -221h73q6 231 244 231q114 0 178 -53t64 -137q0 -129 -170 -209l-133 -64q-267 -125 -267 -364z" />
    <glyph glyph-name="uni2778" unicode="&#x2778;" horiz-adv-x="2375" 
d="M1927 63q-289 -286 -739 -286t-739 286q-293 287 -293 719q0 434 293 721q291 285 739 285t739 -285q293 -287 293 -721q0 -432 -293 -719zM1194 336q154 0 246 71t92 187q0 84 -55 145q-56 62 -144 80v2q71 18 114 73q42 54 42 126q0 104 -85 167q-84 62 -224 62
q-146 0 -227 -68q-83 -69 -83 -186h74q2 92 65 142q62 49 173 49q108 0 170 -46q63 -46 63 -126q0 -76 -54 -121t-153 -45h-71v-66h71q117 0 184 -50q66 -50 66 -136q0 -94 -69 -145q-70 -52 -193 -52q-129 0 -201 57q-71 56 -71 154h-74q0 -124 93 -199t251 -75z" />
    <glyph glyph-name="uni2779" unicode="&#x2779;" horiz-adv-x="2375" 
d="M1927 63q-289 -286 -739 -286t-739 286q-293 287 -293 719q0 434 293 721q291 285 739 285t739 -285q293 -287 293 -721q0 -432 -293 -719zM1282 606v-231h72v231h153v60l-153 -2v585h-76l-494 -581v-62h498zM1282 1159v-495l-428 2l424 493h4z" />
    <glyph glyph-name="uni277A" unicode="&#x277a;" horiz-adv-x="2375" 
d="M449 1503q291 285 739 285t739 -285q293 -287 293 -721q0 -432 -293 -719q-289 -286 -739 -286t-739 286q-293 287 -293 719q0 434 293 721zM1196 338q158 0 252 82t94 215q0 129 -88 208t-237 79q-167 0 -250 -95l-2 2l63 345h455v63h-508l-90 -463l82 -18
q79 104 237 104q124 0 194 -61t70 -166t-72 -168q-73 -64 -200 -64q-98 0 -169 44q-71 43 -93 120l-72 -16q27 -97 116 -155q87 -56 218 -56z" />
    <glyph glyph-name="uni277B" unicode="&#x277b;" horiz-adv-x="2375" 
d="M1927 63q-289 -286 -739 -286t-739 286q-293 287 -293 719q0 434 293 721q291 285 739 285t739 -285q293 -287 293 -721q0 -432 -293 -719zM1212 346q148 0 237 81t89 216q0 130 -85 206q-86 77 -230 77q-203 0 -297 -144q6 412 288 412q181 0 228 -158l71 17
q-57 204 -299 204q-177 0 -267 -123q-91 -124 -91 -360q0 -428 356 -428zM1214 408q-126 0 -197 71q-74 74 -81 209q24 77 98 127q73 49 180 49q118 0 185 -60t67 -165q0 -106 -68 -168q-69 -63 -184 -63z" />
    <glyph glyph-name="uni277C" unicode="&#x277c;" horiz-adv-x="2375" 
d="M1927 63q-289 -286 -739 -286t-739 286q-293 287 -293 719q0 434 293 721q291 285 739 285t739 -285q293 -287 293 -721q0 -432 -293 -719zM1057 326h73q30 492 431 815v59h-660v-63h563q-377 -326 -407 -811z" />
    <glyph glyph-name="uni277D" unicode="&#x277d;" horiz-adv-x="2375" 
d="M1927 63q-289 -286 -739 -286t-739 286q-293 287 -293 719q0 434 293 721q291 285 739 285t739 -285q293 -287 293 -721q0 -432 -293 -719zM928 414q100 -72 260 -72t260 72q98 68 98 190q0 87 -55 146q-53 58 -154 79v5q83 21 127 71q45 51 45 123q0 102 -87 162
q-86 59 -234 59q-151 0 -237 -59q-87 -60 -87 -162q0 -73 46 -123t128 -71v-5q-99 -21 -153 -79q-56 -61 -56 -146q0 -121 99 -190zM1188 856q-117 0 -184 44q-66 44 -66 122q0 80 67 124t183 44t183 -44t67 -124q0 -78 -67 -122t-183 -44zM1188 401q-132 0 -209 57
q-76 57 -76 148q0 93 74 143t211 50q135 0 209 -50q73 -49 73 -143q0 -91 -76 -148t-206 -57z" />
    <glyph glyph-name="uni277E" unicode="&#x277e;" horiz-adv-x="2375" 
d="M1927 63q-289 -286 -739 -286t-739 286q-293 287 -293 719q0 434 293 721q291 285 739 285t739 -285q293 -287 293 -721q0 -432 -293 -719zM1192 336q176 0 266 123t90 358q0 430 -356 430q-148 0 -237 -83t-89 -214q0 -129 86 -207q84 -77 232 -77q96 0 174 39t121 104
q-6 -412 -289 -412q-182 0 -227 160l-70 -18q57 -203 299 -203zM1190 727q-116 0 -184 60t-68 165q0 104 70 168t184 64q125 0 198 -71q72 -71 80 -208q-27 -80 -100 -129t-180 -49z" />
    <glyph glyph-name="uni2E18" unicode="&#x2e18;" horiz-adv-x="1245" 
d="M586 1057h123v-121h-123v121zM1040 29h80q-7 -213 -134 -330q-126 -117 -355 -117q-219 0 -347 101t-128 284q0 113 52 198q53 86 173 157l72 43q86 51 122 110q31 52 41 162l2 74h60l12 -553v-224h-84v224l6 268q-46 -66 -155 -133q-123 -74 -173 -149q-51 -77 -51 -177
q0 -152 106 -235q104 -82 292 -82q196 0 300 98q105 99 109 281z" />
    <glyph glyph-name="uniF8FF" unicode="&#xf8ff;" horiz-adv-x="2070" 
d="M926 920v366q0 88 -39 127q-43 43 -119 43q-91 0 -143 -58q-54 -60 -54 -171v-307h-45v778h45v-330q55 129 203 129q96 0 148 -55q49 -52 49 -154v-368h-45zM1739 1698h43v-778h-43v778zM1358 907q-117 0 -186 81q-68 80 -68 216q0 134 66 214q66 79 184 79
q114 0 182 -75q68 -76 68 -197v-23h-457v-4q0 -118 57 -186t156 -68q147 0 192 137l41 -2q-21 -77 -83 -124q-63 -48 -152 -48zM1356 1458q-93 0 -148 -59t-61 -164h414q-4 103 -59 164q-53 59 -146 59zM1608 281q-119 0 -187 80q-69 81 -69 217q0 134 67 213t185 79
q116 0 181 -74q66 -75 66 -198v-23h-454v-4q0 -120 56 -186q57 -68 157 -68q147 0 192 138l41 -2q-21 -77 -83 -124q-63 -48 -152 -48zM1104 412l176 444h43l-225 -563h-43l-230 563h47l177 -444q15 -31 28 -82q16 59 27 82zM1604 831q-91 0 -146 -59t-61 -164h413
q-5 105 -59 164q-55 59 -147 59zM676 362h-51v76h51v-76zM356 387v-166l148 2v-35l-148 2v-407q0 -86 80 -86h68v-37h-78q-115 0 -115 117v413l-104 -2v35l104 -2v166h45zM1063 199q-101 0 -154 -67t-53 -189t55 -190t152 -68q77 0 127 44q49 43 59 119h43q-12 -94 -72 -147
q-61 -53 -159 -53q-115 0 -181 78q-67 79 -67 215q0 139 66 218t184 79q96 0 157 -53q60 -53 72 -136h-43q-7 66 -56 108q-48 42 -130 42zM1864 -340h-43q-19 53 -23 117q-57 -129 -221 -129q-91 0 -141 42t-50 115q0 140 181 164l139 19q53 6 71 26q19 20 19 60v8
q0 119 -168 119q-85 0 -126 -32q-40 -31 -48 -101h-43q17 170 219 170q101 0 155 -42t54 -118v-271q0 -53 25 -147zM672 -340h-43v563h43v-563zM1585 -317q86 0 142 46q57 47 69 132v125q-20 -20 -76 -31l-149 -21q-141 -24 -141 -127q0 -57 40 -91q39 -33 115 -33z" />
    <glyph glyph-name="uniFEFF" unicode="&#xfeff;" horiz-adv-x="0" 
 />
    <glyph glyph-name="null" horiz-adv-x="0" 
 />
    <glyph glyph-name="Adieresis.ss01" horiz-adv-x="1466" 
d="M590 1694q-21 -21 -53 -21q-33 0 -54 21q-20 20 -20 53t20 53q22 19 54 19q31 0 53 -19q20 -20 20 -53t-20 -53zM983 1694q-21 -21 -53 -21t-53 21t-21 53t21 53q22 19 53 19t53 -19q21 -21 21 -53t-21 -53zM1393 0h-93l-194 473h-746l-196 -473h-88l614 1462h88z
M711 1313l-320 -766h684l-317 766l-23 71z" />
    <glyph glyph-name="Cdotaccent.ss01" horiz-adv-x="1507" 
d="M852 1694q-34 -35 -81 -16q-48 20 -48 69q0 33 20 52q22 20 56 20q49 0 68 -45q20 -45 -15 -80zM801 -29q-299 0 -471 213q-174 212 -174 547q0 339 176 547q174 205 467 205q235 0 399 -131q166 -133 193 -336h-84q-30 176 -168 284q-141 109 -338 109q-257 0 -408 -182
q-153 -185 -153 -496q0 -307 151 -495q152 -189 412 -189q207 0 352 125q145 127 160 330h82q-22 -233 -187 -381q-164 -150 -409 -150z" />
    <glyph glyph-name="Edieresis.ss01" horiz-adv-x="1363" 
d="M571 1694q-21 -21 -53 -21t-53 21t-21 53t21 53q22 19 53 19t53 -19q21 -21 21 -53t-21 -53zM965 1694q-21 -21 -54 -21q-32 0 -53 21q-20 20 -20 53t20 53q22 19 53 19q32 0 54 -19q20 -20 20 -53t-20 -53zM289 723v-649h930v-74h-1012v1458h979v-74h-897v-587h835v-74
h-835z" />
    <glyph glyph-name="Edotaccent.ss01" horiz-adv-x="1363" 
d="M770 1694q-34 -35 -81 -16q-48 20 -48 69q0 33 21 52q22 20 55 20q49 0 68 -45q20 -45 -15 -80zM289 723v-649h930v-74h-1012v1458h979v-74h-897v-587h835v-74h-835z" />
    <glyph glyph-name="uni0122.ss01" horiz-adv-x="1673" 
d="M846 662v73h620v-735h-65l-15 330q-68 -171 -214 -263q-149 -94 -349 -94q-307 0 -487 209q-180 207 -180 551q0 347 178 549q179 203 493 203q254 0 420 -121t205 -334l-80 -6q-33 175 -172 281t-369 106q-279 0 -436 -182q-155 -179 -155 -498q0 -310 155 -495
q157 -189 430 -189q232 0 383 137q149 135 176 379v99h-538zM829 -150q78 0 78 -90v-118q0 -101 -112 -101h-19v43h29q57 0 57 51v97q-11 -4 -33 -4q-67 0 -67 61t67 61z" />
    <glyph glyph-name="Gdotaccent.ss01" horiz-adv-x="1673" 
d="M881 1694q-34 -35 -81 -16q-48 20 -48 69q0 33 20 52q22 20 55 20q49 0 69 -45t-15 -80zM846 662v73h620v-735h-65l-15 330q-68 -171 -214 -263q-149 -94 -349 -94q-307 0 -487 209q-180 207 -180 551q0 347 178 549q179 203 493 203q254 0 420 -121t205 -334l-80 -6
q-33 175 -172 281t-369 106q-279 0 -436 -182q-155 -179 -155 -498q0 -310 155 -495q157 -189 430 -189q232 0 383 137q149 135 176 379v99h-538z" />
    <glyph glyph-name="Idieresis.ss01" horiz-adv-x="495" 
d="M104 1694q-21 -21 -53 -21t-53 21t-21 53t21 53q22 19 53 19t53 -19q21 -21 21 -53t-21 -53zM498 1694q-21 -21 -54 -21q-32 0 -53 21q-20 20 -20 53t20 53q22 19 53 19q32 0 54 -19q20 -20 20 -53t-20 -53zM289 0h-82v1458h82v-1458z" />
    <glyph glyph-name="Idotaccent.ss01" horiz-adv-x="495" 
d="M303 1694q-21 -21 -54 -21t-54 21t-21 53t21 53q22 19 54 19t54 -19q21 -21 21 -53t-21 -53zM289 0h-82v1458h82v-1458z" />
    <glyph glyph-name="uni0136.ss01" horiz-adv-x="1441" 
d="M1339 1458l-639 -598l668 -860h-104l-623 807l-352 -330v-477h-82v1458h82v-878l938 878h112zM723 -150q76 0 76 -90v-118q0 -101 -113 -101h-16v43h28q58 0 58 51v99q-10 -6 -33 -6q-68 0 -68 61t68 61z" />
    <glyph glyph-name="uni013B.ss01" horiz-adv-x="1243" 
d="M289 1458v-1384h850v-74h-932v1458h82zM672 -150q76 0 76 -90v-118q0 -101 -113 -101h-17v43h29q58 0 58 51v99q-7 -6 -33 -6q-68 0 -68 61t68 61z" />
    <glyph glyph-name="Ldot.ss01" horiz-adv-x="1243" 
d="M289 1458v-1384h850v-74h-932v1458h82zM793 705q-23 -21 -56 -21q-32 0 -53 21q-20 20 -20 53t20 53t53 20q35 0 56 -20q22 -21 22 -53t-22 -53z" />
    <glyph glyph-name="uni0145.ss01" horiz-adv-x="1517" 
d="M1231 119v1339h78v-1458h-88l-936 1337v-1337h-78v1458h86zM758 -150q76 0 76 -90v-118q0 -101 -113 -101h-16v43h28q58 0 58 51v99q-7 -6 -33 -6q-68 0 -68 61t68 61z" />
    <glyph glyph-name="Odieresis.ss01" horiz-adv-x="1660" 
d="M684 1694q-21 -21 -53 -21t-53 21t-21 53t21 53q22 19 53 19t53 -19q21 -21 21 -53t-21 -53zM1077 1694q-21 -21 -53 -21t-53 21t-21 53t21 53q22 19 53 19t53 -19q21 -21 21 -53t-21 -53zM829 -29q-305 0 -489 213q-184 212 -184 545t184 545q185 209 489 209
q307 0 492 -209q184 -212 184 -545t-184 -545q-185 -213 -492 -213zM829 47q269 0 433 189q159 186 159 493q0 305 -159 494q-162 186 -433 186q-269 0 -428 -186q-161 -185 -161 -494q0 -306 161 -491q159 -191 428 -191z" />
    <glyph glyph-name="uni0156.ss01" horiz-adv-x="1470" 
d="M1235 414l49 -414h-84l-45 385q-15 135 -78 207q-74 80 -278 80h-510v-672h-82v1458h645q195 0 309 -102q115 -103 115 -279q0 -152 -81 -247q-81 -94 -224 -121q125 -18 188 -91q61 -72 76 -204zM289 1384v-636h520q183 0 283 85t100 238q0 150 -91 232q-90 81 -259 81
h-553zM748 -150q75 0 75 -90v-118q0 -101 -112 -101h-17v43h29q57 0 57 51v99q-10 -6 -32 -6q-68 0 -68 61t68 61z" />
    <glyph glyph-name="uni0218.ss01" horiz-adv-x="1363" 
d="M571 821l287 -59q381 -78 381 -379q0 -194 -140 -301q-142 -109 -401 -109q-530 0 -575 467h80q43 -397 497 -397q218 0 339 89q120 89 120 249q0 125 -80 200q-79 74 -250 109l-270 53q-383 77 -383 359q0 178 133 280q135 103 367 103t373 -109q138 -107 149 -303h-80
q-8 165 -126 253q-119 89 -318 89q-197 0 -307 -82q-111 -83 -111 -225q0 -224 315 -287zM694 -162q76 0 76 -90v-119q0 -100 -113 -100h-16v43h29q57 0 57 51v98q-11 -6 -33 -6q-67 0 -67 62q0 61 67 61z" />
    <glyph glyph-name="uni021A.ss01" horiz-adv-x="1325" 
d="M98 1384v74h1129v-74h-525v-1384h-81v1384h-523zM659 -150q76 0 76 -90v-118q0 -101 -112 -101h-17v43h29q57 0 57 51v99q-8 -6 -33 -6q-67 0 -67 61t67 61z" />
    <glyph glyph-name="Udieresis.ss01" horiz-adv-x="1503" 
d="M608 1694q-21 -21 -53 -21t-53 21t-21 53t21 53q22 19 53 19t53 -19q21 -21 21 -53t-21 -53zM1001 1694q-21 -21 -53 -21t-53 21t-21 53t21 53q22 19 53 19t53 -19q21 -21 21 -53t-21 -53zM752 -27q-261 0 -403 124t-142 380v981h82v-983q0 -428 463 -428q460 0 460 428
v983h82v-981q0 -255 -143 -379q-145 -125 -399 -125z" />
    <glyph glyph-name="Wdieresis.ss01" horiz-adv-x="1927" 
d="M821 1694q-21 -21 -53 -21t-53 21t-21 53t21 53q22 19 53 19t53 -19q21 -21 21 -53t-21 -53zM1214 1694q-21 -21 -53 -21t-53 21t-21 53t21 53q22 19 53 19t53 -19q21 -21 21 -53t-21 -53zM1440 354l329 1104h84l-438 -1466h-76l-378 1364l-377 -1364h-78l-430 1466h84
l323 -1104l64 -245l61 245l310 1104h88l307 -1104l63 -245z" />
    <glyph glyph-name="Ydieresis.ss01" horiz-adv-x="1378" 
d="M547 1694q-21 -21 -53 -21q-33 0 -54 21q-20 20 -20 53t20 53q22 19 54 19q31 0 53 -19q20 -20 20 -53t-20 -53zM940 1694q-21 -21 -53 -21t-53 21t-21 53t21 53q22 19 53 19t53 -19q21 -21 21 -53t-21 -53zM1231 1458h94l-590 -868v-590h-84v590l-598 868h99l510 -747
l32 -54l31 54z" />
    <glyph glyph-name="Zdotaccent.ss01" horiz-adv-x="1390" 
d="M750 1694q-34 -35 -81 -16q-48 20 -48 69q0 33 20 52q22 20 55 20q50 0 69 -45q20 -45 -15 -80zM1217 1389l-977 -1313h1005v-76h-1102v80l969 1302h-915v76h1020v-69z" />
    <glyph glyph-name="G.ss03" horiz-adv-x="1636" 
d="M834 659v78h647v-41q0 -322 -170 -524q-169 -199 -475 -199q-312 0 -496 207q-184 205 -184 551q0 347 182 551q183 203 491 203q244 0 410 -127q165 -127 215 -340h-84q-45 182 -188 287q-143 106 -355 106q-269 0 -428 -178q-159 -180 -159 -502q0 -316 161 -498
q159 -186 435 -186q259 0 406 163t157 449h-565z" />
    <glyph glyph-name="uni01F4.ss03" horiz-adv-x="1636" 
d="M954 1968h111l-254 -309h-78zM834 659v78h647v-41q0 -322 -170 -524q-169 -199 -475 -199q-312 0 -496 207q-184 205 -184 551q0 347 182 551q183 203 491 203q244 0 410 -127q165 -127 215 -340h-84q-45 182 -188 287q-143 106 -355 106q-269 0 -428 -178
q-159 -180 -159 -502q0 -316 161 -498q159 -186 435 -186q259 0 406 163t157 449h-565z" />
    <glyph glyph-name="Gbreve.ss03" horiz-adv-x="1636" 
d="M1096 1919h59q-16 -268 -326 -268q-309 0 -325 268h59q12 -209 266 -209q255 0 267 209zM834 659v78h647v-41q0 -322 -170 -524q-169 -199 -475 -199q-312 0 -496 207q-184 205 -184 551q0 347 182 551q183 203 491 203q244 0 410 -127q165 -127 215 -340h-84
q-45 182 -188 287q-143 106 -355 106q-269 0 -428 -178q-159 -180 -159 -502q0 -316 161 -498q159 -186 435 -186q259 0 406 163t157 449h-565z" />
    <glyph glyph-name="Gcircumflex.ss03" horiz-adv-x="1636" 
d="M1055 1640l-226 275l-225 -275h-90l272 328h86l273 -328h-90zM834 659v78h647v-41q0 -322 -170 -524q-169 -199 -475 -199q-312 0 -496 207q-184 205 -184 551q0 347 182 551q183 203 491 203q244 0 410 -127q165 -127 215 -340h-84q-45 182 -188 287q-143 106 -355 106
q-269 0 -428 -178q-159 -180 -159 -502q0 -316 161 -498q159 -186 435 -186q259 0 406 163t157 449h-565z" />
    <glyph glyph-name="uni0122.ss03" horiz-adv-x="1636" 
d="M834 659v78h647v-41q0 -322 -170 -524q-169 -199 -475 -199q-312 0 -496 207q-184 205 -184 551q0 347 182 551q183 203 491 203q244 0 410 -127q165 -127 215 -340h-84q-45 182 -188 287q-143 106 -355 106q-269 0 -428 -178q-159 -180 -159 -502q0 -316 161 -498
q159 -186 435 -186q259 0 406 163t157 449h-565zM858 -256l-86 -8v104h129v-205q0 -94 -92 -94h-37v43h35q51 0 51 47v113z" />
    <glyph glyph-name="Gdotaccent.ss03" horiz-adv-x="1636" 
d="M776 1823h109v-148h-109v148zM834 659v78h647v-41q0 -322 -170 -524q-169 -199 -475 -199q-312 0 -496 207q-184 205 -184 551q0 347 182 551q183 203 491 203q244 0 410 -127q165 -127 215 -340h-84q-45 182 -188 287q-143 106 -355 106q-269 0 -428 -178
q-159 -180 -159 -502q0 -316 161 -498q159 -186 435 -186q259 0 406 163t157 449h-565z" />
    <glyph glyph-name="uni0122.ss01.ss03" horiz-adv-x="1636" 
d="M834 659v78h647v-41q0 -322 -170 -524q-169 -199 -475 -199q-312 0 -496 207q-184 205 -184 551q0 347 182 551q183 203 491 203q244 0 410 -127q165 -127 215 -340h-84q-45 182 -188 287q-143 106 -355 106q-269 0 -428 -178q-159 -180 -159 -502q0 -316 161 -498
q159 -186 435 -186q259 0 406 163t157 449h-565zM834 -150q77 0 77 -90v-118q0 -101 -112 -101h-19v43h29q57 0 57 51v97q-11 -4 -30 -4q-70 0 -70 61t68 61z" />
    <glyph glyph-name="Gdotaccent.ss01.ss03" horiz-adv-x="1636" 
d="M883 1696q-35 -36 -82 -16t-47 69q0 33 20 52q22 20 55 20q49 0 69 -45t-15 -80zM834 659v78h647v-41q0 -322 -170 -524q-169 -199 -475 -199q-312 0 -496 207q-184 205 -184 551q0 347 182 551q183 203 491 203q244 0 410 -127q165 -127 215 -340h-84q-45 182 -188 287
q-143 106 -355 106q-269 0 -428 -178q-159 -180 -159 -502q0 -316 161 -498q159 -186 435 -186q259 0 406 163t157 449h-565z" />
    <glyph glyph-name="R.ss04" horiz-adv-x="1366" 
d="M1280 0h-92l-443 625h-456v-625h-82v1458h579q210 0 331 -112q122 -113 122 -306q0 -178 -106 -288t-295 -125zM786 1386h-497v-690h497q171 0 271 92q98 91 98 252q0 163 -98 254q-100 92 -271 92z" />
    <glyph glyph-name="Racute.ss04" horiz-adv-x="1366" 
d="M793 1966h110l-254 -309h-78zM1280 0h-92l-443 625h-456v-625h-82v1458h579q210 0 331 -112q122 -113 122 -306q0 -178 -106 -288t-295 -125zM786 1386h-497v-690h497q171 0 271 92q98 91 98 252q0 163 -98 254q-100 92 -271 92z" />
    <glyph glyph-name="Rcaron.ss04" horiz-adv-x="1366" 
d="M983 1972l-272 -325h-86l-273 325h90l226 -272l225 272h90zM1280 0h-92l-443 625h-456v-625h-82v1458h579q210 0 331 -112q122 -113 122 -306q0 -178 -106 -288t-295 -125zM786 1386h-497v-690h497q171 0 271 92q98 91 98 252q0 163 -98 254q-100 92 -271 92z" />
    <glyph glyph-name="uni0156.ss04" horiz-adv-x="1366" 
d="M838 627l442 -627h-92l-443 625h-456v-625h-82v1458h579q210 0 331 -112q122 -113 122 -306q0 -178 -106 -288t-295 -125zM786 1386h-497v-690h497q171 0 271 92q98 91 98 252q0 163 -98 254q-100 92 -271 92zM690 -256l-86 -8v104h129v-205q0 -94 -92 -94h-37v43h35
q51 0 51 47v113z" />
    <glyph glyph-name="uni0156.ss01.ss04" horiz-adv-x="1366" 
d="M838 627l442 -627h-92l-443 625h-456v-625h-82v1458h579q210 0 331 -112q122 -113 122 -306q0 -178 -106 -288t-295 -125zM786 1386h-497v-690h497q171 0 271 92q98 91 98 252q0 163 -98 254q-100 92 -271 92zM664 -150q75 0 75 -90v-118q0 -101 -112 -101h-17v43h29
q57 0 57 51v99q-10 -6 -32 -6q-68 0 -68 61t68 61z" />
    <glyph glyph-name="i.loclTRK" horiz-adv-x="450" 
d="M274 1315h-98v143h98v-143zM266 0h-82v1057h82v-1057z" />
    <glyph glyph-name="adieresis.ss01" horiz-adv-x="1179" 
d="M434 1329q-34 -37 -81 -16q-46 21 -46 67t37 64t74 0t37 -64q0 -30 -21 -51zM827 1329q-34 -37 -81 -16q-46 21 -46 67t37 64t74 0t37 -64q0 -30 -21 -51zM1120 66h31v-66h-47q-111 0 -159 53t-48 174l-2 6q-46 -124 -156 -191t-262 -67q-170 0 -263 81t-93 218
q0 263 334 306l264 36q94 12 132 51q36 37 36 109v15q0 106 -79 164q-80 59 -237 59t-232 -60t-91 -188h-82q28 317 412 317q191 0 290 -78q101 -80 101 -221v-540q0 -100 32 -139t119 -39zM489 41q166 0 270 88q105 89 128 248v235q-39 -40 -142 -57l-278 -41
q-266 -39 -266 -238q0 -108 75 -171q76 -64 213 -64z" />
    <glyph glyph-name="cdotaccent.ss01" horiz-adv-x="1116" 
d="M641 1329q-37 -34 -83 -15t-46 66q0 34 20 54t54 20q35 0 55 -20q21 -21 21 -54q0 -30 -21 -51zM584 -25q-218 0 -342 147q-125 148 -125 404q0 260 125 408q124 147 346 147q184 0 295 -98q113 -100 131 -256h-78q-18 125 -109 206q-89 79 -239 79q-188 0 -289 -126
q-100 -125 -100 -358q0 -228 102 -355q102 -128 287 -128q148 0 237 82q90 83 111 227h78q-22 -174 -135 -276q-114 -103 -295 -103z" />
    <glyph glyph-name="edieresis.ss01" horiz-adv-x="1167" 
d="M444 1329q-34 -37 -80 -16q-47 21 -47 67t37 64t74 0t37 -64q0 -30 -21 -51zM838 1329q-34 -37 -81 -16q-46 21 -46 67t37 64q36 18 73 0t37 -64q0 -31 -20 -51zM1053 573v-45h-854v-6q0 -222 106 -349q107 -128 293 -128q140 0 232 72q92 73 131 190l73 -12
q-41 -141 -155 -230q-116 -90 -283 -90q-222 0 -350 154q-129 150 -129 406q0 248 127 399q125 147 344 147q213 0 340 -139q125 -140 125 -369zM590 1012q-169 0 -275 -112q-103 -109 -114 -308h776q-11 195 -112 307q-102 113 -275 113z" />
    <glyph glyph-name="edotaccent.ss01" horiz-adv-x="1167" 
d="M643 1329q-37 -34 -83 -15t-46 66q0 33 21 54q20 20 53 20q35 0 55 -20q21 -21 21 -54q0 -30 -21 -51zM1053 573v-45h-854v-6q0 -222 106 -349q107 -128 293 -128q140 0 232 72q92 73 131 190l73 -12q-41 -141 -155 -230q-116 -90 -283 -90q-222 0 -350 154
q-129 150 -129 406q0 248 127 399q125 147 344 147q213 0 340 -139q125 -140 125 -369zM590 1012q-169 0 -275 -112q-103 -109 -114 -308h776q-11 195 -112 307q-102 113 -275 113z" />
    <glyph glyph-name="uni0123.ss01" horiz-adv-x="1224" 
d="M573 1307q-75 0 -75 90v98q0 102 110 102h19v-45h-29q-55 0 -55 -51v-76q13 5 28 5q70 0 70 -62q0 -26 -18 -44q-17 -17 -50 -17zM965 791v266h75v-1059q0 -211 -118 -317q-119 -107 -338 -107q-184 0 -294 77q-109 76 -130 195h82q21 -92 107 -148q85 -56 237 -56
q377 0 377 350v270q-45 -126 -151 -207q-106 -80 -243 -80q-207 0 -329 158q-123 157 -123 406q0 243 123 395q122 147 325 147q145 0 251 -80t149 -210zM575 49q169 0 277 133q106 130 106 350q0 222 -105 349t-280 127q-173 0 -274 -125q-100 -124 -100 -344
q0 -224 100 -357t276 -133z" />
    <glyph glyph-name="gdotaccent.ss01" horiz-adv-x="1224" 
d="M627 1329q-37 -34 -83 -15t-46 66q0 34 20 54t53 20q36 0 56 -20t20 -54q0 -31 -20 -51zM965 791v266h75v-1059q0 -211 -118 -317q-119 -107 -338 -107q-184 0 -294 77q-109 76 -130 195h82q21 -92 107 -148q85 -56 237 -56q377 0 377 350v270q-45 -126 -151 -207
q-106 -80 -243 -80q-207 0 -329 158q-123 157 -123 406q0 243 123 395q122 147 325 147q145 0 251 -80t149 -210zM575 49q169 0 277 133q106 130 106 350q0 222 -105 349t-280 127q-173 0 -274 -125q-100 -124 -100 -344q0 -224 100 -357t276 -133z" />
    <glyph glyph-name="i.ss01" horiz-adv-x="450" 
d="M225 1309q-49 0 -68 39q-19 38 0 77t68 39q46 4 68 -37q21 -41 0 -81q-22 -41 -68 -37zM266 0h-82v1057h82v-1057z" />
    <glyph glyph-name="idieresis.ss01" horiz-adv-x="450" 
d="M82 1329q-34 -37 -81 -16q-46 21 -46 67t37 64t74 0q36 -17 36 -64q0 -31 -20 -51zM422 1307q-32 0 -53 21t-21 52q-5 45 35 65q39 20 77 0t34 -65q0 -31 -21 -52t-51 -21zM266 0h-82v1057h82v-1057z" />
    <glyph glyph-name="i.loclTRK.ss01" horiz-adv-x="450" 
d="M225 1309q-49 0 -68 39q-19 38 0 77t68 39q46 4 68 -37q21 -41 0 -81q-22 -41 -68 -37zM266 0h-82v1057h82v-1057z" />
    <glyph glyph-name="ij.ss01" horiz-adv-x="899" 
d="M225 1309q-49 0 -68 39q-19 38 0 77t68 39q46 4 68 -37q21 -41 0 -81q-22 -41 -68 -37zM676 1309q-52 0 -73 49q-21 50 18 84q38 35 85 14q48 -21 48 -70q0 -35 -23 -56t-55 -21zM266 0h-82v1057h82v-1057zM449 -418h-52v72h52q95 0 141 44q45 44 45 144v1215h82v-1204
q0 -271 -268 -271z" />
    <glyph glyph-name="iogonek.ss01" horiz-adv-x="450" 
d="M225 1454q34 0 54 -20t20 -54q4 -44 -35 -64q-39 -19 -79 0q-39 19 -35 64q0 34 20 54t55 20zM125 -41l59 43v1055h82v-1057l-104 -84q-61 -46 -84 -77t-23 -72q0 -115 150 -115h61v-64h-67q-105 0 -163 44q-56 43 -56 124q0 57 30 98q26 35 115 105z" />
    <glyph glyph-name="j.ss01" horiz-adv-x="450" 
d="M225 1309q-51 0 -72 49q-21 50 17 84q38 35 85 14q48 -21 48 -70q0 -35 -22 -56q-23 -21 -56 -21zM-2 -418h-51v72h51q95 0 141 44q45 44 45 144v1215h82v-1204q0 -271 -268 -271z" />
    <glyph glyph-name="uni0137.ss01" horiz-adv-x="1138" 
d="M1036 1057l-452 -408l481 -649h-98l-441 598l-260 -236v-362h-82v1458h82v-1007l662 606h108zM578 -150q75 0 75 -90v-118q0 -101 -112 -101h-17v43h29q57 0 57 51v99q-10 -6 -32 -6q-68 0 -68 61t68 61z" />
    <glyph glyph-name="uni013C.ss01" horiz-adv-x="450" 
d="M184 1458h82v-1458h-82v1458zM221 -150q76 0 76 -90v-118q0 -101 -113 -101h-16v43h29q57 0 57 51v99q-10 -6 -33 -6q-67 0 -67 61t67 61z" />
    <glyph glyph-name="ldot.ss01" horiz-adv-x="626" 
d="M266 0h-82v1458h82v-1458zM547 674q-23 -21 -54 -21q-33 0 -55 21q-20 20 -20 53t20 53q21 21 54 21q32 0 55 -21q22 -21 22 -53t-22 -53z" />
    <glyph glyph-name="napostrophe.ss01" horiz-adv-x="1695" 
d="M270 1462q82 0 82 -90v-201q0 -139 -133 -139h-14v51h16q78 0 78 78v156h-29q-50 -4 -73 34q-22 37 0 76q23 39 73 35zM1145 1081q177 0 271 -100q95 -101 95 -281v-700h-81v686q0 157 -76 240q-76 84 -224 84q-170 0 -269 -111t-99 -324v-575h-82v1057h78v-238
q96 262 387 262z" />
    <glyph glyph-name="uni0146.ss01" horiz-adv-x="1200" 
d="M649 1081q175 0 271 -100t96 -281v-700h-82v686q0 157 -76 240q-76 84 -223 84q-170 0 -269 -111q-100 -112 -100 -324v-575h-82v1057h78v-238q96 262 387 262zM590 -150q76 0 76 -90v-118q0 -101 -113 -101h-16v43h28q58 0 58 51v99q-11 -6 -33 -6q-68 0 -68 61t68 61z
" />
    <glyph glyph-name="odieresis.ss01" horiz-adv-x="1204" 
d="M461 1329q-34 -37 -81 -16q-46 21 -46 67t37 64q36 18 73 0t37 -64q0 -31 -20 -51zM854 1329q-34 -37 -81 -16q-46 21 -46 67t37 64t74 0q36 -17 36 -64q0 -31 -20 -51zM602 -25q-218 0 -352 152q-133 151 -133 401q0 254 135 404q130 149 352 149t352 -149
q134 -152 134 -402t-136 -401q-136 -154 -352 -154zM309 176q107 -131 293 -131q184 0 295 131q111 130 111 354q0 223 -110 353q-110 129 -296 129q-185 0 -294 -130t-109 -354t110 -352z" />
    <glyph glyph-name="uni0157.ss01" horiz-adv-x="761" 
d="M633 1083q41 0 84 -6v-80q-61 7 -94 7q-157 0 -256 -108q-100 -109 -101 -304v-592h-82v1057h78v-242q44 130 138 199t233 69zM221 -150q76 0 76 -90v-118q0 -101 -113 -101h-16v43h29q57 0 57 51v99q-10 -6 -33 -6q-67 0 -67 61t67 61z" />
    <glyph glyph-name="uni0219.ss01" horiz-adv-x="1071" 
d="M477 596l174 -29q305 -53 305 -282q0 -146 -109 -228t-302 -82q-195 0 -306 90q-109 88 -120 257h78q21 -279 350 -279q157 0 243 62q87 63 87 174q0 178 -240 215l-178 30q-160 27 -235 89q-77 63 -77 178q0 134 102 209t275 75q179 0 286 -82q108 -83 120 -229h-82
q-11 118 -95 180q-87 64 -231 64q-137 0 -218 -57t-81 -156q0 -83 61 -129q62 -46 193 -70zM539 -150q77 0 77 -90v-118q0 -101 -112 -101h-19v43h29q57 0 57 51v97q-11 -4 -30 -4q-70 0 -70 61t68 61z" />
    <glyph glyph-name="uni021B.ss01" horiz-adv-x="677" 
d="M616 989l-280 4v-762q0 -83 36 -121t115 -38h127v-72h-145q-215 0 -215 221v772l-199 -4v68l199 -4v311h82v-311l280 4v-68zM299 -135q76 0 76 -90v-119q0 -100 -113 -100h-16v43h28q58 0 58 51v98q-8 -6 -33 -6q-68 0 -68 61q0 62 68 62z" />
    <glyph glyph-name="udieresis.ss01" horiz-adv-x="1200" 
d="M457 1329q-34 -37 -81 -16q-46 21 -46 67t37 64t73 0q37 -18 37 -64q0 -31 -20 -51zM850 1329q-34 -37 -81 -16q-46 21 -46 67t37 64t74 0q36 -17 36 -64q0 -31 -20 -51zM934 481v576h82v-1057h-78v238q-99 -263 -387 -263q-176 0 -271 101q-96 102 -96 280v701h82v-686
q0 -157 76 -240q76 -84 223 -84q171 0 270 111t99 323z" />
    <glyph glyph-name="wdieresis.ss01" horiz-adv-x="1568" 
d="M639 1329q-34 -37 -81 -16q-46 21 -46 67t37 64t74 0q36 -17 36 -64q0 -31 -20 -51zM1032 1329q-34 -37 -81 -16q-46 21 -46 67t37 64t74 0t37 -64q0 -30 -21 -51zM1155 264l250 793h86l-346 -1057h-80l-242 817l-37 166l-41 -166l-243 -817h-82l-342 1057h88l248 -793
l47 -174l45 174l237 793h84l238 -793l43 -170z" />
    <glyph glyph-name="ydieresis.ss01" horiz-adv-x="1112" 
d="M414 1329q-34 -37 -81 -16q-46 21 -46 67t37 64q36 18 73 0t37 -64q0 -31 -20 -51zM807 1329q-34 -37 -81 -16q-46 21 -46 67t37 64t74 0q36 -17 36 -64q0 -31 -20 -51zM563 51l385 1006h86l-508 -1290q-40 -105 -100 -145q-59 -40 -176 -40h-74v72h68q94 0 141 31
q46 31 80 118l65 166l-452 1088h88l381 -932z" />
    <glyph glyph-name="zdotaccent.ss01" horiz-adv-x="1073" 
d="M592 1329q-37 -34 -83 -15t-46 66q0 34 20 54t54 20q35 0 55 -20t20 -54q0 -31 -20 -51zM926 1004l-711 -934h743v-70h-841v59l704 928h-680v70h785v-53z" />
    <glyph glyph-name="a.ss02" horiz-adv-x="1222" 
d="M965 811l4 246h69v-1057h-69l-2 260q-52 -132 -153 -208q-103 -77 -241 -77q-209 0 -333 154q-123 153 -123 403t123 400q122 149 331 149q289 0 394 -270zM578 43q175 0 280 132t105 353q0 223 -106 355q-105 131 -282 131t-279 -129q-101 -128 -101 -350
q0 -229 101 -360q102 -132 282 -132z" />
    <glyph glyph-name="aacute.ss02" horiz-adv-x="1222" 
d="M717 1565h110l-254 -310h-77zM965 811l4 246h69v-1057h-69l-2 260q-52 -132 -153 -208q-103 -77 -241 -77q-209 0 -333 154q-123 153 -123 403t123 400q122 149 331 149q289 0 394 -270zM578 43q175 0 280 132t105 353q0 223 -106 355q-105 131 -282 131t-279 -129
q-101 -128 -101 -350q0 -229 101 -360q102 -132 282 -132z" />
    <glyph glyph-name="abreve.ss02" horiz-adv-x="1222" 
d="M858 1516h60q-17 -269 -326 -269t-326 269h60q12 -209 266 -209t266 209zM965 811l4 246h69v-1057h-69l-2 260q-52 -132 -153 -208q-103 -77 -241 -77q-209 0 -333 154q-123 153 -123 403t123 400q122 149 331 149q289 0 394 -270zM578 43q175 0 280 132t105 353
q0 223 -106 355q-105 131 -282 131t-279 -129q-101 -128 -101 -350q0 -229 101 -360q102 -132 282 -132z" />
    <glyph glyph-name="acircumflex.ss02" horiz-adv-x="1222" 
d="M817 1237l-225 274l-225 -274h-91l273 328h86l272 -328h-90zM965 811l4 246h69v-1057h-69l-2 260q-52 -132 -153 -208q-103 -77 -241 -77q-209 0 -333 154q-123 153 -123 403t123 400q122 149 331 149q289 0 394 -270zM578 43q175 0 280 132t105 353q0 223 -106 355
q-105 131 -282 131t-279 -129q-101 -128 -101 -350q0 -229 101 -360q102 -132 282 -132z" />
    <glyph glyph-name="adieresis.ss02" horiz-adv-x="1222" 
d="M334 1460h108v-147h-108v147zM741 1460h109v-147h-109v147zM965 811l4 246h69v-1057h-69l-2 260q-52 -132 -153 -208q-103 -77 -241 -77q-209 0 -333 154q-123 153 -123 403t123 400q122 149 331 149q289 0 394 -270zM578 43q175 0 280 132t105 353q0 223 -106 355
q-105 131 -282 131t-279 -129q-101 -128 -101 -350q0 -229 101 -360q102 -132 282 -132z" />
    <glyph glyph-name="agrave.ss02" horiz-adv-x="1222" 
d="M457 1565l223 -310h-78l-256 310h111zM965 811l4 246h69v-1057h-69l-2 260q-52 -132 -153 -208q-103 -77 -241 -77q-209 0 -333 154q-123 153 -123 403t123 400q122 149 331 149q289 0 394 -270zM578 43q175 0 280 132t105 353q0 223 -106 355q-105 131 -282 131
t-279 -129q-101 -128 -101 -350q0 -229 101 -360q102 -132 282 -132z" />
    <glyph glyph-name="amacron.ss02" horiz-adv-x="1222" 
d="M289 1393h606v-66h-606v66zM965 811l4 246h69v-1057h-69l-2 260q-52 -132 -153 -208q-103 -77 -241 -77q-209 0 -333 154q-123 153 -123 403t123 400q122 149 331 149q289 0 394 -270zM578 43q175 0 280 132t105 353q0 223 -106 355q-105 131 -282 131t-279 -129
q-101 -128 -101 -350q0 -229 101 -360q102 -132 282 -132z" />
    <glyph glyph-name="aogonek.ss02" horiz-adv-x="1222" 
d="M1038 0l-104 -84q-61 -46 -84 -77t-23 -72q0 -115 152 -115h59v-64h-67q-105 0 -163 44q-56 43 -56 124q0 59 31 99q32 41 116 104l78 55l-10 265q-49 -126 -153 -203q-103 -76 -241 -76q-208 0 -331 152q-125 151 -125 383q0 247 123 399q123 147 331 147
q289 0 394 -270l4 246h69v-1057zM578 68q172 0 280 129q105 129 105 335q0 221 -107 352q-106 130 -281 130q-177 0 -279 -128q-101 -126 -101 -349q0 -211 102 -340t281 -129z" />
    <glyph glyph-name="aring.ss02" horiz-adv-x="1222" 
d="M764 1284q-67 -67 -172 -67t-172 67q-68 68 -68 170t68 172q68 68 172 68t172 -68q67 -68 67 -172q0 -103 -67 -170zM719 1585q-50 45 -127 45q-78 0 -127 -45q-49 -49 -49 -131q0 -77 50 -127q49 -49 126 -49t126 49q50 50 50 127q0 82 -49 131zM965 811l4 246h69v-1057
h-69l-2 260q-52 -132 -153 -208q-103 -77 -241 -77q-209 0 -333 154q-123 153 -123 403t123 400q122 149 331 149q289 0 394 -270zM578 43q175 0 280 132t105 353q0 223 -106 355q-105 131 -282 131t-279 -129q-101 -128 -101 -350q0 -229 101 -360q102 -132 282 -132z" />
    <glyph glyph-name="aringacute.ss02" horiz-adv-x="1222" 
d="M719 2081h108l-254 -309h-77zM764 1264q-68 -68 -172 -68t-172 68q-68 63 -68 168q0 104 68 172q67 67 172 67t171 -67t66 -172q0 -103 -65 -168zM719 1563q-50 47 -127 47t-127 -47q-49 -49 -49 -131q0 -77 50 -127t126 -50t126 50t50 127q0 82 -49 131zM965 811l4 246
h69v-1057h-69l-2 260q-52 -132 -153 -208q-103 -77 -241 -77q-209 0 -333 154q-123 153 -123 403t123 400q122 149 331 149q289 0 394 -270zM578 43q175 0 280 132t105 353q0 223 -106 355q-105 131 -282 131t-279 -129q-101 -128 -101 -350q0 -229 101 -360
q102 -132 282 -132z" />
    <glyph glyph-name="atilde.ss02" horiz-adv-x="1222" 
d="M416 1516q-126 0 -137 -244h-66q7 309 203 309q61 0 111 -35q51 -35 79 -86q69 -123 164 -123q124 0 135 244h66q-7 -309 -203 -309q-62 0 -112 36q-49 35 -76 87q-28 50 -73 86q-44 35 -91 35zM965 811l4 246h69v-1057h-69l-2 260q-52 -132 -153 -208q-103 -77 -241 -77
q-209 0 -333 154q-123 153 -123 403t123 400q122 149 331 149q289 0 394 -270zM578 43q175 0 280 132t105 353q0 223 -106 355q-105 131 -282 131t-279 -129q-101 -128 -101 -350q0 -229 101 -360q102 -132 282 -132z" />
    <glyph glyph-name="adieresis.ss01.ss02" horiz-adv-x="1222" 
d="M449 1329q-34 -37 -81 -16q-46 21 -46 67q0 47 36 64q37 18 74 0t37 -64q0 -31 -20 -51zM842 1329q-34 -37 -81 -16q-46 21 -46 67t37 64t73 0q37 -18 37 -64q0 -31 -20 -51zM965 811l4 246h69v-1057h-69l-2 260q-52 -132 -153 -208q-103 -77 -241 -77q-209 0 -333 154
q-123 153 -123 403t123 400q122 149 331 149q289 0 394 -270zM578 43q175 0 280 132t105 353q0 223 -106 355q-105 131 -282 131t-279 -129q-101 -128 -101 -350q0 -229 101 -360q102 -132 282 -132z" />
    <glyph glyph-name="uni021B.ss01.ss05" horiz-adv-x="671" 
d="M379 1364v-311l237 4v-68l-237 4v-993h-82v993l-242 -4v68l242 -4v311h82zM334 -150q76 0 76 -90v-118q0 -101 -113 -101h-16v43h28q58 0 58 51v99q-11 -6 -33 -6q-68 0 -68 61t68 61z" />
    <glyph glyph-name="udieresis.ss01.ss05" horiz-adv-x="1200" 
d="M457 1329q-34 -37 -81 -16q-46 21 -46 67t37 64t73 0q37 -18 37 -64q0 -31 -20 -51zM850 1329q-34 -37 -81 -16q-46 21 -46 67t37 64t74 0q36 -17 36 -64q0 -31 -20 -51zM934 481v576h82v-1057h-78v238q-99 -263 -387 -263q-176 0 -271 101q-96 102 -96 280v701h82v-686
q0 -157 76 -240q76 -84 223 -84q171 0 270 111t99 323z" />
    <glyph glyph-name="t.ss05" horiz-adv-x="671" 
d="M379 1053l237 4v-68l-237 4v-993h-82v993l-242 -4v68l242 -4v311h82v-311z" />
    <glyph glyph-name="tbar.ss05" horiz-adv-x="671" 
d="M379 557l239 2v-65l-239 4v-498h-82v498l-240 -4v65l240 -2v436l-242 -4v68l242 -4v311h82v-311l237 4v-68l-237 4v-436z" />
    <glyph glyph-name="tcaron.ss05" horiz-adv-x="671" 
d="M653 1649h97l-156 -406h-66zM297 1364h82v-311l237 4v-68l-237 4v-993h-82v993l-242 -4v68l242 -4v311z" />
    <glyph glyph-name="uni0163.ss05" horiz-adv-x="671" 
d="M379 993v-993h-12l-84 -137h61q184 0 184 -152q0 -81 -61 -124q-62 -44 -172 -44h-76v56h70q174 0 174 110q0 94 -129 94h-88l-29 47l92 150h-12v993l-242 -4v68l242 -4v311h82v-311l237 4v-68z" />
    <glyph glyph-name="uni021B.ss05" horiz-adv-x="671" 
d="M379 1364v-311l237 4v-68l-237 4v-993h-82v993l-242 -4v68l242 -4v311h82zM360 -256l-86 -8v104h129v-205q0 -94 -92 -94h-37v43h35q51 0 51 47v113z" />
    <glyph glyph-name="udieresis.ss01.ss06" horiz-adv-x="1200" 
d="M457 1329q-34 -37 -81 -16q-46 21 -46 67t37 64t73 0q37 -18 37 -64q0 -31 -20 -51zM850 1329q-34 -37 -81 -16q-46 21 -46 67t37 64t74 0q36 -17 36 -64q0 -31 -20 -51zM907 86q-113 -102 -307 -102q-197 0 -305 102q-111 102 -111 291v680h82v-676q0 -160 86 -244
t248 -84t248 84t86 244v676h82v-680q0 -188 -109 -291z" />
    <glyph glyph-name="u.ss06" horiz-adv-x="1200" 
d="M907 86q-113 -102 -307 -102q-197 0 -305 102q-111 102 -111 291v680h82v-676q0 -160 86 -244t248 -84t248 84t86 244v676h82v-680q0 -188 -109 -291z" />
    <glyph glyph-name="uacute.ss06" horiz-adv-x="1200" 
d="M582 1255h-78l221 310h111zM907 86q-113 -102 -307 -102q-197 0 -305 102q-111 102 -111 291v680h82v-676q0 -160 86 -244t248 -84t248 84t86 244v676h82v-680q0 -188 -109 -291z" />
    <glyph glyph-name="ubreve.ss06" horiz-adv-x="1200" 
d="M866 1516h60q-17 -269 -326 -269t-326 269h60q12 -209 266 -209t266 209zM907 86q-113 -102 -307 -102q-197 0 -305 102q-111 102 -111 291v680h82v-676q0 -160 86 -244t248 -84t248 84t86 244v676h82v-680q0 -188 -109 -291z" />
    <glyph glyph-name="ucircumflex.ss06" horiz-adv-x="1200" 
d="M375 1237h-90l272 328h86l272 -328h-90l-225 274zM907 86q-113 -102 -307 -102q-197 0 -305 102q-111 102 -111 291v680h82v-676q0 -160 86 -244t248 -84t248 84t86 244v676h82v-680q0 -188 -109 -291z" />
    <glyph glyph-name="udieresis.ss06" horiz-adv-x="1200" 
d="M451 1313h-109v147h109v-147zM858 1313h-108v147h108v-147zM907 86q-113 -102 -307 -102q-197 0 -305 102q-111 102 -111 291v680h82v-676q0 -160 86 -244t248 -84t248 84t86 244v676h82v-680q0 -188 -109 -291z" />
    <glyph glyph-name="ugrave.ss06" horiz-adv-x="1200" 
d="M688 1255h-78l-256 310h111zM907 86q-113 -102 -307 -102q-197 0 -305 102q-111 102 -111 291v680h82v-676q0 -160 86 -244t248 -84t248 84t86 244v676h82v-680q0 -188 -109 -291z" />
    <glyph glyph-name="uhungarumlaut.ss06" horiz-adv-x="1200" 
d="M416 1233h-76l213 336h96zM782 1233h-75l237 336h96zM907 86q-113 -102 -307 -102q-197 0 -305 102q-111 102 -111 291v680h82v-676q0 -160 86 -244t248 -84t248 84t86 244v676h82v-680q0 -188 -109 -291z" />
    <glyph glyph-name="umacron.ss06" horiz-adv-x="1200" 
d="M903 1327h-606v66h606v-66zM907 86q-113 -102 -307 -102q-197 0 -305 102q-111 102 -111 291v680h82v-676q0 -160 86 -244t248 -84t248 84t86 244v676h82v-680q0 -188 -109 -291z" />
    <glyph glyph-name="uogonek.ss06" horiz-adv-x="1200" 
d="M934 381v676h82v-680q0 -302 -262 -375l-138 -74q-116 -62 -116 -149q0 -119 157 -119h74v-63h-88q-108 0 -164 44q-55 43 -55 126q0 118 151 196l41 21h-16q-199 0 -307 102q-109 103 -109 291v680h82v-676q0 -160 86 -244t248 -84t248 84t86 244z" />
    <glyph glyph-name="uring.ss06" horiz-adv-x="1200" 
d="M772 1284q-67 -67 -172 -67t-172 67q-68 68 -68 170t68 172q68 68 172 68t172 -68q68 -70 68 -172t-68 -170zM475 1327q57 -48 125 -49q70 -2 126 49q56 50 50 127q0 82 -48 130t-128 48t-128 -48t-48 -130q0 -78 51 -127zM907 86q-113 -102 -307 -102q-197 0 -305 102
q-111 102 -111 291v680h82v-676q0 -160 86 -244t248 -84t248 84t86 244v676h82v-680q0 -188 -109 -291z" />
    <glyph glyph-name="utilde.ss06" horiz-adv-x="1200" 
d="M287 1272h-66q7 309 203 309q62 0 112 -35q49 -34 78 -86q69 -123 164 -123q124 0 135 244h66q-7 -309 -203 -309q-62 0 -111 36q-50 37 -77 87q-28 50 -73 86q-44 35 -91 35q-126 0 -137 -244zM907 86q-113 -102 -307 -102q-197 0 -305 102q-111 102 -111 291v680h82
v-676q0 -160 86 -244t248 -84t248 84t86 244v676h82v-680q0 -188 -109 -291z" />
    <glyph glyph-name="ydieresis.ss01.ss07" horiz-adv-x="1112" 
d="M414 1329q-34 -37 -81 -16q-46 21 -46 67t37 64q36 18 73 0t37 -64q0 -31 -20 -51zM807 1329q-34 -37 -81 -16q-46 21 -46 67t37 64t74 0q36 -17 36 -64q0 -31 -20 -51zM567 61l381 996h86l-579 -1475h-82l157 389l-452 1086h88l381 -932q2 -3 20 -64z" />
    <glyph glyph-name="y.ss07" horiz-adv-x="1112" 
d="M567 61l381 996h86l-579 -1475h-82l157 389l-452 1086h88l381 -932q2 -3 20 -64z" />
    <glyph glyph-name="yacute.ss07" horiz-adv-x="1112" 
d="M682 1565h111l-254 -310h-78zM567 61l381 996h86l-579 -1475h-82l157 389l-452 1086h88l381 -932q2 -3 20 -64z" />
    <glyph glyph-name="ycircumflex.ss07" horiz-adv-x="1112" 
d="M782 1237l-225 274l-225 -274h-90l272 328h86l272 -328h-90zM567 61l381 996h86l-579 -1475h-82l157 389l-452 1086h88l381 -932q2 -3 20 -64z" />
    <glyph glyph-name="ydieresis.ss07" horiz-adv-x="1112" 
d="M299 1460h109v-147h-109v147zM707 1460h108v-147h-108v147zM567 61l381 996h86l-579 -1475h-82l157 389l-452 1086h88l381 -932q2 -3 20 -64z" />
    <glyph glyph-name="ygrave.ss07" horiz-adv-x="1112" 
d="M422 1565l223 -310h-78l-256 310h111zM567 61l381 996h86l-579 -1475h-82l157 389l-452 1086h88l381 -932q2 -3 20 -64z" />
    <glyph glyph-name="l.ss08" horiz-adv-x="587" 
d="M530 0h-133q-213 0 -213 221v1237h82v-1227q0 -83 36 -121t116 -38h112v-72z" />
    <glyph glyph-name="lacute.ss08" horiz-adv-x="587" 
d="M207 1657h-78l221 309h111zM530 0h-133q-213 0 -213 221v1237h82v-1227q0 -83 36 -121t116 -38h112v-72z" />
    <glyph glyph-name="lcaron.ss08" horiz-adv-x="700" 
d="M530 0h-133q-213 0 -213 221v1237h82v-1227q0 -83 36 -121t116 -38h112v-72zM547 1053h-66l125 405h94z" />
    <glyph glyph-name="uni013C.ss08" horiz-adv-x="587" 
d="M418 72h112v-72h-133q-213 0 -213 221v1237h82v-1227q0 -83 36 -121t116 -38zM248 -256l-86 -8v104h129v-205q0 -94 -92 -94h-37v43h35q51 0 51 47v113z" />
    <glyph glyph-name="ldot.ss08" horiz-adv-x="643" 
d="M530 0h-133q-213 0 -213 221v1237h82v-1227q0 -83 36 -121t116 -38h112v-72zM557 664h-145v129h145v-129z" />
    <glyph glyph-name="lslash.ss08" horiz-adv-x="755" 
d="M569 72h111v-72h-131q-213 0 -213 221v494l-219 -123v84l219 110v672h82v-627l219 119v-82l-219 -110v-527q0 -83 35 -121t116 -38z" />
    <glyph glyph-name="uni013C.ss01.ss08" horiz-adv-x="587" 
d="M418 72h112v-72h-133q-213 0 -213 221v1237h82v-1227q0 -83 36 -121t116 -38zM221 -150q76 0 76 -90v-118q0 -101 -113 -101h-16v43h29q57 0 57 51v99q-10 -6 -33 -6q-67 0 -67 61t67 61z" />
    <glyph glyph-name="ldot.ss01.ss08" horiz-adv-x="659" 
d="M530 0h-133q-213 0 -213 221v1237h82v-1227q0 -83 36 -121t116 -38h112v-72zM547 674q-23 -21 -54 -21q-33 0 -55 21q-20 20 -20 53t20 53q21 21 54 21q32 0 55 -21q22 -21 22 -53t-22 -53z" />
    <glyph glyph-name="fi.ss01" horiz-adv-x="1122" 
d="M844 1444q21 22 55 22q35 0 57 -22q23 -23 23 -58q0 -34 -23 -55q-21 -20 -57 -20q-35 0 -55 20q-21 21 -21 55q0 36 21 58zM248 1053v116q0 152 66 221q65 68 208 68h107v-72h-105q-100 0 -147 -48q-47 -49 -47 -160v-125l299 4v-68l-299 4v-993h-82v993l-193 -4v68z
M940 0h-82v1057h82v-1057z" />
    <glyph glyph-name="fl.ss08" horiz-adv-x="1261" 
d="M248 1053v116q0 152 66 221q65 68 208 68h107v-72h-105q-100 0 -147 -48q-47 -49 -47 -160v-125l299 4v-68l-299 4v-993h-82v993l-193 -4v68zM1092 72h112v-72h-133q-213 0 -213 221v1237h82v-1227q0 -83 36 -121t116 -38z" />
    <glyph glyph-name="ordfeminine.ss02" horiz-adv-x="993" 
d="M743 1298l7 162h59v-698h-59l-7 166q-38 -84 -113 -133q-77 -50 -179 -50q-154 0 -244 102t-90 269q0 166 90 262q91 97 244 97q101 0 182 -48q77 -46 110 -129zM465 803q126 0 203 83q75 81 75 224q0 146 -76 226q-77 81 -208 81q-127 0 -201 -80t-74 -221
q0 -147 74 -230t207 -83z" />
    <glyph glyph-name="t.sups.ss05" horiz-adv-x="600" 
d="M336 1456l209 2v-59h-209v-637h-70v637h-211v59l211 -2v207h70v-207z" />
    <glyph glyph-name="zero.ss09" horiz-adv-x="2273" 
d="M2066 -180h-1859v1818h1859v-1818zM776 764q0 -455 361 -455q360 0 360 455q0 457 -360 457q-361 0 -361 -457zM1137 375q-146 0 -215 95q-70 96 -70 294q0 389 285 389q284 0 284 -389t-284 -389z" />
    <glyph glyph-name="one.ss09" horiz-adv-x="2273" 
d="M2066 -180h-1859v1818h1859v-1818zM1151 924v-609h72v875h-64l-2 -125q-2 -46 -29 -64t-81 -18h-177v-59h281z" />
    <glyph glyph-name="two.ss09" horiz-adv-x="2273" 
d="M207 -180v1818h1859v-1818h-1859zM1458 328v65h-561q15 147 238 252l112 55q112 52 162 116q49 62 49 149q0 112 -86 184t-231 72q-151 0 -233 -76q-84 -77 -85 -221h74q6 231 244 231q114 0 179 -53q64 -52 64 -137q0 -125 -170 -209l-135 -64q-266 -125 -266 -364h645z
" />
    <glyph glyph-name="three.ss09" horiz-adv-x="2273" 
d="M2066 -180h-1859v1818h1859v-1818zM1143 305q152 0 245 70q91 69 91 186q0 85 -55 148q-53 60 -142 77v2q71 18 114 73q42 54 42 128q0 105 -84 166q-85 62 -226 62q-144 0 -226 -69q-83 -69 -83 -185h74q2 93 64 142q64 50 173 50q106 0 170 -47t64 -127q0 -74 -55 -120
t-152 -46h-72v-65h72q115 0 183 -51q67 -50 67 -136q0 -93 -70 -145q-69 -51 -192 -51q-130 0 -201 56q-72 57 -72 155h-73q0 -125 93 -199q94 -74 251 -74z" />
    <glyph glyph-name="four.ss09" horiz-adv-x="2273" 
d="M2066 -180h-1859v1818h1859v-1818zM1260 559v-231h71v231l156 -2v61l-156 -2v586h-74l-495 -581v-64zM1260 616l-426 2l421 494h5v-496z" />
    <glyph glyph-name="five.ss09" horiz-adv-x="2273" 
d="M207 -180v1818h1859v-1818h-1859zM1139 303q158 0 252 82t94 215q0 129 -88 208t-238 79q-165 0 -250 -96l-2 4l64 344h454v63h-507l-91 -465l82 -16q79 104 238 104q124 0 193 -62q71 -63 71 -167q0 -103 -73 -167q-71 -62 -199 -62q-100 0 -171 44q-70 43 -91 119
l-72 -16q24 -96 114 -154q89 -57 220 -57z" />
    <glyph glyph-name="six.ss09" horiz-adv-x="2273" 
d="M2066 -180h-1859v1818h1859v-1818zM1167 317q149 0 237 82q89 83 89 215q0 129 -86 206t-231 77q-207 0 -295 -143q6 411 288 411q182 0 228 -157l69 16q-57 205 -299 205q-176 0 -266 -124q-90 -125 -90 -360q0 -428 356 -428zM1167 379q-123 0 -196 72q-75 73 -82 208
q27 81 100 128q75 49 180 49q116 0 185 -61q67 -60 67 -165t-69 -168t-185 -63z" />
    <glyph glyph-name="seven.ss09" horiz-adv-x="2273" 
d="M2066 -180h-1859v1818h1859v-1818zM995 326h74q30 493 430 815v59h-659v-63h565q-377 -318 -410 -811z" />
    <glyph glyph-name="eight.ss09" horiz-adv-x="2273" 
d="M2066 -180h-1859v1818h1859v-1818zM1137 313q161 0 259 72q97 72 97 190q0 86 -54 146q-53 59 -155 80v4q85 21 129 73q45 52 45 121q0 102 -87 162t-234 60q-150 0 -237 -60t-87 -162q0 -72 46 -122q47 -51 128 -72v-4q-98 -21 -153 -80q-56 -61 -56 -146
q0 -118 98 -190t261 -72zM1137 829q-120 0 -185 43t-65 121q0 81 66 124q67 44 184 44q116 0 183 -44q66 -44 66 -124q0 -77 -66 -121q-65 -43 -183 -43zM1137 373q-134 0 -209 56q-76 57 -76 151q0 90 74 140t211 50q136 0 209 -49t73 -141q0 -94 -77 -151
q-75 -56 -205 -56z" />
    <glyph glyph-name="nine.ss09" horiz-adv-x="2273" 
d="M2066 -180h-1859v1818h1859v-1818zM1130 305q176 0 268 123q91 122 91 358q0 428 -356 428q-150 0 -237 -80q-89 -81 -89 -216q0 -130 85 -206q86 -77 230 -77q203 0 297 143q-6 -411 -289 -411q-181 0 -227 159l-72 -18q57 -203 299 -203zM1130 696q-115 0 -184 61
q-67 60 -67 165q0 106 68 168q69 63 186 63q124 0 197 -71q74 -72 81 -208q-27 -80 -100 -129t-181 -49z" />
    <glyph glyph-name="zero.ss10" horiz-adv-x="2273" 
d="M2066 -180h-1859v1818h1859v-1818zM287 1565v-1671h1698v1671h-1698zM1497 764q0 -455 -360 -455q-361 0 -361 455q0 457 361 457q360 0 360 -457zM1137 375q284 0 284 389t-284 389q-285 0 -285 -389q0 -198 70 -294q69 -95 215 -95z" />
    <glyph glyph-name="one.ss10" horiz-adv-x="2273" 
d="M2066 -180h-1859v1818h1859v-1818zM287 1565v-1671h1698v1671h-1698zM1204 307h-69v608h-281v60h176q105 0 111 82l2 125h61v-875z" />
    <glyph glyph-name="two.ss10" horiz-adv-x="2273" 
d="M2066 -180h-1859v1818h1859v-1818zM287 1565v-1671h1698v1671h-1698zM1462 328h-645q0 239 266 364l136 64q170 84 170 209q0 84 -65 137t-179 53q-238 0 -244 -231h-74q1 144 86 221q83 76 232 76q145 0 230 -72t85 -184q0 -89 -48 -150q-49 -63 -161 -115l-114 -55
q-220 -107 -236 -252h561v-65z" />
    <glyph glyph-name="three.ss10" horiz-adv-x="2273" 
d="M2066 -180h-1859v1818h1859v-1818zM287 1565v-1671h1698v1671h-1698zM1145 307q-158 0 -251 75t-93 200h73q0 -98 72 -155q71 -56 201 -56q123 0 192 51q70 52 70 145q0 86 -67 136q-68 51 -183 51h-72v65h72q99 0 153 45t54 121q0 79 -63 126q-62 46 -170 46
q-110 0 -174 -50q-62 -49 -64 -142h-74q0 117 83 186q84 70 226 70q140 0 225 -63t85 -167q0 -72 -42 -126t-114 -72v-2q87 -18 142 -79t55 -147q0 -117 -91 -187q-92 -71 -245 -71z" />
    <glyph glyph-name="four.ss10" horiz-adv-x="2273" 
d="M2066 -180h-1859v1818h1859v-1818zM287 1565v-1671h1698v1671h-1698zM1339 326h-71v231l-498 -2v63l494 582h75v-586h154v-59l-154 2v-231zM1264 1110l-422 -496h426v496h-4z" />
    <glyph glyph-name="five.ss10" horiz-adv-x="2273" 
d="M2066 -180h-1859v1818h1859v-1818zM287 1565v-1671h1698v1671h-1698zM1147 301q-131 0 -218 56q-89 58 -116 155l72 16q22 -74 92 -118q68 -43 172 -43q128 0 199 62t71 167q0 104 -70 167q-69 62 -194 62q-158 0 -237 -106l-80 18l88 465h508v-63h-455l-64 -346l3 -2
q90 96 249 96q151 0 239 -80q87 -79 87 -209q0 -132 -94 -214q-95 -83 -252 -83z" />
    <glyph glyph-name="six.ss10" horiz-adv-x="2273" 
d="M2066 -180h-1859v1818h1859v-1818zM287 1565v-1671h1698v1671h-1698zM1165 307q-356 0 -356 430q0 236 90 359t266 123q239 0 299 -203l-69 -19q-47 160 -228 160q-282 0 -288 -412q44 67 120 105q78 39 175 39q145 0 231 -77t86 -206q0 -133 -89 -216t-237 -83z
M1165 371q116 0 185 63t69 168t-67 165q-68 60 -185 60q-107 0 -180 -49t-100 -129q7 -136 81 -208q71 -70 197 -70z" />
    <glyph glyph-name="seven.ss10" horiz-adv-x="2273" 
d="M2066 -180h-1859v1818h1859v-1818zM287 1565v-1671h1698v1671h-1698zM1065 305h-74q29 490 408 811h-565v64h659v-60q-398 -326 -428 -815z" />
    <glyph glyph-name="eight.ss10" horiz-adv-x="2273" 
d="M2066 -180h-1859v1818h1859v-1818zM287 1565v-1671h1698v1671h-1698zM1397 369q-100 -74 -260 -74q-159 0 -260 72q-99 69 -99 192q0 83 56 144q56 60 153 81v4q-80 17 -128 70q-46 50 -46 123q0 102 87 162q86 59 237 59q148 0 234 -59q87 -60 87 -162q0 -70 -45 -121
t-129 -72v-4q101 -21 154 -79q55 -59 55 -146q0 -118 -96 -190zM1137 811q116 0 183 44q66 43 66 120q0 81 -66 124q-67 44 -183 44q-119 0 -184 -43q-66 -44 -66 -123t65 -122q67 -44 185 -44zM1137 356q129 0 206 56q76 55 76 149q0 93 -73 142q-76 51 -209 51
q-135 0 -211 -51q-74 -50 -74 -142q0 -94 76 -149q77 -56 209 -56z" />
    <glyph glyph-name="nine.ss10" horiz-adv-x="2273" 
d="M2066 -180h-1859v1818h1859v-1818zM287 1565v-1671h1698v1671h-1698zM1137 303q-242 0 -299 205l71 16q46 -157 228 -157q282 0 288 411q-94 -143 -297 -143q-144 0 -230 77q-85 76 -85 206q0 135 89 216q87 80 237 80q356 0 356 -428q0 -235 -91 -359t-267 -124z
M1137 696q107 0 180 48q73 47 100 128q-7 136 -82 209q-73 72 -196 72q-117 0 -186 -63q-68 -62 -68 -168q0 -105 67 -165q69 -61 185 -61z" />
    <glyph glyph-name="zero.zero" 
d="M655 1475q482 0 482 -746q0 -745 -482 -745q-481 0 -481 745q0 746 481 746zM258 729q0 -373 117 -539l491 1149q-86 62 -211 62q-202 0 -300 -164q-97 -163 -97 -508zM655 57q202 0 300 164t98 508q0 407 -138 565l-493 -1155q88 -82 233 -82z" />
    <glyph glyph-name="zero.dnom" horiz-adv-x="917" 
d="M819 436q0 -456 -360 -456q-361 0 -361 456q0 457 361 457q360 0 360 -457zM459 47q284 0 284 389t-284 389q-285 0 -285 -389q0 -198 70 -294q69 -95 215 -95z" />
    <glyph glyph-name="one.dnom" horiz-adv-x="628" 
d="M444 0h-71v608h-281v60h176q55 0 82 18t29 64l2 124h63v-874z" />
    <glyph glyph-name="two.dnom" horiz-adv-x="942" 
d="M797 0h-647q0 238 268 365l133 63q170 80 170 209q0 84 -64 137t-178 53q-237 0 -243 -231h-76q1 144 86 221q83 76 233 76q145 0 231 -72q85 -72 85 -184q0 -87 -49 -150q-48 -61 -162 -114l-113 -56q-219 -105 -235 -251h561v-66z" />
    <glyph glyph-name="three.dnom" horiz-adv-x="886" 
d="M446 -20q-158 0 -250 74q-94 76 -94 200h74q1 -97 73 -155q69 -56 200 -56q123 0 192 51q70 52 70 146q0 86 -67 136t-183 50h-70v66h70q98 0 152 45q55 46 55 120q0 79 -64 126q-62 46 -170 46q-111 0 -173 -49t-64 -141h-74q0 116 83 185q82 69 226 69q138 0 224 -63
q85 -63 85 -166q0 -74 -41 -127q-42 -54 -114 -72v-2q87 -18 143 -80q55 -61 55 -145q0 -117 -92 -188q-91 -70 -246 -70z" />
    <glyph glyph-name="four.dnom" horiz-adv-x="876" 
d="M645 0h-72v231l-497 -2v64l495 581h74v-585l156 2v-62l-156 2v-231zM569 784l-422 -493l426 -2v495h-4z" />
    <glyph glyph-name="five.dnom" horiz-adv-x="884" 
d="M438 -25q-132 0 -220 56t-116 155l74 17q21 -77 90 -120q70 -44 172 -44q129 0 200 62q73 64 73 167q0 104 -71 167q-70 63 -194 63q-159 0 -237 -105l-82 17l90 464h508v-63h-457l-63 -344l4 -4q85 96 250 96q150 0 236 -79q87 -80 87 -208q0 -132 -93 -215
q-92 -82 -251 -82z" />
    <glyph glyph-name="six.dnom" horiz-adv-x="886" 
d="M459 -18q-357 0 -357 428q0 234 92 359q91 124 267 124q114 0 192 -54t105 -149l-70 -18q-46 157 -227 157q-283 0 -289 -411q94 143 297 143q144 0 230 -77q85 -76 85 -205q0 -133 -89 -216q-87 -81 -236 -81zM459 43q114 0 184 65t70 168q0 105 -68 165q-69 61 -184 61
q-107 0 -180 -49q-74 -50 -101 -129q7 -136 82 -209q74 -72 197 -72z" />
    <glyph glyph-name="seven.dnom" horiz-adv-x="761" 
d="M281 0h-74q33 493 409 811h-565v63h660v-59q-397 -324 -430 -815z" />
    <glyph glyph-name="eight.dnom" horiz-adv-x="917" 
d="M719 57q-99 -71 -260 -71t-260 71q-99 69 -99 191q0 83 56 144q56 60 153 81v4q-80 21 -126 73t-46 122q0 102 87 162q86 59 235 59q148 0 234 -59q87 -60 87 -162q0 -70 -46 -122t-126 -73v-4q100 -21 154 -80q55 -59 55 -145q0 -123 -98 -191zM274 545q65 -43 185 -43
q119 0 184 43q66 43 66 121q0 80 -67 124t-183 44q-117 0 -184 -44q-66 -44 -66 -124q0 -78 65 -121zM250 102q76 -57 209 -57t209 57q75 54 75 150q0 92 -74 141t-210 49q-137 0 -211 -50t-74 -140q0 -95 76 -150z" />
    <glyph glyph-name="nine.dnom" horiz-adv-x="886" 
d="M428 -18q-116 0 -195 53q-77 52 -104 151l70 17q47 -158 227 -158q283 0 289 412q-91 -144 -297 -144q-145 0 -231 77q-85 76 -85 206q0 132 89 215q88 82 237 82q356 0 356 -428q0 -235 -90 -360q-89 -123 -266 -123zM426 375q106 0 180 48t101 128q-7 136 -82 209
q-72 71 -197 71q-115 0 -184 -63q-70 -64 -70 -168q0 -105 68 -165t184 -60z" />
    <glyph glyph-name="zero.numr" horiz-adv-x="917" 
d="M819 1094q0 -455 -360 -455q-361 0 -361 455q0 456 361 456q360 0 360 -456zM459 705q284 0 284 389t-284 389q-285 0 -285 -389q0 -198 70 -294q69 -95 215 -95z" />
    <glyph glyph-name="one.numr" horiz-adv-x="628" 
d="M444 657h-71v609h-281v59h176q55 0 82 18t29 64l2 125h63v-875z" />
    <glyph glyph-name="two.numr" horiz-adv-x="942" 
d="M797 657h-647q0 238 268 365l133 63q170 80 170 209q0 85 -64 138t-178 53q-237 0 -243 -232h-76q1 145 86 222q82 75 233 75q147 0 231 -71q85 -72 85 -185q0 -86 -49 -149t-162 -115l-113 -55q-218 -105 -235 -252h561v-66z" />
    <glyph glyph-name="three.numr" horiz-adv-x="886" 
d="M446 639q-156 0 -250 74t-94 198h74q1 -96 73 -154q71 -57 200 -57q122 0 192 52t70 145q0 86 -67 136t-183 50h-70v66h70q98 0 152 45q55 46 55 121q0 79 -64 126q-62 46 -170 46q-111 0 -173 -49t-64 -142h-74q0 117 83 186q81 68 226 68q140 0 224 -62q85 -63 85 -167
q0 -74 -41 -127q-42 -54 -114 -72v-2q87 -18 143 -80q55 -61 55 -145q0 -117 -92 -186q-93 -70 -246 -70z" />
    <glyph glyph-name="four.numr" horiz-adv-x="876" 
d="M645 657h-72v232l-497 -2v63l495 582h74v-586l156 2v-61l-156 2v-232zM569 1442l-422 -494l426 -2v496h-4z" />
    <glyph glyph-name="five.numr" horiz-adv-x="884" 
d="M438 633q-134 0 -220 55q-88 56 -116 156l74 16q21 -76 90 -120q70 -44 172 -44q128 0 200 63q73 64 73 167q0 104 -71 167q-69 62 -194 62q-160 0 -237 -104l-82 16l90 465h508v-64h-457l-63 -344l4 -4q86 97 250 97q150 0 236 -79q87 -80 87 -208q0 -132 -93 -215
q-92 -82 -251 -82z" />
    <glyph glyph-name="six.numr" horiz-adv-x="886" 
d="M459 639q-357 0 -357 428q0 234 92 359q91 124 267 124q114 0 192 -54t105 -148l-70 -19q-47 158 -227 158q-283 0 -289 -412q94 144 297 144q144 0 230 -77q85 -76 85 -206q0 -132 -89 -215q-88 -82 -236 -82zM459 700q114 0 184 65t70 169q0 105 -68 165
q-67 60 -184 60q-107 0 -180 -49q-74 -50 -101 -129q7 -136 82 -209q74 -72 197 -72z" />
    <glyph glyph-name="seven.numr" horiz-adv-x="761" 
d="M281 657h-74q33 493 409 811h-565v64h660v-59q-397 -324 -430 -816z" />
    <glyph glyph-name="eight.numr" horiz-adv-x="917" 
d="M719 715q-101 -72 -260 -72t-260 72q-99 72 -99 190q0 84 56 145q55 59 153 80v5q-81 21 -126 72q-46 52 -46 122q0 102 87 162q86 59 235 59q148 0 234 -59q87 -60 87 -162q0 -70 -46 -122q-45 -51 -126 -72v-5q101 -21 154 -79q55 -59 55 -146q0 -119 -98 -190z
M274 1202q65 -43 185 -43q119 0 184 43q66 44 66 121q0 80 -67 124t-183 44q-117 0 -184 -44q-66 -43 -66 -124q0 -78 65 -121zM250 760q78 -58 209 -58t209 58q75 54 75 149q0 93 -74 142t-210 49q-137 0 -211 -50t-74 -141q0 -94 76 -149z" />
    <glyph glyph-name="nine.numr" horiz-adv-x="886" 
d="M428 639q-116 0 -195 53q-77 52 -104 152l70 16q47 -158 227 -158q283 0 289 412q-91 -143 -297 -143q-145 0 -231 77q-85 76 -85 205q0 132 89 215q88 82 237 82q356 0 356 -428q0 -234 -90 -359q-90 -124 -266 -124zM426 1032q106 0 180 48t101 128q-7 136 -82 209
q-73 72 -197 72q-114 0 -184 -64t-70 -168t68 -164q69 -61 184 -61z" />
    <glyph glyph-name="zero.tf" 
d="M1137 729q0 -745 -482 -745q-481 0 -481 745q0 746 481 746q482 0 482 -746zM356 221q96 -164 299 -164q202 0 301 164q97 165 97 508t-97 508q-99 164 -301 164q-203 0 -299 -164q-98 -162 -98 -508t98 -508z" />
    <glyph glyph-name="one.tf" 
d="M750 1458v-1384h460v-74h-1005v74h463v1237q-66 -76 -178 -127t-230 -58v74q139 10 249 77q110 66 163 181h78z" />
    <glyph glyph-name="two.tf" 
d="M1114 0h-926q4 184 101 324q95 138 297 251l190 111q139 78 202 165q62 86 62 202q0 152 -98 247q-100 97 -270 97q-176 0 -275 -102q-98 -101 -98 -306v-14h-82v16q0 233 123 358q123 124 332 124q214 0 332 -117q118 -118 118 -299q0 -262 -297 -430l-174 -101
q-184 -106 -271 -215q-85 -107 -91 -235h825v-76z" />
    <glyph glyph-name="three.tf" 
d="M662 -18q-238 0 -381 124q-147 128 -148 328h82q5 -173 125 -274q123 -103 324 -103q195 0 313 95q117 94 117 254q0 150 -106 239q-104 88 -292 88h-121v76h103q158 0 247 80t89 211q0 141 -100 221t-273 80q-180 0 -275 -89t-100 -259h-82q5 200 125 310
q123 112 334 112q204 0 330 -100q125 -99 125 -269q0 -248 -250 -326v-6q157 -27 243 -125q87 -99 87 -243q0 -193 -142 -308q-143 -116 -374 -116z" />
    <glyph glyph-name="four.tf" 
d="M950 1458v-989h226v-74h-226v-395h-82v395h-733v76l754 987h61zM223 469h645v838h-4z" />
    <glyph glyph-name="five.tf" 
d="M645 -33q-194 0 -319 107q-126 108 -148 286h82q21 -147 124 -234t263 -87q182 0 290 114q107 113 107 304q0 188 -103 298q-103 111 -279 111q-240 0 -353 -192l-92 8l133 776h705v-76h-645l-105 -620l4 -2q127 178 365 178q209 0 332 -133q122 -134 122 -346
q0 -220 -129 -355q-129 -137 -354 -137z" />
    <glyph glyph-name="six.tf" 
d="M686 928q205 0 326 -127q118 -124 118 -332q0 -220 -124 -350q-124 -135 -332 -135q-249 0 -373 178q-123 162 -123 528q0 386 127 586q127 201 375 201q176 0 287 -99q110 -98 125 -270h-80q-16 140 -104 219q-87 78 -228 78q-422 0 -422 -709q0 -31 2 -41
q57 129 168 201t258 72zM676 53q168 0 270 114q103 115 103 298q0 178 -101 285q-100 106 -272 106q-158 0 -267 -95t-139 -259q16 -194 95 -301q109 -148 311 -148z" />
    <glyph glyph-name="seven.tf" 
d="M504 0h-86q24 409 182 760q158 350 434 620h-864v78h969v-65q-590 -545 -635 -1393z" />
    <glyph glyph-name="eight.tf" 
d="M1036 96q-150 -114 -381 -114q-234 0 -379 114q-147 112 -147 312q0 146 87 245q86 98 247 131v4q-136 33 -207 118q-72 86 -72 206q0 165 127 264t344 99t344 -99t127 -264q0 -120 -72 -206q-71 -85 -208 -118v-4q165 -33 250 -130q86 -98 86 -246q0 -198 -146 -312z
M367 895q100 -76 288 -76q190 0 291 76q103 79 103 213q0 139 -105 217t-289 78q-182 0 -288 -77q-105 -76 -105 -218q0 -136 105 -213zM334 152q122 -99 321 -99q205 0 324 99q119 95 119 258q0 160 -117 248q-119 90 -326 90q-209 0 -326 -90q-116 -89 -116 -248
q0 -162 121 -258z" />
    <glyph glyph-name="nine.tf" 
d="M1010 1296q123 -170 123 -528q0 -387 -127 -587q-128 -201 -375 -201q-176 0 -287 99q-110 98 -125 271h80q16 -144 104 -221q89 -78 228 -78q422 0 422 711q0 27 -2 41q-57 -129 -168 -201t-258 -72q-203 0 -324 127t-121 332q0 216 127 352q128 134 330 134
q248 0 373 -179zM635 600q158 0 267 95q108 95 138 261q-17 193 -94 299q-109 148 -311 148q-168 0 -270 -113q-103 -114 -103 -297q0 -178 100 -285q100 -108 273 -108z" />
    <glyph glyph-name="zero.tf.zero" 
d="M655 1475q482 0 482 -746q0 -745 -482 -745q-481 0 -481 745q0 746 481 746zM258 729q0 -394 127 -551l494 1151q-89 72 -224 72q-202 0 -300 -164q-97 -163 -97 -508zM655 57q202 0 300 164t98 508q0 394 -127 551l-492 -1151q84 -72 221 -72z" />
    <glyph glyph-name="period.ss01" horiz-adv-x="520" 
d="M315 2q-20 -20 -53 -20q-34 0 -55 20q-23 21 -23 53q0 33 23 54q21 20 55 20q33 0 53 -20q21 -21 21 -54q0 -32 -21 -53z" />
    <glyph glyph-name="comma.ss01" horiz-adv-x="524" 
d="M264 129q80 0 80 -90v-201q0 -139 -133 -139h-12v51h14q78 0 78 78v154h-27q-55 0 -75 36q-21 37 1 74t74 37z" />
    <glyph glyph-name="colon.ss01" horiz-adv-x="512" 
d="M311 834q-23 -21 -54 -21t-54 21q-23 18 -23 51q0 32 23 53q21 20 54 20t54 -20q21 -21 21 -53q0 -33 -21 -51zM311 2q-20 -20 -53 -20q-34 0 -55 20q-23 21 -23 53q0 33 23 54q21 20 55 20q33 0 53 -20q21 -21 21 -54q0 -32 -21 -53z" />
    <glyph glyph-name="semicolon.ss01" horiz-adv-x="528" 
d="M264 813q-46 -4 -66 34t0 77q19 39 66 34q48 5 66 -34t0 -77q-19 -39 -66 -34zM266 129q82 0 82 -90v-201q0 -139 -133 -139h-14v51h16q78 0 78 78v154h-29q-53 0 -73 36q-21 37 0 74t73 37z" />
    <glyph glyph-name="ellipsis.ss01" horiz-adv-x="1562" 
d="M315 2q-20 -20 -53 -20q-34 0 -55 20q-23 21 -23 53q0 33 23 54q21 20 55 20q33 0 53 -20q21 -21 21 -54q0 -32 -21 -53zM780 -18q-47 -5 -65 34t0 78q18 40 65 35q50 0 69 -37t0 -74q-19 -36 -69 -36zM1303 -18q-50 0 -69 36q-19 37 0 74t69 37q47 5 65 -35
q18 -39 0 -78t-65 -34z" />
    <glyph glyph-name="exclam.ss01" horiz-adv-x="536" 
d="M291 344h-45l-19 694v420h82v-420zM322 2q-20 -20 -54 -20q-33 0 -53 20t-20 51t20 51q21 21 53 21q33 0 54 -21q20 -20 20 -51t-20 -51z" />
    </font>
</defs>
</svg>
