<?xml version="1.0" standalone="no"?>
<!DOCTYPE svg PUBLIC "-//W3C//DTD SVG 1.1//EN" "http://www.w3.org/Graphics/SVG/1.1/DTD/svg11.dtd" >
<svg xmlns="http://www.w3.org/2000/svg" xmlns:xlink="http://www.w3.org/1999/xlink" version="1.1">
<metadata>
Created by FontForge 20170731 at Tue May 30 10:07:18 2023
 By Aleksey,,,
Copyright (c) 2019 Monotype Imaging Inc. All rights reserved.
</metadata>
<defs>
<font id="HelveticaNowText-Light" horiz-adv-x="1310" >
  <font-face 
    font-family="HelveticaNowText Light"
    font-weight="300"
    font-stretch="normal"
    units-per-em="2048"
    panose-1="2 11 4 4 3 2 2 2 2 4"
    ascent="1792"
    descent="-256"
    x-height="1057"
    cap-height="1458"
    bbox="-657 -664 3291 2261"
    underline-thickness="102"
    underline-position="-614"
    unicode-range="U+000D-FEFF"
  />
<missing-glyph horiz-adv-x="1509" 
d="M1315 0h-1120v1458h1120v-1458zM317 1350v-1241h873v1241h-873z" />
    <glyph glyph-name="fi" unicode="fi" horiz-adv-x="1171" 
d="M250 1053v104q0 156 71 229q71 72 220 72h108v-104h-106q-89 0 -130 -41q-40 -40 -40 -139v-121l276 4v-96l-276 4v-965h-123v965l-184 -4v96zM868 1292v166h131v-166h-131zM995 0h-123v1057h123v-1057z" />
    <glyph glyph-name="fl" unicode="fl" horiz-adv-x="1171" 
d="M250 1053v104q0 156 71 229q71 72 220 72h108v-104h-106q-89 0 -130 -41q-40 -40 -40 -139v-121l276 4v-96l-276 4v-965h-123v965l-184 -4v96zM872 0v1458h123v-1458h-123z" />
    <glyph glyph-name=".notdef" horiz-adv-x="1509" 
d="M1315 0h-1120v1458h1120v-1458zM317 1350v-1241h873v1241h-873z" />
    <glyph glyph-name=".null" horiz-adv-x="0" 
 />
    <glyph glyph-name="nonmarkingreturn" horiz-adv-x="681" 
 />
    <glyph glyph-name="NULL" horiz-adv-x="0" 
 />
    <glyph glyph-name="NULL" horiz-adv-x="0" 
 />
    <glyph glyph-name="CR" unicode="&#xd;" horiz-adv-x="577" 
 />
    <glyph glyph-name="space" unicode=" " horiz-adv-x="577" 
 />
    <glyph glyph-name="exclam" unicode="!" horiz-adv-x="544" 
d="M301 344h-57l-35 694v420h125v-420zM350 0h-155v154h155v-154z" />
    <glyph glyph-name="quotedbl" unicode="&#x22;" horiz-adv-x="868" 
d="M287 893h-111v565h111v-565zM692 893h-108v565h108v-565z" />
    <glyph glyph-name="numbersign" unicode="#" horiz-adv-x="1366" 
d="M1268 1053v-103l-258 4l-62 -450l242 6v-102l-256 4l-57 -412h-103l57 412h-387l-57 -412h-102l57 412l-244 -4v102l258 -6l62 450l-242 -4v103l256 -4l57 409h103l-57 -409h387l57 409h102l-57 -409zM520 954l-61 -450h387l61 450h-387z" />
    <glyph glyph-name="dollar" unicode="$" 
d="M1159 414q0 -181 -117 -289t-321 -123v-297h-107v297q-408 24 -458 444h118q21 -171 116 -257q94 -85 280 -85q180 0 274 79t94 216q0 111 -65 176q-66 66 -207 99l-205 47q-360 84 -360 366q0 166 108 265q106 97 305 108v275h107v-275q185 -15 286 -115
q102 -100 117 -274h-118q-30 287 -353 287q-161 0 -246 -69t-85 -197q0 -103 63 -166q65 -65 209 -99l207 -47q187 -44 272 -132q86 -89 86 -234z" />
    <glyph glyph-name="percent" unicode="%" horiz-adv-x="2523" 
d="M559 633q-181 0 -272 117q-92 118 -92 342t92 342q91 116 272 116q369 0 369 -458q0 -459 -369 -459zM840 -31h-125l917 1520h121zM559 729q131 0 194 88q62 87 62 275q0 362 -256 362q-254 0 -254 -362q0 -186 63 -275q63 -88 191 -88zM1962 -25q-180 0 -273 117
q-94 118 -94 342q0 459 367 459t367 -459t-367 -459zM1962 72q256 0 256 362q0 363 -256 363q-129 0 -192 -88q-62 -87 -62 -275q0 -189 62 -275q63 -87 192 -87z" />
    <glyph glyph-name="ampersand" unicode="&#x26;" horiz-adv-x="1558" 
d="M1229 272l274 -274h-164l-184 184q-201 -207 -487 -207q-225 0 -359 113q-133 112 -133 301q0 291 356 420q-188 189 -188 352q0 144 102 234t267 90t268 -89q102 -89 102 -233q0 -249 -354 -389l422 -424q76 113 100 293h119q-30 -212 -141 -371zM713 1378
q-114 0 -181 -58t-67 -157q0 -128 162 -284l26 -27q165 61 238 132q74 72 74 173q0 100 -70 161q-69 60 -182 60zM672 80q253 0 409 178l-473 475q-315 -108 -315 -340q0 -143 101 -228t278 -85z" />
    <glyph glyph-name="quotesingle" unicode="'" horiz-adv-x="460" 
d="M285 893h-109v565h109v-565z" />
    <glyph glyph-name="parenleft" unicode="(" horiz-adv-x="665" 
d="M569 -418h-110q-314 422 -314 965q0 562 314 983h110q-301 -430 -301 -983q0 -535 301 -965z" />
    <glyph glyph-name="parenright" unicode=")" horiz-adv-x="665" 
d="M207 -418h-109q299 434 299 965q0 549 -299 983h109q313 -419 313 -983q0 -544 -313 -965z" />
    <glyph glyph-name="asterisk" unicode="*" horiz-adv-x="1118" 
d="M561 1016l-194 -273l-86 56l211 266l-316 104l35 91l307 -119l-6 317h96l-6 -317l305 119l35 -91l-313 -104l205 -266l-80 -56z" />
    <glyph glyph-name="plus" unicode="+" 
d="M709 688h510v-106h-510v-508h-109v508h-506v106h506v510h109v-510z" />
    <glyph glyph-name="comma" unicode="," horiz-adv-x="557" 
d="M209 -297h-19v70h19q86 0 86 86v149l-105 -10v158h179v-283q0 -170 -160 -170z" />
    <glyph glyph-name="hyphen" unicode="-" horiz-adv-x="774" 
d="M674 455h-574v112h574v-112z" />
    <glyph glyph-name="period" unicode="." horiz-adv-x="538" 
d="M360 0h-182v160h182v-160z" />
    <glyph glyph-name="slash" unicode="/" horiz-adv-x="925" 
d="M221 0h-123l607 1458h122z" />
    <glyph glyph-name="zero" unicode="0" 
d="M653 -20q-487 0 -487 749q0 750 491 750q245 0 367 -185q121 -184 121 -565q0 -749 -492 -749zM381 244q91 -154 276 -154q189 0 275 154q86 151 86 485q0 332 -87 485q-88 154 -276 154t-274 -154q-88 -151 -88 -485t88 -485z" />
    <glyph glyph-name="one" unicode="1" horiz-adv-x="911" 
d="M508 1458h110v-1458h-122v1233q-142 -136 -398 -143v112q319 17 410 256z" />
    <glyph glyph-name="two" unicode="2" 
d="M1122 0h-942q7 186 98 326q88 135 275 247l215 129q240 140 240 342q0 144 -89 231t-247 87q-161 0 -250 -95q-88 -94 -88 -282v-16h-125v22q0 227 126 355q126 127 339 127q208 0 332 -117q124 -118 124 -305q0 -270 -288 -437l-176 -106q-172 -101 -250 -194
q-77 -92 -84 -201h790v-113z" />
    <glyph glyph-name="three" unicode="3" 
d="M659 -23q-241 0 -385 126q-143 126 -151 341h125q6 -168 114 -261t300 -93q187 0 293 86t106 236q0 141 -95 222q-94 81 -268 81h-135v108h105q149 0 230 72t81 195q0 132 -89 203t-251 71q-328 0 -340 -324h-125q6 206 129 321q124 116 342 116q205 0 334 -103
q127 -102 127 -274q0 -237 -236 -320v-4q151 -28 234 -125q82 -95 82 -239q0 -194 -146 -316q-145 -119 -381 -119z" />
    <glyph glyph-name="four" unicode="4" 
d="M956 1458v-973h228v-110h-228v-375h-125v375h-706v117l737 966h94zM256 485h575v752h-4z" />
    <glyph glyph-name="five" unicode="5" 
d="M645 -33q-200 0 -327 109q-125 107 -148 295h121q21 -140 116 -220q94 -79 242 -79q171 0 266 104q97 106 97 285q0 174 -96 279q-95 104 -259 104q-212 0 -319 -168l-131 4l139 778h717v-112h-629l-94 -541l4 -4q130 147 336 147q213 0 336 -137q123 -139 123 -348
q0 -220 -131 -357q-133 -139 -363 -139z" />
    <glyph glyph-name="six" unicode="6" 
d="M690 936q205 0 328 -129t123 -336q0 -221 -129 -356t-342 -135q-242 0 -371 174q-131 169 -131 538q0 380 131 585q131 204 383 204q177 0 292 -101q113 -100 128 -272h-119q-15 131 -95 199q-81 69 -210 69q-391 0 -391 -676v-4q123 240 403 240zM672 84q156 0 250 103
t94 278q0 167 -92 267q-92 99 -252 99q-151 0 -250 -93t-117 -249q12 -180 92 -280q99 -125 275 -125z" />
    <glyph glyph-name="seven" unicode="7" 
d="M522 0h-131q63 832 606 1343h-839v115h993v-96q-572 -506 -629 -1362z" />
    <glyph glyph-name="eight" unicode="8" 
d="M1042 92q-150 -117 -387 -117t-387 117q-149 112 -149 316q0 145 82 243q82 99 231 133v2q-121 37 -186 122q-66 86 -66 204q0 168 129 267q130 100 346 100q213 0 345 -100q130 -99 130 -267q0 -118 -65 -202q-66 -85 -186 -124v-2q149 -34 231 -133q82 -98 82 -243
q0 -204 -150 -316zM391 905q95 -71 264 -71q170 0 265 71q94 69 94 199q0 132 -94 201t-265 69q-167 0 -262 -69q-96 -72 -96 -201q0 -130 94 -199zM356 170q112 -90 299 -90t299 90q111 88 111 242q0 148 -109 233q-108 84 -301 84q-194 0 -302 -84q-107 -83 -107 -233
q0 -154 110 -242z" />
    <glyph glyph-name="nine" unicode="9" 
d="M1012 1307q131 -169 131 -539q0 -380 -131 -585q-130 -203 -383 -203q-179 0 -292 100t-128 272h119q15 -130 95 -198q82 -70 210 -70q391 0 391 676v4q-128 -240 -403 -240q-205 0 -328 129t-123 336q0 222 129 357t342 135q242 0 371 -174zM639 629q151 0 250 93
t117 249q-12 179 -93 280q-99 125 -274 125q-156 0 -250 -103t-94 -278q0 -167 92 -267q92 -99 252 -99z" />
    <glyph glyph-name="colon" unicode=":" horiz-adv-x="538" 
d="M360 838h-182v161h182v-161zM360 0h-182v160h182v-160z" />
    <glyph glyph-name="semicolon" unicode=";" horiz-adv-x="569" 
d="M373 838h-183v161h183v-161zM219 -297h-16v70h18q84 0 84 86v149l-104 -10v158h178v-283q0 -170 -160 -170z" />
    <glyph glyph-name="less" unicode="&#x3c;" 
d="M111 686l1089 447v-121l-971 -391l971 -390v-120l-1089 444v131z" />
    <glyph glyph-name="equal" unicode="=" 
d="M1198 805h-1083v106h1083v-106zM1198 356h-1083v107h1083v-107z" />
    <glyph glyph-name="greater" unicode="&#x3e;" 
d="M111 1012v121l1089 -447v-131l-1089 -444v120l972 390z" />
    <glyph glyph-name="question" unicode="?" horiz-adv-x="1245" 
d="M645 352h-117v54q0 135 52 219q46 79 190 163q213 122 213 299q0 140 -98 216q-97 75 -269 75q-368 0 -380 -356h-119q11 220 137 338q128 119 362 119q223 0 354 -104q130 -103 130 -290q0 -216 -221 -356l-80 -51q-94 -57 -123 -119q-31 -64 -31 -182v-25zM666 0h-156
v154h156v-154z" />
    <glyph glyph-name="at" unicode="@" horiz-adv-x="2199" 
d="M1110 1485q414 0 655 -225q240 -228 240 -594q0 -255 -107 -412q-108 -158 -286 -158q-195 0 -228 187q-95 -187 -309 -187q-182 0 -285 126q-104 127 -104 341q0 209 108 334t281 125q209 0 305 -176l9 149h100v-669q0 -138 129 -138q127 0 203 121q75 119 75 342
q0 334 -210 531q-211 198 -580 198q-375 0 -584 -215q-209 -220 -209 -602q0 -387 211 -598q208 -213 586 -213q198 0 389 72v-111q-179 -63 -385 -63q-430 0 -672 241q-247 241 -247 672q0 425 245 674q246 248 670 248zM1087 184q117 0 192 77t99 210v188q-23 128 -99 200
q-78 73 -192 73q-135 0 -211 -99q-77 -100 -77 -270q0 -173 77 -276t211 -103z" />
    <glyph glyph-name="A" unicode="A" horiz-adv-x="1466" 
d="M1397 0h-137l-181 457h-694l-182 -457h-133l596 1460h137zM702 1249l-274 -684h608l-268 684l-33 103z" />
    <glyph glyph-name="B" unicode="B" horiz-adv-x="1488" 
d="M1030 774q303 -74 303 -368q0 -189 -120 -297q-121 -109 -322 -109h-696v1458h657q195 0 305 -97q111 -97 111 -259q0 -117 -62 -203t-176 -125zM836 1350h-519v-537h508q149 0 233 73q83 72 83 199q0 121 -79 193t-226 72zM317 109h566q154 0 238 77q85 78 85 220
q0 145 -92 223t-260 78h-537v-598z" />
    <glyph glyph-name="C" unicode="C" horiz-adv-x="1503" 
d="M797 -31q-300 0 -475 213q-177 215 -177 549q0 341 179 547q176 207 471 207q229 0 399 -129q167 -131 197 -338h-127q-33 162 -159 258t-306 96q-242 0 -383 -172q-144 -170 -144 -469q0 -294 142 -471q139 -178 387 -178q195 0 326 117q130 117 151 315h123
q-27 -243 -191 -395q-164 -150 -413 -150z" />
    <glyph glyph-name="D" unicode="D" horiz-adv-x="1476" 
d="M195 1458h505q316 0 481 -190t165 -539q0 -347 -174 -539q-172 -190 -506 -190h-471v1458zM317 109h345q557 0 557 620q0 621 -541 621h-361v-1241z" />
    <glyph glyph-name="E" unicode="E" horiz-adv-x="1361" 
d="M317 702v-593h904v-109h-1026v1458h999v-108h-877v-539h813v-109h-813z" />
    <glyph glyph-name="F" unicode="F" horiz-adv-x="1239" 
d="M1180 1458v-108h-863v-541h732v-111h-732v-698h-122v1458h985z" />
    <glyph glyph-name="G" unicode="G" horiz-adv-x="1665" 
d="M848 643v109h622v-752h-94l-22 272q-157 -301 -531 -301q-306 0 -491 209q-187 207 -187 553q0 342 183 549q180 205 501 205q252 0 418 -121q165 -121 203 -334l-119 -8q-30 163 -160 258q-128 94 -335 94q-264 0 -414 -172t-150 -475q0 -289 148 -469
q145 -178 405 -178q216 0 353 122t170 341v98h-500z" />
    <glyph glyph-name="H" unicode="H" horiz-adv-x="1509" 
d="M1190 829v629h125v-1458h-125v721h-873v-721h-122v1458h122v-629h873z" />
    <glyph glyph-name="I" unicode="I" horiz-adv-x="512" 
d="M317 0h-122v1458h122v-1458z" />
    <glyph glyph-name="J" unicode="J" horiz-adv-x="1138" 
d="M530 -25q-198 0 -309 108q-110 107 -110 306v103h125v-97q0 -307 296 -307q287 0 287 307v1063h125v-1065q0 -207 -106 -312q-108 -106 -308 -106z" />
    <glyph glyph-name="K" unicode="K" horiz-adv-x="1449" 
d="M1380 0h-155l-596 784l-312 -297v-487h-122v1458h122v-817l863 817h168l-631 -594z" />
    <glyph glyph-name="L" unicode="L" horiz-adv-x="1232" 
d="M317 1458v-1349h816v-109h-938v1458h122z" />
    <glyph glyph-name="M" unicode="M" horiz-adv-x="1810" 
d="M950 242l496 1216h170v-1458h-115v1128l4 181l-71 -179l-465 -1130h-117l-549 1311l4 -183v-1128h-112v1458h172l505 -1216l39 -113z" />
    <glyph glyph-name="N" unicode="N" horiz-adv-x="1513" 
d="M1200 172v1286h119v-1458h-139l-869 1282v-1282h-116v1458h133z" />
    <glyph glyph-name="O" unicode="O" horiz-adv-x="1652" 
d="M825 -31q-302 0 -491 213t-189 547q0 332 189 545q186 211 491 211q310 0 496 -211t186 -545q0 -335 -186 -547q-189 -213 -496 -213zM825 82q253 0 404 178q151 175 151 469q0 292 -151 467q-153 176 -404 176q-249 0 -401 -176t-152 -467q0 -289 154 -469
q151 -178 399 -178z" />
    <glyph glyph-name="P" unicode="P" horiz-adv-x="1327" 
d="M195 1458h581q211 0 332 -106t121 -301q0 -202 -123 -310t-344 -108h-445v-633h-122v1458zM317 741h449q161 0 250 80q88 79 88 230q0 145 -89 222t-245 77h-453v-609z" />
    <glyph glyph-name="Q" unicode="Q" horiz-adv-x="1632" 
d="M1507 729q0 -366 -219 -579l217 -168l-63 -84l-230 188q-166 -117 -387 -117q-302 0 -491 213t-189 547q0 332 189 545q186 211 491 211q310 0 496 -211t186 -545zM424 1196q-152 -176 -152 -467q0 -289 154 -469q151 -178 399 -178q167 0 291 82l-211 162l66 84
l223 -185q186 174 186 504q0 292 -151 467q-153 176 -404 176q-249 0 -401 -176z" />
    <glyph glyph-name="R" unicode="R" horiz-adv-x="1468" 
d="M1245 434l49 -434h-125l-43 387q-16 143 -87 206q-69 62 -234 62h-488v-655h-122v1458h657q199 0 315 -103q117 -103 117 -280q0 -144 -77 -241q-77 -96 -214 -125q223 -33 252 -275zM317 766h484q168 0 262 79t94 220q0 135 -85 210q-86 75 -241 75h-514v-584z" />
    <glyph glyph-name="S" unicode="S" horiz-adv-x="1366" 
d="M698 -29q-537 0 -581 482h119q33 -377 466 -377q208 0 317 81t109 228q0 118 -75 186q-79 71 -246 105l-246 49q-393 79 -393 369q0 180 135 286q136 107 373 107q235 0 376 -111q139 -109 154 -311h-119q-12 155 -120 237q-107 82 -295 82q-183 0 -284 -74t-101 -208
q0 -103 70 -166t221 -96l276 -56q395 -82 395 -393q0 -192 -142 -306q-143 -114 -409 -114z" />
    <glyph glyph-name="T" unicode="T" horiz-adv-x="1318" 
d="M88 1458h1143v-108h-510v-1350h-125v1350h-508v108z" />
    <glyph glyph-name="U" unicode="U" horiz-adv-x="1490" 
d="M1149 96q-146 -125 -404 -125q-257 0 -403 125q-147 123 -147 375v987h122v-991q0 -385 428 -385q429 0 429 385v991h122v-987q0 -252 -147 -375z" />
    <glyph glyph-name="V" unicode="V" horiz-adv-x="1382" 
d="M770 342l412 1116h131l-551 -1462h-139l-553 1462h137l414 -1116l73 -215z" />
    <glyph glyph-name="W" unicode="W" horiz-adv-x="1939" 
d="M1452 444l291 1014h127l-426 -1462h-117l-362 1323l-363 -1323h-117l-415 1462h127l282 -1014l68 -278l67 278l281 1014h137l281 -1014l69 -278z" />
    <glyph glyph-name="X" unicode="X" horiz-adv-x="1386" 
d="M1278 1458l-514 -696l553 -762h-156l-416 594l-49 78l-51 -78l-426 -594h-149l561 762l-514 696h155l379 -534l47 -68l45 68l383 534h152z" />
    <glyph glyph-name="Y" unicode="Y" horiz-adv-x="1386" 
d="M1196 1458h141l-575 -862v-596h-125v594l-588 864h150l456 -690l45 -76l43 76z" />
    <glyph glyph-name="Z" unicode="Z" horiz-adv-x="1386" 
d="M1221 1358l-940 -1245h970v-113h-1116v121l928 1225h-875v112h1033v-100z" />
    <glyph glyph-name="bracketleft" unicode="[" horiz-adv-x="663" 
d="M565 -418h-370v1948h370v-107h-254v-1734h254v-107z" />
    <glyph glyph-name="backslash" unicode="\" horiz-adv-x="925" 
d="M827 0h-122l-607 1458h123z" />
    <glyph glyph-name="bracketright" unicode="]" horiz-adv-x="663" 
d="M469 -418h-371v107h254v1734h-254v107h371v-1948z" />
    <glyph glyph-name="asciicircum" unicode="^" 
d="M588 1462h123l419 -1056h-131l-286 749q-33 95 -64 201q-27 -93 -65 -201l-279 -749h-125z" />
    <glyph glyph-name="underscore" unicode="_" horiz-adv-x="1024" 
d="M1024 -289h-1024v107h1024v-107z" />
    <glyph glyph-name="grave" unicode="`" horiz-adv-x="1024" 
d="M715 1231h-111l-262 311h168z" />
    <glyph glyph-name="a" unicode="a" horiz-adv-x="1175" 
d="M1110 94h33v-94h-68q-102 0 -149 47q-48 48 -52 152q-50 -106 -155 -165q-108 -61 -248 -61q-168 0 -262 82t-94 221q0 269 344 316l266 35q75 12 104 42q29 31 29 87v26q0 201 -285 201q-139 0 -209 -53q-69 -52 -81 -172h-123q27 327 422 327q196 0 298 -81
q103 -82 103 -232v-532q0 -79 28 -113q27 -33 99 -33zM492 72q149 0 250 82t116 221v194q-28 -20 -86 -28l-293 -43q-243 -34 -243 -217q0 -96 67 -153q66 -56 189 -56z" />
    <glyph glyph-name="b" unicode="b" horiz-adv-x="1224" 
d="M664 1079q204 0 327 -145q123 -144 123 -387q0 -253 -123 -410q-124 -160 -334 -160q-125 0 -225 67q-97 64 -147 179v-223h-109v1458h123v-596q50 101 145 159t220 58zM647 84q158 0 251 126t93 337q0 204 -91 314q-92 112 -253 112q-159 0 -257 -116q-97 -115 -97 -320
q0 -208 97 -330q98 -123 257 -123z" />
    <glyph glyph-name="c" unicode="c" horiz-adv-x="1126" 
d="M588 -27q-222 0 -349 147q-128 148 -128 404q0 262 129 411q129 148 354 148q183 0 296 -98q114 -99 138 -264h-117q-21 121 -102 189q-83 69 -215 69q-177 0 -268 -118q-93 -120 -93 -333q0 -212 95 -331t266 -119q268 0 317 282h115q-24 -182 -138 -284
q-115 -103 -300 -103z" />
    <glyph glyph-name="d" unicode="d" horiz-adv-x="1224" 
d="M926 864v594h123v-1458h-109v225q-50 -114 -147 -180q-100 -68 -226 -68q-211 0 -334 158q-122 155 -122 406q0 245 125 391q123 147 327 147q121 0 217 -57t146 -158zM578 84q159 0 257 123q97 122 97 330q0 207 -96 321q-100 115 -258 115q-160 0 -252 -113
q-93 -116 -93 -319q0 -206 93 -333q91 -124 252 -124z" />
    <glyph glyph-name="e" unicode="e" horiz-adv-x="1173" 
d="M1065 565v-53h-832q0 -205 99 -319q100 -115 270 -115q260 0 336 241l113 -16q-43 -149 -162 -238q-121 -90 -289 -90q-227 0 -358 154q-131 151 -131 403q0 250 129 400q128 149 352 149q217 0 346 -141q127 -143 127 -375zM594 979q-156 0 -251 -99q-95 -100 -107 -278
h714q-15 180 -106 278q-91 99 -250 99z" />
    <glyph glyph-name="f" unicode="f" horiz-adv-x="696" 
d="M649 1354h-106q-89 0 -130 -41q-40 -40 -40 -139v-121l276 4v-96l-276 4v-965h-123v965l-184 -4v96l184 -4v104q0 156 71 229q71 72 220 72h108v-104z" />
    <glyph glyph-name="g" unicode="g" horiz-adv-x="1230" 
d="M940 834v223h115v-1045q0 -222 -123 -333t-350 -111q-186 0 -299 78t-131 209h118q46 -189 316 -189q179 0 264 82q86 83 86 254v215q-50 -109 -146 -174q-98 -66 -223 -66q-211 0 -334 158q-122 155 -122 406q0 245 125 391q123 147 327 147q131 0 232 -66
q100 -65 145 -179zM578 84q159 0 257 123q97 122 97 330q0 207 -96 321q-100 115 -258 115q-160 0 -252 -113q-93 -116 -93 -319q0 -206 93 -333q91 -124 252 -124z" />
    <glyph glyph-name="h" unicode="h" horiz-adv-x="1206" 
d="M666 1083q173 0 268 -98q96 -99 96 -272v-713h-123v690q0 285 -266 285q-156 0 -249 -101q-93 -100 -93 -294v-580h-123v1458h123v-590q107 215 367 215z" />
    <glyph glyph-name="i" unicode="i" horiz-adv-x="475" 
d="M303 1292h-131v166h131v-166zM299 0h-123v1057h123v-1057z" />
    <glyph glyph-name="j" unicode="j" horiz-adv-x="475" 
d="M303 1292h-131v166h131v-166zM12 -418h-51v105h49q88 0 127 39t39 129v1202h123v-1186q0 -149 -70 -219t-217 -70z" />
    <glyph glyph-name="k" unicode="k" horiz-adv-x="1144" 
d="M1073 0h-145l-410 580l-219 -199v-381h-123v1458h123v-948l588 547h157l-440 -402z" />
    <glyph glyph-name="l" unicode="l" horiz-adv-x="475" 
d="M299 0h-123v1458h123v-1458z" />
    <glyph glyph-name="m" unicode="m" horiz-adv-x="1765" 
d="M1266 1083q158 0 240 -93q83 -94 83 -273v-717h-123v715q0 260 -233 260q-130 0 -209 -98q-80 -100 -80 -291v-586h-123v715q0 260 -233 260q-127 0 -208 -102t-81 -293v-580h-123v1057h119l-6 -201q99 227 332 227q247 0 307 -231q96 231 338 231z" />
    <glyph glyph-name="n" unicode="n" horiz-adv-x="1206" 
d="M666 1083q173 0 268 -98q96 -99 96 -272v-713h-123v690q0 285 -266 285q-156 0 -249 -101q-93 -100 -93 -294v-580h-123v1057h115v-205q105 231 375 231z" />
    <glyph glyph-name="o" unicode="o" horiz-adv-x="1210" 
d="M606 -27q-222 0 -358 154q-137 151 -137 401q0 255 137 406q136 149 360 149q223 0 359 -149q135 -152 135 -402q0 -251 -137 -403q-136 -156 -359 -156zM606 78q172 0 273 123q100 122 100 331q0 208 -100 327q-101 120 -273 120q-171 0 -272 -122t-101 -329
q0 -206 102 -328t271 -122z" />
    <glyph glyph-name="p" unicode="p" horiz-adv-x="1224" 
d="M664 1079q204 0 327 -145q123 -144 123 -387q0 -253 -123 -410q-124 -160 -334 -160q-117 0 -213 58q-93 56 -145 158v-611h-123v1475h109v-226q46 114 145 181q100 67 234 67zM647 84q158 0 251 126t93 337q0 204 -91 314q-92 112 -253 112q-159 0 -257 -116
q-97 -115 -97 -320q0 -208 97 -330q98 -123 257 -123z" />
    <glyph glyph-name="q" unicode="q" horiz-adv-x="1224" 
d="M940 834v223h109v-1475h-123v613q-51 -100 -146 -159t-213 -59q-211 0 -334 158q-122 155 -122 406q0 245 125 391q123 147 327 147q131 0 232 -66q100 -65 145 -179zM578 84q159 0 257 123q97 122 97 330q0 207 -96 321q-100 115 -258 115q-160 0 -252 -113
q-93 -116 -93 -319q0 -206 93 -333q91 -124 252 -124z" />
    <glyph glyph-name="r" unicode="r" horiz-adv-x="757" 
d="M653 1085q36 0 66 -6v-121q-51 7 -84 7q-145 0 -240 -101t-96 -278v-586h-123v1057h115v-236q99 264 362 264z" />
    <glyph glyph-name="s" unicode="s" horiz-adv-x="1056" 
d="M537 -27q-406 0 -433 353h117q24 -250 320 -250q145 0 222 54t77 153q0 155 -211 192l-193 35q-152 28 -228 95q-75 66 -75 179q0 138 101 215q102 78 282 78t290 -83q109 -82 126 -236h-121q-33 221 -297 221q-124 0 -195 -49t-71 -135q0 -74 52 -116q54 -43 165 -61
l188 -36q305 -60 305 -289q0 -149 -111 -235q-110 -85 -310 -85z" />
    <glyph glyph-name="t" unicode="t" horiz-adv-x="698" 
d="M637 961l-266 4v-723q0 -74 30 -106t103 -32h131v-104h-164q-223 0 -223 227v738l-182 -4v96l182 -4v317h123v-317l266 4v-96z" />
    <glyph glyph-name="u" unicode="u" horiz-adv-x="1206" 
d="M907 477v580h123v-1057h-117v205q-105 -232 -374 -232q-173 0 -268 98t-95 273v713h123v-690q0 -285 264 -285q156 0 250 100t94 295z" />
    <glyph glyph-name="v" unicode="v" horiz-adv-x="1085" 
d="M614 307l279 750h125l-408 -1057h-123l-419 1057h133l284 -750l66 -201z" />
    <glyph glyph-name="w" unicode="w" horiz-adv-x="1572" 
d="M1157 334l221 723h127l-344 -1057h-123l-204 745l-46 205l-47 -205l-211 -745h-124l-338 1057h133l217 -723l53 -205l49 205l203 723h131l205 -723l47 -201z" />
    <glyph glyph-name="x" unicode="x" horiz-adv-x="1142" 
d="M637 559l438 -559h-151l-353 475l-354 -475h-149l440 559l-391 498h149l305 -412l303 412h150z" />
    <glyph glyph-name="y" unicode="y" horiz-adv-x="1107" 
d="M559 106l354 951h127l-499 -1280q-45 -111 -107 -153q-61 -42 -176 -42h-90v105h80q88 0 127 29q42 31 76 116l59 152l-442 1073h133l340 -854z" />
    <glyph glyph-name="z" unicode="z" horiz-adv-x="1079" 
d="M934 979l-678 -879h713v-100h-858v88l671 868h-645v101h797v-78z" />
    <glyph glyph-name="braceleft" unicode="{" horiz-adv-x="774" 
d="M676 -420h-139q-111 0 -164 54q-54 56 -54 169v484q0 115 -51 165q-52 50 -172 50v108q120 0 172 50q51 50 51 165v482q0 113 54 169q53 54 164 54h139v-107h-105q-72 0 -103 -32q-32 -34 -32 -107v-457q0 -233 -194 -270v-2q194 -37 194 -270v-459q0 -73 32 -107
q31 -32 103 -32h105v-107z" />
    <glyph glyph-name="bar" unicode="|" horiz-adv-x="512" 
d="M317 -418h-122v1948h122v-1948z" />
    <glyph glyph-name="braceright" unicode="}" horiz-adv-x="774" 
d="M236 -420h-140v107h105q72 0 103 32q32 34 32 107v459q0 233 194 270v2q-194 37 -194 270v457q0 76 -32 108q-31 31 -103 31h-105v107h140q112 0 164 -54q53 -55 53 -169v-482q0 -115 51 -165q52 -50 172 -50v-108q-120 0 -172 -50q-51 -50 -51 -165v-484
q0 -114 -53 -169q-53 -54 -164 -54z" />
    <glyph glyph-name="asciitilde" unicode="~" 
d="M250 504h-109q0 174 75 267t200 93q63 0 119 -25q55 -24 99 -64q56 -50 83 -75q38 -35 87 -62q47 -26 93 -26q76 0 120 65t44 187h108q0 -173 -74 -266q-75 -94 -200 -94q-70 0 -140 37q-72 39 -118 90q-118 127 -223 127q-76 0 -120 -66q-44 -67 -44 -188z" />
    <glyph glyph-name="uni00A0" unicode="&#xa0;" horiz-adv-x="577" 
 />
    <glyph glyph-name="exclamdown" unicode="&#xa1;" horiz-adv-x="544" 
d="M350 903h-155v154h155v-154zM334 -401h-125v419l35 695h57l33 -695v-419z" />
    <glyph glyph-name="cent" unicode="&#xa2;" 
d="M680 78q268 0 317 282h117q-24 -167 -123 -268q-99 -100 -258 -117v-270h-106v270q-203 17 -317 161q-113 143 -113 388q0 246 113 392q114 147 317 165v283h106v-283q164 -15 261 -111q99 -98 120 -249h-117q-21 121 -102 189q-83 69 -215 69q-177 0 -268 -118
q-93 -120 -93 -333q0 -212 95 -331t266 -119z" />
    <glyph glyph-name="sterling" unicode="&#xa3;" 
d="M430 109h762v-109h-1071v109h20q169 0 283 96q115 97 115 231q0 104 -74 205l-344 -6v102l268 -4q-82 98 -118 175q-35 74 -35 167q0 175 122 293q121 117 338 117q211 0 338 -114q128 -115 146 -302h-121q-22 154 -120 231q-97 76 -243 76q-156 0 -247 -86t-91 -227
q0 -78 35 -151t131 -181l482 6v-102l-412 6q59 -99 59 -197q0 -105 -59 -192q-60 -88 -164 -143z" />
    <glyph glyph-name="currency" unicode="&#xa4;" 
d="M1161 737q0 -194 -110 -329l204 -199l-71 -72l-199 203q-134 -113 -330 -113q-195 0 -329 113l-199 -203l-72 72l205 199q-110 138 -110 329q0 190 110 328l-205 199l72 71l201 -202q138 110 327 110q190 0 328 -110l201 202l71 -71l-204 -199q110 -138 110 -328z
M371 444q106 -112 284 -112q176 0 287 112q109 115 109 291q0 178 -109 293q-111 111 -287 111t-284 -111q-111 -114 -111 -293t111 -291z" />
    <glyph glyph-name="yen" unicode="&#xa5;" 
d="M1157 1458h143l-507 -756h399v-108h-469v-207h469v-106h-469v-281h-123v281h-469v106h469v207h-469v108h399l-520 756h152l456 -682l46 -74l43 74z" />
    <glyph glyph-name="brokenbar" unicode="&#xa6;" horiz-adv-x="512" 
d="M317 842h-122v688h122v-688zM317 -418h-122v688h122v-688z" />
    <glyph glyph-name="section" unicode="&#xa7;" horiz-adv-x="1288" 
d="M1141 586q0 -209 -209 -287q86 -83 86 -215q0 -142 -107 -228q-106 -85 -284 -85q-182 0 -288 89t-118 251h117q18 -238 291 -238q131 0 202 55q72 55 72 154q0 167 -227 227l-215 58q-316 83 -316 317q0 207 211 289q-88 85 -88 213q0 145 107 229t287 84q184 0 288 -88
q105 -88 115 -250h-115q-21 236 -291 236q-129 0 -202 -56q-72 -55 -72 -153q0 -165 225 -225l215 -60q316 -86 316 -317zM838 360q192 45 192 215q0 169 -248 232l-233 65q-62 17 -100 37q-191 -50 -191 -215q0 -169 244 -229l235 -68q64 -17 101 -37z" />
    <glyph glyph-name="dieresis" unicode="&#xa8;" horiz-adv-x="1024" 
d="M373 1290h-140v168h140v-168zM791 1290h-140v168h140v-168z" />
    <glyph glyph-name="copyright" unicode="&#xa9;" horiz-adv-x="1792" 
d="M1434 188q-213 -215 -539 -215q-327 0 -539 215q-211 211 -211 541q0 332 211 543q213 213 539 213t539 -213q211 -211 211 -543q0 -330 -211 -541zM424 248q183 -189 471 -189t471 189q182 188 182 481q0 295 -182 483q-181 187 -471 187q-288 0 -471 -189
q-184 -188 -184 -481q0 -296 184 -481zM895 352q-151 0 -236 102q-86 103 -86 279q0 178 86 278q85 99 238 99q124 0 200 -58t97 -165l-88 -15q-38 152 -209 152q-111 0 -171 -74t-60 -217t60 -218t169 -75q174 0 213 156l88 -14q-27 -111 -104 -170q-78 -60 -197 -60z" />
    <glyph glyph-name="ordfeminine" unicode="&#xaa;" horiz-adv-x="999" 
d="M506 1485q317 0 317 -264v-459h-86l-10 121q-106 -138 -297 -138q-117 0 -186 58q-68 57 -68 153q0 92 61 147q61 54 175 62l309 25v45q0 162 -213 162q-176 0 -215 -107l-92 33q63 162 305 162zM451 834q113 0 190 60q75 59 80 144v74l-270 -20q-168 -12 -168 -131
q0 -127 168 -127z" />
    <glyph glyph-name="guillemotleft" unicode="&#xab;" horiz-adv-x="1437" 
d="M688 119v-139l-512 479v135l512 479v-139l-432 -408zM1262 119v-139l-512 479v135l512 479v-139l-433 -408z" />
    <glyph glyph-name="logicalnot" unicode="&#xac;" 
d="M1155 240h-106v436h-893v106h999v-542z" />
    <glyph glyph-name="uni00AD" unicode="&#xad;" horiz-adv-x="774" 
d="M674 455h-574v112h574v-112z" />
    <glyph glyph-name="registered" unicode="&#xae;" horiz-adv-x="1294" 
d="M291 1339q145 142 356 142q212 0 357 -142q143 -140 143 -344t-143 -344q-144 -141 -357 -141q-212 0 -356 141q-146 141 -146 344t146 344zM342 698q123 -120 305 -120q181 0 307 120q123 122 123 297q0 176 -123 299q-127 121 -307 121q-181 0 -305 -121
q-125 -123 -125 -299q0 -178 125 -297zM848 889l6 -86q5 -43 25 -72h-66q-19 22 -20 72l-7 71q-4 50 -25 70q-21 21 -73 21h-168v-234h-63v543h223q86 0 133 -39t47 -111q0 -99 -88 -129q70 -21 76 -106zM520 1022h166q111 0 111 96q0 99 -117 99h-160v-195z" />
    <glyph glyph-name="overscore" unicode="&#xaf;" horiz-adv-x="1024" 
d="M825 1298h-626v97h626v-97z" />
    <glyph glyph-name="degree" unicode="&#xb0;" horiz-adv-x="909" 
d="M702 895q-98 -98 -247 -98q-152 0 -246 98q-98 95 -98 246q0 150 98 248q96 96 246 96q147 0 247 -96q97 -102 97 -248q0 -149 -97 -246zM276 963q72 -72 179 -72q106 0 178 72q69 69 69 178q0 111 -69 180q-70 70 -178 70q-109 0 -179 -70q-69 -69 -69 -180
q0 -109 69 -178z" />
    <glyph glyph-name="plusminus" unicode="&#xb1;" 
d="M709 1178v-367h510v-106h-510v-365h-107v365h-508v106h508v367h107zM1198 29h-1083v106h1083v-106z" />
    <glyph glyph-name="two.sups" unicode="&#xb2;" horiz-adv-x="919" 
d="M791 762h-660q0 252 248 371l149 71q154 74 154 189q0 75 -56 121q-58 47 -159 47q-209 0 -215 -207h-109q1 145 86 223q84 78 238 78q147 0 234 -72t87 -190q0 -88 -50 -153t-163 -118l-110 -51q-105 -52 -151 -100q-49 -50 -56 -115h533v-94z" />
    <glyph glyph-name="three.sups" unicode="&#xb3;" horiz-adv-x="894" 
d="M451 737q-159 0 -254 75t-95 206h109q2 -191 242 -191q233 0 233 174q0 79 -58 122q-59 44 -167 44h-74v95h74q91 0 138 40q48 40 48 109q0 74 -55 114t-154 40q-98 0 -156 -44t-59 -126h-106q0 121 85 190q87 70 234 70q145 0 233 -64q87 -63 87 -172q0 -74 -40 -126
t-110 -70v-2q88 -22 136 -80q51 -62 51 -144q0 -115 -94 -188q-93 -72 -248 -72z" />
    <glyph glyph-name="acute" unicode="&#xb4;" horiz-adv-x="1024" 
d="M438 1231h-112l206 311h166z" />
    <glyph glyph-name="uni00B5" unicode="&#xb5;" horiz-adv-x="1206" 
d="M299 -418h-123v1475h123v-690q0 -137 68 -211t196 -74q156 0 250 100t94 295v580h123v-1057h-119l7 209q-105 -236 -369 -236q-189 0 -273 140l-4 -4l27 -312v-215z" />
    <glyph glyph-name="paragraph" unicode="&#xb6;" horiz-adv-x="1218" 
d="M625 -211h-107v944q-204 0 -311 94q-109 95 -109 269q0 173 109 268q107 94 311 94h506v-1669h-106v1561h-293v-1561z" />
    <glyph glyph-name="middot" unicode="&#xb7;" horiz-adv-x="704" 
d="M438 641h-172v160h172v-160z" />
    <glyph glyph-name="cedilla" unicode="&#xb8;" horiz-adv-x="1024" 
d="M430 -475h-72v78h64q162 0 162 98q0 84 -113 84h-86l-39 65l94 150h78l-84 -133h55q93 0 143 -42t50 -120q0 -83 -67 -132q-66 -48 -185 -48z" />
    <glyph glyph-name="one.sups" unicode="&#xb9;" horiz-adv-x="622" 
d="M446 762h-104v608h-254v84h135q120 0 131 92l2 90h90v-874z" />
    <glyph glyph-name="ordmasculine" unicode="&#xba;" horiz-adv-x="937" 
d="M471 745q-159 0 -260 105q-100 100 -100 264q0 167 100 268q103 103 260 103q155 0 258 -103q100 -101 100 -268q0 -164 -100 -264q-102 -105 -258 -105zM471 834q115 0 183 75q69 77 69 205q0 132 -68 208q-67 75 -184 75q-118 0 -187 -75t-69 -208q0 -127 70 -205
q68 -75 186 -75z" />
    <glyph glyph-name="guillemotright" unicode="&#xbb;" horiz-adv-x="1437" 
d="M688 459l-512 -479v139l432 407l-432 408v139l512 -479v-135zM1262 459l-512 -479v139l432 407l-432 408v139l512 -479v-135z" />
    <glyph glyph-name="onequarter" unicode="&#xbc;" horiz-adv-x="2160" 
d="M551 657h-105v609h-251v84h135q121 0 129 92l4 90h88v-875zM614 -31h-125l918 1520h123zM1812 0h-104v219l-471 -2v92l465 565h110v-573l154 2v-86l-154 2v-219zM1702 748l-367 -445l373 -2v447h-6z" />
    <glyph glyph-name="onehalf" unicode="&#xbd;" horiz-adv-x="2220" 
d="M551 657h-105v609h-251v84h135q121 0 129 92l4 90h88v-875zM614 -31h-125l918 1520h123zM2023 0h-657q0 252 248 371l149 71q152 69 152 189q0 76 -55 122t-158 46q-209 0 -215 -207h-109q1 145 86 223q84 78 238 78q147 0 234 -72t87 -190q0 -88 -50 -153t-163 -118
l-110 -51q-108 -51 -152 -98q-48 -51 -55 -117h530v-94z" />
    <glyph glyph-name="threequarters" unicode="&#xbe;" horiz-adv-x="2328" 
d="M524 633q-160 0 -254 75t-94 205h109q1 -190 241 -190q234 0 234 174q0 78 -59 122t-166 44h-74v94h74q91 0 138 40q48 41 48 110q0 73 -55 113t-154 40t-157 -44q-56 -43 -58 -126h-107q0 122 85 191q86 69 235 69q145 0 232 -63t87 -172q0 -75 -39 -126
q-41 -53 -110 -71v-2q88 -22 136 -80q50 -61 50 -143q0 -116 -93 -188t-249 -72zM799 -31h-125l917 1520h123zM1997 0h-105v219l-469 -2v92l463 565h111v-573l155 2v-86l-155 2v-219zM1886 748l-366 -445l372 -2v447h-6z" />
    <glyph glyph-name="questiondown" unicode="&#xbf;" horiz-adv-x="1245" 
d="M735 903h-155v154h155v-154zM629 -422q-223 0 -353 104q-129 104 -129 289q0 221 220 357l82 51q92 57 122 121q29 63 29 180v25h117v-54q0 -135 -49 -217q-51 -82 -193 -166q-213 -122 -213 -299q0 -139 98 -215t269 -76q357 0 381 357h118q-11 -220 -137 -338
q-128 -119 -362 -119z" />
    <glyph glyph-name="Agrave" unicode="&#xc0;" horiz-adv-x="1466" 
d="M627 1944l204 -312h-110l-262 312h168zM1397 0h-137l-181 457h-694l-182 -457h-133l596 1460h137zM702 1249l-274 -684h608l-268 684l-33 103z" />
    <glyph glyph-name="Aacute" unicode="&#xc1;" horiz-adv-x="1466" 
d="M831 1944h166l-262 -312h-110zM1397 0h-137l-181 457h-694l-182 -457h-133l596 1460h137zM702 1249l-274 -684h608l-268 684l-33 103z" />
    <glyph glyph-name="Acircumflex" unicode="&#xc2;" horiz-adv-x="1466" 
d="M928 1620l-195 248l-194 -248h-129l260 324h127l260 -324h-129zM1397 0h-137l-181 457h-694l-182 -457h-133l596 1460h137zM702 1249l-274 -684h608l-268 684l-33 103z" />
    <glyph glyph-name="Atilde" unicode="&#xc3;" horiz-adv-x="1466" 
d="M563 1870q-112 0 -119 -217h-96q6 311 215 311q59 0 111 -32q53 -33 80 -74q68 -109 149 -109q57 0 86 50q28 49 33 165h96q-6 -311 -215 -311q-60 0 -109 31q-50 32 -77 77q-68 109 -154 109zM1397 0h-137l-181 457h-694l-182 -457h-133l596 1460h137zM702 1249
l-274 -684h608l-268 684l-33 103z" />
    <glyph glyph-name="Adieresis" unicode="&#xc4;" horiz-adv-x="1466" 
d="M455 1829h139v-170h-139v170zM872 1829h140v-170h-140v170zM1397 0h-137l-181 457h-694l-182 -457h-133l596 1460h137zM702 1249l-274 -684h608l-268 684l-33 103z" />
    <glyph glyph-name="Aring" unicode="&#xc5;" horiz-adv-x="1466" 
d="M1397 0h-137l-181 457h-694l-182 -457h-133l569 1393q-75 27 -118 90q-44 64 -44 147q0 111 73 184q72 72 183 72t183 -72q73 -73 73 -184q0 -83 -43 -145q-44 -64 -117 -92zM565 1630q0 -75 47 -122q46 -46 121 -46t121 46q47 47 47 122q0 77 -47 124q-46 46 -121 46
t-121 -46q-47 -47 -47 -124zM702 1249l-274 -684h608l-268 684l-33 103z" />
    <glyph glyph-name="AE" unicode="&#xc6;" horiz-adv-x="2324" 
d="M1282 702v-593h901v-109h-1026v430h-688l-268 -430h-131l907 1458h1180v-108h-875v-539h813v-109h-813zM1044 1356l-512 -824h625v824h-113z" />
    <glyph glyph-name="Ccedilla" unicode="&#xc7;" horiz-adv-x="1503" 
d="M1278 514h123q-27 -240 -187 -391q-165 -153 -403 -154l-74 -116h56q93 0 142 -42q50 -42 50 -120q0 -84 -66 -132t-186 -48h-71v77h63q162 0 162 99q0 84 -113 84h-86l-39 65l86 135q-274 22 -432 232q-158 212 -158 528q0 341 179 547q176 207 471 207q229 0 399 -129
q167 -131 197 -338h-127q-33 162 -159 258t-306 96q-242 0 -383 -172q-144 -170 -144 -469q0 -294 142 -471q139 -178 387 -178q195 0 326 117q130 117 151 315z" />
    <glyph glyph-name="Egrave" unicode="&#xc8;" horiz-adv-x="1361" 
d="M606 1944l205 -312h-111l-262 312h168zM317 702v-593h904v-109h-1026v1458h999v-108h-877v-539h813v-109h-813z" />
    <glyph glyph-name="Eacute" unicode="&#xc9;" horiz-adv-x="1361" 
d="M811 1944h166l-262 -312h-111zM317 702v-593h904v-109h-1026v1458h999v-108h-877v-539h813v-109h-813z" />
    <glyph glyph-name="Ecircumflex" unicode="&#xca;" horiz-adv-x="1361" 
d="M907 1620l-194 248l-195 -248h-129l260 324h127l260 -324h-129zM317 702v-593h904v-109h-1026v1458h999v-108h-877v-539h813v-109h-813z" />
    <glyph glyph-name="Edieresis" unicode="&#xcb;" horiz-adv-x="1361" 
d="M434 1829h139v-170h-139v170zM852 1829h139v-170h-139v170zM317 702v-593h904v-109h-1026v1458h999v-108h-877v-539h813v-109h-813z" />
    <glyph glyph-name="Igrave" unicode="&#xcc;" horiz-adv-x="512" 
d="M354 1632h-110l-262 312h168zM317 0h-122v1458h122v-1458z" />
    <glyph glyph-name="Iacute" unicode="&#xcd;" horiz-adv-x="512" 
d="M258 1632h-111l207 312h166zM317 0h-122v1458h122v-1458z" />
    <glyph glyph-name="Icircumflex" unicode="&#xce;" horiz-adv-x="512" 
d="M61 1620h-129l261 324h126l261 -324h-129l-195 248zM317 0h-122v1458h122v-1458z" />
    <glyph glyph-name="Idieresis" unicode="&#xcf;" horiz-adv-x="512" 
d="M117 1659h-140v170h140v-170zM535 1659h-140v170h140v-170zM317 0h-122v1458h122v-1458z" />
    <glyph glyph-name="Eth" unicode="&#xd0;" horiz-adv-x="1652" 
d="M369 1458h505q319 0 482 -190q164 -191 164 -539q0 -349 -172 -539t-506 -190h-473v690l-303 -6v111l303 -9v672zM494 109h344q557 0 557 620q0 621 -543 621h-358v-564l421 9v-111l-421 6v-581z" />
    <glyph glyph-name="Ntilde" unicode="&#xd1;" horiz-adv-x="1513" 
d="M586 1870q-112 0 -119 -217h-96q6 311 215 311q58 0 110 -32q53 -33 80 -74q68 -109 150 -109q57 0 86 50q27 48 32 165h97q-6 -311 -215 -311q-61 0 -110 31q-50 32 -77 77q-68 109 -153 109zM1200 172v1286h119v-1458h-139l-869 1282v-1282h-116v1458h133z" />
    <glyph glyph-name="Ograve" unicode="&#xd2;" horiz-adv-x="1652" 
d="M922 1632h-111l-262 312h168zM825 -31q-302 0 -491 213t-189 547q0 332 189 545q186 211 491 211q310 0 496 -211t186 -545q0 -335 -186 -547q-189 -213 -496 -213zM825 82q253 0 404 178q151 175 151 469q0 292 -151 467q-153 176 -404 176q-249 0 -401 -176t-152 -467
q0 -289 154 -469q151 -178 399 -178z" />
    <glyph glyph-name="Oacute" unicode="&#xd3;" horiz-adv-x="1652" 
d="M825 1632h-110l207 312h165zM825 -31q-302 0 -491 213t-189 547q0 332 189 545q186 211 491 211q310 0 496 -211t186 -545q0 -335 -186 -547q-189 -213 -496 -213zM825 82q253 0 404 178q151 175 151 469q0 292 -151 467q-153 176 -404 176q-249 0 -401 -176t-152 -467
q0 -289 154 -469q151 -178 399 -178z" />
    <glyph glyph-name="Ocircumflex" unicode="&#xd4;" horiz-adv-x="1652" 
d="M629 1620h-129l260 324h127l260 -324h-129l-195 248zM825 -31q-302 0 -491 213t-189 547q0 332 189 545q186 211 491 211q310 0 496 -211t186 -545q0 -335 -186 -547q-189 -213 -496 -213zM825 82q253 0 404 178q151 175 151 469q0 292 -151 467q-153 176 -404 176
q-249 0 -401 -176t-152 -467q0 -289 154 -469q151 -178 399 -178z" />
    <glyph glyph-name="Otilde" unicode="&#xd5;" horiz-adv-x="1652" 
d="M535 1653h-97q6 311 215 311q59 0 111 -32q53 -33 80 -74q68 -109 149 -109q57 0 86 50q28 49 33 165h96q-6 -311 -215 -311q-60 0 -109 31q-50 32 -77 77q-68 109 -154 109q-111 0 -118 -217zM825 -31q-302 0 -491 213t-189 547q0 332 189 545q186 211 491 211
q310 0 496 -211t186 -545q0 -335 -186 -547q-189 -213 -496 -213zM825 82q253 0 404 178q151 175 151 469q0 292 -151 467q-153 176 -404 176q-249 0 -401 -176t-152 -467q0 -289 154 -469q151 -178 399 -178z" />
    <glyph glyph-name="Odieresis" unicode="&#xd6;" horiz-adv-x="1652" 
d="M684 1659h-139v170h139v-170zM1102 1659h-139v170h139v-170zM825 -31q-302 0 -491 213t-189 547q0 332 189 545q186 211 491 211q310 0 496 -211t186 -545q0 -335 -186 -547q-189 -213 -496 -213zM825 82q253 0 404 178q151 175 151 469q0 292 -151 467
q-153 176 -404 176q-249 0 -401 -176t-152 -467q0 -289 154 -469q151 -178 399 -178z" />
    <glyph glyph-name="multiply" unicode="&#xd7;" 
d="M655 563l-436 -436l-72 72l437 436l-437 434l72 72l436 -436l435 436l73 -70l-436 -436l436 -438l-73 -70z" />
    <glyph glyph-name="Oslash" unicode="&#xd8;" horiz-adv-x="1652" 
d="M1497 1415l-149 -174q159 -205 159 -512q0 -335 -186 -547q-189 -213 -496 -213q-262 0 -442 162l-131 -149l-70 59l137 158q-174 207 -174 530q0 332 189 545q186 211 491 211q276 0 459 -174l143 164zM272 729q0 -263 127 -438l807 930q-151 151 -381 151
q-249 0 -401 -176t-152 -467zM825 82q253 0 404 178q151 175 151 469q0 250 -114 418l-805 -926q151 -139 364 -139z" />
    <glyph glyph-name="Ugrave" unicode="&#xd9;" horiz-adv-x="1490" 
d="M844 1632h-111l-262 312h168zM1149 96q-146 -125 -404 -125q-257 0 -403 125q-147 123 -147 375v987h122v-991q0 -385 428 -385q429 0 429 385v991h122v-987q0 -252 -147 -375z" />
    <glyph glyph-name="Uacute" unicode="&#xda;" horiz-adv-x="1490" 
d="M748 1632h-111l207 312h166zM1149 96q-146 -125 -404 -125q-257 0 -403 125q-147 123 -147 375v987h122v-991q0 -385 428 -385q429 0 429 385v991h122v-987q0 -252 -147 -375z" />
    <glyph glyph-name="Ucircumflex" unicode="&#xdb;" horiz-adv-x="1490" 
d="M551 1620h-129l260 324h127l260 -324h-129l-195 248zM1149 96q-146 -125 -404 -125q-257 0 -403 125q-147 123 -147 375v987h122v-991q0 -385 428 -385q429 0 429 385v991h122v-987q0 -252 -147 -375z" />
    <glyph glyph-name="Udieresis" unicode="&#xdc;" horiz-adv-x="1490" 
d="M606 1659h-139v170h139v-170zM1024 1659h-139v170h139v-170zM1149 96q-146 -125 -404 -125q-257 0 -403 125q-147 123 -147 375v987h122v-991q0 -385 428 -385q429 0 429 385v991h122v-987q0 -252 -147 -375z" />
    <glyph glyph-name="Yacute" unicode="&#xdd;" horiz-adv-x="1386" 
d="M791 1944h165l-262 -312h-110zM1196 1458h141l-575 -862v-596h-125v594l-588 864h150l456 -690l45 -76l43 76z" />
    <glyph glyph-name="Thorn" unicode="&#xde;" horiz-adv-x="1327" 
d="M317 1174h459q210 0 332 -107q121 -106 121 -301q0 -196 -123 -307t-344 -111h-445v-348h-122v1458h122v-284zM317 457h449q163 0 251 80q87 79 87 227q0 143 -88 221t-246 78h-453v-606z" />
    <glyph glyph-name="germandbls" unicode="&#xdf;" horiz-adv-x="1230" 
d="M772 807q348 -66 348 -385q0 -200 -130 -311t-359 -111h-135v104h145q172 0 264 83t92 235q0 319 -385 319h-116v105h100q153 0 238 70q86 71 86 198q0 126 -82 196t-230 70q-152 0 -230 -75q-79 -76 -79 -220v-1085h-123v1061q0 206 112 315t324 109q206 0 319 -97
t113 -262q0 -122 -69 -205q-70 -84 -203 -114z" />
    <glyph glyph-name="agrave" unicode="&#xe0;" horiz-adv-x="1175" 
d="M475 1542l205 -311h-111l-262 311h168zM1110 94h33v-94h-68q-102 0 -149 47q-48 48 -52 152q-50 -106 -155 -165q-108 -61 -248 -61q-168 0 -262 82t-94 221q0 269 344 316l266 35q75 12 104 42q29 31 29 87v26q0 201 -285 201q-139 0 -209 -53q-69 -52 -81 -172h-123
q27 327 422 327q196 0 298 -81q103 -82 103 -232v-532q0 -79 28 -113q27 -33 99 -33zM492 72q149 0 250 82t116 221v194q-28 -20 -86 -28l-293 -43q-243 -34 -243 -217q0 -96 67 -153q66 -56 189 -56z" />
    <glyph glyph-name="aacute" unicode="&#xe1;" horiz-adv-x="1175" 
d="M680 1542h166l-262 -311h-111zM1110 94h33v-94h-68q-102 0 -149 47q-48 48 -52 152q-50 -106 -155 -165q-108 -61 -248 -61q-168 0 -262 82t-94 221q0 269 344 316l266 35q75 12 104 42q29 31 29 87v26q0 201 -285 201q-139 0 -209 -53q-69 -52 -81 -172h-123
q27 327 422 327q196 0 298 -81q103 -82 103 -232v-532q0 -79 28 -113q27 -33 99 -33zM492 72q149 0 250 82t116 221v194q-28 -20 -86 -28l-293 -43q-243 -34 -243 -217q0 -96 67 -153q66 -56 189 -56z" />
    <glyph glyph-name="acircumflex" unicode="&#xe2;" horiz-adv-x="1175" 
d="M776 1219l-194 247l-195 -247h-129l260 323h127l260 -323h-129zM1110 94h33v-94h-68q-102 0 -149 47q-48 48 -52 152q-50 -106 -155 -165q-108 -61 -248 -61q-168 0 -262 82t-94 221q0 269 344 316l266 35q75 12 104 42q29 31 29 87v26q0 201 -285 201q-139 0 -209 -53
q-69 -52 -81 -172h-123q27 327 422 327q196 0 298 -81q103 -82 103 -232v-532q0 -79 28 -113q27 -33 99 -33zM492 72q149 0 250 82t116 221v194q-28 -20 -86 -28l-293 -43q-243 -34 -243 -217q0 -96 67 -153q66 -56 189 -56z" />
    <glyph glyph-name="atilde" unicode="&#xe3;" horiz-adv-x="1175" 
d="M412 1468q-112 0 -119 -217h-96q6 312 215 312q58 0 110 -32t80 -75q68 -108 150 -108q57 0 86 50q27 48 32 165h97q-6 -312 -215 -312q-60 0 -110 32t-77 77q-67 108 -153 108zM1110 94h33v-94h-68q-102 0 -149 47q-48 48 -52 152q-50 -106 -155 -165q-108 -61 -248 -61
q-168 0 -262 82t-94 221q0 269 344 316l266 35q75 12 104 42q29 31 29 87v26q0 201 -285 201q-139 0 -209 -53q-69 -52 -81 -172h-123q27 327 422 327q196 0 298 -81q103 -82 103 -232v-532q0 -79 28 -113q27 -33 99 -33zM492 72q149 0 250 82t116 221v194q-28 -20 -86 -28
l-293 -43q-243 -34 -243 -217q0 -96 67 -153q66 -56 189 -56z" />
    <glyph glyph-name="adieresis" unicode="&#xe4;" horiz-adv-x="1175" 
d="M303 1458h139v-168h-139v168zM721 1458h139v-168h-139v168zM1110 94h33v-94h-68q-102 0 -149 47q-48 48 -52 152q-50 -106 -155 -165q-108 -61 -248 -61q-168 0 -262 82t-94 221q0 269 344 316l266 35q75 12 104 42q29 31 29 87v26q0 201 -285 201q-139 0 -209 -53
q-69 -52 -81 -172h-123q27 327 422 327q196 0 298 -81q103 -82 103 -232v-532q0 -79 28 -113q27 -33 99 -33zM492 72q149 0 250 82t116 221v194q-28 -20 -86 -28l-293 -43q-243 -34 -243 -217q0 -96 67 -153q66 -56 189 -56z" />
    <glyph glyph-name="aring" unicode="&#xe5;" horiz-adv-x="1175" 
d="M766 1284q-74 -74 -184 -74q-111 0 -183 74q-73 72 -73 180q0 112 72 184t184 72q111 0 183 -72q73 -73 73 -184q0 -108 -72 -180zM702 1589q-46 45 -120 45t-121 -45q-47 -47 -47 -125q0 -75 47 -122q46 -46 121 -46q74 0 120 46q48 48 48 122q0 77 -48 125zM1110 94h33
v-94h-68q-102 0 -149 47q-48 48 -52 152q-50 -106 -155 -165q-108 -61 -248 -61q-168 0 -262 82t-94 221q0 269 344 316l266 35q75 12 104 42q29 31 29 87v26q0 201 -285 201q-139 0 -209 -53q-69 -52 -81 -172h-123q27 327 422 327q196 0 298 -81q103 -82 103 -232v-532
q0 -79 28 -113q27 -33 99 -33zM492 72q149 0 250 82t116 221v194q-28 -20 -86 -28l-293 -43q-243 -34 -243 -217q0 -96 67 -153q66 -56 189 -56z" />
    <glyph glyph-name="ae" unicode="&#xe6;" horiz-adv-x="1912" 
d="M1804 565v-53h-831q0 -206 98 -319q100 -115 270 -115q254 0 336 241l111 -16q-43 -149 -162 -238q-121 -90 -289 -90q-148 0 -256 69q-107 69 -163 198q-114 -269 -433 -269q-171 0 -271 86q-99 85 -99 230q0 143 99 228q98 85 286 85h356v146q0 112 -74 174
q-73 61 -219 61q-136 0 -202 -54q-65 -53 -80 -171h-121q27 327 411 327q306 0 375 -208q122 204 385 204q217 0 346 -141q127 -143 127 -375zM1333 979q-157 0 -251 -99q-95 -100 -107 -278h713q-12 177 -105 278q-91 99 -250 99zM496 72q158 0 258 94q101 95 102 256v90
l-364 -10q-124 -1 -191 -59q-65 -56 -65 -154q0 -101 69 -159q68 -58 191 -58z" />
    <glyph glyph-name="ccedilla" unicode="&#xe7;" horiz-adv-x="1126" 
d="M594 78q268 0 317 282h115q-22 -173 -128 -276q-107 -104 -277 -111l-76 -118h55q92 0 142 -42q51 -43 51 -120q0 -83 -67 -132q-66 -48 -185 -48h-72v77h63q162 0 162 99q0 84 -112 84h-86l-39 65l86 137q-204 15 -318 159t-114 390q0 262 129 411q129 148 354 148
q183 0 296 -98q114 -99 138 -264h-117q-21 121 -102 189q-83 69 -215 69q-177 0 -268 -118q-93 -120 -93 -333q0 -212 95 -331t266 -119z" />
    <glyph glyph-name="egrave" unicode="&#xe8;" horiz-adv-x="1173" 
d="M485 1542l205 -311h-110l-263 311h168zM1065 565v-53h-832q0 -205 99 -319q100 -115 270 -115q260 0 336 241l113 -16q-43 -149 -162 -238q-121 -90 -289 -90q-227 0 -358 154q-131 151 -131 403q0 250 129 400q128 149 352 149q217 0 346 -141q127 -143 127 -375z
M594 979q-156 0 -251 -99q-95 -100 -107 -278h714q-15 180 -106 278q-91 99 -250 99z" />
    <glyph glyph-name="eacute" unicode="&#xe9;" horiz-adv-x="1173" 
d="M690 1542h166l-262 -311h-111zM1065 565v-53h-832q0 -205 99 -319q100 -115 270 -115q260 0 336 241l113 -16q-43 -149 -162 -238q-121 -90 -289 -90q-227 0 -358 154q-131 151 -131 403q0 250 129 400q128 149 352 149q217 0 346 -141q127 -143 127 -375zM594 979
q-156 0 -251 -99q-95 -100 -107 -278h714q-15 180 -106 278q-91 99 -250 99z" />
    <glyph glyph-name="ecircumflex" unicode="&#xea;" horiz-adv-x="1173" 
d="M786 1219l-194 247l-195 -247h-129l260 323h127l260 -323h-129zM1065 565v-53h-832q0 -205 99 -319q100 -115 270 -115q260 0 336 241l113 -16q-43 -149 -162 -238q-121 -90 -289 -90q-227 0 -358 154q-131 151 -131 403q0 250 129 400q128 149 352 149q217 0 346 -141
q127 -143 127 -375zM594 979q-156 0 -251 -99q-95 -100 -107 -278h714q-15 180 -106 278q-91 99 -250 99z" />
    <glyph glyph-name="edieresis" unicode="&#xeb;" horiz-adv-x="1173" 
d="M313 1458h140v-168h-140v168zM731 1458h139v-168h-139v168zM1065 565v-53h-832q0 -205 99 -319q100 -115 270 -115q260 0 336 241l113 -16q-43 -149 -162 -238q-121 -90 -289 -90q-227 0 -358 154q-131 151 -131 403q0 250 129 400q128 149 352 149q217 0 346 -141
q127 -143 127 -375zM594 979q-156 0 -251 -99q-95 -100 -107 -278h714q-15 180 -106 278q-91 99 -250 99z" />
    <glyph glyph-name="igrave" unicode="&#xec;" horiz-adv-x="475" 
d="M336 1231h-111l-262 311h168zM299 0h-123v1057h123v-1057z" />
    <glyph glyph-name="iacute" unicode="&#xed;" horiz-adv-x="475" 
d="M240 1231h-111l207 311h166zM299 0h-123v1057h123v-1057z" />
    <glyph glyph-name="icircumflex" unicode="&#xee;" horiz-adv-x="475" 
d="M43 1219h-129l260 323h127l260 -323h-129l-194 247zM299 0h-123v1057h123v-1057z" />
    <glyph glyph-name="idieresis" unicode="&#xef;" horiz-adv-x="475" 
d="M125 1290h-139v168h139v-168zM489 1290h-139v168h139v-168zM299 0h-123v1057h123v-1057z" />
    <glyph glyph-name="eth" unicode="&#xf0;" horiz-adv-x="1163" 
d="M938 1452l-262 -178q379 -312 379 -752q0 -256 -126 -401q-126 -146 -347 -146q-214 0 -342 134q-129 134 -129 344q0 209 122 344q123 135 328 135q238 0 352 -176q-67 265 -315 461l-201 -158l-61 69l196 140q-102 73 -239 141l49 76q148 -72 268 -158l262 205z
M934 518v23q-18 133 -118 210q-98 76 -238 76q-162 0 -253 -102q-92 -103 -92 -266q0 -164 95 -271q96 -108 256 -108q164 0 257 114t93 324z" />
    <glyph glyph-name="ntilde" unicode="&#xf1;" horiz-adv-x="1206" 
d="M446 1468q-111 0 -118 -217h-97q6 312 215 312q59 0 111 -32t80 -75q67 -108 149 -108q57 0 86 50q28 49 33 165h96q-6 -312 -215 -312q-59 0 -109 32t-77 77q-68 108 -154 108zM666 1083q173 0 268 -98q96 -99 96 -272v-713h-123v690q0 285 -266 285q-156 0 -249 -101
q-93 -100 -93 -294v-580h-123v1057h115v-205q105 231 375 231z" />
    <glyph glyph-name="ograve" unicode="&#xf2;" horiz-adv-x="1210" 
d="M707 1231h-111l-262 311h168zM606 -27q-222 0 -358 154q-137 151 -137 401q0 255 137 406q136 149 360 149q223 0 359 -149q135 -152 135 -402q0 -251 -137 -403q-136 -156 -359 -156zM606 78q172 0 273 123q100 122 100 331q0 208 -100 327q-101 120 -273 120
q-171 0 -272 -122t-101 -329q0 -206 102 -328t271 -122z" />
    <glyph glyph-name="oacute" unicode="&#xf3;" horiz-adv-x="1210" 
d="M610 1231h-110l207 311h165zM606 -27q-222 0 -358 154q-137 151 -137 401q0 255 137 406q136 149 360 149q223 0 359 -149q135 -152 135 -402q0 -251 -137 -403q-136 -156 -359 -156zM606 78q172 0 273 123q100 122 100 331q0 208 -100 327q-101 120 -273 120
q-171 0 -272 -122t-101 -329q0 -206 102 -328t271 -122z" />
    <glyph glyph-name="ocircumflex" unicode="&#xf4;" horiz-adv-x="1210" 
d="M414 1219h-129l260 323h127l260 -323h-129l-195 247zM606 -27q-222 0 -358 154q-137 151 -137 401q0 255 137 406q136 149 360 149q223 0 359 -149q135 -152 135 -402q0 -251 -137 -403q-136 -156 -359 -156zM606 78q172 0 273 123q100 122 100 331q0 208 -100 327
q-101 120 -273 120q-171 0 -272 -122t-101 -329q0 -206 102 -328t271 -122z" />
    <glyph glyph-name="otilde" unicode="&#xf5;" horiz-adv-x="1210" 
d="M319 1251h-96q6 312 215 312q59 0 111 -32t80 -75q67 -108 149 -108q57 0 86 50q28 49 33 165h96q-6 -312 -215 -312q-59 0 -109 32t-77 77q-68 108 -154 108q-112 0 -119 -217zM606 -27q-222 0 -358 154q-137 151 -137 401q0 255 137 406q136 149 360 149
q223 0 359 -149q135 -152 135 -402q0 -251 -137 -403q-136 -156 -359 -156zM606 78q172 0 273 123q100 122 100 331q0 208 -100 327q-101 120 -273 120q-171 0 -272 -122t-101 -329q0 -206 102 -328t271 -122z" />
    <glyph glyph-name="odieresis" unicode="&#xf6;" horiz-adv-x="1210" 
d="M469 1290h-139v168h139v-168zM887 1290h-139v168h139v-168zM606 -27q-222 0 -358 154q-137 151 -137 401q0 255 137 406q136 149 360 149q223 0 359 -149q135 -152 135 -402q0 -251 -137 -403q-136 -156 -359 -156zM606 78q172 0 273 123q100 122 100 331q0 208 -100 327
q-101 120 -273 120q-171 0 -272 -122t-101 -329q0 -206 102 -328t271 -122z" />
    <glyph glyph-name="divide" unicode="&#xf7;" 
d="M745 922h-178v172h178v-172zM1223 573h-1135v119h1135v-119zM745 172h-178v172h178v-172z" />
    <glyph glyph-name="oslash" unicode="&#xf8;" horiz-adv-x="1210" 
d="M1081 1028l-98 -117q119 -146 119 -379q0 -251 -137 -403q-136 -156 -359 -156q-189 0 -317 113l-94 -113l-70 56l102 121q-116 149 -116 378q0 255 137 406q136 149 360 149q186 0 314 -108l92 108zM233 528q0 -172 72 -286l545 647q-96 90 -244 90q-171 0 -272 -122
t-101 -329zM606 78q172 0 273 123q100 122 100 331q0 175 -72 289l-547 -649q95 -94 246 -94z" />
    <glyph glyph-name="ugrave" unicode="&#xf9;" horiz-adv-x="1206" 
d="M496 1542l204 -311h-110l-262 311h168zM907 477v580h123v-1057h-117v205q-105 -232 -374 -232q-173 0 -268 98t-95 273v713h123v-690q0 -285 264 -285q156 0 250 100t94 295z" />
    <glyph glyph-name="uacute" unicode="&#xfa;" horiz-adv-x="1206" 
d="M700 1542h166l-262 -311h-110zM907 477v580h123v-1057h-117v205q-105 -232 -374 -232q-173 0 -268 98t-95 273v713h123v-690q0 -285 264 -285q156 0 250 100t94 295z" />
    <glyph glyph-name="ucircumflex" unicode="&#xfb;" horiz-adv-x="1206" 
d="M799 1219l-195 247l-194 -247h-129l260 323h127l260 -323h-129zM907 477v580h123v-1057h-117v205q-105 -232 -374 -232q-173 0 -268 98t-95 273v713h123v-690q0 -285 264 -285q156 0 250 100t94 295z" />
    <glyph glyph-name="udieresis" unicode="&#xfc;" horiz-adv-x="1206" 
d="M326 1458h139v-168h-139v168zM743 1458h140v-168h-140v168zM907 477v580h123v-1057h-117v205q-105 -232 -374 -232q-173 0 -268 98t-95 273v713h123v-690q0 -285 264 -285q156 0 250 100t94 295z" />
    <glyph glyph-name="yacute" unicode="&#xfd;" horiz-adv-x="1107" 
d="M653 1542h166l-262 -311h-111zM559 106l354 951h127l-499 -1280q-45 -111 -107 -153q-61 -42 -176 -42h-90v105h80q88 0 127 29q42 31 76 116l59 152l-442 1073h133l340 -854z" />
    <glyph glyph-name="thorn" unicode="&#xfe;" horiz-adv-x="1224" 
d="M664 1079q204 0 327 -145q123 -144 123 -387q0 -253 -123 -410q-124 -160 -334 -160q-117 0 -213 58q-93 56 -145 158v-611h-123v1876h123v-596q50 101 145 159t220 58zM647 84q158 0 251 126t93 337q0 204 -91 314q-92 112 -253 112q-159 0 -257 -116q-97 -115 -97 -320
q0 -208 97 -330q98 -123 257 -123z" />
    <glyph glyph-name="ydieresis" unicode="&#xff;" horiz-adv-x="1107" 
d="M276 1458h140v-168h-140v168zM694 1458h140v-168h-140v168zM559 106l354 951h127l-499 -1280q-45 -111 -107 -153q-61 -42 -176 -42h-90v105h80q88 0 127 29q42 31 76 116l59 152l-442 1073h133l340 -854z" />
    <glyph glyph-name="Amacron" unicode="&#x100;" horiz-adv-x="1466" 
d="M420 1796h627v-96h-627v96zM1397 0h-137l-181 457h-694l-182 -457h-133l596 1460h137zM702 1249l-274 -684h608l-268 684l-33 103z" />
    <glyph glyph-name="amacron" unicode="&#x101;" horiz-adv-x="1175" 
d="M268 1395h627v-97h-627v97zM1110 94h33v-94h-68q-102 0 -149 47q-48 48 -52 152q-50 -106 -155 -165q-108 -61 -248 -61q-168 0 -262 82t-94 221q0 269 344 316l266 35q75 12 104 42q29 31 29 87v26q0 201 -285 201q-139 0 -209 -53q-69 -52 -81 -172h-123
q27 327 422 327q196 0 298 -81q103 -82 103 -232v-532q0 -79 28 -113q27 -33 99 -33zM492 72q149 0 250 82t116 221v194q-28 -20 -86 -28l-293 -43q-243 -34 -243 -217q0 -96 67 -153q66 -56 189 -56z" />
    <glyph glyph-name="Abreve" unicode="&#x102;" horiz-adv-x="1466" 
d="M731 1628q-315 0 -323 273h84q10 -189 241 -189t242 189h84q-7 -273 -328 -273zM1397 0h-137l-181 457h-694l-182 -457h-133l596 1460h137zM702 1249l-274 -684h608l-268 684l-33 103z" />
    <glyph glyph-name="abreve" unicode="&#x103;" horiz-adv-x="1175" 
d="M580 1227q-314 0 -324 274h84q7 -190 242 -190q234 0 241 190h84q-10 -274 -327 -274zM1110 94h33v-94h-68q-102 0 -149 47q-48 48 -52 152q-50 -106 -155 -165q-108 -61 -248 -61q-168 0 -262 82t-94 221q0 269 344 316l266 35q75 12 104 42q29 31 29 87v26
q0 201 -285 201q-139 0 -209 -53q-69 -52 -81 -172h-123q27 327 422 327q196 0 298 -81q103 -82 103 -232v-532q0 -79 28 -113q27 -33 99 -33zM492 72q149 0 250 82t116 221v194q-28 -20 -86 -28l-293 -43q-243 -34 -243 -217q0 -96 67 -153q66 -56 189 -56z" />
    <glyph glyph-name="Aogonek" unicode="&#x104;" horiz-adv-x="1466" 
d="M1151 -217q0 -105 145 -105h70v-90h-96q-115 0 -173 46q-59 47 -59 128q0 122 154 199l74 39h-6l-181 457h-694l-182 -457h-133l596 1460h137l594 -1460l-144 -84q-102 -60 -102 -133zM702 1249l-274 -684h608l-268 684l-33 103z" />
    <glyph glyph-name="aogonek" unicode="&#x105;" horiz-adv-x="1175" 
d="M1143 0l-144 -84q-102 -60 -102 -133q0 -105 143 -105h72v-90h-98q-113 0 -171 46q-59 47 -59 128q0 121 152 199l82 43q-139 24 -144 195q-50 -106 -155 -165q-108 -61 -248 -61q-168 0 -262 82t-94 221q0 269 344 316l266 35q75 12 104 42q29 31 29 87v28
q0 199 -285 199q-139 0 -209 -53q-69 -52 -81 -170h-123q28 325 422 325q196 0 298 -80q103 -81 103 -231v-534q0 -79 28 -113q27 -33 99 -33h33v-94zM492 72q149 0 250 82t116 221v194q-28 -20 -86 -28l-293 -43q-243 -34 -243 -217q0 -96 67 -153q66 -56 189 -56z" />
    <glyph glyph-name="Cacute" unicode="&#x106;" horiz-adv-x="1503" 
d="M795 1632h-111l207 312h166zM797 -31q-300 0 -475 213q-177 215 -177 549q0 341 179 547q176 207 471 207q229 0 399 -129q167 -131 197 -338h-127q-33 162 -159 258t-306 96q-242 0 -383 -172q-144 -170 -144 -469q0 -294 142 -471q139 -178 387 -178q195 0 326 117
q130 117 151 315h123q-27 -243 -191 -395q-164 -150 -413 -150z" />
    <glyph glyph-name="cacute" unicode="&#x107;" horiz-adv-x="1126" 
d="M592 1231h-111l207 311h166zM588 -27q-222 0 -349 147q-128 148 -128 404q0 262 129 411q129 148 354 148q183 0 296 -98q114 -99 138 -264h-117q-21 121 -102 189q-83 69 -215 69q-177 0 -268 -118q-93 -120 -93 -333q0 -212 95 -331t266 -119q268 0 317 282h115
q-24 -182 -138 -284q-115 -103 -300 -103z" />
    <glyph glyph-name="Ccircumflex" unicode="&#x108;" horiz-adv-x="1503" 
d="M600 1620h-129l260 324h127l260 -324h-129l-194 248zM797 -31q-300 0 -475 213q-177 215 -177 549q0 341 179 547q176 207 471 207q229 0 399 -129q167 -131 197 -338h-127q-33 162 -159 258t-306 96q-242 0 -383 -172q-144 -170 -144 -469q0 -294 142 -471
q139 -178 387 -178q195 0 326 117q130 117 151 315h123q-27 -243 -191 -395q-164 -150 -413 -150z" />
    <glyph glyph-name="ccircumflex" unicode="&#x109;" horiz-adv-x="1126" 
d="M397 1219h-129l260 323h127l260 -323h-129l-194 247zM588 -27q-222 0 -349 147q-128 148 -128 404q0 262 129 411q129 148 354 148q183 0 296 -98q114 -99 138 -264h-117q-21 121 -102 189q-83 69 -215 69q-177 0 -268 -118q-93 -120 -93 -333q0 -212 95 -331t266 -119
q268 0 317 282h115q-24 -182 -138 -284q-115 -103 -300 -103z" />
    <glyph glyph-name="Cdotaccent" unicode="&#x10a;" horiz-adv-x="1503" 
d="M864 1659h-139v170h139v-170zM797 -31q-300 0 -475 213q-177 215 -177 549q0 341 179 547q176 207 471 207q229 0 399 -129q167 -131 197 -338h-127q-33 162 -159 258t-306 96q-242 0 -383 -172q-144 -170 -144 -469q0 -294 142 -471q139 -178 387 -178q195 0 326 117
q130 117 151 315h123q-27 -243 -191 -395q-164 -150 -413 -150z" />
    <glyph glyph-name="cdotaccent" unicode="&#x10b;" horiz-adv-x="1126" 
d="M662 1290h-140v168h140v-168zM588 -27q-222 0 -349 147q-128 148 -128 404q0 262 129 411q129 148 354 148q183 0 296 -98q114 -99 138 -264h-117q-21 121 -102 189q-83 69 -215 69q-177 0 -268 -118q-93 -120 -93 -333q0 -212 95 -331t266 -119q268 0 317 282h115
q-24 -182 -138 -284q-115 -103 -300 -103z" />
    <glyph glyph-name="Ccaron" unicode="&#x10c;" horiz-adv-x="1503" 
d="M858 1634h-127l-260 324h129l195 -246l194 246h129zM797 -31q-300 0 -475 213q-177 215 -177 549q0 341 179 547q176 207 471 207q229 0 399 -129q167 -131 197 -338h-127q-33 162 -159 258t-306 96q-242 0 -383 -172q-144 -170 -144 -469q0 -294 142 -471
q139 -178 387 -178q195 0 326 117q130 117 151 315h123q-27 -243 -191 -395q-164 -150 -413 -150z" />
    <glyph glyph-name="ccaron" unicode="&#x10d;" horiz-adv-x="1126" 
d="M655 1219h-127l-260 321h129l195 -246l194 246h129zM588 -27q-222 0 -349 147q-128 148 -128 404q0 262 129 411q129 148 354 148q183 0 296 -98q114 -99 138 -264h-117q-21 121 -102 189q-83 69 -215 69q-177 0 -268 -118q-93 -120 -93 -333q0 -212 95 -331t266 -119
q268 0 317 282h115q-24 -182 -138 -284q-115 -103 -300 -103z" />
    <glyph glyph-name="Dcaron" unicode="&#x10e;" horiz-adv-x="1476" 
d="M1042 1958l-260 -324h-127l-260 324h129l195 -246l194 246h129zM195 1458h505q316 0 481 -190t165 -539q0 -347 -174 -539q-172 -190 -506 -190h-471v1458zM317 109h345q557 0 557 620q0 621 -541 621h-361v-1241z" />
    <glyph glyph-name="dcaron" unicode="&#x10f;" horiz-adv-x="1544" 
d="M926 864v594h123v-1458h-109v225q-50 -114 -147 -180q-100 -68 -226 -68q-211 0 -334 158q-122 155 -122 406q0 245 125 391q123 147 327 147q121 0 217 -57t146 -158zM1284 1053l115 405h145l-166 -405h-94zM578 84q159 0 257 123q97 122 97 330q0 207 -96 321
q-100 115 -258 115q-160 0 -252 -113q-93 -116 -93 -319q0 -206 93 -333q91 -124 252 -124z" />
    <glyph glyph-name="Dcroat" unicode="&#x110;" horiz-adv-x="1652" 
d="M369 1458h505q319 0 482 -190q164 -191 164 -539q0 -349 -172 -539t-506 -190h-473v690l-303 -6v111l303 -9v672zM494 109h344q557 0 557 620q0 621 -543 621h-358v-564l421 9v-111l-421 6v-581z" />
    <glyph glyph-name="dslash" unicode="&#x111;" horiz-adv-x="1316" 
d="M1049 1331l247 4v-96l-247 4v-1243h-109v225q-50 -114 -147 -180q-100 -68 -226 -68q-211 0 -334 158q-122 155 -122 406q0 245 125 391q123 147 327 147q121 0 217 -57t146 -158v381l-344 -6v96l344 -6v129h123v-127zM578 84q159 0 257 123q97 122 97 330q0 207 -96 321
q-100 115 -258 115q-160 0 -252 -113q-93 -116 -93 -319q0 -206 93 -333q91 -124 252 -124z" />
    <glyph glyph-name="Emacron" unicode="&#x112;" horiz-adv-x="1361" 
d="M399 1796h627v-96h-627v96zM317 702v-593h904v-109h-1026v1458h999v-108h-877v-539h813v-109h-813z" />
    <glyph glyph-name="emacron" unicode="&#x113;" horiz-adv-x="1173" 
d="M279 1395h626v-97h-626v97zM1065 565v-53h-832q0 -205 99 -319q100 -115 270 -115q260 0 336 241l113 -16q-43 -149 -162 -238q-121 -90 -289 -90q-227 0 -358 154q-131 151 -131 403q0 250 129 400q128 149 352 149q217 0 346 -141q127 -143 127 -375zM594 979
q-156 0 -251 -99q-95 -100 -107 -278h714q-15 180 -106 278q-91 99 -250 99z" />
    <glyph glyph-name="Ebreve" unicode="&#x114;" horiz-adv-x="1361" 
d="M711 1628q-317 0 -324 273h84q11 -189 242 -189t241 189h84q-8 -273 -327 -273zM317 702v-593h904v-109h-1026v1458h999v-108h-877v-539h814v-109h-814z" />
    <glyph glyph-name="ebreve" unicode="&#x115;" horiz-adv-x="1173" 
d="M590 1227q-314 0 -324 274h84q10 -190 242 -190t242 190h84q-10 -274 -328 -274zM1065 565v-53h-832q0 -205 99 -319q100 -115 270 -115q260 0 336 241l113 -16q-43 -149 -162 -238q-121 -90 -289 -90q-227 0 -358 154q-131 151 -131 403q0 250 129 400q128 149 352 149
q217 0 346 -141q127 -143 127 -375zM594 979q-156 0 -251 -99q-95 -100 -107 -278h714q-15 180 -106 278q-91 99 -250 99z" />
    <glyph glyph-name="Edotaccent" unicode="&#x116;" horiz-adv-x="1361" 
d="M643 1829h139v-170h-139v170zM317 702v-593h904v-109h-1026v1458h999v-108h-877v-539h813v-109h-813z" />
    <glyph glyph-name="edotaccent" unicode="&#x117;" horiz-adv-x="1173" 
d="M522 1458h140v-168h-140v168zM1065 565v-53h-832q0 -205 99 -319q100 -115 270 -115q260 0 336 241l113 -16q-43 -149 -162 -238q-121 -90 -289 -90q-227 0 -358 154q-131 151 -131 403q0 250 129 400q128 149 352 149q217 0 346 -141q127 -143 127 -375zM594 979
q-156 0 -251 -99q-95 -100 -107 -278h714q-15 180 -106 278q-91 99 -250 99z" />
    <glyph glyph-name="Eogonek" unicode="&#x118;" horiz-adv-x="1361" 
d="M1221 0l-144 -84q-102 -60 -102 -133q0 -105 145 -105h70v-90h-96q-115 0 -173 46q-59 47 -59 128q0 122 154 199l74 39h-895v1458h999v-108h-877v-539h813v-109h-813v-593h904v-109z" />
    <glyph glyph-name="eogonek" unicode="&#x119;" horiz-adv-x="1173" 
d="M1065 565v-53h-832q0 -205 99 -319q100 -115 270 -115q260 0 336 241l113 -16q-60 -196 -230 -280l-135 -78q-102 -60 -102 -133q0 -105 145 -105h70v-90h-97q-115 0 -173 46t-58 128q0 111 127 184q-225 0 -356 154q-131 152 -131 403q0 250 129 400q128 149 352 149
q217 0 346 -141q127 -143 127 -375zM594 979q-156 0 -251 -99q-95 -100 -107 -278h714q-15 180 -106 278q-91 99 -250 99z" />
    <glyph glyph-name="Ecaron" unicode="&#x11a;" horiz-adv-x="1361" 
d="M1036 1958l-260 -324h-127l-260 324h129l195 -246l194 246h129zM317 702v-593h904v-109h-1026v1458h999v-108h-877v-539h813v-109h-813z" />
    <glyph glyph-name="ecaron" unicode="&#x11b;" horiz-adv-x="1173" 
d="M915 1540l-260 -321h-127l-260 321h129l195 -246l194 246h129zM1065 565v-53h-832q0 -205 99 -319q100 -115 270 -115q260 0 336 241l113 -16q-43 -149 -162 -238q-121 -90 -289 -90q-227 0 -358 154q-131 151 -131 403q0 250 129 400q128 149 352 149q217 0 346 -141
q127 -143 127 -375zM594 979q-156 0 -251 -99q-95 -100 -107 -278h714q-15 180 -106 278q-91 99 -250 99z" />
    <glyph glyph-name="Gcircumflex" unicode="&#x11c;" horiz-adv-x="1665" 
d="M1024 1620l-195 248l-194 -248h-129l260 324h127l260 -324h-129zM848 643v109h622v-752h-94l-22 272q-157 -301 -531 -301q-306 0 -491 209q-187 207 -187 553q0 342 183 549q180 205 501 205q252 0 418 -121q165 -121 203 -334l-119 -8q-30 163 -160 258
q-128 94 -335 94q-264 0 -414 -172t-150 -475q0 -289 148 -469q145 -178 405 -178q216 0 353 122t170 341v98h-500z" />
    <glyph glyph-name="gcircumflex" unicode="&#x11d;" horiz-adv-x="1230" 
d="M760 1219l-195 247l-194 -247h-129l260 323h127l260 -323h-129zM940 834v223h115v-1045q0 -222 -123 -333t-350 -111q-186 0 -299 78t-131 209h118q46 -189 316 -189q179 0 264 82q86 83 86 254v215q-50 -109 -146 -174q-98 -66 -223 -66q-211 0 -334 158
q-122 155 -122 406q0 245 125 391q123 147 327 147q131 0 232 -66q100 -65 145 -179zM578 84q159 0 257 123q97 122 97 330q0 207 -96 321q-100 115 -258 115q-160 0 -252 -113q-93 -116 -93 -319q0 -206 93 -333q91 -124 252 -124z" />
    <glyph glyph-name="Gbreve" unicode="&#x11e;" horiz-adv-x="1665" 
d="M827 1628q-315 0 -323 273h84q10 -189 241 -189t242 189h84q-7 -273 -328 -273zM848 643v109h622v-752h-94l-22 272q-157 -301 -531 -301q-306 0 -491 209q-187 207 -187 553q0 342 183 549q180 205 501 205q252 0 418 -121q165 -121 203 -334l-119 -8q-30 163 -160 258
q-128 94 -335 94q-264 0 -414 -172t-150 -475q0 -289 148 -469q145 -178 405 -178q216 0 353 122t170 341v98h-500z" />
    <glyph glyph-name="gbreve" unicode="&#x11f;" horiz-adv-x="1230" 
d="M563 1227q-313 0 -323 274h84q7 -190 241 -190q235 0 242 190h84q-10 -274 -328 -274zM940 834v223h115v-1045q0 -222 -123 -333t-350 -111q-186 0 -299 78t-131 209h118q46 -189 316 -189q179 0 264 82q86 83 86 254v215q-50 -109 -146 -174q-98 -66 -223 -66
q-211 0 -334 158q-122 155 -122 406q0 245 125 391q123 147 327 147q131 0 232 -66q100 -65 145 -179zM578 84q159 0 257 123q97 122 97 330q0 207 -96 321q-100 115 -258 115q-160 0 -252 -113q-93 -116 -93 -319q0 -206 93 -333q91 -124 252 -124z" />
    <glyph glyph-name="Gdotaccent" unicode="&#x120;" horiz-adv-x="1665" 
d="M760 1829h139v-170h-139v170zM848 643v109h622v-752h-94l-22 272q-157 -301 -531 -301q-306 0 -491 209q-187 207 -187 553q0 342 183 549q180 205 501 205q252 0 418 -121q165 -121 203 -334l-119 -8q-30 163 -160 258q-128 94 -335 94q-264 0 -414 -172t-150 -475
q0 -289 148 -469q145 -178 405 -178q216 0 353 122t170 341v98h-500z" />
    <glyph glyph-name="gdotaccent" unicode="&#x121;" horiz-adv-x="1230" 
d="M496 1458h139v-168h-139v168zM940 834v223h115v-1045q0 -222 -123 -333t-350 -111q-186 0 -299 78t-131 209h118q46 -189 316 -189q179 0 264 82q86 83 86 254v215q-50 -109 -146 -174q-98 -66 -223 -66q-211 0 -334 158q-122 155 -122 406q0 245 125 391
q123 147 327 147q131 0 232 -66q100 -65 145 -179zM578 84q159 0 257 123q97 122 97 330q0 207 -96 321q-100 115 -258 115q-160 0 -252 -113q-93 -116 -93 -319q0 -206 93 -333q91 -124 252 -124z" />
    <glyph glyph-name="uni0122" unicode="&#x122;" horiz-adv-x="1665" 
d="M848 643v109h622v-752h-94l-22 272q-157 -301 -531 -301q-306 0 -491 209q-187 207 -187 553q0 342 183 549q180 205 501 205q252 0 418 -121q165 -121 203 -334l-119 -8q-30 163 -160 258q-128 94 -335 94q-264 0 -414 -172t-150 -475q0 -289 148 -469
q145 -178 405 -178q216 0 353 122t170 341v98h-500zM856 -266l-111 -8v122h168v-200q0 -123 -118 -123h-50v57h50q61 0 61 58v94z" />
    <glyph glyph-name="uni0123" unicode="&#x123;" horiz-adv-x="1230" 
d="M559 1407l107 10v-125h-166v191q0 125 116 125h50v-58h-50q-57 0 -57 -57v-86zM940 834v223h115v-1045q0 -222 -123 -333t-350 -111q-186 0 -299 78t-131 209h118q46 -189 316 -189q179 0 264 82q86 83 86 254v215q-50 -109 -146 -174q-98 -66 -223 -66q-211 0 -334 158
q-122 155 -122 406q0 245 125 391q123 147 327 147q131 0 232 -66q100 -65 145 -179zM578 84q159 0 257 123q97 122 97 330q0 207 -96 321q-100 115 -258 115q-160 0 -252 -113q-93 -116 -93 -319q0 -206 93 -333q91 -124 252 -124z" />
    <glyph glyph-name="Hcircumflex" unicode="&#x124;" horiz-adv-x="1509" 
d="M950 1620l-194 248l-195 -248h-129l260 324h127l260 -324h-129zM1190 829v629h125v-1458h-125v721h-873v-721h-122v1458h122v-629h873z" />
    <glyph glyph-name="hcircumflex" unicode="&#x125;" horiz-adv-x="1206" 
d="M561 1620h-129l-194 248l-195 -248h-129l260 324h127zM666 1083q173 0 268 -98q96 -99 96 -272v-713h-123v690q0 285 -266 285q-156 0 -249 -101q-93 -100 -93 -294v-580h-123v1458h123v-590q107 215 367 215z" />
    <glyph glyph-name="Hbar" unicode="&#x126;" horiz-adv-x="1509" 
d="M1190 1178v280h125v-1458h-125v680h-873v-680h-122v1458h122v-280h873zM317 1069v-278h873v278h-873z" />
    <glyph glyph-name="hbar" unicode="&#x127;" horiz-adv-x="1302" 
d="M762 1083q173 0 268 -98q96 -99 96 -272v-713h-122v690q0 285 -267 285q-153 0 -248 -101q-94 -100 -94 -294v-580h-123v1243l-252 -4v96l252 -4v127h123v-129l346 6v-96l-346 6v-375q108 213 367 213z" />
    <glyph glyph-name="Itilde" unicode="&#x128;" horiz-adv-x="512" 
d="M-33 1653h-96q6 311 215 311q59 0 111 -32q51 -32 79 -74q68 -109 150 -109q57 0 86 50q28 49 33 165h96q-6 -311 -215 -311q-61 0 -110 31q-48 31 -76 77q-68 109 -154 109q-112 0 -119 -217zM317 0h-122v1458h122v-1458z" />
    <glyph glyph-name="itilde" unicode="&#x129;" horiz-adv-x="475" 
d="M-51 1251h-96q6 312 215 312q58 0 110 -32t80 -75q68 -108 150 -108q57 0 86 50q27 48 32 165h97q-6 -312 -215 -312q-60 0 -110 32t-77 77q-67 108 -153 108q-112 0 -119 -217zM299 0h-123v1057h123v-1057z" />
    <glyph glyph-name="Imacron" unicode="&#x12a;" horiz-adv-x="512" 
d="M569 1700h-626v96h626v-96zM317 0h-122v1458h122v-1458z" />
    <glyph glyph-name="imacron" unicode="&#x12b;" horiz-adv-x="475" 
d="M551 1298h-627v97h627v-97zM299 0h-123v1057h123v-1057z" />
    <glyph glyph-name="Ibreve" unicode="&#x12c;" horiz-adv-x="512" 
d="M254 1628q-316 0 -324 273h84q10 -189 242 -189t242 189h84q-8 -273 -328 -273zM317 0h-122v1458h122v-1458z" />
    <glyph glyph-name="ibreve" unicode="&#x12d;" horiz-adv-x="475" 
d="M236 1227q-314 0 -324 274h84q7 -190 242 -190q234 0 241 190h84q-10 -274 -327 -274zM299 0h-123v1057h123v-1057z" />
    <glyph glyph-name="Iogonek" unicode="&#x12e;" horiz-adv-x="512" 
d="M317 0l-106 -92q-52 -44 -71 -70q-17 -23 -17 -59q0 -101 133 -101h61v-90h-75q-114 0 -173 45t-59 125q0 58 32 99q30 38 118 108l45 35h-10v1458h122v-1458z" />
    <glyph glyph-name="iogonek" unicode="&#x12f;" horiz-adv-x="475" 
d="M168 1290v168h139v-168h-139zM186 0h-10v1057h123v-1057l-106 -92q-52 -44 -71 -70q-18 -24 -18 -59q0 -101 134 -101h61v-90h-76q-115 0 -173 45t-58 125q0 58 32 99t117 108z" />
    <glyph glyph-name="Idot" unicode="&#x130;" horiz-adv-x="512" 
d="M326 1659h-140v170h140v-170zM317 0h-122v1458h122v-1458z" />
    <glyph glyph-name="dotlessi" unicode="&#x131;" horiz-adv-x="475" 
d="M299 0h-123v1057h123v-1057z" />
    <glyph glyph-name="IJ" unicode="&#x132;" horiz-adv-x="1636" 
d="M317 0h-122v1458h122v-1458zM1028 -25q-198 0 -309 108t-111 306v103h125v-97q0 -307 297 -307q287 0 287 307v1063h125v-1065q0 -207 -107 -312q-108 -106 -307 -106z" />
    <glyph glyph-name="ij" unicode="&#x133;" horiz-adv-x="950" 
d="M303 1292h-131v166h131v-166zM778 1292h-131v166h131v-166zM299 0h-123v1057h123v-1057zM487 -418h-51v105h49q88 0 127 39t39 129v1202h123v-1186q0 -150 -69 -219q-70 -70 -218 -70z" />
    <glyph glyph-name="Jcircumflex" unicode="&#x134;" horiz-adv-x="1138" 
d="M688 1620h-129l260 324h127l260 -324h-129l-194 248zM530 -25q-198 0 -309 108q-110 107 -110 306v103h125v-97q0 -307 296 -307q287 0 287 307v1063h125v-1065q0 -207 -106 -312q-108 -106 -308 -106z" />
    <glyph glyph-name="jcircumflex" unicode="&#x135;" horiz-adv-x="475" 
d="M45 1219h-129l260 323h127l260 -323h-129l-194 247zM12 -418h-51v105h49q88 0 127 39t39 129v1202h123v-1186q0 -149 -70 -219t-217 -70z" />
    <glyph glyph-name="uni0136" unicode="&#x136;" horiz-adv-x="1449" 
d="M1348 1458l-631 -594l663 -864h-155l-596 784l-312 -297v-487h-122v1458h122v-817l863 817h168zM752 -266l-109 -8v122h166v-200q0 -123 -117 -123h-49v57h47q62 0 62 58v94z" />
    <glyph glyph-name="uni0137" unicode="&#x137;" horiz-adv-x="1144" 
d="M1044 1057l-440 -402l469 -655h-145l-410 580l-219 -199v-381h-123v1458h123v-948l588 547h157zM600 -266l-108 -8v122h165v-200q0 -123 -116 -123h-49v57h47q61 0 61 58v94z" />
    <glyph glyph-name="kgreenlandic" unicode="&#x138;" horiz-adv-x="1144" 
d="M1073 0h-145l-412 557l-217 -201v-356h-123v1057h123v-570l588 570h157l-442 -424z" />
    <glyph glyph-name="Lacute" unicode="&#x139;" horiz-adv-x="1232" 
d="M391 1944h166l-262 -312h-111zM317 1458v-1349h816v-109h-938v1458h122z" />
    <glyph glyph-name="lacute" unicode="&#x13a;" horiz-adv-x="475" 
d="M240 1632h-111l207 312h166zM299 0h-123v1458h123v-1458z" />
    <glyph glyph-name="uni013B" unicode="&#x13b;" horiz-adv-x="1232" 
d="M317 1458v-1349h816v-109h-938v1458h122zM696 -266l-108 -8v122h166v-200q0 -123 -117 -123h-49v57h47q61 0 61 58v94z" />
    <glyph glyph-name="uni013C" unicode="&#x13c;" horiz-adv-x="475" 
d="M176 1458h123v-1458h-123v1458zM156 -274v122h166v-200q0 -123 -117 -123h-49v57h47q61 0 61 58v94z" />
    <glyph glyph-name="Lcaron" unicode="&#x13d;" horiz-adv-x="1232" 
d="M317 1458v-1349h816v-109h-938v1458h122zM795 1458h143l-164 -405h-94z" />
    <glyph glyph-name="lcaron" unicode="&#x13e;" horiz-adv-x="757" 
d="M299 0h-123v1458h123v-1458zM594 1053h-96l114 405h146z" />
    <glyph glyph-name="Ldot" unicode="&#x13f;" horiz-adv-x="1232" 
d="M317 1458v-1349h816v-109h-938v1458h122zM649 838h172v-160h-172v160z" />
    <glyph glyph-name="ldot" unicode="&#x140;" horiz-adv-x="669" 
d="M299 0h-123v1458h123v-1458zM614 647h-170v160h170v-160z" />
    <glyph glyph-name="Lslash" unicode="&#x141;" horiz-adv-x="1466" 
d="M551 662v-553h815v-109h-938v600l-317 -160v115l317 152v751h123v-692l561 285v-115z" />
    <glyph glyph-name="lslash" unicode="&#x142;" horiz-adv-x="761" 
d="M442 858l209 119v-123l-209 -102v-752h-123v686l-208 -119v123l208 103v665h123v-600z" />
    <glyph glyph-name="Nacute" unicode="&#x143;" horiz-adv-x="1513" 
d="M854 1944h166l-262 -312h-111zM1200 172v1286h119v-1458h-139l-869 1282v-1282h-116v1458h133z" />
    <glyph glyph-name="nacute" unicode="&#x144;" horiz-adv-x="1206" 
d="M713 1542h166l-263 -311h-110zM666 1083q173 0 268 -98q96 -99 96 -272v-713h-123v690q0 285 -266 285q-156 0 -249 -101q-93 -100 -93 -294v-580h-123v1057h115v-205q105 231 375 231z" />
    <glyph glyph-name="uni0145" unicode="&#x145;" horiz-adv-x="1513" 
d="M1200 172v1286h119v-1458h-139l-869 1282v-1282h-116v1458h133zM791 -266l-109 -8v122h166v-200q0 -123 -117 -123h-49v57h47q62 0 62 58v94z" />
    <glyph glyph-name="uni0146" unicode="&#x146;" horiz-adv-x="1206" 
d="M666 1083q173 0 268 -98q96 -99 96 -272v-713h-123v690q0 285 -266 285q-156 0 -249 -101q-93 -100 -93 -294v-580h-123v1057h115v-205q105 231 375 231zM621 -266l-109 -8v122h166v-200q0 -123 -117 -123h-49v57h47q62 0 62 58v94z" />
    <glyph glyph-name="Ncaron" unicode="&#x147;" horiz-adv-x="1513" 
d="M1079 1958l-260 -324h-127l-260 324h129l195 -246l194 246h129zM1200 172v1286h119v-1458h-139l-869 1282v-1282h-116v1458h133z" />
    <glyph glyph-name="ncaron" unicode="&#x148;" horiz-adv-x="1206" 
d="M940 1540l-260 -321h-127l-260 321h129l194 -246l195 246h129zM666 1083q173 0 268 -98q96 -99 96 -272v-713h-123v690q0 285 -266 285q-156 0 -249 -101q-93 -100 -93 -294v-580h-123v1057h115v-205q105 231 375 231z" />
    <glyph glyph-name="napostrophe" unicode="&#x149;" horiz-adv-x="1579" 
d="M193 1311l-105 -11v158h178v-282q0 -170 -157 -170h-19v69h19q84 0 84 86v150zM1040 1083q174 0 268 -97q95 -98 95 -273v-713h-123v690q0 285 -264 285q-155 0 -250 -101q-94 -100 -94 -294v-580h-123v1057h117v-205q105 231 374 231z" />
    <glyph glyph-name="Eng" unicode="&#x14a;" horiz-adv-x="1513" 
d="M1200 199v1259h119v-1587q0 -149 -68 -219t-215 -70h-63v105h61q90 0 128 39q38 40 38 129v151l-889 1280v-1286h-116v1458h133z" />
    <glyph glyph-name="eng" unicode="&#x14b;" horiz-adv-x="1206" 
d="M666 1083q173 0 268 -98q96 -99 96 -272v-842q0 -150 -69 -219q-70 -70 -218 -70h-51v105h49q88 0 127 39t39 129v835q0 285 -266 285q-156 0 -249 -101q-93 -100 -93 -294v-580h-123v1057h115v-205q105 231 375 231z" />
    <glyph glyph-name="Omacron" unicode="&#x14c;" horiz-adv-x="1652" 
d="M1137 1700h-627v96h627v-96zM825 -31q-302 0 -491 213t-189 547q0 332 189 545q186 211 491 211q310 0 496 -211t186 -545q0 -335 -186 -547q-189 -213 -496 -213zM825 82q253 0 404 178q151 175 151 469q0 292 -151 467q-153 176 -404 176q-249 0 -401 -176t-152 -467
q0 -289 154 -469q151 -178 399 -178z" />
    <glyph glyph-name="omacron" unicode="&#x14d;" horiz-adv-x="1210" 
d="M922 1298h-627v97h627v-97zM606 -27q-222 0 -358 154q-137 151 -137 401q0 255 137 406q136 149 360 149q223 0 359 -149q135 -152 135 -402q0 -251 -137 -403q-136 -156 -359 -156zM606 78q172 0 273 123q100 122 100 331q0 208 -100 327q-101 120 -273 120
q-171 0 -272 -122t-101 -329q0 -206 102 -328t271 -122z" />
    <glyph glyph-name="Obreve" unicode="&#x14e;" horiz-adv-x="1652" 
d="M821 1628q-315 0 -323 273h84q10 -189 241 -189t242 189h84q-7 -273 -328 -273zM825 -31q-302 0 -491 213t-189 547q0 332 189 545q186 211 491 211q310 0 496 -211t186 -545q0 -335 -186 -547q-189 -213 -496 -213zM825 82q253 0 404 178q151 175 151 469
q0 292 -151 467q-153 176 -404 176q-249 0 -401 -176t-152 -467q0 -289 154 -469q151 -178 399 -178z" />
    <glyph glyph-name="obreve" unicode="&#x14f;" horiz-adv-x="1210" 
d="M606 1227q-313 0 -323 274h84q10 -190 241 -190q235 0 242 190h84q-10 -274 -328 -274zM606 -27q-222 0 -358 154q-137 151 -137 401q0 255 137 406q136 149 360 149q223 0 359 -149q135 -152 135 -402q0 -251 -137 -403q-136 -156 -359 -156zM606 78q172 0 273 123
q100 122 100 331q0 208 -100 327q-101 120 -273 120q-171 0 -272 -122t-101 -329q0 -206 102 -328t271 -122z" />
    <glyph glyph-name="Ohungarumlaut" unicode="&#x150;" horiz-adv-x="1652" 
d="M651 1618h-108l202 334h144zM1024 1618h-109l218 334h145zM825 -31q-302 0 -491 213t-189 547q0 332 189 545q186 211 491 211q310 0 496 -211t186 -545q0 -335 -186 -547q-189 -213 -496 -213zM825 82q253 0 404 178q151 175 151 469q0 292 -151 467q-153 176 -404 176
q-249 0 -401 -176t-152 -467q0 -289 154 -469q151 -178 399 -178z" />
    <glyph glyph-name="ohungarumlaut" unicode="&#x151;" horiz-adv-x="1210" 
d="M436 1217h-108l202 333h144zM809 1217h-109l218 333h145zM606 -27q-222 0 -358 154q-137 151 -137 401q0 255 137 406q136 149 360 149q223 0 359 -149q135 -152 135 -402q0 -251 -137 -403q-136 -156 -359 -156zM606 78q172 0 273 123q100 122 100 331q0 208 -100 327
q-101 120 -273 120q-171 0 -272 -122t-101 -329q0 -206 102 -328t271 -122z" />
    <glyph glyph-name="OE" unicode="&#x152;" horiz-adv-x="2547" 
d="M1503 702v-593h903v-109h-1026v309q-80 -163 -222 -251q-143 -89 -333 -89q-304 0 -493 213q-187 213 -187 547q0 332 187 545q186 211 493 211q189 0 334 -86q142 -84 221 -246v305h1000v-108h-877v-539h813v-109h-813zM827 82q252 0 402 174q151 175 151 473
q0 296 -151 471q-150 172 -404 172q-249 0 -401 -176t-152 -467q0 -288 152 -469q150 -178 403 -178z" />
    <glyph glyph-name="oe" unicode="&#x153;" horiz-adv-x="2041" 
d="M1933 565v-53h-831q0 -206 98 -319q100 -115 270 -115q250 0 334 237l113 -12q-43 -149 -162 -238q-121 -90 -289 -90q-146 0 -259 70q-111 69 -169 195q-62 -126 -174 -196q-113 -71 -258 -71q-222 0 -358 154q-137 151 -137 401q0 255 137 406q136 149 360 149
q147 0 257 -67q111 -68 173 -191q127 256 422 256q217 0 346 -141q127 -143 127 -375zM606 78q172 0 273 123q100 122 100 331q0 208 -100 327q-101 120 -273 120q-171 0 -272 -122t-101 -329q0 -206 102 -328t271 -122zM1462 979q-156 0 -251 -99q-95 -100 -107 -278h713
q-12 177 -105 278q-92 99 -250 99z" />
    <glyph glyph-name="Racute" unicode="&#x154;" horiz-adv-x="1468" 
d="M819 1944h166l-262 -312h-111zM1245 434l49 -434h-125l-43 387q-16 143 -87 206q-69 62 -234 62h-488v-655h-122v1458h657q199 0 315 -103q117 -103 117 -280q0 -144 -77 -241q-77 -96 -214 -125q223 -33 252 -275zM317 766h484q168 0 262 79t94 220q0 135 -85 210
q-86 75 -241 75h-514v-584z" />
    <glyph glyph-name="racute" unicode="&#x155;" horiz-adv-x="757" 
d="M553 1542h166l-262 -311h-111zM291 1057v-236q99 264 362 264q36 0 66 -6v-121q-51 7 -84 7q-145 0 -240 -101t-96 -278v-586h-123v1057h115z" />
    <glyph glyph-name="uni0156" unicode="&#x156;" horiz-adv-x="1468" 
d="M1245 434l49 -434h-125l-43 387q-16 143 -87 206q-69 62 -234 62h-488v-655h-122v1458h657q199 0 315 -103q117 -103 117 -280q0 -144 -77 -241q-77 -96 -214 -125q223 -33 252 -275zM317 766h484q168 0 262 79t94 220q0 135 -85 210q-86 75 -241 75h-514v-584zM774 -266
l-108 -8v122h165v-200q0 -123 -116 -123h-49v57h47q61 0 61 58v94z" />
    <glyph glyph-name="uni0157" unicode="&#x157;" horiz-adv-x="757" 
d="M653 1085q36 0 66 -6v-121q-51 7 -84 7q-145 0 -240 -101t-96 -278v-586h-123v1057h115v-236q99 264 362 264zM264 -266l-108 -8v122h166v-200q0 -123 -117 -123h-49v57h47q61 0 61 58v94z" />
    <glyph glyph-name="Rcaron" unicode="&#x158;" horiz-adv-x="1468" 
d="M1047 1958l-261 -324h-127l-260 324h129l195 -246l195 246h129zM1245 434l49 -434h-125l-43 387q-16 143 -87 206q-69 62 -234 62h-488v-655h-122v1458h657q199 0 315 -103q117 -103 117 -280q0 -144 -77 -241q-77 -96 -214 -125q223 -33 252 -275zM317 766h484
q168 0 262 79t94 220q0 135 -85 210q-86 75 -241 75h-514v-584z" />
    <glyph glyph-name="rcaron" unicode="&#x159;" horiz-adv-x="757" 
d="M780 1540l-260 -321h-127l-260 321h129l195 -246l194 246h129zM291 1057v-236q99 264 362 264q36 0 66 -6v-121q-51 7 -84 7q-145 0 -240 -101t-96 -278v-586h-123v1057h115z" />
    <glyph glyph-name="Sacute" unicode="&#x15a;" horiz-adv-x="1366" 
d="M676 1632h-111l207 312h166zM698 -29q-537 0 -581 482h119q33 -377 466 -377q208 0 317 81t109 228q0 118 -75 186q-79 71 -246 105l-246 49q-393 79 -393 369q0 180 135 286q136 107 373 107q235 0 376 -111q139 -109 154 -311h-119q-12 155 -120 237q-107 82 -295 82
q-183 0 -284 -74t-101 -208q0 -103 70 -166t221 -96l276 -56q395 -82 395 -393q0 -192 -142 -306q-143 -114 -409 -114z" />
    <glyph glyph-name="sacute" unicode="&#x15b;" horiz-adv-x="1056" 
d="M522 1231h-110l206 311h166zM537 -27q-406 0 -433 353h117q24 -250 320 -250q145 0 222 54t77 153q0 155 -211 192l-193 35q-152 28 -228 95q-75 66 -75 179q0 138 101 215q102 78 282 78t290 -83q109 -82 126 -236h-121q-33 221 -297 221q-124 0 -195 -49t-71 -135
q0 -74 52 -116q54 -43 165 -61l188 -36q305 -60 305 -289q0 -149 -111 -235q-110 -85 -310 -85z" />
    <glyph glyph-name="Scircumflex" unicode="&#x15c;" horiz-adv-x="1366" 
d="M481 1620h-129l260 324h127l260 -324h-129l-194 248zM698 -29q-537 0 -581 482h119q33 -377 466 -377q208 0 317 81t109 228q0 118 -75 186q-79 71 -246 105l-246 49q-393 79 -393 369q0 180 135 286q136 107 373 107q235 0 376 -111q139 -109 154 -311h-119
q-12 155 -120 237q-107 82 -295 82q-183 0 -284 -74t-101 -208q0 -103 70 -166t221 -96l276 -56q395 -82 395 -393q0 -192 -142 -306q-143 -114 -409 -114z" />
    <glyph glyph-name="scircumflex" unicode="&#x15d;" horiz-adv-x="1056" 
d="M326 1219h-129l260 323h127l260 -323h-129l-195 247zM537 -27q-406 0 -433 353h117q24 -250 320 -250q145 0 222 54t77 153q0 155 -211 192l-193 35q-152 28 -228 95q-75 66 -75 179q0 138 101 215q102 78 282 78t290 -83q109 -82 126 -236h-121q-33 221 -297 221
q-124 0 -195 -49t-71 -135q0 -74 52 -116q54 -43 165 -61l188 -36q305 -60 305 -289q0 -149 -111 -235q-110 -85 -310 -85z" />
    <glyph glyph-name="Scedilla" unicode="&#x15e;" horiz-adv-x="1366" 
d="M1249 391q0 -187 -132 -299q-133 -114 -384 -121l-76 -118h56q93 0 142 -42q50 -42 50 -120q0 -84 -66 -132t-186 -48h-71v77h63q162 0 162 99q0 84 -113 84h-86l-39 65l86 135q-497 21 -538 482h119q33 -377 466 -377q208 0 317 81t109 228q0 118 -75 186
q-79 71 -246 105l-246 49q-393 79 -393 369q0 180 135 286q136 107 373 107q235 0 376 -111q139 -109 154 -311h-119q-12 155 -120 237q-107 82 -295 82q-183 0 -284 -74t-101 -208q0 -103 70 -166t221 -96l276 -56q395 -82 395 -393z" />
    <glyph glyph-name="scedilla" unicode="&#x15f;" horiz-adv-x="1056" 
d="M958 293q0 -143 -102 -227q-104 -86 -285 -93l-75 -118h55q93 0 142 -42q50 -42 50 -120q0 -84 -66 -132t-185 -48h-72v77h63q162 0 162 99q0 84 -113 84h-86l-38 65l86 137q-366 18 -390 351h117q24 -250 320 -250q145 0 222 54t77 153q0 155 -211 192l-193 35
q-152 28 -228 95q-75 66 -75 179q0 138 101 215q102 78 282 78t290 -83q109 -82 126 -236h-121q-33 221 -297 221q-124 0 -195 -49t-71 -135q0 -74 52 -116q54 -43 165 -61l188 -36q305 -60 305 -289z" />
    <glyph glyph-name="Scaron" unicode="&#x160;" horiz-adv-x="1366" 
d="M739 1634h-127l-260 324h129l195 -246l194 246h129zM698 -29q-537 0 -581 482h119q33 -377 466 -377q208 0 317 81t109 228q0 118 -75 186q-79 71 -246 105l-246 49q-393 79 -393 369q0 180 135 286q136 107 373 107q235 0 376 -111q139 -109 154 -311h-119
q-12 155 -120 237q-107 82 -295 82q-183 0 -284 -74t-101 -208q0 -103 70 -166t221 -96l276 -56q395 -82 395 -393q0 -192 -142 -306q-143 -114 -409 -114z" />
    <glyph glyph-name="scaron" unicode="&#x161;" horiz-adv-x="1056" 
d="M584 1219h-127l-260 321h129l194 -246l195 246h129zM537 -27q-406 0 -433 353h117q24 -250 320 -250q145 0 222 54t77 153q0 155 -211 192l-193 35q-152 28 -228 95q-75 66 -75 179q0 138 101 215q102 78 282 78t290 -83q109 -82 126 -236h-121q-33 221 -297 221
q-124 0 -195 -49t-71 -135q0 -74 52 -116q54 -43 165 -61l188 -36q305 -60 305 -289q0 -149 -111 -235q-110 -85 -310 -85z" />
    <glyph glyph-name="uni0162" unicode="&#x162;" horiz-adv-x="1318" 
d="M721 1350v-1350h-21l-82 -133h54q93 0 142 -42q50 -42 50 -120q0 -84 -66 -132t-186 -48h-71v78h63q164 0 164 98q0 84 -113 84h-88l-39 65l95 150h-27v1350h-508v108h1143v-108h-510z" />
    <glyph glyph-name="uni0163" unicode="&#x163;" horiz-adv-x="698" 
d="M637 961l-266 4v-723q0 -74 30 -106t103 -32h131v-104h-164h-22l-74 -117h55q92 0 142 -42q51 -43 51 -120q0 -83 -67 -132q-66 -48 -185 -48h-72v76h63q162 0 162 100q0 82 -112 82h-86l-39 68l92 145q-131 39 -131 215v738l-182 -4v96l182 -4v317h123v-317l266 4v-96z
" />
    <glyph glyph-name="Tcaron" unicode="&#x164;" horiz-adv-x="1318" 
d="M983 1958l-260 -324h-127l-260 324h129l194 -246l195 246h129zM88 1458h1143v-108h-510v-1350h-125v1350h-508v108z" />
    <glyph glyph-name="tcaron" unicode="&#x165;" horiz-adv-x="698" 
d="M637 1622h145l-166 -405h-94zM371 1370v-317l266 4v-96l-266 4v-723q0 -74 30 -106t103 -32h131v-104h-164q-223 0 -223 227v738l-182 -4v96l182 -4v317h123z" />
    <glyph glyph-name="Tbar" unicode="&#x166;" horiz-adv-x="1318" 
d="M1231 1458v-108h-510v-557l471 6v-109l-471 6v-696h-125v696l-469 -6v109l469 -6v557h-508v108h1143z" />
    <glyph glyph-name="tbar" unicode="&#x167;" horiz-adv-x="694" 
d="M633 1057v-96l-268 4v-363l268 4v-96l-268 6l2 -65v-209q0 -74 30 -106t103 -32h131v-104h-164q-223 0 -223 227v224l2 65l-185 -6v96l187 -4v363l-187 -4v96l185 -4l-2 45v272h123v-272l-2 -45z" />
    <glyph glyph-name="Utilde" unicode="&#x168;" horiz-adv-x="1490" 
d="M457 1653h-97q6 311 215 311q59 0 111 -32q53 -33 80 -74q68 -109 149 -109q57 0 86 50q28 49 33 165h96q-6 -311 -215 -311q-60 0 -109 31q-50 32 -77 77q-68 109 -154 109q-111 0 -118 -217zM1149 96q-146 -125 -404 -125q-257 0 -403 125q-147 123 -147 375v987h122
v-991q0 -385 428 -385q429 0 429 385v991h122v-987q0 -252 -147 -375z" />
    <glyph glyph-name="utilde" unicode="&#x169;" horiz-adv-x="1206" 
d="M434 1468q-112 0 -119 -217h-96q6 312 215 312q59 0 111 -32t80 -75q67 -108 149 -108q57 0 86 50q28 49 33 165h96q-6 -312 -215 -312q-59 0 -109 32t-77 77q-67 108 -154 108zM907 477v580h123v-1057h-117v205q-105 -232 -374 -232q-173 0 -268 98t-95 273v713h123
v-690q0 -285 264 -285q156 0 250 100t94 295z" />
    <glyph glyph-name="Umacron" unicode="&#x16a;" horiz-adv-x="1490" 
d="M1059 1700h-627v96h627v-96zM1149 96q-146 -125 -404 -125q-257 0 -403 125q-147 123 -147 375v987h122v-991q0 -385 428 -385q429 0 429 385v991h122v-987q0 -252 -147 -375z" />
    <glyph glyph-name="umacron" unicode="&#x16b;" horiz-adv-x="1206" 
d="M291 1395h627v-97h-627v97zM907 477v580h123v-1057h-117v205q-105 -232 -374 -232q-173 0 -268 98t-95 273v713h123v-690q0 -285 264 -285q156 0 250 100t94 295z" />
    <glyph glyph-name="Ubreve" unicode="&#x16c;" horiz-adv-x="1490" 
d="M743 1628q-315 0 -323 273h84q10 -189 241 -189t242 189h84q-7 -273 -328 -273zM1149 96q-146 -125 -404 -125q-257 0 -403 125q-147 123 -147 375v987h122v-991q0 -385 428 -385q429 0 429 385v991h122v-987q0 -252 -147 -375z" />
    <glyph glyph-name="ubreve" unicode="&#x16d;" horiz-adv-x="1206" 
d="M602 1227q-313 0 -323 274h83q10 -190 242 -190t242 190h84q-10 -274 -328 -274zM907 477v580h123v-1057h-117v205q-105 -232 -374 -232q-173 0 -268 98t-95 273v713h123v-690q0 -285 264 -285q156 0 250 100t94 295z" />
    <glyph glyph-name="Uring" unicode="&#x16e;" horiz-adv-x="1490" 
d="M930 1686q-74 -74 -185 -74q-110 0 -182 74q-74 69 -74 180q0 110 73 183t183 73q111 0 184 -73q72 -72 72 -183q0 -109 -71 -180zM625 1745q47 -45 120 -45q75 0 121 45q47 47 47 121q0 77 -47 124q-46 46 -121 46q-74 0 -120 -46q-47 -47 -47 -124q0 -74 47 -121z
M1149 96q-146 -125 -404 -125q-257 0 -403 125q-147 123 -147 375v987h122v-991q0 -385 428 -385q429 0 429 385v991h122v-987q0 -252 -147 -375z" />
    <glyph glyph-name="uring" unicode="&#x16f;" horiz-adv-x="1206" 
d="M788 1284q-74 -74 -184 -74q-113 0 -182 74q-74 72 -74 180q0 111 73 184q72 72 183 72t183 -72q73 -73 73 -184q0 -108 -72 -180zM725 1589q-47 45 -121 45t-121 -45q-47 -47 -47 -125q0 -75 47 -122q46 -46 121 -46t121 46q47 47 47 122q0 78 -47 125zM907 477v580h123
v-1057h-117v205q-105 -232 -374 -232q-173 0 -268 98t-95 273v713h123v-690q0 -285 264 -285q156 0 250 100t94 295z" />
    <glyph glyph-name="Uhungarumlaut" unicode="&#x170;" horiz-adv-x="1490" 
d="M573 1618h-108l203 334h143zM946 1618h-108l217 334h145zM1149 96q-146 -125 -404 -125q-257 0 -403 125q-147 123 -147 375v987h122v-991q0 -385 428 -385q429 0 429 385v991h122v-987q0 -252 -147 -375z" />
    <glyph glyph-name="uhungarumlaut" unicode="&#x171;" horiz-adv-x="1206" 
d="M526 1550h144l-238 -333h-108zM913 1550h146l-254 -333h-109zM907 477v580h123v-1057h-117v205q-105 -232 -374 -232q-173 0 -268 98t-95 273v713h123v-690q0 -285 264 -285q156 0 250 100t94 295z" />
    <glyph glyph-name="Uogonek" unicode="&#x172;" horiz-adv-x="1490" 
d="M1174 467v991h122v-987q0 -212 -103 -333t-298 -154l-129 -76q-102 -60 -102 -133q0 -105 145 -105h70v-90h-97q-115 0 -173 46t-58 128q0 122 154 199l34 18q-256 1 -401 128q-143 125 -143 372v987h122v-991q0 -385 428 -385q429 0 429 385z" />
    <glyph glyph-name="uogonek" unicode="&#x173;" horiz-adv-x="1206" 
d="M1030 -8l-143 -82q-103 -61 -103 -129q0 -103 144 -103h71v-90h-98q-113 0 -171 45t-58 127q0 117 151 195l113 57l-18 221q-102 -239 -375 -239q-174 0 -275 100q-92 95 -92 285v678h123v-670q0 -139 66 -211q72 -74 198 -74q155 0 250 101q94 100 94 295v559h123v-1065
z" />
    <glyph glyph-name="Wcircumflex" unicode="&#x174;" horiz-adv-x="1939" 
d="M1165 1620l-194 248l-195 -248h-129l260 324h127l260 -324h-129zM1452 444l291 1014h127l-426 -1462h-117l-362 1323l-363 -1323h-117l-415 1462h127l282 -1014l68 -278l67 278l281 1014h137l281 -1014l69 -278z" />
    <glyph glyph-name="wcircumflex" unicode="&#x175;" horiz-adv-x="1572" 
d="M981 1219l-195 247l-194 -247h-129l260 323h127l260 -323h-129zM1157 334l221 723h127l-344 -1057h-123l-204 745l-46 205l-47 -205l-211 -745h-124l-338 1057h133l217 -723l53 -205l49 205l203 723h131l205 -723l47 -201z" />
    <glyph glyph-name="Ycircumflex" unicode="&#x176;" horiz-adv-x="1386" 
d="M889 1620l-195 248l-194 -248h-129l260 324h127l260 -324h-129zM1196 1458h141l-575 -862v-596h-125v594l-588 864h150l456 -690l45 -76l43 76z" />
    <glyph glyph-name="ycircumflex" unicode="&#x177;" horiz-adv-x="1107" 
d="M750 1219l-195 247l-195 -247h-129l261 323h126l261 -323h-129zM559 106l354 951h127l-499 -1280q-45 -111 -107 -153q-61 -42 -176 -42h-90v105h80q88 0 127 29q42 31 76 116l59 152l-442 1073h133l340 -854z" />
    <glyph glyph-name="Ydieresis" unicode="&#x178;" horiz-adv-x="1386" 
d="M416 1829h139v-170h-139v170zM834 1829h139v-170h-139v170zM1196 1458h141l-575 -862v-596h-125v594l-588 864h150l456 -690l45 -76l43 76z" />
    <glyph glyph-name="Zacute" unicode="&#x179;" horiz-adv-x="1386" 
d="M791 1944h165l-262 -312h-110zM1221 1358l-940 -1245h970v-113h-1116v121l928 1225h-875v112h1033v-100z" />
    <glyph glyph-name="zacute" unicode="&#x17a;" horiz-adv-x="1079" 
d="M637 1542h166l-262 -311h-111zM934 979l-678 -879h713v-100h-858v88l671 868h-645v101h797v-78z" />
    <glyph glyph-name="Zdotaccent" unicode="&#x17b;" horiz-adv-x="1386" 
d="M625 1829h139v-170h-139v170zM1221 1358l-940 -1245h970v-113h-1116v121l928 1225h-875v112h1033v-100z" />
    <glyph glyph-name="zdotaccent" unicode="&#x17c;" horiz-adv-x="1079" 
d="M471 1458h139v-168h-139v168zM934 979l-678 -879h713v-100h-858v88l671 868h-645v101h797v-78z" />
    <glyph glyph-name="Zcaron" unicode="&#x17d;" horiz-adv-x="1386" 
d="M1018 1958l-260 -324h-127l-260 324h129l194 -246l195 246h129zM1221 1358l-940 -1245h970v-113h-1116v121l928 1225h-875v112h1033v-100z" />
    <glyph glyph-name="zcaron" unicode="&#x17e;" horiz-adv-x="1079" 
d="M864 1540l-260 -321h-127l-260 321h129l195 -246l194 246h129zM934 979l-678 -879h713v-100h-858v88l671 868h-645v101h797v-78z" />
    <glyph glyph-name="uni018F" unicode="&#x18f;" horiz-adv-x="1654" 
d="M815 1485q313 0 504 -207q188 -206 188 -551q0 -338 -184 -549q-186 -211 -500 -211q-311 0 -491 205q-186 210 -187 516q0 33 2 53h1235q-1 290 -155 463q-153 168 -414 168q-345 0 -469 -291h-135q73 194 229 298q159 106 377 106zM825 82q238 0 384 146
q147 146 169 403h-1102q15 -242 162 -395q145 -154 387 -154z" />
    <glyph glyph-name="florin" unicode="&#x192;" 
d="M1010 1458h123l-21 -102h-98q-83 0 -123 -40q-43 -43 -60 -138l-67 -347l246 5l-21 -97l-241 4l-152 -780q-29 -142 -99 -205q-71 -63 -200 -63h-119l21 102h94q81 0 121 39t61 137l150 770l-236 -4l19 97l233 -5l70 359q29 142 99 205t200 63z" />
    <glyph glyph-name="uni01F4" unicode="&#x1f4;" horiz-adv-x="1665" 
d="M928 1944h166l-263 -312h-110zM848 643v109h622v-752h-94l-22 272q-157 -301 -531 -301q-306 0 -491 209q-187 207 -187 553q0 342 183 549q180 205 501 205q252 0 418 -121q165 -121 203 -334l-119 -8q-30 163 -160 258q-128 94 -335 94q-264 0 -414 -172t-150 -475
q0 -289 148 -469q145 -178 405 -178q216 0 353 122t170 341v98h-500z" />
    <glyph glyph-name="uni01F5" unicode="&#x1f5;" horiz-adv-x="1230" 
d="M664 1542h165l-262 -311h-110zM940 834v223h115v-1045q0 -222 -123 -333t-350 -111q-186 0 -299 78t-131 209h118q46 -189 316 -189q179 0 264 82q86 83 86 254v215q-50 -109 -146 -174q-98 -66 -223 -66q-211 0 -334 158q-122 155 -122 406q0 245 125 391
q123 147 327 147q131 0 232 -66q100 -65 145 -179zM578 84q159 0 257 123q97 122 97 330q0 207 -96 321q-100 115 -258 115q-160 0 -252 -113q-93 -116 -93 -319q0 -206 93 -333q91 -124 252 -124z" />
    <glyph glyph-name="Aringacute" unicode="&#x1fa;" horiz-adv-x="1466" 
d="M825 2261h166l-260 -307h-110zM1397 0h-137l-181 457h-694l-182 -457h-133l569 1393q-76 27 -121 90t-45 147q0 112 72 184t184 72q110 0 182 -72t72 -184q0 -80 -42 -141q-42 -62 -112 -92zM561 1630q0 -73 47 -120q46 -46 121 -46q74 0 120 46t46 120q0 78 -46 124
t-120 46q-75 0 -121 -46q-47 -47 -47 -124zM702 1249l-274 -684h608l-268 684l-33 103z" />
    <glyph glyph-name="aringacute" unicode="&#x1fb;" horiz-adv-x="1175" 
d="M678 2118h166l-262 -312h-111zM580 1194q-110 0 -183 73q-71 71 -71 181q0 112 71 183q73 73 183 73q111 0 184 -73q72 -72 72 -183q0 -109 -72 -181q-73 -73 -184 -73zM580 1618q-74 0 -120 -46t-46 -124q0 -75 47 -122q46 -46 119 -46q74 0 120 46q48 48 48 122
q0 76 -48 124q-46 46 -120 46zM1110 94h33v-94h-68q-102 0 -149 47q-48 48 -52 152q-50 -106 -155 -165q-108 -61 -248 -61q-168 0 -262 82t-94 221q0 269 344 316l266 35q75 12 104 42q29 31 29 87v26q0 201 -285 201q-139 0 -209 -53q-69 -52 -81 -172h-123
q27 327 422 327q196 0 298 -81q103 -82 103 -232v-532q0 -79 28 -113q27 -33 99 -33zM492 72q149 0 250 82t116 221v194q-28 -20 -86 -28l-293 -43q-243 -34 -243 -217q0 -96 67 -153q66 -56 189 -56z" />
    <glyph glyph-name="AEacute" unicode="&#x1fc;" horiz-adv-x="2324" 
d="M1370 1944h166l-262 -312h-111zM1282 702v-593h901v-109h-1026v430h-688l-268 -430h-131l907 1458h1180v-108h-875v-539h813v-109h-813zM1044 1356l-512 -824h625v824h-113z" />
    <glyph glyph-name="aeacute" unicode="&#x1fd;" horiz-adv-x="1912" 
d="M1055 1542h166l-263 -311h-110zM1804 565v-53h-831q0 -206 98 -319q100 -115 270 -115q254 0 336 241l111 -16q-43 -149 -162 -238q-121 -90 -289 -90q-148 0 -256 69q-107 69 -163 198q-114 -269 -433 -269q-171 0 -271 86q-99 85 -99 230q0 143 99 228q98 85 286 85
h356v146q0 112 -74 174q-73 61 -219 61q-136 0 -202 -54q-65 -53 -80 -171h-121q27 327 411 327q306 0 375 -208q122 204 385 204q217 0 346 -141q127 -143 127 -375zM1333 979q-157 0 -251 -99q-95 -100 -107 -278h713q-12 177 -105 278q-91 99 -250 99zM496 72
q158 0 258 94q101 95 102 256v90l-364 -10q-124 -1 -191 -59q-65 -56 -65 -154q0 -101 69 -159q68 -58 191 -58z" />
    <glyph glyph-name="Oslashacute" unicode="&#x1fe;" horiz-adv-x="1652" 
d="M922 1944h165l-262 -312h-110zM1497 1415l-149 -174q159 -205 159 -512q0 -335 -186 -547q-189 -213 -496 -213q-262 0 -442 162l-131 -149l-70 59l137 158q-174 207 -174 530q0 332 189 545q186 211 491 211q276 0 459 -174l143 164zM272 729q0 -263 127 -438l807 930
q-151 151 -381 151q-249 0 -401 -176t-152 -467zM825 82q253 0 404 178q151 175 151 469q0 250 -114 418l-805 -926q151 -139 364 -139z" />
    <glyph glyph-name="oslashacute" unicode="&#x1ff;" horiz-adv-x="1210" 
d="M707 1559h165l-262 -312h-110zM1081 1028l-98 -117q119 -146 119 -379q0 -251 -137 -403q-136 -156 -359 -156q-189 0 -317 113l-94 -113l-70 56l102 121q-116 149 -116 378q0 255 137 406q136 149 360 149q186 0 314 -108l92 108zM233 528q0 -172 72 -286l545 647
q-96 90 -244 90q-171 0 -272 -122t-101 -329zM606 78q172 0 273 123q100 122 100 331q0 175 -72 289l-547 -649q95 -94 246 -94z" />
    <glyph glyph-name="uni0218" unicode="&#x218;" horiz-adv-x="1366" 
d="M578 840l276 -56q395 -82 395 -393q0 -192 -142 -306q-143 -114 -409 -114q-537 0 -581 482h119q33 -377 466 -377q208 0 317 81t109 228q0 118 -75 186q-79 71 -246 105l-246 49q-393 79 -393 369q0 180 135 286q136 107 373 107q235 0 376 -111q139 -109 154 -311h-119
q-12 155 -120 237q-107 82 -295 82q-183 0 -284 -74t-101 -208q0 -103 70 -166t221 -96zM725 -281l-109 -8v123h166v-201q0 -122 -116 -122h-50v57h48q61 0 61 57v94z" />
    <glyph glyph-name="uni0219" unicode="&#x219;" horiz-adv-x="1056" 
d="M465 618l188 -36q305 -60 305 -289q0 -149 -111 -235q-110 -85 -310 -85q-406 0 -433 353h117q24 -250 320 -250q145 0 222 54t77 153q0 155 -211 192l-193 35q-152 28 -228 95q-75 66 -75 179q0 138 101 215q102 78 282 78t290 -83q109 -82 126 -236h-121
q-33 221 -297 221q-124 0 -195 -49t-71 -135q0 -74 52 -116q54 -43 165 -61zM563 -274l-110 -9v125h168v-200q0 -125 -119 -125h-49v57h49q61 0 61 57v95z" />
    <glyph glyph-name="uni021A" unicode="&#x21a;" horiz-adv-x="1318" 
d="M88 1350v108h1143v-108h-510v-1350h-125v1350h-508zM686 -266l-108 -8v122h165v-200q0 -123 -116 -123h-49v57h47q61 0 61 58v94z" />
    <glyph glyph-name="uni021B" unicode="&#x21b;" horiz-adv-x="698" 
d="M637 961l-266 4v-723q0 -74 30 -106t103 -32h131v-104h-164q-223 0 -223 227v738l-182 -4v96l182 -4v317h123v-317l266 4v-96zM342 -250l-109 -8v123h166v-201q0 -123 -116 -123h-50v58h48q61 0 61 57v94z" />
    <glyph glyph-name="uni0237" unicode="&#x237;" horiz-adv-x="475" 
d="M12 -418h-51v105h49q88 0 127 39t39 129v1202h123v-1186q0 -149 -70 -219t-217 -70z" />
    <glyph glyph-name="uni0259" unicode="&#x259;" horiz-adv-x="1173" 
d="M575 1081q223 0 357 -153q131 -152 131 -404q0 -248 -127 -399q-129 -150 -354 -150q-216 0 -344 142q-127 143 -127 375v53h829q0 206 -98 319q-100 115 -271 115q-252 0 -335 -242l-111 17q43 149 162 238t288 89zM580 78q155 0 251 99q97 100 107 278h-713
q12 -177 105 -278q92 -99 250 -99z" />
    <glyph glyph-name="h.sups" unicode="&#x2b0;" horiz-adv-x="993" 
d="M549 1475q130 0 199 -69t69 -198v-446h-102v426q0 192 -199 192q-109 0 -173 -65t-64 -180v-373h-103v962h103v-409q74 160 270 160z" />
    <glyph glyph-name="r.sups" unicode="&#x2b3;" horiz-adv-x="630" 
d="M528 1468h64v-98h-64q-249 0 -249 -266v-342h-103v696h96l4 -151q63 161 252 161z" />
    <glyph glyph-name="circumflex" unicode="&#x2c6;" horiz-adv-x="1024" 
d="M317 1219h-129l261 323h126l261 -323h-129l-195 247z" />
    <glyph glyph-name="caron" unicode="&#x2c7;" horiz-adv-x="1024" 
d="M575 1219h-126l-261 321h129l195 -246l195 246h129z" />
    <glyph glyph-name="uni02C9" unicode="&#x2c9;" horiz-adv-x="1024" 
d="M825 1298h-626v97h626v-97z" />
    <glyph glyph-name="breve" unicode="&#x2d8;" horiz-adv-x="1024" 
d="M510 1266q-314 0 -324 274h84q7 -190 242 -190t242 190h84q-10 -274 -328 -274z" />
    <glyph glyph-name="dotaccent" unicode="&#x2d9;" horiz-adv-x="1024" 
d="M582 1290h-140v168h140v-168z" />
    <glyph glyph-name="ring" unicode="&#x2da;" horiz-adv-x="1024" 
d="M696 1284q-74 -74 -184 -74t-182 74q-74 72 -74 180q0 111 73 184q72 72 183 72t183 -72q73 -73 73 -184q0 -108 -72 -180zM391 1343q47 -45 121 -45t121 45q47 47 47 121q0 77 -47 124q-46 46 -121 46t-121 -46q-47 -47 -47 -124q0 -74 47 -121z" />
    <glyph glyph-name="ogonek" unicode="&#x2db;" horiz-adv-x="1024" 
d="M676 -412h-96q-115 0 -173 46q-59 47 -59 128q0 122 154 199l121 64l84 -25l-144 -84q-102 -60 -102 -133q0 -105 145 -105h70v-90z" />
    <glyph glyph-name="tilde" unicode="&#x2dc;" horiz-adv-x="1024" 
d="M223 1300h-96q6 312 215 312q59 0 111 -32q50 -31 79 -75q68 -108 150 -108q57 0 86 50q28 49 33 165h96q-6 -312 -215 -312q-60 0 -110 32q-48 31 -76 77q-68 109 -154 109q-111 0 -119 -218z" />
    <glyph glyph-name="hungarumlaut" unicode="&#x2dd;" horiz-adv-x="1024" 
d="M260 1217h-108l202 333h144zM633 1217h-109l217 333h146z" />
    <glyph glyph-name="s.sups" unicode="&#x2e2;" horiz-adv-x="880" 
d="M451 741q-303 0 -340 217l96 11q21 -148 248 -148q223 0 223 127q0 95 -164 113l-152 16q-229 27 -229 191q0 98 80 151q82 54 217 54t218 -53q84 -53 100 -148l-93 -10q-27 131 -229 131q-199 0 -199 -121q0 -87 144 -105l174 -22q227 -27 227 -187q0 -103 -85 -160
t-236 -57z" />
    <glyph glyph-name="gravecomb" unicode="&#x300;" horiz-adv-x="0" 
d="M98 1231h-110l-262 311h168z" />
    <glyph glyph-name="acutecomb" unicode="&#x301;" horiz-adv-x="0" 
d="M2 1231h-111l207 311h166z" />
    <glyph glyph-name="uni0302" unicode="&#x302;" horiz-adv-x="0" 
d="M-195 1219h-129l261 323h126l261 -323h-129l-195 247z" />
    <glyph glyph-name="tildecomb" unicode="&#x303;" horiz-adv-x="0" 
d="M-289 1300h-96q6 312 215 312q59 0 111 -32q50 -31 79 -75q68 -108 150 -108q57 0 86 50q28 49 33 165h96q-6 -312 -215 -312q-60 0 -110 32q-49 31 -78 77q-64 109 -152 109q-111 0 -119 -218z" />
    <glyph glyph-name="uni0304" unicode="&#x304;" horiz-adv-x="0" 
d="M313 1298h-626v97h626v-97z" />
    <glyph glyph-name="uni0306" unicode="&#x306;" horiz-adv-x="0" 
d="M-2 1266q-314 0 -324 274h84q7 -190 242 -190t242 190h84q-10 -274 -328 -274z" />
    <glyph glyph-name="uni0307" unicode="&#x307;" horiz-adv-x="0" 
d="M70 1290h-140v168h140v-168z" />
    <glyph glyph-name="uni0308" unicode="&#x308;" horiz-adv-x="0" 
d="M-139 1290h-140v168h140v-168zM279 1290h-140v168h140v-168z" />
    <glyph glyph-name="uni030A" unicode="&#x30a;" horiz-adv-x="0" 
d="M184 1284q-74 -74 -184 -74t-184 74q-72 72 -72 180q0 111 73 184q72 72 183 72t183 -72q73 -73 73 -184q0 -108 -72 -180zM-121 1343q47 -45 121 -45t121 45q47 47 47 121q0 77 -47 124q-46 46 -121 46t-121 -46q-47 -47 -47 -124q0 -74 47 -121z" />
    <glyph glyph-name="uni030B" unicode="&#x30b;" horiz-adv-x="0" 
d="M-172 1217h-109l203 333h144zM201 1217h-109l217 333h146z" />
    <glyph glyph-name="uni030C" unicode="&#x30c;" horiz-adv-x="0" 
d="M63 1219h-126l-261 321h129l195 -246l195 246h129z" />
    <glyph glyph-name="uni0312" unicode="&#x312;" horiz-adv-x="0" 
d="M82 1550h-47q-60 0 -60 -57v-86l107 10v-125h-164v191q0 125 115 125h49v-58z" />
    <glyph glyph-name="uni0313" unicode="&#x313;" horiz-adv-x="0" 
d="M-82 1483v125h164v-191q0 -125 -115 -125h-49v58h47q60 0 60 57v84z" />
    <glyph glyph-name="dotbelowcomb" unicode="&#x323;" horiz-adv-x="0" 
d="M70 -381h-140v168h140v-168z" />
    <glyph glyph-name="uni0324" unicode="&#x324;" horiz-adv-x="0" 
d="M-139 -371h-140v170h140v-170zM279 -371h-140v170h140v-170z" />
    <glyph glyph-name="uni0325" unicode="&#x325;" horiz-adv-x="0" 
d="M184 -592q-76 -72 -184 -72t-184 72q-72 76 -72 184q0 109 73 182q72 72 183 72t183 -72q73 -73 73 -182q0 -108 -72 -184zM-121 -532q48 -46 121 -46t121 46q47 47 47 124q0 75 -47 122q-46 46 -121 46t-121 -46q-47 -47 -47 -122q0 -77 47 -124z" />
    <glyph glyph-name="uni0326" unicode="&#x326;" horiz-adv-x="0" 
d="M-84 -274v122h166v-200q0 -123 -117 -123h-49v57h47q62 0 62 58v94z" />
    <glyph glyph-name="uni0327" unicode="&#x327;" horiz-adv-x="0" 
d="M-43 -475h-72v78h64q162 0 162 98q0 84 -113 84h-86l-39 65l94 150h78l-84 -133h55q94 0 143 -42q50 -42 50 -120q0 -83 -67 -132q-66 -48 -185 -48z" />
    <glyph glyph-name="uni0328" unicode="&#x328;" horiz-adv-x="0" 
d="M-31 -412h-96q-115 0 -173 46t-58 128q0 122 153 199l121 64l84 -25l-143 -84q-103 -61 -103 -133q0 -105 146 -105h69v-90z" />
    <glyph glyph-name="uni032E" unicode="&#x32e;" horiz-adv-x="0" 
d="M-2 -442q-317 0 -324 272h84q7 -190 242 -190t242 190h84q-7 -272 -328 -272z" />
    <glyph glyph-name="uni0331" unicode="&#x331;" horiz-adv-x="0" 
d="M313 -338h-626v96h626v-96z" />
    <glyph glyph-name="uni0335" unicode="&#x335;" horiz-adv-x="0" 
d="M-287 721l-286 -6v96l286 -6l285 6v-96z" />
    <glyph glyph-name="uni0337" unicode="&#x337;" horiz-adv-x="0" 
d="M500 1057l-932 -1075l-68 59l932 1075z" />
    <glyph glyph-name="uni0338" unicode="&#x338;" horiz-adv-x="0" 
d="M657 1415l-1245 -1433l-69 59l1245 1434z" />
    <glyph glyph-name="uni0394" unicode="&#x394;" horiz-adv-x="1466" 
d="M668 1462h135l594 -1462h-1327zM702 1249l-456 -1140h971l-449 1140l-31 99z" />
    <glyph glyph-name="uni03A9" unicode="&#x3a9;" horiz-adv-x="1671" 
d="M729 0h-584v109h410v4q-190 112 -291 281q-102 171 -102 388q0 328 186 514q189 189 488 189q300 0 483 -189q182 -188 182 -514q0 -219 -100 -391q-100 -171 -285 -278v-4h408v-109h-582v98q434 228 434 684q0 282 -144 436t-396 154q-246 0 -398 -153
q-149 -155 -149 -437q0 -454 440 -684v-98z" />
    <glyph glyph-name="uni03BC" unicode="&#x3bc;" horiz-adv-x="1206" 
d="M299 -418h-123v1475h123v-690q0 -137 68 -211t196 -74q156 0 250 100t94 295v580h123v-1057h-119l7 209q-105 -236 -369 -236q-189 0 -273 140l-4 -4l27 -312v-215z" />
    <glyph glyph-name="pi" unicode="&#x3c0;" horiz-adv-x="1345" 
d="M1284 1057v-115h-258v-672q0 -92 35 -130t125 -38h39v-102h-60q-134 0 -197 65q-63 64 -63 209v668h-477v-942h-121v942h-241v115h1218z" />
    <glyph glyph-name="d.sups" unicode="&#x1d48;" horiz-adv-x="999" 
d="M721 1339v385h102v-962h-86l-8 139q-85 -156 -283 -156q-151 0 -243 101t-92 268q0 164 92 264q91 99 246 99q189 0 272 -138zM469 827q119 0 188 77q70 78 70 208q0 132 -71 208q-70 75 -193 75q-118 0 -185 -73t-67 -208q0 -134 68 -211q67 -76 190 -76z" />
    <glyph glyph-name="t.sups" unicode="&#x1d57;" horiz-adv-x="589" 
d="M528 1460v-90l-192 2v-426q0 -102 106 -102h84v-82h-112q-91 0 -135 41q-43 40 -43 131v438l-170 -2v90l170 -4v209h100v-209z" />
    <glyph glyph-name="Wgrave" unicode="&#x1e80;" horiz-adv-x="1939" 
d="M862 1944l205 -312h-111l-262 312h168zM1452 444l291 1014h127l-426 -1462h-117l-362 1323l-363 -1323h-117l-415 1462h127l282 -1014l68 -278l67 278l281 1014h137l281 -1014l69 -278z" />
    <glyph glyph-name="wgrave" unicode="&#x1e81;" horiz-adv-x="1572" 
d="M678 1542l205 -311h-111l-262 311h168zM1157 334l221 723h127l-344 -1057h-123l-204 745l-46 205l-47 -205l-211 -745h-124l-338 1057h133l217 -723l53 -205l49 205l203 723h131l205 -723l47 -201z" />
    <glyph glyph-name="Wacute" unicode="&#x1e82;" horiz-adv-x="1939" 
d="M1067 1944h166l-262 -312h-111zM1452 444l291 1014h127l-426 -1462h-117l-362 1323l-363 -1323h-117l-415 1462h127l282 -1014l68 -278l67 278l281 1014h137l281 -1014l69 -278z" />
    <glyph glyph-name="wacute" unicode="&#x1e83;" horiz-adv-x="1572" 
d="M883 1542h166l-263 -311h-110zM1157 334l221 723h127l-344 -1057h-123l-204 745l-46 205l-47 -205l-211 -745h-124l-338 1057h133l217 -723l53 -205l49 205l203 723h131l205 -723l47 -201z" />
    <glyph glyph-name="Wdieresis" unicode="&#x1e84;" horiz-adv-x="1939" 
d="M692 1829h139v-170h-139v170zM1110 1829h139v-170h-139v170zM1452 444l291 1014h127l-426 -1462h-117l-362 1323l-363 -1323h-117l-415 1462h127l282 -1014l68 -278l67 278l281 1014h137l281 -1014l69 -278z" />
    <glyph glyph-name="wdieresis" unicode="&#x1e85;" horiz-adv-x="1572" 
d="M508 1458h139v-168h-139v168zM926 1458h139v-168h-139v168zM1157 334l221 723h127l-344 -1057h-123l-204 745l-46 205l-47 -205l-211 -745h-124l-338 1057h133l217 -723l53 -205l49 205l203 723h131l205 -723l47 -201z" />
    <glyph glyph-name="uni1E9E" unicode="&#x1e9e;" horiz-adv-x="1413" 
d="M1241 1352l-432 -514q227 -4 360 -118q134 -114 134 -306q0 -203 -136 -319q-134 -115 -374 -115q-130 0 -265 30v109q133 -31 260 -31q191 0 290 84q100 85 100 242q0 148 -104 231q-103 82 -288 82q-76 0 -129 -8v104l437 529q-153 16 -334 16q-233 0 -338 -105
t-105 -319v-944h-122v944q0 535 563 535q278 0 483 -33v-94z" />
    <glyph glyph-name="Ygrave" unicode="&#x1ef2;" horiz-adv-x="1386" 
d="M586 1944l205 -312h-111l-262 312h168zM1196 1458h141l-575 -862v-596h-125v594l-588 864h150l456 -690l45 -76l43 76z" />
    <glyph glyph-name="ygrave" unicode="&#x1ef3;" horiz-adv-x="1107" 
d="M449 1542l204 -311h-110l-262 311h168zM559 106l354 951h127l-499 -1280q-45 -111 -107 -153q-61 -42 -176 -42h-90v105h80q88 0 127 29q42 31 76 116l59 152l-442 1073h133l340 -854z" />
    <glyph glyph-name="thinspace" unicode="&#x2009;" horiz-adv-x="475" 
 />
    <glyph glyph-name="uni2011" unicode="&#x2011;" horiz-adv-x="774" 
d="M674 455h-574v112h574v-112z" />
    <glyph glyph-name="endash" unicode="&#x2013;" horiz-adv-x="1091" 
d="M991 455h-891v112h891v-112z" />
    <glyph glyph-name="emdash" unicode="&#x2014;" horiz-adv-x="1693" 
d="M1593 455h-1493v112h1493v-112z" />
    <glyph glyph-name="quoteleft" unicode="&#x2018;" horiz-adv-x="376" 
d="M287 1010h-178v284q0 170 159 170h19v-71h-19q-86 0 -86 -84v-150l105 10v-159z" />
    <glyph glyph-name="quoteright" unicode="&#x2019;" horiz-adv-x="376" 
d="M109 1006h-17v69h19q84 0 84 86v150l-105 -11v158h178v-282q0 -170 -159 -170z" />
    <glyph glyph-name="quotesinglbase" unicode="&#x201a;" horiz-adv-x="557" 
d="M209 -297h-19v70h19q86 0 86 86v149l-105 -10v158h179v-283q0 -170 -160 -170z" />
    <glyph glyph-name="quotedblleft" unicode="&#x201c;" horiz-adv-x="698" 
d="M287 1010h-178v282q0 172 159 172h19v-71h-19q-86 0 -86 -86v-150l105 10v-157zM608 1012h-178v282q0 170 160 170h16v-69h-18q-84 0 -84 -86v-150l104 10v-157z" />
    <glyph glyph-name="quotedblright" unicode="&#x201d;" horiz-adv-x="698" 
d="M109 1006h-17v69h19q84 0 84 86v150l-105 -11v158h178v-282q0 -170 -159 -170zM430 1006h-18v69h18q86 0 86 86v150l-104 -11v158h178v-282q0 -170 -160 -170z" />
    <glyph glyph-name="quotedblbase" unicode="&#x201e;" horiz-adv-x="874" 
d="M209 -297h-19v72h19q86 0 86 84v149l-105 -10v160h179v-285q0 -170 -160 -170zM526 -297h-18v70h18q86 0 86 86v149l-106 -10v158h180v-283q0 -170 -160 -170z" />
    <glyph glyph-name="dagger" unicode="&#x2020;" horiz-adv-x="1300" 
d="M711 1190l395 6v-111l-395 7v-1307h-121v1307l-395 -7v111l395 -6v551h121v-551z" />
    <glyph glyph-name="daggerdbl" unicode="&#x2021;" horiz-adv-x="1300" 
d="M1106 1196v-111l-395 7v-650l395 7v-111l-395 6v-559h-121v559l-395 -6v111l395 -7v650l-395 -7v111l395 -6v551h121v-551z" />
    <glyph glyph-name="bullet" unicode="&#x2022;" horiz-adv-x="706" 
d="M512 442h-317v277h317v-277z" />
    <glyph glyph-name="ellipsis" unicode="&#x2026;" horiz-adv-x="1611" 
d="M358 0h-182v160h182v-160zM897 0h-182v160h182v-160zM1436 0h-185v160h185v-160z" />
    <glyph glyph-name="perthousand" unicode="&#x2030;" horiz-adv-x="3485" 
d="M559 633q-181 0 -272 117q-92 118 -92 342t92 342q91 116 272 116q369 0 369 -458q0 -459 -369 -459zM840 -31h-125l917 1520h121zM559 729q131 0 194 88q62 87 62 275q0 362 -256 362q-254 0 -254 -362q0 -186 63 -275q63 -88 191 -88zM1962 -25q-180 0 -273 117
q-94 118 -94 342q0 459 367 459t367 -459t-367 -459zM2922 -25q-180 0 -273 117t-93 342q0 459 366 459q369 0 369 -459t-369 -459zM1962 72q256 0 256 362q0 363 -256 363q-129 0 -192 -88q-62 -87 -62 -275q0 -189 62 -275q63 -87 192 -87zM2922 72q131 0 194 88
q62 87 62 274q0 363 -256 363q-253 0 -253 -363q0 -187 62 -274q63 -88 191 -88z" />
    <glyph glyph-name="guilsinglleft" unicode="&#x2039;" horiz-adv-x="864" 
d="M688 119v-139l-512 479v135l512 479v-139l-432 -408z" />
    <glyph glyph-name="guilsinglright" unicode="&#x203a;" horiz-adv-x="864" 
d="M688 459l-512 -479v139l432 407l-432 408v139l512 -479v-135z" />
    <glyph glyph-name="uni203D" unicode="&#x203d;" horiz-adv-x="1245" 
d="M616 1479q223 0 354 -104q130 -103 130 -290q0 -221 -219 -356l-84 -51q-82 -51 -109 -100q-34 -53 -41 -158l-2 -68h-82l-22 549v209h125v-209l-9 -221q29 33 119 96q207 127 207 307q0 146 -97 221q-96 74 -270 74q-368 0 -380 -356h-119q11 220 137 338
q128 119 362 119zM682 0h-156v154h156v-154z" />
    <glyph glyph-name="fraction" unicode="&#x2044;" horiz-adv-x="665" 
d="M-61 -31h-125l917 1520h123z" />
    <glyph glyph-name="zero.sups" unicode="&#x2070;" horiz-adv-x="925" 
d="M463 737q-181 0 -274 117t-93 342q0 459 367 459q366 0 366 -459t-366 -459zM463 834q256 0 256 362q0 363 -256 363q-129 0 -192 -89q-62 -87 -62 -274q0 -189 62 -275q63 -87 192 -87z" />
    <glyph glyph-name="four.sups" unicode="&#x2074;" horiz-adv-x="901" 
d="M659 762h-104v219l-469 -2v92l463 565h110v-573l156 2v-86l-156 2v-219zM551 1509l-367 -444l371 -2v446h-4z" />
    <glyph glyph-name="five.sups" unicode="&#x2075;" horiz-adv-x="897" 
d="M442 733q-132 0 -221 57t-117 154l107 25q44 -144 233 -144q113 0 178 56q64 55 64 149t-63 151q-62 56 -174 56q-140 0 -209 -88l-113 25l88 462h518v-90h-442l-53 -299l4 -2q83 80 229 80q152 0 238 -80t86 -211q0 -132 -96 -217q-95 -84 -257 -84z" />
    <glyph glyph-name="six.sups" unicode="&#x2076;" horiz-adv-x="899" 
d="M463 737q-361 0 -361 434q0 234 94 360q93 124 271 124q113 0 193 -51t110 -144l-102 -28q-46 133 -201 133q-254 0 -262 -365q89 125 274 125q147 0 232 -78q86 -78 86 -209q0 -136 -90 -219q-89 -82 -244 -82zM291 889q67 -62 172 -62q106 0 168 56q59 55 59 151
q0 92 -60 148q-59 55 -165 55q-98 0 -165 -47t-83 -123q6 -121 74 -178z" />
    <glyph glyph-name="seven.sups" unicode="&#x2077;" horiz-adv-x="768" 
d="M313 762h-110q37 487 381 784h-533v90h666v-86q-371 -299 -404 -788z" />
    <glyph glyph-name="eight.sups" unicode="&#x2078;" horiz-adv-x="923" 
d="M463 745q-165 0 -264 72t-99 195q0 80 54 142q52 60 145 81v4q-72 22 -117 73q-43 49 -43 118q0 104 87 164q88 61 237 61q146 0 234 -61q87 -60 87 -164q0 -69 -43 -119q-44 -51 -116 -72v-4q94 -21 146 -80t52 -143q0 -124 -98 -195q-99 -72 -262 -72zM463 1272
q103 0 160 39t57 110q0 72 -57 111t-160 39q-105 0 -162 -39t-57 -111q0 -71 57 -110t162 -39zM276 881q68 -50 187 -50q118 0 186 50q66 49 66 135q0 174 -252 174q-123 0 -189 -45q-65 -44 -65 -129q0 -86 67 -135z" />
    <glyph glyph-name="nine.sups" unicode="&#x2079;" horiz-adv-x="899" 
d="M432 737q-116 0 -196 53q-81 53 -109 144l104 27q47 -134 201 -134q251 0 262 367q-86 -125 -274 -125q-146 0 -232 77t-86 208q0 136 91 219q89 82 243 82q180 0 271 -112q90 -111 90 -320q0 -235 -94 -361q-93 -125 -271 -125zM434 1155q98 0 165 47q66 47 83 125
q-6 113 -73 177q-66 63 -175 63q-105 0 -165 -57t-60 -150q0 -94 60 -150q59 -55 165 -55z" />
    <glyph glyph-name="plus.sups" unicode="&#x207a;" horiz-adv-x="1091" 
d="M594 1176h375v-86h-375v-328h-94v328h-373v86h373v327h94v-327z" />
    <glyph glyph-name="minus.sups" unicode="&#x207b;" horiz-adv-x="1067" 
d="M944 1085h-817v89h817v-89z" />
    <glyph glyph-name="parenleft.sups" unicode="&#x207d;" horiz-adv-x="602" 
d="M481 485h-102q-229 280 -229 637q0 372 229 650h102q-229 -280 -229 -650q0 -359 229 -637z" />
    <glyph glyph-name="parenright.sups" unicode="&#x207e;" horiz-adv-x="602" 
d="M223 485h-100q229 284 229 637q0 370 -229 650h100q230 -280 230 -650q0 -356 -230 -637z" />
    <glyph glyph-name="n.sups" unicode="&#x207f;" horiz-adv-x="993" 
d="M549 1475q130 0 199 -69t69 -198v-446h-102v426q0 192 -199 192q-109 0 -173 -65t-64 -180v-373h-103v696h100l3 -143q74 160 270 160z" />
    <glyph glyph-name="zero.subs" unicode="&#x2080;" horiz-adv-x="925" 
d="M463 -381q-181 0 -274 117t-93 342q0 459 367 459q366 0 366 -459t-366 -459zM463 -285q256 0 256 363q0 362 -256 362q-129 0 -192 -88q-62 -87 -62 -274q0 -190 62 -276q63 -87 192 -87z" />
    <glyph glyph-name="one.subs" unicode="&#x2081;" horiz-adv-x="622" 
d="M446 -356h-104v608h-254v84h135q120 0 131 92l2 90h90v-874z" />
    <glyph glyph-name="two.subs" unicode="&#x2082;" horiz-adv-x="919" 
d="M791 -356h-660q0 251 248 370l149 72q154 74 154 188q0 76 -56 122t-159 46q-209 0 -215 -206h-109q1 145 86 223q84 78 238 78q147 0 234 -72t87 -191q0 -87 -50 -152t-163 -118l-110 -51q-105 -52 -151 -100q-49 -50 -56 -115h533v-94z" />
    <glyph glyph-name="three.subs" unicode="&#x2083;" horiz-adv-x="894" 
d="M451 -381q-159 0 -254 75t-95 206h109q2 -191 242 -191q233 0 233 174q0 79 -58 122q-59 44 -167 44h-74v94h74q91 0 138 40q48 41 48 110q0 74 -55 114q-53 39 -154 39q-98 0 -156 -44t-59 -126h-106q0 122 85 191q87 70 234 70q145 0 233 -64q87 -63 87 -172
q0 -74 -40 -126q-41 -53 -110 -71v-2q89 -22 136 -79q51 -62 51 -144q0 -115 -94 -188q-93 -72 -248 -72z" />
    <glyph glyph-name="four.subs" unicode="&#x2084;" horiz-adv-x="901" 
d="M659 -356h-104v219l-469 -2v92l463 565h110v-573l156 2v-86l-156 2v-219zM551 391l-367 -444l371 -2v446h-4z" />
    <glyph glyph-name="five.subs" unicode="&#x2085;" horiz-adv-x="897" 
d="M442 -385q-134 0 -221 56q-89 57 -117 155l107 24q43 -143 233 -143q114 0 178 55t64 150q0 93 -63 150t-174 57q-140 0 -209 -88l-113 24l88 463h518v-90h-442l-53 -299l4 -2q83 80 229 80q152 0 238 -80t86 -211q0 -132 -96 -217q-95 -84 -257 -84z" />
    <glyph glyph-name="six.subs" unicode="&#x2086;" horiz-adv-x="899" 
d="M463 -381q-361 0 -361 434q0 234 94 360q93 124 271 124q112 0 193 -52q80 -51 110 -143l-102 -29q-46 133 -201 133q-255 0 -262 -364q89 125 274 125q147 0 232 -78q86 -78 86 -209q0 -136 -90 -219q-89 -82 -244 -82zM291 -231q66 -60 172 -60q107 0 168 55
q59 55 59 152q0 92 -60 147q-61 56 -165 56q-98 0 -165 -47t-83 -123q6 -118 74 -180z" />
    <glyph glyph-name="seven.subs" unicode="&#x2087;" horiz-adv-x="768" 
d="M313 -356h-110q37 487 381 784h-533v90h666v-86q-371 -299 -404 -788z" />
    <glyph glyph-name="eight.subs" unicode="&#x2088;" horiz-adv-x="923" 
d="M463 -373q-165 0 -264 72t-99 195q0 80 54 142q52 60 145 81v4q-72 22 -117 73q-43 49 -43 117q0 105 87 165q88 61 237 61q146 0 234 -61q87 -60 87 -165q0 -68 -43 -118q-44 -51 -116 -72v-4q94 -21 146 -80t52 -143q0 -124 -98 -195q-99 -72 -262 -72zM463 154
q103 0 160 39t57 110q0 72 -57 111t-160 39q-105 0 -162 -39t-57 -111q0 -71 57 -110t162 -39zM276 -238q67 -49 187 -49q119 0 186 49q66 50 66 136q0 174 -252 174q-123 0 -189 -45q-65 -44 -65 -129q0 -87 67 -136z" />
    <glyph glyph-name="nine.subs" unicode="&#x2089;" horiz-adv-x="899" 
d="M432 -381q-117 0 -196 52q-80 53 -109 145l104 26q46 -133 201 -133q251 0 262 367q-86 -125 -274 -125q-146 0 -232 77t-86 208q0 136 91 219q89 82 243 82q180 0 271 -112q90 -111 90 -321q0 -234 -94 -360q-93 -125 -271 -125zM434 37q98 0 165 47q66 47 83 125
q-6 113 -73 177q-66 63 -175 63q-105 0 -165 -57t-60 -150q0 -94 60 -150q59 -55 165 -55z" />
    <glyph glyph-name="plus.subs" unicode="&#x208a;" horiz-adv-x="1091" 
d="M594 106h375v-86h-375v-327h-94v327h-373v86h373v328h94v-328z" />
    <glyph glyph-name="minus.subs" unicode="&#x208b;" horiz-adv-x="1067" 
d="M944 16h-817v88h817v-88z" />
    <glyph glyph-name="equal.subs" unicode="&#x208c;" horiz-adv-x="1067" 
d="M944 176h-817v86h817v-86zM944 -139h-817v88h817v-88z" />
    <glyph glyph-name="uni208D" unicode="&#x208d;" horiz-adv-x="602" 
d="M481 -633h-102q-229 280 -229 637q0 371 229 649h102q-229 -280 -229 -649q0 -359 229 -637z" />
    <glyph glyph-name="uni208E" unicode="&#x208e;" horiz-adv-x="602" 
d="M223 -633h-100q229 284 229 637q0 369 -229 649h100q230 -280 230 -649q0 -356 -230 -637z" />
    <glyph glyph-name="n.subs" unicode="&#x2099;" horiz-adv-x="993" 
d="M549 356q131 0 199 -68q69 -69 69 -198v-446h-102v426q0 192 -199 192q-109 0 -173 -65t-64 -181v-372h-103v696h100l3 -143q73 159 270 159z" />
    <glyph glyph-name="Euro" unicode="&#x20ac;" 
d="M956 1368q-188 0 -315 -103q-126 -102 -176 -290h784v-109h-805q-8 -54 -8 -135q0 -63 6 -125h807v-108h-786q49 -195 174 -303q126 -109 315 -109q154 0 297 61v-116q-137 -58 -299 -58q-243 0 -403 139q-159 138 -215 386h-271v108h254q-6 62 -6 125q0 81 8 135h-256
v109h275q56 238 216 371t396 133q170 0 301 -58v-116q-135 63 -293 63z" />
    <glyph glyph-name="uni20B8" unicode="&#x20b8;" horiz-adv-x="1318" 
d="M88 1350v108h1143v-108h-1143zM596 1014h-508v108h1143v-108h-510v-1014h-125v1014z" />
    <glyph glyph-name="uni20B9" unicode="&#x20b9;" 
d="M98 1458h1114v-108h-542q143 -82 161 -248h381v-109h-383q-15 -113 -88 -192q-75 -82 -184 -105q102 -15 160 -72q59 -58 94 -180l127 -444h-129l-119 420q-33 126 -100 172q-63 45 -211 45h-281v108h303q274 0 301 248h-604v109h607q-27 248 -304 248h-303v108z" />
    <glyph glyph-name="uni20BA" unicode="&#x20ba;" 
d="M1122 504h113q-21 -239 -186 -371q-163 -133 -418 -133h-262v508l-291 -152v119l291 152v268l-291 -152v119l291 152v444h123v-379l462 242v-119l-462 -241v-269l462 242v-119l-462 -242v-460h139q210 0 338 101q129 102 153 290z" />
    <glyph glyph-name="uni20BC" unicode="&#x20bc;" 
d="M717 1458v-383q246 0 358 -120q113 -121 113 -377v-578h-123v586q0 208 -79 294q-80 88 -269 95v-748h-123v748q-190 -7 -268 -95q-78 -87 -78 -294v-586h-123v578q0 260 111 378q111 119 358 119v383h123z" />
    <glyph glyph-name="uni20BF" unicode="&#x20bf;" 
d="M1231 406q0 -171 -104 -280q-103 -108 -281 -124v-297h-107v295h-231v-295h-109v295h-249v1458h249v277h109v-277h231v277h107v-283q150 -24 235 -118q84 -93 84 -232q0 -118 -61 -203q-62 -86 -176 -125q303 -74 303 -368zM733 1350h-461v-537h451q148 0 232 73
q83 72 83 199q0 121 -79 193t-226 72zM272 109h508q155 0 239 77q85 78 85 220q0 145 -92 223q-91 78 -260 78h-480v-598z" />
    <glyph glyph-name="uni2105" unicode="&#x2105;" horiz-adv-x="2426" 
d="M829 -31h-124l917 1520h121zM553 745q-168 0 -263 100t-95 269q0 167 95 265t261 98q135 0 220 -63q86 -64 110 -167l-99 -8q-39 150 -227 150q-123 0 -189 -72q-67 -73 -67 -203q0 -134 67 -207q65 -71 189 -71q187 0 227 159l99 -10q-22 -110 -110 -175t-218 -65z
M1876 -25q-160 0 -260 105q-100 100 -100 264q0 167 100 268q103 103 260 103q155 0 258 -103q98 -104 98 -268q0 -165 -98 -266q-103 -103 -258 -103zM1876 63q114 0 183 76q69 77 69 205q0 132 -68 208q-67 75 -184 75q-118 0 -187 -75t-69 -208q0 -127 70 -205
q69 -76 186 -76z" />
    <glyph glyph-name="uni2113" unicode="&#x2113;" horiz-adv-x="1007" 
d="M817 197l74 -80q-118 -142 -305 -142q-134 0 -210 73q-75 72 -75 206v197l-190 -89l-45 101l235 94v637q0 138 72 211q72 74 207 74q148 0 221 -93q71 -90 71 -286q0 -229 -104 -361q-101 -129 -344 -235v-244q0 -176 172 -176q132 0 221 113zM584 1370q-160 0 -160 -182
v-578q182 89 260 197q76 101 76 287q0 276 -176 276z" />
    <glyph glyph-name="uni2116" unicode="&#x2116;" horiz-adv-x="2451" 
d="M1985 1485q155 0 258 -103q98 -104 98 -268q0 -167 -98 -266q-103 -103 -258 -103q-159 0 -261 105q-100 100 -100 264q0 167 100 268q103 103 261 103zM328 1458l872 -1286v1286h119v-1458h-139l-869 1282v-1282h-116v1458h133zM1985 834q115 0 183 75t68 205
q0 134 -67 208q-67 75 -184 75q-119 0 -188 -75q-68 -74 -68 -208q0 -128 69 -205q68 -75 187 -75z" />
    <glyph glyph-name="uni2117" unicode="&#x2117;" horiz-adv-x="1789" 
d="M356 1272q213 213 539 213t539 -213q208 -211 208 -543q0 -331 -210 -541q-212 -215 -537 -215q-327 0 -539 215q-211 211 -211 541q0 332 211 543zM424 248q183 -189 471 -189t471 189q182 188 182 481t-182 481q-181 187 -471 187t-471 -187q-184 -188 -184 -481
q0 -296 184 -481zM659 1120h310q114 0 183 -66t69 -173q0 -109 -71 -175q-72 -67 -187 -67h-209v-291h-95v772zM754 719h196q87 0 131 43q45 44 45 119q0 157 -174 157h-198v-319z" />
    <glyph glyph-name="trademark" unicode="&#x2122;" horiz-adv-x="1996" 
d="M457 676h-95v700h-251v82h600v-82h-254v-700zM1038 676h-90v782h191l233 -729h25l227 729h197v-782h-95v729h-30l-228 -729h-170l-231 729h-29v-729z" />
    <glyph glyph-name="uni2126" unicode="&#x2126;" horiz-adv-x="1671" 
d="M729 0h-584v109h410v4q-190 112 -291 281q-102 171 -102 388q0 328 186 514q189 189 488 189q300 0 483 -189q182 -188 182 -514q0 -219 -100 -391q-100 -171 -285 -278v-4h408v-109h-582v98q434 228 434 684q0 282 -144 436t-396 154q-246 0 -398 -153
q-149 -155 -149 -437q0 -454 440 -684v-98z" />
    <glyph glyph-name="estimated" unicode="&#x212e;" horiz-adv-x="1849" 
d="M924 1479q374 0 600 -226q223 -223 223 -551h-1313q-28 0 -28 -26v-359q0 -63 32 -92q200 -196 486 -196q152 0 288 63q137 63 226 172h147q-90 -126 -263 -209q-170 -82 -398 -82q-371 0 -594 211q-228 213 -228 539t224 541t598 215zM924 1421q-286 0 -486 -200
q-32 -29 -32 -88v-357q0 -26 28 -26h977q29 0 29 26v357q0 58 -33 88q-204 200 -483 200z" />
    <glyph glyph-name="uni2153" unicode="&#x2153;" horiz-adv-x="2267" 
d="M551 657h-105v609h-251v84h135q121 0 129 92l4 90h88v-875zM614 -31h-125l918 1520h123zM1731 -25q-159 0 -254 75t-95 206h107q10 -190 242 -190q233 0 233 174q0 78 -58 121q-61 45 -165 45h-76v94h76q91 0 138 40q48 40 48 109q0 74 -56 114t-155 40q-207 0 -213 -170
h-108q0 121 86 190q87 70 235 70q146 0 232 -65t86 -171q0 -73 -39 -125q-39 -53 -109 -71v-2q88 -22 136 -80q51 -62 51 -143q0 -116 -94 -189q-93 -72 -248 -72z" />
    <glyph glyph-name="uni2154" unicode="&#x2154;" horiz-adv-x="2527" 
d="M852 657h-657q0 253 245 371l150 72q153 74 153 188q0 76 -56 122t-159 46q-207 0 -213 -207h-110q2 146 86 224q83 77 237 77q149 0 236 -71q88 -72 88 -191q0 -87 -50 -152t-163 -118l-111 -51q-103 -49 -152 -99q-50 -51 -57 -116h533v-95zM874 -31h-124l917 1520h121
zM1991 -25q-161 0 -256 75t-95 206h109q1 -92 63 -141q61 -49 179 -49q233 0 233 174q0 78 -58 121q-61 45 -167 45h-74v94h74q91 0 138 40q48 40 48 109q0 74 -55 114t-154 40q-207 0 -213 -170h-108q0 121 86 190q87 70 235 70q146 0 232 -65t86 -171q0 -74 -40 -126
t-110 -70v-2q87 -21 137 -80q52 -61 52 -143q0 -116 -94 -189q-93 -72 -248 -72z" />
    <glyph glyph-name="uni2155" unicode="&#x2155;" horiz-adv-x="2297" 
d="M551 657h-105v609h-251v84h135q121 0 129 92l4 90h88v-875zM614 -31h-125l918 1520h123zM1753 -29q-133 0 -222 57q-90 58 -118 154l107 25q22 -69 83 -106q64 -38 150 -38q114 0 179 56t65 149t-64 151q-62 56 -174 56q-140 0 -209 -88l-112 25l88 462h516v-90h-440
l-54 -299l4 -2q83 80 230 80q150 0 236 -80q85 -79 85 -211q0 -133 -94 -217q-95 -84 -256 -84z" />
    <glyph glyph-name="uni2156" unicode="&#x2156;" horiz-adv-x="2529" 
d="M852 657h-657q0 253 245 371l150 72q153 74 153 188q0 76 -56 122t-159 46q-207 0 -213 -207h-110q2 146 86 224q83 77 237 77q149 0 236 -71q88 -72 88 -191q0 -87 -50 -152t-163 -118l-111 -51q-103 -49 -152 -99q-50 -51 -57 -116h533v-95zM846 -31h-125l917 1520h123
zM1985 -29q-135 0 -223 57q-89 57 -117 154l106 25q22 -69 83 -106q64 -38 151 -38q114 0 179 56q64 55 64 149t-63 151q-62 56 -174 56q-140 0 -209 -88l-113 25l88 462h516v-90h-440l-53 -299l4 -2q85 80 229 80q151 0 237 -80q85 -79 85 -211q0 -133 -94 -217
q-95 -84 -256 -84z" />
    <glyph glyph-name="uni2157" unicode="&#x2157;" horiz-adv-x="2500" 
d="M543 633q-159 0 -254 75q-94 75 -94 205h106q10 -190 242 -190q233 0 233 174q0 79 -58 122q-59 44 -165 44h-76v94h76q91 0 138 40q48 41 48 110q0 73 -56 113t-155 40q-207 0 -213 -170h-108q0 122 86 191q85 69 235 69q147 0 232 -64q86 -65 86 -171q0 -73 -39 -125
q-40 -54 -109 -72v-2q89 -22 137 -80q50 -61 50 -143q0 -116 -93 -188t-249 -72zM817 -31h-125l918 1520h123zM1956 -29q-134 0 -222 57q-90 58 -118 154l106 25q22 -69 83 -106q64 -38 151 -38q114 0 179 56t65 149t-64 151q-62 56 -174 56q-140 0 -209 -88l-113 25l89 462
h516v-90h-441l-53 -299l4 -2q85 80 230 80q150 0 236 -80q85 -79 85 -211q0 -133 -94 -217t-256 -84z" />
    <glyph glyph-name="uni2158" unicode="&#x2158;" horiz-adv-x="2578" 
d="M768 657h-104v220l-469 -3v93l462 565h111v-574l156 3v-87l-156 3v-220zM895 -31h-125l918 1520h122zM657 1405l-366 -444l373 -3v447h-7zM2034 -29q-134 0 -223 57t-117 154l106 25q22 -69 83 -106q64 -38 151 -38q114 0 179 56q64 55 64 149t-63 151q-62 56 -174 56
q-140 0 -209 -88l-113 25l88 462h516v-90h-440l-53 -299l4 -2q85 80 229 80q151 0 237 -80q85 -79 85 -211q0 -133 -94 -217t-256 -84z" />
    <glyph glyph-name="uni2159" unicode="&#x2159;" horiz-adv-x="2228" 
d="M551 657h-105v609h-251v84h135q121 0 129 92l4 90h88v-875zM614 -31h-125l918 1520h123zM1700 -25q-361 0 -361 435q0 233 94 359q93 124 271 124q114 0 194 -51q81 -52 111 -144l-104 -28q-46 133 -201 133q-254 0 -262 -365q92 125 276 125q144 0 230 -78t86 -209
q0 -136 -90 -219q-89 -82 -244 -82zM1702 66q106 0 166 56q61 57 61 150t-61 148t-166 55q-98 0 -165 -47q-66 -46 -81 -123q4 -117 70 -178q65 -61 176 -61z" />
    <glyph glyph-name="uni215A" unicode="&#x215a;" horiz-adv-x="2418" 
d="M532 629q-134 0 -221 56q-88 56 -116 155l106 24q43 -143 234 -143q113 0 177 55t64 150q0 93 -63 150t-174 57q-140 0 -209 -89l-113 25l88 463h518v-90h-442l-53 -299l4 -2q83 80 229 80q152 0 238 -80t86 -211q0 -133 -95 -217q-94 -84 -258 -84zM803 -31h-125
l917 1520h123zM1890 -25q-360 0 -360 435q0 234 93 359q93 124 271 124q115 0 194 -51q80 -51 110 -144l-103 -28q-46 133 -201 133q-254 0 -262 -365q89 125 275 125q145 0 231 -78t86 -209q0 -136 -90 -219q-89 -82 -244 -82zM1718 127q62 -61 172 -61q107 0 168 55
q60 55 60 151q0 92 -61 148q-59 55 -165 55q-98 0 -165 -47q-65 -46 -82 -123q6 -121 73 -178z" />
    <glyph glyph-name="oneeighth" unicode="&#x215b;" horiz-adv-x="2283" 
d="M551 657h-105v609h-251v84h135q121 0 129 92l4 90h88v-875zM614 -31h-125l918 1520h123zM1991 55q-99 -71 -265 -71q-165 0 -264 71q-98 71 -98 195q0 81 53 142q52 59 146 81v4q-72 22 -117 73q-43 49 -43 118q0 105 87 165t236 60q150 0 237 -60t87 -165
q0 -69 -43 -119q-43 -51 -117 -72v-4q96 -21 147 -80q52 -59 52 -143q0 -124 -98 -195zM1567 549q57 -39 159 -39q103 0 160 39q58 40 58 110q0 71 -58 111q-57 39 -160 39q-102 0 -159 -39q-58 -40 -58 -111q0 -70 58 -110zM1542 119q62 -49 184 -49q120 0 187 49
q65 49 65 135q0 174 -252 174q-120 0 -186 -45q-65 -44 -65 -129q0 -86 67 -135z" />
    <glyph glyph-name="threeeighths" unicode="&#x215c;" horiz-adv-x="2486" 
d="M543 633q-159 0 -254 75q-94 75 -94 205h106q10 -190 242 -190q233 0 233 174q0 79 -58 122q-59 44 -165 44h-76v94h76q91 0 138 40q48 41 48 110q0 73 -56 113t-155 40q-207 0 -213 -170h-108q0 122 86 191q85 69 235 69q147 0 232 -64q86 -65 86 -171q0 -73 -39 -125
q-40 -54 -109 -72v-2q89 -22 137 -80q50 -61 50 -143q0 -116 -93 -188t-249 -72zM817 -31h-125l918 1520h123zM2193 55q-99 -71 -264 -71t-264 71q-98 71 -98 195q0 81 53 142q52 60 145 81v4q-71 22 -116 73q-43 49 -43 118q0 105 87 165t236 60q150 0 237 -60t87 -165
q0 -69 -43 -119q-44 -51 -117 -72v-4q94 -21 146 -80q53 -61 53 -143q0 -123 -99 -195zM1769 549q57 -39 160 -39t160 39t57 110q0 72 -57 111t-160 39t-160 -39t-57 -111q0 -71 57 -110zM1745 119q65 -49 184 -49q120 0 187 49q65 49 65 135q0 174 -252 174
q-120 0 -186 -45t-66 -129q0 -85 68 -135z" />
    <glyph glyph-name="fiveeighths" unicode="&#x215d;" horiz-adv-x="2471" 
d="M532 629q-134 0 -221 56q-88 56 -116 155l106 24q43 -143 234 -143q113 0 177 55t64 150q0 93 -63 150t-174 57q-140 0 -209 -89l-113 25l88 463h518v-90h-442l-53 -299l4 -2q83 80 229 80q152 0 238 -80t86 -211q0 -133 -95 -217q-94 -84 -258 -84zM803 -31h-125
l917 1520h123zM1917 -16q-166 0 -264 71q-99 72 -99 195q0 80 54 142q52 60 145 81v4q-72 22 -117 73q-43 49 -43 118q0 105 87 165t237 60q147 0 234 -60t87 -165q0 -69 -43 -119q-44 -51 -116 -72v-4q94 -21 146 -80t52 -143q0 -124 -98 -195t-262 -71zM1917 510
q103 0 160 39t57 110q0 72 -57 111t-160 39q-105 0 -162 -39t-57 -111q0 -71 57 -110t162 -39zM1731 119q67 -49 186 -49t186 49q66 49 66 135q0 174 -252 174q-122 0 -188 -45t-66 -129q0 -85 68 -135z" />
    <glyph glyph-name="seveneighths" unicode="&#x215e;" horiz-adv-x="2246" 
d="M455 657h-109q38 488 381 785h-532v90h665v-86q-367 -297 -405 -789zM578 -31h-125l917 1520h123zM1690 -16q-165 0 -263 71t-98 195q0 81 53 142q52 59 146 81v4q-160 50 -160 191q0 105 87 165t235 60q149 0 236 -60t87 -165q0 -69 -43 -119q-44 -51 -117 -72v-4
q96 -21 147 -80q52 -59 52 -143q0 -124 -98 -195t-264 -71zM1690 510q104 0 161 39q58 40 58 110q0 71 -58 111q-57 39 -161 39q-103 0 -160 -39t-57 -111q0 -71 57 -110t160 -39zM1505 119q62 -49 185 -49q119 0 186 49q68 50 68 135q0 174 -254 174q-121 0 -187 -45
q-65 -44 -65 -129q0 -86 67 -135z" />
    <glyph glyph-name="arrowleft" unicode="&#x2190;" horiz-adv-x="1779" 
d="M332 791h1302v-123h-1302l254 -330l256 -338h-144l-553 729l553 729h144l-256 -338z" />
    <glyph glyph-name="arrowup" unicode="&#x2191;" horiz-adv-x="1712" 
d="M127 936l729 551l729 -551v-143l-338 256l-329 254v-1303h-123v1305l-330 -256l-338 -256v143z" />
    <glyph glyph-name="arrowright" unicode="&#x2192;" horiz-adv-x="1779" 
d="M938 1458h143l553 -729l-553 -729h-143l256 338l252 330h-1301v123h1301l-252 329z" />
    <glyph glyph-name="arrowdown" unicode="&#x2193;" horiz-adv-x="1712" 
d="M918 158l667 508v-144l-729 -551l-729 551v144l668 -508v1300h123v-1300z" />
    <glyph glyph-name="arrowboth" unicode="&#x2194;" horiz-adv-x="2418" 
d="M1577 1458h143l553 -729l-553 -729h-143l256 338l254 330h-1755l254 -330l256 -338h-144l-553 729l553 729h144l-256 -338l-254 -329h1755l-254 329z" />
    <glyph glyph-name="arrowupdn" unicode="&#x2195;" horiz-adv-x="1712" 
d="M1585 1192l-667 508v-1796l329 254l338 256v-146l-729 -551l-729 551v146l338 -256l330 -254v1796l-668 -508v143l729 553l729 -553v-143z" />
    <glyph glyph-name="uni2196" unicode="&#x2196;" horiz-adv-x="1538" 
d="M322 1251l1159 -1163l-88 -88l-1162 1165l9 -295v-825h-125v1323h1323v-123h-813z" />
    <glyph glyph-name="uni2197" unicode="&#x2197;" horiz-adv-x="1538" 
d="M100 1245v123h1323v-1323h-125v825l9 295l-1162 -1165l-88 88l1160 1163l-306 -6h-811z" />
    <glyph glyph-name="uni2198" unicode="&#x2198;" horiz-adv-x="1538" 
d="M1298 498v825h125v-1323h-1323v123h811l306 -6l-1160 1163l88 88l1162 -1165z" />
    <glyph glyph-name="uni2199" unicode="&#x2199;" horiz-adv-x="1538" 
d="M1481 1280l-1159 -1163l303 6h813v-123h-1323v1323h125v-825l-9 -295l1162 1165z" />
    <glyph glyph-name="partialdiff" unicode="&#x2202;" horiz-adv-x="1208" 
d="M561 1475q500 0 500 -738q0 -757 -481 -757q-201 0 -318 129q-117 124 -117 331q0 209 118 333t315 124q224 0 360 -168q-1 326 -97 482q-95 155 -288 155q-137 0 -274 -66l-43 101q159 74 325 74zM586 86q314 0 348 489q-55 104 -147 161q-91 57 -201 57
q-144 0 -231 -95q-87 -94 -87 -256t85 -259t233 -97z" />
    <glyph glyph-name="uni2206" unicode="&#x2206;" horiz-adv-x="1466" 
d="M668 1462h135l594 -1462h-1327zM702 1249l-456 -1140h971l-449 1140l-31 99z" />
    <glyph glyph-name="product" unicode="&#x220f;" horiz-adv-x="1509" 
d="M195 1458h1120v-1876h-125v1761h-873v-1761h-122v1876z" />
    <glyph glyph-name="summation" unicode="&#x2211;" horiz-adv-x="1390" 
d="M936 530l-633 -829h940v-119h-1098v107l646 841l-619 822v106h1047v-119h-889z" />
    <glyph glyph-name="minus" unicode="&#x2212;" 
d="M1198 582h-1083v106h1083v-106z" />
    <glyph glyph-name="uni2215" unicode="&#x2215;" horiz-adv-x="665" 
d="M-61 -31h-125l917 1520h123z" />
    <glyph glyph-name="uni2219" unicode="&#x2219;" horiz-adv-x="669" 
d="M494 442h-318v277h318v-277z" />
    <glyph glyph-name="radical" unicode="&#x221a;" 
d="M819 -418h-174l-260 694l-227 -88l-37 101l336 127l266 -727l412 1841h118z" />
    <glyph glyph-name="infinity" unicode="&#x221e;" horiz-adv-x="1630" 
d="M422 379q-143 0 -227 91q-84 92 -84 235q0 146 85 237q86 92 222 92q107 0 199 -61q91 -60 198 -199q106 139 197 201q89 61 194 61q140 0 227 -92q87 -91 87 -235q0 -148 -86 -240t-228 -92q-200 0 -391 254q-107 -136 -198 -194t-195 -58zM1210 479q92 0 150 64
q57 63 57 162q0 102 -57 165q-58 64 -154 64q-82 0 -158 -55q-78 -56 -167 -177q159 -223 329 -223zM422 481q164 0 326 221q-174 230 -330 230q-91 0 -149 -64q-56 -62 -56 -163q0 -102 56 -162q57 -62 153 -62z" />
    <glyph glyph-name="integral" unicode="&#x222b;" 
d="M426 -418h-47v105h45q89 0 130 41q40 40 40 139v1362q0 156 71 229q71 72 220 72h47v-105h-45q-89 0 -130 -41q-40 -40 -40 -139v-1362q0 -156 -71 -229q-70 -72 -220 -72z" />
    <glyph glyph-name="approxequal" unicode="&#x2248;" 
d="M250 717h-109q0 174 75 267t200 93q63 0 119 -25q55 -24 99 -64q56 -50 83 -75q38 -35 87 -62q47 -26 93 -26q76 0 120 65t44 187h108q0 -173 -74 -266q-75 -94 -200 -94q-70 0 -140 37q-72 39 -118 90q-118 127 -223 127q-77 0 -121 -65q-43 -64 -43 -189zM250 221h-109
q0 174 75 267q76 94 200 94q61 0 119 -26q59 -27 99 -62q56 -50 83 -75q43 -40 87 -64q46 -25 93 -25q77 0 120 64q44 65 44 188h108q0 -174 -74 -267q-75 -94 -200 -94q-70 0 -140 37q-72 39 -118 90q-118 127 -223 127q-77 0 -120 -65q-44 -67 -44 -189z" />
    <glyph glyph-name="notequal" unicode="&#x2260;" 
d="M1198 911v-106h-410l-151 -342h561v-107h-608l-184 -411l-82 30l170 381h-379v107h426l153 342h-579v106h626l189 424l82 -30l-176 -394h362z" />
    <glyph glyph-name="lessequal" unicode="&#x2264;" 
d="M115 809l1083 367v-121l-969 -312l969 -309v-121l-1083 365v131zM1198 29h-1083v106h1083v-106z" />
    <glyph glyph-name="greaterequal" unicode="&#x2265;" 
d="M115 1055v121l1083 -367v-131l-1083 -365v121l968 309zM1198 29h-1083v106h1083v-106z" />
    <glyph glyph-name="uni2460" unicode="&#x2460;" horiz-adv-x="2357" 
d="M1917 63q-289 -286 -739 -286q-451 0 -740 286q-293 287 -293 719q0 434 293 721q291 285 740 285q448 0 739 -285q293 -287 293 -721q0 -432 -293 -719zM524 139q257 -254 654 -254q396 0 653 254q258 257 258 643q0 390 -258 643q-257 254 -653 254q-397 0 -654 -254
q-258 -253 -258 -643t258 -643zM1278 342h-104v608h-252v84h135q118 0 129 92l4 91h88v-875z" />
    <glyph glyph-name="uni2461" unicode="&#x2461;" horiz-adv-x="2357" 
d="M1917 63q-289 -286 -739 -286q-451 0 -740 286q-293 287 -293 719q0 434 293 721q291 285 740 285q448 0 739 -285q293 -287 293 -721q0 -432 -293 -719zM524 139q257 -254 654 -254q396 0 653 254q258 257 258 643q0 390 -258 643q-257 254 -653 254q-397 0 -654 -254
q-258 -253 -258 -643t258 -643zM1516 371h-658q0 253 248 370l149 72q152 74 152 188q0 77 -55 123q-56 47 -158 47q-209 0 -215 -208h-109q1 145 86 223q84 78 238 78q147 0 234 -72q88 -73 88 -191q0 -86 -51 -151t-162 -117l-111 -53q-108 -51 -152 -98q-48 -51 -55 -117
h531v-94z" />
    <glyph glyph-name="uni2462" unicode="&#x2462;" horiz-adv-x="2357" 
d="M1917 63q-289 -286 -739 -286q-451 0 -740 286q-293 287 -293 719q0 434 293 721q291 285 740 285q448 0 739 -285q293 -287 293 -721q0 -432 -293 -719zM524 139q257 -254 654 -254q396 0 653 254q258 257 258 643q0 390 -258 643q-257 254 -653 254q-397 0 -654 -254
q-258 -253 -258 -643t258 -643zM1196 332q-160 0 -254 76t-94 204h108q1 -190 242 -190q110 0 172 45t62 129q0 78 -59 122t-167 44h-73v94h73q92 0 139 40q48 40 48 110q0 72 -56 113q-55 40 -153 40q-209 0 -215 -170h-107q0 122 85 191t235 69q145 0 232 -63t87 -172
q0 -73 -40 -125q-42 -55 -109 -72v-2q88 -22 136 -80q50 -61 50 -143q0 -117 -93 -189q-92 -71 -249 -71z" />
    <glyph glyph-name="uni2463" unicode="&#x2463;" horiz-adv-x="2357" 
d="M1917 63q-289 -286 -739 -286q-451 0 -740 286q-293 287 -293 719q0 434 293 721q291 285 740 285q448 0 739 -285q293 -287 293 -721q0 -432 -293 -719zM524 139q257 -254 654 -254q396 0 653 254q258 257 258 643q0 390 -258 643q-257 254 -653 254q-397 0 -654 -254
q-258 -253 -258 -643t258 -643zM1368 365h-104v219l-469 -2v90l462 567h111v-575l156 4v-86l-156 2v-219zM891 668l373 -4v448h-7z" />
    <glyph glyph-name="uni2464" unicode="&#x2464;" horiz-adv-x="2357" 
d="M1917 63q-289 -286 -739 -286q-451 0 -740 286q-293 287 -293 719q0 434 293 721q291 285 740 285q448 0 739 -285q293 -287 293 -721q0 -432 -293 -719zM524 139q257 -254 654 -254q396 0 653 254q258 257 258 643q0 390 -258 643q-257 254 -653 254q-397 0 -654 -254
q-258 -253 -258 -643t258 -643zM1186 334q-135 0 -222 56q-90 58 -118 157l106 22q21 -68 83 -105q64 -38 151 -38q115 0 179 55q65 56 65 150q0 92 -64 150q-63 57 -174 57q-140 0 -209 -88l-113 24l88 463h517v-90h-441l-53 -297l4 -4q85 80 229 80q151 0 237 -80
q85 -79 85 -211q0 -133 -94 -217q-95 -84 -256 -84z" />
    <glyph glyph-name="uni2465" unicode="&#x2465;" horiz-adv-x="2357" 
d="M1917 63q-289 -286 -739 -286q-451 0 -740 286q-293 287 -293 719q0 434 293 721q291 285 740 285q448 0 739 -285q293 -287 293 -721q0 -432 -293 -719zM524 139q257 -254 654 -254q396 0 653 254q258 257 258 643q0 390 -258 643q-257 254 -653 254q-397 0 -654 -254
q-258 -253 -258 -643t258 -643zM1202 344q-360 0 -360 434q0 236 93 360t271 124q116 0 196 -53q78 -52 107 -144l-102 -27q-46 133 -203 133q-253 0 -260 -364q88 123 275 123q143 0 230 -78t87 -207q0 -135 -90 -218q-91 -83 -244 -83zM1202 432q106 0 166 56
q62 57 62 153q0 91 -61 147t-165 56q-98 0 -165 -47t-83 -123q6 -116 72 -179t174 -63z" />
    <glyph glyph-name="uni2466" unicode="&#x2466;" horiz-adv-x="2357" 
d="M1917 63q-289 -286 -739 -286q-451 0 -740 286q-293 287 -293 719q0 434 293 721q291 285 740 285q448 0 739 -285q293 -287 293 -721q0 -432 -293 -719zM524 139q257 -254 654 -254q396 0 653 254q258 257 258 643q0 390 -258 643q-257 254 -653 254q-397 0 -654 -254
q-258 -253 -258 -643t258 -643zM1143 324h-109q37 487 381 784h-532v90h665v-86q-365 -291 -405 -788z" />
    <glyph glyph-name="uni2467" unicode="&#x2467;" horiz-adv-x="2357" 
d="M1917 63q-289 -286 -739 -286q-451 0 -740 286q-293 287 -293 719q0 434 293 721q291 285 740 285q448 0 739 -285q293 -287 293 -721q0 -432 -293 -719zM524 139q257 -254 654 -254q396 0 653 254q258 257 258 643q0 390 -258 643q-257 254 -653 254q-397 0 -654 -254
q-258 -253 -258 -643t258 -643zM1442 412q-100 -72 -264 -72t-265 72q-98 71 -98 194q0 82 53 143q51 58 146 80v5q-75 23 -116 73q-42 51 -42 119q0 103 87 163t235 60q149 0 236 -60t87 -163q0 -70 -42 -121q-41 -50 -118 -71v-5q97 -21 147 -79q52 -59 52 -144
q0 -123 -98 -194zM1018 907q57 -39 160 -39q102 0 159 39q58 40 58 109q0 70 -58 110q-57 39 -159 39q-103 0 -160 -39t-57 -110q0 -70 57 -109zM993 475q62 -49 185 -49q119 0 186 49q68 50 68 135q0 174 -254 174q-121 0 -187 -45q-65 -44 -65 -129q0 -86 67 -135z" />
    <glyph glyph-name="uni2468" unicode="&#x2468;" horiz-adv-x="2357" 
d="M1917 63q-289 -286 -739 -286q-451 0 -740 286q-293 287 -293 719q0 434 293 721q291 285 740 285q448 0 739 -285q293 -287 293 -721q0 -432 -293 -719zM524 139q257 -254 654 -254q396 0 653 254q258 257 258 643q0 390 -258 643q-257 254 -653 254q-397 0 -654 -254
q-258 -253 -258 -643t258 -643zM1176 326q-116 0 -195 51q-81 52 -111 143l103 29q46 -133 203 -133q255 0 262 364q-92 -125 -277 -125q-143 0 -229 78t-86 209q0 136 90 219q89 82 244 82q358 0 358 -434q0 -233 -92 -358t-270 -125zM1178 743q96 0 164 48q66 47 81 122
q-5 119 -69 179q-65 61 -176 61q-106 0 -166 -56q-62 -57 -62 -151q0 -91 62 -147t166 -56z" />
    <glyph glyph-name="uni24EA" unicode="&#x24ea;" horiz-adv-x="2357" 
d="M1917 63q-289 -286 -739 -286q-451 0 -740 286q-293 287 -293 719q0 434 293 721q291 285 740 285q448 0 739 -285q293 -287 293 -721q0 -432 -293 -719zM524 139q257 -254 654 -254q396 0 653 254q258 257 258 643q0 390 -258 643q-257 254 -653 254q-397 0 -654 -254
q-258 -253 -258 -643t258 -643zM1178 332q-181 0 -274 117t-93 342q0 458 367 458q368 0 368 -458q0 -459 -368 -459zM1178 430q130 0 193 88t63 273q0 362 -256 362q-254 0 -254 -362q0 -186 62 -273q63 -88 192 -88z" />
    <glyph glyph-name="uni24FF" unicode="&#x24ff;" horiz-adv-x="2357" 
d="M1917 63q-289 -286 -739 -286q-451 0 -740 286q-293 287 -293 719q0 434 293 721q291 285 740 285q448 0 739 -285q293 -287 293 -721q0 -432 -293 -719zM1178 332q368 0 368 459q0 458 -368 458q-367 0 -367 -458q0 -225 93 -342t274 -117zM1178 430q-129 0 -192 88
q-62 87 -62 273q0 362 254 362q256 0 256 -362q0 -185 -63 -273t-193 -88z" />
    <glyph glyph-name="filledbox" unicode="&#x25a0;" horiz-adv-x="2248" 
d="M2054 -180h-1859v1818h1859v-1818z" />
    <glyph glyph-name="uni25A1" unicode="&#x25a1;" horiz-adv-x="2248" 
d="M2054 -180h-1859v1818h1859v-1818zM313 1530v-1602h1620v1602h-1620z" />
    <glyph glyph-name="lozenge" unicode="&#x25ca;" horiz-adv-x="1122" 
d="M485 1458h152l387 -729l-387 -729h-152l-387 729zM219 729l342 -659l340 659l-340 660z" />
    <glyph glyph-name="circle" unicode="&#x25cb;" horiz-adv-x="2357" 
d="M1917 63q-289 -286 -739 -286q-451 0 -740 286q-293 287 -293 719q0 434 293 721q291 285 740 285q448 0 739 -285q293 -287 293 -721q0 -432 -293 -719zM524 139q257 -254 654 -254q396 0 653 254q258 257 258 643q0 390 -258 643q-257 254 -653 254q-397 0 -654 -254
q-258 -253 -258 -643t258 -643z" />
    <glyph glyph-name="uni25CF" unicode="&#x25cf;" horiz-adv-x="2357" 
d="M1917 63q-289 -286 -739 -286q-451 0 -740 286q-293 287 -293 719q0 434 293 721q291 285 740 285q448 0 739 -285q293 -287 293 -721q0 -432 -293 -719z" />
    <glyph glyph-name="uni2776" unicode="&#x2776;" horiz-adv-x="2357" 
d="M1917 63q-289 -286 -739 -286q-451 0 -740 286q-293 287 -293 719q0 434 293 721q291 285 740 285q448 0 739 -285q293 -287 293 -721q0 -432 -293 -719zM1161 963v-609h105v875h-88l-4 -90q-11 -92 -130 -92h-135v-84h252z" />
    <glyph glyph-name="uni2777" unicode="&#x2777;" horiz-adv-x="2357" 
d="M438 1503q291 285 740 285q448 0 739 -285q293 -287 293 -721q0 -432 -293 -719q-289 -286 -739 -286q-451 0 -740 286q-293 287 -293 719q0 434 293 721zM1516 371v94h-531q7 66 55 117q44 47 152 98l111 53q111 52 162 117t51 151q0 118 -88 191q-87 72 -234 72
q-154 0 -238 -78q-85 -78 -86 -223h109q6 208 215 208q102 0 158 -47q55 -46 55 -123q0 -114 -152 -188l-149 -72q-248 -117 -248 -370h658z" />
    <glyph glyph-name="uni2778" unicode="&#x2778;" horiz-adv-x="2357" 
d="M1917 63q-289 -286 -739 -286q-451 0 -740 286q-293 287 -293 719q0 434 293 721q291 285 740 285q448 0 739 -285q293 -287 293 -721q0 -432 -293 -719zM1184 332q157 0 249 71q93 72 93 189q0 82 -50 143q-48 58 -137 80v2q66 18 108 72q40 52 40 125q0 106 -86 171
q-85 64 -232 64q-149 0 -235 -69t-86 -191h108q6 170 213 170q99 0 155 -40t56 -113q0 -70 -48 -110q-47 -40 -138 -40h-76v-94h76q106 0 165 -44q58 -43 58 -122q0 -84 -60 -129t-173 -45q-232 0 -242 190h-106q0 -130 94 -205t254 -75z" />
    <glyph glyph-name="uni2779" unicode="&#x2779;" horiz-adv-x="2357" 
d="M1917 63q-289 -286 -739 -286q-451 0 -740 286q-293 287 -293 719q0 434 293 721q291 285 740 285q448 0 739 -285q293 -287 293 -721q0 -432 -293 -719zM1249 594v-219h105v219l155 -2v86l-155 -2v573h-111l-463 -567v-90zM1249 1122v-446l-372 2l366 444h6z" />
    <glyph glyph-name="uni277A" unicode="&#x277a;" horiz-adv-x="2357" 
d="M438 1503q291 285 740 285q448 0 739 -285q293 -287 293 -721q0 -432 -293 -719q-289 -286 -739 -286q-451 0 -740 286q-293 287 -293 719q0 434 293 721zM1186 332q162 0 257 84t95 217q0 131 -86 211t-238 80q-144 0 -229 -80l-2 2l53 299h441v90h-516l-91 -463
l113 -24q69 88 209 88q111 0 174 -57q64 -58 64 -150q0 -94 -65 -150q-64 -55 -177 -55q-89 0 -151 37t-83 104l-106 -20q28 -100 117 -157q87 -56 221 -56z" />
    <glyph glyph-name="uni277B" unicode="&#x277b;" horiz-adv-x="2357" 
d="M1917 63q-289 -286 -739 -286q-451 0 -740 286q-293 287 -293 719q0 434 293 721q291 285 740 285q448 0 739 -285q293 -287 293 -721q0 -432 -293 -719zM1196 344q155 0 244 82q90 82 90 219q0 131 -86 208t-230 77q-184 0 -276 -123q7 364 262 364q157 0 203 -133
l102 27q-66 197 -305 197q-178 0 -270 -125t-92 -359q0 -434 358 -434zM1198 432q-109 0 -175 63q-67 64 -71 179q15 76 81 123q67 47 165 47q104 0 166 -56q61 -55 61 -147q0 -96 -61 -153q-60 -56 -166 -56z" />
    <glyph glyph-name="uni277C" unicode="&#x277c;" horiz-adv-x="2357" 
d="M1917 63q-289 -286 -739 -286q-451 0 -740 286q-293 287 -293 719q0 434 293 721q291 285 740 285q448 0 739 -285q293 -287 293 -721q0 -432 -293 -719zM1040 328h109q38 491 405 788v86h-665v-90h532q-344 -297 -381 -784z" />
    <glyph glyph-name="uni277D" unicode="&#x277d;" horiz-adv-x="2357" 
d="M1917 63q-289 -286 -739 -286q-451 0 -740 286q-293 287 -293 719q0 434 293 721q291 285 740 285q448 0 739 -285q293 -287 293 -721q0 -432 -293 -719zM913 412q101 -72 265 -72t264 72q98 71 98 194q0 85 -52 144q-50 58 -147 79v5q77 21 118 71q42 51 42 121
q0 103 -87 163t-236 60q-148 0 -235 -60t-87 -163q0 -68 42 -119q41 -50 116 -73v-5q-95 -22 -146 -80q-53 -61 -53 -143q0 -123 98 -194zM1337 907q-57 -39 -159 -39q-103 0 -160 39t-57 109q0 71 57 110t160 39q102 0 159 -39q58 -40 58 -110q0 -69 -58 -109zM1364 475
q-67 -49 -186 -49q-123 0 -185 49q-67 49 -67 135q0 85 65 129q66 45 187 45q254 0 254 -174q0 -85 -68 -135z" />
    <glyph glyph-name="uni277E" unicode="&#x277e;" horiz-adv-x="2357" 
d="M1917 63q-289 -286 -739 -286q-451 0 -740 286q-293 287 -293 719q0 434 293 721q291 285 740 285q448 0 739 -285q293 -287 293 -721q0 -432 -293 -719zM1180 328q178 0 271 124q93 125 93 359q0 434 -360 434q-153 0 -244 -83q-90 -82 -90 -218q0 -131 87 -209t230 -78
q186 0 275 125q-7 -364 -260 -364q-157 0 -203 133l-102 -29q30 -93 109 -143q80 -51 194 -51zM1182 745q-104 0 -165 56t-61 147q0 94 62 151q60 56 166 56q109 0 174 -61q66 -61 72 -179q-16 -75 -83 -122q-68 -48 -165 -48z" />
    <glyph glyph-name="uni2E18" unicode="&#x2e18;" horiz-adv-x="1245" 
d="M563 1057h156v-154h-156v154zM1010 35h118q-11 -220 -137 -338q-128 -119 -362 -119q-223 0 -353 104q-129 104 -129 289q0 226 218 357l84 51q80 50 110 102q32 60 39 156l2 68h84l21 -549v-209h-125v209l8 221q-29 -33 -119 -96q-207 -127 -207 -308q0 -145 97 -220
t270 -75q371 0 381 357z" />
    <glyph glyph-name="uniF8FF" unicode="&#xf8ff;" horiz-adv-x="2050" 
d="M909 920v368q0 78 -35 113q-37 37 -106 37q-83 0 -133 -53q-49 -52 -49 -156v-309h-66v778h66v-314q57 113 194 113q96 0 146 -53q49 -50 49 -152v-372h-66zM1720 1698h66v-778h-66v778zM1352 907q-122 0 -191 81t-69 216t68 213q69 80 188 80q116 0 185 -76t69 -200
q0 -17 -3 -29h-442q2 -109 54 -170t143 -61q138 0 178 129l61 -7q-22 -82 -86 -129t-155 -47zM1483 1389q-50 53 -133 53t-136 -53q-51 -51 -57 -148h381q-6 96 -55 148zM1595 281q-122 0 -190 80q-70 82 -70 217q0 134 69 213t187 79q119 0 185 -75q67 -76 67 -201v-29
h-442q2 -109 54 -170t142 -61q132 0 179 129l61 -6q-22 -82 -86 -129t-156 -47zM1100 457l149 399h66l-217 -563h-66l-223 563h70l151 -399q32 -96 35 -107q29 89 35 107zM1726 762q-50 53 -133 53q-82 0 -135 -53q-51 -51 -57 -148h381q-6 95 -56 148zM680 350h-72v88h72
v-88zM356 391v-170l142 2v-51l-142 4v-387q0 -74 72 -74h70v-55h-88q-119 0 -119 121v393l-96 -2v51l96 -2v170h65zM1055 182q-191 0 -191 -239q0 -112 50 -177t141 -65q146 0 170 152h61q-12 -99 -74 -153t-159 -54q-119 0 -187 77q-67 76 -67 216q0 141 68 219
q69 80 188 80q97 0 159 -53t72 -140h-61q-21 137 -170 137zM1855 -340h-65q-7 23 -21 98q-57 -112 -210 -112q-90 0 -140 44q-49 43 -49 117q0 147 184 168l140 19q41 6 56 21t15 46v17q0 106 -151 106q-79 0 -114 -28q-36 -28 -42 -93h-65q15 175 225 175q213 0 213 -166
v-267q0 -53 24 -145zM676 -340h-64v563h64v-563zM1571 -301q81 0 133 43q54 44 61 117v104q-5 -5 -45 -16l-157 -23q-129 -22 -129 -114q0 -52 35 -81q36 -30 102 -30z" />
    <glyph glyph-name="uniFEFF" unicode="&#xfeff;" horiz-adv-x="0" 
 />
    <glyph glyph-name="null" horiz-adv-x="0" 
 />
    <glyph glyph-name="Adieresis.ss01" horiz-adv-x="1466" 
d="M602 1677q-26 -26 -67 -26q-43 0 -66 26q-27 27 -27 68t27 65q40 41 101 18q63 -24 57 -83q0 -40 -25 -68zM999 1677q-40 -44 -103 -19q-62 25 -56 87q-6 59 56 83q62 23 103 -18q25 -25 25 -65t-25 -68zM1397 0h-137l-181 457h-694l-182 -457h-133l596 1460h137z
M702 1249l-274 -684h608l-268 684l-33 103z" />
    <glyph glyph-name="Cdotaccent.ss01" horiz-adv-x="1503" 
d="M862 1677q-44 -44 -103 -19q-59 26 -59 87q-4 55 45 78t99 0t45 -78q0 -41 -27 -68zM797 -31q-300 0 -475 213q-177 215 -177 549q0 341 179 547q176 207 471 207q229 0 399 -129q167 -131 197 -338h-127q-33 162 -159 258t-306 96q-242 0 -383 -172q-144 -170 -144 -469
q0 -294 142 -471q139 -178 387 -178q195 0 326 117q130 117 151 315h123q-27 -243 -191 -395q-164 -150 -413 -150z" />
    <glyph glyph-name="Edieresis.ss01" horiz-adv-x="1361" 
d="M582 1677q-26 -26 -68 -26t-65 26q-27 27 -27 68t27 65q40 41 101 18q62 -24 56 -83q0 -41 -24 -68zM979 1677q-40 -44 -103 -19q-63 26 -57 87q-6 59 57 83q62 23 103 -18q25 -25 25 -65t-25 -68zM317 702v-593h904v-109h-1026v1458h999v-108h-877v-539h813v-109h-813z
" />
    <glyph glyph-name="Edotaccent.ss01" horiz-adv-x="1361" 
d="M780 1677q-45 -44 -103 -19q-59 26 -59 87q-4 55 46 78q49 22 98 0q50 -23 45 -78q0 -41 -27 -68zM317 702v-593h904v-109h-1026v1458h999v-108h-877v-539h813v-109h-813z" />
    <glyph glyph-name="uni0122.ss01" horiz-adv-x="1665" 
d="M848 643v109h622v-752h-94l-22 272q-157 -301 -531 -301q-306 0 -491 209q-187 207 -187 553q0 342 183 549q180 205 501 205q252 0 418 -121q165 -121 203 -334l-119 -8q-30 163 -160 258q-128 94 -335 94q-264 0 -414 -172t-150 -475q0 -289 148 -469
q145 -178 405 -178q216 0 353 122t170 341v98h-500zM823 -135q99 0 99 -113v-96q0 -131 -150 -131h-20v57h36q74 0 74 64v71q-18 -6 -39 -6q-88 0 -88 76q0 78 88 78z" />
    <glyph glyph-name="Gdotaccent.ss01" horiz-adv-x="1665" 
d="M897 1677q-45 -44 -103 -19q-59 26 -59 87q-5 55 45 78t99 0t45 -78q0 -41 -27 -68zM848 643v109h622v-752h-94l-22 272q-157 -301 -531 -301q-306 0 -491 209q-187 207 -187 553q0 342 183 549q180 205 501 205q252 0 418 -121q165 -121 203 -334l-119 -8
q-30 163 -160 258q-128 94 -335 94q-264 0 -414 -172t-150 -475q0 -289 148 -469q145 -178 405 -178q216 0 353 122t170 341v98h-500z" />
    <glyph glyph-name="Idieresis.ss01" horiz-adv-x="512" 
d="M125 1677q-40 -44 -103 -19q-63 26 -57 87q-6 56 43 78t98 0q50 -23 44 -78q0 -40 -25 -68zM522 1677q-40 -44 -103 -19q-63 26 -57 87q-6 59 57 83q62 23 103 -18q25 -25 25 -65t-25 -68zM317 0h-122v1458h122v-1458z" />
    <glyph glyph-name="Idotaccent.ss01" horiz-adv-x="512" 
d="M324 1677q-45 -45 -104 -19q-58 25 -58 87q-4 55 45 78q49 22 98 0q49 -23 45 -78q0 -42 -26 -68zM317 0h-122v1458h122v-1458z" />
    <glyph glyph-name="uni0136.ss01" horiz-adv-x="1449" 
d="M1348 1458l-631 -594l663 -864h-155l-596 784l-312 -297v-487h-122v1458h122v-817l863 817h168zM719 -135q100 0 100 -113v-96q0 -131 -151 -131h-19v57h37q74 0 74 64v71q-18 -6 -39 -6q-90 0 -90 76q0 36 23 56q25 22 65 22z" />
    <glyph glyph-name="uni013B.ss01" horiz-adv-x="1232" 
d="M317 1458v-1349h816v-109h-938v1458h122zM664 -135q100 0 100 -113v-96q0 -131 -152 -131h-18v57h37q74 0 74 64v71q-18 -6 -39 -6q-91 0 -91 76q0 35 24 56q25 22 65 22z" />
    <glyph glyph-name="Ldot.ss01" horiz-adv-x="1232" 
d="M317 1458v-1349h816v-109h-938v1458h122zM750 666q-62 -6 -86 43t0 98t86 43q40 0 68 -26t28 -66q0 -41 -28 -67q-26 -25 -68 -25z" />
    <glyph glyph-name="uni0145.ss01" horiz-adv-x="1513" 
d="M1200 172v1286h119v-1458h-139l-869 1282v-1282h-116v1458h133zM758 -135q100 0 100 -113v-96q0 -131 -151 -131h-19v57h37q74 0 74 64v71q-18 -6 -39 -6q-90 0 -90 76q0 36 23 56q25 22 65 22z" />
    <glyph glyph-name="Odieresis.ss01" horiz-adv-x="1652" 
d="M692 1677q-26 -26 -67 -26q-43 0 -66 26q-27 27 -27 68t27 65q40 41 101 18q63 -24 57 -83q0 -40 -25 -68zM1090 1677q-40 -45 -104 -19q-62 25 -56 87q-6 59 56 83t104 -18q24 -24 24 -65t-24 -68zM825 -31q-302 0 -491 213t-189 547q0 332 189 545q186 211 491 211
q310 0 496 -211t186 -545q0 -335 -186 -547q-189 -213 -496 -213zM825 82q253 0 404 178q151 175 151 469q0 292 -151 467q-153 176 -404 176q-249 0 -401 -176t-152 -467q0 -289 154 -469q151 -178 399 -178z" />
    <glyph glyph-name="uni0156.ss01" horiz-adv-x="1468" 
d="M1245 434l49 -434h-125l-43 387q-16 143 -87 206q-69 62 -234 62h-488v-655h-122v1458h657q199 0 315 -103q117 -103 117 -280q0 -144 -77 -241q-77 -96 -214 -125q223 -33 252 -275zM317 766h484q168 0 262 79t94 220q0 135 -85 210q-86 75 -241 75h-514v-584zM741 -135
q101 0 101 -113v-96q0 -131 -152 -131h-18v57h37q73 0 73 64v71q-18 -6 -39 -6q-90 0 -90 76q0 35 24 56q25 22 64 22z" />
    <glyph glyph-name="uni0218.ss01" horiz-adv-x="1366" 
d="M578 840l276 -56q395 -82 395 -393q0 -192 -142 -306q-143 -114 -409 -114q-537 0 -581 482h119q33 -377 466 -377q208 0 317 81t109 228q0 118 -75 186q-79 71 -246 105l-246 49q-393 79 -393 369q0 180 135 286q136 107 373 107q235 0 376 -111q139 -109 154 -311h-119
q-12 155 -120 237q-107 82 -295 82q-183 0 -284 -74t-101 -208q0 -103 70 -166t221 -96zM692 -150q101 0 101 -112v-96q0 -131 -152 -131h-18v57h36q74 0 74 63v72q-18 -6 -39 -6q-90 0 -90 76q0 35 24 56t64 21z" />
    <glyph glyph-name="uni021A.ss01" horiz-adv-x="1318" 
d="M88 1350v108h1143v-108h-510v-1350h-125v1350h-508zM653 -135q101 0 101 -113v-96q0 -131 -152 -131h-18v57h37q73 0 73 64v71q-18 -6 -39 -6q-90 0 -90 76q0 35 24 56q25 22 64 22z" />
    <glyph glyph-name="Udieresis.ss01" horiz-adv-x="1490" 
d="M614 1677q-26 -26 -67 -26q-43 0 -66 26q-26 26 -26 68t26 65q40 42 102 18t56 -83q0 -40 -25 -68zM1012 1677q-40 -45 -104 -19q-62 25 -56 87q-6 59 56 83t104 -18q24 -24 24 -65t-24 -68zM1149 96q-146 -125 -404 -125q-257 0 -403 125q-147 123 -147 375v987h122
v-991q0 -385 428 -385q429 0 429 385v991h122v-987q0 -252 -147 -375z" />
    <glyph glyph-name="Wdieresis.ss01" horiz-adv-x="1939" 
d="M840 1677q-26 -26 -68 -26t-65 26q-27 27 -27 68t27 65q40 41 101 18q62 -24 56 -83q0 -41 -24 -68zM1237 1677q-40 -44 -103 -19q-63 26 -57 87q-6 59 57 83q62 23 103 -18q25 -25 25 -65t-25 -68zM1452 444l291 1014h127l-426 -1462h-117l-362 1323l-363 -1323h-117
l-415 1462h127l282 -1014l68 -278l67 278l281 1014h137l281 -1014l69 -278z" />
    <glyph glyph-name="Ydieresis.ss01" horiz-adv-x="1386" 
d="M563 1677q-26 -26 -67 -26q-43 0 -66 26q-27 27 -27 68t27 65q40 41 101 18q63 -24 57 -83q0 -40 -25 -68zM961 1677q-40 -45 -104 -19q-62 25 -56 87q-6 59 56 83t104 -18q24 -24 24 -65t-24 -68zM1196 1458h141l-575 -862v-596h-125v594l-588 864h150l456 -690l45 -76
l43 76z" />
    <glyph glyph-name="Zdotaccent.ss01" horiz-adv-x="1386" 
d="M762 1677q-45 -45 -104 -19q-58 25 -58 87q-4 55 45 78q49 22 98 0q49 -23 45 -78q0 -42 -26 -68zM1221 1358l-940 -1245h970v-113h-1116v121l928 1225h-875v112h1033v-100z" />
    <glyph glyph-name="G.ss03" horiz-adv-x="1642" 
d="M836 639v117h661v-54q0 -334 -174 -532q-175 -199 -485 -199q-318 0 -504 209q-189 207 -189 553q0 344 187 551q186 203 502 203q246 0 416 -126q168 -125 218 -341h-125q-44 167 -179 261q-137 95 -333 95q-255 0 -405 -168q-154 -169 -154 -475q0 -298 154 -475
q152 -176 412 -176q244 0 383 145t151 412h-536z" />
    <glyph glyph-name="uni01F4.ss03" horiz-adv-x="1642" 
d="M930 1944h166l-262 -312h-111zM836 639v117h661v-54q0 -334 -174 -532q-175 -199 -485 -199q-318 0 -504 209q-189 207 -189 553q0 344 187 551q186 203 502 203q246 0 416 -126q168 -125 218 -341h-125q-44 167 -179 261q-137 95 -333 95q-255 0 -405 -168
q-154 -169 -154 -475q0 -298 154 -475q152 -176 412 -176q244 0 383 145t151 412h-536z" />
    <glyph glyph-name="Gbreve.ss03" horiz-adv-x="1642" 
d="M831 1628q-315 0 -323 273h84q10 -189 242 -189q230 0 241 189h84q-7 -273 -328 -273zM836 639v117h661v-54q0 -334 -174 -532q-175 -199 -485 -199q-318 0 -504 209q-189 207 -189 553q0 344 187 551q186 203 502 203q246 0 416 -126q168 -125 218 -341h-125
q-44 167 -179 261q-137 95 -333 95q-255 0 -405 -168q-154 -169 -154 -475q0 -298 154 -475q152 -176 412 -176q244 0 383 145t151 412h-536z" />
    <glyph glyph-name="Gcircumflex.ss03" horiz-adv-x="1642" 
d="M1028 1620l-194 248l-195 -248h-129l260 324h127l260 -324h-129zM836 639v117h661v-54q0 -334 -174 -532q-175 -199 -485 -199q-318 0 -504 209q-189 207 -189 553q0 344 187 551q186 203 502 203q246 0 416 -126q168 -125 218 -341h-125q-44 167 -179 261
q-137 95 -333 95q-255 0 -405 -168q-154 -169 -154 -475q0 -298 154 -475q152 -176 412 -176q244 0 383 145t151 412h-536z" />
    <glyph glyph-name="uni0122.ss03" horiz-adv-x="1642" 
d="M836 639v117h661v-54q0 -334 -174 -532q-175 -199 -485 -199q-318 0 -504 209q-189 207 -189 553q0 344 187 551q186 203 502 203q246 0 416 -126q168 -125 218 -341h-125q-44 167 -179 261q-137 95 -333 95q-255 0 -405 -168q-154 -169 -154 -475q0 -298 154 -475
q152 -176 412 -176q244 0 383 145t151 412h-536zM858 -266l-108 -8v122h165v-200q0 -123 -116 -123h-49v57h49q59 0 59 58v94z" />
    <glyph glyph-name="Gdotaccent.ss03" horiz-adv-x="1642" 
d="M764 1829h139v-170h-139v170zM836 639v117h661v-54q0 -334 -174 -532q-175 -199 -485 -199q-318 0 -504 209q-189 207 -189 553q0 344 187 551q186 203 502 203q246 0 416 -126q168 -125 218 -341h-125q-44 167 -179 261q-137 95 -333 95q-255 0 -405 -168
q-154 -169 -154 -475q0 -298 154 -475q152 -176 412 -176q244 0 383 145t151 412h-536z" />
    <glyph glyph-name="uni0122.ss01.ss03" horiz-adv-x="1642" 
d="M836 639v117h661v-54q0 -334 -174 -532q-175 -199 -485 -199q-318 0 -504 209q-189 207 -189 553q0 344 187 551q186 203 502 203q246 0 416 -126q168 -125 218 -341h-125q-44 167 -179 261q-137 95 -333 95q-255 0 -405 -168q-154 -169 -154 -475q0 -298 154 -475
q152 -176 412 -176q244 0 383 145t151 412h-536zM827 -135q101 0 101 -113v-96q0 -131 -152 -131h-18v57h37q73 0 73 64v71q-18 -6 -39 -6q-88 0 -88 76q0 78 86 78z" />
    <glyph glyph-name="Gdotaccent.ss01.ss03" horiz-adv-x="1642" 
d="M901 1677q-45 -44 -103 -19q-59 26 -59 87q-5 55 45 78t99 0t45 -78q0 -41 -27 -68zM836 639v117h661v-54q0 -334 -174 -532q-175 -199 -485 -199q-318 0 -504 209q-189 207 -189 553q0 344 187 551q186 203 502 203q246 0 416 -126q168 -125 218 -341h-125
q-44 167 -179 261q-137 95 -333 95q-255 0 -405 -168q-154 -169 -154 -475q0 -298 154 -475q152 -176 412 -176q244 0 383 145t151 412h-536z" />
    <glyph glyph-name="R.ss04" horiz-adv-x="1372" 
d="M1292 0h-139l-424 610h-412v-610h-122v1458h589q216 0 340 -116q123 -116 123 -308q0 -175 -101 -286q-103 -113 -282 -134zM782 1350h-465v-631h465q160 0 250 84t90 231q0 148 -90 232t-250 84z" />
    <glyph glyph-name="Racute.ss04" horiz-adv-x="1372" 
d="M768 1944h166l-262 -312h-111zM1292 0h-139l-424 610h-412v-610h-122v1458h589q216 0 340 -116q123 -116 123 -308q0 -175 -101 -286q-103 -113 -282 -134zM782 1350h-465v-631h465q160 0 250 84t90 231q0 148 -90 232t-250 84z" />
    <glyph glyph-name="Rcaron.ss04" horiz-adv-x="1372" 
d="M995 1958l-260 -324h-127l-260 324h129l195 -246l194 246h129zM1292 0h-139l-424 610h-412v-610h-122v1458h589q216 0 340 -116q123 -116 123 -308q0 -175 -101 -286q-103 -113 -282 -134zM782 1350h-465v-631h465q160 0 250 84t90 231q0 148 -90 232t-250 84z" />
    <glyph glyph-name="uni0156.ss04" horiz-adv-x="1372" 
d="M864 614l428 -614h-139l-424 610h-412v-610h-122v1458h589q216 0 340 -116q123 -116 123 -308q0 -175 -101 -286q-103 -113 -282 -134zM782 1350h-465v-631h465q160 0 250 84t90 231q0 148 -90 232t-250 84zM698 -266l-108 -8v122h166v-200q0 -123 -117 -123h-49v57h47
q61 0 61 58v94z" />
    <glyph glyph-name="uni0156.ss01.ss04" horiz-adv-x="1372" 
d="M864 614l428 -614h-139l-424 610h-412v-610h-122v1458h589q216 0 340 -116q123 -116 123 -308q0 -175 -101 -286q-103 -113 -282 -134zM782 1350h-465v-631h465q160 0 250 84t90 231q0 148 -90 232t-250 84zM666 -135q100 0 100 -113v-96q0 -131 -152 -131h-18v57h37
q74 0 74 64v71q-18 -6 -39 -6q-90 0 -90 76q0 36 23 56q25 22 65 22z" />
    <glyph glyph-name="i.loclTRK" horiz-adv-x="475" 
d="M303 1292h-131v166h131v-166zM299 0h-123v1057h123v-1057z" />
    <glyph glyph-name="adieresis.ss01" horiz-adv-x="1175" 
d="M451 1305q-27 -27 -68 -27q-42 0 -66 27q-26 26 -26 67q0 43 26 66q39 41 102 17q62 -24 56 -83q0 -40 -24 -67zM848 1305q-41 -46 -104 -20q-62 25 -56 87q-6 59 56 83q63 24 104 -17q24 -24 24 -66q0 -40 -24 -67zM1110 94h33v-94h-68q-102 0 -149 47q-48 48 -52 152
q-50 -106 -155 -165q-108 -61 -248 -61q-168 0 -262 82t-94 221q0 269 344 316l266 35q75 12 104 42q29 31 29 87v26q0 201 -285 201q-139 0 -209 -53q-69 -52 -81 -172h-123q27 327 422 327q196 0 298 -81q103 -82 103 -232v-532q0 -79 28 -113q27 -33 99 -33zM492 72
q149 0 250 82t116 221v194q-28 -20 -86 -28l-293 -43q-243 -34 -243 -217q0 -96 67 -153q66 -56 189 -56z" />
    <glyph glyph-name="cdotaccent.ss01" horiz-adv-x="1126" 
d="M594 1278q-58 -5 -82 45q-24 49 0 97t82 42q41 0 66 -25q26 -26 26 -65t-26 -67q-26 -27 -66 -27zM588 -27q-222 0 -349 147q-128 148 -128 404q0 262 129 411q129 148 354 148q183 0 296 -98q114 -99 138 -264h-117q-21 121 -102 189q-83 69 -215 69q-177 0 -268 -118
q-93 -120 -93 -333q0 -212 95 -331t266 -119q268 0 317 282h115q-24 -182 -138 -284q-115 -103 -300 -103z" />
    <glyph glyph-name="edieresis.ss01" horiz-adv-x="1173" 
d="M461 1305q-27 -27 -68 -27t-65 27q-27 27 -27 67q0 42 27 66q39 41 101 17t56 -83q0 -40 -24 -67zM858 1305q-41 -45 -103 -20q-63 25 -57 87q-6 59 57 83q62 24 103 -17q25 -25 25 -66q0 -39 -25 -67zM1065 565v-53h-832q0 -205 99 -319q100 -115 270 -115
q260 0 336 241l113 -16q-43 -149 -162 -238q-121 -90 -289 -90q-227 0 -358 154q-131 151 -131 403q0 250 129 400q128 149 352 149q217 0 346 -141q127 -143 127 -375zM594 979q-156 0 -251 -99q-95 -100 -107 -278h714q-15 180 -106 278q-91 99 -250 99z" />
    <glyph glyph-name="edotaccent.ss01" horiz-adv-x="1173" 
d="M594 1278q-58 -5 -82 45q-24 49 0 97t82 42q41 0 66 -25q26 -26 26 -65t-26 -67q-26 -27 -66 -27zM1065 565v-53h-832q0 -205 99 -319q100 -115 270 -115q260 0 336 241l113 -16q-43 -149 -162 -238q-121 -90 -289 -90q-227 0 -358 154q-131 151 -131 403q0 250 129 400
q128 149 352 149q217 0 346 -141q127 -143 127 -375zM594 979q-156 0 -251 -99q-95 -100 -107 -278h714q-15 180 -106 278q-91 99 -250 99z" />
    <glyph glyph-name="uni0123.ss01" horiz-adv-x="1230" 
d="M567 1280q-98 0 -98 113v84q0 129 149 129h19v-58h-37q-72 0 -72 -63v-60q19 7 37 7q90 0 90 -76t-88 -76zM940 834v223h115v-1045q0 -222 -123 -333t-350 -111q-186 0 -299 78t-131 209h118q46 -189 316 -189q179 0 264 82q86 83 86 254v215q-50 -109 -146 -174
q-98 -66 -223 -66q-211 0 -334 158q-122 155 -122 406q0 245 125 391q123 147 327 147q131 0 232 -66q100 -65 145 -179zM578 84q159 0 257 123q97 122 97 330q0 207 -96 321q-100 115 -258 115q-160 0 -252 -113q-93 -116 -93 -319q0 -206 93 -333q91 -124 252 -124z" />
    <glyph glyph-name="gdotaccent.ss01" horiz-adv-x="1230" 
d="M567 1278q-58 -5 -82 45q-24 49 0 97t82 42q42 0 67 -25t25 -65q0 -41 -25 -67q-26 -27 -67 -27zM940 834v223h115v-1045q0 -222 -123 -333t-350 -111q-186 0 -299 78t-131 209h118q46 -189 316 -189q179 0 264 82q86 83 86 254v215q-50 -109 -146 -174q-98 -66 -223 -66
q-211 0 -334 158q-122 155 -122 406q0 245 125 391q123 147 327 147q131 0 232 -66q100 -65 145 -179zM578 84q159 0 257 123q97 122 97 330q0 207 -96 321q-100 115 -258 115q-160 0 -252 -113q-93 -116 -93 -319q0 -206 93 -333q91 -124 252 -124z" />
    <glyph glyph-name="i.ss01" horiz-adv-x="475" 
d="M240 1282q-60 -4 -84 45t0 98t84 45q58 5 82 -45q24 -49 0 -98q-24 -50 -82 -45zM301 0h-123v1057h123v-1057z" />
    <glyph glyph-name="idieresis.ss01" horiz-adv-x="475" 
d="M106 1305q-27 -27 -67 -27q-41 0 -68 27q-24 27 -24 67q0 42 24 66q41 41 104 17q62 -24 56 -83q0 -39 -25 -67zM504 1305q-41 -46 -104 -20q-62 25 -56 87q-6 59 56 83q63 24 104 -17q24 -24 24 -66q0 -40 -24 -67zM299 0h-123v1057h123v-1057z" />
    <glyph glyph-name="i.loclTRK.ss01" horiz-adv-x="475" 
d="M240 1282q-60 -4 -84 45t0 98t84 45q58 5 82 -45q24 -49 0 -98q-24 -50 -82 -45zM301 0h-123v1057h123v-1057z" />
    <glyph glyph-name="ij.ss01" horiz-adv-x="950" 
d="M240 1282q-60 -4 -84 45t0 98t84 45q58 5 82 -45q24 -49 0 -98q-24 -50 -82 -45zM715 1280q-43 0 -70 27t-27 67q0 44 27 69q26 25 70 25q41 0 67 -25q27 -25 27 -69q0 -40 -27 -67t-67 -27zM301 0h-123v1057h123v-1057zM487 -418h-51v105h51q88 0 127 39t39 129v1202
h123v-1186q0 -150 -69 -219q-70 -70 -220 -70z" />
    <glyph glyph-name="iogonek.ss01" horiz-adv-x="475" 
d="M170 1438q45 41 103 17q59 -24 59 -83q5 -58 -45 -82q-49 -24 -99 0t-45 82q0 39 27 66zM186 0h-10v1057h123v-1057l-106 -92q-52 -44 -71 -70q-18 -24 -18 -59q0 -101 134 -101h61v-90h-76q-115 0 -173 45t-58 125q0 58 32 99t117 108z" />
    <glyph glyph-name="j.ss01" horiz-adv-x="475" 
d="M240 1280q-43 0 -70 27t-27 67q0 44 27 69q26 25 70 25q41 0 67 -25q27 -25 27 -69q0 -40 -27 -67t-67 -27zM12 -418h-51v105h51q88 0 127 39t39 129v1202h123v-1186q0 -149 -70 -219t-219 -70z" />
    <glyph glyph-name="uni0137.ss01" horiz-adv-x="1144" 
d="M1044 1057l-440 -402l469 -655h-145l-410 580l-219 -199v-381h-123v1458h123v-948l588 547h157zM567 -135q101 0 101 -113v-96q0 -131 -152 -131h-18v57h37q73 0 73 64v71q-18 -6 -39 -6q-90 0 -90 76q0 35 24 56q25 22 64 22z" />
    <glyph glyph-name="uni013C.ss01" horiz-adv-x="475" 
d="M176 1458h123v-1458h-123v1458zM231 -135q101 0 101 -113v-96q0 -131 -152 -131h-18v57h37q73 0 73 64v71q-18 -6 -39 -6q-90 0 -90 76q0 35 24 56q25 22 64 22z" />
    <glyph glyph-name="ldot.ss01" horiz-adv-x="696" 
d="M299 0h-123v1458h123v-1458zM614 662q-28 -27 -71 -27t-70 27q-27 24 -27 65t27 68q27 24 70 24q42 0 71 -24q29 -27 29 -68t-29 -65z" />
    <glyph glyph-name="napostrophe.ss01" horiz-adv-x="1732" 
d="M295 1466q102 0 102 -116v-174q0 -170 -159 -170h-17v69h19q84 0 84 86v119h-29q-64 -6 -91 43t0 98q27 50 91 45zM1192 1083q173 0 268 -98q96 -99 96 -272v-713h-122v690q0 285 -267 285q-152 0 -247 -101t-95 -294v-580h-123v1057h115v-205q105 231 375 231z" />
    <glyph glyph-name="uni0146.ss01" horiz-adv-x="1206" 
d="M666 1083q173 0 268 -98q96 -99 96 -272v-713h-123v690q0 285 -266 285q-156 0 -249 -101q-93 -100 -93 -294v-580h-123v1057h115v-205q105 231 375 231zM588 -135q100 0 100 -113v-96q0 -131 -151 -131h-19v57h37q74 0 74 64v71q-18 -6 -39 -6q-90 0 -90 76q0 36 23 56
q25 22 65 22z" />
    <glyph glyph-name="odieresis.ss01" horiz-adv-x="1210" 
d="M477 1305q-27 -27 -67 -27q-42 0 -66 27q-27 27 -27 67q0 42 27 66q39 41 101 17q63 -24 57 -83q0 -39 -25 -67zM874 1305q-41 -45 -103 -20t-56 87q-6 59 56 83t103 -17q25 -25 25 -66q0 -39 -25 -67zM606 -27q-222 0 -358 154q-137 151 -137 401q0 255 137 406
q136 149 360 149q223 0 359 -149q135 -152 135 -402q0 -251 -137 -403q-136 -156 -359 -156zM606 78q172 0 273 123q100 122 100 331q0 208 -100 327q-101 120 -273 120q-171 0 -272 -122t-101 -329q0 -206 102 -328t271 -122z" />
    <glyph glyph-name="uni0157.ss01" horiz-adv-x="757" 
d="M653 1085q36 0 66 -6v-121q-51 7 -84 7q-145 0 -240 -101t-96 -278v-586h-123v1057h115v-236q99 264 362 264zM231 -135q101 0 101 -113v-96q0 -131 -152 -131h-18v57h37q73 0 73 64v71q-18 -6 -39 -6q-90 0 -90 76q0 35 24 56q25 22 64 22z" />
    <glyph glyph-name="uni0219.ss01" horiz-adv-x="1056" 
d="M465 618l188 -36q305 -60 305 -289q0 -149 -111 -235q-110 -85 -310 -85q-406 0 -433 353h117q24 -250 320 -250q145 0 222 54t77 153q0 155 -211 192l-193 35q-152 28 -228 95q-75 66 -75 179q0 138 101 215q102 78 282 78t290 -83q109 -82 126 -236h-121
q-33 221 -297 221q-124 0 -195 -49t-71 -135q0 -74 52 -116q54 -43 165 -61zM530 -135q99 0 99 -113v-96q0 -131 -150 -131h-20v57h37q73 0 73 64v71q-18 -6 -39 -6q-88 0 -88 76q0 78 88 78z" />
    <glyph glyph-name="uni021B.ss01" horiz-adv-x="698" 
d="M637 961l-266 4v-723q0 -74 30 -106t103 -32h131v-104h-164q-223 0 -223 227v738l-182 -4v96l182 -4v317h123v-317l266 4v-96zM309 -119q101 0 101 -112v-97q0 -131 -152 -131h-18v58h36q74 0 74 63v72q-18 -6 -39 -6q-90 0 -90 75q0 36 24 57t64 21z" />
    <glyph glyph-name="udieresis.ss01" horiz-adv-x="1206" 
d="M473 1305q-27 -27 -67 -27q-42 0 -66 27q-27 27 -27 67q0 42 27 66q39 41 101 17q63 -24 57 -83q0 -39 -25 -67zM870 1305q-41 -45 -103 -20t-56 87q-6 59 56 83t103 -17q25 -25 25 -66q0 -39 -25 -67zM907 477v580h123v-1057h-117v205q-105 -232 -374 -232
q-173 0 -268 98t-95 273v713h123v-690q0 -285 264 -285q156 0 250 100t94 295z" />
    <glyph glyph-name="wdieresis.ss01" horiz-adv-x="1572" 
d="M655 1305q-27 -27 -67 -27q-42 0 -66 27q-26 26 -26 67q0 43 26 66q39 41 102 17q62 -24 56 -83q0 -39 -25 -67zM1053 1305q-41 -46 -104 -20q-62 25 -56 87q-6 59 56 83q63 24 104 -17q24 -24 24 -66q0 -40 -24 -67zM1157 334l221 723h127l-344 -1057h-123l-204 745
l-46 205l-47 -205l-211 -745h-124l-338 1057h133l217 -723l53 -205l49 205l203 723h131l205 -723l47 -201z" />
    <glyph glyph-name="ydieresis.ss01" horiz-adv-x="1107" 
d="M424 1305q-27 -27 -68 -27t-65 27q-27 27 -27 67q0 42 27 66q39 41 101 17q63 -24 57 -83q0 -39 -25 -67zM821 1305q-41 -45 -103 -20t-56 87q-6 59 56 83t103 -17q25 -25 25 -66q0 -39 -25 -67zM559 106l354 951h127l-499 -1280q-45 -111 -107 -153q-61 -42 -176 -42
h-90v105h80q88 0 127 29q42 31 76 116l59 152l-442 1073h133l340 -854z" />
    <glyph glyph-name="zdotaccent.ss01" horiz-adv-x="1079" 
d="M541 1278q-58 -5 -82 45q-24 49 0 97t82 42q41 0 66 -25q26 -26 26 -65t-26 -67q-25 -27 -66 -27zM934 979l-678 -879h713v-100h-858v88l671 868h-645v101h797v-78z" />
    <glyph glyph-name="a.ss02" horiz-adv-x="1226" 
d="M942 858l4 199h105v-1057h-105l-2 217q-113 -242 -369 -242q-209 0 -337 154q-127 151 -127 399q0 253 127 404q124 149 337 149q261 0 367 -223zM582 74q164 0 260 123t96 331q0 210 -97 332q-97 123 -259 123q-166 0 -259 -120q-94 -121 -94 -331q0 -213 93 -336
q92 -122 260 -122z" />
    <glyph glyph-name="aacute.ss02" horiz-adv-x="1226" 
d="M696 1542h166l-262 -311h-111zM942 858l4 199h105v-1057h-105l-2 217q-113 -242 -369 -242q-209 0 -337 154q-127 151 -127 399q0 253 127 404q124 149 337 149q261 0 367 -223zM582 74q164 0 260 123t96 331q0 210 -97 332q-97 123 -259 123q-166 0 -259 -120
q-94 -121 -94 -331q0 -213 93 -336q92 -122 260 -122z" />
    <glyph glyph-name="abreve.ss02" horiz-adv-x="1226" 
d="M596 1227q-314 0 -324 274h84q7 -190 242 -190t242 190h84q-10 -274 -328 -274zM942 858l4 199h105v-1057h-105l-2 217q-113 -242 -369 -242q-209 0 -337 154q-127 151 -127 399q0 253 127 404q124 149 337 149q261 0 367 -223zM582 74q164 0 260 123t96 331
q0 210 -97 332q-97 123 -259 123q-166 0 -259 -120q-94 -121 -94 -331q0 -213 93 -336q92 -122 260 -122z" />
    <glyph glyph-name="acircumflex.ss02" horiz-adv-x="1226" 
d="M793 1219l-195 247l-195 -247h-129l261 323h127l260 -323h-129zM942 858l4 199h105v-1057h-105l-2 217q-113 -242 -369 -242q-209 0 -337 154q-127 151 -127 399q0 253 127 404q124 149 337 149q261 0 367 -223zM582 74q164 0 260 123t96 331q0 210 -97 332
q-97 123 -259 123q-166 0 -259 -120q-94 -121 -94 -331q0 -213 93 -336q92 -122 260 -122z" />
    <glyph glyph-name="adieresis.ss02" horiz-adv-x="1226" 
d="M319 1458h140v-168h-140v168zM737 1458h140v-168h-140v168zM942 858l4 199h105v-1057h-105l-2 217q-113 -242 -369 -242q-209 0 -337 154q-127 151 -127 399q0 253 127 404q124 149 337 149q261 0 367 -223zM582 74q164 0 260 123t96 331q0 210 -97 332q-97 123 -259 123
q-166 0 -259 -120q-94 -121 -94 -331q0 -213 93 -336q92 -122 260 -122z" />
    <glyph glyph-name="agrave.ss02" horiz-adv-x="1226" 
d="M492 1542l204 -311h-110l-262 311h168zM942 858l4 199h105v-1057h-105l-2 217q-113 -242 -369 -242q-209 0 -337 154q-127 151 -127 399q0 253 127 404q124 149 337 149q261 0 367 -223zM582 74q164 0 260 123t96 331q0 210 -97 332q-97 123 -259 123q-166 0 -259 -120
q-94 -121 -94 -331q0 -213 93 -336q92 -122 260 -122z" />
    <glyph glyph-name="amacron.ss02" horiz-adv-x="1226" 
d="M285 1395h626v-97h-626v97zM942 858l4 199h105v-1057h-105l-2 217q-113 -242 -369 -242q-209 0 -337 154q-127 151 -127 399q0 253 127 404q124 149 337 149q261 0 367 -223zM582 74q164 0 260 123t96 331q0 210 -97 332q-97 123 -259 123q-166 0 -259 -120
q-94 -121 -94 -331q0 -213 93 -336q92 -122 260 -122z" />
    <glyph glyph-name="aogonek.ss02" horiz-adv-x="1226" 
d="M1051 0l-107 -92q-52 -44 -71 -70q-17 -23 -17 -59q0 -101 131 -101h64v-90h-78q-113 0 -171 45q-59 45 -59 125q0 58 32 99q30 38 118 108l68 53l-13 222q-52 -115 -148 -177q-98 -63 -225 -63q-213 0 -337 150q-127 151 -127 382q0 249 127 400q124 149 337 149
q261 0 367 -223l4 199h105v-1057zM582 98q164 0 260 119t96 318q0 206 -97 327t-259 121q-166 0 -259 -119q-94 -120 -94 -327q0 -200 94 -320q93 -119 259 -119z" />
    <glyph glyph-name="aring.ss02" horiz-adv-x="1226" 
d="M782 1284q-74 -74 -184 -74t-182 74q-74 72 -74 180q0 111 73 184q72 72 183 72t183 -72q73 -73 73 -184q0 -108 -72 -180zM719 1589q-46 45 -121 45q-74 0 -121 -45q-47 -47 -47 -125q0 -75 47 -122q46 -46 121 -46t121 46q47 47 47 122q0 78 -47 125zM942 858l4 199
h105v-1057h-105l-2 217q-113 -242 -369 -242q-209 0 -337 154q-127 151 -127 399q0 253 127 404q124 149 337 149q261 0 367 -223zM582 74q164 0 260 123t96 331q0 210 -97 332q-97 123 -259 123q-166 0 -259 -120q-94 -121 -94 -331q0 -213 93 -336q92 -122 260 -122z" />
    <glyph glyph-name="aringacute.ss02" horiz-adv-x="1226" 
d="M696 2118h166l-262 -312h-111zM782 1268q-74 -74 -184 -74t-182 74q-72 72 -72 180q0 111 72 183q73 73 182 73q111 0 184 -73q72 -72 72 -183q0 -108 -72 -180zM598 1618q-74 0 -120 -46t-46 -124q0 -76 46 -122t120 -46q75 0 121 46q47 47 47 122q0 77 -47 124
q-46 46 -121 46zM942 858l4 199h105v-1057h-105l-2 217q-113 -242 -369 -242q-209 0 -337 154q-127 151 -127 399q0 253 127 404q124 149 337 149q261 0 367 -223zM582 74q164 0 260 123t96 331q0 210 -97 332q-97 123 -259 123q-166 0 -259 -120q-94 -121 -94 -331
q0 -213 93 -336q92 -122 260 -122z" />
    <glyph glyph-name="atilde.ss02" horiz-adv-x="1226" 
d="M428 1468q-112 0 -119 -217h-96q6 312 215 312q59 0 111 -32q50 -31 79 -75q68 -108 150 -108q57 0 86 50q28 49 33 165h96q-6 -312 -215 -312q-60 0 -110 32q-48 31 -76 77q-68 108 -154 108zM942 858l4 199h105v-1057h-105l-2 217q-113 -242 -369 -242q-209 0 -337 154
q-127 151 -127 399q0 253 127 404q124 149 337 149q261 0 367 -223zM582 74q164 0 260 123t96 331q0 210 -97 332q-97 123 -259 123q-166 0 -259 -120q-94 -121 -94 -331q0 -213 93 -336q92 -122 260 -122z" />
    <glyph glyph-name="adieresis.ss01.ss02" horiz-adv-x="1226" 
d="M467 1305q-27 -27 -68 -27t-65 27q-27 27 -27 67q0 42 27 66q39 41 101 17q63 -24 57 -83q0 -39 -25 -67zM864 1305q-41 -45 -103 -20t-56 87q-6 59 56 83t103 -17q25 -25 25 -66q0 -39 -25 -67zM942 858l4 199h105v-1057h-105l-2 217q-113 -242 -369 -242
q-209 0 -337 154q-127 151 -127 399q0 253 127 404q124 149 337 149q261 0 367 -223zM582 74q164 0 260 123t96 331q0 210 -97 332q-97 123 -259 123q-166 0 -259 -120q-94 -121 -94 -331q0 -213 93 -336q92 -122 260 -122z" />
    <glyph glyph-name="uni021B.ss01.ss05" horiz-adv-x="702" 
d="M414 1370v-317l223 4v-96l-223 4v-965h-123v965l-225 -4v96l225 -4v317h123zM346 -135q100 0 100 -113v-96q0 -131 -151 -131h-19v57h37q74 0 74 64v71q-18 -6 -39 -6q-90 0 -90 76q0 35 24 56q25 22 64 22z" />
    <glyph glyph-name="udieresis.ss01.ss05" horiz-adv-x="1206" 
d="M473 1305q-27 -27 -67 -27q-42 0 -66 27q-27 27 -27 67q0 42 27 66q39 41 101 17q63 -24 57 -83q0 -39 -25 -67zM870 1305q-41 -45 -103 -20t-56 87q-6 59 56 83t103 -17q25 -25 25 -66q0 -39 -25 -67zM907 477v580h123v-1057h-117v205q-105 -232 -374 -232
q-173 0 -268 98t-95 273v713h123v-690q0 -285 264 -285q156 0 250 100t94 295z" />
    <glyph glyph-name="t.ss05" horiz-adv-x="702" 
d="M414 1053l223 4v-96l-223 4v-965h-123v965l-225 -4v96l225 -4v317h123v-317z" />
    <glyph glyph-name="tbar.ss05" horiz-adv-x="702" 
d="M637 1057v-96l-223 4v-396l223 4v-96l-223 4v-481h-123v481l-225 -4v96l225 -4v396l-225 -4v96l225 -4v317h123v-317z" />
    <glyph glyph-name="tcaron.ss05" horiz-adv-x="702" 
d="M561 1217l115 405h143l-164 -405h-94zM291 1370h123v-317l223 4v-96l-223 4v-965h-123v965l-225 -4v96l225 -4v317z" />
    <glyph glyph-name="uni0163.ss05" horiz-adv-x="702" 
d="M414 965v-965h-21l-82 -133h54q93 0 142 -42q50 -42 50 -120q0 -83 -67 -132q-66 -48 -185 -48h-72v78h64q164 0 164 98q0 84 -113 84h-88l-39 65l94 150h-24v965l-225 -4v96l225 -4v317h123v-317l223 4v-96z" />
    <glyph glyph-name="uni021B.ss05" horiz-adv-x="702" 
d="M414 1370v-317l223 4v-96l-223 4v-965h-123v965l-225 -4v96l225 -4v317h123zM379 -266l-109 -8v122h166v-200q0 -123 -117 -123h-49v57h47q62 0 62 58v94z" />
    <glyph glyph-name="udieresis.ss01.ss06" horiz-adv-x="1206" 
d="M473 1305q-27 -27 -67 -27q-42 0 -66 27q-27 27 -27 67q0 42 27 66q39 41 101 17q63 -24 57 -83q0 -39 -25 -67zM870 1305q-41 -45 -103 -20t-56 87q-6 59 56 83t103 -17q25 -25 25 -66q0 -39 -25 -67zM604 -20q-202 0 -315 102t-113 293v682h123v-674q0 -299 305 -299
q303 0 303 299v674h123v-682q0 -191 -111 -293t-315 -102z" />
    <glyph glyph-name="u.ss06" horiz-adv-x="1206" 
d="M604 -20q-202 0 -315 102t-113 293v682h123v-674q0 -299 305 -299q303 0 303 299v674h123v-682q0 -191 -111 -293t-315 -102z" />
    <glyph glyph-name="uacute.ss06" horiz-adv-x="1206" 
d="M604 1231h-110l206 311h166zM604 -20q-202 0 -315 102t-113 293v682h123v-674q0 -299 305 -299q303 0 303 299v674h123v-682q0 -191 -111 -293t-315 -102z" />
    <glyph glyph-name="ubreve.ss06" horiz-adv-x="1206" 
d="M602 1227q-313 0 -323 274h83q10 -190 242 -190t242 190h84q-10 -274 -328 -274zM604 -20q-202 0 -315 102t-113 293v682h123v-674q0 -299 305 -299q303 0 303 299v674h123v-682q0 -191 -111 -293t-315 -102z" />
    <glyph glyph-name="ucircumflex.ss06" horiz-adv-x="1206" 
d="M410 1219h-129l260 323h127l260 -323h-129l-195 247zM604 -20q-202 0 -315 102t-113 293v682h123v-674q0 -299 305 -299q303 0 303 299v674h123v-682q0 -191 -111 -293t-315 -102z" />
    <glyph glyph-name="udieresis.ss06" horiz-adv-x="1206" 
d="M465 1290h-139v168h139v-168zM883 1290h-140v168h140v-168zM604 -20q-202 0 -315 102t-113 293v682h123v-674q0 -299 305 -299q303 0 303 299v674h123v-682q0 -191 -111 -293t-315 -102z" />
    <glyph glyph-name="ugrave.ss06" horiz-adv-x="1206" 
d="M700 1231h-110l-262 311h168zM604 -20q-202 0 -315 102t-113 293v682h123v-674q0 -299 305 -299q303 0 303 299v674h123v-682q0 -191 -111 -293t-315 -102z" />
    <glyph glyph-name="uhungarumlaut.ss06" horiz-adv-x="1206" 
d="M432 1217h-108l202 333h144zM805 1217h-109l217 333h146zM604 -20q-202 0 -315 102t-113 293v682h123v-674q0 -299 305 -299q303 0 303 299v674h123v-682q0 -191 -111 -293t-315 -102z" />
    <glyph glyph-name="umacron.ss06" horiz-adv-x="1206" 
d="M918 1298h-627v97h627v-97zM604 -20q-202 0 -315 102t-113 293v682h123v-674q0 -299 305 -299q303 0 303 299v674h123v-682q0 -191 -111 -293t-315 -102z" />
    <glyph glyph-name="uogonek.ss06" horiz-adv-x="1206" 
d="M907 383v674h123v-682q0 -147 -67 -242q-68 -96 -193 -131l-135 -80q-103 -61 -103 -133q0 -104 146 -104h70v-91h-97q-114 0 -173 47q-58 46 -58 128q0 120 153 198l23 13q-197 1 -309 104q-111 102 -111 291v682h123v-674q0 -299 305 -299q303 0 303 299z" />
    <glyph glyph-name="uring.ss06" horiz-adv-x="1206" 
d="M788 1284q-74 -74 -184 -74q-113 0 -182 74q-74 72 -74 180q0 111 73 184q72 72 183 72t183 -72q73 -73 73 -184q0 -108 -72 -180zM483 1343q47 -45 121 -45t121 45q47 47 47 121q0 77 -47 124q-46 46 -121 46t-121 -46q-47 -47 -47 -124q0 -74 47 -121zM604 -20
q-202 0 -315 102t-113 293v682h123v-674q0 -299 305 -299q303 0 303 299v674h123v-682q0 -191 -111 -293t-315 -102z" />
    <glyph glyph-name="utilde.ss06" horiz-adv-x="1206" 
d="M315 1251h-96q6 312 215 312q59 0 111 -32t80 -75q67 -108 149 -108q57 0 86 50q28 49 33 165h96q-6 -312 -215 -312q-59 0 -109 32t-77 77q-67 108 -154 108q-112 0 -119 -217zM604 -20q-202 0 -315 102t-113 293v682h123v-674q0 -299 305 -299q303 0 303 299v674h123
v-682q0 -191 -111 -293t-315 -102z" />
    <glyph glyph-name="ydieresis.ss01.ss07" horiz-adv-x="1107" 
d="M424 1305q-27 -27 -68 -27t-65 27q-27 27 -27 67q0 42 27 66q39 41 101 17q63 -24 57 -83q0 -39 -25 -67zM821 1305q-41 -45 -103 -20t-56 87q-6 59 56 83t103 -17q25 -25 25 -66q0 -39 -25 -67zM565 125l348 932h127l-577 -1475h-119l164 404l-440 1071h133l340 -854
q17 -43 24 -78z" />
    <glyph glyph-name="y.ss07" horiz-adv-x="1107" 
d="M565 125l348 932h127l-577 -1475h-119l164 404l-440 1071h133l340 -854q17 -43 24 -78z" />
    <glyph glyph-name="yacute.ss07" horiz-adv-x="1107" 
d="M653 1542h166l-262 -311h-111zM565 125l348 932h127l-577 -1475h-119l164 404l-440 1071h133l340 -854q17 -43 24 -78z" />
    <glyph glyph-name="ycircumflex.ss07" horiz-adv-x="1107" 
d="M750 1219l-195 247l-195 -247h-129l261 323h126l261 -323h-129zM565 125l348 932h127l-577 -1475h-119l164 404l-440 1071h133l340 -854q17 -43 24 -78z" />
    <glyph glyph-name="ydieresis.ss07" horiz-adv-x="1107" 
d="M276 1458h140v-168h-140v168zM694 1458h140v-168h-140v168zM565 125l348 932h127l-577 -1475h-119l164 404l-440 1071h133l340 -854q17 -43 24 -78z" />
    <glyph glyph-name="ygrave.ss07" horiz-adv-x="1107" 
d="M449 1542l204 -311h-110l-262 311h168zM565 125l348 932h127l-577 -1475h-119l164 404l-440 1071h133l340 -854q17 -43 24 -78z" />
    <glyph glyph-name="l.ss08" horiz-adv-x="593" 
d="M539 0h-140q-115 0 -169 55q-54 56 -54 172v1231h123v-1216q0 -73 31 -106q30 -32 102 -32h107v-104z" />
    <glyph glyph-name="lacute.ss08" horiz-adv-x="593" 
d="M240 1632h-111l207 312h166zM539 0h-140q-115 0 -169 55q-54 56 -54 172v1231h123v-1216q0 -73 31 -106q30 -32 102 -32h107v-104z" />
    <glyph glyph-name="lcaron.ss08" horiz-adv-x="757" 
d="M539 0h-140q-115 0 -169 55q-54 56 -54 172v1231h123v-1216q0 -73 31 -106q30 -32 102 -32h107v-104zM594 1053h-96l114 405h146z" />
    <glyph glyph-name="uni013C.ss08" horiz-adv-x="593" 
d="M432 104h107v-104h-140q-115 0 -169 55q-54 56 -54 172v1231h123v-1216q0 -73 31 -106q30 -32 102 -32zM264 -266l-108 -8v122h166v-200q0 -123 -117 -123h-49v57h47q61 0 61 58v94z" />
    <glyph glyph-name="ldot.ss08" horiz-adv-x="688" 
d="M539 0h-140q-115 0 -169 55q-54 56 -54 172v1231h123v-1216q0 -73 31 -106q30 -32 102 -32h107v-104zM614 647h-170v160h170v-160z" />
    <glyph glyph-name="lslash.ss08" horiz-adv-x="768" 
d="M575 104h107v-104h-139q-115 0 -169 55q-55 57 -55 172v459l-208 -119v123l208 103v665h123v-600l209 119v-123l-209 -102v-510q0 -73 31 -106q30 -32 102 -32z" />
    <glyph glyph-name="uni013C.ss01.ss08" horiz-adv-x="593" 
d="M432 104h107v-104h-140q-115 0 -169 55q-54 56 -54 172v1231h123v-1216q0 -73 31 -106q30 -32 102 -32zM231 -135q101 0 101 -113v-96q0 -131 -152 -131h-18v57h37q73 0 73 64v71q-18 -6 -39 -6q-90 0 -90 76q0 35 24 56q25 22 64 22z" />
    <glyph glyph-name="ldot.ss01.ss08" horiz-adv-x="716" 
d="M539 0h-140q-115 0 -169 55q-54 56 -54 172v1231h123v-1216q0 -73 31 -106q30 -32 102 -32h107v-104zM614 662q-28 -27 -71 -27t-70 27q-27 24 -27 65t27 68q27 24 70 24q42 0 71 -24q29 -27 29 -68t-29 -65z" />
    <glyph glyph-name="fi.ss01" horiz-adv-x="1171" 
d="M936 1470q58 5 82 -45q24 -49 0 -98q-24 -50 -82 -45q-60 -4 -84 45t0 98t84 45zM250 1053v104q0 156 71 229q71 72 220 72h108v-104h-106q-89 0 -130 -41q-40 -40 -40 -139v-121l276 4v-96l-276 4v-965h-123v965l-184 -4v96zM997 0h-123v1057h123v-1057z" />
    <glyph glyph-name="fl.ss08" horiz-adv-x="1290" 
d="M250 1053v104q0 156 71 229q71 72 220 72h108v-104h-106q-89 0 -130 -41q-40 -40 -40 -139v-121l276 4v-96l-276 4v-965h-123v965l-184 -4v96zM1128 104h107v-104h-139q-115 0 -169 55q-55 57 -55 172v1231h123v-1216q0 -73 31 -106q30 -32 102 -32z" />
    <glyph glyph-name="ordfeminine.ss02" horiz-adv-x="999" 
d="M729 1325l8 135h86v-698h-86l-8 139q-85 -156 -283 -156q-151 0 -243 101t-92 268q0 164 92 264q91 99 246 99q200 0 280 -152zM469 827q119 0 188 77q70 78 70 208q0 132 -71 208q-70 75 -193 75q-118 0 -185 -73t-67 -208q0 -134 68 -211q67 -76 190 -76z" />
    <glyph glyph-name="t.sups.ss05" horiz-adv-x="622" 
d="M362 1456l195 4v-90l-195 2v-610h-102v610l-194 -2v90l194 -4v209h102v-209z" />
    <glyph glyph-name="zero.ss09" horiz-adv-x="2248" 
d="M2054 -180h-1859v1818h1859v-1818zM1124 303q181 0 274 117t93 342q0 459 -367 459q-366 0 -366 -459t366 -459zM1124 399q-130 0 -193 88q-63 89 -63 275q0 362 256 362q254 0 254 -362q0 -188 -62 -275q-63 -88 -192 -88z" />
    <glyph glyph-name="one.ss09" horiz-adv-x="2248" 
d="M2054 -180h-1859v1818h1859v-1818zM1118 928v-609h105v875h-88l-5 -90q-8 -92 -129 -92h-137v-84h254z" />
    <glyph glyph-name="two.ss09" horiz-adv-x="2248" 
d="M195 -180v1818h1859v-1818h-1859zM1452 328v94h-530q7 66 55 117q45 48 151 98l111 51q113 53 163 118t50 152q0 119 -87 191t-235 72q-153 0 -237 -78q-85 -78 -86 -223h108q4 106 56 156t159 50q103 0 158 -46t55 -122q0 -119 -151 -188l-150 -72q-247 -118 -247 -370
h657z" />
    <glyph glyph-name="three.ss09" horiz-adv-x="2248" 
d="M2054 -180h-1859v1818h1859v-1818zM1128 301q158 0 250 72t92 188q0 83 -50 144q-48 59 -136 77v4q69 18 110 71q40 52 40 126q0 109 -87 172q-88 64 -233 64q-147 0 -234 -70q-85 -69 -85 -191h106q2 83 58 126q58 44 157 44q98 0 154 -41q55 -40 55 -114
q0 -67 -48 -108q-47 -40 -138 -40h-74v-94h74q108 0 167 -44q58 -43 58 -122q0 -174 -234 -174q-236 0 -241 191h-109q0 -131 94 -206q95 -75 254 -75z" />
    <glyph glyph-name="four.ss09" horiz-adv-x="2248" 
d="M2054 -180h-1859v1818h1859v-1818zM1221 547v-219h104v219l156 -2v86l-156 -2v573h-111l-462 -565v-92zM1221 629l-371 2l367 444h4v-446z" />
    <glyph glyph-name="five.ss09" horiz-adv-x="2248" 
d="M195 -180v1818h1859v-1818h-1859zM1126 299q162 0 257 84q96 85 96 217q0 131 -86 211t-238 80q-143 0 -229 -80l-2 2l53 299h440v90h-516l-90 -463l115 -24q69 88 207 88q111 0 174 -57t63 -150q0 -94 -63 -150q-62 -55 -179 -55q-88 0 -150 37t-83 104l-107 -20
q28 -99 118 -157q87 -56 220 -56z" />
    <glyph glyph-name="six.ss09" horiz-adv-x="2248" 
d="M2054 -180h-1859v1818h1859v-1818zM1153 313q155 0 244 82q90 83 90 217q0 131 -86 209q-85 78 -232 78q-185 0 -274 -125q8 365 262 365q158 0 201 -133l102 28q-29 94 -107 144q-79 51 -196 51q-178 0 -271 -124q-93 -125 -93 -360q0 -432 360 -432zM1153 401
q-107 0 -174 62q-66 62 -72 178q16 76 83 123t165 47q106 0 166 -54q59 -53 59 -149q0 -93 -61 -150t-166 -57z" />
    <glyph glyph-name="seven.ss09" horiz-adv-x="2248" 
d="M2054 -180h-1859v1818h1859v-1818zM969 324h110q34 490 406 788v86h-668v-90h535q-344 -302 -383 -784z" />
    <glyph glyph-name="eight.ss09" horiz-adv-x="2248" 
d="M2054 -180h-1859v1818h1859v-1818zM1124 311q163 0 262 72t99 195q0 84 -52 143q-51 59 -147 80v4q74 21 117 72q43 50 43 118q0 105 -87 165q-88 61 -235 61q-148 0 -236 -61q-87 -60 -87 -165q0 -68 43 -117q45 -51 117 -73v-4q-94 -22 -146 -81q-53 -61 -53 -142
q0 -124 98 -195q99 -72 264 -72zM1124 838q-104 0 -161 39q-58 40 -58 110q0 71 58 111q57 39 161 39q103 0 160 -39t57 -111q0 -71 -57 -110t-160 -39zM1311 446q-67 -49 -187 -49q-119 0 -186 49q-68 50 -68 136q0 84 66 129t188 45q252 0 252 -174q0 -87 -65 -136z" />
    <glyph glyph-name="nine.ss09" horiz-adv-x="2248" 
d="M2054 -180h-1859v1818h1859v-1818zM1116 301q179 0 272 124q93 125 93 359q0 433 -361 433q-154 0 -243 -82q-91 -83 -91 -217q0 -131 86 -209q85 -78 232 -78q185 0 274 125q-8 -365 -262 -365q-158 0 -201 133l-102 -28q29 -93 108 -144t195 -51zM1118 719
q-106 0 -166 54q-59 53 -59 149q0 93 61 150q60 56 166 56q109 0 174 -61q66 -62 72 -178q-16 -76 -83 -123t-165 -47z" />
    <glyph glyph-name="zero.ss10" horiz-adv-x="2248" 
d="M2054 -180h-1859v1818h1859v-1818zM313 1530v-1602h1620v1602h-1620zM1124 303q-366 0 -366 459t366 459q367 0 367 -459q0 -225 -93 -342t-274 -117zM1124 399q129 0 192 88q62 87 62 275q0 362 -254 362q-256 0 -256 -362q0 -186 63 -275q63 -88 193 -88z" />
    <glyph glyph-name="one.ss10" horiz-adv-x="2248" 
d="M2054 -180h-1859v1818h1859v-1818zM313 1530v-1602h1620v1602h-1620zM1208 307h-104v608h-254v84h137q118 0 129 93l4 90h88v-875z" />
    <glyph glyph-name="two.ss10" horiz-adv-x="2248" 
d="M2054 -180h-1859v1818h1859v-1818zM313 1530v-1602h1620v1602h-1620zM1454 328h-657q0 252 247 370l150 72q152 69 152 188q0 75 -56 122q-55 46 -157 46q-209 0 -215 -206h-109q1 145 86 223q84 78 238 78q147 0 234 -72t87 -191q0 -87 -50 -152t-163 -118l-111 -51
q-106 -50 -151 -98q-48 -51 -55 -117h530v-94z" />
    <glyph glyph-name="three.ss10" horiz-adv-x="2248" 
d="M2054 -180h-1859v1818h1859v-1818zM313 1530v-1602h1620v1602h-1620zM1133 301q-159 0 -254 75t-95 206h109q5 -191 242 -191q111 0 171 45t60 129q0 79 -58 122q-59 44 -165 44h-74v94h74q91 0 138 40q48 41 48 110q0 75 -55 115t-154 40q-209 0 -215 -172h-108
q0 122 86 191q87 70 235 70q145 0 233 -64q87 -63 87 -170q0 -74 -40 -126q-41 -53 -110 -71v-4q88 -18 136 -77q51 -62 51 -144q0 -117 -93 -190q-92 -72 -249 -72z" />
    <glyph glyph-name="four.ss10" horiz-adv-x="2248" 
d="M2054 -180h-1859v1818h1859v-1818zM313 1530v-1602h1620v1602h-1620zM1333 326h-104v219l-471 -2v92l465 565h110v-573l154 2v-86l-154 2v-219zM1223 1075l-367 -446l373 -2v448h-6z" />
    <glyph glyph-name="five.ss10" horiz-adv-x="2248" 
d="M2054 -180h-1859v1818h1859v-1818zM313 1530v-1602h1620v1602h-1620zM1130 297q-133 0 -220 56q-89 57 -117 157l106 22q43 -143 234 -143q113 0 177 55t64 150q0 94 -63 151q-64 58 -174 58q-135 0 -207 -90l-115 24l90 463h516v-90h-440l-53 -297l2 -4q86 80 229 80
q152 0 238 -80t86 -209q0 -135 -94 -219q-95 -84 -259 -84z" />
    <glyph glyph-name="six.ss10" horiz-adv-x="2248" 
d="M2054 -180h-1859v1818h1859v-1818zM313 1530v-1602h1620v1602h-1620zM1149 301q-361 0 -361 434q0 234 94 360q93 124 271 124q117 0 197 -53q80 -52 108 -144l-104 -27q-46 133 -201 133q-255 0 -262 -364q88 123 274 123q146 0 232 -77t86 -208q0 -136 -90 -219
q-89 -82 -244 -82zM1151 389q106 0 165 56q60 57 60 153q0 92 -60 147q-61 56 -165 56q-98 0 -165 -47t-83 -123q6 -115 73 -179q66 -63 175 -63z" />
    <glyph glyph-name="seven.ss10" horiz-adv-x="2248" 
d="M2054 -180h-1859v1818h1859v-1818zM313 1530v-1602h1620v1602h-1620zM1077 307h-108q37 486 381 783h-535v92h668v-88q-373 -296 -406 -787z" />
    <glyph glyph-name="eight.ss10" horiz-adv-x="2248" 
d="M2054 -180h-1859v1818h1859v-1818zM313 1530v-1602h1620v1602h-1620zM1389 369q-101 -72 -265 -72t-264 72q-98 68 -98 192q0 85 52 144q50 58 147 79v4q-73 22 -117 74q-43 50 -43 119q0 103 87 163t236 60q148 0 235 -60t87 -163q0 -146 -160 -193v-4q97 -21 147 -79
q52 -59 52 -144q0 -120 -96 -192zM1124 823q103 0 160 39t57 109q0 149 -217 149q-100 0 -159 -37q-60 -41 -60 -110q0 -71 58 -111q57 -39 161 -39zM938 430q67 -49 186 -49q120 0 187 49q65 49 65 135q0 87 -65 131q-66 45 -187 45q-254 0 -254 -176q0 -85 68 -135z" />
    <glyph glyph-name="nine.ss10" horiz-adv-x="2248" 
d="M2054 -180h-1859v1818h1859v-1818zM313 1530v-1602h1620v1602h-1620zM1120 297q-116 0 -195 52t-108 145l103 26q46 -133 202 -133q249 0 260 367q-86 -125 -274 -125q-143 0 -230 78t-87 206q0 137 90 219q89 82 243 82q181 0 271 -111t90 -321q0 -236 -93 -360
q-93 -125 -272 -125zM1122 715q98 0 165 47q66 47 83 125q-6 114 -72 177q-65 62 -174 62q-106 0 -166 -56q-61 -57 -61 -150q0 -94 60 -150q59 -55 165 -55z" />
    <glyph glyph-name="zero.zero" 
d="M657 1479q245 0 367 -185q121 -184 121 -565q0 -749 -492 -749q-487 0 -487 749q0 750 491 750zM293 729q0 -331 90 -487l461 1073q-79 53 -189 53q-187 0 -275 -154q-87 -153 -87 -485zM657 90q189 0 275 153q86 154 86 486q0 359 -107 516l-465 -1083q82 -72 211 -72z
" />
    <glyph glyph-name="zero.dnom" horiz-adv-x="925" 
d="M463 -25q-181 0 -274 117t-93 342q0 459 367 459q366 0 366 -459t-366 -459zM463 72q256 0 256 362q0 363 -256 363q-129 0 -192 -88q-62 -87 -62 -275q0 -189 62 -275q63 -87 192 -87z" />
    <glyph glyph-name="one.dnom" horiz-adv-x="622" 
d="M446 0h-104v608h-254v84h135q120 0 131 92l2 90h90v-874z" />
    <glyph glyph-name="two.dnom" horiz-adv-x="919" 
d="M791 0h-660q0 252 248 371l149 71q154 74 154 189q0 76 -56 122t-159 46q-209 0 -215 -207h-109q1 145 86 223q84 78 238 78q147 0 234 -72t87 -190q0 -88 -50 -153t-163 -118l-110 -51q-105 -52 -151 -100q-49 -50 -56 -115h533v-94z" />
    <glyph glyph-name="three.dnom" horiz-adv-x="894" 
d="M451 -25q-159 0 -254 75t-95 206h109q1 -190 242 -190q233 0 233 174q0 78 -58 121q-61 45 -167 45h-74v94h74q91 0 138 40q48 40 48 109q0 74 -55 114t-154 40q-98 0 -156 -44t-59 -126h-106q0 121 85 190q87 70 234 70q145 0 233 -64q87 -63 87 -172q0 -74 -40 -126
t-110 -70v-2q88 -22 136 -80q51 -62 51 -143q0 -116 -94 -189q-93 -72 -248 -72z" />
    <glyph glyph-name="four.dnom" horiz-adv-x="901" 
d="M659 0h-104v219l-469 -2v92l463 565h110v-573l156 2v-86l-156 2v-219zM551 748l-367 -445l371 -2v447h-4z" />
    <glyph glyph-name="five.dnom" horiz-adv-x="897" 
d="M442 -29q-132 0 -221 57t-117 154l107 25q43 -144 233 -144q113 0 178 56q64 55 64 149t-63 151q-62 56 -174 56q-140 0 -209 -88l-113 25l88 462h518v-90h-442l-53 -299l4 -2q83 80 229 80q152 0 238 -80t86 -211q0 -132 -96 -217q-95 -84 -257 -84z" />
    <glyph glyph-name="six.dnom" horiz-adv-x="899" 
d="M463 -25q-361 0 -361 435q0 233 94 359q93 124 271 124q113 0 193 -51t110 -144l-102 -28q-46 133 -201 133q-254 0 -262 -365q89 125 274 125q147 0 232 -78q86 -78 86 -209q0 -136 -90 -219q-89 -82 -244 -82zM291 127q65 -61 172 -61t168 55q59 55 59 151
q0 92 -60 148q-59 55 -165 55q-98 0 -165 -47t-83 -123q6 -121 74 -178z" />
    <glyph glyph-name="seven.dnom" horiz-adv-x="768" 
d="M313 0h-110q37 487 381 784h-533v90h666v-86q-371 -299 -404 -788z" />
    <glyph glyph-name="eight.dnom" horiz-adv-x="923" 
d="M463 -16q-166 0 -264 71q-99 72 -99 195q0 80 54 142q52 60 145 81v4q-72 22 -117 73q-43 49 -43 118q0 105 87 165t237 60q147 0 234 -60t87 -165q0 -69 -43 -119q-44 -51 -116 -72v-4q94 -21 146 -80t52 -143q0 -124 -98 -195t-262 -71zM463 510q103 0 160 39t57 110
q0 72 -57 111t-160 39q-105 0 -162 -39t-57 -111q0 -71 57 -110t162 -39zM276 119q67 -49 187 -49q119 0 186 49q66 49 66 135q0 174 -252 174q-123 0 -189 -45q-65 -44 -65 -129q0 -86 67 -135z" />
    <glyph glyph-name="nine.dnom" horiz-adv-x="899" 
d="M432 -25q-116 0 -196 53q-81 53 -109 144l104 27q46 -133 201 -133q252 0 262 366q-86 -125 -274 -125q-146 0 -232 77t-86 208q0 136 91 219q89 82 243 82q180 0 271 -112q90 -111 90 -320q0 -235 -94 -361q-93 -125 -271 -125zM434 393q98 0 165 47q66 47 83 125
q-6 113 -73 177q-66 63 -175 63q-106 0 -165 -56q-60 -57 -60 -151t60 -149q61 -56 165 -56z" />
    <glyph glyph-name="zero.numr" horiz-adv-x="925" 
d="M463 633q-181 0 -274 117t-93 342q0 458 367 458q366 0 366 -458q0 -459 -366 -459zM463 729q256 0 256 363q0 362 -256 362q-129 0 -192 -88q-62 -87 -62 -274q0 -190 62 -276q63 -87 192 -87z" />
    <glyph glyph-name="one.numr" horiz-adv-x="622" 
d="M446 657h-104v609h-254v84h135q120 0 131 92l2 90h90v-875z" />
    <glyph glyph-name="two.numr" horiz-adv-x="919" 
d="M791 657h-660q0 252 248 371l149 72q154 74 154 188q0 76 -56 122t-159 46q-209 0 -215 -207h-109q2 146 86 224q83 77 238 77q148 0 234 -71q87 -72 87 -191q0 -87 -50 -152t-163 -118l-110 -51q-103 -51 -151 -101q-49 -50 -56 -114h533v-95z" />
    <glyph glyph-name="three.numr" horiz-adv-x="894" 
d="M451 633q-159 0 -254 75t-95 205h109q1 -190 242 -190q233 0 233 174q0 79 -58 122q-59 44 -167 44h-74v94h74q91 0 138 40q48 41 48 110q0 73 -55 113t-154 40q-98 0 -156 -44t-59 -126h-106q0 122 85 191q86 69 234 69q146 0 233 -63t87 -172q0 -74 -40 -126
q-41 -53 -110 -71v-2q88 -22 136 -80q51 -62 51 -143q0 -115 -94 -188q-93 -72 -248 -72z" />
    <glyph glyph-name="four.numr" horiz-adv-x="901" 
d="M659 657h-104v220l-469 -3v93l463 565h110v-574l156 3v-87l-156 3v-220zM551 1405l-367 -444l371 -3v447h-4z" />
    <glyph glyph-name="five.numr" horiz-adv-x="897" 
d="M442 629q-134 0 -221 56q-89 57 -117 155l107 24q43 -143 233 -143q114 0 178 55t64 150q0 93 -63 150t-174 57q-140 0 -209 -89l-113 25l88 463h518v-90h-442l-53 -299l4 -2q83 80 229 80q152 0 238 -80t86 -211q0 -132 -96 -217q-95 -84 -257 -84z" />
    <glyph glyph-name="six.numr" horiz-adv-x="899" 
d="M463 633q-361 0 -361 434q0 233 94 359q93 124 271 124q113 0 193 -51t110 -143l-102 -29q-46 133 -201 133q-255 0 -262 -364q89 125 274 125q147 0 232 -78q86 -78 86 -209q0 -136 -90 -219q-89 -82 -244 -82zM291 784q65 -61 172 -61t168 55q59 55 59 152
q0 92 -60 147q-61 56 -165 56q-97 0 -165 -48q-67 -47 -83 -122q6 -119 74 -179z" />
    <glyph glyph-name="seven.numr" horiz-adv-x="768" 
d="M313 657h-110q38 488 381 785h-533v90h666v-86q-371 -299 -404 -789z" />
    <glyph glyph-name="eight.numr" horiz-adv-x="923" 
d="M463 641q-165 0 -264 72t-99 194q0 81 54 143q51 58 145 80v5q-73 23 -117 72q-43 49 -43 118q0 105 87 165t237 60q147 0 234 -60t87 -165q0 -69 -43 -119t-116 -71v-5q95 -21 146 -79q52 -59 52 -144q0 -123 -98 -194q-99 -72 -262 -72zM463 1167q103 0 160 39t57 111
q0 71 -57 110t-160 39q-105 0 -162 -39t-57 -110q0 -72 57 -111t162 -39zM276 776q67 -49 187 -49q119 0 186 49q66 50 66 135q0 174 -252 174q-123 0 -189 -45q-65 -44 -65 -129q0 -86 67 -135z" />
    <glyph glyph-name="nine.numr" horiz-adv-x="899" 
d="M432 633q-117 0 -196 52q-81 53 -109 144l104 27q46 -133 201 -133q251 0 262 367q-86 -125 -274 -125q-147 0 -232 76q-86 77 -86 208q0 136 91 219q89 82 243 82q181 0 271 -111t90 -321q0 -234 -94 -360q-93 -125 -271 -125zM434 1051q98 0 165 47q66 47 83 125
q-6 113 -73 177q-65 62 -175 62q-106 0 -165 -56q-60 -57 -60 -151q0 -93 60 -149q59 -55 165 -55z" />
    <glyph glyph-name="zero.tf" 
d="M653 -20q-487 0 -487 749q0 750 491 750q245 0 367 -185q121 -184 121 -565q0 -749 -492 -749zM381 244q91 -154 276 -154q189 0 275 154q86 151 86 485q0 332 -87 485q-88 154 -276 154t-274 -154q-88 -151 -88 -485t88 -485z" />
    <glyph glyph-name="one.tf" 
d="M764 1458v-1349h430v-109h-985v109h432v1124q-142 -136 -397 -143v112q318 16 409 256h111z" />
    <glyph glyph-name="two.tf" 
d="M1122 0h-942q7 186 98 326q88 135 275 247l215 129q240 140 240 342q0 144 -89 231t-247 87q-161 0 -250 -95q-88 -94 -88 -282v-16h-125v22q0 227 126 355q126 127 339 127q208 0 332 -117q124 -118 124 -305q0 -270 -288 -437l-176 -106q-172 -101 -250 -194
q-77 -92 -84 -201h790v-113z" />
    <glyph glyph-name="three.tf" 
d="M659 -23q-241 0 -385 126q-143 126 -151 341h125q6 -168 114 -261t300 -93q187 0 293 86t106 236q0 141 -95 222q-94 81 -268 81h-135v108h105q149 0 230 72t81 195q0 132 -89 203t-251 71q-328 0 -340 -324h-125q6 206 129 321q124 116 342 116q205 0 334 -103
q127 -102 127 -274q0 -237 -236 -320v-4q151 -28 234 -125q82 -95 82 -239q0 -194 -146 -316q-145 -119 -381 -119z" />
    <glyph glyph-name="four.tf" 
d="M956 1458v-973h228v-110h-228v-375h-125v375h-706v117l737 966h94zM256 485h575v752h-4z" />
    <glyph glyph-name="five.tf" 
d="M645 -33q-200 0 -327 109q-125 107 -148 295h121q21 -140 116 -220q94 -79 242 -79q171 0 266 104q97 106 97 285q0 174 -96 279q-95 104 -259 104q-212 0 -319 -168l-131 4l139 778h717v-112h-629l-94 -541l4 -4q130 147 336 147q213 0 336 -137q123 -139 123 -348
q0 -220 -131 -357q-133 -139 -363 -139z" />
    <glyph glyph-name="six.tf" 
d="M690 936q205 0 328 -129t123 -336q0 -221 -129 -356t-342 -135q-242 0 -371 174q-131 169 -131 538q0 380 131 585q131 204 383 204q177 0 292 -101q113 -100 128 -272h-119q-15 131 -95 199q-81 69 -210 69q-391 0 -391 -676v-4q123 240 403 240zM672 84q156 0 250 103
t94 278q0 167 -92 267q-92 99 -252 99q-151 0 -250 -93t-117 -249q12 -180 92 -280q99 -125 275 -125z" />
    <glyph glyph-name="seven.tf" 
d="M522 0h-131q63 832 606 1343h-839v115h993v-96q-572 -506 -629 -1362z" />
    <glyph glyph-name="eight.tf" 
d="M1042 92q-150 -117 -387 -117t-387 117q-149 112 -149 316q0 145 82 243q82 99 231 133v2q-121 37 -186 122q-66 86 -66 204q0 168 129 267q130 100 346 100q213 0 345 -100q130 -99 130 -267q0 -118 -65 -202q-66 -85 -186 -124v-2q149 -34 231 -133q82 -98 82 -243
q0 -204 -150 -316zM391 905q95 -71 264 -71q170 0 265 71q94 69 94 199q0 132 -94 201t-265 69q-167 0 -262 -69q-96 -72 -96 -201q0 -130 94 -199zM356 170q112 -90 299 -90t299 90q111 88 111 242q0 148 -109 233q-108 84 -301 84q-194 0 -302 -84q-107 -83 -107 -233
q0 -154 110 -242z" />
    <glyph glyph-name="nine.tf" 
d="M1012 1305q131 -170 131 -541q0 -380 -131 -585q-130 -204 -383 -204q-177 0 -292 101q-113 100 -128 272h119q15 -127 95 -197q82 -71 210 -71q391 0 391 676v6q-125 -242 -403 -242q-205 0 -328 129t-123 336q0 219 129 358q130 136 342 136q242 0 371 -174zM639 625
q151 0 250 93t117 249q-12 179 -93 280q-99 127 -274 127q-156 0 -250 -104t-94 -279q0 -167 92 -267q92 -99 252 -99z" />
    <glyph glyph-name="zero.tf.zero" 
d="M657 1479q245 0 367 -185q121 -184 121 -565q0 -749 -492 -749q-487 0 -487 749q0 750 491 750zM293 729q0 -354 98 -502l463 1080q-79 61 -199 61q-187 0 -275 -154q-87 -153 -87 -485zM657 90q189 0 275 153q86 154 86 486q0 354 -98 502l-463 -1079q80 -62 200 -62z
" />
    <glyph glyph-name="period.ss01" horiz-adv-x="546" 
d="M274 -23q-62 -6 -86 43q-24 50 0 99q24 50 86 45q42 0 69 -27q28 -28 28 -67q0 -38 -28 -66q-27 -27 -69 -27z" />
    <glyph glyph-name="comma.ss01" horiz-adv-x="563" 
d="M283 164q102 0 102 -117v-174q0 -170 -160 -170h-16v70h18q84 0 84 86v118h-28q-65 -6 -92 43q-27 50 0 99q27 50 92 45z" />
    <glyph glyph-name="colon.ss01" horiz-adv-x="548" 
d="M274 811q-40 0 -68 26t-28 66q0 41 28 67q26 25 68 25q62 6 86 -43t0 -98t-86 -43zM274 -23q-41 0 -68 27q-28 28 -28 66q0 39 28 67q27 27 68 27q62 5 86 -45q24 -49 0 -99q-24 -49 -86 -43z" />
    <glyph glyph-name="semicolon.ss01" horiz-adv-x="569" 
d="M281 811q-62 -6 -86 43t0 98t86 43q42 0 68 -25q28 -26 28 -67q0 -40 -28 -66t-68 -26zM289 164q102 0 102 -117v-174q0 -170 -160 -170h-16v70h18q84 0 84 86v118h-28q-64 -6 -91 43q-27 50 0 99q27 50 91 45z" />
    <glyph glyph-name="ellipsis.ss01" horiz-adv-x="1642" 
d="M274 -23q-62 -6 -86 43q-24 50 0 99q24 50 86 45q42 0 69 -27q28 -28 28 -67q0 -38 -28 -66q-27 -27 -69 -27zM821 -23q-62 -6 -86 43q-24 50 0 99q24 50 86 45q42 0 69 -27q28 -28 28 -67q0 -38 -28 -66q-27 -27 -69 -27zM1438 4q-45 -43 -107 -19q-61 24 -61 85
q-5 58 47 82q51 24 102 0q52 -24 47 -82q0 -38 -28 -66z" />
    <glyph glyph-name="exclam.ss01" horiz-adv-x="544" 
d="M301 344h-57l-33 694v420h123v-420zM340 4q-27 -27 -68 -27q-40 0 -67 27q-27 24 -27 64q0 39 27 63q28 25 67 25q40 0 68 -25q27 -24 27 -63q0 -40 -27 -64z" />
    <glyph glyph-name="exclamdown.ss01" horiz-adv-x="544" 
d="M340 928q-28 -25 -68 -25q-39 0 -67 25q-27 24 -27 63t27 66q27 24 67 24q41 0 68 -24q27 -27 27 -66t-27 -63zM334 -418h-123v420l33 694h57l33 -694v-420z" />
    </font>
</defs>
</svg>
