<svg xmlns="http://www.w3.org/2000/svg" viewBox="0 0 24 24">
    <defs>
        <style>
        .a {
            fill: none;
            stroke: currentColor;
            stroke-linecap: round;
            stroke-linejoin: round
        }
        </style>
    </defs>
    <path class="a" d="M9.75 21.25a.25.25 0 0 1 .25.25.25.25 0 0 1-.25.25.25.25 0 0 1-.25-.25.25.25 0 0 1 .25-.25M3.25 6.5v-4a1.973 1.973 0 0 1 1.944-2H9.75"></path>
    <path class="a" d="M16.25 6.5v-4a2.02 2.02 0 0 0-2-2h-5m7 16V22c0 1.105-1.232 1.5-2.306 1.5h-8.75a1.973 1.973 0 0 1-1.944-2v-15m13 13h-13m13-15h-13m5-2h3.5m9 4.5l-1.88 5.171a.5.5 0 0 1-.47.329h-3.579a.5.5 0 0 1-.459-.3l-1.072-3a.5.5 0 0 1 .46-.7h6.45M15.5 14a.25.25 0 1 1-.25.25.25.25 0 0 1 .25-.25m2.5 0a.25.25 0 1 1-.25.25A.25.25 0 0 1 18 14"></path>
</svg>