<svg xmlns="http://www.w3.org/2000/svg" viewBox="0 0 24 24">
    <defs>
        <style>
        .a {
            fill: none;
            stroke: #000;
            stroke-linecap: round;
            stroke-linejoin: round
        }
        </style>
    </defs>
    <path class="a" d="M14.5 8.25l-3.566 1.172a1.187 1.187 0 0 1-.9-2.189l3.455-1.727A2.427 2.427 0 0 1 15.4 5.4l5.1 1.85v7l-6.006 1.141"></path>
    <path class="a" d="M3.5 14.25H6l3.59 4.024a1.371 1.371 0 0 0 2.41-.895v-.629l.179.072A1.693 1.693 0 0 0 14.5 15.25h.5a1.5 1.5 0 0 0 1.2-2.4L13 8.75m-2.448-1.781l-.366-.3a2.144 2.144 0 0 0-2.07-.269L3.5 8.25m-3-2h2a1 1 0 0 1 1 1v7a1 1 0 0 1-1 1h-2m23 0h-2a1 1 0 0 1-1-1v-7a1 1 0 0 1 1-1h2M12 16.75l-1-1m2-2l1.5 1.5"></path>
</svg>