<svg xmlns="http://www.w3.org/2000/svg" viewBox="0 0 24 24">
    <defs>
        <style>
        .a {
            fill: none;
            stroke: currentColor;
            stroke-linecap: round;
            stroke-linejoin: round
        }
        </style>
    </defs>
    <path class="a" d="M9.5 15.5v-8h-6a3 3 0 0 0-3 3v6a1 1 0 0 0 1 1h1"></path>
    <circle class="a" cx="6.5" cy="17.5" r="2"></circle>
    <circle class="a" cx="19.5" cy="17.5" r="2"></circle>
    <path class="a" d="M9.5 15v-1.5h14v2m-23-3h5a1 1 0 0 0 1-1v-4m4 10H15M.5 15h2m8-10.5h12a1 1 0 0 1 1 1v8h-14v-8a1 1 0 0 1 1-1z"></path>
</svg>