<svg version="1.2" xmlns="http://www.w3.org/2000/svg" viewBox="0 0 79 48" width="79" height="48">
	<title>Mask</title>
	<defs>
		<clipPath clipPathUnits="userSpaceOnUse" id="cp1">
			<path d="m18.07-6.07l59.2 25.61-16.09 37.17-59.19-25.61z"/>
		</clipPath>
	</defs>
	<style>
		.s0 { fill: #ffffff } 
		.s1 { fill: #ff9a12 } 
		.s2 { fill: #ffb608 } 
		.s3 { fill: #e4a91d } 
	</style>
	<g id="Mask" clip-path="url(#cp1)">
		<path id="Path 26" class="s0" d="m31.2 27.7c4.4 1.4 9.3 3.9 13 6.6 2.2 1.7 5.6 4.6 5.9 7.2q0-0.2 0-0.4c0.8-1.5 1.6-3.3 2.5-5q0 0 0 0 1-2.1 2-4.2c0.5-1.6-1.6-4.3-5.4-7.2-3.8-2.8-8.6-5.3-13-6.7-4.8-1.6-8.5-1.7-10.5-0.3-0.1 0.2-0.4 0.6-0.6 1-0.4 1-1 2.3-1.6 3.6q0 0 0-0.1c-0.9 2.1-1.7 3.7-2.2 4.7 1.9-0.6 5-0.8 9.9 0.8zm40.3 5.6l-23.9-26.5q-0.1-0.2-0.4-0.2l-34.6 0.7c-0.2 0-0.4 0.2-0.5 0.4-0.1 0.2 0 0.4 0.1 0.5l10.8 12.6q0.6-1.3 1.2-2.7c0.3-0.7 0.8-1.3 0.8-1.3v-0.1h0.1c1.6-1.2 4.9-2.1 11.6 0 4.4 1.5 9.4 4 13.2 6.9 2.6 1.9 6.7 5.5 5.8 8.4v0.1q-0.8 1.6-1.5 3.2l16.9-1.1c0.2 0 0.4-0.1 0.5-0.3 0.1-0.2 0-0.4-0.1-0.6z"/>
		<path id="Path 27" class="s1" d="m14.8 22.9l-0.9-0.4 4.7-10.2 0.9 0.4z"/>
		<path id="Path 28" class="s2" d="m13.1 23.7c-2.6 1.5-4.5 4.3-5.8 8.1 1.5 3 3.3 3.7 5.4 2.6 3.1-7 3.5-11 0.4-10.7z"/>
		<path id="Path 29" class="s3" d="m8.4 33.5l3-7.3-3.6 6.4q0.3 0.5 0.6 0.9zm3-3.4l-1.3 3 1.2-4.2-1.9 5.3q0.4 0.3 0.8 0.5zm2.3-2.2l-2.9 7q0.3 0 0.6 0l1.6-3.3-0.3-0.4zm1.6-6.6c0.9 0.5 1.3 1.6 0.9 2.4-0.4 0.9-1.5 1.3-2.5 0.8-0.9-0.5-1.3-1.5-0.9-2.4 0.5-0.9 1.6-1.3 2.5-0.8z"/>
	</g>
</svg>