<svg version="1.2" xmlns="http://www.w3.org/2000/svg" viewBox="0 0 36 36" width="36" height="36">
	<title>Mask</title>
	<defs>
		<clipPath clipPathUnits="userSpaceOnUse" id="cp1">
			<path d="m2.96 2.2h31.5v31.5h-31.5z"/>
		</clipPath>
	</defs>
	<style>
		.s0 { fill: #1a4165 } 
	</style>
	<g id="Mask" clip-path="url(#cp1)">
		<path id="Path 32" fill-rule="evenodd" class="s0" d="m23.2 4.6c5.7 4.1 7.1 12.1 3 17.8l7.3 7.3c0.8 0.8 0.8 2.2 0 3-0.8 0.8-2.2 0.8-3 0l-7.3-7.3c-2.1 1.5-4.7 2.4-7.3 2.4-7 0.1-12.8-5.6-12.9-12.6 0-7.1 5.6-12.9 12.7-12.9 2.7-0.1 5.3 0.8 7.5 2.3zm-17.9 10.4q0 0 0 0c0 5.9 4.7 10.6 10.5 10.6 5.8 0 10.6-4.8 10.6-10.6q0-0.1-0.1-0.3c-0.1-5.8-5-10.4-10.8-10.2-5.7 0.1-10.2 4.8-10.2 10.5zm7.7-7.8c0.5-0.2 1.2 0.1 1.4 0.7 0.2 0.5-0.1 1.2-0.7 1.4-2.4 0.9-4 3.2-4 5.7 0 0.6-0.5 1.1-1.1 1.1-0.6 0-1.1-0.5-1.1-1.1 0-3.5 2.2-6.6 5.5-7.8zm-356 761.3h1683.8v62.3h-1683.8z"/>
	</g>
</svg>