<svg xmlns="http://www.w3.org/2000/svg" xmlns:xlink="http://www.w3.org/1999/xlink" width="157" height="44" viewBox="0 0 157 44">
    <defs>
        <path id="tplyo6quva" d="M0 0L156.533 0 156.533 43.669 0 43.669z"/>
    </defs>
    <g fill="none" fill-rule="evenodd">
        <g>
            <g transform="translate(-30 -224) translate(30 224)">
                <mask id="kkluakykcb" fill="#fff">
                    <use xlink:href="#tplyo6quva"/>
                </mask>
                <path fill="#000" d="M145.99 17.04v-1.207c0-2.277-1.635-3.898-4.453-3.898-2.992 0-4.453 1.621-4.453 3.898v1.207h8.906zm-9.08 3.76c0 3.207.939 6.45 5.95 6.45 2.017 0 5.427-1.207 5.949-3.898h6.924c-.94 5.52-7.863 7.934-14.37 7.934-10.159 0-15.03-4.415-15.03-11.418 0-7.106 6.506-11.418 15.03-11.418 9.742 0 15.17 5.381 15.17 12.487H136.91v-.138zM100.203 8.968v3.484h.138c2.574-2.967 5.427-4.174 10.298-4.174 6.785 0 9.081 3.104 9.081 7.796V24.8c0 1.344.418 2 2.158 2h2.297v3.623H106.57v-3.621h1.218c1.775 0 2.159-.656 2.159-2.001v-7.933c0-2.69-.557-4.553-4.593-4.553-2.714 0-4.453 2-4.453 3.897V24.8c0 1.344.417 2 2.158 2h1.218v3.623h-17.99v-3.621h2.435c1.774 0 2.158-.656 2.158-2.001v-10.21c0-1.343-.418-2-2.158-2h-2.436V8.969h13.917zm-30.198 21.49v-3.483h-.139c-2.574 2.966-5.427 4.312-10.298 4.312-6.785 0-9.081-2.277-9.081-7.244v-9.382c0-1.344-.418-2-2.158-2h-1.915V9.037h13.954v13.556c0 3.207 0 4.553 4.593 4.553 2.714 0 4.453-2 4.453-3.898v-8.45c0-1.344-.418-2.001-2.159-2.001h-2.574v-3.76h14.61V24.87c0 1.344.418 2 2.159 2h2.158v3.623H70.005v-.035zM17.05 26.424h2.714c7.863 0 11.377-2.14 11.377-11.279 0-9.003-3.514-11.142-11.377-11.142h-2.714v22.421zM5.81 5.898c0-1.207-.8-1.862-2.297-1.862H.001V0h21.536c13.535 0 22.198 4.553 22.198 15.454 0 10.486-8.524 15.039-22.615 15.039H0v-4.069h3.514c1.496 0 2.296-.655 2.296-1.862V5.898zm105.213 31.114h1.113v6.554h-1.217l-3.724-4.76v4.76h-1.113v-6.554h1.113l3.828 4.898v-4.898zm-14.37 1.586c-.914-.914-2.403-.92-3.326-.013l-.013.013c-.444.452-.683 1.063-.662 1.692-.014.629.224 1.238.662 1.692.914.915 2.404.92 3.326.014l.013-.014c.444-.45.683-1.062.662-1.692.027-.63-.213-1.242-.662-1.69v-.002zm.8 4.106c-1.39 1.287-3.55 1.287-4.94 0-1.344-1.334-1.344-3.494 0-4.828 1.39-1.287 3.55-1.287 4.94 0 .66.632 1.025 1.506 1.01 2.415.008.907-.356 1.778-1.01 2.413zm-14.3-2.45c0-1.483-.87-2.242-2.61-2.242h-1.113v4.485h1.255c.662.05 1.32-.147 1.844-.552.446-.447.674-1.064.625-1.69zm.174-2.38c.642.624.984 1.49.94 2.38.044.901-.297 1.778-.94 2.415-.788.648-1.797.969-2.818.896h-2.192v-6.553h2.262c1.218 0 2.123.276 2.748.862zm-14.125-.862h1.113v6.554H69.1l-3.723-4.76v4.76h-1.114v-6.554h1.114l3.827 4.898v-4.898zm-14.404 1.586c-.915-.914-2.404-.92-3.327-.013l-.013.013c-.444.452-.682 1.063-.661 1.692-.015.629.223 1.238.66 1.692.915.915 2.405.92 3.327.014l.014-.014c.443-.45.682-1.062.66-1.692.044-.632-.198-1.251-.66-1.69v-.002zm.835 4.106c-1.39 1.287-3.55 1.287-4.94 0-1.345-1.334-1.345-3.494 0-4.828 1.39-1.287 3.55-1.287 4.94 0 .66.632 1.024 1.506 1.009 2.415-.008.904-.37 1.769-1.01 2.413zm-16.91.828v-6.554h1.114v5.484h2.992v1.035h-4.106v.035z" mask="url(#kkluakykcb)"/>
            </g>
        </g>
    </g>
</svg>
