<svg version="1.2" xmlns="http://www.w3.org/2000/svg" viewBox="0 0 34 33" width="34" height="33">
	<path fill-rule="evenodd" class="s0" d="m31 32.1l-10-10c-3.1 2.5-7.3 3.4-11.2 2.3-3.9-1.1-7-4-8.3-7.8-1.4-3.7-0.8-8 1.5-11.2 2.3-3.3 6.1-5.3 10.1-5.3 2.3 0 4.5 0.6 6.4 1.8 2 1.2 3.5 2.8 4.6 4.8 1 2 1.5 4.2 1.4 6.5-0.1 2.2-0.9 4.4-2.1 6.3l10.1 10.1zm-27.2-15.8c0.5 1.3 1.3 2.4 2.2 3.3 1 1 2.1 1.7 3.3 2.2 1.2 0.5 2.5 0.8 3.8 0.8 5.6 0 10.1-4.5 10.1-10.1 0-5.6-4.5-10.1-10.1-10.1-5.5 0-10 4.5-10 10.1 0 1.3 0.2 2.6 0.7 3.8z" fill="#273039"/>
</svg>