<svg version="1.2" xmlns="http://www.w3.org/2000/svg" viewBox="0 0 20 20" width="20" height="20">
	<path fill-rule="evenodd" class="s0" d="m19.4 19.5h-19.4c0-0.8 0.1-1.7 0.4-2.4 0.2-0.7 0.7-1.5 1.4-1.9 1.3-0.8 2.8-1.2 4.3-1.7q0.1 0 0.2-0.1 0.2 0 0.3-0.1 0.1 0 0.2-0.1 0.1 0 0.3-0.1c-1.2-0.8-1.9-2.1-1.9-3.6v-4c0-1.2 0.5-2.3 1.3-3.2 0.9-0.8 2-1.3 3.2-1.3 1.2 0 2.3 0.5 3.2 1.3 0.8 0.9 1.3 2 1.3 3.2v4q0 0.5-0.1 1.1-0.2 0.5-0.4 0.9-0.3 0.5-0.6 0.9-0.4 0.4-0.8 0.7 0.1 0.1 0.3 0.2 0.1 0 0.2 0.1 0.1 0 0.2 0.1 0.2 0 0.3 0c1.5 0.5 3 0.9 4.3 1.7 0.7 0.5 1.2 1.2 1.4 1.9 0.3 0.7 0.4 1.6 0.4 2.4zm-12.7-8.8q0.3 0.6 0.7 1.1 0.5 0.4 1.1 0.7 0.6 0.2 1.2 0.2c1.8 0 3.2-1.4 3.2-3.2v-4c0-1.8-1.4-3.2-3.2-3.2-1.8 0-3.2 1.4-3.2 3.2v4q0 0.6 0.2 1.2zm11.3 7.5q-0.1-0.3-0.2-0.6v-0.1c-0.2-0.5-0.5-0.9-0.9-1.2-1-0.6-2.3-1-3.6-1.4l-0.4-0.1c-0.4-0.2-0.8-0.3-1.3-0.6q-0.3-0.1-0.5-0.4h-0.2q-0.6 0.2-1.2 0.2-0.7 0-1.3-0.2h-0.1q-0.2 0.3-0.5 0.4c-0.5 0.3-0.9 0.4-1.3 0.5l-0.6 0.2c-1.3 0.4-2.5 0.8-3.5 1.4-0.3 0.2-0.6 0.7-0.8 1.2q-0.1 0.3-0.2 0.7z" fill="#273039"/>
</svg>