<svg version="1.2" xmlns="http://www.w3.org/2000/svg" viewBox="0 0 57 58" width="57" height="58"><defs><clipPath clipPathUnits="userSpaceOnUse" id="cp1"><path d="m-1121-799h1400v3013h-1400z"/></clipPath></defs><style>.a{opacity:.1;fill:#d0021b}.b{fill:#d0021b}</style><g clip-path="url(#cp1)"><path class="a" d="m28.4 58c-15.7 0-28.3-13-28.3-29 0-16 12.6-29 28.3-29 15.7 0 28.4 13 28.4 29 0 16-12.7 29-28.4 29z"/><path fill-rule="evenodd" class="b" d="m26.2 44.2l-3.5-1c-0.4-0.1-0.6-0.5-0.5-0.8l7.9-27.2c0.1-0.3 0.4-0.5 0.8-0.4l3.5 1c0.4 0.1 0.6 0.5 0.5 0.8l-7.9 27.2c-0.1 0.3-0.5 0.5-0.8 0.4zm-7.6-6.4l-8.3-7.8c-0.3-0.3-0.3-0.7 0-1l8.3-7.8c0.3-0.3 0.7-0.2 1 0l2.5 2.7c0.3 0.3 0.3 0.7 0 1l-5.3 4.6 5.3 4.6c0.3 0.3 0.3 0.7 0 1l-2.5 2.7c-0.3 0.2-0.7 0.3-1 0zm18.9 0l-2.5-2.7c-0.3-0.3-0.3-0.7 0-1l5.3-4.6-5.3-4.6c-0.3-0.3-0.3-0.7 0-1l2.5-2.7c0.3-0.2 0.7-0.3 1 0l8.3 7.8c0.3 0.3 0.3 0.7 0 1l-8.3 7.8c-0.3 0.3-0.8 0.2-1 0z"/></g></svg>