<?xml version="1.0" encoding="UTF-8"?>
<svg width="109px" height="56px" viewBox="0 0 109 56" version="1.1" xmlns="http://www.w3.org/2000/svg" xmlns:xlink="http://www.w3.org/1999/xlink">
    <!-- Generator: Sketch 53.1 (72631) - https://sketchapp.com -->
    <title>atoms/Logos/Brand/England Rugby Logo</title>
    <desc>Created with Sketch.</desc>
    <g id="atoms/Logos/Brand/England-Rugby-Logo" stroke="none" stroke-width="1" fill="none" fill-rule="evenodd">
        <g id="England-Rugby-Logo">
            <polygon id="Fill-1" fill="#000000" points="49.4521486 23.4736989 50.7325242 23.4736989 50.7325242 15.7147962 49.4521486 15.7147962 49.4521486 13.9958911 57.8327524 13.9958911 57.8327524 17.1948101 55.9890753 17.1948101 55.9890753 15.6977184 52.6608558 15.6977184 52.6608558 18.6924975 56.0579941 18.6924975 56.0579941 20.3258149 52.6608558 20.3258149 52.6608558 23.4913725 56.0062054 23.4913725 56.0062054 21.993685 57.8496833 21.993685 57.8496833 25.192604 49.4521486 25.192604"></polygon>
            <g id="Group-73">
                <path d="M62.0893326,18.3960606 C62.8044773,17.7000117 63.6042239,17.0715268 64.6931265,17.0715268 C65.5778723,17.0715268 66.2243027,17.427972 66.6157357,18.0225758 C66.8709317,18.4299417 67.00697,18.9391492 67.00697,19.5503963 L67.00697,23.115641 L68.1135477,23.115641 L68.1135477,24.6438578 L64.1316953,24.6438578 L64.1316953,23.115641 L65.1524794,23.115641 L65.1524794,20.0092774 C65.1524794,19.7037529 65.1014402,19.4321096 64.9993618,19.2446737 C64.8291649,18.9223077 64.5229296,18.7525058 64.0804575,18.7525058 C63.4340271,18.7525058 62.7528423,19.1259907 62.1574511,19.6181585 L62.1574511,23.115641 L63.178831,23.115641 L63.178831,24.6438578 L59.1963828,24.6438578 L59.1963828,23.115641 L60.3029605,23.115641 L60.3029605,18.7695455 L59.1963828,18.7695455 L59.1963828,17.2072494 L62.0893326,17.2072494 L62.0893326,18.3960606 Z" id="Fill-2" fill="#000000"></path>
                <path d="M76.0423592,24.6609172 C76.0423592,25.5774907 75.803448,26.3413019 75.3440952,26.9016282 C74.7316247,27.6489942 73.7618798,28.0395186 72.5532238,28.0395186 C71.2601644,28.0395186 70.1543811,27.6319545 69.626314,27.1059056 C69.3369594,26.8166282 69.2180003,26.4940641 69.2180003,26.1376189 C69.2180003,25.6115699 69.6092347,25.1023625 70.2217052,25.1023625 C70.8008115,25.1023625 71.2601644,25.5097284 71.2601644,26.0698566 C71.2601644,26.1546585 71.2432837,26.2903811 71.2262044,26.3583415 C71.5324397,26.460183 71.8903099,26.5457774 72.3327821,26.5457774 C72.9962917,26.5457774 73.5237631,26.3413019 73.846879,25.9000548 C74.068115,25.5945303 74.1872727,25.1701247 74.1872727,24.6099965 L74.1872727,23.5400664 C73.6258415,24.100789 73.0302517,24.4911154 72.0434275,24.4911154 C70.1543811,24.4911154 68.6394898,23.0482949 68.6394898,20.8404744 C68.6394898,18.7186445 70.1881424,17.0715466 72.1278309,17.0715466 C73.0812909,17.0715466 73.7618798,17.4450315 74.2551926,17.8698333 L74.2551926,17.2072692 L77.1481424,17.2072692 L77.1481424,18.7695653 L76.0423592,18.7695653 L76.0423592,24.6609172 Z M70.5456155,20.8240291 C70.5456155,22.1820478 71.379322,22.9290175 72.5198596,22.9290175 C73.1494093,22.9290175 73.7108406,22.6403345 74.1872727,22.1990874 L74.1872727,19.2448916 C73.7448005,18.9052879 73.1833693,18.6677238 72.5198596,18.6677238 C71.379322,18.6677238 70.5456155,19.4146935 70.5456155,20.8240291 L70.5456155,20.8240291 Z" id="Fill-4" fill="#000000"></path>
                <polygon id="Fill-6" fill="#000000" points="77.0090656 23.1158986 78.1660866 23.1158986 78.1660866 13.778183 77.0090656 13.778183 77.0090656 12.2158869 80.0211731 12.2158869 80.0211731 23.1158986 81.1277507 23.1158986 81.1277507 24.6443135 77.0090656 24.6443135"></polygon>
                <path d="M81.7737244,22.6916713 C81.7737244,21.2991772 82.9992611,20.450366 84.7687526,20.450366 C85.5349365,20.450366 86.2490882,20.5522075 86.6579976,20.654049 L86.6579976,20.0600396 C86.6579976,19.6181981 86.5559192,19.2791888 86.368643,19.0416247 C86.0624078,18.6511002 85.569095,18.498338 84.9055853,18.498338 C84.5816751,18.498338 84.3433597,18.5486643 84.1733614,18.6166247 C84.2073213,18.7184662 84.2412813,18.8888625 84.2412813,18.9901096 C84.2412813,19.5508322 83.7990077,19.9581981 83.2375764,19.9581981 C82.6761452,19.9581981 82.2501565,19.5678718 82.2501565,18.9566247 C82.2501565,18.0394569 83.1865372,17.0719627 85.2112248,17.0719627 C86.4878007,17.0719627 87.3554672,17.4284079 87.8835343,18.073338 C88.2741729,18.5486643 88.4614491,19.1943869 88.4614491,19.9411585 L88.4614491,23.1160769 L89.5678281,23.1160769 L89.5678281,24.6436993 L86.6919575,24.6436993 L86.6919575,23.8289674 C86.0965663,24.3381748 85.1941455,24.77962 84.1902421,24.77962 C82.9142619,24.77962 81.7737244,24.0835711 81.7737244,22.6916713 M86.6579976,22.7764732 L86.6579976,21.6047016 C86.2326047,21.5028601 85.7051334,21.4348998 85.1266228,21.4348998 C84.2244006,21.4348998 83.67985,21.8422657 83.67985,22.5218695 C83.67985,23.1160769 84.1223222,23.438641 84.7858319,23.438641 C85.4499373,23.438641 86.0965663,23.1832448 86.6579976,22.7764732" id="Fill-8" fill="#000000"></path>
                <path d="M93.226942,18.3960606 C93.9414908,17.7000117 94.7412375,17.0715268 95.8307358,17.0715268 C96.7154816,17.0715268 97.361912,17.427972 97.7539408,18.0225758 C98.0091368,18.4299417 98.1445794,18.9391492 98.1445794,19.5503963 L98.1445794,23.115641 L99.251157,23.115641 L99.251157,24.6438578 L95.2693046,24.6438578 L95.2693046,23.115641 L96.2900887,23.115641 L96.2900887,20.0092774 C96.2900887,19.7037529 96.2390495,19.4321096 96.1369711,19.2446737 C95.9667742,18.9223077 95.6605389,18.7525058 95.2180668,18.7525058 C94.5716364,18.7525058 93.8904516,19.1259907 93.2956562,19.6181585 L93.2956562,23.115641 L94.3164403,23.115641 L94.3164403,24.6438578 L90.3341907,24.6438578 L90.3341907,23.115641 L91.4405698,23.115641 L91.4405698,18.7695455 L90.3341907,18.7695455 L90.3341907,17.2072494 L93.226942,17.2072494 L93.226942,18.3960606 Z" id="Fill-10" fill="#000000"></path>
                <path d="M99.5253785,20.9599103 C99.5253785,18.8036049 101.090713,17.071507 103.098322,17.071507 C104.051782,17.071507 104.749847,17.4279522 105.174445,17.7849918 L105.174445,13.7779056 L104.051782,13.7779056 L104.051782,12.216204 L107.029731,12.216204 L107.029731,23.1156212 L108.135514,23.1156212 L108.135514,24.6440361 L105.174445,24.6440361 L105.174445,23.8291061 C104.630093,24.3553531 103.932425,24.7797587 102.979164,24.7797587 C101.005515,24.7797587 99.5253785,23.2012156 99.5253785,20.9599103 M105.174445,22.4366119 L105.174445,19.244852 C104.681133,18.9054464 104.102821,18.6676841 103.404557,18.6676841 C102.366693,18.6676841 101.430908,19.4655746 101.430908,20.9428706 C101.430908,22.3694441 102.315654,23.1835816 103.404557,23.1835816 C104.102821,23.1835816 104.663656,22.8780571 105.174445,22.4366119" id="Fill-12" fill="#000000"></path>
                <path d="M49.7491251,37.6712867 L51.0251053,37.6712867 L51.0251053,29.9297483 L49.7491251,29.9297483 L49.7491251,28.2152844 L54.088252,28.2152844 C56.6580859,28.2152844 58.4954973,29.3186993 58.4954973,31.5938858 C58.4954973,33.0367063 57.6113474,34.1405175 56.3858106,34.6328834 L58.104263,37.6712867 L59.3808389,37.6712867 L59.3808389,39.386345 L56.7941243,39.386345 L54.5476049,35.1420909 C54.3100839,35.1591305 54.088252,35.175972 53.8670159,35.175972 C53.5097415,35.175972 53.1866256,35.175972 52.9483102,35.1591305 L52.9483102,37.6712867 L54.3440438,37.6712867 L54.3440438,39.386345 L49.7491251,39.386345 L49.7491251,37.6712867 Z M56.5049683,31.661648 C56.5049683,30.4898765 55.5350248,29.9297483 53.9861736,29.9297483 L52.9483102,29.9297483 L52.9483102,33.5118345 C53.152467,33.5294685 53.4247423,33.5459138 54.0372128,33.5459138 C55.4839856,33.5459138 56.5049683,32.8330233 56.5049683,31.661648 L56.5049683,31.661648 Z" id="Fill-14" fill="#000000"></path>
                <path d="M60.9659339,38.5375536 C60.7278172,38.1472273 60.5915802,37.6378217 60.5915802,37.0432179 L60.5915802,33.5118543 L59.485797,33.5118543 L59.485797,31.9503508 L62.4466667,31.9503508 L62.4466667,36.5849312 C62.4466667,36.9074953 62.4971101,37.1450594 62.5997843,37.3493368 C62.7693854,37.6713065 63.0762164,37.8415047 63.5186886,37.8415047 C64.165119,37.8415047 64.8457079,37.4676235 65.4410991,36.9752576 L65.4410991,33.5118543 L64.2842767,33.5118543 L64.2842767,31.9503508 L67.2957884,31.9503508 L67.2957884,37.8585443 L68.4021674,37.8585443 L68.4021674,39.3863648 L65.5092176,39.3863648 L65.5092176,38.198148 C64.7946687,38.8939988 63.9949221,39.5220874 62.9062181,39.5220874 C62.0037973,39.5220874 61.3402876,39.149197 60.9659339,38.5375536" id="Fill-16" fill="#000000"></path>
                <path d="M76.0258757,39.4035233 C76.0258757,40.3200967 75.7871632,41.0839079 75.3284061,41.6442343 C74.7151412,42.3916002 73.7453963,42.7821247 72.5373361,42.7821247 C71.2436809,42.7821247 70.1378976,42.3745606 69.6104263,41.8479172 C69.3204759,41.5592343 69.2015169,41.2368683 69.2015169,40.8802249 C69.2015169,40.354176 69.5927512,39.8447704 70.2058175,39.8447704 C70.784328,39.8447704 71.2436809,40.2523345 71.2436809,40.8124627 C71.2436809,40.8972646 71.2268002,41.0329872 71.2097209,41.1009476 C71.5159562,41.202789 71.8732306,41.2883834 72.3162986,41.2883834 C72.9798083,41.2883834 73.5072796,41.0839079 73.8303955,40.6426608 C74.0522274,40.3371364 74.1707892,39.9127308 74.1707892,39.3526026 L74.1707892,38.2832669 C73.609358,38.8433951 73.0137682,39.2337214 72.026944,39.2337214 C70.1378976,39.2337214 68.6230063,37.7903065 68.6230063,35.5830804 C68.6230063,33.4612506 70.1718576,31.8147471 72.111546,31.8147471 C73.0648074,31.8147471 73.7453963,32.1876375 74.2387091,32.6124394 L74.2387091,31.9504697 L77.1318576,31.9504697 L77.1318576,33.5121713 L76.0258757,33.5121713 L76.0258757,39.4035233 Z M70.529132,35.5666352 C70.529132,36.9246538 71.3628386,37.6716235 72.5033761,37.6716235 C73.1329259,37.6716235 73.6943571,37.3829406 74.1707892,36.9422879 L74.1707892,33.9874977 C73.7283171,33.6478939 73.1668858,33.4103298 72.5033761,33.4103298 C71.3628386,33.4103298 70.529132,34.1572995 70.529132,35.5666352 L70.529132,35.5666352 Z" id="Fill-18" fill="#000000"></path>
                <path d="M79.7891135,38.6728007 L79.3807999,39.4203648 L78.1211046,39.4203648 L78.1211046,28.5203531 L76.9982421,28.5203531 L76.9982421,26.9580571 L79.9761911,26.9580571 L79.9761911,32.7644091 C80.5207417,32.2389545 81.2182113,31.814549 82.1710755,31.814549 C84.1453196,31.814549 85.6260524,33.3930921 85.6260524,35.633803 C85.6260524,37.7907028 84.0601219,39.5220082 82.052315,39.5220082 C81.0992522,39.5220082 80.4186632,39.1826026 79.7891135,38.6728007 M83.7199267,35.6512389 C83.7199267,34.2248636 82.835181,33.4101317 81.7456826,33.4101317 C81.048213,33.4101317 80.4867817,33.7156562 79.9761911,34.1574977 L79.9761911,37.3494557 C80.4697024,37.6882669 81.048213,37.925831 81.7456826,37.925831 C82.7841418,37.925831 83.7199267,37.1287331 83.7199267,35.6512389" id="Fill-20" fill="#000000"></path>
                <path d="M87.8931662,42.7649464 C86.9063421,42.7649464 86.2938716,42.1877786 86.2938716,41.5937692 C86.2938716,40.9656807 86.7192645,40.6431166 87.2125773,40.6431166 C87.6550495,40.6431166 87.9102455,40.9141655 88.0292046,41.2026503 C88.2164807,41.152324 88.4206376,41.0328485 88.6247944,40.7614033 C88.7445479,40.608641 88.8466263,40.4217995 88.9655853,40.1842354 L89.5274138,39.0130583 L86.8723821,33.5120326 L85.952882,33.5120326 L85.952882,31.950331 L89.7992919,31.950331 L89.7992919,33.4272308 L88.7103893,33.4272308 L90.4288416,37.3495152 L92.164969,33.4272308 L91.0073522,33.4272308 L91.0073522,31.950331 L94.836087,31.950331 L94.836087,33.5120326 L93.9342619,33.5120326 L90.4459209,40.8971259 C90.275724,41.2365315 90.0886465,41.5428485 89.8674104,41.7974522 C89.322264,42.4253427 88.6418737,42.7649464 87.8931662,42.7649464" id="Fill-22" fill="#000000"></path>
                <g id="Group-26">
                    <polygon id="Clip-25" points="0 0.0608414045 43.2990616 0.0608414045 43.2990616 54.8834338 0 54.8834338"></polygon>
                    <path d="M4.44885122,13.7876737 C3.55079952,14.8698881 2.97645951,15.7882448 2.80030474,16.8478718 C2.65155624,17.7470093 2.62951207,20.2215198 4.45183017,21.0842005 C5.74985448,21.7025804 7.0677384,21.5080117 7.0677384,21.5080117 C7.0677384,21.5080117 5.29228899,22.1590839 4.44646807,23.4297249 C3.58654682,24.7318695 3.72397535,26.5979068 4.21192604,27.2810769 C4.2446944,27.3284312 4.17359699,27.2248065 4.21192604,27.2810769 C3.93349426,27.0567879 3.11210067,26.8471608 2.99353878,27.1526853 C2.56040062,28.2711585 3.75138161,30.2764848 3.75138161,30.2764848 C3.4540832,30.3729767 3.35756549,30.7306107 3.4596439,31.0876503 C3.58297209,31.532662 4.10428694,32.5080816 4.10428694,32.5080816 C3.69418593,32.4674639 3.59449067,32.9736993 3.61633624,33.3033963 C3.68266735,34.2552378 4.15830508,34.8898648 4.67723677,35.4743636 C4.85359014,35.6780466 4.39959938,35.6168228 4.27210067,36.020028 C4.07886663,36.6225571 5.79970211,37.7598531 5.96493409,37.8513916 C6.88066085,38.3697133 7.65180962,38.6825688 8.41858928,38.8341422 C10.3344462,39.2141655 11.6767574,38.7061469 12.6550419,38.7388392 C13.1976066,38.7582564 12.9394316,39.0734895 12.9394316,39.0734895 C12.7875056,39.1341189 10.1910598,40.800634 9.81849341,40.9104009 C9.43281972,41.0249231 9.34762198,40.8359021 9.17941106,40.727324 C8.84279062,40.5139324 8.75759288,40.3362051 8.51768875,40.1265781 C8.23329909,39.8798998 7.98584831,39.6865198 7.60732409,39.8481981 C6.97717857,40.1210303 7.16445472,41.4372424 7.07032015,41.7578252 C6.92733094,42.2846667 6.28209211,42.5933613 5.12447526,42.9866597 C3.54722479,43.5238042 2.89702106,43.4201795 1.76919363,43.2614732 C0.617137476,43.1037576 -0.0167813731,43.2371026 0.000297894196,43.8687576 C0.0221434686,44.6198881 1.86034926,45.2606573 2.73417223,45.8239557 C3.66618387,46.4197483 4.58627975,47.2909487 4.58627975,47.2909487 C4.58627975,47.2909487 5.65929464,48.3228368 6.62049991,47.2358671 C8.23151173,45.411042 8.75520972,44.9127319 9.4546653,44.3987692 C9.22548536,44.5695618 10.5574696,43.5614499 10.9014381,43.6208904 C11.4531382,43.7203543 11.2191919,44.4829767 11.2191919,44.4829767 C11.10063,44.9285828 10.9572436,45.2267762 10.5878548,45.992965 C10.0689231,47.0624988 10.3199486,48.3434429 10.4365246,48.7302028 C10.5519089,49.1108205 10.9330149,48.7054359 11.0533641,48.6168695 C11.1663653,48.5368228 11.1389591,49.1502494 11.152265,49.2958788 C11.3097518,50.8205291 12.2411676,51.7692005 12.4757096,51.9746667 C12.7152166,52.1795385 12.7134292,52.0541189 12.845297,51.8934312 C12.9394316,51.7806923 13.0025852,51.4945851 13.0025852,51.4945851 C13.0883787,51.702627 13.5677898,52.3384429 14.1047937,53.008338 C14.3832255,53.3606224 14.6340524,53.921345 14.7859784,54.3808205 C14.8983838,54.7287459 14.9069235,54.9415431 15.1555658,54.8694219 C15.5632837,54.7451911 16.5312412,52.920366 16.5312412,52.920366 C16.7840541,53.1781399 17.0682452,53.4206573 17.272402,53.2155874 C18.501712,51.9893287 18.8073515,49.3448182 18.8073515,49.079317 C18.8073515,48.8175804 18.8681219,48.6701678 19.045071,48.7543753 C19.2212258,48.8459138 19.3699743,48.8685012 19.4198219,48.6677902 C19.5000548,48.3396783 19.6118644,47.7020793 19.5213046,46.8520793 L19.8829481,47.7783613 C20.1059716,48.3287809 20.5520185,48.8859371 21.0981578,48.7278252 C21.3710289,48.6501562 21.6578017,48.4016946 21.6578017,48.4016946 C21.9695977,48.875634 22.2369081,49.2114732 22.5566478,49.4704359 C22.8682452,49.7212751 23.3119089,49.9843986 23.5299675,49.9225804 C23.7833761,49.8504592 23.8745318,49.3945501 23.8745318,49.3945501 C24.9245095,50.7064033 25.4349016,51.1216946 26.8568499,51.7795035 C27.5185722,52.0862168 29.7601267,52.6792354 29.5937031,51.9140373 C29.5498134,51.7006457 28.6269372,51.0168811 28.1499093,49.9808322 C27.9342339,49.5049114 27.6977059,48.7046434 27.8412909,48.4585594 C27.9620373,48.25131 28.3540661,48.4119977 28.5959562,48.1476853 C28.7665502,47.956683 28.8054751,47.524352 28.5606061,46.4258904 C28.4525698,45.9293636 27.7914432,44.870331 28.0228077,44.9400746 C28.5856292,45.1049231 28.9464783,44.9242238 28.5989351,43.947021 C28.3042185,43.114655 27.9322479,42.6734079 27.5153946,42.2283963 C27.1684472,41.8592704 26.4570758,41.5797016 26.8397706,41.5258089 C27.2129327,41.4735012 27.6478582,41.6161585 27.415898,40.7509021 C27.281647,40.2357506 26.255898,38.8771375 24.6571991,38.1678135 C22.9454991,37.409352 21.3211813,37.6288858 21.3211813,37.6288858 C22.291522,37.3427786 22.4490087,37.290669 23.2461736,37.1753543 C24.2238624,37.0311119 25.5892108,36.999014 27.1497791,38.2829301 C28.3127581,39.2438858 28.8279165,42.135669 29.2364287,43.2468112 C29.7734326,44.7211352 30.5700017,44.3811352 30.5700017,44.3811352 C30.8343332,44.2919744 31.0198219,43.7675105 31.0198219,43.7675105 C31.9579901,44.6210769 32.2258963,44.9242238 33.9097928,45.7171608 C34.5022051,45.9949464 35.4701626,46.2154709 35.7235713,46.138 C36.1914638,45.992965 35.8389557,45.2388625 35.8389557,45.2388625 C36.2746756,45.2794802 36.7844718,45.2412401 37.6922548,45.8814149 C38.8552337,46.7034779 39.0587947,47.9396434 39.1882794,48.5185944 C39.6768259,50.6792587 40.3603938,48.1365897 40.4777641,47.0266364 C40.7510324,44.4138275 39.9957713,43.2291772 39.9957713,43.2291772 C39.9957713,43.2291772 40.3659545,43.4754592 40.6187673,43.4631748 C40.9164629,43.4498998 41.1259819,43.1499231 41.109697,42.8103193 C41.0294641,41.3421375 39.6847697,39.5846783 39.6847697,39.5846783 C40.0128505,39.6865198 40.2491799,39.7283263 40.3548331,39.6865198 C40.9055401,39.4705524 40.6241294,38.9116131 40.4565143,38.6788042 C38.9410272,36.5958089 37.0049135,35.5403427 35.348026,34.9748648 C35.8997261,34.8324056 36.2448861,34.5886993 36.500678,34.3297366 C36.9886287,33.8448998 37.2255538,32.4547832 37.7049649,32.0612867 C38.37761,31.5041305 39.8694641,31.1441189 40.3441089,30.451042 C40.80088,29.7849114 40.8725732,28.8160303 40.5772607,27.9424522 C40.2881048,27.0670909 40.4181852,26.6131632 40.7097244,26.0286643 C40.9996747,25.4441655 42.7854511,24.1239907 43.1854237,22.5167179 C43.3512515,21.8535594 43.5303852,20.2561935 42.1930389,19.3540839 C40.8229242,18.4307739 38.3613251,18.8407156 38.3613251,18.8407156 C38.3613251,18.8407156 40.59434,18.2288741 40.9498271,16.225331 C41.2008526,14.8219394 39.6075158,13.9513333 39.5054374,13.18138 C39.3868755,12.3327669 40.7510324,11.2039907 40.1671597,9.78890909 C39.7010546,8.66568065 38.8018113,8.3163683 37.4376545,7.92901399 C36.0758808,7.54284848 35.5831638,7.45368765 34.9055538,6.57773193 C34.2184112,5.70593706 34.1302345,4.24132168 33.5487451,3.55874592 C32.9138332,2.82227739 32.3772265,2.36934033 31.2009416,2.38083217 C30.3660435,2.39410723 29.6270673,2.61918881 28.6736073,3.59262704 C27.8740592,4.40260373 27.6065502,5.415669 27.6065502,5.415669 C27.6065502,5.415669 28.0343263,3.23142657 27.5014929,1.81594872 C27.1795686,0.960400932 26.4435713,0.0693869464 24.8607601,0.0608671329 C23.657069,0.0565081585 22.6702448,0.606927739 21.8206506,1.02895571 C20.773056,1.55876923 20.3234343,2.12860606 17.774453,1.32477156 C15.0509057,0.4682331 13.0250265,0.829433566 12.2358055,1.71826807 C11.6020853,2.43413054 11.4531382,3.36477156 11.6239308,4.24508625 C11.7673172,5.01127506 12.2783051,5.77449184 12.2783051,5.77449184 C12.2783051,5.77449184 9.48743366,4.52207925 7.53880842,4.91121678 C5.5893888,5.30114685 4.07707927,6.40495804 3.82605376,8.04115851 C3.63281972,9.29852448 4.06853963,10.3115897 4.50962164,10.9608788 C4.95070365,11.6058089 5.26428694,12.5061352 5.06866975,12.8958671 C4.9173395,13.1893054 4.71616162,13.4894802 4.44885122,13.7876737 M17.2912686,34.9548531 C16.5087999,36.7650163 14.9682897,37.6756457 14.9682897,37.6756457 C14.8983838,37.1482098 14.9093066,36.8298065 14.9895395,36.2805758 C15.0673891,35.7428368 15.0838726,34.4595152 14.840791,33.698676 C15.5765896,34.485669 16.4758329,34.8177436 17.2912686,34.9548531 M14.8850779,42.3690723 C13.7493066,42.3252844 13.2279918,41.9914266 13.2279918,41.9914266 C14.9293648,40.8541305 16.0542133,40.2428834 16.5389865,39.9605408 C17.0130354,39.6865198 17.5847937,39.5040373 18.3225783,39.5949814 C18.7497586,39.6482797 19.3203253,39.9811469 19.4224037,40.4338858 C19.5360007,40.935366 19.0395104,41.5258089 18.5978326,42.5757273 C18.4167129,43.0195501 18.4494813,43.5681865 18.5376579,44.0435128 C17.8127821,42.9698182 16.8914946,42.4526853 14.8850779,42.3690723" id="Fill-24" fill="#FFFFFF"></path>
                </g>
                <path d="M19.5935538,39.6827156 C19.706555,40.168345 19.706555,40.9400816 19.1772964,41.9317483 C18.6754439,42.8841841 18.8710611,43.974324 18.982275,44.402296 C19.0138517,44.5259324 19.1159301,44.6131119 19.154855,44.6210373 C19.4168033,44.6907809 19.6100373,44.7101981 19.6100373,44.7101981 C19.4640692,46.2233566 20.6909961,47.7874359 20.866555,47.9596154 C21.0373477,48.1323893 21.2135025,48.0935548 21.421234,48.0049883 C21.6249937,47.9178089 21.7129718,47.874021 21.7129718,47.874021 C22.0053053,48.3681702 22.7933347,48.9518765 23.0856682,49.0671911 C23.3762143,49.1872611 23.4058052,49.14169 23.5827543,49.0271678 C23.7553344,48.9082867 23.9320849,48.7628555 23.9320849,48.7628555 C25.3351666,50.6869464 27.6180291,51.2538112 28.1965396,51.3574359 C28.5192583,51.4150932 28.6072364,51.18169 28.4036754,50.9197552 C28.1965396,50.6592075 27.8325129,50.2377739 27.6891265,49.4818881 C27.4156596,48.1117832 27.6891265,47.6213986 27.9177107,47.5587879 C28.1588064,47.4999417 28.1850211,47.3842308 28.1588064,47.0351166 C28.0561322,45.841352 27.6587413,44.8774242 27.512376,44.5877506 C27.3672022,44.2949068 27.512376,44.2651865 27.746918,44.2949068 C28.0889005,44.3390909 28.0938654,44.3119464 28.0366697,43.974324 C27.8489964,42.8344522 26.75215,41.7886946 26.3718384,41.4675175 C25.9913282,41.147331 26.1075069,41.1146387 26.4902017,41.0601515 C26.8566115,41.0054662 26.8677329,40.9418648 26.7332833,40.5459907 C26.5618949,40.0464918 25.8310611,38.9086014 24.2524205,38.2077972 C22.5643534,37.4590443 19.8032714,37.8137063 19.8032714,37.8137063 C20.4260688,37.421993 21.9451306,36.8073776 23.0310543,36.5418765 C24.4649183,36.1828555 25.9768307,36.5181002 27.0031755,37.2741841 C28.2050793,38.1648019 28.7889519,40.9600932 29.1863427,42.060338 C29.7179846,43.5134615 30.5644013,43.544965 30.5644013,43.544965 C30.8289313,43.45838 30.9419325,43.0728089 30.9419325,43.0728089 C32.1128553,44.3119464 34.2511399,45.0307809 35.0338072,45.1702681 C35.3211758,45.22 35.5058702,45.2332751 35.5058702,44.9739161 C35.5058702,44.7381352 35.5386386,44.7028671 35.5386386,44.7028671 C35.968202,44.7440793 36.5923897,44.7799417 37.7188269,45.3660256 C38.8514206,45.946958 39.3181216,46.7640676 39.4750125,47.2314685 C39.6293217,47.6970862 39.940919,47.4999417 39.9792481,47.1908508 C40.2970019,44.6769114 39.5800699,42.6634615 39.5800699,42.6634615 C39.5800699,42.6634615 39.9792481,42.7137879 40.2143859,42.7137879 C40.445949,42.7137879 40.4866612,42.565979 40.445949,42.334359 C40.16712,40.6545688 39.1638124,39.0655245 39.1638124,39.0655245 C39.4912974,39.0807809 39.6603027,39.1140676 39.7204773,39.0195571 C39.8001144,38.8951282 39.5880137,38.5030186 39.499837,38.3938462 C36.5723315,34.7437995 33.0053463,34.6752448 31.6010731,34.6752448 C30.201169,34.6752448 28.9166492,34.9074592 27.1987927,35.2960023 C25.4841137,35.6845455 24.6710611,35.3984382 23.9654491,34.9831469 C23.0771286,34.466014 22.7337559,33.1670396 22.7337559,33.1670396 C20.7485889,35.4693706 18.3618606,34.7794639 18.3618606,34.7794639 C17.1538004,36.4877855 14.8909961,38.0938695 14.8909961,38.0938695 C14.5986626,37.5317599 14.6157418,36.5418765 14.6953789,35.9968065 C14.7750159,35.4525291 14.6862435,34.4715618 14.4578579,33.627704 C14.1212375,32.3455711 12.8341359,31.0991026 12.0983373,30.5996037 C10.9297976,29.8151865 8.91186235,29.3289627 7.64064852,29.2233566 C6.58769183,29.1343939 6.0091813,28.9863869 5.37546105,28.7615035 C4.54532922,28.4704429 4.17355727,28.0666434 3.93643349,27.8352214 C3.705069,27.600035 3.35196507,27.7593357 3.39327307,28.0291958 C3.55850505,29.1046737 4.30840404,30.3612471 4.30840404,30.3612471 C4.07684095,30.2722844 3.90068618,30.534021 3.95827906,30.765641 C4.23671084,31.88669 4.65833042,32.4571212 4.65833042,32.4571212 C4.25001678,32.3715268 4.1922253,32.7788928 4.1922253,32.9251166 C4.1922253,34.1513753 5.03864201,35.0269347 5.24597637,35.1991142 C5.44655847,35.3724825 5.36076494,35.4331119 5.21559117,35.4887879 C4.78543195,35.6615618 4.8595083,35.9290443 4.98104914,36.0726923 C5.31766958,36.4921445 6.61867283,37.4445804 7.31852559,37.76338 C9.11601917,38.5836597 11.2938243,38.465373 12.2611861,38.3768065 C13.2255689,38.2890326 13.9230385,38.7255245 13.9230385,38.7255245 C13.7796521,38.7837762 10.5020216,40.9115501 10.1520952,41.0902681 C9.80197021,41.2632401 9.5098353,41.147331 9.33348194,41.0601515 C8.82070673,40.8041608 8.34427461,40.2707809 8.10675364,40.0403497 C7.8728074,39.8069464 7.66865057,39.9234499 7.66865057,40.1834033 C7.66865057,40.445338 7.6108591,41.5850117 7.64064852,41.874289 C7.66865057,42.1677273 7.46449375,42.284627 7.34533607,42.3387179 C3.86474028,44.0797319 1.9701332,43.4219231 1.44762678,43.3606993 C0.914594761,43.303042 0.509458654,43.303042 0.393875706,43.6244172 C0.278491354,43.9446037 0.5841308,44.2204079 1.79934052,44.7101981 C3.24134703,45.2964802 4.19540284,46.0117483 5.03864201,46.5385897 C5.69500223,46.9495221 6.03341003,46.5998135 6.26556891,46.3652214 C8.16752405,44.4694639 10.1489177,43.2818415 10.7202787,42.9545221 C10.8253361,42.895676 10.9875891,42.900035 11.036841,42.9180653 C11.477923,43.1102564 11.6463325,43.5370396 11.6463325,43.5370396 C11.8340058,44.1476923 11.4834837,44.5059207 11.114492,45.2570513 C10.6070789,46.3137063 10.5105612,47.1520163 10.6259456,47.5334266 C10.745699,47.9116667 11.045182,47.7995221 11.1613607,47.7147203 C11.2743619,47.6297203 11.3508214,47.6826224 11.3545948,47.828648 C11.3673049,49.521317 12.2909755,50.5906527 12.5231344,50.7955245 C12.7570806,50.9998019 12.7874658,50.9998019 12.9338312,50.851993 C13.0796008,50.706958 13.2255689,50.4160956 13.2255689,50.4160956 C13.3117596,50.6215618 13.6884965,51.4945455 14.2159678,52.0788462 C14.7440349,52.6615618 14.9626893,53.3689044 15.0921739,53.9169464 C15.1880959,54.3074709 15.2683287,54.3534382 15.4756631,54.0025408 C15.6784297,53.6520396 16.5699278,51.8680303 16.5699278,51.8680303 C16.9776456,52.1582984 17.051722,52.2230886 17.2528998,52.0201981 C18.468904,50.8113753 18.556882,48.3820396 18.556882,48.1189161 C18.556882,47.8583683 18.556882,47.828648 18.7332354,47.9178089 C18.9076028,48.0049883 19.0394706,47.9178089 19.0503934,47.7147203 C19.0801828,47.3344988 19.2873186,46.1694639 18.587863,44.6822611 C17.7001383,42.8067133 16.2466133,42.5842075 14.3204294,42.4950466 C12.0703352,42.3914219 12.1148207,41.9911888 12.1148207,41.9911888 C13.7796521,40.9418648 17.2856682,38.9321795 17.605408,38.7837762 C17.9279281,38.6399301 18.0190837,38.5115385 18.5709824,38.7255245 C18.9651957,38.8776923 19.4890923,39.2311655 19.5935538,39.6827156" id="Fill-27" fill="#007934"></path>
                <path d="M27.9486519,35.9861667 C30.7881794,36.4535676 32.7326341,37.5769942 34.5098709,39.3035443 C36.4982154,41.2270408 37.4326102,42.903859 38.3999719,44.536493 C38.3999719,44.536493 35.8120657,41.2627051 33.5321822,39.1087774 C31.2171471,36.9148263 29.0041904,36.3346865 27.9486519,35.9861667" id="Fill-29" fill="#FFFFFF"></path>
                <path d="M12.3024147,42.6539709 C12.3024147,42.6539709 14.3890642,43.0013019 15.304791,46.9273508 C16.0040479,49.9366282 15.4644622,52.118493 15.4644622,52.118493 C15.4644622,52.118493 15.5021955,49.3535163 15.1935771,48.0791107 C14.1902695,43.9228287 12.3024147,42.6539709 12.3024147,42.6539709" id="Fill-31" fill="#FFFFFF"></path>
                <path d="M4.28904092,28.7746399 C4.28904092,28.7746399 5.68656189,31.2899662 8.03456394,32.9897681 C10.328945,34.6568776 8.61962815,33.5166096 11.7453326,35.6723205 C13.7032919,37.0194417 14.2482397,37.5668893 14.2482397,37.5668893 L12.3518452,36.4246399 C12.3518452,36.4246399 10.3666783,35.2649545 8.35787845,33.7991503 C5.66412053,31.8342436 4.28904092,28.7746399 4.28904092,28.7746399" id="Fill-33" fill="#FFFFFF"></path>
                <path d="M19.8722438,38.5175221 C19.8722438,38.5175221 21.7273303,39.5232564 22.7336168,43.5994918 C23.5824167,47.0240606 26.1504633,49.5829767 26.1504633,49.5829767 C26.1504633,49.5829767 25.1616531,49.0272075 23.885673,47.3775338 C22.6090971,45.7340023 22.0609718,42.4956807 21.6830433,41.4140606 C21.0679911,39.66631 19.8722438,38.5175221 19.8722438,38.5175221" id="Fill-35" fill="#FFFFFF"></path>
                <path d="M25.4946989,1.03281935 C26.8656079,1.57967249 27.5158117,2.75084965 27.4822489,4.29848368 C27.4470974,5.98877506 26.636428,7.30241142 26.3440945,7.59168881 C26.0519596,7.88314569 25.6988557,7.85481235 25.2029611,7.68005711 C24.7046834,7.50371678 24.0642109,7.21463753 23.1570238,7.21463753 C22.25361,7.21463753 21.3992494,7.58911305 20.8773388,8.11595455 C20.8773388,8.11595455 19.5636254,8.05532517 18.6588214,8.40642075 C17.7522301,8.75870513 17.4289156,8.96357692 17.1979483,9.10841375 C17.1979483,9.10841375 16.2438925,9.06165385 15.3847656,8.64101282 C14.3864229,8.15300583 12.2000781,6.65807576 12.2000781,4.47205012 C12.2000781,2.28582634 14.0746269,1.51844872 15.262629,1.54321562 C16.1966266,1.5656049 16.9580442,1.78811072 17.7764588,1.98882168 C18.5954693,2.19309907 19.2158836,2.23490559 19.6236014,2.19686364 C20.1941681,2.14534848 20.9939147,1.99496387 21.6087684,1.55906643 C22.0943359,1.21411305 22.9596192,0.864800699 23.6237247,0.796444056 C24.3589276,0.727889277 25.0571916,0.856479021 25.4946989,1.03281935" id="Fill-37" fill="#800326"></path>
                <path d="M30.5501818,3.30584615 C32.1318014,3.30584615 32.9581599,4.05024009 33.5050936,5.61134732 C33.7366567,6.27945921 33.9372388,7.48828205 35.4610669,7.82590443 C37.347333,8.23802564 38.3973107,8.83282751 38.9988584,9.75058974 C39.4800568,10.48369 39.4667509,11.6427809 39.2576292,12.3410093 C39.0558555,13.0426061 38.907107,13.4794942 39.4915754,14.1216503 C39.9960096,14.675042 40.3441486,15.5795291 39.9024708,16.7738881 C39.4667509,17.9694359 38.2890758,19.0144009 36.0159445,19.1368485 C34.9349858,19.1945058 33.3835528,18.9781422 33.4747084,18.4368368 C33.5050936,18.2638648 33.6059805,18.1208112 34.0174717,17.6571748 C34.3010669,17.3284685 34.494301,16.8363007 34.5576531,16.3665221 C34.656554,15.6165804 34.2927259,14.8660443 33.6941572,14.2155664 C33.3690553,13.8658578 33.272339,13.5401235 33.4764958,12.8993543 C33.6832344,12.2573963 33.7366567,11.8761841 33.7366567,11.118317 C33.7366567,10.1852984 33.1212073,8.97944755 32.0742085,8.64856177 C30.7877028,8.2411958 29.3816422,8.46548485 28.2702982,9.42881818 C28.2702982,9.42881818 27.278112,8.72860839 27.278112,7.3590979 C27.278112,5.98720979 28.7089971,3.30584615 30.5501818,3.30584615" id="Fill-39" fill="#800326"></path>
                <path d="M37.9865742,20.8615163 C38.5766033,21.7671923 38.6258552,23.7471573 37.6664373,25.3233228 C36.2669303,27.6270408 34.0581442,27.4142436 34.0581442,27.4142436 C33.8273754,30.7084394 30.9781168,31.357134 29.4237048,31.357134 C25.3348091,31.357134 25.2327307,28.1429848 25.2327307,27.7942669 C25.2327307,27.4451527 25.0261907,27.3845233 24.8834001,27.4996399 C23.8930012,28.2919825 23.4219312,29.7191503 23.3643383,30.8855723 C23.3041637,32.0519942 23.5678993,32.9249779 23.7750351,33.2740921 C24.4087554,34.3634394 25.3792946,34.9939056 27.5126143,34.4714231 C29.6437494,33.9433928 31.5322,33.7597214 33.3144016,34.0252226 C35.1009724,34.2901294 35.9406369,33.744465 36.2530286,32.8090688 C36.5282828,31.9675886 37.1596199,31.2899662 38.0753467,30.8013648 C40.6163842,29.462169 40.1673583,27.4736841 39.9929909,26.5983228 C39.8168362,25.7435676 40.3570176,25.3233228 40.7210443,24.9092203 C42.1483547,23.2633112 42.4472419,21.1452459 41.5066906,19.9526702 C40.5720972,18.7543485 38.827033,19.0428333 37.8874747,19.1944068 C37.3304126,19.2815862 36.7487245,19.543521 36.5117993,19.6594301 C36.5117993,19.6594301 37.3304126,19.8490455 37.9865742,20.8615163" id="Fill-41" fill="#A71930"></path>
                <path d="M23.276102,28.1147506 C23.2318151,29.2361958 22.7639226,32.5038415 20.938427,33.5628741 C20.1807827,34.0078858 18.4823886,34.2680373 16.8175573,33.6278625 C15.1501442,32.9827343 14.3589372,31.8606946 13.9226215,31.3812075 C13.093284,30.4541329 11.9825359,29.3150536 9.24806574,28.900951 C6.67048656,28.5082471 4.40212155,27.4230606 4.79951241,24.6148904 C5.13811882,22.1845641 7.50836364,21.6159161 8.82088546,21.6529674 C9.01114056,21.659704 9.36662763,21.8110793 9.47962883,21.9870233 C9.79917001,22.4888998 10.5216627,23.5104848 11.3839671,24.0482238 C12.5554857,24.7799371 13.9208341,25.0204732 15.2383208,25.0266154 C15.2383208,25.0266154 15.8585366,27.7103566 17.9841109,28.6112774 C19.7250046,29.3453683 21.6829639,29.0543077 23.276102,28.1147506" id="Fill-43" fill="#A71930"></path>
                <path d="M8.84064578,5.14208392 C10.5299045,5.14208392 12.9920993,6.13394872 13.3992214,8.58012587 C13.3992214,8.58012587 11.7171121,7.83256177 10.7972149,8.98868065 C9.98118336,10.0132378 10.5299045,11.2947762 10.7364444,11.9652657 C10.9406013,12.6363497 11.1090108,13.2535408 10.9406013,13.8299161 C10.7505448,14.4786107 10.430805,14.887958 9.30297757,15.579648 C8.32230988,16.1881212 8.07386612,17.2170373 8.02163534,17.8843566 C7.91697518,19.1120023 8.34475124,20.4179114 9.2757699,21.1452657 C9.2757699,21.1452657 7.8284013,21.7091585 6.26544975,21.0907786 C4.53726622,20.4052308 3.57784831,18.9301142 3.57784831,17.0975618 C3.57784831,15.2576783 4.62842185,14.2670023 4.98152577,13.8875734 C5.33085636,13.5087389 5.71196234,12.8994732 5.71196234,12.2858485 C5.71196234,11.6753939 5.37772505,11.210965 5.21547201,10.8842401 C4.93723883,10.3393683 4.61749906,9.43606993 4.90605924,8.15314452 C5.13523917,7.16088345 6.32622017,5.14208392 8.84064578,5.14208392" id="Fill-45" fill="#A71930"></path>
                <path d="M11.7899175,10.4488776 C11.4922219,11.2418147 11.6769163,11.7304161 11.9388646,12.4026888 C12.2000185,13.0737727 12.4345605,13.9443788 11.2934272,14.8797751 C10.1522938,15.8116049 9.02704811,16.5177587 9.11562198,18.3570478 C9.20379866,20.192176 10.5107598,22.6651014 12.285812,23.6211037 C13.6475857,24.3607424 14.626466,24.4096818 15.6484417,24.3219079 C15.6484417,24.3219079 16.5423229,26.8855793 18.6142763,27.7700548 C20.0616449,28.3878403 22.2916809,28.6151014 24.298892,26.9491807 C25.0019223,26.3666632 25.8312597,24.7407657 25.6854902,23.3130035 C25.6854902,23.3130035 23.231835,23.5160921 20.7763924,22.6692622 C18.3227372,21.82481 15.8386968,19.9890874 15.0504688,17.7727471 C14.2624393,15.5575956 13.9836103,12.1706725 16.4066817,9.63156993 C16.4066817,9.63156993 15.4558035,9.07817832 14.3925198,8.98842308 C13.3856374,8.91273543 12.2000185,9.37102214 11.7899175,10.4488776" id="Fill-47" fill="#A71930"></path>
                <path d="M27.6890471,10.7115455 C27.0308995,9.43595105 25.6298038,7.67492541 23.2460544,7.79618415 C22.5326971,7.83244289 21.5500435,8.29092774 21.2007129,8.72860839 C21.2007129,8.72860839 20.0705023,8.70186014 19.2403705,8.93348019 C18.176491,9.23226807 17.0687218,9.87244289 16.3043253,11.2122331 C15.5464825,12.5532121 15.2682493,13.5977809 15.2682493,14.909634 C15.2682493,16.7520932 16.2246882,19.0296573 18.0440274,20.3038648 C18.3367581,20.506359 18.4116288,20.2517552 18.3502626,19.7564172 C18.2924712,19.259296 17.9528718,17.2406946 18.9073248,15.2946107 C20.001788,13.0558811 21.8896429,11.679634 23.9600075,11.0109277 C25.2026235,10.6067319 26.8984359,10.5932587 27.6890471,10.7115455" id="Fill-49" fill="#800326"></path>
                <path d="M23.5078637,11.8183089 C21.666679,12.6651387 19.1139243,15.0524697 18.9486923,18.0879009 C18.8053059,20.7668869 20.0018476,22.4001154 23.5960404,22.546141 C27.190829,22.6891946 30.7582113,20.1843695 30.9010019,20.0975862 C31.0467714,20.0102086 31.0201596,19.8047424 30.6080726,19.8939033 C30.2009505,19.9824697 27.7200877,20.3036469 26.2228714,20.2455932 C24.734592,20.1843695 23.0751228,19.7193462 22.3393241,18.5808613 C21.5336196,17.3355816 21.2583653,15.2290082 23.5078637,11.8183089" id="Fill-51" fill="#A71930"></path>
                <path d="M29.2140072,12.6915501 C30.2282376,13.8518298 30.0872344,15.4202681 29.0954453,17.1703963 C28.103259,18.9193357 26.7081212,19.327296 25.8045088,19.2692424 C24.8967259,19.2109907 24.5388557,19.092704 24.123194,18.9017016 C24.123194,18.9017016 25.765584,18.7848019 26.7768355,17.5983683 C27.4913844,16.7624359 27.394668,15.6711072 26.9730485,14.9534615 C26.7166608,14.5248951 26.3027865,14.1902448 25.9965513,14.0022145 C25.2770375,13.5572028 23.9464434,13.3923543 23.2463921,13.6536946 C23.2463921,13.6536946 24.3571402,11.7022611 26.6060428,11.7022611 C27.6887889,11.7022611 28.5693641,11.9653846 29.2140072,12.6915501" id="Fill-53" fill="#A71930"></path>
                <path d="M23.2791207,13.9446958 C22.7522452,14.4144744 22.4156247,15.1723415 22.3695504,15.8434254 C22.3135463,16.6454767 22.5737072,17.4154301 23.2761418,17.8233904 C23.9761931,18.2319452 25.2138442,18.0324231 25.7460818,17.5390664 C26.3440548,16.9848823 26.3611341,16.2993345 26.3307488,16.0732622 C26.2803054,15.6912576 26.0050512,15.3153951 25.4648697,15.4245676 C25.0430515,15.5117471 24.7046437,15.498472 24.4585831,15.4390315 C24.175385,15.3748357 23.4918172,15.1505466 23.2791207,13.9446958" id="Fill-55" fill="#A71930"></path>
                <path d="M32.0682506,9.31067016 C33.0902263,9.84662587 33.2677713,10.884458 32.9506133,12.0490967 C32.6308735,13.2184907 32.451144,13.6833159 33.212363,14.6745862 C33.9708016,15.6688287 33.6510618,17.0660781 33.212363,17.6487937 C32.7742599,18.2319056 31.8646896,19.2511131 30.0264838,19.426859 C28.1854977,19.6031993 27.8323938,19.3376981 27.8323938,19.3376981 C27.8323938,19.3376981 29.1339928,18.5302972 30.0654087,16.9188636 C30.6669563,15.8822203 30.9890793,14.6813228 30.6973416,13.5402622 C30.2751262,11.8816725 28.5324451,11.4089219 27.8026043,11.4089219 C27.8026043,11.4089219 28.1253231,9.98115967 29.208665,9.45808275 C30.286049,8.93361888 31.4575675,8.98870047 32.0682506,9.31067016" id="Fill-57" fill="#800326"></path>
                <path d="M26.1406328,22.634965 C26.3497545,23.2156993 26.6722746,24.0736247 26.1078644,25.3472378 C25.6302407,26.4282634 25.4644129,28.322634 26.8132779,29.6012005 C28.1585681,30.885711 30.3387564,30.5819697 31.2393898,30.1322028 C32.2911549,29.6071445 32.6994686,28.589324 32.9195131,27.4448951 C33.0269536,26.8821911 33.3222661,26.6749417 33.9986845,26.6573077 C34.6786776,26.6414569 36.0597151,26.4244988 36.9359212,25.0010956 C37.6389515,23.8661772 37.9312851,22.2052098 37.2149488,21.0611772 C36.4122232,19.7790443 34.2592426,19.4485548 33.355233,19.5438578 C32.801547,19.6031002 32.3908502,19.7469464 32.0407252,20.0706993 C31.6919904,20.3889044 29.5858784,22.3141841 26.1406328,22.634965" id="Fill-59" fill="#A71930"></path>
                <path d="M26.476717,35.4299814 C26.6997405,35.3984779 26.9396446,35.3535012 27.1986139,35.296042 C28.9164705,34.9074988 30.2009902,34.6752844 31.6014902,34.6752844 C33.0051676,34.6752844 36.5719541,34.743641 39.4996583,38.3938858 C39.587835,38.5036527 39.7999356,38.8951678 39.7202986,39.0193986 C39.660124,39.1141072 39.4917144,39.0806224 39.1636336,39.0655641 C39.1636336,39.0655641 40.1675371,40.6544103 40.4457702,42.3343986 C40.4864825,42.5660186 40.4457702,42.7144219 40.2142072,42.7144219 C39.9790693,42.7144219 39.5798911,42.6635012 39.5798911,42.6635012 C39.5798911,42.6635012 40.2968231,44.6767529 39.9790693,47.1908904 C39.9607985,47.3569277 39.8605074,47.4902727 39.7512796,47.5043403 C39.7512796,47.5043403 39.041497,45.6165082 38.4004287,44.5360769 C37.4269105,42.9089907 36.4978778,41.2268228 34.5103277,39.3037226 C32.7322965,37.5765781 30.7878418,36.4533497 27.9485129,35.9859487 C27.5266947,35.8938159 25.654529,35.4785245 25.654529,35.4785245 C25.9031714,35.4832797 26.1728649,35.4694103 26.476717,35.4299814" id="Fill-61" fill="#284E36"></path>
                <path d="M15.4643431,52.1183147 C15.4643431,52.1183147 16.0045246,49.4581515 15.2274179,46.6325455 C14.2016689,42.8909604 12.3022955,42.6537925 12.3022955,42.6537925 C12.3022955,42.6537925 12.0105578,42.5113333 12.1150193,41.9912284 C12.1150193,41.9912284 12.0707324,42.3920559 14.3202308,42.4950862 C16.2470104,42.584049 17.6999397,42.8065548 18.5876644,44.6828951 C19.2869214,46.1693054 19.0803814,47.3345385 19.0499962,47.7145618 C19.0396692,47.9176503 18.9078014,48.005028 18.733434,47.9176503 C18.5572792,47.8286876 18.5572792,47.8584079 18.5572792,48.1195501 C18.5572792,48.3820793 18.4685068,50.8112168 17.2527012,52.0200396 C17.0515234,52.2231282 16.977447,52.158338 16.5697292,51.8678718 C16.5697292,51.8678718 15.6788269,53.6520793 15.4752659,54.0025804 C15.3348584,54.2460886 15.2546256,54.2978019 15.1823366,54.1818928 C15.1823366,54.1818928 15.2850108,52.9877319 15.4643431,52.1183147" id="Fill-63" fill="#284E36"></path>
                <path d="M3.50629413,27.7698368 C3.50629413,27.7698368 3.74580106,27.6335198 3.93585756,27.8352214 C4.16801644,28.0692191 4.54534908,28.470641 5.37548091,28.7611072 C6.00920116,28.9865851 6.58771169,29.1343939 7.64066838,29.2235548 C8.91188221,29.3291608 10.9298175,29.8151865 12.0983571,30.5998019 C12.8341558,31.0993007 14.1212573,32.3455711 14.4578778,33.6279021 C14.6862633,34.4717599 14.7750358,35.4525291 14.6953987,35.9970047 C14.6157617,36.5420746 14.5986824,37.531958 14.8910159,38.0938695 L14.2481602,37.5664336 C14.2481602,37.5664336 13.6976518,37.0239394 11.7452532,35.6726573 C8.95795651,33.7368765 9.91518986,34.3990443 8.03508029,32.9895105 C7.53620681,32.6178089 5.75519671,31.2901049 4.28896148,28.7749767 C4.17596028,28.5804079 3.72931758,27.8796037 3.50629413,27.7698368" id="Fill-65" fill="#284E36"></path>
                <path d="M19.8031919,37.8136865 C19.8031919,37.8136865 22.5642739,37.4590245 24.252341,38.2083718 C25.8309817,38.9085816 26.562014,40.0470664 26.7334025,40.5459709 C26.8676535,40.941845 26.8567307,41.0054464 26.4903208,41.0601317 C26.1074275,41.1146189 25.9914474,41.1473112 26.3717589,41.4674977 C26.7520705,41.7892692 27.848917,42.8344324 28.0367889,43.9743042 C28.093786,44.3119266 28.0890197,44.3390711 27.7468386,44.2948869 C27.5122965,44.2651667 27.3671228,44.2948869 27.5122965,44.5877308 C27.6588605,44.8774044 28.0562513,45.8413322 28.1589255,47.0350967 C28.1849416,47.384211 28.1589255,47.50012 27.9176312,47.5593625 C27.6890471,47.6213788 27.4157788,48.1117634 27.6890471,49.4818683 C27.8326321,50.2377541 28.1964602,50.6591876 28.4037946,50.9197354 C28.5324848,51.0913205 28.5434076,51.2452716 28.4504646,51.3193741 C28.4504646,51.3193741 27.3202541,50.8440478 26.1505229,49.5831154 C26.1505229,49.5831154 23.5413669,46.9156212 22.733875,43.5996305 C21.7434761,39.523197 19.872502,38.5174627 19.872502,38.5174627 C19.6459038,38.2943625 19.4999356,37.9573345 19.8031919,37.8136865" id="Fill-67" fill="#284E36"></path>
                <path d="M30.9778189,48.7330956 C30.9778189,47.7921515 31.7289094,47.0435967 32.6744256,47.0435967 C33.6253039,47.0435967 34.3690464,47.7921515 34.3690464,48.7330956 C34.3690464,49.6708695 33.6253039,50.4184336 32.6744256,50.4184336 C31.7289094,50.4184336 30.9778189,49.6708695 30.9778189,48.7330956 M31.2530731,48.7330956 C31.2530731,49.5284103 31.8997021,50.1438182 32.6744256,50.1438182 C33.4491491,50.1438182 34.0937922,49.5284103 34.0937922,48.7330956 C34.0937922,47.9357995 33.4491491,47.3162308 32.6744256,47.3162308 C31.8997021,47.3162308 31.2530731,47.9357995 31.2530731,48.7330956" id="Fill-69" fill="#000000"></path>
                <path d="M31.9771943,49.2685758 L32.1771806,49.2685758 L32.1771806,48.0579697 L31.9771943,48.0579697 L31.9771943,47.7892984 L32.6559959,47.7892984 C33.0581531,47.7892984 33.3455217,47.9614779 33.3455217,48.3179231 C33.3455217,48.5435991 33.2071002,48.716373 33.0156535,48.7932494 L33.2841555,49.2685758 L33.4841418,49.2685758 L33.4841418,49.537049 L33.0794028,49.537049 L32.7282849,48.8727016 C32.6905516,48.8756737 32.6559959,48.8782494 32.6212416,48.8782494 C32.5654361,48.8782494 32.5149926,48.8782494 32.4778552,48.8756737 L32.4778552,49.2685758 L32.6961123,49.2685758 L32.6961123,49.537049 L31.9771943,49.537049 L31.9771943,49.2685758 Z M33.0339243,48.3282261 C33.0339243,48.1451492 32.8819983,48.0579697 32.6401082,48.0579697 L32.4778552,48.0579697 L32.4778552,48.6180979 C32.5094319,48.6204755 32.5519315,48.6236457 32.648052,48.6236457 C32.8740544,48.6236457 33.0339243,48.511303 33.0339243,48.3282261 L33.0339243,48.3282261 Z" id="Fill-71" fill="#000000"></path>
            </g>
        </g>
    </g>
</svg>