<svg version="1.2" xmlns="http://www.w3.org/2000/svg" viewBox="0 0 58 58" width="58" height="58"><defs><clipPath clipPathUnits="userSpaceOnUse" id="cp1"><path d="m-665-799h1400v3013h-1400z"/></clipPath></defs><style>.a{opacity:.1;fill:#d0021b}.b{fill:#d0021b}</style><g clip-path="url(#cp1)"><path class="a" d="m29.3 58c-15.7 0-28.4-13-28.4-29 0-16 12.7-29 28.4-29 15.7 0 28.3 13 28.3 29 0 16-12.6 29-28.3 29z"/><path class="b" d="m43 22h-3v13.5h-19.5v3c0 0.8 0.7 1.5 1.5 1.5h16.5l6 6v-22.5c0-0.8-0.6-1.5-1.5-1.5zm-6 9v-13.5c0-0.8-0.6-1.5-1.5-1.5h-19.5c-0.8 0-1.5 0.7-1.5 1.5v21l6-6h15c0.9 0 1.5-0.7 1.5-1.5z"/></g></svg>