<svg version="1.2" xmlns="http://www.w3.org/2000/svg" viewBox="0 0 57 58" width="57" height="58"><defs><clipPath clipPathUnits="userSpaceOnUse" id="cp1"><path d="m-216-799h1400v3013h-1400z"/></clipPath></defs><style>.a{opacity:.1;fill:#d0021b}.b{fill:#d0021b}</style><g clip-path="url(#cp1)"><path class="a" d="m28.5 58c-15.7 0-28.3-13-28.3-29 0-16 12.6-29 28.3-29 15.7 0 28.3 13 28.3 29 0 16-12.6 29-28.3 29z"/><path fill-rule="evenodd" class="b" d="m31.6 35.5v-1.5h10.2v6c0 1.7-1.3 3-2.9 3h-20.5c-1.7 0-3-1.3-3-3l0.1-6h10.2v1.5zm11.7-10.5v4.5c0 1.6-1.3 3-2.9 3h-8.8v-3h-5.9v3h-8.8c-1.6 0-2.9-1.3-2.9-3v-4.5c0-1.7 1.3-3 2.9-3h5.9v-3l2.9-3h5.9l2.9 3v3h5.9c1.6 0 2.9 1.3 2.9 3zm-11.7-6h-5.9v3h5.9z"/></g></svg>