<svg version="1.2" xmlns="http://www.w3.org/2000/svg" viewBox="0 0 58 58" width="58" height="58"><defs><clipPath clipPathUnits="userSpaceOnUse" id="cp1"><path d="m-665-1053h1400v3013h-1400z"/></clipPath></defs><style>.a{opacity:.1;fill:#d0021b}.b{fill:#d0021b}.c{fill:#f9dee1}</style><g clip-path="url(#cp1)"><path class="a" d="m29.1 58c-15.7 0-28.3-13-28.3-29 0-16 12.6-29 28.3-29 15.7 0 28.4 13 28.4 29 0 16-12.7 29-28.4 29z"/><path class="b" d="m29.4 46c-8.8 0-16-7.2-16-16 0-8.8 7.2-16 16-16 8.9 0 16 7.2 16 16 0 8.8-7.1 16-16 16z"/><path class="c" d="m31.6 39.6l-3.1-9h-9.8l18.9-10.6z"/></g></svg>