<svg version="1.2" xmlns="http://www.w3.org/2000/svg" viewBox="0 0 380 180" width="380" height="180">
	<title>New Project</title>
	<style>
		.s0 { fill: #fefefe } 
		.s1 { fill: #007d43 } 
		.s2 { fill: #6e0d2a } 
		.s3 { fill: #b81136 } 
		.s4 { fill: #023f2c } 
		.s5 { fill: #231f20 } 
	</style>
	<g id="Layer 1 copy 2">
		<g id="&lt;Group&gt;">
			<g id="&lt;Group&gt;">
				<g id="&lt;Group&gt;">
					<path id="&lt;Compound Path&gt;" fill-rule="evenodd" class="s0" d="m22.5 44.8c0.6-1.2-0.3-4-1.7-6-1.3-2-2.7-5.1-2.1-8.9 0.8-5 5.4-8.4 11.4-9.6 5.9-1.2 14.4 2.6 14.4 2.6 0 0-1.5-2.3-2-4.6-0.5-2.7 0-5.6 1.9-7.8 2.4-2.7 8.6-3.8 16.9-1.2 7.8 2.5 9.2 0.7 12.4-0.9 2.6-1.3 5.6-3 9.3-2.9 4.8 0 7.1 2.7 8 5.3 1.7 4.4 0.4 11 0.4 11 0 0 0.8-3.1 3.2-5.5 2.9-3 5.2-3.7 7.7-3.7 3.6-0.1 5.3 1.3 7.2 3.6 1.8 2.1 2.1 6.5 4.2 9.2 2 2.7 3.5 3 7.7 4.1 4.2 1.2 6.9 2.3 8.3 5.7 1.8 4.4-2.4 7.8-2 10.4 0.3 2.4 5.2 5 4.4 9.3-1.1 6.2-7.9 8-7.9 8 0 0 7.5-1.2 11.7 1.6 4.1 2.8 3.6 7.7 3 9.7-1.2 4.9-6.6 9-7.5 10.8-0.9 1.7-1.3 3.1-0.4 5.8 0.9 2.7 0.7 5.7-0.7 7.7-1.5 2.1-6 3.2-8.1 4.9-1.5 1.2-2.2 5.5-3.7 7-0.8 0.8-1.8 1.5-3.5 1.9 5.1 1.8 11 5 15.6 11.4 0.5 0.7 1.4 2.4-0.3 3.1-0.3 0.1-1 0-2-0.3 0 0 4.1 5.3 4.3 9.8 0.1 1.1-0.6 2-1.5 2-0.8 0.1-1.9-0.7-1.9-0.7 0 0 2.3 3.6 1.5 11.7-0.4 3.3-2.5 11.1-4 4.5-0.4-1.8-1-5.5-4.5-8.1-2.8-1.9-4.4-1.8-5.7-1.9 0 0 1.1 2.3-0.3 2.7-0.8 0.3-3.8-0.4-5.6-1.3-5.1-2.4-5.9-3.3-8.8-5.9 0 0-0.6 1.6-1.4 1.8 0 0-2.4 1.1-4.1-3.4-1.2-3.4-2.8-12.3-6.3-15.2-4.8-4-9-3.9-12-3.4-2.4 0.3-2.9 0.5-5.8 1.4 0 0 4.9-0.7 10.1 1.6 4.9 2.2 8.1 6.4 8.5 7.9 0.7 2.7-0.6 2.2-1.8 2.4-1.2 0.2 1 1 2.1 2.2 1.3 1.3 2.4 2.7 3.3 5.2 1.1 3-0.1 3.6-1.8 3.1-0.7-0.3 1.3 3 1.7 4.5 0.7 3.4 0.6 4.7 0.1 5.3-0.8 0.8-2 0.3-2.3 0.9-0.5 0.8 0.3 3.2 0.9 4.7 1.5 3.2 4.3 5.3 4.4 5.9 0.5 2.4-6.3 0.5-8.3-0.4-4.4-2-5.9-3.3-9.1-7.3 0 0-0.3 1.4-1.1 1.6-0.7 0.2-2-0.6-3-1.4-0.9-0.8-1.8-1.8-2.7-3.2 0 0-0.9 0.7-1.7 1-1.7 0.4-3.1-1.3-3.7-2.9l-1.1-2.9c0.2 2.6-0.1 4.6-0.3 5.6-0.2 0.6-0.7 0.5-1.2 0.2-0.5-0.2-0.7 0.2-0.7 1 0 0.8-1 8.9-4.7 12.7-0.6 0.6-1.5-0.1-2.3-0.9 0 0-2.9 5.6-4.2 6-0.7 0.2-0.8-0.5-1.1-1.5-0.5-1.4-1.2-3.2-2.1-4.2-1.6-2.1-3.1-4-3.4-4.7 0 0-0.1 0.9-0.4 1.3-0.4 0.4-0.4 0.8-1.2 0.2-0.7-0.6-3.5-3.5-4-8.2 0-0.5 0-2.3-0.3-2.1-0.4 0.3-1.5 1.5-1.9 0.4-0.3-1.2-1.1-5.1 0.5-8.4 1.1-2.4 1.5-3.3 1.9-4.6 0 0 0.7-2.4-1-2.7-0.9-0.1-4.3 2.3-4.5 2.5q0.1-0.1 0.1-0.1c-2.1 1.6-3.7 3.1-8.6 8.7-3 3.3-6.3 0.2-6.3 0.2 0 0-2.8-2.7-5.6-4.5-2.7-1.8-8.3-3.7-8.4-6 0-2 1.9-2.4 5.4-1.9 3.5 0.5 5.5 0.8 10.3-0.8 3.5-1.2 5.5-2.2 5.9-3.8 0.3-1-0.3-5 1.7-5.8 1.1-0.5 1.9 0.1 2.8 0.8 0.7 0.7 0.9 1.2 2 1.9 0.5 0.3 0.7 0.9 1.9 0.5 1.2-0.3 9.1-5.4 9.6-5.6 0 0 0.7-1-0.9-1-3-0.1-7.1 1.4-13 0.3-2.3-0.5-4.7-1.5-7.4-3-0.6-0.3-5.8-3.8-5.2-5.6 0.4-1.3 1.8-1.1 1.2-1.7-1.6-1.8-3-3.8-3.2-6.7-0.1-1 0.2-2.5 1.5-2.4 0 0-1.6-3-2-4.4-0.3-1 0-2.1 0.9-2.4 0 0-3.6-6.2-2.3-9.6 0.3-0.9 2.8-0.3 3.7 0.4-1.5-2.1-1.9-7.8 0.7-11.8 2.6-3.9 8-5.9 8-5.9 0 0-4 0.6-8-1.3-5.5-2.6-5.5-10.2-5-13 0.5-3.2 2.3-6 5-9.3q1.2-1.4 1.9-2.7zm29.9 63.6c0.7 2.4 0.7 6.3 0.4 7.9-0.2 1.7-0.3 2.7 0 4.3 0 0 4.7-2.8 7-8.3-2.4-0.4-5.2-1.4-7.4-3.9zm11.3 31.7c-0.3-1.4-0.4-3.1 0.1-4.5 1.4-3.2 2.9-5 2.6-6.5-0.4-1.4-2.1-2.4-3.4-2.6-2.3-0.3-4 0.3-5.4 1.1-1.5 0.9-5 2.7-10.2 6.2 0 0 1.6 1.1 5.1 1.2 6.1 0.2 8.9 1.8 11.2 5.1z"/>
					<path id="&lt;Path&gt;" class="s1" d="m66.9 126.8c0.3 1.5 0.3 3.8-1.3 6.9-1.5 2.9-0.9 6.2-0.6 7.5 0.1 0.4 0.4 0.7 0.5 0.7 0.8 0.2 1.4 0.3 1.4 0.3-0.4 4.6 3.3 9.4 3.9 9.9 0.5 0.5 1 0.4 1.7 0.1 0.6-0.2 0.9-0.4 0.9-0.4 0.8 1.6 3.3 3.3 4.2 3.7 0.8 0.4 0.9 0.2 1.5-0.1 0.5-0.4 1-0.8 1-0.8 4.3 5.9 11.3 7.6 13.1 7.9 0.9 0.2 1.2-0.5 0.6-1.3-0.6-0.8-1.8-2.1-2.2-4.4-0.8-4.2 0-5.7 0.7-5.9 0.7-0.2 0.8-0.6 0.7-1.6-0.3-3.7-1.5-6.6-1.9-7.5-0.5-0.9 0-1 0.7-0.9 1 0.1 1 0 0.9-1-0.6-3.5-4-6.7-5.1-7.7-1.2-1-0.8-1.1 0.3-1.2 1.2-0.2 1.2-0.4 0.8-1.6-0.5-1.5-2.8-5-7.6-7.2-5.1-2.2-13.6-1.2-13.6-1.2 1.9-1.2 6.6-3 9.9-3.9 4.4-1.1 9 0 12.1 2.3 3.7 2.7 5.5 11.3 6.7 14.6 1.6 4.5 4.2 4.6 4.2 4.6 0.8-0.3 1.1-1.5 1.1-1.5 3.6 3.8 10.2 6 12.5 6.5 0.9 0.1 1.5 0.2 1.5-0.6 0-0.8 0.1-0.9 0.1-0.9 1.3 0.2 3.2 0.3 6.6 2.1 3.5 1.7 4.9 4.2 5.4 5.7 0.5 1.4 1.4 0.8 1.6-0.1 0.9-7.7-1.3-13.9-1.3-13.9 0 0 1.3 0.1 2 0.1 0.7 0 0.8-0.4 0.7-1.1-0.9-5.2-3.9-10-3.9-10 1 0 1.5 0.1 1.7-0.2 0.2-0.3-0.4-1.5-0.7-1.9-9-11.2-19.9-11.4-24.1-11.4-4.3 0-8.2 0.7-13.5 1.9-5.2 1.2-7.7 0.3-9.9-0.9-2.7-1.6-3.7-5.6-3.7-5.6-6.1 7.1-13.4 5-13.4 5-3.7 5.2-10.6 10.1-10.6 10.1-0.9-1.7-0.8-4.8-0.6-6.4 0.3-1.7 0-4.7-0.7-7.3-1-3.9-5-7.7-7.2-9.2-3.6-2.4-9.7-3.9-13.6-4.3-3.2-0.2-5-0.7-7-1.4-2.5-0.9-3.6-2.1-4.3-2.8-0.8-0.7-1.8-0.2-1.7 0.6 0.5 3.3 2.8 7.1 2.8 7.1-0.7-0.2-1.3 0.6-1.1 1.3 0.9 3.4 2.2 5.1 2.2 5.1-1.3-0.2-1.5 1-1.5 1.5 0 3.7 2.6 6.4 3.3 6.9 0.6 0.6 0.3 0.8-0.1 0.9-1.4 0.6-1.1 1.4-0.8 1.8 1.1 1.3 5 4.2 7.2 5.2 5.5 2.5 12.1 2.1 15.1 1.9 2.9-0.3 5.1 1 5.1 1-0.5 0.2-10.5 6.7-11.6 7.3-1 0.5-1.9 0.1-2.5-0.1-1.5-0.8-3-2.4-3.7-3.1-0.7-0.8-1.3-0.4-1.3 0.4 0 0.8-0.2 4.3-0.1 5.2 0.1 0.9-0.6 1.2-0.9 1.4-10.7 5.3-16.5 3.3-18 3.1-1.7-0.2-2.9-0.2-3.3 0.8-0.3 1 0.6 1.9 4.3 3.4 4.4 1.8 7.3 3.9 9.9 5.6 2 1.2 3.1 0.1 3.8-0.6 5.8-5.8 11.8-9.4 13.6-10.4 0.3-0.2 0.8-0.2 0.9-0.1 1.4 0.6 1.9 1.9 1.9 1.9 0.6 1.8-0.5 2.9-1.6 5.2-1.6 3.3-1.9 5.8-1.5 7 0.4 1.2 1.3 0.8 1.6 0.6 0.4-0.3 0.6-0.1 0.6 0.3 0.1 5.2 2.9 8.5 3.6 9.1 0.7 0.6 0.8 0.6 1.2 0.2 0.5-0.5 0.9-1.4 0.9-1.4 0.3 0.7 1.4 3.3 3.1 5.1 1.6 1.8 2.2 4 2.6 5.6 0.3 1.2 0.6 1.4 1.2 0.3 0.6-1.1 3.3-6.5 3.3-6.5 1.3 0.9 1.5 1.1 2.1 0.4 3.7-3.7 4-11.1 4-11.9 0-0.8 0-0.9 0.6-0.6 0.5 0.2 0.9 0 0.9-0.6 0.1-1.2 0.7-4.8-1.4-9.3-2.7-5.8-7.1-6.5-13-6.7-6.9-0.3-6.8-1.6-6.8-1.6 5.1-3.2 15.8-9.3 16.8-9.8 1-0.4 1.3-0.8 3-0.2 1.2 0.5 2.8 1.6 3.1 3z"/>
					<path id="&lt;Path&gt;" class="s0" d="m92.4 115.4c8.7 1.5 14.6 4.9 20 10.2 6.1 5.9 9 11 11.9 16 0 0-7.9-10-14.8-16.6-7.1-6.7-13.9-8.5-17.1-9.6z"/>
					<path id="&lt;Path&gt;" class="s0" d="m44.6 135.9c0 0 6.4 1 9.2 13 2.1 9.3 0.5 15.9 0.5 15.9 0 0 0.1-8.4-0.9-12.3-3-12.8-8.8-16.6-8.8-16.6z"/>
					<path id="&lt;Path&gt;" class="s0" d="m20.1 93.4c0 0 4.3 7.7 11.5 12.9 7 5.1 1.8 1.6 11.3 8.2 6 4.1 7.7 5.8 7.7 5.8l-5.8-3.5c0 0-6.1-3.6-12.2-8.1-8.3-6-12.5-15.3-12.5-15.3z"/>
					<path id="&lt;Path&gt;" class="s0" d="m67.7 123.2c0 0 5.7 3.1 8.8 15.6 2.6 10.4 10.4 18.3 10.4 18.3 0 0-3-1.7-6.9-6.8-3.9-5-5.6-14.9-6.7-18.2-1.9-5.4-5.6-8.9-5.6-8.9z"/>
					<path id="&lt;Path&gt;" class="s2" d="m84.9 8.4c4.2 1.7 6.2 5.3 6.1 10-0.1 5.2-2.6 9.2-3.5 10.1-0.9 0.9-2 0.8-3.5 0.3-1.5-0.6-3.5-1.4-6.2-1.4-2.8 0-5.4 1.1-7 2.7 0 0-4-0.2-6.8 0.9-2.7 1.1-3.7 1.7-4.4 2.2 0 0-2.9-0.2-5.6-1.5-3-1.5-9.7-6-9.7-12.7 0-6.7 5.7-9.1 9.4-9 2.8 0.1 5.1 0.7 7.6 1.4 2.5 0.6 4.4 0.7 5.7 0.6 1.7-0.2 4.2-0.6 6-2 1.5-1 4.2-2.1 6.2-2.3 2.2-0.2 4.4 0.2 5.7 0.7z"/>
					<path id="&lt;Path&gt;" class="s2" d="m100.4 15.4c4.8 0 7.3 2.3 9 7 0.7 2.1 1.3 5.8 6 6.8 5.7 1.3 8.9 3.1 10.8 5.9 1.4 2.3 1.4 5.8 0.7 8-0.6 2.1-1 3.4 0.8 5.4 1.5 1.7 2.6 4.5 1.2 8.1-1.3 3.7-4.9 6.9-11.9 7.3-3.3 0.1-8-0.5-7.7-2.2 0.1-0.5 0.4-1 1.6-2.4 0.9-1 1.5-2.5 1.7-3.9 0.3-2.3-0.8-4.6-2.6-6.6-1-1.1-1.3-2.1-0.7-4 0.6-2 0.8-3.2 0.8-5.5 0-2.9-1.9-6.5-5.1-7.6-3.9-1.2-8.2-0.5-11.6 2.4 0 0-3-2.1-3-6.3 0-4.2 4.3-12.4 10-12.4z"/>
					<path id="&lt;Path&gt;" class="s3" d="m123.1 69.1c1.8 2.8 1.9 8.9-1 13.7-4.3 7.1-11 6.4-11 6.4-0.7 10.1-9.4 12.1-14.2 12.1-12.5 0-12.8-9.9-12.8-10.9 0-1.1-0.6-1.3-1.1-0.9-3 2.4-4.4 6.8-4.6 10.3-0.2 3.6 0.6 6.3 1.3 7.3 1.9 3.4 4.9 5.3 11.4 3.7 6.5-1.6 12.2-2.2 17.7-1.4 5.5 0.9 8-0.8 9-3.7 0.8-2.6 2.7-4.6 5.5-6.1 7.8-4.1 6.4-10.2 5.9-12.9-0.5-2.6 1.1-3.9 2.2-5.2 4.4-5 5.3-11.5 2.4-15.1-2.8-3.7-8.2-2.8-11-2.4-1.7 0.3-3.5 1.1-4.2 1.5 0 0 2.5 0.5 4.5 3.6z"/>
					<path id="&lt;Path&gt;" class="s3" d="m78.1 91.3c-0.1 3.5-1.5 13.5-7.1 16.7-2.3 1.4-7.5 2.2-12.6 0.2-5.1-1.9-7.5-5.4-8.8-6.9-2.6-2.8-6-6.3-14.3-7.5-7.9-1.3-14.8-4.6-13.6-13.2 1-7.4 8.3-9.2 12.3-9 0.6 0 1.6 0.4 2 1 1 1.5 3.2 4.6 5.8 6.3 3.6 2.2 7.8 3 11.8 3 0 0 1.9 8.2 8.4 11 5.3 2.2 11.3 1.3 16.1-1.6z"/>
					<path id="&lt;Path&gt;" class="s3" d="m34 21c5.2 0 12.7 3 14 10.5 0 0-5.2-2.3-8 1.3-2.5 3.1-0.8 7-0.2 9.1 0.7 2.1 1.2 3.9 0.7 5.7-0.6 2-1.6 3.2-5.1 5.4-2.9 1.8-3.7 5-3.9 7-0.3 3.8 1 7.8 3.9 10 0 0-4.5 1.7-9.2-0.2-5.3-2.1-8.2-6.6-8.2-12.2 0-5.6 3.2-8.7 4.2-9.8 1.1-1.2 2.3-3 2.3-4.9 0-1.9-1-3.3-1.5-4.3-0.9-1.7-1.9-4.4-1-8.4 0.7-3 4.4-9.2 12-9.2z"/>
					<path id="&lt;Path&gt;" class="s3" d="m43 37.3c-0.9 2.4-0.3 3.9 0.5 5.9 0.8 2.1 1.5 4.8-2 7.6-3.5 2.9-6.9 5-6.6 10.7 0.2 5.6 4.2 13.2 9.7 16.1 4.1 2.3 7.1 2.4 10.2 2.1 0 0 2.8 7.9 9.1 10.6 4.4 1.9 11.2 2.6 17.4-2.5 2.1-1.8 4.6-6.8 4.2-11.2 0 0-7.5 0.7-15-1.9-7.5-2.6-15.1-8.2-17.5-15-2.4-6.8-3.3-17.2 4.1-24.9 0 0-2.9-1.7-6.1-2-3.1-0.2-6.7 1.2-8 4.5z"/>
					<path id="&lt;Path&gt;" class="s2" d="m91.6 38.1c-2-3.9-6.3-9.3-13.6-9-2.1 0.1-5.1 1.6-6.2 2.9 0 0-3.5-0.1-6 0.6-3.2 0.9-6.6 2.9-9 7-2.3 4.1-3.1 7.3-3.1 11.3 0 5.7 2.9 12.6 8.4 16.5 0.9 0.7 1.2-0.1 1-1.6-0.2-1.6-1.2-7.7 1.7-13.7 3.3-6.9 9.1-11.1 15.4-13.1 3.8-1.3 9-1.3 11.4-0.9z"/>
					<path id="&lt;Path&gt;" class="s3" d="m78.8 41.5c-5.6 2.5-13.4 9.9-13.9 19.1-0.4 8.2 3.2 13.2 14.2 13.7 11 0.4 21.9-7.2 22.3-7.5 0.5-0.3 0.4-0.9-0.9-0.6-1.2 0.2-8.8 1.2-13.4 1.1-4.5-0.2-9.6-1.7-11.8-5.1-2.5-3.9-3.3-10.3 3.5-20.7z"/>
					<path id="&lt;Path&gt;" class="s3" d="m96.3 44.1c3.1 3.6 2.6 8.4-0.4 13.7-3 5.4-7.3 6.6-10 6.5-2.8-0.2-3.9-0.6-5.2-1.2 0 0 5-0.3 8.1-4 2.2-2.5 1.9-5.9 0.6-8.1-0.8-1.3-2-2.3-3-2.9-2.2-1.3-6.2-1.8-8.4-1 0 0 3.4-6 10.3-6 3.3 0 6 0.8 8 3z"/>
					<path id="&lt;Path&gt;" class="s3" d="m78.1 48c-1.6 1.4-2.6 3.7-2.7 5.8-0.2 2.4 0.6 4.8 2.7 6 2.2 1.3 5.9 0.7 7.6-0.8 1.8-1.7 1.9-3.8 1.8-4.5-0.2-1.2-1-2.3-2.7-2-1.3 0.3-2.3 0.2-3.1 0-0.8-0.2-2.9-0.8-3.6-4.5z"/>
					<path id="&lt;Path&gt;" class="s2" d="m105 33.8c3.1 1.6 3.7 4.8 2.7 8.4-1 3.5-1.5 5 0.8 8 2.3 3 1.3 7.3 0 9.1-1.4 1.8-4.1 4.9-9.8 5.4-5.6 0.6-6.7-0.2-6.7-0.2 0 0 4-2.5 6.9-7.4 1.8-3.2 2.8-6.9 1.9-10.4-1.3-5.1-6.6-6.5-8.8-6.5 0 0 0.9-4.4 4.3-6 3.2-1.6 6.8-1.4 8.7-0.4z"/>
					<path id="&lt;Path&gt;" class="s3" d="m86.9 74.6c0.6 1.7 1.6 4.4-0.1 8.3-1.5 3.3-2 9.1 2.1 13 4.1 3.9 10.8 3 13.6 1.6 3.2-1.6 4.4-4.7 5.1-8.2 0.3-1.7 1.2-2.4 3.3-2.4 2.1-0.1 6.3-0.7 9-5.1 2.1-3.5 3-8.5 0.8-12.1-2.4-3.9-9-4.9-11.8-4.6-1.7 0.2-2.9 0.6-4 1.6-1.1 1-7.5 6.9-18 7.9z"/>
					<path id="&lt;Path&gt;" class="s4" d="m87.9 113.7q1-0.1 2.2-0.4c5.3-1.2 9.2-1.9 13.5-1.9 4.2 0 15.1 0.2 24.1 11.4 0.3 0.4 0.9 1.6 0.7 1.9-0.2 0.3-0.7 0.2-1.7 0.2 0 0 3 4.8 3.9 10 0.1 0.7 0 1.1-0.7 1.1-0.7 0-2-0.1-2-0.1 0 0 2.2 6.2 1.3 13.9-0.1 0.5-0.4 0.9-0.7 0.9 0 0-2.2-5.8-4.2-9.1-2.9-5-5.8-10.1-11.9-16-5.4-5.3-11.3-8.7-20-10.2-1.3-0.2-7-1.5-7-1.5q1.1 0 2.5-0.2z"/>
					<path id="&lt;Path&gt;" class="s4" d="m54.3 164.8c0 0 1.6-8.1-0.8-16.8-3.1-11.4-8.9-12.1-8.9-12.1 0 0-0.9-0.5-0.6-2.1 0 0-0.1 1.3 6.8 1.6 5.9 0.2 10.3 0.9 13 6.7 2.1 4.5 1.5 8.1 1.4 9.3 0 0.6-0.4 0.8-0.9 0.6-0.6-0.3-0.6-0.2-0.6 0.6 0 0.8-0.3 8.2-4 11.9-0.6 0.7-0.8 0.5-2.1-0.4 0 0-2.7 5.4-3.3 6.5-0.4 0.8-0.7 0.9-0.9 0.6 0 0 0.3-3.7 0.9-6.4z"/>
					<path id="&lt;Path&gt;" class="s4" d="m17.7 90.3c0 0 0.8-0.4 1.4 0.2 0.7 0.7 1.8 1.9 4.3 2.8 2 0.7 3.8 1.2 7 1.4 3.9 0.4 10 1.9 13.6 4.3 2.2 1.5 6.2 5.3 7.2 9.2 0.7 2.6 1 5.6 0.7 7.3-0.2 1.6-0.3 4.7 0.6 6.4l-1.9-1.6c0 0-1.7-1.7-7.7-5.8-8.5-5.9-5.6-3.9-11.3-8.2-1.5-1.2-7-5.2-11.5-12.9-0.3-0.6-1.7-2.8-2.4-3.1z"/>
					<path id="&lt;Path&gt;" class="s4" d="m67.5 121c0 0 8.5-1 13.6 1.2 4.8 2.2 7.1 5.7 7.6 7.2 0.4 1.2 0.4 1.4-0.8 1.6-1.1 0.1-1.5 0.2-0.3 1.2 1.2 1 4.5 4.2 5.1 7.7 0.1 1 0.1 1.1-0.9 1-0.7-0.1-1.2 0-0.7 0.9 0.4 0.9 1.6 3.8 1.9 7.5 0.1 1 0 1.4-0.7 1.6-0.7 0.2-1.5 1.7-0.7 5.9 0.4 2.3 1.6 3.6 2.2 4.4 0.4 0.5 0.4 1 0.1 1.2 0 0-3.4-1.5-7-5.3 0 0-8-8.2-10.4-18.3-3.1-12.5-8.8-15.6-8.8-15.6-0.7-0.7-1.1-1.7-0.2-2.2z"/>
				</g>
			</g>
		</g>
		<g id="&lt;Group&gt;">
			<path id="&lt;Compound Path&gt;" fill-rule="evenodd" class="s5" d="m106.8 159.6c-2.8 0-5.1-2.3-5.1-5.1 0-2.9 2.3-5.2 5.1-5.2 2.9 0 5.2 2.3 5.2 5.2 0 2.8-2.3 5.1-5.2 5.1zm4.4-5.1c0-2.4-2-4.4-4.4-4.4-2.4 0-4.3 2-4.3 4.4 0 2.4 1.9 4.3 4.3 4.3 2.4 0 4.4-1.9 4.4-4.3z"/>
			<g id="&lt;Group&gt;">
				<path id="&lt;Compound Path&gt;" fill-rule="evenodd" class="s5" d="m104.7 156.1h0.6v-3.7h-0.6v-0.8h2.1c1.2 0 2.1 0.5 2.1 1.6 0 0.7-0.4 1.2-1 1.5l0.8 1.4h0.6v0.8h-1.2l-1.1-2q-0.2 0-0.3 0-0.3 0-0.5 0v1.2h0.7v0.8h-2.2zm3.2-2.8c0-0.6-0.4-0.9-1.2-0.9h-0.5v1.7c0.1 0.1 0.3 0.1 0.6 0.1 0.6 0 1.1-0.4 1.1-0.9z"/>
			</g>
		</g>
		<g id="&lt;Group&gt;">
			<path id="&lt;Compound Path&gt;" fill-rule="evenodd" class="s5" d="m159 113.4h9v-54.9h-9v-12.1h30.7c18.2 0 31.2 7.8 31.2 23.9 0 10.3-6.3 18.1-15 21.6l12.2 21.5h9v12.2h-18.3l-15.9-30.1c-1.6 0.1-3.2 0.2-4.8 0.2-2.5 0-4.8 0-6.5-0.1v17.8h9.9v12.2h-32.5zm47.8-42.6c0-8.3-6.9-12.3-17.8-12.3h-7.4v25.4c1.5 0.1 3.4 0.2 7.7 0.2 10.3 0 17.5-5 17.5-13.3z"/>
			<path id="&lt;Compound Path&gt;" class="s5" d="m232.4 113.4h9v-54.9h-9v-12.1h58.4v22.6h-13v-10.6h-22.8v22.7h23.4v11.6h-23.4v20.7h10.5v12.2h-33.1z"/>
			<path id="&lt;Compound Path&gt;" class="s5" d="m304.8 96.7v-38.2h-8.7v-12.1h31.8v12.1h-9.5v37.5c0 12.1 6.1 18.6 16.2 18.6 10.2 0 16.4-5.9 16.4-18.1v-38h-9.5v-12.1h31.4v12.1h-8.7v38c0 20.7-12.1 30.5-29.6 30.5-17.7 0-29.8-9.8-29.8-30.3z"/>
		</g>
	</g>
</svg>