<svg version="1.2" xmlns="http://www.w3.org/2000/svg" viewBox="0 0 54 42" width="54" height="42"><defs><clipPath clipPathUnits="userSpaceOnUse" id="cp1"><path d="m-365-577h1400v3013h-1400z"/></clipPath></defs><style>.a{fill:#d0021b}</style><g clip-path="url(#cp1)"><path class="a" d="m50.8 0c-5.2 0.3-15.4 1.4-21.7 5.2-0.4 0.3-0.6 0.7-0.6 1.2v34.1c0 1.1 1.1 1.8 2.1 1.3 6.5-3.3 15.9-4.2 20.5-4.4 1.6-0.1 2.8-1.4 2.8-2.9v-31.6c0-1.7-1.4-3-3.1-2.9zm-26 5.2c-6.3-3.8-16.5-4.9-21.6-5.2-1.8-0.1-3.2 1.2-3.2 2.9v31.6c0 1.5 1.2 2.8 2.8 2.9 4.6 0.2 14 1.1 20.5 4.4 1 0.5 2.2-0.2 2.2-1.3v-34.1c0-0.5-0.3-0.9-0.7-1.2z"/></g></svg>