<svg version="1.2" xmlns="http://www.w3.org/2000/svg" viewBox="0 0 30 24" width="30" height="24"><defs><clipPath clipPathUnits="userSpaceOnUse" id="cp1"><path d="m-641-2859h1400v3013h-1400z"/></clipPath></defs><style>.a{fill:#989898}</style><g clip-path="url(#cp1)"><path class="a" d="m26.4 6.2q0.1 0.3 0.1 0.7c0 7.9-6.1 17.1-17.1 17.1-3.3 0-6.5-1-9.1-2.7q0.7 0 1.4 0c2.8 0 5.4-0.9 7.4-2.5-2.6-0.1-4.8-1.8-5.6-4.2q0.6 0.1 1.2 0.1 0.8 0 1.5-0.2c-2.7-0.5-4.8-2.9-4.8-5.8v-0.1c0.8 0.4 1.8 0.7 2.7 0.7-1.6-1-2.6-2.9-2.6-4.9 0-1.1 0.3-2.2 0.8-3.1 2.9 3.7 7.4 6 12.3 6.3q-0.1-0.7-0.1-1.4c0-3.3 2.6-5.9 6-5.9 1.7 0 3.2 0.7 4.3 1.8 1.4-0.2 2.7-0.7 3.8-1.4-0.4 1.4-1.4 2.6-2.6 3.3 1.2-0.1 2.4-0.5 3.4-0.9-0.8 1.2-1.8 2.2-3 3.1z"/></g></svg>