<svg version="1.2" xmlns="http://www.w3.org/2000/svg" viewBox="0 0 32 23" width="32" height="23"><defs><clipPath clipPathUnits="userSpaceOnUse" id="cp1"><path d="m-717-2860h1400v3013h-1400z"/></clipPath></defs><style>.a{fill:#989898}</style><g clip-path="url(#cp1)"><path fill-rule="evenodd" class="a" d="m31.8 11.8c0 0 0 5.1-0.6 7.6-0.4 1.3-1.4 2.3-2.8 2.7-2.4 0.7-12.1 0.7-12.1 0.7 0 0-9.8 0-12.2-0.7-1.3-0.4-2.4-1.4-2.7-2.7-0.7-2.5-0.7-7.6-0.7-7.6 0 0 0-5.1 0.7-7.5 0.3-1.3 1.4-2.4 2.7-2.8 2.4-0.6 12.2-0.6 12.2-0.6 0 0 9.7 0 12.1 0.6 1.4 0.4 2.4 1.5 2.8 2.8 0.6 2.4 0.6 7.5 0.6 7.5zm-10.6 0l-8.1-4.6v9.3z"/></g></svg>