<svg width="787" height="398" viewBox="0 0 787 398" fill="none" xmlns="http://www.w3.org/2000/svg">
<path fill-rule="evenodd" clip-rule="evenodd" d="M786.098 167.473C721.433 168.36 653.384 191.141 614.066 222.668C586.126 245.076 576.379 267.002 576.285 267.236L578.164 265.057C613.958 223.151 655.2 205.816 686.555 195.576C734.86 179.797 782.854 179.688 782.854 179.688L786.098 167.473Z" fill="white"/>
<path fill-rule="evenodd" clip-rule="evenodd" d="M137.36 305.38C141.365 302.797 146.394 301.879 149.561 301.879C154.14 301.879 158.02 305.909 158.02 310.702V356.297H166.713V311.045C166.713 301.039 159.014 292.885 149.561 292.885H148.459C145.572 292.885 142.017 293.211 137.36 295.452V270.321H128.544V356.297H137.36V305.38Z" fill="white"/>
<path fill-rule="evenodd" clip-rule="evenodd" d="M179.919 356.295H189.108V294.128H179.919V356.295Z" fill="white"/>
<path fill-rule="evenodd" clip-rule="evenodd" d="M179.919 282.472H189.108V270.335H179.919V282.472Z" fill="white"/>
<path fill-rule="evenodd" clip-rule="evenodd" d="M210.675 310.552C210.675 304.918 215.751 301.868 220.532 301.868C224.785 301.868 231.909 302.989 231.909 310.552V315.578C231.909 320.526 227.951 324.868 223.481 324.868L210.675 324.743V310.552ZM221.897 357.391C223.636 357.391 239.593 354.216 240.26 354.092L240.85 353.952L238.63 344.771L238.072 344.911C231.956 346.358 222.612 348.521 221.897 348.552C216.434 348.552 211.699 344.709 210.675 339.433V334.034C212.786 334.251 214.788 334.314 216.915 334.314C232.328 334.314 240.835 327.482 240.835 315.08V311.158C240.835 300.919 233.089 292.89 223.217 292.89H219.212C209.325 292.89 201.595 300.919 201.595 311.158V337.426C201.595 348.614 210.489 357.391 221.897 357.391Z" fill="white"/>
<path fill-rule="evenodd" clip-rule="evenodd" d="M259.823 310.813C259.823 305.865 263.61 301.865 268.267 301.865C270.626 301.865 275.749 302.846 280.343 305.507V345.172C278.853 346.931 271.17 348.565 268.127 348.565C263.642 348.565 259.823 344.503 259.823 339.726V310.813ZM268.267 357.403C270.89 357.403 277.161 356.719 282.377 354.213L286.149 357.979L292.466 351.801L289.16 348.642V270.432H280.468V295.641C276.587 293.882 272.489 293.027 268.267 293.027C258.814 293.027 251.131 301.165 251.131 311.155V339.243C251.131 349.42 258.659 357.403 268.267 357.403Z" fill="white"/>
<path fill-rule="evenodd" clip-rule="evenodd" d="M302.761 356.295H311.934V294.128H302.761V356.295Z" fill="white"/>
<path fill-rule="evenodd" clip-rule="evenodd" d="M302.761 282.472H311.934V270.335H302.761V282.472Z" fill="white"/>
<path fill-rule="evenodd" clip-rule="evenodd" d="M325.642 356.294H334.443V305.378C337.268 303.542 342.841 301.877 345.309 301.877C350.276 301.877 355.802 305.409 355.802 310.202V356.294H364.758V316.535C364.758 306.81 369.073 301.877 377.579 301.877C385.511 301.877 386.132 310.202 386.132 312.754V356.294H395.088V312.754C395.088 304.771 390.509 292.882 377.952 292.882C372.876 292.882 365.891 294.283 360.831 300.741C357.835 295.87 351.719 292.882 344.579 292.882C340.869 292.882 336.756 294.049 332.41 296.306L328.654 292.415L322.32 298.593L325.642 301.768V356.294Z" fill="white"/>
<path fill-rule="evenodd" clip-rule="evenodd" d="M408.139 282.472H417.359V270.335H408.139V282.472Z" fill="white"/>
<path fill-rule="evenodd" clip-rule="evenodd" d="M408.139 356.295H417.359V294.128H408.139V356.295Z" fill="white"/>
<path fill-rule="evenodd" clip-rule="evenodd" d="M506.161 282.472H515.35V270.335H506.161V282.472Z" fill="white"/>
<path fill-rule="evenodd" clip-rule="evenodd" d="M684.985 264.817L670.364 241.444H653.382L669.944 264.817H684.985Z" fill="white"/>
<path fill-rule="evenodd" clip-rule="evenodd" d="M588.846 334.123C588.846 340.16 584.143 345.078 578.415 345.078C575.698 345.078 567.891 343.304 563.032 340.689V304.587C568.294 299.265 572.656 294.348 576.288 289.944V290.1C577.778 288.061 579.284 286.116 580.774 284.156L581.38 284.373C585.772 285.743 588.846 289.975 588.846 294.722V334.123ZM463.225 310.812C463.225 305.879 467.028 301.88 471.685 301.88C474.059 301.88 479.166 302.845 483.745 305.521V345.156C482.255 346.914 474.603 348.548 471.545 348.548C467.028 348.548 463.225 344.518 463.225 339.74V310.812ZM614.023 240.864C599.075 252.597 588.722 262.992 581.054 271.784C579.595 273.465 578.229 275.052 576.956 276.608V276.453C575.357 278.678 573.712 280.841 572.066 282.988C568.543 287.548 564.942 291.874 561.294 295.966C557.895 299.795 554.418 303.42 550.941 306.859C539.346 318.219 527.347 327.462 515.364 334.73V294.13H506.175V339.911C501.611 342.292 497.079 344.409 492.577 346.26V270.446H483.885V295.64C479.989 293.897 475.891 293.041 471.685 293.041C462.232 293.041 454.548 301.164 454.548 311.17V339.227C454.548 346.151 458.087 352.251 463.784 355.364C448.417 359.612 433.5 362.366 384.202 362.428C363.65 362.444 129.126 362.569 129.126 362.569V370.94L395.797 371.049C433.795 371.049 463.939 364.234 487.502 355.13C489.97 354.15 492.329 353.185 494.657 352.205C498.926 350.353 502.931 348.455 506.734 346.525C509.528 345.078 512.197 343.662 514.774 342.183C524.646 336.535 532.702 330.808 539.206 325.704C542.838 322.856 546.113 320.118 549.233 317.457V397.504H562.846V356.048C567.829 358.087 573.044 359.098 578.415 359.098C591.671 359.098 602.505 347.676 602.505 333.625V295.375C602.505 286.023 597.74 277.558 590.119 273.091C618.555 241.72 652.657 224.509 680.83 216.573C732.301 202.07 778.014 201.634 778.014 201.634L781.227 189.528C702.608 188.578 637.678 219.405 614.023 240.864Z" fill="white"/>
<path fill-rule="evenodd" clip-rule="evenodd" d="M617.782 357.447H632.093V271.549H617.782V357.447Z" fill="white"/>
<path fill-rule="evenodd" clip-rule="evenodd" d="M702.8 271.556H688.986V340.57C685.136 342.842 678.71 345.083 673.448 345.083C667.767 345.083 662.024 340.29 662.024 331.156V271.556H648.038V326.192C648.038 332.245 648.038 337.972 651.003 343.9C654.977 353.206 663.405 358.761 673.619 358.761C678.291 358.761 685.866 357.625 692.494 354.513L697.787 359.82L707.674 349.891L702.8 345.394V271.556Z" fill="white"/>
<path fill-rule="evenodd" clip-rule="evenodd" d="M617.782 264.843H632.093V250.044H617.782V264.843Z" fill="white"/>
<path fill-rule="evenodd" clip-rule="evenodd" d="M69.2754 241.877C49.7951 241.877 33.2174 248.335 19.9615 261.033C6.70557 273.715 0 289.572 0 308.183C0 319.885 2.94921 330.934 8.72345 341.002C14.4977 351.07 22.445 359.068 32.3792 364.81C42.2513 370.521 54.5604 373.431 68.9028 373.431C86.1014 373.431 101.546 369.914 114.802 362.959V347.771C100.273 356.392 85.2321 360.733 70.036 360.733C54.0637 360.733 40.7301 355.769 30.4234 345.95C20.1012 336.116 14.8547 323.418 14.8547 308.183C14.8547 293.073 20.1788 280.313 30.6873 270.26C41.1337 260.208 54.4362 255.119 70.2222 255.119C84.2542 255.119 98.7364 259.056 113.374 266.806V252.038C97.2308 245.285 82.4071 241.877 69.2754 241.877Z" fill="white"/>
<path d="M395 256.208C519.264 256.208 620 198.858 620 128.114C620 57.3697 519.264 0.0200195 395 0.0200195C270.736 0.0200195 170 57.3697 170 128.114C170 198.858 270.736 256.208 395 256.208Z" fill="white"/>
<path fill-rule="evenodd" clip-rule="evenodd" d="M394.944 0C270.749 0 170.027 57.3104 170.027 128.05C170.027 198.789 270.749 256.168 394.944 256.168C519.251 256.168 619.976 198.795 619.976 128.052C619.976 57.3082 519.242 0.00891089 394.944 0ZM394.944 253.573C283.137 253.573 192.529 197.361 192.529 128.038C192.529 58.7161 283.137 2.58639 394.944 2.57079C506.752 2.5552 597.398 58.7094 597.398 128.045C597.398 197.381 506.781 253.573 394.944 253.573ZM432.816 98.2626H437.075H439.39V89.129H439.37V88.7926H430.543V89.129H430.497L430.512 98.2626H432.816ZM437.164 89.4431V97.5743H432.722V89.4408L437.164 89.4431ZM380.333 67.0455H384.536H386.864V57.874H386.842V57.5488H378.038V57.8785H378.011V67.0567H380.326V67.0455H380.333ZM380.297 58.2661H384.53V66.3505H380.284V58.2661H380.297ZM404.802 67.0366H409.035H411.329V57.854V57.5309L402.487 57.5465V57.8673H402.461V67.0433H404.798L404.802 67.0366ZM404.664 58.2616H409.035V66.3371H404.664V58.2616ZM366.51 81.4545H373.041V72.3208H373.026V71.9889H364.28V72.3163H364.242V81.45H366.508L366.51 81.4545ZM370.722 72.7151V80.7505H366.501V72.7173L370.722 72.7151ZM399.046 57.8651V57.5443H390.331V57.874H390.311V67.0455H392.538H399.059L399.046 57.8651ZM392.534 66.3505V58.2616H396.849L396.862 66.3505H392.538H392.534ZM411.32 71.9198L402.496 71.9332V72.254H402.459V81.4032H411.343V72.2606H411.32V71.9265V71.9198ZM409.037 80.6748H404.673V72.655H409.035L409.037 80.6748ZM387.076 71.7884H378.25V72.1314H378.223V81.2941H384.766L387.092 81.2807V72.1225H387.076V71.7951V71.7884ZM380.56 80.55V72.5302H384.753V80.55H380.547H380.56ZM387.081 89.071V88.7369H378.261V89.0733H378.23V98.1936H384.77H387.087V89.0733L387.081 89.071ZM384.782 97.4651H380.567V89.4832H384.782V97.4696V97.4651ZM394.615 49.0589C393.524 49.07 392.646 49.9594 392.65 51.0504C392.654 52.1414 393.537 53.0249 394.628 53.0286C395.719 53.0323 396.609 52.1548 396.62 51.0639C396.617 49.9583 395.72 49.0634 394.615 49.0634V49.0589ZM358.791 89.1579V88.8394H349.987V89.1735H349.96V98.3072H352.27H356.481H358.817V89.1735H358.797L358.791 89.1579ZM356.619 97.6389L352.125 97.6522V89.4319H356.628V97.6411L356.619 97.6389ZM348.113 89.1735V88.8394H339.363V89.1713H339.329V98.305H341.613H345.861H348.133V89.1713L348.113 89.1735ZM345.914 97.6389L341.535 97.6589V89.5322H345.921V97.6456L345.914 97.6389ZM366.501 67.0522H370.711H373.026V57.874H373.008V57.5599H364.258V57.8807H364.24V67.0745H366.503L366.501 67.0522ZM370.711 58.2683V66.355H366.501V58.2683H370.718H370.711ZM418.5 67.0879H422.753V67.1035H425.041V57.5822H416.221V57.9119H416.163V67.0968H418.48L418.5 67.0879ZM422.704 58.2371V58.2995H422.746V66.3861L418.494 66.3973V66.3305H418.449V58.2505L422.704 58.2371ZM373.026 89.0822V88.748H364.275V89.0844H364.244V98.2069H373.037V89.0844H373.021L373.026 89.0822ZM370.731 97.4696H366.521V89.4965H370.731V97.4785V97.4696ZM337.264 89.1691V88.846H328.471V89.1691H328.445V98.3027H330.728H334.961H337.275V89.1691H337.264ZM335.057 97.6344H330.637V89.5032H335.057V97.6344ZM411.332 88.8594H402.496V89.1958H402.474V98.3295H411.352V89.1958H411.332V88.8572V88.8594ZM404.673 97.5943V89.6035H409.048V97.5832H404.662L404.673 97.5943ZM319.832 106.282C319.832 106.282 366.345 105.416 390.868 105.405C415.39 105.394 469.584 106.394 469.584 106.394L464.227 103.444L464.2 68.654H468.738L448.113 61.7881H428.287L428.273 55.6262H430.243V53.755H426.456L427.659 51.4805C428.281 51.3816 428.739 50.8435 428.737 50.2129C428.739 49.8752 428.605 49.5509 428.365 49.313C428.125 49.075 427.8 48.9433 427.462 48.9475C427.122 48.9416 426.794 49.072 426.551 49.3098C426.308 49.5475 426.17 49.8728 426.168 50.2129C426.158 50.4184 426.209 50.6223 426.315 50.7988L424.914 53.7839H424.043C418.83 52.8225 413.715 51.3902 408.761 49.5045C405.5 48.31 402.347 46.8411 399.335 45.1136C399.397 43.872 399.246 42.6289 398.89 41.4379C398.481 40.566 397.846 39.8192 397.052 39.2748C397.165 38.3347 396.901 37.3882 396.319 36.6416C395.905 36.1214 395.316 35.7703 394.661 35.6547C394.644 35.6529 394.627 35.6529 394.61 35.6547C394.578 35.6529 394.546 35.6529 394.514 35.6547C393.866 35.7711 393.284 36.1225 392.879 36.6416C392.296 37.3896 392.031 38.337 392.14 39.2792C391.366 39.8214 390.761 40.5702 390.393 41.4401C390.021 42.6662 389.863 43.9474 389.928 45.2272C386.982 46.9145 383.9 48.3512 380.714 49.5223C375.755 51.4028 370.639 52.8408 365.427 53.8196H364.104L362.58 50.8277C362.673 50.6501 362.724 50.4535 362.729 50.253C362.729 49.5406 362.152 48.9631 361.439 48.9631C360.727 48.9631 360.15 49.5406 360.15 50.253C360.159 50.8816 360.613 51.4151 361.232 51.525L362.433 53.8196H358.227V55.6819H360.713V61.9196L341.109 61.9307L320.465 68.8366L324.874 68.821L324.889 103.774H324.64L319.832 106.282ZM462.868 103.297L428.338 103.42L428.322 84.5087H462.872V103.311L462.868 103.297ZM428.318 83.0629V81.4233L461.986 81.4099V80.3785H461.057V71.9532V71.6213H452.337V71.9532H452.306V80.3785H448.007V72.6438H447.162H444.242H443.435V80.3941H439.154L439.138 71.9599V71.6302H430.307V71.9577H430.265L430.281 80.3918H428.318V69.9215L462.848 69.9037L462.868 83.0295L428.318 83.0629ZM432.508 80.4653V72.2941H436.941V80.4676H432.504L432.508 80.4653ZM444.242 80.3874V73.448H447.162V80.3785L444.242 80.3874ZM454.554 80.4498V72.2295H459.009V80.4408H454.554V80.4498ZM462.848 68.6629V69.7054L428.318 69.7277V68.6829L462.848 68.6629ZM376.185 103.609V84.5421H389.003V103.574L376.185 103.609ZM390.322 80.7572V81.8421H388.713V80.7572H390.322ZM388.713 80.4408V79.5498H390.322V80.4408H388.713ZM390.322 82.2854V83.0896H388.713V82.2854H390.322ZM390.614 103.556H389.585V84.5287H390.618V103.556H390.614ZM390.322 69.4136V69.7344V78.7121H387.974V83.0896H376.183L376.151 55.6619L412.869 55.6396L412.895 83.0718H401.171V79.5498H401.218V78.7032H399.057V69.7255H399.041V69.4069L390.322 69.4136ZM399.052 81.8287V80.7349H400.434V81.8287H399.052ZM400.434 82.2743V83.0785H399.052V82.2765L400.434 82.2743ZM399.052 80.4297V79.5498H400.434V80.4408H399.052V80.4297ZM394.88 81.8243V80.7505H396.782V81.8287H394.882L394.88 81.8243ZM396.78 82.2698V83.0807H394.88V82.2765H396.782L396.78 82.2698ZM394.869 80.4252V79.5498H396.782V80.4408H394.871L394.869 80.4252ZM392.538 78.7032V70.1265H396.771V78.7032H392.538ZM392.538 81.822V80.7505H394.481V81.8287H392.55L392.538 81.822ZM394.481 82.2676V83.0785H392.55V82.2765H394.492L394.481 82.2676ZM392.55 80.4408V79.5498H394.492V80.4408H392.55ZM391.131 94.4755V93.1812H391.153V94.4755H391.131ZM391.153 95.8344V97.0908H391.131V95.8344H391.153ZM391.131 91.8401V90.7574H391.153V91.8401H391.131ZM391.168 103.547H391.131V101.107H391.168V103.547ZM391.168 99.7396H391.131V98.4542H391.168V99.7396ZM398.257 90.3653H391.128V89.3517H398.257V90.3698V90.3653ZM398.257 88.8483H396.945C396.876 88.3192 396.599 87.8393 396.176 87.5148C395.752 87.1904 395.217 87.0481 394.688 87.1196C393.594 86.99 392.597 87.7577 392.443 88.8483H391.142V88.748C391.488 88.0779 391.94 87.4673 392.478 86.9391C393.087 86.426 393.861 86.1513 394.657 86.1661C394.663 86.1629 394.671 86.1629 394.677 86.1661C394.7 86.1629 394.723 86.1629 394.746 86.1661C395.533 86.1556 396.298 86.4302 396.898 86.9391C397.435 87.4644 397.892 88.0647 398.257 88.7213V88.8483ZM398.257 87.8324C397.962 87.3984 397.618 86.9993 397.232 86.6428C396.55 85.9866 395.621 85.6506 394.677 85.7183C393.742 85.651 392.822 85.9875 392.151 86.6428C391.752 86.994 391.408 87.4033 391.131 87.8569V84.5265L398.259 84.5131V87.8302L398.257 87.8324ZM398.841 103.518V84.5154H399.859L399.881 103.518H398.832H398.841ZM400.445 103.518V84.5154H412.92L412.936 103.462L400.445 103.518ZM414.134 103.467V84.5309H427.055L427.077 103.438L414.134 103.467ZM427.037 55.6396V83.0718H414.116L414.101 55.6396H427.021H427.037ZM391.249 42.5896C391.509 41.8916 391.902 41.2502 392.405 40.7005L394.615 40.6448L396.802 40.7005C397.301 41.2474 397.691 41.8849 397.95 42.5785C398.059 43.1665 398.119 43.7626 398.13 44.3606C396.877 43.606 395.72 42.7032 394.684 41.6718C393.601 42.7514 392.388 43.6914 391.073 44.4698C391.069 43.8385 391.125 43.2082 391.24 42.5874L391.249 42.5896ZM385.234 49.8609C388.569 48.2194 391.732 46.2484 394.675 43.9775C397.651 46.2535 400.85 48.2218 404.223 49.852C407.85 51.4604 411.891 52.9463 414.172 53.7928L375.274 53.8106C377.586 52.9574 381.649 51.4804 385.227 49.8587L385.234 49.8609ZM361.981 103.665L361.965 84.5399H374.933L374.951 103.609L361.981 103.665ZM374.917 55.6619L374.933 83.0896L361.965 83.1052L361.95 55.6797L374.917 55.6619ZM360.729 103.665L326.235 103.787V84.5599L360.718 84.5399L360.729 103.665ZM326.226 68.8322L360.713 68.821V69.7611L326.226 69.7745V68.8322ZM360.713 69.9706V80.4408H358.806V72.0468H358.78V71.7171L349.944 71.7349V80.4408H345.935V72.6861H345.099H341.312L341.332 80.4386H337.371V72.0713H337.34V71.7527H328.567V72.078H328.536V80.4408H326.977V81.4611L360.7 81.4455V83.1141L326.217 83.1364V69.9928L360.713 69.9706ZM356.641 80.5545H352.159V72.3319H356.63L356.641 80.5545ZM345.099 73.4903V80.4408H342.156V73.497L345.099 73.4903ZM335.094 80.501H330.773V72.4099H335.094V80.501ZM458.653 98.2359H460.881V89.1022H460.865V88.7681H452.15V89.1022H452.13V98.2359H458.66H458.653ZM454.269 89.3874H458.771V97.5943H454.278L454.269 89.3874ZM443.732 98.2626V98.2403H447.989V98.2515H450.29V89.1178H450.272V88.777L441.47 88.7926V89.129H441.437V98.2626H443.72H443.732ZM443.651 89.4832H448.033V97.6054H443.642V89.4765L443.651 89.4832ZM416.29 71.8842V72.225H416.275V81.3765H418.594H425.103V72.1983V71.8641H416.299L416.29 71.8842ZM422.838 80.6413H418.456V72.6215H422.847V80.6413H422.838ZM425.103 88.8705H416.306V89.1958H416.275V98.3295H418.596H422.829H425.108L425.09 89.1958V88.8572L425.103 88.8705ZM422.842 97.5809H418.467V89.5946H422.842V97.572V97.5809ZM249.191 187.262V178.144C249.172 178.049 249.2 177.95 249.268 177.879C249.336 177.809 249.434 177.776 249.53 177.792H250.49V177.075H244.818V177.803H245.801C246.509 177.803 246.629 177.897 246.634 180.784V189.884C246.659 189.979 246.634 190.081 246.567 190.153C246.5 190.225 246.401 190.257 246.304 190.239H245.302V190.952H250.969V190.239H250.033C249.34 190.241 249.191 190.152 249.191 187.249V187.262ZM257.708 179.911C257.779 179.205 258.13 178.558 258.683 178.115C259.236 177.671 259.944 177.468 260.648 177.552C261.647 177.445 262.614 177.938 263.114 178.808C263.146 179.004 263.184 179.189 263.415 179.189C263.499 179.203 263.585 179.176 263.645 179.116C263.705 179.056 263.732 178.97 263.718 178.886C263.718 178.523 263.634 177.643 263.611 177.077C262.758 176.786 261.86 176.646 260.958 176.665C258.483 176.665 255.721 178.031 255.721 180.675C255.721 185.667 262.849 184.017 262.849 187.719C262.786 188.543 262.388 189.305 261.748 189.828C261.108 190.35 260.281 190.587 259.461 190.484C258.085 190.563 256.776 189.886 256.046 188.717C256.059 188.502 255.899 188.316 255.685 188.296C255.589 188.285 255.494 188.321 255.429 188.393C255.364 188.464 255.338 188.563 255.358 188.657C255.358 188.933 255.493 189.486 255.727 190.742C256.888 191.146 258.109 191.352 259.338 191.352C260.657 191.545 261.996 191.186 263.041 190.361C264.087 189.536 264.748 188.317 264.868 186.991C264.861 181.715 257.708 183.362 257.708 179.9V179.911ZM269.831 177.077C269.341 178.701 269.163 179.133 269.163 179.22C269.16 179.294 269.19 179.366 269.245 179.416C269.3 179.466 269.374 179.489 269.448 179.479C269.658 179.44 269.824 179.28 269.869 179.071C270.421 177.975 272.814 177.933 273.834 177.933H274.237L274.255 189.884C274.278 189.978 274.252 190.076 274.186 190.146C274.121 190.216 274.025 190.248 273.93 190.232H272.279V190.936L279.103 190.925V190.214H277.648C276.946 190.214 276.808 190.123 276.808 187.229V177.922H277.218C278.232 177.922 280.56 177.955 281.103 179.06C281.16 179.271 281.334 179.43 281.549 179.468C281.621 179.474 281.692 179.449 281.745 179.4C281.797 179.351 281.827 179.281 281.825 179.209C281.825 179.113 281.649 178.69 281.139 177.066H269.847L269.831 177.077ZM290.077 187.24V178.133C290.056 178.039 290.084 177.941 290.151 177.873C290.219 177.804 290.317 177.775 290.411 177.795H291.398V177.055H285.706V177.792H286.682C287.383 177.792 287.526 177.868 287.533 180.764V189.878C287.557 189.974 287.529 190.076 287.46 190.147C287.39 190.218 287.289 190.248 287.192 190.225H286.205V190.929H291.923V190.225H290.919C290.226 190.214 290.074 190.125 290.074 187.229L290.077 187.24ZM296.39 177.055C295.907 178.686 295.753 179.125 295.753 179.22C295.749 179.29 295.776 179.357 295.826 179.405C295.876 179.454 295.944 179.478 296.013 179.472C296.221 179.435 296.383 179.271 296.417 179.062C296.969 177.948 299.348 177.926 300.378 177.926H300.792V189.873C300.817 189.968 300.791 190.069 300.724 190.14C300.657 190.212 300.558 190.244 300.462 190.225H298.796V190.929H305.655V190.201L304.196 190.214C303.494 190.214 303.352 190.125 303.352 187.225V177.915H303.77C304.773 177.915 307.172 177.939 307.736 179.051C307.775 179.257 307.939 179.417 308.146 179.45C308.22 179.459 308.294 179.436 308.35 179.386C308.405 179.337 308.437 179.266 308.437 179.191C308.437 179.102 308.253 178.663 307.747 177.044H296.386L296.39 177.055ZM322.584 177.772H323.463C324.081 177.772 324.219 177.815 324.355 178.49C324.472 179.759 324.518 181.034 324.493 182.308V185.701C324.687 186.905 324.322 188.132 323.502 189.035C322.682 189.939 321.495 190.419 320.278 190.341C316.671 190.341 316.54 187.18 316.54 185.44V178.111C316.513 178.017 316.538 177.916 316.605 177.844C316.672 177.773 316.772 177.743 316.867 177.763H317.865V177.044H312.196V177.761H313.162C313.842 177.761 313.96 177.857 313.96 180.737V186.529C313.96 188.913 315.172 191.303 319.665 191.308C321.188 191.44 322.692 190.902 323.787 189.836C324.881 188.769 325.458 187.28 325.366 185.754V178.037C325.366 177.752 325.473 177.752 326.052 177.752H326.678V177.044H322.579V177.761L322.584 177.772ZM331.08 177.055C330.59 178.661 330.432 179.102 330.432 179.191C330.426 179.263 330.452 179.333 330.504 179.383C330.555 179.433 330.626 179.457 330.697 179.45C330.896 179.409 331.048 179.249 331.08 179.049C331.641 177.935 334.047 177.908 335.061 177.908H335.48L335.495 189.849C335.518 189.944 335.491 190.044 335.424 190.116C335.356 190.187 335.258 190.22 335.161 190.203H333.515V190.916H340.338V190.178H338.884C338.184 190.178 338.044 190.074 338.044 187.198V177.899H338.447C339.479 177.899 341.838 177.926 342.388 179.031C342.434 179.239 342.603 179.398 342.813 179.43C342.886 179.442 342.961 179.42 343.017 179.372C343.072 179.323 343.103 179.252 343.101 179.178C343.101 179.082 342.903 178.65 342.415 177.046H331.08V177.055ZM354.505 176.609C352.467 176.572 350.506 177.386 349.095 178.857C347.684 180.328 346.951 182.321 347.073 184.355C346.958 186.25 347.668 188.103 349.02 189.436C350.373 190.768 352.235 191.452 354.128 191.31C356.165 191.351 358.129 190.545 359.549 189.084C360.969 187.623 361.719 185.638 361.62 183.602C361.737 181.692 361.021 179.825 359.656 178.483C358.292 177.141 356.412 176.459 354.505 176.609ZM354.707 190.524C352.738 190.524 349.584 188.777 349.584 183.152C349.584 177.527 353.224 177.389 353.916 177.389C355.906 177.389 359.076 179.127 359.076 184.772C359.071 190.359 355.407 190.524 354.707 190.524ZM385.281 188.519C385.121 188.534 384.989 188.648 384.951 188.804C384.283 190.016 381.3 190.027 380.121 190.027H379.339C378.591 190.027 378.511 189.958 378.506 185.284V183.725H380.556C382.892 183.725 382.966 183.961 382.966 184.357V185.09H383.639V181.281H382.97V182.047C382.97 182.68 382.897 182.95 380.56 182.95H378.515V178.147C378.492 178.068 378.514 177.984 378.571 177.927C378.629 177.869 378.713 177.848 378.791 177.87H380.395C382.912 177.87 384.075 178.389 384.1 178.761C384.133 179.055 384.153 179.236 384.41 179.236C384.666 179.236 384.652 179.067 384.897 177.008H374.14V177.726H375.144C375.813 177.726 375.966 177.81 375.966 180.691V189.809C375.99 189.905 375.963 190.006 375.894 190.077C375.825 190.148 375.725 190.179 375.628 190.158H374.639V190.869H384.96C385.209 190.189 385.405 189.49 385.546 188.779C385.55 188.708 385.523 188.639 385.472 188.588C385.422 188.538 385.352 188.514 385.281 188.519ZM401.158 189.336C399.819 187.688 398.601 185.946 397.511 184.124C399.284 184.02 400.663 182.542 400.643 180.766C400.565 179.642 400.026 178.6 399.153 177.887C398.28 177.174 397.151 176.855 396.034 177.004H389.689V177.717H390.654C391.271 177.717 391.393 177.797 391.405 180.697V189.8C391.429 189.896 391.403 189.997 391.337 190.07C391.271 190.144 391.173 190.179 391.075 190.165H390.184V190.874L395.795 190.862V190.154H394.802C394.076 190.154 393.964 190.049 393.964 187.167V184.56H395.334C396.363 186.739 397.639 188.793 399.135 190.682C399.478 190.856 399.868 190.919 400.249 190.862H402.766V190.154C402.117 190.21 401.493 189.895 401.158 189.336ZM394.753 183.861H393.969L393.953 178.124C393.953 177.928 394.022 177.87 394.249 177.87H395.232C396.912 177.999 398.186 179.438 398.11 181.121C398.083 181.951 397.699 182.729 397.055 183.254C396.411 183.779 395.571 184.002 394.753 183.861ZM413.753 183.119V183.072C415.256 182.866 416.434 181.68 416.631 180.176C416.631 177.454 413.934 176.99 412.445 176.99H405.963V177.703H406.956C407.667 177.703 407.778 177.783 407.796 180.664L407.81 189.798C407.831 189.894 407.803 189.994 407.735 190.065C407.667 190.137 407.568 190.169 407.471 190.152H406.488V190.86H411.704C413.009 190.86 417.395 190.555 417.395 186.808C417.242 184.855 415.704 183.298 413.753 183.119ZM411.247 177.861C412.032 177.746 412.828 177.986 413.419 178.516C414.009 179.046 414.334 179.811 414.306 180.604C414.372 181.593 413.79 182.511 412.866 182.872C412.04 182.733 411.202 182.678 410.365 182.709V178.124C410.354 177.859 410.403 177.861 411.247 177.861ZM411.447 190C410.365 190 410.365 189.815 410.365 186.454V183.449H410.779C411.801 183.306 412.834 183.613 413.612 184.291C414.39 184.968 414.837 185.95 414.836 186.982C414.886 187.864 414.53 188.721 413.87 189.308C413.21 189.896 412.318 190.152 411.447 190ZM429.022 176.558C426.997 176.545 425.055 177.368 423.657 178.833C422.258 180.298 421.526 182.275 421.633 184.297C421.521 186.182 422.223 188.024 423.562 189.356C424.9 190.688 426.745 191.382 428.63 191.261C430.665 191.301 432.626 190.495 434.045 189.036C435.464 187.576 436.214 185.593 436.117 183.56C436.236 181.652 435.523 179.786 434.163 178.444C432.803 177.101 430.928 176.415 429.022 176.558ZM429.22 190.493C427.229 190.493 424.192 188.71 424.192 183.11C424.192 177.509 427.739 177.353 428.425 177.353C430.416 177.353 433.569 179.093 433.569 184.729C433.573 190.314 429.915 190.493 429.22 190.493ZM451.845 189.299C450.513 187.648 449.285 185.916 448.169 184.112C449.949 183.998 451.329 182.514 451.315 180.731C451.237 179.6 450.692 178.553 449.812 177.841C448.931 177.128 447.794 176.813 446.672 176.973H440.27V177.69H441.252C441.954 177.69 442.096 177.768 442.096 180.671L442.112 189.777C442.135 189.874 442.108 189.975 442.039 190.046C441.971 190.118 441.87 190.149 441.773 190.129H440.78V190.838H446.445V190.129H445.462C444.752 190.129 444.625 190.034 444.625 187.153V184.551H446.015C447.037 186.732 448.317 188.782 449.827 190.657C450.172 190.827 450.559 190.889 450.94 190.838H453.458V190.129C452.804 190.188 452.176 189.865 451.845 189.299ZM445.405 183.832H444.614V178.111C444.614 177.888 444.687 177.835 444.91 177.835H445.888C447.568 177.957 448.845 179.397 448.764 181.08C448.741 181.913 448.358 182.695 447.713 183.223C447.068 183.751 446.226 183.974 445.405 183.832ZM460.903 187.135V178.031C460.88 177.938 460.905 177.84 460.968 177.768C461.032 177.696 461.126 177.661 461.221 177.672H462.199V176.95H456.646V177.674H457.644C458.354 177.674 458.45 177.763 458.45 180.666L458.466 189.771C458.466 189.994 458.43 190.127 458.163 190.127H457.165V190.836H462.752V190.112H461.743C461.057 190.112 460.903 190.014 460.903 187.133V187.135ZM469.457 179.784C469.518 179.079 469.863 178.429 470.413 177.985C470.964 177.541 471.672 177.34 472.373 177.429C473.377 177.305 474.356 177.796 474.857 178.675C474.849 178.863 474.988 179.026 475.176 179.047C475.261 179.063 475.349 179.037 475.411 178.976C475.473 178.915 475.501 178.827 475.486 178.741C475.486 178.38 475.379 177.516 475.363 176.946C474.505 176.643 473.599 176.5 472.69 176.525C470.221 176.54 467.443 177.906 467.443 180.566C467.443 185.525 474.572 183.878 474.608 187.577C474.542 188.404 474.139 189.168 473.493 189.69C472.847 190.212 472.016 190.446 471.193 190.337C469.821 190.428 468.509 189.763 467.773 188.601C467.775 188.388 467.617 188.207 467.406 188.18C467.31 188.166 467.213 188.2 467.147 188.271C467.081 188.343 467.056 188.442 467.078 188.537C467.078 188.797 467.225 189.361 467.448 190.613C468.608 191.016 469.826 191.229 471.055 191.243C472.379 191.437 473.724 191.077 474.774 190.248C475.824 189.418 476.486 188.192 476.604 186.859C476.599 181.593 469.457 183.228 469.457 179.797V179.784ZM481.639 176.944C481.128 178.552 480.948 178.991 480.948 179.087C480.946 179.16 480.976 179.231 481.03 179.281C481.083 179.332 481.155 179.357 481.229 179.352C481.444 179.315 481.614 179.148 481.654 178.933C482.207 177.841 484.606 177.799 485.611 177.788H486.029V189.728C486.056 189.824 486.032 189.926 485.967 190C485.902 190.075 485.804 190.112 485.706 190.098H484.064V190.809H490.881V190.098H489.398C488.707 190.098 488.573 189.991 488.573 187.115L488.564 177.792H488.99C490.006 177.792 492.401 177.835 492.951 178.931C492.998 179.148 493.176 179.312 493.396 179.343C493.469 179.35 493.542 179.325 493.595 179.275C493.648 179.224 493.676 179.153 493.673 179.08C493.673 178.995 493.519 178.556 492.978 176.932L481.639 176.944ZM501.819 187.109V178.015C501.795 177.922 501.82 177.822 501.886 177.751C501.952 177.681 502.05 177.649 502.145 177.668H503.096V176.924H497.424V177.645H498.422C499.124 177.645 499.26 177.73 499.26 180.622V189.724C499.283 189.818 499.256 189.918 499.188 189.987C499.12 190.056 499.02 190.085 498.926 190.063H497.943V190.804H503.599V190.067H502.648C501.949 190.074 501.819 189.994 501.819 187.115V187.109ZM520.67 187.755C520.405 187.755 520.383 187.94 520.341 188.14C520.087 189.633 517.485 190.308 516.248 190.308C514.674 190.231 513.2 189.512 512.172 188.318C511.143 187.124 510.649 185.56 510.806 183.992C510.649 182.319 511.196 180.657 512.317 179.404C513.438 178.152 515.03 177.424 516.71 177.396C517.88 177.305 519.021 177.789 519.768 178.695C519.895 179.127 519.917 179.238 520.118 179.238C520.394 179.238 520.452 179.218 520.592 177.258C519.409 176.783 518.149 176.529 516.874 176.509C514.651 176.349 512.459 177.103 510.804 178.597C509.15 180.09 508.176 182.194 508.108 184.422C508.108 188.94 511.198 191.208 515.585 191.208C517.376 191.21 519.146 190.82 520.771 190.065C520.882 188.612 520.947 188.149 520.947 187.991C520.944 187.922 520.913 187.858 520.86 187.814C520.807 187.77 520.738 187.751 520.67 187.761V187.755ZM533.179 176.5C531.149 176.463 529.196 177.277 527.793 178.744C526.389 180.211 525.663 182.198 525.79 184.224C525.661 186.111 526.355 187.961 527.692 189.299C529.03 190.636 530.88 191.33 532.767 191.201C534.809 191.246 536.778 190.442 538.204 188.981C539.63 187.519 540.386 185.531 540.29 183.491C540.405 181.583 539.688 179.719 538.324 178.38C536.961 177.041 535.084 176.358 533.179 176.507V176.5ZM533.402 190.41C531.421 190.41 528.358 188.657 528.358 183.032C528.358 177.449 531.905 177.269 532.591 177.269C534.596 177.269 537.753 179.031 537.753 184.656C537.753 190.281 534.061 190.417 533.393 190.417L533.402 190.41ZM277.044 159.115H273.393C272.279 159.115 271.587 158.946 271.587 157.901C272.403 154.406 273.607 151.013 275.178 147.785L288.749 147.769L292.61 157.77C293.055 158.915 292.863 159.093 291.647 159.093H288.751V161.024H304.829V159.104H303.269C301.082 159.104 300.583 158.418 298.638 153.737C295.187 145.025 288.02 128.081 288.02 126.033C288.02 124.92 289.284 124.797 289.284 124.151C289.305 123.968 289.251 123.784 289.135 123.64C289.019 123.497 288.85 123.406 288.666 123.389C286.935 123.6 285.217 123.914 283.523 124.329C277.062 138.141 270.421 151.813 267.73 158.144C267.498 158.847 266.779 159.267 266.053 159.124H264.048V161.051H277.036V159.115H277.044ZM282.451 131.843L287.729 145.537H276.207C278.192 141.008 280.114 136.43 282.451 131.843ZM347.933 126.299H349.695V124.461L337.79 124.476V126.305H340.316C342.069 126.305 342.495 126.414 342.822 128.214C343.202 131.58 343.351 134.967 343.268 138.353V150.536L317.81 124.49H306.796V126.332H308.66C311.124 126.332 312.548 128.925 312.548 132.169L312.574 158.411C312.574 159.095 312.251 159.095 310.569 159.095H308.81V161.029H320.714V159.106H318.166C316.415 159.106 315.978 158.99 315.66 157.259C315.279 153.905 315.13 150.529 315.214 147.154V131.206L343.446 160.089C343.894 160.793 344.57 161.322 345.362 161.586C345.543 161.601 345.722 161.532 345.845 161.398C345.969 161.265 346.024 161.081 345.995 160.902L345.979 127.067C345.957 126.299 346.298 126.299 347.933 126.299ZM393.501 145.936H396.337V144.02H379.546V145.936H383.004C385.038 145.936 385.43 146.159 385.43 153.809V158.411C383.236 159.293 380.888 159.724 378.524 159.679C367.719 159.697 362.823 150.873 362.823 142.65C362.823 127.096 377.022 125.65 380.036 125.65C386.867 125.65 390.322 128.234 390.326 129.402C390.326 130.21 390.518 130.667 391.197 130.667C391.837 130.667 392.16 129.916 392.866 125.383C389.076 123.961 385.051 123.27 381.003 123.347C367.637 123.347 355.385 130.525 355.409 143.519C355.409 155.087 363.471 162.085 376.145 162.085C379.028 162.07 381.901 161.734 384.71 161.082C393.376 159.282 393.376 158.465 393.376 157.963C393.376 157.139 392.485 157.605 392.485 154.86V146.745C392.407 146.116 392.817 145.936 393.501 145.936ZM404.143 159.062H401.247V160.971H431.216C431.927 159.198 432.485 157.368 432.883 155.5C432.884 155.312 432.804 155.132 432.664 155.008C432.523 154.883 432.336 154.825 432.15 154.849C431.721 154.873 431.35 155.158 431.216 155.566C429.211 158.75 420.637 158.75 417.166 158.75H414.938C412.8 158.75 412.532 158.585 412.532 146.288L412.521 142.055H418.458C425.212 142.055 425.426 142.681 425.431 143.673V145.771H427.342V135.628H425.426V137.662C425.426 139.349 425.204 140.048 418.458 140.048H412.521V127.361C412.521 126.78 412.724 126.608 413.361 126.608H417.941C425.212 126.608 428.545 127.994 428.614 128.967C428.699 129.778 428.779 130.25 429.619 130.25C430.247 130.25 430.314 129.841 431.02 124.414L399.767 124.434V126.263H402.65C404.72 126.263 405.087 126.497 405.087 134.162V158.186C405.087 158.752 404.969 159.062 404.134 159.062H404.143ZM441.29 159.605H438.394V161.499L468.359 161.483C469.083 159.723 469.648 157.902 470.048 156.041C470.055 155.851 469.981 155.666 469.844 155.534C469.707 155.401 469.52 155.334 469.33 155.348C468.88 155.365 468.49 155.666 468.359 156.097C466.372 159.255 457.791 159.255 454.324 159.255H452.097C449.909 159.255 449.668 159.077 449.664 146.823L449.633 127.731C449.584 127.163 449.706 126.809 450.524 126.809H453.42V124.924H436.935V126.804H439.777C441.836 126.804 442.228 127.027 442.228 134.679V158.707C442.286 158.967 442.205 159.238 442.013 159.422C441.821 159.605 441.546 159.675 441.29 159.605ZM477.731 134.129L477.756 158.155C477.756 158.714 477.629 159.015 476.795 159.015H473.917V160.94H490.5L490.489 159.019H487.644C485.584 159.019 485.212 158.823 485.212 151.222L485.185 127.176C485.123 126.91 485.205 126.632 485.4 126.441C485.596 126.251 485.877 126.176 486.141 126.245H489.01V124.392H472.463V126.218H475.314C477.359 126.227 477.731 126.454 477.731 134.129ZM517.289 162.018C522.454 162.035 527.57 161.025 532.341 159.046C532.649 155.226 532.82 154.038 532.82 153.575C532.808 153.38 532.715 153.198 532.564 153.074C532.413 152.95 532.217 152.894 532.023 152.92C531.236 152.92 531.19 153.448 531.056 153.976C530.265 157.89 522.767 159.632 519.173 159.632C508.946 159.643 503.357 151.561 503.357 142.944C503.137 138.315 504.865 133.805 508.121 130.507C511.377 127.209 515.865 125.425 520.497 125.586C524.406 125.586 529.013 127.308 529.45 128.983C529.768 130.146 529.842 130.431 530.421 130.431C531.223 130.431 531.377 130.38 531.807 125.251C528.347 124.007 524.706 123.34 521.029 123.278C507.589 123.278 495.566 131.338 495.584 144.031C495.577 156.097 504.519 162.007 517.289 162.007V162.018ZM576.72 158.966C574.512 158.966 574.013 158.271 572.091 153.604C568.555 144.864 561.513 127.938 561.505 125.884C561.505 124.77 562.757 124.701 562.757 124C562.776 123.818 562.722 123.636 562.606 123.495C562.491 123.353 562.323 123.264 562.142 123.247C560.415 123.448 558.704 123.762 557.018 124.187C550.486 137.999 543.85 151.661 541.157 157.983C540.941 158.696 540.219 159.127 539.49 158.979H537.441V160.897H550.439V158.979H546.808C545.726 158.979 545.015 158.848 545.015 157.767C545.834 154.282 547.024 150.894 548.566 147.662L562.217 147.649L565.949 157.636C566.394 158.774 566.201 158.973 564.98 158.973L562.217 158.984V160.897L578.221 160.882V158.957H576.733L576.72 158.966ZM549.604 145.383C551.553 140.848 553.576 136.25 555.933 131.685L561.193 145.383H549.609H549.604ZM247.939 155.348C247.959 155.154 247.893 154.96 247.758 154.819C247.623 154.677 247.433 154.602 247.237 154.613C246.781 154.65 246.395 154.967 246.271 155.408C244.326 158.908 235.629 158.912 232.189 158.912L229.948 158.924C227.772 158.924 227.531 158.734 227.522 145.203V124.262C227.442 123.621 227.573 123.242 228.387 123.242H231.283V121.157H214.822V123.24H217.696C219.754 123.24 220.146 123.501 220.146 131.837L220.162 158.286C220.232 158.56 220.152 158.85 219.953 159.05C219.754 159.249 219.464 159.329 219.19 159.26H216.308V161.354H246.266C246.982 159.399 247.541 157.391 247.939 155.348ZM257.432 140.919C258.132 140.58 258.573 139.868 258.563 139.09L259.768 125.37C260.156 124.321 259.806 123.143 258.91 122.476C258.013 121.809 256.784 121.813 255.892 122.486C255 123.159 254.658 124.34 255.052 125.385L256.269 139.09C256.265 139.875 256.719 140.59 257.432 140.919Z" fill="#005030"/>
</svg>
