<svg width="787" height="358" viewBox="0 0 787 358" fill="none" xmlns="http://www.w3.org/2000/svg">
<path fill-rule="evenodd" clip-rule="evenodd" d="M786.098 127.083C721.433 127.97 653.384 150.751 614.066 182.278C586.126 204.686 576.379 226.612 576.285 226.846L578.164 224.667C613.958 182.761 655.2 165.425 686.555 155.186C734.86 139.407 782.854 139.298 782.854 139.298L786.098 127.083Z" fill="white"/>
<path fill-rule="evenodd" clip-rule="evenodd" d="M137.36 264.99C141.365 262.407 146.394 261.489 149.561 261.489C154.14 261.489 158.02 265.519 158.02 270.312V315.907H166.713V270.655C166.713 260.649 159.014 252.495 149.561 252.495H148.459C145.572 252.495 142.017 252.821 137.36 255.062V229.931H128.544V315.907H137.36V264.99Z" fill="white"/>
<path fill-rule="evenodd" clip-rule="evenodd" d="M179.919 315.905H189.108V253.738H179.919V315.905Z" fill="white"/>
<path fill-rule="evenodd" clip-rule="evenodd" d="M179.919 242.082H189.108V229.944H179.919V242.082Z" fill="white"/>
<path fill-rule="evenodd" clip-rule="evenodd" d="M210.675 270.161C210.675 264.528 215.751 261.478 220.532 261.478C224.785 261.478 231.909 262.599 231.909 270.161V275.188C231.909 280.136 227.951 284.478 223.481 284.478L210.675 284.353V270.161ZM221.897 317.001C223.636 317.001 239.593 313.826 240.26 313.702L240.85 313.562L238.63 304.381L238.072 304.521C231.956 305.968 222.612 308.131 221.897 308.162C216.434 308.162 211.699 304.318 210.675 299.043V293.643C212.786 293.861 214.788 293.923 216.915 293.923C232.328 293.923 240.835 287.092 240.835 274.69V270.768C240.835 260.529 233.089 252.499 223.217 252.499H219.212C209.325 252.499 201.595 260.529 201.595 270.768V297.036C201.595 308.224 210.489 317.001 221.897 317.001Z" fill="white"/>
<path fill-rule="evenodd" clip-rule="evenodd" d="M259.823 270.423C259.823 265.474 263.61 261.475 268.267 261.475C270.626 261.475 275.749 262.456 280.343 265.117V304.782C278.853 306.541 271.17 308.174 268.127 308.174C263.642 308.174 259.823 304.113 259.823 299.336V270.423ZM268.267 317.013C270.89 317.013 277.161 316.329 282.377 313.823L286.149 317.589L292.466 311.411L289.16 308.252V230.042H280.468V255.251C276.587 253.492 272.489 252.636 268.267 252.636C258.814 252.636 251.131 260.775 251.131 270.765V298.853C251.131 309.03 258.659 317.013 268.267 317.013Z" fill="white"/>
<path fill-rule="evenodd" clip-rule="evenodd" d="M302.761 315.905H311.934V253.738H302.761V315.905Z" fill="white"/>
<path fill-rule="evenodd" clip-rule="evenodd" d="M302.761 242.082H311.934V229.944H302.761V242.082Z" fill="white"/>
<path fill-rule="evenodd" clip-rule="evenodd" d="M325.642 315.904H334.443V264.988C337.268 263.152 342.841 261.486 345.309 261.486C350.276 261.486 355.802 265.019 355.802 269.812V315.904H364.758V276.145C364.758 266.419 369.073 261.486 377.579 261.486C385.511 261.486 386.132 269.812 386.132 272.364V315.904H395.088V272.364C395.088 264.381 390.509 252.492 377.952 252.492C372.876 252.492 365.891 253.893 360.831 260.351C357.835 255.48 351.719 252.492 344.579 252.492C340.869 252.492 336.756 253.659 332.41 255.916L328.654 252.025L322.32 258.203L325.642 261.378V315.904Z" fill="white"/>
<path fill-rule="evenodd" clip-rule="evenodd" d="M408.139 242.082H417.359V229.944H408.139V242.082Z" fill="white"/>
<path fill-rule="evenodd" clip-rule="evenodd" d="M408.139 315.905H417.359V253.738H408.139V315.905Z" fill="white"/>
<path fill-rule="evenodd" clip-rule="evenodd" d="M506.161 242.082H515.35V229.944H506.161V242.082Z" fill="white"/>
<path fill-rule="evenodd" clip-rule="evenodd" d="M684.985 224.427L670.364 201.054H653.382L669.944 224.427H684.985Z" fill="white"/>
<path fill-rule="evenodd" clip-rule="evenodd" d="M588.846 293.732C588.846 299.77 584.143 304.688 578.415 304.688C575.698 304.688 567.891 302.914 563.032 300.299V264.197C568.294 258.875 572.656 253.958 576.288 249.554V249.71C577.778 247.671 579.284 245.726 580.774 243.765L581.38 243.983C585.772 245.353 588.846 249.585 588.846 254.331V293.732ZM463.225 270.422C463.225 265.489 467.028 261.49 471.685 261.49C474.059 261.49 479.166 262.454 483.745 265.131V304.765C482.255 306.524 474.603 308.158 471.545 308.158C467.028 308.158 463.225 304.127 463.225 299.35V270.422ZM614.023 200.474C599.075 212.207 588.722 222.602 581.054 231.394C579.595 233.075 578.229 234.662 576.956 236.218V236.063C575.357 238.288 573.712 240.451 572.066 242.598C568.543 247.158 564.942 251.484 561.294 255.576C557.895 259.404 554.418 263.03 550.941 266.469C539.346 277.829 527.347 287.072 515.364 294.339V253.74H506.175V299.521C501.611 301.902 497.079 304.018 492.577 305.87V230.056H483.885V255.25C479.989 253.507 475.891 252.651 471.685 252.651C462.232 252.651 454.548 260.774 454.548 270.78V298.837C454.548 305.761 458.087 311.861 463.784 314.974C448.417 319.222 433.5 321.976 384.202 322.038C363.65 322.054 129.126 322.178 129.126 322.178V330.55L395.797 330.659C433.795 330.659 463.939 323.843 487.502 314.74C489.97 313.76 492.329 312.795 494.657 311.815C498.926 309.963 502.931 308.064 506.734 306.135C509.528 304.688 512.197 303.272 514.774 301.793C524.646 296.144 532.702 290.418 539.206 285.314C542.838 282.466 546.113 279.727 549.233 277.066V357.113H562.846V315.658C567.829 317.697 573.044 318.708 578.415 318.708C591.671 318.708 602.505 307.286 602.505 293.235V254.985C602.505 245.633 597.74 237.167 590.119 232.701C618.555 201.33 652.657 184.119 680.83 176.183C732.301 161.68 778.014 161.244 778.014 161.244L781.227 149.138C702.608 148.188 637.678 179.015 614.023 200.474Z" fill="white"/>
<path fill-rule="evenodd" clip-rule="evenodd" d="M617.782 317.057H632.093V231.159H617.782V317.057Z" fill="white"/>
<path fill-rule="evenodd" clip-rule="evenodd" d="M702.8 231.166H688.986V300.18C685.136 302.452 678.71 304.693 673.448 304.693C667.767 304.693 662.024 299.9 662.024 290.766V231.166H648.038V285.802C648.038 291.855 648.038 297.581 651.003 303.51C654.977 312.816 663.405 318.371 673.619 318.371C678.291 318.371 685.866 317.235 692.494 314.123L697.787 319.429L707.674 309.501L702.8 305.004V231.166Z" fill="white"/>
<path fill-rule="evenodd" clip-rule="evenodd" d="M617.782 224.453H632.093V209.654H617.782V224.453Z" fill="white"/>
<path fill-rule="evenodd" clip-rule="evenodd" d="M69.2754 201.487C49.7951 201.487 33.2174 207.944 19.9615 220.642C6.70557 233.325 0 249.182 0 267.793C0 279.495 2.94921 290.543 8.72345 300.612C14.4977 310.68 22.445 318.678 32.3792 324.42C42.2513 330.131 54.5604 333.041 68.9028 333.041C86.1014 333.041 101.546 329.524 114.802 322.568V307.381C100.273 316.002 85.2321 320.343 70.036 320.343C54.0637 320.343 40.7301 315.379 30.4234 305.56C20.1012 295.725 14.8547 283.027 14.8547 267.793C14.8547 252.683 20.1788 239.923 30.6873 229.87C41.1337 219.818 54.4362 214.729 70.2222 214.729C84.2542 214.729 98.7364 218.666 113.374 226.416V211.648C97.2308 204.894 82.4071 201.487 69.2754 201.487Z" fill="white"/>
<g clip-path="url(#clip0_2002_564)">
<mask id="mask0_2002_564" style="mask-type:luminance" maskUnits="userSpaceOnUse" x="125" y="202" width="12" height="16">
<path d="M125 202.249H136.873V218H125V202.249Z" fill="white"/>
</mask>
<g mask="url(#mask0_2002_564)">
<path fill-rule="evenodd" clip-rule="evenodd" d="M133.749 211.464C133.803 212.453 133.543 213.433 133.005 214.264C132.492 214.902 131.693 215.242 130.876 215.168C130.214 215.204 129.566 214.98 129.068 214.541C128.54 214.009 128.145 213.36 127.916 212.645L125 213.651C125.194 214.289 125.462 214.901 125.802 215.474C126.123 215.995 126.533 216.453 127.012 216.83C127.518 217.22 128.091 217.511 128.704 217.691C129.426 217.893 130.171 217.991 130.92 217.982C132.581 218.113 134.217 217.511 135.397 216.334C136.461 214.965 136.98 213.252 136.855 211.522V202.249H133.749V211.464Z" fill="white"/>
</g>
<path fill-rule="evenodd" clip-rule="evenodd" d="M148.068 211.96L149.351 208.402L149.555 207.819C149.643 207.542 149.745 207.265 149.847 206.973C149.949 206.682 150.051 206.404 150.139 206.113C150.226 205.821 150.357 205.602 150.357 205.442H150.387C150.445 205.602 150.489 205.807 150.576 206.04C150.664 206.273 150.737 206.521 150.824 206.754L151.072 207.454L151.247 207.979L152.705 211.96H148.068ZM148.622 202.292L142.79 217.72H146.056L147.193 214.454H153.551L154.659 217.72H158.013L152.18 202.292H148.622Z" fill="white"/>
<path fill-rule="evenodd" clip-rule="evenodd" d="M172.696 208.956C172.224 209.342 171.63 209.55 171.019 209.539H167.607V204.99H170.815C171.454 204.965 172.082 205.16 172.594 205.544C173.09 205.973 173.351 206.611 173.294 207.265C173.35 207.889 173.132 208.506 172.696 208.956ZM175.029 203.503C174.537 203.081 173.961 202.768 173.338 202.584C172.641 202.387 171.919 202.288 171.194 202.292H164.501V217.72H167.607V212.252H171.019C171.77 212.263 172.518 212.155 173.236 211.931C173.877 211.744 174.474 211.426 174.986 210.998C175.483 210.569 175.872 210.029 176.123 209.423C176.399 208.713 176.533 207.954 176.517 207.192C176.537 206.458 176.407 205.729 176.138 205.048C175.897 204.452 175.518 203.921 175.029 203.503Z" fill="white"/>
<path fill-rule="evenodd" clip-rule="evenodd" d="M186.083 211.96L187.366 208.402L187.57 207.819C187.658 207.542 187.745 207.265 187.847 206.973L188.153 206.113C188.241 205.821 188.357 205.602 188.357 205.442H188.372C188.416 205.602 188.474 205.807 188.562 206.04C188.649 206.273 188.722 206.507 188.81 206.754C188.897 207.002 188.97 207.236 189.043 207.454C189.116 207.673 189.232 207.848 189.232 207.979L190.691 211.96H186.083ZM186.637 202.292L180.804 217.72H184.07L185.208 214.454H191.565L192.717 217.72H196.027L190.195 202.292H186.637Z" fill="white"/>
<path fill-rule="evenodd" clip-rule="evenodd" d="M212.023 212.368L209.399 208.242L205.418 202.292H202.501V217.662H205.797V207.454L208.115 211.085L212.49 217.72H215.129V202.292H212.023V212.368Z" fill="white"/>
<path fill-rule="evenodd" clip-rule="evenodd" d="M226.08 210.998H231.446V208.271H226.08V204.99H233.823V202.292H222.945V217.72H234.085V214.993H226.08V210.998Z" fill="white"/>
<path fill-rule="evenodd" clip-rule="evenodd" d="M250.504 209.787C249.949 209.42 249.345 209.131 248.711 208.927C248.055 208.708 247.457 208.519 246.888 208.358L245.838 208.038C245.534 207.931 245.236 207.804 244.949 207.658C244.711 207.529 244.498 207.355 244.322 207.148C244.161 206.94 244.078 206.681 244.088 206.419C244.083 205.98 244.277 205.563 244.613 205.282C245.106 204.924 245.713 204.758 246.319 204.815C246.99 204.814 247.657 204.926 248.288 205.15C248.981 205.404 249.622 205.779 250.184 206.259L251.977 203.984C251.252 203.351 250.417 202.857 249.513 202.526C248.548 202.186 247.531 202.018 246.509 202.03C245.803 202.027 245.102 202.126 244.424 202.321C243.782 202.507 243.179 202.809 242.645 203.211C242.136 203.599 241.722 204.098 241.435 204.669C241.123 205.257 240.968 205.914 240.983 206.579C240.965 207.196 241.085 207.809 241.333 208.373C241.554 208.87 241.895 209.306 242.324 209.641C242.811 210.024 243.352 210.333 243.928 210.56C244.57 210.808 245.299 211.056 246.13 211.289C246.973 211.489 247.786 211.798 248.55 212.208C248.988 212.453 249.256 212.917 249.25 213.418C249.25 214.628 248.346 215.226 246.553 215.226C245.818 215.218 245.092 215.073 244.409 214.803C243.661 214.507 242.974 214.079 242.382 213.535L240.487 215.766C241.249 216.488 242.153 217.043 243.141 217.399C244.198 217.798 245.321 218.001 246.451 217.997C247.292 218.007 248.131 217.903 248.944 217.691C249.632 217.511 250.28 217.205 250.854 216.787C251.371 216.403 251.791 215.903 252.079 215.328C252.369 214.697 252.514 214.01 252.502 213.316C252.525 212.565 252.339 211.823 251.963 211.173C251.579 210.614 251.082 210.142 250.504 209.787Z" fill="white"/>
<path fill-rule="evenodd" clip-rule="evenodd" d="M262.432 210.998H267.9V208.271H262.432V204.99H270.189V202.292H259.312V217.72H270.452V214.993H262.432V210.998Z" fill="white"/>
<path fill-rule="evenodd" clip-rule="evenodd" d="M286.71 204.99H291.231V217.72H294.337V204.99H298.842V202.292H286.71V204.99Z" fill="white"/>
<path fill-rule="evenodd" clip-rule="evenodd" d="M314.868 208.388H308.495V202.292H305.346V217.72H308.495V211.129H314.868V217.72H318.017V202.292H314.868V208.388Z" fill="white"/>
<path fill-rule="evenodd" clip-rule="evenodd" d="M328.91 210.998H334.334V208.271H328.91V204.99H336.667V202.292H325.789V217.72H336.929V214.993H328.91V210.998Z" fill="white"/>
<path fill-rule="evenodd" clip-rule="evenodd" d="M352.065 208.752C351.555 209.147 350.918 209.344 350.272 209.306H346.86V204.932L350.286 204.917C350.912 204.889 351.527 205.086 352.022 205.471C352.482 205.872 352.73 206.466 352.692 207.075C352.735 207.698 352.506 208.309 352.065 208.752ZM355.113 210.006C355.684 209.144 355.966 208.122 355.915 207.09C355.915 206.349 355.766 205.614 355.477 204.932C355.224 204.367 354.845 203.869 354.369 203.473C353.869 203.069 353.295 202.768 352.678 202.584C351.995 202.386 351.288 202.288 350.578 202.292H343.725V217.676H346.86V212.018H349.98L352.474 217.676H355.769L352.926 211.581C353.805 211.305 354.573 210.753 355.113 210.006Z" fill="white"/>
<path fill-rule="evenodd" clip-rule="evenodd" d="M372.553 207.294L370.642 211.464H370.526L368.513 207.09L366.37 202.292H363.235V217.72H366.326V208.738L368.193 212.748L370.584 217.72L373.18 212.412L374.9 208.738V217.72L378.006 217.793V202.365H374.9L372.553 207.294Z" fill="white"/>
<path fill-rule="evenodd" clip-rule="evenodd" d="M389.861 211.96L391.144 208.402L391.348 207.819C391.436 207.542 391.523 207.265 391.625 206.973L391.932 206.113C392.019 205.821 392.136 205.602 392.136 205.442H392.15C392.194 205.602 392.267 205.807 392.34 206.04C392.413 206.273 392.5 206.507 392.588 206.754C392.675 207.002 392.748 207.236 392.821 207.454L392.996 207.979L394.454 211.96H389.861ZM390.386 202.292L384.553 217.72H387.79L388.928 214.454H395.344L396.408 217.72H399.776L393.944 202.292H390.386Z" fill="white"/>
<path fill-rule="evenodd" clip-rule="evenodd" d="M409.415 202.292H406.294V217.72H416.954V214.993H409.415V202.292Z" fill="white"/>
<path fill-rule="evenodd" clip-rule="evenodd" d="M443.492 207.236L441.582 211.406H441.451L439.439 207.032L437.193 202.292H434.058V217.72H437.149V208.738L439.03 212.748L441.422 217.72L444.061 212.412L445.796 208.738V217.72L448.946 217.734V202.307H445.84L443.492 207.236Z" fill="white"/>
<mask id="mask1_2002_564" style="mask-type:luminance" maskUnits="userSpaceOnUse" x="125" y="0" width="451" height="218">
<path d="M125 218H575.372V0H125V218Z" fill="white"/>
</mask>
<g mask="url(#mask1_2002_564)">
<path fill-rule="evenodd" clip-rule="evenodd" d="M456.878 217.72H460.057V202.292H456.878V217.72Z" fill="white"/>
</g>
<mask id="mask2_2002_564" style="mask-type:luminance" maskUnits="userSpaceOnUse" x="125" y="0" width="451" height="218">
<path d="M125 218H575.372V0H125V218Z" fill="white"/>
</mask>
<g mask="url(#mask2_2002_564)">
<path fill-rule="evenodd" clip-rule="evenodd" d="M477.57 212.368H477.497L474.858 208.242L470.877 202.292H467.96V217.662H471.183V207.454L473.501 211.085L477.876 217.72H480.676V202.292H477.57V212.368Z" fill="white"/>
</g>
<mask id="mask3_2002_564" style="mask-type:luminance" maskUnits="userSpaceOnUse" x="125" y="0" width="451" height="218">
<path d="M125 218H575.372V0H125V218Z" fill="white"/>
</mask>
<g mask="url(#mask3_2002_564)">
<path fill-rule="evenodd" clip-rule="evenodd" d="M491.524 210.998H496.963V208.271H491.524V204.99H499.282V202.292H488.404V217.72H499.544V214.993H491.524V210.998Z" fill="white"/>
</g>
<mask id="mask4_2002_564" style="mask-type:luminance" maskUnits="userSpaceOnUse" x="125" y="0" width="451" height="218">
<path d="M125 218H575.372V0H125V218Z" fill="white"/>
</mask>
<g mask="url(#mask4_2002_564)">
<path fill-rule="evenodd" clip-rule="evenodd" d="M514.666 208.752C514.155 209.147 513.517 209.344 512.872 209.306H509.475V204.932L512.901 204.917C513.522 204.892 514.132 205.089 514.622 205.471C515.088 205.869 515.336 206.464 515.293 207.075C515.335 207.698 515.106 208.309 514.666 208.752ZM517.728 210.006C518.299 209.144 518.581 208.122 518.53 207.09C518.546 206.35 518.407 205.614 518.121 204.932C517.868 204.367 517.489 203.869 517.013 203.473C516.513 203.069 515.939 202.768 515.322 202.584C514.639 202.386 513.932 202.288 513.222 202.292H506.369V217.676H509.475V212.018H512.595L515.088 217.676H518.384L515.54 211.581C516.42 211.305 517.188 210.753 517.728 210.006Z" fill="white"/>
</g>
<mask id="mask5_2002_564" style="mask-type:luminance" maskUnits="userSpaceOnUse" x="125" y="0" width="451" height="218">
<path d="M125 218H575.372V0H125V218Z" fill="white"/>
</mask>
<g mask="url(#mask5_2002_564)">
<path fill-rule="evenodd" clip-rule="evenodd" d="M530.034 211.96L531.318 208.402C531.396 208.211 531.463 208.017 531.522 207.819C531.609 207.542 531.711 207.265 531.813 206.973C531.915 206.682 532.018 206.404 532.105 206.113C532.193 205.821 532.324 205.602 532.324 205.442C532.382 205.602 532.44 205.792 532.513 206.04L532.776 206.754C532.849 207.002 532.936 207.236 533.009 207.454L533.184 207.979L534.642 211.96H530.034ZM530.589 202.292L524.756 217.72H528.022L529.16 214.454H535.517L536.596 217.72H539.965L534.132 202.292H530.589Z" fill="white"/>
</g>
<mask id="mask6_2002_564" style="mask-type:luminance" maskUnits="userSpaceOnUse" x="125" y="0" width="451" height="218">
<path d="M125 218H575.372V0H125V218Z" fill="white"/>
</mask>
<g mask="url(#mask6_2002_564)">
<path fill-rule="evenodd" clip-rule="evenodd" d="M549.545 202.292H546.41V217.72H557.083V214.993H549.545V202.292Z" fill="white"/>
</g>
<mask id="mask7_2002_564" style="mask-type:luminance" maskUnits="userSpaceOnUse" x="125" y="0" width="451" height="218">
<path d="M125 218H575.372V0H125V218Z" fill="white"/>
</mask>
<g mask="url(#mask7_2002_564)">
<path fill-rule="evenodd" clip-rule="evenodd" d="M574.829 211.172C574.472 210.621 574.005 210.15 573.459 209.787C572.9 209.417 572.291 209.127 571.65 208.927C571.009 208.708 570.396 208.519 569.828 208.358L568.792 208.037C568.483 207.931 568.181 207.804 567.888 207.658C567.652 207.524 567.441 207.352 567.261 207.148C567.107 206.936 567.025 206.681 567.028 206.419C567.027 205.977 567.225 205.56 567.568 205.281C568.055 204.924 568.657 204.758 569.259 204.815C569.934 204.81 570.605 204.924 571.242 205.15C571.932 205.401 572.569 205.776 573.123 206.258L574.931 203.984C574.201 203.351 573.361 202.856 572.452 202.525C571.489 202.183 570.471 202.015 569.449 202.03C568.714 202.019 567.982 202.119 567.276 202.321C566.634 202.511 566.032 202.811 565.497 203.211C564.992 203.603 564.578 204.1 564.287 204.669C563.982 205.26 563.826 205.916 563.835 206.579C563.817 207.196 563.937 207.808 564.185 208.373C564.412 208.867 564.752 209.302 565.176 209.641C565.669 210.023 566.214 210.332 566.795 210.56C567.436 210.808 568.165 211.056 568.982 211.289C569.829 211.49 570.649 211.799 571.417 212.208C571.855 212.453 572.123 212.916 572.117 213.418C572.117 214.628 571.213 215.226 569.405 215.226C568.671 215.214 567.945 215.072 567.261 214.803C566.518 214.501 565.832 214.071 565.235 213.535L563.339 215.766C564.104 216.484 565.007 217.04 565.993 217.399C567.864 218.083 569.896 218.185 571.825 217.69C572.509 217.511 573.152 217.205 573.721 216.786C574.245 216.41 574.666 215.909 574.946 215.328C575.245 214.701 575.389 214.011 575.369 213.316C575.399 212.565 575.213 211.82 574.829 211.172Z" fill="white"/>
</g>
<mask id="mask8_2002_564" style="mask-type:luminance" maskUnits="userSpaceOnUse" x="125" y="0" width="451" height="218">
<path d="M125 218H575.372V0H125V218Z" fill="white"/>
</mask>
<g mask="url(#mask8_2002_564)">
<path fill-rule="evenodd" clip-rule="evenodd" d="M460.713 26.0149C458.949 25.2275 459.867 22.559 459.94 21.028C467.231 20.6634 473.181 20.5759 480.355 20.7072L481.2 21.028C481.682 22.2382 481.915 24.3088 480.938 25.315L478.897 26.0149H460.713ZM459.663 12.8914H459.693C459.867 12.381 460.713 12.381 461.151 12.1331L480.792 12.3519C481.568 13.428 481.775 14.8147 481.346 16.0702C481.477 16.843 480.53 17.0909 479.888 17.2805C473.793 17.2805 465.627 17.4117 460.028 17.0909C459.461 15.7654 459.332 14.2941 459.663 12.8914ZM464.286 43.5274C464.636 42.5169 465.391 41.6974 466.371 41.2673C467.435 43.4254 466.954 46.8521 466.808 49.1414C467.071 50.0658 467.071 51.0457 466.808 51.9702C464.854 54.2304 462.011 52.8305 459.663 53.2242V53.8367C462.483 55.2875 464.968 57.3144 466.954 59.786C469.637 60.6755 471.985 58.634 473.472 56.9571C474.785 52.0577 473.472 46.6333 473.924 40.9173C474.07 40.4799 474.216 39.7508 474.887 39.8966C478.401 46.5896 482.002 55.1927 489.818 58.0799C493.653 59.2173 495.651 54.7699 499.223 54.7116C499.223 53.9825 499.471 53.4284 499.063 53.0638C493.23 50.5266 487.15 48.6893 482.542 43.5566C482.454 43.0462 481.492 42.74 482.134 42.0984C486.508 41.1944 491.947 41.6172 495.447 38.1468C495.986 37.1698 496.905 36.047 496.278 34.9243C494.982 32.4498 492.581 30.7437 489.818 30.331C488.841 30.8706 489.147 32.0225 488.841 32.8974C487.253 36.6901 483.838 39.4067 479.786 40.1007C478.092 38.2707 476.68 36.1958 475.601 33.9473C475.12 32.3871 472.991 30.8706 474.639 29.2812C477.103 29.4124 480.661 28.0417 482.294 30.4623C484.875 30.9814 487.543 30.1459 489.366 28.2459C489.366 23.6089 488.418 18.8407 488.841 13.8684C489.293 12.3227 490.62 11.0541 490.401 9.11475C489.877 7.86073 488.579 7.93363 487.908 7.16081C483.111 4.12783 479.946 11.302 475.018 8.53148C476.476 6.72336 480.151 6.82543 480.18 3.79245C479.735 2.91755 479.058 2.18118 478.226 1.66353C476.097 1.29899 473.851 -1.10699 471.897 0.613649C471.897 3.71954 469.375 5.52766 467.348 7.39411C463.568 9.52741 458.918 9.38742 455.274 7.02957C454.195 6.40256 452.227 6.32965 451.585 7.78782C451.716 14.962 452.168 22.3695 451.964 29.8644C453.962 32.6058 457.141 29.8644 459.518 29.2812C461.778 29.1791 464.811 28.5083 466.808 29.8644C466.59 31.3226 467.144 32.8974 466.371 34.0494C464.373 33.9765 463.017 31.7746 460.684 32.4308C456.499 35.2596 451.454 33.9765 446.307 34.3118L445.942 34.7493C447.531 40.3632 453.889 36.047 457.141 38.3364C456.222 45.1752 451.133 51.8827 445.271 55.9802C444.105 56.9571 441.976 56.9571 441.597 58.3715C450.696 57.7445 459.022 51.2265 464.286 43.5274Z" fill="white"/>
</g>
<mask id="mask9_2002_564" style="mask-type:luminance" maskUnits="userSpaceOnUse" x="125" y="0" width="451" height="218">
<path d="M125 218H575.372V0H125V218Z" fill="white"/>
</mask>
<g mask="url(#mask9_2002_564)">
<path fill-rule="evenodd" clip-rule="evenodd" d="M513.659 184.576H513.892C514.079 184.566 514.255 184.487 514.388 184.357C514.594 184.144 514.691 183.848 514.65 183.555C514.096 177.722 513.63 146.591 513.63 133.161C513.63 119.381 513.805 109.597 513.921 103.881L517.538 108.897C535.779 134.182 554.546 161.61 570.586 186.18C570.723 186.384 570.952 186.509 571.198 186.515L572.802 186.501C573.016 186.496 573.218 186.401 573.356 186.238C573.503 186.051 573.581 185.82 573.575 185.582C573.458 179.224 573.24 146.037 573.24 130.478C573.24 118.725 574.362 89.2993 575.062 80.4045C575.093 80.1144 574.991 79.8242 574.785 79.6171C574.658 79.4874 574.485 79.413 574.304 79.413H574.071C572.967 79.8417 571.799 80.0779 570.615 80.1129C569.359 80.0852 568.117 79.849 566.94 79.413C566.863 79.3984 566.784 79.3984 566.707 79.413C566.533 79.4144 566.366 79.483 566.24 79.6026C566.036 79.7994 565.93 80.0779 565.949 80.3608C566.867 102.7 566.867 132.651 566.867 158.3C553.875 141.05 510.13 77.7798 510.13 77.7798C509.986 77.5947 509.767 77.4838 509.532 77.4736H507.68C507.463 77.4795 507.261 77.5801 507.126 77.7507C506.979 77.9432 506.902 78.1794 506.908 78.4214C507.258 85.1436 507.258 99.8565 507.258 118.506C507.258 138.629 505.756 176.702 504.852 183.526C504.808 183.818 504.898 184.112 505.1 184.328C505.231 184.475 505.413 184.564 505.61 184.576C505.677 184.59 505.747 184.59 505.814 184.576C507.122 184.137 508.488 183.896 509.868 183.861C511.163 183.883 512.444 184.124 513.659 184.576Z" fill="white"/>
</g>
<mask id="mask10_2002_564" style="mask-type:luminance" maskUnits="userSpaceOnUse" x="125" y="0" width="451" height="218">
<path d="M125 218H575.372V0H125V218Z" fill="white"/>
</mask>
<g mask="url(#mask10_2002_564)">
<path fill-rule="evenodd" clip-rule="evenodd" d="M329.478 184.576C329.665 184.566 329.84 184.487 329.974 184.357C330.174 184.14 330.269 183.848 330.236 183.555C329.682 177.722 329.216 146.591 329.216 133.161C329.216 119.381 329.376 109.597 329.507 103.881L333.124 108.897C351.365 134.182 370.132 161.61 386.172 186.18C386.301 186.385 386.526 186.512 386.769 186.515L388.373 186.501C388.589 186.504 388.793 186.406 388.928 186.238C389.075 186.051 389.152 185.82 389.146 185.582C389.03 179.224 388.811 146.037 388.811 130.478C388.811 118.725 389.948 89.2993 390.648 80.4045C390.674 80.1115 390.568 79.8227 390.357 79.6171C390.234 79.4815 390.058 79.4072 389.875 79.413H389.642C388.543 79.8417 387.379 80.0779 386.201 80.1129C384.941 80.0837 383.694 79.8475 382.512 79.413C382.434 79.3969 382.356 79.3969 382.278 79.413C382.108 79.4115 381.944 79.4801 381.826 79.6026C381.618 79.7979 381.507 80.075 381.52 80.3608C382.439 102.7 382.439 132.651 382.439 158.3C369.446 141.05 325.702 77.7798 325.702 77.7798C325.564 77.5947 325.349 77.4809 325.118 77.4736H323.266C323.046 77.4824 322.841 77.583 322.698 77.7507C322.555 77.9446 322.483 78.1808 322.494 78.4214C322.844 85.1436 322.844 99.8565 322.844 118.506C322.844 138.629 321.327 176.702 320.438 183.526C320.392 183.818 320.484 184.112 320.685 184.328C320.814 184.478 320.999 184.567 321.196 184.576C321.263 184.589 321.333 184.589 321.4 184.576C322.708 184.137 324.074 183.896 325.454 183.861C326.749 183.883 328.03 184.124 329.245 184.576C329.322 184.59 329.401 184.59 329.478 184.576Z" fill="white"/>
</g>
<mask id="mask11_2002_564" style="mask-type:luminance" maskUnits="userSpaceOnUse" x="125" y="0" width="451" height="218">
<path d="M125 218H575.372V0H125V218Z" fill="white"/>
</mask>
<g mask="url(#mask11_2002_564)">
<path fill-rule="evenodd" clip-rule="evenodd" d="M232.423 131.994C232.423 102.015 243.695 83.7876 263.336 83.7876C283.051 83.7876 294.351 102.015 294.351 131.994C294.351 161.974 282.978 180.216 263.336 180.216C243.695 180.216 232.423 161.974 232.423 131.994ZM307.081 131.994C307.081 98.8796 289.948 77.4883 263.336 77.4883C236.725 77.4883 219.591 98.865 219.591 131.994C219.591 165.124 236.768 186.515 263.336 186.515C289.933 186.515 307.081 165.109 307.081 131.994Z" fill="white"/>
</g>
<mask id="mask12_2002_564" style="mask-type:luminance" maskUnits="userSpaceOnUse" x="125" y="0" width="451" height="218">
<path d="M125 218H575.372V0H125V218Z" fill="white"/>
</mask>
<g mask="url(#mask12_2002_564)">
<path fill-rule="evenodd" clip-rule="evenodd" d="M471.635 183.919C477.993 183.919 484.715 184.167 492.253 184.678C492.482 184.663 492.695 184.552 492.837 184.371C492.99 184.145 493.052 183.868 493.012 183.599C492.789 182.387 492.681 181.156 492.691 179.924C492.686 178.692 492.794 177.463 493.012 176.249C493.055 175.953 492.977 175.654 492.793 175.418C492.656 175.264 492.46 175.175 492.253 175.17H492.093C485.415 176.833 472.962 177.095 461.749 177.095C461.661 174.252 461.544 166.363 461.544 154.231C461.544 141.108 461.544 136.296 461.632 132.898C466.91 132.927 481.084 133.204 488.958 134.225H489.045C489.263 134.219 489.465 134.119 489.599 133.948C489.763 133.725 489.836 133.449 489.804 133.175C489.585 131.914 489.473 130.635 489.468 129.355C489.468 128.025 489.581 126.7 489.804 125.389C489.834 125.112 489.767 124.833 489.614 124.601C489.471 124.434 489.266 124.333 489.045 124.324H488.958C479.895 125.352 470.78 125.839 461.661 125.782V119.629V106.403C461.661 102.014 461.778 97.0273 461.909 93.4548C461.982 91.3696 462.098 89.2261 462.098 86.9952C470.056 86.9704 478.007 87.4195 485.91 88.3367C487.762 88.5408 489.672 88.745 491.743 88.9345C491.975 88.9316 492.192 88.8179 492.326 88.6283C492.485 88.4037 492.554 88.1282 492.516 87.8555C492.288 86.6 492.176 85.3256 492.18 84.0497C492.176 82.8554 492.288 81.6641 492.516 80.4917C492.551 80.2264 492.49 79.9566 492.341 79.7335C492.202 79.5425 491.979 79.4287 491.743 79.4273C483.956 79.9376 477.453 80.1709 471.329 80.1709C465.204 80.1709 458.701 79.9376 450.827 79.4273C450.62 79.4258 450.422 79.5162 450.287 79.6752C450.133 79.8706 450.051 80.1126 450.054 80.3605C450.448 91.603 450.973 105.587 450.973 118.958V144.724C450.973 157.804 450.506 170.942 450.054 183.642C450.044 183.887 450.127 184.128 450.287 184.313C450.419 184.479 450.615 184.58 450.827 184.59L450.798 184.678C458.701 184.167 465.277 183.919 471.635 183.919Z" fill="white"/>
</g>
<mask id="mask13_2002_564" style="mask-type:luminance" maskUnits="userSpaceOnUse" x="125" y="0" width="451" height="218">
<path d="M125 218H575.372V0H125V218Z" fill="white"/>
</mask>
<g mask="url(#mask13_2002_564)">
<path fill-rule="evenodd" clip-rule="evenodd" d="M205.855 184.59C206.045 184.582 206.223 184.497 206.351 184.357C206.535 184.166 206.63 183.906 206.614 183.643V183.176C206.162 170.607 205.695 157.571 205.695 144.87V119.104C205.695 106.476 206.162 93.353 206.614 80.8273V80.3607C206.627 80.0924 206.532 79.8299 206.351 79.6316C206.218 79.5019 206.041 79.4289 205.855 79.4275H205.695C203.906 79.881 202.071 80.1245 200.227 80.1566C198.382 80.1245 196.548 79.8795 194.759 79.4275H194.686C194.461 79.4669 194.26 79.585 194.117 79.7629C193.928 80.002 193.834 80.3038 193.855 80.6086C194.292 93.2655 194.759 106.331 194.759 119.104V144.855C194.759 157.629 194.292 170.738 193.84 183.628C193.83 183.892 193.925 184.147 194.103 184.342C194.231 184.482 194.409 184.567 194.598 184.576H194.759C198.336 183.581 202.118 183.581 205.695 184.576L205.855 184.59Z" fill="white"/>
</g>
<mask id="mask14_2002_564" style="mask-type:luminance" maskUnits="userSpaceOnUse" x="125" y="0" width="451" height="218">
<path d="M125 218H575.372V0H125V218Z" fill="white"/>
</mask>
<g mask="url(#mask14_2002_564)">
<path fill-rule="evenodd" clip-rule="evenodd" d="M140.267 167.544C140.048 160.866 139.844 153.911 139.844 147.13V132.548H144.219C158.917 132.548 169.474 136.296 169.474 152.963C169.474 169.63 159.515 178.262 150.984 178.262C147.479 178.271 143.978 178.056 140.5 177.62C140.427 174.631 140.325 170.636 140.267 167.544ZM139.771 115.123C139.771 108.751 139.975 102.204 140.194 95.861C140.267 93.0467 140.369 89.1972 140.442 86.3829C143.072 85.9426 145.736 85.737 148.403 85.7705C160.652 85.7705 167.126 92.4781 167.126 104.727C167.126 122.735 153.157 125.651 145.254 125.651L139.771 125.695V115.123ZM150.984 184.649C164.764 184.649 180.804 176.512 180.804 153.619C180.804 138.585 174.286 129.953 161.439 127.941C172.317 123.624 178.033 114.715 178.033 101.942C178.033 87.0391 169.634 79.4858 153.055 79.4858C151.014 79.4858 148.885 79.6754 146.902 79.8649C144.918 80.0545 142.862 80.2295 140.894 80.2295C136.853 80.1901 132.817 79.9233 128.806 79.4275H128.718C128.52 79.4304 128.333 79.5208 128.208 79.6754C128.031 79.8576 127.941 80.107 127.96 80.3607C128.383 92.3322 128.879 105.835 128.879 118.958V144.724C128.879 157.498 128.412 170.665 127.96 183.643C127.944 183.899 128.033 184.153 128.208 184.342C128.339 184.49 128.521 184.579 128.718 184.59L128.849 184.576C132.515 184.103 136.206 183.855 139.902 183.832C141.71 183.832 143.592 184.022 145.414 184.197C147.262 184.442 149.121 184.592 150.984 184.649Z" fill="white"/>
</g>
<mask id="mask15_2002_564" style="mask-type:luminance" maskUnits="userSpaceOnUse" x="125" y="0" width="451" height="218">
<path d="M125 218H575.372V0H125V218Z" fill="white"/>
</mask>
<g mask="url(#mask15_2002_564)">
<path fill-rule="evenodd" clip-rule="evenodd" d="M433.708 79.5878C432.897 78.3717 432.256 77.0521 431.798 75.6654V75.5633C431.694 75.3213 431.449 75.1696 431.185 75.1832C431.057 75.1813 430.93 75.2177 430.821 75.2863H430.66C425.446 77.4487 420.739 80.6713 416.837 84.7497C401.993 99.973 406.965 118.156 414.796 132.228C416.223 134.82 417.49 137.499 418.587 140.247C419.841 143.353 421.139 146.27 421.678 148.107C424.577 157.215 423.443 167.129 418.558 175.346C416.108 179.924 411.836 183.322 405.653 185.232H405.42C405.192 185.346 405.046 185.576 405.041 185.83C405.042 185.961 405.083 186.088 405.157 186.194C406.048 187.397 406.77 188.717 407.301 190.117V190.263C407.422 190.49 407.655 190.634 407.913 190.642C408.044 190.64 408.171 190.599 408.278 190.525H408.511C418.82 184.911 427.132 176.337 430.792 167.559C436.945 153.648 432.483 137.244 422.888 120.329C420.439 115.954 418.018 111.318 417.289 106.345C417.161 105.495 417.082 104.638 417.056 103.779C416.589 92.2301 421.736 83.8748 433.096 80.769H433.314C433.667 80.7529 433.949 80.4671 433.956 80.1128C433.959 79.9611 433.902 79.8139 433.796 79.7045L433.708 79.5878Z" fill="white"/>
</g>
</g>
<defs>
<clipPath id="clip0_2002_564">
<rect width="450.372" height="218" fill="white" transform="translate(125)"/>
</clipPath>
</defs>
</svg>
