<svg width="787" height="261" viewBox="0 0 787 261" fill="none" xmlns="http://www.w3.org/2000/svg">
<path fill-rule="evenodd" clip-rule="evenodd" d="M786.098 30.001C721.433 30.888 653.384 53.6696 614.066 85.1967C586.126 107.605 576.379 129.531 576.285 129.764L578.164 127.585C613.958 85.679 655.2 68.3438 686.555 58.1046C734.86 42.3255 782.854 42.2165 782.854 42.2165L786.098 30.001Z" fill="white"/>
<path fill-rule="evenodd" clip-rule="evenodd" d="M137.36 167.909C141.365 165.326 146.394 164.407 149.561 164.407C154.14 164.407 158.02 168.438 158.02 173.231V218.825H166.713V173.573C166.713 163.567 159.014 155.413 149.561 155.413H148.459C145.572 155.413 142.017 155.74 137.36 157.981V132.849H128.544V218.825H137.36V167.909Z" fill="white"/>
<path fill-rule="evenodd" clip-rule="evenodd" d="M179.919 218.823H189.108V156.656H179.919V218.823Z" fill="white"/>
<path fill-rule="evenodd" clip-rule="evenodd" d="M179.919 145.001H189.108V132.863H179.919V145.001Z" fill="white"/>
<path fill-rule="evenodd" clip-rule="evenodd" d="M210.675 173.08C210.675 167.447 215.751 164.397 220.532 164.397C224.785 164.397 231.909 165.517 231.909 173.08V178.106C231.909 183.055 227.951 187.396 223.481 187.396L210.675 187.272V173.08ZM221.897 219.919C223.636 219.919 239.593 216.745 240.26 216.62L240.85 216.48L238.63 207.299L238.072 207.439C231.956 208.886 222.612 211.049 221.897 211.08C216.434 211.08 211.699 207.237 210.675 201.962V196.562C212.786 196.78 214.788 196.842 216.915 196.842C232.328 196.842 240.835 190.011 240.835 177.608V173.687C240.835 163.448 233.089 155.418 223.217 155.418H219.212C209.325 155.418 201.595 163.448 201.595 173.687V199.954C201.595 211.143 210.489 219.919 221.897 219.919Z" fill="white"/>
<path fill-rule="evenodd" clip-rule="evenodd" d="M259.823 173.341C259.823 168.393 263.61 164.394 268.267 164.394C270.626 164.394 275.749 165.374 280.343 168.035V207.701C278.853 209.459 271.17 211.093 268.127 211.093C263.642 211.093 259.823 207.031 259.823 202.254V173.341ZM268.267 219.932C270.89 219.932 277.161 219.247 282.377 216.742L286.149 220.507L292.466 214.33L289.16 211.171V132.96H280.468V158.169C276.587 156.411 272.489 155.555 268.267 155.555C258.814 155.555 251.131 163.693 251.131 173.684V201.772C251.131 211.949 258.659 219.932 268.267 219.932Z" fill="white"/>
<path fill-rule="evenodd" clip-rule="evenodd" d="M302.761 218.823H311.934V156.656H302.761V218.823Z" fill="white"/>
<path fill-rule="evenodd" clip-rule="evenodd" d="M302.761 145.001H311.934V132.863H302.761V145.001Z" fill="white"/>
<path fill-rule="evenodd" clip-rule="evenodd" d="M325.642 218.823H334.443V167.906C337.268 166.07 342.841 164.405 345.309 164.405C350.276 164.405 355.802 167.937 355.802 172.73V218.823H364.758V179.064C364.758 169.338 369.073 164.405 377.579 164.405C385.511 164.405 386.132 172.73 386.132 175.282V218.823H395.088V175.282C395.088 167.299 390.509 155.411 377.952 155.411C372.876 155.411 365.891 156.811 360.831 163.269C357.835 158.398 351.719 155.411 344.579 155.411C340.869 155.411 336.756 156.578 332.41 158.834L328.654 154.944L322.32 161.122L325.642 164.296V218.823Z" fill="white"/>
<path fill-rule="evenodd" clip-rule="evenodd" d="M408.139 145.001H417.359V132.863H408.139V145.001Z" fill="white"/>
<path fill-rule="evenodd" clip-rule="evenodd" d="M408.139 218.823H417.359V156.656H408.139V218.823Z" fill="white"/>
<path fill-rule="evenodd" clip-rule="evenodd" d="M506.161 145.001H515.35V132.863H506.161V145.001Z" fill="white"/>
<path fill-rule="evenodd" clip-rule="evenodd" d="M684.985 127.345L670.364 103.972H653.382L669.944 127.345H684.985Z" fill="white"/>
<path fill-rule="evenodd" clip-rule="evenodd" d="M588.846 196.651C588.846 202.689 584.143 207.606 578.415 207.606C575.698 207.606 567.891 205.832 563.032 203.218V167.116C568.294 161.794 572.656 156.876 576.288 152.473V152.628C577.778 150.59 579.284 148.645 580.774 146.684L581.38 146.902C585.772 148.271 588.846 152.504 588.846 157.25V196.651ZM463.225 173.34C463.225 168.407 467.028 164.408 471.685 164.408C474.059 164.408 479.166 165.373 483.745 168.049V207.684C482.255 209.442 474.603 211.076 471.545 211.076C467.028 211.076 463.225 207.046 463.225 202.269V173.34ZM614.023 103.393C599.075 115.126 588.722 125.521 581.054 134.313C579.595 135.993 578.229 137.581 576.956 139.137V138.981C575.357 141.206 573.712 143.369 572.066 145.517C568.543 150.076 564.942 154.402 561.294 158.495C557.895 162.323 554.418 165.949 550.941 169.388C539.346 180.747 527.347 189.991 515.364 197.258V156.659H506.175V202.44C501.611 204.821 497.079 206.937 492.577 208.789V132.974H483.885V158.168C479.989 156.425 475.891 155.569 471.685 155.569C462.232 155.569 454.548 163.692 454.548 173.698V201.755C454.548 208.68 458.087 214.78 463.784 217.892C448.417 222.14 433.5 224.895 384.202 224.957C363.65 224.972 129.126 225.097 129.126 225.097V233.469L395.797 233.578C433.795 233.578 463.939 226.762 487.502 217.659C489.97 216.678 492.329 215.713 494.657 214.733C498.926 212.881 502.931 210.983 506.734 209.053C509.528 207.606 512.197 206.19 514.774 204.712C524.646 199.063 532.702 193.336 539.206 188.232C542.838 185.385 546.113 182.646 549.233 179.985V260.032H562.846V218.577C567.829 220.615 573.044 221.627 578.415 221.627C591.671 221.627 602.505 210.205 602.505 196.153V157.903C602.505 148.551 597.74 140.086 590.119 135.62C618.555 104.248 652.657 87.0376 680.83 79.1014C732.301 64.5984 778.014 64.1626 778.014 64.1626L781.227 52.056C702.608 51.1068 637.678 81.9336 614.023 103.393Z" fill="white"/>
<path fill-rule="evenodd" clip-rule="evenodd" d="M617.782 219.976H632.093V134.078H617.782V219.976Z" fill="white"/>
<path fill-rule="evenodd" clip-rule="evenodd" d="M702.8 134.085H688.986V203.099C685.136 205.371 678.71 207.611 673.448 207.611C667.767 207.611 662.024 202.818 662.024 193.684V134.085H648.038V188.72C648.038 194.773 648.038 200.5 651.003 206.429C654.977 215.734 663.405 221.29 673.619 221.29C678.291 221.29 685.866 220.154 692.494 217.041L697.787 222.348L707.674 212.42L702.8 207.923V134.085Z" fill="white"/>
<path fill-rule="evenodd" clip-rule="evenodd" d="M617.782 127.371H632.093V112.572H617.782V127.371Z" fill="white"/>
<path fill-rule="evenodd" clip-rule="evenodd" d="M69.2754 104.405C49.7951 104.405 33.2174 110.863 19.9615 123.561C6.70557 136.243 0 152.1 0 170.711C0 182.413 2.94921 193.462 8.72345 203.53C14.4977 213.598 22.445 221.597 32.3792 227.339C42.2513 233.05 54.5604 235.96 68.9028 235.96C86.1014 235.96 101.546 232.443 114.802 225.487V210.299C100.273 218.92 85.2321 223.262 70.036 223.262C54.0637 223.262 40.7301 218.298 30.4234 208.479C20.1012 198.644 14.8547 185.946 14.8547 170.711C14.8547 155.601 20.1788 142.841 30.6873 132.789C41.1337 122.736 54.4362 117.648 70.2222 117.648C84.2542 117.648 98.7364 121.585 113.374 129.334V114.567C97.2308 107.813 82.4071 104.405 69.2754 104.405Z" fill="white"/>
<g clip-path="url(#clip0_2002_650)">
<path fill-rule="evenodd" clip-rule="evenodd" d="M506.483 122.128H515.706V119.576H509.215V116.017H514.745V113.469H509.215V110.032H515.706V107.481H506.483V122.128ZM481.609 113.9H479.028V110.032H481.609C482.806 110.032 483.596 110.834 483.596 111.967C483.596 113.097 482.806 113.9 481.609 113.9ZM486.331 111.967C486.331 109.517 484.635 107.481 481.782 107.481H476.296V122.128H479.028V116.285H480.999L483.73 122.128H486.901L483.775 115.812C485.132 115.298 486.331 114.022 486.331 111.967ZM449.359 117.131L451.131 111.801L452.842 117.131H449.359ZM449.989 107.481L444.892 122.128H447.744L448.593 119.537H453.57L454.395 122.128H457.251L452.134 107.481H449.989ZM422.954 109.908C423.938 109.908 424.427 110.299 425.036 110.936L426.847 109.044C425.846 108.015 424.744 107.356 422.954 107.356C421.416 107.356 420.16 107.933 419.174 108.961C417.76 110.442 417.8 112.274 417.8 114.805C417.8 117.335 417.76 119.166 419.174 120.649C420.16 121.678 421.416 122.252 422.954 122.252C424.744 122.252 425.846 121.593 426.847 120.563L425.036 118.675C424.427 119.309 423.938 119.701 422.954 119.701C422.203 119.701 421.616 119.415 421.222 118.941C420.688 118.323 420.534 117.623 420.534 114.805C420.534 111.986 420.688 111.286 421.222 110.67C421.616 110.196 422.203 109.908 422.954 109.908ZM369.229 107.481H366.495V122.128H375.586V119.576H369.229V107.481ZM339.557 117.131L341.329 111.801L343.04 117.131H339.557ZM340.185 107.481L335.091 122.128H337.941L338.787 119.537H343.766L344.592 122.128H347.449L342.331 107.481H340.185ZM311.754 113.9H309.173V110.032H311.754C312.953 110.032 313.742 110.834 313.742 111.967C313.742 113.097 312.953 113.9 311.754 113.9ZM316.474 111.967C316.474 109.517 314.783 107.481 311.931 107.481H306.442V122.128H309.173V116.285H311.145L313.878 122.128H317.046L313.916 115.812C315.277 115.298 316.474 114.022 316.474 111.967ZM282.906 118.918C282.512 119.394 281.902 119.701 281.157 119.701C280.408 119.701 279.777 119.394 279.383 118.918C278.852 118.3 278.713 117.623 278.713 114.805C278.713 111.986 278.852 111.306 279.383 110.69C279.777 110.218 280.408 109.908 281.157 109.908C281.902 109.908 282.512 110.218 282.906 110.69C283.436 111.306 283.594 111.986 283.594 114.805C283.594 117.623 283.436 118.3 282.906 118.918ZM281.157 107.356C279.561 107.356 278.342 107.933 277.358 108.961C275.941 110.44 275.981 112.274 275.981 114.805C275.981 117.335 275.941 119.166 277.358 120.649C278.342 121.678 279.561 122.252 281.157 122.252C282.75 122.252 283.949 121.678 284.933 120.649C286.349 119.166 286.329 117.335 286.329 114.805C286.329 112.274 286.349 110.44 284.933 108.961C283.949 107.933 282.75 107.356 281.157 107.356ZM586.962 25.3318C586.335 25.9382 585.551 26.2293 584.646 26.2293C583.735 26.2293 582.946 25.9382 582.318 25.3318C581.678 24.7255 581.368 23.9937 581.368 23.1477C581.368 22.3001 581.678 21.5795 582.318 20.978C582.946 20.3764 583.74 20.0741 584.646 20.0741C585.551 20.0741 586.329 20.3764 586.962 20.978C587.615 21.5795 587.928 22.3001 587.928 23.1477C587.928 23.9937 587.615 24.7255 586.962 25.3318ZM587.715 20.2896C586.86 19.5095 585.85 19.1058 584.646 19.1058C583.442 19.1058 582.436 19.5095 581.597 20.2896C580.737 21.0841 580.306 22.0234 580.306 23.1477C580.306 24.2751 580.737 25.2225 581.561 26.0186C582.417 26.8099 583.442 27.2008 584.646 27.2008C585.85 27.2008 586.86 26.8099 587.715 26.0186C588.585 25.2225 589 24.2703 589 23.1477C589 22.0234 588.585 21.0745 587.715 20.2896ZM585.257 22.9048C585.085 22.9627 584.833 22.9884 584.484 22.9884H583.761V21.5924H584.449C584.883 21.5924 585.21 21.6422 585.414 21.7387L585.724 22.3001C585.724 22.5896 585.582 22.797 585.257 22.9048ZM586.518 22.2309C586.518 21.7001 586.282 21.3415 585.8 21.1645C585.54 21.0536 585.13 21.0166 584.554 21.0166H582.946V25.2755H583.756V23.5868H584.397C584.833 23.5868 585.13 23.6221 585.283 23.7251C585.582 23.8714 585.724 24.214 585.724 24.6997L585.759 25.2755L586.518 25.2176L586.442 24.6772V24.3732L586.193 23.6945C586.011 23.4822 585.759 23.3342 585.398 23.286L586.061 23.0673C586.372 22.8855 586.518 22.6169 586.518 22.2309ZM320.729 21.1629C317.887 18.9949 314.305 17.9189 309.941 17.9189C307.073 17.9189 304.51 18.2164 302.29 18.8035C300.049 19.4034 298.365 20.1641 297.156 21.0841V18.4496H276.468V97.2533H297.156V33.7951C297.156 32.584 297.449 31.6994 298.042 31.1461C298.639 30.5928 299.533 30.3146 300.713 30.3146C303.071 30.3146 304.257 31.5208 304.257 33.9045V50.9741H324.956V29.1115C324.956 25.972 323.539 23.3342 320.729 21.1629ZM356.753 52.0726H349.66V33.9479C349.66 32.6338 349.989 31.6543 350.696 31.0158C351.377 30.3612 352.218 30.0283 353.212 30.0283C354.389 30.0283 355.283 30.3612 355.875 31.0158C356.463 31.6543 356.753 32.6338 356.753 33.9479V52.0726ZM370.02 21.1002C365.954 18.9707 360.286 17.9108 353.057 17.9108C345.725 17.9108 340.019 19.1091 335.959 21.5232C331.287 24.2993 328.958 28.6483 328.958 34.5784V81.6827C328.958 87.7045 331.332 92.0905 336.097 94.8874C340.067 97.2019 345.725 98.3503 353.057 98.3503C360.401 98.3503 366.043 97.2936 370.02 95.1576C374.975 92.4749 377.45 88.2014 377.45 82.3807V66.3968H356.753V82.2135C356.753 83.5002 356.463 84.4957 355.875 85.1873C355.283 85.887 354.389 86.2376 353.212 86.2376C352.033 86.2376 351.137 85.887 350.545 85.1873C349.964 84.4957 349.66 83.5002 349.66 82.2135V63.9199H377.45V33.8868C377.45 27.9615 374.975 23.7106 370.02 21.1002ZM573.789 21.1629C570.961 18.9949 567.364 17.9189 563.004 17.9189C560.128 17.9189 557.569 18.2164 555.349 18.8035C553.121 19.4034 551.418 20.1641 550.217 21.0841V18.4496H529.528V97.2533H550.217V33.7951C550.217 32.584 550.504 31.6994 551.102 31.1461C551.699 30.5928 552.593 30.3146 553.782 30.3146C556.147 30.3146 557.328 31.5208 557.328 33.9045V50.9741H578.02V29.1115C578.02 25.972 576.616 23.3342 573.789 21.1629ZM500.013 97.2582H520.695V18.448H500.013V97.2582ZM500.013 14.0539H520.695V0.00804185H500.013V14.0539ZM470.44 82.6542C470.44 83.854 470.102 84.7483 469.433 85.3418C468.775 85.9352 467.911 86.2376 466.904 86.2376C465.65 86.2376 464.7 85.9352 464.038 85.3337C463.37 84.7306 463.031 83.8202 463.031 82.6027V68.256C463.031 66.7715 463.557 65.5652 464.567 64.6324C465.612 63.706 467.556 62.9211 470.44 62.2745V82.6542ZM484.569 21.3849C480.878 19.0656 475.366 17.9092 467.997 17.9092C460.629 17.9092 454.926 18.9627 450.83 21.0841C445.767 23.7363 443.231 27.9615 443.231 33.7436V49.3142H463.336V33.8868C463.336 32.6065 463.67 31.6463 464.377 31.0062C465.055 30.3548 465.899 30.0283 466.874 30.0283C468.068 30.0283 468.962 30.3596 469.545 31.0158C470.135 31.6608 470.44 32.6435 470.44 33.9575V45.7437C470.44 47.4019 465.737 50.3195 456.386 54.4803C447.03 58.6557 442.337 63.8813 442.337 70.1587V85.9996C442.337 90.154 443.638 93.2646 446.236 95.3008C448.867 97.3273 453.246 98.3503 459.454 98.3503C463.249 98.3503 466.197 98.0913 468.241 97.5927C470.282 97.0941 471.817 95.965 472.818 94.2216V97.2533H491.133V34.5912C491.133 28.473 488.935 24.0693 484.569 21.3849ZM414.111 82.6107C414.111 85.0281 412.93 86.2376 410.559 86.2376C409.471 86.2376 408.591 85.9369 407.968 85.3337C407.331 84.7306 407.008 83.8717 407.008 82.7442V33.6552C407.008 32.4537 407.307 31.5418 407.899 30.9402C408.488 30.3435 409.374 30.0283 410.559 30.0283C412.93 30.0283 414.111 31.241 414.111 33.6552V82.6107ZM430.049 22.2116C426.488 19.3519 421.719 17.9172 415.785 17.9172C412.399 17.9172 409.619 18.4175 407.453 19.4195C406.366 19.9004 405.121 20.6193 403.75 21.631L401.931 18.448H386.33V121.13H407.008V95.452C408.201 96.3012 409.916 96.9751 412.215 97.5203C414.495 98.0704 417.016 98.3567 419.798 98.3567C424.25 98.3567 427.873 97.2952 430.638 95.1593C433.417 93.0233 434.803 90.4403 434.803 87.3731V30.8421C434.803 27.6029 433.218 24.7126 430.049 22.2116ZM246.924 82.2022C246.924 83.5002 246.625 84.4957 246.028 85.1873C245.432 85.8918 244.548 86.2376 243.37 86.2376C242.19 86.2376 241.299 85.8918 240.704 85.1873C240.111 84.4957 239.821 83.5002 239.821 82.2022V33.9302C239.821 32.6242 240.173 31.6543 240.855 31.0062C241.549 30.3612 242.377 30.0363 243.37 30.0363C244.548 30.0363 245.432 30.3612 246.028 31.0062C246.625 31.6543 246.924 32.6242 246.924 33.9302V82.2022ZM260.694 22.0122C256.088 19.2779 250.419 17.9189 243.676 17.9189C236.318 17.9189 230.576 19.1219 226.407 21.5232C221.553 24.2993 219.109 28.6483 219.109 34.5784V81.6827C219.109 87.7045 221.553 92.0905 226.407 94.8874C230.483 97.2019 236.218 98.3567 243.676 98.3567C251.005 98.3567 256.619 97.2936 260.477 95.1593C265.234 92.5698 267.613 88.3044 267.613 82.3807V33.8868C267.613 28.6998 265.306 24.7416 260.694 22.0122ZM189.571 97.2582H210.262V18.448H189.571V97.2582ZM189.571 14.0539H210.262V0.00804185H189.571V14.0539ZM158.57 79.6899C158.57 82.1138 157.781 83.7109 156.188 84.433C155.551 84.7225 154.084 84.8496 151.763 84.8496V49.8675C153.974 49.8675 155.662 50.1217 156.81 50.6347C157.977 51.1558 158.57 52.6195 158.57 55.0304V79.6899ZM151.763 12.4005C153.877 12.4005 155.506 12.6627 156.613 13.1677C157.715 13.6728 158.272 15.1299 158.272 17.5168V34.0074C158.272 36.4006 157.518 37.9704 156.001 38.7183C155.404 38.9966 153.987 39.1204 151.763 39.1204V12.4005ZM166.698 45.0633C172.144 43.3006 175.911 40.9475 177.959 37.9817C179.234 36.05 179.855 33.5989 179.855 30.6459V17.1951C179.855 12.0226 177.742 7.86332 173.545 4.727C169.318 1.57942 163.435 0 155.916 0H129V97.2533H157.933C165.367 97.2533 171.153 95.3056 175.234 91.4198C178.895 87.973 180.751 83.5163 180.751 78.043V59.1205C180.751 55.8828 180.037 53.3223 178.667 51.4646C176.506 48.5873 172.508 46.4497 166.698 45.0633Z" fill="white"/>
</g>
<defs>
<clipPath id="clip0_2002_650">
<rect width="460" height="122.252" fill="white" transform="translate(129)"/>
</clipPath>
</defs>
</svg>
