<svg width="787" height="258" viewBox="0 0 787 258" fill="none" xmlns="http://www.w3.org/2000/svg">
<path fill-rule="evenodd" clip-rule="evenodd" d="M786.098 27C721.433 27.887 653.384 50.6686 614.066 82.1957C586.126 104.604 576.379 126.53 576.285 126.763L578.164 124.584C613.958 82.6781 655.2 65.3429 686.555 55.1036C734.86 39.3245 782.854 39.2156 782.854 39.2156L786.098 27Z" fill="white"/>
<path fill-rule="evenodd" clip-rule="evenodd" d="M137.36 164.908C141.365 162.325 146.394 161.406 149.561 161.406C154.14 161.406 158.02 165.437 158.02 170.23V215.824H166.713V170.572C166.713 160.566 159.014 152.412 149.561 152.412H148.459C145.572 152.412 142.017 152.739 137.36 154.98V129.848H128.544V215.824H137.36V164.908Z" fill="white"/>
<path fill-rule="evenodd" clip-rule="evenodd" d="M179.919 215.822H189.108V153.655H179.919V215.822Z" fill="white"/>
<path fill-rule="evenodd" clip-rule="evenodd" d="M179.919 142H189.108V129.862H179.919V142Z" fill="white"/>
<path fill-rule="evenodd" clip-rule="evenodd" d="M210.675 170.079C210.675 164.446 215.751 161.396 220.532 161.396C224.785 161.396 231.909 162.516 231.909 170.079V175.105C231.909 180.054 227.951 184.395 223.481 184.395L210.675 184.271V170.079ZM221.897 216.918C223.636 216.918 239.593 213.744 240.26 213.619L240.85 213.479L238.63 204.298L238.072 204.438C231.956 205.885 222.612 208.048 221.897 208.079C216.434 208.079 211.699 204.236 210.675 198.961V193.561C212.786 193.779 214.788 193.841 216.915 193.841C232.328 193.841 240.835 187.01 240.835 174.607V170.686C240.835 160.447 233.089 152.417 223.217 152.417H219.212C209.325 152.417 201.595 160.447 201.595 170.686V196.953C201.595 208.142 210.489 216.918 221.897 216.918Z" fill="white"/>
<path fill-rule="evenodd" clip-rule="evenodd" d="M259.823 170.34C259.823 165.392 263.61 161.393 268.267 161.393C270.626 161.393 275.749 162.373 280.343 165.034V204.7C278.853 206.458 271.17 208.092 268.127 208.092C263.642 208.092 259.823 204.03 259.823 199.253V170.34ZM268.267 216.931C270.89 216.931 277.161 216.246 282.377 213.741L286.149 217.506L292.466 211.329L289.16 208.17V129.959H280.468V155.168C276.587 153.41 272.489 152.554 268.267 152.554C258.814 152.554 251.131 160.692 251.131 170.683V198.771C251.131 208.948 258.659 216.931 268.267 216.931Z" fill="white"/>
<path fill-rule="evenodd" clip-rule="evenodd" d="M302.761 215.822H311.934V153.655H302.761V215.822Z" fill="white"/>
<path fill-rule="evenodd" clip-rule="evenodd" d="M302.761 142H311.934V129.862H302.761V142Z" fill="white"/>
<path fill-rule="evenodd" clip-rule="evenodd" d="M325.642 215.822H334.443V164.905C337.268 163.069 342.841 161.404 345.309 161.404C350.276 161.404 355.802 164.936 355.802 169.729V215.822H364.758V176.063C364.758 166.337 369.073 161.404 377.579 161.404C385.511 161.404 386.132 169.729 386.132 172.281V215.822H395.088V172.281C395.088 164.298 390.509 152.41 377.952 152.41C372.876 152.41 365.891 153.81 360.831 160.268C357.835 155.397 351.719 152.41 344.579 152.41C340.869 152.41 336.756 153.577 332.41 155.833L328.654 151.943L322.32 158.121L325.642 161.295V215.822Z" fill="white"/>
<path fill-rule="evenodd" clip-rule="evenodd" d="M408.139 142H417.359V129.862H408.139V142Z" fill="white"/>
<path fill-rule="evenodd" clip-rule="evenodd" d="M408.139 215.822H417.359V153.655H408.139V215.822Z" fill="white"/>
<path fill-rule="evenodd" clip-rule="evenodd" d="M506.161 142H515.35V129.862H506.161V142Z" fill="white"/>
<path fill-rule="evenodd" clip-rule="evenodd" d="M684.985 124.344L670.364 100.971H653.382L669.944 124.344H684.985Z" fill="white"/>
<path fill-rule="evenodd" clip-rule="evenodd" d="M588.846 193.65C588.846 199.688 584.143 204.605 578.415 204.605C575.698 204.605 567.891 202.831 563.032 200.217V164.115C568.294 158.793 572.656 153.875 576.288 149.472V149.627C577.778 147.589 579.284 145.644 580.774 143.683L581.38 143.901C585.772 145.27 588.846 149.503 588.846 154.249V193.65ZM463.225 170.339C463.225 165.406 467.028 161.407 471.685 161.407C474.059 161.407 479.166 162.372 483.745 165.048V204.683C482.255 206.441 474.603 208.075 471.545 208.075C467.028 208.075 463.225 204.045 463.225 199.268V170.339ZM614.023 100.392C599.075 112.125 588.722 122.52 581.054 131.312C579.595 132.992 578.229 134.58 576.956 136.136V135.98C575.357 138.205 573.712 140.368 572.066 142.516C568.543 147.075 564.942 151.401 561.294 155.494C557.895 159.322 554.418 162.948 550.941 166.387C539.346 177.746 527.347 186.99 515.364 194.257V153.658H506.175V199.439C501.611 201.82 497.079 203.936 492.577 205.788V129.973H483.885V155.167C479.989 153.424 475.891 152.568 471.685 152.568C462.232 152.568 454.548 160.691 454.548 170.697V198.754C454.548 205.679 458.087 211.779 463.784 214.891C448.417 219.139 433.5 221.894 384.202 221.956C363.65 221.971 129.126 222.096 129.126 222.096V230.468L395.797 230.577C433.795 230.577 463.939 223.761 487.502 214.658C489.97 213.677 492.329 212.712 494.657 211.732C498.926 209.88 502.931 207.982 506.734 206.052C509.528 204.605 512.197 203.189 514.774 201.711C524.646 196.062 532.702 190.335 539.206 185.231C542.838 182.384 546.113 179.645 549.233 176.984V257.031H562.846V215.576C567.829 217.614 573.044 218.626 578.415 218.626C591.671 218.626 602.505 207.204 602.505 193.152V154.903C602.505 145.55 597.74 137.085 590.119 132.619C618.555 101.247 652.657 84.0367 680.83 76.1004C732.301 61.5974 778.014 61.1617 778.014 61.1617L781.227 49.055C702.608 48.1058 637.678 78.9326 614.023 100.392Z" fill="white"/>
<path fill-rule="evenodd" clip-rule="evenodd" d="M617.782 216.975H632.093V131.077H617.782V216.975Z" fill="white"/>
<path fill-rule="evenodd" clip-rule="evenodd" d="M702.8 131.084H688.986V200.098C685.136 202.37 678.71 204.61 673.448 204.61C667.767 204.61 662.024 199.818 662.024 190.683V131.084H648.038V185.719C648.038 191.772 648.038 197.499 651.003 203.428C654.977 212.733 663.405 218.289 673.619 218.289C678.291 218.289 685.866 217.153 692.494 214.04L697.787 219.347L707.674 209.419L702.8 204.922V131.084Z" fill="white"/>
<path fill-rule="evenodd" clip-rule="evenodd" d="M617.782 124.37H632.093V109.571H617.782V124.37Z" fill="white"/>
<path fill-rule="evenodd" clip-rule="evenodd" d="M69.2754 101.404C49.7951 101.404 33.2174 107.862 19.9615 120.56C6.70557 133.242 0 149.099 0 167.71C0 179.412 2.94921 190.461 8.72345 200.529C14.4977 210.597 22.445 218.596 32.3792 224.338C42.2513 230.049 54.5604 232.959 68.9028 232.959C86.1014 232.959 101.546 229.442 114.802 222.486V207.298C100.273 215.919 85.2321 220.261 70.036 220.261C54.0637 220.261 40.7301 215.297 30.4234 205.478C20.1012 195.643 14.8547 182.945 14.8547 167.71C14.8547 152.6 20.1788 139.84 30.6873 129.788C41.1337 119.735 54.4362 114.647 70.2222 114.647C84.2542 114.647 98.7364 118.584 113.374 126.333V111.566C97.2308 104.812 82.4071 101.404 69.2754 101.404Z" fill="white"/>
<g clip-path="url(#clip0_2002_658)">
<mask id="mask0_2002_658" style="mask-type:luminance" maskUnits="userSpaceOnUse" x="127" y="0" width="445" height="136">
<path d="M571.017 0.000488281H127.45V135.728H571.017V0.000488281Z" fill="white"/>
</mask>
<g mask="url(#mask0_2002_658)">
<path d="M522.811 68.6429L518.229 62.0444L519.97 59.341L565.793 -0.229004H523.957L497.059 39.8662C496.738 39.1323 496.354 38.427 495.913 37.7582L470.527 -0.229004H427.958L458.109 39.2246L475.522 62.5486L424.659 126.701L422.734 129.542H464.708C475.614 114.695 487.253 100.169 496.417 84.7268C506.544 99.7568 517.038 114.879 527.852 129.542H571.017L522.811 68.6429ZM566.985 15.7632C566.502 15.2671 565.925 14.8729 565.288 14.6036C564.65 14.3344 563.965 14.1956 563.273 14.1956C562.581 14.1956 561.896 14.3344 561.259 14.6036C560.621 14.8729 560.044 15.2671 559.562 15.7632C559.054 16.2364 558.653 16.8121 558.384 17.4519C558.116 18.0918 557.986 18.7812 558.004 19.4749C557.991 20.1703 558.119 20.8612 558.379 21.5062C558.64 22.1511 559.028 22.7369 559.519 23.2287C560.011 23.7206 560.597 24.1083 561.242 24.3687C561.887 24.6291 562.578 24.757 563.273 24.7446C563.967 24.7507 564.655 24.6185 565.297 24.3559C565.939 24.0932 566.523 23.7053 567.013 23.2148C567.504 22.7242 567.892 22.1407 568.154 21.4986C568.417 20.8565 568.549 20.1686 568.543 19.4749C568.561 18.7812 568.431 18.0918 568.162 17.4519C567.894 16.8121 567.492 16.2364 566.985 15.7632ZM560.157 16.4048C560.56 15.9842 561.044 15.6495 561.579 15.4211C562.115 15.1927 562.691 15.0751 563.273 15.0757C563.849 15.0705 564.42 15.1861 564.949 15.415C565.478 15.6439 565.953 15.9811 566.343 16.4048C566.761 16.7976 567.091 17.2739 567.312 17.8029C567.534 18.3319 567.64 18.9017 567.627 19.4749C567.641 20.0549 567.535 20.6318 567.314 21.1683C567.093 21.7049 566.762 22.1893 566.343 22.5908C565.951 23.0084 565.474 23.3385 564.945 23.5596C564.416 23.7807 563.846 23.8879 563.273 23.874C562.68 23.8815 562.091 23.7662 561.545 23.5356C560.998 23.3049 560.505 22.9637 560.096 22.5335C559.687 22.1032 559.372 21.5934 559.17 21.0355C558.967 20.4776 558.882 19.8839 558.92 19.2917C558.909 18.7299 559.014 18.1717 559.227 17.6516C559.439 17.1315 559.756 16.6604 560.157 16.2672M565.564 21.3993V20.9871C565.541 20.6727 565.429 20.3712 565.244 20.1164C565.124 19.9551 564.973 19.8193 564.8 19.7171C564.627 19.6148 564.435 19.548 564.236 19.5207C564.529 19.5003 564.813 19.4057 565.06 19.2458C565.249 19.1212 565.403 18.9506 565.507 18.7502C565.611 18.5497 565.662 18.3261 565.656 18.1002C565.679 17.7902 565.602 17.4811 565.437 17.2175C565.272 16.954 565.028 16.7496 564.74 16.6338C564.224 16.5449 563.697 16.5449 563.182 16.6338H561.12V22.3617H562.128V20.0706H563.044C563.42 19.9755 563.814 19.9755 564.19 20.0706C564.391 20.2231 564.549 20.4265 564.645 20.6601C564.742 20.8937 564.775 21.1489 564.74 21.3993V22.3617H565.702C565.683 22.0871 565.683 21.8116 565.702 21.5369M563.182 17.2754C563.592 17.2518 564.001 17.3304 564.373 17.5045C564.516 17.5853 564.632 17.7069 564.705 17.8538C564.779 18.0008 564.807 18.1664 564.786 18.3293C564.798 18.5258 564.747 18.7211 564.639 18.8861C564.532 19.0512 564.374 19.1773 564.19 19.2458C563.872 19.3043 563.546 19.3043 563.227 19.2458H562.311V17.1837L563.182 17.2754ZM419.251 27.5398V68.1848L421.68 85.2767L415.998 74.2793L382.914 27.3107H360.735V103.469H380.669V66.5811L379.294 49.8556L387.588 63.9691L416.731 103.881H438.91V27.7229L419.251 27.5398ZM326.414 27.5398H304.144L272.068 98.3823C271.417 95.3733 271.155 92.2933 271.289 89.2177H231.744V27.8147H211.123V103.469H291.909L298.095 88.6675H331.821L337.824 103.377H359.727L326.414 27.5398ZM314.958 43.4402L325.498 74.0044H304.144L314.958 43.4402ZM205.853 80.0987C205.616 76.3063 204.299 72.6612 202.058 69.5924C199.817 66.5236 196.746 64.1591 193.206 62.7777C195.882 61.3155 198.151 59.2086 199.808 56.6482C201.464 54.0877 202.455 51.1545 202.692 48.1143C202.717 47.8246 202.717 47.5333 202.692 47.2436C202.715 42.9331 201.074 38.7801 198.109 35.6505C193.465 31.1852 187.399 28.4929 180.972 28.0437C179.454 27.8151 177.924 27.6776 176.389 27.6315H173.457H128.688V103.606H170.295C174.806 103.64 179.312 103.303 183.767 102.598C187.594 102.025 191.279 100.734 194.627 98.7945C197.237 97.2454 199.525 95.2073 201.363 92.7917C204.053 89.5199 205.555 85.4336 205.624 81.1986V80.1904M147.429 71.0258H174.373C175.71 70.7373 177.094 70.7518 178.425 71.068C179.756 71.3842 180.998 71.9939 182.063 72.8529C183.127 73.712 183.985 74.7984 184.575 76.0324C185.165 77.2663 185.471 78.6166 185.471 79.9843C185.471 81.3519 185.165 82.7022 184.575 83.9362C183.985 85.1701 183.127 86.2563 182.063 87.1153C180.998 87.9743 179.756 88.5843 178.425 88.9005C177.094 89.2167 175.71 89.2312 174.373 88.9428H147.429V71.0258ZM147.429 41.6075H173.732H174.465C175.504 41.5264 176.549 41.6609 177.534 42.0029C178.518 42.345 179.422 42.887 180.187 43.5949C180.952 44.3028 181.563 45.1613 181.981 46.1165C182.398 47.0717 182.614 48.1027 182.614 49.1452C182.614 50.1876 182.398 51.219 181.981 52.1741C181.563 53.1293 180.952 53.9878 180.187 54.6957C179.422 55.4036 178.518 55.9456 177.534 56.2877C176.549 56.6297 175.504 56.7642 174.465 56.6831C173.992 56.7283 173.517 56.7283 173.044 56.6831H147.475L147.429 41.6075Z" fill="white"/>
</g>
</g>
<defs>
<clipPath id="clip0_2002_658">
<rect width="443.017" height="130" fill="white" transform="translate(128)"/>
</clipPath>
</defs>
</svg>
