<svg width="787" height="245" viewBox="0 0 787 245" fill="none" xmlns="http://www.w3.org/2000/svg">
<path fill-rule="evenodd" clip-rule="evenodd" d="M786.098 14.4717C721.433 15.3587 653.384 38.1403 614.066 69.6674C586.126 92.0755 576.379 114.001 576.285 114.235L578.164 112.056C613.958 70.1497 655.2 52.8145 686.555 42.5753C734.86 26.7962 782.854 26.6872 782.854 26.6872L786.098 14.4717Z" fill="white"/>
<path fill-rule="evenodd" clip-rule="evenodd" d="M137.36 152.379C141.365 149.796 146.394 148.878 149.561 148.878C154.14 148.878 158.02 152.908 158.02 157.701V203.296H166.713V158.044C166.713 148.038 159.014 139.884 149.561 139.884H148.459C145.572 139.884 142.017 140.211 137.36 142.451V117.32H128.544V203.296H137.36V152.379Z" fill="white"/>
<path fill-rule="evenodd" clip-rule="evenodd" d="M179.919 203.294H189.108V141.127H179.919V203.294Z" fill="white"/>
<path fill-rule="evenodd" clip-rule="evenodd" d="M179.919 129.471H189.108V117.334H179.919V129.471Z" fill="white"/>
<path fill-rule="evenodd" clip-rule="evenodd" d="M210.675 157.551C210.675 151.917 215.751 148.867 220.532 148.867C224.785 148.867 231.909 149.988 231.909 157.551V162.577C231.909 167.525 227.951 171.867 223.481 171.867L210.675 171.742V157.551ZM221.897 204.39C223.636 204.39 239.593 201.215 240.26 201.091L240.85 200.951L238.63 191.77L238.072 191.91C231.956 193.357 222.612 195.52 221.897 195.551C216.434 195.551 211.699 191.708 210.675 186.432V181.033C212.786 181.25 214.788 181.313 216.915 181.313C232.328 181.313 240.835 174.481 240.835 162.079V158.158C240.835 147.918 233.089 139.889 223.217 139.889H219.212C209.325 139.889 201.595 147.918 201.595 158.158V184.425C201.595 195.613 210.489 204.39 221.897 204.39Z" fill="white"/>
<path fill-rule="evenodd" clip-rule="evenodd" d="M259.823 157.812C259.823 152.864 263.61 148.864 268.267 148.864C270.626 148.864 275.749 149.845 280.343 152.506V192.171C278.853 193.93 271.17 195.564 268.127 195.564C263.642 195.564 259.823 191.502 259.823 186.725V157.812ZM268.267 204.402C270.89 204.402 277.161 203.718 282.377 201.212L286.149 204.978L292.466 198.8L289.16 195.641V117.431H280.468V142.64C276.587 140.881 272.489 140.026 268.267 140.026C258.814 140.026 251.131 148.164 251.131 158.154V186.242C251.131 196.419 258.659 204.402 268.267 204.402Z" fill="white"/>
<path fill-rule="evenodd" clip-rule="evenodd" d="M302.761 203.294H311.934V141.127H302.761V203.294Z" fill="white"/>
<path fill-rule="evenodd" clip-rule="evenodd" d="M302.761 129.471H311.934V117.334H302.761V129.471Z" fill="white"/>
<path fill-rule="evenodd" clip-rule="evenodd" d="M325.642 203.293H334.443V152.377C337.268 150.541 342.841 148.876 345.309 148.876C350.276 148.876 355.802 152.408 355.802 157.201V203.293H364.758V163.534C364.758 153.809 369.073 148.876 377.579 148.876C385.511 148.876 386.132 157.201 386.132 159.753V203.293H395.088V159.753C395.088 151.77 390.509 139.881 377.952 139.881C372.876 139.881 365.891 141.282 360.831 147.74C357.835 142.869 351.719 139.881 344.579 139.881C340.869 139.881 336.756 141.048 332.41 143.305L328.654 139.414L322.32 145.592L325.642 148.767V203.293Z" fill="white"/>
<path fill-rule="evenodd" clip-rule="evenodd" d="M408.139 129.471H417.359V117.334H408.139V129.471Z" fill="white"/>
<path fill-rule="evenodd" clip-rule="evenodd" d="M408.139 203.294H417.359V141.127H408.139V203.294Z" fill="white"/>
<path fill-rule="evenodd" clip-rule="evenodd" d="M506.161 129.471H515.35V117.334H506.161V129.471Z" fill="white"/>
<path fill-rule="evenodd" clip-rule="evenodd" d="M684.985 111.816L670.364 88.4431H653.382L669.944 111.816H684.985Z" fill="white"/>
<path fill-rule="evenodd" clip-rule="evenodd" d="M588.846 181.122C588.846 187.159 584.143 192.077 578.415 192.077C575.698 192.077 567.891 190.303 563.032 187.688V151.586C568.294 146.264 572.656 141.347 576.288 136.943V137.099C577.778 135.06 579.284 133.115 580.774 131.155L581.38 131.372C585.772 132.742 588.846 136.974 588.846 141.721V181.122ZM463.225 157.811C463.225 152.878 467.028 148.879 471.685 148.879C474.059 148.879 479.166 149.844 483.745 152.52V192.155C482.255 193.913 474.603 195.547 471.545 195.547C467.028 195.547 463.225 191.517 463.225 186.739V157.811ZM614.023 87.8632C599.075 99.5964 588.722 109.991 581.054 118.783C579.595 120.464 578.229 122.051 576.956 123.607V123.452C575.357 125.677 573.712 127.84 572.066 129.987C568.543 134.547 564.942 138.873 561.294 142.966C557.895 146.794 554.418 150.419 550.941 153.858C539.346 165.218 527.347 174.461 515.364 181.729V141.129H506.175V186.91C501.611 189.291 497.079 191.408 492.577 193.259V117.445H483.885V142.639C479.989 140.896 475.891 140.04 471.685 140.04C462.232 140.04 454.548 148.163 454.548 158.169V186.226C454.548 193.15 458.087 199.25 463.784 202.363C448.417 206.611 433.5 209.365 384.202 209.428C363.65 209.443 129.126 209.568 129.126 209.568V217.94L395.797 218.048C433.795 218.048 463.939 211.233 487.502 202.129C489.97 201.149 492.329 200.184 494.657 199.204C498.926 197.352 502.931 195.454 506.734 193.524C509.528 192.077 512.197 190.661 514.774 189.182C524.646 183.534 532.702 177.807 539.206 172.703C542.838 169.855 546.113 167.117 549.233 164.456V244.503H562.846V203.047C567.829 205.086 573.044 206.097 578.415 206.097C591.671 206.097 602.505 194.675 602.505 180.624V142.374C602.505 133.022 597.74 124.557 590.119 120.091C618.555 88.7191 652.657 71.5083 680.83 63.5721C732.301 49.0691 778.014 48.6333 778.014 48.6333L781.227 36.5267C702.608 35.5775 637.678 66.4043 614.023 87.8632Z" fill="white"/>
<path fill-rule="evenodd" clip-rule="evenodd" d="M617.782 204.446H632.093V118.548H617.782V204.446Z" fill="white"/>
<path fill-rule="evenodd" clip-rule="evenodd" d="M702.8 118.555H688.986V187.569C685.136 189.841 678.71 192.082 673.448 192.082C667.767 192.082 662.024 187.289 662.024 178.155V118.555H648.038V173.191C648.038 179.244 648.038 184.971 651.003 190.899C654.977 200.205 663.405 205.76 673.619 205.76C678.291 205.76 685.866 204.624 692.494 201.512L697.787 206.819L707.674 196.89L702.8 192.393V118.555Z" fill="white"/>
<path fill-rule="evenodd" clip-rule="evenodd" d="M617.782 111.842H632.093V97.043H617.782V111.842Z" fill="white"/>
<path fill-rule="evenodd" clip-rule="evenodd" d="M69.2754 88.8757C49.7951 88.8757 33.2174 95.3336 19.9615 108.032C6.70557 120.714 0 136.571 0 155.182C0 166.884 2.94921 177.933 8.72345 188.001C14.4977 198.069 22.445 206.067 32.3792 211.809C42.2513 217.52 54.5604 220.43 68.9028 220.43C86.1014 220.43 101.546 216.914 114.802 209.958V194.77C100.273 203.391 85.2321 207.732 70.036 207.732C54.0637 207.732 40.7301 202.768 30.4234 192.949C20.1012 183.115 14.8547 170.417 14.8547 155.182C14.8547 140.072 20.1788 127.312 30.6873 117.259C41.1337 107.207 54.4362 102.118 70.2222 102.118C84.2542 102.118 98.7364 106.055 113.374 113.805V99.0372C97.2308 92.2836 82.4071 88.8757 69.2754 88.8757Z" fill="white"/>
<path d="M128.62 80.8738C128.62 97.0051 145.676 108.23 170.042 108.176C178.295 108.222 186.483 106.733 194.192 103.787L201.123 100.742L199.764 99.8726L195.401 97.1546L194.966 97.3449C188.097 100.961 180.455 102.863 172.692 102.89C154.591 102.89 142.89 94.1512 142.794 80.4661C142.794 66.4685 154.156 58.1106 173.331 58.0835C180.461 57.798 187.514 59.6534 193.58 63.4107L194.939 64.2397V55.3655L194.273 55.216C187.621 53.4736 180.764 52.637 173.888 52.729C147.238 52.729 128.634 64.3348 128.661 80.8602" fill="white"/>
<path d="M211.695 80.4111C211.695 65.0816 219.51 57.6071 235.682 57.5663C251.854 57.5256 259.804 64.9729 259.804 80.248C259.804 95.5231 252.003 103.066 235.804 103.093C219.605 103.12 211.736 95.7134 211.695 80.4111ZM197.63 80.4111C197.63 98.2683 211.22 108.08 235.777 108.026C260.334 107.972 273.992 98.1188 273.951 80.2616C273.91 62.4044 260.361 52.5516 235.668 52.5924C210.975 52.6332 197.616 62.5267 197.616 80.4111" fill="white"/>
<path d="M276.357 67.2702C276.357 70.5861 278.422 75.2475 288.221 78.8352C291.086 79.9016 294.007 80.8089 296.973 81.5532L304.039 83.551C314.667 86.4456 319.41 89.3946 319.423 93.1863C319.423 98.6222 311.133 102.699 300.098 102.781C292.338 102.781 286.033 101.245 277.552 97.3448L276.289 96.7876V104.48L277.376 104.697C284.748 106.882 292.395 107.999 300.085 108.013C318.988 108.013 332.157 101.367 332.13 91.9088C332.13 86.7446 327.849 82.3958 319.763 79.406C316.902 78.3416 313.985 77.4342 311.025 76.688L301.824 74.0788C291.197 71.1026 289.24 69.0912 289.226 66.115C289.226 61.4537 296.538 57.9611 306.159 57.8795C312.75 57.8795 318.105 59.1026 325.865 62.5001L327.074 63.0165V55.4333L326.191 55.1751C319.859 53.5999 313.364 52.7743 306.839 52.7153C289.702 52.7153 276.343 59.1841 276.357 67.4061" fill="white"/>
<path d="M566.258 17.435C506.462 17.3127 457.946 41.897 436.718 58.599C422.415 69.6023 409.602 82.4161 398.598 96.7189C397.96 92.9273 391.165 53.1087 391.165 53.1087H381.271L380.972 53.5164C380.157 54.7803 358.807 91.0655 353.52 99.9397C352.651 96.0122 343.097 53.1766 343.097 53.1766H330.975L344.402 107.305H355.708L355.967 106.898C356.796 105.688 376.433 73.1267 381.529 64.7009L389.683 107.251H399.781L400.025 106.884C423.18 72.8564 457.498 47.9895 497.044 36.5833C518.597 30.4107 540.984 27.6593 563.39 28.4293L566.258 17.435Z" fill="white"/>
<path d="M485.003 57.4442C490.589 57.4442 495.549 57.6616 499.857 61.5212C500.469 62.1106 500.954 62.818 501.283 63.6007C501.612 64.3833 501.779 65.2247 501.773 66.0738C501.766 66.6494 501.703 67.223 501.583 67.7862C501.094 69.7023 499.789 70.6264 496.147 71.5506L453.257 81.0635C453.596 78.5465 454.302 76.0925 455.35 73.7793C459.115 65.7748 470.503 57.5801 484.963 57.4714M440.551 79.5007C438.947 85.8336 439.898 91.4735 443.269 96.1348C448.705 103.582 460.664 108.012 475.409 107.985C486.451 108.066 497.364 105.606 507.305 100.796L508.283 100.334L506.285 95.0204L505.783 95.3602C498.322 99.2469 490.385 101.285 480.029 101.911C467.799 102.672 454.929 98.35 453.638 87.0295L515.295 73.0862V72.1213C515.331 67.6711 513.818 63.3471 511.015 59.8904C506.435 55.0252 497.724 52.3344 486.444 52.3615C463.722 52.3615 444.315 63.8179 440.442 79.5415" fill="white"/>
<path d="M541.198 34.8179H529.307L529.239 35.5925C529.058 37.8866 528.676 40.1603 528.097 42.3875C527.691 44.6102 527.169 46.8102 526.534 48.9786L515.295 91.3793C514.385 94.6681 512.482 101.395 510.783 105.649L510.335 106.845H523.925L524.074 106.138C524.931 101.857 526.616 93.7847 527.526 90.2785L542.38 34.8451L541.198 34.8179Z" fill="white"/>
<path d="M560.36 34.7764H548.455V35.5374C548.257 37.8562 547.876 40.1556 547.314 42.4139C546.974 44.4117 546.498 46.124 545.723 48.9915L534.444 91.2835C533.56 94.5994 531.617 101.34 529.973 105.553L529.497 106.749H543.087L543.209 106.042C544.066 101.775 545.778 93.6889 546.716 90.1827L561.501 34.7764H560.36Z" fill="white"/>
<path d="M570.62 0C511.314 3.08492 461.561 24.4619 436.718 44.6295C411.604 65.0144 402.743 84.7063 402.635 84.8829L404.32 82.9124C429.88 52.6093 463.978 30.7108 502.168 20.0724C534.145 11.0486 567.712 11.0079 567.712 11.0079L570.62 0Z" fill="white"/>
</svg>
