<svg width="787" height="244" viewBox="0 0 787 244" fill="none" xmlns="http://www.w3.org/2000/svg">
<path fill-rule="evenodd" clip-rule="evenodd" d="M786.098 13.1943C721.433 14.0813 653.384 36.863 614.066 68.39C586.126 90.7982 576.379 112.724 576.285 112.957L578.164 110.779C613.958 68.8724 655.2 51.5372 686.555 41.2979C734.86 25.5188 782.854 25.4099 782.854 25.4099L786.098 13.1943Z" fill="white"/>
<path fill-rule="evenodd" clip-rule="evenodd" d="M137.36 151.102C141.365 148.519 146.394 147.601 149.561 147.601C154.14 147.601 158.02 151.631 158.02 156.424V202.018H166.713V156.766C166.713 146.76 159.014 138.606 149.561 138.606H148.459C145.572 138.606 142.017 138.933 137.36 141.174V116.043H128.544V202.018H137.36V151.102Z" fill="white"/>
<path fill-rule="evenodd" clip-rule="evenodd" d="M179.919 202.017H189.108V139.85H179.919V202.017Z" fill="white"/>
<path fill-rule="evenodd" clip-rule="evenodd" d="M179.919 128.194H189.108V116.056H179.919V128.194Z" fill="white"/>
<path fill-rule="evenodd" clip-rule="evenodd" d="M210.675 156.273C210.675 150.64 215.751 147.59 220.532 147.59C224.785 147.59 231.909 148.711 231.909 156.273V161.3C231.909 166.248 227.951 170.59 223.481 170.59L210.675 170.465V156.273ZM221.897 203.113C223.636 203.113 239.593 199.938 240.26 199.814L240.85 199.674L238.63 190.492L238.072 190.632C231.956 192.08 222.612 194.243 221.897 194.274C216.434 194.274 211.699 190.43 210.675 185.155V179.755C212.786 179.973 214.788 180.035 216.915 180.035C232.328 180.035 240.835 173.204 240.835 160.802V156.88C240.835 146.641 233.089 138.611 223.217 138.611H219.212C209.325 138.611 201.595 146.641 201.595 156.88V183.148C201.595 194.336 210.489 203.113 221.897 203.113Z" fill="white"/>
<path fill-rule="evenodd" clip-rule="evenodd" d="M259.823 156.535C259.823 151.586 263.61 147.587 268.267 147.587C270.626 147.587 275.749 148.567 280.343 151.228V190.894C278.853 192.652 271.17 194.286 268.127 194.286C263.642 194.286 259.823 190.225 259.823 185.448V156.535ZM268.267 203.125C270.89 203.125 277.161 202.44 282.377 199.935L286.149 203.701L292.466 197.523L289.16 194.364V116.153H280.468V141.363C276.587 139.604 272.489 138.748 268.267 138.748C258.814 138.748 251.131 146.887 251.131 156.877V184.965C251.131 195.142 258.659 203.125 268.267 203.125Z" fill="white"/>
<path fill-rule="evenodd" clip-rule="evenodd" d="M302.761 202.017H311.934V139.85H302.761V202.017Z" fill="white"/>
<path fill-rule="evenodd" clip-rule="evenodd" d="M302.761 128.194H311.934V116.056H302.761V128.194Z" fill="white"/>
<path fill-rule="evenodd" clip-rule="evenodd" d="M325.642 202.016H334.443V151.1C337.268 149.263 342.841 147.598 345.309 147.598C350.276 147.598 355.802 151.131 355.802 155.924V202.016H364.758V162.257C364.758 152.531 369.073 147.598 377.579 147.598C385.511 147.598 386.132 155.924 386.132 158.476V202.016H395.088V158.476C395.088 150.493 390.509 138.604 377.952 138.604C372.876 138.604 365.891 140.004 360.831 146.462C357.835 141.592 351.719 138.604 344.579 138.604C340.869 138.604 336.756 139.771 332.41 142.027L328.654 138.137L322.32 144.315L325.642 147.489V202.016Z" fill="white"/>
<path fill-rule="evenodd" clip-rule="evenodd" d="M408.139 128.194H417.359V116.056H408.139V128.194Z" fill="white"/>
<path fill-rule="evenodd" clip-rule="evenodd" d="M408.139 202.017H417.359V139.85H408.139V202.017Z" fill="white"/>
<path fill-rule="evenodd" clip-rule="evenodd" d="M506.161 128.194H515.35V116.056H506.161V128.194Z" fill="white"/>
<path fill-rule="evenodd" clip-rule="evenodd" d="M684.985 110.539L670.364 87.1658H653.382L669.944 110.539H684.985Z" fill="white"/>
<path fill-rule="evenodd" clip-rule="evenodd" d="M588.846 179.844C588.846 185.882 584.143 190.799 578.415 190.799C575.698 190.799 567.891 189.025 563.032 186.411V150.309C568.294 144.987 572.656 140.07 576.288 135.666V135.822C577.778 133.783 579.284 131.838 580.774 129.877L581.38 130.095C585.772 131.464 588.846 135.697 588.846 140.443V179.844ZM463.225 156.534C463.225 151.601 467.028 147.601 471.685 147.601C474.059 147.601 479.166 148.566 483.745 151.243V190.877C482.255 192.636 474.603 194.27 471.545 194.27C467.028 194.27 463.225 190.239 463.225 185.462V156.534ZM614.023 86.5859C599.075 98.319 588.722 108.714 581.054 117.506C579.595 119.187 578.229 120.774 576.956 122.33V122.174C575.357 124.4 573.712 126.563 572.066 128.71C568.543 133.27 564.942 137.596 561.294 141.688C557.895 145.516 554.418 149.142 550.941 152.581C539.346 163.941 527.347 173.184 515.364 180.451V139.852H506.175V185.633C501.611 188.014 497.079 190.13 492.577 191.982V116.168H483.885V141.361C479.989 139.619 475.891 138.763 471.685 138.763C462.232 138.763 454.548 146.886 454.548 156.891V184.948C454.548 191.873 458.087 197.973 463.784 201.085C448.417 205.334 433.5 208.088 384.202 208.15C363.65 208.166 129.126 208.29 129.126 208.29V216.662L395.797 216.771C433.795 216.771 463.939 209.955 487.502 200.852C489.97 199.872 492.329 198.907 494.657 197.926C498.926 196.075 502.931 194.176 506.734 192.247C509.528 190.799 512.197 189.383 514.774 187.905C524.646 182.256 532.702 176.53 539.206 171.426C542.838 168.578 546.113 165.839 549.233 163.178V243.225H562.846V201.77C567.829 203.809 573.044 204.82 578.415 204.82C591.671 204.82 602.505 193.398 602.505 179.346V141.097C602.505 131.745 597.74 123.279 590.119 118.813C618.555 87.4417 652.657 70.231 680.83 62.2948C732.301 47.7917 778.014 47.356 778.014 47.356L781.227 35.2494C702.608 34.3001 637.678 65.1269 614.023 86.5859Z" fill="white"/>
<path fill-rule="evenodd" clip-rule="evenodd" d="M617.782 203.169H632.093V117.271H617.782V203.169Z" fill="white"/>
<path fill-rule="evenodd" clip-rule="evenodd" d="M702.8 117.278H688.986V186.292C685.136 188.564 678.71 190.805 673.448 190.805C667.767 190.805 662.024 186.012 662.024 176.877V117.278H648.038V171.913C648.038 177.967 648.038 183.693 651.003 189.622C654.977 198.928 663.405 204.483 673.619 204.483C678.291 204.483 685.866 203.347 692.494 200.235L697.787 205.541L707.674 195.613L702.8 191.116V117.278Z" fill="white"/>
<path fill-rule="evenodd" clip-rule="evenodd" d="M617.782 110.564H632.093V95.7657H617.782V110.564Z" fill="white"/>
<path fill-rule="evenodd" clip-rule="evenodd" d="M69.2754 87.5984C49.7951 87.5984 33.2174 94.0563 19.9615 106.754C6.70557 119.437 0 135.294 0 153.905C0 165.607 2.94921 176.655 8.72345 186.723C14.4977 196.792 22.445 204.79 32.3792 210.532C42.2513 216.243 54.5604 219.153 68.9028 219.153C86.1014 219.153 101.546 215.636 114.802 208.68V193.493C100.273 202.113 85.2321 206.455 70.036 206.455C54.0637 206.455 40.7301 201.491 30.4234 191.672C20.1012 181.837 14.8547 169.139 14.8547 153.905C14.8547 138.795 20.1788 126.035 30.6873 115.982C41.1337 105.93 54.4362 100.841 70.2222 100.841C84.2542 100.841 98.7364 104.778 113.374 112.527V97.7599C97.2308 91.0063 82.4071 87.5984 69.2754 87.5984Z" fill="white"/>
<g clip-path="url(#clip0_2005_117)">
<path d="M150 78.3155C150 89.3494 161.555 97.0276 178.064 96.9905C183.655 97.0218 189.203 96.0037 194.425 93.988L199.121 91.9058L198.2 91.3108L195.244 89.4517L194.95 89.5818C190.296 92.0554 185.118 93.3566 179.859 93.3745C167.595 93.3745 159.668 87.3974 159.603 78.0366C159.603 68.4621 167.3 62.7453 180.292 62.7267C185.122 62.5315 189.9 63.8006 194.011 66.3706L194.931 66.9377V60.8676L194.48 60.7654C189.973 59.5735 185.328 59.0013 180.669 59.0642C162.614 59.0642 150.009 67.0027 150.028 78.3062" fill="white"/>
<path d="M206.284 77.9999C206.284 67.5145 211.578 62.4019 222.535 62.374C233.491 62.3461 238.877 67.4401 238.877 77.8884C238.877 88.3367 233.592 93.4958 222.617 93.5144C211.642 93.533 206.311 88.4668 206.284 77.9999ZM196.754 77.9999C196.754 90.2144 205.962 96.9259 222.599 96.8887C239.236 96.8515 248.49 90.1122 248.462 77.8977C248.434 65.6832 239.255 58.9439 222.525 58.9718C205.796 58.9997 196.745 65.7669 196.745 77.9999" fill="white"/>
<path d="M250.092 69.0113C250.092 71.2794 251.491 74.4678 258.13 76.9219C260.071 77.6512 262.05 78.2719 264.059 78.781L268.847 80.1475C276.047 82.1274 279.26 84.1446 279.27 86.7381C279.27 90.4563 273.653 93.245 266.177 93.3008C260.92 93.3008 256.647 92.2504 250.902 89.5825L250.046 89.2014V94.4628L250.782 94.6115C255.777 96.1062 260.958 96.87 266.168 96.8796C278.975 96.8796 287.897 92.3341 287.878 85.8643C287.878 82.3319 284.978 79.3573 279.5 77.3123C277.561 76.5842 275.585 75.9636 273.58 75.4532L267.346 73.6684C260.146 71.6327 258.82 70.2569 258.811 68.2212C258.811 65.0328 263.765 62.6438 270.283 62.588C274.749 62.588 278.377 63.4246 283.634 65.7485L284.453 66.1018V60.9148L283.855 60.7382C279.565 59.6607 275.164 59.096 270.744 59.0557C259.133 59.0557 250.083 63.4804 250.092 69.1042" fill="white"/>
<path d="M446.5 34.9241C405.989 34.8405 373.119 51.6563 358.737 63.0806C349.047 70.607 340.366 79.3717 332.911 89.1549C332.478 86.5614 327.875 59.3252 327.875 59.3252H321.172L320.969 59.6041C320.417 60.4686 305.952 85.2879 302.371 91.358C301.781 88.6715 295.309 59.3717 295.309 59.3717H287.096L296.192 96.3962H303.853L304.028 96.1173C304.589 95.29 317.894 73.0177 321.347 67.2544L326.871 96.359H333.712L333.878 96.108C349.565 72.8328 372.815 55.8236 399.608 48.0217C414.21 43.7996 429.378 41.9176 444.558 42.4443L446.5 34.9241Z" fill="white"/>
<path d="M391.45 62.2902C395.235 62.2902 398.595 62.4389 401.514 65.0789C401.928 65.482 402.257 65.966 402.48 66.5013C402.703 67.0366 402.816 67.6121 402.812 68.1929C402.807 68.5866 402.764 68.979 402.683 69.3642C402.352 70.6749 401.468 71.307 399 71.9391L369.942 78.446C370.172 76.7243 370.65 75.0458 371.36 73.4635C373.911 67.9884 381.626 62.3831 391.423 62.3088M361.334 77.377C360.247 81.7088 360.892 85.5665 363.175 88.7549C366.858 93.8489 374.96 96.8793 384.95 96.8607C392.431 96.9156 399.825 95.2331 406.56 91.9433L407.222 91.6272L405.869 87.9926L405.528 88.225C400.474 90.8836 395.097 92.2779 388.081 92.7055C379.794 93.2261 371.075 90.2701 370.2 82.5268L411.973 72.9895V72.3295C411.998 69.2855 410.972 66.3278 409.073 63.9634C405.97 60.6356 400.068 58.795 392.426 58.8136C377.032 58.8136 363.884 66.6498 361.26 77.4049" fill="white"/>
<path d="M429.522 46.8125H421.466L421.42 47.3424C421.298 48.9115 421.039 50.4668 420.647 51.9902C420.372 53.5105 420.018 55.0154 419.588 56.4986L411.973 85.501C411.357 87.7505 410.068 92.3518 408.917 95.2614L408.613 96.0794H417.82L417.921 95.596C418.501 92.6679 419.643 87.1463 420.26 84.748L430.323 46.8311L429.522 46.8125Z" fill="white"/>
<path d="M442.504 46.7852H434.439V47.3057C434.305 48.8918 434.046 50.4646 433.665 52.0093C433.435 53.3758 433.113 54.547 432.588 56.5084L424.946 85.4364C424.348 87.7046 423.031 92.3152 421.917 95.1968L421.595 96.0149H430.802L430.885 95.5315C431.465 92.6127 432.625 87.0818 433.26 84.6835L443.278 46.7852H442.504Z" fill="white"/>
<path d="M449.456 22.9971C409.276 25.1072 375.568 39.7292 358.737 53.5239C341.722 67.4674 335.719 80.9368 335.646 81.0576L336.787 79.7098C354.104 58.9822 377.206 44.0035 403.079 36.7267C424.744 30.5544 447.486 30.5265 447.486 30.5265L449.456 22.9971Z" fill="white"/>
<path d="M445.175 87.9366L459.188 23.1553H469.058L483.329 87.8436C483.567 88.8963 483.569 89.9894 483.333 91.0427C483.098 92.096 482.632 93.0828 481.97 93.9306C481.308 94.7784 480.466 95.4657 479.506 95.9421C478.547 96.4186 477.493 96.672 476.424 96.6838L452.273 96.7303C451.191 96.752 450.118 96.5245 449.136 96.0651C448.154 95.6057 447.288 94.9264 446.605 94.0788C445.921 93.2311 445.438 92.2375 445.192 91.1733C444.946 90.109 444.943 89.0021 445.184 87.9366" fill="#4CC8F2"/>
<path d="M575.798 87.6859L561.536 22.9883L468.856 23.1556H459.188L445.175 87.8997C444.931 88.9557 444.927 90.0538 445.165 91.1112C445.402 92.1687 445.874 93.158 446.545 94.0046C447.216 94.8512 448.069 95.533 449.039 95.9988C450.009 96.4645 451.071 96.702 452.144 96.6934L490.916 96.619H497.168L524.615 96.5726L568.864 96.4796C569.935 96.4826 570.993 96.2409 571.958 95.7728C572.923 95.3046 573.771 94.622 574.438 93.7761C575.105 92.9302 575.574 91.943 575.809 90.8883C576.045 89.8336 576.041 88.7388 575.798 87.6859Z" fill="#4CC8F2"/>
<path d="M483.237 87.8622L468.966 23.1553H464.261L464.362 76.9306L446.721 94.2111C447.377 95.009 448.21 95.6395 449.152 96.0514C450.094 96.4632 451.119 96.6449 452.144 96.5815H464.399V96.6931H476.304C477.375 96.6851 478.43 96.4349 479.392 95.9608C480.355 95.4867 481.2 94.8008 481.865 93.9536C482.53 93.1063 482.998 92.1194 483.236 91.0652C483.473 90.011 483.474 88.9165 483.237 87.8622Z" fill="#224498"/>
<path d="M553.387 53.4868C554.142 56.7403 553.921 58.6831 551.233 58.6831H548.415L546.003 48.2534H548.82C551.509 48.2534 552.641 50.2426 553.424 53.4961M558.442 53.4961C556.886 46.7568 553.765 43.6892 547.983 43.6985H539.972L547.32 75.8707H552.338L549.428 63.2658H552.43C558.203 63.2658 559.924 60.2261 558.368 53.4961M536.759 59.8171C538.122 65.7385 538.72 68.899 538.14 70.4885C537.96 70.8956 537.655 71.2337 537.271 71.4529C536.886 71.6721 536.442 71.7609 536.004 71.7063C535.501 71.7176 535.001 71.615 534.542 71.4058C534.083 71.1967 533.677 70.8864 533.352 70.4978C532.045 68.9176 531.143 65.7478 529.771 59.8357C528.399 53.9237 527.856 50.7446 528.436 49.1643C528.606 48.7592 528.901 48.4207 529.278 48.1995C529.655 47.9783 530.093 47.8863 530.526 47.9373C531.036 47.9274 531.543 48.0314 532.009 48.2419C532.476 48.4524 532.89 48.7642 533.223 49.155C534.531 50.7353 535.396 53.8958 536.759 59.8171ZM541.777 59.8171C540.009 52.1854 539.015 48.6624 536.253 46.134C535.354 45.2369 534.289 44.5286 533.118 44.0499C531.947 43.5712 530.693 43.3317 529.43 43.3453C526.438 43.3453 524.826 44.5351 523.906 46.134C522.377 48.6252 522.985 52.2412 524.744 59.8357C526.502 67.4303 527.506 70.9905 530.222 73.5189C531.118 74.4181 532.184 75.1278 533.355 75.6066C534.527 76.0854 535.781 76.3237 537.044 76.3076C540.046 76.3076 541.648 75.1271 542.569 73.5189C544.134 70.9905 543.489 67.4674 541.74 59.8264M526.594 75.9544L519.173 43.7729H514.155L517.286 57.3259H511.135L508.005 43.7729H502.996L510.417 75.9451H515.435L512.185 61.8901H518.409L521.659 75.9451L526.594 75.9544ZM506.587 67.0863C505.335 61.6577 503.825 59.6498 499.663 58.0603L495.547 56.5265C493.071 55.6713 492.509 54.8161 491.865 52.1947C491.524 50.7446 491.551 49.7128 491.984 49.0342C492.195 48.7168 492.487 48.4629 492.829 48.2993C493.171 48.1356 493.55 48.0684 493.927 48.1046C494.377 48.0856 494.827 48.1581 495.249 48.3178C495.672 48.4775 496.058 48.7211 496.385 49.0342C497.222 50.004 497.759 51.1995 497.932 52.4736H502.95C502.241 49.3967 501.109 47.0914 499.092 45.474C497.316 44.1283 495.133 43.4451 492.914 43.5405C491.988 43.4819 491.06 43.626 490.194 43.9629C489.328 44.2998 488.544 44.8216 487.896 45.4926C486.515 47.0821 486.211 49.4339 486.874 52.3249C488.016 57.2515 489.636 59.1014 493.181 60.4028L497.352 61.9737C500.114 62.9033 500.786 63.8329 501.569 67.2537C501.974 69.0198 502.039 70.0423 501.569 70.8325C501.313 71.1682 500.974 71.4305 500.586 71.5935C500.199 71.7565 499.776 71.8146 499.359 71.762C498.443 71.7947 497.547 71.4909 496.836 70.9068C495.886 69.9268 495.278 68.6605 495.105 67.3001H490.088C490.879 70.7302 491.809 72.6265 493.77 74.2068C495.679 75.676 498.038 76.4227 500.436 76.3169C503.309 76.3169 505.169 75.4524 506.173 74.1882C507.425 72.5986 507.36 70.3863 506.596 67.0863" fill="white"/>
<path d="M482.786 23.1552C482.786 23.1552 487.602 3.49496 507.959 0.325144C524.016 -2.17538 530.277 10.9687 530.277 10.9687C530.277 10.9687 524.55 1.77526 511.973 3.63439C495.133 6.06985 490.005 23.1552 490.005 23.1552H482.786Z" fill="white"/>
<path d="M495.501 23.1559C495.501 23.1559 499.598 8.28284 513.335 6.60963C531.796 4.37867 533.914 23.0815 533.914 23.0815H533.223C532.376 18.2942 528.067 8.91495 517.027 9.84451C504.358 10.867 501.596 23.1559 501.596 23.1559H495.501Z" fill="white"/>
</g>
<defs>
<clipPath id="clip0_2005_117">
<rect width="426" height="97" fill="white" transform="translate(150)"/>
</clipPath>
</defs>
</svg>
