<svg width="787" height="231" viewBox="0 0 787 231" fill="none" xmlns="http://www.w3.org/2000/svg">
<path fill-rule="evenodd" clip-rule="evenodd" d="M786.098 0C721.433 0.88699 653.384 23.6686 614.066 55.1957C586.126 77.6038 576.379 99.5296 576.285 99.763L578.164 97.5845C613.958 55.6781 655.2 38.3429 686.555 28.1036C734.86 12.3245 782.854 12.2156 782.854 12.2156L786.098 0Z" fill="white"/>
<path fill-rule="evenodd" clip-rule="evenodd" d="M137.36 137.908C141.365 135.325 146.394 134.406 149.561 134.406C154.14 134.406 158.02 138.437 158.02 143.23V188.824H166.713V143.572C166.713 133.566 159.014 125.412 149.561 125.412H148.459C145.572 125.412 142.017 125.739 137.36 127.98V102.848H128.544V188.824H137.36V137.908Z" fill="white"/>
<path fill-rule="evenodd" clip-rule="evenodd" d="M179.919 188.822H189.108V126.655H179.919V188.822Z" fill="white"/>
<path fill-rule="evenodd" clip-rule="evenodd" d="M179.919 115H189.108V102.862H179.919V115Z" fill="white"/>
<path fill-rule="evenodd" clip-rule="evenodd" d="M210.675 143.079C210.675 137.446 215.751 134.396 220.532 134.396C224.785 134.396 231.909 135.516 231.909 143.079V148.105C231.909 153.054 227.951 157.395 223.481 157.395L210.675 157.271V143.079ZM221.897 189.918C223.636 189.918 239.593 186.744 240.26 186.619L240.85 186.479L238.63 177.298L238.072 177.438C231.956 178.885 222.612 181.048 221.897 181.079C216.434 181.079 211.699 177.236 210.675 171.961V166.561C212.786 166.779 214.788 166.841 216.915 166.841C232.328 166.841 240.835 160.01 240.835 147.607V143.686C240.835 133.447 233.089 125.417 223.217 125.417H219.212C209.325 125.417 201.595 133.447 201.595 143.686V169.953C201.595 181.142 210.489 189.918 221.897 189.918Z" fill="white"/>
<path fill-rule="evenodd" clip-rule="evenodd" d="M259.823 143.34C259.823 138.392 263.61 134.393 268.267 134.393C270.626 134.393 275.749 135.373 280.343 138.034V177.7C278.853 179.458 271.17 181.092 268.127 181.092C263.642 181.092 259.823 177.03 259.823 172.253V143.34ZM268.267 189.931C270.89 189.931 277.161 189.246 282.377 186.741L286.149 190.506L292.466 184.329L289.16 181.17V102.959H280.468V128.168C276.587 126.41 272.489 125.554 268.267 125.554C258.814 125.554 251.131 133.692 251.131 143.683V171.771C251.131 181.948 258.659 189.931 268.267 189.931Z" fill="white"/>
<path fill-rule="evenodd" clip-rule="evenodd" d="M302.761 188.822H311.934V126.655H302.761V188.822Z" fill="white"/>
<path fill-rule="evenodd" clip-rule="evenodd" d="M302.761 115H311.934V102.862H302.761V115Z" fill="white"/>
<path fill-rule="evenodd" clip-rule="evenodd" d="M325.642 188.822H334.443V137.905C337.268 136.069 342.841 134.404 345.309 134.404C350.276 134.404 355.802 137.936 355.802 142.729V188.822H364.758V149.063C364.758 139.337 369.073 134.404 377.579 134.404C385.511 134.404 386.132 142.729 386.132 145.281V188.822H395.088V145.281C395.088 137.298 390.509 125.41 377.952 125.41C372.876 125.41 365.891 126.81 360.831 133.268C357.835 128.397 351.719 125.41 344.579 125.41C340.869 125.41 336.756 126.577 332.41 128.833L328.654 124.943L322.32 131.121L325.642 134.295V188.822Z" fill="white"/>
<path fill-rule="evenodd" clip-rule="evenodd" d="M408.139 115H417.359V102.862H408.139V115Z" fill="white"/>
<path fill-rule="evenodd" clip-rule="evenodd" d="M408.139 188.822H417.359V126.655H408.139V188.822Z" fill="white"/>
<path fill-rule="evenodd" clip-rule="evenodd" d="M506.161 115H515.35V102.862H506.161V115Z" fill="white"/>
<path fill-rule="evenodd" clip-rule="evenodd" d="M684.985 97.3444L670.364 73.9714H653.382L669.944 97.3444H684.985Z" fill="white"/>
<path fill-rule="evenodd" clip-rule="evenodd" d="M588.846 166.65C588.846 172.688 584.143 177.605 578.415 177.605C575.698 177.605 567.891 175.831 563.032 173.217V137.115C568.294 131.793 572.656 126.875 576.288 122.472V122.627C577.778 120.589 579.284 118.644 580.774 116.683L581.38 116.901C585.772 118.27 588.846 122.503 588.846 127.249V166.65ZM463.225 143.339C463.225 138.406 467.028 134.407 471.685 134.407C474.059 134.407 479.166 135.372 483.745 138.048V177.683C482.255 179.441 474.603 181.075 471.545 181.075C467.028 181.075 463.225 177.045 463.225 172.268V143.339ZM614.023 73.3915C599.075 85.1247 588.722 95.5196 581.054 104.312C579.595 105.992 578.229 107.58 576.956 109.136V108.98C575.357 111.205 573.712 113.368 572.066 115.516C568.543 120.075 564.942 124.401 561.294 128.494C557.895 132.322 554.418 135.948 550.941 139.387C539.346 150.746 527.347 159.99 515.364 167.257V126.658H506.175V172.439C501.611 174.82 497.079 176.936 492.577 178.788V102.973H483.885V128.167C479.989 126.424 475.891 125.568 471.685 125.568C462.232 125.568 454.548 133.691 454.548 143.697V171.754C454.548 178.679 458.087 184.779 463.784 187.891C448.417 192.139 433.5 194.894 384.202 194.956C363.65 194.971 129.126 195.096 129.126 195.096V203.468L395.797 203.577C433.795 203.577 463.939 196.761 487.502 187.658C489.97 186.677 492.329 185.712 494.657 184.732C498.926 182.88 502.931 180.982 506.734 179.052C509.528 177.605 512.197 176.189 514.774 174.711C524.646 169.062 532.702 163.335 539.206 158.231C542.838 155.384 546.113 152.645 549.233 149.984V230.031H562.846V188.576C567.829 190.614 573.044 191.626 578.415 191.626C591.671 191.626 602.505 180.204 602.505 166.152V127.903C602.505 118.55 597.74 110.085 590.119 105.619C618.555 74.2474 652.657 57.0367 680.83 49.1004C732.301 34.5974 778.014 34.1617 778.014 34.1617L781.227 22.055C702.608 21.1058 637.678 51.9326 614.023 73.3915Z" fill="white"/>
<path fill-rule="evenodd" clip-rule="evenodd" d="M617.782 189.975H632.093V104.077H617.782V189.975Z" fill="white"/>
<path fill-rule="evenodd" clip-rule="evenodd" d="M702.8 104.084H688.986V173.098C685.136 175.37 678.71 177.61 673.448 177.61C667.767 177.61 662.024 172.818 662.024 163.683V104.084H648.038V158.719C648.038 164.772 648.038 170.499 651.003 176.428C654.977 185.733 663.405 191.289 673.619 191.289C678.291 191.289 685.866 190.153 692.494 187.04L697.787 192.347L707.674 182.419L702.8 177.922V104.084Z" fill="white"/>
<path fill-rule="evenodd" clip-rule="evenodd" d="M617.782 97.3701H632.093V82.5713H617.782V97.3701Z" fill="white"/>
<path fill-rule="evenodd" clip-rule="evenodd" d="M69.2754 74.4041C49.7951 74.4041 33.2174 80.862 19.9615 93.5599C6.70557 106.242 0 122.099 0 140.71C0 152.412 2.94921 163.461 8.72345 173.529C14.4977 183.597 22.445 191.596 32.3792 197.338C42.2513 203.049 54.5604 205.959 68.9028 205.959C86.1014 205.959 101.546 202.442 114.802 195.486V180.298C100.273 188.919 85.2321 193.261 70.036 193.261C54.0637 193.261 40.7301 188.297 30.4234 178.478C20.1012 168.643 14.8547 155.945 14.8547 140.71C14.8547 125.6 20.1788 112.84 30.6873 102.788C41.1337 92.7352 54.4362 87.6466 70.2222 87.6466C84.2542 87.6466 98.7364 91.5836 113.374 99.3331V84.5655C97.2308 77.812 82.4071 74.4041 69.2754 74.4041Z" fill="white"/>
<path d="M152.524 1.66205C152.4 2.51386 152.213 3.46954 152.213 4.36289C152.213 5.25625 152.4 6.17038 152.524 7.02218C148.702 6.54434 144.401 6.04572 138.023 6.19115V19.633H144.567C147.393 19.633 149.99 19.3837 152.296 19.0513C152.171 19.9239 151.984 20.8588 151.984 21.7521C151.984 22.6247 152.171 23.5804 152.296 24.453C149.969 24.1413 147.393 23.892 144.567 23.892H138.044V39.7854C144.422 39.7231 148.722 39.3907 152.545 38.8921C152.42 39.7647 152.233 40.7203 152.233 41.5721C152.233 42.4239 152.42 43.4212 152.545 44.2522L128.591 44.2938L128.528 1.72438M162.351 27.1538C162.351 29.6677 162.684 32.4101 163.348 34.8616C165.717 42.9849 173.923 45.3325 181.548 45.3325C185.682 45.3325 190.024 44.4392 193.432 41.9877C199.955 37.5001 199.872 30.9765 200.08 23.8505L200.038 1.59973C199.207 1.72438 198.335 1.78671 197.504 1.78671C196.673 1.78671 195.821 1.72438 194.99 1.59973V20.5472C195.031 23.6012 195.031 30.7272 193.889 33.4904C191.686 38.9544 188.57 41.0735 182.732 41.0943C179.969 41.0943 177.58 40.2633 175.544 38.3935C173.279 36.212 172.781 34.2799 172.22 31.2259C171.659 27.9641 171.783 22.8325 171.783 19.4045V1.64128C170.163 1.76593 168.605 1.95291 167.026 1.95291C165.447 1.95291 163.889 1.76593 162.31 1.64128L162.351 27.133V27.1538ZM212.047 44.5015C213.605 44.3561 215.184 44.1483 216.742 44.1483C218.342 44.1483 219.879 44.3353 221.458 44.4807V24.3907H221.873C223.265 26.7591 225.031 29.6261 225.966 31.3297L233.466 44.4392C235.357 44.2938 237.247 44.086 239.117 44.086C240.987 44.086 242.961 44.273 244.81 44.4184L242.379 40.5334C238.577 34.7162 234.692 28.9821 231.243 22.9779C237.081 21.7106 241.029 17.8463 241.029 11.7175C241.029 7.45847 239.138 4.65375 235.544 2.78394C232.926 1.41275 228.335 1.5374 225.385 1.55818H211.984M221.396 4.94461C225.218 4.94461 229.955 4.446 230.952 9.63992C231.202 10.9488 231.264 11.8837 231.264 12.777C231.264 19.1967 228.023 22.3339 221.416 21.7106V4.94461H221.396ZM272.815 45.2079C288.21 45.2079 297.622 34.7993 297.559 22.6039C297.476 12.9225 292.178 0.353187 274.249 0.373962C258.605 0.373962 249.505 10.4709 249.526 22.9156C249.526 37.0846 258.896 45.2079 272.815 45.1871M259.955 24.7231C259.955 10.741 265.128 4.13436 273.875 4.11359C283.307 4.11359 287.068 13.3588 287.088 21.4405C287.088 31.8076 282.809 41.4475 273.127 41.4683C263.695 41.4683 259.976 32.8671 259.955 24.7231ZM339.588 36.6691C336.763 39.3699 332.255 41.3852 328.349 41.4059C318.667 41.4059 313.37 33.9059 313.37 23.2064C313.37 14.0236 317.545 4.07203 327.954 4.05126C332.068 4.05126 336.077 6.41969 338.425 9.78535H339.298C339.796 7.6039 340.17 5.48478 340.731 3.34488C337.054 1.35042 332.047 0.311635 327.892 0.311635C314.221 0.311635 302.919 7.79088 302.94 24.1206C302.94 36.9184 313.141 45.1663 326.583 45.1456C330.8 45.1456 335.267 44.3769 339.028 42.4447L340.399 37.0638M370.336 45.0625C385.752 45.0625 395.163 34.6538 395.101 22.4585C395.018 12.777 389.72 0.207757 371.812 0.228533C356.147 0.228533 347.047 10.3255 347.068 22.7701C347.068 36.9392 356.479 45.0625 370.336 45.0417M357.497 24.5984C357.497 10.6164 362.691 4.00971 371.438 3.98893C380.87 3.98893 384.63 13.2341 384.651 21.3159C384.651 31.6829 380.33 41.3228 370.669 41.3436C361.258 41.3436 357.518 32.7425 357.497 24.5984ZM424.229 9.36983C424.852 7.25071 425.496 5.19392 426.244 3.17868C424.852 1.86981 420.821 0.166205 416.292 0.166205C406.756 0.166205 401.791 6.12883 401.791 13.3172C401.791 28.3796 420.551 24.7231 420.551 34.7369C420.551 39.0583 417.103 41.2605 413.218 41.2605C408.875 41.2605 405.468 38.7051 404.533 34.4045H403.328C402.954 37.0846 402.269 39.7023 401.521 42.3201C404.471 44.1899 408.169 45.0001 411.659 45.0001C421.382 45.0001 428.301 39.2245 428.28 31.2466C428.28 16.9114 409.145 18.4904 409.125 10.0554C409.125 6.50279 411.057 3.9266 416.022 3.90583C419.616 3.90583 421.985 6.04572 423.252 9.34906M474.755 1.22577C470.018 11.9252 464.679 21.7314 460.15 30.6234C455.184 20.7965 450.198 11.0734 445.669 1.26732C444.776 1.41275 443.903 1.59973 443.031 1.59973C442.158 1.59973 441.327 1.41275 440.434 1.28809C438.315 17.0984 436.341 31.6206 434.118 44.1899C435.115 44.0652 435.988 43.8575 437.006 43.8575C437.982 43.8782 438.938 44.0444 439.935 44.1691C440.122 35.4225 441.119 26.7175 442.532 15.7272C447.331 25.5541 452.317 35.2148 456.348 43.8575C457.158 43.6497 457.906 43.712 458.716 43.8575C463.162 34.1552 467.878 24.5776 472.657 15C473.612 24.64 474.88 34.1968 475.399 44.1276C477.165 44.0029 478.744 43.8367 480.489 43.8367C482.234 43.8367 483.959 43.9821 485.704 44.1276C483.564 31.7037 482.11 18.0541 480.136 1.24654C479.243 1.37119 478.308 1.55818 477.435 1.55818C476.563 1.55818 475.669 1.37119 474.776 1.24654M494.284 1.20499L494.347 43.7951H518.301C518.176 42.9018 517.989 41.9253 517.989 41.0527C517.989 40.1802 518.155 39.2453 518.301 38.3727C514.478 38.8713 510.198 39.2037 503.779 39.266V23.3726H510.281C513.107 23.3726 515.704 23.622 518.031 23.9336C517.885 23.061 517.719 22.1261 517.719 21.2327C517.719 20.3602 517.885 19.4253 518.031 18.5319C515.704 18.8643 513.107 19.1136 510.281 19.1136H503.758V5.69254C510.178 5.54711 514.457 6.04572 518.28 6.52356C518.155 5.65099 517.968 4.73686 517.968 3.86428C517.968 2.9917 518.155 2.01524 518.28 1.16344M547.865 9.20363C548.488 7.08451 549.111 5.02772 549.859 3.01247C548.467 1.70361 544.437 0 539.908 0C530.392 0 525.406 5.96262 525.427 13.1718C525.427 28.2134 544.187 24.5776 544.187 34.5707C544.187 38.8921 540.739 41.0943 536.854 41.0943C532.532 41.0943 529.104 38.5389 528.169 34.2175H526.964C526.59 36.8976 525.926 39.5361 525.178 42.1539C528.107 44.0237 531.826 44.8339 535.275 44.8131C545.018 44.8131 551.937 39.0375 551.937 31.0596C551.916 16.7244 532.823 18.3034 532.802 9.86845C532.802 6.31581 534.714 3.73962 539.7 3.73962C543.273 3.73962 545.662 5.85874 546.93 9.18285M561.286 44.0237C562.844 43.8782 564.402 43.712 565.981 43.712C567.56 43.712 569.118 43.8782 570.697 44.0029L570.635 1.12189C569.056 1.24654 567.498 1.43352 565.919 1.43352C564.34 1.43352 562.782 1.24654 561.203 1.12189M128.591 81.9393C129.068 81.8977 129.588 81.8354 130.086 81.8354C130.544 81.8354 131.042 81.877 131.582 81.9393V70.4503H136.797C137.773 70.4503 138.771 70.575 139.789 70.6165C139.768 70.2426 139.685 69.9309 139.685 69.6816C139.685 69.37 139.747 69.0791 139.789 68.8091C138.771 68.8506 137.773 68.9753 136.797 68.9753H131.582V60.5611H134.159L137.545 60.6234C138.563 60.7065 139.56 60.7896 140.599 60.9766C140.557 60.6442 140.474 60.3118 140.474 59.9794C140.474 59.6262 140.537 59.3146 140.578 58.9614H128.57M148.265 61.8284C149.179 61.8284 149.969 61.0597 149.969 60.1248C149.969 59.1691 149.159 58.4212 148.265 58.4212C147.372 58.4212 146.541 59.1899 146.541 60.1456C146.541 61.0805 147.31 61.8492 148.265 61.8492M149.636 65.8589C149.096 65.8797 148.702 65.9836 148.286 65.9836C147.808 65.9836 147.372 65.9005 146.936 65.8589V81.9185C147.393 81.877 147.829 81.8146 148.307 81.8146C148.743 81.8146 149.138 81.877 149.657 81.9185V65.8589H149.636ZM156.7 81.8977C157.136 81.8562 157.573 81.7939 158.051 81.7939C158.487 81.7939 158.882 81.8562 159.401 81.8977V74.0861C159.401 69.9725 160.232 67.3755 163.805 67.3755C166.984 67.3755 167.566 69.8271 167.566 72.9434V81.877C168.002 81.8354 168.459 81.7731 168.916 81.7731C169.373 81.7731 169.747 81.8146 170.267 81.877V72.1747C170.267 67.7495 168.729 65.6304 164.803 65.6304C162.413 65.6304 160.564 66.8354 159.38 68.8922V65.8381C158.882 65.8589 158.466 65.9628 158.03 65.9628C157.552 65.9628 157.116 65.8797 156.679 65.8381M188.923 78.4074C188.03 79.28 186.222 80.7343 183.937 80.7343C179.844 80.7343 177.787 77.5141 178.078 73.7537H182.836C185.08 73.7537 187.386 73.7537 189.692 73.8368C190.045 68.2273 186.576 65.6096 182.836 65.6304C177.787 65.6304 175.107 69.2246 175.107 73.8991C175.107 79.1138 178.432 82.1678 183.106 82.1678C185.184 82.1678 187.261 81.3576 188.923 80.1734M178.078 72.5071C178.286 69.7024 179.657 66.6692 182.836 66.6692C186.015 66.6692 186.991 69.5778 187.053 72.4864H178.078V72.5071ZM205.461 81.8354C205.959 81.7939 206.437 81.7315 206.957 81.7315C207.434 81.7315 207.891 81.7939 208.452 81.8354V70.3465H213.667C214.685 70.3465 215.641 70.4711 216.68 70.5127C216.659 70.1387 216.596 69.8478 216.596 69.5778C216.596 69.2661 216.659 68.9545 216.68 68.6844C215.662 68.726 214.706 68.8506 213.667 68.8506H208.452V60.4365H211.049L214.436 60.4988C215.433 60.5819 216.451 60.665 217.469 60.852C217.427 60.5196 217.344 60.1872 217.344 59.8547C217.344 59.5016 217.427 59.1899 217.448 58.8367H205.461M223.12 81.8146C223.556 81.7731 223.993 81.7108 224.47 81.7108C224.907 81.7108 225.301 81.7731 225.821 81.8146V73.1096C225.821 71.3021 225.883 70.201 227.047 68.8506C227.566 68.2689 228.48 68.0196 229.228 68.0196C229.789 68.0196 230.308 68.4351 230.828 68.5598L231.285 65.7343C230.994 65.6096 230.703 65.5681 230.246 65.5681C228.563 65.5681 227.109 66.9808 225.987 68.7467L225.821 69.1415V65.7966C225.301 65.8174 224.907 65.9005 224.47 65.9005C223.993 65.9005 223.556 65.8174 223.12 65.7966M246.742 71.1775C246.742 67.3755 244.81 65.5265 241.278 65.5473C239.283 65.5473 237.455 66.2744 235.835 67.3963V69.2661H236.209C236.458 68.539 237.767 66.9392 240.218 66.9392C242.753 66.9392 244.187 68.3935 244.187 70.8658C244.187 72.4864 243.272 72.6941 240.592 73.1096C237.434 73.629 234.36 74.1276 234.38 77.9711C234.38 80.4434 236.479 82.0639 238.889 82.0639C240.904 82.0639 242.462 81.3576 243.875 79.9448L244.166 79.654C244.457 81.6277 245.911 81.8977 247.656 81.5861C248.03 81.5238 248.425 81.3576 248.674 81.2537V80.5265C246.659 80.9421 246.763 80.2772 246.763 78.9684M244.041 78.3243C244.041 78.5529 243.356 79.1553 243.148 79.3631C242.504 80.0279 241.34 80.672 240.405 80.672C238.349 80.672 237.102 79.6124 237.102 77.5141C237.102 74.46 240.53 74.1069 242.836 73.6706L244.02 73.442V78.3451L244.041 78.3243ZM266.458 65.6304C265.648 65.755 264.817 65.7966 264.007 65.6719L259.353 65.5265C254.387 65.3603 252.518 67.6041 252.538 70.8658C252.538 73.3589 253.806 74.7301 255.8 75.6858C254.491 76.2467 253.473 76.9531 253.473 78.5529C253.473 80.5889 254.554 81.1083 255.53 81.2952V81.5653C253.453 81.9393 252.019 83.2066 252.019 85.6166C252.019 89.1277 255.364 90.5612 258.127 90.5612C263.279 90.5612 266.687 87.8604 266.666 83.9338C266.666 81.0667 264.817 79.467 260.849 79.467H258.667C256.631 79.467 255.447 79.2592 255.426 77.8673C255.426 75.9143 257.441 76.2675 257.857 76.2675C261.763 76.2675 265.045 74.7301 265.045 71.0528C265.045 69.183 264.09 67.6872 262.718 66.6276L266.437 66.9185M254.076 85.4712C254.076 82.7288 255.8 81.4614 259.332 81.4822C261.846 81.4822 264.297 81.7108 264.297 85.2218C264.297 88.359 261.368 89.5016 258.937 89.5224C256.153 89.5224 254.076 88.172 254.076 85.4712ZM258.771 75.3949C256.32 75.3949 255.011 73.2343 255.094 70.8243C255.094 68.2689 256.465 66.4199 258.896 66.4199C261.555 66.4199 262.511 68.3935 262.511 70.9905C262.511 73.2758 261.243 75.3742 258.771 75.3949ZM271.465 81.7523C271.901 81.7108 272.338 81.6484 272.815 81.6484C273.252 81.6484 273.667 81.7108 274.145 81.7523V73.0473C274.145 71.2398 274.228 70.1387 275.392 68.7883C275.911 68.2066 276.804 67.9573 277.552 67.9573C278.113 67.9573 278.633 68.3728 279.131 68.4974L279.63 65.6719C279.339 65.5473 279.027 65.5265 278.591 65.5265C276.887 65.5265 275.433 66.9392 274.332 68.7052L274.166 69.0999V65.755C273.667 65.7758 273.252 65.8797 272.836 65.8797C272.358 65.8797 271.922 65.7966 271.486 65.755M295.087 71.1152C295.087 67.3132 293.134 65.4642 289.623 65.485C287.608 65.485 285.779 66.2121 284.18 67.334V69.2038H284.554C284.782 68.4766 286.091 66.8769 288.543 66.8769C291.077 66.8769 292.49 68.3104 292.49 70.8035C292.49 72.424 291.576 72.6318 288.937 73.0473C285.759 73.5667 282.684 74.0653 282.684 77.9088C282.684 80.3811 284.803 82.0016 287.213 82.0016C289.228 82.0016 290.766 81.2952 292.199 79.8825L292.49 79.5916C292.76 81.5653 294.214 81.8354 295.98 81.5238C296.334 81.4614 296.749 81.316 296.998 81.1914V80.4642C294.983 80.9005 295.108 80.2149 295.108 78.906M292.386 78.262C292.386 78.4905 291.742 79.093 291.493 79.3008C290.849 79.9656 289.685 80.6096 288.792 80.6096C286.714 80.6096 285.468 79.5501 285.468 77.4517C285.468 74.3977 288.896 74.0445 291.202 73.6082L292.386 73.3797V78.2828V78.262ZM301.735 81.7108C302.192 81.6692 302.649 81.6069 303.106 81.6069C303.543 81.6069 303.958 81.6692 304.436 81.7108V73.8991C304.436 69.7647 305.309 67.1886 308.861 67.1886C312.04 67.1886 312.622 69.6401 312.622 72.7564V81.69C313.058 81.6484 313.494 81.5861 313.972 81.5861C314.45 81.5861 314.824 81.6277 315.322 81.69V71.967C315.322 67.5417 313.785 65.4226 309.858 65.4226C307.448 65.4226 305.579 66.6276 304.415 68.7052V65.6512C303.937 65.6719 303.501 65.7758 303.086 65.7758C302.629 65.7758 302.171 65.6927 301.714 65.6512M334.478 66.7938C332.816 65.7966 331.05 65.4226 329.138 65.4226C324.111 65.4226 320.392 68.4351 320.392 73.629C320.392 78.3243 323.404 81.9601 329.076 81.9601C330.925 81.9601 332.712 81.3783 334.249 80.2772L334.374 78.7398L334.187 78.636C332.774 79.924 331.486 80.8174 329.533 80.8174C325.856 80.8174 323.363 77.7634 323.363 73.4836C323.363 69.9517 325.253 66.5861 329.18 66.5861C330.323 66.5861 331.735 67.0431 332.504 67.9157C332.857 68.2066 333.148 68.6429 333.439 69.0168H333.709M351.971 78.1789C351.057 79.0515 349.27 80.5058 346.964 80.5265C342.892 80.5265 340.835 77.2855 341.147 73.5251H345.884C348.148 73.5251 350.433 73.5251 352.739 73.6082C353.072 67.9988 349.644 65.3811 345.884 65.4018C340.856 65.4018 338.176 69.0168 338.176 73.6706C338.176 78.8853 341.479 81.9393 346.133 81.9185C348.19 81.9185 350.288 81.1083 351.95 79.9448M341.126 72.2786C341.313 69.4739 342.705 66.4614 345.863 66.4406C349.228 66.4406 350.018 69.3285 350.101 72.2578H341.126V72.2786ZM357.123 78.3867C356.999 79.2177 356.687 80.0279 356.417 80.8382C357.601 81.5446 359.263 81.8977 360.655 81.8977C363.626 81.8977 366.867 80.1734 366.846 76.5999C366.846 71.219 358.868 73.5044 358.868 69.2246C358.868 67.4171 360.24 66.4406 361.943 66.4406C363.19 66.4406 364.353 67.5417 364.789 68.6429H365.122C365.33 67.8326 365.579 67.0224 365.911 66.2537C365.33 65.8797 363.854 65.3811 362.109 65.3811C359.055 65.3811 356.604 67.1262 356.604 70.3672C356.604 76.2468 364.561 73.2758 364.561 77.8049C364.561 79.5916 362.92 80.859 361.278 80.859C359.637 80.859 358.203 79.6955 357.372 78.3867M397.781 76.7246C399.443 74.7717 400.918 72.7357 402.331 70.575C401.853 70.201 401.313 69.6816 401.043 69.2038C399.921 71.2814 398.425 73.8368 397.033 75.8312L395.226 73.816C393.751 72.1539 392.483 70.3465 391.091 68.5805C393.252 67.1262 395.683 65.3603 395.662 62.4933C395.662 60.2495 393.709 58.9614 391.195 58.9614C388.162 58.9614 386.001 60.9143 386.001 63.9683C386.001 65.9628 387.206 67.5833 388.266 69.183L388.079 69.2869C384.921 70.8866 382.179 73.1096 382.199 76.3922C382.199 79.8617 384.879 82.0016 388.598 82.0016C391.445 82.0016 393.979 80.8174 395.87 78.7191C396.68 79.6124 397.324 80.5473 398.03 81.5446C398.675 81.503 399.298 81.4407 399.942 81.4407C400.586 81.4407 401.313 81.5238 401.978 81.5653M388.578 70.1387C388.578 70.1387 388.723 70.014 388.848 69.9725C390.863 72.7357 393.024 75.3534 395.205 77.9919C394.789 78.3866 392.587 80.485 389.866 80.485C387.144 80.485 384.921 78.4074 384.921 75.6027C384.921 73.0473 386.542 71.4268 388.578 70.1595M393.938 62.6802C393.938 65.0279 392.296 66.5653 390.51 67.8534C389.492 66.4822 388.349 64.7786 388.349 63.0334C388.349 61.309 389.263 59.8755 391.237 59.8755C392.857 59.8755 393.938 61.1221 393.938 62.701M436.528 77.9088C435.842 78.4698 433.017 80.6512 429.36 80.6512C424.021 80.6512 420.302 76.5168 420.302 70.0764C420.302 64.3838 423.356 59.3769 429.589 59.3561C433.058 59.3561 435.551 61.6207 436.029 62.2232L436.279 62.1816C436.445 61.309 436.652 60.4365 436.985 59.6054C434.7 58.629 432.165 58.068 429.693 58.068C422.567 58.068 416.978 62.3894 416.999 69.9309C416.999 77.2855 421.465 81.9601 428.903 81.9601C431.479 81.9601 434.222 81.4407 436.382 80.0072M449.118 65.2564C444.256 65.2564 440.517 68.539 440.517 73.3589C440.226 78.4697 443.945 81.7939 448.515 81.7939C454.104 81.7939 456.95 77.7218 456.93 73.442C456.93 68.4351 453.709 65.2564 449.118 65.2564ZM443.488 73.8576C443.488 70.2841 444.755 66.316 449.056 66.316C452.795 66.316 453.959 70.2634 453.959 73.2966C453.959 75.8936 452.733 80.7343 448.765 80.7343C444.921 80.7343 443.508 77.1817 443.488 73.8576ZM461.376 78.2412C461.23 79.0722 460.918 79.8825 460.648 80.6928C461.833 81.3991 463.495 81.7523 464.866 81.7523C467.837 81.7523 471.078 80.0279 471.057 76.4337C471.057 71.0528 463.079 73.3382 463.079 69.0584C463.079 67.2509 464.471 66.2537 466.133 66.2537C467.38 66.2537 468.564 67.3548 469.021 68.4766H469.312C469.54 67.6456 469.769 66.8561 470.122 66.0874C469.52 65.7135 468.065 65.2149 466.299 65.2149C463.266 65.2149 460.773 66.96 460.794 70.201C460.794 76.0805 468.751 73.1096 468.772 77.6387C468.772 79.4254 467.151 80.672 465.468 80.672C463.91 80.672 462.394 79.5293 461.604 78.1997M475.877 81.4822C476.334 81.4407 476.791 81.3783 477.227 81.3783C477.664 81.3783 478.079 81.4407 478.578 81.4822V71.6969C478.578 69.2453 479.139 66.96 482.629 66.96C485.101 66.96 486.223 68.4767 486.223 71.6346V81.4615C486.68 81.4199 487.096 81.3576 487.574 81.3576C488.01 81.3576 488.405 81.4199 488.924 81.4615V72.3825C488.924 69.9725 489.36 66.9392 492.788 66.9392C496.071 66.9392 496.528 69.5362 496.528 72.5071V81.4407C496.964 81.3991 497.421 81.3368 497.899 81.3368C498.335 81.3368 498.751 81.3991 499.27 81.4407V71.7177C499.27 67.5417 497.899 65.1733 493.806 65.1733C491.521 65.1733 489.776 66.3368 488.529 68.5182C487.823 66.3575 485.808 65.1941 483.585 65.2149C481.237 65.2149 479.72 66.3783 478.578 68.3104V65.4226C478.079 65.4434 477.684 65.5473 477.227 65.5473C476.77 65.5473 476.334 65.4642 475.877 65.4226M517.678 77.9711C516.764 78.8437 514.998 80.298 512.65 80.3188C508.599 80.3188 506.521 77.0778 506.833 73.3174H511.59C513.876 73.3174 516.161 73.3174 518.446 73.4005C518.779 67.791 515.33 65.1733 511.57 65.1941C506.542 65.1941 503.862 68.7883 503.862 73.442C503.862 78.6567 507.165 81.7108 511.819 81.7108C513.876 81.7108 515.953 80.9005 517.615 79.7163M506.833 72.0708C507.02 69.2661 508.412 66.2329 511.57 66.2329C514.914 66.2329 515.746 69.1415 515.808 72.0501H506.812L506.833 72.0708ZM523.121 62.0362V65.3603H521.023C521.126 65.7758 521.126 66.1913 521.023 66.6276H523.121V76.413C522.975 80.5058 524.451 81.69 527.006 81.69C528.003 81.69 528.938 81.4199 529.873 81.0875V80.2772C529.333 80.3603 528.855 80.5058 528.356 80.5058C525.552 80.5058 525.842 77.0986 525.842 75.0625V66.6276H529.395C529.312 66.316 529.312 65.8174 529.395 65.3603H525.842V60.9974M535.877 61.3298C536.791 61.3298 537.581 60.5611 537.581 59.6054C537.581 58.6498 536.77 57.9018 535.856 57.9018C534.901 57.9018 534.111 58.6705 534.132 59.6262C534.132 60.5611 534.901 61.3298 535.877 61.3298ZM537.228 65.3603C536.729 65.3811 536.313 65.485 535.898 65.485C535.399 65.485 534.984 65.4019 534.527 65.3603V81.4199C535.005 81.3783 535.42 81.316 535.919 81.316C536.355 81.316 536.75 81.3783 537.248 81.4199V65.3603H537.228ZM557.151 66.503C555.51 65.5057 553.723 65.1318 551.812 65.1318C546.784 65.1318 543.045 68.1442 543.045 73.3382C543.045 78.0335 546.078 81.6692 551.708 81.6692C553.578 81.6692 555.365 81.0875 556.881 79.9864L557.048 78.449L556.84 78.3451C555.448 79.6332 554.139 80.5265 552.186 80.5265C548.53 80.5265 546.036 77.4725 546.036 73.1927C546.036 69.6609 547.927 66.2952 551.833 66.2952C552.996 66.2952 554.388 66.7523 555.178 67.6456C555.552 67.9365 555.822 68.3728 556.092 68.7467H556.362M561.805 78.0958C561.701 78.9268 561.39 79.7578 561.12 80.5681C562.283 81.2537 563.924 81.6277 565.337 81.6277C568.329 81.6277 571.549 79.8825 571.528 76.3299C571.528 70.9282 563.55 73.2343 563.55 68.9545C563.55 67.147 564.942 66.1706 566.625 66.1498C567.872 66.1498 569.056 67.2509 569.492 68.3728H569.783C569.991 67.5625 570.261 66.773 570.614 65.9836C569.991 65.6096 568.557 65.111 566.771 65.111C563.758 65.111 561.265 66.8561 561.265 70.0764C561.265 75.9559 569.243 72.985 569.243 77.5141C569.243 79.3008 567.581 80.5681 565.94 80.5681C564.298 80.5681 562.886 79.4047 562.054 78.075" fill="white"/>
</svg>
