<svg width="787" height="309" viewBox="0 0 787 309" fill="none" xmlns="http://www.w3.org/2000/svg">
<path fill-rule="evenodd" clip-rule="evenodd" d="M786.098 78.6846C721.433 79.5716 653.384 102.353 614.066 133.88C586.126 156.288 576.379 178.214 576.285 178.448L578.164 176.269C613.958 134.363 655.2 117.027 686.555 106.788C734.86 91.0091 782.854 90.9001 782.854 90.9001L786.098 78.6846Z" fill="white"/>
<path fill-rule="evenodd" clip-rule="evenodd" d="M137.36 216.592C141.365 214.009 146.394 213.091 149.561 213.091C154.14 213.091 158.02 217.121 158.02 221.914V267.509H166.713V222.257C166.713 212.251 159.014 204.097 149.561 204.097H148.459C145.572 204.097 142.017 204.423 137.36 206.664V181.533H128.544V267.509H137.36V216.592Z" fill="white"/>
<path fill-rule="evenodd" clip-rule="evenodd" d="M179.919 267.507H189.108V205.34H179.919V267.507Z" fill="white"/>
<path fill-rule="evenodd" clip-rule="evenodd" d="M179.919 193.684H189.108V181.547H179.919V193.684Z" fill="white"/>
<path fill-rule="evenodd" clip-rule="evenodd" d="M210.675 221.764C210.675 216.13 215.751 213.08 220.532 213.08C224.785 213.08 231.909 214.201 231.909 221.764V226.79C231.909 231.738 227.951 236.08 223.481 236.08L210.675 235.955V221.764ZM221.897 268.603C223.636 268.603 239.593 265.428 240.26 265.304L240.85 265.164L238.63 255.983L238.072 256.123C231.956 257.57 222.612 259.733 221.897 259.764C216.434 259.764 211.699 255.92 210.675 250.645V245.245C212.786 245.463 214.788 245.526 216.915 245.526C232.328 245.526 240.835 238.694 240.835 226.292V222.37C240.835 212.131 233.089 204.102 223.217 204.102H219.212C209.325 204.102 201.595 212.131 201.595 222.37V248.638C201.595 259.826 210.489 268.603 221.897 268.603Z" fill="white"/>
<path fill-rule="evenodd" clip-rule="evenodd" d="M259.823 222.025C259.823 217.077 263.61 213.077 268.267 213.077C270.626 213.077 275.749 214.058 280.343 216.719V256.384C278.853 258.143 271.17 259.777 268.127 259.777C263.642 259.777 259.823 255.715 259.823 250.938V222.025ZM268.267 268.615C270.89 268.615 277.161 267.931 282.377 265.425L286.149 269.191L292.466 263.013L289.16 259.854V181.644H280.468V206.853C276.587 205.094 272.489 204.239 268.267 204.239C258.814 204.239 251.131 212.377 251.131 222.367V250.455C251.131 260.632 258.659 268.615 268.267 268.615Z" fill="white"/>
<path fill-rule="evenodd" clip-rule="evenodd" d="M302.761 267.507H311.934V205.34H302.761V267.507Z" fill="white"/>
<path fill-rule="evenodd" clip-rule="evenodd" d="M302.761 193.684H311.934V181.547H302.761V193.684Z" fill="white"/>
<path fill-rule="evenodd" clip-rule="evenodd" d="M325.642 267.506H334.443V216.59C337.268 214.754 342.841 213.089 345.309 213.089C350.276 213.089 355.802 216.621 355.802 221.414V267.506H364.758V227.747C364.758 218.021 369.073 213.089 377.579 213.089C385.511 213.089 386.132 221.414 386.132 223.966V267.506H395.088V223.966C395.088 215.983 390.509 204.094 377.952 204.094C372.876 204.094 365.891 205.495 360.831 211.953C357.835 207.082 351.719 204.094 344.579 204.094C340.869 204.094 336.756 205.261 332.41 207.518L328.654 203.627L322.32 209.805L325.642 212.98V267.506Z" fill="white"/>
<path fill-rule="evenodd" clip-rule="evenodd" d="M408.139 193.684H417.359V181.547H408.139V193.684Z" fill="white"/>
<path fill-rule="evenodd" clip-rule="evenodd" d="M408.139 267.507H417.359V205.34H408.139V267.507Z" fill="white"/>
<path fill-rule="evenodd" clip-rule="evenodd" d="M506.161 193.684H515.35V181.547H506.161V193.684Z" fill="white"/>
<path fill-rule="evenodd" clip-rule="evenodd" d="M684.985 176.029L670.364 152.656H653.382L669.944 176.029H684.985Z" fill="white"/>
<path fill-rule="evenodd" clip-rule="evenodd" d="M588.846 245.335C588.846 251.372 584.143 256.29 578.415 256.29C575.698 256.29 567.891 254.516 563.032 251.901V215.799C568.294 210.477 572.656 205.56 576.288 201.156V201.312C577.778 199.273 579.284 197.328 580.774 195.367L581.38 195.585C585.772 196.955 588.846 201.187 588.846 205.934V245.335ZM463.225 222.024C463.225 217.091 467.028 213.092 471.685 213.092C474.059 213.092 479.166 214.056 483.745 216.733V256.367C482.255 258.126 474.603 259.76 471.545 259.76C467.028 259.76 463.225 255.729 463.225 250.952V222.024ZM614.023 152.076C599.075 163.809 588.722 174.204 581.054 182.996C579.595 184.677 578.229 186.264 576.956 187.82V187.665C575.357 189.89 573.712 192.053 572.066 194.2C568.543 198.76 564.942 203.086 561.294 207.178C557.895 211.006 554.418 214.632 550.941 218.071C539.346 229.431 527.347 238.674 515.364 245.941V205.342H506.175V251.123C501.611 253.504 497.079 255.621 492.577 257.472V181.658H483.885V206.852C479.989 205.109 475.891 204.253 471.685 204.253C462.232 204.253 454.548 212.376 454.548 222.382V250.439C454.548 257.363 458.087 263.463 463.784 266.576C448.417 270.824 433.5 273.578 384.202 273.64C363.65 273.656 129.126 273.78 129.126 273.78V282.152L395.797 282.261C433.795 282.261 463.939 275.446 487.502 266.342C489.97 265.362 492.329 264.397 494.657 263.417C498.926 261.565 502.931 259.666 506.734 257.737C509.528 256.29 512.197 254.874 514.774 253.395C524.646 247.747 532.702 242.02 539.206 236.916C542.838 234.068 546.113 231.329 549.233 228.668V308.715H562.846V267.26C567.829 269.299 573.044 270.31 578.415 270.31C591.671 270.31 602.505 258.888 602.505 244.837V206.587C602.505 197.235 597.74 188.769 590.119 184.303C618.555 152.932 652.657 135.721 680.83 127.785C732.301 113.282 778.014 112.846 778.014 112.846L781.227 100.74C702.608 99.7904 637.678 130.617 614.023 152.076Z" fill="white"/>
<path fill-rule="evenodd" clip-rule="evenodd" d="M617.782 268.659H632.093V182.761H617.782V268.659Z" fill="white"/>
<path fill-rule="evenodd" clip-rule="evenodd" d="M702.8 182.768H688.986V251.782C685.136 254.054 678.71 256.295 673.448 256.295C667.767 256.295 662.024 251.502 662.024 242.368V182.768H648.038V237.404C648.038 243.457 648.038 249.183 651.003 255.112C654.977 264.418 663.405 269.973 673.619 269.973C678.291 269.973 685.866 268.837 692.494 265.725L697.787 271.031L707.674 261.103L702.8 256.606V182.768Z" fill="white"/>
<path fill-rule="evenodd" clip-rule="evenodd" d="M617.782 176.055H632.093V161.256H617.782V176.055Z" fill="white"/>
<path fill-rule="evenodd" clip-rule="evenodd" d="M69.2754 153.089C49.7951 153.089 33.2174 159.547 19.9615 172.244C6.70557 184.927 0 200.784 0 219.395C0 231.097 2.94921 242.146 8.72345 252.214C14.4977 262.282 22.445 270.28 32.3792 276.022C42.2513 281.733 54.5604 284.643 68.9028 284.643C86.1014 284.643 101.546 281.126 114.802 274.171V258.983C100.273 267.604 85.2321 271.945 70.036 271.945C54.0637 271.945 40.7301 266.981 30.4234 257.162C20.1012 247.327 14.8547 234.629 14.8547 219.395C14.8547 204.285 20.1788 191.525 30.6873 181.472C41.1337 171.42 54.4362 166.331 70.2222 166.331C84.2542 166.331 98.7364 170.268 113.374 178.018V163.25C97.2308 156.497 82.4071 153.089 69.2754 153.089Z" fill="white"/>
<path d="M271.879 95.4053H237.522L225.381 170.896H185.556L185.039 174.202H228.138L240.295 98.7112H271.362L271.879 95.4053Z" fill="white"/>
<path d="M248.113 27.1805L242.316 64.6843H245.591L250.886 30.4864H313.27L318.033 0H314.759L310.513 27.1805H248.113Z" fill="white"/>
<path d="M438.634 96.0895C434.326 92.4093 428.592 90.1326 423.657 90.1326C419.349 90.1326 415.824 91.5517 412.91 94.4833C406.22 101.407 401.27 119.434 402.554 132.268C402.946 136.088 404.278 138.849 406.471 140.595C405.876 139.223 405.468 137.632 405.28 135.792C403.98 122.911 408.962 104.807 415.699 97.8517C418.66 94.8888 422.216 93.4385 426.587 93.4385C431.569 93.4385 437.35 95.7465 441.705 99.4579L443.867 101.298L455.962 89.54C458.092 86.5927 460.458 83.8794 463.074 81.4623L461.132 79.7937C460.881 79.5754 460.599 79.3883 460.348 79.1855L440.937 98.07L438.634 96.1051V96.0895Z" fill="white"/>
<path d="M364.061 126.405C356.04 168.962 323.939 168.962 313.161 168.962H311.766C309.181 168.962 293.389 168.525 282.454 158.233C293.186 171.737 311.876 172.267 314.712 172.267H316.106C326.164 172.267 354.865 172.221 365.001 137.259C364.719 135.855 364.484 134.421 364.343 132.924C364.124 130.756 364.046 128.573 364.061 126.405Z" fill="white"/>
<path d="M450.587 154.335L450.243 154.569C437.24 163.333 424.503 167.231 408.914 167.231C394.344 167.231 382.861 163.333 375.168 156.113C382.673 165.438 395.237 170.537 411.86 170.537C427.401 170.537 440.106 166.639 453.078 157.906L453.36 157.719C452.373 156.658 451.433 155.551 450.603 154.335H450.587Z" fill="white"/>
<path d="M371.534 96.1376L375.373 68.0059H372.161L366.678 108.114C367.9 103.95 369.545 99.9581 371.534 96.1532V96.1376Z" fill="white"/>
<path d="M498.386 164.876C493.201 166.966 487.482 167.995 481.059 167.995C469.889 167.995 461.068 164.892 454.817 159.106C461.037 167.028 470.907 171.301 484.004 171.301C490.428 171.301 496.146 170.256 501.332 168.151H497.854L498.386 164.876Z" fill="white"/>
<path d="M547.846 76.8789L533.025 168.151H501.567L501.034 171.457H535.783L550.979 78.2824L547.846 76.8789Z" fill="white"/>
<path d="M492.089 101.205C498.246 94.6871 502.46 94.3597 509.384 94.3597C509.541 94.3597 509.698 94.3597 509.87 94.3753L510.34 91.4592C509.102 91.2408 507.645 91.0537 506.439 91.0537C499.577 91.0537 495.394 91.3656 489.3 97.8215C481.999 105.775 479.289 122.538 480.48 134.249C481.012 139.551 482.36 141.657 484.13 142.483C483.723 141.282 483.409 139.754 483.221 137.774C482.031 126 484.757 109.174 492.104 101.174L492.089 101.205Z" fill="white"/>
<path d="M306.8 130.678C306.957 134.873 307.944 136.901 310.012 137.836C309.745 136.838 309.589 135.653 309.542 134.203C309.432 131.287 309.589 128.464 310.043 125.548L317.845 68.0059H314.633L307.301 122.071C306.863 124.987 306.691 127.794 306.8 130.694V130.678Z" fill="white"/>
<path d="M397.164 18.822C393.138 16.9819 387.106 16.249 381.764 16.249C374.181 16.249 368.745 18.0112 364.17 22.1124C359.188 26.5879 355.804 34.5721 356.697 43.5855C357.481 51.3513 362.181 55.5305 370.468 55.5305C374.056 55.5305 376.907 54.7196 379.382 53.1758L378.991 55.5929H391.179L397.164 18.8065V18.822ZM373.022 47.9986C370.437 47.9986 369.231 46.5327 368.886 43.1644C368.385 38.1743 369.513 30.7671 372.881 27.1025C375.779 24.0305 377.988 23.8901 380.933 23.8901C381.952 23.8901 383.456 24.1552 384.082 24.4359L381.168 42.3223C380.119 44.9889 376.672 48.0142 373.006 48.0142L373.022 47.9986Z" fill="white"/>
<path d="M414.883 17.9013L418.769 34.6182C419.286 37.0665 420.038 41.1209 420.194 43.5068C420.946 41.3548 422.435 37.7994 424.44 34.1036L432.978 18.5407H445.574L423.249 55.5922H413.489L402.867 19.1021L414.883 17.8857V17.9013Z" fill="white"/>
<path d="M481.983 51.5385C476.265 55.016 470.547 56.6065 464.202 56.6065C453.454 56.6065 446.671 51.9751 445.762 42.9929C444.979 35.3362 448.331 27.4456 453.83 22.6582C457.951 19.1184 462.823 17.7461 468.808 17.7461C477.69 17.7461 484.411 20.631 485.132 27.8822C485.837 34.8996 478.583 40.6226 463.638 40.6226C460.551 40.6226 458.217 40.1236 458.217 40.1236C458.217 40.1236 458.013 42.5095 458.107 43.4607C458.53 47.64 461.335 49.3865 466.27 49.3865C470.311 49.3865 474.385 47.9362 478.348 45.4724L481.952 51.5385H481.983ZM462.901 33.8236C467.993 33.8236 473.742 32.3733 473.366 28.662C473.147 26.432 471.737 24.8258 468.244 24.8258C463.763 24.8258 460.63 27.009 459.517 33.4493C459.517 33.4493 461.319 33.808 462.901 33.808V33.8236Z" fill="white"/>
<path d="M529.751 46.7043C528.701 53.285 528.968 55.437 529.391 56.4818H522.074C521.918 56.0764 521.526 54.7509 521.51 54.0335C519.677 55.9672 516.607 57.1679 513.614 57.1679C506.784 57.1679 503.306 53.9867 502.663 47.7491C502.131 42.4471 504.089 36.5993 508.303 32.9815C511.061 30.6892 514.617 29.3325 518.455 29.3325C520.79 29.3325 523.39 29.8003 524.033 30.0498C524.064 29.6444 524.142 28.5372 524.362 26.9622L525.787 17.7461L534.091 18.8377L529.72 46.7043H529.751ZM518.69 34.9152C517.03 34.9152 515.51 35.6481 514.445 37.0048C512.22 39.6246 511.233 44.3964 511.578 47.7491C511.844 50.3065 513.05 51.6164 515.275 51.6164C517.186 51.6164 520.1 49.5268 520.899 48.061L522.936 35.96C522.043 35.2738 520.539 34.9152 518.706 34.9152H518.69Z" fill="white"/>
<path d="M549.162 29.0502L544.838 56.4802H536.315L540.483 30.1418L549.162 29.0502ZM551.277 22.2824C551.528 24.6839 549.366 26.6331 546.436 26.6331C543.506 26.6331 541.015 24.6995 540.78 22.2824C540.545 19.8809 542.77 17.9316 545.7 17.9316C548.629 17.9316 551.058 19.8653 551.277 22.2824Z" fill="white"/>
<path d="M365.22 0L363.936 8.23367H342.426L340.076 23.4379H354.269L352.969 31.7495H338.791L334.608 57.7761H320.273L329.391 0H365.236H365.22Z" fill="white"/>
<path d="M311.39 0L307.662 23.8745H245.262L238.431 67.9902H276.187L272.396 92.0987H234.687L222.545 167.59H186.089L212.581 0H311.406H311.39Z" fill="white"/>
<path d="M368.824 67.9902L361.476 121.603C355.444 164.44 326.054 165.64 313.16 165.64H311.766C304.622 165.64 276.297 163.036 275.137 132.347C275.012 129.057 275.231 125.579 275.78 121.603L283.221 67.9902H311.264L303.995 121.603C303.431 125.252 303.384 128.371 303.478 130.788C303.823 139.629 307.912 141.891 315.228 141.891H316.622C326.727 141.891 330.942 138.07 333.276 121.603L340.624 67.9902H368.839H368.824Z" fill="white"/>
<path d="M440.796 93.5963C435.579 89.1364 429.077 86.8285 423.657 86.8285C418.236 86.8285 414.1 88.6062 410.559 92.1617C403.306 99.6468 397.838 118.531 399.264 132.597C400.219 142.047 406.047 146.133 413.834 146.133C421.62 146.133 429.469 142.375 437.161 137.041L448.379 151.84C437.02 159.497 425.145 163.941 408.914 163.941C384.239 163.941 369.638 152.199 367.664 132.613C365.393 110.017 376.077 89.3391 390.381 78.6572C399.64 71.7178 410.277 67.8037 425.646 67.8037C435.814 67.8037 447.407 71.172 456.165 78.6572L440.796 93.6119V93.5963Z" fill="white"/>
<path d="M544.728 75.4915V75.4603C534.984 71.0004 521.463 69.2383 508.476 69.2383C490.068 69.2383 476.861 73.5111 465.753 83.4913C453.643 94.3448 445.418 113.759 447.611 135.669C449.507 154.538 460.928 164.69 481.044 164.69C489.754 164.69 496.679 162.725 502.695 158.982L501.739 164.846H530.19L544.744 75.4915H544.728ZM487.201 146.335C480.918 146.335 477.989 142.78 477.158 134.593C475.936 122.476 478.662 104.481 486.872 95.5767C493.906 88.1227 499.28 87.764 506.424 87.764C508.883 87.764 512.534 88.3878 514.069 89.0584L506.988 132.597C504.387 139.069 496.052 146.335 487.201 146.335Z" fill="white"/>
<path d="M481.514 182.497C481.514 182.497 481.546 182.418 481.53 182.45C481.53 182.482 481.514 182.513 481.53 182.545V182.497H481.514Z" fill="white" stroke="white" stroke-width="3.31" stroke-linecap="round" stroke-linejoin="round"/>
<path d="M481.514 182.497C481.514 182.497 481.546 182.418 481.53 182.45C481.53 182.482 481.514 182.513 481.53 182.545V182.497H481.514Z" fill="white"/>
</svg>
