<svg width="787" height="252" viewBox="0 0 787 252" fill="none" xmlns="http://www.w3.org/2000/svg">
<path fill-rule="evenodd" clip-rule="evenodd" d="M786.098 21.1406C721.433 22.0276 653.384 44.8093 614.066 76.3363C586.126 98.7445 576.379 120.67 576.285 120.904L578.164 118.725C613.958 76.8187 655.2 59.4835 686.555 49.2442C734.86 33.4651 782.854 33.3562 782.854 33.3562L786.098 21.1406Z" fill="white"/>
<path fill-rule="evenodd" clip-rule="evenodd" d="M137.36 159.048C141.365 156.465 146.394 155.547 149.561 155.547C154.14 155.547 158.02 159.577 158.02 164.37V209.965H166.713V164.713C166.713 154.707 159.014 146.553 149.561 146.553H148.459C145.572 146.553 142.017 146.879 137.36 149.12V123.989H128.544V209.965H137.36V159.048Z" fill="white"/>
<path fill-rule="evenodd" clip-rule="evenodd" d="M179.919 209.963H189.108V147.796H179.919V209.963Z" fill="white"/>
<path fill-rule="evenodd" clip-rule="evenodd" d="M179.919 136.14H189.108V124.003H179.919V136.14Z" fill="white"/>
<path fill-rule="evenodd" clip-rule="evenodd" d="M210.675 164.22C210.675 158.586 215.751 155.536 220.532 155.536C224.785 155.536 231.909 156.657 231.909 164.22V169.246C231.909 174.194 227.951 178.536 223.481 178.536L210.675 178.411V164.22ZM221.897 211.059C223.636 211.059 239.593 207.884 240.26 207.76L240.85 207.62L238.63 198.439L238.072 198.579C231.956 200.026 222.612 202.189 221.897 202.22C216.434 202.22 211.699 198.376 210.675 193.101V187.701C212.786 187.919 214.788 187.982 216.915 187.982C232.328 187.982 240.835 181.15 240.835 168.748V164.826C240.835 154.587 233.089 146.558 223.217 146.558H219.212C209.325 146.558 201.595 154.587 201.595 164.826V191.094C201.595 202.282 210.489 211.059 221.897 211.059Z" fill="white"/>
<path fill-rule="evenodd" clip-rule="evenodd" d="M259.823 164.481C259.823 159.533 263.61 155.533 268.267 155.533C270.626 155.533 275.749 156.514 280.343 159.175V198.84C278.853 200.599 271.17 202.233 268.127 202.233C263.642 202.233 259.823 198.171 259.823 193.394V164.481ZM268.267 211.071C270.89 211.071 277.161 210.387 282.377 207.881L286.149 211.647L292.466 205.469L289.16 202.31V124.1H280.468V149.309C276.587 147.55 272.489 146.695 268.267 146.695C258.814 146.695 251.131 154.833 251.131 164.823V192.911C251.131 203.088 258.659 211.071 268.267 211.071Z" fill="white"/>
<path fill-rule="evenodd" clip-rule="evenodd" d="M302.761 209.963H311.934V147.796H302.761V209.963Z" fill="white"/>
<path fill-rule="evenodd" clip-rule="evenodd" d="M302.761 136.14H311.934V124.003H302.761V136.14Z" fill="white"/>
<path fill-rule="evenodd" clip-rule="evenodd" d="M325.642 209.962H334.443V159.046C337.268 157.21 342.841 155.545 345.309 155.545C350.276 155.545 355.802 159.077 355.802 163.87V209.962H364.758V170.203C364.758 160.477 369.073 155.545 377.579 155.545C385.511 155.545 386.132 163.87 386.132 166.422V209.962H395.088V166.422C395.088 158.439 390.509 146.55 377.952 146.55C372.876 146.55 365.891 147.951 360.831 154.409C357.835 149.538 351.719 146.55 344.579 146.55C340.869 146.55 336.756 147.717 332.41 149.974L328.654 146.083L322.32 152.261L325.642 155.436V209.962Z" fill="white"/>
<path fill-rule="evenodd" clip-rule="evenodd" d="M408.139 136.14H417.359V124.003H408.139V136.14Z" fill="white"/>
<path fill-rule="evenodd" clip-rule="evenodd" d="M408.139 209.963H417.359V147.796H408.139V209.963Z" fill="white"/>
<path fill-rule="evenodd" clip-rule="evenodd" d="M506.161 136.14H515.35V124.003H506.161V136.14Z" fill="white"/>
<path fill-rule="evenodd" clip-rule="evenodd" d="M684.985 118.485L670.364 95.1121H653.382L669.944 118.485H684.985Z" fill="white"/>
<path fill-rule="evenodd" clip-rule="evenodd" d="M588.846 187.791C588.846 193.828 584.143 198.746 578.415 198.746C575.698 198.746 567.891 196.972 563.032 194.357V158.255C568.294 152.933 572.656 148.016 576.288 143.612V143.768C577.778 141.729 579.284 139.784 580.774 137.823L581.38 138.041C585.772 139.411 588.846 143.643 588.846 148.39V187.791ZM463.225 164.48C463.225 159.547 467.028 155.548 471.685 155.548C474.059 155.548 479.166 156.513 483.745 159.189V198.824C482.255 200.582 474.603 202.216 471.545 202.216C467.028 202.216 463.225 198.185 463.225 193.408V164.48ZM614.023 94.5322C599.075 106.265 588.722 116.66 581.054 125.452C579.595 127.133 578.229 128.72 576.956 130.276V130.121C575.357 132.346 573.712 134.509 572.066 136.656C568.543 141.216 564.942 145.542 561.294 149.634C557.895 153.463 554.418 157.088 550.941 160.527C539.346 171.887 527.347 181.13 515.364 188.397V147.798H506.175V193.579C501.611 195.96 497.079 198.077 492.577 199.928V124.114H483.885V149.308C479.989 147.565 475.891 146.709 471.685 146.709C462.232 146.709 454.548 154.832 454.548 164.838V192.895C454.548 199.819 458.087 205.919 463.784 209.032C448.417 213.28 433.5 216.034 384.202 216.096C363.65 216.112 129.126 216.237 129.126 216.237V224.608L395.797 224.717C433.795 224.717 463.939 217.902 487.502 208.798C489.97 207.818 492.329 206.853 494.657 205.873C498.926 204.021 502.931 202.122 506.734 200.193C509.528 198.746 512.197 197.33 514.774 195.851C524.646 190.203 532.702 184.476 539.206 179.372C542.838 176.524 546.113 173.785 549.233 171.125V251.171H562.846V209.716C567.829 211.755 573.044 212.766 578.415 212.766C591.671 212.766 602.505 201.344 602.505 187.293V149.043C602.505 139.691 597.74 131.226 590.119 126.759C618.555 95.388 652.657 78.1773 680.83 70.2411C732.301 55.738 778.014 55.3023 778.014 55.3023L781.227 43.1957C702.608 42.2464 637.678 73.0732 614.023 94.5322Z" fill="white"/>
<path fill-rule="evenodd" clip-rule="evenodd" d="M617.782 211.115H632.093V125.217H617.782V211.115Z" fill="white"/>
<path fill-rule="evenodd" clip-rule="evenodd" d="M702.8 125.224H688.986V194.238C685.136 196.51 678.71 198.751 673.448 198.751C667.767 198.751 662.024 193.958 662.024 184.824V125.224H648.038V179.86C648.038 185.913 648.038 191.64 651.003 197.568C654.977 206.874 663.405 212.429 673.619 212.429C678.291 212.429 685.866 211.293 692.494 208.181L697.787 213.487L707.674 203.559L702.8 199.062V125.224Z" fill="white"/>
<path fill-rule="evenodd" clip-rule="evenodd" d="M617.782 118.511H632.093V103.712H617.782V118.511Z" fill="white"/>
<path fill-rule="evenodd" clip-rule="evenodd" d="M69.2754 95.5447C49.7951 95.5447 33.2174 102.003 19.9615 114.701C6.70557 127.383 0 143.24 0 161.851C0 173.553 2.94921 184.602 8.72345 194.67C14.4977 204.738 22.445 212.736 32.3792 218.478C42.2513 224.189 54.5604 227.099 68.9028 227.099C86.1014 227.099 101.546 223.582 114.802 216.627V201.439C100.273 210.06 85.2321 214.401 70.036 214.401C54.0637 214.401 40.7301 209.437 30.4234 199.618C20.1012 189.783 14.8547 177.086 14.8547 161.851C14.8547 146.741 20.1788 133.981 30.6873 123.928C41.1337 113.876 54.4362 108.787 70.2222 108.787C84.2542 108.787 98.7364 112.724 113.374 120.474V105.706C97.2308 98.9526 82.4071 95.5447 69.2754 95.5447Z" fill="white"/>
<path d="M148.709 83.6655C148.052 86.947 146.084 88.4632 142.372 88.4632C138.661 88.4632 136.239 87.3543 134.723 85.6344C134.497 83.6655 134.497 79.7278 134.723 73.3912C135.606 47.3886 135.379 26.8399 133.863 11.7679C133.41 9.14275 134.067 6.72127 135.809 4.79766C137.552 2.80617 139.747 1.69727 142.576 1.69727C146.966 1.69727 149.139 4.54873 149.139 10.0027C149.139 11.089 148.912 12.8542 148.709 15.253C148.256 17.6745 148.256 19.6207 148.256 20.7296L148.256 57.6629C148.256 59.6317 148.256 62.7095 148.709 66.8509C148.912 70.9923 149.139 74.0475 149.139 76.039C149.139 78.8678 148.912 81.5156 148.709 83.6881" fill="white"/>
<path d="M216.895 58.7486C217.348 59.6086 217.551 60.4912 217.551 61.8038C217.551 66.1715 216.239 69.9056 213.84 72.9607C205.761 83.4613 194.83 88.689 181.048 88.689C178.219 88.689 175.368 88.4853 172.313 88.0327L163.555 86.4938C160.499 85.6339 158.531 83.8687 157.874 81.0398C157.671 80.1799 158.101 79.2973 159.413 77.9847C160.726 76.6721 161.835 75.8122 162.695 75.5859C164.663 74.9069 166.406 74.9069 167.719 75.5859C173.195 78.6184 179.102 80.1799 185.642 80.1799C190.213 80.1799 194.174 79.071 197.229 77.1247C200.963 74.9296 202.706 71.4444 202.706 67.0767C202.706 66.3978 202.706 65.7415 202.479 64.8816C202.276 62.709 200.08 59.6312 195.713 55.9198C191.345 52.2084 188.064 50.2395 185.665 50.0132C184.556 49.3569 183.243 48.7233 181.501 48.0443C177.337 47.1617 173.195 44.7629 168.827 41.2778C162.921 36.2538 159.866 30.7771 159.866 24.4406C159.866 18.7603 162.061 13.9399 166.202 10.0022C168.171 8.03334 171.226 6.29078 175.164 4.77452C178.875 3.23564 182.383 2.55672 185.008 2.55672C186.095 2.55672 187.634 2.35304 189.602 1.90043C191.549 1.47045 192.884 1.24414 193.947 1.24414C198.112 1.67412 200.963 1.90043 202.276 2.33041C204.878 2.9867 207.073 4.75189 208.612 7.58072C208.816 8.01071 208.816 8.8933 208.612 9.97957C208.408 11.4958 207.73 12.1747 206.643 12.6047C206.191 12.831 205.534 13.0347 204.674 13.0347C203.384 13.0347 201.416 12.6047 198.768 11.7448C195.713 11.0885 193.766 10.4322 192.635 10.4322C190.666 10.2059 189.15 10.2059 188.267 10.2059C181.274 10.2059 176.68 12.6274 174.055 17.4251C173.829 17.855 173.603 18.534 173.603 18.9639C173.603 21.5891 174.485 24.2143 176.454 26.8394C179.532 31.2071 184.103 34.7149 190.236 37.5437L205.331 44.5366C210.785 48.0217 214.722 52.6384 216.918 58.7486" fill="white"/>
<path d="M306.761 16.3395C300.425 8.2604 293.002 3.44007 284.47 2.12749C278.133 1.01859 273.109 0.362303 269.375 0.362303L268.493 0.362303C266.32 0.362303 264.125 0.362302 262.156 0.588609C255.39 1.2449 247.944 4.97896 239.865 11.7455C231.763 18.5121 226.739 25.2787 224.34 32.0679C223.684 34.8967 223.254 37.3182 223.254 38.6081C222.598 41.007 222.168 43.4284 222.168 46.2573C222.168 54.789 224.997 63.0945 230.473 71.3999C236.606 80.339 243.803 85.3857 252.561 86.472C256.046 87.5809 258.671 88.4408 260.436 89.0971C262.405 89.5271 265.46 89.5271 269.375 89.3234C271.57 89.0971 274.196 88.8708 277.024 88.6671C283.587 88.0108 289.924 85.612 295.808 81.4706C301.714 77.5102 306.308 72.4862 309.16 66.6022C309.567 65.7196 310.45 64.4297 311.559 62.6645C312.645 61.1256 313.098 60.2657 313.098 59.6094C313.754 54.1327 314.433 50.8513 314.84 49.9913C315.723 47.5925 316.153 44.741 316.153 41.6859C316.153 32.9505 313.098 24.4187 306.738 16.3395M289.743 74.4551C283.836 79.0491 278.382 81.2216 273.358 80.8143C272.906 80.8143 271.819 80.3617 269.851 79.9317L269.398 79.9317C268.108 79.5017 267.225 79.5017 266.773 79.7054C266.116 79.9317 265.686 79.9317 265.03 79.9317C260.006 79.9317 254.303 76.8766 247.763 70.3137C241.2 63.9771 237.919 58.2968 237.919 53.4765C237.919 53.0465 237.715 51.9376 237.262 49.9913C236.176 44.5373 235.95 40.147 236.402 36.8882C237.489 31.4116 239.888 25.9576 243.622 20.5036C248.442 13.2618 253.896 10.2066 259.802 10.8629C260.459 10.8629 261.341 10.8629 262.428 10.4329C263.74 10.003 264.397 9.77666 264.826 9.77666C266.139 9.55035 267.429 9.55035 268.764 9.55035L269.398 9.55035C279.039 9.77666 287.118 14.1217 293.681 22.8798C299.813 30.7553 302.642 39.6944 302.642 49.3124C302.642 58.9304 298.275 67.4622 289.743 74.4324L289.743 74.4551Z" fill="white"/>
<path d="M430.868 82.557C430.868 84.7522 429.985 86.2684 428.469 87.581C426.726 88.6673 424.961 89.0972 422.788 89.0972C419.507 89.0972 417.334 88.011 416.248 85.6121C415.795 84.2996 415.366 81.0181 415.139 75.5641C414.709 64.4072 413.6 53.9066 412.31 44.0849C412.084 42.976 411.654 40.1471 410.771 35.3494C410.568 33.6069 409.459 32.068 407.49 30.5517L406.834 30.5517C402.896 30.5517 399.615 33.3806 396.786 39.0835C395.269 43.6775 393.504 48.2489 391.762 52.8429C390.902 54.3818 390.472 56.577 390.019 59.4285C389.589 62.7099 389.159 65.1088 388.729 66.195C387.417 68.1639 385.674 71.4453 383.479 75.6094C382.37 78.8682 381.736 81.0634 381.51 81.7197C380.401 83.4622 378.885 84.9785 376.916 86.0874C376.486 86.5174 376.056 86.5174 375.4 86.5174C374.291 86.5174 373.205 86.3137 372.775 85.6574C370.579 83.2359 367.524 77.1256 363.813 67.2813C361.21 60.7184 356.82 50.8967 350.936 37.7709C349.827 35.1458 348.537 32.5206 346.772 29.6918C345.912 28.3792 344.147 27.2703 341.522 26.8403C339.553 28.5829 338.24 30.9817 337.81 34.4895C337.584 36.232 337.38 39.3098 336.928 42.9986L334.529 60.9221C334.302 63.1173 334.099 66.8287 334.302 72.079C334.302 76.6504 333.873 80.3618 333.42 83.0096C333.216 84.5259 332.334 85.8384 330.795 86.9473C329.256 88.0336 327.74 88.6899 326.201 88.6899C323.123 88.6899 321.607 87.6036 321.607 85.2048L321.607 77.7819C321.607 74.7268 322.489 70.7664 324.458 65.9687C326.201 61.3747 327.74 53.2956 329.052 42.1386C329.256 39.0835 330.568 27.4966 332.537 7.37794L333.85 4.97909C335.389 3.44021 338.444 2.55761 342.359 2.55761C345.64 2.55761 348.492 3.89282 350.913 6.29167C352 7.60425 353.312 9.57312 354.399 12.4246C354.829 13.7145 355.711 16.136 357.024 19.4175C360.961 28.6055 363.79 35.1458 365.533 38.8572C369.041 46.0764 372.526 52.1866 376.26 57.437C376.916 57.437 377.346 57.6633 377.776 57.6633C378.432 57.6633 379.089 57.2333 379.519 56.8033C383.004 53.0919 386.308 47.6153 389.363 40.3961C390.879 37.3409 393.074 31.208 395.903 22.4726C396.989 19.1911 398.981 14.1445 401.81 7.83056C403.779 4.34544 407.264 2.55762 412.084 2.55762C417.334 2.55762 420.616 6.72166 422.155 14.5971C422.811 20.73 423.241 27.044 423.671 33.1769C423.671 33.3806 425.21 41.935 427.835 58.7495C430.008 71.219 430.89 79.0719 430.89 82.557" fill="white"/>
<path d="M516.819 82.1283L505.889 56.7819C500.412 44.3125 496.927 35.7807 495.388 31.413C494.528 28.7878 493.419 25.7553 492.537 22.0213C490.59 17.8572 488.622 13.9195 486.856 9.77807C483.801 4.77669 480.293 2.1289 476.152 2.1289C475.518 2.1289 474.839 2.33258 474.206 2.33258C471.354 2.78519 469.612 3.87146 468.752 5.8177C461.963 22.8586 457.369 34.2418 454.97 40.1258C451.688 49.3138 449.516 55.4241 448.181 59.1355C445.782 66.1284 442.048 73.5739 437.454 81.4494C437.024 81.8567 437.024 82.9656 437.227 84.2782C437.68 86.9034 439.196 88.2159 441.391 88.2159C444.469 88.2159 446.415 87.3333 447.524 85.6134C448.181 84.5045 449.697 80.1594 451.892 72.4876C453.635 66.8073 455.377 62.8696 457.142 60.4707C459.994 56.963 463.931 55.2204 468.729 55.2204C469.815 55.2204 471.558 55.2204 473.979 55.4467L474.206 55.4467C476.152 55.673 477.917 55.673 479.23 55.673C484.684 56.103 487.988 56.963 489.73 58.2982C491.926 60.0408 493.872 63.1185 495.637 67.4636C499.122 76.4254 501.317 82.1057 501.77 84.3008C503.942 87.1297 507.02 88.6685 510.732 88.6685C512.927 88.6685 514.669 88.0123 515.982 86.926C517.521 85.8171 517.747 84.0745 516.842 82.1057M476.152 46.2587L474.206 46.2587C472.441 46.2587 471.354 46.055 470.472 45.8287C468.073 45.1724 466.33 43.8598 464.995 41.6647C464.791 41.2347 464.565 40.8047 464.565 39.9221C464.565 38.1795 465.448 35.3281 467.19 31.3903C469.612 25.4837 471.784 22.4286 473.753 21.9986C473.979 21.9986 474.183 21.7723 474.183 21.7723C475.699 21.546 476.808 22.2023 477.668 23.5149C481.81 30.0551 483.779 35.5318 483.779 39.6732C483.779 44.0635 481.153 46.2361 476.129 46.2361L476.152 46.2587Z" fill="white"/>
<path d="M597.52 81.8105C592.813 79.8869 587.042 75.3834 580.185 68.3452C570.997 58.5009 566.516 51.4401 566.516 46.733C566.516 46.0993 566.72 45.443 566.946 45.0357C567.806 43.5194 569.73 41.5958 572.92 39.2648C576.134 36.8886 578.261 34.965 579.121 33.6751C582.335 29.6242 583.828 25.3696 583.828 21.0698C583.828 18.7162 583.398 16.7926 582.335 15.0727C577.198 5.70357 568.44 0.770081 556.015 0.566404L555.155 0.566404C553.005 0.566404 549.588 0.77008 544.677 1.20006C540.83 1.63004 537.413 1.83372 534.403 2.06003C533.769 2.2637 533.113 2.69369 531.846 3.34997C531.416 3.98363 530.986 4.61729 530.556 5.0699C530.352 22.1787 530.126 31.5704 529.922 33.494C529.696 35.1913 530.126 37.3412 530.986 39.8985L530.986 66.4216C530.556 71.3325 530.33 77.5559 530.556 85.454C533.136 87.3776 535.693 88.2376 538.454 88.2376C542.754 88.2376 544.881 86.1103 544.677 82.0368L544.044 72.4188C543.614 68.3679 543.614 65.1317 543.614 62.3481C543.614 54.02 544.904 49.3128 547.461 48.4529C550.018 50.8065 552.802 53.8163 556.015 57.6409C557.939 59.9945 559.863 62.3481 561.786 64.928C568.01 73.4598 572.49 78.8232 574.844 81.1768C579.755 86.0877 584.258 88.4413 588.739 88.4413C591.523 88.4413 594.306 87.8076 597.067 86.0877C597.927 85.6577 597.927 84.1641 597.497 81.8105M560.949 39.8985C559.229 40.7358 557.532 41.3921 556.015 41.8221C555.155 42.0484 554.295 42.4558 553.662 42.6594C551.104 45.2393 549.181 46.5066 547.665 46.5066C547.461 46.5066 547.235 46.303 547.031 46.303C544.247 43.7231 542.957 40.5321 542.957 36.6849C542.957 35.395 542.957 33.6751 543.387 31.3441C543.817 28.9905 543.817 27.0669 543.817 26.0033C543.817 25.1433 543.817 24.2833 543.614 22.7897L543.614 19.5762C543.614 13.398 546.601 9.95813 552.598 9.32447C553.865 9.09816 554.952 9.09816 556.015 9.32447C559.433 9.75445 562.216 11.4744 564.796 14.2353C567.783 17.6526 569.277 21.9524 569.277 26.6369C569.277 33.494 566.516 37.7712 560.949 39.8985Z" fill="white"/>
<path d="M594.103 -3.71946e-07C595.528 -3.09625e-07 596.932 0.36209 598.289 1.1089C599.647 1.83308 600.711 2.87409 601.458 4.23193C602.204 5.6124 602.612 7.0155 602.612 8.4865C602.612 9.95749 602.227 11.3606 601.503 12.7184C600.756 14.0763 599.692 15.1173 598.357 15.8867C596.999 16.6335 595.596 16.9956 594.125 16.9956C592.654 16.9956 591.251 16.6109 589.893 15.8867C588.536 15.1399 587.495 14.0763 586.748 12.7184C586.001 11.3832 585.616 9.95749 585.616 8.4865C585.616 7.0155 586.001 5.6124 586.77 4.23193C587.517 2.87409 588.581 1.83308 589.939 1.1089C591.319 0.384721 592.7 -4.33277e-07 594.125 -3.70957e-07M594.103 1.4031C592.926 1.4031 591.749 1.71993 590.618 2.33096C589.486 2.91935 588.603 3.80195 587.97 4.95611C587.336 6.08765 587.019 7.26444 587.019 8.4865C587.019 9.70855 587.336 10.8853 587.97 12.0395C588.581 13.1484 589.463 14.031 590.595 14.6647C591.726 15.2757 592.881 15.5925 594.125 15.5925C595.37 15.5925 596.524 15.2757 597.656 14.6647C598.787 14.031 599.647 13.1484 600.281 12.0395C600.915 10.908 601.209 9.73118 601.209 8.4865C601.209 7.24181 600.892 6.08765 600.258 4.95611C599.625 3.80195 598.742 2.91935 597.61 2.33096C596.479 1.71993 595.325 1.4031 594.125 1.4031L594.103 1.4031ZM590.369 13.1937L590.369 4.05089L593.514 4.05089C594.578 4.05089 595.37 4.11878 595.845 4.29982C596.32 4.48087 596.705 4.75244 596.999 5.18242C597.294 5.6124 597.429 6.06502 597.429 6.51763C597.429 7.17392 597.18 7.76232 596.705 8.26019C596.23 8.73543 595.596 9.02963 594.804 9.07489C595.144 9.21068 595.393 9.36909 595.596 9.57277C595.958 9.93486 596.411 10.5233 596.954 11.3832L598.063 13.171L596.253 13.171L595.438 11.7227C594.804 10.5911 594.284 9.8896 593.899 9.5954C593.627 9.39172 593.243 9.27857 592.722 9.27857L591.84 9.27857L591.84 13.171L590.369 13.171L590.369 13.1937ZM591.84 8.03388L593.627 8.03388C594.487 8.03388 595.053 7.8981 595.37 7.67179C595.687 7.42286 595.845 7.06077 595.845 6.65341C595.845 6.38185 595.777 6.15554 595.619 5.92923C595.483 5.72556 595.257 5.56714 595.008 5.45399C594.736 5.34084 594.238 5.29557 593.514 5.29557L591.84 5.29557L591.84 8.05651L591.84 8.03388Z" fill="white"/>
</svg>
