<svg width="787" height="231" viewBox="0 0 787 231" fill="none" xmlns="http://www.w3.org/2000/svg">
<path fill-rule="evenodd" clip-rule="evenodd" d="M786.098 0C721.433 0.88699 653.384 23.6686 614.066 55.1957C586.126 77.6038 576.379 99.5296 576.285 99.763L578.164 97.5845C613.958 55.6781 655.2 38.3429 686.555 28.1036C734.86 12.3245 782.854 12.2156 782.854 12.2156L786.098 0Z" fill="white"/>
<path fill-rule="evenodd" clip-rule="evenodd" d="M137.36 137.908C141.365 135.325 146.394 134.406 149.561 134.406C154.14 134.406 158.02 138.437 158.02 143.23V188.824H166.713V143.572C166.713 133.566 159.014 125.412 149.561 125.412H148.459C145.572 125.412 142.017 125.739 137.36 127.98V102.848H128.544V188.824H137.36V137.908Z" fill="white"/>
<path fill-rule="evenodd" clip-rule="evenodd" d="M179.919 188.822H189.108V126.655H179.919V188.822Z" fill="white"/>
<path fill-rule="evenodd" clip-rule="evenodd" d="M179.919 115H189.108V102.862H179.919V115Z" fill="white"/>
<path fill-rule="evenodd" clip-rule="evenodd" d="M210.675 143.079C210.675 137.446 215.751 134.396 220.532 134.396C224.785 134.396 231.909 135.516 231.909 143.079V148.105C231.909 153.054 227.951 157.395 223.481 157.395L210.675 157.271V143.079ZM221.897 189.918C223.636 189.918 239.593 186.744 240.26 186.619L240.85 186.479L238.63 177.298L238.072 177.438C231.956 178.885 222.612 181.048 221.897 181.079C216.434 181.079 211.699 177.236 210.675 171.961V166.561C212.786 166.779 214.788 166.841 216.915 166.841C232.328 166.841 240.835 160.01 240.835 147.607V143.686C240.835 133.447 233.089 125.417 223.217 125.417H219.212C209.325 125.417 201.595 133.447 201.595 143.686V169.953C201.595 181.142 210.489 189.918 221.897 189.918Z" fill="white"/>
<path fill-rule="evenodd" clip-rule="evenodd" d="M259.823 143.34C259.823 138.392 263.61 134.393 268.267 134.393C270.626 134.393 275.749 135.373 280.343 138.034V177.7C278.853 179.458 271.17 181.092 268.127 181.092C263.642 181.092 259.823 177.03 259.823 172.253V143.34ZM268.267 189.931C270.89 189.931 277.161 189.246 282.377 186.741L286.149 190.506L292.466 184.329L289.16 181.17V102.959H280.468V128.168C276.587 126.41 272.489 125.554 268.267 125.554C258.814 125.554 251.131 133.692 251.131 143.683V171.771C251.131 181.948 258.659 189.931 268.267 189.931Z" fill="white"/>
<path fill-rule="evenodd" clip-rule="evenodd" d="M302.761 188.822H311.934V126.655H302.761V188.822Z" fill="white"/>
<path fill-rule="evenodd" clip-rule="evenodd" d="M302.761 115H311.934V102.862H302.761V115Z" fill="white"/>
<path fill-rule="evenodd" clip-rule="evenodd" d="M325.642 188.822H334.443V137.905C337.268 136.069 342.841 134.404 345.309 134.404C350.276 134.404 355.802 137.936 355.802 142.729V188.822H364.758V149.063C364.758 139.337 369.073 134.404 377.579 134.404C385.511 134.404 386.132 142.729 386.132 145.281V188.822H395.088V145.281C395.088 137.298 390.509 125.41 377.952 125.41C372.876 125.41 365.891 126.81 360.831 133.268C357.835 128.397 351.719 125.41 344.579 125.41C340.869 125.41 336.756 126.577 332.41 128.833L328.654 124.943L322.32 131.121L325.642 134.295V188.822Z" fill="white"/>
<path fill-rule="evenodd" clip-rule="evenodd" d="M408.139 115H417.359V102.862H408.139V115Z" fill="white"/>
<path fill-rule="evenodd" clip-rule="evenodd" d="M408.139 188.822H417.359V126.655H408.139V188.822Z" fill="white"/>
<path fill-rule="evenodd" clip-rule="evenodd" d="M506.161 115H515.35V102.862H506.161V115Z" fill="white"/>
<path fill-rule="evenodd" clip-rule="evenodd" d="M684.985 97.3444L670.364 73.9714H653.382L669.944 97.3444H684.985Z" fill="white"/>
<path fill-rule="evenodd" clip-rule="evenodd" d="M588.846 166.65C588.846 172.688 584.143 177.605 578.415 177.605C575.698 177.605 567.891 175.831 563.032 173.217V137.115C568.294 131.793 572.656 126.875 576.288 122.472V122.627C577.778 120.589 579.284 118.644 580.774 116.683L581.38 116.901C585.772 118.27 588.846 122.503 588.846 127.249V166.65ZM463.225 143.339C463.225 138.406 467.028 134.407 471.685 134.407C474.059 134.407 479.166 135.372 483.745 138.048V177.683C482.255 179.441 474.603 181.075 471.545 181.075C467.028 181.075 463.225 177.045 463.225 172.268V143.339ZM614.023 73.3915C599.075 85.1247 588.722 95.5196 581.054 104.312C579.595 105.992 578.229 107.58 576.956 109.136V108.98C575.357 111.205 573.712 113.368 572.066 115.516C568.543 120.075 564.942 124.401 561.294 128.494C557.895 132.322 554.418 135.948 550.941 139.387C539.346 150.746 527.347 159.99 515.364 167.257V126.658H506.175V172.439C501.611 174.82 497.079 176.936 492.577 178.788V102.973H483.885V128.167C479.989 126.424 475.891 125.568 471.685 125.568C462.232 125.568 454.548 133.691 454.548 143.697V171.754C454.548 178.679 458.087 184.779 463.784 187.891C448.417 192.139 433.5 194.894 384.202 194.956C363.65 194.971 129.126 195.096 129.126 195.096V203.468L395.797 203.577C433.795 203.577 463.939 196.761 487.502 187.658C489.97 186.677 492.329 185.712 494.657 184.732C498.926 182.88 502.931 180.982 506.734 179.052C509.528 177.605 512.197 176.189 514.774 174.711C524.646 169.062 532.702 163.335 539.206 158.231C542.838 155.384 546.113 152.645 549.233 149.984V230.031H562.846V188.576C567.829 190.614 573.044 191.626 578.415 191.626C591.671 191.626 602.505 180.204 602.505 166.152V127.903C602.505 118.55 597.74 110.085 590.119 105.619C618.555 74.2474 652.657 57.0367 680.83 49.1004C732.301 34.5974 778.014 34.1617 778.014 34.1617L781.227 22.055C702.608 21.1058 637.678 51.9326 614.023 73.3915Z" fill="white"/>
<path fill-rule="evenodd" clip-rule="evenodd" d="M617.782 189.975H632.093V104.077H617.782V189.975Z" fill="white"/>
<path fill-rule="evenodd" clip-rule="evenodd" d="M702.8 104.084H688.986V173.098C685.136 175.37 678.71 177.61 673.448 177.61C667.767 177.61 662.024 172.818 662.024 163.683V104.084H648.038V158.719C648.038 164.772 648.038 170.499 651.003 176.428C654.977 185.733 663.405 191.289 673.619 191.289C678.291 191.289 685.866 190.153 692.494 187.04L697.787 192.347L707.674 182.419L702.8 177.922V104.084Z" fill="white"/>
<path fill-rule="evenodd" clip-rule="evenodd" d="M617.782 97.3701H632.093V82.5713H617.782V97.3701Z" fill="white"/>
<path fill-rule="evenodd" clip-rule="evenodd" d="M69.2754 74.4041C49.7951 74.4041 33.2174 80.862 19.9615 93.5599C6.70557 106.242 0 122.099 0 140.71C0 152.412 2.94921 163.461 8.72345 173.529C14.4977 183.597 22.445 191.596 32.3792 197.338C42.2513 203.049 54.5604 205.959 68.9028 205.959C86.1014 205.959 101.546 202.442 114.802 195.486V180.298C100.273 188.919 85.2321 193.261 70.036 193.261C54.0637 193.261 40.7301 188.297 30.4234 178.478C20.1012 168.643 14.8547 155.945 14.8547 140.71C14.8547 125.6 20.1788 112.84 30.6873 102.788C41.1337 92.7352 54.4362 87.6466 70.2222 87.6466C84.2542 87.6466 98.7364 91.5836 113.374 99.3331V84.5655C97.2308 77.812 82.4071 74.4041 69.2754 74.4041Z" fill="white"/>
<mask id="mask0_2002_895" style="mask-type:luminance" maskUnits="userSpaceOnUse" x="253" y="10" width="40" height="57">
<path d="M276.858 11.0739C274.934 11.3196 273.306 11.4321 271.556 11.4321C270.42 11.4321 268.578 11.2581 267.35 11.1456L264.341 10.8999L265.037 12.8548C265.067 12.9469 265.108 13.0492 265.149 13.1516C265.374 13.694 265.907 14.9734 264.197 24.0413L259.428 48.8196L259.162 50.0478C257.924 55.6257 257.033 59.6582 254.833 64.4276L253.881 66.495L257.197 66.2494C259.131 66.0959 261.792 65.8912 266.695 65.8912C273.03 65.8912 279.457 66.0959 285.66 66.3006L287.666 66.3722L287.891 65.2566C288.71 61.1525 289.6 59.1055 290.685 56.8539L292.916 52.1766L288.689 55.1652C286.898 56.4343 284.442 58.1742 276.08 58.1742C274.483 58.1742 272.836 58.1742 269.98 58.0309C268.824 57.949 268.639 57.7443 268.619 57.7239C268.271 57.2735 268.772 54.7251 269.028 53.3536L273.798 28.1659C276.213 15.5567 277.472 13.9908 277.943 13.3972L279.979 10.6543L276.837 11.0637L276.858 11.0739Z" fill="white"/>
</mask>
<g mask="url(#mask0_2002_895)">
<path d="M292.926 10.6641H253.881V66.5048H292.926V10.6641Z" fill="white"/>
</g>
<mask id="mask1_2002_895" style="mask-type:luminance" maskUnits="userSpaceOnUse" x="201" y="10" width="56" height="58">
<path d="M215.183 55.0727C213.76 52.6983 213.259 48.7886 213.259 46.1583C213.259 39.1986 215.695 29.537 221.109 23.6725C224.486 20.1313 229.235 18.1048 234.138 18.1048C237.218 18.1048 239.972 18.8827 241.66 20.2439C244.014 22.168 245.161 25.566 245.161 30.6526C245.161 37.9705 242.51 51.8692 232.551 57.5495C230.085 58.921 227.27 59.6681 224.599 59.6681C221.406 59.6681 217.251 58.4604 215.193 55.083M217.179 15.802C202.338 26.0061 201.878 43.9271 201.878 46.0047C201.878 52.0023 203.628 57.048 206.944 60.6097C212.256 66.2491 219.983 67.0883 224.118 67.0883C246.235 67.0883 256.542 45.0427 256.542 30.1307C256.542 17.634 248.692 10.4697 234.998 10.4697C228.427 10.4697 222.429 12.2608 217.179 15.802Z" fill="white"/>
</mask>
<g mask="url(#mask1_2002_895)">
<path d="M256.542 10.4697H201.878V67.0883H256.542V10.4697Z" fill="white"/>
</g>
<mask id="mask2_2002_895" style="mask-type:luminance" maskUnits="userSpaceOnUse" x="132" y="1" width="69" height="68">
<path d="M150.909 59.5151C150.203 58.6451 150.633 55.9841 151.155 53.497L158.227 18.658C158.851 15.6899 159.383 13.428 159.998 10.9615L160.673 10.9C162.853 10.6851 164.572 10.5214 167.049 10.5214C181.245 10.5214 187.038 15.2805 187.038 26.9584C187.038 35.8626 182.903 45.9745 180.907 49.485C175.196 59.208 165.749 60.4567 158.155 60.4567C154.246 60.4567 151.626 60.3952 150.909 59.5151ZM145.515 4.30888C146.273 5.57798 147.839 8.22878 145.167 21.5442L139.804 47.8167C136.734 63.0256 135.434 64.7348 134.288 66.2393L132.354 68.8594L135.148 68.7468C136.816 68.6854 138.249 68.624 139.508 68.5626C141.872 68.4602 143.581 68.3783 145.045 68.3783C146.068 68.3783 148.893 68.45 151.646 68.5216C154.297 68.5933 156.886 68.6547 157.777 68.6547C165.412 68.6547 185.717 68.6547 195.921 45.9233C198.838 39.4447 200.445 32.2292 200.445 25.6074C200.445 22.015 199.944 18.9138 198.92 16.0993C193.619 2.13911 179.218 2.13911 173.078 2.13911C171.901 2.13911 168.625 2.19029 165.422 2.23122C162.362 2.27216 159.373 2.3131 158.34 2.3131C154.645 2.3131 151.861 2.19029 148.647 2.047L144.144 1.85254L145.515 4.29864V4.30888Z" fill="white"/>
</mask>
<g mask="url(#mask2_2002_895)">
<path d="M200.445 1.8623H132.354V68.8589H200.445V1.8623Z" fill="white"/>
</g>
<mask id="mask3_2002_895" style="mask-type:luminance" maskUnits="userSpaceOnUse" x="435" y="10" width="40" height="57">
<path d="M458.289 11.0739C456.365 11.3196 454.727 11.4321 452.987 11.4321C451.841 11.4321 449.999 11.2581 448.781 11.1456L445.782 10.8999L446.478 12.8548C446.509 12.9469 446.55 13.0492 446.591 13.1516C446.816 13.7042 447.348 14.9836 445.639 24.0413L440.869 48.8196L440.603 50.0171C439.365 55.6155 438.475 59.648 436.264 64.4276L435.312 66.495L438.638 66.2494C440.573 66.0959 443.234 65.8912 448.136 65.8912C454.482 65.8912 460.899 66.0959 467.111 66.3006L469.117 66.3722L469.343 65.2566C470.172 61.1525 471.062 59.1055 472.137 56.8539L474.368 52.1766L470.141 55.1652C468.35 56.4343 465.904 58.1742 457.532 58.1742C455.935 58.1742 454.287 58.1742 451.442 58.0309C450.275 57.949 450.091 57.7443 450.07 57.7239C449.723 57.2735 450.214 54.7251 450.48 53.3536L455.249 28.1659C457.665 15.5567 458.913 13.9908 459.394 13.3972L461.431 10.6543L458.299 11.0535L458.289 11.0739Z" fill="white"/>
</mask>
<g mask="url(#mask3_2002_895)">
<path d="M474.358 10.6641H435.312V66.4946H474.358V10.6641Z" fill="white"/>
</g>
<mask id="mask4_2002_895" style="mask-type:luminance" maskUnits="userSpaceOnUse" x="523" y="9" width="71" height="58">
<path d="M586.847 11.084C586.725 11.1045 583.869 11.6469 581.157 11.6469C579.151 11.6469 577.411 11.4627 575.825 11.0943L574.586 10.7975L574.177 12.1894C574.013 12.7932 573.665 14.0623 567.524 21.2778L559.715 30.4686L555.529 21.6463C552.551 15.27 552.52 14.3898 552.459 12.6397L552.397 10.9714L550.954 11.125C548.15 11.4422 546.369 11.5651 544.609 11.5651C542.725 11.5651 541.047 11.3706 539.266 11.1557L535.745 10.736L537.854 13.3152C537.946 13.4278 538.048 13.5404 538.181 13.6939C538.846 14.4103 540.402 16.0888 543.636 22.3115L552.131 38.9123L540.423 51.7159L540.33 51.8183C537.475 54.8171 532.685 59.8321 527.476 64.0079L523.853 66.9248L528.468 66.4028C530.607 66.1572 532.429 66.0446 534.036 66.0446C535.96 66.0446 537.792 66.1674 539.317 66.4028L540.269 66.5461L540.709 65.6864C540.975 65.1746 541.17 64.8062 542.132 63.6087C544.824 60.1494 546.4 58.3583 547.925 56.6286L556.184 46.967L559.736 54.1313C563.481 61.8995 564.126 64.4991 564.229 65.2565L564.413 66.5768L566.214 66.3414C567.371 66.1879 568.957 65.9729 571.209 65.9729C573.46 65.9729 575.221 66.2083 576.387 66.3619L579.693 66.7815L577.738 63.8646C576.531 62.053 576.244 61.6334 575.599 60.3541L573.102 55.8201C571.342 52.6268 570.922 51.8695 570.288 50.6208L563.768 38.1754L581.566 19.2309C585.834 14.7583 586.899 14.1033 587.533 13.7041L593.408 9.80469L586.837 11.0636L586.847 11.084Z" fill="white"/>
</mask>
<g mask="url(#mask4_2002_895)">
<path d="M593.428 9.82422H523.863V66.9341H593.428V9.82422Z" fill="white"/>
</g>
<mask id="mask5_2002_895" style="mask-type:luminance" maskUnits="userSpaceOnUse" x="293" y="10" width="55" height="58">
<path d="M306.569 55.0727C305.147 52.6983 304.645 48.7886 304.645 46.1583C304.645 39.1986 307.081 29.5473 312.495 23.6725C315.873 20.1313 320.622 18.1048 325.524 18.1048C328.615 18.1048 331.358 18.8827 333.047 20.2439C335.401 22.168 336.547 25.566 336.547 30.6526C336.547 37.9705 333.886 51.8692 323.927 57.5495C321.461 58.921 318.636 59.6681 315.975 59.6681C312.782 59.6681 308.627 58.4604 306.569 55.083M308.565 15.802C293.725 26.0061 293.274 43.9271 293.264 46.0047C293.264 51.9921 295.014 57.0378 298.33 60.6097C303.652 66.2491 311.38 67.0883 315.514 67.0883C337.622 67.0883 347.928 45.0427 347.928 30.1307C347.928 17.634 340.078 10.4697 326.394 10.4697C319.823 10.4697 313.826 12.2608 308.565 15.802Z" fill="white"/>
</mask>
<g mask="url(#mask5_2002_895)">
<path d="M347.918 10.4697H293.264V67.0883H347.918V10.4697Z" fill="white"/>
</g>
<mask id="mask6_2002_895" style="mask-type:luminance" maskUnits="userSpaceOnUse" x="470" y="10" width="54" height="59">
<path d="M495.871 42.4334L501.868 31.2263C502.298 30.4485 503.342 28.6062 504.478 26.6104C505.113 25.4846 505.768 24.3383 506.351 23.3149C506.525 24.6863 506.75 26.4876 507.016 28.8621L508.367 42.4436C506.484 42.5255 505.266 42.5255 503.352 42.5255C501.776 42.5255 500.026 42.5255 495.871 42.4334ZM502.442 11.7803C500.405 16.2836 489.362 36.661 484.807 44.7566L483.036 47.8782C479.649 53.8553 476.159 60.0269 473.139 64.305L470.97 67.3856L474.603 66.3826C475.821 66.0449 476.722 65.8402 478.861 65.8402C481 65.8402 482.228 66.0756 483.292 66.2905L486.179 66.8227L485.452 64.6632C485.206 63.9365 485.626 62.473 488.502 56.8336L491.726 50.5495H509.135L509.514 56.0251C509.749 59.1262 510.066 63.3429 509.821 64.1924L505.01 68.1328L511.131 66.4543C512.482 66.0858 513.843 65.8402 516.095 65.8402C517.528 65.8402 518.838 66.0756 520.23 66.3315L523.658 66.9251L522.491 64.4483C522.225 63.8854 521.969 63.3429 521.632 61.7463C521.253 60.1702 520.997 58.2051 520.25 52.2178L517.118 26.0987L516.913 23.9596C516.525 19.9886 516.156 16.2324 515.962 12.4967L515.798 10.9922L514.304 11.2583C512.748 11.5347 512.042 11.6677 509.995 11.6677C506.454 11.6677 505.502 11.4528 504.007 11.0536L502.902 10.7568L502.431 11.8008L502.442 11.7803Z" fill="white"/>
</mask>
<g mask="url(#mask6_2002_895)">
<path d="M523.679 10.7373H470.97V68.1235H523.679V10.7373Z" fill="white"/>
</g>
<mask id="mask7_2002_895" style="mask-type:luminance" maskUnits="userSpaceOnUse" x="343" y="10" width="50" height="57">
<path d="M362.298 36.4249L363.864 28.4726C364.928 23.2324 365.286 21.5641 365.952 19.1078C368.643 18.8212 370.035 18.6984 371.55 18.6984C379.605 18.6984 380.536 22.4443 380.536 25.2588C380.536 27.7152 379.093 32.9451 373.628 35.1558H373.597C370.844 36.3635 367.579 36.4659 364.734 36.4659C363.864 36.4659 363.014 36.4454 362.298 36.4249ZM355.277 13.0795C355.85 14.062 355.584 17.4497 354.489 23.1505L349.412 49.0444C347.549 57.3345 346.72 60.8348 344.909 64.3863L343.711 66.73L346.311 66.3309C347.693 66.1159 348.778 65.9726 351.121 65.9726C353.721 65.9726 355.103 66.1466 356.218 66.3206L358.204 66.6481L357.753 64.6933C357.661 64.3044 357.385 63.1069 358.009 59.6169L360.711 44.4797H365.952L371.222 54.9703C374.457 61.2851 374.938 62.5031 375.746 65.3586L376.063 66.4741L377.435 66.3001C378.581 66.1569 380.004 65.9726 382.051 65.9726C384.098 65.9726 385.643 66.1262 386.841 66.2285C387.352 66.2797 387.782 66.3206 388.151 66.3411L391.109 66.5151L389.297 64.1713C384.732 58.2556 380.741 51.4291 376.811 42.7807C379.523 42.0438 382.859 40.8259 386.257 37.6122C391.733 32.4436 392.163 26.3437 392.163 24.5936C392.163 22.8434 391.733 16.8152 386.237 13.5196C382.767 11.5443 378.254 11.2782 374.303 11.2782C373.495 11.2782 372.676 11.2987 371.437 11.3191C370.148 11.3498 368.387 11.3805 365.665 11.4215C358.982 11.5648 357.631 11.2782 356.75 11.0837L353.752 10.4287L355.307 13.0795H355.277Z" fill="white"/>
</mask>
<g mask="url(#mask7_2002_895)">
<path d="M392.152 10.4395H343.722V66.7305H392.152V10.4395Z" fill="white"/>
</g>
<mask id="mask8_2002_895" style="mask-type:luminance" maskUnits="userSpaceOnUse" x="393" y="11" width="47" height="56">
<path d="M404.69 13.2132C405.253 14.2265 405.58 17.7882 401.875 37.0499L399.695 48.431C397.249 61.5314 396.052 62.9029 395.253 63.8036C395.151 63.9161 395.059 64.0287 394.957 64.1515L393.145 66.3827L396.021 66.3418C398.743 66.3008 401.486 66.2906 404.229 66.2701C407.003 66.2497 409.776 66.2292 412.509 66.1985C417.708 66.1985 422.949 66.2497 428.527 66.352L429.611 66.3725L429.857 65.3183C430.522 62.4833 431.392 59.986 432.498 57.6934L434.422 53.7019L430.604 55.9535C429.079 56.8439 428.076 57.4375 425.436 57.8572C422.079 58.4201 417.463 58.502 415.017 58.502C411.813 58.502 409.04 58.502 408.579 57.9493C408.18 57.4683 408.681 55.0221 408.896 53.9884L411.506 41.3076L415.702 41.2052C417.923 41.1438 419.039 41.1131 419.725 41.1131C426.797 41.1131 427.779 41.5839 429.54 42.4539L431.218 43.2727L431.474 41.4304C431.853 38.6773 432.467 35.9446 433.306 33.304L434.319 30.0801L431.362 31.7279C429.028 33.0277 427.503 33.1096 422.079 33.2529H413.164L415.989 19.3746C416.245 19.3746 416.542 19.3541 416.869 19.3438C418.885 19.2824 422.253 19.1699 425.292 19.1699C429.54 19.1699 431.73 19.4462 432.283 19.5281C433.91 19.7839 434.442 20.1217 435.056 20.5106L436.878 21.6774L437.124 19.5281C437.4 17.1434 437.871 15.076 438.618 13.0393L439.324 11.1049L437.277 11.2277C433.46 11.4529 427.616 11.5962 421.628 11.5962C416.501 11.5962 411.189 11.5962 405.99 11.2277L403.503 11.0537L404.721 13.2337L404.69 13.2132Z" fill="white"/>
</mask>
<g mask="url(#mask8_2002_895)">
<path d="M439.293 11.0342H393.145V66.3836H439.293V11.0342Z" fill="white"/>
</g>
<path d="M586.858 66.6795C583.787 66.6795 580.973 64.0082 580.973 60.1088C580.973 56.2094 583.675 53.5381 586.858 53.5381C590.276 53.5381 592.773 56.5266 592.773 60.0986C592.773 63.6705 590.204 66.6897 586.858 66.6897M592.067 60.0986C592.067 56.9565 589.856 54.3364 586.899 54.3364C583.941 54.3364 581.689 56.936 581.689 60.1088C581.689 63.2816 584.033 65.8812 586.878 65.8812C589.723 65.8812 592.067 63.302 592.067 60.0883M586.786 55.9228C587.554 55.9228 588.065 55.9432 588.536 56.1275C589.334 56.4448 589.723 57.2533 589.723 58.0414C589.723 59.0751 589.14 59.7199 588.198 59.9962C588.792 60.2828 589.089 60.6001 589.253 61.7259C589.416 62.9847 589.488 63.4453 589.815 64.2027H588.311C588.25 64.0594 588.127 63.7831 588.014 63.0359C587.983 62.8722 587.861 61.9715 587.82 61.7668C587.605 60.4772 587.042 60.4772 585.691 60.4772V64.2027H584.36V55.9125H586.786V55.9228ZM585.711 59.3002H586.806C587.134 59.3002 587.717 59.3002 588.045 59.0034C588.26 58.8397 588.393 58.5122 588.393 58.154C588.393 57.8571 588.28 57.3863 587.861 57.1817C587.595 57.0691 587.4 57.0691 586.551 57.0691H585.711V59.3002Z" fill="white"/>
</svg>
