<svg width="787" height="335" viewBox="0 0 787 335" fill="none" xmlns="http://www.w3.org/2000/svg">
<path fill-rule="evenodd" clip-rule="evenodd" d="M786.098 104C721.433 104.887 653.384 127.669 614.066 159.196C586.126 181.604 576.379 203.53 576.285 203.763L578.164 201.584C613.958 159.678 655.2 142.343 686.555 132.104C734.86 116.324 782.854 116.216 782.854 116.216L786.098 104Z" fill="white"/>
<path fill-rule="evenodd" clip-rule="evenodd" d="M137.36 241.908C141.365 239.325 146.394 238.406 149.561 238.406C154.14 238.406 158.02 242.437 158.02 247.23V292.824H166.713V247.572C166.713 237.566 159.014 229.412 149.561 229.412H148.459C145.572 229.412 142.017 229.739 137.36 231.98V206.848H128.544V292.824H137.36V241.908Z" fill="white"/>
<path fill-rule="evenodd" clip-rule="evenodd" d="M179.919 292.822H189.108V230.655H179.919V292.822Z" fill="white"/>
<path fill-rule="evenodd" clip-rule="evenodd" d="M179.919 219H189.108V206.862H179.919V219Z" fill="white"/>
<path fill-rule="evenodd" clip-rule="evenodd" d="M210.675 247.079C210.675 241.446 215.751 238.396 220.532 238.396C224.785 238.396 231.909 239.516 231.909 247.079V252.105C231.909 257.054 227.951 261.395 223.481 261.395L210.675 261.271V247.079ZM221.897 293.918C223.636 293.918 239.593 290.744 240.26 290.619L240.85 290.479L238.63 281.298L238.072 281.438C231.956 282.885 222.612 285.048 221.897 285.079C216.434 285.079 211.699 281.236 210.675 275.961V270.561C212.786 270.779 214.788 270.841 216.915 270.841C232.328 270.841 240.835 264.01 240.835 251.607V247.686C240.835 237.447 233.089 229.417 223.217 229.417H219.212C209.325 229.417 201.595 237.447 201.595 247.686V273.953C201.595 285.142 210.489 293.918 221.897 293.918Z" fill="white"/>
<path fill-rule="evenodd" clip-rule="evenodd" d="M259.823 247.34C259.823 242.392 263.61 238.393 268.267 238.393C270.626 238.393 275.749 239.373 280.343 242.034V281.7C278.853 283.458 271.17 285.092 268.127 285.092C263.642 285.092 259.823 281.03 259.823 276.253V247.34ZM268.267 293.931C270.89 293.931 277.161 293.246 282.377 290.741L286.149 294.506L292.466 288.329L289.16 285.17V206.959H280.468V232.168C276.587 230.41 272.489 229.554 268.267 229.554C258.814 229.554 251.131 237.692 251.131 247.683V275.771C251.131 285.948 258.659 293.931 268.267 293.931Z" fill="white"/>
<path fill-rule="evenodd" clip-rule="evenodd" d="M302.761 292.822H311.934V230.655H302.761V292.822Z" fill="white"/>
<path fill-rule="evenodd" clip-rule="evenodd" d="M302.761 219H311.934V206.862H302.761V219Z" fill="white"/>
<path fill-rule="evenodd" clip-rule="evenodd" d="M325.642 292.822H334.443V241.905C337.268 240.069 342.841 238.404 345.309 238.404C350.276 238.404 355.802 241.936 355.802 246.729V292.822H364.758V253.063C364.758 243.337 369.073 238.404 377.579 238.404C385.511 238.404 386.132 246.729 386.132 249.281V292.822H395.088V249.281C395.088 241.298 390.509 229.41 377.952 229.41C372.876 229.41 365.891 230.81 360.831 237.268C357.835 232.397 351.719 229.41 344.579 229.41C340.869 229.41 336.756 230.577 332.41 232.833L328.654 228.943L322.32 235.121L325.642 238.295V292.822Z" fill="white"/>
<path fill-rule="evenodd" clip-rule="evenodd" d="M408.139 219H417.359V206.862H408.139V219Z" fill="white"/>
<path fill-rule="evenodd" clip-rule="evenodd" d="M408.139 292.822H417.359V230.655H408.139V292.822Z" fill="white"/>
<path fill-rule="evenodd" clip-rule="evenodd" d="M506.161 219H515.35V206.862H506.161V219Z" fill="white"/>
<path fill-rule="evenodd" clip-rule="evenodd" d="M684.985 201.344L670.364 177.971H653.382L669.944 201.344H684.985Z" fill="white"/>
<path fill-rule="evenodd" clip-rule="evenodd" d="M588.846 270.65C588.846 276.688 584.143 281.605 578.415 281.605C575.698 281.605 567.891 279.831 563.032 277.217V241.115C568.294 235.793 572.656 230.875 576.288 226.472V226.627C577.778 224.589 579.284 222.644 580.774 220.683L581.38 220.901C585.772 222.27 588.846 226.503 588.846 231.249V270.65ZM463.225 247.339C463.225 242.406 467.028 238.407 471.685 238.407C474.059 238.407 479.166 239.372 483.745 242.048V281.683C482.255 283.441 474.603 285.075 471.545 285.075C467.028 285.075 463.225 281.045 463.225 276.268V247.339ZM614.023 177.392C599.075 189.125 588.722 199.52 581.054 208.312C579.595 209.992 578.229 211.58 576.956 213.136V212.98C575.357 215.205 573.712 217.368 572.066 219.516C568.543 224.075 564.942 228.401 561.294 232.494C557.895 236.322 554.418 239.948 550.941 243.387C539.346 254.746 527.347 263.99 515.364 271.257V230.658H506.175V276.439C501.611 278.82 497.079 280.936 492.577 282.788V206.973H483.885V232.167C479.989 230.424 475.891 229.568 471.685 229.568C462.232 229.568 454.548 237.691 454.548 247.697V275.754C454.548 282.679 458.087 288.779 463.784 291.891C448.417 296.139 433.5 298.894 384.202 298.956C363.65 298.971 129.126 299.096 129.126 299.096V307.468L395.797 307.577C433.795 307.577 463.939 300.761 487.502 291.658C489.97 290.677 492.329 289.712 494.657 288.732C498.926 286.88 502.931 284.982 506.734 283.052C509.528 281.605 512.197 280.189 514.774 278.711C524.646 273.062 532.702 267.335 539.206 262.231C542.838 259.384 546.113 256.645 549.233 253.984V334.031H562.846V292.576C567.829 294.614 573.044 295.626 578.415 295.626C591.671 295.626 602.505 284.204 602.505 270.152V231.903C602.505 222.55 597.74 214.085 590.119 209.619C618.555 178.247 652.657 161.037 680.83 153.1C732.301 138.597 778.014 138.162 778.014 138.162L781.227 126.055C702.608 125.106 637.678 155.933 614.023 177.392Z" fill="white"/>
<path fill-rule="evenodd" clip-rule="evenodd" d="M617.782 293.975H632.093V208.077H617.782V293.975Z" fill="white"/>
<path fill-rule="evenodd" clip-rule="evenodd" d="M702.8 208.084H688.986V277.098C685.136 279.37 678.71 281.61 673.448 281.61C667.767 281.61 662.024 276.818 662.024 267.683V208.084H648.038V262.719C648.038 268.772 648.038 274.499 651.003 280.428C654.977 289.733 663.405 295.289 673.619 295.289C678.291 295.289 685.866 294.153 692.494 291.04L697.787 296.347L707.674 286.419L702.8 281.922V208.084Z" fill="white"/>
<path fill-rule="evenodd" clip-rule="evenodd" d="M617.782 201.37H632.093V186.571H617.782V201.37Z" fill="white"/>
<path fill-rule="evenodd" clip-rule="evenodd" d="M69.2754 178.404C49.7951 178.404 33.2174 184.862 19.9615 197.56C6.70557 210.242 0 226.099 0 244.71C0 256.412 2.94921 267.461 8.72345 277.529C14.4977 287.597 22.445 295.596 32.3792 301.338C42.2513 307.049 54.5604 309.959 68.9028 309.959C86.1014 309.959 101.546 306.442 114.802 299.486V284.298C100.273 292.919 85.2321 297.261 70.036 297.261C54.0637 297.261 40.7301 292.297 30.4234 282.478C20.1012 272.643 14.8547 259.945 14.8547 244.71C14.8547 229.6 20.1788 216.84 30.6873 206.788C41.1337 196.735 54.4362 191.647 70.2222 191.647C84.2542 191.647 98.7364 195.584 113.374 203.333V188.566C97.2308 181.812 82.4071 178.404 69.2754 178.404Z" fill="white"/>
<g clip-path="url(#clip0_2002_537)">
<path d="M406.639 175.783H319.36C298.623 175.693 278.763 167.401 264.118 152.718C249.473 138.035 241.233 118.153 241.197 97.4153V91.769C241.233 71.031 249.473 51.1496 264.118 36.4665C278.763 21.7833 298.623 13.4914 319.36 13.4016H406.639C427.377 13.4914 447.237 21.7833 461.882 36.4665C476.527 51.1496 484.767 71.031 484.803 91.769V97.4153C484.767 118.153 476.527 138.035 461.882 152.718C447.237 167.401 427.377 175.693 406.639 175.783Z" fill="white"/>
<path d="M406.571 175.578H319.429C298.733 175.506 278.908 167.244 264.286 152.597C249.665 137.95 241.437 118.111 241.401 97.415V91.7688C241.437 71.0731 249.665 51.2334 264.286 36.5867C278.908 21.9399 298.733 13.6774 319.429 13.6055H406.571C427.267 13.6774 447.092 21.9399 461.714 36.5867C476.335 51.2334 484.563 71.0731 484.599 91.7688V97.415C484.563 118.111 476.335 137.95 461.714 152.597C447.092 167.244 427.267 175.506 406.571 175.578Z" stroke="white" stroke-width="10.1361" stroke-miterlimit="10"/>
<path d="M318 186.191C306.12 186.257 294.346 183.944 283.374 179.388C261.925 170.293 244.85 153.218 235.755 131.769C231.199 120.797 228.886 109.023 228.953 97.143V90.3403C228.886 78.4599 231.199 66.6865 235.755 55.7144C244.85 34.265 261.925 17.1899 283.374 8.09539C294.346 3.53893 306.12 1.22588 318 1.29267H408.408C420.289 1.22588 432.062 3.53893 443.034 8.09539C453.596 12.6116 463.201 19.0992 471.334 27.211C479.424 35.3619 485.908 44.962 490.449 55.5104C495.006 66.4824 497.319 78.2558 497.252 90.1362V96.9389C497.319 108.819 495.006 120.593 490.449 131.565C485.908 142.113 479.424 151.713 471.334 159.864C463.201 167.976 453.596 174.464 443.034 178.98C432.062 183.536 420.289 185.849 408.408 185.783L318 186.191ZM318 13.8096C307.832 13.7738 297.763 15.8108 288.408 19.7961C279.363 23.6638 271.142 29.229 264.191 36.1907C257.093 43.2424 251.457 51.6251 247.605 60.8587C243.753 70.0923 241.76 79.9953 241.742 90.0002V96.8029C241.706 117.07 249.717 136.523 264.017 150.886C278.316 165.249 297.733 173.347 318 173.402H408.408C418.413 173.383 428.316 171.39 437.55 167.538C446.783 163.686 455.166 158.05 462.218 150.953C469.179 144.001 474.745 135.781 478.612 126.735C482.598 117.38 484.635 107.311 484.599 97.143V90.3403C484.635 80.172 482.598 70.1032 478.612 60.7485C470.79 42.3818 456.163 27.7549 437.796 19.9322C428.441 15.9469 418.373 13.9099 408.204 13.9457L318 13.8096Z" fill="#00A8DF"/>
<path d="M408.408 1.49661C420.223 1.42757 431.93 3.74124 442.83 8.29933C453.326 12.7943 462.864 19.2603 470.925 27.347C479.15 35.5501 485.679 45.2935 490.138 56.0203C494.596 66.7472 496.898 78.2474 496.911 89.864V96.6667C496.898 108.283 494.596 119.784 490.138 130.51C485.679 141.237 479.15 150.981 470.925 159.184C462.864 167.27 453.326 173.736 442.83 178.231C431.93 182.789 420.223 185.103 408.408 185.034H318C294.545 185.034 272.051 175.717 255.467 159.132C238.882 142.547 229.564 120.053 229.564 96.5987V89.796C229.564 66.3415 238.882 43.8475 255.467 27.2627C272.051 10.6778 294.545 1.36063 318 1.36063L408.408 1.49661ZM318 173.878H408.408C418.647 173.893 428.783 171.833 438.204 167.823C456.583 160.018 471.215 145.386 479.02 127.007C483.03 117.586 485.09 107.45 485.075 97.2109V90.4082C485.09 80.1692 483.03 70.0332 479.02 60.6123C471.215 42.2334 456.583 27.6007 438.204 19.7959C428.783 15.7857 418.647 13.7261 408.408 13.7415H318C307.761 13.7261 297.625 15.7857 288.204 19.7959C269.825 27.6007 255.192 42.2334 247.387 60.6123C243.377 70.0332 241.318 80.1692 241.333 90.4082V97.2109C241.318 107.45 243.377 117.586 247.387 127.007C255.192 145.386 269.825 160.018 288.204 167.823C297.625 171.833 307.761 173.893 318 173.878ZM408.408 0.408253H318C306.05 0.310386 294.204 2.62411 283.17 7.21097C261.781 16.3947 244.735 33.4409 235.551 54.83C230.964 65.8644 228.65 77.7106 228.748 89.6599V96.4626C228.65 108.412 230.964 120.258 235.551 131.293C244.735 152.682 261.781 169.728 283.17 178.912C294.204 183.498 306.05 185.812 318 185.714H408.408C420.357 185.812 432.204 183.498 443.238 178.912C464.627 169.728 481.673 152.682 490.857 131.293C495.444 120.258 497.758 108.412 497.66 96.4626V89.6599C497.758 77.7106 495.444 65.8644 490.857 54.83C481.673 33.4409 464.627 16.3947 443.238 7.21097C432.204 2.62411 420.357 0.310386 408.408 0.408253ZM318 172.857C307.9 172.865 297.904 170.829 288.612 166.871C279.614 163.049 271.438 157.529 264.53 150.612C257.628 143.693 252.11 135.519 248.272 126.531C244.314 117.239 242.277 107.242 242.285 97.1428V90.3401C242.277 80.2406 244.314 70.244 248.272 60.9524C252.11 51.9638 257.628 43.7903 264.53 36.8707C271.438 29.954 279.614 24.4338 288.612 20.6122C297.904 16.654 307.9 14.6178 318 14.6259H408.408C418.508 14.6178 428.504 16.654 437.796 20.6122C455.951 28.3393 470.409 42.797 478.136 60.9524C482.094 70.244 484.13 80.2406 484.122 90.3401V97.1428C484.13 107.242 482.094 117.239 478.136 126.531C470.409 144.686 455.951 159.144 437.796 166.871C428.504 170.829 418.508 172.865 408.408 172.857H318Z" fill="white"/>
<path d="M318 186.395C306.094 186.5 294.291 184.186 283.306 179.592C272.714 175.094 263.085 168.604 254.939 160.476C246.812 152.315 240.303 142.69 235.755 132.109C231.192 121.115 228.878 109.318 228.952 97.4149V90.6122C228.878 78.7092 231.192 66.912 235.755 55.9183C240.303 45.3371 246.812 35.712 254.939 27.551C263.085 19.4229 272.714 12.9337 283.306 8.43534C294.291 3.84121 306.094 1.52682 318 1.63262H376.231L372.83 3.06124C371.04 4.11134 369.469 5.49719 368.204 7.14281C366.744 9.33753 364.802 11.1705 362.527 12.5025C360.252 13.8345 357.703 14.6305 355.075 14.8299H318C297.85 14.8856 278.546 22.935 264.326 37.2108C257.367 44.1376 251.801 52.3358 247.932 61.3605C243.983 70.7025 241.947 80.7418 241.946 90.8843V97.687C241.947 107.83 243.983 117.869 247.932 127.211C255.79 145.554 270.406 160.169 288.748 168.027C298.09 171.977 308.13 174.012 318.272 174.014H370.177L370.585 187.211L318 186.395Z" fill="#FC9CB2"/>
<path d="M372.558 1.49673C367.932 3.40149 364.463 13.2655 355.075 13.2655H318C307.761 13.2501 297.625 15.3096 288.204 19.3199C269.825 27.1247 255.193 41.7574 247.388 60.1363C243.378 69.5572 241.318 79.6931 241.333 89.9321V96.7348C241.318 106.974 243.378 117.11 247.388 126.531C255.193 144.91 269.825 159.542 288.204 167.347C297.625 171.357 307.761 173.417 318 173.402H369.225L369.565 185.17H318C294.546 185.17 272.052 175.853 255.467 159.268C238.882 142.683 229.565 120.189 229.565 96.7348V89.9321C229.565 66.4776 238.882 43.9837 255.467 27.3989C272.052 10.814 294.546 1.49673 318 1.49673H372.558ZM379.837 0.000122183H318C305.98 -0.019857 294.083 2.4106 283.034 7.143C272.348 11.6701 262.644 18.2317 254.463 26.4627C246.093 34.795 239.448 44.6953 234.907 55.5975C230.367 66.4998 228.019 78.1902 228 90.0002V96.8029C228 120.691 237.476 143.604 254.348 160.515C271.221 177.425 294.112 186.953 318 187.007H371.061V185.51L370.721 173.742V172.313H318.136C308.086 172.336 298.135 170.322 288.884 166.395C270.836 158.685 256.458 144.308 248.748 126.259C244.821 117.008 242.807 107.057 242.83 97.007V90.2043C242.807 80.1541 244.821 70.2035 248.748 60.9526C256.458 42.9037 270.836 28.5264 288.884 20.8165C298.135 16.8889 308.086 14.8755 318.136 14.8981H355.211C357.932 14.6836 360.57 13.8561 362.926 12.4778C365.282 11.0994 367.296 9.20588 368.816 6.93893C370.01 5.38282 371.487 4.06712 373.17 3.06143L379.837 0.000122183Z" fill="white"/>
<path d="M405.415 201.361C398.393 201.258 391.502 199.436 385.347 196.054L380.789 193.537L379.156 192.653C378.227 192.034 377.534 191.12 377.189 190.058C376.843 188.997 376.865 187.85 377.252 186.803L380.245 181.224C381.129 179.388 382.15 177.483 383.442 175.102V174.558H384.122L387.047 173.946L392.694 172.857L386.639 173.401H385.143C384.207 173.387 383.301 173.067 382.564 172.49C381.827 171.913 381.299 171.11 381.061 170.204V169.388L381.741 168.707C382.046 168.471 382.321 168.196 382.558 167.891C383.306 167.138 384.101 166.434 384.939 165.782C391.006 161.432 397.986 158.523 405.347 157.279C406.895 156.988 408.465 156.828 410.041 156.803C415.687 156.803 417.524 160.068 418.884 166.191C420.539 174.554 420.7 183.145 419.36 191.565C418.544 197.891 415.891 200.34 409.224 200.884H405.619" fill="#00A8DF"/>
<path d="M409.837 158.435C414.395 158.435 415.959 160.612 417.32 166.735C418.94 174.942 419.101 183.37 417.796 191.633C417.048 197.415 414.803 199.32 408.953 199.796C407.774 199.863 406.593 199.863 405.415 199.796C398.604 199.699 391.921 197.923 385.959 194.626L379.837 191.293C378.885 190.408 377.32 189.048 378.204 186.939C380.585 182.585 381.81 180.136 384.395 175.238C391.993 174.362 399.356 172.053 406.095 168.435C405.076 168.368 404.054 168.368 403.034 168.435L386.436 171.701H385.279C384.123 171.701 383.17 171.225 382.558 169.456C383.515 168.459 384.538 167.528 385.619 166.667C391.468 162.418 398.22 159.578 405.347 158.367C406.83 158.102 408.331 157.943 409.837 157.891M409.837 155.17C408.194 155.191 406.555 155.351 404.939 155.646C397.381 156.91 390.213 159.888 383.986 164.354C383.066 165.056 382.201 165.829 381.402 166.667L380.653 167.415L379.293 168.708L379.905 170.408C380.321 171.58 381.051 172.615 382.014 173.401L378.748 179.524C377.864 181.293 376.98 182.993 375.823 185.102V185.442C375.351 186.745 375.315 188.165 375.72 189.49C376.124 190.815 376.949 191.973 378.068 192.789L379.701 193.674C381.198 194.558 382.558 195.306 384.327 196.191C390.583 199.645 397.59 201.513 404.735 201.633H408.476C409.928 201.745 411.388 201.556 412.763 201.077C414.138 200.598 415.399 199.839 416.466 198.849C417.533 197.858 418.384 196.657 418.964 195.321C419.544 193.986 419.841 192.545 419.837 191.089C421.21 182.489 421.049 173.714 419.361 165.17C418.136 159.864 416.368 154.762 409.157 154.762" fill="white"/>
<path d="M328.68 202.653C326.92 202.749 325.191 202.156 323.858 201.001C322.526 199.846 321.694 198.219 321.537 196.463C320.527 190.517 319.823 184.522 319.429 178.504C319.353 174.501 319.765 170.503 320.653 166.599C320.687 165.505 320.942 164.43 321.403 163.438C321.863 162.446 322.52 161.557 323.334 160.826C324.148 160.095 325.102 159.536 326.138 159.184C327.173 158.831 328.27 158.693 329.361 158.776H333.51C341.785 158.717 349.897 161.082 356.844 165.579C358.114 166.241 359.123 167.315 359.704 168.625C360.285 169.935 360.403 171.403 360.041 172.79C360.041 173.402 360.041 174.082 360.041 174.83C358.748 182.517 357.864 185.783 355.687 186.123C353.51 186.463 351.333 186.735 349.225 187.143L354.803 186.327L360.041 185.511L363.987 184.898L361.333 187.823C354.933 194.888 346.493 199.786 337.184 201.837C334.631 202.364 332.035 202.66 329.429 202.721H329.021" fill="#FC9CB2"/>
<path d="M333.51 159.796C341.544 159.791 349.4 162.158 356.095 166.599C357.146 167.113 357.982 167.982 358.455 169.052C358.928 170.123 359.007 171.326 358.68 172.449C358 175.986 356.979 184.354 355.142 184.558C347.639 185.546 340.284 187.442 333.238 190.204C332.811 190.387 332.427 190.657 332.111 190.996C331.795 191.336 331.553 191.738 331.401 192.177C335.959 191.088 340.449 190 345.006 189.116C349.564 188.231 353.986 187.687 359.904 186.735C353.706 193.624 345.494 198.385 336.435 200.34C334.001 200.883 331.514 201.157 329.02 201.156H328.612C327.179 201.25 325.767 200.773 324.684 199.831C323.601 198.888 322.934 197.555 322.83 196.122C321.844 190.22 321.163 184.271 320.789 178.299C320.735 174.413 321.123 170.533 321.945 166.735C322.898 161.905 324.53 160.476 329.428 159.932C330.789 159.932 332.149 159.932 333.442 159.932M333.442 157.143C332.081 157.143 330.585 157.143 329.156 157.143C327.88 157.088 326.607 157.292 325.412 157.742C324.217 158.192 323.126 158.88 322.204 159.764C321.283 160.647 320.549 161.709 320.049 162.883C319.548 164.058 319.291 165.322 319.292 166.599C318.404 170.618 317.993 174.728 318.068 178.844C318.428 184.91 319.132 190.952 320.177 196.939C320.383 199.019 321.381 200.941 322.963 202.308C324.545 203.675 326.591 204.383 328.68 204.286H329.156C331.854 204.257 334.543 203.961 337.183 203.401C346.747 201.263 355.418 196.227 362.013 188.98L367.387 183.129L359.496 184.354H358.952C359.989 181.379 360.696 178.299 361.061 175.17C361.061 174.422 361.061 173.741 361.401 173.197C361.822 171.529 361.676 169.768 360.986 168.192C360.297 166.615 359.103 165.313 357.592 164.49C350.387 159.951 342.025 157.589 333.51 157.687" fill="white"/>
<path d="M369.361 191.837C367.34 191.697 365.402 190.983 363.775 189.777C362.147 188.572 360.899 186.926 360.177 185.034C359.472 181.451 359.175 177.799 359.293 174.15C359.293 170.612 360.517 167.347 364.803 167.347C365.753 167.262 366.709 167.262 367.66 167.347L369.361 167.687C372.014 168.231 374.735 168.775 377.456 169.456C381.742 170.612 382.83 172.449 382.014 177.007C381.593 179.912 380.525 182.686 378.889 185.124C377.252 187.561 375.088 189.6 372.558 191.088C371.539 191.487 370.455 191.695 369.361 191.701" fill="#00A8DF"/>
<path d="M364.803 168.571C365.662 168.485 366.529 168.485 367.388 168.571C370.653 169.252 374.191 169.864 377.116 170.68C380.041 171.497 381.334 172.789 380.653 176.599C380.285 179.293 379.311 181.869 377.802 184.131C376.294 186.394 374.291 188.284 371.946 189.66C371.128 190.009 370.25 190.193 369.361 190.204C367.577 190.053 365.876 189.387 364.464 188.289C363.051 187.19 361.987 185.705 361.402 184.014C360.825 180.667 360.574 177.273 360.653 173.878C361.061 169.864 362.082 168.299 364.803 168.299M364.803 165.51C358.613 165.51 358 171.429 358 173.606C357.794 177.486 358.114 181.376 358.953 185.17C359.76 187.345 361.178 189.24 363.036 190.628C364.895 192.015 367.115 192.837 369.429 192.993C370.691 192.988 371.939 192.734 373.102 192.245C375.912 190.901 378.273 188.775 379.905 186.122C381.694 183.432 382.899 180.396 383.442 177.211C384.259 172.653 383.442 169.524 377.864 168.027C375.143 167.347 372.354 166.803 369.701 166.259H368C366.968 166.062 365.921 165.949 364.871 165.918" fill="white"/>
<path d="M269.564 52.9252C269.537 52.1968 269.657 51.4703 269.919 50.7899C270.181 50.1096 270.579 49.4896 271.088 48.9678C271.597 48.446 272.207 48.0332 272.881 47.7546C273.554 47.476 274.278 47.3373 275.007 47.3471C276.144 47.3324 277.261 47.6538 278.217 48.2709C279.173 48.888 279.926 49.7735 280.381 50.8164C281.462 49.4169 282.873 48.3059 284.487 47.5821C286.1 46.8582 287.868 46.5438 289.632 46.6668C291.522 46.6188 293.4 46.9905 295.129 47.7551C296.858 48.5197 298.396 49.6582 299.632 51.0886C302.511 48.4516 306.211 46.8895 310.109 46.6668C311.875 46.4314 313.671 46.591 315.368 47.1341C317.066 47.6771 318.621 48.59 319.922 49.807C321.224 51.0239 322.239 52.5146 322.895 54.1714C323.551 55.8282 323.83 57.6099 323.714 59.3879V79.3198C323.8 80.081 323.723 80.8517 323.491 81.5814C323.258 82.3111 322.874 82.9834 322.363 83.5544C321.853 84.1254 321.228 84.5823 320.528 84.8951C319.829 85.2079 319.072 85.3695 318.306 85.3695C317.54 85.3695 316.783 85.2079 316.083 84.8951C315.384 84.5823 314.759 84.1254 314.249 83.5544C313.738 82.9834 313.354 82.3111 313.121 81.5814C312.888 80.8517 312.812 80.081 312.898 79.3198V62.313C312.898 58.9117 311.061 55.5103 307.524 55.5103C303.986 55.5103 302.149 58.6396 302.149 62.313V79.3198C302.235 80.081 302.159 80.8517 301.926 81.5814C301.693 82.3111 301.309 82.9834 300.798 83.5544C300.288 84.1254 299.663 84.5823 298.964 84.8951C298.265 85.2079 297.507 85.3695 296.741 85.3695C295.975 85.3695 295.218 85.2079 294.519 84.8951C293.82 84.5823 293.194 84.1254 292.684 83.5544C292.173 82.9834 291.789 82.3111 291.556 81.5814C291.324 80.8517 291.248 80.081 291.333 79.3198V62.313C291.333 58.9117 289.496 55.5103 285.959 55.5103C282.422 55.5103 280.585 58.6396 280.585 62.313V79.3198C280.67 80.081 280.594 80.8517 280.361 81.5814C280.129 82.3111 279.744 82.9834 279.234 83.5544C278.723 84.1254 278.098 84.5823 277.399 84.8951C276.7 85.2079 275.943 85.3695 275.177 85.3695C274.411 85.3695 273.653 85.2079 272.954 84.8951C272.255 84.5823 271.63 84.1254 271.119 83.5544C270.609 82.9834 270.225 82.3111 269.992 81.5814C269.759 80.8517 269.683 80.081 269.769 79.3198L269.564 52.9252Z" fill="#003285"/>
<path d="M333.238 31.2923C334.138 31.1996 335.047 31.2969 335.907 31.5778C336.767 31.8586 337.558 32.3168 338.23 32.9227C338.901 33.5287 339.438 34.2689 339.805 35.0954C340.173 35.9219 340.363 36.8163 340.363 37.7208C340.363 38.6254 340.173 39.5199 339.805 40.3464C339.438 41.1729 338.901 41.9131 338.23 42.519C337.558 43.125 336.767 43.5831 335.907 43.864C335.047 44.1448 334.138 44.2421 333.238 44.1494C331.647 43.9856 330.173 43.2376 329.102 42.0502C328.031 40.8627 327.438 39.3202 327.438 37.7208C327.438 36.1215 328.031 34.579 329.102 33.3916C330.173 32.2042 331.647 31.4562 333.238 31.2923ZM327.864 52.9249C327.778 52.1638 327.855 51.3932 328.087 50.6635C328.32 49.9338 328.704 49.2615 329.215 48.6904C329.725 48.1194 330.35 47.6625 331.05 47.3497C331.749 47.037 332.506 46.8753 333.272 46.8753C334.038 46.8753 334.795 47.037 335.494 47.3497C336.194 47.6625 336.819 48.1194 337.329 48.6904C337.84 49.2615 338.224 49.9338 338.457 50.6635C338.689 51.3932 338.766 52.1638 338.68 52.9249V79.3195C338.766 80.0807 338.689 80.8513 338.457 81.581C338.224 82.3107 337.84 82.983 337.329 83.5541C336.819 84.1251 336.194 84.582 335.494 84.8948C334.795 85.2076 334.038 85.3691 333.272 85.3691C332.506 85.3691 331.749 85.2076 331.05 84.8948C330.35 84.582 329.725 84.1251 329.215 83.5541C328.704 82.983 328.32 82.3107 328.087 81.581C327.855 80.8513 327.778 80.0807 327.864 79.3195V52.9249Z" fill="#003285"/>
<path d="M345.823 72.9931C349.224 72.9931 351.537 76.1223 356.163 76.1223C358.408 76.1223 359.224 75.0339 359.224 73.9455C359.224 71.7686 356.911 71.5645 350.857 69.0475C344.802 66.5305 342.353 64.6938 342.353 58.9114C342.44 57.2133 342.862 55.5491 343.593 54.014C344.324 52.4789 345.351 51.1032 346.615 49.9657C347.879 48.8283 349.355 47.9513 350.958 47.3851C352.562 46.819 354.261 46.5748 355.959 46.6665C360.313 46.6665 368.408 48.7074 368.408 54.3536C368.436 54.9539 368.34 55.5537 368.126 56.115C367.911 56.6764 367.582 57.1871 367.161 57.6153C366.739 58.0434 366.233 58.3797 365.675 58.6027C365.117 58.8258 364.519 58.9309 363.918 58.9114C361.809 58.9114 358.612 56.1904 355.279 56.1904C353.85 56.1904 352.49 56.8706 352.49 58.5033C352.49 62.721 369.292 61.7006 369.292 73.5374C369.234 75.2391 368.83 76.9112 368.106 78.4524C367.382 79.9937 366.353 81.3721 365.081 82.5041C363.81 83.6362 362.321 84.4984 360.706 85.0384C359.091 85.5785 357.384 85.7853 355.687 85.6462C348.884 85.6462 341.333 82.9251 341.333 78.1632C341.268 77.5302 341.331 76.8907 341.521 76.2832C341.71 75.6758 342.021 75.1131 342.435 74.6295C342.848 74.146 343.356 73.7516 343.927 73.4703C344.498 73.189 345.119 73.0266 345.755 72.9931" fill="#003285"/>
<path d="M375.483 57.7551H374.19C370.789 57.7551 368.544 56.2585 368.544 52.7891C368.544 49.3197 370.789 47.8231 374.19 47.8231H375.483V41.0203C375.483 39.595 376.049 38.2281 377.057 37.2203C378.065 36.2124 379.432 35.6462 380.857 35.6462C382.282 35.6462 383.649 36.2124 384.657 37.2203C385.665 38.2281 386.231 39.595 386.231 41.0203V47.8231H389.224C392.694 47.8231 394.87 49.3197 394.87 52.7891C394.87 56.2585 392.694 57.7551 389.224 57.7551H386.231V79.3877C386.231 80.813 385.665 82.18 384.657 83.1879C383.649 84.1957 382.282 84.7619 380.857 84.7619C379.432 84.7619 378.065 84.1957 377.057 83.1879C376.049 82.18 375.483 80.813 375.483 79.3877V57.7551Z" fill="#003285"/>
<path d="M404.803 69.6602C404.803 71.9731 406.571 75.7146 413.51 75.7146C418.816 75.7146 422.014 72.3133 424.531 72.3133C425.135 72.3033 425.734 72.4172 426.292 72.6479C426.851 72.8787 427.356 73.2214 427.776 73.6548C428.197 74.0882 428.524 74.6033 428.738 75.1681C428.952 75.733 429.048 76.3358 429.02 76.9392C429.02 82.1773 420.245 85.6467 412.082 85.6467C409.529 85.718 406.99 85.2564 404.626 84.2913C402.262 83.3263 400.126 81.879 398.353 80.0418C396.579 78.2046 395.209 76.018 394.328 73.6214C393.448 71.2248 393.076 68.6709 393.238 66.1228C393.184 63.6044 393.63 61.1003 394.55 58.7554C395.47 56.4105 396.846 54.2714 398.599 52.4619C400.351 50.6525 402.446 49.2086 404.76 48.2139C407.074 47.2192 409.563 46.6934 412.082 46.667C414.439 46.6928 416.768 47.1898 418.931 48.1288C421.094 49.0678 423.048 50.4299 424.677 52.1349C426.306 53.8399 427.577 55.8534 428.417 58.057C429.256 60.2606 429.646 62.6097 429.565 64.9663C429.565 68.7759 427.796 69.6602 424.327 69.6602H404.803ZM418.816 62.2453C418.816 60.387 418.078 58.6048 416.764 57.2907C415.45 55.9767 413.668 55.2385 411.81 55.2385C409.951 55.2385 408.169 55.9767 406.855 57.2907C405.541 58.6048 404.803 60.387 404.803 62.2453H418.816Z" fill="#003285"/>
<path d="M432.626 52.9255C432.598 52.2028 432.717 51.4819 432.975 50.8062C433.233 50.1304 433.624 49.5136 434.126 48.9928C434.628 48.4719 435.229 48.0577 435.895 47.775C436.561 47.4922 437.277 47.3468 438 47.3473C439.149 47.3191 440.281 47.6341 441.25 48.252C442.219 48.87 442.983 49.7629 443.442 50.8167C444.304 49.6296 445.414 48.6438 446.694 47.9273C447.974 47.2109 449.394 46.7809 450.857 46.667C452.336 46.667 453.755 47.2547 454.802 48.3008C455.848 49.3469 456.435 50.7658 456.435 52.2453C456.435 55.9868 453.578 56.8711 449.633 58.0956C445.687 59.3201 443.442 60.6807 443.442 66.1909V79.3201C443.528 80.0812 443.452 80.8519 443.219 81.5816C442.986 82.3113 442.602 82.9836 442.091 83.5546C441.581 84.1257 440.955 84.5826 440.256 84.8953C439.557 85.2081 438.8 85.3697 438.034 85.3697C437.268 85.3697 436.511 85.2081 435.811 84.8953C435.112 84.5826 434.487 84.1257 433.977 83.5546C433.466 82.9836 433.082 82.3113 432.849 81.5816C432.616 80.8519 432.54 80.0812 432.626 79.3201V52.9255Z" fill="#003285"/>
<path d="M277.796 98.1633C277.768 97.3606 277.905 96.5605 278.199 95.8131C278.493 95.0656 278.938 94.3867 279.506 93.8187C280.074 93.2508 280.753 92.8058 281.5 92.5117C282.248 92.2175 283.048 92.0804 283.851 92.1089H298.204C300.107 91.908 302.031 92.1106 303.85 92.7038C305.67 93.297 307.343 94.2673 308.762 95.5513C310.181 96.8353 311.313 98.4042 312.084 100.155C312.856 101.907 313.249 103.801 313.238 105.714C313.181 107.84 312.558 109.912 311.434 111.718C310.31 113.523 308.726 114.996 306.844 115.986C309.924 116.497 312.713 118.11 314.691 120.526C316.669 122.942 317.7 125.995 317.592 129.116C317.592 137.619 312.15 145.306 298.952 145.306H283.851C283.042 145.335 282.236 145.196 281.483 144.898C280.731 144.6 280.049 144.149 279.48 143.573C278.911 142.998 278.467 142.311 278.178 141.555C277.888 140.8 277.758 139.992 277.796 139.184V98.1633ZM289.973 112.993H295.483C298.953 112.993 301.061 111.293 301.061 107.959C301.061 104.626 299.021 102.925 295.483 102.925H289.973V112.993ZM289.973 134.83H297.592C301.674 134.83 305.007 133.401 305.007 129.32C305.007 125.238 301.197 123.81 297.592 123.81H289.973V134.83Z" fill="#003285"/>
<path d="M331.537 101.973C333.714 95.9866 335.551 90.8845 341.674 90.8845C347.796 90.8845 349.769 95.9866 351.946 101.973L363.714 133.606C364.794 135.958 365.395 138.502 365.483 141.089C365.483 144.15 363.102 146.055 359.633 146.055C356.163 146.055 354.395 143.538 353.238 140.136L351.741 135.306H331.741L330.245 140.136C329.088 143.538 327.796 146.055 323.85 146.055C319.905 146.055 318 144.15 318 141.089C318.088 138.502 318.689 135.958 319.769 133.606L331.537 101.973ZM342.014 104.422L335.211 124.082H348L342.014 104.422Z" fill="#003285"/>
<path d="M367.456 98.1634C367.427 97.3606 367.564 96.5606 367.858 95.8131C368.153 95.0657 368.598 94.3868 369.166 93.8188C369.734 93.2508 370.413 92.8059 371.16 92.5117C371.907 92.2176 372.707 92.0804 373.51 92.109H387.864C389.772 91.8977 391.704 92.0927 393.531 92.6812C395.359 93.2697 397.041 94.2384 398.467 95.5235C399.894 96.8086 401.032 98.381 401.808 100.137C402.583 101.894 402.978 103.795 402.966 105.714C402.894 107.837 402.266 109.903 401.144 111.706C400.021 113.509 398.444 114.985 396.571 115.986C399.652 116.497 402.441 118.11 404.419 120.526C406.397 122.942 407.428 125.995 407.32 129.116C407.32 137.619 401.809 145.306 388.68 145.306H373.51C372.702 145.335 371.895 145.196 371.143 144.898C370.391 144.6 369.709 144.149 369.14 143.573C368.571 142.998 368.127 142.311 367.838 141.555C367.548 140.8 367.418 139.992 367.456 139.184V98.1634ZM379.633 112.993H385.211C388.68 112.993 390.721 111.293 390.721 107.959C390.721 104.626 388.748 102.925 385.211 102.925H379.837L379.633 112.993ZM379.633 134.83H387.32C391.333 134.83 394.667 133.401 394.667 129.32C394.667 125.238 390.925 123.81 387.32 123.81H379.837L379.633 134.83Z" fill="#003285"/>
<path d="M420.653 120.544L410.177 106.395C406.299 101.02 405.143 99.592 405.143 97.075C405.194 96.2872 405.403 95.5179 405.759 94.8132C406.115 94.1086 406.609 93.4832 407.213 92.9747C407.817 92.4662 408.517 92.0853 409.272 91.8547C410.027 91.6241 410.821 91.5485 411.606 91.6328C412.902 91.7213 414.152 92.152 415.227 92.881C416.303 93.61 417.166 94.6111 417.728 95.7824L426.776 108.64L435.823 95.7824C436.386 94.6111 437.249 93.61 438.324 92.881C439.4 92.152 440.65 91.7213 441.946 91.6328C442.731 91.5485 443.524 91.6241 444.279 91.8547C445.034 92.0853 445.735 92.4662 446.338 92.9747C446.942 93.4832 447.437 94.1086 447.793 94.8132C448.148 95.5179 448.358 96.2872 448.408 97.075C448.408 99.5239 447.252 101.02 443.374 106.395L432.83 120.544V139.388C432.921 140.241 432.83 141.105 432.565 141.921C432.301 142.738 431.867 143.489 431.293 144.127C430.719 144.765 430.017 145.276 429.233 145.625C428.449 145.974 427.6 146.155 426.742 146.155C425.883 146.155 425.034 145.974 424.25 145.625C423.466 145.276 422.764 144.765 422.19 144.127C421.616 143.489 421.183 142.738 420.918 141.921C420.653 141.105 420.563 140.241 420.653 139.388V120.544Z" fill="#003285"/>
</g>
<defs>
<clipPath id="clip0_2002_537">
<rect width="270" height="204.014" fill="white" transform="translate(228)"/>
</clipPath>
</defs>
</svg>
