<svg width="787" height="338" viewBox="0 0 787 338" fill="none" xmlns="http://www.w3.org/2000/svg">
<path fill-rule="evenodd" clip-rule="evenodd" d="M786.098 107.086C721.433 107.973 653.384 130.755 614.066 162.282C586.126 184.69 576.379 206.616 576.285 206.849L578.164 204.67C613.958 162.764 655.2 145.429 686.555 135.19C734.86 119.41 782.854 119.302 782.854 119.302L786.098 107.086Z" fill="white"/>
<path fill-rule="evenodd" clip-rule="evenodd" d="M137.36 244.994C141.365 242.41 146.394 241.492 149.561 241.492C154.14 241.492 158.02 245.523 158.02 250.316V295.91H166.713V250.658C166.713 240.652 159.014 232.498 149.561 232.498H148.459C145.572 232.498 142.017 232.825 137.36 235.066V209.934H128.544V295.91H137.36V244.994Z" fill="white"/>
<path fill-rule="evenodd" clip-rule="evenodd" d="M179.919 295.908H189.108V233.741H179.919V295.908Z" fill="white"/>
<path fill-rule="evenodd" clip-rule="evenodd" d="M179.919 222.086H189.108V209.948H179.919V222.086Z" fill="white"/>
<path fill-rule="evenodd" clip-rule="evenodd" d="M210.675 250.165C210.675 244.532 215.751 241.482 220.532 241.482C224.785 241.482 231.909 242.602 231.909 250.165V255.191C231.909 260.14 227.951 264.481 223.481 264.481L210.675 264.357V250.165ZM221.897 297.004C223.636 297.004 239.593 293.83 240.26 293.705L240.85 293.565L238.63 284.384L238.072 284.524C231.956 285.971 222.612 288.134 221.897 288.165C216.434 288.165 211.699 284.322 210.675 279.047V273.647C212.786 273.865 214.788 273.927 216.915 273.927C232.328 273.927 240.835 267.096 240.835 254.693V250.772C240.835 240.532 233.089 232.503 223.217 232.503H219.212C209.325 232.503 201.595 240.532 201.595 250.772V277.039C201.595 288.228 210.489 297.004 221.897 297.004Z" fill="white"/>
<path fill-rule="evenodd" clip-rule="evenodd" d="M259.823 250.426C259.823 245.478 263.61 241.479 268.267 241.479C270.626 241.479 275.749 242.459 280.343 245.12V284.786C278.853 286.544 271.17 288.178 268.127 288.178C263.642 288.178 259.823 284.116 259.823 279.339V250.426ZM268.267 297.017C270.89 297.017 277.161 296.332 282.377 293.827L286.149 297.592L292.466 291.415L289.16 288.256V210.045H280.468V235.254C276.587 233.496 272.489 232.64 268.267 232.64C258.814 232.64 251.131 240.778 251.131 250.769V278.857C251.131 289.034 258.659 297.017 268.267 297.017Z" fill="white"/>
<path fill-rule="evenodd" clip-rule="evenodd" d="M302.761 295.908H311.934V233.741H302.761V295.908Z" fill="white"/>
<path fill-rule="evenodd" clip-rule="evenodd" d="M302.761 222.086H311.934V209.948H302.761V222.086Z" fill="white"/>
<path fill-rule="evenodd" clip-rule="evenodd" d="M325.642 295.908H334.443V244.991C337.268 243.155 342.841 241.49 345.309 241.49C350.276 241.49 355.802 245.022 355.802 249.815V295.908H364.758V256.149C364.758 246.423 369.073 241.49 377.579 241.49C385.511 241.49 386.132 249.815 386.132 252.367V295.908H395.088V252.367C395.088 244.384 390.509 232.495 377.952 232.495C372.876 232.495 365.891 233.896 360.831 240.354C357.835 235.483 351.719 232.495 344.579 232.495C340.869 232.495 336.756 233.663 332.41 235.919L328.654 232.029L322.32 238.206L325.642 241.381V295.908Z" fill="white"/>
<path fill-rule="evenodd" clip-rule="evenodd" d="M408.139 222.086H417.359V209.948H408.139V222.086Z" fill="white"/>
<path fill-rule="evenodd" clip-rule="evenodd" d="M408.139 295.908H417.359V233.741H408.139V295.908Z" fill="white"/>
<path fill-rule="evenodd" clip-rule="evenodd" d="M506.161 222.086H515.35V209.948H506.161V222.086Z" fill="white"/>
<path fill-rule="evenodd" clip-rule="evenodd" d="M684.985 204.43L670.364 181.057H653.382L669.944 204.43H684.985Z" fill="white"/>
<path fill-rule="evenodd" clip-rule="evenodd" d="M588.846 273.736C588.846 279.774 584.143 284.691 578.415 284.691C575.698 284.691 567.891 282.917 563.032 280.303V244.201C568.294 238.879 572.656 233.961 576.288 229.558V229.713C577.778 227.675 579.284 225.73 580.774 223.769L581.38 223.987C585.772 225.356 588.846 229.589 588.846 234.335V273.736ZM463.225 250.425C463.225 245.492 467.028 241.493 471.685 241.493C474.059 241.493 479.166 242.458 483.745 245.134V284.769C482.255 286.527 474.603 288.161 471.545 288.161C467.028 288.161 463.225 284.131 463.225 279.354V250.425ZM614.023 180.477C599.075 192.211 588.722 202.606 581.054 211.398C579.595 213.078 578.229 214.665 576.956 216.222V216.066C575.357 218.291 573.712 220.454 572.066 222.602C568.543 227.161 564.942 231.487 561.294 235.58C557.895 239.408 554.418 243.034 550.941 246.473C539.346 257.832 527.347 267.076 515.364 274.343V233.744H506.175V279.525C501.611 281.906 497.079 284.022 492.577 285.874V210.059H483.885V235.253C479.989 233.51 475.891 232.654 471.685 232.654C462.232 232.654 454.548 240.777 454.548 250.783V278.84C454.548 285.765 458.087 291.865 463.784 294.977C448.417 299.225 433.5 301.98 384.202 302.042C363.65 302.057 129.126 302.182 129.126 302.182V310.554L395.797 310.663C433.795 310.663 463.939 303.847 487.502 294.744C489.97 293.763 492.329 292.798 494.657 291.818C498.926 289.966 502.931 288.068 506.734 286.138C509.528 284.691 512.197 283.275 514.774 281.797C524.646 276.148 532.702 270.421 539.206 265.317C542.838 262.47 546.113 259.731 549.233 257.07V337.117H562.846V295.662C567.829 297.7 573.044 298.712 578.415 298.712C591.671 298.712 602.505 287.29 602.505 273.238V234.988C602.505 225.636 597.74 217.171 590.119 212.705C618.555 181.333 652.657 164.123 680.83 156.186C732.301 141.683 778.014 141.248 778.014 141.248L781.227 129.141C702.608 128.192 637.678 159.019 614.023 180.477Z" fill="white"/>
<path fill-rule="evenodd" clip-rule="evenodd" d="M617.782 297.061H632.093V211.163H617.782V297.061Z" fill="white"/>
<path fill-rule="evenodd" clip-rule="evenodd" d="M702.8 211.17H688.986V280.184C685.136 282.456 678.71 284.696 673.448 284.696C667.767 284.696 662.024 279.903 662.024 270.769V211.17H648.038V265.805C648.038 271.858 648.038 277.585 651.003 283.514C654.977 292.819 663.405 298.375 673.619 298.375C678.291 298.375 685.866 297.239 692.494 294.126L697.787 299.433L707.674 289.505L702.8 285.008V211.17Z" fill="white"/>
<path fill-rule="evenodd" clip-rule="evenodd" d="M617.782 204.456H632.093V189.657H617.782V204.456Z" fill="white"/>
<path fill-rule="evenodd" clip-rule="evenodd" d="M69.2754 181.49C49.7951 181.49 33.2174 187.948 19.9615 200.646C6.70557 213.328 0 229.185 0 247.796C0 259.498 2.94921 270.547 8.72345 280.615C14.4977 290.683 22.445 298.682 32.3792 304.424C42.2513 310.135 54.5604 313.045 68.9028 313.045C86.1014 313.045 101.546 309.528 114.802 302.572V287.384C100.273 296.005 85.2321 300.347 70.036 300.347C54.0637 300.347 40.7301 295.383 30.4234 285.563C20.1012 275.729 14.8547 263.031 14.8547 247.796C14.8547 232.686 20.1788 219.926 30.6873 209.874C41.1337 199.821 54.4362 194.733 70.2222 194.733C84.2542 194.733 98.7364 198.67 113.374 206.419V191.651C97.2308 184.898 82.4071 181.49 69.2754 181.49Z" fill="white"/>
<path fill-rule="evenodd" clip-rule="evenodd" d="M329.941 103.622H384.721V48.8428H329.941V103.622Z" fill="#FFFFFE"/>
<path fill-rule="evenodd" clip-rule="evenodd" d="M329.941 103.622H384.721V48.8428H329.941V103.622ZM333.751 99.8127H380.9V52.6569H333.751V99.8127Z" fill="#BF2530"/>
<path fill-rule="evenodd" clip-rule="evenodd" d="M335.707 97.8572H378.954V54.6104H335.707V97.8572ZM375.061 81.4452H362.663V93.8631H352.051V81.4452H339.645V70.8371H352.051V58.4385H362.663V70.8371L375.061 70.8339V81.4452Z" fill="#BF2530"/>
<mask id="mask0_2002_809" style="mask-type:luminance" maskUnits="userSpaceOnUse" x="128" y="128" width="456" height="39">
<path d="M128.121 128.407H583.598V166.719H128.121V128.407Z" fill="white"/>
</mask>
<g mask="url(#mask0_2002_809)">
<path fill-rule="evenodd" clip-rule="evenodd" d="M128.121 133.807C128.121 133.807 130.243 133.641 131.468 133.557C132.676 133.483 133.858 133.428 135.033 133.377C136.19 133.339 137.286 133.301 138.317 133.263C139.335 133.245 140.194 133.228 140.899 133.228C140.983 133.62 141.041 134.238 141.069 135.098C141.096 135.96 141.075 166.117 141.075 166.117C141.075 166.117 142.585 165.979 143.439 165.979H149.209C150.055 165.979 151.426 166.117 151.426 166.117L151.414 135.098C151.414 134.672 151.511 133.395 151.56 133.228C152.261 133.228 153.12 133.245 154.144 133.263C155.167 133.301 156.252 133.339 157.383 133.377C158.528 133.428 159.684 133.483 160.834 133.557C162.007 133.641 163.983 133.807 163.983 133.807V129.06H128.121V133.807ZM459.232 133.816C459.232 133.816 461.378 133.641 462.584 133.557C463.796 133.483 464.969 133.428 466.153 133.377C467.297 133.339 468.4 133.301 469.423 133.263C470.456 133.245 471.312 133.228 472.009 133.228C472.09 133.62 472.165 134.238 472.187 135.098C472.203 135.96 472.187 166.117 472.187 166.117C472.187 166.117 473.7 165.979 474.556 165.979H480.314C481.179 165.979 482.551 166.117 482.551 166.117L482.523 135.098C482.523 134.672 482.618 133.395 482.667 133.228C483.372 133.228 484.224 133.245 485.249 133.263C486.273 133.301 487.355 133.339 488.486 133.377C489.64 133.428 490.785 133.483 491.949 133.557C493.117 133.641 495.097 133.816 495.097 133.816V129.06H459.232V133.816ZM198.445 147.875C201.922 147.181 204.602 146.024 206.458 144.356C208.32 142.716 209.249 140.579 209.249 137.945C209.249 136.339 208.845 134.94 208.025 133.766C207.22 132.605 206.114 131.626 204.714 130.826C204.109 130.514 203.473 130.23 202.795 130.003C202.122 129.77 201.329 129.571 200.425 129.428C199.512 129.289 198.445 129.174 197.183 129.111C195.921 129.028 194.411 128.998 192.656 128.998H176.675V166.047C176.675 166.047 178.328 165.915 179.253 165.915H184.966C185.896 165.915 187.544 166.047 187.544 166.047L187.541 149.096H187.811L200.243 166.047C201.311 165.956 202.376 165.915 203.418 165.915H210.17C211.183 165.915 212.232 165.956 213.311 166.047C210.75 163.061 208.184 160.043 205.621 157.009C203.074 153.968 200.662 150.923 198.445 147.875ZM196.074 144.863C194.464 146.146 192.13 146.775 189.08 146.775C188.859 146.775 188.603 146.765 188.349 146.752C188.1 146.727 187.554 146.669 187.554 146.669L187.528 132.035C187.528 132.035 191.318 132.106 192.667 132.253C194.028 132.39 195.13 132.703 195.987 133.184C196.837 133.676 197.472 134.387 197.879 135.322C198.295 136.254 198.501 137.509 198.501 139.077C198.501 141.659 197.691 143.599 196.074 144.863ZM241.34 128.879L221.448 166.165C221.448 166.165 222.704 166.047 223.261 166.047H226.453C227.001 166.047 228.104 166.165 228.104 166.165L233.241 155.01L249.033 155.036C249.033 155.036 253.233 164.418 253.973 166.165C254.956 166.073 255.939 166.047 256.938 166.047H262.874C263.865 166.047 266.056 166.165 266.056 166.165L246.655 128.879H241.34ZM235.056 151.861L241.34 139.279L247.424 151.896L235.056 151.861ZM520.04 128.962L500.153 166.249C500.153 166.249 501.403 166.127 501.96 166.127H505.174C505.708 166.127 506.812 166.249 506.812 166.249L511.95 155.095L527.741 155.121C527.741 155.121 531.934 164.501 532.688 166.249C533.658 166.165 534.653 166.127 535.65 166.127H541.574C542.581 166.127 544.755 166.249 544.755 166.249L525.35 128.962H520.04ZM513.761 151.944L520.04 139.36L526.132 151.975L513.761 151.944ZM315.934 154.011C310.699 149.657 286.382 129.046 286.382 129.046H279.054L279.065 166.082C279.065 166.082 281.199 165.956 282.239 165.956C282.752 165.956 285.285 166.082 285.285 166.082L285.303 140.184L315.537 166.082C315.537 166.082 317.979 165.956 319.012 165.956C319.991 165.956 322.078 166.082 322.078 166.082V129.046H315.922L315.934 154.011ZM361.142 146.351C359.554 145.438 357.855 144.659 356.028 144.029C354.217 143.404 352.517 142.757 350.926 142.067C349.342 141.38 348.02 140.615 346.981 139.78C345.929 138.941 345.409 137.85 345.409 136.518C345.409 135.242 346.073 134.1 347.426 133.141C348.773 132.174 350.515 131.693 352.658 131.693C356.804 131.693 359.626 133.228 361.11 136.311H362.158C362.629 135.135 364.075 131.89 364.39 131.004C363.042 130.191 361.423 129.557 359.539 129.09C357.65 128.645 355.458 128.407 352.949 128.407C350.848 128.407 348.856 128.669 346.968 129.162C345.088 129.656 343.423 130.393 341.98 131.37C340.539 132.338 339.377 133.534 338.517 134.967C337.651 136.396 337.214 138.051 337.214 139.903C337.214 141.942 337.737 143.634 338.761 144.941C339.788 146.244 341.077 147.357 342.623 148.246C344.168 149.139 345.856 149.907 347.67 150.531C349.492 151.157 351.168 151.792 352.708 152.454C354.253 153.132 355.544 153.886 356.565 154.735C357.594 155.616 358.109 156.715 358.109 158.074C358.109 159.587 357.439 160.876 356.104 161.946C354.779 163.019 352.708 163.561 349.9 163.561C348.5 163.561 347.238 163.41 346.114 163.101C344.99 162.8 344.024 162.38 343.239 161.838C342.431 161.311 341.784 160.679 341.264 159.975C340.749 159.28 340.396 158.544 340.208 157.75H338.879C338.555 158.989 337.271 163.284 336.841 164.578C337.855 165.181 339.367 165.684 341.363 166.099C343.34 166.498 345.598 166.719 348.119 166.719C350.917 166.719 353.449 166.434 355.718 165.88C357.982 165.333 359.921 164.513 361.551 163.454C363.185 162.394 364.446 161.123 365.328 159.633C366.229 158.144 366.659 156.509 366.659 154.718C366.659 152.674 366.138 150.997 365.085 149.682C364.035 148.378 362.719 147.255 361.142 146.351ZM408.389 141.44C406.104 146.024 401.312 154.981 401.312 154.981C401.312 154.981 399.409 151.416 398.277 149.083C397.135 146.734 396.03 144.418 394.967 142.097C393.89 139.772 392.861 137.509 391.85 135.266C390.854 133.043 389.163 128.903 389.163 128.903H376.429L394.975 165.956H401.636C401.636 165.956 409.872 149.399 411.643 146.058C413.406 142.716 420.926 128.903 420.926 128.903L414.129 128.985C414.129 128.985 410.683 136.825 408.389 141.44ZM434.723 166.146C434.723 166.146 436.244 166.015 437.098 166.015H442.86C443.707 166.015 445.085 166.146 445.085 166.146L445.168 129.111H434.583L434.723 166.146ZM580.039 161.34C578.844 161.42 577.648 161.483 576.483 161.509C575.307 161.571 571.763 161.613 570.747 161.633C569.72 161.661 568.773 161.684 568.075 161.684C567.978 161.287 568.01 160.666 567.978 159.802C567.955 158.946 567.978 128.794 567.978 128.794H557.359L557.375 165.846H583.598V161.093C583.598 161.093 581.263 161.268 580.039 161.34Z" fill="white"/>
</g>
<path fill-rule="evenodd" clip-rule="evenodd" d="M153.793 179.954C152.888 179.342 151.825 178.884 150.604 178.578C149.38 178.272 148.059 178.118 146.643 178.118C145.099 178.118 143.7 178.315 142.441 178.703C141.183 179.094 140.111 179.629 139.225 180.31C138.336 180.992 137.651 181.785 137.162 182.689C136.677 183.593 136.432 184.56 136.432 185.589C136.432 186.899 136.698 188.022 137.228 188.96C137.762 189.901 138.484 190.673 139.395 191.276C140.31 191.883 141.38 192.321 142.614 192.592C143.844 192.864 145.161 193 146.561 193C148.052 193 149.414 192.811 150.656 192.435C151.897 192.06 152.965 191.535 153.86 190.86C154.756 190.185 155.456 189.396 155.961 188.492C156.465 187.588 156.719 186.612 156.719 185.569C156.719 184.319 156.457 183.222 155.933 182.281C155.41 181.343 154.697 180.568 153.793 179.954ZM151.858 188.108C151.53 188.942 151.098 189.628 150.559 190.17C150.017 190.712 149.385 191.113 148.658 191.376C147.934 191.64 147.173 191.772 146.376 191.772C145.631 191.772 144.924 191.669 144.252 191.46C143.577 191.251 142.987 190.916 142.473 190.452C141.961 189.985 141.553 189.372 141.252 188.609C140.95 187.847 140.8 186.909 140.8 185.8C140.8 184.911 140.929 184.075 141.184 183.291C141.44 182.507 141.816 181.823 142.312 181.241C142.808 180.656 143.414 180.196 144.131 179.856C144.848 179.515 145.658 179.345 146.561 179.345C147.41 179.345 148.194 179.481 148.911 179.751C149.628 180.023 150.238 180.407 150.742 180.908C151.247 181.408 151.641 182.015 151.924 182.729C152.207 183.442 152.349 184.251 152.349 185.153C152.349 186.291 152.186 187.275 151.858 188.108ZM184.347 178.447C183.33 178.466 182.17 178.477 180.86 178.477C180.064 178.477 179.278 178.462 178.5 178.436C177.722 178.408 176.936 178.387 176.142 178.375C176.209 179.28 176.26 180.184 176.293 181.083C176.325 181.983 176.343 183.011 176.343 184.168L176.391 187.012C176.391 188.17 176.373 189.198 176.328 190.099C176.288 190.998 176.225 191.88 176.142 192.744C176.445 192.708 176.771 192.694 177.126 192.694H179.526C179.879 192.694 180.207 192.708 180.511 192.744C180.434 191.88 180.376 190.996 180.336 190.097C180.298 189.196 180.28 188.169 180.28 187.01V185.943C182.276 185.943 184.281 185.994 186.296 186.095C186.26 185.875 186.227 185.705 186.202 185.586C186.175 185.469 186.161 185.353 186.161 185.242C186.161 185.104 186.171 184.973 186.189 184.849C186.207 184.724 186.243 184.543 186.296 184.307C185.289 184.357 184.319 184.401 183.392 184.434C182.464 184.468 181.427 184.494 180.28 184.512C180.28 183.747 180.283 182.989 180.292 182.239C180.301 181.488 180.34 180.73 180.409 179.964C180.603 179.964 180.93 179.971 181.391 179.985C181.849 180 182.367 180.021 182.941 180.047C183.516 180.077 184.109 180.102 184.718 180.131C185.328 180.158 185.888 180.187 186.401 180.216C186.365 180.06 186.339 179.92 186.321 179.792C186.302 179.667 186.296 179.488 186.296 179.264C186.296 178.897 186.331 178.599 186.401 178.375C186.048 178.402 185.364 178.425 184.347 178.447ZM238.284 185.091C237.684 184.736 237.043 184.437 236.355 184.192C235.668 183.948 235.025 183.696 234.426 183.43C233.826 183.164 233.329 182.871 232.933 182.543C232.536 182.214 232.338 181.793 232.338 181.278C232.338 180.776 232.594 180.336 233.107 179.96C233.619 179.586 234.284 179.398 235.097 179.398C236.667 179.398 237.738 179.997 238.305 181.195H238.703C238.877 180.735 239.023 180.357 239.138 180.055C239.252 179.756 239.391 179.447 239.548 179.129C239.035 178.812 238.422 178.566 237.708 178.387C236.991 178.208 236.154 178.118 235.201 178.118C234.405 178.118 233.651 178.216 232.933 178.411C232.219 178.606 231.584 178.892 231.035 179.268C230.484 179.643 230.044 180.11 229.716 180.666C229.388 181.222 229.225 181.864 229.225 182.586C229.225 183.38 229.416 184.03 229.809 184.538C230.195 185.046 230.678 185.475 231.262 185.822C231.844 186.17 232.48 186.467 233.167 186.709C233.854 186.952 234.488 187.203 235.07 187.46C235.652 187.719 236.137 188.014 236.527 188.347C236.914 188.681 237.108 189.113 237.108 189.641C237.108 190.227 236.856 190.728 236.353 191.145C235.847 191.563 235.067 191.772 234.007 191.772C233.478 191.772 232.998 191.714 232.574 191.596C232.15 191.478 231.787 191.312 231.485 191.103C231.186 190.893 230.938 190.654 230.744 190.383C230.55 190.111 230.417 189.819 230.346 189.512H229.844C229.752 189.986 229.649 190.427 229.525 190.831C229.401 191.235 229.25 191.682 229.075 192.166C229.464 192.404 230.033 192.6 230.785 192.761C231.538 192.919 232.389 193 233.346 193C234.405 193 235.364 192.892 236.221 192.676C237.079 192.459 237.816 192.147 238.436 191.737C239.054 191.326 239.531 190.829 239.867 190.251C240.203 189.674 240.372 189.037 240.372 188.34C240.372 187.545 240.175 186.896 239.779 186.386C239.381 185.88 238.883 185.446 238.284 185.091ZM282.952 178.477C282.652 178.477 282.28 178.444 281.839 178.375C281.715 178.794 281.5 179.412 281.202 180.235C280.9 181.059 280.565 181.966 280.195 182.954C279.821 183.945 279.438 184.971 279.042 186.03C278.644 187.09 278.267 188.059 277.915 188.938H277.862C277.703 188.476 277.499 187.94 277.252 187.326C277.006 186.713 276.736 186.064 276.443 185.382C276.149 184.698 275.861 184.007 275.568 183.311C275.277 182.613 275.001 181.951 274.747 181.322C274.491 180.697 274.263 180.124 274.069 179.609C273.874 179.092 273.742 178.681 273.673 178.375C273.442 178.402 273.222 178.425 273.009 178.447C272.798 178.466 272.578 178.477 272.347 178.477C272.117 178.477 271.895 178.466 271.684 178.447C271.472 178.425 271.25 178.402 271.021 178.375C270.827 178.862 270.552 179.522 270.199 180.351C269.845 181.181 269.455 182.087 269.035 183.069C268.608 184.053 268.172 185.058 267.72 186.082C267.269 187.108 266.85 188.059 266.462 188.938H266.408C266.16 188.211 265.893 187.421 265.599 186.564C265.306 185.706 265.007 184.82 264.698 183.908C264.388 182.993 264.085 182.066 263.783 181.124C263.483 180.184 263.201 179.267 262.937 178.375C262.581 178.402 262.222 178.425 261.86 178.447C261.498 178.466 261.142 178.477 260.788 178.477C260.434 178.477 260.072 178.466 259.7 178.447C259.331 178.425 258.95 178.402 258.56 178.375C258.631 178.514 258.782 178.887 259.011 179.493C259.24 180.1 259.526 180.836 259.862 181.7C260.198 182.564 260.557 183.517 260.944 184.555C261.336 185.595 261.714 186.622 262.087 187.64C262.458 188.658 262.802 189.622 263.12 190.526C263.439 191.433 263.693 192.171 263.888 192.744C264.119 192.708 264.349 192.694 264.578 192.694H265.269C265.761 192.694 266.214 192.708 266.622 192.744C266.901 192.047 267.237 191.251 267.628 190.36C268.016 189.467 268.418 188.56 268.834 187.64C269.248 186.719 269.66 185.817 270.067 184.932C270.474 184.045 270.836 183.247 271.155 182.537H271.207C272 184.279 272.758 185.991 273.473 187.671C274.191 189.352 274.83 191.042 275.396 192.744C275.625 192.708 275.858 192.694 276.083 192.694H276.776C277.27 192.694 277.72 192.708 278.127 192.744C278.409 192.007 278.742 191.168 279.121 190.234C279.501 189.3 279.894 188.343 280.301 187.369C280.706 186.392 281.114 185.424 281.521 184.46C281.927 183.5 282.307 182.609 282.66 181.795C283.012 180.978 283.323 180.271 283.589 179.671C283.854 179.071 284.049 178.641 284.174 178.375C283.961 178.402 283.752 178.425 283.548 178.447C283.345 178.466 283.146 178.477 282.952 178.477ZM307.573 181.083C307.614 180.184 307.677 179.28 307.761 178.375C307.461 178.402 307.131 178.425 306.777 178.447C306.421 178.466 306.022 178.477 305.577 178.477C305.132 178.477 304.733 178.466 304.378 178.447C304.024 178.425 303.694 178.402 303.393 178.375C303.459 179.28 303.512 180.184 303.543 181.083C303.578 181.983 303.594 183.011 303.594 184.168V187.012C303.594 188.17 303.578 189.198 303.543 190.099C303.512 190.998 303.459 191.88 303.393 192.744C303.694 192.708 304.024 192.694 304.378 192.694H306.777C307.131 192.694 307.461 192.708 307.761 192.744C307.677 191.88 307.614 190.998 307.573 190.099C307.533 189.198 307.51 188.17 307.51 187.012V184.168C307.51 183.011 307.533 181.983 307.573 181.083ZM340.755 178.375C340.209 178.387 339.699 178.402 339.231 178.416C338.762 178.428 338.279 178.44 337.786 178.447C337.291 178.453 336.747 178.458 336.156 178.465C335.564 178.474 334.855 178.477 334.025 178.477C333.195 178.477 332.484 178.474 331.892 178.465C331.302 178.458 330.753 178.453 330.251 178.447C329.745 178.44 329.251 178.428 328.767 178.416C328.28 178.402 327.735 178.387 327.134 178.375C327.169 178.527 327.2 178.681 327.226 178.835C327.255 178.989 327.268 179.141 327.268 179.295C327.268 179.448 327.255 179.603 327.226 179.755C327.2 179.908 327.169 180.062 327.134 180.216C327.524 180.175 327.947 180.141 328.407 180.107C328.867 180.075 329.317 180.047 329.761 180.028C330.202 180.01 330.617 179.991 331.005 179.979C331.395 179.965 331.723 179.959 331.987 179.959C332.021 180.113 332.042 180.357 332.053 180.691C332.062 181.024 332.067 181.392 332.067 181.796V187.02C332.067 188.177 332.049 189.202 332.016 190.102C331.983 191 331.933 191.881 331.866 192.744C332.168 192.708 332.495 192.694 332.849 192.694H335.25C335.601 192.694 335.931 192.708 336.234 192.744C336.151 191.881 336.088 191 336.047 190.102C336.003 189.202 335.985 188.177 335.985 187.02V180.691C335.985 180.524 335.988 180.377 335.997 180.252C336.003 180.127 336.02 180.029 336.037 179.959C336.302 179.959 336.628 179.965 337.017 179.979C337.403 179.991 337.818 180.01 338.249 180.028C338.684 180.047 339.12 180.075 339.562 180.107C340.005 180.141 340.403 180.175 340.755 180.216C340.72 180.062 340.689 179.908 340.662 179.755C340.635 179.603 340.623 179.448 340.623 179.295C340.623 179.141 340.635 178.989 340.662 178.835C340.689 178.681 340.72 178.527 340.755 178.375ZM369.652 178.447C369.156 178.453 368.677 178.458 368.206 178.465C367.738 178.474 367.232 178.477 366.683 178.477C366.065 178.477 365.485 178.47 364.947 178.455C364.408 178.444 363.859 178.432 363.303 178.425C362.745 178.419 362.155 178.408 361.527 178.394C360.9 178.382 360.178 178.375 359.365 178.375C359.401 178.525 359.431 178.671 359.459 178.809C359.484 178.947 359.498 179.092 359.498 179.244C359.498 179.396 359.484 179.542 359.459 179.679C359.431 179.816 359.401 179.96 359.365 180.113C360.691 180.032 362.061 179.988 363.475 179.977C364.889 179.965 366.285 179.959 367.663 179.959L367.691 180.002C366.966 181.046 366.192 182.132 365.372 183.259C364.55 184.387 363.722 185.501 362.892 186.603C362.061 187.702 361.248 188.753 360.453 189.758C359.657 190.759 358.932 191.657 358.279 192.451V192.744C358.791 192.726 359.763 192.713 361.194 192.705C362.626 192.697 364.411 192.694 366.552 192.694H369.957C370.992 192.694 372.066 192.708 373.18 192.744C373.161 192.633 373.133 192.508 373.098 192.374C373.064 192.241 373.045 192.096 373.045 191.943C373.045 191.786 373.064 191.64 373.098 191.499C373.133 191.358 373.161 191.211 373.18 191.057C372.7 191.082 372.211 191.104 371.708 191.125C371.203 191.142 370.597 191.159 369.891 191.171C369.185 191.185 368.353 191.194 367.399 191.201C366.445 191.206 365.278 191.209 363.9 191.209V191.168C365.402 189.067 366.913 186.994 368.432 184.949C369.954 182.903 371.542 180.838 373.205 178.75V178.375C372.462 178.387 371.809 178.402 371.243 178.416C370.676 178.428 370.145 178.44 369.652 178.447ZM402.981 190.966C401.958 191.054 400.941 191.116 399.934 191.154C398.925 191.191 397.92 191.209 396.912 191.209C396.843 190.378 396.812 189.509 396.812 188.608C396.812 188.162 396.818 187.72 396.837 187.275C396.852 186.832 396.862 186.386 396.862 185.943C398.858 185.943 400.863 185.994 402.878 186.095C402.843 185.875 402.812 185.705 402.787 185.586C402.759 185.469 402.746 185.353 402.746 185.242C402.746 185.104 402.756 184.973 402.771 184.849C402.79 184.724 402.825 184.543 402.878 184.307C401.87 184.357 400.904 184.401 399.975 184.434C399.046 184.468 398.011 184.494 396.862 184.512C396.862 183.747 396.865 182.989 396.871 182.239C396.877 181.488 396.909 180.73 396.962 179.964C397.154 179.964 397.48 179.971 397.941 179.985C398.399 180 398.917 180.021 399.491 180.047C400.066 180.077 400.659 180.102 401.268 180.131C401.88 180.158 402.438 180.187 402.953 180.216C402.916 180.06 402.89 179.92 402.871 179.792C402.856 179.667 402.847 179.488 402.847 179.264C402.847 178.897 402.881 178.599 402.953 178.375C402.599 178.402 401.914 178.425 400.898 178.447C399.881 178.466 398.719 178.477 397.411 178.477C396.617 178.477 395.829 178.462 395.051 178.436C394.273 178.408 393.488 178.387 392.694 178.375C392.76 179.28 392.81 180.184 392.845 181.083C392.876 181.983 392.895 183.011 392.895 184.168V187.012C392.895 188.17 392.876 189.198 392.845 190.099C392.81 190.998 392.76 191.88 392.694 192.744C392.836 192.726 393.008 192.713 393.212 192.705C393.419 192.697 393.72 192.694 394.122 192.694H398.343C399.561 192.694 400.521 192.697 401.218 192.705C401.918 192.713 402.504 192.726 402.981 192.744C402.947 192.66 402.919 192.556 402.903 192.432C402.884 192.304 402.875 192.13 402.875 191.907C402.875 191.684 402.884 191.51 402.903 191.384C402.919 191.26 402.947 191.12 402.981 190.966ZM431.079 185.695C432.404 185.43 433.417 184.977 434.123 184.335C434.826 183.696 435.18 182.863 435.18 181.846C435.18 181.219 435.027 180.679 434.716 180.226C434.408 179.773 433.991 179.394 433.461 179.086C433.231 178.96 432.99 178.853 432.733 178.761C432.478 178.669 432.177 178.597 431.835 178.542C431.49 178.486 431.079 178.445 430.605 178.416C430.128 178.387 429.554 178.375 428.885 178.375C427.984 178.375 427.231 178.391 426.622 178.425C426.014 178.458 425.474 178.477 424.997 178.477C424.554 178.477 424.159 178.466 423.807 178.447C423.453 178.425 423.126 178.402 422.826 178.375C422.894 179.28 422.945 180.184 422.979 181.083C423.011 181.983 423.028 183.011 423.028 184.168V187.012C423.028 188.17 423.011 189.198 422.979 190.099C422.945 190.998 422.894 191.88 422.826 192.744C423.13 192.708 423.459 192.694 423.814 192.694H426.211C426.566 192.694 426.896 192.708 427.197 192.744C427.112 191.88 427.049 190.998 427.009 190.099C426.964 189.199 426.946 188.17 426.946 187.013V186.156H427.184L431.929 192.744C432.334 192.708 432.736 192.694 433.134 192.694H435.536C435.924 192.694 436.32 192.708 436.728 192.744C435.755 191.587 434.782 190.419 433.809 189.239C432.84 188.062 431.929 186.881 431.079 185.695ZM427.526 185.333C427.438 185.333 427.344 185.33 427.25 185.323C427.152 185.316 427.049 185.305 426.946 185.291C426.946 183.394 426.977 181.499 427.044 179.603C427.762 179.603 428.38 179.629 428.894 179.684C429.412 179.741 429.833 179.864 430.156 180.052C430.48 180.241 430.718 180.515 430.878 180.878C431.035 181.242 431.113 181.728 431.113 182.342C431.113 183.346 430.806 184.096 430.19 184.59C429.575 185.086 428.688 185.333 427.526 185.333ZM465.892 190.966C464.866 191.054 463.849 191.116 462.842 191.154C461.835 191.191 460.827 191.209 459.82 191.209C459.804 190.665 459.791 190.028 459.782 189.29C459.772 188.552 459.769 187.788 459.769 186.994V184.155C459.769 183 459.791 181.974 459.832 181.077C459.873 180.18 459.935 179.278 460.02 178.375C459.719 178.402 459.39 178.425 459.035 178.447C458.68 178.466 458.282 178.477 457.836 178.477C457.393 178.477 456.992 178.466 456.637 178.447C456.283 178.425 455.953 178.402 455.652 178.375C455.718 179.28 455.766 180.184 455.802 181.083C455.837 181.983 455.853 183.011 455.853 184.168V187.012C455.853 188.17 455.837 189.198 455.802 190.099C455.766 190.998 455.718 191.88 455.652 192.744C455.793 192.726 455.962 192.713 456.167 192.705C456.367 192.697 456.669 192.694 457.064 192.694H461.251C462.471 192.694 463.429 192.697 464.129 192.705C464.825 192.713 465.415 192.726 465.892 192.744C465.854 192.66 465.829 192.556 465.809 192.432C465.795 192.304 465.785 192.13 465.785 191.907C465.785 191.684 465.795 191.51 465.809 191.384C465.829 191.26 465.854 191.12 465.892 190.966ZM497.084 186.063C496.428 184.759 495.778 183.432 495.133 182.078C494.489 180.727 493.883 179.458 493.318 178.272C493.142 178.3 492.973 178.322 492.816 178.344C492.656 178.365 492.486 178.375 492.31 178.375C492.135 178.375 491.965 178.365 491.808 178.344C491.648 178.322 491.479 178.3 491.303 178.272C490.914 179.067 490.484 179.924 490.016 180.844C489.549 181.765 489.072 182.699 488.585 183.646C488.099 184.593 487.613 185.533 487.126 186.459C486.64 187.386 486.185 188.256 485.761 189.064C485.337 189.872 484.948 190.597 484.597 191.239C484.242 191.88 483.959 192.381 483.746 192.744C483.994 192.708 484.224 192.694 484.436 192.694H485.693C485.899 192.694 486.106 192.708 486.319 192.744C486.567 192.057 486.841 191.357 487.142 190.643C487.44 189.928 487.769 189.215 488.121 188.499C488.582 188.481 489.04 188.47 489.502 188.462C489.96 188.453 490.418 188.448 490.879 188.448C491.444 188.448 492.01 188.453 492.574 188.462C493.142 188.47 493.707 188.481 494.272 188.499C494.608 189.215 494.928 189.928 495.226 190.643C495.527 191.357 495.819 192.057 496.102 192.744C496.472 192.708 496.849 192.694 497.228 192.694H499.482C499.862 192.694 500.263 192.708 500.69 192.744C500.175 191.936 499.611 190.947 498.992 189.774C498.374 188.604 497.736 187.367 497.084 186.063ZM488.812 187.272C489.2 186.424 489.599 185.593 490.004 184.78C490.412 183.966 490.845 183.142 491.303 182.307C491.727 183.142 492.129 183.966 492.509 184.78C492.888 185.593 493.274 186.424 493.663 187.272H488.812ZM533.875 178.375C533.909 178.514 533.937 178.786 533.962 179.19C533.987 179.594 534.006 180.075 534.016 180.633C534.022 181.19 534.032 181.8 534.041 182.464C534.05 183.126 534.053 183.798 534.053 184.482V188.331C532.073 186.642 530.14 184.984 528.253 183.353C526.371 181.721 524.463 180.062 522.533 178.375C522.037 178.444 521.641 178.477 521.34 178.477C521.039 178.477 520.64 178.444 520.145 178.375C520.163 178.876 520.195 179.455 520.236 180.11C520.276 180.766 520.295 181.575 520.295 182.537C520.295 183.597 520.273 184.701 520.229 185.852C520.185 187.002 520.132 188.069 520.069 189.053C520.006 190.036 519.95 190.867 519.897 191.551C519.843 192.235 519.799 192.633 519.765 192.744C520.17 192.708 520.574 192.694 520.976 192.694H521.575C521.786 192.694 521.993 192.708 522.203 192.744C522.187 192.59 522.168 192.384 522.153 192.127C522.137 191.869 522.119 191.539 522.103 191.134C522.087 190.728 522.074 190.234 522.065 189.648C522.056 189.062 522.052 188.35 522.052 187.515V185.087C522.052 184.669 522.056 184.258 522.065 183.854C522.074 183.45 522.087 183.046 522.103 182.641C526.186 186.028 530.049 189.398 533.69 192.744C533.99 192.708 534.336 192.694 534.725 192.694C535.095 192.694 535.457 192.708 535.811 192.744V190.234C535.811 189.229 535.817 188.284 535.827 187.4C535.836 186.515 535.858 185.618 535.896 184.713C535.933 183.806 535.98 182.84 536.036 181.815C536.093 180.791 536.169 179.643 536.263 178.375C535.767 178.444 535.369 178.477 535.067 178.477C534.766 178.477 534.371 178.444 533.875 178.375ZM573.524 181.877C573.028 181.006 572.329 180.313 571.428 179.797C570.527 179.28 569.454 178.915 568.208 178.699C566.962 178.483 565.581 178.375 564.062 178.375C562.894 178.375 561.95 178.391 561.225 178.425C560.5 178.458 559.847 178.477 559.266 178.477C558.824 178.477 558.425 178.466 558.071 178.447C557.72 178.425 557.393 178.402 557.091 178.375C557.157 179.28 557.208 180.184 557.242 181.083C557.277 181.983 557.293 183.011 557.293 184.168V187.012C557.293 188.17 557.277 189.198 557.242 190.099C557.208 190.998 557.157 191.88 557.091 192.744C557.393 192.708 557.72 192.694 558.071 192.694H559.266C559.954 192.694 560.767 192.702 561.702 192.718C562.64 192.735 563.77 192.744 565.094 192.744C566.35 192.744 567.53 192.569 568.634 192.223C569.736 191.874 570.709 191.367 571.547 190.705C572.388 190.042 573.05 189.244 573.537 188.309C574.023 187.375 574.265 186.329 574.265 185.172C574.265 183.847 574.017 182.749 573.524 181.877ZM568.346 190.012C567.179 191.083 565.593 191.618 563.594 191.618C563.045 191.618 562.587 191.614 562.213 191.602C561.843 191.59 561.526 191.579 561.26 191.568C561.26 191.471 561.25 191.255 561.234 190.922C561.218 190.588 561.209 190.217 561.209 189.814V182.733L561.214 181.48C561.214 181.062 561.225 180.686 561.237 180.351C561.253 180.018 561.26 179.802 561.26 179.704C561.668 179.678 562.069 179.651 562.468 179.63C562.866 179.61 563.384 179.599 564.021 179.599C564.94 179.599 565.772 179.728 566.513 179.985C567.257 180.242 567.894 180.612 568.424 181.091C568.955 181.571 569.369 182.152 569.661 182.833C569.953 183.515 570.097 184.287 570.097 185.15C570.097 187.32 569.514 188.942 568.346 190.012Z" fill="white"/>
<path fill-rule="evenodd" clip-rule="evenodd" d="M259.934 69.8467C259.83 70.0248 259.746 70.2013 259.671 70.37C259.6 70.5402 259.522 70.7199 259.445 70.9099C259.362 71.0999 259.287 71.2804 259.214 71.4506C259.142 71.6208 259.076 71.8037 259.016 72.0032C258.738 71.9937 258.397 71.9969 257.993 72.0111C257.588 72.0262 257.162 72.0523 256.711 72.0895C256.261 72.1228 255.804 72.1592 255.343 72.1972C254.877 72.2328 254.438 72.2668 254.023 72.2938C253.828 72.7221 253.634 73.1606 253.436 73.604C253.243 74.0505 253.051 74.497 252.857 74.9451C252.679 75.3663 252.506 75.7819 252.338 76.1928C252.171 76.6005 252 77.0161 251.834 77.4428C252.459 78.2321 253.054 78.9628 253.634 79.6374C254.209 80.3119 254.699 80.8383 255.097 81.2263C254.981 81.4471 254.864 81.6926 254.749 81.9641C254.631 82.2372 254.536 82.4914 254.46 82.732C253.119 80.8367 251.78 78.9723 250.437 77.1404C249.094 75.3085 247.727 73.4567 246.327 71.5844L246.492 71.1965C247.229 71.1363 248.027 71.0674 248.883 70.9954C249.743 70.9218 250.611 70.845 251.491 70.7666C252.37 70.6859 253.244 70.6043 254.114 70.5196C254.983 70.4357 255.794 70.3541 256.544 70.2718C257.297 70.1934 257.969 70.1198 258.559 70.0501C259.152 69.9813 259.61 69.9124 259.934 69.8467ZM251.286 76.7406C251.434 76.3891 251.597 76.0241 251.768 75.6497C251.94 75.2744 252.1 74.9095 252.25 74.5564C252.41 74.1764 252.572 73.7956 252.725 73.4116C252.885 73.0308 253.037 72.6484 253.188 72.2637L248.299 72.7886L251.286 76.7406Z" fill="white"/>
<path fill-rule="evenodd" clip-rule="evenodd" d="M253.827 61.2967C253.209 60.9365 252.571 60.5692 251.923 60.2002C252.242 59.7387 252.552 59.2795 252.862 58.8211C253.168 58.3643 253.475 57.898 253.768 57.4246C254.067 56.9544 254.354 56.4762 254.62 55.9925C254.891 55.5103 255.175 55.0322 255.472 54.5595C256.164 53.4646 256.862 52.6009 257.57 51.962C258.279 51.3287 258.989 50.8925 259.705 50.6574C260.421 50.423 261.146 50.3803 261.867 50.5291C262.595 50.6795 263.326 50.9922 264.054 51.4704C264.999 52.0871 265.664 52.8218 266.042 53.676C266.421 54.5287 266.6 55.4193 266.577 56.344C266.555 57.2702 266.373 58.1878 266.036 59.0998C265.695 60.0102 265.294 60.8336 264.833 61.5667C264.565 61.9902 264.296 62.4043 264.031 62.8088C263.76 63.2126 263.494 63.6266 263.227 64.0509C262.961 64.4729 262.699 64.8901 262.438 65.301C262.181 65.7111 261.93 66.1354 261.68 66.5716C261.114 66.1497 260.542 65.7269 259.955 65.2994C259.368 64.8727 258.763 64.4555 258.139 64.0478L255.693 62.4518C255.071 62.0448 254.448 61.6585 253.827 61.2967ZM262.184 64.37C262.396 64.1404 262.654 63.8087 262.961 63.3764C263.267 62.9426 263.569 62.4913 263.866 62.0171C264.296 61.3323 264.665 60.6079 264.976 59.8416C265.28 59.0792 265.437 58.3129 265.437 57.5497C265.438 56.7857 265.248 56.0392 264.874 55.3092C264.495 54.5825 263.839 53.9096 262.901 53.2976C262.078 52.7616 261.314 52.4521 260.618 52.3737C259.918 52.2945 259.271 52.3887 258.669 52.6532C258.066 52.92 257.504 53.3388 256.977 53.908C256.452 54.478 255.945 55.1493 255.458 55.9204C255.106 56.4809 254.791 57.0121 254.515 57.518C254.237 58.0207 253.996 58.4783 253.792 58.8876C254.222 59.2217 254.68 59.5621 255.164 59.9041C255.651 60.2477 256.148 60.5866 256.66 60.9207L259.102 62.5175C260.122 63.1833 261.152 63.8016 262.184 64.37Z" fill="white"/>
<path fill-rule="evenodd" clip-rule="evenodd" d="M271.847 47.7312C270.83 47.4675 269.752 47.192 268.617 46.911C267.481 46.6284 266.321 46.3386 265.13 46.0489C263.941 45.7575 262.811 45.486 261.742 45.2311C261.892 45.0917 262.038 44.9548 262.175 44.8233C262.311 44.6911 262.438 44.5581 262.554 44.4236C262.67 44.2913 262.783 44.1473 262.896 43.9897C263.009 43.8369 263.125 43.6746 263.243 43.5028C264.01 43.7617 264.826 44.0182 265.689 44.2755C266.558 44.5312 267.447 44.7822 268.364 45.0229C269.281 45.2667 270.21 45.5089 271.158 45.7496C272.104 45.9903 273.052 46.2222 274.001 46.4431C273.827 45.9341 273.629 45.372 273.406 44.7561C273.184 44.1393 272.947 43.506 272.692 42.8544C272.444 42.2021 272.176 41.5458 271.907 40.8824C271.628 40.2237 271.369 39.5848 271.118 38.976C270.867 38.3641 270.63 37.8004 270.404 37.2802C270.178 36.7625 269.979 36.3152 269.805 35.9455C270.063 35.7396 270.26 35.5552 270.406 35.3873C270.551 35.2211 270.708 34.9986 270.877 34.7168C271.592 36.8995 272.32 39.0401 273.073 41.1349C273.817 43.2305 274.596 45.2936 275.399 47.3203C275.231 47.4842 275.063 47.6591 274.9 47.8468C274.707 48.0684 274.555 48.2576 274.452 48.4168C273.729 48.2244 272.86 47.9964 271.847 47.7312Z" fill="white"/>
<path fill-rule="evenodd" clip-rule="evenodd" d="M290.62 32.796C290.452 32.914 290.297 33.0319 290.162 33.1515C290.023 33.2726 289.879 33.4001 289.722 33.5346C289.568 33.67 289.424 33.7983 289.286 33.917C289.148 34.0382 289.01 34.1743 288.869 34.3263C288.624 34.1933 288.318 34.0437 287.946 33.8767C287.574 33.7096 287.179 33.5426 286.76 33.3724C286.339 33.2037 285.913 33.0319 285.482 32.8586C285.049 32.6868 284.64 32.5181 284.255 32.3558C283.895 32.6575 283.533 32.9631 283.163 33.275C282.797 33.5901 282.43 33.9075 282.068 34.221C281.726 34.5227 281.39 34.8195 281.064 35.1101C280.734 35.403 280.405 35.7046 280.073 36.0118C280.292 36.9974 280.518 37.9221 280.747 38.7851C280.976 39.648 281.187 40.3423 281.381 40.8687C281.177 41.0136 280.967 41.1822 280.748 41.3762C280.524 41.5694 280.329 41.7538 280.155 41.9367C279.771 39.6369 279.364 37.3616 278.945 35.1148C278.527 32.8704 278.095 30.5936 277.643 28.2882L277.955 28.0127C278.644 28.2866 279.391 28.5811 280.195 28.8986C280.998 29.2168 281.812 29.5367 282.636 29.8557C283.461 30.1763 284.281 30.4922 285.099 30.8065C285.918 31.1169 286.681 31.405 287.389 31.6671C288.1 31.9307 288.737 32.165 289.298 32.3677C289.86 32.5688 290.303 32.7129 290.62 32.796ZM279.882 35.1362C280.167 34.8884 280.468 34.6303 280.785 34.3683C281.101 34.111 281.4 33.8529 281.688 33.6011C281.999 33.3328 282.304 33.0612 282.607 32.7881C282.915 32.515 283.217 32.2379 283.521 31.96L278.893 30.2508L279.882 35.1362Z" fill="white"/>
<path fill-rule="evenodd" clip-rule="evenodd" d="M297.385 23.0414C294.954 22.682 292.532 22.3281 290.112 21.9829C290.263 22.264 290.472 22.6384 290.732 23.1055C290.997 23.5718 291.369 24.202 291.844 24.9937C291.968 25.1979 292.123 25.4505 292.312 25.7497C292.497 26.0474 292.697 26.3617 292.901 26.6887C293.106 27.0196 293.319 27.3497 293.536 27.6838C293.756 28.0195 293.956 28.329 294.145 28.614C294.333 28.8998 294.503 29.1484 294.644 29.3606C294.789 29.5727 294.891 29.7152 294.951 29.7841C294.741 29.8862 294.518 30.0121 294.283 30.1602C294.037 30.3137 293.808 30.4657 293.613 30.6162C293.578 30.5053 293.498 30.3035 293.372 30.0224C293.242 29.739 293.082 29.4089 292.888 29.0249C292.691 28.6441 292.481 28.2285 292.254 27.7804C292.025 27.3307 291.791 26.885 291.554 26.4417C291.313 26.0023 291.074 25.5708 290.843 25.1536C290.608 24.734 290.394 24.3651 290.197 24.0429C289.638 23.1055 289.149 22.2996 288.739 21.6298C288.326 20.9601 288.008 20.4653 287.782 20.1478L288.083 19.9649C289.225 20.1383 290.448 20.3259 291.751 20.5278C293.056 20.7289 294.349 20.9244 295.627 21.1145C296.909 21.3037 298.12 21.4818 299.266 21.6473C300.414 21.8127 301.405 21.9433 302.244 22.0368L301.046 20.0433C300.431 19.0173 299.822 18.0245 299.219 17.0642C298.616 16.1023 298.027 15.2109 297.448 14.3899C297.725 14.2847 297.952 14.1786 298.126 14.0709C298.271 13.9775 298.457 13.8302 298.676 13.626C298.781 13.8564 298.946 14.1976 299.172 14.6457C299.4 15.0969 299.643 15.5743 299.907 16.0818C300.17 16.5892 300.431 17.0864 300.688 17.5709C300.942 18.0554 301.158 18.4386 301.329 18.7212C301.474 18.9666 301.647 19.258 301.857 19.6016C302.055 19.9341 302.266 20.2792 302.488 20.6363C302.715 20.9941 302.939 21.3551 303.164 21.7161C303.387 22.0795 303.606 22.4183 303.798 22.7318C303.997 23.0446 304.168 23.3177 304.306 23.5536C304.434 23.7689 304.531 23.9289 304.594 24.0365L304.337 24.1996C302.131 23.7879 299.813 23.4 297.385 23.0414Z" fill="white"/>
<path fill-rule="evenodd" clip-rule="evenodd" d="M319.293 16.8234C319.069 17.0324 318.79 17.2557 318.453 17.4892C318.117 17.7228 317.729 17.9658 317.299 18.2207C316.868 18.4741 316.406 18.7045 315.906 18.9127C314.844 19.3544 313.815 19.6473 312.819 19.7851C311.826 19.9213 310.903 19.8833 310.054 19.6671C309.205 19.451 308.455 19.0702 307.805 18.5192C307.149 17.9674 306.644 17.2422 306.28 16.3405C305.917 15.438 305.779 14.5608 305.866 13.6995C305.947 12.8405 306.228 12.0282 306.697 11.2643C307.165 10.4979 307.811 9.79492 308.635 9.15366C309.46 8.51161 310.432 7.95902 311.545 7.49351C312.434 7.12459 313.267 6.8578 314.06 6.6955C314.847 6.53004 315.566 6.43346 316.213 6.39941C316.166 6.59258 316.158 6.83009 316.193 7.11272C316.229 7.39534 316.259 7.62968 316.291 7.81652L316.181 7.89806C315.993 7.82602 315.751 7.76268 315.443 7.70331C315.136 7.64789 314.796 7.61068 314.411 7.59722C314.029 7.58218 313.617 7.61068 313.172 7.67718C312.729 7.74606 312.266 7.88064 311.784 8.08173C310.987 8.41186 310.293 8.82116 309.698 9.30487C309.098 9.79017 308.63 10.3459 308.299 10.9761C307.962 11.6063 307.781 12.2982 307.757 13.0582C307.736 13.8174 307.9 14.6368 308.253 15.5164C308.609 16.3959 309.056 17.0966 309.596 17.6199C310.137 18.1439 310.742 18.5097 311.417 18.7203C312.086 18.9277 312.802 18.9903 313.56 18.9079C314.321 18.8264 315.099 18.6205 315.893 18.2896C316.376 18.0869 316.803 17.8526 317.173 17.585C317.543 17.3182 317.876 17.0498 318.165 16.7736C318.453 16.4973 318.706 16.2257 318.919 15.9558C319.131 15.689 319.309 15.457 319.451 15.2599L319.558 15.2915L319.753 16.3049C319.665 16.4403 319.511 16.6121 319.293 16.8234Z" fill="white"/>
<path fill-rule="evenodd" clip-rule="evenodd" d="M322.419 6.24553C322.205 5.54489 321.984 4.84664 321.762 4.146C322.399 4.00192 323.034 3.85625 323.664 3.70979C324.296 3.56016 324.928 3.40499 325.559 3.23795C326.192 3.0709 326.814 2.89753 327.427 2.71781C328.044 2.5389 328.664 2.35602 329.29 2.16602C329.29 2.34493 329.312 2.51515 329.353 2.6814C329.398 2.84844 329.46 3.00915 329.544 3.1659C329.09 3.26011 328.672 3.34799 328.293 3.42162C327.915 3.49762 327.517 3.57995 327.095 3.66624C326.676 3.75412 326.215 3.85387 325.722 3.96629C325.224 4.07712 324.635 4.22834 323.943 4.40646C324.02 4.76509 324.088 5.11026 324.148 5.43564C324.209 5.7634 324.292 6.13153 324.394 6.54241C324.506 6.97387 324.615 7.39663 324.727 7.80355C324.837 8.21285 324.922 8.5216 324.971 8.73298C325.591 8.56989 326.146 8.41947 326.634 8.27856C327.124 8.13685 327.571 8.00701 327.974 7.88034C328.378 7.75763 328.748 7.64205 329.086 7.53517C329.429 7.42909 329.752 7.323 330.054 7.22008C330.055 7.39663 330.078 7.57317 330.123 7.74972C330.166 7.91834 330.225 8.07905 330.311 8.23422C329.94 8.29597 329.505 8.38147 329.013 8.48677C328.525 8.59048 328.036 8.70369 327.549 8.8264C327.065 8.94911 326.604 9.0639 326.175 9.17157C325.743 9.27845 325.402 9.36553 325.151 9.42966C325.175 9.53099 325.197 9.63945 325.221 9.75899C325.245 9.87695 325.28 10.0258 325.323 10.2023L325.487 10.8507L325.74 11.849C325.901 12.4824 326.035 13.0025 326.146 13.4102C326.261 13.8187 326.347 14.1267 326.416 14.3341C326.88 14.2122 327.373 14.0839 327.891 13.9454C328.424 13.8045 328.947 13.658 329.457 13.5084C329.965 13.3564 330.445 13.2052 330.893 13.0579C331.342 12.9107 331.729 12.7634 332.054 12.6209C332.048 12.704 332.051 12.7943 332.069 12.8917C332.083 12.9882 332.103 13.0737 332.121 13.1521C332.168 13.3318 332.227 13.4688 332.293 13.5685C331.658 13.7126 331.025 13.8662 330.4 14.0309C329.774 14.1956 329.136 14.3642 328.49 14.5344C327.844 14.7046 327.206 14.8716 326.573 15.0379C325.938 15.2049 325.305 15.3831 324.662 15.577C324.527 14.855 324.381 14.1378 324.24 13.4253C324.094 12.7112 323.93 11.9876 323.745 11.2568L323.019 8.39414C322.834 7.66342 322.635 6.94696 322.419 6.24553Z" fill="white"/>
<path fill-rule="evenodd" clip-rule="evenodd" d="M335.63 3.08672C335.518 2.36866 335.404 1.63478 335.279 0.889019C335.828 0.85181 336.376 0.809059 336.918 0.766309C337.461 0.725933 338.009 0.672891 338.559 0.610348C339.104 0.551764 339.647 0.476555 340.186 0.387887C340.723 0.300802 341.267 0.226385 341.817 0.163842C343.088 0.0229236 344.185 0.0355904 345.117 0.197093C346.045 0.358595 346.826 0.649932 347.455 1.07031C348.083 1.48911 348.569 2.03616 348.913 2.7075C349.251 3.37805 349.473 4.15152 349.564 5.02712C349.683 6.16634 349.54 7.15435 349.123 7.98957C348.711 8.824 348.14 9.52464 347.42 10.0867C346.698 10.652 345.884 11.0842 344.973 11.3867C344.063 11.6891 343.184 11.887 342.332 11.982C341.841 12.0366 341.358 12.0833 340.881 12.1245C340.404 12.1665 339.917 12.2148 339.428 12.2686C338.938 12.324 338.454 12.377 337.975 12.4285C337.497 12.4816 337.017 12.5473 336.53 12.6241C336.495 11.9131 336.461 11.1903 336.418 10.4572C336.379 9.72414 336.317 8.98234 336.235 8.23183L335.923 5.29312C335.843 4.54182 335.745 3.80477 335.63 3.08672ZM338.528 11.6416C338.838 11.6661 339.253 11.663 339.776 11.6337C340.3 11.6044 340.837 11.56 341.38 11.4991C342.176 11.4112 342.96 11.2489 343.743 11.0138C344.518 10.7779 345.199 10.4208 345.783 9.94106C346.368 9.46051 346.821 8.843 347.138 8.08932C347.465 7.33327 347.564 6.39039 347.439 5.26304C347.337 4.27344 347.095 3.47385 346.718 2.87217C346.335 2.26812 345.861 1.81211 345.277 1.50336C344.697 1.19223 344.023 1.00698 343.256 0.947603C342.492 0.887435 341.659 0.907227 340.767 1.00698C340.117 1.07823 339.512 1.16215 338.953 1.26032C338.397 1.35532 337.893 1.45032 337.454 1.5469C337.467 2.09791 337.494 2.67425 337.54 3.27513C337.577 3.87364 337.633 4.48244 337.694 5.09599L338.011 8.0347C338.142 9.26576 338.315 10.4691 338.528 11.6416Z" fill="white"/>
<mask id="mask1_2002_809" style="mask-type:luminance" maskUnits="userSpaceOnUse" x="364" y="0" width="12" height="14">
<path d="M364.675 0H375.563V13.2664H364.675V0Z" fill="white"/>
</mask>
<g mask="url(#mask1_2002_809)">
<path fill-rule="evenodd" clip-rule="evenodd" d="M366.12 2.22066C366.184 1.49469 366.251 0.756844 366.311 0C366.723 0.0855012 367.131 0.162294 367.532 0.237503C367.931 0.312713 368.339 0.38238 368.758 0.441756C369.173 0.502715 369.585 0.548632 369.99 0.576341C370.398 0.607217 370.809 0.653134 371.226 0.714093C371.829 0.801969 372.398 0.930221 372.934 1.10043C373.465 1.27064 373.923 1.48994 374.304 1.75911C374.684 2.02828 374.967 2.35049 375.158 2.72495C375.346 3.09942 375.404 3.54117 375.335 4.0518C375.26 4.59648 375.039 5.04061 374.676 5.38736C374.313 5.73491 373.887 6.0025 373.407 6.19408C372.927 6.38409 372.42 6.51313 371.89 6.58042C371.359 6.64851 370.884 6.67463 370.46 6.66038C370.608 6.85514 370.814 7.12826 371.074 7.47739C371.331 7.8289 371.623 8.21365 371.943 8.63799C372.268 9.05996 372.601 9.5033 372.945 9.96326C373.293 10.424 373.625 10.8658 373.95 11.2885C374.271 11.7121 374.576 12.0984 374.865 12.4539C375.152 12.807 375.385 13.0785 375.563 13.2669C375.353 13.2131 375.138 13.1711 374.923 13.1395C374.707 13.1078 374.491 13.0769 374.274 13.0461C374.075 13.016 373.866 12.9851 373.651 12.9542C373.436 12.9233 373.225 12.9051 373.021 12.8972C372.838 12.6288 372.561 12.2243 372.188 11.6844C371.817 11.1444 371.404 10.5634 370.947 9.94109C370.492 9.32121 370.023 8.69895 369.547 8.08065C369.07 7.46235 368.626 6.93272 368.218 6.49255L367.399 6.37063L367.228 7.61514C367.121 8.36249 367.036 9.10191 366.972 9.83422C366.903 10.5649 366.845 11.2846 366.789 11.9931C366.46 11.9235 366.112 11.8593 365.737 11.8071C365.364 11.7532 365.008 11.7121 364.675 11.686C364.818 10.9909 364.957 10.2823 365.094 9.56188C365.229 8.84066 365.353 8.10598 365.457 7.35785L365.867 4.43102C365.971 3.68367 366.055 2.94662 366.12 2.22066ZM368.144 5.8212C368.383 5.86633 368.643 5.91146 368.932 5.95183C369.377 6.01754 369.847 6.04604 370.341 6.03496C370.831 6.02546 371.291 5.95025 371.723 5.8117C372.153 5.67079 372.525 5.45307 372.838 5.15699C373.151 4.86011 373.343 4.45794 373.416 3.9473C373.475 3.50555 373.424 3.12475 373.256 2.8057C373.087 2.48428 372.848 2.21591 372.544 1.99819C372.237 1.78127 371.893 1.61265 371.513 1.4931C371.133 1.37514 370.757 1.28806 370.382 1.23422C369.882 1.1606 369.464 1.10993 369.13 1.07906C368.796 1.0466 368.514 1.02601 368.283 1.01493C368.163 1.63323 368.049 2.24916 367.936 2.85558C367.819 3.46438 367.721 4.07714 367.634 4.68911L367.497 5.65733C367.696 5.72066 367.913 5.77529 368.144 5.8212Z" fill="white"/>
</g>
<path fill-rule="evenodd" clip-rule="evenodd" d="M383.022 5.29742C383.189 4.58253 383.347 3.86528 383.504 3.15039C384.124 3.35306 384.743 3.55494 385.362 3.75286C385.977 3.9484 386.6 4.1392 387.229 4.32049C387.857 4.50416 388.48 4.67595 389.097 4.83666C389.718 4.99975 390.344 5.16204 390.977 5.32196C390.891 5.47555 390.82 5.63467 390.777 5.80013C390.731 5.96559 390.705 6.1366 390.702 6.31393C390.26 6.16114 389.859 6.02101 389.491 5.88959C389.13 5.76213 388.746 5.62676 388.342 5.48346C387.933 5.34334 387.491 5.19292 387.005 5.03379C386.521 4.87704 385.937 4.69495 385.255 4.49862C385.141 4.84775 385.029 5.17788 384.918 5.49059C384.808 5.80488 384.694 6.16431 384.582 6.57202C384.463 7.00269 384.348 7.42149 384.239 7.83079C384.133 8.23929 384.048 8.55042 383.992 8.75784C384.603 8.93676 385.159 9.09193 385.651 9.22256C386.143 9.35556 386.592 9.47035 387.005 9.57169C387.411 9.67302 387.789 9.76327 388.135 9.84798C388.48 9.9319 388.811 10.0055 389.128 10.072C389.039 10.224 388.968 10.3895 388.919 10.5676C388.873 10.7315 388.852 10.9033 388.843 11.0806C388.49 10.9429 388.075 10.7925 387.601 10.6317C387.123 10.4687 386.647 10.3143 386.168 10.1694C385.686 10.0229 385.233 9.88519 384.811 9.75852C384.386 9.6271 384.049 9.52418 383.797 9.45373C383.768 9.55269 383.736 9.65877 383.695 9.77119C383.659 9.88519 383.612 10.0316 383.562 10.2066L383.383 10.8518L383.106 11.843C382.928 12.47 382.786 12.9886 382.679 13.3979C382.574 13.8087 382.496 14.1215 382.451 14.332C382.912 14.4674 383.403 14.6083 383.918 14.7588C384.449 14.9147 384.97 15.0548 385.486 15.1878C386 15.3201 386.489 15.438 386.948 15.5409C387.41 15.6454 387.818 15.7199 388.165 15.7626C388.117 15.8315 388.078 15.9106 388.04 16.0025C388.009 16.0951 387.981 16.1782 387.96 16.2558C387.912 16.4332 387.893 16.582 387.903 16.7039C387.281 16.4981 386.656 16.3073 386.038 16.126C385.417 15.9455 384.785 15.7626 384.143 15.575C383.5 15.3889 382.865 15.2021 382.236 15.0208C381.608 14.8395 380.968 14.6645 380.319 14.5007C380.562 13.8087 380.796 13.116 381.026 12.4273C381.257 11.7385 381.477 11.03 381.678 10.3032L382.474 7.46028C382.68 6.73431 382.861 6.0123 383.022 5.29742Z" fill="white"/>
<path fill-rule="evenodd" clip-rule="evenodd" d="M393.981 17.2756C394.077 17.5488 394.223 17.8203 394.418 18.0934C394.609 18.365 394.857 18.6262 395.164 18.8772C395.471 19.1297 395.835 19.349 396.261 19.5351C396.704 19.7282 397.124 19.8415 397.528 19.8739C397.934 19.908 398.301 19.8771 398.636 19.7797C398.97 19.6831 399.261 19.524 399.514 19.3039C399.763 19.0822 399.955 18.8139 400.088 18.498C400.294 18.0135 400.299 17.5598 400.106 17.1395C399.913 16.7175 399.623 16.3098 399.236 15.9171C398.848 15.5244 398.416 15.1286 397.942 14.7359C397.469 14.3417 397.047 13.9245 396.682 13.4843C396.313 13.0425 396.051 12.5691 395.895 12.0616C395.734 11.5573 395.785 10.9953 396.051 10.3738C396.233 9.93203 396.506 9.5734 396.859 9.29631C397.214 9.0216 397.632 8.83556 398.126 8.73897C398.615 8.64239 399.158 8.63526 399.754 8.71997C400.35 8.80785 400.982 8.99627 401.648 9.28681C402.29 9.56944 402.817 9.87107 403.234 10.1964C403.65 10.5218 404.005 10.8987 404.298 11.3238C404.101 11.4513 403.922 11.5977 403.757 11.7624C403.594 11.9263 403.409 12.1456 403.198 12.4155L402.958 12.3086C402.954 12.1321 402.932 11.9318 402.889 11.7117C402.852 11.4869 402.767 11.2605 402.634 11.0277C402.504 10.795 402.323 10.5709 402.098 10.3548C401.875 10.1379 401.577 9.94786 401.202 9.78399C400.829 9.6209 400.465 9.51956 400.113 9.47602C399.759 9.43406 399.428 9.44911 399.121 9.52115C398.814 9.5924 398.548 9.72065 398.318 9.9067C398.091 10.0927 397.915 10.3287 397.796 10.6137C397.587 11.1077 397.581 11.5668 397.774 11.988C397.965 12.4084 398.255 12.8193 398.642 13.2191C399.027 13.6165 399.456 14.0107 399.932 14.4003C400.409 14.7882 400.833 15.1959 401.209 15.6194C401.58 16.0462 401.851 16.4998 402.019 16.9843C402.187 17.4704 402.145 18.0016 401.901 18.5795C401.698 19.0648 401.396 19.4749 400.994 19.8098C400.594 20.1455 400.113 20.3814 399.558 20.5191C399.002 20.6545 398.381 20.6775 397.702 20.5856C397.021 20.4946 396.297 20.28 395.521 19.9412C394.695 19.5802 394.06 19.2002 393.621 18.8012C393.181 18.403 392.833 18.0182 392.579 17.6453C392.802 17.4553 392.977 17.274 393.105 17.0991C393.236 16.9257 393.382 16.6945 393.555 16.4072L393.793 16.5117C393.821 16.7492 393.88 17.0025 393.981 17.2756Z" fill="white"/>
<path fill-rule="evenodd" clip-rule="evenodd" d="M410.318 16.2781C410.654 15.6281 410.985 14.9774 411.315 14.3242C411.865 14.6805 412.415 15.0351 412.963 15.3835C413.51 15.7334 414.066 16.077 414.63 16.4158C415.191 16.7531 415.751 17.0816 416.309 17.3991C416.868 17.7126 417.434 18.0301 418.008 18.3499C417.886 18.4734 417.781 18.6119 417.695 18.7608C417.608 18.9072 417.544 19.0679 417.494 19.2382C417.104 18.9761 416.751 18.737 416.432 18.5185C416.112 18.2992 415.773 18.0689 415.414 17.8274C415.057 17.5851 414.665 17.3255 414.234 17.0492C413.806 16.7689 413.284 16.4467 412.675 16.0786C412.479 16.3857 412.287 16.6795 412.102 16.9526C411.919 17.2273 411.72 17.5479 411.509 17.9129C411.287 18.2969 411.071 18.6737 410.864 19.0402C410.66 19.4107 410.504 19.6886 410.393 19.877C410.945 20.2072 411.44 20.5001 411.886 20.7518C412.33 21.0076 412.733 21.2348 413.106 21.4374C413.476 21.6401 413.819 21.8269 414.137 21.9979C414.45 22.1658 414.751 22.3241 415.035 22.4706C414.915 22.5949 414.807 22.7366 414.716 22.8941C414.63 23.0406 414.562 23.2021 414.514 23.3699C414.205 23.1459 413.843 22.8941 413.42 22.6155C413.003 22.336 412.579 22.0644 412.149 21.7992C411.721 21.5356 411.318 21.287 410.94 21.0511C410.56 20.8168 410.258 20.6339 410.033 20.4985C409.982 20.5864 409.923 20.6798 409.857 20.7803C409.789 20.8809 409.712 21.0091 409.621 21.1675L409.286 21.743L408.771 22.6297C408.445 23.1934 408.179 23.6589 407.974 24.0262C407.768 24.3959 407.617 24.677 407.522 24.8717C407.931 25.1211 408.371 25.3832 408.836 25.661C409.309 25.9492 409.777 26.2215 410.244 26.4812C410.711 26.7393 411.153 26.98 411.57 27.2009C411.992 27.4186 412.367 27.5951 412.695 27.7265C412.63 27.7796 412.57 27.8484 412.516 27.9276C412.46 28.0076 412.413 28.0828 412.373 28.1517C412.282 28.3092 412.226 28.4501 412.206 28.5712C411.655 28.211 411.102 27.8659 410.546 27.5302C409.988 27.1961 409.424 26.8557 408.848 26.5089C408.274 26.1653 407.705 25.8218 407.141 25.4829C406.579 25.1441 406.003 24.8116 405.417 24.4862C405.822 23.8774 406.221 23.2686 406.616 22.6598C407.01 22.0542 407.398 21.4264 407.773 20.7732L409.249 18.2288C409.628 17.5788 409.984 16.928 410.318 16.2781Z" fill="white"/>
<path fill-rule="evenodd" clip-rule="evenodd" d="M426.377 39.5982C426.234 39.4494 426.091 39.318 425.953 39.2C425.807 39.086 425.658 38.9609 425.502 38.8327C425.343 38.7028 425.192 38.5785 425.054 38.4622C424.911 38.3458 424.754 38.2334 424.582 38.1209C424.665 37.8502 424.754 37.5153 424.847 37.1139C424.942 36.7125 425.03 36.2858 425.12 35.8362C425.204 35.3841 425.292 34.9281 425.382 34.461C425.471 33.9971 425.556 33.5585 425.645 33.1429C425.291 32.8365 424.928 32.5277 424.559 32.2166C424.189 31.9047 423.818 31.5959 423.445 31.2896C423.095 31.0038 422.75 30.7227 422.407 30.4472C422.065 30.1741 421.713 29.8978 421.356 29.6175C420.442 30.0165 419.593 30.4076 418.799 30.7963C418.008 31.1803 417.374 31.5191 416.905 31.8089C416.725 31.6316 416.525 31.4519 416.298 31.2674C416.073 31.0806 415.857 30.9191 415.651 30.7773C417.802 29.9714 419.926 29.1552 422.017 28.3287C424.111 27.4998 426.227 26.6519 428.374 25.7803L428.696 26.0455C428.558 26.7849 428.406 27.5869 428.247 28.449C428.087 29.3096 427.928 30.182 427.767 31.0663C427.605 31.9514 427.45 32.8302 427.298 33.705C427.142 34.5814 427.004 35.3992 426.88 36.1568C426.753 36.9136 426.645 37.5937 426.552 38.1961C426.458 38.7939 426.4 39.2625 426.377 39.5982ZM422.166 29.2692C422.46 29.5091 422.761 29.7656 423.072 30.0355C423.38 30.3031 423.681 30.5573 423.975 30.7995C424.291 31.06 424.611 31.3165 424.928 31.5738C425.25 31.8271 425.573 32.0804 425.895 32.3322L426.706 27.3921L422.166 29.2692Z" fill="white"/>
<path fill-rule="evenodd" clip-rule="evenodd" d="M436.903 36.8386C437.406 36.3248 437.92 35.7968 438.443 35.2568C438.707 35.5878 438.97 35.9147 439.228 36.233C439.49 36.5512 439.764 36.8703 440.044 37.1869C440.326 37.5068 440.615 37.8076 440.908 38.0958C441.202 38.3832 441.489 38.6856 441.772 39.0038C442.183 39.4638 442.54 39.9333 442.844 40.413C443.145 40.8888 443.36 41.3559 443.483 41.8103C443.608 42.2648 443.624 42.6986 443.535 43.1095C443.446 43.5204 443.216 43.8996 442.839 44.2448C442.439 44.6145 441.99 44.8148 441.492 44.8456C440.997 44.8733 440.503 44.8053 440.014 44.6382C439.522 44.4712 439.051 44.24 438.604 43.9495C438.15 43.6557 437.767 43.3652 437.453 43.0778C437.444 43.3232 437.43 43.6668 437.411 44.1046C437.39 44.5424 437.371 45.0285 437.354 45.5637C437.336 46.0997 437.315 46.657 437.293 47.2349C437.269 47.816 437.248 48.3718 437.233 48.9069C437.214 49.4437 437.205 49.9393 437.203 50.4016C437.203 50.8592 437.212 51.221 437.231 51.4815C437.105 51.301 436.964 51.1292 436.819 50.9645C436.67 50.803 436.527 50.6375 436.38 50.4721C436.243 50.3177 436.101 50.1594 435.957 49.9955C435.81 49.83 435.658 49.678 435.507 49.5419C435.534 49.2165 435.577 48.7241 435.628 48.0678C435.682 47.4099 435.727 46.6926 435.768 45.9199C435.808 45.1457 435.838 44.3627 435.859 43.5758C435.879 42.7889 435.874 42.093 435.836 41.4881L435.279 40.8643L434.365 41.705C433.816 42.2149 433.285 42.7263 432.777 43.2472C432.269 43.7658 431.769 44.2804 431.282 44.7894C431.074 44.5218 430.845 44.2463 430.592 43.9621C430.335 43.6779 430.087 43.4159 429.851 43.1784C430.394 42.735 430.948 42.2814 431.505 41.8151C432.062 41.3512 432.615 40.8643 433.167 40.3584L435.318 38.3737C435.869 37.8662 436.397 37.354 436.903 36.8386ZM436.201 40.9284C436.354 41.1168 436.527 41.3195 436.723 41.5388C437.022 41.8792 437.367 42.2046 437.752 42.5189C438.139 42.8316 438.538 43.0747 438.957 43.2472C439.375 43.419 439.8 43.4934 440.224 43.4697C440.649 43.4467 441.055 43.2607 441.428 42.9147C441.753 42.6139 441.951 42.2877 442.023 41.9331C442.092 41.576 442.079 41.215 441.98 40.8492C441.88 40.4819 441.723 40.128 441.505 39.7908C441.289 39.4519 441.052 39.14 440.799 38.8542C440.458 38.4718 440.168 38.1591 439.932 37.9192C439.695 37.6786 439.492 37.4791 439.317 37.3176C438.839 37.719 438.367 38.1172 437.899 38.509C437.427 38.9041 436.969 39.3086 436.517 39.7227L435.803 40.3798C435.915 40.5547 436.047 40.74 436.201 40.9284Z" fill="white"/>
<path fill-rule="evenodd" clip-rule="evenodd" d="M446.466 64.5084C446.221 64.3271 445.954 64.0896 445.663 63.7967C445.375 63.503 445.066 63.1665 444.739 62.7834C444.414 62.4002 444.101 61.9822 443.806 61.523C443.176 60.5469 442.702 59.5731 442.381 58.6041C442.058 57.6351 441.92 56.7041 441.965 55.8158C442.012 54.9268 442.239 54.1058 442.645 53.3466C443.051 52.5866 443.654 51.9421 444.454 51.4093C445.251 50.8734 446.075 50.5678 446.919 50.491C447.763 50.4118 448.599 50.5353 449.425 50.8575C450.254 51.1798 451.051 51.6936 451.828 52.3958C452.605 53.0972 453.324 53.9617 453.985 54.9877C454.51 55.8047 454.926 56.5917 455.233 57.3501C455.538 58.1093 455.771 58.8092 455.929 59.4472C455.733 59.4354 455.501 59.4742 455.237 59.5644C454.971 59.6539 454.752 59.7283 454.577 59.7924L454.476 59.699C454.509 59.5011 454.524 59.243 454.523 58.9263C454.521 58.6089 454.488 58.2589 454.429 57.8742C454.371 57.4878 454.266 57.0809 454.118 56.6526C453.967 56.2204 453.749 55.7834 453.461 55.3384C452.992 54.6085 452.468 53.9918 451.885 53.4859C451.305 52.9816 450.679 52.6198 450.009 52.4053C449.338 52.1899 448.636 52.1401 447.9 52.2636C447.162 52.3823 446.406 52.7053 445.626 53.2255C444.843 53.7472 444.252 54.3283 443.851 54.9664C443.448 55.6084 443.211 56.2837 443.141 56.9962C443.068 57.7071 443.144 58.4363 443.363 59.1789C443.588 59.923 443.936 60.6577 444.407 61.3892C444.691 61.8349 445 62.2157 445.327 62.5364C445.655 62.8578 445.979 63.1357 446.299 63.3732C446.619 63.6083 446.928 63.8102 447.23 63.9693C447.53 64.1332 447.787 64.2678 448.002 64.3707L447.992 64.4815L447.054 64.8718C446.907 64.8124 446.711 64.6897 446.466 64.5084Z" fill="white"/>
<path fill-rule="evenodd" clip-rule="evenodd" d="M462.228 76.855C462.867 76.5312 463.519 76.1987 464.184 75.8583C464.238 76.0451 464.294 76.2225 464.346 76.3903C464.4 76.5629 464.462 76.7268 464.531 76.889C464.599 77.0529 464.676 77.2136 464.76 77.3688C464.847 77.5248 464.935 77.6863 465.032 77.8549C464.333 78.1138 463.648 78.3711 462.979 78.6252C462.308 78.8817 461.634 79.1596 460.951 79.458L458.289 80.6337C457.606 80.9329 456.942 81.2457 456.298 81.571C455.651 81.8972 455.018 82.221 454.394 82.5432C454.284 82.221 454.152 81.8853 454.004 81.5314C453.851 81.1784 453.701 80.8506 453.548 80.5482C454.203 80.3059 454.868 80.0573 455.546 79.8C456.222 79.5435 456.897 79.2641 457.578 78.9648L458.973 78.3505C458.672 77.6126 458.377 76.8993 458.091 76.2122C457.806 75.5242 457.506 74.8141 457.197 74.0818C456.885 73.3479 456.578 72.6393 456.282 71.9569C455.987 71.2745 455.678 70.5699 455.355 69.8415L453.964 70.4551C453.28 70.7559 452.616 71.0686 451.972 71.3948C451.325 71.7178 450.689 72.0424 450.067 72.3646C449.957 72.044 449.825 71.7067 449.677 71.3552C449.525 71.0013 449.375 70.6744 449.221 70.372C449.877 70.1297 450.544 69.8811 451.22 69.6238C451.895 69.3649 452.571 69.0863 453.254 68.7854L455.915 67.613C456.597 67.3113 457.257 67.001 457.9 66.6772C458.54 66.3542 459.194 66.0217 459.858 65.6797C459.912 65.8665 459.966 66.0447 460.017 66.2133C460.074 66.3835 460.133 66.5505 460.204 66.7128C460.273 66.8759 460.351 67.035 460.434 67.191C460.519 67.3478 460.61 67.5077 460.706 67.6763C460.006 67.9344 459.32 68.1941 458.653 68.449C457.985 68.7039 457.305 68.981 456.624 69.2802L456.084 69.5209C456.386 70.2572 456.675 70.9713 456.957 71.6608C457.238 72.3504 457.535 73.0621 457.845 73.7944C458.157 74.5283 458.462 75.2352 458.764 75.9137C459.065 76.5961 459.378 77.2983 459.701 78.0275L460.243 77.79C460.924 77.4899 461.584 77.178 462.228 76.855Z" fill="white"/>
</svg>
