<svg width="790" height="293" viewBox="0 0 790 293" fill="none" xmlns="http://www.w3.org/2000/svg">
<path fill-rule="evenodd" clip-rule="evenodd" d="M786.096 62.8115C721.429 63.6969 653.38 86.4362 614.065 117.902C586.125 140.264 576.376 162.148 576.283 162.381L578.163 160.208C613.955 118.381 655.197 101.08 686.554 90.8587C734.858 75.1131 782.853 75.003 782.853 75.003L786.096 62.8115Z" fill="white"/>
<path fill-rule="evenodd" clip-rule="evenodd" d="M137.359 200.452C141.366 197.872 146.395 196.957 149.557 196.957C154.137 196.957 158.021 200.982 158.021 205.764V251.268H166.713V206.107C166.713 196.119 159.014 187.981 149.557 187.981H148.458C145.572 187.981 142.015 188.307 137.359 190.544V165.462H128.544V251.268H137.359V200.452Z" fill="white"/>
<mask id="mask0_2002_725" style="mask-type:luminance" maskUnits="userSpaceOnUse" x="0" y="0" width="790" height="293">
<path d="M0 292.396H789.47V0H0V292.396Z" fill="white"/>
</mask>
<g mask="url(#mask0_2002_725)">
<path fill-rule="evenodd" clip-rule="evenodd" d="M179.916 251.268H189.105V189.222H179.916V251.268Z" fill="white"/>
</g>
<mask id="mask1_2002_725" style="mask-type:luminance" maskUnits="userSpaceOnUse" x="0" y="0" width="790" height="293">
<path d="M0 292.396H789.47V0H0V292.396Z" fill="white"/>
</mask>
<g mask="url(#mask1_2002_725)">
<path fill-rule="evenodd" clip-rule="evenodd" d="M179.916 177.59H189.105V165.475H179.916V177.59Z" fill="white"/>
</g>
<mask id="mask2_2002_725" style="mask-type:luminance" maskUnits="userSpaceOnUse" x="0" y="0" width="790" height="293">
<path d="M0 292.396H789.47V0H0V292.396Z" fill="white"/>
</mask>
<g mask="url(#mask2_2002_725)">
<path fill-rule="evenodd" clip-rule="evenodd" d="M221.897 252.362C223.637 252.362 239.592 249.193 240.258 249.07L240.848 248.93L238.628 239.768L238.072 239.908C231.956 241.352 222.61 243.508 221.897 243.542C216.435 243.542 211.698 239.704 210.675 234.439V229.051C212.785 229.267 214.788 229.33 216.914 229.33C232.33 229.33 240.835 222.51 240.835 210.132V206.218C240.835 196.001 233.089 187.986 223.217 187.986H219.21C209.325 187.986 201.592 196.001 201.592 206.218V232.435C201.592 243.601 210.488 252.362 221.897 252.362ZM210.675 205.612C210.675 199.991 215.751 196.945 220.53 196.945C224.783 196.945 231.909 198.063 231.909 205.612V210.632C231.909 215.567 227.949 219.901 223.48 219.901L210.675 219.778V205.612Z" fill="white"/>
</g>
<mask id="mask3_2002_725" style="mask-type:luminance" maskUnits="userSpaceOnUse" x="0" y="0" width="790" height="293">
<path d="M0 292.396H789.47V0H0V292.396Z" fill="white"/>
</mask>
<g mask="url(#mask3_2002_725)">
<path fill-rule="evenodd" clip-rule="evenodd" d="M268.266 252.374C270.889 252.374 277.158 251.692 282.374 249.188L286.148 252.95L292.467 246.782L289.157 243.631V165.572H280.469V190.73C276.585 188.977 272.49 188.121 268.266 188.121C258.814 188.121 251.128 196.246 251.128 206.213V234.248C251.128 244.406 258.657 252.374 268.266 252.374ZM259.82 205.874C259.82 200.935 263.61 196.945 268.266 196.945C270.626 196.945 275.749 197.923 280.341 200.579V240.166C278.852 241.924 271.17 243.554 268.126 243.554C263.64 243.554 259.82 239.501 259.82 234.731V205.874Z" fill="white"/>
</g>
<mask id="mask4_2002_725" style="mask-type:luminance" maskUnits="userSpaceOnUse" x="0" y="0" width="790" height="293">
<path d="M0 292.396H789.47V0H0V292.396Z" fill="white"/>
</mask>
<g mask="url(#mask4_2002_725)">
<path fill-rule="evenodd" clip-rule="evenodd" d="M302.759 251.268H311.931V189.222H302.759V251.268Z" fill="white"/>
</g>
<mask id="mask5_2002_725" style="mask-type:luminance" maskUnits="userSpaceOnUse" x="0" y="0" width="790" height="293">
<path d="M0 292.396H789.47V0H0V292.396Z" fill="white"/>
</mask>
<g mask="url(#mask5_2002_725)">
<path fill-rule="evenodd" clip-rule="evenodd" d="M302.759 177.59H311.931V165.475H302.759V177.59Z" fill="white"/>
</g>
<mask id="mask6_2002_725" style="mask-type:luminance" maskUnits="userSpaceOnUse" x="0" y="0" width="790" height="293">
<path d="M0 292.396H789.47V0H0V292.396Z" fill="white"/>
</mask>
<g mask="url(#mask6_2002_725)">
<path fill-rule="evenodd" clip-rule="evenodd" d="M325.641 251.266H334.443V200.45C337.266 198.616 342.839 196.955 345.309 196.955C350.275 196.955 355.801 200.48 355.801 205.262V251.266H364.756V211.583C364.756 201.878 369.073 196.955 377.578 196.955C385.511 196.955 386.13 205.262 386.13 207.808V251.266H395.086V207.808C395.086 199.844 390.506 187.979 377.952 187.979C372.876 187.979 365.889 189.377 360.83 195.82C357.834 190.961 351.718 187.979 344.579 187.979C340.869 187.979 336.756 189.144 332.406 191.393L328.654 187.513L322.317 193.677L325.641 196.845V251.266Z" fill="white"/>
</g>
<mask id="mask7_2002_725" style="mask-type:luminance" maskUnits="userSpaceOnUse" x="0" y="0" width="790" height="293">
<path d="M0 292.396H789.47V0H0V292.396Z" fill="white"/>
</mask>
<g mask="url(#mask7_2002_725)">
<path fill-rule="evenodd" clip-rule="evenodd" d="M408.136 177.59H417.355V165.475H408.136V177.59Z" fill="white"/>
</g>
<mask id="mask8_2002_725" style="mask-type:luminance" maskUnits="userSpaceOnUse" x="0" y="0" width="790" height="293">
<path d="M0 292.396H789.47V0H0V292.396Z" fill="white"/>
</mask>
<g mask="url(#mask8_2002_725)">
<path fill-rule="evenodd" clip-rule="evenodd" d="M408.136 251.268H417.355V189.222H408.136V251.268Z" fill="white"/>
</g>
<mask id="mask9_2002_725" style="mask-type:luminance" maskUnits="userSpaceOnUse" x="0" y="0" width="790" height="293">
<path d="M0 292.396H789.47V0H0V292.396Z" fill="white"/>
</mask>
<g mask="url(#mask9_2002_725)">
<path fill-rule="evenodd" clip-rule="evenodd" d="M506.159 177.59H515.348V165.475H506.159V177.59Z" fill="white"/>
</g>
<mask id="mask10_2002_725" style="mask-type:luminance" maskUnits="userSpaceOnUse" x="0" y="0" width="790" height="293">
<path d="M0 292.396H789.47V0H0V292.396Z" fill="white"/>
</mask>
<g mask="url(#mask10_2002_725)">
<path fill-rule="evenodd" clip-rule="evenodd" d="M684.982 159.967L670.361 136.639H653.379L669.941 159.967H684.982Z" fill="white"/>
</g>
<mask id="mask11_2002_725" style="mask-type:luminance" maskUnits="userSpaceOnUse" x="0" y="0" width="790" height="293">
<path d="M0 292.396H789.47V0H0V292.396Z" fill="white"/>
</mask>
<g mask="url(#mask11_2002_725)">
<path fill-rule="evenodd" clip-rule="evenodd" d="M614.021 136.061C599.072 147.77 588.72 158.144 581.051 166.921C579.591 168.599 578.224 170.183 576.955 171.738V171.581C575.355 173.801 573.708 175.961 572.066 178.104C568.539 182.654 564.939 186.971 561.294 191.054C557.894 194.879 554.414 198.497 550.938 201.928C539.342 213.268 527.343 222.49 515.362 229.742V189.224H506.173V234.915C501.61 237.291 497.077 239.405 492.574 241.252V165.587H483.882V190.732C479.985 188.991 475.89 188.135 471.684 188.135C462.232 188.135 454.545 196.243 454.545 206.232V234.233C454.545 241.142 458.085 247.233 463.781 250.338C448.416 254.579 433.498 257.328 384.2 257.391C363.649 257.404 129.126 257.531 129.126 257.531V265.885L395.796 265.995C433.795 265.995 463.938 259.192 487.498 250.105C489.968 249.127 492.328 248.165 494.654 247.187C498.924 245.34 502.93 243.442 506.733 241.519C509.526 240.074 512.196 238.659 514.772 237.185C524.644 231.547 532.7 225.832 539.202 220.736C542.835 217.894 546.112 215.162 549.231 212.506V292.398H562.843V251.02C567.826 253.058 573.042 254.066 578.411 254.066C591.67 254.066 602.502 242.667 602.502 228.641V190.465C602.502 181.133 597.739 172.682 590.117 168.226C618.553 136.917 652.657 119.739 680.826 111.818C732.297 97.3433 778.012 96.907 778.012 96.907L781.225 84.8256C702.603 83.8767 637.674 114.643 614.021 136.061ZM463.225 205.872C463.225 200.95 467.028 196.959 471.684 196.959C474.056 196.959 479.162 197.921 483.742 200.594V240.15C482.252 241.904 474.599 243.535 471.544 243.535C467.028 243.535 463.225 239.515 463.225 234.745V205.872ZM588.843 229.141C588.843 235.165 584.141 240.074 578.411 240.074C575.695 240.074 567.889 238.303 563.03 235.694V199.662C568.292 194.35 572.656 189.44 576.284 185.047V185.2C577.774 183.167 579.281 181.226 580.771 179.269L581.378 179.485C585.771 180.854 588.843 185.077 588.843 189.813V229.141Z" fill="white"/>
</g>
<mask id="mask12_2002_725" style="mask-type:luminance" maskUnits="userSpaceOnUse" x="0" y="0" width="790" height="293">
<path d="M0 292.396H789.47V0H0V292.396Z" fill="white"/>
</mask>
<g mask="url(#mask12_2002_725)">
<path fill-rule="evenodd" clip-rule="evenodd" d="M617.779 252.416H632.091V166.686H617.779V252.416Z" fill="white"/>
</g>
<mask id="mask13_2002_725" style="mask-type:luminance" maskUnits="userSpaceOnUse" x="0" y="0" width="790" height="293">
<path d="M0 292.396H789.47V0H0V292.396Z" fill="white"/>
</mask>
<g mask="url(#mask13_2002_725)">
<path fill-rule="evenodd" clip-rule="evenodd" d="M702.798 166.694H688.982V235.573C685.133 237.843 678.707 240.076 673.444 240.076C667.765 240.076 662.023 235.293 662.023 226.177V166.694H648.038V221.221C648.038 227.266 648.038 232.98 651 238.898C654.973 248.184 663.402 253.729 673.614 253.729C678.287 253.729 685.863 252.598 692.492 249.488L697.785 254.788L707.67 244.875L702.798 240.389V166.694Z" fill="white"/>
</g>
<mask id="mask14_2002_725" style="mask-type:luminance" maskUnits="userSpaceOnUse" x="0" y="0" width="790" height="293">
<path d="M0 292.396H789.47V0H0V292.396Z" fill="white"/>
</mask>
<g mask="url(#mask14_2002_725)">
<path fill-rule="evenodd" clip-rule="evenodd" d="M617.779 159.993H632.091V145.222H617.779V159.993Z" fill="white"/>
</g>
<mask id="mask15_2002_725" style="mask-type:luminance" maskUnits="userSpaceOnUse" x="0" y="0" width="790" height="293">
<path d="M0 292.396H789.47V0H0V292.396Z" fill="white"/>
</mask>
<g mask="url(#mask15_2002_725)">
<path fill-rule="evenodd" clip-rule="evenodd" d="M69.275 137.071C49.7937 137.071 33.2154 143.519 19.9605 156.189C6.70551 168.846 -0.000488281 184.672 -0.000488281 203.248C-0.000488281 214.931 2.9493 225.957 8.72155 236.005C14.498 246.053 22.4434 254.038 32.3793 259.765C42.2515 265.467 54.56 268.373 68.9015 268.373C86.0994 268.373 101.544 264.862 114.804 257.919V242.762C100.271 251.365 85.2336 255.699 70.0347 255.699C54.0634 255.699 40.7278 250.743 30.4227 240.945C20.1005 231.125 14.8546 218.455 14.8546 203.248C14.8546 188.167 20.1769 175.433 30.6858 165.398C41.1353 155.367 54.4369 150.288 70.2215 150.288C84.2532 150.288 98.7347 154.219 113.373 161.95V147.213C97.2322 140.473 82.4069 137.071 69.275 137.071Z" fill="white"/>
</g>
<mask id="mask16_2002_725" style="mask-type:luminance" maskUnits="userSpaceOnUse" x="0" y="0" width="790" height="293">
<path d="M0 292.396H789.47V0H0V292.396Z" fill="white"/>
</mask>
<g mask="url(#mask16_2002_725)">
<path fill-rule="evenodd" clip-rule="evenodd" d="M186.075 0L162.371 80.2401L139.609 0H92.6499L143.798 137.529H180.948L233.518 0H186.075Z" fill="white"/>
</g>
<mask id="mask17_2002_725" style="mask-type:luminance" maskUnits="userSpaceOnUse" x="0" y="0" width="790" height="293">
<path d="M0 292.396H789.47V0H0V292.396Z" fill="white"/>
</mask>
<g mask="url(#mask17_2002_725)">
<path fill-rule="evenodd" clip-rule="evenodd" d="M249.79 89.2861L262.018 48.0731L274.144 89.2861H249.79ZM244.153 0.00195312L191.583 137.531H235.474L241.127 118.485H282.73L288.337 137.531H332.452L280.595 0.00195312H244.153Z" fill="white"/>
</g>
<mask id="mask18_2002_725" style="mask-type:luminance" maskUnits="userSpaceOnUse" x="0" y="0" width="790" height="293">
<path d="M0 292.396H789.47V0H0V292.396Z" fill="white"/>
</mask>
<g mask="url(#mask18_2002_725)">
<path fill-rule="evenodd" clip-rule="evenodd" d="M565.079 34.8116V1.41846H477.332V1.55825H462.901V139.087H501.478V139.041H565.079V107.062H501.478V84.8525H558.704V55.7929H501.478V34.8116H565.079Z" fill="white"/>
</g>
<mask id="mask19_2002_725" style="mask-type:luminance" maskUnits="userSpaceOnUse" x="0" y="0" width="790" height="293">
<path d="M0 292.396H789.47V0H0V292.396Z" fill="white"/>
</mask>
<g mask="url(#mask19_2002_725)">
<path fill-rule="evenodd" clip-rule="evenodd" d="M418.54 49.7195C418.54 59.2888 410.769 67.0494 401.176 67.0494H377.387V32.3897H401.176C410.769 32.3897 418.54 40.1502 418.54 49.7195ZM408.129 0.000488281H377.387H358.309H338.815V137.529H377.387V99.4385H408.129C435.64 99.4385 457.944 77.1779 457.944 49.7195C457.944 22.2612 435.64 0.000488281 408.129 0.000488281Z" fill="white"/>
</g>
</svg>
