<svg width="787" height="254" viewBox="0 0 787 254" fill="none" xmlns="http://www.w3.org/2000/svg">
<path d="M473.214 102.073L500.252 36.6525H500.499L511.028 100.047H522.644L504.206 0L473.214 75.5294L442.221 0L423.808 100.047H435.301L445.829 36.6525H446.076L473.214 102.073ZM342.668 4.05328V64.7783C342.668 85.9097 355.026 102.073 375.688 102.073C396.35 102.073 408.732 85.9097 408.732 64.7783V4.05328H397.462V60.7003C397.462 76.345 393.038 90.8528 375.688 90.8528C358.338 90.8528 353.914 76.345 353.914 60.7003V4.05328H342.668ZM283.921 14.7549H287.01C298.132 14.7549 311.527 16.9299 311.527 32.0555C311.527 47.1811 299.17 49.6279 287.603 49.6279H284.02L283.921 14.7549ZM300.307 58.2288C313.356 56.5729 321.982 45.1051 321.982 31.3635C322.075 26.8578 321.038 22.4006 318.965 18.3986C316.893 14.3967 313.852 10.9773 310.119 8.45256C302.951 4.12742 294.326 3.97913 286.318 3.97913H272.675V99.9726H283.921V59.4398H288.592L315.161 100.047H328.779L300.307 58.2288ZM203.745 99.9726H252.211V89.0238H214.99V52.8162H251.124V41.8674H214.99V15.0021H252.211V4.05328H203.745V99.9726ZM123.445 3.97913H111.088L150.385 105.188L189.509 4.10272H177.151L150.36 75.1587L123.445 3.97913Z" fill="white"/>
<path d="M535.989 100.245V93.5472H571.232V78.4957H577.238V100.245H535.989Z" fill="white"/>
<path d="M566.711 47.2557V63.6418L577.338 68.4365V75.5298L534.359 55.5105L577.338 35.4913V42.6092L566.711 47.2557ZM561.1 49.7272L551.659 53.9535C550.132 54.5811 548.563 55.1014 546.964 55.5105C548.561 55.9074 550.13 56.4111 551.659 57.0182L561.1 61.2444V49.7272Z" fill="white"/>
<path d="M555.712 19.7722L535.94 31.6354V24.5916L546.049 18.6352C546.988 18.0421 548.372 17.3501 550.176 16.4356C548.891 15.793 547.556 15.0516 546.123 14.1618L535.94 7.85945V0.988648L555.539 13.0743L577.289 0.0494997V7.46403L565.549 14.409C564.808 14.8044 563.424 15.5706 561.397 16.6086C562.802 17.2869 564.172 18.0377 565.5 18.8577L577.289 26.0992V33.2172L555.712 19.7722Z" fill="white"/>
<path fill-rule="evenodd" clip-rule="evenodd" d="M786.098 23.0208C721.433 23.9077 653.384 46.6894 614.066 78.2164C586.126 100.625 576.379 122.55 576.285 122.784L578.164 120.605C613.958 78.6988 655.2 61.3636 686.555 51.1243C734.86 35.3452 782.854 35.2363 782.854 35.2363L786.098 23.0208Z" fill="white"/>
<path fill-rule="evenodd" clip-rule="evenodd" d="M137.36 160.928C141.365 158.345 146.394 157.427 149.561 157.427C154.14 157.427 158.02 161.458 158.02 166.25V211.845H166.713V166.593C166.713 156.587 159.014 148.433 149.561 148.433H148.459C145.572 148.433 142.017 148.76 137.36 151V125.869H128.544V211.845H137.36V160.928Z" fill="white"/>
<path fill-rule="evenodd" clip-rule="evenodd" d="M179.919 211.843H189.108V149.676H179.919V211.843Z" fill="white"/>
<path fill-rule="evenodd" clip-rule="evenodd" d="M179.919 138.02H189.108V125.883H179.919V138.02Z" fill="white"/>
<path fill-rule="evenodd" clip-rule="evenodd" d="M210.675 166.1C210.675 160.467 215.751 157.417 220.532 157.417C224.785 157.417 231.909 158.537 231.909 166.1V171.126C231.909 176.074 227.951 180.416 223.481 180.416L210.675 180.292V166.1ZM221.897 212.939C223.636 212.939 239.593 209.765 240.26 209.64L240.85 209.5L238.63 200.319L238.072 200.459C231.956 201.906 222.612 204.069 221.897 204.1C216.434 204.1 211.699 200.257 210.675 194.981V189.582C212.786 189.799 214.788 189.862 216.915 189.862C232.328 189.862 240.835 183.03 240.835 170.628V166.707C240.835 156.467 233.089 148.438 223.217 148.438H219.212C209.325 148.438 201.595 156.467 201.595 166.707V192.974C201.595 204.162 210.489 212.939 221.897 212.939Z" fill="white"/>
<path fill-rule="evenodd" clip-rule="evenodd" d="M259.823 166.361C259.823 161.413 263.61 157.413 268.267 157.413C270.626 157.413 275.749 158.394 280.343 161.055V200.72C278.853 202.479 271.17 204.113 268.127 204.113C263.642 204.113 259.823 200.051 259.823 195.274V166.361ZM268.267 212.951C270.89 212.951 277.161 212.267 282.377 209.761L286.149 213.527L292.466 207.349L289.16 204.191V125.98H280.468V151.189C276.587 149.431 272.489 148.575 268.267 148.575C258.814 148.575 251.131 156.713 251.131 166.704V194.792C251.131 204.969 258.659 212.951 268.267 212.951Z" fill="white"/>
<path fill-rule="evenodd" clip-rule="evenodd" d="M302.761 211.843H311.934V149.676H302.761V211.843Z" fill="white"/>
<path fill-rule="evenodd" clip-rule="evenodd" d="M302.761 138.02H311.934V125.883H302.761V138.02Z" fill="white"/>
<path fill-rule="evenodd" clip-rule="evenodd" d="M325.642 211.842H334.443V160.926C337.268 159.09 342.841 157.425 345.309 157.425C350.276 157.425 355.802 160.957 355.802 165.75V211.842H364.758V172.083C364.758 162.358 369.073 157.425 377.579 157.425C385.511 157.425 386.132 165.75 386.132 168.302V211.842H395.088V168.302C395.088 160.319 390.509 148.43 377.952 148.43C372.876 148.43 365.891 149.831 360.831 156.289C357.835 151.418 351.719 148.43 344.579 148.43C340.869 148.43 336.756 149.597 332.41 151.854L328.654 147.963L322.32 154.141L325.642 157.316V211.842Z" fill="white"/>
<path fill-rule="evenodd" clip-rule="evenodd" d="M408.139 138.02H417.359V125.883H408.139V138.02Z" fill="white"/>
<path fill-rule="evenodd" clip-rule="evenodd" d="M408.139 211.843H417.359V149.676H408.139V211.843Z" fill="white"/>
<path fill-rule="evenodd" clip-rule="evenodd" d="M506.161 138.02H515.35V125.883H506.161V138.02Z" fill="white"/>
<path fill-rule="evenodd" clip-rule="evenodd" d="M684.985 120.365L670.364 96.9922H653.382L669.944 120.365H684.985Z" fill="white"/>
<path fill-rule="evenodd" clip-rule="evenodd" d="M588.846 189.671C588.846 195.708 584.143 200.626 578.415 200.626C575.698 200.626 567.891 198.852 563.032 196.238V160.135C568.294 154.814 572.656 149.896 576.288 145.492V145.648C577.778 143.609 579.284 141.664 580.774 139.704L581.38 139.921C585.772 141.291 588.846 145.524 588.846 150.27V189.671ZM463.225 166.36C463.225 161.427 467.028 157.428 471.685 157.428C474.059 157.428 479.166 158.393 483.745 161.069V200.704C482.255 202.462 474.603 204.096 471.545 204.096C467.028 204.096 463.225 200.066 463.225 195.288V166.36ZM614.023 96.4123C599.075 108.145 588.722 118.54 581.054 127.332C579.595 129.013 578.229 130.6 576.956 132.156V132.001C575.357 134.226 573.712 136.389 572.066 138.537C568.543 143.096 564.942 147.422 561.294 151.515C557.895 155.343 554.418 158.968 550.941 162.407C539.346 173.767 527.347 183.011 515.364 190.278V149.678H506.175V195.46C501.611 197.84 497.079 199.957 492.577 201.808V125.994H483.885V151.188C479.989 149.445 475.891 148.589 471.685 148.589C462.232 148.589 454.548 156.712 454.548 166.718V194.775C454.548 201.7 458.087 207.8 463.784 210.912C448.417 215.16 433.5 217.914 384.202 217.977C363.65 217.992 129.126 218.117 129.126 218.117V226.489L395.797 226.598C433.795 226.598 463.939 219.782 487.502 210.678C489.97 209.698 492.329 208.733 494.657 207.753C498.926 205.901 502.931 204.003 506.734 202.073C509.528 200.626 512.197 199.21 514.774 197.731C524.646 192.083 532.702 186.356 539.206 181.252C542.838 178.404 546.113 175.666 549.233 173.005V253.052H562.846V211.596C567.829 213.635 573.044 214.646 578.415 214.646C591.671 214.646 602.505 203.225 602.505 189.173V150.923C602.505 141.571 597.74 133.106 590.119 128.64C618.555 97.2681 652.657 80.0574 680.83 72.1212C732.301 57.6181 778.014 57.1824 778.014 57.1824L781.227 45.0758C702.608 44.1265 637.678 74.9533 614.023 96.4123Z" fill="white"/>
<path fill-rule="evenodd" clip-rule="evenodd" d="M617.782 212.995H632.093V127.097H617.782V212.995Z" fill="white"/>
<path fill-rule="evenodd" clip-rule="evenodd" d="M702.8 127.104H688.986V196.118C685.136 198.39 678.71 200.631 673.448 200.631C667.767 200.631 662.024 195.838 662.024 186.704V127.104H648.038V181.74C648.038 187.793 648.038 193.52 651.003 199.448C654.977 208.754 663.405 214.309 673.619 214.309C678.291 214.309 685.866 213.173 692.494 210.061L697.787 215.368L707.674 205.44L702.8 200.942V127.104Z" fill="white"/>
<path fill-rule="evenodd" clip-rule="evenodd" d="M617.782 120.391H632.093V105.592H617.782V120.391Z" fill="white"/>
<path fill-rule="evenodd" clip-rule="evenodd" d="M69.2754 97.4248C49.7951 97.4248 33.2174 103.883 19.9615 116.581C6.70557 129.263 0 145.12 0 163.731C0 175.433 2.94921 186.482 8.72345 196.55C14.4977 206.618 22.445 214.616 32.3792 220.359C42.2513 226.069 54.5604 228.979 68.9028 228.979C86.1014 228.979 101.546 225.463 114.802 218.507V203.319C100.273 211.94 85.2321 216.281 70.036 216.281C54.0637 216.281 40.7301 211.317 30.4234 201.498C20.1012 191.664 14.8547 178.966 14.8547 163.731C14.8547 148.621 20.1788 135.861 30.6873 125.808C41.1337 115.756 54.4362 110.667 70.2222 110.667C84.2542 110.667 98.7364 114.604 113.374 122.354V107.586C97.2308 100.833 82.4071 97.4248 69.2754 97.4248Z" fill="white"/>
</svg>
