<svg width="787" height="263" viewBox="0 0 787 263" fill="none" xmlns="http://www.w3.org/2000/svg">
<path fill-rule="evenodd" clip-rule="evenodd" d="M786.098 32.9221C721.433 33.8091 653.384 56.5907 614.066 88.1178C586.126 110.526 576.379 132.452 576.285 132.685L578.164 130.507C613.958 88.6002 655.2 71.265 686.555 61.0257C734.86 45.2466 782.854 45.1377 782.854 45.1377L786.098 32.9221Z" fill="white"/>
<path fill-rule="evenodd" clip-rule="evenodd" d="M137.36 170.83C141.365 168.247 146.394 167.329 149.561 167.329C154.14 167.329 158.02 171.359 158.02 176.152V221.746H166.713V176.494C166.713 166.488 159.014 158.334 149.561 158.334H148.459C145.572 158.334 142.017 158.661 137.36 160.902V135.77H128.544V221.746H137.36V170.83Z" fill="white"/>
<path fill-rule="evenodd" clip-rule="evenodd" d="M179.919 221.744H189.108V159.577H179.919V221.744Z" fill="white"/>
<path fill-rule="evenodd" clip-rule="evenodd" d="M179.919 147.922H189.108V135.784H179.919V147.922Z" fill="white"/>
<path fill-rule="evenodd" clip-rule="evenodd" d="M210.675 176.001C210.675 170.368 215.751 167.318 220.532 167.318C224.785 167.318 231.909 168.438 231.909 176.001V181.027C231.909 185.976 227.951 190.317 223.481 190.317L210.675 190.193V176.001ZM221.897 222.84C223.636 222.84 239.593 219.666 240.26 219.541L240.85 219.401L238.63 210.22L238.072 210.36C231.956 211.807 222.612 213.97 221.897 214.002C216.434 214.002 211.699 210.158 210.675 204.883V199.483C212.786 199.701 214.788 199.763 216.915 199.763C232.328 199.763 240.835 192.932 240.835 180.529V176.608C240.835 166.369 233.089 158.339 223.217 158.339H219.212C209.325 158.339 201.595 166.369 201.595 176.608V202.875C201.595 214.064 210.489 222.84 221.897 222.84Z" fill="white"/>
<path fill-rule="evenodd" clip-rule="evenodd" d="M259.823 176.263C259.823 171.314 263.61 167.315 268.267 167.315C270.626 167.315 275.749 168.295 280.343 170.956V210.622C278.853 212.38 271.17 214.014 268.127 214.014C263.642 214.014 259.823 209.953 259.823 205.175V176.263ZM268.267 222.853C270.89 222.853 277.161 222.168 282.377 219.663L286.149 223.429L292.466 217.251L289.16 214.092V135.881H280.468V161.09C276.587 159.332 272.489 158.476 268.267 158.476C258.814 158.476 251.131 166.615 251.131 176.605V204.693C251.131 214.87 258.659 222.853 268.267 222.853Z" fill="white"/>
<path fill-rule="evenodd" clip-rule="evenodd" d="M302.761 221.744H311.934V159.577H302.761V221.744Z" fill="white"/>
<path fill-rule="evenodd" clip-rule="evenodd" d="M302.761 147.922H311.934V135.784H302.761V147.922Z" fill="white"/>
<path fill-rule="evenodd" clip-rule="evenodd" d="M325.642 221.744H334.443V170.827C337.268 168.991 342.841 167.326 345.309 167.326C350.276 167.326 355.802 170.858 355.802 175.651V221.744H364.758V181.985C364.758 172.259 369.073 167.326 377.579 167.326C385.511 167.326 386.132 175.651 386.132 178.203V221.744H395.088V178.203C395.088 170.22 390.509 158.332 377.952 158.332C372.876 158.332 365.891 159.732 360.831 166.19C357.835 161.319 351.719 158.332 344.579 158.332C340.869 158.332 336.756 159.499 332.41 161.755L328.654 157.865L322.32 164.043L325.642 167.217V221.744Z" fill="white"/>
<path fill-rule="evenodd" clip-rule="evenodd" d="M408.139 147.922H417.359V135.784H408.139V147.922Z" fill="white"/>
<path fill-rule="evenodd" clip-rule="evenodd" d="M408.139 221.744H417.359V159.577H408.139V221.744Z" fill="white"/>
<path fill-rule="evenodd" clip-rule="evenodd" d="M506.161 147.922H515.35V135.784H506.161V147.922Z" fill="white"/>
<path fill-rule="evenodd" clip-rule="evenodd" d="M684.985 130.267L670.364 106.894H653.382L669.944 130.267H684.985Z" fill="white"/>
<path fill-rule="evenodd" clip-rule="evenodd" d="M588.846 199.572C588.846 205.61 584.143 210.527 578.415 210.527C575.698 210.527 567.891 208.753 563.032 206.139V170.037C568.294 164.715 572.656 159.798 576.288 155.394V155.549C577.778 153.511 579.284 151.566 580.774 149.605L581.38 149.823C585.772 151.192 588.846 155.425 588.846 160.171V199.572ZM463.225 176.261C463.225 171.328 467.028 167.329 471.685 167.329C474.059 167.329 479.166 168.294 483.745 170.971V210.605C482.255 212.363 474.603 213.997 471.545 213.997C467.028 213.997 463.225 209.967 463.225 205.19V176.261ZM614.023 106.314C599.075 118.047 588.722 128.442 581.054 137.234C579.595 138.914 578.229 140.502 576.956 142.058V141.902C575.357 144.127 573.712 146.29 572.066 148.438C568.543 152.997 564.942 157.323 561.294 161.416C557.895 165.244 554.418 168.87 550.941 172.309C539.346 183.669 527.347 192.912 515.364 200.179V159.58H506.175V205.361C501.611 207.742 497.079 209.858 492.577 211.71V135.896H483.885V161.089C479.989 159.346 475.891 158.49 471.685 158.49C462.232 158.49 454.548 166.613 454.548 176.619V204.676C454.548 211.601 458.087 217.701 463.784 220.813C448.417 225.061 433.5 227.816 384.202 227.878C363.65 227.894 129.126 228.018 129.126 228.018V236.39L395.797 236.499C433.795 236.499 463.939 229.683 487.502 220.58C489.97 219.599 492.329 218.635 494.657 217.654C498.926 215.802 502.931 213.904 506.734 211.974C509.528 210.527 512.197 209.111 514.774 207.633C524.646 201.984 532.702 196.258 539.206 191.153C542.838 188.306 546.113 185.567 549.233 182.906V262.953H562.846V221.498C567.829 223.536 573.044 224.548 578.415 224.548C591.671 224.548 602.505 213.126 602.505 199.074V160.825C602.505 151.472 597.74 143.007 590.119 138.541C618.555 107.17 652.657 89.9588 680.83 82.0226C732.301 67.5195 778.014 67.0838 778.014 67.0838L781.227 54.9772C702.608 54.0279 637.678 84.8547 614.023 106.314Z" fill="white"/>
<path fill-rule="evenodd" clip-rule="evenodd" d="M617.782 222.897H632.093V136.999H617.782V222.897Z" fill="white"/>
<path fill-rule="evenodd" clip-rule="evenodd" d="M702.8 137.006H688.986V206.02C685.136 208.292 678.71 210.533 673.448 210.533C667.767 210.533 662.024 205.74 662.024 196.605V137.006H648.038V191.641C648.038 197.694 648.038 203.421 651.003 209.35C654.977 218.655 663.405 224.211 673.619 224.211C678.291 224.211 685.866 223.075 692.494 219.963L697.787 225.269L707.674 215.341L702.8 210.844V137.006Z" fill="white"/>
<path fill-rule="evenodd" clip-rule="evenodd" d="M617.782 130.292H632.093V115.493H617.782V130.292Z" fill="white"/>
<path fill-rule="evenodd" clip-rule="evenodd" d="M69.2754 107.326C49.7951 107.326 33.2174 113.784 19.9615 126.482C6.70557 139.164 0 155.021 0 173.633C0 185.335 2.94921 196.383 8.72345 206.451C14.4977 216.519 22.445 224.518 32.3792 230.26C42.2513 235.971 54.5604 238.881 68.9028 238.881C86.1014 238.881 101.546 235.364 114.802 228.408V213.22C100.273 221.841 85.2321 226.183 70.036 226.183C54.0637 226.183 40.7301 221.219 30.4234 211.4C20.1012 201.565 14.8547 188.867 14.8547 173.633C14.8547 158.523 20.1788 145.762 30.6873 135.71C41.1337 125.657 54.4362 120.569 70.2222 120.569C84.2542 120.569 98.7364 124.506 113.374 132.255V117.488C97.2308 110.734 82.4071 107.326 69.2754 107.326Z" fill="white"/>
<mask id="mask0_2002_393" style="mask-type:luminance" maskUnits="userSpaceOnUse" x="556" y="0" width="17" height="17">
<path d="M556.182 0H572.7V16.5202H556.182V0Z" fill="white"/>
</mask>
<g mask="url(#mask0_2002_393)">
<path fill-rule="evenodd" clip-rule="evenodd" d="M556.182 8.2601C556.182 3.69829 559.878 0 564.442 0C569.001 0 572.702 3.69829 572.702 8.2601C572.702 12.8219 569.001 16.5202 564.442 16.5202C559.878 16.5202 556.182 12.8219 556.182 8.2601Z" fill="#FEFEFE"/>
</g>
<path fill-rule="evenodd" clip-rule="evenodd" d="M538.927 10.5332L332.608 34.7669C331.233 31.4436 327.974 28.2309 320.815 27.1639C317.591 26.6812 313.573 26.4283 308.872 26.4283C286.196 26.4283 253.415 31.8332 234.635 42.146C222.273 48.9407 218.368 58.0905 217.272 64.5771C216.126 71.3456 217.592 77.806 219.2 81.2863C221.587 86.4674 228.786 94.1954 241.825 100.452C241.846 100.467 241.863 100.476 241.878 100.487C241.288 100.609 240.729 100.755 240.206 100.932C223.901 106.599 215.743 119.932 214.899 130.643C214.181 139.584 218.118 147.05 225.701 151.132C228.643 152.723 231.984 153.525 235.627 153.525C251.632 153.525 271.086 138.145 284.443 123.235C310.849 127.021 318.507 134.176 321.443 136.909L321.499 136.967C322.635 138.025 323.496 139.241 324.322 140.427C325.895 142.654 327.674 145.184 331.003 145.184C331.689 145.184 332.378 145.059 333.05 144.835C336.722 143.582 336.847 139.837 336.99 135.478L337.001 132.876C337.013 127.71 337.019 121.438 336.777 117.074L527.114 96.7423L527.271 96.7191C538.331 95.0357 545.6 89.494 548.888 80.2483L548.949 80.0826L561.105 31.557L561.137 31.3971C562.774 23.265 560.538 18.4211 558.375 15.787C556.267 13.2139 552.089 10.1465 544.146 10.1465C542.512 10.1465 540.759 10.2744 538.927 10.5332Z" fill="#1D1D1B"/>
<path fill-rule="evenodd" clip-rule="evenodd" d="M537.315 8.91599L330.998 33.1497C329.617 29.8294 326.361 26.6108 319.197 25.5496C315.981 25.064 311.955 24.8198 307.25 24.8198C284.584 24.8198 251.799 30.219 233.02 40.5317C220.654 47.3236 216.756 56.4733 215.654 62.9599C214.514 69.7285 215.979 76.1976 217.587 79.672C219.977 84.8502 227.167 92.5811 240.21 98.8351C240.225 98.8554 240.248 98.8583 240.262 98.867C239.675 98.9921 239.114 99.1345 238.591 99.3119C222.288 104.984 214.13 118.321 213.281 129.029C212.566 137.972 216.503 145.436 224.088 149.521C227.028 151.108 230.368 151.911 234.006 151.911C250.014 151.911 269.465 136.53 282.831 121.618C309.239 125.401 316.897 132.556 319.834 135.295L319.886 135.35C321.02 136.405 321.878 137.624 322.706 138.807C324.279 141.037 326.059 143.569 329.388 143.569C330.071 143.569 330.76 143.447 331.437 143.215C335.107 141.97 335.232 138.217 335.374 133.861L335.389 131.265C335.395 126.095 335.409 119.818 335.171 115.457L525.499 95.131L525.656 95.1106C536.716 93.4214 543.987 87.8768 547.279 78.634L547.337 78.4654L559.49 29.9457L559.525 29.7799C561.153 21.6536 558.926 16.8068 556.763 14.1698C554.655 11.6025 550.468 8.5293 542.534 8.5293C540.894 8.5293 539.138 8.65432 537.315 8.91599Z" fill="url(#paint0_linear_2002_393)"/>
<path fill-rule="evenodd" clip-rule="evenodd" d="M329.684 112.367C329.664 112.128 329.652 111.896 329.638 111.678C329.469 108.357 329.582 106.203 306.709 101.507C300.909 100.327 294.748 99.6465 288.422 99.4895L288.285 99.443L288.192 99.3761L288.14 99.0447C289.369 97.5241 298.615 85.9466 307.925 71.6884C315.074 60.765 319.613 52.5311 319.592 47.1232C319.592 46.0038 319.403 45.0095 319.008 44.1343C317.999 41.8694 315.702 40.4826 311.844 39.9069C309.239 39.5115 305.767 39.3137 301.845 39.3137C284.258 39.3021 258.771 43.172 244.513 51.6123C237.148 55.9706 233.064 61.2099 232.305 67.1992C232.223 67.8912 232.177 68.5919 232.177 69.2519C232.177 73.1566 233.546 76.3345 234.258 78.0063C234.337 78.1807 234.407 78.3348 234.462 78.4744C235.102 80.0124 235.674 80.5794 236.227 80.5648C236.869 80.5881 237.803 79.7217 239.207 77.4132C239.384 77.1282 239.567 76.8229 239.756 76.4769C242.013 72.6129 246.281 65.3501 262.359 61.0063C280.179 56.1829 290.843 55.4618 295.623 55.4618C299.394 55.4793 303.104 55.6857 304.474 57.8925C304.799 58.4332 304.959 59.0671 304.959 59.7823C304.953 61.079 304.45 62.6374 303.45 64.5418C299.371 72.3106 282.575 96.3378 280.371 99.475L280.191 99.5709C266.854 100.158 253.169 102.952 242.658 107.258C231.967 111.625 224.202 120.682 223.757 129.181C223.745 129.431 223.742 129.689 223.742 129.934C223.745 134.647 226.123 138.493 230.549 140.877C232.482 141.927 234.697 142.459 237.148 142.459C249.569 142.479 266.171 129.023 276.928 115.885C276.879 115.885 276.83 115.879 276.774 115.879H276.78L268.421 115.23C265.069 118.999 252.261 132.719 240.652 135.591C239.474 135.879 238.402 136.016 237.41 136.016C232.398 136.007 229.836 132.53 229.83 128.698C229.83 126.645 230.549 124.491 231.994 122.694C236.244 117.399 241.626 113.384 261.868 113.387C264.176 113.387 266.668 113.448 269.389 113.55H269.395L278.408 114.242H278.402C310.739 116.553 319.13 124.331 322.291 127.294L322.34 127.343V127.337C323.471 128.387 324.279 129.553 324.995 130.55C326.059 132.079 326.873 133.167 328.007 133.155C328.231 133.155 328.472 133.111 328.728 133.027C329.725 132.748 329.847 131.291 329.937 128.145L329.94 126.165V124.052C329.94 119.856 329.914 115.216 329.684 112.367Z" fill="#1D1D1B"/>
<path fill-rule="evenodd" clip-rule="evenodd" d="M310.535 100.051C310.724 100.051 310.925 100.037 311.129 100.013C316.612 99.4085 322.674 94.5909 326.588 88.7149L327.006 88.901C326.736 89.9244 326.337 91.2706 326 92.6051C325.477 94.774 325.035 97.0273 325.035 98.0478C325.015 98.3967 325.032 98.4462 325.015 98.4578C326.178 98.327 330.731 97.4838 333.196 96.1144C333.423 94.6083 334.153 90.692 335.481 86.3017C337.886 78.1899 342.137 64.6557 343.649 60.6027C341.607 60.2596 338.837 59.8031 336.086 59.8031C335.324 59.8031 334.554 59.8351 333.813 59.9194C327.78 60.6027 322.741 62.8559 317.734 68.133C311.475 74.6864 308.253 83.1093 307.145 88.6713L307.125 88.7556C306.735 90.7647 306.549 92.4888 306.549 93.9483C306.57 98.2107 308.07 100.037 310.535 100.051ZM316.231 85.7028C316.987 81.9056 318.993 76.5966 322.145 72.3692V72.3575C325.41 68.1999 327.998 67.1241 330.539 66.8479C330.824 66.8159 331.1 66.7985 331.364 66.7985C332.141 66.7985 332.809 66.9409 333.356 67.1241L333.501 67.4148C333.249 68.3423 333.126 68.6069 332.929 69.2756L332.926 69.2843C328.492 83.3128 321.101 90.6484 317.775 91.0787L317.705 91.0845C317.638 91.0845 317.571 91.0903 317.505 91.0903C316.484 91.0903 315.92 90.1425 315.911 88.4649C315.911 87.7147 316.01 86.8076 316.231 85.7028Z" fill="#1D1D1B"/>
<path fill-rule="evenodd" clip-rule="evenodd" d="M371.337 55.7291C371.131 55.7291 370.913 55.7437 370.677 55.7669C364.813 56.4182 359.463 61.954 355.387 67.9492L355.227 68.0597L355.079 68.0742L354.834 67.7573C355.003 67.2659 355.218 66.5042 355.407 65.9052C356.704 61.5324 357.399 58.8198 357.399 57.7178C357.376 57.2701 357.303 57.2701 357.303 57.2701H357.294C356.721 57.3282 350.249 59.5379 348.851 60.2153C348.636 61.8522 347.423 66.2047 344.81 74.3979C342.376 82.0329 339.262 91.4502 337.396 96.7185C341.768 96.1254 343.969 95.3055 345.231 94.3286V94.3199C345.984 93.7704 346.664 92.9359 347.29 91.174C354.593 70.1414 361.551 65.0272 364.039 64.7132C364.103 64.7016 364.182 64.6928 364.24 64.6928C365.229 64.6928 365.601 65.629 365.601 66.6873C365.601 67.7776 365.275 69.1529 364.813 70.5165H364.819C363.484 74.5084 361.179 80.9862 359.731 85.2282C358.39 89.1359 357.399 93.5087 357.399 94.6949V94.7996C358.765 94.631 363.679 93.7267 365.862 92.4445C366.421 89.6825 367.427 86.2517 368.715 82.1463V82.1405C370.061 78.0672 371.738 73.3774 373.169 68.8854C374.262 65.5011 374.82 62.646 374.82 60.4828C374.794 57.334 373.71 55.7437 371.337 55.7291Z" fill="#1D1D1B"/>
<path fill-rule="evenodd" clip-rule="evenodd" d="M385.199 84.1366C384.268 84.1366 383.675 84.0581 383.222 83.9244L383.102 83.5609C387.705 77.3273 398.965 62.0632 401.344 57.827C402.946 55.0213 402.475 56.1785 403.821 52.7273C402.768 52.9366 400.28 53.332 393.694 54.0764L393.621 54.0851C388.155 54.6956 385.358 54.937 383.803 54.937C382.794 54.937 382.282 54.8323 381.931 54.6404C381.114 55.4865 378.759 58.9202 377.875 61.5253C377.84 61.6445 377.817 61.7375 377.817 61.8102C377.817 62.1242 378.244 62.4731 380.122 62.4731C381.154 62.4731 382.573 62.3743 384.454 62.1649C386.112 61.9759 388.461 61.7114 390.324 61.5049L390.548 61.8625C387.071 67.4798 372.941 85.6252 369.338 90.0969C369.469 90.6261 369.551 91.1959 369.615 91.7687C370.216 92.263 371.638 92.5188 373.647 92.5103C375.72 92.5103 378.407 92.2717 381.512 91.9315C387.228 91.2861 390.589 90.7191 391.807 89.8905C393.206 88.9543 395.86 85.4944 396.721 83.2062C396.721 83.0056 396.939 82.6712 396.956 82.459C395.41 82.9358 392.502 83.4766 388.853 83.8808C387.216 84.0668 386.062 84.1366 385.199 84.1366Z" fill="#1D1D1B"/>
<path fill-rule="evenodd" clip-rule="evenodd" d="M396.871 83.3374C396.859 83.4856 396.845 83.6339 396.845 83.7706C396.877 88.0416 398.377 89.8675 400.825 89.8733C401.017 89.8733 401.215 89.8675 401.421 89.8414C406.899 89.2424 412.952 84.4248 416.868 78.5459L417.284 78.7349C417.011 79.7496 416.607 81.0957 416.284 82.439C415.752 84.5963 415.322 86.8612 415.322 87.8788C415.298 88.2219 415.313 88.2655 415.301 88.283C416.45 88.1463 421.017 87.3031 423.465 85.9454C423.701 84.4306 424.428 80.52 425.759 76.1269C428.164 68.0179 432.418 54.4779 433.921 50.4336C431.877 50.0818 429.112 49.6224 426.364 49.6224C425.597 49.6224 424.841 49.6631 424.096 49.7504C418.063 50.4336 413.016 52.6811 408.018 57.9669C401.767 64.5086 398.551 72.9316 397.449 78.4935L397.432 78.5837C397.176 79.8746 397.013 81.0463 396.929 82.1017L396.9 82.5378C396.845 82.8547 396.9 82.8867 396.871 83.3374ZM406.515 75.5337C407.277 71.7395 409.268 66.4247 412.423 62.1972V62.1885C415.691 58.0366 418.273 56.958 420.808 56.6788C421.093 56.644 421.375 56.6294 421.64 56.6294C422.413 56.6294 423.085 56.7632 423.625 56.958L423.774 57.2342C423.512 58.1762 423.399 58.4466 423.21 59.1066V59.1124C418.758 73.1467 411.37 80.4793 408.056 80.8951L407.989 80.9096C407.919 80.9125 407.858 80.9213 407.788 80.9213C406.771 80.9213 406.195 79.9647 406.195 78.29C406.195 77.5428 406.3 76.6328 406.515 75.5337Z" fill="#1D1D1B"/>
<path fill-rule="evenodd" clip-rule="evenodd" d="M455.616 57.3449C457.523 55.2137 460.352 49.5761 460.46 46.9362C460.07 46.4215 458.806 45.9011 458.119 45.9125C458.082 45.9125 458.032 45.9156 457.991 45.9244C455.069 46.2471 450.493 48.7446 444.92 58.8219L444.742 58.9411L444.542 58.9643L444.286 58.6736C445.885 53.632 446.69 49.0179 446.69 47.5089C446.69 47.3781 446.681 47.2792 446.667 47.2095C445.492 47.4421 439.954 49.3784 438.645 50.0791C438.462 51.6288 437.523 55.7225 437.02 57.5426C434.642 66.1806 430.321 79.3631 427.818 86.5242C430.167 86.1375 434.188 85.114 435.799 84.1139L435.805 84.1051C436.819 83.5207 437.337 82.8084 437.965 81.0378H437.956C444.542 61.9735 449.976 56.9611 452.482 56.6209C452.659 56.6064 452.848 56.6035 453.028 56.6035C454.069 56.6035 454.971 56.9407 455.616 57.3449Z" fill="#1D1D1B"/>
<path fill-rule="evenodd" clip-rule="evenodd" d="M453.05 70.0309C452.654 72.0371 452.436 73.8572 452.436 75.465C452.474 80.4513 454.39 83.2279 459.17 83.2599C459.652 83.2599 460.164 83.2163 460.728 83.1552C467.075 82.4516 471.628 79.0208 473.87 76.4361V76.4273C474.87 75.3603 475.702 73.8397 476.126 71.7085C476.268 70.9875 476.332 70.4089 476.332 69.9553C476.332 69.5076 476.268 69.182 476.178 68.9435C473.53 71.3451 469.677 74.3631 465.421 74.8486C465.179 74.8719 464.938 74.8893 464.711 74.8893C462.397 74.8777 461.371 73.3425 461.365 71.1707C461.365 70.5601 461.443 69.8768 461.58 69.1674C461.658 68.836 461.714 68.4987 461.784 68.1702L461.967 67.9812C468.122 67.0508 479.955 62.3581 481.99 51.9901C482.162 51.1295 482.255 50.3474 482.255 49.6206C482.226 45.8379 480.089 43.9277 476.481 43.9074C476.091 43.9074 475.678 43.9277 475.262 43.9772L475.193 43.9859C464.735 45.1431 455.425 57.9737 453.05 70.0309ZM474.696 53.4526C474.265 55.6332 471.878 60.1368 463.729 61.7098L463.461 61.4016C466.072 54.13 469.764 50.7661 472.483 50.4463L472.55 50.4317C472.652 50.4317 472.739 50.4259 472.823 50.4259C474.204 50.4259 474.757 51.679 474.768 52.7693C474.768 53.0019 474.733 53.2287 474.696 53.4526Z" fill="#1D1D1B"/>
<path fill-rule="evenodd" clip-rule="evenodd" d="M500.932 26.3055C500.9 26.3055 500.842 26.3055 500.792 26.3143C499.385 26.4713 493.823 27.8639 492.657 28.332C492.5 28.9862 493.105 27.8814 490.558 36.4729C488.383 44.0614 479.399 72.4353 476.556 81.0472C480.175 80.5733 483.775 79.1603 484.851 78.4276C485.694 77.7153 486.284 76.7122 486.642 75.5638C490.043 64.8788 497.626 39.6682 500.769 29.0182C501.109 27.9046 501.269 27.1691 501.269 26.7533C501.223 26.3143 501.223 26.3462 500.932 26.3055Z" fill="#1D1D1B"/>
<path fill-rule="evenodd" clip-rule="evenodd" d="M515.029 24.7168C514.988 24.7168 514.945 24.7197 514.887 24.7313C513.474 24.8883 507.917 26.2839 506.743 26.7404C506.592 27.4033 507.193 26.2985 504.646 34.8842C502.475 42.4756 493.493 70.8553 490.653 79.4614C494.27 78.9904 497.863 77.5715 498.945 76.8447C499.785 76.1265 500.372 75.1206 500.733 73.9721C504.143 63.2872 511.717 38.0853 514.857 27.4382V27.4236C515.201 26.3159 515.363 25.5716 515.363 25.1675C515.314 24.7197 515.305 24.7662 515.029 24.7168Z" fill="#1D1D1B"/>
<path fill-rule="evenodd" clip-rule="evenodd" d="M510.279 77.5509C510.473 77.5509 510.662 77.5364 510.872 77.5102C516.349 76.9084 522.414 72.0907 526.331 66.2089L526.749 66.4008C526.479 67.4155 526.078 68.7733 525.74 70.1107C525.214 72.2652 524.778 74.5243 524.781 75.5419C524.758 75.8908 524.772 75.946 524.772 75.946C525.921 75.8181 530.474 74.9778 532.939 73.6288C533.169 72.0994 533.893 68.186 535.23 63.7957V63.8074C537.632 55.6868 541.883 42.1439 543.392 38.0996C541.348 37.7507 538.588 37.2971 535.829 37.2971C535.068 37.2971 534.3 37.332 533.553 37.4134C527.526 38.0967 522.481 40.3529 517.469 45.6241C511.209 52.1804 507.996 60.6033 506.888 66.1711L506.868 66.2554C506.47 68.2616 506.281 69.9886 506.281 71.4453C506.316 75.7105 507.816 77.5364 510.279 77.5509ZM515.971 63.2026C516.733 59.4055 518.736 54.0906 521.891 49.8544C525.156 45.6939 527.741 44.621 530.282 44.3419C530.57 44.3128 530.843 44.2954 531.099 44.2954C531.884 44.2954 532.555 44.4291 533.096 44.621L533.239 44.903C532.983 45.8392 532.869 46.1096 532.675 46.7725H532.666C528.229 60.8127 520.844 68.1511 517.518 68.5698L517.443 68.5756C517.381 68.5843 517.315 68.5901 517.248 68.5901C516.23 68.5901 515.657 67.6394 515.657 65.956C515.657 65.2175 515.759 64.3016 515.971 63.2026Z" fill="#1D1D1B"/>
<path fill-rule="evenodd" clip-rule="evenodd" d="M328.557 111.238C328.534 110.997 328.525 110.776 328.507 110.549C328.342 107.234 328.455 105.074 305.576 100.381C299.779 99.2011 293.615 98.5207 287.294 98.3637L287.157 98.3259L287.062 98.2474L287.015 97.9131C288.239 96.3895 297.485 84.8178 306.797 70.5626C313.95 59.6421 318.477 51.4053 318.462 45.9974C318.462 44.8751 318.279 43.8837 317.884 43.0086C316.872 40.7524 314.572 39.3539 310.714 38.7811C308.103 38.3857 304.643 38.1851 300.715 38.1851C283.134 38.1793 257.644 42.0433 243.38 50.4894C236.021 54.8448 231.93 60.0841 231.174 66.0705C231.093 66.7712 231.046 67.4574 231.046 68.129C231.046 72.0308 232.416 75.2029 233.131 76.8718C233.207 77.0549 233.279 77.209 233.335 77.3486C233.971 78.8866 234.55 79.4507 235.099 79.4332C235.745 79.4623 236.675 78.6017 238.077 76.2844C238.254 75.9966 238.434 75.6971 238.629 75.357C240.885 71.4813 245.15 64.2185 261.232 59.8776C279.046 55.06 289.716 54.336 294.499 54.336C298.261 54.3535 301.974 54.5628 303.34 56.7667C303.666 57.3016 303.829 57.9384 303.829 58.6478C303.829 59.9474 303.32 61.5087 302.326 63.4131C298.249 71.1848 281.447 95.212 279.243 98.3521L279.066 98.4451C265.729 99.0353 252.038 101.832 241.528 106.132C230.837 110.505 223.074 119.559 222.629 128.055C222.621 128.302 222.615 128.555 222.615 128.805C222.621 133.518 224.993 137.364 229.421 139.76C231.352 140.798 233.573 141.33 236.021 141.33C248.442 141.351 265.046 127.889 275.795 114.753C275.746 114.753 275.699 114.747 275.647 114.741H275.653L267.291 114.105C263.936 117.873 251.128 131.59 239.527 134.463C238.356 134.751 237.268 134.89 236.283 134.89C231.267 134.879 228.706 131.398 228.7 127.572C228.7 125.511 229.421 123.362 230.866 121.565C235.114 116.277 240.499 112.253 260.743 112.267C263.046 112.267 265.549 112.317 268.265 112.424L277.275 113.119H277.272C309.615 115.433 318.009 123.205 321.157 126.168L321.213 126.211V126.206C322.346 127.261 323.158 128.427 323.87 129.43C324.931 130.951 325.748 132.047 326.882 132.026C327.106 132.026 327.341 131.986 327.6 131.893C328.598 131.616 328.72 130.168 328.807 127.02L328.81 125.034V122.926C328.81 118.725 328.786 114.084 328.557 111.238Z" fill="#FEFEFE"/>
<path fill-rule="evenodd" clip-rule="evenodd" d="M309.403 98.9211C309.595 98.9211 309.793 98.9065 310.002 98.8862C315.483 98.2785 321.551 93.4696 325.464 87.5878L325.883 87.771C325.606 88.7944 325.211 90.1406 324.877 91.478C324.353 93.647 323.903 95.8973 323.903 96.9237C323.891 97.2667 323.903 97.3191 323.891 97.3278C325.048 97.1999 329.607 96.3538 332.064 94.9844C332.302 93.4783 333.023 89.562 334.355 85.1746C336.757 77.0599 341.013 63.5315 342.516 59.4814C340.478 59.1354 337.713 58.6731 334.96 58.6731C334.192 58.6731 333.425 58.708 332.68 58.7923C326.656 59.4726 321.612 61.7317 316.611 67.003C310.342 73.5564 307.121 81.9851 306.019 87.5471L306.004 87.6256C305.603 89.6347 305.42 91.3617 305.42 92.8183C305.443 97.0865 306.941 98.9065 309.403 98.9211ZM315.105 84.5757C315.866 80.7785 317.867 75.4666 321.021 71.2362V71.2304C324.289 67.0786 326.874 65.9999 329.406 65.7266C329.697 65.683 329.968 65.6714 330.232 65.6714C331.011 65.6714 331.689 65.808 332.23 65.9999L332.378 66.2819C332.119 67.221 331.997 67.4827 331.802 68.1485L331.796 68.1543C327.363 82.1828 319.972 89.5271 316.646 89.9487L316.582 89.9516C316.503 89.9574 316.448 89.9661 316.375 89.9661C315.361 89.9661 314.794 89.0212 314.788 87.3349C314.788 86.5905 314.887 85.6776 315.105 84.5757Z" fill="#FEFEFE"/>
<path fill-rule="evenodd" clip-rule="evenodd" d="M370.213 54.6019C370.003 54.6019 369.782 54.6136 369.55 54.6339C363.68 55.2852 358.339 60.8181 354.265 66.822L354.091 66.9296L353.954 66.947L353.71 66.6388C353.873 66.1329 354.091 65.377 354.283 64.778C355.574 60.411 356.266 57.6897 356.266 56.5935C356.251 56.1516 356.175 56.1516 356.175 56.1516H356.164C355.591 56.201 349.116 58.4136 347.726 59.0852C347.508 60.725 346.296 65.0746 343.682 73.2737C341.251 80.9028 338.129 90.3201 336.265 95.5942C340.635 94.9953 342.842 94.1812 344.104 93.2014L344.109 93.1956C344.851 92.6432 345.54 91.8058 346.162 90.041C353.463 69.0084 360.414 63.9029 362.912 63.586C362.976 63.5744 363.046 63.5685 363.113 63.5685C364.104 63.5685 364.47 64.5018 364.47 65.5689C364.47 66.6505 364.154 68.0257 363.688 69.3893V69.3864C362.354 73.3841 360.057 79.8561 358.603 84.1039C357.269 88.0058 356.266 92.3815 356.266 93.5648C356.266 93.6113 356.274 93.6462 356.274 93.6753C357.638 93.5038 362.554 92.6025 364.735 91.3145C365.29 88.5495 366.302 85.1216 367.584 81.0162V81.0104C368.936 76.9341 370.608 72.2473 372.044 67.7553C373.132 64.3739 373.696 61.5217 373.696 59.3556C373.667 56.2068 372.582 54.6165 370.213 54.6019Z" fill="#FEFEFE"/>
<path fill-rule="evenodd" clip-rule="evenodd" d="M384.066 83.0111C383.141 83.0111 382.551 82.9297 382.092 82.8018L381.969 82.4383C386.581 76.2018 397.833 60.9406 400.22 56.6957C401.819 53.8929 401.356 55.0471 402.694 51.5989C401.653 51.8082 399.153 52.2007 392.567 52.945L392.497 52.9538C387.023 53.5701 384.229 53.8085 382.679 53.8085C381.667 53.8115 381.155 53.7039 380.792 53.5178C379.984 54.3639 377.634 57.7889 376.751 60.4056C376.713 60.519 376.69 60.6091 376.69 60.6847C376.69 60.9958 377.123 61.3476 378.992 61.3476C380.027 61.3476 381.449 61.2487 383.33 61.0394C384.982 60.8475 387.337 60.5887 389.2 60.3765L389.418 60.7341C385.944 66.3484 371.82 84.4997 368.206 88.9743C368.339 89.4976 368.415 90.0704 368.488 90.6374C369.092 91.1433 370.511 91.3904 372.526 91.3847C374.596 91.3847 377.288 91.1462 380.388 90.8002C386.113 90.1576 389.456 89.5936 390.683 88.7621C392.073 87.8317 394.736 84.3689 395.594 82.0778C395.594 81.8772 395.815 81.5428 395.835 81.3335C394.28 81.7987 391.372 82.3453 387.735 82.7523C386.092 82.9355 384.938 83.0111 384.066 83.0111Z" fill="#FEFEFE"/>
<path fill-rule="evenodd" clip-rule="evenodd" d="M395.741 82.2115C395.735 82.354 395.72 82.5081 395.72 82.6447C395.749 86.9187 397.25 88.7358 399.706 88.7475C399.898 88.7475 400.09 88.7359 400.302 88.7155C405.771 88.1049 411.825 83.2902 415.732 77.4113L416.154 77.6003C415.883 78.6237 415.482 79.9669 415.157 81.3044C414.627 83.4704 414.191 85.7324 414.191 86.7442C414.168 87.0873 414.183 87.1367 414.177 87.1513C415.325 87.0205 419.89 86.1802 422.341 84.8166C422.576 83.3047 423.3 79.3913 424.635 75.001C427.042 66.8892 431.287 53.3549 432.796 49.299C430.752 48.956 427.99 48.4966 425.243 48.4966C424.472 48.4966 423.707 48.5315 422.963 48.6158C416.93 49.299 411.889 51.5581 406.899 56.8352C400.64 63.3799 397.427 71.8086 396.322 77.3677L396.308 77.4549C396.052 78.7545 395.892 79.9146 395.802 80.9729L395.778 81.4149C395.72 81.7289 395.778 81.7579 395.741 82.2115ZM405.39 74.405C406.152 70.6049 408.147 65.2959 411.295 61.0684V61.0568C414.566 56.905 417.151 55.8321 419.689 55.5472C419.971 55.5152 420.25 55.5036 420.512 55.5036C421.286 55.5036 421.954 55.6286 422.498 55.8321L422.646 56.1083C422.393 57.0416 422.274 57.3149 422.085 57.9749V57.9807C417.631 72.015 410.252 79.3564 406.928 79.7751L406.865 79.778C406.795 79.7896 406.731 79.7954 406.664 79.7954C405.652 79.7954 405.074 78.8388 405.074 77.1612C405.074 76.414 405.178 75.5069 405.39 74.405Z" fill="#FEFEFE"/>
<path fill-rule="evenodd" clip-rule="evenodd" d="M454.492 56.2149C456.394 54.0895 459.225 48.4461 459.336 45.8032C458.94 45.2973 457.682 44.774 456.995 44.7882C456.952 44.7882 456.908 44.7944 456.867 44.8031C453.945 45.12 449.366 47.6146 443.796 57.7006L443.618 57.814L443.415 57.8401L443.162 57.5436C444.758 52.5049 445.569 47.8879 445.569 46.3818C445.569 46.2539 445.56 46.1492 445.546 46.0765C444.374 46.315 438.827 48.2542 437.524 48.9549C437.338 50.5046 436.396 54.5925 435.899 56.4184C433.512 65.0536 429.194 78.2331 426.691 85.3971C429.034 85.0104 433.067 83.9811 434.672 82.9897L434.684 82.978C435.701 82.3966 436.21 81.6813 436.838 79.9078L436.832 79.9136C443.415 60.8406 448.854 55.8369 451.361 55.4938C451.532 55.4764 451.724 55.4647 451.901 55.4647C452.937 55.4647 453.852 55.8107 454.492 56.2149Z" fill="#FEFEFE"/>
<path fill-rule="evenodd" clip-rule="evenodd" d="M451.922 68.9012C451.527 70.9103 451.309 72.7303 451.309 74.3353C451.349 79.3274 453.268 82.0953 458.045 82.1331C458.525 82.1331 459.042 82.0924 459.604 82.0342C465.942 81.3219 470.504 77.8969 472.745 75.3034V75.2976C473.745 74.2364 474.58 72.7129 475.007 70.5788C475.141 69.8578 475.205 69.2821 475.205 68.8227C475.205 68.3837 475.141 68.058 475.054 67.8167C472.405 70.2241 468.559 73.2362 464.29 73.713C464.052 73.7508 463.808 73.7596 463.59 73.7596C461.275 73.7538 460.246 72.2157 460.24 70.0467C460.24 69.4333 460.316 68.7558 460.455 68.0406C460.528 67.7033 460.583 67.3777 460.659 67.0346L460.842 66.8514C466.991 65.9211 478.836 61.2342 480.866 50.8662C481.04 50.0027 481.122 49.2148 481.122 48.4966C481.098 44.7169 478.964 42.8067 475.353 42.7835C474.967 42.7835 474.557 42.8067 474.138 42.8532L474.062 42.8562C463.613 44.0104 454.3 56.844 451.922 68.9012ZM473.568 52.3258C473.141 54.5064 470.751 59.0129 462.604 60.5888L462.34 60.2806C464.945 52.9974 468.637 49.6393 471.358 49.3165L471.425 49.302C471.53 49.2991 471.611 49.2962 471.696 49.2962C473.083 49.2991 473.629 50.5464 473.638 51.6396C473.638 51.8751 473.612 52.099 473.568 52.3258Z" fill="#FEFEFE"/>
<path fill-rule="evenodd" clip-rule="evenodd" d="M499.81 25.1783C499.77 25.1783 499.714 25.1783 499.671 25.19C498.261 25.3441 492.699 26.7397 491.538 27.2048C491.381 27.8619 491.98 26.76 489.433 35.3457C487.262 42.9342 478.278 71.314 475.428 79.9171C479.051 79.4461 482.639 78.0331 483.723 77.3033C484.572 76.591 485.157 75.585 485.517 74.4337C488.916 63.7545 496.502 38.5381 499.639 27.891C499.979 26.7745 500.145 26.0419 500.145 25.6203C500.101 25.19 500.089 25.222 499.81 25.1783Z" fill="#FEFEFE"/>
<path fill-rule="evenodd" clip-rule="evenodd" d="M513.902 23.5912C513.861 23.5912 513.814 23.597 513.762 23.5999C512.349 23.7569 506.79 25.1554 505.624 25.6206C505.47 26.269 506.066 25.1758 503.522 33.7586C501.356 41.3441 492.36 69.7268 489.528 78.3329C493.136 77.8619 496.736 76.4459 497.815 75.722C498.664 75.0009 499.254 73.9949 499.611 72.8494C503.013 62.1674 510.59 36.9539 513.727 26.3068V26.3009C514.067 25.1903 514.23 24.446 514.23 24.0389C514.189 23.597 514.184 23.629 513.902 23.5912Z" fill="#FEFEFE"/>
<path fill-rule="evenodd" clip-rule="evenodd" d="M509.146 76.4207C509.341 76.4207 509.541 76.4119 509.751 76.3858C515.228 75.7781 521.293 70.9663 525.201 65.0816L525.625 65.2764C525.349 66.2824 524.948 67.6401 524.613 68.9776C524.087 71.1349 523.651 73.3998 523.663 74.4174C523.637 74.7634 523.645 74.8158 523.645 74.8216C524.791 74.6907 529.35 73.8418 531.812 72.4927C532.039 70.975 532.763 67.0616 534.101 62.6713V62.6771C536.508 54.5624 540.759 41.0136 542.262 36.9751C540.218 36.6262 537.462 36.1669 534.705 36.1669C533.932 36.1669 533.17 36.2047 532.423 36.2948C526.404 36.9664 521.354 39.2226 516.348 44.4997C510.079 51.0502 506.869 59.4731 505.764 65.0409L505.741 65.1281C505.346 67.1342 505.163 68.8642 505.163 70.315C505.192 74.5803 506.686 76.4119 509.146 76.4207ZM514.847 62.0811C515.612 58.2781 517.609 52.9662 520.758 48.7358V48.7271C524.029 44.5665 526.617 43.4937 529.155 43.2175C529.437 43.1826 529.719 43.1651 529.969 43.1651C530.76 43.1651 531.429 43.3018 531.969 43.4937L532.115 43.7728C531.856 44.7177 531.743 44.9823 531.545 45.6481H531.542C527.096 59.6824 519.717 67.0267 516.388 67.4453L516.316 67.4512C516.249 67.457 516.182 67.457 516.118 67.457C515.103 67.457 514.533 66.5091 514.533 64.8373C514.533 64.0901 514.626 63.1714 514.847 62.0811Z" fill="#FEFEFE"/>
<path fill-rule="evenodd" clip-rule="evenodd" d="M563.451 8.10662H563.933C564.474 8.10662 564.869 7.90891 564.869 7.51059C564.869 7.11227 564.558 6.88549 563.991 6.88549C563.762 6.88549 563.59 6.91165 563.451 6.91165V8.10662ZM563.419 10.7204H562.171V6.14699C562.541 6.08884 563.221 6.00452 564.076 6.00452C565.041 6.00452 565.465 6.14699 565.779 6.3447C566.091 6.5424 566.291 6.88549 566.291 7.33905C566.291 7.82169 565.864 8.22001 565.268 8.39155V8.4497C565.75 8.61833 566.006 8.98758 566.149 9.61268C566.291 10.293 566.407 10.5489 566.489 10.7204H565.096C564.957 10.5489 564.869 10.1535 564.756 9.67083C564.672 9.1882 564.416 8.98758 563.901 8.98758H563.419V10.7204ZM560.523 8.36248C560.523 10.4093 562.058 12.055 564.105 12.055C566.149 12.055 567.652 10.4093 567.652 8.36248C567.652 6.31562 566.149 4.66709 564.105 4.66709C562.058 4.66709 560.523 6.31562 560.523 8.36248ZM569.018 8.3334C569.018 11.0315 566.858 13.1656 564.105 13.1656C561.375 13.1656 559.156 11.0315 559.156 8.3334C559.156 5.69052 561.375 3.56226 564.105 3.56226C566.858 3.56226 569.018 5.69052 569.018 8.3334Z" fill="#1D1D1B"/>
<defs>
<linearGradient id="paint0_linear_2002_393" x1="386.642" y1="8.5293" x2="386.642" y2="151.911" gradientUnits="userSpaceOnUse">
<stop stop-color="#E20714"/>
<stop offset="1" stop-color="#7F030B"/>
</linearGradient>
</defs>
</svg>
