<svg width="23" height="17" viewBox="0 0 23 17" fill="none" xmlns="http://www.w3.org/2000/svg">
<path d="M19.4704 1.41016C18.0041 0.758536 16.4325 0.276901 14.789 0.00303023C14.7744 0.000261217 14.7592 0.00204567 14.7457 0.00813682C14.7321 0.014228 14.7208 0.0243245 14.7133 0.037028C14.5121 0.385505 14.2878 0.839753 14.1307 1.19862C12.3876 0.94197 10.6155 0.94197 8.87245 1.19862C8.6974 0.800902 8.50001 0.413104 8.28118 0.037028C8.27376 0.0241681 8.26254 0.0138432 8.24901 0.00743117C8.23549 0.00101916 8.2203 -0.00117509 8.20547 0.00114137C6.56294 0.275012 4.99132 0.756648 3.52415 1.40922C3.51153 1.41443 3.50083 1.42333 3.49348 1.43471C0.511238 5.75526 -0.306197 9.9691 0.0953328 14.13C0.0964502 14.1402 0.0996601 14.1501 0.104767 14.159C0.109874 14.168 0.116772 14.1758 0.12504 14.182C1.8657 15.4309 3.80717 16.3822 5.86817 16.9962C5.88253 17.0006 5.8979 17.0006 5.91226 16.9962C5.92662 16.9918 5.93931 16.9833 5.94866 16.9717C6.39216 16.3872 6.78517 15.7671 7.12355 15.1179C7.12824 15.109 7.13095 15.0992 7.13148 15.0892C7.13202 15.0792 7.13036 15.0692 7.12664 15.0599C7.12291 15.0506 7.1172 15.0422 7.10989 15.0353C7.10258 15.0283 7.09384 15.023 7.08426 15.0197C6.46519 14.7899 5.86537 14.5127 5.29031 14.1905C5.27997 14.1847 5.27127 14.1764 5.26497 14.1665C5.25867 14.1565 5.25497 14.1452 5.25421 14.1335C5.25345 14.1218 5.25565 14.1101 5.26061 14.0994C5.26557 14.0888 5.27314 14.0795 5.28264 14.0724C5.40339 13.9846 5.52413 13.893 5.63913 13.8014C5.64948 13.7932 5.66195 13.7879 5.67515 13.7863C5.68834 13.7846 5.70175 13.7866 5.71388 13.792C9.47714 15.4578 13.5528 15.4578 17.272 13.792C17.2842 13.7862 17.2977 13.784 17.3111 13.7855C17.3245 13.787 17.3372 13.7922 17.3477 13.8005C17.4627 13.893 17.5825 13.9846 17.7042 14.0724C17.7138 14.0794 17.7215 14.0885 17.7266 14.0991C17.7317 14.1096 17.7341 14.1213 17.7335 14.133C17.733 14.1447 17.7295 14.1561 17.7233 14.1661C17.7172 14.1761 17.7087 14.1845 17.6984 14.1905C17.1254 14.5154 16.5293 14.7902 15.9035 15.0187C15.8939 15.0221 15.8852 15.0276 15.8779 15.0346C15.8705 15.0416 15.8648 15.0501 15.8611 15.0595C15.8574 15.0689 15.8558 15.079 15.8563 15.089C15.8568 15.0991 15.8595 15.1089 15.8643 15.1179C16.2092 15.7667 16.6041 16.3843 17.0382 16.9707C17.0472 16.9828 17.0598 16.9918 17.0742 16.9965C17.0886 17.0012 17.1041 17.0015 17.1187 16.9972C19.1832 16.3849 21.1278 15.4331 22.8704 14.182C22.8789 14.1761 22.8861 14.1686 22.8913 14.1598C22.8966 14.151 22.9 14.1412 22.9011 14.131C23.3802 9.32031 22.098 5.14047 19.5001 1.4366C19.4937 1.42457 19.4832 1.41518 19.4704 1.41016ZM7.68607 11.5963C6.55335 11.5963 5.61901 10.5867 5.61901 9.34864C5.61901 8.10961 6.53515 7.10101 7.68607 7.10101C8.84562 7.10101 9.77134 8.11811 9.75314 9.34864C9.75314 10.5877 8.837 11.5963 7.68607 11.5963ZM15.3286 11.5963C14.1949 11.5963 13.2615 10.5867 13.2615 9.34864C13.2615 8.10961 14.1767 7.10101 15.3286 7.10101C16.4881 7.10101 17.4138 8.11811 17.3956 9.34864C17.3956 10.5877 16.4891 11.5963 15.3286 11.5963Z" fill="url(#paint0_linear_2_289)"/>
<defs>
<linearGradient id="paint0_linear_2_289" x1="0" y1="8.28101" x2="16.669" y2="8.28101" gradientUnits="userSpaceOnUse">
<stop stop-color="#5A54EA"/>
<stop offset="1" stop-color="#01A9F2"/>
</linearGradient>
</defs>
</svg>
