<svg width="23" height="17" viewBox="0 0 23 17" fill="none" xmlns="http://www.w3.org/2000/svg">
<path d="M19.4704 1.40992C18.0041 0.758292 16.4325 0.276657 14.789 0.00278609C14.7744 1.70762e-05 14.7592 0.00180153 14.7457 0.00789268C14.7321 0.0139838 14.7208 0.0240803 14.7133 0.0367839C14.5121 0.385261 14.2878 0.839509 14.1307 1.19837C12.3876 0.941726 10.6155 0.941726 8.87245 1.19837C8.6974 0.800658 8.50001 0.41286 8.28118 0.0367839C8.27376 0.0239239 8.26254 0.013599 8.24901 0.00718703C8.23549 0.000775021 8.2203 -0.00141923 8.20547 0.000897232C6.56294 0.274768 4.99132 0.756403 3.52415 1.40897C3.51153 1.41419 3.50083 1.42309 3.49348 1.43447C0.511238 5.75502 -0.306197 9.96885 0.0953328 14.1298C0.0964502 14.14 0.0996601 14.1499 0.104767 14.1588C0.109874 14.1677 0.116772 14.1755 0.12504 14.1817C1.8657 15.4306 3.80717 16.382 5.86817 16.996C5.88253 17.0004 5.8979 17.0003 5.91226 16.996C5.92662 16.9916 5.93931 16.983 5.94866 16.9714C6.39216 16.3869 6.78517 15.7668 7.12355 15.1176C7.12824 15.1088 7.13095 15.099 7.13148 15.089C7.13202 15.079 7.13036 15.069 7.12664 15.0597C7.12291 15.0504 7.1172 15.042 7.10989 15.035C7.10258 15.0281 7.09384 15.0227 7.08426 15.0194C6.46519 14.7897 5.86537 14.5124 5.29031 14.1902C5.27997 14.1844 5.27127 14.1762 5.26497 14.1662C5.25867 14.1563 5.25497 14.145 5.25421 14.1333C5.25345 14.1216 5.25565 14.1098 5.26061 14.0992C5.26557 14.0885 5.27314 14.0793 5.28264 14.0722C5.40339 13.9844 5.52413 13.8928 5.63913 13.8012C5.64948 13.7929 5.66195 13.7877 5.67515 13.786C5.68834 13.7843 5.70175 13.7863 5.71388 13.7917C9.47714 15.4576 13.5528 15.4576 17.272 13.7917C17.2842 13.786 17.2977 13.7838 17.3111 13.7853C17.3245 13.7868 17.3372 13.7919 17.3477 13.8002C17.4627 13.8928 17.5825 13.9844 17.7042 14.0722C17.7138 14.0791 17.7215 14.0883 17.7266 14.0988C17.7317 14.1094 17.7341 14.121 17.7335 14.1327C17.733 14.1444 17.7295 14.1558 17.7233 14.1658C17.7172 14.1759 17.7087 14.1843 17.6984 14.1902C17.1254 14.5151 16.5293 14.7899 15.9035 15.0185C15.8939 15.0219 15.8852 15.0273 15.8779 15.0344C15.8705 15.0414 15.8648 15.0499 15.8611 15.0593C15.8574 15.0687 15.8558 15.0787 15.8563 15.0888C15.8568 15.0988 15.8595 15.1087 15.8643 15.1176C16.2092 15.7664 16.6041 16.384 17.0382 16.9705C17.0472 16.9825 17.0598 16.9915 17.0742 16.9963C17.0886 17.001 17.1041 17.0012 17.1187 16.9969C19.1832 16.3846 21.1278 15.4328 22.8704 14.1817C22.8789 14.1759 22.8861 14.1683 22.8913 14.1595C22.8966 14.1507 22.9 14.1409 22.9011 14.1307C23.3802 9.32006 22.098 5.14023 19.5001 1.43636C19.4937 1.42432 19.4832 1.41494 19.4704 1.40992ZM7.68607 11.596C6.55335 11.596 5.61901 10.5865 5.61901 9.34839C5.61901 8.10936 6.53515 7.10076 7.68607 7.10076C8.84562 7.10076 9.77134 8.11786 9.75314 9.34839C9.75314 10.5874 8.837 11.596 7.68607 11.596ZM15.3286 11.596C14.1949 11.596 13.2615 10.5865 13.2615 9.34839C13.2615 8.10936 14.1767 7.10076 15.3286 7.10076C16.4881 7.10076 17.4138 8.11786 17.3956 9.34839C17.3956 10.5874 16.4891 11.596 15.3286 11.596Z" fill="#373737"/>
</svg>
