<svg width="20" height="17" viewBox="0 0 20 17" fill="none" xmlns="http://www.w3.org/2000/svg">
<path d="M20 2.01394C19.4431 2.8808 18.7598 3.61974 17.9502 4.23079C17.9582 4.39467 17.9621 4.5799 17.9621 4.78647C17.9621 5.93423 17.8022 7.08338 17.4824 8.23391C17.1626 9.38446 16.674 10.4857 16.0167 11.5377C15.3595 12.5897 14.5765 13.5217 13.668 14.3337C12.7594 15.1457 11.6672 15.7931 10.3915 16.2759C9.11571 16.7588 7.74846 17.0002 6.28969 17.0002C4.01305 17.0002 1.91649 16.3571 0 15.0709C0.340154 15.1105 0.666389 15.1303 0.978708 15.1303C2.88066 15.1303 4.57941 14.5173 6.07495 13.2913C5.18815 13.2743 4.39396 12.9886 3.69237 12.4343C2.99078 11.88 2.50796 11.1718 2.24392 10.3095C2.50491 10.3615 2.7625 10.3876 3.01669 10.3876C3.38258 10.3876 3.7426 10.3376 4.09677 10.2378C3.15039 10.0394 2.36529 9.54619 1.74147 8.75807C1.11767 7.96997 0.805766 7.06034 0.805766 6.02919V5.97604C1.38666 6.3126 2.00627 6.49162 2.6646 6.51311C2.10397 6.12202 1.65948 5.61202 1.33112 4.98313C1.00274 4.35423 0.838551 3.67365 0.838551 2.94139C0.838551 2.16911 1.02349 1.44996 1.39338 0.78396C2.42255 2.10551 3.6696 3.16173 5.13454 3.95262C6.59949 4.74353 8.17111 5.18277 9.8494 5.27036C9.77781 4.9582 9.74196 4.63246 9.74183 4.29311C9.74183 3.10826 10.1425 2.09657 10.944 1.25804C11.7454 0.419509 12.7123 0.000244141 13.8446 0.000244141C15.0301 0.000244141 16.0286 0.451939 16.8403 1.35533C17.7676 1.16313 18.6358 0.815484 19.4451 0.312398C19.1333 1.33908 18.5326 2.1311 17.6428 2.68845C18.4606 2.58677 19.2463 2.36193 20 2.01394H20Z" fill="url(#paint0_linear_2_288)"/>
<defs>
<linearGradient id="paint0_linear_2_288" x1="0" y1="8.28101" x2="14.4948" y2="8.28101" gradientUnits="userSpaceOnUse">
<stop stop-color="#5A54EA"/>
<stop offset="1" stop-color="#01A9F2"/>
</linearGradient>
</defs>
</svg>
