<svg width="20" height="17" viewBox="0 0 20 17" fill="none" xmlns="http://www.w3.org/2000/svg">
<path d="M20 2.0137C19.4431 2.88055 18.7598 3.6195 17.9502 4.23055C17.9582 4.39443 17.9621 4.57965 17.9621 4.78623C17.9621 5.93399 17.8022 7.08313 17.4824 8.23367C17.1626 9.38422 16.674 10.4855 16.0167 11.5375C15.3595 12.5895 14.5765 13.5215 13.668 14.3335C12.7594 15.1454 11.6672 15.7928 10.3915 16.2757C9.11571 16.7586 7.74846 17 6.28969 17C4.01305 17 1.91649 16.3569 0 15.0706C0.340154 15.1102 0.666389 15.13 0.978708 15.13C2.88066 15.13 4.57941 14.517 6.07495 13.291C5.18815 13.274 4.39396 12.9884 3.69237 12.4341C2.99078 11.8798 2.50796 11.1715 2.24392 10.3093C2.50491 10.3613 2.7625 10.3873 3.01669 10.3873C3.38258 10.3873 3.7426 10.3374 4.09677 10.2375C3.15039 10.0392 2.36529 9.54595 1.74147 8.75783C1.11767 7.96972 0.805766 7.06009 0.805766 6.02894V5.9758C1.38666 6.31236 2.00627 6.49138 2.6646 6.51286C2.10397 6.12177 1.65948 5.61178 1.33112 4.98288C1.00274 4.35398 0.838551 3.67341 0.838551 2.94115C0.838551 2.16886 1.02349 1.44972 1.39338 0.783716C2.42255 2.10526 3.6696 3.16148 5.13454 3.95238C6.59949 4.74328 8.17111 5.18253 9.8494 5.27011C9.77781 4.95796 9.74196 4.63221 9.74183 4.29287C9.74183 3.10802 10.1425 2.09632 10.944 1.25779C11.7454 0.419265 12.7123 0 13.8446 0C15.0301 0 16.0286 0.451695 16.8403 1.35509C17.7676 1.16288 18.6358 0.81524 19.4451 0.312154C19.1333 1.33884 18.5326 2.13086 17.6428 2.68821C18.4606 2.58652 19.2463 2.36169 20 2.0137H20Z" fill="#373737"/>
</svg>
