<svg xmlns="http://www.w3.org/2000/svg" xmlns:xlink="http://www.w3.org/1999/xlink" version="1.1" viewBox="0 0 870.445 1000" xml:space="preserve">
    <path fill="none" id="part1" d="M427.844,998.626c-114.102-21.313-220.735-79.684-300.266-164.365  C46.413,747.84,1.106,641.968,0.002,536.147L0,0h870.445l-0.001,536.008c-1.105,105.91-46.414,211.83-127.579,298.253  c-79.533,84.682-186.166,143.054-300.257,164.362L435.22,1000L427.844,998.626z"/>
    <path fill="#5F0041" d="M334.885,359.39c-10.689,2.937-18.128,0.65-19.878,0.028c-0.249-1.246-0.492-2.971-0.484-2.973  c3.424-0.709,6.997-1.567,10.662-2.574c3.523,0.967,6.959,1.798,10.261,2.49C335.453,356.298,335.137,358.238,334.885,359.39   M332.434,321.843c-0.133-0.458-0.268-0.907-0.41-1.346c-1.942-6.04-4.422-8.261-6.894-8.261s-5.053,2.221-6.994,8.261  c-0.177,0.548-0.343,1.118-0.507,1.696C323.65,319.379,329.275,320.644,332.434,321.843 M315.614,362.617  c1.845,0.494,4.829,1.193,8.591,1.193c2.885,0,6.278-0.328,10.081-1.251c-0.341,1.561-1.049,3.931-1.446,5.349  c-8.54,2.377-14.463,0.562-15.741,0.1C316.438,365.969,316.438,366.354,315.614,362.617 M546.011,371.232  c1.451,0.367,4.102,0.737,6.87,0.737c2.239,0,3.895-0.16,6.842-0.868c-0.715,2.049-1.171,3.084-2.06,4.469  c-4.386,1.311-5.515,1.272-9.332,0.056C547.689,374.862,546.658,372.994,546.011,371.232 M318.207,371.232  c1.451,0.367,4.101,0.737,6.87,0.737c2.239,0,3.894-0.16,6.842-0.868c-0.715,2.049-1.171,3.084-2.06,4.469  c-4.386,1.311-5.514,1.272-9.332,0.056C319.886,374.862,318.854,372.994,318.207,371.232 M562.689,359.39  c-10.689,2.937-18.129,0.65-19.879,0.028c-0.248-1.246-0.491-2.971-0.483-2.973c3.424-0.709,6.997-1.567,10.662-2.574  c3.522,0.967,6.959,1.798,10.261,2.49C563.257,356.298,562.941,358.238,562.689,359.39 M543.418,362.617  c1.845,0.494,4.829,1.193,8.591,1.193c2.884,0,6.278-0.328,10.081-1.251c-0.341,1.561-1.049,3.931-1.447,5.349  c-8.538,2.377-14.462,0.562-15.739,0.1C544.243,365.969,544.242,366.354,543.418,362.617 M26.822,26.823l0.001,509.044  c1.034,99.078,43.76,198.527,120.307,280.03c75.658,80.558,177.097,136.088,285.629,156.359l2.462,0.458l2.462-0.458  c108.534-20.271,209.971-75.802,285.631-156.359c76.546-81.503,119.272-180.952,120.308-280.169V26.823H26.822z M816.8,535.588  c-1.979,189.491-169.38,369.063-381.578,409.835C223.021,904.65,55.624,725.079,53.646,535.729V53.646H816.8V535.588z   M196.439,703.595c2.685-0.333,4.791-1.384,5.975-4.39c1.209-3.048,1.296-8.14-6.529-11.246l-16.282-6.469l-11.808,29.821  l16.862,6.698c5.249,2.083,11.632,1.041,13.996-4.932C200.388,708.695,198.737,705.57,196.439,703.595 M189.844,708.566  c-0.913,2.297-2.789,2.177-4.707,1.418l-5.368-2.135l2.199-5.553l5.746,2.278C189.882,705.438,190.536,706.813,189.844,708.566   M193.092,697.438c-0.759,1.917-2.181,1.981-4.094,1.221l-4.829-1.917l1.785-4.512l4.828,1.921  C192.654,694.89,193.691,695.932,193.092,697.438 M211.237,713.484c-1.385,2.976-3.119,6.681,1.225,8.708  c4.224,1.968,5.954-1.737,7.338-4.712l7.397-15.841l8.931,4.166l-8.322,17.838c-3.761,8.063-9.915,9.908-18.767,5.775  c-8.847-4.124-11.428-10.04-7.663-18.103l8.322-17.835l8.931,4.162L211.237,713.484z M233.076,740.752l5.592-9.686l4.536,2.612  c3.373,1.947,2.014,4.846,0.721,7.628c-0.713,1.508-1.393,3.035-1.768,4.68l8.531,4.926c-0.038-1.733,1.83-5.063,2.501-6.493  c1.685-3.641,1.735-7.034-0.075-9.274c3.436,0.584,6.504-1.691,8.164-4.573c3.027-5.25,0.392-10.352-4.461-13.147l-16.248-9.374  l-16.024,27.78L233.076,740.752z M245.288,719.584l3.99,2.305c3.261,1.879,3.649,3.454,2.64,5.2  c-1.439,2.492-3.765,1.512-5.358,0.598l-4.461-2.574L245.288,719.584z M251.28,751.181l20.234-24.907l7.826,6.36l-3.603,19.208  l0.076,0.057l10.827-13.327l7.23,5.882l-20.243,24.908l-7.438-6.053l3.444-19.795l-0.07-0.06l-11.054,13.609L251.28,751.181z   M276.722,772.109l19.638-25.371l7.8,6.035l-14.597,18.871l11.208,8.665l-5.033,6.506L276.722,772.109z M298.361,788.801  l17.97-26.576l21.922,14.833l-0.058,0.086l7.705,4.268l-1.071,12.921l10.59-7.645l9.444,5.238l-19.859,12.164l-5.733,10.33  l-8.623-4.775l5.738-10.335l-0.007-19.481l-2.733,4.038l-13.763-9.306l-2.235,3.312l12.5,8.452l-4.282,6.331l-12.504-8.456  l-2.235,3.313l14.168,9.588l-4.603,6.812L298.361,788.801z M363.153,825.942l10.791-30.231l23.307,8.304l-2.768,7.747l-14.014-4.994  l-1.347,3.769l12.033,4.29l-2.568,7.197l-12.033-4.285l-4.111,11.516L363.153,825.942z M392.764,819.663  c-1.892,9.613,3.127,17.753,12.667,19.636c9.54,1.887,17.278-3.731,19.171-13.344c1.893-9.614-3.127-17.754-12.666-19.64  C402.392,804.432,394.657,810.05,392.764,819.663 M402.438,821.575c1.384-7.009,5.487-7.897,7.946-7.411  c2.461,0.487,5.925,2.865,4.541,9.878c-1.38,7.009-5.482,7.897-7.947,7.411C404.514,830.966,401.057,828.589,402.438,821.575   M442.18,843.238c9.733,0.184,16.355-6.701,16.539-16.502c0.188-9.797-6.183-16.931-15.907-17.113  c-9.725-0.184-16.358,6.706-16.542,16.502C426.09,835.922,432.458,843.055,442.18,843.238 M442.661,817.622  c2.511,0.051,6.332,1.785,6.199,8.93c-0.136,7.146-4.021,8.734-6.532,8.688c-2.506-0.047-6.332-1.784-6.194-8.926  C436.266,819.163,440.155,817.575,442.661,817.622 M458.728,818.762l-1.354-8.102l27.427-4.546l1.351,8.105l-8.848,1.47  l3.928,23.516l-9.734,1.613l-3.923-23.521L458.728,818.762z M513.667,829.856c5.316-1.904,9.423-6.906,7.254-12.955  c-1.597-4.436-4.901-5.687-7.937-5.652c1.802-2.023,2.681-4.204,1.584-7.248c-1.098-3.082-4.398-6.962-12.322-4.119l-16.484,5.903  l10.836,30.192L513.667,829.856z M511.328,819.338c0.832,2.327-0.662,3.484-2.596,4.175l-5.444,1.951l-2.021-5.626l5.82-2.083  C509.282,816.969,510.683,817.567,511.328,819.338 M502.511,807.898c1.888-0.68,3.353-0.585,3.898,0.938  c0.696,1.947-0.32,2.933-2.264,3.629l-4.893,1.754l-1.635-4.566L502.511,807.898z M532.978,821.46l-0.871-4.721l8.996-4.738  l3.321,3.423l9.039-4.759l-25.258-22.953l-8.521,4.49l4.533,33.872L532.978,821.46z M529.008,799.425l7.146,7.41l-5.35,2.818  l-1.874-10.186L529.008,799.425z M555.004,809.388l-17.734-26.764l8.223-5.451l13.188,19.9l11.806-7.824l4.538,6.854  L555.004,809.388z M577.512,794.248l-19.264-25.651l7.882-5.92l14.32,19.072l11.31-8.503l4.944,6.573L577.512,794.248z   M620.856,761.622c-8.116,6.44-17.262,4.362-23.166-3.052c-6.284-7.91-5.47-17.105,2.25-23.239  c6.908-5.429,13.572-4.823,19.242,0.938l-7.51,5.97c-0.867-0.804-3.774-3.023-6.964-0.488c-3.616,2.873-1.976,7.308,0.704,10.68  c2.686,3.377,6.636,5.974,10.252,3.104c2.595-2.066,2.16-4.704,0.742-7.419l7.579-6.023  C628.012,747.156,628.188,755.795,620.856,761.622 M633.19,750.725l-19.447-25.515l7.834-5.976l14.461,18.974l11.255-8.588  l4.982,6.539L633.19,750.725z M665.849,728.386c-8.382,5.003-14.727,3.817-19.286-3.819l-10.084-16.9l8.458-5.05l8.957,15.009  c1.682,2.813,3.783,6.326,7.894,3.872c4.001-2.391,1.905-5.9,0.228-8.717l-8.958-15.009l8.458-5.054l10.093,16.903  C676.163,717.262,674.233,723.379,665.849,728.386 M696.35,713.681c5.319-1.913,9.418-6.924,7.249-12.968  c-1.593-4.439-4.896-5.686-7.928-5.647c1.793-2.027,2.676-4.209,1.584-7.252c-1.106-3.088-4.402-6.963-12.327-4.111l-16.488,5.934  l10.836,30.188L696.35,713.681z M694.005,703.163c0.837,2.322-0.653,3.479-2.596,4.179l-5.435,1.955l-2.02-5.622l5.814-2.091  C691.965,700.794,693.365,701.383,694.005,703.163 M685.185,691.727c1.904-0.683,3.36-0.589,3.911,0.936  c0.695,1.941-0.334,2.932-2.267,3.633l-4.89,1.758l-1.639-4.566L685.185,691.727z M744.83,642.605  c-0.51-0.617-1.127-1.209-1.822-1.782c-0.188-0.166-0.298-0.257-0.298-0.257c17.646-30.557,12.498-59.47,12.238-60.853l-0.078,0.008  c-0.347-2.35-1.678-7.656-6.78-12.131c-6.682-5.86-17.144-8.088-31.091-6.634c-15.33,1.604-26.196,7.119-30.757,15.376  c-0.018,0.031-0.036,0.062-0.053,0.092c-0.139,0.241-0.298,0.558-0.454,0.868c-1.233,2.447-2.844,6.971-2.116,13.222  c0.559,4.805,2.241,10.687,3.732,15.247c-8.612,1.053-17.008,2.592-24.518,5.401c-7.444,2.783-11.794,6.592-12.931,11.318  c-0.347,1.433-0.352,2.794-0.163,4.034h-0.09c-0.02,0.267-1.554,25.101,1.145,48.846c-37.005,16.193-57.912,36.4-58.166,36.654  c-81.001,74.966-145.446,77.244-152.904,77.244h-0.072l-0.702,0.002c-0.602-0.009-68.127,0.887-152.887-77.557  c-0.294-0.253-20.446-17.382-55.519-33.354c3.246-24.686,1.639-54.747,1.294-56.18c-1.137-4.726-5.49-8.535-12.933-11.319  c-7.51-2.811-15.904-4.35-24.516-5.401c1.491-4.563,3.173-10.443,3.731-15.245c0.727-6.238-0.876-10.759-2.109-13.21  c-0.163-0.325-0.328-0.653-0.472-0.903c-0.01-0.017-0.02-0.033-0.03-0.052c-4.555-8.268-15.427-13.791-30.77-15.395  c-13.944-1.456-24.404,0.772-31.088,6.632c-5.083,4.458-6.423,9.743-6.777,12.105l-0.075-0.007  c-0.261,1.313-5.276,28.397,14.465,59.372c0,0-0.396,0.203-1.052,0.66c-0.264,0.184-0.582,0.426-0.922,0.697  c-0.898,0.681-1.702,1.383-2.321,2.13c-1.938,2.033-4.191,5.066-6.003,9.414c-4.26,9.187-6.259,29.144,11.683,71.077l0.535,1.244  l1.307,0.354c0.507,0.138,51.324,14.163,105.037,56.056c38.174,29.776,83.61,61.956,132.386,76.295l3.813,1.178  c6.638,1.8,13.499,3.275,20.375,4.38l4.715,0.706l0.271,0.033c0.847,0.116,1.696,0.228,2.702,0.351  c0.799,0.096,1.602,0.191,2.39,0.274c7.566,0.834,15.263,1.251,22.988,1.251c3.949,0,7.906-0.109,11.854-0.327  c10.164-0.417,20.586-1.76,30.949-3.981c7.519-1.548,12.816-3.107,15.25-3.879c44.788-13.196,91.72-40.239,132.15-76.149  c53.257-47.305,104.1-55.8,104.606-55.881l1.615-0.256l0.57-1.532c14.489-39.029,16.413-59.042,14.407-69.29  C750.17,649.01,747.019,644.934,744.83,642.605 M691.583,578.263c3.922-6.193,13.074-10.396,25.997-11.748  c2.515-0.262,4.903-0.393,7.162-0.393c8.596,0,15.282,1.892,19.56,5.581c4.202,3.623,4.943,7.872,5.073,9.062  c-0.015,0.817-0.06,1.609-0.145,2.366c-0.026,0.239-0.058,0.475-0.088,0.71c-1.529,10.611-10.128,15.164-24.121,17.732  l-4.038-18.816l-2.859,0.797c-21.266,5.93-26.046,2.445-27.002,1.233c-1.767-2.224,0.473-6.456,0.497-6.5L691.583,578.263z   M690.756,591.139c5.222,2.182,13.79,1.724,26.003-1.431l2.735,12.75c-4.784,0.666-10.057,1.197-15.807,1.7  c-0.229,0.02-0.443,0.041-0.674,0.061c-1.165,0.102-2.336,0.205-3.506,0.31c-1.425,0.126-2.849,0.26-4.274,0.396  c-0.733,0.07-1.467,0.138-2.198,0.211c-0.287-0.854-0.585-1.78-0.885-2.736c-0.617-1.963-1.229-4.081-1.754-6.192  c-0.495-1.998-0.916-3.979-1.158-5.78C689.697,590.701,690.228,590.919,690.756,591.139 M655.342,623.754  c0.688-2.757,3.954-5.303,9.448-7.356c7.334-2.742,15.759-4.209,24.44-5.224c0.952-0.11,1.906-0.216,2.863-0.316  c3.281-0.348,6.58-0.648,9.865-0.935c0.161-0.014,0.322-0.028,0.483-0.043c0.352-0.029,0.706-0.062,1.056-0.092  c0.769-0.067,1.538-0.135,2.308-0.202c1.199-0.104,2.396-0.214,3.594-0.325c5.776-0.535,11.479-1.176,16.805-2.175  c4.586-0.859,8.889-1.989,12.695-3.566c2.736-1.136,5.222-2.495,7.372-4.154c1.423-1.098,2.702-2.322,3.813-3.696  c-0.05,1.031-0.127,2.117-0.218,3.229c-0.87,10.543-3.805,24.526-11.995,38.819c-2.007-0.912-4.322-1.758-7.025-2.524  c-8.436-2.397-22.906-2.864-36.898-3.316c-10.089-0.325-20.523-0.662-28.11-1.72c-6.885-0.961-9.298-2.221-10.146-2.953  C655.293,626.226,655.029,625.012,655.342,623.754 M654.924,634.147c0.009-0.323,0.019-0.661,0.028-0.967  c4.278,1.871,11.036,2.835,19.839,3.437c3.961,0.271,8.338,0.47,13.093,0.644c1.906,0.069,3.861,0.137,5.885,0.201  c13.654,0.441,27.775,0.897,35.551,3.104c2.277,0.646,4.099,1.301,5.59,1.938c0.987,0.422,1.833,0.84,2.538,1.236  c2.9,1.625,2.771,2.714,2.771,2.714c0.118,1.379-1.268,3.033-4.626,4.763c-1.784,0.919-4.136,1.859-7.127,2.792  c-4.801,1.499-11.228,2.979-19.667,4.316c-19.831,3.142-37.454,8.556-52.629,14.764C654.587,658.065,654.676,642.83,654.924,634.147   M192.501,590.114c-0.241,1.802-0.662,3.783-1.159,5.782c-0.524,2.109-1.135,4.228-1.751,6.19c-0.3,0.955-0.598,1.882-0.885,2.736  c-0.732-0.074-1.465-0.142-2.198-0.211c-1.426-0.136-2.85-0.271-4.275-0.396c-1.17-0.104-2.342-0.208-3.508-0.309  c-0.23-0.021-0.444-0.041-0.673-0.062c-5.748-0.503-11.021-1.032-15.806-1.698l2.734-12.752c12.215,3.152,20.784,3.611,26.005,1.431  C191.512,590.606,192.043,590.388,192.501,590.114 M137.439,571.389c5.402-4.653,14.638-6.445,26.72-5.186  c12.929,1.351,22.084,5.559,26.004,11.758l-0.037,0.025c0.491,0.879,2.017,4.551,0.5,6.48c-0.956,1.215-5.726,4.714-27.011-1.225  l-2.859-0.797l-4.036,18.816c-14.008-2.569-22.611-7.128-24.128-17.763c-0.031-0.248-0.059-0.498-0.085-0.748  c-0.08-0.737-0.126-1.504-0.141-2.298C132.496,579.263,133.237,575.013,137.439,571.389 M132.486,599.55  c-0.18-1.289-0.335-2.546-0.446-3.729c1.007,1.175,2.156,2.224,3.4,3.188c2.197,1.703,4.727,3.11,7.537,4.265  c3.772,1.548,8.03,2.654,12.56,3.505c5.324,0.999,11.028,1.637,16.804,2.172c1.197,0.111,2.395,0.22,3.595,0.325  c0.769,0.066,1.538,0.135,2.307,0.201c0.348,0.03,0.7,0.062,1.049,0.093l0.43,0.094c0.02-0.017,0.042-0.034,0.062-0.051  c3.284,0.286,6.582,0.588,9.863,0.935c0.956,0.102,1.911,0.205,2.863,0.317c8.68,1.014,17.105,2.479,24.438,5.222  c5.496,2.056,8.764,4.6,9.449,7.359c0.314,1.259,0.05,2.47-0.348,3.448c-0.851,0.732-3.264,1.99-10.142,2.951  c-7.588,1.059-18.021,1.396-28.111,1.723c-13.992,0.452-28.462,0.919-36.901,3.315c-1.636,0.464-3.096,0.965-4.476,1.481  C137.568,622.596,133.882,609.569,132.486,599.55 M141.143,647.079l0.083-1.239c0.54-0.673,1.49-1.521,3.148-2.452  c0.712-0.4,1.566-0.815,2.566-1.238c0.799-0.339,1.7-0.682,2.711-1.025c0.85-0.29,1.755-0.58,2.771-0.868  c7.777-2.209,21.898-2.665,35.554-3.105c3.006-0.098,5.87-0.197,8.61-0.308c4.477-0.18,8.599-0.391,12.313-0.68  c7.856-0.61,13.932-1.563,17.89-3.294c0.01,0.309,0.019,0.652,0.028,0.98c0.265,9.302,0.348,26.109-1.61,42.132  c-15.762-6.82-34.238-13.262-55.076-17.869c-5.821-1.288-10.457-2.494-14.176-3.605c-1.315-0.392-2.517-0.772-3.609-1.14  C141.167,649.606,141.133,647.215,141.143,647.079 M731.476,719.404c-9.368,1.812-56.005,12.687-105.815,56.929  c-39.828,35.375-86.002,61.999-130.076,74.983c-2.384,0.757-7.47,2.253-14.761,3.752c-10.078,2.164-20.183,3.465-30.071,3.871  c-11.401,0.633-22.832,0.326-33.974-0.898c-0.768-0.08-1.539-0.172-2.464-0.286c-0.827-0.1-1.65-0.207-2.475-0.317l-0.249-0.035  l-4.586-0.687c-5.348-0.856-10.675-1.944-15.887-3.236l-0.06-0.016l-3.804-1.083c-49.291-13.477-95.543-46.187-134.289-76.405  c-49.789-38.835-97.246-54.14-105.694-56.663c-17.891-42.311-14.114-59.859-10.497-66.434c0.225-0.409,0.449-0.778,0.668-1.105  c0.975,1.058,2.421,2.147,4.487,3.272c1.353,0.737,2.969,1.488,4.914,2.257c4.983,1.971,12.065,4.051,22.084,6.267  c12.676,2.803,24.449,6.298,35.258,10.136c4.314,1.532,8.479,3.115,12.475,4.736c3.565,1.445,6.997,2.919,10.301,4.403  c35.032,15.748,55.14,32.819,55.381,33.025c86.493,80.054,153.95,79.074,156.688,78.978h0.618h0.075  c7.695,0,74.146-2.324,156.763-78.789c0.284-0.281,19.991-19.332,55.052-34.945c0.872-0.389,1.767-0.772,2.659-1.155  c3.017-1.3,6.136-2.569,9.365-3.799c13.569-5.163,28.987-9.601,46.11-12.315c11.797-1.869,19.815-3.978,25.256-6.17  c1.972-0.794,3.604-1.598,4.947-2.406c2.109-1.271,3.531-2.55,4.438-3.81c0.215,0.526,0.41,1.142,0.586,1.833  C746.885,661.134,745.938,680.042,731.476,719.404 M434.625,651.981c0,0-5.316,8.082-3.146,14.917c0,0-5.663,2.099-10.546-1.819  c-12.67-10.169-11.693-1.707-8.764,1.71c0.525,0.613,7.32,12.733,5.996,19.354c0,0-4.369-8.613-7.944-3.731  c-1.422,1.942,0.602,6.379,0.602,7.342s0.842,3.732-1.324,6.019c0,0-4.454-4.333-5.296-3.249c-0.843,1.083-2.047,3.972-1.204,7.101  c0,0-4.401-3.446-4.935-1.083c-1.625,7.195-8.894,4.428-8.894,4.428s-3.688-2.386-7.115,2.313c0,0,0-6.019,4.575-7.342  c0,0-5.379-3.54-11.195,1.564c0,0,1.324-6.741,7.463-7.222c0,0-3.129-3.009-8.546,1.083c0,0,0.134-5.948,11.555-4.814  c14.383,1.428,17.23-7.767,16.254-12.078c-1.615-7.132-9.995-39.679,15.763-34.743c0,0,7.703,2.406,11.314,1.685  c0,0,3.76-0.545,3.19-2.457C432.121,639.925,438.368,645.553,434.625,651.981 M418.151,580.755c0,0,2.334,2.672-0.104,6.969  c0,0,6.899,1.573,10.53-1.938c0,0-1.712,4.454,1.09,9.694c0,0,5.291-2.777,6.536-6.708c0,0,2.127,0.577,4.149,4.56  c2.023,3.982,3.795,4.812,3.795,4.812s0.166-5.653,3.935-7.065c0,0,4.979,6.079,10.944,3.773c0,0-10.736-5.659-0.154-8.384  c0,0-7.353-2.219-7.04-5.677c0,0-4.217,6.306-12.776,4.733c0,0,2.211-2.884,1.39-6.583c0,0-7.251,4.12-12.958,1.447  c0,0-0.279-6.503,4.325-8.642c0,0-9.619-0.903-12.314,2.038c0,0-1.572-4.286,0.937-7.423c0,0-8.679,3.167-11.376,17.264  C409.06,583.625,415.454,584.213,418.151,580.755 M360.118,615.538c0,0-8.109,6.671-1.521,13.479c0,0,0.526-8.723,6.154-6.258  c0,0-9.011,6.352-0.015,11.804c0,0-0.332-8.708,6.228-7.101c4.345,1.064,7.057-4.345,7.057-4.345s4.854-2.905,7.381,1.454  c2.787,4.807,7.14,5.371,7.772,6.066c0,0-3.222-4.296,0-5.813c0,0,4.43,4.515,8.278,4.929c0,0-4.04-4.527-0.127-5.37  c0,0,2.086-0.063,2.717,2.274c0.741,2.74,7.661,3.818,8.404,3.854c0,0-4.205-3.263-1.657-7.132c0.081-0.123,0.159-0.248,0.234-0.373  c2.428-3.519,4.93-2.416,4.93-2.416c8.873-2.628,8.489-11.523,8.228-13.847c0.297,0.144,1.041,0.547,1.295,1.111  c1.22,2.714,2.044,10.115-8.313,15.959c0,0,0.667,8.424,14.087,14.221c0,0-1.933-10.843,6.334,4.616c0,0,2.791,5.583-0.323,11.595  c-3.113,6.013-6.226,15.675,4.939,22.545s18.25,14.493,12.99,34.677c0,0-3.65,7.191-10.307,5.045  c-6.656-2.147-9.825-4.703-15.846,3.107c0,0,6.77-3.313,10.957,1.41c0,0-8.423-2.371-11.322,8.043c0,0,7.944-4.616,11.81-1.396  c0,0-4.938,1.396-4.616,7.301c0,0,4.399-3.696,8.306-2.015c5.939,2.557,7.153-1.422,9.086-4.213s5.729,1.32,11.526-0.289  c0,0-8.191-6.185-3.472-9.33c2.717-1.812,8.19,1.898,10.849-0.977c0,0-10.306-3.905-5.533-10.957  c2.068-3.055,6.67,0.812,8.677-1.357c0,0-7.257-2.113-5.943-8.975c0.813-4.25,2.146-3.328,3.435-2.684  c1.289,0.644,3.973,1.181,5.583,0.107c0,0-2.813-0.554-3.35-3.882c-0.536-3.328-0.275-8.358-4.041-10.931  c-2.449-1.672-4.042-1.745-4.097-7.732c-0.062-6.823,2.899-7.837,4.724-7.944c1.826-0.107,5.865-0.46,8.481-2.361  c0,0,15.459-9.448,7.085-28.665c-8.374-19.216-12.445-20.388-11.265-35.633s4.816-22.354,8.299-27.826  c2.563-4.028,7.797-6.859,11.34-7.503c0,0,8.804-1.933,7.407,8.588c0,0,0.215,2.792-5.26,7.301c-5.476,4.509-6.871,9.34-6.871,9.34  s5.69-4.187,7.086-2.898s0.537,3.113-1.718,5.582c-2.255,2.47-5.153,8.052-4.509,12.991c0,0,2.04-2.792,3.864-2.792  c0,0-1.088,9.3,4.404,12.962c0,0-1.975-10.696,2.197-16.599c2.909-4.116,10.146-17.728,6.066-27.175c0,0-0.106-12.239-7.729-13.527  c0,0,1.396,2.147,0.537,1.825c-0.859-0.321-23.894-2.252-29.02,34.85c-0.279,2.026-0.933,7.02-0.933,7.02s-0.41,9.456-6.228,2.362  c0,0-0.644,7.408,6.764,12.561c7.408,5.153-7.085,4.51-9.984-0.321c0,0-0.106,6.012,7.408,9.231  c7.515,3.221,6.549,7.301-5.904,4.295c0,0,3.65,5.476,13.741,5.476s10.821,15.303,7.086,18.894  c-4.994,4.801-8.052,4.08-10.844,3.543c-2.791-0.536-4.375,0.187-4.375,0.187s-5.61-5.576-6.78-11.269  c-0.807-3.929-9.027-11.033-9.027-11.033s-4.616-5.797-3.007-17.392c1.611-11.594,2.362-15.03,1.934-17.284  c0,0-2.884-0.514-3.973-2.362c0,0-2.04,4.725-1.718,7.622c0,0-6.012-1.288-8.052-6.012c-2.04-4.723-3.542-3.435-3.542-3.435  s-3.328,4.938-7.623,5.797c0,0-1.907-0.754-1.825-5.474c0.024-1.354,0.004-2.293-0.046-2.936c0.209-0.484,0.292-1.021,0.212-1.617  c0,0-6.5,1.545-10.794,0.257c0,0,1.074-3.113,0.215-4.509c0,0-3.221,1.717-9.018,0.751c0,0-1.289-5.475,3.864-13.634  c0,0,0.43-2.469-2.254-7.408c-2.684-4.938-7.554-15.337-3.484-22.391c2.709-4.695,1.574-10.875-2.076-13.451  c-3.65-2.577-6.049-2.618-11.433-0.45c0,0,7.19-0.688,7.19,5.325c0,0-7.674-7.674-13.813,0.271c0,0,8.699-0.954,6.999,5.981  c0,0-6.512-8.804-12.686,1.602c0,0,9.071-1.382,8.537,6.45c-0.354,5.188,6.38,7.216,6.38,7.216s2.024,15.163-6.887,14.948  c0,0,5.062,3.41,7.639,3.088c0,0,0.68,6.11-4.402,6.656c0,0,2.705,3.174,6.871,2.684c0,0,0.495,1.729-1.84,3.178  c-2.804,1.738-2.892,6.303-2.785,7.162c0,0,2.692-2.288,7.631-0.141c4.938,2.147,10.735,0.429,11.594-0.107  c0,0,1.438-0.707,2.221-0.479c-0.347,0.484-1.228,1.708-2.411,3.313c-0.001-0.001-0.002-0.002-0.003-0.003  c0,0-0.005,0.01-0.013,0.025c-1.741,2.362-4.129,5.54-6.421,8.391c-6.416,6.283-17.692,12.659-34.107,5.528  c-4.23-1.838-11.147-2.199-13.869,0.517c-2.722,2.713-3.842,6.476-1.259,10.487C354.882,621.371,355.022,614.651,360.118,615.538   M436.82,570.355c0,0-2.266-3.845-14.371-1.189c2.435-8.523,9.721-12.51,21.011-13.838c11.289-1.327,8.521-9.518,8.521-9.518  s-2.323,0.332-3.21,3.542c-0.885,3.209-6.623,3.561-8.395,2.122c-1.771-1.439-1.676-1.68-1.676-1.68  c7.524-0.442,5.312-5.977,4.979-9.407c-0.332-3.432-1.771-4.317-1.771-4.317s-3.432,1.439-8.522,1.882  c-5.092,0.442-4.173-3.802-3.84-5.02c0.332-1.217-0.327-3.218,0.448-3.328c0.655-0.094,5.474-3.238,8.687-2.336  c0.434-1.157,1.785-3.315,5.994-5.143c5.034-2.188,11.116,0.501,11.116,0.501s2.677,1.223,6.261-1.165  c7.181-4.788,12.174-2.325,12.174-2.325c-4.87,3.32-2.877,9.961,0.887,14.389c3.763,4.427-0.106,9.126-1.271,11.787  c-10.631,24.273,2.604,18.795,2.604,18.795c0.915,1.234-3.055,8.521-10.551,4.084c-0.417,1.527,0.691,5.14,6.861,5.191  c0,0-6.768,5.8-11.217,1.259c-0.062,0.152-0.119,0.311-0.174,0.477c-1.682,5.1,6.012,8.448,6.012,8.448  c-11.866,0.811-13.03-7.011-13.14-8.258c-0.046,0.008-0.094,0.018-0.143,0.031c-3.435,5.134-7.14,6.332-8.837,6.606  c-0.402,0.095-0.827,0.171-1.277,0.232c0,0,0.001-0.003,0.003-0.007c-0.025,0.005-0.039,0.007-0.039,0.007s0.028-0.033,0.08-0.095  c0.385-0.843,3.074-7.112-1.439-8.465c0,0-2.166,3.857-10.24,4.213C432.348,577.832,431.816,572.677,436.82,570.355   M447.995,530.051c2.603-1.745,5.537-2.392,5.537-2.392c-6.088-4.206-10.35-3.048-13.102,0.729  c-0.002,0.003-0.003,0.005-0.005,0.007C443.271,531.322,445.537,531.698,447.995,530.051 M322.862,449.961l-19.222-31.752  l-19.221,32.048l19.559,36.288L322.862,449.961z M594.761,449.961l-19.222-31.752l-19.221,32.048l19.559,36.288L594.761,449.961z   M436.07,766.296C325.566,744.459,238.193,645.207,237.158,540.34V280.43h95.371c-6.109-2.342-10.455-8.247-10.455-15.18v-0.001  c0-8.985,7.285-16.269,16.27-16.269h22.946c2.859-0.142,10.541-1.406,9.077-11.024l12.85,6.711  c4.473-0.179,13.775-5.446,13.541-14.003l19.3,12.904c1.37-0.846,4.817-4.025,5.779-14.908c0,0,8.541,10.354,11.564,11.79  l8.238-10.959l1.738,8.692l3.365-2.59c3.554-7.591,9.017-20.652,6.822-25.042c0,0-2.973,9.493-11.123,5.849  c-7.31-3.268-17.45-10.909-21.061-11.902c-0.294,5.935-6.127,12.131-14.565,14.814c-2.707,0.864-5.46,1.292-8.073,1.292  c-3.184,0-6.16-0.636-8.594-1.895c-2.671-1.381-4.494-3.414-5.276-5.877c-2.141-6.753,4.226-14.823,14.189-17.993  c5.445-1.732,11.049-1.693,15.351,0.03c1.411-0.035,3.102,0.192,5.112,0.916c7.191,2.589,10.26,8.246,20.52,7.383  c0,0,1.821,0.575,0.095-2.685c-1.217-2.3-3.202-6.978-5.98-10.044c-5.435-2.255-14.042-8.658-15.748-22.309  c-1.467-11.716,2.023-17.153,6.854-24.678c1.838-2.863,3.92-6.107,5.942-10.098c2.353-4.64,2.881-8.668,1.574-11.974  c-0.698-1.763-1.829-3.045-2.924-3.97c-2.066-1.509-7.285-4.255-15.089-2.566c-0.491,1.645-0.409,3.149,0.294,4.472  c4.545,8.562,0.21,15.025-1.109,16.165c-0.133,0.116-0.48,0.422-0.788,0.205c-0.124-0.093-0.242-0.281-0.08-0.656  c0.532-1.242-0.371-6.404-0.893-8.922c-0.729,0.752-2.214,2.524-2.84,5.027c-1.264,5.04-6.998,9.228-7.241,9.404l-0.556,0.401  l0.026-0.685c0.26-7.041,3.069-15.553,6.68-20.24c0.895-1.161,1.571-2.482,2.083-3.815c-0.65,0.258-1.312,0.542-1.99,0.863  c0,0,0.853-0.977,2.517-2.436c1.038-3.508,1.063-6.686,1.063-6.734c0.125-20.946,15.206-24.573,15.357-24.608l0.345-0.078  l0.059,0.348c1.15,6.713-0.278,11.118-1.267,13.195c6.484-4.262,16.322-4.737,16.766-4.757l0.083,0.664  c-2.683,0.553-18.057,8.585-25.189,16.754c1.963-1.177,4.206-2.36,6.749-3.441c8.412-5.647,15.731-4.46,16.054-4.401  c4.486,0.799,8.093,3.446,10.15,7.453c2.58,5.018,2.32,11.549-0.716,17.918c-5.518,11.581-4.208,20.824-4.098,21.523  c0.135,0.024,0.316,0.06,0.5,0.096c4.816,0.267,9.537,1.938,13.829,4.159c4.845,2.473,9.255,5.767,13.157,9.537  c3.902,3.824,7.332,7.869,10.984,11.788c1.813,1.959,3.37,4.211,5.481,5.812c6.183,4.683,9.373,3.525,9.373,3.525l-2.874,1.354  c-0.881,0.417-1.749,0.654-2.659,0.82c-0.904,0.156-1.77,0.172-2.678,0.074c-0.855-0.08-3.769-1.091-1.06,0.014  c0.977,0.395,1.974,0.743,2.979,1.069l3.842,1.238c1.263,0.483,2.595,0.838,3.701,1.923c0.264,0.282,0.486,0.708,0.461,1.17  c-0.021,0.457-0.234,0.829-0.459,1.13c-0.466,0.598-1.035,1.017-1.607,1.406c-0.58,0.385-1.163,0.719-1.783,1.042  c-0.749,0.363-1.506,0.339-2.207,0.283c-0.511-0.083-1.641-0.513-2.132-0.643c0.277,1.345-1.422,1.317-2.519,1.216  c-1.331-0.112-2.582-0.548-3.795-1.014c-0.498-0.229-2.011-1.112-2.494-1.367l2.172,2.421l-0.875-0.052  c-0.672-0.044-1.476,0.048-2.352,0.222c-1.362,0.397-3.188,0.952-5.139,1.604c-4.142,1.626-8.131,3.764-8.731,4.091  c0.181,1.509,0.907,6.201,3.424,11.708c0,0-1.645,0.885-6.768,5.314c-2.745,2.372-5.69,7.302-7.984,11.716l4.561,8.82l19.575-6.576  c0,0,11.109,17.988,22.296,6.274c0,0,1.999,9.211,11.318,10.343h23.154c8.986,0,16.269,7.284,16.269,16.269v0.001  c0,6.933-4.345,12.838-10.454,15.18h93.048v259.838c-1.034,104.939-88.407,204.191-198.912,226.028l-1.399,0.274L436.07,766.296   M524.212,255.623c-2.617,0.677,6.992,5.386,6.992,5.386s6.63,2.979,8.071,9.321c0.552,2.429,6.815-2.281,7.348-7.253  c0.25-2.345-0.768-4.748-4.272-6.488c0,0-6.759-3.627-17.363-1.142C524.728,255.508,524.477,255.555,524.212,255.623   M540.088,324.991c-19.01-3.78-33.542-3.24-35.047,1.971c-0.766,2.651,4.039,5.94,10.428,9.542c2.414,1.361,5.055,2.766,7.707,4.199  c0.042,0.023,0.043,0.084,0,0.107c-9.669,5.228-19.189,10.738-18.135,14.391c1.463,5.066,15.237,5.718,33.47,2.278  c0.035-0.007,0.066,0.006,0.07,0.04c0.133,1.063,0.809,5.337,0.823,5.414c-0.493,0.939-0.779,1.485-0.803,1.529  c-0.05,0.093-5.058,9.275-8.591,13.201c-0.889,0.999-0.452,1.712-0.298,1.906c0.24,0.303,0.539,0.446,0.936,0.446  c0.735,0,1.804-0.498,3.447-1.394c1.171-0.639,3.371-3.901,6.557-9.425c0.054-0.093,0.195-0.079,0.226,0.024  c2.741,9.503,7.064,15.111,11.978,15.111c4.264,0,8.142-4.214,10.922-11.867c0.463-1.277,0.888-2.63,1.276-4.044  c3.427,5.993,5.776,9.532,7,10.201c1.646,0.896,2.714,1.394,3.449,1.394c0.396,0,0.694-0.143,0.935-0.446  c0.155-0.194,0.591-0.907-0.302-1.91c-3.528-3.922-8.537-13.104-8.58-13.184c-0.015-0.029-1.133-1.995-1.133-1.995  s0.125-0.893,0.133-0.938l0.693-4.076c0.006-0.033,0.038-0.055,0.072-0.049c18.39,3.508,32.317,2.879,33.788-2.216  c1.056-3.653-9.359-8.712-19.034-13.936c-0.043-0.024-0.043-0.085,0-0.108c9.675-5.227,20.09-10.542,19.034-14.195  c-1.496-5.181-15.875-5.745-34.729-2.034c-0.547-0.733-0.621-0.833-1.167-1.566c3.663-6.794,6.634-12.045,8.152-13.992  c0.325-0.417,0.676-0.852,1.02-1.277c1.964-2.435,2.778-3.442,2.008-4.353c-0.718-0.849-1.91-0.18-2.7,0.265  c-0.188,0.105-3.977,2.3-8.708,10.737c-0.41,0.729-0.954,1.721-1.604,2.916c-2.747-6.992-6.462-10.827-10.526-10.827  c-3.973,0-7.612,3.665-10.339,10.362c-0.538-0.987-0.996-1.819-1.351-2.451c-4.733-8.437-8.52-10.632-8.709-10.737  c-0.79-0.445-1.982-1.114-2.7-0.265c-0.77,0.911,0.043,1.918,2.008,4.353c0.345,0.425,0.695,0.86,1.021,1.277  c1.476,1.894,4.328,6.916,7.854,13.442C540.446,323.522,540.264,324.25,540.088,324.991 M432.805,107.21  c6.305,4.934,9.093-0.067,9.093-0.067C435.327,103.696,432.805,107.21,432.805,107.21 M436.264,154.827  c-5.873,23.992,17.053,31.945,22.622,31.507c0.819,0.587,1.7,1.093,2.661,1.428c1.385,0.43,2.852,0.675,4.284,0.479  c0.949-0.077,1.868-0.339,2.728-0.73c0.612,0.241,1.276,0.38,1.95,0.379c1.283-0.043,2.495-0.49,3.41-1.222  c0.469-0.345,0.834-0.803,1.205-1.217c0.3-0.49,0.593-0.966,0.789-1.504c-0.579,0.148-1.061,0.357-1.534,0.553l-1.384,0.486  c-0.895,0.271-1.708,0.444-2.494,0.447c-1.573,0.065-3.168-0.684-5.152-1.777c0.151,0.981,0.654,1.855,1.354,2.581  c-0.26-0.048-0.53-0.087-0.785-0.145c-1.213-0.236-2.364-0.551-3.484-0.939c-2.28-0.73-4.372-1.83-6.854-3.176  c0.244,0.928,0.716,1.758,1.301,2.502c-0.45-0.215-20.854-7.947-20.612-29.651L436.264,154.827 M445.785,249.104  c-2.471,0.881-6.078,2.143-1.46,4.752c4.617,2.61,12.414,5.279,20.602,14.193c5.369,5.845,16.04,8.334,11.902,0  c0,0-1.635-4.561,6.024-3.974c0,0,6.623-0.287,15.092,6.32c1.236,0.965,2.268,1.645,3.128,2.1c0.045,0.038,0.07,0.059,0.07,0.059  c8.375,3.995,13.13-2.069,10.479-2.639c-3.463-0.744-7.34-3.965-9.806-6.326c-0.683-0.801-1.509-1.67-2.506-2.585  c-0.007-0.009-0.015-0.017-0.015-0.017l-0.001,0.001c-3.008-2.757-7.567-5.927-14.425-8.891  C484.87,252.097,463.27,242.869,445.785,249.104 M448.881,372.329c-0.832-0.693-3.119-0.831-3.119-0.831  c0.485-2.149,4.245-3.189,4.245-3.189c9.685-1.502,11.247-11.027,11.484-14.099c0.225-2.924,0.725-17.405,0.725-17.405  c0.694-9.774-3.01-16.842-5.763-11.332c-3.646,7.3-1.683,14.379-1.642,14.521c0.003,0.008,0,0.007-0.001,0.016  c-0.264,4.277-15.099,6.272-17.072,7.852c-1.577,1.263-2.564,7.208-1.732,9.634c0.832,2.426-1.109,2.842-1.109,2.842  c-2.842-5.129-2.003-12.752-1.04-14.833c1.006-2.172,6.793-3.258,6.793-3.258c10.05-1.248,9.703-4.437,9.703-4.437  s0.472-1.139-2.068-1.832c-0.333-0.107-0.682-0.18-1.034-0.225c-3.453-0.59-10.655-0.486-25.593,2.126c0,0-3.42-0.335,1.153-4.115  c0.009-0.007,0.014-0.007,0.02-0.018c0.171-0.308-0.077-13.347-0.077-13.379c0.001-0.026,0.565-11.46-1.512-10.906  c-3.685,0.982-3.58,11.525-3.578,11.639c0,0.006-0.001,0.004-0.003,0.009c-4.114,12.636,1.257,44.969,1.361,45.596  c0.003,0.016-0.004,0.005,0.01,0.014c0.239,0.149,5.479,3.434,5.953,5.263c0.472,1.818,0.746,11.418,0.762,11.967  c0.001,0.025,0.018,0.03,0.042,0.038c13.541,4.574,22.522-0.635,22.758-0.774c0.011-0.006,0.008-0.01,0.013-0.022  C451.459,376.482,449.712,373.022,448.881,372.329 M432.706,326.515c-0.272-7.401,0.115-15.855,0.115-15.855  s-0.066-7.251-3.217-7.352c-3.561-0.115-3.495,6.362-3.637,6.947l-0.496,11.133c0,0-0.235,6.378,1.009,11.666  c0.007,0.03,0.033,0.05,0.064,0.045c1.527-0.235,3.483-0.514,5.632-0.767c0.025-0.003,0.045-0.018,0.052-0.042  C432.538,331.117,432.808,329.276,432.706,326.515 M446.161,316.649c0.21,5.228-0.39,14.011,0.089,15.123  c0.009,0.022,0.027,0.029,0.05,0.031c1.428,0.123,3.062,0.478,4.068,0.822c0.033,0.011,0.061,0.001,0.068-0.032  c0.292-1.127,0.564-6.639,1.813-8.287c0.007-0.009,0.01-0.005,0.01-0.015c-0.001-0.201-0.022-8.844-0.169-12.157  c-0.125-2.861-0.031-7.936-2.435-7.827C446.192,304.465,445.948,311.376,446.161,316.649 M439.077,290.816c0,0-0.109-0.008-0.259,0  H439.077 M438.507,299.065c-0.545,0.03-1.974,0.419-2.315,3.685c-0.405,3.866-0.71,21.972-0.497,25.194  c0.105,1.596,0.519,2.997,0.872,3.942c0.009,0.025,0.032,0.038,0.059,0.035c1.796-0.155,3.623-0.269,5.371-0.309  c0.025,0,0.046-0.012,0.053-0.038c1.103-3.916,2.167-31.623-2.802-32.509h-0.514H438.507 M382.286,251.601  c-2.236,0.791-5.501,1.923-1.322,4.266c4.179,2.343,10.909,5.054,18.645,12.742c11.078,11.008,12.24-1.77,17.69-1.859  c0,0,5.094-1.072,12.191,3.965c8.835,6.27,6.291-1.66,6.291-1.66s-2.299-7.983-18.123-14.767  C417.657,254.288,398.11,246.004,382.286,251.601 M337.658,257.044c-7.324,4.831-3.831,15.627,6.242,15.627  c1.402,0,2.445-0.684,1.833-1.228c-5.568-4.949,2.599-8.129,7.686-3.606c4.28,3.806,13.264,6.489,15.996,6.072  c4.746-0.724-4.993-2.152-12.647-13.446C353.386,255.472,344.54,252.505,337.658,257.044 M277.236,326.962  c-0.765,2.651,4.04,5.94,10.428,9.542c2.415,1.361,5.055,2.766,7.707,4.199c0.043,0.023,0.043,0.084,0.001,0.107  c-9.67,5.228-19.19,10.738-18.136,14.391c1.464,5.066,15.238,5.718,33.471,2.278c0.034-0.007,0.065,0.006,0.07,0.04  c0.133,1.063,0.809,5.337,0.823,5.414c-0.493,0.939-0.779,1.485-0.802,1.529c-0.051,0.093-5.058,9.275-8.592,13.201  c-0.888,0.999-0.452,1.712-0.297,1.906c0.24,0.303,0.539,0.446,0.934,0.446c0.736,0,1.804-0.498,3.449-1.394  c1.17-0.639,3.37-3.901,6.556-9.425c0.054-0.093,0.196-0.079,0.226,0.024c2.741,9.503,7.063,15.111,11.978,15.111  c4.263,0,8.14-4.214,10.92-11.867c0.463-1.277,0.889-2.63,1.277-4.044c3.426,5.993,5.777,9.532,7.001,10.201  c1.645,0.896,2.713,1.394,3.449,1.394c0.395,0,0.694-0.143,0.935-0.446c0.154-0.194,0.59-0.907-0.302-1.91  c-3.53-3.922-8.537-13.104-8.58-13.184c-0.015-0.029-1.133-1.995-1.133-1.995s0.125-0.893,0.133-0.938l0.693-4.076  c0.005-0.033,0.038-0.055,0.071-0.049c18.39,3.508,32.318,2.879,33.789-2.216c1.055-3.653-9.359-8.712-19.035-13.936  c-0.043-0.024-0.043-0.085,0-0.108c9.676-5.227,20.09-10.542,19.035-14.195c-1.496-5.181-15.875-5.745-34.729-2.034  c-0.546-0.733-0.62-0.833-1.167-1.566c3.663-6.794,6.635-12.045,8.153-13.992c0.325-0.417,0.676-0.852,1.019-1.277  c1.965-2.435,2.778-3.442,2.008-4.353c-0.717-0.849-1.91-0.18-2.7,0.265c-0.189,0.105-3.976,2.3-8.709,10.737  c-0.409,0.729-0.954,1.721-1.602,2.916c-2.747-6.992-6.462-10.827-10.526-10.827c-3.973,0-7.613,3.665-10.34,10.362  c-0.538-0.987-0.995-1.819-1.35-2.451c-4.733-8.437-8.519-10.632-8.709-10.737c-0.79-0.445-1.982-1.114-2.7-0.265  c-0.77,0.911,0.043,1.918,2.008,4.353c0.344,0.425,0.695,0.86,1.02,1.277c1.476,1.894,4.328,6.916,7.855,13.442  c-0.194,0.71-0.377,1.438-0.552,2.179C293.273,321.211,278.741,321.751,277.236,326.962 M255.256,574.667  c0.204,1.014,0.432,2.021,0.652,3.032h13.091v-24.061h18.8v-22.68h26.472v-26.526h25.966v-23.667h26.472v-24.652h30.771v-26.033  h28.917l13.573-21.004l16.019,21.004h26.809l0.337,27.512H509.1v21.201h24.618v24.653h22.593v27.512h25.039v23.566h26.473v28.498  h9.97c0.003-0.012,0.006-0.024,0.009-0.037c0.778-3.143,1.467-6.305,2.089-9.478c0.182-0.928,0.353-1.858,0.52-2.789  c0.338-1.882,0.651-3.766,0.932-5.656c0.241-1.612,0.463-3.228,0.662-4.847c0.117-0.973,0.237-1.945,0.34-2.92  c0.254-2.395,0.461-4.793,0.621-7.198c0.039-0.612,0.069-1.224,0.104-1.837c0.149-2.684,0.259-5.372,0.285-8.066V400.438H251.587  v139.83c0.028,2.892,0.137,5.777,0.307,8.657c0.013,0.23,0.02,0.461,0.035,0.692c0.163,2.608,0.397,5.211,0.674,7.808  c0.057,0.544,0.105,1.089,0.167,1.633c0.266,2.304,0.59,4.602,0.942,6.895c0.136,0.894,0.269,1.789,0.419,2.681  C254.47,570.65,254.853,572.661,255.256,574.667 M304.554,672.958c1.173,1.362,2.366,2.709,3.571,4.048  c0.619,0.687,1.246,1.368,1.873,2.049c1.201,1.302,2.401,2.604,3.632,3.881c0.3,0.313,0.611,0.613,0.913,0.923  c2.426,2.493,4.913,4.934,7.451,7.327c0.859,0.811,1.715,1.62,2.586,2.419c1.143,1.047,2.297,2.082,3.461,3.108  c0.986,0.87,1.984,1.727,2.985,2.582c1.106,0.944,2.206,1.895,3.33,2.821c1.923,1.585,3.872,3.141,5.846,4.67  c1.017,0.787,2.055,1.549,3.085,2.32c1.267,0.949,2.539,1.892,3.825,2.816c1.056,0.76,2.117,1.512,3.186,2.255  c1.433,0.997,2.883,1.973,4.339,2.941c0.905,0.6,1.799,1.213,2.712,1.802c2.248,1.451,4.525,2.861,6.824,4.24  c0.889,0.531,1.791,1.044,2.687,1.565c1.639,0.954,3.287,1.893,4.949,2.809c0.954,0.524,1.908,1.047,2.868,1.559  c1.917,1.022,3.851,2.015,5.798,2.987c0.635,0.316,1.263,0.649,1.902,0.961c2.53,1.234,5.089,2.417,7.666,3.563  c0.814,0.362,1.636,0.706,2.455,1.06c1.93,0.832,3.87,1.64,5.824,2.42c0.872,0.348,1.742,0.697,2.618,1.035  c2.401,0.926,4.817,1.816,7.253,2.665c0.329,0.114,0.653,0.24,0.982,0.354c2.75,0.942,5.525,1.821,8.315,2.661  c0.81,0.244,1.626,0.472,2.44,0.708c2.111,0.61,4.233,1.19,6.367,1.74c0.841,0.217,1.68,0.438,2.525,0.645  c2.867,0.704,5.745,1.372,8.648,1.965c2.895-0.591,5.765-1.257,8.622-1.959c0.827-0.203,1.648-0.417,2.471-0.629  c2.182-0.562,4.352-1.154,6.512-1.779c0.744-0.216,1.491-0.423,2.231-0.645c2.773-0.833,5.527-1.71,8.26-2.644  c0.551-0.188,1.094-0.396,1.644-0.587c2.218-0.777,4.421-1.587,6.61-2.43c0.876-0.337,1.748-0.679,2.618-1.026  c2.063-0.822,4.111-1.676,6.146-2.555c0.668-0.288,1.342-0.563,2.006-0.856c2.553-1.131,5.082-2.31,7.588-3.527  c0.842-0.408,1.672-0.836,2.508-1.254c1.76-0.88,3.508-1.779,5.242-2.701c0.957-0.508,1.912-1.017,2.862-1.538  c1.877-1.031,3.736-2.089,5.583-3.168c0.966-0.563,1.931-1.13,2.889-1.707c1.935-1.166,3.852-2.354,5.749-3.572  c1.045-0.67,2.077-1.355,3.11-2.04c1.339-0.889,2.667-1.789,3.987-2.702c1.066-0.737,2.135-1.473,3.188-2.226  c1.583-1.133,3.146-2.293,4.699-3.462c1.543-1.16,3.065-2.342,4.58-3.536c1.079-0.853,2.158-1.705,3.222-2.574  c1.191-0.973,2.368-1.957,3.538-2.95c0.906-0.77,1.802-1.549,2.696-2.331c4.278-3.741,8.421-7.619,12.411-11.63  c0.619-0.623,1.24-1.245,1.854-1.875c1.275-1.309,2.537-2.627,3.781-3.962c0.428-0.461,0.847-0.93,1.271-1.393l11.995-14.135  c0.318-0.407,0.636-0.814,0.952-1.223c4.04-5.228,7.856-10.601,11.415-16.11c0.019-0.028,0.038-0.057,0.056-0.085  c1.185-1.833,2.335-3.681,3.463-5.543c0.119-0.198,0.237-0.397,0.357-0.596c3.391-5.641,6.527-11.405,9.385-17.279  c0.066-0.135,0.133-0.27,0.198-0.404c0.96-1.981,1.89-3.975,2.787-5.98c0,0,0-0.001,0.001-0.001h-20.31v-29.879h-32.288v-27.02  H527.9v-25.047h-25.967v-25.638h-25.038v-26.033H453.29v-25.54h-6.238h-23.1v24.554H397.48v26.526h-27.399v25.638h-25.966v26.526  H316.21v26.525h-24.617v26.033h-24.094v0.001c2.602,6.102,5.508,12.097,8.682,17.978c0.219,0.404,0.44,0.81,0.661,1.214  c3.113,5.681,6.484,11.247,10.1,16.679c0.14,0.21,0.275,0.422,0.415,0.632c1.111,1.656,2.25,3.295,3.405,4.925  c0.362,0.512,0.727,1.019,1.093,1.526c3.572,4.957,7.353,9.789,11.323,14.485C303.637,671.872,304.09,672.419,304.554,672.958   M560.238,321.843c-3.159-1.199-8.783-2.464-14.806,0.35c0.163-0.578,0.33-1.148,0.506-1.696c1.942-6.04,4.523-8.261,6.995-8.261  c2.473,0,4.952,2.221,6.895,8.261C559.969,320.936,560.104,321.385,560.238,321.843"/>
</svg>