<svg width="499px" height="260px" viewBox="0 0 499 260" version="1.1" xmlns="http://www.w3.org/2000/svg" xmlns:xlink="http://www.w3.org/1999/xlink">
  <!-- Generator: Sketch 48.1 (47250) - http://www.bohemiancoding.com/sketch -->
  <desc>Created with Sketch.</desc>
  <defs>
    <path d="M10.2343071,-7.26550981e-15 L145.37129,0 C150.894137,-1.01454218e-15 155.37129,4.4771525 155.37129,10 C155.37129,10.6537543 155.307181,11.3059331 155.179883,11.9471742 L141.427934,81.2205306 C140.498708,85.9013608 136.391512,89.2733564 131.61934,89.2733564 L23.9862569,89.2733564 C19.2140844,89.2733564 15.1068882,85.9013608 14.1776631,81.2205306 L0.425713269,11.9471742 C-0.64968133,6.53003738 2.86999614,1.26680078 8.28713292,0.191406178 C8.92837395,0.0641088319 9.5805528,-3.43263829e-15 10.2343071,-3.55271368e-15 Z" id="path-1"></path>
    <path d="M17.8395521,56.9068544 L17.8395521,69.3455487 C17.8395521,70.1756035 18.2576751,70.9003855 18.9955714,71.2121821 C19.31121,71.3174549 19.6268486,71.4186851 19.9383945,71.4186851 C20.3565176,71.4186851 20.8812177,71.3134123 21.1968353,71.005679 L39.0366393,56.906419 L65.0587152,56.906419 C73.1382575,56.906419 79.7503185,50.3752753 79.7503185,42.394609 L79.7503185,14.51181 C79.7503185,6.53114375 73.1382575,0 65.0587152,0 L14.6916033,0 C6.61206099,0 0,6.53114375 0,14.51181 L0,42.394609 C0,50.3752753 6.61206099,56.906419 14.6916033,56.906419 L17.8395521,56.9068544 Z" id="path-2"></path>
    <filter x="-35.1%" y="-25.2%" width="170.2%" height="178.4%" filterUnits="objectBoundingBox" id="filter-3">
      <feMorphology radius="0.5" operator="dilate" in="SourceAlpha" result="shadowSpreadOuter1"></feMorphology>
      <feOffset dx="0" dy="10" in="shadowSpreadOuter1" result="shadowOffsetOuter1"></feOffset>
      <feGaussianBlur stdDeviation="7.5" in="shadowOffsetOuter1" result="shadowBlurOuter1"></feGaussianBlur>
      <feComposite in="shadowBlurOuter1" in2="SourceAlpha" operator="out" result="shadowBlurOuter1"></feComposite>
      <feColorMatrix values="0 0 0 0 0   0 0 0 0 0   0 0 0 0 0  0 0 0 0.0502717391 0" type="matrix" in="shadowBlurOuter1"></feColorMatrix>
    </filter>
    <path d="M10.2343071,-7.26550981e-15 L145.37129,0 C150.894137,-1.01454218e-15 155.37129,4.4771525 155.37129,10 C155.37129,10.6537543 155.307181,11.3059331 155.179883,11.9471742 L141.427934,81.2205306 C140.498708,85.9013608 136.391512,89.2733564 131.61934,89.2733564 L23.9862569,89.2733564 C19.2140844,89.2733564 15.1068882,85.9013608 14.1776631,81.2205306 L0.425713269,11.9471742 C-0.64968133,6.53003738 2.86999614,1.26680078 8.28713292,0.191406178 C8.92837395,0.0641088319 9.5805528,-3.43263829e-15 10.2343071,-3.55271368e-15 Z" id="path-4"></path>
    <path d="M0.243032,40.1695502 L0.237763758,40.1695502 L0.237763758,8.92387543 C5.60355039,9.49244088 10.9426394,9.19486302 16.2550307,8.03114187 C21.5923286,6.86196474 28.1180428,4.4813419 35.8321732,0.889273356 C35.8720025,9.21883786 40.6179238,14.8728171 50.0699369,17.8512111 L50.0699369,40.1695502 L50.016935,40.1695502 C49.7415495,53.2901156 38.7047287,60.7024221 25.1299835,60.7024221 C11.5552383,60.7024221 0.518417489,53.2901156 0.243032,40.1695502 Z" id="path-5"></path>
    <path d="M17.9149595,56.9068544 L17.9149595,69.3455487 C17.9149595,70.1756035 18.3348499,70.9003855 19.0758652,71.2121821 C19.392838,71.3174549 19.7098108,71.4186851 20.0226737,71.4186851 C20.4425641,71.4186851 20.9694821,71.3134123 21.2864338,71.005679 L39.2016462,56.906419 L65.3337168,56.906419 C73.4474111,56.906419 80.0874211,50.3752753 80.0874211,42.394609 L80.0874211,14.51181 C80.0874211,6.53114375 73.4474111,0 65.3337168,0 L14.7537043,0 C6.64001001,0 0,6.53114375 0,14.51181 L0,42.394609 C0,50.3752753 6.64001001,56.906419 14.7537043,56.906419 L17.9149595,56.9068544 Z" id="path-7"></path>
    <filter x="-35.0%" y="-25.2%" width="169.9%" height="178.4%" filterUnits="objectBoundingBox" id="filter-8">
      <feMorphology radius="0.5" operator="dilate" in="SourceAlpha" result="shadowSpreadOuter1"></feMorphology>
      <feOffset dx="0" dy="10" in="shadowSpreadOuter1" result="shadowOffsetOuter1"></feOffset>
      <feGaussianBlur stdDeviation="7.5" in="shadowOffsetOuter1" result="shadowBlurOuter1"></feGaussianBlur>
      <feComposite in="shadowBlurOuter1" in2="SourceAlpha" operator="out" result="shadowBlurOuter1"></feComposite>
      <feColorMatrix values="0 0 0 0 0   0 0 0 0 0   0 0 0 0 0  0 0 0 0.0502717391 0" type="matrix" in="shadowBlurOuter1"></feColorMatrix>
    </filter>
  </defs>
  <g id="Main-Page" stroke="none" stroke-width="1" fill="none" fill-rule="evenodd" opacity="0.949999988">
    <g id="HelpCenter–MainPage-(D)" transform="translate(-806.000000, -135.000000)">
      <g id="Header">
        <g id="Illustration" transform="translate(807.000000, 140.000000)">
          <g id="Wall" opacity="0.100000001" transform="translate(158.000000, 25.000000)" stroke="#373C50" stroke-linecap="round" stroke-linejoin="round" stroke-width="2">
            <path d="M0,23.2266667 L168.790698,23.2266667" id="Line-2"></path>
            <path d="M13.3255814,0.893333333 L191,0.893333333" id="Line-2"></path>
            <path d="M61.2976744,66.1066667 L145.693023,66.1066667" id="Line-2"></path>
            <path d="M13.3255814,44.6666667 L151.023256,44.6666667" id="Line-2"></path>
            <path d="M75.5116279,2.68 L75.5116279,21.2166667" id="Line-2"></path>
            <path d="M139.474419,2.68 L139.474419,21.2166667" id="Line-2"></path>
            <path d="M43.5302326,25.0133333 L43.5302326,43.55" id="Line-2"></path>
            <path d="M75.5116279,46.4533333 L75.5116279,64.99" id="Line-2"></path>
            <path d="M107.493023,25.0133333 L107.493023,43.55" id="Line-2"></path>
            <path d="M139.474419,46.4533333 L139.474419,64.99" id="Line-2"></path>
          </g>
          <g id="Boy" transform="translate(275.000000, 0.000000)">
            <g id="Mug" transform="translate(176.000000, 202.000000)">
              <path d="M1.89962866,7.97268328 L1.89962866,35.0070801 C6.50086564,39.0409342 12.5054229,41.0578613 19.9133005,41.0578613 C27.3211781,41.0578613 33.02235,39.0409342 37.0168162,35.0070801 L37.0168162,8.14398502 C32.7769073,11.5187162 27.3901886,13.2060817 20.8566599,13.2060817 C14.3231313,13.2060817 8.00412084,11.4616156 1.89962866,7.97268328 Z" id="Fill-Mug" fill="#F7F9F9"></path>
              <ellipse id="Mug-Top" stroke="#E2E5EC" fill="#D3D7DF" cx="19.6084076" cy="6.69550173" rx="17.722293" ry="6.69550173"></ellipse>
              <ellipse id="Mug-Inside" fill="#9E6939" cx="19.7843618" cy="10.6266771" rx="14.2200003" ry="2.76332275"></ellipse>
              <path d="M1.88611465,7.14186851 L1.88611465,34.1418685" id="Mug-Left" stroke="#E2E5EC"></path>
              <path d="M37.3307006,7.14186851 L37.3307006,34.1418685" id="Mug-Right" stroke="#E2E5EC"></path>
              <path d="M45.3057325,29.4802255 L45.3057325,14.1764706 C41.3906316,14.1764706 38.2168153,17.8665668 38.2168153,21.8109118 C38.2168153,25.7552569 41.3906316,29.4802255 45.3057325,29.4802255 Z" id="Mug-Handle" stroke="#E2E5EC" stroke-width="2" stroke-linecap="round" stroke-linejoin="round" transform="translate(41.761274, 21.828348) scale(-1, 1) translate(-41.761274, -21.828348) "></path>
              <path d="M1.88611465,34.7093426 C6.05035985,38.8754325 11.9577908,40.9584775 19.6084076,40.9584775 C27.2590244,40.9584775 33.1664554,38.8754325 37.3307006,34.7093426" id="Mug-Bottom" stroke="#E2E5EC" stroke-linecap="round"></path>
              <path d="M4.90380859,7.8200692 L4.90380859,34.3228789 C3.9528657,35.0586783 2.90900594,35.6361106 1.7722293,36.0551758 L1.7722293,10.0473937 L4.90380859,7.8200692 Z" id="Shadow" fill="#9DA5B2" opacity="0.200000003" transform="translate(3.338019, 21.937622) scale(-1, 1) translate(-3.338019, -21.937622) "></path>
            </g>
            <g id="Computer" transform="translate(0.000000, 165.155709)">
              <path d="M22.4600642,91.9502494 L133.219203,91.9502494 C137.585445,89.7585187 139.768567,87.3783318 139.768567,84.8096886 C137.745098,87.2153033 135.371886,88.4181107 132.64893,88.4181107 C129.925973,88.4181107 93.4773125,88.4181107 23.3029479,88.4181107 C19.5646275,88.4724535 17.2189499,87.2696461 16.2659151,84.8096886 C17.2864469,88.8086816 19.0595415,91.1971507 21.585199,91.975096 L22.4600642,91.9502494 Z" id="Shadow" fill="#373C50" opacity="0"></path>
              <g id="Laptop">
                <use fill="#E2E5EC" fill-rule="evenodd" xlink:href="#path-1"></use>
                <path stroke="#BAC1D3" stroke-width="1" d="M10.2343071,0.5 C9.61324052,0.5 8.99367061,0.56090339 8.38449163,0.68183587 C3.23821168,1.70346074 -0.105481909,6.70353551 0.91614296,11.8498155 L14.6680928,81.1231719 C15.5508567,85.5699606 19.452693,88.7733564 23.9862569,88.7733564 L131.61934,88.7733564 C136.152904,88.7733564 140.05474,85.5699606 140.937504,81.1231719 L154.689454,11.8498155 C154.810386,11.2406365 154.87129,10.6210666 154.87129,10 C154.87129,4.75329488 150.617995,0.5 145.37129,0.5 L10.2343071,0.5 Z"></path>
              </g>
              <path d="M146.771926,8.1405608 C151.138168,5.94883015 153.321289,3.56864322 153.321289,1 C151.297821,4.41235492 148.924609,6.11853239 146.201652,6.11853239 C143.478696,6.11853239 97.4238225,6.11853239 8.03703277,6.11853239 C4.29871236,5.16613502 1.95303477,3.45995756 1,1 C2.60377521,4.98242863 4.66849157,7.36261557 7.19414908,8.1405608 L146.771926,8.1405608 Z" id="Light" fill="#FFFFFF" opacity="0.25" transform="translate(77.160645, 4.570280) scale(1, -1) translate(-77.160645, -4.570280) "></path>
              <path d="M21.5351622,88.3793151 L133.637147,88.3793151 C138.056326,86.1875845 140.265915,83.8073975 140.265915,81.2387543 C138.217914,83.6443691 135.815929,84.8471764 133.059959,84.8471764 C130.30399,84.8471764 93.413425,84.8471764 22.388265,84.8471764 C18.6046211,84.9015192 16.2305045,83.6987119 15.2659151,81.2387543 C16.2988198,85.2377474 18.0934115,87.6262165 20.6496901,88.4041617 L21.5351622,88.3793151 Z" id="Shadow" fill="#373C50" opacity="0.049999997"></path>
              <ellipse id="Oval-2" fill="#9DA5B2" opacity="0.49682971" cx="77.9780892" cy="44.6366782" rx="8.8611465" ry="8.92733564"></ellipse>
            </g>
            <g id="Head" transform="translate(46.077962, 66.847751)">
              <rect id="Fill-Neck" fill="#FFDBC3" x="24.8112102" y="90.2733564" width="14.1778344" height="8.03460208"></rect>
              <path d="M24.8666613,92.9095399 C29.8205368,94.1558743 34.5279979,94.1558743 38.9890446,92.9095399 L38.9619056,90.2733564 L24.8112102,90.2733564" id="Shadow-Neck" fill="#804A54" opacity="0.300000012"></path>
              <path d="M3.37651393,45.6366782 C1.12550464,37.7048269 1.31487161e-13,32.2878296 1.31450243e-13,29.3856861 C1.31450243e-13,25.032471 2.23453822,4.61562804 30.1278981,1.25674132 C35.5595731,3.22482506 41.4095729,3.22482506 47.6778976,1.25674132 C57.0803846,-1.69538428 59.2726088,7.74008759 53.4818722,10.0200542 C58.7593582,13.0954365 60.8978609,24.119482 59.89738,43.0921905 L57.1027023,43.0921905 C56.7687702,36.1589365 56.387768,32.0488975 55.9596958,30.7620735 C55.5316236,29.4752496 53.8318227,26.7302755 50.8602929,22.5271512 C50.0500341,21.9996927 49.3086038,21.9996927 48.6360018,22.5271512 C47.627099,23.3183391 42.4475414,24.7889163 39.1585877,22.5271512 C35.869634,20.2653862 33.7599118,16.6510692 26.1291036,17.3388295 C18.4982954,18.0265898 9.00040694,20.9592137 7.72664527,35.4411839 L7.02921284,44.3755676 L3.37651393,45.6366782 Z" id="Fill-Haircut" fill="#BC7856"></path>
              <path d="M56.6987325,37.5862326 L56.7113376,37.5862326 L56.7113376,69.7343081 L56.6472993,69.7343081 C56.1674185,82.6332821 45.2838436,90.2733564 31.9001274,90.2733564 C18.5164111,90.2733564 7.58740477,82.6332821 7.10549292,69.7343081 L7.0889172,69.7343081 L7.0889172,37.5862326 L7.16348978,37.5862326 C7.87420994,23.9082136 14.7610383,17.0692042 27.8239749,17.0692042 C37.9893795,17.0692042 35.3671567,23.2722856 43.1554842,23.2722856 C50.9438117,23.2722856 48.3053045,19.2881955 52.1845042,24.1830358 C55.766065,28.7023101 56.5929315,34.4730861 56.6987325,37.5862326 Z" id="Face" stroke="#7F4953" fill="#FFDBC3" stroke-linecap="round" stroke-linejoin="round"></path>
              <path d="M31.9444992,69.2621124 L31.9444992,69.019043 C52.9300949,69.019043 52.9230148,62.972168 52.9230148,60.9880371 C52.9230148,59.6652832 53.9560551,59.0026042 56.0221359,59 L56.0221359,59.852505 L56.0221359,74.4776963 C53.5170903,83.7254176 45.4912114,88.8846497 31.9444992,89.9553926 L31.9444992,90.198462 C18.3977869,89.1277192 10.371908,83.9684871 7.86686244,74.7207657 L7.86686244,60.0955744 L7.86686244,59.2430694 C9.93294316,59.2456736 10.9659835,59.9083527 10.9659835,61.2311066 C10.9659835,63.2152374 10.9589035,69.2621124 31.9444992,69.2621124 Z" id="Combined-Shape" fill="#825059" opacity="0.152513587"></path>
              <path d="M8.91220193,42.1300399 C9.72014696,30.8124916 13.2902775,23.9611538 19.6225936,21.5760266 C25.9549096,19.1908994 30.641409,19.1908994 33.6820918,21.5760266 C37.73148,24.1799781 41.1648137,25.4055978 43.982093,25.2528858 C48.2080118,25.0238176 50.4540182,22.0729583 51.4651754,24.0175308 C50.5314667,22.4202294 49.9312769,21.6063946 49.664606,21.5760266 C49.2645997,21.5304745 46.4595795,23.4759188 43.4643995,23.2863001 C40.4692195,23.0966814 36.9998297,21.018722 33.6820918,18.0192592 C31.4702666,16.0196174 26.1905001,16.3011394 17.8427925,18.8638253 C12.5377867,21.9873756 9.30261735,26.1251318 8.13728429,31.2770937 C6.97195122,36.4290556 6.89810833,40.0467044 7.91575562,42.1300399 L8.91220193,42.1300399 Z" id="Shadow-Haircut" fill="#DF9F84" opacity="0.5"></path>
              <path d="M7.0889172,58.1349481 L7.0889172,44.7439446 C3.66320394,44.7439446 0.88611465,47.9728313 0.88611465,51.4241894 C0.88611465,54.8755475 3.66320394,58.1349481 7.0889172,58.1349481 Z" id="Ear-1" stroke="#7F4953" fill="#FFDBC3" stroke-linecap="round" stroke-linejoin="round"></path>
              <path d="M63.8002548,58.1349481 L63.8002548,44.7439446 C60.3745415,44.7439446 57.5974522,47.9728313 57.5974522,51.4241894 C57.5974522,54.8755475 60.3745415,58.1349481 63.8002548,58.1349481 Z" id="Ear-2" stroke="#373C50" stroke-width="4" fill="#373C50" stroke-linecap="round" stroke-linejoin="round" transform="translate(60.698854, 51.439446) scale(-1, 1) translate(-60.698854, -51.439446) "></path>
              <path d="M3.20766819,45.6366782 C-4.9577603,22.7846463 2.46622504,8.4614213 25.4796242,2.66700325 C34.9306672,0.287376764 33.2697713,4.80364097 45.033269,1.72021361 C56.7967668,-1.36321374 61.6165091,6.22270945 52.1461725,9.96969305 C57.9931689,9.96969305 60.5912277,21.0728628 59.9403488,43.2792023" id="Haircut" stroke="#905F64" stroke-linecap="round" stroke-linejoin="round"></path>
              <path d="M19.4945223,72.4186851 C21.890518,75.3944637 26.0257197,76.8823529 31.9001274,76.8823529 C37.774535,76.8823529 41.9097367,75.3944637 44.3057325,72.4186851" id="Smile" stroke="#7F4953" stroke-width="2" stroke-linecap="round" stroke-linejoin="round"></path>
              <path d="M27.4695861,61.7428058 C27.4616452,64.6939687 28.932364,66.1695502 31.8817425,66.1695502 C34.831121,66.1695502 36.3141071,64.6816609 36.3307006,61.7058824" id="Nose" stroke="#7F4953" stroke-linecap="round" stroke-linejoin="round"></path>
              <polygon id="Rectangle-2" fill="#F7F9F9" opacity="0.200000003" points="20.3806369 43.8512111 24.8112102 43.8512111 20.3806369 54.5640138 15.9500637 54.5640138"></polygon>
              <polygon id="Rectangle-2" fill="#F7F9F9" opacity="0.200000003" points="15.6852677 43.8512111 17.722293 43.8512111 13.2917197 54.5640138 11.2546945 54.5640138"></polygon>
              <polygon id="Rectangle-2" fill="#F7F9F9" opacity="0.200000003" points="51.3946497 43.8512111 55.8252229 43.8512111 51.3946497 54.5640138 46.9640764 54.5640138"></polygon>
              <polygon id="Rectangle-2" fill="#F7F9F9" opacity="0.200000003" points="46.9640764 43.8512111 49.0011017 43.8512111 44.5705285 54.5640138 42.5335032 54.5640138"></polygon>
              <ellipse id="Eye-1" fill="#373C50" cx="17.722293" cy="49.2076125" rx="2.65834395" ry="2.67820069"></ellipse>
              <ellipse id="Eye-2" fill="#373C50" cx="46.0779618" cy="49.2076125" rx="2.65834395" ry="2.67820069"></ellipse>
              <path d="M9.30420382,56.7958478 L25.4742788,56.7958478" id="Line-3" stroke="#707482" opacity="0.200000003" stroke-linecap="square"></path>
              <path d="M38.5459873,56.7958478 L54.7160622,56.7958478" id="Line-3" stroke="#707482" opacity="0.200000003" stroke-linecap="square"></path>
              <path d="M27.9126115,49.6539792 L36.109172,49.6539792" id="Line-3" stroke="#707482" opacity="0.200000003" stroke-linecap="square"></path>
              <rect id="Glass-1" stroke="#373C50" stroke-width="2" fill-opacity="0.0504415761" fill="#F7F9F9" stroke-linecap="round" stroke-linejoin="round" x="7.97503185" y="42.9584775" width="18.6084076" height="12.4982699" rx="2"></rect>
              <rect id="Glass-2" stroke="#373C50" stroke-width="2" fill-opacity="0.0504415761" fill="#F7F9F9" stroke-linecap="round" stroke-linejoin="round" x="37.2168153" y="42.9584775" width="18.6084076" height="12.4982699" rx="2"></rect>
              <rect id="Glasses-Connection" fill="#373C50" x="26.5834395" y="47.4221453" width="10.6333758" height="1.78546713"></rect>
              <path d="M40.7612739,34.0311419 L50.508535,37.6020761" id="Eyebrow-1" stroke="#7F4953" stroke-width="2"></path>
              <path d="M14.1778344,35.816609 L24.8112102,34.0311419" id="Eyebrow-2" stroke="#7F4953" stroke-width="2"></path>
              <ellipse id="Microphone-Shadow" fill="#373C50" opacity="0.200000003" cx="32.786242" cy="77.7750865" rx="5.3166879" ry="5.35640138"></ellipse>
              <ellipse id="Microphone" fill="#373C50" cx="32.786242" cy="75.9896194" rx="5.3166879" ry="5.35640138"></ellipse>
              <path d="M31.9001274,78.6678201 C51.3946497,72.0593684 61.1419108,63.1320327 61.1419108,51.8858131" id="Microphone-Connection-Shadow" stroke="#373C50" stroke-width="4" opacity="0.200000003"></path>
              <path d="M31.9001274,76.8823529 C51.3946497,70.2739012 61.1419108,61.3465656 61.1419108,50.100346" id="Microphone-Connection" stroke="#373C50" stroke-width="4"></path>
              <path d="M24.4297286,89.2114532 L24.4297286,98.1907013" id="Neck-1" stroke="#7F4953"></path>
              <path d="M39.4123947,89.1871612 L39.4123947,98.1282013" id="Neck-2" stroke="#7F4953"></path>
            </g>
            <g id="Balloon" transform="translate(117.853248, 0.000000)" fill-rule="nonzero">
              <g>
                <use fill="black" fill-opacity="1" filter="url(#filter-3)" xlink:href="#path-2"></use>
                <use stroke-opacity="0.246065444" stroke="#373C50" stroke-width="1" fill="#F7F9F9" fill-rule="evenodd" xlink:href="#path-2"></use>
              </g>
              <path d="M40.7092212,45.3039911 C39.4971617,45.7617363 38.1031982,45.5095107 37.1781968,44.6640854 C36.2505714,43.8209619 35.9738778,42.5504772 36.4760983,41.4458431 C36.9757736,40.3434809 38.1596127,39.6218456 39.46902,39.6218456 C40.3274392,39.6218456 41.1525344,39.9347974 41.7598433,40.4882863 C42.3671391,41.0417871 42.7104937,41.7938064 42.7104937,42.5761858 C42.7104937,43.7719361 41.9212807,44.8485897 40.7092212,45.3039911 Z M33.4833734,21.3539143 C34.2905603,21.0970134 34.9516598,20.5598764 35.3232085,19.8568948 C36.0765392,18.4112327 37.6678223,17.4817162 39.4231012,17.4653942 C41.9061275,17.493419 43.9355416,19.2776734 44.0610968,21.5360869 C44.1251574,23.3787381 42.8593362,25.0416082 40.9451782,25.6324882 C38.1674845,26.4615616 36.2789755,28.8110316 36.2482099,31.4734293 L36.2482099,33.8182358 C36.2482099,35.4413472 37.6908473,36.756254 39.4717752,36.756254 C41.252703,36.756254 42.6978988,35.441407 42.6978988,33.8182358 L42.6978988,31.4734293 C42.6978988,31.3006075 43.0182021,31.1978448 43.0182021,31.1978448 C45.2552348,30.5135767 47.1924177,29.1916747 48.5402657,27.423758 C49.8881136,25.6581729 50.5774204,23.5445647 50.5030976,21.3935893 C50.3980354,18.782549 49.1911319,16.309319 47.1360688,14.4851421 C45.0810058,12.6634764 42.3366359,11.631245 39.4689413,11.6055363 L39.4023197,11.6055363 C37.34214,11.617214 35.3255175,12.1567055 33.5830303,13.1656317 C31.843167,14.1722143 30.4492034,15.606158 29.562577,17.3040636 C29.1910218,18.0047135 29.1397764,18.8127417 29.4216457,19.5484271 C29.7035149,20.2841124 30.2954148,20.8889827 31.0667195,21.2252875 C31.7896257,21.5641093 32.6761865,21.6108153 33.4833734,21.3539143 Z" id="Question-Mark" fill="#373C50" opacity="0.75"></path>
            </g>
          </g>
          <g id="Desk" opacity="0.200000003" transform="translate(45.000000, 230.000000)" stroke="#373C50" stroke-linecap="round" stroke-linejoin="round" stroke-width="2">
            <path d="M165.831263,1.50617284 L172.944669,1.50617284" id="Line"></path>
            <path d="M183.503953,1.50617284 L241.300371,1.50617284" id="Line"></path>
            <path d="M375.232135,1.50617284 L384.123892,1.50617284" id="Line"></path>
            <path d="M392.794,1.50617284 L406.131635,1.50617284" id="Line"></path>
            <path d="M0,1.50617284 L7.1134054,1.50617284" id="Line"></path>
            <path d="M16.8943378,1.50617284 L31.1211486,1.50617284" id="Line"></path>
          </g>
          <g id="Girl">
            <g id="Mug" transform="translate(22.000000, 222.500000) scale(-1, 1) translate(-22.000000, -222.500000) translate(0.000000, 202.000000)">
              <path d="M1,8 L1,34.9647965 C5.58588246,38.9882655 11.5704023,41 18.9535595,41 C26.3367167,41 32.0188636,38.9882655 36,34.9647965 L36,8.17086072 C31.7742399,11.5369036 26.4054968,13.219925 19.8937709,13.219925 C13.3820449,13.219925 7.08412125,11.47995 1,8 Z" id="Fill-Mug" fill="#F7F9F9"></path>
              <ellipse id="Mug-Top" stroke="#E2E5EC" fill="#D3D7DF" cx="18.5" cy="6.5" rx="17.5" ry="6.5"></ellipse>
              <ellipse id="Mug-Inside" fill="#9E6939" cx="19" cy="9.5" rx="15" ry="3.5"></ellipse>
              <path d="M1,7 L1,34" id="Mug-Left" stroke="#E2E5EC"></path>
              <path d="M36,7 L36,34" id="Mug-Right" stroke="#E2E5EC"></path>
              <path d="M44,29 L44,14 C40.1340068,14 37,17.6168537 37,21.4829099 C37,25.3489661 40.1340068,29 44,29 Z" id="Mug-Handle" stroke="#E2E5EC" stroke-width="2" stroke-linecap="round" stroke-linejoin="round" transform="translate(40.500000, 21.500000) scale(-1, 1) translate(-40.500000, -21.500000) "></path>
              <path d="M1,35 C5.11201254,39 10.9453459,41 18.5,41 C26.0546541,41 31.8879875,39 36,35" id="Mug-Bottom" stroke="#E2E5EC" stroke-linecap="round"></path>
              <path d="M4,8 L4,34.2821275 C3.08901279,35.0118001 2.08901279,35.5844243 1,36 L1,10.2087781 L4,8 Z" id="Shadow" fill="#9DA5B2" opacity="0.200000003" transform="translate(2.500000, 22.000000) scale(-1, 1) translate(-2.500000, -22.000000) "></path>
            </g>
            <g id="Computer" transform="translate(65.000000, 165.000000)">
              <path d="M22.4600642,91.9502494 L133.219203,91.9502494 C137.585445,89.7585187 139.768567,87.3783318 139.768567,84.8096886 C137.745098,87.2153033 135.371886,88.4181107 132.64893,88.4181107 C129.925973,88.4181107 93.4773125,88.4181107 23.3029479,88.4181107 C19.5646275,88.4724535 17.2189499,87.2696461 16.2659151,84.8096886 C17.2864469,88.8086816 19.0595415,91.1971507 21.585199,91.975096 L22.4600642,91.9502494 Z" id="Shadow" fill="#373C50" opacity="0"></path>
              <g id="Laptop">
                <use fill="#E2E5EC" fill-rule="evenodd" xlink:href="#path-4"></use>
                <path stroke="#BAC1D3" stroke-width="1" d="M10.2343071,0.5 C9.61324052,0.5 8.99367061,0.56090339 8.38449163,0.68183587 C3.23821168,1.70346074 -0.105481909,6.70353551 0.91614296,11.8498155 L14.6680928,81.1231719 C15.5508567,85.5699606 19.452693,88.7733564 23.9862569,88.7733564 L131.61934,88.7733564 C136.152904,88.7733564 140.05474,85.5699606 140.937504,81.1231719 L154.689454,11.8498155 C154.810386,11.2406365 154.87129,10.6210666 154.87129,10 C154.87129,4.75329488 150.617995,0.5 145.37129,0.5 L10.2343071,0.5 Z"></path>
              </g>
              <path d="M21.5351622,88.3793151 L133.637147,88.3793151 C138.056326,86.1875845 140.265915,83.8073975 140.265915,81.2387543 C138.217914,83.6443691 135.815929,84.8471764 133.059959,84.8471764 C130.30399,84.8471764 93.413425,84.8471764 22.388265,84.8471764 C18.6046211,84.9015192 16.2305045,83.6987119 15.2659151,81.2387543 C16.2988198,85.2377474 18.0934115,87.6262165 20.6496901,88.4041617 L21.5351622,88.3793151 Z" id="Shadow" fill="#373C50" opacity="0.049999997"></path>
              <path d="M147.388137,8.16540739 C151.754379,5.97367674 153.9375,3.59348981 153.9375,1.02484659 C151.914032,4.43720151 149.540819,6.14337897 146.817863,6.14337897 C144.094907,6.14337897 98.0400334,6.14337897 8.65324371,6.14337897 C4.91492329,5.19098161 2.5692457,3.48480415 1.61621094,1.02484659 C3.21998615,5.00727522 5.28470251,7.38746215 7.81036002,8.16540739 L147.388137,8.16540739 Z" id="Light" fill="#FFFFFF" opacity="0.25" transform="translate(77.776855, 4.595127) scale(1, -1) translate(-77.776855, -4.595127) "></path>
              <ellipse id="Oval-2" fill="#9DA5B2" opacity="0.49682971" cx="77.9780892" cy="44.6366782" rx="8.8611465" ry="8.92733564"></ellipse>
            </g>
            <g id="Head" transform="translate(104.065119, 71.418685)">
              <rect id="Fill-Neck" fill="#FFDBC3" x="31.9605157" y="85.5756996" width="14.0699997" height="8.03051758"></rect>
              <path d="M32.0939263,88.3386056 C37.3610892,89.58494 42.3662542,89.58494 47.1094212,88.3386056 L47.080566,85.7024221 L32.0349685,85.7024221" id="Shadow-Neck" fill="#804A54" opacity="0.300000012"></path>
              <path d="M17.9519708,93.5991371 L31.0049493,93.5991371 L31.0049493,84.6026772 C30.4807269,84.771731 30.1455625,84.771731 29.9994561,84.6026772 C22.0811211,75.4406899 13.971502,69.5374154 13.971502,64.5855873 C13.971502,55.9846125 13.971502,45.6914403 13.971502,33.7060707 C26.7420098,35.042171 38.7255303,32.3529213 49.9220635,25.6383217 C49.8122424,26.9619218 49.8122424,27.9437334 49.9220635,28.5837563 C51.1750856,35.8862003 56.3264825,40.8042153 63.9063165,42.6330727 L63.9063165,64.5855873 C56.2616224,74.2898964 50.9394789,80.9622597 47.9398858,84.6026772 C47.7836803,84.792254 47.1612545,84.5383458 46.9389092,84.6026772 C46.9389092,90.6003172 46.9389092,93.5991371 46.9389092,93.5991371 L59.9735772,93.5991371 C60.1449768,83.7628882 66.7638497,78.1708545 79.8301959,76.8230361 C74.6109571,65.6365498 71.9184926,55.4195164 71.7528025,46.1719358 C71.5042673,32.300565 70.2685434,7.85326557 50.0529002,3.67293604 C45.6163444,4.62262787 42.7857083,5.72924551 41.5609918,6.99278898 C42.6229148,2.86970832 38.9021288,0.808167982 30.3986337,0.808167982 C17.643391,0.808167982 3.61592621,12.5388344 2.64337701,36.2961586 C9.2729343,58.0490883 8.43873485,72.3310524 0.14077867,79.142051 L3.61592621,79.243181 C10.7080082,80.3675277 15.1004593,83.6950827 16.7932794,89.2258461 L17.9519708,93.5991371 Z" id="Fill-Haircut" fill="#E7AA51"></path>
              <g id="Face-+-Microphone" transform="translate(14.000000, 25.000000)">
                <mask id="mask-6" fill="white">
                  <use xlink:href="#path-5"></use>
                </mask>
                <use id="Mask" stroke="#7F4953" fill="#FFDBC3" stroke-linecap="round" stroke-linejoin="round" xlink:href="#path-5"></use>
                <path d="M12.695807,42.8477509 C15.1019306,45.8235294 19.2546117,47.3114187 25.1538503,47.3114187 C31.053089,47.3114187 35.2057701,45.8235294 37.6118936,42.8477509" id="Smile" stroke="#7F4953" stroke-width="2" stroke-linecap="round" stroke-linejoin="round" mask="url(#mask-6)"></path>
                <path d="M25.1538503,47.3114187 C36.6328707,43.3787193 45.2253676,38.1451983 50.9313409,31.6108559" id="Microphone-Connection" stroke="#373C50" stroke-width="4" mask="url(#mask-6)"></path>
              </g>
              <path d="M15.0854773,68.1302173 C15.7391878,68.7842101 17.1372801,37.4881068 17.8126295,37.5381822 C28.8129736,38.3538301 38.7345705,36.3781013 48.9709901,31.3027783 C51.5187653,38.1636334 56.2718559,42.6457545 63.2302617,44.7491417 L63.2302617,42.9135455 C54.4966253,39.2243357 50.1298071,33.6225197 50.1298071,26.1080977 C40.1127964,31.9092675 28.4313531,34.8098525 15.0854773,34.8098525 C14.6122335,56.549981 14.6122335,67.6567693 15.0854773,68.1302173 Z" id="Path-4" fill="#DF9F84" opacity="0.5"></path>
              <path d="M34.7045813,56.279138 C34.6966068,59.2303009 36.1735422,60.7058824 39.1353877,60.7058824 C42.0972332,60.7058824 43.5864878,59.2179931 43.6031515,56.2422145" id="Nose" stroke="#7F4953" stroke-linecap="round" stroke-linejoin="round"></path>
              <ellipse id="Eye-1" stroke="#3C464E" fill="#373C50" stroke-linecap="round" stroke-linejoin="round" cx="26.695807" cy="46.4221453" rx="2.6695807" ry="2.67820069"></ellipse>
              <ellipse id="Eye-2" stroke="#3C464E" fill="#373C50" stroke-linecap="round" stroke-linejoin="round" cx="51.6118936" cy="46.4221453" rx="2.6695807" ry="2.67820069"></ellipse>
              <path d="M47.1625924,35.7093426 L56.0611948,39.2802768" id="Eyebrow-1" stroke="#7F4953" stroke-width="2"></path>
              <path d="M21.3566456,39.2802768 L32.0349685,36.6020761" id="Eyebrow-2" stroke="#7F4953" stroke-width="2"></path>
              <ellipse id="Shadow" fill="#373C50" opacity="0.200000003" cx="40.0437106" cy="73.2041522" rx="5.33916141" ry="5.35640138"></ellipse>
              <ellipse id="Microphone" fill="#373C50" cx="40.0437106" cy="71.4186851" rx="5.33916141" ry="5.35640138"></ellipse>
              <path d="M31.4076592,84.6086586 L31.4076592,93.5355385" id="Neck-1" stroke="#7F4953"></path>
              <path d="M46.4636895,84.6226967 L46.4636895,93.5705727" id="Neck-2" stroke="#7F4953"></path>
              <path d="M17.7972047,93.7370242 C16.6133314,84.2145329 10.6809298,79.4532872 0,79.4532872 C4.74447291,73.8061371 7.11670937,67.5559124 7.11670937,60.7026131 C7.11670937,50.422664 2.6695807,41.8896045 2.6695807,34.816609 C2.6695807,27.7436135 6.95072958,0.890554039 31.1451082,0.890554039 C40.6091426,2.0674977 43.8719635,4.15126919 40.9335708,7.14186851 C43.9214967,4.76124567 47.1843176,3.57093426 50.7220334,3.57093426 C56.0286071,3.57093426 71.1888188,13.8251649 71.1888188,34.816609 C71.1888188,55.8080531 77.8931857,76.7750865 80.0874211,76.7750865 C82.2816566,76.7750865 59.6206357,77.1316568 59.6206357,93.7370242" id="Path-2" stroke="#D17358" stroke-linecap="round" stroke-linejoin="round"></path>
            </g>
            <g id="Balloon" transform="translate(23.087838, 0.000000)" fill-rule="nonzero">
              <g transform="translate(40.043711, 35.709343) scale(-1, 1) translate(-40.043711, -35.709343) ">
                <use fill="black" fill-opacity="1" filter="url(#filter-8)" xlink:href="#path-7"></use>
                <use stroke-opacity="0.246065444" stroke="#373C50" stroke-width="1" fill="#F7F9F9" fill-rule="evenodd" xlink:href="#path-7"></use>
              </g>
              <path d="M40.0213113,24.2732526 C41.2613028,21.0678315 40.501308,17.4571491 38.0588287,15.0297836 C36.4188399,13.3984896 34.2338308,12.4982699 31.9088546,12.4982699 C30.9263334,12.4982699 29.956356,12.6623924 29.0288743,12.9806937 L28.6463745,13.1124895 L32.9288413,17.3722518 L32.2263181,20.8238472 L28.0188588,22.2263462 L23.7563599,17.9864459 L23.6238616,18.3694006 C22.5238371,21.5375168 23.3163629,24.9716056 25.6888715,27.3314913 C27.3288603,28.9652681 29.5138694,29.863005 31.8388455,29.863005 C33.0138135,29.863005 34.1538377,29.6342227 35.2288384,29.184132 L51.2210493,44.7013192 C51.7735447,45.2359635 52.5060325,45.5294118 53.2835632,45.5294118 C54.0785658,45.5294118 54.8210247,45.2260325 55.3785249,44.6714625 L56.101016,43.9528019 C56.6535114,43.4007465 56.9559862,42.6696658 56.9509942,41.8962574 C56.9434941,41.1253953 56.6359948,40.3992228 56.0759922,39.8571557 L40.0213113,24.2732526 Z" id="Shape" fill="#373C50" opacity="0.75"></path>
            </g>
          </g>
        </g>
      </g>
    </g>
  </g>
</svg>