<svg width="340px" height="260px" viewBox="0 0 340 260" version="1.1" xmlns="http://www.w3.org/2000/svg" xmlns:xlink="http://www.w3.org/1999/xlink">
  <defs>
    <path d="M10.2343071,-7.26550981e-15 L145.37129,0 C150.894137,-1.01454218e-15 155.37129,4.4771525 155.37129,10 C155.37129,10.6537543 155.307181,11.3059331 155.179883,11.9471742 L141.427934,81.2205306 C140.498708,85.9013608 136.391512,89.2733564 131.61934,89.2733564 L23.9862569,89.2733564 C19.2140844,89.2733564 15.1068882,85.9013608 14.1776631,81.2205306 L0.425713269,11.9471742 C-0.64968133,6.53003738 2.86999614,1.26680078 8.28713292,0.191406178 C8.92837395,0.0641088319 9.5805528,-3.43263829e-15 10.2343071,-3.55271368e-15 Z" id="path-1"></path>
    <path d="M17.8395521,56.9068544 L17.8395521,69.3455487 C17.8395521,70.1756035 18.2576751,70.9003855 18.9955714,71.2121821 C19.31121,71.3174549 19.6268486,71.4186851 19.9383945,71.4186851 C20.3565176,71.4186851 20.8812177,71.3134123 21.1968353,71.005679 L39.0366393,56.906419 L65.0587152,56.906419 C73.1382575,56.906419 79.7503185,50.3752753 79.7503185,42.394609 L79.7503185,14.51181 C79.7503185,6.53114375 73.1382575,0 65.0587152,0 L14.6916033,0 C6.61206099,0 0,6.53114375 0,14.51181 L0,42.394609 C0,50.3752753 6.61206099,56.906419 14.6916033,56.906419 L17.8395521,56.9068544 Z" id="path-2"></path>
    <filter x="-35.1%" y="-25.2%" width="170.2%" height="178.4%" filterUnits="objectBoundingBox" id="filter-3">
      <feMorphology radius="0.5" operator="dilate" in="SourceAlpha" result="shadowSpreadOuter1"></feMorphology>
      <feOffset dx="0" dy="10" in="shadowSpreadOuter1" result="shadowOffsetOuter1"></feOffset>
      <feGaussianBlur stdDeviation="7.5" in="shadowOffsetOuter1" result="shadowBlurOuter1"></feGaussianBlur>
      <feComposite in="shadowBlurOuter1" in2="SourceAlpha" operator="out" result="shadowBlurOuter1"></feComposite>
      <feColorMatrix values="0 0 0 0 0   0 0 0 0 0   0 0 0 0 0  0 0 0 0.0502717391 0" type="matrix" in="shadowBlurOuter1"></feColorMatrix>
    </filter>
  </defs>
  <g id="Main-Page" stroke="none" stroke-width="1" fill="none" fill-rule="evenodd">
    <g id="HelpCenter–MainPage-(D)" transform="translate(-896.000000, -3039.000000)">
      <g id="Still-Have-Questions?" transform="translate(135.000000, 3008.000000)">
        <g id="Illustration" transform="translate(762.000000, 36.000000)">
          <g id="Wall" opacity="0.100000001" transform="translate(0.000000, 25.000000)" stroke="#373C50" stroke-linecap="round" stroke-linejoin="round" stroke-width="2">
            <path d="M0,23.2266667 L168.790698,23.2266667" id="Line-2"></path>
            <path d="M13.3255814,0.893333333 L191,0.893333333" id="Line-2"></path>
            <path d="M61.2976744,66.1066667 L145.693023,66.1066667" id="Line-2"></path>
            <path d="M13.3255814,44.6666667 L151.023256,44.6666667" id="Line-2"></path>
            <path d="M75.5116279,2.68 L75.5116279,21.2166667" id="Line-2"></path>
            <path d="M139.474419,2.68 L139.474419,21.2166667" id="Line-2"></path>
            <path d="M43.5302326,25.0133333 L43.5302326,43.55" id="Line-2"></path>
            <path d="M75.5116279,46.4533333 L75.5116279,64.99" id="Line-2"></path>
            <path d="M107.493023,25.0133333 L107.493023,43.55" id="Line-2"></path>
            <path d="M139.474419,46.4533333 L139.474419,64.99" id="Line-2"></path>
          </g>
          <g id="Boy" transform="translate(117.000000, 0.000000)">
            <g id="Mug" transform="translate(177.000000, 202.000000)">
              <path d="M1,8 L1,34.9647965 C5.58588246,38.9882655 11.5704023,41 18.9535595,41 C26.3367167,41 32.0188636,38.9882655 36,34.9647965 L36,8.17086072 C31.7742399,11.5369036 26.4054968,13.219925 19.8937709,13.219925 C13.3820449,13.219925 7.08412125,11.47995 1,8 Z" id="Fill-Mug" fill="#F7F9F9"></path>
              <ellipse id="Mug-Top" stroke="#E2E5EC" fill="#D3D7DF" cx="18.5" cy="6.5" rx="17.5" ry="6.5"></ellipse>
              <ellipse id="Mug-Inside" fill="#9E6939" cx="18.7799997" cy="8.76332275" rx="14.2200003" ry="2.76332275"></ellipse>
              <path d="M1,7 L1,34" id="Mug-Left" stroke="#E2E5EC"></path>
              <path d="M36,7 L36,34" id="Mug-Right" stroke="#E2E5EC"></path>
              <path d="M44,29 L44,14 C40.1340068,14 37,17.6168537 37,21.4829099 C37,25.3489661 40.1340068,29 44,29 Z" id="Mug-Handle" stroke="#E2E5EC" stroke-width="2" stroke-linecap="round" stroke-linejoin="round" transform="translate(40.500000, 21.500000) scale(-1, 1) translate(-40.500000, -21.500000) "></path>
              <path d="M1,35 C5.11201254,39 10.9453459,41 18.5,41 C26.0546541,41 31.8879875,39 36,35" id="Mug-Bottom" stroke="#E2E5EC" stroke-linecap="round"></path>
              <path d="M4,8 L4,34.2821275 C3.08901279,35.0118001 2.08901279,35.5844243 1,36 L1,10.2087781 L4,8 Z" id="Shadow" fill="#9DA5B2" opacity="0.100000001" transform="translate(2.500000, 22.000000) scale(-1, 1) translate(-2.500000, -22.000000) "></path>
            </g>
            <g id="Computer" transform="translate(0.000000, 165.155709)">
              <path d="M22.4600642,91.9502494 L133.219203,91.9502494 C137.585445,89.7585187 139.768567,87.3783318 139.768567,84.8096886 C137.745098,87.2153033 135.371886,88.4181107 132.64893,88.4181107 C129.925973,88.4181107 93.4773125,88.4181107 23.3029479,88.4181107 C19.5646275,88.4724535 17.2189499,87.2696461 16.2659151,84.8096886 C17.2864469,88.8086816 19.0595415,91.1971507 21.585199,91.975096 L22.4600642,91.9502494 Z" id="Shadow" fill="#373C50" opacity="0"></path>
              <g id="Laptop">
                <use fill="#E2E5EC" fill-rule="evenodd" xlink:href="#path-1"></use>
                <path stroke="#BAC1D3" stroke-width="1" d="M10.2343071,0.5 C9.61324052,0.5 8.99367061,0.56090339 8.38449163,0.68183587 C3.23821168,1.70346074 -0.105481909,6.70353551 0.91614296,11.8498155 L14.6680928,81.1231719 C15.5508567,85.5699606 19.452693,88.7733564 23.9862569,88.7733564 L131.61934,88.7733564 C136.152904,88.7733564 140.05474,85.5699606 140.937504,81.1231719 L154.689454,11.8498155 C154.810386,11.2406365 154.87129,10.6210666 154.87129,10 C154.87129,4.75329488 150.617995,0.5 145.37129,0.5 L10.2343071,0.5 Z"></path>
              </g>
              <path d="M146.771926,8.1405608 C151.138168,5.94883015 153.321289,3.56864322 153.321289,1 C151.297821,4.41235492 148.924609,6.11853239 146.201652,6.11853239 C143.478696,6.11853239 97.4238225,6.11853239 8.03703277,6.11853239 C4.29871236,5.16613502 1.95303477,3.45995756 1,1 C2.60377521,4.98242863 4.66849157,7.36261557 7.19414908,8.1405608 L146.771926,8.1405608 Z" id="Light" fill="#FFFFFF" opacity="0.25" transform="translate(77.160645, 4.570280) scale(1, -1) translate(-77.160645, -4.570280) "></path>
              <path d="M21.5351622,88.3793151 L133.637147,88.3793151 C138.056326,86.1875845 140.265915,83.8073975 140.265915,81.2387543 C138.217914,83.6443691 135.815929,84.8471764 133.059959,84.8471764 C130.30399,84.8471764 93.413425,84.8471764 22.388265,84.8471764 C18.6046211,84.9015192 16.2305045,83.6987119 15.2659151,81.2387543 C16.2988198,85.2377474 18.0934115,87.6262165 20.6496901,88.4041617 L21.5351622,88.3793151 Z" id="Shadow" fill="#373C50" opacity="0.049999997"></path>
              <ellipse id="Oval-2" fill="#9DA5B2" opacity="0.49682971" cx="77.9780892" cy="44.6366782" rx="8.8611465" ry="8.92733564"></ellipse>
            </g>
            <g id="Head" transform="translate(46.077962, 66.847751)">
              <rect id="Fill-Neck" fill="#FFDBC3" x="24.8112102" y="90.2733564" width="14.1778344" height="8.03460208"></rect>
              <path d="M24.8666613,92.9095399 C29.8205368,94.1558743 34.5279979,94.1558743 38.9890446,92.9095399 L38.9619056,90.2733564 L24.8112102,90.2733564" id="Shadow-Neck" fill="#804A54" opacity="0.300000012"></path>
              <path d="M3.37651393,45.6366782 C1.12550464,37.7048269 1.31487161e-13,32.2878296 1.31450243e-13,29.3856861 C1.31450243e-13,25.032471 2.23453822,4.61562804 30.1278981,1.25674132 C35.5595731,3.22482506 41.4095729,3.22482506 47.6778976,1.25674132 C57.0803846,-1.69538428 59.2726088,7.74008759 53.4818722,10.0200542 C58.7593582,13.0954365 60.8978609,24.119482 59.89738,43.0921905 L57.1027023,43.0921905 C56.7687702,36.1589365 56.387768,32.0488975 55.9596958,30.7620735 C55.5316236,29.4752496 53.8318227,26.7302755 50.8602929,22.5271512 C50.0500341,21.9996927 49.3086038,21.9996927 48.6360018,22.5271512 C47.627099,23.3183391 42.4475414,24.7889163 39.1585877,22.5271512 C35.869634,20.2653862 33.7599118,16.6510692 26.1291036,17.3388295 C18.4982954,18.0265898 9.00040694,20.9592137 7.72664527,35.4411839 L7.02921284,44.3755676 L3.37651393,45.6366782 Z" id="Fill-Haircut" fill="#BC7856"></path>
              <path d="M56.6987325,37.5862326 L56.7113376,37.5862326 L56.7113376,69.7343081 L56.6472993,69.7343081 C56.1674185,82.6332821 45.2838436,90.2733564 31.9001274,90.2733564 C18.5164111,90.2733564 7.58740477,82.6332821 7.10549292,69.7343081 L7.0889172,69.7343081 L7.0889172,37.5862326 L7.16348978,37.5862326 C7.87420994,23.9082136 14.7610383,17.0692042 27.8239749,17.0692042 C37.9893795,17.0692042 35.3671567,23.2722856 43.1554842,23.2722856 C50.9438117,23.2722856 48.3053045,19.2881955 52.1845042,24.1830358 C55.766065,28.7023101 56.5929315,34.4730861 56.6987325,37.5862326 Z" id="Face" stroke="#7F4953" fill="#FFDBC3" stroke-linecap="round" stroke-linejoin="round"></path>
              <path d="M31.9444992,69.2621124 L31.9444992,69.019043 C52.9300949,69.019043 52.9230148,62.972168 52.9230148,60.9880371 C52.9230148,59.6652832 53.9560551,59.0026042 56.0221359,59 L56.0221359,59.852505 L56.0221359,74.4776963 C53.5170903,83.7254176 45.4912114,88.8846497 31.9444992,89.9553926 L31.9444992,90.198462 C18.3977869,89.1277192 10.371908,83.9684871 7.86686244,74.7207657 L7.86686244,60.0955744 L7.86686244,59.2430694 C9.93294316,59.2456736 10.9659835,59.9083527 10.9659835,61.2311066 C10.9659835,63.2152374 10.9589035,69.2621124 31.9444992,69.2621124 Z" id="Combined-Shape" fill="#825059" opacity="0.152513587"></path>
              <path d="M8.91220193,42.1300399 C9.72014696,30.8124916 13.2902775,23.9611538 19.6225936,21.5760266 C25.9549096,19.1908994 30.641409,19.1908994 33.6820918,21.5760266 C37.73148,24.1799781 41.1648137,25.4055978 43.982093,25.2528858 C48.2080118,25.0238176 50.4540182,22.0729583 51.4651754,24.0175308 C50.5314667,22.4202294 49.9312769,21.6063946 49.664606,21.5760266 C49.2645997,21.5304745 46.4595795,23.4759188 43.4643995,23.2863001 C40.4692195,23.0966814 36.9998297,21.018722 33.6820918,18.0192592 C31.4702666,16.0196174 26.1905001,16.3011394 17.8427925,18.8638253 C12.5377867,21.9873756 9.30261735,26.1251318 8.13728429,31.2770937 C6.97195122,36.4290556 6.89810833,40.0467044 7.91575562,42.1300399 L8.91220193,42.1300399 Z" id="Shadow-Haircut" fill="#DF9F84" opacity="0.5"></path>
              <path d="M7.0889172,58.1349481 L7.0889172,44.7439446 C3.66320394,44.7439446 0.88611465,47.9728313 0.88611465,51.4241894 C0.88611465,54.8755475 3.66320394,58.1349481 7.0889172,58.1349481 Z" id="Ear-1" stroke="#7F4953" fill="#FFDBC3" stroke-linecap="round" stroke-linejoin="round"></path>
              <path d="M63.8002548,58.1349481 L63.8002548,44.7439446 C60.3745415,44.7439446 57.5974522,47.9728313 57.5974522,51.4241894 C57.5974522,54.8755475 60.3745415,58.1349481 63.8002548,58.1349481 Z" id="Ear-2" stroke="#373C50" stroke-width="4" fill="#373C50" stroke-linecap="round" stroke-linejoin="round" transform="translate(60.698854, 51.439446) scale(-1, 1) translate(-60.698854, -51.439446) "></path>
              <path d="M3.20766819,45.6366782 C-4.9577603,22.7846463 2.46622504,8.4614213 25.4796242,2.66700325 C34.9306672,0.287376764 33.2697713,4.80364097 45.033269,1.72021361 C56.7967668,-1.36321374 61.6165091,6.22270945 52.1461725,9.96969305 C57.9931689,9.96969305 60.5912277,21.0728628 59.9403488,43.2792023" id="Haircut" stroke="#905F64" stroke-linecap="round" stroke-linejoin="round"></path>
              <path d="M19.4945223,72.4186851 C21.890518,75.3944637 26.0257197,76.8823529 31.9001274,76.8823529 C37.774535,76.8823529 41.9097367,75.3944637 44.3057325,72.4186851" id="Smile" stroke="#7F4953" stroke-width="2" stroke-linecap="round" stroke-linejoin="round"></path>
              <path d="M27.4695861,61.7428058 C27.4616452,64.6939687 28.932364,66.1695502 31.8817425,66.1695502 C34.831121,66.1695502 36.3141071,64.6816609 36.3307006,61.7058824" id="Nose" stroke="#7F4953" stroke-linecap="round" stroke-linejoin="round"></path>
              <polygon id="Rectangle-2" fill="#F7F9F9" opacity="0.200000003" points="20.3806369 43.8512111 24.8112102 43.8512111 20.3806369 54.5640138 15.9500637 54.5640138"></polygon>
              <polygon id="Rectangle-2" fill="#F7F9F9" opacity="0.200000003" points="15.6852677 43.8512111 17.722293 43.8512111 13.2917197 54.5640138 11.2546945 54.5640138"></polygon>
              <polygon id="Rectangle-2" fill="#F7F9F9" opacity="0.200000003" points="51.3946497 43.8512111 55.8252229 43.8512111 51.3946497 54.5640138 46.9640764 54.5640138"></polygon>
              <polygon id="Rectangle-2" fill="#F7F9F9" opacity="0.200000003" points="46.9640764 43.8512111 49.0011017 43.8512111 44.5705285 54.5640138 42.5335032 54.5640138"></polygon>
              <ellipse id="Eye-1" fill="#373C50" cx="17.722293" cy="49.2076125" rx="2.65834395" ry="2.67820069"></ellipse>
              <ellipse id="Eye-2" fill="#373C50" cx="46.0779618" cy="49.2076125" rx="2.65834395" ry="2.67820069"></ellipse>
              <path d="M9.30420382,56.7958478 L25.4742788,56.7958478" id="Line-3" stroke="#707482" opacity="0.200000003" stroke-linecap="square"></path>
              <path d="M38.5459873,56.7958478 L54.7160622,56.7958478" id="Line-3" stroke="#707482" opacity="0.200000003" stroke-linecap="square"></path>
              <path d="M27.9126115,49.6539792 L36.109172,49.6539792" id="Line-3" stroke="#707482" opacity="0.200000003" stroke-linecap="square"></path>
              <rect id="Glass-1" stroke="#373C50" stroke-width="2" fill-opacity="0.0504415761" fill="#F7F9F9" stroke-linecap="round" stroke-linejoin="round" x="7.97503185" y="42.9584775" width="18.6084076" height="12.4982699" rx="2"></rect>
              <rect id="Glass-2" stroke="#373C50" stroke-width="2" fill-opacity="0.0504415761" fill="#F7F9F9" stroke-linecap="round" stroke-linejoin="round" x="37.2168153" y="42.9584775" width="18.6084076" height="12.4982699" rx="2"></rect>
              <rect id="Glasses-Connection" fill="#373C50" x="26.5834395" y="47.4221453" width="10.6333758" height="1.78546713"></rect>
              <path d="M40.7612739,34.0311419 L50.508535,37.6020761" id="Eyebrow-1" stroke="#7F4953" stroke-width="2"></path>
              <path d="M14.1778344,35.816609 L24.8112102,34.0311419" id="Eyebrow-2" stroke="#7F4953" stroke-width="2"></path>
              <ellipse id="Microphone-Shadow" fill="#373C50" opacity="0.200000003" cx="32.786242" cy="77.7750865" rx="5.3166879" ry="5.35640138"></ellipse>
              <ellipse id="Microphone" fill="#373C50" cx="32.786242" cy="75.9896194" rx="5.3166879" ry="5.35640138"></ellipse>
              <path d="M31.9001274,78.6678201 C51.3946497,72.0593684 61.1419108,63.1320327 61.1419108,51.8858131" id="Microphone-Connection-Shadow" stroke="#373C50" stroke-width="4" opacity="0.200000003"></path>
              <path d="M31.9001274,76.8823529 C51.3946497,70.2739012 61.1419108,61.3465656 61.1419108,50.100346" id="Microphone-Connection" stroke="#373C50" stroke-width="4"></path>
              <path d="M24.4297286,89.2114532 L24.4297286,98.1907013" id="Neck-1" stroke="#7F4953"></path>
              <path d="M39.4123947,89.1871612 L39.4123947,98.1282013" id="Neck-2" stroke="#7F4953"></path>
            </g>
            <g id="Balloon" transform="translate(117.853248, 0.000000)" fill-rule="nonzero">
              <g>
                <use fill="black" fill-opacity="1" filter="url(#filter-3)" xlink:href="#path-2"></use>
                <use stroke-opacity="0.246065444" stroke="#373C50" stroke-width="1" fill="#FFFFFF" fill-rule="evenodd" xlink:href="#path-2"></use>
              </g>
              <path d="M40.7092212,45.3039911 C39.4971617,45.7617363 38.1031982,45.5095107 37.1781968,44.6640854 C36.2505714,43.8209619 35.9738778,42.5504772 36.4760983,41.4458431 C36.9757736,40.3434809 38.1596127,39.6218456 39.46902,39.6218456 C40.3274392,39.6218456 41.1525344,39.9347974 41.7598433,40.4882863 C42.3671391,41.0417871 42.7104937,41.7938064 42.7104937,42.5761858 C42.7104937,43.7719361 41.9212807,44.8485897 40.7092212,45.3039911 Z M33.4833734,21.3539143 C34.2905603,21.0970134 34.9516598,20.5598764 35.3232085,19.8568948 C36.0765392,18.4112327 37.6678223,17.4817162 39.4231012,17.4653942 C41.9061275,17.493419 43.9355416,19.2776734 44.0610968,21.5360869 C44.1251574,23.3787381 42.8593362,25.0416082 40.9451782,25.6324882 C38.1674845,26.4615616 36.2789755,28.8110316 36.2482099,31.4734293 L36.2482099,33.8182358 C36.2482099,35.4413472 37.6908473,36.756254 39.4717752,36.756254 C41.252703,36.756254 42.6978988,35.441407 42.6978988,33.8182358 L42.6978988,31.4734293 C42.6978988,31.3006075 43.0182021,31.1978448 43.0182021,31.1978448 C45.2552348,30.5135767 47.1924177,29.1916747 48.5402657,27.423758 C49.8881136,25.6581729 50.5774204,23.5445647 50.5030976,21.3935893 C50.3980354,18.782549 49.1911319,16.309319 47.1360688,14.4851421 C45.0810058,12.6634764 42.3366359,11.631245 39.4689413,11.6055363 L39.4023197,11.6055363 C37.34214,11.617214 35.3255175,12.1567055 33.5830303,13.1656317 C31.843167,14.1722143 30.4492034,15.606158 29.562577,17.3040636 C29.1910218,18.0047135 29.1397764,18.8127417 29.4216457,19.5484271 C29.7035149,20.2841124 30.2954148,20.8889827 31.0667195,21.2252875 C31.7896257,21.5641093 32.6761865,21.6108153 33.4833734,21.3539143 Z" id="Question-Mark" fill="#373C50" opacity="0.75"></path>
            </g>
          </g>
          <g id="Desk" transform="translate(52.000000, 230.000000)" opacity="0.100000001" stroke="#373C50" stroke-linecap="round" stroke-linejoin="round" stroke-width="2">
            <path d="M0.831263385,1.50617284 L7.94466879,1.50617284" id="Line"></path>
            <path d="M18.5039526,1.50617284 L76.3003714,1.50617284" id="Line"></path>
            <path d="M210.232135,1.50617284 L219.123892,1.50617284" id="Line"></path>
            <path d="M227.794,1.50617284 L241.131635,1.50617284" id="Line"></path>
          </g>
        </g>
      </g>
    </g>
  </g>
</svg>