<svg xmlns="http://www.w3.org/2000/svg" xmlns:xlink="http://www.w3.org/1999/xlink" width="86px" height="64px" viewBox="0 0 86 64" version="1.1" class="custom-block__image replaced-svg">
  <g id="Main-Page" stroke="none" stroke-width="1" fill-rule="evenodd" fill="#00cc99">
    <g id="HelpCenter–MainPage-(D)" transform="translate(-677.000000, -656.000000)">
      <g id="Actions" transform="translate(135.000000, 555.000000)">
        <g id="FAQ" transform="translate(400.000000, 30.000000)">
          <g id="Icon" transform="translate(142.000000, 71.000000)">
            <path d="M32,2.04809 C40.406289,2.04809 48.054085,4.36908 53.46875,8.19957 C46.6979,8.62617 40.542908,10.72178 35.78125,14.03879 L14,14.03879 C13.9376379,14.0329228 13.8748621,14.0329228 13.8125,14.03879 C13.4552344,14.0722577 13.142976,14.2936343 12.9933496,14.6195295 C12.8437231,14.9454246 12.8794604,15.326327 13.0870996,15.6187545 C13.2947387,15.9111819 13.6427344,16.0707077 14,16.03724 L33.21875,16.03724 C31.222979,17.82062 29.591807,19.87854 28.375,22.09504 C28.2551458,22.0504565 28.1278463,22.0292568 28,22.03259 L14,22.03259 C13.9376379,22.0267228 13.8748621,22.0267228 13.8125,22.03259 C13.2602153,22.0843266 12.8544733,22.5736356 12.90625,23.1254923 C12.9580267,23.6773491 13.4477153,24.0827765 14,24.03104 L27.40625,24.03104 C26.618778,25.93183 26.148314,27.94133 26.03125,30.02642 C26.020834,30.0262574 26.010416,30.0262574 26,30.02642 L14,30.02642 C13.9376379,30.0205528 13.8748621,30.0205528 13.8125,30.02642 C13.2633391,30.081765 12.86177,30.5695288 12.9132904,31.1186401 C12.9648108,31.6677515 13.4501137,32.0724334 14,32.02482 L26,32.02482 C26.010416,32.0249826 26.020834,32.0249826 26.03125,32.02482 C26.275421,36.48612 28.163242,40.59492 31.21875,44.01552 L26,44.01552 C25.7121804,44.0168465 25.4388857,44.1420154 25.25,44.35902 C21.140872,49.19482 17.795954,50.63442 13.5625,52.35282 C16.140958,48.73712 17.086226,45.28122 17.96875,42.29812 C18.1149304,41.7909622 17.841225,41.2576525 17.34375,41.08032 C7.859134,37.46202 2,30.93142 2,23.03181 C2,17.33131 5.243191,12.12998 10.65625,8.29325 C16.069309,4.45651 23.627737,2.04809 32,2.04809 Z" id="Path" opacity="0.149999991"></path>
            <path d="M32,0.04964 C23.245101,0.04964 15.30515,2.52363 9.5,6.63828 C3.69485,10.75293 0,16.57193 0,23.03181 C0,31.64012 6.32427,38.58852 15.78125,42.48552 C14.688119,46.22162 13.597985,50.09282 9.3125,54.28882 C8.98081037,54.6275752 8.93286041,55.1525386 9.19769741,55.5456959 C9.46253441,55.9388532 9.96731439,56.0920658 10.40625,55.91252 C17.01278,53.02982 20.953559,52.21262 26.375,46.01402 L33,46.01402 C33.0726973,46.0220123 33.1460527,46.0220123 33.21875,46.01402 C33.745699,46.48372 34.301795,46.92242 34.875,47.35672 C40.317629,51.48042 47.784399,54.00782 56,54.00782 L60.59375,54.00782 C65.656697,60.17942 69.402205,61.03292 75.5625,63.90632 C76.0102938,64.1756891 76.5901509,64.0550798 76.8931807,63.6295407 C77.1962106,63.2040016 77.1202007,62.6170679 76.71875,62.28262 C72.739158,58.11732 72.171501,54.28042 71.1875,50.47932 C80.064133,46.57302 86,39.60822 86,31.02562 C86,24.59023 82.567628,18.78705 77.125,14.6633 C71.682372,10.53956 64.215604,8.04344 56,8.04344 C56.0079242,7.72931817 55.8693656,7.42934061 55.625,7.23157 C49.736347,2.66477 41.25836,0.04964 32,0.04964 Z M32,2.04809 C40.406289,2.04809 48.054085,4.36908 53.46875,8.19957 C46.6979,8.62617 40.542908,10.72178 35.78125,14.03879 L14,14.03879 C13.9376379,14.0329228 13.8748621,14.0329228 13.8125,14.03879 C13.4552344,14.0722577 13.142976,14.2936343 12.9933496,14.6195295 C12.8437231,14.9454246 12.8794604,15.326327 13.0870996,15.6187545 C13.2947387,15.9111819 13.6427344,16.0707077 14,16.03724 L33.21875,16.03724 C31.222979,17.82062 29.591807,19.87854 28.375,22.09504 C28.2551458,22.0504565 28.1278463,22.0292568 28,22.03259 L14,22.03259 C13.9376379,22.0267228 13.8748621,22.0267228 13.8125,22.03259 C13.2602153,22.0843266 12.8544733,22.5736356 12.90625,23.1254923 C12.9580267,23.6773491 13.4477153,24.0827765 14,24.03104 L27.40625,24.03104 C26.618778,25.93183 26.148314,27.94133 26.03125,30.02642 C26.020834,30.0262574 26.010416,30.0262574 26,30.02642 L14,30.02642 C13.9376379,30.0205528 13.8748621,30.0205528 13.8125,30.02642 C13.2633391,30.081765 12.86177,30.5695288 12.9132904,31.1186401 C12.9648108,31.6677515 13.4501137,32.0724334 14,32.02482 L26,32.02482 C26.010416,32.0249826 26.020834,32.0249826 26.03125,32.02482 C26.275421,36.48612 28.163242,40.59492 31.21875,44.01552 L26,44.01552 C25.7121804,44.0168465 25.4388857,44.1420154 25.25,44.35902 C21.140872,49.19482 17.795954,50.63442 13.5625,52.35282 C16.140958,48.73712 17.086226,45.28122 17.96875,42.29812 C18.1149304,41.7909622 17.841225,41.2576525 17.34375,41.08032 C7.859134,37.46202 2,30.93142 2,23.03181 C2,17.33131 5.243191,12.12998 10.65625,8.29325 C16.069309,4.45651 23.627737,2.04809 32,2.04809 Z M56,10.04189 C63.80658,10.04189 70.854424,12.42818 75.90625,16.25582 C80.958076,20.08346 84,25.3006 84,31.02562 C84,38.95462 78.472149,45.46622 69.625,49.07412 C69.154985,49.2624129 68.8999855,49.7720254 69.03125,50.26072 C69.847912,53.21152 70.417634,56.72912 72.75,60.40912 C68.764771,58.68592 65.634788,57.23182 61.78125,52.38402 C61.5913226,52.1470137 61.3038611,52.0091425 61,52.00932 L56,52.00932 C48.19342,52.00932 41.145575,49.59182 36.09375,45.76422 C31.041925,41.93652 28,36.75072 28,31.02562 C28,25.3006 31.041924,20.08346 36.09375,16.25582 C41.145576,12.42818 48.193422,10.04189 56,10.04189 Z M40,25.03026 C37.250421,25.03026 35,27.27891 35,30.02642 C35,32.77382 37.250421,35.02252 40,35.02252 C42.749579,35.02252 45,32.77382 45,30.02642 C45,27.27891 42.749579,25.03026 40,25.03026 Z M56,25.03026 C53.250421,25.03026 51,27.27891 51,30.02642 C51,32.77382 53.250421,35.02252 56,35.02252 C58.749579,35.02252 61,32.77382 61,30.02642 C61,27.27891 58.749579,25.03026 56,25.03026 Z M72,25.03026 C69.250421,25.03026 67,27.27891 67,30.02642 C67,32.77382 69.250421,35.02252 72,35.02252 C74.749579,35.02252 77,32.77382 77,30.02642 C77,27.27891 74.749579,25.03026 72,25.03026 Z M40,27.02871 C41.668699,27.02871 43,28.35896 43,30.02642 C43,31.69382 41.668699,33.02402 40,33.02402 C38.331301,33.02402 37,31.69382 37,30.02642 C37,28.35896 38.331301,27.02871 40,27.02871 Z M56,27.02871 C57.668699,27.02871 59,28.35896 59,30.02642 C59,31.69382 57.668699,33.02402 56,33.02402 C54.331301,33.02402 53,31.69382 53,30.02642 C53,28.35896 54.331301,27.02871 56,27.02871 Z M72,27.02871 C73.668699,27.02871 75,28.35896 75,30.02642 C75,31.69382 73.668699,33.02402 72,33.02402 C70.331301,33.02402 69,31.69382 69,30.02642 C69,28.35896 70.331301,27.02871 72,27.02871 Z" id="Shape" fill-rule="nonzero"></path>
          </g>
        </g>
      </g>
    </g>
  </g>
</svg>