<svg width="16px" height="12px" viewBox="0 0 16 12" version="1.1" xmlns="http://www.w3.org/2000/svg" xmlns:xlink="http://www.w3.org/1999/xlink">
  <g id="Article-Page" stroke="none" stroke-width="1" fill="none" fill-rule="evenodd">
    <g id="HelpCenter–ArticlePage-(D)" transform="translate(-615.000000, -1077.000000)" fill="#05C896" fill-rule="nonzero">
      <g id="Question" transform="translate(135.000000, 942.000000)">
        <g id="Buttons" transform="translate(445.000000, 116.000000)">
          <g id="Green">
            <path d="M49.4684251,19.0002882 C49.0770564,19.0065289 48.7034496,19.1718976 48.4247247,19.462051 L40.656178,27.2747168 L37.5250769,24.5789038 C37.2167109,24.290288 36.8090225,24.1467749 36.3968557,24.1810856 C35.9847269,24.2169671 35.6051995,24.4260172 35.3427943,24.7629819 C35.0818692,25.0983969 34.9617867,25.5336649 35.0107078,25.9642362 C35.0596326,26.396365 35.274597,26.7879568 35.6037194,27.0500697 L39.7785209,30.6444871 C40.3730126,31.149942 41.2313898,31.1125201 41.7828811,30.5571227 L50.5120116,21.7707692 C50.9730615,21.321467 51.1243032,20.6225526 50.8930192,20.0078673 C50.6617427,19.3947395 50.0954043,18.9938022 49.4683112,19.0000725 L49.4684251,19.0002882 Z" id="Shape"></path>
          </g>
        </g>
      </g>
    </g>
  </g>
</svg>