<svg version="1.2" xmlns="http://www.w3.org/2000/svg" viewBox="0 0 16 16" width="16" height="16"><defs><clipPath clipPathUnits="userSpaceOnUse" id="cp1"><path d="m-1491-1694h1600v1812h-1600z"/></clipPath></defs><style>.a{fill:#FFFFFF}</style><g clip-path="url(#cp1)"><path fill-rule="evenodd" class="a" d="m15.3 11c-0.1 1.2-0.4 2.2-1.2 3.1-0.9 0.8-1.9 1.1-3.1 1.2-1.2 0-4.8 0-6 0-1.2-0.1-2.2-0.4-3.1-1.2-0.8-0.9-1.1-1.9-1.2-3.1 0-1.2 0-4.8 0-6 0.1-1.2 0.4-2.2 1.2-3.1 0.9-0.8 1.9-1.1 3.1-1.2 1.2 0 4.8 0 6 0 1.2 0.1 2.2 0.4 3.1 1.2 0.8 0.9 1.1 1.9 1.2 3.1 0 1.2 0 4.8 0 6zm-1.3-3c0-1.1 0.1-3.3-0.3-4.3-0.3-0.7-0.7-1.1-1.4-1.4-0.9-0.4-3.2-0.3-4.3-0.3-1.1 0-3.3-0.1-4.3 0.3-0.7 0.3-1.1 0.7-1.4 1.4-0.4 0.9-0.3 3.2-0.3 4.3 0 1.1-0.1 3.3 0.3 4.3 0.3 0.7 0.7 1.1 1.4 1.4 0.9 0.4 3.2 0.3 4.3 0.3 1.1 0 3.4 0.1 4.3-0.3 0.7-0.3 1.1-0.7 1.4-1.4 0.4-0.9 0.3-3.2 0.3-4.3zm-1.2-3.9c0 0.5-0.4 0.9-0.9 0.9-0.5 0-0.9-0.4-0.9-0.9 0-0.5 0.4-0.9 0.9-0.9 0.5 0 0.9 0.4 0.9 0.9zm-1 3.9c0 2.1-1.7 3.8-3.8 3.8-2.1 0-3.7-1.7-3.7-3.8 0-2.1 1.6-3.8 3.7-3.8 2.1 0 3.8 1.7 3.8 3.8zm-1.4 0c0-1.3-1.1-2.4-2.4-2.4-1.3 0-2.4 1.1-2.4 2.4 0 1.3 1.1 2.4 2.4 2.4 1.3 0 2.4-1.1 2.4-2.4z"/></g></svg>