<svg version="1.2" xmlns="http://www.w3.org/2000/svg" viewBox="0 0 18 15" width="18" height="15"><defs><clipPath clipPathUnits="userSpaceOnUse" id="cp1"><path d="m-1406-1694h1600v1812h-1600z"/></clipPath></defs><style>.a{fill:#FFFFFF}</style><g clip-path="url(#cp1)"><path class="a" d="m17.6 2.7q-0.9 0.4-2 0.5c0.7-0.4 1.3-1.1 1.5-1.9q-1 0.6-2.2 0.8c-0.7-0.7-1.6-1.1-2.6-1.1-1.9 0-3.5 1.6-3.5 3.5q0 0.5 0.1 0.8c-3-0.1-5.6-1.5-7.3-3.7q-0.5 0.8-0.5 1.8c0 1.2 0.6 2.3 1.6 3q-0.9-0.1-1.6-0.5 0 0 0 0.1c0 1.7 1.2 3.1 2.8 3.4q-0.4 0.2-0.9 0.2-0.4 0-0.7-0.1c0.5 1.4 1.8 2.4 3.3 2.4-1.2 1-2.7 1.6-4.4 1.6q-0.4 0-0.8-0.1c1.6 1 3.4 1.6 5.4 1.6 6.5 0 10.1-5.4 10.1-10.1q0-0.2-0.1-0.4 1.1-0.8 1.8-1.8z"/></g></svg>