<svg version="1.2" xmlns="http://www.w3.org/2000/svg" viewBox="0 0 27 23" width="27" height="23"><defs><clipPath clipPathUnits="userSpaceOnUse" id="cp1"><path d="m-485-789h1300v1625h-1300z"/></clipPath></defs><style>.a{fill:#d8262f}</style><g clip-path="url(#cp1)"><path class="a" d="m25.5 0.9c-2.5 0.1-7.9 0.7-11 2.7-0.3 0.1-0.4 0.4-0.4 0.6v17.2c0 0.5 0.9 0.9 1.4 0.6 3.2-1.6 7.7-2.2 10-2.3 0.8 0 1.4-0.6 1.4-1.3v-16.2c0-0.8-0.5-1.4-1.4-1.3zm-13.1 2.7c-3.1-2-8.5-2.6-11.1-2.7-0.8-0.1-1.3 0.5-1.3 1.3v16.2c0 0.7 0.5 1.3 1.3 1.3 2.4 0.1 6.9 0.7 10.1 2.3 0.5 0.3 1.4-0.1 1.4-0.6v-17.2c0-0.2-0.1-0.5-0.4-0.6z"/></g></svg>