<svg version="1.2" xmlns="http://www.w3.org/2000/svg" viewBox="0 0 31 30" width="31" height="30"><defs><clipPath clipPathUnits="userSpaceOnUse" id="cp1"><path d="m-181-782h1300v1625h-1300z"/></clipPath></defs><style>.a{fill:#d8262f}</style><g clip-path="url(#cp1)"><path fill-rule="evenodd" class="a" d="m30.9 29.4c-0.2 0.3-0.5 0.6-0.9 0.6h-28.1c-0.5 0-0.9-0.4-0.9-0.9v-4.6h1.9v-1.5h-1.9v-6h1.9v-1.4h-1.9v-5.8h1.9v-1.5h-1.9v-7.3c0-0.3 0.2-0.7 0.5-0.8 0.4-0.1 0.8-0.1 1 0.2l16.5 16.5v-9.7l2-3.8c0.3-0.6 0.9-1 1.6-1 0.7 0 1.3 0.4 1.6 1l2.1 3.8v16.8l4.4 4.4c0.2 0.3 0.3 0.7 0.2 1zm-14.5-6.6l-8.2-8.2v8.2zm8.1-0.3h-3.7v2.2h3.7zm0-14.8l-1.9-3.4-1.8 3.4v13.4h3.7z"/></g></svg>