<svg version="1.2" xmlns="http://www.w3.org/2000/svg" viewBox="0 0 28 29" width="28" height="29"><defs><clipPath clipPathUnits="userSpaceOnUse" id="cp1"><path d="m-484-615h1300v1625h-1300z"/></clipPath></defs><style>.a{fill:#d8262f}</style><g clip-path="url(#cp1)"><path fill-rule="evenodd" class="a" d="m0 18.4q0-0.8 0.5-1.3l15.7-15.6q0.5-0.5 2.2-0.5h7.8q0.8 0 1.3 0.5 0.5 0.5 0.5 1.2v7.9q0 1.7-0.5 2.2l-3.9 3.9h-1.7q-1.1 0-1.9 0.8-0.8 0.7-0.8 1.8v0.9h-0.8q-1.1 0-1.9 0.8-0.8 0.7-0.8 1.8v1.7l-3.9 3.9q-0.5 0.6-1.2 0.6-0.7 0-1.2-0.6l-8.9-8.8q-0.5-0.5-0.5-1.2zm18.5-12.9q-1 1-1 2.5 0 1.4 1 2.4 1 1.1 2.5 1.1 1.4 0 2.5-1.1 1-1 1-2.4 0-1.5-1-2.5-1.1-1-2.5-1-1.5 0-2.5 1zm9 17q0.5 0.5 0.5 1.2 0 0.7-0.5 1.2-0.5 0.6-1.3 0.6h-1.7v1.7q0 0.7-0.5 1.2-0.5 0.6-1.2 0.6-0.8 0-1.3-0.6-0.5-0.5-0.5-1.2v-1.7h-1.8q-0.7 0-1.2-0.6-0.5-0.5-0.5-1.2 0-0.7 0.5-1.2 0.5-0.5 1.2-0.5h1.8v-1.8q0-0.7 0.5-1.2 0.5-0.5 1.3-0.5 0.7 0 1.2 0.5 0.5 0.5 0.5 1.2v1.8h1.7q0.8 0 1.3 0.5z"/></g></svg>