<svg version="1.2" xmlns="http://www.w3.org/2000/svg" viewBox="0 0 27 27" width="27" height="27"><defs><clipPath clipPathUnits="userSpaceOnUse" id="cp1"><path d="m-1091-616h1300v1625h-1300z"/></clipPath></defs><style>.a{fill:#d8262f}</style><g clip-path="url(#cp1)"><path class="a" d="m11 2c0-0.5-0.3-1-0.8-1.1-0.5-0.2-1 0-1.3 0.4l-8.3 10.6c-0.3 0.5-0.3 1.1 0 1.5l8.3 10.7c0.3 0.4 0.8 0.5 1.3 0.4 0.5-0.2 0.8-0.7 0.8-1.2v-4.7c6.4 0.1 9.4 1.3 11 2.7 1.5 1.2 1.7 2.7 2 4.2l0.1 0.4c0.1 0.6 0.6 1 1.2 1 0.6 0 1.1-0.5 1.1-1.1 0.2-3.3-0.1-8-2.4-11.9-2.2-3.9-6.2-6.8-13-7.1z"/></g></svg>