<svg version="1.2" xmlns="http://www.w3.org/2000/svg" viewBox="0 0 32 32" width="32" height="32"><defs><clipPath clipPathUnits="userSpaceOnUse" id="cp1"><path d="m-333-294h1300v1625h-1300z"/></clipPath></defs><style>.a{fill:#6e7f9c}</style><g clip-path="url(#cp1)"><path fill-rule="evenodd" class="a" d="m32 29.3l-2.4 2.4-7.9-7.9v-0.1c-2.2 1.8-5 2.8-8.1 2.8-7.3 0-13.3-5.9-13.3-13.2 0-7.4 6-13.3 13.3-13.3 7.3 0 13.3 5.9 13.3 13.3 0 3-1.1 5.9-2.9 8.1h0.1zm-8.5-16.1c0-5.5-4.4-10-9.9-10-5.5 0-10 4.5-10 10 0 5.5 4.5 9.9 10 9.9 5.5 0 9.9-4.4 9.9-9.9z"/></g></svg>