<svg version="1.2" xmlns="http://www.w3.org/2000/svg" viewBox="0 0 28 21" width="28" height="21"><defs><clipPath clipPathUnits="userSpaceOnUse" id="cp1"><path d="m-182-619h1300v1625h-1300z"/></clipPath></defs><style>.a{fill:#d8262f}</style><g clip-path="url(#cp1)"><path fill-rule="evenodd" class="a" d="m23.8 5.9l3.6 4.9v6.1h-2.4q0 1.5-1 2.6-1.1 1.1-2.7 1.1-1.5 0-2.5-1.1-1.1-1.1-1.1-2.6h-7.3q0 1.5-1.1 2.6-1.1 1.1-2.6 1.1-1.6 0-2.6-1.1-1.1-1.1-1.1-2.6h-2.5v-13.4q0-1.1 0.8-1.8 0.7-0.7 1.7-0.7h17.1v4.9zm-17.1 12.9q0.8 0 1.3-0.6 0.6-0.5 0.6-1.3 0-0.8-0.6-1.3-0.5-0.5-1.3-0.5-0.8 0-1.3 0.5-0.5 0.5-0.5 1.3 0 0.8 0.5 1.3 0.5 0.6 1.3 0.6zm16.5-11h-3.1v3h5.5zm-1.9 11q0.8 0 1.3-0.5 0.6-0.6 0.6-1.3 0-0.8-0.6-1.3-0.5-0.6-1.3-0.6-0.8 0-1.3 0.6-0.5 0.5-0.5 1.3 0 0.7 0.5 1.3 0.5 0.5 1.3 0.5z"/></g></svg>