<svg version="1.2" xmlns="http://www.w3.org/2000/svg" viewBox="0 0 27 27" width="27" height="27"><defs><clipPath clipPathUnits="userSpaceOnUse" id="cp1"><path d="m-1093-787h1300v1625h-1300z"/></clipPath></defs><style>.a{fill:#ffffff}</style><g clip-path="url(#cp1)"><path fill-rule="evenodd" class="a" d="m16.3 6.4c0 2.6-1 5.3-2.6 7-0.3 0.9-0.2 1.4-0.1 1.8-1 1.3-1.7 3-1.7 4.9 0 2 0.8 4 2.2 5.5q-1.7 0.1-3.4 0.1c-5.1 0-10.7-0.7-10.7-3.6v-0.8c0-2.1 3.8-4.3 7-5.5 0.3-0.1 1.4-0.7 0.8-2.4-1.6-1.6-2.7-4.4-2.7-7 0-4.1 2.5-6.2 5.6-6.2 3.1 0 5.6 2.1 5.6 6.2zm10.2 13.7c0 3.6-2.9 6.5-6.5 6.5-3.6 0-6.5-2.9-6.5-6.5 0-3.6 2.9-6.5 6.5-6.5 3.6 0 6.5 2.9 6.5 6.5zm-7.4-1h-2.7v1.9h2.7v2.7h1.8v-2.7h2.6v-1.9h-2.6v-2.6h-1.8z"/></g></svg>