<svg version="1.2" xmlns="http://www.w3.org/2000/svg" viewBox="0 0 28 28" width="28" height="28"><defs><clipPath clipPathUnits="userSpaceOnUse" id="cp1"><path d="m-790-613h1300v1625h-1300z"/></clipPath></defs><style>.a{fill:#d8262f}</style><g clip-path="url(#cp1)"><path fill-rule="evenodd" class="a" d="m27.3 6.3l-2.8 2.8v16.9c0 1-0.8 1.8-1.8 1.8h-20.4c-1 0-1.9-0.8-1.9-1.8v-20.4c0-1.1 0.9-1.9 1.9-1.9h16.3l3.1-3c0.6-0.6 1.6-0.6 2.2 0l3.4 3.4c0.6 0.6 0.6 1.6 0 2.2zm-4.2 1.7l-3-3-8.9 8.8-0.9 3.9 3.9-0.9zm2.7-2.8l-3-3-1.7 1.8 3 3z"/></g></svg>