<svg version="1.2" xmlns="http://www.w3.org/2000/svg" viewBox="0 0 192 192" width="192" height="192"><defs><clipPath clipPathUnits="userSpaceOnUse" id="cp1"><path d="m-320-1060h3840v1892h-3840z"/></clipPath></defs><style>.a{fill:#f28800}.b{fill:#fff}</style><g clip-path="url(#cp1)"><path class="a" d="m96 192c-53.1 0-96-42.9-96-96 0-53.1 42.9-96 96-96 53.1 0 96 42.9 96 96 0 53.1-42.9 96-96 96z"/><path fill-rule="evenodd" class="b" d="m146.5 62.7v59c0 5-3.9 7.9-9.1 9.1l-41.1 7.7-41.2-7.7c-5.2-1.2-9.1-4.1-9.1-9.1v-59c0-5 3.9-10 9.1-9.1l41.2 7.7 41.1-7.7c5.2-0.9 9.1 4.1 9.1 9.1zm-9.1-0.1l-36.6 7.8v59l36.6-7.7zm-45.7 7.8l-36.6-7.8v59.1l36.6 7.7z"/></g></svg>