<svg version="1.2" xmlns="http://www.w3.org/2000/svg" viewBox="0 0 168 168" width="168" height="168"><defs><clipPath clipPathUnits="userSpaceOnUse" id="cp1"><path d="m-867-218h1920v890h-1920z"/></clipPath></defs><style>.a{fill:#e3e7f4}.b{fill:#4d4e55}</style><g clip-path="url(#cp1)"><path class="a" d="m84 168c-46.5 0-84-37.5-84-84 0-46.5 37.5-84 84-84 46.5 0 84 37.5 84 84 0 46.5-37.5 84-84 84z"/><path fill-rule="evenodd" class="b" d="m72.3 34.4c21.8 0 22.5 0 23.2 0.4 0.9 0.5 20.4 20.1 20.9 20.9 0.2 0.6 0.3 1.7 0.3 8.1v7.5l1.5 0.8c2 1 3.4 2.1 5.3 4.1 3.7 3.9 5.5 8.5 5.5 14 0 4.1-1 7.6-3 10.9l-1 1.5 7.7 7.7c8.1 8.1 8.1 8.1 7.8 9.6-0.2 0.8-0.8 1.6-1.5 2-0.7 0.3-2 0.4-2.6 0-0.2-0.1-3.8-3.6-8-7.7l-7.5-7.5-1.1 0.7c-0.6 0.4-1.6 1-2.1 1.2l-1 0.5-0.1 8.5c0 8.3 0 8.6-0.5 9.7-1.2 3.3-3.6 5.7-6.8 6.8l-1.3 0.5h-59l-1.3-0.5c-3.2-1.1-5.7-3.6-6.8-6.8l-0.5-1.3v-82.9l0.5-1.3c1.2-3.7 4.3-6.4 8.1-7.2 0.5-0.1 10.9-0.1 23.3-0.2zm18.9 5.9h-20.5c-23 0-21.5-0.1-23 1.5-1.7 1.6-1.5-2.2-1.5 42.8 0 44.9-0.2 41.2 1.5 42.7 1.5 1.6-0.8 1.5 30.8 1.5 31.6 0 29.3 0.1 30.8-1.5 1.4-1.4 1.5-1.7 1.5-9.6v-7h-2.7c-2.2 0-3-0.1-4.6-0.6-3.6-0.9-6.4-2.5-9.2-5.2-2.7-2.6-4.4-5.4-5.6-9.1-0.5-1.6-0.5-2-0.5-5.6 0-3.5 0-3.9 0.5-5.5 1.2-3.8 2.9-6.6 5.6-9.1 2.8-2.7 5.6-4.3 9.2-5.3 1.6-0.4 2.4-0.5 4.6-0.5h2.7v-9.9h-8.6c-8.3 0-8.7 0-9.4-0.4-0.5-0.3-0.9-0.7-1.2-1.2-0.4-0.7-0.4-1.1-0.4-9.4zm6 4.3c-0.1 0-0.1 2.1-0.1 4.7v4.7h9.5l-4.7-4.7c-2.6-2.6-4.7-4.7-4.7-4.7zm-2.6 41.1c-0.5 1.4-0.5 1.7-0.5 4.6 0 2.8 0 3.1 0.5 4.6 0.8 2.2 2 4.1 3.7 5.7 2.2 2.2 4.6 3.5 7.5 4.1 4.8 0.9 9.5-0.6 13.1-4.1 1.6-1.6 2.8-3.5 3.6-5.7 0.5-1.5 0.5-1.8 0.5-4.6 0-2.9 0-3.2-0.5-4.6-0.8-2.3-2-4.2-3.6-5.8-2.3-2.2-4.7-3.5-7.6-4.1-7.2-1.3-14.2 2.8-16.7 9.9z"/><path class="b" d="m53.6 66.2c-0.9 0.4-1.5 1.6-1.5 2.5 0 1 0.6 2.1 1.5 2.5 0.8 0.4 1.1 0.4 18 0.4 16.9 0 17.3 0 18.1-0.4 0.8-0.4 1.5-1.5 1.5-2.5 0-1-0.7-2.1-1.5-2.5-0.8-0.4-1.2-0.4-18.1-0.4-16.8 0-17.3 0-18 0.4z"/><path class="b" d="m53.6 77.9c-0.9 0.5-1.5 1.6-1.5 2.5 0 1 0.6 2.1 1.5 2.6 0.8 0.4 1.1 0.4 14.1 0.4 13 0 13.4 0 14.1-0.4 0.9-0.5 1.6-1.6 1.6-2.6 0-0.9-0.7-2-1.6-2.5-0.7-0.4-1.1-0.4-14.1-0.4-12.9 0-13.4 0-14.1 0.4z"/><path class="b" d="m53.6 89.7c-0.9 0.4-1.5 1.6-1.5 2.5 0 1 0.6 2.1 1.5 2.5 0.8 0.4 1.1 0.4 14.1 0.4 13 0 13.4 0 14.1-0.4 0.9-0.4 1.6-1.5 1.6-2.5 0-1-0.7-2.1-1.6-2.5-0.7-0.4-1.1-0.4-14.1-0.4-12.9 0-13.4 0-14.1 0.4z"/><path class="b" d="m53.6 101.4c-0.9 0.5-1.5 1.6-1.5 2.5 0 1 0.6 2.1 1.5 2.6 0.8 0.4 1.1 0.4 14.1 0.4 13 0 13.4 0 14.1-0.4 0.9-0.5 1.6-1.6 1.6-2.6 0-0.9-0.7-2-1.6-2.5-0.7-0.4-1.1-0.4-14.1-0.4-12.9 0-13.4 0-14.1 0.4z"/></g></svg>