<svg version="1.2" xmlns="http://www.w3.org/2000/svg" viewBox="0 0 192 192" width="192" height="192"><defs><clipPath clipPathUnits="userSpaceOnUse" id="cp1"><path d="m-2598-1060h3840v1892h-3840z"/></clipPath></defs><style>.a{fill:#f28800}.b{fill:#fff}</style><g clip-path="url(#cp1)"><path class="a" d="m96 192c-53.1 0-96-42.9-96-96 0-53.1 42.9-96 96-96 53.1 0 96 42.9 96 96 0 53.1-42.9 96-96 96z"/><path fill-rule="evenodd" class="b" d="m138.4 96c0 4.7 3.8 8.5 8.4 8.5v16.9c0 4.7-3.8 8.5-8.4 8.5h-84.8c-4.6 0-8.4-3.8-8.4-8.5v-16.9c4.6 0 8.4-3.8 8.4-8.5 0-4.7-3.8-8.5-8.4-8.5v-16.9c0-4.7 3.8-8.5 8.4-8.5h84.8c4.6 0 8.4 3.8 8.4 8.5v16.9c-4.6 0-8.4 3.8-8.4 8.5zm-76.3 18.6c0 2.2 1.8 4 4 4h59.8c2.2 0 4-1.8 4-4v-37.2c0-2.2-1.8-4-4-4h-59.8c-2.2 0-4 1.8-4 4zm5.7-35.5h56.4v33.9h-56.4z"/></g></svg>