<svg version="1.2" xmlns="http://www.w3.org/2000/svg" viewBox="0 0 192 192" width="192" height="192"><defs><clipPath clipPathUnits="userSpaceOnUse" id="cp1"><path d="m-1460-1060h3840v1892h-3840z"/></clipPath></defs><style>.a{fill:#f28800}.b{fill:#fff}</style><g clip-path="url(#cp1)"><path class="a" d="m96 192c-53.1 0-96-42.9-96-96 0-53.1 42.9-96 96-96 53.1 0 96 42.9 96 96 0 53.1-42.9 96-96 96z"/><path class="b" d="m92.1 90.3h9.2v-13.8h13.8v-9.2h-13.8v-13.8h-9.2v13.8h-13.9v9.2h13.9zm-18.4 59.9c-5.1 0-9.2-4.1-9.2-9.2 0-5.1 4.1-9.2 9.2-9.2 5 0 9.1 4.1 9.1 9.2 0 5.1-4.1 9.2-9.1 9.2zm46 0c-5.1 0-9.2-4.1-9.2-9.2 0-5.1 4.1-9.2 9.2-9.2 5.1 0 9.2 4.1 9.2 9.2 0 5.1-4.1 9.2-9.2 9.2zm-45.3-33.4l0.2-0.6 4.1-7.5h34.3c3.5 0 6.5-1.9 8.1-4.7l17.8-32.3-8.1-4.4-5.1 9.2-12.7 23h-32.3l-0.6-1.2-10.3-21.8-4.4-9.2-4.3-9.2h-15.1v9.2h9.2l16.6 34.9-6.2 11.3c-0.8 1.3-1.2 2.8-1.2 4.4 0 5.1 4.2 9.3 9.2 9.3h55.3v-9.3h-53.3c-0.6 0-1.2-0.5-1.2-1.1z"/></g></svg>