<?xml version="1.0" encoding="UTF-8"?>
<svg width="220px" height="45px" viewBox="0 0 220 45" version="1.1" xmlns="http://www.w3.org/2000/svg" xmlns:xlink="http://www.w3.org/1999/xlink">
    <title>SB-logo-color-horiz</title>
    <g id="Page-1" stroke="none" stroke-width="1" fill="none" fill-rule="evenodd">
        <g id="Affiliate-TY-Page-(D)" transform="translate(-80.000000, -13.000000)">
            <g id="SB-logo-color-horiz" transform="translate(80.000000, 13.000000)">
                <path d="M38.0687157,40.3990554 C36.4179866,40.3990554 34.8791806,40.1647592 33.494883,39.7023325 C32.2197788,39.2766319 31.0546867,38.5136948 30.0274511,37.4328227 L33.1913258,34.5202046 C33.8423906,35.2048642 34.5464141,35.7804179 35.2875634,36.2337301 C36.1370869,36.7535246 37.1798826,37.0173088 38.3867411,37.0173088 C38.8005835,37.0173088 39.2357186,36.9698598 39.6801352,36.8765703 C40.136836,36.7803319 40.5656925,36.6181475 40.9557855,36.3943061 C41.3559788,36.1659076 41.6876533,35.8731714 41.9409816,35.5246759 C42.2068672,35.1592918 42.3417209,34.7301062 42.3417209,34.2483782 C42.3417209,33.3934919 42.0010379,32.7485072 41.3289534,32.3313849 C40.7275716,31.9584947 39.9632187,31.652891 39.0577336,31.422884 C38.1817307,31.2006511 37.2202841,30.9891411 36.200146,30.7942517 C35.2187716,30.6074046 34.2917209,30.3018008 33.4443812,29.8854827 C32.6158773,29.4793515 31.9216812,28.9040658 31.3806286,28.1757103 C30.8488574,27.4615626 30.579423,26.4439558 30.579423,25.1505014 C30.579423,24.0219121 30.8177373,23.0311127 31.2878143,22.2054464 C31.7614401,21.3744187 32.393942,20.6817169 33.1678492,20.1466423 C33.9507649,19.6059382 34.8628016,19.2019515 35.8782989,18.9456733 C36.9060805,18.6859101 37.9638902,18.554286 39.0225188,18.554286 C40.4322038,18.554286 41.8478944,18.7958202 43.2302811,19.2721867 C44.4903713,19.7067338 45.5399915,20.4399147 46.3534813,21.4529643 L43.2007989,24.2395878 C42.1042256,22.8882295 40.6544121,22.2035699 38.8863002,22.2035699 C38.1102091,22.2035699 37.3420345,22.3957786 36.6030692,22.7745664 C35.795312,23.1882037 35.3855643,23.8675018 35.3855643,24.7939637 C35.3855643,25.561458 35.7434452,26.1517557 36.4207164,26.5007874 C37.0163657,26.8090718 37.7747128,27.0733922 38.6747383,27.2865106 C39.537365,27.4910507 40.494171,27.7089944 41.5181307,27.9341761 C42.4978673,28.1497071 43.425464,28.484799 44.2749876,28.930337 C45.1043104,29.3659564 45.8004174,29.9712663 46.3433809,30.7288418 C46.8770629,31.4738179 47.1475892,32.5230574 47.1475892,33.8470722 C47.1475892,35.0593004 46.8814307,36.090847 46.3567571,36.9124921 C45.8258048,37.7435198 45.1277869,38.4217457 44.2818121,38.9289406 C43.4230072,39.4433736 42.4405408,39.8205529 41.3614384,40.0494877 C40.267049,40.2813712 39.1592834,40.3990554 38.0687157,40.3990554 M60.9923937,22.738725 C59.950963,22.738725 59.0039844,22.928521 58.1779374,23.3030196 C57.3562581,23.6753736 56.6421342,24.1798878 56.0557664,24.8023544 C55.4688526,25.4253571 55.0187034,26.1513 54.718149,26.9600776 C54.4189595,27.7626895 54.2674538,28.6095335 54.2674538,29.4767512 C54.2674538,30.3442368 54.4189595,31.1910809 54.718422,31.9934247 C55.0187034,32.8022023 55.4685797,33.5281452 56.0560394,34.1511479 C56.6413153,34.7730783 57.3554392,35.2775926 58.1782104,35.6502147 C59.0037114,36.0247133 59.95069,36.2145093 60.9923937,36.2145093 C62.0335514,36.2145093 62.9802569,36.0247133 63.8065769,35.6502147 C64.6290752,35.2773245 65.3429261,34.7728103 65.9287479,34.1508799 C66.5151157,33.5281452 66.9652649,32.8024704 67.2663654,31.9934247 C67.5655549,31.1886682 67.7173335,30.3418242 67.7173335,29.4767512 C67.7173335,28.6119462 67.5655549,27.7653702 67.2663654,26.9600776 C66.964992,26.1510319 66.5148428,25.4253571 65.9287479,24.8026225 C65.3421071,24.1801559 64.6279832,23.6756417 63.8065769,23.3030196 C62.979984,22.928521 62.0332784,22.738725 60.9923937,22.738725 M60.9923937,40.3991359 C59.4036317,40.3991359 57.8833886,40.1358877 56.4731576,39.6163614 C55.0670214,39.0987115 53.8350485,38.3556119 52.8113617,37.4079723 C51.7876749,36.4606007 50.9646307,35.3022553 50.3646137,33.965105 C49.7651427,32.6298311 49.4613125,31.1197733 49.4613125,29.4767512 C49.4613125,27.8334609 49.7651427,26.3234031 50.3646137,24.9881293 C50.9646307,23.6507108 51.7879479,22.4923655 52.8113617,21.54553 C53.8350485,20.5976223 55.0667485,19.8545227 56.4731576,19.3368729 C57.8828426,18.8176146 59.4033588,18.5543665 60.9923937,18.5543665 C62.5814286,18.5543665 64.1016717,18.8176146 65.5116297,19.3368729 C66.9169469,19.8542546 68.1486469,20.5973542 69.1731526,21.545262 C70.1960205,22.4926335 71.0193377,23.6509789 71.6199006,24.9881293 C72.2193716,26.3247435 72.5234748,27.8348013 72.5234748,29.4767512 C72.5234748,31.1181649 72.2193716,32.6284907 71.6199006,33.965105 C71.0193377,35.3019873 70.1960205,36.4603326 69.1728797,37.4079723 C68.1486469,38.3561481 66.9166739,39.0989796 65.5116297,39.6163614 C64.1013987,40.1358877 62.5808826,40.3991359 60.9923937,40.3991359 M91.2310646,39.86382 L91.2310646,29.3427412 C91.2310646,28.7446694 91.2002175,28.06832 91.1393422,27.3324584 C91.0760101,26.5770274 90.9083985,25.856446 90.641148,25.1910877 C90.3635241,24.5026751 89.9259321,23.9188111 89.3401103,23.4553121 C88.7384554,22.9797498 87.9219628,22.7387518 86.9130171,22.7387518 C85.960033,22.7387518 85.1410835,22.8995958 84.4788264,23.2164587 C83.8171152,23.5338576 83.2605026,23.9684047 82.8237296,24.5083046 C82.3899593,25.0452557 82.072207,25.6685265 81.8794809,26.3609602 C81.6913955,27.0391861 81.5958514,27.7570868 81.5958514,28.4953611 L81.5958514,39.86382 L76.7897101,39.86382 L76.7897101,19.0894679 L81.3234142,19.0894679 L81.3234142,22.8258756 L81.5740127,22.8258756 C82.5769528,20.564408 84.4553498,18.5543933 88.4823972,18.5543933 C89.879252,18.5543933 91.0072184,18.7841322 91.9743977,19.2371763 C92.9399391,19.6902205 93.735139,20.2912412 94.3376128,21.0233497 C94.9417245,21.7584072 95.3798625,22.6189229 95.6391964,23.5815747 C95.9034441,24.5611151 96.0372059,25.5990955 96.0372059,26.6671001 L96.0372059,39.86382 L91.2310646,39.86382 Z M111.835068,22.738725 C110.793638,22.738725 109.846932,22.928521 109.020885,23.3030196 C108.199206,23.6753736 107.485082,24.1798878 106.898714,24.8023544 C106.3118,25.425089 105.861651,26.1513 105.561097,26.9600776 C105.261907,27.7626895 105.110128,28.6095335 105.110128,29.4767512 C105.110128,30.3442368 105.261907,31.1910809 105.561097,31.9934247 C105.861378,32.8024704 106.311527,33.5284133 106.898714,34.1511479 C107.484263,34.7730783 108.198114,35.2775926 109.020885,35.6504827 C109.846659,36.0247133 110.793365,36.2145093 111.835068,36.2145093 C112.876226,36.2145093 113.822932,36.0247133 114.649252,35.6502147 C115.471477,35.2775926 116.185601,34.7730783 116.771423,34.1508799 C117.357517,33.5284133 117.807667,32.8024704 118.10904,31.9934247 C118.408229,31.1886682 118.560008,30.3418242 118.560008,29.4767512 C118.560008,28.6119462 118.408502,27.7653702 118.109313,26.9600776 C117.807394,26.1510319 117.357517,25.425089 116.771423,24.8026225 C116.184509,24.1798878 115.470658,23.6753736 114.649524,23.3030196 C113.822659,22.928521 112.875953,22.738725 111.835068,22.738725 M111.835068,40.3991359 C110.246579,40.3991359 108.726063,40.1358877 107.315832,39.6163614 C105.909423,39.0987115 104.677723,38.3556119 103.654036,37.4079723 C102.630622,36.4606007 101.807578,35.3022553 101.207561,33.965105 C100.60809,32.629563 100.303987,31.1195053 100.303987,29.4767512 C100.303987,27.833729 100.60809,26.3236712 101.207561,24.9881293 C101.807578,23.6507108 102.630622,22.4923655 103.654036,21.54553 C104.67745,20.5976223 105.909423,19.8547908 107.315832,19.3368729 C108.72579,18.8176146 110.246306,18.5543665 111.835068,18.5543665 C113.424103,18.5543665 114.944619,18.8176146 116.354304,19.3368729 C117.759622,19.8542546 118.991594,20.5973542 120.015827,21.545262 C121.038968,22.4926335 121.862012,23.6509789 122.462575,24.9881293 C123.062046,26.3247435 123.366149,27.8348013 123.366149,29.4767512 C123.366149,31.118433 123.062046,32.6284907 122.462575,33.965105 C121.862012,35.3019873 121.038968,36.4603326 120.015827,37.4079723 C118.991321,38.3561481 117.759622,39.0989796 116.354304,39.6163614 C114.944073,40.1358877 113.423557,40.3991359 111.835068,40.3991359 M163.516183,21.1333135 C161.979288,21.1333135 160.677432,21.449104 159.646374,22.0721067 C158.630058,22.6867991 157.812746,23.4046998 157.216551,24.2062395 C156.623632,25.0026857 156.195594,25.7902855 155.944177,26.5465207 C155.688937,27.3134788 155.565003,27.8340775 155.565003,28.1386089 L155.565003,28.4546675 L171.104296,28.4546675 L171.104296,28.1386089 C171.104296,27.175421 170.903107,26.2604863 170.506736,25.4195399 C170.112275,24.584223 169.569585,23.8392469 168.892859,23.2052532 C168.21395,22.5704553 167.400733,22.0611157 166.475867,21.6917105 C165.547997,21.321233 164.552154,21.1333135 163.516183,21.1333135 M163.78862,40.3989482 C162.233981,40.3989482 160.809282,40.1373085 159.55356,39.620731 C158.297837,39.1046896 157.203721,38.3717768 156.301512,37.442098 C155.397937,36.5126874 154.695279,35.3940169 154.212918,34.1163788 C153.729191,32.8352558 153.48378,31.394361 153.48378,29.8333693 C153.48378,28.3329622 153.736289,26.930938 154.233937,25.6661675 C154.730767,24.4032734 155.441615,23.2902325 156.346554,22.3584092 C157.250674,21.4279262 158.331414,20.686435 159.558747,20.1551135 C160.783895,19.6254003 162.161095,19.3570588 163.652402,19.3570588 C165.202673,19.3570588 166.586425,19.6248642 167.765166,20.153505 C168.944999,20.6829501 169.948485,21.3928086 170.74778,22.262975 C171.547893,23.1347499 172.160741,24.142438 172.568577,25.2573555 C172.978052,26.3779025 173.185519,27.5274014 173.185519,28.6739516 L173.185519,30.2309222 L155.565003,30.2309222 L155.565003,30.5469808 C155.565003,31.135402 155.682932,31.8894926 155.915513,32.7875387 C156.151917,33.7003288 156.588963,34.5986429 157.21464,35.4578183 C157.843047,36.3226233 158.693117,37.0724247 159.741099,37.6860449 C160.800001,38.3077072 162.177201,38.6226935 163.834209,38.6226935 C165.272011,38.6226935 166.680877,38.2808999 168.022316,37.6069632 C169.251286,36.9898581 170.233207,36.1553455 170.946512,35.1232627 L172.442186,36.3585451 C171.449347,37.7565482 170.229112,38.7792484 168.812056,39.4006427 C167.300822,40.0630522 165.610783,40.3989482 163.78862,40.3989482 M178.006047,39.8637128 L180.087543,39.8637128 L180.087543,6.78050005 L178.006047,6.78050005 L178.006047,39.8637128 Z M186.54223,39.8637128 L188.623726,39.8637128 L188.623726,6.78050005 L186.54223,6.78050005 L186.54223,39.8637128 Z M204.157559,21.1333135 C202.846421,21.1333135 201.641474,21.3673416 200.576021,21.8292322 C199.512478,22.2897823 198.59116,22.9218995 197.837727,23.7076228 C197.083747,24.4944184 196.503112,25.4316032 196.111927,26.4926379 C195.72238,27.5469708 195.525013,28.686283 195.525013,29.8781375 C195.525013,31.069724 195.72238,32.2087681 196.111927,33.2636371 C196.503385,34.3249399 197.08402,35.2618567 197.837727,36.0481161 C198.590614,36.8338394 199.511932,37.4659566 200.576021,37.9270429 C201.641201,38.3886654 202.846148,38.6226935 204.157559,38.6226935 C205.468152,38.6226935 206.673099,38.3886654 207.738825,37.9270429 C208.803733,37.4654204 209.725051,36.8333032 210.477392,36.0481161 C211.229734,35.263197 211.810369,34.3262803 212.202919,33.2636371 C212.592466,32.2079639 212.789833,31.0686517 212.789833,29.8781375 C212.789833,28.6870872 212.592466,27.5480431 212.202919,26.4926379 C211.810642,25.4299948 211.230007,24.493078 210.477392,23.7078909 C209.724505,22.9224357 208.803187,22.2903185 207.738825,21.8292322 C206.672826,21.3673416 205.468152,21.1333135 204.157559,21.1333135 M204.157559,40.3989482 C202.601556,40.3989482 201.144371,40.1365043 199.826409,39.6188545 C198.511176,39.1022769 197.371744,38.3685599 196.439234,37.4386131 C195.505632,36.5078621 194.765028,35.387315 194.237898,34.1078004 C193.71104,32.8290901 193.44379,31.4058881 193.44379,29.8781375 C193.44379,28.350655 193.71104,26.9274531 194.237898,25.6482065 C194.764755,24.3694962 195.505632,23.2486811 196.439234,22.317662 C197.372563,21.387179 198.511995,20.653462 199.826409,20.1371525 C201.144371,19.6195027 202.601556,19.3570588 204.157559,19.3570588 C205.712744,19.3570588 207.162012,19.6192346 208.464688,20.1366164 C209.764906,20.6531939 210.90543,21.3877152 211.854592,22.3192704 C212.803482,23.2516299 213.551456,24.3719088 214.077221,25.6482065 C214.604079,26.9277211 214.871329,28.350655 214.871329,29.8781375 C214.871329,31.4058881 214.604079,32.828822 214.077221,34.1078004 C213.551183,35.3851704 212.803482,36.5049132 211.854592,37.4367366 C210.906249,38.3680237 209.765725,39.102545 208.464688,39.6191225 C207.162012,40.1367724 205.713017,40.3989482 204.157559,40.3989482 M139.584515,21.1333135 C138.30477,21.1333135 137.100914,21.3670735 136.006525,21.8278918 C134.914865,22.2868335 133.94987,22.91627 133.137745,23.6987764 C132.324801,24.4812828 131.674555,25.4152507 131.205843,26.4741408 C130.736312,27.5351756 130.497998,28.6803854 130.497998,29.8781375 C130.497998,31.0756216 130.736312,32.2208314 131.205843,33.2818661 C131.674828,34.3412924 132.325074,35.2749923 133.137745,36.0572306 C133.949324,36.8392008 134.914319,37.4689054 136.006525,37.9283833 C137.100914,38.3889335 138.30477,38.6226935 139.584515,38.6226935 C140.895107,38.6226935 142.100055,38.3886654 143.166054,37.9270429 C144.230688,37.4654204 145.152006,36.8333032 145.904348,36.0481161 C146.656962,35.2629289 147.237598,34.3260122 147.630147,33.2636371 C148.019694,32.2071597 148.217061,31.0681156 148.217061,29.8781375 C148.217061,28.6878914 148.019694,27.5485792 147.630147,26.4926379 C147.237871,25.4302628 146.657235,24.4933461 145.904348,23.7078909 C145.15146,22.9224357 144.230142,22.2903185 143.166054,21.8292322 C142.100055,21.3673416 140.895107,21.1333135 139.584515,21.1333135 M139.584515,40.3989482 C135.417154,40.3989482 132.448736,38.2782191 131.03714,36.0489203 L130.770435,36.0489203 L130.770435,39.8638736 L128.689212,39.8638736 L128.689212,6.7806609 L130.770435,6.7806609 L130.770435,23.7070867 L131.03714,23.7070867 C132.448736,21.4777879 135.417154,19.3570588 139.584515,19.3570588 C141.139973,19.3570588 142.588968,19.6192346 143.891643,20.1366164 C145.191862,20.6531939 146.332385,21.3877152 147.281821,22.3192704 C148.23071,23.2516299 148.978411,24.3719088 149.504177,25.6482065 C150.031034,26.927185 150.298285,28.3503869 150.298285,29.8781375 C150.298285,31.4061562 150.031034,32.8290901 149.504177,34.1078004 C148.978411,35.3851704 148.23071,36.5049132 147.281821,37.4367366 C146.333477,38.3680237 145.192954,39.102545 143.891643,39.6191225 C142.589241,40.1367724 141.139973,40.3989482 139.584515,40.3989482 M217.8852,16.9368381 L217.205199,16.9368381 L217.205199,17.7437391 L217.86691,17.7437391 C218.189576,17.7437391 218.41506,17.5989795 218.41506,17.3335868 C218.41506,17.0840104 218.21469,16.9368381 217.8852,16.9368381 M218.170194,17.9887583 L218.886502,18.8980634 L218.463105,18.8980634 L217.798118,18.042641 L217.205199,18.042641 L217.205199,18.8980634 L216.866699,18.8980634 L216.866699,16.6333789 L217.897757,16.6333789 C218.409327,16.6333789 218.768573,16.8942144 218.768573,17.3166981 C218.768573,17.6866395 218.519066,17.9091405 218.170194,17.9887583 M217.754714,15.8085169 C216.586346,15.8085169 215.702699,16.7245239 215.702699,17.8348841 C215.702699,18.9473889 216.579248,19.8510645 217.742156,19.8510645 C218.911616,19.8510645 219.794171,18.9339853 219.794171,17.8225527 C219.794171,16.7121925 218.917349,15.8085169 217.754714,15.8085169 M217.742156,20.0408606 C216.47879,20.0408606 215.497689,19.0441635 215.497689,17.8348841 C215.497689,16.6256048 216.49244,15.6184528 217.754714,15.6184528 C219.015896,15.6184528 220,16.6132734 220,17.8225527 C220,19.0318321 219.00443,20.0408606 217.742156,20.0408606" id="Combined-Shape" fill="#4D4E55"></path>
                <path d="M23.9427659,18.1451255 C29.3579326,25.3871298 24.7813701,32.5256577 24.7622613,32.3208496 C23.1934272,15.3290139 4.14875784,18.6673326 1.45768996,2.37034328 C1.35395637,1.74224719 1.1882556,1.72643085 1.22811113,2.39983136 C2.48519853,23.6025648 26.8776077,13.6728561 20.8684297,44.9484496 C20.8569644,45.0082299 20.8441342,45.0173444 20.7917214,44.9688231 C20.6003602,44.7916266 20.3475779,44.6490115 20.1420215,44.5659087 C20.10162,44.5495563 20.0961604,44.5160471 20.1002551,44.4822698 C20.5176464,41.2037315 20.1985291,38.4988704 18.1044753,37.2973652 C6.7396409,30.7754062 -2.91004041,18.2941744 0.811538851,0.387403964 C0.90599102,-0.0667124628 1.18716366,-0.152227894 1.3842575,0.29545477 C3.05655226,4.09539594 5.93952729,7.08977639 11.160876,9.60242885 C17.5634227,12.683397 21.8118595,15.2952367 23.9427659,18.1451255" id="Fill-15" fill="#F28700"></path>
            </g>
        </g>
    </g>
</svg>