<svg id="Icon_ionic-ios-calendar" data-name="Icon ionic-ios-calendar" xmlns="http://www.w3.org/2000/svg" width="13.016" height="12.015" viewBox="0 0 13.016 12.015">
  <path id="Path_1" data-name="Path 1" d="M15.14,6.75H13.888V7.5a.251.251,0,0,1-.25.251h-.5a.251.251,0,0,1-.25-.251V6.75H6.879V7.5a.251.251,0,0,1-.25.251h-.5a.251.251,0,0,1-.25-.251V6.75H4.627A1.256,1.256,0,0,0,3.375,8v8.519a1.256,1.256,0,0,0,1.252,1.253H15.14a1.256,1.256,0,0,0,1.252-1.253V8A1.256,1.256,0,0,0,15.14,6.75Zm.25,9.4a.628.628,0,0,1-.626.626H5a.628.628,0,0,1-.626-.626V10.508a.251.251,0,0,1,.25-.251H15.14a.251.251,0,0,1,.25.251Z" transform="translate(-3.375 -5.759)" fill="#999"/>
  <path id="Path_2" data-name="Path 2" d="M9.991,4.748A.248.248,0,0,0,9.743,4.5h-.5A.248.248,0,0,0,9,4.748v.743h.991Z" transform="translate(-6.495 -4.5)" fill="#999"/>
  <path id="Path_3" data-name="Path 3" d="M25.741,4.748a.248.248,0,0,0-.248-.248H25a.248.248,0,0,0-.248.248v.743h.991Z" transform="translate(-15.23 -4.5)" fill="#999"/>
</svg>
