<svg width="40" height="40" viewBox="0 0 40 40" fill="none" xmlns="http://www.w3.org/2000/svg">
<path d="M19.1968 10.8037C17.7682 10.8037 16.429 10.893 15.0897 10.9823C11.5182 11.2501 8.0361 11.8751 4.55396 12.768L7.58967 16.2501C9.9111 15.7144 12.2325 15.3573 14.554 15.1787C13.4825 19.4644 11.0718 23.2144 7.58967 25.8037V30.7144C13.4825 27.4109 17.5897 21.6073 18.8397 14.9109C19.1075 13.5716 19.1968 12.143 19.1968 10.8037Z" fill="black"/>
<path d="M35.4473 12.768C31.9652 11.8751 28.483 11.2501 24.9116 10.9823C23.5723 10.893 22.1437 10.8037 20.8044 10.8037C20.8044 12.2323 20.8937 13.5716 21.1616 14.9109C22.4116 21.6073 26.5187 27.3216 32.4116 30.7144V25.8037C28.9294 23.2144 26.5187 19.4644 25.4473 15.1787C27.7687 15.3573 30.0902 15.8037 32.4116 16.2501L35.4473 12.768Z" fill="black"/>
<path d="M18.1257 30.8035L21.8757 26.5178V21.9642H18.1257V30.8035Z" fill="black"/>
</svg>
