<?xml version="1.0" encoding="UTF-8"?>
<svg id="Layer_2" data-name="Layer 2" xmlns="http://www.w3.org/2000/svg" viewBox="0 0 17.66 18.23">
  <defs>
    <style>
      .cls-1 {
        fill: #e44360;
      }
    </style>
  </defs>
  <g id="Layer_1-2" data-name="Layer 1">
    <g>
      <path class="cls-1" d="m15.82,10.2c.05-.35.08-.72.08-1.08s-.03-.73-.08-1.08l1.59-1.2c.25-.19.32-.53.16-.8l-1.7-2.95c-.16-.27-.49-.38-.77-.26l-1.84.78c-.57-.46-1.2-.82-1.88-1.08l-.24-1.98c-.04-.31-.3-.54-.61-.54h-3.4c-.31,0-.57.23-.61.54l-.25,1.98c-.68.26-1.31.62-1.88,1.08l-1.84-.78c-.29-.12-.62,0-.77.26L.08,6.03c-.16.27-.08.61.16.8l1.59,1.2c-.06.36-.08.72-.08,1.08s.03.73.08,1.08l-1.59,1.2c-.25.19-.32.53-.16.8l1.7,2.95c.15.27.49.38.77.26l1.84-.78c.57.46,1.2.82,1.88,1.08l.25,1.98c.04.31.3.54.61.54h3.4c.31,0,.57-.23.61-.54l.24-1.98c.68-.26,1.31-.62,1.88-1.08l1.84.78c.29.12.62,0,.77-.26l1.7-2.95c.15-.27.08-.61-.16-.8l-1.59-1.2Zm-12.94.76c.19-.14.28-.39.23-.62-.08-.39-.13-.8-.13-1.22s.04-.82.13-1.21c.05-.23-.04-.48-.23-.62l-1.46-1.1,1.16-2.01,1.69.71c.22.09.47.05.65-.11.62-.55,1.32-.96,2.11-1.21.23-.07.39-.27.42-.51l.22-1.82h2.31l.22,1.82c.03.24.2.44.43.51.78.25,1.49.65,2.11,1.21.17.16.43.2.65.11l1.69-.71,1.16,2.01-1.46,1.1c-.19.14-.28.39-.23.62.08.39.13.8.13,1.21s-.04.83-.13,1.22c-.05.24.04.48.23.62l1.46,1.1-1.16,2.01-1.69-.71c-.22-.1-.47-.05-.65.11-.62.56-1.33.96-2.11,1.21-.23.07-.4.27-.43.51l-.22,1.82h-2.31l-.22-1.82c-.03-.24-.2-.44-.42-.51-.78-.25-1.49-.66-2.11-1.21-.18-.16-.43-.2-.65-.11l-1.69.71-1.16-2.01,1.46-1.1Z"/>
      <path class="cls-1" d="m8.83,12.98c2.13,0,3.87-1.74,3.87-3.87s-1.74-3.87-3.87-3.87-3.87,1.73-3.87,3.87,1.73,3.87,3.87,3.87Zm-2.64-3.87c0-1.45,1.18-2.63,2.64-2.63s2.64,1.18,2.64,2.63-1.18,2.64-2.64,2.64-2.64-1.18-2.64-2.64Z"/>
    </g>
  </g>
</svg>