<?xml version="1.0" encoding="UTF-8"?>
<svg id="Layer_2" data-name="Layer 2" xmlns="http://www.w3.org/2000/svg" viewBox="0 0 18.42 20.99">
  <defs>
    <style>
      .cls-1 {
        fill: #e44360;
      }
    </style>
  </defs>
  <g id="Layer_1-2" data-name="Layer 1">
    <g>
      <path class="cls-1" d="m11.66,1.4c.19,0,.29.22.17.36l-1.35,1.6c-.23.27-.08.69.27.76,3.58.71,6.28,3.87,6.28,7.66,0,4.31-3.5,7.81-7.81,7.81-.18,0-.37,0-.56-.02-3.9-.27-7.04-3.46-7.24-7.36-.21-3.98,2.55-7.35,6.27-8.09.35-.07.5-.49.27-.77l-1.35-1.6c-.12-.14-.02-.36.17-.36h4.89m0-1.4h-4.89c-.63,0-1.21.37-1.47.94-.26.57-.17,1.25.23,1.73l.42.5C2.28,4.56-.2,8.25.01,12.28c.25,4.63,3.92,8.37,8.55,8.69.22.02.44.02.65.02,5.08,0,9.21-4.13,9.21-9.21,0-3.87-2.43-7.28-5.95-8.62l.42-.5c.41-.48.5-1.16.23-1.73-.26-.57-.84-.94-1.47-.94h0Z"/>
      <path class="cls-1" d="m6.14,14.54h1.08v-2.7h-.94v-.99h.94v-1.03c0-1.65,1.32-2.75,2.96-2.75.68,0,1.14.07,1.6.21l-.09,1.35c-.36-.1-.7-.21-1.19-.21-1.08,0-1.55.78-1.55,1.6v.82h1.81v.99h-1.81v2.7h2.75v1.28h-5.55v-1.28Z"/>
    </g>
  </g>
</svg>