<?xml version="1.0" encoding="UTF-8"?>
<svg id="Layer_2" data-name="Layer 2" xmlns="http://www.w3.org/2000/svg" viewBox="0 0 19.05 19.05">
  <defs>
    <style>
      .cls-1 {
        fill: #e44360;
      }
    </style>
  </defs>
  <g id="Layer_1-2" data-name="Layer 1">
    <g>
      <g>
        <path class="cls-1" d="m9.52,3.33c-.49,0-.88.4-.88.88v5.93c0,.49.4.88.88.88s.88-.4.88-.88v-5.93c0-.49-.4-.88-.88-.88Z"/>
        <circle class="cls-1" cx="9.52" cy="14.47" r="1.25"/>
      </g>
      <path class="cls-1" d="m9.52,19.05C4.27,19.05,0,14.77,0,9.52S4.27,0,9.52,0s9.52,4.27,9.52,9.52-4.27,9.52-9.52,9.52Zm0-17.65C5.04,1.4,1.4,5.04,1.4,9.52s3.64,8.12,8.12,8.12,8.12-3.64,8.12-8.12S14,1.4,9.52,1.4Z"/>
    </g>
  </g>
</svg>