<?xml version="1.0" encoding="UTF-8"?>
<svg id="Layer_2" data-name="Layer 2" xmlns="http://www.w3.org/2000/svg" viewBox="0 0 29.19 19.13">
  <defs>
    <style>
      .cls-1 {
        fill: #e44360;
      }
    </style>
  </defs>
  <g id="Layer_1-2" data-name="Layer 1">
    <g>
      <path class="cls-1" d="m14.6,11.2c-3.09,0-5.6-2.51-5.6-5.6S11.51,0,14.6,0s5.6,2.51,5.6,5.6-2.51,5.6-5.6,5.6Zm0-9.8c-2.32,0-4.2,1.88-4.2,4.2s1.88,4.2,4.2,4.2,4.2-1.88,4.2-4.2-1.88-4.2-4.2-4.2Z"/>
      <path class="cls-1" d="m22.61,19.13H6.58c-.39,0-.7-.31-.7-.7v-3.76c0-1.86,1.51-3.37,3.37-3.37h2.7c.26,0,.5.11.67.31l1.93,2.28,1.93-2.28c.17-.2.41-.31.67-.31h2.79c1.86,0,3.37,1.51,3.37,3.37v3.76c0,.39-.31.7-.7.7Zm-15.32-1.4h14.62v-3.06c0-1.09-.88-1.97-1.97-1.97h-2.55l-1.99,2.35c-.21.25-.52.39-.85.39h0c-.33,0-.64-.14-.85-.39l-1.99-2.35h-2.46c-1.09,0-1.97.88-1.97,1.97v3.06Z"/>
      <path class="cls-1" d="m4.18,16.92H1.4v-2.69c0-.94.76-1.7,1.7-1.7h1.57c.24-.51.56-.98.94-1.38-.03,0-.06-.02-.08-.02h-2.43c-1.71,0-3.1,1.39-3.1,3.1v3.39c0,.39.31.7.7.7h3.48v-1.4Z"/>
      <path class="cls-1" d="m6.01,10.81c.57-.48,1.24-.84,1.99-1.03-.03,0-.06,0-.08,0-2.05,0-3.71-1.67-3.71-3.71s1.66-3.71,3.71-3.71c.05,0,.09.01.14.01.23-.47.51-.91.83-1.32-.32-.06-.64-.1-.98-.1C5.09.96,2.8,3.25,2.8,6.07c0,2.14,1.33,3.98,3.21,4.74Z"/>
      <path class="cls-1" d="m25.01,16.92h2.78s0-2.69,0-2.69c0-.94-.76-1.7-1.7-1.7h-1.57c-.24-.51-.56-.98-.94-1.38.03,0,.06-.02.08-.02h2.43c1.71,0,3.1,1.39,3.1,3.1v3.39c0,.39-.31.7-.7.7h-3.48v-1.4Z"/>
      <path class="cls-1" d="m23.19,10.81c-.57-.48-1.24-.84-1.99-1.03.03,0,.06,0,.08,0,2.05,0,3.71-1.67,3.71-3.71s-1.66-3.71-3.71-3.71c-.05,0-.09.01-.14.01-.23-.47-.51-.91-.83-1.32.32-.06.64-.1.98-.1,2.82,0,5.11,2.29,5.11,5.11,0,2.14-1.33,3.98-3.21,4.74Z"/>
    </g>
  </g>
</svg>