<?xml version="1.0" encoding="UTF-8"?>
<svg id="Layer_2" data-name="Layer 2" xmlns="http://www.w3.org/2000/svg" viewBox="0 0 15.85 21.22">
  <defs>
    <style>
      .cls-1 {
        fill: #e44360;
      }
    </style>
  </defs>
  <g id="Layer_1-2" data-name="Layer 1">
    <g>
      <path class="cls-1" d="m7.41,15.34h0c-.2,0-.4-.09-.53-.24l-2.35-2.72c-.25-.29-.22-.73.07-.99.29-.25.73-.22.99.07l1.82,2.11,7.21-8.32c.25-.29.7-.32.99-.07.29.25.32.7.07.99l-7.75,8.94c-.13.15-.33.24-.53.24Z"/>
      <path class="cls-1" d="m13.05,11.72v8.1H1.4V2.95h3.09l-.23.28c-.24.29-.03.74.35.74h5.25c.38,0,.59-.45.35-.74l-.23-.28h3.09v1.57l1.4-1.62v-.66c0-.39-.31-.7-.7-.7h-4.96L7.68.22c-.24-.29-.68-.29-.92,0l-1.11,1.33H.7c-.39,0-.7.31-.7.7v18.27c0,.39.31.7.7.7h13.05c.39,0,.7-.31.7-.7v-10.41l-1.4,1.62Z"/>
    </g>
  </g>
</svg>