<?xml version="1.0" encoding="UTF-8"?>
<svg id="Layer_2" data-name="Layer 2" xmlns="http://www.w3.org/2000/svg" viewBox="0 0 17.64 23.42">
  <defs>
    <style>
      .cls-1 {
        fill: #e44360;
      }
    </style>
  </defs>
  <g id="Layer_1-2" data-name="Layer 1">
    <g>
      <path class="cls-1" d="m17.57,10.71l-2.18-4.47c-.12-.24-.36-.39-.63-.39H2.88c-.27,0-.51.15-.63.39L.07,10.71c-.11.22-.09.47.04.68.13.2.35.33.59.33h.38v11c0,.39.31.7.7.7h14.08c.39,0,.7-.31.7-.7v-11h.38c.24,0,.47-.12.59-.33.13-.21.14-.46.04-.68Zm-7.06,11.31h-3.37v-5.79h3.37v5.79Zm4.65,0h-3.85v-6.19c0-.22-.18-.4-.4-.4h-4.17c-.22,0-.4.18-.4.4v6.19h-3.85v-10.3h12.68v10.3ZM1.82,10.32l1.5-3.07h11l1.5,3.07H1.82Z"/>
      <path class="cls-1" d="m8.31,4.15c.27.32.76.32,1.02,0l2.77-3.33C12.37.49,12.14,0,11.72,0h-5.8c-.42,0-.65.49-.38.82l2.78,3.33Z"/>
    </g>
  </g>
</svg>