<?xml version="1.0" encoding="UTF-8"?>
<svg id="Layer_2" data-name="Layer 2" xmlns="http://www.w3.org/2000/svg" viewBox="0 0 21.07 20.17">
  <defs>
    <style>
      .cls-1 {
        fill: #e44360;
      }

      .cls-2 {
        fill: none;
        stroke: #e44360;
        stroke-linecap: round;
        stroke-miterlimit: 10;
        stroke-width: 1.5px;
      }
    </style>
  </defs>
  <g id="Layer_1-2" data-name="Layer 1">
    <g>
      <g>
        <path class="cls-1" d="m13.95,10.83c0-.1-.08-.17-.18-.17h-.99c-.07,0-.14.03-.18.09l-2.06,2.48-2.06-2.48c-.04-.05-.11-.09-.18-.09h-.99c-.1,0-.17.08-.18.17l-.22,6.76c0,.1.08.18.18.18h.92c.1,0,.17-.08.18-.17l.15-4.71c0-.11.14-.16.21-.07l1.22,1.46c.04.05.11.09.18.09h1.19c.07,0,.14-.03.18-.09l1.22-1.47c.07-.08.21-.04.21.07l.15,4.72c0,.1.08.17.18.17h.92c.1,0,.18-.08.18-.18l-.22-6.76Z"/>
        <path class="cls-1" d="m10.45,16.95c.05.06.13.06.18,0l.49-.59c.05-.06,0-.15-.07-.15h-1.03c-.08,0-.12.09-.07.15l.49.59Z"/>
      </g>
      <path class="cls-2" d="m19.44,11.3v7.65c0,.26-.21.47-.47.47H2.11c-.26,0-.47-.21-.47-.47v-7.65"/>
      <path class="cls-2" d="m10.54,9.1v-3.91s-.15-4.43,3.64-4.43,2.37,4.67,0,4.67h-7.28c-2.37,0-3.79-4.67,0-4.67s3.64,4.43,3.64,4.43"/>
      <rect class="cls-2" x=".75" y="5.5" width="19.57" height="3.6" rx=".47" ry=".47"/>
    </g>
  </g>
</svg>