<?xml version="1.0" encoding="UTF-8"?>
<svg id="Layer_2" data-name="Layer 2" xmlns="http://www.w3.org/2000/svg" viewBox="0 0 21.06 19.2">
  <defs>
    <style>
      .cls-1 {
        fill: #e44360;
      }
    </style>
  </defs>
  <g id="Layer_1-2" data-name="Layer 1">
    <g>
      <path class="cls-1" d="m10.53,19.2h0c-.66,0-1.28-.29-1.71-.79L1.39,9.63C.38,8.44-.11,6.93.02,5.37S.88,2.4,2.07,1.39C3.26.38,4.77-.11,6.33.02c1.56.13,2.97.86,3.98,2.05.07.09.15.18.21.27.07-.09.14-.18.21-.27,2.08-2.46,5.78-2.77,8.25-.68h0c2.46,2.09,2.77,5.79.68,8.25l-7.43,8.77c-.43.5-1.05.79-1.71.79ZM5.84,1.4c-1.05,0-2.06.37-2.87,1.06-.91.77-1.46,1.84-1.56,3.03-.1,1.18.27,2.34,1.04,3.24l7.43,8.77c.16.19.39.3.64.3h0c.25,0,.48-.11.64-.3l7.43-8.77c1.59-1.87,1.35-4.69-.52-6.27-1.87-1.59-4.69-1.35-6.27.52-.26.31-.48.65-.65,1.02-.12.25-.36.41-.64.41h0c-.27,0-.52-.16-.63-.41-.17-.37-.39-.71-.65-1.01-.77-.91-1.84-1.46-3.03-1.56-.12-.01-.25-.02-.38-.02Z"/>
      <path class="cls-1" d="m10.53,11.92c-.21,0-.4-.09-.53-.25l-2.65-3.13c-.25-.3-.21-.74.08-.99.29-.25.74-.21.99.08l2.11,2.49,4.76-5.67c.25-.3.69-.33.99-.09.3.25.33.69.09.99l-5.29,6.31c-.13.16-.33.25-.53.25h0Z"/>
    </g>
  </g>
</svg>