<?xml version="1.0" encoding="UTF-8"?>
<svg id="Layer_2" data-name="Layer 2" xmlns="http://www.w3.org/2000/svg" viewBox="0 0 19.27 21.41">
  <defs>
    <style>
      .cls-1 {
        fill: #e44360;
      }
    </style>
  </defs>
  <g id="Layer_1-2" data-name="Layer 1">
    <g>
      <path class="cls-1" d="m18.57,21.41H.7c-.39,0-.7-.31-.7-.7V.7c0-.39.31-.7.7-.7h17.87c.39,0,.7.31.7.7v20.01c0,.39-.31.7-.7.7Zm-17.17-1.4h16.47V1.4H1.4v18.61Z"/>
      <path class="cls-1" d="m15.7,5.68H6.3c-.39,0-.7-.31-.7-.7s.31-.7.7-.7h9.39c.39,0,.7.31.7.7s-.31.7-.7.7Z"/>
      <path class="cls-1" d="m15.71,11.41H6.32c-.39,0-.7-.31-.7-.7s.31-.7.7-.7h9.39c.39,0,.7.31.7.7s-.31.7-.7.7Z"/>
      <path class="cls-1" d="m15.7,17.13H6.3c-.39,0-.7-.31-.7-.7s.31-.7.7-.7h9.39c.39,0,.7.31.7.7s-.31.7-.7.7Z"/>
      <path class="cls-1" d="m4.62,5.18c.13-.11.13-.3,0-.41l-1.33-1.1c-.13-.11-.33-.02-.33.15v2.31c0,.17.2.26.33.15l1.33-1.11Z"/>
      <path class="cls-1" d="m4.62,10.91c.13-.11.13-.3,0-.41l-1.33-1.1c-.13-.11-.33-.02-.33.15v2.31c0,.17.2.26.33.15l1.33-1.11Z"/>
      <path class="cls-1" d="m4.62,16.63c.13-.11.13-.3,0-.41l-1.33-1.1c-.13-.11-.33-.02-.33.15v2.31c0,.17.2.26.33.15l1.33-1.11Z"/>
    </g>
  </g>
</svg>