<?xml version="1.0" encoding="UTF-8"?>
<svg id="Layer_2" data-name="Layer 2" xmlns="http://www.w3.org/2000/svg" viewBox="0 0 20.59 17.54">
  <defs>
    <style>
      .cls-1 {
        fill: #e44360;
      }
    </style>
  </defs>
  <g id="Layer_1-2" data-name="Layer 1">
    <g>
      <path class="cls-1" d="m20.43,2.37c-.13-.17-.33-.26-.55-.26H4.42l-.14-1.47c-.03-.36-.34-.63-.7-.63H.7c-.39,0-.7.31-.7.7s.31.7.7.7h2.25l.86,9.87c.03.36.33.64.7.64h13.48c.33,0,.61-.23.68-.55l1.91-8.41c.05-.21,0-.43-.14-.59Zm-3.01,8.14H5.15l-.6-7.01h14.46l-1.59,7.01Z"/>
      <path class="cls-1" d="m6.59,14.02c.58,0,1.06.47,1.06,1.06s-.47,1.06-1.06,1.06-1.06-.47-1.06-1.06.47-1.06,1.06-1.06m0-1.4c-1.36,0-2.46,1.1-2.46,2.46s1.1,2.46,2.46,2.46,2.46-1.1,2.46-2.46-1.1-2.46-2.46-2.46h0Z"/>
      <path class="cls-1" d="m16.1,14.02c.58,0,1.06.47,1.06,1.06s-.47,1.06-1.06,1.06-1.06-.47-1.06-1.06.47-1.06,1.06-1.06m0-1.4c-1.36,0-2.46,1.1-2.46,2.46s1.1,2.46,2.46,2.46,2.46-1.1,2.46-2.46-1.1-2.46-2.46-2.46h0Z"/>
    </g>
  </g>
</svg>