<?xml version="1.0" encoding="UTF-8"?>
<svg id="Layer_2" data-name="Layer 2" xmlns="http://www.w3.org/2000/svg" viewBox="0 0 22.51 19.5">
  <defs>
    <style>
      .cls-1 {
        fill: #e44360;
      }
    </style>
  </defs>
  <g id="Layer_1-2" data-name="Layer 1">
    <g>
      <g>
        <path class="cls-1" d="m9.73,5.68c-.09-.06-2.38-1.5-7.06-1.5-.22,0-.4.18-.4.4s.18.4.4.4c4.43,0,6.61,1.36,6.63,1.38.07.04.14.06.22.06.13,0,.26-.06.34-.18.12-.19.07-.43-.12-.55Z"/>
        <path class="cls-1" d="m9.73,8.57c-.09-.06-2.38-1.5-7.06-1.5-.22,0-.4.18-.4.4s.18.4.4.4c4.43,0,6.61,1.36,6.63,1.38.07.04.14.06.22.06.13,0,.26-.06.34-.18.12-.19.07-.43-.12-.55Z"/>
        <path class="cls-1" d="m9.73,11.25c-.09-.06-2.38-1.5-7.06-1.5-.22,0-.4.18-.4.4s.18.4.4.4c4.43,0,6.61,1.36,6.63,1.38.07.04.14.06.22.06.13,0,.26-.06.34-.18.12-.19.07-.43-.12-.55Z"/>
        <path class="cls-1" d="m9.73,13.92c-.09-.06-2.38-1.5-7.06-1.5-.22,0-.4.18-.4.4s.18.4.4.4c4.43,0,6.61,1.36,6.63,1.38.07.04.14.06.22.06.13,0,.26-.06.34-.18.12-.19.07-.43-.12-.55Z"/>
      </g>
      <path class="cls-1" d="m22.32,4.59c-.2-.19-4.07-3.91-4.31-4.13-.12-.11-.34-.19-.54-.16-3.38.48-5.42,1.4-6.2,1.82C10.17,1.54,6.72,0,.7,0c-.39,0-.7.31-.7.7v15.88c0,.39.31.7.7.7,5.07,0,10.23,2.14,10.28,2.16,0,0,.02,0,.03,0,.08.03.16.05.24.05s.16-.02.24-.05c.01,0,.02,0,.03,0,.05-.02,5.21-2.16,10.28-2.16.39,0,.7-.31.7-.7V5.07c0-.19-.07-.36-.19-.48Zm-11.76,13.19c-1.69-.61-5.34-1.76-9.15-1.89V1.41c5.18.11,8.21,1.44,9.15,1.92v14.45Zm1.4,0V3.33c.67-.35,2.4-1.11,5.19-1.57l-.25,3.47c-.03.42.33.77.75.72l3.46-.39v10.32c-3.82.13-7.47,1.28-9.15,1.89Z"/>
    </g>
  </g>
</svg>