<?xml version="1.0" encoding="UTF-8"?>
<svg id="Layer_2" data-name="Layer 2" xmlns="http://www.w3.org/2000/svg" viewBox="0 0 22.46 14.71">
  <defs>
    <style>
      .cls-1 {
        fill: #e44360;
      }
    </style>
  </defs>
  <g id="Layer_1-2" data-name="Layer 1">
    <path class="cls-1" d="m22.38,14.13l-1.93-2.31v-6.85l.76-.26c.28-.1.48-.36.48-.66s-.19-.57-.48-.66L11.57.12c-.46-.16-.98-.16-1.44,0L.48,3.39c-.28.1-.48.36-.48.66s.19.57.48.66l2.61.89v3.36c0,.2.09.39.24.53.11.1,2.81,2.4,7.52,2.4s7.2-2.33,7.31-2.43c.14-.13.22-.31.22-.51v-3.28l1.28-.43v6.57l-1.93,2.32c-.19.23-.03.58.27.58h4.11c.3,0,.46-.35.27-.58Zm-5.41-5.5c-.65.5-2.73,1.86-6.12,1.86s-5.65-1.37-6.36-1.88v-2.54l5.63,1.91c.23.08.48.12.72.12s.49-.04.72-.12l5.4-1.83v2.48Zm-5.85-1.98c-.17.06-.37.06-.54,0l-7.69-2.61,7.69-2.61c.18-.06.37-.06.54,0l7.69,2.61-7.69,2.61Z"/>
  </g>
</svg>