<?xml version="1.0" standalone="no"?>
<!DOCTYPE svg PUBLIC "-//W3C//DTD SVG 1.1//EN" "http://www.w3.org/Graphics/SVG/1.1/DTD/svg11.dtd" >
<svg xmlns="http://www.w3.org/2000/svg" xmlns:xlink="http://www.w3.org/1999/xlink" version="1.1">
<metadata>
Created by FontForge 20170731 at Mon Jun 12 13:56:24 2023
 By Aleksey,,,
(c) 2023 TeamViewer Germany GmbH. All rights reserved
</metadata>
<defs>
<font id="TeamViewerSans-Italic" horiz-adv-x="0" >
  <font-face 
    font-family="TeamViewer Sans"
    font-weight="400"
    font-style="italic"
    font-stretch="normal"
    units-per-em="2048"
    panose-1="2 0 5 0 0 0 0 10 0 0"
    ascent="1638"
    descent="-410"
    x-height="1191"
    cap-height="1638"
    bbox="-400 -644 3165 2489"
    underline-thickness="102"
    underline-position="-307"
    slope="-11.31"
    unicode-range="U+000D-FEFF"
  />
<missing-glyph horiz-adv-x="1149" 
d="M-78 0l327 1638h1068l-328 -1638h-1067zM110 149h748l268 1340h-748z" />
    <glyph glyph-name="fi" unicode="fi" horiz-adv-x="1556" 
d="M436 1368q40 201 152.5 288t305.5 87q136 0 218 -30l-35 -173q-84 28 -178 28q-128 0 -183.5 -54.5t-79.5 -175.5l-30 -147h401l-35 -173h-400l-203 -1018h-207l204 1018h-250l35 173h249zM1025 0l238 1191h206l-238 -1191h-206zM1276 1578q0 69 43.5 113.5t113.5 44.5
q66 0 108.5 -39.5t42.5 -105.5q0 -69 -43.5 -113.5t-113.5 -44.5q-66 0 -108.5 39.5t-42.5 105.5z" />
    <glyph glyph-name="fl" unicode="fl" horiz-adv-x="1556" 
d="M436 1368q40 201 152.5 288t305.5 87q136 0 218 -30l-35 -173q-84 28 -178 28q-128 0 -183.5 -54.5t-79.5 -175.5l-30 -147h401l-35 -173h-400l-203 -1018h-207l204 1018h-250l35 173h249zM1024 0l345 1723h206l-344 -1723h-207z" />
    <glyph glyph-name=".notdef" horiz-adv-x="1149" 
d="M-78 0l327 1638h1068l-328 -1638h-1067zM110 149h748l268 1340h-748z" />
    <glyph glyph-name=".null" 
 />
    <glyph glyph-name="nonmarkingreturn" horiz-adv-x="682" 
 />
    <glyph glyph-name="NULL" 
 />
    <glyph glyph-name="NULL" 
 />
    <glyph glyph-name="CR" unicode="&#xd;" horiz-adv-x="469" 
 />
    <glyph glyph-name="space" unicode=" " horiz-adv-x="469" 
 />
    <glyph glyph-name="exclam" unicode="!" horiz-adv-x="571" 
d="M169 449l218 1189h215l-259 -1189h-174zM53 141q0 65 44 109.5t109 44.5t109 -44.5t44 -109.5t-44 -109.5t-109 -44.5q-64 0 -108.5 44.5t-44.5 109.5z" />
    <glyph glyph-name="quotedbl" unicode="&#x22;" horiz-adv-x="886" 
d="M240 983l97 655h215l-165 -655h-147zM653 983l98 655h215l-165 -655h-148z" />
    <glyph glyph-name="numbersign" unicode="#" horiz-adv-x="1747" 
d="M827 0l157 416h-434l-157 -416h-201l157 416h-287l35 173h317l173 460h-287l35 174h317l156 415h202l-157 -415h434l156 415h202l-157 -415h287l-35 -174h-317l-173 -460h287l-35 -173h-317l-157 -416h-201zM615 589h434l173 460h-434z" />
    <glyph glyph-name="dollar" unicode="$" horiz-adv-x="1405" 
d="M487 -220l42 209q-166 21 -299.5 87.5t-218.5 169.5l152 156q150 -193 402 -230l115 573q-56 19 -92.5 32.5t-86.5 37t-82.5 46t-68 56t-55.5 71.5t-33.5 89t-13.5 111q0 215 155 343t442 128h18l40 200h155l-43 -213q253 -42 389 -200l-137 -143q-108 124 -289 159
l-113 -566q61 -22 104 -40t94.5 -45.5t85.5 -60t64.5 -75t45 -99.5t14.5 -125q0 -218 -152 -344t-439 -127l-40 -200h-155zM461 1206q0 -101 62.5 -156.5t196.5 -103.5l106 529q-187 -2 -276 -76t-89 -193zM719 165q170 7 255.5 79.5t85.5 196.5q0 52 -14.5 90.5t-46.5 68
t-72.5 51t-101.5 44.5z" />
    <glyph glyph-name="percent" unicode="%" horiz-adv-x="2308" 
d="M502 0l1195 1638h198l-1195 -1638h-198zM218 1092q0 82 17.5 161.5t55 153t90.5 129.5t129.5 89.5t166.5 33.5q208 0 314 -118t106 -306q0 -82 -17.5 -161.5t-55 -153t-90.5 -129.5t-129.5 -89.5t-166.5 -33.5q-106 0 -188 32.5t-132 91t-75 134.5t-25 166zM408 1090
q0 -256 233 -256q55 0 100 21.5t72.5 58.5t47.5 79.5t29.5 90.5t13.5 84t4 69q0 256 -234 256q-56 0 -100.5 -21.5t-72.5 -58.5t-47.5 -79t-28.5 -90.5t-13 -84.5t-4 -69zM1300 403q0 82 17.5 161.5t55 153t90.5 129.5t129.5 89.5t166.5 33.5q107 0 188.5 -32.5t132 -90.5
t75.5 -134t25 -166q0 -82 -17.5 -161.5t-55 -153t-90.5 -129.5t-129.5 -89.5t-166.5 -33.5q-107 0 -188.5 32.5t-132 90.5t-75.5 134t-25 166zM1490 401q0 -256 233 -256q66 0 117 32t78 77.5t44.5 104.5t22.5 103.5t5 85.5q0 256 -233 256q-66 0 -117 -32t-78 -77.5
t-44.5 -104.5t-22.5 -103.5t-5 -85.5z" />
    <glyph glyph-name="ampersand" unicode="&#x26;" horiz-adv-x="1612" 
d="M637 -20q-165 0 -287.5 49.5t-193 151.5t-70.5 247q0 62 14.5 117t37.5 98.5t60 83.5t74.5 70t89 60t95.5 50.5t101 45.5q-106 174 -106 325q0 78 27 146.5t78 121t131.5 83t180.5 30.5q78 0 140.5 -20t102.5 -52.5t67 -76.5t38.5 -89.5t11.5 -94.5q0 -68 -22.5 -126.5
t-56.5 -100.5t-90 -82t-107 -66.5t-122 -57.5l338 -470q106 149 163 384h216q-95 -343 -265 -543l190 -264h-237l-94 132q-210 -152 -505 -152zM303 442q0 -132 88.5 -205t251.5 -73q232 0 391 118l-382 534q-80 -35 -135.5 -67t-108 -77t-79 -102.5t-26.5 -127.5zM662 1270
q0 -114 75 -241q54 24 93.5 44.5t79.5 48t65 55.5t40.5 64t15.5 77q0 69 -42.5 117t-126.5 48q-91 0 -145.5 -57.5t-54.5 -155.5z" />
    <glyph glyph-name="quotesingle" unicode="'" horiz-adv-x="472" 
d="M240 983l97 655h215l-165 -655h-147z" />
    <glyph glyph-name="parenleft" unicode="(" horiz-adv-x="877" 
d="M389 -409q-47 62 -88 135.5t-82 178t-65 240.5t-24 286q0 185 38.5 361.5t116.5 343t204.5 317.5t293.5 270h242q-151 -105 -270 -232.5t-196 -256.5t-127 -271t-71 -274.5t-21 -268.5q0 -480 258 -829h-209z" />
    <glyph glyph-name="parenright" unicode=")" horiz-adv-x="876" 
d="M512 1722q47 -62 87.5 -135.5t82 -177.5t65.5 -240t24 -286q0 -381 -162.5 -719.5t-490.5 -573.5h-242q188 131 325 292.5t213.5 333t111.5 338.5t35 339q0 482 -258 829h209z" />
    <glyph glyph-name="asterisk" unicode="*" horiz-adv-x="1173" 
d="M524 723l84 329l-298 -166l-77 146l350 156l-279 186l111 136l242 -212l50 340h177l-84 -329l298 166l77 -145l-350 -157l279 -186l-111 -136l-242 212l-50 -340h-177z" />
    <glyph glyph-name="plus" unicode="+" horiz-adv-x="1588" 
d="M601 102l105 523h-520l36 183h520l105 523h189l-105 -523h520l-36 -183h-521l-104 -523h-189z" />
    <glyph glyph-name="comma" unicode="," horiz-adv-x="520" 
d="M-73 -286q105 59 169 123t89 156q-16 -2 -22 -2q-59 0 -103.5 39t-44.5 107q0 65 42.5 111.5t115.5 46.5q76 0 116 -51.5t40 -143.5q0 -59 -15.5 -118t-51.5 -126t-107.5 -129t-171.5 -106z" />
    <glyph glyph-name="hyphen" unicode="-" horiz-adv-x="809" 
d="M83 556l34 173h628l-34 -173h-628z" />
    <glyph glyph-name="period" unicode="." horiz-adv-x="520" 
d="M169 -13q-64 0 -108.5 44.5t-44.5 109.5t44 109.5t109 44.5t109.5 -44.5t44.5 -109.5t-44.5 -109.5t-109.5 -44.5z" />
    <glyph glyph-name="slash" unicode="/" horiz-adv-x="991" 
d="M-155 -410l1103 2133h222l-1102 -2133h-223z" />
    <glyph glyph-name="zero" unicode="0" horiz-adv-x="1527" 
d="M722 -20q-129 0 -231 35.5t-167.5 94.5t-108 142.5t-60 174t-17.5 194.5q0 149 32 307q22 110 56.5 207.5t94.5 196t136.5 169t189.5 114.5t248 44q129 0 230.5 -35.5t167 -95t108.5 -143t60.5 -174t17.5 -194.5q0 -140 -32 -307q-16 -77 -37.5 -148t-55 -145.5
t-74.5 -137t-98 -119t-123.5 -95.5t-153 -62t-183.5 -23zM354 611q0 -448 379 -448q87 0 162 33.5t128.5 88.5t96 132t69 156t44.5 169q30 147 30 285q0 448 -379 448q-87 0 -162 -33.5t-128.5 -88.5t-96.5 -132t-69.5 -156t-44.5 -169q-29 -142 -29 -285z" />
    <glyph glyph-name="one" unicode="1" horiz-adv-x="1362" 
d="M76 0l37 185h486l209 1047q-130 -128 -506 -128l37 185q113 0 199.5 16.5t144.5 44t102 73.5t70.5 95.5t50.5 119.5h194l-291 -1453h424l-36 -185h-1121z" />
    <glyph glyph-name="two" unicode="2" horiz-adv-x="1377" 
d="M24 97q14 68 36.5 129.5t47.5 110.5t61.5 95t69.5 80.5t81 70t85 60t92.5 53.5t93.5 47.5t98 45.5q95 44 159 77.5t124.5 74.5t95 81.5t55 91t20.5 109.5q0 113 -72.5 182.5t-220.5 69.5q-147 0 -248.5 -51.5t-180.5 -154.5l-145 133q199 257 578 257q124 0 219.5 -33
t155 -91.5t90 -136.5t30.5 -172q0 -193 -125 -323t-442 -274q-262 -119 -378.5 -214.5t-146.5 -229.5h908l-37 -185h-1124z" />
    <glyph glyph-name="three" unicode="3" horiz-adv-x="1305" 
d="M577 -20q-184 0 -325.5 52t-234.5 140l139 160q78 -84 192 -126t238 -42q181 0 270 84.5t89 225.5q0 134 -85 213t-271 79h-148l36 180h183q197 0 295 70.5t98 204.5q0 121 -78.5 187.5t-223.5 66.5q-238 0 -400 -160l-119 153q219 191 525 191q130 0 230 -33.5t160 -92
t90 -132.5t30 -161q0 -89 -29.5 -160.5t-80.5 -117t-111 -73.5t-128 -39q111 -48 177.5 -148.5t66.5 -246.5q0 -221 -152 -348t-433 -127z" />
    <glyph glyph-name="four" unicode="4" horiz-adv-x="1451" 
d="M788 0l64 322h-833l32 163l1042 1153h233l-227 -1131h261l-36 -185h-262l-64 -322h-210zM304 507h585l167 831z" />
    <glyph glyph-name="five" unicode="5" horiz-adv-x="1324" 
d="M589 -20q-182 0 -332.5 54t-243.5 149l149 155q70 -80 183.5 -127t244.5 -47q189 0 293 97.5t104 268.5q0 155 -84 245t-239 90q-179 0 -280 -115h-179l177 888h974l-37 -184h-770l-98 -487q112 77 273 77q100 0 185.5 -31.5t151.5 -93t104 -161.5t38 -227
q0 -89 -23 -169.5t-72 -150.5t-120.5 -121.5t-173.5 -80.5t-225 -29z" />
    <glyph glyph-name="six" unicode="6" horiz-adv-x="1358" 
d="M671 -20q-88 0 -166 18t-148.5 60.5t-121 106.5t-80.5 161.5t-30 219.5q0 158 42 366q79 392 251.5 569.5t461.5 177.5q328 0 499 -196l-147 -141q-119 154 -358 154q-109 0 -189 -33t-138 -104.5t-98 -172.5t-71 -250q61 72 157 117t211 45q123 0 221.5 -40.5
t159.5 -110t93 -159.5t32 -193q0 -85 -20.5 -168t-66.5 -160.5t-112 -136.5t-164.5 -94.5t-217.5 -35.5zM332 493q0 -147 84 -239t254 -92q90 0 161.5 35t115.5 93.5t67 129.5t23 148q0 146 -84 238t-254 92q-90 0 -161.5 -35t-115.5 -93t-67 -129t-23 -148z" />
    <glyph glyph-name="seven" unicode="7" horiz-adv-x="1307" 
d="M276 0q182 951 875 1454h-906l37 184h1161l-33 -163q-179 -131 -316 -265t-233.5 -266.5t-168.5 -287t-117.5 -308.5t-83.5 -348h-215z" />
    <glyph glyph-name="eight" unicode="8" horiz-adv-x="1403" 
d="M641 -20q-271 0 -417 121.5t-146 314.5q0 56 12.5 112t43.5 115.5t77.5 108t121 89t168.5 60.5q-105 37 -163 119t-58 190q0 195 156 322t416 127q111 0 200.5 -23t147.5 -61t96.5 -90.5t55 -109t16.5 -118.5q0 -155 -96.5 -260.5t-258.5 -134.5q132 -48 193.5 -149.5
t61.5 -225.5q0 -71 -18.5 -139.5t-65 -136t-116 -118t-179.5 -82t-248 -31.5zM294 444q0 -127 88 -204.5t276 -77.5q87 0 156.5 21t113 54t72.5 78t40.5 90.5t11.5 93.5q0 126 -87.5 203.5t-271.5 77.5q-88 0 -158.5 -21t-114.5 -54t-73.5 -78t-41 -90t-11.5 -93zM491 1192
q0 -104 77 -170t239 -66q91 0 160.5 24t110 65t60 90t19.5 105q0 104 -77 170t-239 66q-91 0 -160.5 -24t-110 -65t-60 -90t-19.5 -105z" />
    <glyph glyph-name="nine" unicode="9" horiz-adv-x="1358" 
d="M777 1659q88 0 165.5 -18t148.5 -61t121.5 -107t80.5 -161.5t30 -219.5q0 -158 -42 -366q-78 -391 -246.5 -568.5t-450.5 -177.5q-340 0 -515 196l147 140q120 -154 366 -154q208 0 316.5 131t171.5 429q-61 -72 -156.5 -116.5t-211.5 -44.5q-123 0 -221.5 40t-160 110
t-93.5 159.5t-32 192.5q0 85 20.5 168t66.5 161t112.5 137t165 94.5t217.5 35.5zM411 1071q0 -147 84 -239t254 -92q90 0 161.5 35t115 93.5t66.5 129.5t23 148q0 147 -83.5 238.5t-253.5 91.5q-90 0 -161.5 -35t-115.5 -93t-67 -129t-23 -148z" />
    <glyph glyph-name="colon" unicode=":" horiz-adv-x="540" 
d="M179 -13q-64 0 -108.5 44.5t-44.5 109.5t44.5 109.5t109.5 44.5t109 -44.5t44 -109.5t-44.5 -109.5t-109.5 -44.5zM203 1025q0 65 44 109.5t109 44.5q64 0 108.5 -44.5t44.5 -109.5t-44 -110t-109 -45q-64 0 -108.5 45t-44.5 110z" />
    <glyph glyph-name="semicolon" unicode=";" horiz-adv-x="540" 
d="M-62 -286q105 59 169 123t89 156q-16 -2 -22 -2q-59 0 -103.5 39t-44.5 107q0 66 41.5 112t115.5 46q76 0 116 -51.5t40 -143.5q0 -46 -8.5 -92t-32.5 -101t-61 -104t-99.5 -97.5t-143.5 -84.5zM203 1025q0 65 44 109.5t109 44.5q64 0 108.5 -44.5t44.5 -109.5t-44 -110
t-109 -45q-64 0 -108.5 45t-44.5 110z" />
    <glyph glyph-name="less" unicode="&#x3c;" horiz-adv-x="1588" 
d="M1536 1231l-41 -203l-1080 -320l952 -321l-37 -185l-1148 405l45 219z" />
    <glyph glyph-name="equal" unicode="=" horiz-adv-x="1588" 
d="M236 876l36 183h1229l-36 -183h-1229zM136 374l36 184h1229l-37 -184h-1228z" />
    <glyph glyph-name="greater" unicode="&#x3e;" horiz-adv-x="1588" 
d="M101 202l41 204l1080 320l-952 321l38 184l1147 -405l-44 -219z" />
    <glyph glyph-name="question" unicode="?" horiz-adv-x="1234" 
d="M482 508q15 75 41 137.5t54 105t71 83t76.5 64.5t85.5 58q55 36 86.5 58t64.5 51t49 54t26.5 57.5t10.5 71.5q0 100 -67 163.5t-207 63.5q-243 0 -390 -204l-145 141q86 110 222 178.5t322 68.5q120 0 212.5 -32t148.5 -87t84.5 -124.5t28.5 -149.5q0 -61 -18 -116
t-44.5 -95t-72 -82t-84 -69t-96.5 -65q-68 -44 -105 -73t-71 -67.5t-52.5 -82.5t-31.5 -108l-11 -59h-200zM370 141q0 65 44 109.5t109 44.5t109 -44.5t44 -109.5t-44 -109.5t-109 -44.5q-64 0 -108.5 44.5t-44.5 109.5z" />
    <glyph glyph-name="at" unicode="@" horiz-adv-x="2122" 
d="M1005 -189q-135 0 -258 28t-236 92t-195.5 158.5t-131.5 236t-49 315.5q0 104 19 206t60.5 203.5t102 191t148 166.5t194.5 132.5t246.5 87t298.5 31.5q208 0 372 -57.5t269 -160.5t159.5 -242.5t54.5 -305.5q0 -177 -56 -312.5t-166.5 -214t-261.5 -78.5q-112 0 -181 42
t-90 120q-41 -72 -122.5 -117t-191.5 -45q-169 0 -262.5 102.5t-93.5 275.5q0 80 18.5 155.5t56.5 141t91.5 114.5t127.5 77t161 28q96 0 168 -35.5t109 -102.5l25 123h179l-107 -536q-8 -42 -8 -72q0 -125 129 -125q138 0 220.5 129.5t82.5 327.5q0 127 -35.5 230.5
t-98.5 174.5t-151.5 119t-192 70t-222.5 22q-191 0 -344.5 -53.5t-250.5 -139.5t-162 -201.5t-91.5 -231.5t-26.5 -238q0 -141 37.5 -255.5t102.5 -192.5t155 -130.5t191.5 -76.5t215.5 -24q206 0 388 73l-32 -172q-156 -54 -365 -54zM817 666q0 -112 57 -169.5t161 -57.5
q73 0 129 35.5t87 92t46.5 117t15.5 119.5q0 113 -57 171t-161 58q-59 0 -107 -24t-79 -62t-52.5 -87.5t-30.5 -97.5t-9 -95z" />
    <glyph glyph-name="A" unicode="A" horiz-adv-x="1479" 
d="M-99 0l911 1638h272l256 -1638h-218l-66 475h-675l-255 -475h-225zM478 653h554l-113 820z" />
    <glyph glyph-name="B" unicode="B" horiz-adv-x="1547" 
d="M93 0l328 1638h643q229 0 343 -104t114 -274q0 -63 -16.5 -122t-53.5 -117.5t-107 -101.5t-165 -60q122 -44 181.5 -137t59.5 -222q0 -40 -5 -79t-22 -90.5t-45 -95.5t-78.5 -88.5t-117 -76t-166.5 -51t-221 -19.5h-672zM344 182h420q102 0 180 19t126.5 49.5t79 75
t42 90t11.5 99.5q0 58 -15.5 101.5t-51.5 79t-102 54.5t-161 19h-412zM497 946h428q97 0 169 21t111 51t63 72t30.5 75.5t6.5 70.5q0 220 -295 220h-411z" />
    <glyph glyph-name="C" unicode="C" horiz-adv-x="1582" 
d="M850 -20q-174 0 -308.5 52.5t-220.5 147.5t-130 225.5t-44 290.5q0 118 23 232.5t68.5 223t118.5 200t166.5 160.5t219.5 108t271 39q423 0 608 -310l-169 -123q-126 249 -455 249q-131 0 -239 -47.5t-180 -125t-121.5 -180.5t-71.5 -211t-22 -218q0 -262 128.5 -395.5
t367.5 -133.5q269 0 437 195l135 -145q-219 -234 -582 -234z" />
    <glyph glyph-name="D" unicode="D" horiz-adv-x="1678" 
d="M93 0l328 1638h508q149 0 272.5 -40.5t219 -122t149 -215.5t53.5 -310q0 -141 -33 -276.5t-103.5 -257.5t-170 -214.5t-243 -147t-311.5 -54.5h-669zM345 184h397q137 0 250.5 46.5t189 122.5t127 177t74.5 207t23 215q0 254 -128 378t-363 124h-316z" />
    <glyph glyph-name="E" unicode="E" horiz-adv-x="1418" 
d="M93 0l328 1638h1074l-37 -184h-859l-104 -517h765l-36 -179h-765l-114 -573h859l-37 -185h-1074z" />
    <glyph glyph-name="F" unicode="F" horiz-adv-x="1404" 
d="M93 0l328 1638h1079l-37 -184h-864l-115 -574h769l-35 -179h-770l-140 -701h-215z" />
    <glyph glyph-name="G" unicode="G" horiz-adv-x="1731" 
d="M846 -20q-332 0 -515 193.5t-183 522.5q0 142 31.5 278t101.5 261t170.5 218.5t248.5 149.5t326 56q195 0 350 -68.5t252 -213.5l-169 -123q-63 109 -179.5 165t-266.5 56q-137 0 -249 -47.5t-184.5 -125t-122 -181t-71 -210.5t-21.5 -218q0 -262 129 -395.5t371 -133.5
q258 0 421 147l76 381h-471l37 181h679l-175 -873h-107l-14 134q-185 -154 -465 -154z" />
    <glyph glyph-name="H" unicode="H" horiz-adv-x="1731" 
d="M1185 0l151 755h-877l-151 -755h-215l328 1638h214l-139 -698h877l139 698h215l-328 -1638h-214z" />
    <glyph glyph-name="I" unicode="I" horiz-adv-x="639" 
d="M93 0l328 1638h214l-327 -1638h-215z" />
    <glyph glyph-name="J" unicode="J" horiz-adv-x="950" 
d="M-4 209q106 -37 240 -37q124 0 184.5 56t89.5 201l243 1209h214l-250 -1248q-45 -226 -159.5 -318t-324.5 -92q-149 0 -277 30z" />
    <glyph glyph-name="K" unicode="K" horiz-adv-x="1413" 
d="M1008 0l-537 816l-163 -816h-215l328 1638h214l-146 -729l816 729h278l-889 -786l569 -852h-255z" />
    <glyph glyph-name="L" unicode="L" horiz-adv-x="1352" 
d="M93 0l328 1638h214l-290 -1452h852l-37 -186h-1067z" />
    <glyph glyph-name="M" unicode="M" horiz-adv-x="2082" 
d="M93 0l328 1638h310l244 -1362l789 1362h315l-328 -1638h-204l278 1392l-774 -1322h-230l-245 1322l-279 -1392h-204z" />
    <glyph glyph-name="N" unicode="N" horiz-adv-x="1735" 
d="M93 0l328 1638h267l558 -1405l281 1405h204l-328 -1638h-266l-558 1405l-282 -1405h-204z" />
    <glyph glyph-name="O" unicode="O" horiz-adv-x="1745" 
d="M837 -20q-117 0 -220 26t-190.5 81.5t-150 136.5t-97.5 197t-35 258q0 96 15.5 192.5t49 193t82.5 183.5t119.5 162.5t155.5 130t196 86t236 31.5q147 0 271 -42.5t219.5 -126t149 -219.5t53.5 -312q0 -135 -30.5 -270t-98.5 -263.5t-165 -226.5t-242 -158t-318 -60z
M361 675q0 -253 129 -382t359 -129q94 0 177 27.5t145.5 74t113.5 110.5t85.5 136t58.5 150.5t34.5 153.5t10.5 147q0 253 -129 382t-359 129q-94 0 -177 -27.5t-145.5 -74t-113.5 -110.5t-85.5 -136t-58.5 -150.5t-34.5 -153.5t-10.5 -147z" />
    <glyph glyph-name="P" unicode="P" horiz-adv-x="1531" 
d="M93 0l328 1638h587q147 0 256 -35.5t172.5 -98.5t94 -142.5t30.5 -175.5q0 -67 -14 -128.5t-45 -123.5t-85.5 -112.5t-128.5 -89.5t-181.5 -61t-238.5 -22h-431l-129 -649h-215zM474 831h403q107 0 190.5 20.5t135 54t84.5 80t45.5 93t12.5 99.5q0 127 -83.5 201.5
t-268.5 74.5h-394z" />
    <glyph glyph-name="Q" unicode="Q" horiz-adv-x="1745" 
d="M837 -20q-117 0 -220 26t-190.5 81.5t-150 136.5t-97.5 197t-35 258q0 96 15.5 192.5t49 193t82.5 183.5t119.5 162.5t155.5 130t196 86t236 31.5q147 0 271 -42.5t219.5 -126t149 -219.5t53.5 -312q0 -129 -29.5 -259t-86.5 -251.5t-153 -224t-218 -162.5l161 -289h-210
l-126 227q-86 -19 -192 -19zM361 675q0 -253 129 -382t359 -129q52 0 94 7l-164 294h205l131 -236q92 51 163.5 138t113 188.5t62 205t20.5 202.5q0 253 -129 382t-359 129q-94 0 -177 -27.5t-145.5 -74t-113.5 -110.5t-85.5 -136t-58.5 -150.5t-34.5 -153.5t-10.5 -147z
" />
    <glyph glyph-name="R" unicode="R" horiz-adv-x="1565" 
d="M93 0l328 1638h590q147 0 256 -34.5t172.5 -97t94 -141t30.5 -174.5q0 -70 -15 -134.5t-52 -129t-93 -115.5t-144 -89.5t-199 -54.5l269 -668h-235l-243 648h-415l-129 -648h-215zM474 829h406q107 0 190.5 20.5t135 54t84.5 80t45.5 93t12.5 99.5q0 128 -83.5 203
t-268.5 75h-397z" />
    <glyph glyph-name="S" unicode="S" horiz-adv-x="1405" 
d="M677 -20q-214 0 -388 70t-278 196l153 156q184 -238 518 -238q189 0 282.5 73t93.5 202q0 51 -16.5 90.5t-42.5 66.5t-75.5 52t-96.5 42.5t-124 43.5h-1q-59 20 -97 34t-91 38t-86.5 47t-71 58t-59 74t-35.5 92t-14 114q0 214 155.5 341t443.5 127q109 0 202.5 -19
t161 -51.5t114 -67.5t79.5 -75l-137 -143q-147 172 -432 172q-191 0 -282 -74t-91 -193q0 -28 5.5 -52.5t13.5 -44t25 -38.5t31.5 -32.5t42 -28.5t47 -25t56 -23.5t60 -22t67.5 -23.5q65 -22 98.5 -34t91 -37t89 -47t72 -58t61.5 -76t36 -95t15 -120q0 -219 -153.5 -345
t-442.5 -126z" />
    <glyph glyph-name="T" unicode="T" horiz-adv-x="1489" 
d="M518 0l291 1454h-564l37 184h1343l-37 -184h-565l-290 -1454h-215z" />
    <glyph glyph-name="U" unicode="U" horiz-adv-x="1673" 
d="M802 -20q-290 0 -450.5 132t-160.5 382q0 105 40 300l169 844h214l-170 -852q-37 -182 -37 -269q0 -175 101 -258.5t311 -83.5q105 0 184 29.5t132.5 89.5t87 139.5t55.5 189.5l204 1015h209l-211 -1056q-60 -299 -222 -450.5t-456 -151.5z" />
    <glyph glyph-name="V" unicode="V" horiz-adv-x="1479" 
d="M496 0l-267 1638h213l211 -1451l792 1451h223l-923 -1638h-249z" />
    <glyph glyph-name="W" unicode="W" horiz-adv-x="2283" 
d="M1350 0l-74 1087l-582 -1087h-253l-212 1638h214l158 -1427l645 1209l-15 218h213l81 -1410l720 1410h226l-868 -1638h-253z" />
    <glyph glyph-name="X" unicode="X" horiz-adv-x="1491" 
d="M1132 0l-369 687l-621 -687h-241l776 846l-425 792h221l350 -654l593 654h240l-747 -814l443 -824h-220z" />
    <glyph glyph-name="Y" unicode="Y" horiz-adv-x="1443" 
d="M495 0l119 593l-385 1045h217l306 -861l651 861h229l-804 -1045l-118 -593h-215z" />
    <glyph glyph-name="Z" unicode="Z" horiz-adv-x="1437" 
d="M-12 0l33 162l1194 1292h-902l36 184h1176l-32 -161l-1195 -1292h950l-37 -185h-1223z" />
    <glyph glyph-name="bracketleft" unicode="[" horiz-adv-x="852" 
d="M30 -410l426 2133h522l-32 -161h-323l-362 -1810h323l-32 -162h-522z" />
    <glyph glyph-name="backslash" unicode="\" horiz-adv-x="991" 
d="M549 -410l-277 2133h194l278 -2133h-195z" />
    <glyph glyph-name="bracketright" unicode="]" horiz-adv-x="852" 
d="M847 1723l-426 -2133h-522l32 162h323l362 1810h-323l32 161h522z" />
    <glyph glyph-name="asciicircum" unicode="^" horiz-adv-x="1115" 
d="M921 1158l-156 414l-321 -414l-202 3l446 564h197l-4 -4l219 -560z" />
    <glyph glyph-name="underscore" unicode="_" horiz-adv-x="1024" 
d="M-182 -289l33 166h1034l-33 -166h-1034z" />
    <glyph glyph-name="grave" unicode="`" horiz-adv-x="1024" 
d="M530 1378l-301 368h247l236 -368h-182z" />
    <glyph glyph-name="a" unicode="a" horiz-adv-x="1341" 
d="M464 -20q-185 0 -290.5 86t-105.5 241q0 144 98.5 239.5t306.5 117.5l272 29q77 8 128 26t76 44.5t34 54t9 64.5q0 77 -58 115.5t-195 38.5q-135 0 -229 -37t-177 -114l-110 141q196 185 531 185q215 0 325.5 -79.5t110.5 -247.5q0 -65 -20 -163l-96 -481l-16 -240h-202
l11 171q-133 -191 -403 -191zM278 328q0 -85 60 -131t174 -46q160 0 267.5 93.5t143.5 273.5l24 119q-28 -40 -88 -62t-159 -33l-181 -20q-241 -26 -241 -194z" />
    <glyph glyph-name="b" unicode="b" horiz-adv-x="1469" 
d="M744 -20q-150 0 -257 62t-150 176l-44 -218h-206l344 1723h207l-134 -671q63 73 160.5 116t220.5 43q226 0 351.5 -141.5t125.5 -379.5q0 -110 -25 -213.5t-76.5 -194t-124 -157.5t-173.5 -106t-219 -39zM403 501q0 -170 87.5 -258t245.5 -88q88 0 160.5 35t118.5 90.5
t78 127.5t45.5 142.5t13.5 139.5q0 170 -87.5 258t-245.5 88q-88 0 -160.5 -35t-118.5 -90.5t-78 -127.5t-45.5 -142.5t-13.5 -139.5z" />
    <glyph glyph-name="c" unicode="c" horiz-adv-x="1221" 
d="M635 -20q-251 0 -388 142t-137 390q0 101 22.5 198t72.5 188.5t123 160.5t181 110.5t239 41.5q309 0 444 -217l-159 -115q-82 157 -296 157q-83 0 -153 -30.5t-118 -81.5t-82 -119t-49.5 -142t-15.5 -151q0 -177 84.5 -267t245.5 -90q175 0 291 130l130 -134
q-162 -171 -435 -171z" />
    <glyph glyph-name="d" unicode="d" horiz-adv-x="1476" 
d="M585 -20q-226 0 -351.5 141.5t-125.5 379.5q0 110 25 213.5t76.5 194t124 157.5t173.5 106t219 39q150 0 256.5 -61.5t150.5 -175.5l150 749h207l-297 -1483l-15 -240h-203l12 165q-61 -83 -165 -134t-237 -51zM318 501q0 -171 87 -258.5t246 -87.5q88 0 160 35
t118.5 90.5t78.5 127.5t45.5 142.5t13.5 139.5q0 171 -87 258.5t-246 87.5q-88 0 -160.5 -35t-118.5 -90.5t-78 -127.5t-45.5 -142.5t-13.5 -139.5z" />
    <glyph glyph-name="e" unicode="e" horiz-adv-x="1360" 
d="M655 -20q-140 0 -246.5 40t-171 112t-96.5 165.5t-32 206.5q0 105 23 204.5t73.5 191.5t124.5 160.5t183.5 109.5t241.5 41q130 0 230 -40t159 -109.5t88.5 -156t29.5 -187.5q0 -92 -26 -194h-921q-1 -10 -1 -30q0 -167 89.5 -256t260.5 -89q209 0 357 145l114 -136
q-99 -88 -213.5 -133t-266.5 -45zM338 681h722q2 15 2 44q0 63 -16.5 117.5t-51 101t-96.5 73.5t-146 27q-167 0 -271 -96t-143 -267z" />
    <glyph glyph-name="f" unicode="f" horiz-adv-x="937" 
d="M436 1368q40 201 152.5 288t305.5 87q136 0 218 -30l-35 -173q-84 28 -178 28q-128 0 -183.5 -54.5t-79.5 -175.5l-30 -147h401l-35 -173h-400l-203 -1018h-207l204 1018h-250l35 173h249z" />
    <glyph glyph-name="g" unicode="g" horiz-adv-x="1469" 
d="M579 -430q-378 0 -547 185l134 144q70 -79 169 -116t240 -37q161 0 251 74t122 231l28 136q-62 -75 -162 -120t-227 -45q-225 0 -350.5 137t-125.5 359q0 135 40.5 258.5t115.5 221t194.5 155.5t265.5 58q149 0 255.5 -61.5t150.5 -175.5l43 217h207l-234 -1170
q-90 -451 -570 -451zM321 518q0 -160 87 -245t244 -85q88 0 160 35t118 89.5t78 124.5t45.5 137.5t13.5 131.5q0 162 -87 246t-245 84q-88 0 -160 -34t-118 -87.5t-77.5 -123t-45 -138t-13.5 -135.5z" />
    <glyph glyph-name="h" unicode="h" horiz-adv-x="1426" 
d="M87 0l344 1723h207l-135 -675q65 77 165.5 120t221.5 43q174 0 276.5 -91t102.5 -258q0 -76 -27 -209l-130 -653h-207l130 651q22 112 22 178q0 97 -56.5 151t-177.5 54q-161 0 -261 -97t-133 -263l-136 -674h-206z" />
    <glyph glyph-name="i" unicode="i" horiz-adv-x="619" 
d="M87 0l238 1191h207l-238 -1191h-207zM339 1578q0 69 43.5 113.5t113.5 44.5q66 0 108.5 -39.5t42.5 -105.5q0 -69 -43.5 -113.5t-113.5 -44.5q-66 0 -108.5 39.5t-42.5 105.5z" />
    <glyph glyph-name="j" unicode="j" horiz-adv-x="619" 
d="M-95 -430q-117 0 -216 27l36 179q86 -28 170 -28q80 0 118 35.5t59 140.5l253 1267h207l-258 -1290q-37 -184 -122.5 -257.5t-246.5 -73.5zM339 1578q0 69 43.5 113.5t113.5 44.5q66 0 108.5 -39.5t42.5 -105.5q0 -69 -43.5 -113.5t-113.5 -44.5q-66 0 -108.5 39.5
t-42.5 105.5z" />
    <glyph glyph-name="k" unicode="k" horiz-adv-x="1215" 
d="M840 0l-427 598l-120 -598h-206l344 1723h207l-209 -1047l616 515h272l-690 -561l455 -630h-242z" />
    <glyph glyph-name="l" unicode="l" horiz-adv-x="619" 
d="M87 0l344 1723h207l-345 -1723h-206z" />
    <glyph glyph-name="m" unicode="m" horiz-adv-x="2151" 
d="M93 0l190 951l15 240h203l-12 -167q60 87 160 137t222 50q127 0 214.5 -56t120.5 -161q63 96 171.5 156.5t252.5 60.5q171 0 267 -90.5t96 -258.5q0 -81 -26 -209l-131 -653h-207l131 651q22 112 22 178q0 97 -51 151t-159 54q-150 0 -243 -96.5t-126 -263.5l-135 -674
h-207l131 651q22 112 22 178q0 97 -51 151t-159 54q-151 0 -243.5 -96.5t-125.5 -263.5l-135 -674h-207z" />
    <glyph glyph-name="n" unicode="n" horiz-adv-x="1433" 
d="M93 0l190 951l15 240h203l-12 -170q63 89 170 139.5t238 50.5q174 0 276 -91t102 -258q0 -76 -27 -209l-130 -653h-207l131 651q22 112 22 175q0 208 -234 208q-162 0 -262 -97t-133 -263l-135 -674h-207z" />
    <glyph glyph-name="o" unicode="o" horiz-adv-x="1383" 
d="M642 -20q-113 0 -208.5 31.5t-169 93.5t-115 163.5t-41.5 233.5q0 101 23 200t73.5 191.5t123 162.5t179.5 112.5t235 42.5q113 0 208.5 -31.5t169 -93.5t115 -163.5t41.5 -233.5q0 -101 -23 -200t-73.5 -191.5t-123 -162.5t-179.5 -112.5t-235 -42.5zM317 501
q0 -170 87.5 -258t245.5 -88q88 0 160 35t118.5 90.5t78 127.5t45 142.5t13.5 139.5q0 170 -87 258t-245 88q-88 0 -160 -35t-118.5 -90.5t-78.5 -127.5t-45.5 -142.5t-13.5 -139.5z" />
    <glyph glyph-name="p" unicode="p" horiz-adv-x="1476" 
d="M11 -410l272 1361l15 240h203l-12 -164q61 83 165 133.5t237 50.5q226 0 351.5 -141.5t125.5 -379.5q0 -139 -40.5 -265.5t-116.5 -226t-195.5 -159t-265.5 -59.5q-150 0 -256.5 61.5t-150.5 175.5l-125 -627h-207zM409 501q0 -171 87 -258.5t246 -87.5q88 0 160.5 35
t118.5 90.5t78 127.5t45.5 142.5t13.5 139.5q0 171 -87 258.5t-246 87.5q-88 0 -160 -35t-118.5 -90.5t-78.5 -127.5t-45.5 -142.5t-13.5 -139.5z" />
    <glyph glyph-name="q" unicode="q" horiz-adv-x="1469" 
d="M856 -410l110 549q-63 -73 -161 -116t-220 -43q-226 0 -351.5 141.5t-125.5 379.5q0 110 25 213.5t76.5 194t124 157.5t173.5 106t219 39q149 0 256 -62t151 -175l43 217h207l-320 -1601h-207zM318 501q0 -171 87 -258.5t246 -87.5q88 0 160 35t118.5 90.5t78.5 127.5
t45.5 142.5t13.5 139.5q0 171 -87 258.5t-246 87.5q-88 0 -160.5 -35t-118.5 -90.5t-78 -127.5t-45.5 -142.5t-13.5 -139.5z" />
    <glyph glyph-name="r" unicode="r" horiz-adv-x="970" 
d="M93 0l190 951l15 240h203l-13 -183q122 203 390 203q81 0 137 -17l-39 -196q-62 19 -142 19q-78 0 -140 -19.5t-116 -65t-93.5 -126t-62.5 -195.5l-122 -611h-207z" />
    <glyph glyph-name="s" unicode="s" horiz-adv-x="1135" 
d="M521 -20q-170 0 -305 49t-218 136l137 148q66 -76 165 -117.5t220 -41.5q131 0 194 44.5t63 122.5q0 32 -12 57.5t-28 42t-53 34.5t-65.5 28.5t-87.5 30.5q-57 19 -92.5 32.5t-81.5 36t-74 46.5t-54.5 57t-38.5 76.5t-12 96.5q0 153 118 252.5t348 99.5q290 0 436 -150
l-127 -137q-113 113 -313 113q-134 0 -196 -46.5t-62 -119.5q0 -31 12 -56t28.5 -41.5t53.5 -34.5t66 -29t86 -30q42 -14 67 -23t63 -24.5t61 -29.5t52 -34t46.5 -42.5t33.5 -50.5t23.5 -63t7.5 -75q0 -167 -118 -262.5t-343 -95.5z" />
    <glyph glyph-name="t" unicode="t" horiz-adv-x="992" 
d="M587 -17q-364 0 -364 281q0 66 21 167l117 587h-250l34 173h250l69 342l218 54l-79 -396h399l-34 -173h-400l-117 -587q-19 -93 -19 -136q0 -75 47 -105.5t144 -30.5q93 0 178 22l-36 -180q-72 -18 -178 -18z" />
    <glyph glyph-name="u" unicode="u" horiz-adv-x="1427" 
d="M531 -20q-171 0 -272 91t-101 258q0 76 27 209l130 653h207l-130 -651q-22 -112 -22 -179q0 -204 228 -204q161 0 261 97t134 263l135 674h207l-190 -951l-16 -240h-203l13 170q-63 -89 -170 -139.5t-238 -50.5z" />
    <glyph glyph-name="v" unicode="v" horiz-adv-x="1267" 
d="M384 0l-225 1191h214l174 -1025l584 1025h216l-702 -1191h-261z" />
    <glyph glyph-name="w" unicode="w" horiz-adv-x="1950" 
d="M1117 0l-114 734l-407 -734h-248l-177 1191h212l129 -1029l448 836l-26 193h207l125 -1024l537 1024h215l-652 -1191h-249z" />
    <glyph glyph-name="x" unicode="x" horiz-adv-x="1256" 
d="M867 0l-267 463l-441 -463h-239l594 612l-334 579h230l252 -435l414 435h239l-567 -585l350 -606h-231z" />
    <glyph glyph-name="y" unicode="y" horiz-adv-x="1219" 
d="M113 -410l284 458l-262 1143h213l197 -944l562 944h216l-994 -1601h-216z" />
    <glyph glyph-name="z" unicode="z" horiz-adv-x="1187" 
d="M-20 0l31 159l874 859h-680l34 173h952l-31 -159l-874 -859h712l-34 -173h-984z" />
    <glyph glyph-name="braceleft" unicode="{" horiz-adv-x="929" 
d="M454 -410q-147 0 -214 50t-67 150q0 44 18 139l101 508q9 43 9 65q0 36 -25 54t-86 18h-66l33 165h69q67 0 102.5 29.5t51.5 106.5l117 583q13 66 34.5 111.5t60 82t100 54t148.5 17.5h216l-33 -164h-151q-93 0 -130.5 -29t-52.5 -107l-113 -567q-19 -94 -60 -140.5
t-131 -59.5q116 -27 116 -142q0 -36 -9 -77l-101 -508q-15 -75 -15 -96q0 -46 28 -62t101 -16h158l-34 -165h-175z" />
    <glyph glyph-name="bar" unicode="|" horiz-adv-x="614" 
d="M438 1723h190l-427 -2133h-190z" />
    <glyph glyph-name="braceright" unicode="}" horiz-adv-x="929" 
d="M501 1723q147 0 214 -50t67 -150q0 -47 -19 -139l-101 -507q-9 -43 -9 -66q0 -36 25 -54t86 -18h66l-32 -165h-69q-68 0 -104 -30t-51 -106l-117 -582q-13 -66 -34.5 -112t-60 -82.5t-100 -54t-148.5 -17.5h-215l33 165h150q93 0 130.5 28.5t52.5 106.5l114 567
q18 94 59 140.5t131 59.5q-116 27 -116 143q0 28 9 77l102 507q14 70 14 97q0 46 -28 62t-101 16h-157l33 164h176z" />
    <glyph glyph-name="asciitilde" unicode="~" horiz-adv-x="1260" 
d="M103 469q71 393 341 393q63 0 115 -21.5t86 -52t64.5 -61t65 -52t71.5 -21.5q108 0 150 208h188q-71 -393 -341 -393q-63 0 -115 21.5t-86 52t-64.5 61t-64.5 52t-71 21.5q-109 0 -151 -208h-188z" />
    <glyph glyph-name="uni00A0" unicode="&#xa0;" horiz-adv-x="469" 
 />
    <glyph glyph-name="exclamdown" unicode="&#xa1;" horiz-adv-x="571" 
d="M402 742l-217 -1189h-215l259 1189h173zM212 1050q0 65 44.5 109.5t109.5 44.5q64 0 108.5 -44.5t44.5 -109.5t-44 -109.5t-109 -44.5t-109.5 44.5t-44.5 109.5z" />
    <glyph glyph-name="cent" unicode="&#xa2;" horiz-adv-x="1221" 
d="M635 -20h-12l-40 -200h-156l44 218q-175 43 -268 177t-93 337q0 98 21.5 193t69 184.5t116 158.5t171 113t225.5 50l36 177h155l-37 -186q216 -35 325 -208l-159 -115q-62 119 -201 148l-175 -872q169 4 283 130l130 -134q-162 -171 -435 -171zM319 512q0 -265 187 -334
l171 854q-88 -13 -158.5 -63t-113 -123.5t-64.5 -158.5t-22 -175z" />
    <glyph glyph-name="sterling" unicode="&#xa3;" horiz-adv-x="1443" 
d="M137 162q97 44 162.5 98t100 115.5t48 122.5t13.5 135q0 29 -4 83h-249l30 150h201q-24 160 -24 245q0 124 34 223t103 172.5t180.5 113t259.5 39.5q341 0 503 -229l-152 -135q-133 180 -356 180q-356 0 -356 -387q0 -71 21 -222h514l-30 -150h-467q3 -35 3 -71
q0 -171 -63.5 -287t-179.5 -173h820l-37 -185h-1107z" />
    <glyph glyph-name="currency" unicode="&#xa4;" horiz-adv-x="1386" 
d="M718 223q-155 0 -280 87l-157 -157l-127 127l157 157q-87 127 -87 280t87 280l-157 157l127 127l157 -158q125 87 280 87q154 0 279 -87l158 158l128 -127l-159 -158q87 -125 87 -279q0 -155 -87 -280l159 -157l-128 -127l-158 157q-125 -87 -279 -87zM404 717
q0 -131 92 -222.5t222 -91.5t222 91.5t92 222.5t-92 222.5t-222 91.5t-222 -91.5t-92 -222.5z" />
    <glyph glyph-name="yen" unicode="&#xa5;" horiz-adv-x="1527" 
d="M195 594l28 141h381l-333 903h217l306 -861l651 861h229l-694 -903h380l-28 -141h-461l-1 -1l-32 -162h461l-28 -141h-461l-58 -290h-215l58 290h-461l28 141h462l32 162l-1 1h-460z" />
    <glyph glyph-name="brokenbar" unicode="&#xa6;" horiz-adv-x="615" 
d="M161 337h190l-149 -747h-190zM289 976l149 747h190l-149 -747h-190z" />
    <glyph glyph-name="section" unicode="&#xa7;" horiz-adv-x="1287" 
d="M474 -430q-143 0 -259.5 39.5t-191.5 109.5l117 153q133 -127 341 -127q136 0 202.5 53.5t66.5 143.5q0 40 -15.5 73t-36 54.5t-61 43.5t-69 34t-82.5 32q-46 17 -76.5 30t-73 35t-71 43t-60 53t-50.5 67t-31 82t-12 101q0 95 34 172t115 139t203 90q-130 103 -130 277
q0 78 27 146t83 124t152.5 88.5t223.5 32.5q143 0 259.5 -40t192.5 -110l-117 -152q-133 127 -341 127q-137 0 -203.5 -53.5t-66.5 -143.5q0 -40 15.5 -73t36 -54.5t61 -43.5t69 -34t82.5 -32q65 -25 107 -44t98 -55t89 -75.5t56.5 -101t23.5 -136.5q0 -95 -34 -172
t-115 -138t-203 -90q130 -104 130 -277q0 -78 -27 -146t-83 -124t-152.5 -88.5t-223.5 -32.5zM316 625q0 -33 8.5 -62.5t20.5 -51t35.5 -42t43 -33.5t54 -29.5t57 -25.5t63.5 -24q3 -1 7 -2.5t7 -2.5q184 7 275 74t91 178q0 33 -8.5 62.5t-20.5 51t-35.5 42t-43 33.5
t-54 29.5t-57 25.5t-63.5 24q-2 1 -7 2.5t-7 2.5q-184 -7 -275 -74t-91 -178z" />
    <glyph glyph-name="dieresis" unicode="&#xa8;" horiz-adv-x="1024" 
d="M393 1403q-62 0 -103 42t-41 104t41 103.5t103 41.5t103.5 -41.5t41.5 -103.5t-41.5 -104t-103.5 -42zM786 1549q0 62 41.5 103.5t103.5 41.5t103 -41.5t41 -103.5t-41 -104t-103 -42t-103.5 42t-41.5 104z" />
    <glyph glyph-name="copyright" unicode="&#xa9;" horiz-adv-x="1897" 
d="M993 -20q-238 0 -431 107.5t-303.5 300t-110.5 431.5t110.5 431.5t303.5 300.5t431 108t431 -108t303.5 -300.5t110.5 -431.5t-110.5 -431.5t-303.5 -300t-431 -107.5zM314 819q0 -197 87 -353.5t242 -243.5t350 -87t350 87t242 243.5t87 353.5t-87 353.5t-242 243.5
t-350 87t-350 -87t-242 -243.5t-87 -353.5zM530 819q0 224 122.5 359.5t345.5 135.5q128 0 224.5 -49.5t151.5 -127.5l-126 -107q-89 129 -254 129q-142 0 -214 -88.5t-72 -251.5t72 -251t214 -88q166 0 254 128l126 -107q-55 -78 -151.5 -127.5t-224.5 -49.5
q-223 0 -345.5 135.5t-122.5 359.5z" />
    <glyph glyph-name="ordfeminine" unicode="&#xaa;" horiz-adv-x="1086" 
d="M486 673q-148 0 -233 69.5t-85 193.5q0 116 80 192.5t247 94.5l220 23q58 6 96.5 19.5t57.5 33.5t26 40.5t7 48.5q0 59 -45 88t-149 29q-103 0 -178.5 -28.5t-141.5 -88.5l-94 125q161 146 427 146q358 0 358 -266q0 -48 -17 -135l-75 -375l-12 -193h-181l9 136
q-104 -153 -317 -153zM356 958q0 -64 46 -99t134 -35q121 0 201.5 69.5t107.5 205.5l19 92q-39 -55 -187 -72l-140 -15q-181 -20 -181 -146z" />
    <glyph glyph-name="guillemotleft" unicode="&#xab;" horiz-adv-x="1148" 
d="M332 261l-232 399l357 363h245l-374 -381l222 -381h-218zM545 660l356 363h245l-373 -381l221 -381h-217z" />
    <glyph glyph-name="logicalnot" unicode="&#xac;" horiz-adv-x="1588" 
d="M253 964l37 183h1229l-37 -183l-135 -677h-184l135 677h-1045z" />
    <glyph glyph-name="uni00AD" unicode="&#xad;" horiz-adv-x="809" 
d="M83 556l34 173h628l-34 -173h-628z" />
    <glyph glyph-name="registered" unicode="&#xae;" horiz-adv-x="1266" 
d="M746 662q-139 0 -255.5 63.5t-185 178.5t-68.5 256t68.5 256t185 179t255.5 64t255.5 -64t185 -179t68.5 -256t-68.5 -256t-185 -178.5t-255.5 -63.5zM357 1160q0 -168 110.5 -278.5t278.5 -110.5t278.5 110.5t110.5 278.5t-110.5 278.5t-278.5 110.5t-278.5 -110.5
t-110.5 -278.5zM548 888v545h227q99 0 152 -46.5t53 -129.5q0 -59 -32 -98t-85 -57l132 -214h-137l-114 197h-76v-197h-120zM668 1187h104q86 0 86 69q0 70 -86 70h-104v-139z" />
    <glyph glyph-name="macron" unicode="&#xaf;" horiz-adv-x="1024" 
d="M325 1443l35 173h669l-35 -173h-669z" />
    <glyph glyph-name="degree" unicode="&#xb0;" horiz-adv-x="865" 
d="M578 983q-147 0 -246.5 96t-99.5 241q0 146 99.5 242.5t246.5 96.5t246 -96.5t99 -242.5q0 -145 -99 -241t-246 -96zM401 1320q0 -81 49 -133.5t128 -52.5q80 0 128 52.5t48 133.5q0 82 -48 134.5t-128 52.5q-79 0 -128 -53t-49 -134z" />
    <glyph glyph-name="plusminus" unicode="&#xb1;" horiz-adv-x="1588" 
d="M215 771l36 179h521l73 369h188l-74 -369h521l-36 -179h-521l-74 -369h-187l74 369h-521zM74 66l36 180h1228l-35 -180h-1229z" />
    <glyph glyph-name="two.sups" unicode="&#xb2;" horiz-adv-x="1001" 
d="M228 1231q14 71 43.5 128.5t65.5 98t93 78.5t109 64.5t131 59.5q158 66 221.5 114t63.5 119q0 62 -44.5 99.5t-135.5 37.5q-178 0 -283 -129l-130 122q144 171 422 171q173 0 267 -78.5t94 -215.5q0 -126 -88 -208.5t-305 -174.5q-165 -71 -229.5 -116t-79.5 -101h591
l-34 -167h-792z" />
    <glyph glyph-name="three.sups" unicode="&#xb3;" horiz-adv-x="980" 
d="M625 1119q-257 0 -401 128l125 142q105 -105 280 -105q210 0 210 159q0 150 -200 150h-120l31 158h140q214 0 214 143q0 65 -44.5 100.5t-130.5 35.5q-152 0 -263 -98l-100 143q155 119 377 119q95 0 166 -23t111.5 -63t60 -88t19.5 -103q0 -104 -63 -166t-159 -78
q72 -32 115 -95t43 -155q0 -139 -106 -221.5t-305 -82.5z" />
    <glyph glyph-name="acute" unicode="&#xb4;" horiz-adv-x="1024" 
d="M498 1378l293 368h253l-357 -368h-189z" />
    <glyph glyph-name="uni00B5" unicode="&#xb5;" horiz-adv-x="1437" 
d="M5 -410l320 1601h207l-133 -665q-19 -97 -19 -150q0 -110 54 -164.5t169 -54.5q157 0 261 95t137 258l137 681h207l-191 -951l-15 -240h-203l13 174q-63 -86 -162.5 -140.5t-222.5 -54.5q-183 0 -259 119q-25 -166 -93 -508h-207z" />
    <glyph glyph-name="paragraph" unicode="&#xb6;" horiz-adv-x="1430" 
d="M473 -410l202 1011h-25q-57 0 -115.5 15t-117.5 50t-105 86.5t-74.5 131t-28.5 176.5q0 166 78.5 296.5t229 206t350.5 75.5h559l-410 -2048h-187l374 1873h-168l-375 -1873h-187z" />
    <glyph glyph-name="periodcentered" unicode="&#xb7;" horiz-adv-x="540" 
d="M318 682q-64 0 -108.5 45t-44.5 110t44.5 109.5t109.5 44.5t109 -44.5t44 -109.5t-44.5 -110t-109.5 -45z" />
    <glyph glyph-name="cedilla" unicode="&#xb8;" horiz-adv-x="1024" 
d="M307 -439q-96 0 -180 24l26 127q77 -28 148 -28q110 0 110 71q0 63 -85 63q-26 0 -52 -6l-23 59l78 129h136l-51 -81q84 -7 125 -51.5t41 -111.5q0 -96 -73 -145.5t-200 -49.5z" />
    <glyph glyph-name="one.sups" unicode="&#xb9;" horiz-adv-x="985" 
d="M256 1133l34 167h319l115 574q-85 -67 -330 -67l34 166q118 0 192 24.5t112 67t66 116.5h180l-176 -881h277l-33 -167h-790z" />
    <glyph glyph-name="ordmasculine" unicode="&#xba;" horiz-adv-x="1116" 
d="M639 692q-92 0 -170 25t-138 75.5t-93.5 132.5t-33.5 189q0 81 18.5 160.5t59.5 152.5t99.5 128.5t144.5 89t188 33.5q92 0 169.5 -25t137.5 -75.5t93.5 -132.5t33.5 -189q0 -103 -31 -200.5t-90.5 -180t-160 -133t-227.5 -50.5zM392 1114q0 -132 66 -199.5t188 -67.5
q67 0 121.5 26.5t90 69t59.5 97.5t34 109t10 107q0 132 -66 199.5t-188 67.5q-83 0 -146.5 -40t-98.5 -103t-52.5 -131t-17.5 -135z" />
    <glyph glyph-name="guillemotright" unicode="&#xbb;" horiz-adv-x="1148" 
d="M835 1023l231 -399l-355 -363h-246l374 381l-222 381h218zM20 261l375 381l-222 381h218l232 -399l-357 -363h-246z" />
    <glyph glyph-name="onequarter" unicode="&#xbc;" horiz-adv-x="2524" 
d="M147 590l34 168h320l114 574q-85 -67 -329 -67l33 166q118 0 192 24.5t112 67t66 115.5h180l-176 -880h278l-34 -168h-790zM642 0l1317 1638h221l-1317 -1638h-221zM1451 189l30 151l671 709h223l-139 -693h164l-34 -167h-163l-38 -189h-192l38 189h-560zM1708 356h336
l90 450z" />
    <glyph glyph-name="onehalf" unicode="&#xbd;" horiz-adv-x="2671" 
d="M147 590l34 168h320l114 574q-85 -67 -329 -67l33 166q118 0 192 24.5t112 67t66 115.5h180l-176 -880h278l-34 -168h-790zM642 0l1317 1638h221l-1317 -1638h-221zM1652 0l19 98q14 71 43.5 128.5t66 98t93 78.5t109 64.5t131.5 59.5q157 66 221 114t64 120
q0 61 -45 98.5t-136 37.5q-178 0 -283 -129l-129 123q144 171 421 171q173 0 267.5 -79t94.5 -216q0 -126 -88 -207.5t-306 -174.5q-165 -71 -229.5 -116t-79.5 -101h591l-33 -168h-792z" />
    <glyph glyph-name="threequarters" unicode="&#xbe;" horiz-adv-x="2378" 
d="M517 577q-258 0 -402 128l126 141q105 -105 280 -105q209 0 209 159q0 150 -199 150h-121l32 158h139q215 0 215 143q0 65 -45 100.5t-131 35.5q-152 0 -262 -97l-101 142q157 120 377 120q95 0 166 -23t111.5 -63t60 -88t19.5 -103q0 -104 -62.5 -166.5t-158.5 -78.5
q72 -32 115 -95t43 -155q0 -139 -106 -221t-305 -82zM497 0l1317 1638h221l-1317 -1638h-221zM1306 189l30 151l671 709h223l-138 -693h163l-33 -167h-164l-38 -189h-192l38 189h-560zM1563 356h336l90 450z" />
    <glyph glyph-name="questiondown" unicode="&#xbf;" horiz-adv-x="1234" 
d="M753 682q-19 -93 -51 -164t-81 -124t-89.5 -84.5t-107.5 -74.5q-55 -36 -86.5 -58t-64 -51t-48.5 -54.5t-26.5 -57.5t-10.5 -71q0 -100 67 -163.5t207 -63.5q243 0 390 204l145 -141q-85 -109 -221.5 -178t-322.5 -69q-120 0 -213 32t-149 87t-84.5 124.5t-28.5 149.5
q0 61 18.5 116t45 95t72 82t83.5 69t97 65q131 85 183 147t76 183l12 60h200zM558 1050q0 65 44.5 109.5t109.5 44.5q64 0 108.5 -44.5t44.5 -109.5t-44.5 -109.5t-109.5 -44.5t-109 44.5t-44 109.5z" />
    <glyph glyph-name="Agrave" unicode="&#xc0;" horiz-adv-x="1479" 
d="M-99 0l911 1638h272l256 -1638h-218l-66 475h-675l-255 -475h-225zM478 653h554l-113 820zM586 2119h245l237 -368h-182z" />
    <glyph glyph-name="Aacute" unicode="&#xc1;" horiz-adv-x="1479" 
d="M-99 0l911 1638h272l256 -1638h-218l-66 475h-675l-255 -475h-225zM478 653h554l-113 820zM847 1751l293 368h254l-357 -368h-190z" />
    <glyph glyph-name="Acircumflex" unicode="&#xc2;" horiz-adv-x="1479" 
d="M-99 0l911 1638h272l256 -1638h-218l-66 475h-675l-255 -475h-225zM478 653h554l-113 820zM545 1751l344 368h264l196 -368h-184l-161 241l-258 -241h-201z" />
    <glyph glyph-name="Atilde" unicode="&#xc3;" horiz-adv-x="1479" 
d="M-99 0l911 1638h272l256 -1638h-218l-66 475h-675l-255 -475h-225zM478 653h554l-113 820zM531 1751q29 166 93.5 252.5t176.5 86.5q46 0 88 -17t73 -40.5t59 -47.5t57.5 -41t56.5 -17q43 0 65.5 39t40.5 124h172q-28 -165 -92.5 -252t-177.5 -87q-46 0 -88 17t-73 40.5
t-59 47.5t-57 41t-56 17q-43 0 -66 -39t-41 -124h-172z" />
    <glyph glyph-name="Adieresis" unicode="&#xc4;" horiz-adv-x="1479" 
d="M-99 0l911 1638h272l256 -1638h-218l-66 475h-675l-255 -475h-225zM478 653h554l-113 820zM575 1922q0 62 41.5 103t103.5 41t103 -41t41 -103t-41 -104t-103 -42t-103.5 42t-41.5 104zM1072 1922q0 62 41 103t103 41t103 -41t41 -103t-41 -104t-103 -42t-103 42t-41 104
z" />
    <glyph glyph-name="Aring" unicode="&#xc5;" horiz-adv-x="1479" 
d="M-99 0l911 1638h272l256 -1638h-218l-66 475h-675l-255 -475h-225zM478 653h554l-113 820zM704 1976q0 116 80.5 191t198.5 75t198 -75t80 -191t-80 -191t-198 -75t-198.5 75t-80.5 191zM858 1976q0 -56 35 -92.5t90 -36.5t89.5 36.5t34.5 92.5t-34.5 92t-89.5 36
t-90 -36t-35 -92z" />
    <glyph glyph-name="AE" unicode="&#xc6;" horiz-adv-x="2409" 
d="M-134 0l1389 1638h1231l-37 -184h-859l-104 -517h765l-36 -179h-765l-114 -573h859l-37 -185h-1074l96 480h-665l-403 -480h-246zM664 658h551l160 796h-44z" />
    <glyph glyph-name="Ccedilla" unicode="&#xc7;" horiz-adv-x="1582" 
d="M850 -20h-15l-38 -61q84 -7 125 -51.5t41 -111.5q0 -96 -73 -145.5t-200 -49.5q-96 0 -180 24l26 127q77 -28 148 -28q110 0 110 71q0 63 -85 63q-27 0 -52 -6l-23 59l72 119q-183 27 -310 124t-188 244.5t-61 337.5q0 118 23 232.5t68.5 223t118.5 200t166.5 160.5
t219.5 108t271 39q423 0 608 -310l-169 -123q-126 249 -455 249q-131 0 -239 -47.5t-180 -125t-121.5 -180.5t-71.5 -211t-22 -218q0 -262 128.5 -395.5t367.5 -133.5q269 0 437 195l135 -145q-219 -234 -582 -234z" />
    <glyph glyph-name="Egrave" unicode="&#xc8;" horiz-adv-x="1418" 
d="M93 0l328 1638h1074l-37 -184h-859l-104 -517h765l-36 -179h-765l-114 -573h859l-37 -185h-1074zM611 2119h246l237 -368h-183z" />
    <glyph glyph-name="Eacute" unicode="&#xc9;" horiz-adv-x="1418" 
d="M93 0l328 1638h1074l-37 -184h-859l-104 -517h765l-36 -179h-765l-114 -573h859l-37 -185h-1074zM873 1751l293 368h253l-357 -368h-189z" />
    <glyph glyph-name="Ecircumflex" unicode="&#xca;" horiz-adv-x="1418" 
d="M93 0l328 1638h1074l-37 -184h-859l-104 -517h765l-36 -179h-765l-114 -573h859l-37 -185h-1074zM571 1751l344 368h263l197 -368h-185l-161 241l-257 -241h-201z" />
    <glyph glyph-name="Edieresis" unicode="&#xcb;" horiz-adv-x="1418" 
d="M93 0l328 1638h1074l-37 -184h-859l-104 -517h765l-36 -179h-765l-114 -573h859l-37 -185h-1074zM601 1922q0 62 41 103t103 41t103 -41t41 -103t-41 -104t-103 -42t-103 42t-41 104zM1098 1922q0 62 41 103t103 41t103 -41t41 -103t-41 -104t-103 -42t-103 42t-41 104z
" />
    <glyph glyph-name="Igrave" unicode="&#xcc;" horiz-adv-x="639" 
d="M93 0l328 1638h214l-327 -1638h-215zM184 2119h246l237 -368h-183z" />
    <glyph glyph-name="Iacute" unicode="&#xcd;" horiz-adv-x="639" 
d="M93 0l328 1638h214l-327 -1638h-215zM446 1751l293 368h253l-357 -368h-189z" />
    <glyph glyph-name="Icircumflex" unicode="&#xce;" horiz-adv-x="639" 
d="M93 0l328 1638h214l-327 -1638h-215zM144 1751l344 368h263l197 -368h-185l-161 241l-257 -241h-201z" />
    <glyph glyph-name="Idieresis" unicode="&#xcf;" horiz-adv-x="639" 
d="M93 0l328 1638h214l-327 -1638h-215zM174 1922q0 62 41 103t103 41t103 -41t41 -103t-41 -104t-103 -42t-103 42t-41 104zM671 1922q0 62 41 103t103 41t103 -41t41 -103t-41 -104t-103 -42t-103 42t-41 104z" />
    <glyph glyph-name="Eth" unicode="&#xd0;" horiz-adv-x="1683" 
d="M98 0l148 740h-175l32 162h176l147 736h508q149 0 272.5 -40.5t219 -122t149 -215.5t53.5 -310q0 -141 -33 -276.5t-103.5 -257.5t-170 -214.5t-243 -147t-311.5 -54.5h-669zM350 184h397q137 0 251 46.5t189 122.5t127 177t75 207t23 215q0 254 -128.5 378t-363.5 124
h-316l-111 -552h400l-32 -162h-400z" />
    <glyph glyph-name="Ntilde" unicode="&#xd1;" horiz-adv-x="1735" 
d="M93 0l328 1638h267l558 -1405l281 1405h204l-328 -1638h-266l-558 1405l-282 -1405h-204zM673 1751q29 166 93.5 252.5t176.5 86.5q56 0 107.5 -25.5t83.5 -56t70.5 -56t71.5 -25.5q43 0 65.5 39t40.5 124h172q-28 -166 -92.5 -252.5t-176.5 -86.5q-46 0 -88 17t-73 40.5
t-59 47.5t-57.5 41t-56.5 17q-43 0 -65.5 -38.5t-40.5 -124.5h-172z" />
    <glyph glyph-name="Ograve" unicode="&#xd2;" horiz-adv-x="1745" 
d="M837 -20q-117 0 -220 26t-190.5 81.5t-150 136.5t-97.5 197t-35 258q0 96 15.5 192.5t49 193t82.5 183.5t119.5 162.5t155.5 130t196 86t236 31.5q147 0 271 -42.5t219.5 -126t149 -219.5t53.5 -312q0 -135 -30.5 -270t-98.5 -263.5t-165 -226.5t-242 -158t-318 -60z
M361 675q0 -253 129 -382t359 -129q94 0 177 27.5t145.5 74t113.5 110.5t85.5 136t58.5 150.5t34.5 153.5t10.5 147q0 253 -129 382t-359 129q-94 0 -177 -27.5t-145.5 -74t-113.5 -110.5t-85.5 -136t-58.5 -150.5t-34.5 -153.5t-10.5 -147zM721 2119h246l237 -368h-183z
" />
    <glyph glyph-name="Oacute" unicode="&#xd3;" horiz-adv-x="1745" 
d="M837 -20q-117 0 -220 26t-190.5 81.5t-150 136.5t-97.5 197t-35 258q0 96 15.5 192.5t49 193t82.5 183.5t119.5 162.5t155.5 130t196 86t236 31.5q147 0 271 -42.5t219.5 -126t149 -219.5t53.5 -312q0 -135 -30.5 -270t-98.5 -263.5t-165 -226.5t-242 -158t-318 -60z
M361 675q0 -253 129 -382t359 -129q94 0 177 27.5t145.5 74t113.5 110.5t85.5 136t58.5 150.5t34.5 153.5t10.5 147q0 253 -129 382t-359 129q-94 0 -177 -27.5t-145.5 -74t-113.5 -110.5t-85.5 -136t-58.5 -150.5t-34.5 -153.5t-10.5 -147zM983 1751l293 368h253l-357 -368
h-189z" />
    <glyph glyph-name="Ocircumflex" unicode="&#xd4;" horiz-adv-x="1745" 
d="M837 -20q-117 0 -220 26t-190.5 81.5t-150 136.5t-97.5 197t-35 258q0 96 15.5 192.5t49 193t82.5 183.5t119.5 162.5t155.5 130t196 86t236 31.5q147 0 271 -42.5t219.5 -126t149 -219.5t53.5 -312q0 -135 -30.5 -270t-98.5 -263.5t-165 -226.5t-242 -158t-318 -60z
M361 675q0 -253 129 -382t359 -129q94 0 177 27.5t145.5 74t113.5 110.5t85.5 136t58.5 150.5t34.5 153.5t10.5 147q0 253 -129 382t-359 129q-94 0 -177 -27.5t-145.5 -74t-113.5 -110.5t-85.5 -136t-58.5 -150.5t-34.5 -153.5t-10.5 -147zM681 1751l344 368h263l197 -368
h-185l-161 241l-257 -241h-201z" />
    <glyph glyph-name="Otilde" unicode="&#xd5;" horiz-adv-x="1745" 
d="M837 -20q-117 0 -220 26t-190.5 81.5t-150 136.5t-97.5 197t-35 258q0 96 15.5 192.5t49 193t82.5 183.5t119.5 162.5t155.5 130t196 86t236 31.5q147 0 271 -42.5t219.5 -126t149 -219.5t53.5 -312q0 -135 -30.5 -270t-98.5 -263.5t-165 -226.5t-242 -158t-318 -60z
M361 675q0 -253 129 -382t359 -129q94 0 177 27.5t145.5 74t113.5 110.5t85.5 136t58.5 150.5t34.5 153.5t10.5 147q0 253 -129 382t-359 129q-94 0 -177 -27.5t-145.5 -74t-113.5 -110.5t-85.5 -136t-58.5 -150.5t-34.5 -153.5t-10.5 -147zM667 1751q29 166 93.5 252.5
t176.5 86.5q56 0 107.5 -25.5t83.5 -56t70.5 -56t71.5 -25.5q43 0 65.5 39t40.5 124h172q-28 -166 -92.5 -252.5t-176.5 -86.5q-46 0 -88 17t-73 40.5t-59 47.5t-57 41t-56 17q-43 0 -66 -39t-41 -124h-172z" />
    <glyph glyph-name="Odieresis" unicode="&#xd6;" horiz-adv-x="1745" 
d="M837 -20q-117 0 -220 26t-190.5 81.5t-150 136.5t-97.5 197t-35 258q0 96 15.5 192.5t49 193t82.5 183.5t119.5 162.5t155.5 130t196 86t236 31.5q147 0 271 -42.5t219.5 -126t149 -219.5t53.5 -312q0 -135 -30.5 -270t-98.5 -263.5t-165 -226.5t-242 -158t-318 -60z
M361 675q0 -253 129 -382t359 -129q94 0 177 27.5t145.5 74t113.5 110.5t85.5 136t58.5 150.5t34.5 153.5t10.5 147q0 253 -129 382t-359 129q-94 0 -177 -27.5t-145.5 -74t-113.5 -110.5t-85.5 -136t-58.5 -150.5t-34.5 -153.5t-10.5 -147zM711 1922q0 62 41.5 103
t103.5 41t102.5 -41t40.5 -103q0 -63 -40.5 -104.5t-102.5 -41.5t-103.5 42t-41.5 104zM1208 1922q0 62 41 103t103 41t103 -41t41 -103t-41 -104t-103 -42t-103 42t-41 104z" />
    <glyph glyph-name="multiply" unicode="&#xd7;" horiz-adv-x="1589" 
d="M1120 218l-309 371l-446 -371l-118 135l449 374l-309 372l144 117l308 -370l445 370l118 -135l-448 -373l310 -373z" />
    <glyph glyph-name="Oslash" unicode="&#xd8;" horiz-adv-x="1745" 
d="M837 -20q-237 0 -405 103l-148 -185h-209l232 290q-163 182 -163 491q0 96 15.5 192.5t49 193t82.5 183.5t119.5 162.5t155.5 130t196 86t236 31.5q236 0 404 -103l149 186h209l-233 -291q164 -183 164 -492q0 -135 -30.5 -270t-98.5 -263.5t-165 -226.5t-242 -158
t-318 -60zM361 675q0 -196 81 -322l835 1047q-115 74 -291 74q-94 0 -177 -27.5t-145.5 -74t-113.5 -110.5t-85.5 -136t-58.5 -150.5t-34.5 -153.5t-10.5 -147zM557 239q117 -75 292 -75q94 0 177 27.5t145.5 74t113.5 110.5t85.5 136t58.5 150.5t34.5 153.5t10.5 147
q0 198 -81 322z" />
    <glyph glyph-name="Ugrave" unicode="&#xd9;" horiz-adv-x="1673" 
d="M802 -20q-290 0 -450.5 132t-160.5 382q0 105 40 300l169 844h214l-170 -852q-37 -182 -37 -269q0 -175 101 -258.5t311 -83.5q105 0 184 29.5t132.5 89.5t87 139.5t55.5 189.5l204 1015h209l-211 -1056q-60 -299 -222 -450.5t-456 -151.5zM689 2119h245l237 -368h-182z
" />
    <glyph glyph-name="Uacute" unicode="&#xda;" horiz-adv-x="1673" 
d="M802 -20q-290 0 -450.5 132t-160.5 382q0 105 40 300l169 844h214l-170 -852q-37 -182 -37 -269q0 -175 101 -258.5t311 -83.5q105 0 184 29.5t132.5 89.5t87 139.5t55.5 189.5l204 1015h209l-211 -1056q-60 -299 -222 -450.5t-456 -151.5zM950 1751l293 368h254
l-357 -368h-190z" />
    <glyph glyph-name="Ucircumflex" unicode="&#xdb;" horiz-adv-x="1673" 
d="M802 -20q-290 0 -450.5 132t-160.5 382q0 105 40 300l169 844h214l-170 -852q-37 -182 -37 -269q0 -175 101 -258.5t311 -83.5q105 0 184 29.5t132.5 89.5t87 139.5t55.5 189.5l204 1015h209l-211 -1056q-60 -299 -222 -450.5t-456 -151.5zM648 1751l344 368h263
l197 -368h-184l-162 241l-257 -241h-201z" />
    <glyph glyph-name="Udieresis" unicode="&#xdc;" horiz-adv-x="1673" 
d="M802 -20q-290 0 -450.5 132t-160.5 382q0 105 40 300l169 844h214l-170 -852q-37 -182 -37 -269q0 -175 101 -258.5t311 -83.5q105 0 184 29.5t132.5 89.5t87 139.5t55.5 189.5l204 1015h209l-211 -1056q-60 -299 -222 -450.5t-456 -151.5zM678 1922q0 62 41.5 103
t103.5 41t103 -41t41 -103t-41 -104t-103 -42t-103.5 42t-41.5 104zM1175 1922q0 62 41 103t103 41t103 -41t41 -103t-41 -104t-103 -42t-103 42t-41 104z" />
    <glyph glyph-name="Yacute" unicode="&#xdd;" horiz-adv-x="1443" 
d="M495 0l119 593l-385 1045h217l306 -861l651 861h229l-804 -1045l-118 -593h-215zM839 1751l293 368h253l-357 -368h-189z" />
    <glyph glyph-name="Thorn" unicode="&#xde;" horiz-adv-x="1531" 
d="M93 0l328 1638h214l-65 -324h374q146 0 255.5 -35.5t173 -98.5t94 -142.5t30.5 -175.5q0 -81 -19.5 -154.5t-69.5 -145t-126.5 -123t-199.5 -83.5t-279 -32h-430l-65 -324h-215zM409 507h403q107 0 190.5 20.5t135 53.5t84.5 79.5t45.5 93t12.5 99.5q0 127 -83.5 202
t-268.5 75h-394z" />
    <glyph glyph-name="germandbls" unicode="&#xdf;" horiz-adv-x="1469" 
d="M744 -20q-163 0 -276 34l36 177q119 -36 248 -36q85 0 152 23.5t107.5 60.5t66.5 87t36 99t10 102q0 298 -352 298h-87l34 173h117q92 0 163 21.5t113 54.5t68.5 77.5t35.5 85t9 83.5q0 120 -77.5 184t-223.5 64q-167 0 -260.5 -91.5t-134.5 -297.5l-236 -1179h-206
l246 1231q50 248 200.5 380t406.5 132q104 0 188 -23t140 -61.5t94 -92.5t54.5 -113.5t16.5 -126.5q0 -155 -94 -268t-257 -146q120 -44 186.5 -144.5t66.5 -242.5q0 -64 -13 -125.5t-40.5 -124t-74.5 -115t-110 -93.5t-154 -64t-199 -23z" />
    <glyph glyph-name="agrave" unicode="&#xe0;" horiz-adv-x="1341" 
d="M464 -20q-185 0 -290.5 86t-105.5 241q0 144 98.5 239.5t306.5 117.5l272 29q77 8 128 26t76 44.5t34 54t9 64.5q0 77 -58 115.5t-195 38.5q-135 0 -229 -37t-177 -114l-110 141q196 185 531 185q215 0 325.5 -79.5t110.5 -247.5q0 -65 -20 -163l-96 -481l-16 -240h-202
l11 171q-133 -191 -403 -191zM278 328q0 -85 60 -131t174 -46q160 0 267.5 93.5t143.5 273.5l24 119q-28 -40 -88 -62t-159 -33l-181 -20q-241 -26 -241 -194zM371 1746h246l237 -368h-182z" />
    <glyph glyph-name="aacute" unicode="&#xe1;" horiz-adv-x="1341" 
d="M464 -20q-185 0 -290.5 86t-105.5 241q0 144 98.5 239.5t306.5 117.5l272 29q77 8 128 26t76 44.5t34 54t9 64.5q0 77 -58 115.5t-195 38.5q-135 0 -229 -37t-177 -114l-110 141q196 185 531 185q215 0 325.5 -79.5t110.5 -247.5q0 -65 -20 -163l-96 -481l-16 -240h-202
l11 171q-133 -191 -403 -191zM278 328q0 -85 60 -131t174 -46q160 0 267.5 93.5t143.5 273.5l24 119q-28 -40 -88 -62t-159 -33l-181 -20q-241 -26 -241 -194zM640 1378l292 368h254l-357 -368h-189z" />
    <glyph glyph-name="acircumflex" unicode="&#xe2;" horiz-adv-x="1341" 
d="M464 -20q-185 0 -290.5 86t-105.5 241q0 144 98.5 239.5t306.5 117.5l272 29q77 8 128 26t76 44.5t34 54t9 64.5q0 77 -58 115.5t-195 38.5q-135 0 -229 -37t-177 -114l-110 141q196 185 531 185q215 0 325.5 -79.5t110.5 -247.5q0 -65 -20 -163l-96 -481l-16 -240h-202
l11 171q-133 -191 -403 -191zM278 328q0 -85 60 -131t174 -46q160 0 267.5 93.5t143.5 273.5l24 119q-28 -40 -88 -62t-159 -33l-181 -20q-241 -26 -241 -194zM389 1378l343 368h263l197 -368h-184l-162 241l-257 -241h-200z" />
    <glyph glyph-name="atilde" unicode="&#xe3;" horiz-adv-x="1341" 
d="M464 -20q-185 0 -290.5 86t-105.5 241q0 144 98.5 239.5t306.5 117.5l272 29q77 8 128 26t76 44.5t34 54t9 64.5q0 77 -58 115.5t-195 38.5q-135 0 -229 -37t-177 -114l-110 141q196 185 531 185q215 0 325.5 -79.5t110.5 -247.5q0 -65 -20 -163l-96 -481l-16 -240h-202
l11 171q-133 -191 -403 -191zM278 328q0 -85 60 -131t174 -46q160 0 267.5 93.5t143.5 273.5l24 119q-28 -40 -88 -62t-159 -33l-181 -20q-241 -26 -241 -194zM374 1378q28 166 93 253t177 87q46 0 88 -17t73 -41t59 -48t57 -41t56 -17q43 0 65 39t41 125h172
q-29 -166 -93 -253t-176 -87q-46 0 -88 17t-73 41t-59 48t-57.5 41t-56.5 17q-43 0 -65.5 -39.5t-40.5 -124.5h-172z" />
    <glyph glyph-name="adieresis" unicode="&#xe4;" horiz-adv-x="1341" 
d="M464 -20q-185 0 -290.5 86t-105.5 241q0 144 98.5 239.5t306.5 117.5l272 29q77 8 128 26t76 44.5t34 54t9 64.5q0 77 -58 115.5t-195 38.5q-135 0 -229 -37t-177 -114l-110 141q196 185 531 185q215 0 325.5 -79.5t110.5 -247.5q0 -65 -20 -163l-96 -481l-16 -240h-202
l11 171q-133 -191 -403 -191zM278 328q0 -85 60 -131t174 -46q160 0 267.5 93.5t143.5 273.5l24 119q-28 -40 -88 -62t-159 -33l-181 -20q-241 -26 -241 -194zM391 1549q0 62 41 103.5t103 41.5t103 -41.5t41 -103.5t-41 -104t-103 -42t-103 42t-41 104zM928 1549
q0 62 41.5 103.5t103.5 41.5t103 -41.5t41 -103.5t-41 -104t-103 -42t-103.5 42t-41.5 104z" />
    <glyph glyph-name="aring" unicode="&#xe5;" horiz-adv-x="1341" 
d="M464 -20q-185 0 -290.5 86t-105.5 241q0 144 98.5 239.5t306.5 117.5l272 29q77 8 128 26t76 44.5t34 54t9 64.5q0 77 -58 115.5t-195 38.5q-135 0 -229 -37t-177 -114l-110 141q196 185 531 185q215 0 325.5 -79.5t110.5 -247.5q0 -65 -20 -163l-96 -481l-16 -240h-202
l11 171q-133 -191 -403 -191zM278 328q0 -85 60 -131t174 -46q160 0 267.5 93.5t143.5 273.5l24 119q-28 -40 -88 -62t-159 -33l-181 -20q-241 -26 -241 -194zM553 1634q0 116 80 191t198 75t198 -75t80 -191t-80 -191t-198 -75t-198 75t-80 191zM706 1634q0 -56 35 -92.5
t90 -36.5t90 36.5t35 92.5t-35 92.5t-90 36.5t-90 -36.5t-35 -92.5z" />
    <glyph glyph-name="ae" unicode="&#xe6;" horiz-adv-x="2184" 
d="M1483 -20q-178 0 -308 74t-185 227q-67 -144 -192 -222.5t-294 -78.5q-201 0 -318.5 87t-117.5 241q0 143 98.5 238.5t306.5 117.5l272 29q77 8 128 26t76 44.5t34 54t9 64.5q0 77 -58 115.5t-195 38.5q-135 0 -229 -37t-177 -114l-110 141q196 185 531 185
q320 0 391 -184q161 184 435 184q232 0 369 -131.5t137 -361.5q0 -99 -26 -194h-921q-1 -10 -1 -30q0 -167 89 -256t260 -89q210 0 358 145l114 -136q-99 -88 -212.5 -133t-263.5 -45zM278 328q0 -85 60 -131t174 -46q160 0 267.5 93.5t143.5 273.5l24 119q-28 -40 -88 -62
t-159 -33l-181 -20q-241 -26 -241 -194zM1162 681h722q2 15 2 44q0 63 -16.5 117.5t-51 101t-97 73.5t-146.5 27q-167 0 -270.5 -96t-142.5 -267z" />
    <glyph glyph-name="ccedilla" unicode="&#xe7;" horiz-adv-x="1221" 
d="M635 -20h-10l-38 -61q84 -7 125 -51.5t41 -111.5q0 -96 -73 -145.5t-200 -49.5q-95 0 -179 24l25 127q77 -28 148 -28q110 0 110 71q0 63 -85 63q-27 0 -52 -6l-23 59l73 121q-187 37 -287 173t-100 347q0 101 22.5 198t72.5 188.5t123 160.5t181 110.5t239 41.5
q309 0 444 -217l-159 -115q-82 157 -296 157q-83 0 -153 -30.5t-118 -81.5t-82 -119t-49.5 -142t-15.5 -151q0 -177 84.5 -267t245.5 -90q175 0 291 130l130 -134q-162 -171 -435 -171z" />
    <glyph glyph-name="egrave" unicode="&#xe8;" horiz-adv-x="1360" 
d="M655 -20q-140 0 -246.5 40t-171 112t-96.5 165.5t-32 206.5q0 105 23 204.5t73.5 191.5t124.5 160.5t183.5 109.5t241.5 41q130 0 230 -40t159 -109.5t88.5 -156t29.5 -187.5q0 -92 -26 -194h-921q-1 -10 -1 -30q0 -167 89.5 -256t260.5 -89q209 0 357 145l114 -136
q-99 -88 -213.5 -133t-266.5 -45zM338 681h722q2 15 2 44q0 63 -16.5 117.5t-51 101t-96.5 73.5t-146 27q-167 0 -271 -96t-143 -267zM404 1746h246l236 -368h-181z" />
    <glyph glyph-name="eacute" unicode="&#xe9;" horiz-adv-x="1360" 
d="M655 -20q-140 0 -246.5 40t-171 112t-96.5 165.5t-32 206.5q0 105 23 204.5t73.5 191.5t124.5 160.5t183.5 109.5t241.5 41q130 0 230 -40t159 -109.5t88.5 -156t29.5 -187.5q0 -92 -26 -194h-921q-1 -10 -1 -30q0 -167 89.5 -256t260.5 -89q209 0 357 145l114 -136
q-99 -88 -213.5 -133t-266.5 -45zM338 681h722q2 15 2 44q0 63 -16.5 117.5t-51 101t-96.5 73.5t-146 27q-167 0 -271 -96t-143 -267zM673 1378l292 368h254l-357 -368h-189z" />
    <glyph glyph-name="ecircumflex" unicode="&#xea;" horiz-adv-x="1360" 
d="M655 -20q-140 0 -246.5 40t-171 112t-96.5 165.5t-32 206.5q0 105 23 204.5t73.5 191.5t124.5 160.5t183.5 109.5t241.5 41q130 0 230 -40t159 -109.5t88.5 -156t29.5 -187.5q0 -92 -26 -194h-921q-1 -10 -1 -30q0 -167 89.5 -256t260.5 -89q209 0 357 145l114 -136
q-99 -88 -213.5 -133t-266.5 -45zM338 681h722q2 15 2 44q0 63 -16.5 117.5t-51 101t-96.5 73.5t-146 27q-167 0 -271 -96t-143 -267zM421 1378l344 368h263l197 -368h-185l-161 241l-257 -241h-201z" />
    <glyph glyph-name="edieresis" unicode="&#xeb;" horiz-adv-x="1360" 
d="M655 -20q-140 0 -246.5 40t-171 112t-96.5 165.5t-32 206.5q0 105 23 204.5t73.5 191.5t124.5 160.5t183.5 109.5t241.5 41q130 0 230 -40t159 -109.5t88.5 -156t29.5 -187.5q0 -92 -26 -194h-921q-1 -10 -1 -30q0 -167 89.5 -256t260.5 -89q209 0 357 145l114 -136
q-99 -88 -213.5 -133t-266.5 -45zM338 681h722q2 15 2 44q0 63 -16.5 117.5t-51 101t-96.5 73.5t-146 27q-167 0 -271 -96t-143 -267zM424 1549q0 62 41 103.5t103 41.5t103 -41.5t41 -103.5t-41 -104t-103 -42t-103 42t-41 104zM961 1549q0 62 41 103.5t103 41.5t103 -41.5
t41 -103.5t-41 -104t-103 -42t-103 42t-41 104z" />
    <glyph glyph-name="igrave" unicode="&#xec;" horiz-adv-x="619" 
d="M87 0l238 1191h207l-238 -1191h-207zM149 1746h246l161 -368h-182z" />
    <glyph glyph-name="iacute" unicode="&#xed;" horiz-adv-x="619" 
d="M87 0l238 1191h207l-238 -1191h-207zM362 1378l241 368h253l-306 -368h-188z" />
    <glyph glyph-name="icircumflex" unicode="&#xee;" horiz-adv-x="619" 
d="M87 0l238 1191h207l-238 -1191h-207zM95 1378l310 368h228l163 -368h-181l-114 219l-202 -219h-204z" />
    <glyph glyph-name="idieresis" unicode="&#xef;" horiz-adv-x="619" 
d="M87 0l238 1191h207l-238 -1191h-207zM141 1549q0 62 41 103.5t103 41.5t103 -41.5t41 -103.5t-41 -104t-103 -42t-103 42t-41 104zM528 1549q0 62 41 103.5t103 41.5t103 -41.5t41 -103.5t-41 -104t-103 -42t-103 42t-41 104z" />
    <glyph glyph-name="eth" unicode="&#xf0;" horiz-adv-x="1383" 
d="M642 -20q-113 0 -208.5 31t-169 93t-115 163.5t-41.5 233.5q0 104 24.5 205t76 192t124 160t175.5 110t224 41q132 0 222.5 -52t130.5 -142q-43 173 -213 420l-411 -123l28 152l298 90l-122 169h218l81 -116l388 116l-27 -152l-279 -84q120 -182 180 -351.5t60 -362.5
q0 -130 -25.5 -247.5t-78 -217.5t-128 -173t-181 -114t-231.5 -41zM317 500q0 -170 87.5 -257.5t245.5 -87.5q88 0 160.5 35t118.5 90.5t77.5 127t45 142t13.5 139.5q0 170 -87 257.5t-245 87.5q-88 0 -160 -35t-118.5 -90.5t-78.5 -127t-45.5 -142.5t-13.5 -139z" />
    <glyph glyph-name="ntilde" unicode="&#xf1;" horiz-adv-x="1433" 
d="M93 0l190 951l15 240h203l-12 -170q63 89 170 139.5t238 50.5q174 0 276 -91t102 -258q0 -76 -27 -209l-130 -653h-207l131 651q22 112 22 175q0 208 -234 208q-162 0 -262 -97t-133 -263l-135 -674h-207zM458 1378q28 166 92.5 253t176.5 87q46 0 88 -17t73 -41t59 -48
t57 -41t56 -17q43 0 66 39.5t41 124.5h172q-29 -166 -93.5 -253t-176.5 -87q-46 0 -88 17t-73 41t-59 48t-57 41t-56 17q-43 0 -65.5 -39.5t-40.5 -124.5h-172z" />
    <glyph glyph-name="ograve" unicode="&#xf2;" horiz-adv-x="1383" 
d="M642 -20q-113 0 -208.5 31.5t-169 93.5t-115 163.5t-41.5 233.5q0 101 23 200t73.5 191.5t123 162.5t179.5 112.5t235 42.5q113 0 208.5 -31.5t169 -93.5t115 -163.5t41.5 -233.5q0 -101 -23 -200t-73.5 -191.5t-123 -162.5t-179.5 -112.5t-235 -42.5zM317 501
q0 -170 87.5 -258t245.5 -88q88 0 160 35t118.5 90.5t78 127.5t45 142.5t13.5 139.5q0 170 -87 258t-245 88q-88 0 -160 -35t-118.5 -90.5t-78.5 -127.5t-45.5 -142.5t-13.5 -139.5zM409 1746h246l236 -368h-182z" />
    <glyph glyph-name="oacute" unicode="&#xf3;" horiz-adv-x="1383" 
d="M642 -20q-113 0 -208.5 31.5t-169 93.5t-115 163.5t-41.5 233.5q0 101 23 200t73.5 191.5t123 162.5t179.5 112.5t235 42.5q113 0 208.5 -31.5t169 -93.5t115 -163.5t41.5 -233.5q0 -101 -23 -200t-73.5 -191.5t-123 -162.5t-179.5 -112.5t-235 -42.5zM317 501
q0 -170 87.5 -258t245.5 -88q88 0 160 35t118.5 90.5t78 127.5t45 142.5t13.5 139.5q0 170 -87 258t-245 88q-88 0 -160 -35t-118.5 -90.5t-78.5 -127.5t-45.5 -142.5t-13.5 -139.5zM677 1378l293 368h253l-357 -368h-189z" />
    <glyph glyph-name="ocircumflex" unicode="&#xf4;" horiz-adv-x="1383" 
d="M642 -20q-113 0 -208.5 31.5t-169 93.5t-115 163.5t-41.5 233.5q0 101 23 200t73.5 191.5t123 162.5t179.5 112.5t235 42.5q113 0 208.5 -31.5t169 -93.5t115 -163.5t41.5 -233.5q0 -101 -23 -200t-73.5 -191.5t-123 -162.5t-179.5 -112.5t-235 -42.5zM317 501
q0 -170 87.5 -258t245.5 -88q88 0 160 35t118.5 90.5t78 127.5t45 142.5t13.5 139.5q0 170 -87 258t-245 88q-88 0 -160 -35t-118.5 -90.5t-78.5 -127.5t-45.5 -142.5t-13.5 -139.5zM426 1378l344 368h263l196 -368h-184l-161 241l-258 -241h-200z" />
    <glyph glyph-name="otilde" unicode="&#xf5;" horiz-adv-x="1383" 
d="M642 -20q-113 0 -208.5 31.5t-169 93.5t-115 163.5t-41.5 233.5q0 101 23 200t73.5 191.5t123 162.5t179.5 112.5t235 42.5q113 0 208.5 -31.5t169 -93.5t115 -163.5t41.5 -233.5q0 -101 -23 -200t-73.5 -191.5t-123 -162.5t-179.5 -112.5t-235 -42.5zM317 501
q0 -170 87.5 -258t245.5 -88q88 0 160 35t118.5 90.5t78 127.5t45 142.5t13.5 139.5q0 170 -87 258t-245 88q-88 0 -160 -35t-118.5 -90.5t-78.5 -127.5t-45.5 -142.5t-13.5 -139.5zM412 1378q28 166 92.5 253t176.5 87q46 0 88 -17t73 -41t59 -48t57 -41t56 -17
q43 0 66 39.5t41 124.5h172q-29 -166 -93.5 -253t-176.5 -87q-46 0 -88 17t-73 41t-59 48t-57 41t-56 17q-43 0 -65.5 -39.5t-40.5 -124.5h-172z" />
    <glyph glyph-name="odieresis" unicode="&#xf6;" horiz-adv-x="1383" 
d="M642 -20q-113 0 -208.5 31.5t-169 93.5t-115 163.5t-41.5 233.5q0 101 23 200t73.5 191.5t123 162.5t179.5 112.5t235 42.5q113 0 208.5 -31.5t169 -93.5t115 -163.5t41.5 -233.5q0 -101 -23 -200t-73.5 -191.5t-123 -162.5t-179.5 -112.5t-235 -42.5zM317 501
q0 -170 87.5 -258t245.5 -88q88 0 160 35t118.5 90.5t78 127.5t45 142.5t13.5 139.5q0 170 -87 258t-245 88q-88 0 -160 -35t-118.5 -90.5t-78.5 -127.5t-45.5 -142.5t-13.5 -139.5zM429 1549q0 62 40.5 103.5t102.5 41.5t103.5 -41.5t41.5 -103.5t-41.5 -104t-103.5 -42
t-102.5 41.5t-40.5 104.5zM966 1549q0 62 41 103.5t103 41.5t103 -41.5t41 -103.5t-41 -104t-103 -42t-103 42t-41 104z" />
    <glyph glyph-name="divide" unicode="&#xf7;" horiz-adv-x="1588" 
d="M186 625l36 183h1229l-36 -183h-1229zM572 270q0 67 45 113t112 46t112 -46t45 -113t-45 -112t-112 -45t-112 45t-45 112zM751 1163q0 67 45 112.5t112 45.5t112 -45.5t45 -112.5t-45 -112t-112 -45t-112 45t-45 112z" />
    <glyph glyph-name="oslash" unicode="&#xf8;" horiz-adv-x="1383" 
d="M642 -20q-154 0 -271 55l-120 -160h-205l191 256q-129 135 -129 371q0 101 23 200t73.5 191.5t123 162.5t179.5 112.5t235 42.5q155 0 270 -54l119 159h205l-190 -255q130 -136 130 -372q0 -101 -23 -200t-73.5 -191.5t-123 -162.5t-179.5 -112.5t-235 -42.5zM317 501
q0 -121 47 -204l534 708q-69 31 -165 31q-88 0 -160 -35t-118.5 -90.5t-78.5 -127.5t-45.5 -142.5t-13.5 -139.5zM485 187q68 -32 165 -32q88 0 160 35t118.5 90.5t78 127.5t45 142.5t13.5 139.5q0 125 -47 205z" />
    <glyph glyph-name="ugrave" unicode="&#xf9;" horiz-adv-x="1427" 
d="M531 -20q-171 0 -272 91t-101 258q0 76 27 209l130 653h207l-130 -651q-22 -112 -22 -179q0 -204 228 -204q161 0 261 97t134 263l135 674h207l-190 -951l-16 -240h-203l13 170q-63 -89 -170 -139.5t-238 -50.5zM424 1746h246l236 -368h-182z" />
    <glyph glyph-name="uacute" unicode="&#xfa;" horiz-adv-x="1427" 
d="M531 -20q-171 0 -272 91t-101 258q0 76 27 209l130 653h207l-130 -651q-22 -112 -22 -179q0 -204 228 -204q161 0 261 97t134 263l135 674h207l-190 -951l-16 -240h-203l13 170q-63 -89 -170 -139.5t-238 -50.5zM693 1378l292 368h254l-357 -368h-189z" />
    <glyph glyph-name="ucircumflex" unicode="&#xfb;" horiz-adv-x="1427" 
d="M531 -20q-171 0 -272 91t-101 258q0 76 27 209l130 653h207l-130 -651q-22 -112 -22 -179q0 -204 228 -204q161 0 261 97t134 263l135 674h207l-190 -951l-16 -240h-203l13 170q-63 -89 -170 -139.5t-238 -50.5zM441 1378l344 368h263l197 -368h-185l-161 241l-257 -241
h-201z" />
    <glyph glyph-name="udieresis" unicode="&#xfc;" horiz-adv-x="1427" 
d="M531 -20q-171 0 -272 91t-101 258q0 76 27 209l130 653h207l-130 -651q-22 -112 -22 -179q0 -204 228 -204q161 0 261 97t134 263l135 674h207l-190 -951l-16 -240h-203l13 170q-63 -89 -170 -139.5t-238 -50.5zM444 1549q0 62 41 103.5t103 41.5t103 -41.5t41 -103.5
t-41 -104t-103 -42t-103 42t-41 104zM981 1549q0 62 41 103.5t103 41.5t103 -41.5t41 -103.5t-41 -104t-103 -42t-103 42t-41 104z" />
    <glyph glyph-name="yacute" unicode="&#xfd;" horiz-adv-x="1219" 
d="M113 -410l284 458l-262 1143h213l197 -944l562 944h216l-994 -1601h-216zM602 1378l292 368h253l-356 -368h-189z" />
    <glyph glyph-name="thorn" unicode="&#xfe;" horiz-adv-x="1469" 
d="M5 -410l426 2133h207l-134 -670q63 72 160.5 115t219.5 43q226 0 351.5 -141.5t125.5 -379.5q0 -110 -25 -213.5t-76.5 -194t-124 -157.5t-173.5 -106t-219 -39q-150 0 -256.5 61.5t-150.5 175.5l-125 -627h-206zM402 501q0 -170 87.5 -258t245.5 -88q88 0 160.5 35
t118.5 90.5t78 127.5t45.5 142.5t13.5 139.5q0 170 -87 258t-245 88q-88 0 -160.5 -35t-119 -90.5t-78.5 -127.5t-45.5 -142.5t-13.5 -139.5z" />
    <glyph glyph-name="ydieresis" unicode="&#xff;" horiz-adv-x="1219" 
d="M113 -410l284 458l-262 1143h213l197 -944l562 944h216l-994 -1601h-216zM353 1549q0 62 41 103.5t103 41.5t103 -41.5t41 -103.5t-41 -104t-103 -42t-103 42t-41 104zM890 1549q0 62 41 103.5t103 41.5t103 -41.5t41 -103.5t-41 -104t-103 -42t-103 42t-41 104z" />
    <glyph glyph-name="Amacron" unicode="&#x100;" horiz-adv-x="1479" 
d="M-99 0l911 1638h272l256 -1638h-218l-66 475h-675l-255 -475h-225zM478 653h554l-113 820zM624 1816l34 173h670l-35 -173h-669z" />
    <glyph glyph-name="amacron" unicode="&#x101;" horiz-adv-x="1341" 
d="M464 -20q-185 0 -290.5 86t-105.5 241q0 144 98.5 239.5t306.5 117.5l272 29q77 8 128 26t76 44.5t34 54t9 64.5q0 77 -58 115.5t-195 38.5q-135 0 -229 -37t-177 -114l-110 141q196 185 531 185q215 0 325.5 -79.5t110.5 -247.5q0 -65 -20 -163l-96 -481l-16 -240h-202
l11 171q-133 -191 -403 -191zM278 328q0 -85 60 -131t174 -46q160 0 267.5 93.5t143.5 273.5l24 119q-28 -40 -88 -62t-159 -33l-181 -20q-241 -26 -241 -194zM467 1443l35 173h669l-35 -173h-669z" />
    <glyph glyph-name="Abreve" unicode="&#x102;" horiz-adv-x="1479" 
d="M-99 0l911 1638h272l256 -1638h-218l-66 475h-675l-255 -475h-225zM478 653h554l-113 820zM642 2034q0 43 7 85h163q-5 -33 -5 -56q0 -75 39.5 -117.5t117.5 -42.5q88 0 139.5 55t74.5 161h175q-17 -85 -46 -151t-75 -118.5t-115 -80.5t-158 -28q-154 0 -235.5 80
t-81.5 213z" />
    <glyph glyph-name="abreve" unicode="&#x103;" horiz-adv-x="1341" 
d="M464 -20q-185 0 -290.5 86t-105.5 241q0 144 98.5 239.5t306.5 117.5l272 29q77 8 128 26t76 44.5t34 54t9 64.5q0 77 -58 115.5t-195 38.5q-135 0 -229 -37t-177 -114l-110 141q196 185 531 185q215 0 325.5 -79.5t110.5 -247.5q0 -65 -20 -163l-96 -481l-16 -240h-202
l11 171q-133 -191 -403 -191zM278 328q0 -85 60 -131t174 -46q160 0 267.5 93.5t143.5 273.5l24 119q-28 -40 -88 -62t-159 -33l-181 -20q-241 -26 -241 -194zM484 1661q0 39 8 85h162q-4 -27 -4 -56q0 -76 39 -118t117 -42q168 0 214 216h177q-36 -178 -129 -278t-266 -100
q-155 0 -236.5 80t-81.5 213z" />
    <glyph glyph-name="Aogonek" unicode="&#x104;" horiz-adv-x="1479" 
d="M-99 0l911 1638h272l256 -1638q-187 -153 -187 -251q0 -33 22.5 -51t62.5 -18q17 0 39 5l-24 -120q-25 -4 -61 -4q-93 0 -155 38t-62 121q0 147 219 280h-72l-66 475h-675l-255 -475h-225zM478 653h554l-113 820z" />
    <glyph glyph-name="aogonek" unicode="&#x105;" horiz-adv-x="1341" 
d="M464 -20q-185 0 -290.5 86t-105.5 241q0 144 98.5 239.5t306.5 117.5l272 29q77 8 128 26t76 44.5t34 54t9 64.5q0 77 -58 115.5t-195 38.5q-135 0 -229 -37t-177 -114l-110 141q196 185 531 185q215 0 325.5 -79.5t110.5 -247.5q0 -65 -20 -163l-96 -481l-16 -240
q-187 -153 -187 -251q0 -33 22.5 -51t62.5 -18q17 0 39 5l-24 -120q-25 -4 -60 -4q-93 0 -155.5 38t-62.5 121q0 147 219 280h-56l11 171q-133 -191 -403 -191zM278 328q0 -85 60 -131t174 -46q160 0 267.5 93.5t143.5 273.5l24 119q-28 -40 -88 -62t-159 -33l-181 -20
q-241 -26 -241 -194z" />
    <glyph glyph-name="Cacute" unicode="&#x106;" horiz-adv-x="1582" 
d="M850 -20q-174 0 -308.5 52.5t-220.5 147.5t-130 225.5t-44 290.5q0 118 23 232.5t68.5 223t118.5 200t166.5 160.5t219.5 108t271 39q423 0 608 -310l-169 -123q-126 249 -455 249q-131 0 -239 -47.5t-180 -125t-121.5 -180.5t-71.5 -211t-22 -218q0 -262 128.5 -395.5
t367.5 -133.5q269 0 437 195l135 -145q-219 -234 -582 -234zM1000 1751l293 368h254l-357 -368h-190z" />
    <glyph glyph-name="cacute" unicode="&#x107;" horiz-adv-x="1221" 
d="M635 -20q-251 0 -388 142t-137 390q0 101 22.5 198t72.5 188.5t123 160.5t181 110.5t239 41.5q309 0 444 -217l-159 -115q-82 157 -296 157q-83 0 -153 -30.5t-118 -81.5t-82 -119t-49.5 -142t-15.5 -151q0 -177 84.5 -267t245.5 -90q175 0 291 130l130 -134
q-162 -171 -435 -171zM694 1378l293 368h253l-357 -368h-189z" />
    <glyph glyph-name="Ccircumflex" unicode="&#x108;" horiz-adv-x="1582" 
d="M850 -20q-174 0 -308.5 52.5t-220.5 147.5t-130 225.5t-44 290.5q0 118 23 232.5t68.5 223t118.5 200t166.5 160.5t219.5 108t271 39q423 0 608 -310l-169 -123q-126 249 -455 249q-131 0 -239 -47.5t-180 -125t-121.5 -180.5t-71.5 -211t-22 -218q0 -262 128.5 -395.5
t367.5 -133.5q269 0 437 195l135 -145q-219 -234 -582 -234zM698 1751l344 368h264l196 -368h-184l-161 241l-258 -241h-201z" />
    <glyph glyph-name="ccircumflex" unicode="&#x109;" horiz-adv-x="1221" 
d="M635 -20q-251 0 -388 142t-137 390q0 101 22.5 198t72.5 188.5t123 160.5t181 110.5t239 41.5q309 0 444 -217l-159 -115q-82 157 -296 157q-83 0 -153 -30.5t-118 -81.5t-82 -119t-49.5 -142t-15.5 -151q0 -177 84.5 -267t245.5 -90q175 0 291 130l130 -134
q-162 -171 -435 -171zM443 1378l343 368h264l196 -368h-184l-161 241l-258 -241h-200z" />
    <glyph glyph-name="Cdotaccent" unicode="&#x10a;" horiz-adv-x="1582" 
d="M850 -20q-174 0 -308.5 52.5t-220.5 147.5t-130 225.5t-44 290.5q0 118 23 232.5t68.5 223t118.5 200t166.5 160.5t219.5 108t271 39q423 0 608 -310l-169 -123q-126 249 -455 249q-131 0 -239 -47.5t-180 -125t-121.5 -180.5t-71.5 -211t-22 -218q0 -262 128.5 -395.5
t367.5 -133.5q269 0 437 195l135 -145q-219 -234 -582 -234zM995 1922q0 62 41 103t103 41t103 -41t41 -103t-41 -104t-103 -42t-103 42t-41 104z" />
    <glyph glyph-name="cdotaccent" unicode="&#x10b;" horiz-adv-x="1221" 
d="M635 -20q-251 0 -388 142t-137 390q0 101 22.5 198t72.5 188.5t123 160.5t181 110.5t239 41.5q309 0 444 -217l-159 -115q-82 157 -296 157q-83 0 -153 -30.5t-118 -81.5t-82 -119t-49.5 -142t-15.5 -151q0 -177 84.5 -267t245.5 -90q175 0 291 130l130 -134
q-162 -171 -435 -171zM738 1549q0 62 41.5 103.5t103.5 41.5t103 -41.5t41 -103.5t-41 -104t-103 -42t-103.5 42t-41.5 104z" />
    <glyph glyph-name="Ccaron" unicode="&#x10c;" horiz-adv-x="1582" 
d="M850 -20q-174 0 -308.5 52.5t-220.5 147.5t-130 225.5t-44 290.5q0 118 23 232.5t68.5 223t118.5 200t166.5 160.5t219.5 108t271 39q423 0 608 -310l-169 -123q-126 249 -455 249q-131 0 -239 -47.5t-180 -125t-121.5 -180.5t-71.5 -211t-22 -218q0 -262 128.5 -395.5
t367.5 -133.5q269 0 437 195l135 -145q-219 -234 -582 -234zM737 2119h184l161 -241l258 241h201l-344 -368h-264z" />
    <glyph glyph-name="ccaron" unicode="&#x10d;" horiz-adv-x="1221" 
d="M635 -20q-251 0 -388 142t-137 390q0 101 22.5 198t72.5 188.5t123 160.5t181 110.5t239 41.5q309 0 444 -217l-159 -115q-82 157 -296 157q-83 0 -153 -30.5t-118 -81.5t-82 -119t-49.5 -142t-15.5 -151q0 -177 84.5 -267t245.5 -90q175 0 291 130l130 -134
q-162 -171 -435 -171zM481 1746h184l161 -241l258 241h201l-344 -368h-264z" />
    <glyph glyph-name="Dcaron" unicode="&#x10e;" horiz-adv-x="1678" 
d="M93 0l328 1638h508q149 0 272.5 -40.5t219 -122t149 -215.5t53.5 -310q0 -141 -33 -276.5t-103.5 -257.5t-170 -214.5t-243 -147t-311.5 -54.5h-669zM345 184h397q137 0 250.5 46.5t189 122.5t127 177t74.5 207t23 215q0 254 -128 378t-363 124h-316zM650 2119h185
l161 -241l257 241h201l-344 -368h-263z" />
    <glyph glyph-name="dcaron" unicode="&#x10f;" horiz-adv-x="1606" 
d="M585 -20q-226 0 -351.5 141.5t-125.5 379.5q0 110 25 213.5t76.5 194t124 157.5t173.5 106t219 39q150 0 256.5 -61.5t150.5 -175.5l150 749h207l-297 -1483l-15 -240h-203l12 165q-61 -83 -165 -134t-237 -51zM318 501q0 -171 87 -258.5t246 -87.5q88 0 160 35
t118.5 90.5t78.5 127.5t45.5 142.5t13.5 139.5q0 171 -87 258.5t-246 87.5q-88 0 -160.5 -35t-118.5 -90.5t-78 -127.5t-45.5 -142.5t-13.5 -139.5zM1556 1260l93 463h213l-160 -463h-146z" />
    <glyph glyph-name="Dcroat" unicode="&#x110;" horiz-adv-x="1683" 
d="M98 0l148 740h-175l32 162h176l147 736h508q149 0 272.5 -40.5t219 -122t149 -215.5t53.5 -310q0 -141 -33 -276.5t-103.5 -257.5t-170 -214.5t-243 -147t-311.5 -54.5h-669zM350 184h397q137 0 251 46.5t189 122.5t127 177t75 207t23 215q0 254 -128.5 378t-363.5 124
h-316l-111 -552h400l-32 -162h-400z" />
    <glyph glyph-name="dcroat" unicode="&#x111;" horiz-adv-x="1476" 
d="M585 -20q-226 0 -351.5 141.5t-125.5 379.5q0 110 25 213.5t76.5 194t124 157.5t173.5 106t219 39q150 0 256.5 -61.5t150.5 -175.5l92 458h-332l28 138h331l31 153h207l-31 -153h126l-27 -138h-126l-239 -1192l-15 -240h-203l12 165q-61 -83 -165 -134t-237 -51z
M318 501q0 -171 87 -258.5t246 -87.5q88 0 160 35t118.5 90.5t78.5 127.5t45.5 142.5t13.5 139.5q0 171 -87 258.5t-246 87.5q-88 0 -160.5 -35t-118.5 -90.5t-78 -127.5t-45.5 -142.5t-13.5 -139.5z" />
    <glyph glyph-name="Emacron" unicode="&#x112;" horiz-adv-x="1418" 
d="M93 0l328 1638h1074l-37 -184h-859l-104 -517h765l-36 -179h-765l-114 -573h859l-37 -185h-1074zM650 1816l34 173h670l-35 -173h-669z" />
    <glyph glyph-name="emacron" unicode="&#x113;" horiz-adv-x="1360" 
d="M655 -20q-140 0 -246.5 40t-171 112t-96.5 165.5t-32 206.5q0 105 23 204.5t73.5 191.5t124.5 160.5t183.5 109.5t241.5 41q130 0 230 -40t159 -109.5t88.5 -156t29.5 -187.5q0 -92 -26 -194h-921q-1 -10 -1 -30q0 -167 89.5 -256t260.5 -89q209 0 357 145l114 -136
q-99 -88 -213.5 -133t-266.5 -45zM338 681h722q2 15 2 44q0 63 -16.5 117.5t-51 101t-96.5 73.5t-146 27q-167 0 -271 -96t-143 -267zM500 1443l35 173h669l-35 -173h-669z" />
    <glyph glyph-name="Ebreve" unicode="&#x114;" horiz-adv-x="1418" 
d="M93 0l328 1638h1074l-37 -184h-859l-104 -517h765l-36 -179h-765l-114 -573h859l-37 -185h-1074zM667 2034q0 37 8 85h162q-4 -27 -4 -56q0 -76 39 -118t117 -42q88 0 139.5 55t74.5 161h176q-17 -85 -46 -151t-75 -118.5t-115 -80.5t-158 -28q-155 0 -236.5 80
t-81.5 213z" />
    <glyph glyph-name="ebreve" unicode="&#x115;" horiz-adv-x="1360" 
d="M655 -20q-140 0 -246.5 40t-171 112t-96.5 165.5t-32 206.5q0 105 23 204.5t73.5 191.5t124.5 160.5t183.5 109.5t241.5 41q130 0 230 -40t159 -109.5t88.5 -156t29.5 -187.5q0 -92 -26 -194h-921q-1 -10 -1 -30q0 -167 89.5 -256t260.5 -89q209 0 357 145l114 -136
q-99 -88 -213.5 -133t-266.5 -45zM338 681h722q2 15 2 44q0 63 -16.5 117.5t-51 101t-96.5 73.5t-146 27q-167 0 -271 -96t-143 -267zM517 1661q0 39 8 85h162q-5 -33 -5 -56q0 -75 39.5 -117.5t117.5 -42.5q168 0 214 216h176q-36 -178 -128.5 -278t-265.5 -100
q-155 0 -236.5 80t-81.5 213z" />
    <glyph glyph-name="Edotaccent" unicode="&#x116;" horiz-adv-x="1418" 
d="M93 0l328 1638h1074l-37 -184h-859l-104 -517h765l-36 -179h-765l-114 -573h859l-37 -185h-1074zM867 1922q0 62 41 103t103 41t103.5 -41t41.5 -103t-41.5 -104t-103.5 -42t-103 42t-41 104z" />
    <glyph glyph-name="edotaccent" unicode="&#x117;" horiz-adv-x="1360" 
d="M655 -20q-140 0 -246.5 40t-171 112t-96.5 165.5t-32 206.5q0 105 23 204.5t73.5 191.5t124.5 160.5t183.5 109.5t241.5 41q130 0 230 -40t159 -109.5t88.5 -156t29.5 -187.5q0 -92 -26 -194h-921q-1 -10 -1 -30q0 -167 89.5 -256t260.5 -89q209 0 357 145l114 -136
q-99 -88 -213.5 -133t-266.5 -45zM338 681h722q2 15 2 44q0 63 -16.5 117.5t-51 101t-96.5 73.5t-146 27q-167 0 -271 -96t-143 -267zM717 1549q0 62 41 103.5t103 41.5t103 -41.5t41 -103.5t-41 -104t-103 -42t-103 42t-41 104z" />
    <glyph glyph-name="Eogonek" unicode="&#x118;" horiz-adv-x="1418" 
d="M93 0l328 1638h1074l-37 -184h-859l-104 -517h765l-36 -179h-765l-114 -573h859l-37 -185q-187 -153 -187 -251q0 -33 22.5 -51t62.5 -18q17 0 39 5l-24 -120q-25 -4 -60 -4q-93 0 -155.5 38t-62.5 121q0 147 219 280h-928z" />
    <glyph glyph-name="eogonek" unicode="&#x119;" horiz-adv-x="1360" 
d="M911 -434q-34 -5 -80 -5q-98 0 -156.5 39.5t-58.5 121.5q0 136 210 278q-71 -20 -171 -20q-140 0 -246.5 40t-171 112t-96.5 165.5t-32 206.5q0 105 23 204.5t73.5 191.5t124.5 160.5t183.5 109.5t241.5 41q130 0 230 -40t159 -109.5t88.5 -156t29.5 -187.5
q0 -92 -26 -194h-921q-1 -10 -1 -30q0 -167 89.5 -256t260.5 -89q209 0 357 145l113 -135l-64 -57q-157 -140 -217.5 -216t-60.5 -132q0 -73 85 -73q31 0 58 7zM338 681h722q2 15 2 44q0 63 -16.5 117.5t-51 101t-96.5 73.5t-146 27q-167 0 -271 -96t-143 -267z" />
    <glyph glyph-name="Ecaron" unicode="&#x11a;" horiz-adv-x="1418" 
d="M93 0l328 1638h1074l-37 -184h-859l-104 -517h765l-36 -179h-765l-114 -573h859l-37 -185h-1074zM609 2119h185l161 -241l257 241h201l-344 -368h-263z" />
    <glyph glyph-name="ecaron" unicode="&#x11b;" horiz-adv-x="1360" 
d="M655 -20q-140 0 -246.5 40t-171 112t-96.5 165.5t-32 206.5q0 105 23 204.5t73.5 191.5t124.5 160.5t183.5 109.5t241.5 41q130 0 230 -40t159 -109.5t88.5 -156t29.5 -187.5q0 -92 -26 -194h-921q-1 -10 -1 -30q0 -167 89.5 -256t260.5 -89q209 0 357 145l114 -136
q-99 -88 -213.5 -133t-266.5 -45zM338 681h722q2 15 2 44q0 63 -16.5 117.5t-51 101t-96.5 73.5t-146 27q-167 0 -271 -96t-143 -267zM459 1746h185l161 -241l257 241h201l-344 -368h-263z" />
    <glyph glyph-name="Gcircumflex" unicode="&#x11c;" horiz-adv-x="1731" 
d="M846 -20q-332 0 -515 193.5t-183 522.5q0 142 31.5 278t101.5 261t170.5 218.5t248.5 149.5t326 56q195 0 350 -68.5t252 -213.5l-169 -123q-63 109 -179.5 165t-266.5 56q-137 0 -249 -47.5t-184.5 -125t-122 -181t-71 -210.5t-21.5 -218q0 -262 129 -395.5t371 -133.5
q258 0 421 147l76 381h-471l37 181h679l-175 -873h-107l-14 134q-185 -154 -465 -154zM701 1751l344 368h263l197 -368h-185l-161 241l-257 -241h-201z" />
    <glyph glyph-name="gcircumflex" unicode="&#x11d;" horiz-adv-x="1469" 
d="M579 -430q-378 0 -547 185l134 144q70 -79 169 -116t240 -37q161 0 251 74t122 231l28 136q-62 -75 -162 -120t-227 -45q-225 0 -350.5 137t-125.5 359q0 135 40.5 258.5t115.5 221t194.5 155.5t265.5 58q149 0 255.5 -61.5t150.5 -175.5l43 217h207l-234 -1170
q-90 -451 -570 -451zM321 518q0 -160 87 -245t244 -85q88 0 160 35t118 89.5t78 124.5t45.5 137.5t13.5 131.5q0 162 -87 246t-245 84q-88 0 -160 -34t-118 -87.5t-77.5 -123t-45 -138t-13.5 -135.5zM457 1378l344 368h263l197 -368h-185l-161 241l-258 -241h-200z" />
    <glyph glyph-name="Gbreve" unicode="&#x11e;" horiz-adv-x="1731" 
d="M846 -20q-332 0 -515 193.5t-183 522.5q0 142 31.5 278t101.5 261t170.5 218.5t248.5 149.5t326 56q195 0 350 -68.5t252 -213.5l-169 -123q-63 109 -179.5 165t-266.5 56q-137 0 -249 -47.5t-184.5 -125t-122 -181t-71 -210.5t-21.5 -218q0 -262 129 -395.5t371 -133.5
q258 0 421 147l76 381h-471l37 181h679l-175 -873h-107l-14 134q-185 -154 -465 -154zM797 2034q0 37 8 85h162q-4 -27 -4 -56q0 -76 39 -118t117 -42q88 0 139.5 55t74.5 161h176q-17 -85 -46 -151t-75 -118.5t-115 -80.5t-158 -28q-155 0 -236.5 80t-81.5 213z" />
    <glyph glyph-name="gbreve" unicode="&#x11f;" horiz-adv-x="1469" 
d="M579 -430q-378 0 -547 185l134 144q70 -79 169 -116t240 -37q161 0 251 74t122 231l28 136q-62 -75 -162 -120t-227 -45q-225 0 -350.5 137t-125.5 359q0 135 40.5 258.5t115.5 221t194.5 155.5t265.5 58q149 0 255.5 -61.5t150.5 -175.5l43 217h207l-234 -1170
q-90 -451 -570 -451zM321 518q0 -160 87 -245t244 -85q88 0 160 35t118 89.5t78 124.5t45.5 137.5t13.5 131.5q0 162 -87 246t-245 84q-88 0 -160 -34t-118 -87.5t-77.5 -123t-45 -138t-13.5 -135.5zM553 1661q0 39 8 85h162q-5 -33 -5 -56q0 -75 39.5 -117.5t117.5 -42.5
q168 0 214 216h176q-36 -178 -129 -278t-266 -100q-154 0 -235.5 80t-81.5 213z" />
    <glyph glyph-name="Gdotaccent" unicode="&#x120;" horiz-adv-x="1731" 
d="M846 -20q-332 0 -515 193.5t-183 522.5q0 142 31.5 278t101.5 261t170.5 218.5t248.5 149.5t326 56q195 0 350 -68.5t252 -213.5l-169 -123q-63 109 -179.5 165t-266.5 56q-137 0 -249 -47.5t-184.5 -125t-122 -181t-71 -210.5t-21.5 -218q0 -262 129 -395.5t371 -133.5
q258 0 421 147l76 381h-471l37 181h679l-175 -873h-107l-14 134q-185 -154 -465 -154zM997 1922q0 62 41 103t103 41t103.5 -41t41.5 -103t-41.5 -104t-103.5 -42t-103 42t-41 104z" />
    <glyph glyph-name="gdotaccent" unicode="&#x121;" horiz-adv-x="1469" 
d="M579 -430q-378 0 -547 185l134 144q70 -79 169 -116t240 -37q161 0 251 74t122 231l28 136q-62 -75 -162 -120t-227 -45q-225 0 -350.5 137t-125.5 359q0 135 40.5 258.5t115.5 221t194.5 155.5t265.5 58q149 0 255.5 -61.5t150.5 -175.5l43 217h207l-234 -1170
q-90 -451 -570 -451zM321 518q0 -160 87 -245t244 -85q88 0 160 35t118 89.5t78 124.5t45.5 137.5t13.5 131.5q0 162 -87 246t-245 84q-88 0 -160 -34t-118 -87.5t-77.5 -123t-45 -138t-13.5 -135.5zM753 1549q0 62 41 103.5t103 41.5t103 -41.5t41 -103.5t-41 -104
t-103 -42t-103 42t-41 104z" />
    <glyph glyph-name="uni0122" unicode="&#x122;" horiz-adv-x="1731" 
d="M846 -20q-332 0 -515 193.5t-183 522.5q0 142 31.5 278t101.5 261t170.5 218.5t248.5 149.5t326 56q195 0 350 -68.5t252 -213.5l-169 -123q-63 109 -179.5 165t-266.5 56q-137 0 -249 -47.5t-184.5 -125t-122 -181t-71 -210.5t-21.5 -218q0 -262 129 -395.5t371 -133.5
q258 0 421 147l76 381h-471l37 181h679l-175 -873h-107l-14 134q-185 -154 -465 -154zM412 -481l231 358h224l-275 -358h-180z" />
    <glyph glyph-name="uni0123" unicode="&#x123;" horiz-adv-x="1469" 
d="M579 -430q-378 0 -547 185l134 144q70 -79 169 -116t240 -37q161 0 251 74t122 231l28 136q-62 -75 -162 -120t-227 -45q-225 0 -350.5 137t-125.5 359q0 135 40.5 258.5t115.5 221t194.5 155.5t265.5 58q149 0 255.5 -61.5t150.5 -175.5l43 217h207l-234 -1170
q-90 -451 -570 -451zM321 518q0 -160 87 -245t244 -85q88 0 160 35t118 89.5t78 124.5t45.5 137.5t13.5 131.5q0 162 -87 246t-245 84q-88 0 -160 -34t-118 -87.5t-77.5 -123t-45 -138t-13.5 -135.5zM699 1378l310 368h193l-246 -368h-257z" />
    <glyph glyph-name="Hcircumflex" unicode="&#x124;" horiz-adv-x="1731" 
d="M1185 0l151 755h-877l-151 -755h-215l328 1638h214l-139 -698h877l139 698h215l-328 -1638h-214zM674 1751l344 368h264l196 -368h-184l-161 241l-258 -241h-201z" />
    <glyph glyph-name="hcircumflex" unicode="&#x125;" horiz-adv-x="1426" 
d="M87 0l344 1723h207l-135 -675q65 77 165.5 120t221.5 43q174 0 276.5 -91t102.5 -258q0 -76 -27 -209l-130 -653h-207l130 651q22 112 22 178q0 97 -56.5 151t-177.5 54q-161 0 -261 -97t-133 -263l-136 -674h-206zM539 1836l344 368h263l197 -368h-184l-162 241
l-257 -241h-201z" />
    <glyph glyph-name="Hbar" unicode="&#x126;" horiz-adv-x="1731" 
d="M1185 0l151 755h-877l-151 -755h-215l243 1213h-135l30 152h135l55 273h214l-54 -273h877l54 273h215l-55 -273h135l-30 -152h-135l-243 -1213h-214zM496 940h877l54 273h-877z" />
    <glyph glyph-name="hbar" unicode="&#x127;" horiz-adv-x="1426" 
d="M87 0l286 1432h-126l27 138h126l31 153h207l-31 -153h331l-27 -138h-331l-77 -384q65 77 165.5 120t221.5 43q174 0 276.5 -91t102.5 -258q0 -76 -27 -209l-130 -653h-207l130 651q22 112 22 178q0 97 -56.5 151t-177.5 54q-161 0 -261 -97t-133 -263l-136 -674h-206z
" />
    <glyph glyph-name="Itilde" unicode="&#x128;" horiz-adv-x="639" 
d="M93 0l328 1638h214l-327 -1638h-215zM130 1751q29 166 93.5 252.5t176.5 86.5q56 0 107.5 -25.5t83.5 -56t70.5 -56t71.5 -25.5q43 0 65.5 39t40.5 124h172q-28 -166 -92.5 -252.5t-176.5 -86.5q-46 0 -88 17t-73 40.5t-59 47.5t-57 41t-56 17q-43 0 -66 -39t-41 -124
h-172z" />
    <glyph glyph-name="itilde" unicode="&#x129;" horiz-adv-x="619" 
d="M87 0l238 1191h207l-238 -1191h-207zM100 1378q29 168 83.5 254t151.5 86q48 0 94 -24t75 -53t63 -53t62 -24q32 0 53 34t36 120h161q-29 -167 -84 -253.5t-152 -86.5q-48 0 -93.5 24t-74.5 53t-63 53t-62 24q-32 0 -53 -34t-36 -120h-161z" />
    <glyph glyph-name="Imacron" unicode="&#x12a;" horiz-adv-x="639" 
d="M93 0l328 1638h214l-327 -1638h-215zM223 1816l34 173h670l-35 -173h-669z" />
    <glyph glyph-name="imacron" unicode="&#x12b;" horiz-adv-x="619" 
d="M87 0l238 1191h207l-238 -1191h-207zM216 1443l34 173h527l-35 -173h-526z" />
    <glyph glyph-name="Ibreve" unicode="&#x12c;" horiz-adv-x="639" 
d="M93 0l328 1638h214l-327 -1638h-215zM240 2034q0 37 8 85h162q-4 -27 -4 -56q0 -76 39 -118t117 -42q88 0 139.5 55t74.5 161h176q-17 -85 -46 -151t-75 -118.5t-115 -80.5t-158 -28q-155 0 -236.5 80t-81.5 213z" />
    <glyph glyph-name="ibreve" unicode="&#x12d;" horiz-adv-x="619" 
d="M87 0l238 1191h207l-238 -1191h-207zM210 1635q0 53 12 111h164q-12 -56 -12 -92q0 -126 117 -126q62 0 101.5 52.5t58.5 165.5h170q-32 -187 -113 -282.5t-220 -95.5q-140 0 -209 72t-69 195z" />
    <glyph glyph-name="Iogonek" unicode="&#x12e;" horiz-adv-x="639" 
d="M93 0l328 1638h214l-327 -1638q-188 -154 -188 -251q0 -33 22.5 -51t62.5 -18q18 0 40 5l-24 -120q-25 -4 -61 -4q-93 0 -155 38t-62 121q0 147 219 280h-69z" />
    <glyph glyph-name="iogonek" unicode="&#x12f;" horiz-adv-x="619" 
d="M87 0l238 1191h207l-238 -1191q-188 -154 -188 -251q0 -33 22.5 -51t62.5 -18q18 0 40 5l-24 -120q-25 -4 -61 -4q-93 0 -155 38t-62 121q0 147 219 280h-61zM339 1578q0 69 43.5 113.5t113.5 44.5q66 0 108.5 -39.5t42.5 -105.5q0 -69 -43.5 -113.5t-113.5 -44.5
q-66 0 -108.5 39.5t-42.5 105.5z" />
    <glyph glyph-name="Idotaccent" unicode="&#x130;" horiz-adv-x="639" 
d="M93 0l328 1638h214l-327 -1638h-215zM440 1922q0 62 41 103t103 41t103.5 -41t41.5 -103t-41.5 -104t-103.5 -42t-103 42t-41 104z" />
    <glyph glyph-name="dotlessi" unicode="&#x131;" horiz-adv-x="619" 
d="M87 0l238 1191h207l-238 -1191h-207z" />
    <glyph glyph-name="IJ" unicode="&#x132;" horiz-adv-x="1589" 
d="M93 0l328 1638h214l-327 -1638h-215zM596 10l39 199q106 -37 241 -37q124 0 184.5 56t89.5 201l242 1209h215l-250 -1248q-45 -226 -159.5 -318t-324.5 -92q-149 0 -277 30z" />
    <glyph glyph-name="ij" unicode="&#x133;" horiz-adv-x="1238" 
d="M87 0l238 1191h207l-238 -1191h-207zM309 -403l35 179q86 -28 170 -28q80 0 118.5 35.5t59.5 140.5l253 1267h206l-257 -1290q-37 -184 -122.5 -257.5t-246.5 -73.5q-117 0 -216 27zM339 1578q0 69 43.5 113.5t113.5 44.5q66 0 108.5 -39.5t42.5 -105.5
q0 -69 -43.5 -113.5t-113.5 -44.5q-66 0 -108.5 39.5t-42.5 105.5zM958 1578q0 69 43.5 113.5t113.5 44.5q66 0 108.5 -39.5t42.5 -105.5q0 -69 -43 -113.5t-113 -44.5q-66 0 -109 39.5t-43 105.5z" />
    <glyph glyph-name="Jcircumflex" unicode="&#x134;" horiz-adv-x="950" 
d="M-4 209q106 -37 240 -37q124 0 184.5 56t89.5 201l243 1209h214l-250 -1248q-45 -226 -159.5 -318t-324.5 -92q-149 0 -277 30zM460 1751l344 368h264l196 -368h-184l-161 241l-258 -241h-201z" />
    <glyph glyph-name="jcircumflex" unicode="&#x135;" horiz-adv-x="619" 
d="M-95 -430q-117 0 -216 27l36 179q86 -28 170 -28q80 0 118 35.5t59 140.5l253 1267h207l-258 -1290q-37 -184 -122 -257.5t-247 -73.5zM95 1378l310 368h228l163 -368h-181l-114 219l-202 -219h-204z" />
    <glyph glyph-name="uni0136" unicode="&#x136;" horiz-adv-x="1413" 
d="M1008 0l-537 816l-163 -816h-215l328 1638h214l-146 -729l816 729h278l-889 -786l569 -852h-255zM274 -481l230 358h225l-275 -358h-180z" />
    <glyph glyph-name="uni0137" unicode="&#x137;" horiz-adv-x="1215" 
d="M840 0l-427 598l-120 -598h-206l344 1723h207l-209 -1047l616 515h272l-690 -561l455 -630h-242zM182 -481l230 358h225l-276 -358h-179z" />
    <glyph glyph-name="kgreenlandic" unicode="&#x138;" horiz-adv-x="1216" 
d="M840 0l-427 598l-119 -598h-207l238 1191h207l-103 -515l617 515h271l-689 -561l454 -630h-242z" />
    <glyph glyph-name="Lacute" unicode="&#x139;" horiz-adv-x="1352" 
d="M93 0l328 1638h214l-290 -1452h852l-37 -186h-1067zM431 1751l292 368h254l-357 -368h-189z" />
    <glyph glyph-name="lacute" unicode="&#x13a;" horiz-adv-x="619" 
d="M87 0l344 1723h207l-345 -1723h-206zM437 1836l293 368h253l-357 -368h-189z" />
    <glyph glyph-name="uni013B" unicode="&#x13b;" horiz-adv-x="1352" 
d="M93 0l328 1638h214l-290 -1452h852l-37 -186h-1067zM314 -481l230 358h225l-275 -358h-180z" />
    <glyph glyph-name="uni013C" unicode="&#x13c;" horiz-adv-x="619" 
d="M87 0l344 1723h207l-345 -1723h-206zM-174 -481l230 358h225l-275 -358h-180z" />
    <glyph glyph-name="Lcaron" unicode="&#x13d;" horiz-adv-x="1352" 
d="M93 0l328 1638h214l-290 -1452h852l-37 -186h-1067zM780 1117l105 521h213l-171 -521h-147z" />
    <glyph glyph-name="lcaron" unicode="&#x13e;" horiz-adv-x="755" 
d="M87 0l344 1723h207l-345 -1723h-206zM705 1260l93 463h213l-160 -463h-146z" />
    <glyph glyph-name="Ldot" unicode="&#x13f;" horiz-adv-x="1352" 
d="M93 0l328 1638h214l-290 -1452h852l-37 -186h-1067zM904 837q0 65 44 109.5t109 44.5t109 -44.5t44 -109.5t-44 -110t-109 -45q-64 0 -108.5 45t-44.5 110z" />
    <glyph glyph-name="ldot" unicode="&#x140;" horiz-adv-x="908" 
d="M87 0l344 1723h207l-345 -1723h-206zM659 837q0 65 44.5 109.5t109.5 44.5t109 -44.5t44 -109.5t-44.5 -110t-109.5 -45q-64 0 -108.5 45t-44.5 110z" />
    <glyph glyph-name="Lslash" unicode="&#x141;" horiz-adv-x="1353" 
d="M95 0l128 643l-178 -80l40 198l178 80l159 797h215l-141 -706l428 191l-40 -199l-428 -190l-109 -548h852l-38 -186h-1066z" />
    <glyph glyph-name="lslash" unicode="&#x142;" horiz-adv-x="645" 
d="M100 0l151 757l-182 -115l41 204l182 116l152 761h207l-126 -633l183 116l-41 -205l-183 -116l-177 -885h-207z" />
    <glyph glyph-name="Nacute" unicode="&#x143;" horiz-adv-x="1735" 
d="M93 0l328 1638h267l558 -1405l281 1405h204l-328 -1638h-266l-558 1405l-282 -1405h-204zM989 1751l293 368h253l-357 -368h-189z" />
    <glyph glyph-name="nacute" unicode="&#x144;" horiz-adv-x="1433" 
d="M93 0l190 951l15 240h203l-12 -170q63 89 170 139.5t238 50.5q174 0 276 -91t102 -258q0 -76 -27 -209l-130 -653h-207l131 651q22 112 22 175q0 208 -234 208q-162 0 -262 -97t-133 -263l-135 -674h-207zM723 1378l293 368h253l-357 -368h-189z" />
    <glyph glyph-name="uni0145" unicode="&#x145;" horiz-adv-x="1735" 
d="M93 0l328 1638h267l558 -1405l281 1405h204l-328 -1638h-266l-558 1405l-282 -1405h-204zM451 -481l230 358h225l-275 -358h-180z" />
    <glyph glyph-name="uni0146" unicode="&#x146;" horiz-adv-x="1433" 
d="M93 0l190 951l15 240h203l-12 -170q63 89 170 139.5t238 50.5q174 0 276 -91t102 -258q0 -76 -27 -209l-130 -653h-207l131 651q22 112 22 175q0 208 -234 208q-162 0 -262 -97t-133 -263l-135 -674h-207zM242 -481l230 358h225l-276 -358h-179z" />
    <glyph glyph-name="Ncaron" unicode="&#x147;" horiz-adv-x="1735" 
d="M93 0l328 1638h267l558 -1405l281 1405h204l-328 -1638h-266l-558 1405l-282 -1405h-204zM725 2119h184l162 -241l257 241h201l-344 -368h-263z" />
    <glyph glyph-name="ncaron" unicode="&#x148;" horiz-adv-x="1433" 
d="M93 0l190 951l15 240h203l-12 -170q63 89 170 139.5t238 50.5q174 0 276 -91t102 -258q0 -76 -27 -209l-130 -653h-207l131 651q22 112 22 175q0 208 -234 208q-162 0 -262 -97t-133 -263l-135 -674h-207zM510 1746h184l162 -241l257 241h201l-344 -368h-263z" />
    <glyph glyph-name="napostrophe" unicode="&#x149;" horiz-adv-x="1923" 
d="M210 1126q98 49 158.5 102t86.5 128q-6 -1 -19 -1q-59 0 -103.5 38.5t-44.5 106.5q0 66 41.5 112.5t115.5 46.5q76 0 117 -51.5t41 -143.5q0 -54 -16 -108.5t-51.5 -114t-105 -114t-164.5 -94.5zM583 0l190 951l15 240h203l-13 -170q63 89 170 139.5t238 50.5
q174 0 276 -91t102 -258q0 -81 -26 -209l-131 -653h-207l131 651q22 112 22 175q0 208 -234 208q-162 0 -262 -97t-133 -263l-134 -674h-207z" />
    <glyph glyph-name="Eng" unicode="&#x14a;" horiz-adv-x="1735" 
d="M745 -207q99 -32 208 -32q107 0 157 49t75 170v2l-608 1413l-280 -1395h-204l328 1638h264l573 -1344l269 1344h204l-336 -1682q-42 -209 -143 -297.5t-296 -88.5q-128 0 -249 31z" />
    <glyph glyph-name="eng" unicode="&#x14b;" horiz-adv-x="1433" 
d="M745 -430q-100 0 -200 27l36 178q75 -27 153 -27q72 0 106 35t55 141l147 727q22 112 22 175q0 208 -234 208q-162 0 -262 -97t-133 -263l-135 -674h-207l190 951l15 240h203l-12 -170q63 89 170 139.5t238 50.5q174 0 276 -91t102 -258q0 -76 -27 -209l-150 -752
q-37 -185 -118 -258t-235 -73z" />
    <glyph glyph-name="Omacron" unicode="&#x14c;" horiz-adv-x="1745" 
d="M837 -20q-117 0 -220 26t-190.5 81.5t-150 136.5t-97.5 197t-35 258q0 96 15.5 192.5t49 193t82.5 183.5t119.5 162.5t155.5 130t196 86t236 31.5q147 0 271 -42.5t219.5 -126t149 -219.5t53.5 -312q0 -135 -30.5 -270t-98.5 -263.5t-165 -226.5t-242 -158t-318 -60z
M361 675q0 -253 129 -382t359 -129q94 0 177 27.5t145.5 74t113.5 110.5t85.5 136t58.5 150.5t34.5 153.5t10.5 147q0 253 -129 382t-359 129q-94 0 -177 -27.5t-145.5 -74t-113.5 -110.5t-85.5 -136t-58.5 -150.5t-34.5 -153.5t-10.5 -147zM760 1816l34 173h670l-35 -173
h-669z" />
    <glyph glyph-name="omacron" unicode="&#x14d;" horiz-adv-x="1383" 
d="M642 -20q-113 0 -208.5 31.5t-169 93.5t-115 163.5t-41.5 233.5q0 101 23 200t73.5 191.5t123 162.5t179.5 112.5t235 42.5q113 0 208.5 -31.5t169 -93.5t115 -163.5t41.5 -233.5q0 -101 -23 -200t-73.5 -191.5t-123 -162.5t-179.5 -112.5t-235 -42.5zM317 501
q0 -170 87.5 -258t245.5 -88q88 0 160 35t118.5 90.5t78 127.5t45 142.5t13.5 139.5q0 170 -87 258t-245 88q-88 0 -160 -35t-118.5 -90.5t-78.5 -127.5t-45.5 -142.5t-13.5 -139.5zM504 1443l35 173h669l-34 -173h-670z" />
    <glyph glyph-name="Obreve" unicode="&#x14e;" horiz-adv-x="1745" 
d="M837 -20q-117 0 -220 26t-190.5 81.5t-150 136.5t-97.5 197t-35 258q0 96 15.5 192.5t49 193t82.5 183.5t119.5 162.5t155.5 130t196 86t236 31.5q147 0 271 -42.5t219.5 -126t149 -219.5t53.5 -312q0 -135 -30.5 -270t-98.5 -263.5t-165 -226.5t-242 -158t-318 -60z
M361 675q0 -253 129 -382t359 -129q94 0 177 27.5t145.5 74t113.5 110.5t85.5 136t58.5 150.5t34.5 153.5t10.5 147q0 253 -129 382t-359 129q-94 0 -177 -27.5t-145.5 -74t-113.5 -110.5t-85.5 -136t-58.5 -150.5t-34.5 -153.5t-10.5 -147zM777 2034q0 37 8 85h162
q-4 -27 -4 -56q0 -76 39 -118t117 -42q88 0 139.5 55t74.5 161h176q-17 -85 -46 -151t-75 -118.5t-115 -80.5t-158 -28q-155 0 -236.5 80t-81.5 213z" />
    <glyph glyph-name="obreve" unicode="&#x14f;" horiz-adv-x="1383" 
d="M642 -20q-113 0 -208.5 31.5t-169 93.5t-115 163.5t-41.5 233.5q0 101 23 200t73.5 191.5t123 162.5t179.5 112.5t235 42.5q113 0 208.5 -31.5t169 -93.5t115 -163.5t41.5 -233.5q0 -101 -23 -200t-73.5 -191.5t-123 -162.5t-179.5 -112.5t-235 -42.5zM317 501
q0 -170 87.5 -258t245.5 -88q88 0 160 35t118.5 90.5t78 127.5t45 142.5t13.5 139.5q0 170 -87 258t-245 88q-88 0 -160 -35t-118.5 -90.5t-78.5 -127.5t-45.5 -142.5t-13.5 -139.5zM522 1661q0 44 7 85h163q-5 -33 -5 -56q0 -75 39.5 -117.5t117.5 -42.5q168 0 214 216h176
q-36 -178 -129 -278t-266 -100q-154 0 -235.5 80t-81.5 213z" />
    <glyph glyph-name="Ohungarumlaut" unicode="&#x150;" horiz-adv-x="1745" 
d="M837 -20q-117 0 -220 26t-190.5 81.5t-150 136.5t-97.5 197t-35 258q0 96 15.5 192.5t49 193t82.5 183.5t119.5 162.5t155.5 130t196 86t236 31.5q147 0 271 -42.5t219.5 -126t149 -219.5t53.5 -312q0 -135 -30.5 -270t-98.5 -263.5t-165 -226.5t-242 -158t-318 -60z
M361 675q0 -253 129 -382t359 -129q94 0 177 27.5t145.5 74t113.5 110.5t85.5 136t58.5 150.5t34.5 153.5t10.5 147q0 253 -129 382t-359 129q-94 0 -177 -27.5t-145.5 -74t-113.5 -110.5t-85.5 -136t-58.5 -150.5t-34.5 -153.5t-10.5 -147zM705 1751l292 368h253l-357 -368
h-188zM1104 1751l292 368h254l-357 -368h-189z" />
    <glyph glyph-name="ohungarumlaut" unicode="&#x151;" horiz-adv-x="1383" 
d="M642 -20q-113 0 -208.5 31.5t-169 93.5t-115 163.5t-41.5 233.5q0 101 23 200t73.5 191.5t123 162.5t179.5 112.5t235 42.5q113 0 208.5 -31.5t169 -93.5t115 -163.5t41.5 -233.5q0 -101 -23 -200t-73.5 -191.5t-123 -162.5t-179.5 -112.5t-235 -42.5zM317 501
q0 -170 87.5 -258t245.5 -88q88 0 160 35t118.5 90.5t78 127.5t45 142.5t13.5 139.5q0 170 -87 258t-245 88q-88 0 -160 -35t-118.5 -90.5t-78.5 -127.5t-45.5 -142.5t-13.5 -139.5zM434 1378l293 368h253l-356 -368h-190zM873 1378l293 368h254l-357 -368h-190z" />
    <glyph glyph-name="OE" unicode="&#x152;" horiz-adv-x="2630" 
d="M831 -20q-113 0 -213 25t-187.5 80t-150.5 135.5t-99.5 198t-36.5 260.5q0 136 30.5 271t98.5 263.5t165.5 226.5t242 158t316.5 60q95 0 180.5 -18.5t162 -56.5t136.5 -103.5t95 -153.5l62 312h1074l-36 -184h-860l-103 -517h764l-35 -179h-765l-115 -573h860l-37 -185
h-1074l42 212q-101 -121 -227.5 -176.5t-289.5 -55.5zM361 675q0 -253 129 -382t359 -129q94 0 177 27.5t145.5 74t113.5 110.5t85.5 136t58.5 150.5t34.5 153.5t10.5 147q0 253 -129 382t-359 129q-94 0 -177 -27.5t-145.5 -74t-113.5 -110.5t-85.5 -136t-58.5 -150.5
t-34.5 -153.5t-10.5 -147z" />
    <glyph glyph-name="oe" unicode="&#x153;" horiz-adv-x="2311" 
d="M642 -20q-113 0 -208.5 31.5t-169 93.5t-115 163.5t-41.5 233.5q0 101 23 200t73.5 191.5t123 162.5t179.5 112.5t235 42.5q166 0 287 -68t177 -205q33 57 78 103.5t105.5 86t141.5 61.5t175 22q232 0 369.5 -131.5t137.5 -361.5q0 -99 -26 -194h-921q-1 -10 -1 -30
q0 -167 89 -256t260 -89q210 0 358 145l114 -136q-99 -88 -212.5 -133t-263.5 -45q-167 0 -293 66t-187 201q-77 -124 -199.5 -195.5t-288.5 -71.5zM317 501q0 -170 87.5 -258t245.5 -88q88 0 160 35t118.5 90.5t78 127.5t45 142.5t13.5 139.5q0 170 -87 258t-245 88
q-88 0 -160 -35t-118.5 -90.5t-78.5 -127.5t-45.5 -142.5t-13.5 -139.5zM1288 681h723q2 15 2 44q0 63 -16.5 117.5t-51 101t-97 73.5t-146.5 27q-167 0 -271 -96t-143 -267z" />
    <glyph glyph-name="Racute" unicode="&#x154;" horiz-adv-x="1565" 
d="M93 0l328 1638h590q147 0 256 -34.5t172.5 -97t94 -141t30.5 -174.5q0 -70 -15 -134.5t-52 -129t-93 -115.5t-144 -89.5t-199 -54.5l269 -668h-235l-243 648h-415l-129 -648h-215zM474 829h406q107 0 190.5 20.5t135 54t84.5 80t45.5 93t12.5 99.5q0 128 -83.5 203
t-268.5 75h-397zM889 1751l293 368h253l-357 -368h-189z" />
    <glyph glyph-name="racute" unicode="&#x155;" horiz-adv-x="970" 
d="M93 0l190 951l15 240h203l-13 -183q122 203 390 203q81 0 137 -17l-39 -196q-62 19 -142 19q-78 0 -140 -19.5t-116 -65t-93.5 -126t-62.5 -195.5l-122 -611h-207zM562 1378l293 368h253l-357 -368h-189z" />
    <glyph glyph-name="uni0156" unicode="&#x156;" horiz-adv-x="1565" 
d="M93 0l328 1638h590q147 0 256 -34.5t172.5 -97t94 -141t30.5 -174.5q0 -70 -15 -134.5t-52 -129t-93 -115.5t-144 -89.5t-199 -54.5l269 -668h-235l-243 648h-415l-129 -648h-215zM330 -481l230 358h225l-276 -358h-179zM474 829h406q107 0 190.5 20.5t135 54t84.5 80
t45.5 93t12.5 99.5q0 128 -83.5 203t-268.5 75h-397z" />
    <glyph glyph-name="uni0157" unicode="&#x157;" horiz-adv-x="970" 
d="M93 0l190 951l15 240h203l-13 -183q122 203 390 203q81 0 137 -17l-39 -196q-62 19 -142 19q-78 0 -140 -19.5t-116 -65t-93.5 -126t-62.5 -195.5l-122 -611h-207zM-167 -481l230 358h225l-276 -358h-179z" />
    <glyph glyph-name="Rcaron" unicode="&#x158;" horiz-adv-x="1565" 
d="M93 0l328 1638h590q147 0 256 -34.5t172.5 -97t94 -141t30.5 -174.5q0 -70 -15 -134.5t-52 -129t-93 -115.5t-144 -89.5t-199 -54.5l269 -668h-235l-243 648h-415l-129 -648h-215zM474 829h406q107 0 190.5 20.5t135 54t84.5 80t45.5 93t12.5 99.5q0 128 -83.5 203
t-268.5 75h-397zM625 2119h184l162 -241l257 241h201l-344 -368h-263z" />
    <glyph glyph-name="rcaron" unicode="&#x159;" horiz-adv-x="970" 
d="M93 0l190 951l15 240h203l-13 -183q122 203 390 203q81 0 137 -17l-39 -196q-62 19 -142 19q-78 0 -140 -19.5t-116 -65t-93.5 -126t-62.5 -195.5l-122 -611h-207zM349 1746h184l161 -241l258 241h201l-345 -368h-263z" />
    <glyph glyph-name="Sacute" unicode="&#x15a;" horiz-adv-x="1405" 
d="M677 -20q-214 0 -388 70t-278 196l153 156q184 -238 518 -238q189 0 282.5 73t93.5 202q0 51 -16.5 90.5t-42.5 66.5t-75.5 52t-96.5 42.5t-124 43.5h-1q-59 20 -97 34t-91 38t-86.5 47t-71 58t-59 74t-35.5 92t-14 114q0 214 155.5 341t443.5 127q109 0 202.5 -19
t161 -51.5t114 -67.5t79.5 -75l-137 -143q-147 172 -432 172q-191 0 -282 -74t-91 -193q0 -28 5.5 -52.5t13.5 -44t25 -38.5t31.5 -32.5t42 -28.5t47 -25t56 -23.5t60 -22t67.5 -23.5q65 -22 98.5 -34t91 -37t89 -47t72 -58t61.5 -76t36 -95t15 -120q0 -219 -153.5 -345
t-442.5 -126zM833 1751l293 368h253l-357 -368h-189z" />
    <glyph glyph-name="sacute" unicode="&#x15b;" horiz-adv-x="1135" 
d="M521 -20q-170 0 -305 49t-218 136l137 148q66 -76 165 -117.5t220 -41.5q131 0 194 44.5t63 122.5q0 32 -12 57.5t-28 42t-53 34.5t-65.5 28.5t-87.5 30.5q-57 19 -92.5 32.5t-81.5 36t-74 46.5t-54.5 57t-38.5 76.5t-12 96.5q0 153 118 252.5t348 99.5q290 0 436 -150
l-127 -137q-113 113 -313 113q-134 0 -196 -46.5t-62 -119.5q0 -31 12 -56t28.5 -41.5t53.5 -34.5t66 -29t86 -30q42 -14 67 -23t63 -24.5t61 -29.5t52 -34t46.5 -42.5t33.5 -50.5t23.5 -63t7.5 -75q0 -167 -118 -262.5t-343 -95.5zM573 1378l292 368h254l-357 -368h-189z
" />
    <glyph glyph-name="Scircumflex" unicode="&#x15c;" horiz-adv-x="1405" 
d="M677 -20q-214 0 -388 70t-278 196l153 156q184 -238 518 -238q189 0 282.5 73t93.5 202q0 51 -16.5 90.5t-42.5 66.5t-75.5 52t-96.5 42.5t-124 43.5h-1q-59 20 -97 34t-91 38t-86.5 47t-71 58t-59 74t-35.5 92t-14 114q0 214 155.5 341t443.5 127q109 0 202.5 -19
t161 -51.5t114 -67.5t79.5 -75l-137 -143q-147 172 -432 172q-191 0 -282 -74t-91 -193q0 -28 5.5 -52.5t13.5 -44t25 -38.5t31.5 -32.5t42 -28.5t47 -25t56 -23.5t60 -22t67.5 -23.5q65 -22 98.5 -34t91 -37t89 -47t72 -58t61.5 -76t36 -95t15 -120q0 -219 -153.5 -345
t-442.5 -126zM531 1751l344 368h263l197 -368h-185l-161 241l-257 -241h-201z" />
    <glyph glyph-name="scircumflex" unicode="&#x15d;" horiz-adv-x="1135" 
d="M521 -20q-170 0 -305 49t-218 136l137 148q66 -76 165 -117.5t220 -41.5q131 0 194 44.5t63 122.5q0 32 -12 57.5t-28 42t-53 34.5t-65.5 28.5t-87.5 30.5q-57 19 -92.5 32.5t-81.5 36t-74 46.5t-54.5 57t-38.5 76.5t-12 96.5q0 153 118 252.5t348 99.5q290 0 436 -150
l-127 -137q-113 113 -313 113q-134 0 -196 -46.5t-62 -119.5q0 -31 12 -56t28.5 -41.5t53.5 -34.5t66 -29t86 -30q42 -14 67 -23t63 -24.5t61 -29.5t52 -34t46.5 -42.5t33.5 -50.5t23.5 -63t7.5 -75q0 -167 -118 -262.5t-343 -95.5zM322 1378l343 368h263l197 -368h-184
l-162 241l-257 -241h-200z" />
    <glyph glyph-name="Scedilla" unicode="&#x15e;" horiz-adv-x="1405" 
d="M544 -439q-95 0 -179 24l25 127q77 -28 149 -28q110 0 110 71q0 63 -85 63q-28 0 -53 -6l-23 59l70 115q-176 18 -317.5 85t-229.5 175l153 156q184 -238 518 -238q189 0 282.5 73t93.5 202q0 51 -16.5 90.5t-42.5 66.5t-75.5 52t-96.5 42.5t-124 43.5h-1q-59 20 -97 34
t-91 38t-86.5 47t-71 58t-59 74t-35.5 92t-14 114q0 214 155.5 341t443.5 127q109 0 202.5 -19t161 -51.5t114 -67.5t79.5 -75l-137 -143q-147 172 -432 172q-191 0 -282 -74t-91 -193q0 -28 5.5 -52.5t13.5 -44t25 -38.5t31.5 -32.5t42 -28.5t47 -25t56 -23.5t60 -22
t67.5 -23.5q65 -22 98.5 -34t91 -37t89 -47t72 -58t61.5 -76t36 -95t15 -120q0 -216 -150.5 -342t-432.5 -129l-39 -61q84 -7 125 -51.5t41 -111.5q0 -96 -73 -145.5t-200 -49.5z" />
    <glyph glyph-name="scedilla" unicode="&#x15f;" horiz-adv-x="1135" 
d="M394 -439q-95 0 -179 24l25 127q77 -28 149 -28q110 0 110 71q0 63 -85 63q-28 0 -53 -6l-23 59l70 115q-269 29 -410 179l137 148q66 -76 165 -117.5t220 -41.5q131 0 194 44.5t63 122.5q0 32 -12 57.5t-28 42t-53 34.5t-65.5 28.5t-87.5 30.5q-57 19 -92.5 32.5
t-81.5 36t-74 46.5t-54.5 57t-38.5 76.5t-12 96.5q0 153 118 252.5t348 99.5q290 0 436 -150l-127 -137q-113 113 -313 113q-134 0 -196 -46.5t-62 -119.5q0 -31 12 -56t28.5 -41.5t53.5 -34.5t66 -29t86 -30q42 -14 67 -23t63 -24.5t61 -29.5t52 -34t46.5 -42.5t33.5 -50.5
t23.5 -63t7.5 -75q0 -163 -113 -258.5t-329 -99.5l-39 -61q84 -7 125 -51.5t41 -111.5q0 -96 -73 -145.5t-200 -49.5z" />
    <glyph glyph-name="Scaron" unicode="&#x160;" horiz-adv-x="1405" 
d="M677 -20q-214 0 -388 70t-278 196l153 156q184 -238 518 -238q189 0 282.5 73t93.5 202q0 51 -16.5 90.5t-42.5 66.5t-75.5 52t-96.5 42.5t-124 43.5h-1q-59 20 -97 34t-91 38t-86.5 47t-71 58t-59 74t-35.5 92t-14 114q0 214 155.5 341t443.5 127q109 0 202.5 -19
t161 -51.5t114 -67.5t79.5 -75l-137 -143q-147 172 -432 172q-191 0 -282 -74t-91 -193q0 -28 5.5 -52.5t13.5 -44t25 -38.5t31.5 -32.5t42 -28.5t47 -25t56 -23.5t60 -22t67.5 -23.5q65 -22 98.5 -34t91 -37t89 -47t72 -58t61.5 -76t36 -95t15 -120q0 -219 -153.5 -345
t-442.5 -126zM569 2119h185l161 -241l257 241h201l-344 -368h-263z" />
    <glyph glyph-name="scaron" unicode="&#x161;" horiz-adv-x="1135" 
d="M521 -20q-170 0 -305 49t-218 136l137 148q66 -76 165 -117.5t220 -41.5q131 0 194 44.5t63 122.5q0 32 -12 57.5t-28 42t-53 34.5t-65.5 28.5t-87.5 30.5q-57 19 -92.5 32.5t-81.5 36t-74 46.5t-54.5 57t-38.5 76.5t-12 96.5q0 153 118 252.5t348 99.5q290 0 436 -150
l-127 -137q-113 113 -313 113q-134 0 -196 -46.5t-62 -119.5q0 -31 12 -56t28.5 -41.5t53.5 -34.5t66 -29t86 -30q42 -14 67 -23t63 -24.5t61 -29.5t52 -34t46.5 -42.5t33.5 -50.5t23.5 -63t7.5 -75q0 -167 -118 -262.5t-343 -95.5zM359 1746h185l161 -241l258 241h200
l-344 -368h-263z" />
    <glyph glyph-name="uni0162" unicode="&#x162;" horiz-adv-x="1489" 
d="M518 0l291 1454h-564l37 184h1343l-37 -184h-565l-290 -1454h-35l-51 -81q84 -7 125 -51.5t41 -111.5q0 -96 -73 -145.5t-200 -49.5q-96 0 -180 24l26 127q77 -28 148 -28q110 0 110 71q0 63 -85 63q-27 0 -52 -6l-23 59l78 129h-44z" />
    <glyph glyph-name="uni0163" unicode="&#x163;" horiz-adv-x="992" 
d="M587 -17h-21l-41 -64q84 -7 125 -51.5t41 -111.5q0 -96 -73 -145.5t-200 -49.5q-95 0 -179 24l25 127q77 -28 149 -28q110 0 110 71q0 63 -85 63q-26 0 -52 -6l-24 59l77 126q-216 49 -216 267q0 66 21 167l117 587h-250l34 173h250l69 342l218 54l-79 -396h399l-34 -173
h-400l-117 -587q-19 -93 -19 -136q0 -75 47 -105.5t144 -30.5q93 0 178 22l-36 -180q-72 -18 -178 -18z" />
    <glyph glyph-name="Tcaron" unicode="&#x164;" horiz-adv-x="1489" 
d="M518 0l291 1454h-564l37 184h1343l-37 -184h-565l-290 -1454h-215zM592 2119h184l161 -241l258 241h201l-344 -368h-264z" />
    <glyph glyph-name="tcaron" unicode="&#x165;" horiz-adv-x="992" 
d="M587 -17q-364 0 -364 281q0 66 21 167l117 587h-250l34 173h250l69 342l218 54l-79 -396h399l-34 -173h-400l-117 -587q-19 -93 -19 -136q0 -75 47 -105.5t144 -30.5q93 0 178 22l-36 -180q-72 -18 -178 -18zM776 1260l92 463h214l-160 -463h-146z" />
    <glyph glyph-name="Tbar" unicode="&#x166;" horiz-adv-x="1489" 
d="M518 0l142 709h-349l30 151h349l119 594h-564l37 184h1343l-37 -184h-565l-118 -594h349l-30 -151h-350l-141 -709h-215z" />
    <glyph glyph-name="tbar" unicode="&#x167;" horiz-adv-x="992" 
d="M587 -17q-364 0 -364 281q0 66 21 167l22 111h-251l27 137h251l68 339h-250l34 173h250l69 342l218 54l-79 -396h399l-34 -173h-400l-68 -339h400l-28 -137h-399l-22 -111q-19 -93 -19 -136q0 -75 47 -105.5t144 -30.5q93 0 178 22l-36 -180q-72 -18 -178 -18z" />
    <glyph glyph-name="Utilde" unicode="&#x168;" horiz-adv-x="1673" 
d="M802 -20q-290 0 -450.5 132t-160.5 382q0 105 40 300l169 844h214l-170 -852q-37 -182 -37 -269q0 -175 101 -258.5t311 -83.5q105 0 184 29.5t132.5 89.5t87 139.5t55.5 189.5l204 1015h209l-211 -1056q-60 -299 -222 -450.5t-456 -151.5zM634 1751q29 166 93.5 252.5
t176.5 86.5q46 0 88 -17t73 -40.5t59 -47.5t57.5 -41t56.5 -17q43 0 65 39t40 124h173q-28 -165 -92.5 -252t-177.5 -87q-46 0 -88 17t-73 40.5t-59 47.5t-57 41t-56 17q-43 0 -66 -39t-41 -124h-172z" />
    <glyph glyph-name="utilde" unicode="&#x169;" horiz-adv-x="1427" 
d="M531 -20q-171 0 -272 91t-101 258q0 76 27 209l130 653h207l-130 -651q-22 -112 -22 -179q0 -204 228 -204q161 0 261 97t134 263l135 674h207l-190 -951l-16 -240h-203l13 170q-63 -89 -170 -139.5t-238 -50.5zM427 1378q28 166 92.5 253t176.5 87q46 0 88 -17t73 -41
t59 -48t57.5 -41t56.5 -17q43 0 65 39t41 125h172q-29 -166 -93.5 -253t-176.5 -87q-46 0 -88 17t-73 41t-59 48t-57 41t-56 17q-43 0 -65.5 -39.5t-40.5 -124.5h-172z" />
    <glyph glyph-name="Umacron" unicode="&#x16a;" horiz-adv-x="1673" 
d="M802 -20q-290 0 -450.5 132t-160.5 382q0 105 40 300l169 844h214l-170 -852q-37 -182 -37 -269q0 -175 101 -258.5t311 -83.5q105 0 184 29.5t132.5 89.5t87 139.5t55.5 189.5l204 1015h209l-211 -1056q-60 -299 -222 -450.5t-456 -151.5zM727 1816l34 173h670l-35 -173
h-669z" />
    <glyph glyph-name="umacron" unicode="&#x16b;" horiz-adv-x="1427" 
d="M531 -20q-171 0 -272 91t-101 258q0 76 27 209l130 653h207l-130 -651q-22 -112 -22 -179q0 -204 228 -204q161 0 261 97t134 263l135 674h207l-190 -951l-16 -240h-203l13 170q-63 -89 -170 -139.5t-238 -50.5zM520 1443l34 173h670l-35 -173h-669z" />
    <glyph glyph-name="Ubreve" unicode="&#x16c;" horiz-adv-x="1673" 
d="M802 -20q-290 0 -450.5 132t-160.5 382q0 105 40 300l169 844h214l-170 -852q-37 -182 -37 -269q0 -175 101 -258.5t311 -83.5q105 0 184 29.5t132.5 89.5t87 139.5t55.5 189.5l204 1015h209l-211 -1056q-60 -299 -222 -450.5t-456 -151.5zM744 2034q0 37 8 85h162
q-4 -27 -4 -56q0 -76 39 -118t117 -42q88 0 140 55t75 161h175q-17 -85 -46 -151t-75 -118.5t-115 -80.5t-158 -28q-155 0 -236.5 80t-81.5 213z" />
    <glyph glyph-name="ubreve" unicode="&#x16d;" horiz-adv-x="1427" 
d="M531 -20q-171 0 -272 91t-101 258q0 76 27 209l130 653h207l-130 -651q-22 -112 -22 -179q0 -204 228 -204q161 0 261 97t134 263l135 674h207l-190 -951l-16 -240h-203l13 170q-63 -89 -170 -139.5t-238 -50.5zM537 1661q0 39 8 85h162q-5 -33 -5 -56q0 -75 39.5 -117.5
t117.5 -42.5q168 0 214 216h176q-36 -178 -128.5 -278t-265.5 -100q-155 0 -236.5 80t-81.5 213z" />
    <glyph glyph-name="Uring" unicode="&#x16e;" horiz-adv-x="1673" 
d="M802 -20q-290 0 -450.5 132t-160.5 382q0 105 40 300l169 844h214l-170 -852q-37 -182 -37 -269q0 -175 101 -258.5t311 -83.5q105 0 184 29.5t132.5 89.5t87 139.5t55.5 189.5l204 1015h209l-211 -1056q-60 -299 -222 -450.5t-456 -151.5zM807 1976q0 116 80 191t198 75
t198 -75t80 -191t-80 -191t-198 -75t-198 75t-80 191zM961 1976q0 -56 34.5 -92.5t89.5 -36.5t90 36.5t35 92.5t-35 92t-90 36t-89.5 -36t-34.5 -92z" />
    <glyph glyph-name="uring" unicode="&#x16f;" horiz-adv-x="1427" 
d="M531 -20q-171 0 -272 91t-101 258q0 76 27 209l130 653h207l-130 -651q-22 -112 -22 -179q0 -204 228 -204q161 0 261 97t134 263l135 674h207l-190 -951l-16 -240h-203l13 170q-63 -89 -170 -139.5t-238 -50.5zM606 1634q0 116 80 191t198 75t198 -75t80 -191t-80 -191
t-198 -75t-198 75t-80 191zM759 1634q0 -56 35 -92.5t90 -36.5t90 36.5t35 92.5t-35 92.5t-90 36.5t-90 -36.5t-35 -92.5z" />
    <glyph glyph-name="Uhungarumlaut" unicode="&#x170;" horiz-adv-x="1673" 
d="M802 -20q-290 0 -450.5 132t-160.5 382q0 105 40 300l169 844h214l-170 -852q-37 -182 -37 -269q0 -175 101 -258.5t311 -83.5q105 0 184 29.5t132.5 89.5t87 139.5t55.5 189.5l204 1015h209l-211 -1056q-60 -299 -222 -450.5t-456 -151.5zM672 1751l292 368h254
l-357 -368h-189zM1071 1751l292 368h254l-356 -368h-190z" />
    <glyph glyph-name="uhungarumlaut" unicode="&#x171;" horiz-adv-x="1427" 
d="M531 -20q-171 0 -272 91t-101 258q0 76 27 209l130 653h207l-130 -651q-22 -112 -22 -179q0 -204 228 -204q161 0 261 97t134 263l135 674h207l-190 -951l-16 -240h-203l13 170q-63 -89 -170 -139.5t-238 -50.5zM450 1378l292 368h254l-357 -368h-189zM889 1378l292 368
h254l-357 -368h-189z" />
    <glyph glyph-name="Uogonek" unicode="&#x172;" horiz-adv-x="1673" 
d="M1043 -434q-34 -5 -80 -5q-98 0 -156 39.5t-58 121.5q0 134 208 270q-72 -12 -155 -12q-290 0 -450.5 132t-160.5 382q0 105 40 300l169 844h214l-170 -852q-37 -182 -37 -269q0 -175 101 -258.5t311 -83.5q105 0 184 29.5t132.5 89.5t87 139.5t55.5 189.5l204 1015h209
l-211 -1056q-34 -170 -99 -290t-178 -209q-165 -130 -222 -202t-57 -127q0 -73 85 -73q32 0 59 7z" />
    <glyph glyph-name="uogonek" unicode="&#x173;" horiz-adv-x="1427" 
d="M531 -20q-171 0 -272 91t-101 258q0 76 27 209l130 653h207l-130 -651q-22 -112 -22 -179q0 -204 228 -204q161 0 261 97t134 263l135 674h207l-190 -951l-16 -240q-187 -153 -187 -251q0 -33 22.5 -51t62.5 -18q17 0 39 5l-24 -120q-25 -4 -60 -4q-93 0 -155.5 38
t-62.5 121q0 146 220 280h-58l13 170q-63 -89 -170 -139.5t-238 -50.5z" />
    <glyph glyph-name="Wcircumflex" unicode="&#x174;" horiz-adv-x="2283" 
d="M1350 0l-74 1087l-582 -1087h-253l-212 1638h214l158 -1427l645 1209l-15 218h213l81 -1410l720 1410h226l-868 -1638h-253zM944 1751l344 368h263l197 -368h-184l-162 241l-257 -241h-201z" />
    <glyph glyph-name="wcircumflex" unicode="&#x175;" horiz-adv-x="1950" 
d="M1117 0l-114 734l-407 -734h-248l-177 1191h212l129 -1029l448 836l-26 193h207l125 -1024l537 1024h215l-652 -1191h-249zM711 1378l343 368h263l197 -368h-184l-162 241l-257 -241h-200z" />
    <glyph glyph-name="Ycircumflex" unicode="&#x176;" horiz-adv-x="1443" 
d="M495 0l119 593l-385 1045h217l306 -861l651 861h229l-804 -1045l-118 -593h-215zM537 1751l344 368h263l196 -368h-184l-161 241l-258 -241h-200z" />
    <glyph glyph-name="ycircumflex" unicode="&#x177;" horiz-adv-x="1219" 
d="M113 -410l284 458l-262 1143h213l197 -944l562 944h216l-994 -1601h-216zM350 1378l344 368h263l197 -368h-185l-161 241l-258 -241h-200z" />
    <glyph glyph-name="Ydieresis" unicode="&#x178;" horiz-adv-x="1443" 
d="M495 0l119 593l-385 1045h217l306 -861l651 861h229l-804 -1045l-118 -593h-215zM567 1922q0 62 41 103t103 41t103 -41t41 -103t-41 -104t-103 -42t-103 42t-41 104zM1063 1922q0 62 41 103t103 41t103.5 -41t41.5 -103t-41.5 -104t-103.5 -42t-103 42t-41 104z" />
    <glyph glyph-name="Zacute" unicode="&#x179;" horiz-adv-x="1437" 
d="M-12 0l33 162l1194 1292h-902l36 184h1176l-32 -161l-1195 -1292h950l-37 -185h-1223zM846 1751l293 368h254l-357 -368h-190z" />
    <glyph glyph-name="zacute" unicode="&#x17a;" horiz-adv-x="1187" 
d="M-20 0l31 159l874 859h-680l34 173h952l-31 -159l-874 -859h712l-34 -173h-984zM593 1378l293 368h253l-357 -368h-189z" />
    <glyph glyph-name="Zdotaccent" unicode="&#x17b;" horiz-adv-x="1437" 
d="M-12 0l33 162l1194 1292h-902l36 184h1176l-32 -161l-1195 -1292h950l-37 -185h-1223zM841 1922q0 62 41 103t103 41t103 -41t41 -103t-41 -104t-103 -42t-103 42t-41 104z" />
    <glyph glyph-name="zdotaccent" unicode="&#x17c;" horiz-adv-x="1187" 
d="M-20 0l31 159l874 859h-680l34 173h952l-31 -159l-874 -859h712l-34 -173h-984zM637 1549q0 62 41.5 103.5t103.5 41.5t103 -41.5t41 -103.5t-41 -104t-103 -42t-103.5 42t-41.5 104z" />
    <glyph glyph-name="Zcaron" unicode="&#x17d;" horiz-adv-x="1437" 
d="M-12 0l33 162l1194 1292h-902l36 184h1176l-32 -161l-1195 -1292h950l-37 -185h-1223zM583 2119h184l161 -241l258 241h200l-344 -368h-263z" />
    <glyph glyph-name="zcaron" unicode="&#x17e;" horiz-adv-x="1187" 
d="M-20 0l31 159l874 859h-680l34 173h952l-31 -159l-874 -859h712l-34 -173h-984zM380 1746h184l162 -241l257 241h201l-344 -368h-263z" />
    <glyph glyph-name="uni018F" unicode="&#x18f;" horiz-adv-x="1695" 
d="M788 -20q-138 0 -249.5 37t-186 99.5t-124.5 149t-72 181t-22 198.5q0 135 33 258h1252q2 22 2 65q0 247 -126.5 377t-363.5 130q-151 0 -272.5 -50.5t-229.5 -158.5l-117 154q132 119 280.5 179t344.5 60q125 0 230 -26.5t180.5 -74.5t132.5 -112.5t91 -144t50.5 -165
t16.5 -179.5q0 -152 -33.5 -293.5t-103 -266t-168.5 -217.5t-239 -146.5t-306 -53.5zM349 643q0 -75 14 -143t47 -130t83 -107t126.5 -72t172.5 -27q242 0 392.5 147.5t208.5 410.5h-1039q-5 -45 -5 -79z" />
    <glyph glyph-name="florin" unicode="&#x192;" horiz-adv-x="1414" 
d="M19 -430q-114 0 -194 23l36 175q73 -23 158 -23q108 0 171 39.5t100 132.5l431 1078h-345l34 172h381l112 281q60 150 172 222.5t293 72.5q113 0 193 -23l-35 -175q-73 23 -158 23q-108 0 -171 -39.5t-100 -131.5l-91 -230h350l-35 -172h-385l-452 -1130
q-60 -150 -172.5 -222.5t-292.5 -72.5z" />
    <glyph glyph-name="uni01F4" unicode="&#x1f4;" horiz-adv-x="1731" 
d="M846 -20q-332 0 -515 193.5t-183 522.5q0 142 31.5 278t101.5 261t170.5 218.5t248.5 149.5t326 56q195 0 350 -68.5t252 -213.5l-169 -123q-63 109 -179.5 165t-266.5 56q-137 0 -249 -47.5t-184.5 -125t-122 -181t-71 -210.5t-21.5 -218q0 -262 129 -395.5t371 -133.5
q258 0 421 147l76 381h-471l37 181h679l-175 -873h-107l-14 134q-185 -154 -465 -154zM1003 1751l293 368h253l-357 -368h-189z" />
    <glyph glyph-name="uni01F5" unicode="&#x1f5;" horiz-adv-x="1469" 
d="M579 -430q-378 0 -547 185l134 144q70 -79 169 -116t240 -37q161 0 251 74t122 231l28 136q-62 -75 -162 -120t-227 -45q-225 0 -350.5 137t-125.5 359q0 135 40.5 258.5t115.5 221t194.5 155.5t265.5 58q149 0 255.5 -61.5t150.5 -175.5l43 217h207l-234 -1170
q-90 -451 -570 -451zM321 518q0 -160 87 -245t244 -85q88 0 160 35t118 89.5t78 124.5t45.5 137.5t13.5 131.5q0 162 -87 246t-245 84q-88 0 -160 -34t-118 -87.5t-77.5 -123t-45 -138t-13.5 -135.5zM709 1378l292 368h253l-356 -368h-189z" />
    <glyph glyph-name="Aringacute" unicode="&#x1fa;" horiz-adv-x="1479" 
d="M-99 0l911 1638h272l256 -1638h-218l-66 475h-675l-255 -475h-225zM478 653h554l-113 820zM704 1976q0 104 66 176t168 86l249 251h254l-333 -274q70 -32 111.5 -95t41.5 -144q0 -116 -80 -191t-198 -75t-198.5 75t-80.5 191zM858 1976q0 -56 35 -92.5t90 -36.5
t89.5 36.5t34.5 92.5t-34.5 92t-89.5 36t-90 -36t-35 -92z" />
    <glyph glyph-name="aringacute" unicode="&#x1fb;" horiz-adv-x="1341" 
d="M464 -20q-185 0 -290.5 86t-105.5 241q0 144 98.5 239.5t306.5 117.5l272 29q77 8 128 26t76 44.5t34 54t9 64.5q0 77 -58 115.5t-195 38.5q-135 0 -229 -37t-177 -114l-110 141q196 185 531 185q215 0 325.5 -79.5t110.5 -247.5q0 -65 -20 -163l-96 -481l-16 -240h-202
l11 171q-133 -191 -403 -191zM278 328q0 -85 60 -131t174 -46q160 0 267.5 93.5t143.5 273.5l24 119q-28 -40 -88 -62t-159 -33l-181 -20q-241 -26 -241 -194zM553 1634q0 88 48.5 154.5t128.5 94.5l266 335h254l-324 -333q83 -27 133 -94t50 -157q0 -116 -80 -191t-198 -75
t-198 75t-80 191zM706 1634q0 -56 35 -92.5t90 -36.5t90 36.5t35 92.5t-35 92.5t-90 36.5t-90 -36.5t-35 -92.5z" />
    <glyph glyph-name="AEacute" unicode="&#x1fc;" horiz-adv-x="2409" 
d="M-134 0l1389 1638h1231l-37 -184h-859l-104 -517h765l-36 -179h-765l-114 -573h859l-37 -185h-1074l96 480h-665l-403 -480h-246zM664 658h551l160 796h-44zM1388 1751l292 368h254l-357 -368h-189z" />
    <glyph glyph-name="aeacute" unicode="&#x1fd;" horiz-adv-x="2184" 
d="M1483 -20q-178 0 -308 74t-185 227q-67 -144 -192 -222.5t-294 -78.5q-201 0 -318.5 87t-117.5 241q0 143 98.5 238.5t306.5 117.5l272 29q77 8 128 26t76 44.5t34 54t9 64.5q0 77 -58 115.5t-195 38.5q-135 0 -229 -37t-177 -114l-110 141q196 185 531 185
q320 0 391 -184q161 184 435 184q232 0 369 -131.5t137 -361.5q0 -99 -26 -194h-921q-1 -10 -1 -30q0 -167 89 -256t260 -89q210 0 358 145l114 -136q-99 -88 -212.5 -133t-263.5 -45zM278 328q0 -85 60 -131t174 -46q160 0 267.5 93.5t143.5 273.5l24 119q-28 -40 -88 -62
t-159 -33l-181 -20q-241 -26 -241 -194zM1095 1378l293 368h253l-357 -368h-189zM1162 681h722q2 15 2 44q0 63 -16.5 117.5t-51 101t-97 73.5t-146.5 27q-167 0 -270.5 -96t-142.5 -267z" />
    <glyph glyph-name="Oslashacute" unicode="&#x1fe;" horiz-adv-x="1745" 
d="M837 -20q-237 0 -405 103l-148 -185h-209l232 290q-163 182 -163 491q0 96 15.5 192.5t49 193t82.5 183.5t119.5 162.5t155.5 130t196 86t236 31.5q236 0 404 -103l149 186h209l-233 -291q164 -183 164 -492q0 -135 -30.5 -270t-98.5 -263.5t-165 -226.5t-242 -158
t-318 -60zM361 675q0 -196 81 -322l835 1047q-115 74 -291 74q-94 0 -177 -27.5t-145.5 -74t-113.5 -110.5t-85.5 -136t-58.5 -150.5t-34.5 -153.5t-10.5 -147zM557 239q117 -75 292 -75q94 0 177 27.5t145.5 74t113.5 110.5t85.5 136t58.5 150.5t34.5 153.5t10.5 147
q0 198 -81 322zM983 1751l293 368h253l-357 -368h-189z" />
    <glyph glyph-name="oslashacute" unicode="&#x1ff;" horiz-adv-x="1383" 
d="M642 -20q-154 0 -271 55l-120 -160h-205l191 256q-129 135 -129 371q0 101 23 200t73.5 191.5t123 162.5t179.5 112.5t235 42.5q155 0 270 -54l119 159h205l-190 -255q130 -136 130 -372q0 -101 -23 -200t-73.5 -191.5t-123 -162.5t-179.5 -112.5t-235 -42.5zM317 501
q0 -121 47 -204l534 708q-69 31 -165 31q-88 0 -160 -35t-118.5 -90.5t-78.5 -127.5t-45.5 -142.5t-13.5 -139.5zM485 187q68 -32 165 -32q88 0 160 35t118.5 90.5t78 127.5t45 142.5t13.5 139.5q0 125 -47 205zM677 1378l293 368h253l-357 -368h-189z" />
    <glyph glyph-name="uni0218" unicode="&#x218;" horiz-adv-x="1405" 
d="M677 -20q-214 0 -388 70t-278 196l153 156q184 -238 518 -238q189 0 282.5 73t93.5 202q0 51 -16.5 90.5t-42.5 66.5t-75.5 52t-96.5 42.5t-124 43.5h-1q-59 20 -97 34t-91 38t-86.5 47t-71 58t-59 74t-35.5 92t-14 114q0 214 155.5 341t443.5 127q109 0 202.5 -19
t161 -51.5t114 -67.5t79.5 -75l-137 -143q-147 172 -432 172q-191 0 -282 -74t-91 -193q0 -28 5.5 -52.5t13.5 -44t25 -38.5t31.5 -32.5t42 -28.5t47 -25t56 -23.5t60 -22t67.5 -23.5q65 -22 98.5 -34t91 -37t89 -47t72 -58t61.5 -76t36 -95t15 -120q0 -219 -153.5 -345
t-442.5 -126zM266 -481l231 358h224l-275 -358h-180z" />
    <glyph glyph-name="uni0219" unicode="&#x219;" horiz-adv-x="1135" 
d="M521 -20q-170 0 -305 49t-218 136l137 148q66 -76 165 -117.5t220 -41.5q131 0 194 44.5t63 122.5q0 32 -12 57.5t-28 42t-53 34.5t-65.5 28.5t-87.5 30.5q-57 19 -92.5 32.5t-81.5 36t-74 46.5t-54.5 57t-38.5 76.5t-12 96.5q0 153 118 252.5t348 99.5q290 0 436 -150
l-127 -137q-113 113 -313 113q-134 0 -196 -46.5t-62 -119.5q0 -31 12 -56t28.5 -41.5t53.5 -34.5t66 -29t86 -30q42 -14 67 -23t63 -24.5t61 -29.5t52 -34t46.5 -42.5t33.5 -50.5t23.5 -63t7.5 -75q0 -167 -118 -262.5t-343 -95.5zM116 -481l231 358h224l-275 -358h-180z
" />
    <glyph glyph-name="uni021A" unicode="&#x21a;" horiz-adv-x="1489" 
d="M518 0l291 1454h-564l37 184h1343l-37 -184h-565l-290 -1454h-215zM262 -481l230 358h225l-276 -358h-179z" />
    <glyph glyph-name="uni021B" unicode="&#x21b;" horiz-adv-x="992" 
d="M587 -17q-364 0 -364 281q0 66 21 167l117 587h-250l34 173h250l69 342l218 54l-79 -396h399l-34 -173h-400l-117 -587q-19 -93 -19 -136q0 -75 47 -105.5t144 -30.5q93 0 178 22l-36 -180q-72 -18 -178 -18zM140 -481l231 358h224l-275 -358h-180z" />
    <glyph glyph-name="uni0237" unicode="&#x237;" horiz-adv-x="619" 
d="M-95 -430q-117 0 -216 27l36 179q86 -28 170 -28q80 0 118 35.5t59 140.5l253 1267h207l-258 -1290q-37 -184 -122 -257.5t-247 -73.5z" />
    <glyph glyph-name="uni0259" unicode="&#x259;" horiz-adv-x="1360" 
d="M706 1211q140 0 246.5 -40t171 -112t96.5 -165.5t32 -206.5q0 -105 -23 -204.5t-73.5 -191.5t-124.5 -160.5t-183.5 -109.5t-241.5 -41q-130 0 -230 40t-159 109.5t-88.5 156t-29.5 187.5q0 99 26 194h921q1 10 1 30q0 167 -89.5 256t-260.5 89q-210 0 -358 -145
l-113 136q99 88 213.5 133t266.5 45zM299 466q0 -63 16.5 -117.5t51 -101t96.5 -73.5t146 -27q167 0 271 96t143 267h-722q-2 -15 -2 -44z" />
    <glyph glyph-name="uni02BC" unicode="&#x2bc;" horiz-adv-x="520" 
d="M210 1126q98 49 158.5 102t86.5 128q-6 -1 -19 -1q-59 0 -103.5 38.5t-44.5 106.5q0 66 41.5 112.5t115.5 46.5q76 0 117 -51.5t41 -143.5q0 -54 -16 -108.5t-51.5 -114t-105 -114t-164.5 -94.5z" />
    <glyph glyph-name="circumflex" unicode="&#x2c6;" horiz-adv-x="1024" 
d="M247 1378l343 368h264l196 -368h-184l-161 241l-258 -241h-200z" />
    <glyph glyph-name="caron" unicode="&#x2c7;" horiz-adv-x="1024" 
d="M481 1378l-196 368h184l161 -241l258 241h201l-345 -368h-263z" />
    <glyph glyph-name="uni02C9" unicode="&#x2c9;" horiz-adv-x="1024" 
d="M325 1443l35 173h669l-35 -173h-669z" />
    <glyph glyph-name="breve" unicode="&#x2d8;" horiz-adv-x="1024" 
d="M660 1368q-154 0 -235.5 80t-81.5 213q0 44 7 85h163q-5 -33 -5 -56q0 -75 39.5 -117.5t117.5 -42.5q168 0 214 216h176q-36 -178 -129 -278t-266 -100z" />
    <glyph glyph-name="dotaccent" unicode="&#x2d9;" horiz-adv-x="1024" 
d="M687 1403q-62 0 -103.5 42t-41.5 104t41.5 103.5t103.5 41.5t102.5 -41.5t40.5 -103.5q0 -63 -40.5 -104.5t-102.5 -41.5z" />
    <glyph glyph-name="ring" unicode="&#x2da;" horiz-adv-x="1024" 
d="M689 1368q-118 0 -198 75t-80 191t80 191t198 75t198 -75t80 -191t-80 -191t-198 -75zM564 1634q0 -56 35 -92.5t90 -36.5t90 36.5t35 92.5t-35 92.5t-90 36.5t-90 -36.5t-35 -92.5z" />
    <glyph glyph-name="ogonek" unicode="&#x2db;" horiz-adv-x="1024" 
d="M306 -435q-25 -4 -61 -4q-93 0 -155 38t-62 121q0 173 299 325l66 -45q-188 -154 -188 -251q0 -33 22.5 -51t62.5 -18q18 0 40 5z" />
    <glyph glyph-name="tilde" unicode="&#x2dc;" horiz-adv-x="1024" 
d="M232 1378q28 166 93 253t177 87q46 0 88 -17t73 -41t59 -48t57 -41t56 -17q43 0 66 39.5t41 124.5h172q-29 -166 -93.5 -253t-176.5 -87q-46 0 -88 17t-73 41t-59 48t-57.5 41t-56.5 17q-43 0 -65.5 -39.5t-40.5 -124.5h-172z" />
    <glyph glyph-name="hungarumlaut" unicode="&#x2dd;" horiz-adv-x="1024" 
d="M255 1378l293 368h253l-357 -368h-189zM694 1378l293 368h254l-357 -368h-190z" />
    <glyph glyph-name="gravecomb" unicode="&#x300;" 
d="M530 1378l-301 368h247l236 -368h-182z" />
    <glyph glyph-name="acutecomb" unicode="&#x301;" 
d="M498 1378l293 368h253l-357 -368h-189z" />
    <glyph glyph-name="uni0302" unicode="&#x302;" 
d="M247 1378l343 368h264l196 -368h-184l-161 241l-258 -241h-200z" />
    <glyph glyph-name="tildecomb" unicode="&#x303;" 
d="M232 1378q28 166 93 253t177 87q46 0 88 -17t73 -41t59 -48t57 -41t56 -17q43 0 66 39.5t41 124.5h172q-29 -166 -93.5 -253t-176.5 -87q-46 0 -88 17t-73 41t-59 48t-57.5 41t-56.5 17q-43 0 -65.5 -39.5t-40.5 -124.5h-172z" />
    <glyph glyph-name="uni0304" unicode="&#x304;" 
d="M325 1443l35 173h669l-35 -173h-669z" />
    <glyph glyph-name="uni0306" unicode="&#x306;" 
d="M660 1368q-154 0 -235.5 80t-81.5 213q0 44 7 85h163q-5 -33 -5 -56q0 -75 39.5 -117.5t117.5 -42.5q168 0 214 216h176q-36 -178 -129 -278t-266 -100z" />
    <glyph glyph-name="uni0307" unicode="&#x307;" 
d="M687 1403q-62 0 -103.5 42t-41.5 104t41.5 103.5t103.5 41.5t102.5 -41.5t40.5 -103.5q0 -63 -40.5 -104.5t-102.5 -41.5z" />
    <glyph glyph-name="uni0308" unicode="&#x308;" 
d="M393 1403q-62 0 -103 42t-41 104t41 103.5t103 41.5t103.5 -41.5t41.5 -103.5t-41.5 -104t-103.5 -42zM786 1549q0 62 41.5 103.5t103.5 41.5t103 -41.5t41 -103.5t-41 -104t-103 -42t-103.5 42t-41.5 104z" />
    <glyph glyph-name="uni030A" unicode="&#x30a;" 
d="M689 1368q-118 0 -198 75t-80 191t80 191t198 75t198 -75t80 -191t-80 -191t-198 -75zM564 1634q0 -56 35 -92.5t90 -36.5t90 36.5t35 92.5t-35 92.5t-90 36.5t-90 -36.5t-35 -92.5z" />
    <glyph glyph-name="uni030B" unicode="&#x30b;" 
d="M255 1378l293 368h253l-357 -368h-189zM694 1378l293 368h254l-357 -368h-190z" />
    <glyph glyph-name="uni030C" unicode="&#x30c;" 
d="M481 1378l-196 368h184l161 -241l258 241h201l-345 -368h-263z" />
    <glyph glyph-name="uni0312" unicode="&#x312;" 
d="M489 1378l310 368h192l-246 -368h-256z" />
    <glyph glyph-name="uni0313" unicode="&#x313;" 
d="M615 1378l246 368h257l-310 -368h-193z" />
    <glyph glyph-name="dotbelowcomb" unicode="&#x323;" 
d="M323 -413q-62 0 -103 41.5t-41 103.5t41 103.5t103 41.5t103 -41.5t41 -103.5t-41 -103.5t-103 -41.5z" />
    <glyph glyph-name="uni0324" unicode="&#x324;" 
d="M30 -413q-62 0 -103 41.5t-41 103.5t41 103.5t103 41.5t103 -41.5t41 -103.5t-41 -103.5t-103 -41.5zM423 -268q0 62 41 103.5t103 41.5t103 -41.5t41 -103.5t-41 -103.5t-103 -41.5t-103 41.5t-41 103.5z" />
    <glyph glyph-name="uni0325" unicode="&#x325;" 
d="M287 -644q-118 0 -198 75t-80 191t80 190.5t198 74.5t198 -74.5t80 -190.5t-80 -191t-198 -75zM162 -378q0 -56 35 -92.5t90 -36.5t90 36.5t35 92.5t-35 92.5t-90 36.5t-90 -36.5t-35 -92.5z" />
    <glyph glyph-name="uni0326" unicode="&#x326;" 
d="M29 -481l230 358h225l-276 -358h-179z" />
    <glyph glyph-name="uni0327" unicode="&#x327;" 
d="M307 -439q-96 0 -180 24l26 127q77 -28 148 -28q110 0 110 71q0 63 -85 63q-26 0 -52 -6l-23 59l78 129h136l-51 -81q84 -7 125 -51.5t41 -111.5q0 -96 -73 -145.5t-200 -49.5z" />
    <glyph glyph-name="uni0328" unicode="&#x328;" 
d="M306 -435q-25 -4 -61 -4q-93 0 -155 38t-62 121q0 173 299 325l66 -45q-188 -154 -188 -251q0 -33 22.5 -51t62.5 -18q18 0 40 5z" />
    <glyph glyph-name="uni032E" unicode="&#x32e;" 
d="M286 -501q-155 0 -236.5 80t-81.5 213q0 39 8 85h162q-4 -27 -4 -56q0 -76 39 -118t117 -42q168 0 214 216h176q-36 -178 -128.5 -278t-265.5 -100z" />
    <glyph glyph-name="uni0331" unicode="&#x331;" 
d="M-23 -296l35 173h669l-35 -173h-669z" />
    <glyph glyph-name="uni0374" unicode="&#x374;" horiz-adv-x="471" 
d="M388 1638h210l-249 -576h-174z" />
    <glyph glyph-name="uni0375" unicode="&#x375;" horiz-adv-x="471" 
d="M120 301h210l-249 -576h-173z" />
    <glyph glyph-name="uni037E" unicode="&#x37e;" horiz-adv-x="540" 
d="M-62 -286q105 59 169 123t89 156q-16 -2 -22 -2q-59 0 -103.5 39t-44.5 107q0 66 41.5 112t115.5 46q76 0 116 -51.5t40 -143.5q0 -46 -8.5 -92t-32.5 -101t-61 -104t-99.5 -97.5t-143.5 -84.5zM203 1025q0 65 44 109.5t109 44.5q64 0 108.5 -44.5t44.5 -109.5t-44 -110
t-109 -45q-64 0 -108.5 45t-44.5 110z" />
    <glyph glyph-name="tonos" unicode="&#x384;" horiz-adv-x="1024" 
d="M524 1324l141 422h210l-177 -422h-174z" />
    <glyph glyph-name="dieresistonos" unicode="&#x385;" horiz-adv-x="1052" 
d="M546 1324l141 422h210l-178 -422h-173zM286 1546q0 57 38 95.5t95 38.5t94.5 -38.5t37.5 -95.5q0 -58 -37.5 -96t-94.5 -38t-95 38t-38 96zM888 1546q0 57 38 95.5t95 38.5t95 -38.5t38 -95.5q0 -58 -37.5 -96t-95.5 -38q-57 0 -95 38t-38 96z" />
    <glyph glyph-name="Alphatonos" unicode="&#x386;" horiz-adv-x="1479" 
d="M-99 0l911 1638h272l256 -1638h-218l-66 475h-675l-255 -475h-225zM255 1216l141 422h210l-177 -422h-174zM478 653h554l-113 820z" />
    <glyph glyph-name="anoteleia" unicode="&#x387;" horiz-adv-x="520" 
d="M367 974q-64 0 -108.5 44.5t-44.5 109.5t44 110t109 45q64 0 108.5 -45t44.5 -110t-44 -109.5t-109 -44.5z" />
    <glyph glyph-name="Epsilontonos" unicode="&#x388;" horiz-adv-x="1537" 
d="M212 0l328 1638h1074l-37 -184h-859l-104 -517h765l-36 -179h-764l-115 -573h860l-37 -185h-1075zM104 1216l141 422h210l-177 -422h-174z" />
    <glyph glyph-name="Etatonos" unicode="&#x389;" horiz-adv-x="1850" 
d="M1304 0l151 755h-877l-151 -755h-215l328 1638h215l-140 -698h877l140 698h214l-327 -1638h-215zM104 1216l141 422h210l-177 -422h-174z" />
    <glyph glyph-name="Iotatonos" unicode="&#x38a;" horiz-adv-x="758" 
d="M212 0l328 1638h215l-328 -1638h-215zM104 1216l141 422h210l-177 -422h-174z" />
    <glyph glyph-name="Omicrontonos" unicode="&#x38c;" horiz-adv-x="1856" 
d="M948 -20q-147 0 -271 42t-219.5 125.5t-149.5 219.5t-54 312q0 96 15.5 192.5t49 193t82.5 183.5t119.5 162.5t155.5 130t196 86t236 31.5q117 0 220 -26t190.5 -81.5t150 -137t98 -197.5t35.5 -258q0 -135 -30.5 -270t-98.5 -263.5t-165 -226.5t-242 -158t-318 -60z
M104 1216l141 422h210l-177 -422h-174zM472 675q0 -253 129 -382t359 -129q94 0 177 27.5t145.5 74t113.5 110.5t85.5 136t58.5 150.5t34.5 153.5t10.5 147q0 253 -129.5 382t-359.5 129q-94 0 -177 -27.5t-145 -74t-113.5 -110.5t-86 -136t-58 -150.5t-34 -153.5
t-10.5 -147z" />
    <glyph glyph-name="Upsilontonos" unicode="&#x38e;" horiz-adv-x="1680" 
d="M732 0l119 593l-385 1045h218l305 -861l651 861h229l-804 -1045l-118 -593h-215zM104 1216l141 422h210l-177 -422h-174z" />
    <glyph glyph-name="Omegatonos" unicode="&#x38f;" horiz-adv-x="1849" 
d="M78 0l37 185h433q-140 102 -208.5 257t-68.5 337q0 126 35 250.5t107.5 238t173.5 201t242.5 139t303.5 51.5q130 0 238.5 -32t185.5 -89.5t130.5 -137t79.5 -174t26 -200.5q0 -250 -143 -477t-378 -364h390l-36 -185h-658l32 162q258 130 416 358t158 487
q0 222 -117 345t-336 123q-155 0 -280.5 -64.5t-202.5 -171t-118 -236.5t-41 -269q0 -368 288 -572l-32 -162h-657zM104 1216l141 422h210l-177 -422h-174z" />
    <glyph glyph-name="iotadieresistonos" unicode="&#x390;" horiz-adv-x="690" 
d="M414 -17q-134 0 -208 53.5t-74 183.5q0 58 12 117l171 854h207l-173 -863q-9 -44 -9 -76q0 -53 28.5 -73t87.5 -20q69 0 124 16l-35 -179q-60 -13 -131 -13zM77 1546q0 57 37.5 95.5t94.5 38.5t95 -38.5t38 -95.5q0 -58 -38 -96t-95 -38t-94.5 38t-37.5 96zM336 1324
l141 422h210l-177 -422h-174zM679 1546q0 57 38 95.5t95 38.5t95 -38.5t38 -95.5q0 -58 -37.5 -96t-95.5 -38q-57 0 -95 38t-38 96z" />
    <glyph glyph-name="Alpha" unicode="&#x391;" horiz-adv-x="1479" 
d="M-99 0l911 1638h272l256 -1638h-218l-66 475h-675l-255 -475h-225zM478 653h554l-113 820z" />
    <glyph glyph-name="Beta" unicode="&#x392;" horiz-adv-x="1547" 
d="M93 0l328 1638h643q229 0 343 -104t114 -274q0 -63 -16.5 -122t-53.5 -117.5t-107 -101.5t-165 -60q122 -44 181.5 -137t59.5 -222q0 -40 -5 -79t-22 -90.5t-45 -95.5t-78.5 -88.5t-117 -76t-166.5 -51t-221 -19.5h-672zM344 182h420q102 0 180 19t126.5 49.5t79 75
t42 90t11.5 99.5q0 58 -15.5 101.5t-51.5 79t-102 54.5t-161 19h-412zM497 946h428q97 0 169 21t111 51t63 72t30.5 75.5t6.5 70.5q0 220 -295 220h-411z" />
    <glyph glyph-name="Gamma" unicode="&#x393;" horiz-adv-x="1229" 
d="M93 0l328 1638h964l-37 -185h-750l-290 -1453h-215z" />
    <glyph glyph-name="uni0394" unicode="&#x394;" horiz-adv-x="1479" 
d="M-99 0l911 1638h272l256 -1638h-1439zM220 179h881l-180 1303z" />
    <glyph glyph-name="Epsilon" unicode="&#x395;" horiz-adv-x="1418" 
d="M93 0l328 1638h1074l-37 -184h-859l-104 -517h765l-36 -179h-765l-114 -573h859l-37 -185h-1074z" />
    <glyph glyph-name="Zeta" unicode="&#x396;" horiz-adv-x="1437" 
d="M-12 0l33 162l1194 1292h-902l36 184h1176l-32 -161l-1195 -1292h950l-37 -185h-1223z" />
    <glyph glyph-name="Eta" unicode="&#x397;" horiz-adv-x="1731" 
d="M1185 0l151 755h-877l-151 -755h-215l328 1638h214l-139 -698h877l139 698h215l-328 -1638h-214z" />
    <glyph glyph-name="Theta" unicode="&#x398;" horiz-adv-x="1745" 
d="M837 -20q-117 0 -220 26t-190.5 81.5t-150 136.5t-97.5 197t-35 258q0 96 15.5 192.5t49 193t82.5 183.5t119.5 162.5t155.5 130t196 86t236 31.5q147 0 271 -42.5t219.5 -126t149 -219.5t53.5 -312q0 -135 -30.5 -270t-98.5 -263.5t-165 -226.5t-242 -158t-318 -60z
M361 675q0 -253 129 -382t359 -129q94 0 177 27.5t145.5 74t113.5 110.5t85.5 136t58.5 150.5t34.5 153.5t10.5 147q0 253 -129 382t-359 129q-94 0 -177 -27.5t-145.5 -74t-113.5 -110.5t-85.5 -136t-58.5 -150.5t-34.5 -153.5t-10.5 -147zM500 755l37 185h806l-37 -185
h-806z" />
    <glyph glyph-name="Iota" unicode="&#x399;" horiz-adv-x="639" 
d="M93 0l328 1638h214l-327 -1638h-215z" />
    <glyph glyph-name="Kappa" unicode="&#x39a;" horiz-adv-x="1413" 
d="M1008 0l-537 816l-163 -816h-215l328 1638h214l-146 -729l816 729h278l-889 -786l569 -852h-255z" />
    <glyph glyph-name="Lambda" unicode="&#x39b;" horiz-adv-x="1479" 
d="M-99 0l911 1638h272l256 -1638h-214l-203 1473l-793 -1473h-229z" />
    <glyph glyph-name="Mu" unicode="&#x39c;" horiz-adv-x="2082" 
d="M93 0l328 1638h310l244 -1362l789 1362h315l-328 -1638h-204l278 1392l-774 -1322h-230l-245 1322l-279 -1392h-204z" />
    <glyph glyph-name="Nu" unicode="&#x39d;" horiz-adv-x="1735" 
d="M93 0l328 1638h267l558 -1405l281 1405h204l-328 -1638h-266l-558 1405l-282 -1405h-204z" />
    <glyph glyph-name="Xi" unicode="&#x39e;" horiz-adv-x="1381" 
d="M13 0l41 207h1118l-41 -207h-1118zM258 747l39 201h929l-41 -201h-927zM300 1432l40 206h1119l-41 -206h-1118z" />
    <glyph glyph-name="Omicron" unicode="&#x39f;" horiz-adv-x="1745" 
d="M837 -20q-117 0 -220 26t-190.5 81.5t-150 136.5t-97.5 197t-35 258q0 96 15.5 192.5t49 193t82.5 183.5t119.5 162.5t155.5 130t196 86t236 31.5q147 0 271 -42.5t219.5 -126t149 -219.5t53.5 -312q0 -135 -30.5 -270t-98.5 -263.5t-165 -226.5t-242 -158t-318 -60z
M361 675q0 -253 129 -382t359 -129q94 0 177 27.5t145.5 74t113.5 110.5t85.5 136t58.5 150.5t34.5 153.5t10.5 147q0 253 -129 382t-359 129q-94 0 -177 -27.5t-145.5 -74t-113.5 -110.5t-85.5 -136t-58.5 -150.5t-34.5 -153.5t-10.5 -147z" />
    <glyph glyph-name="Pi" unicode="&#x3a0;" horiz-adv-x="1690" 
d="M1144 0l291 1454h-836l-291 -1454h-215l328 1638h1265l-328 -1638h-214z" />
    <glyph glyph-name="Rho" unicode="&#x3a1;" horiz-adv-x="1531" 
d="M93 0l328 1638h587q147 0 256 -35.5t172.5 -98.5t94 -142.5t30.5 -175.5q0 -67 -14 -128.5t-45 -123.5t-85.5 -112.5t-128.5 -89.5t-181.5 -61t-238.5 -22h-431l-129 -649h-215zM474 831h403q107 0 190.5 20.5t135 54t84.5 80t45.5 93t12.5 99.5q0 127 -83.5 201.5
t-268.5 74.5h-394z" />
    <glyph glyph-name="Sigma" unicode="&#x3a3;" horiz-adv-x="1438" 
d="M-11 0l32 162l615 658l-352 657l32 161h1223l-37 -184h-983l353 -659l-569 -610h945l-37 -185h-1222z" />
    <glyph glyph-name="Tau" unicode="&#x3a4;" horiz-adv-x="1489" 
d="M518 0l291 1454h-564l37 184h1343l-37 -184h-565l-290 -1454h-215z" />
    <glyph glyph-name="Upsilon" unicode="&#x3a5;" horiz-adv-x="1443" 
d="M495 0l119 593l-385 1045h217l306 -861l651 861h229l-804 -1045l-118 -593h-215z" />
    <glyph glyph-name="Phi" unicode="&#x3a6;" horiz-adv-x="1876" 
d="M713 -20l28 144q-286 40 -438 206t-152 418q0 225 111 400t308.5 273t451.5 104l27 134h204l-29 -145q286 -40 439 -206t153 -418q0 -169 -64.5 -312t-179.5 -243.5t-276.5 -159t-351.5 -62.5l-27 -133h-204zM364 743q0 -183 106 -300t306 -147l211 1054
q-283 -18 -453 -182.5t-170 -424.5zM979 288q278 20 451 191t173 416q0 184 -107 300.5t-307 146.5z" />
    <glyph glyph-name="Chi" unicode="&#x3a7;" horiz-adv-x="1491" 
d="M1132 0l-369 687l-621 -687h-241l776 846l-425 792h221l350 -654l593 654h240l-747 -814l443 -824h-220z" />
    <glyph glyph-name="Psi" unicode="&#x3a8;" horiz-adv-x="1692" 
d="M620 0l108 540q-263 23 -393 138t-130 334q0 92 22 198l85 428h215l-87 -433q-19 -100 -19 -169q0 -147 81.5 -223.5t260.5 -93.5l184 919h215l-185 -921q235 16 355 130t169 358l86 433h209l-95 -473q-63 -316 -245 -466t-515 -163l-107 -536h-214z" />
    <glyph glyph-name="uni03A9" unicode="&#x3a9;" horiz-adv-x="1756" 
d="M-14 0l37 185h433q-140 102 -208.5 257t-68.5 337q0 126 35 250.5t107.5 238t173 201t242 139t303.5 51.5q130 0 238.5 -32t185.5 -89.5t130.5 -137t79.5 -174t26 -200.5q0 -250 -143 -477t-378 -364h391l-37 -185h-657l32 162q258 130 415.5 358t157.5 487
q0 223 -116.5 345.5t-335.5 122.5q-155 0 -280.5 -64.5t-202.5 -171t-118 -236.5t-41 -269q0 -368 288 -572l-32 -162h-657z" />
    <glyph glyph-name="Iotadieresis" unicode="&#x3aa;" horiz-adv-x="639" 
d="M93 0l328 1638h214l-327 -1638h-215zM174 1922q0 62 41 103t103 41t103 -41t41 -103t-41 -104t-103 -42t-103 42t-41 104zM671 1922q0 62 41 103t103 41t103 -41t41 -103t-41 -104t-103 -42t-103 42t-41 104z" />
    <glyph glyph-name="Upsilondieresis" unicode="&#x3ab;" horiz-adv-x="1443" 
d="M495 0l119 593l-385 1045h217l306 -861l651 861h229l-804 -1045l-118 -593h-215zM567 1922q0 62 41 103t103 41t103 -41t41 -103t-41 -104t-103 -42t-103 42t-41 104zM1063 1922q0 62 41 103t103 41t103.5 -41t41.5 -103t-41.5 -104t-103.5 -42t-103 42t-41 104z" />
    <glyph glyph-name="alphatonos" unicode="&#x3ac;" horiz-adv-x="1476" 
d="M585 -20q-226 0 -351.5 141.5t-125.5 379.5q0 110 25 213.5t76.5 194t124 157.5t173.5 106t219 39q154 0 262.5 -65t149.5 -184l74 229h203l-80 -240l-142 -711l-15 -240h-203l12 165q-61 -83 -165 -134t-237 -51zM318 501q0 -171 87 -258.5t246 -87.5q88 0 160 35
t118.5 90.5t78.5 127.5t45.5 142.5t13.5 139.5q0 171 -87 258.5t-246 87.5q-88 0 -160.5 -35t-118.5 -90.5t-78 -127.5t-45.5 -142.5t-13.5 -139.5zM792 1324l140 422h210l-177 -422h-173z" />
    <glyph glyph-name="epsilontonos" unicode="&#x3ad;" horiz-adv-x="1233" 
d="M571 -20q-229 0 -355 85t-126 242q0 116 71.5 206.5t199.5 123.5q-142 43 -142 205q0 117 77 202.5t197.5 126t265.5 40.5q314 0 441 -205l-149 -108q-90 139 -297 139q-140 0 -238 -54t-98 -150q0 -126 198 -126h273l-32 -162h-257q-123 0 -209.5 -54.5t-86.5 -150.5
q0 -86 73.5 -136t211.5 -50q232 0 358 137l130 -132q-181 -179 -506 -179zM731 1324l141 422h210l-177 -422h-174z" />
    <glyph glyph-name="etatonos" unicode="&#x3ae;" horiz-adv-x="1433" 
d="M93 0l190 951l15 240h203l-12 -170q63 89 170 139.5t238 50.5q174 0 276 -91t102 -258q0 -76 -27 -209l-212 -1063h-207l213 1061q22 112 22 175q0 208 -234 208q-162 0 -262 -97t-133 -263l-135 -674h-207zM775 1324l141 422h210l-177 -422h-174z" />
    <glyph glyph-name="iotatonos" unicode="&#x3af;" horiz-adv-x="690" 
d="M414 -17q-134 0 -208 53.5t-74 183.5q0 58 12 117l171 854h207l-173 -863q-9 -44 -9 -76q0 -53 28.5 -73t87.5 -20q69 0 124 16l-35 -179q-60 -13 -131 -13zM358 1324l141 422h210l-177 -422h-174z" />
    <glyph glyph-name="upsilondieresistonos" unicode="&#x3b0;" horiz-adv-x="1411" 
d="M619 -20q-232 0 -344 98t-112 280q0 69 17 156l135 677h207l-141 -703q-13 -62 -13 -117q0 -107 62 -160.5t203 -53.5q159 0 239 77t111 234l144 723h207l-153 -766q-89 -445 -562 -445zM483 1546q0 57 38 95.5t95 38.5t95 -38.5t38 -95.5q0 -58 -38 -96t-95 -38t-95 38
t-38 96zM743 1324l141 422h210l-178 -422h-173zM1085 1546q0 57 38 95.5t95 38.5t95 -38.5t38 -95.5q0 -58 -37.5 -96t-95.5 -38q-57 0 -95 38t-38 96z" />
    <glyph glyph-name="alpha" unicode="&#x3b1;" horiz-adv-x="1476" 
d="M585 -20q-226 0 -351.5 141.5t-125.5 379.5q0 110 25 213.5t76.5 194t124 157.5t173.5 106t219 39q154 0 262.5 -65t149.5 -184l74 229h203l-80 -240l-142 -711l-15 -240h-203l12 165q-61 -83 -165 -134t-237 -51zM318 501q0 -171 87 -258.5t246 -87.5q88 0 160 35
t118.5 90.5t78.5 127.5t45.5 142.5t13.5 139.5q0 171 -87 258.5t-246 87.5q-88 0 -160.5 -35t-118.5 -90.5t-78 -127.5t-45.5 -142.5t-13.5 -139.5z" />
    <glyph glyph-name="beta" unicode="&#x3b2;" horiz-adv-x="1474" 
d="M330 1218q51 257 203 391t400 134q120 0 211 -31.5t145.5 -87.5t81.5 -127t27 -157q0 -159 -94.5 -271t-255.5 -155q145 -38 218 -140.5t73 -252.5q0 -104 -37 -199.5t-108.5 -173t-187.5 -123.5t-262 -46q-169 0 -274.5 53.5t-140.5 145.5l-116 -580h-207zM400 468
q0 -150 85 -231.5t259 -81.5q86 0 154.5 22t111 58t70.5 84.5t39.5 97.5t11.5 102q0 144 -90.5 224.5t-266.5 80.5h-111l35 172h89q183 0 292.5 84t109.5 236q0 117 -68 184.5t-206 67.5q-308 0 -384 -382l-116 -577q-15 -75 -15 -141z" />
    <glyph glyph-name="gamma" unicode="&#x3b3;" horiz-adv-x="1251" 
d="M384 0l-225 1191h213l172 -1014q80 93 141 172t126 179.5t107 191t69 195t27 203.5q0 40 -4 73h217q4 -33 4 -74q0 -120 -40 -250t-99.5 -240t-151.5 -234t-170.5 -214t-182.5 -199l-78 -390h-207z" />
    <glyph glyph-name="delta" unicode="&#x3b4;" horiz-adv-x="1384" 
d="M603 -20q-240 0 -371.5 127.5t-131.5 363.5q0 119 35 230t101.5 203t172.5 155.5t237 81.5q-121 49 -174 118.5t-53 162.5q0 84 38.5 147t107 100.5t155 55.5t191.5 18q277 0 514 -95l-78 -171q-231 90 -461 90q-272 0 -272 -131q0 -62 68.5 -117t231.5 -114
q188 -70 277 -195.5t89 -313.5q0 -108 -27.5 -211t-84 -194.5t-135.5 -161t-190 -109.5t-240 -40zM310 485q0 -157 76.5 -243.5t228.5 -86.5q92 0 169 31.5t128.5 83.5t88 121t53 142.5t16.5 148.5q0 156 -80 243.5t-235 87.5q-91 0 -167 -31.5t-126.5 -84t-85.5 -121.5
t-50.5 -142.5t-15.5 -148.5z" />
    <glyph glyph-name="epsilon" unicode="&#x3b5;" horiz-adv-x="1233" 
d="M571 -20q-229 0 -355 85t-126 242q0 116 71.5 206.5t199.5 123.5q-142 43 -142 205q0 117 77 202.5t197.5 126t265.5 40.5q314 0 441 -205l-149 -108q-90 139 -297 139q-140 0 -238 -54t-98 -150q0 -126 198 -126h273l-32 -162h-257q-123 0 -209.5 -54.5t-86.5 -150.5
q0 -86 73.5 -136t211.5 -50q232 0 358 137l130 -132q-181 -179 -506 -179z" />
    <glyph glyph-name="zeta" unicode="&#x3b6;" horiz-adv-x="1088" 
d="M612 -378q46 46 75 105t29 112t-39.5 84.5t-141.5 57.5q-212 54 -319.5 172.5t-107.5 315.5q0 164 73.5 328t198.5 302t278 252t326 199h-652l35 173h920l-39 -192q-137 -67 -265.5 -148.5t-250.5 -186t-213 -214t-146 -237t-55 -251.5q0 -128 70 -212.5t237 -134.5
q155 -46 220 -109t65 -154q0 -74 -37.5 -161t-102.5 -154z" />
    <glyph glyph-name="eta" unicode="&#x3b7;" horiz-adv-x="1433" 
d="M93 0l190 951l15 240h203l-12 -170q63 89 170 139.5t238 50.5q174 0 276 -91t102 -258q0 -76 -27 -209l-212 -1063h-207l213 1061q22 112 22 175q0 208 -234 208q-162 0 -262 -97t-133 -263l-135 -674h-207z" />
    <glyph glyph-name="theta" unicode="&#x3b8;" horiz-adv-x="1437" 
d="M628 -20q-231 0 -356.5 161.5t-125.5 444.5q0 118 20 245t59 258t103.5 247.5t147 208t196.5 145t244 53.5q231 0 356.5 -161.5t125.5 -444.5q0 -101 -14 -209t-44.5 -221t-74.5 -218t-108 -198t-140.5 -162t-176.5 -109t-212 -40zM349 553q0 -191 71 -294.5t215 -103.5
q79 0 150 35.5t125.5 95t100.5 141.5t78 169t56 184h-778q-18 -124 -18 -227zM401 952h778q17 122 17 217q0 191 -71.5 295t-215.5 104q-78 0 -149 -35t-125 -93t-100 -139t-78 -167t-56 -182z" />
    <glyph glyph-name="iota" unicode="&#x3b9;" horiz-adv-x="690" 
d="M414 -17q-134 0 -208 53.5t-74 183.5q0 58 12 117l171 854h207l-173 -863q-9 -44 -9 -76q0 -53 28.5 -73t87.5 -20q69 0 124 16l-35 -179q-60 -13 -131 -13z" />
    <glyph glyph-name="kappa" unicode="&#x3ba;" horiz-adv-x="1216" 
d="M840 0l-427 598l-119 -598h-207l238 1191h207l-103 -515l617 515h271l-689 -561l454 -630h-242z" />
    <glyph glyph-name="lambda" unicode="&#x3bb;" horiz-adv-x="1267" 
d="M906 0l-176 1020l-582 -1020h-228l702 1191h63l-37 184q-20 101 -67.5 147t-151.5 46q-83 0 -165 -26l35 173q82 28 198 28q149 0 228.5 -69.5t109.5 -232.5l273 -1441h-202z" />
    <glyph glyph-name="uni03BC" unicode="&#x3bc;" horiz-adv-x="1437" 
d="M5 -410l320 1601h207l-133 -665q-19 -97 -19 -150q0 -110 54 -164.5t169 -54.5q157 0 261 95t137 258l137 681h207l-191 -951l-15 -240h-203l13 174q-63 -86 -162.5 -140.5t-222.5 -54.5q-183 0 -259 119q-25 -166 -93 -508h-207z" />
    <glyph glyph-name="nu" unicode="&#x3bd;" horiz-adv-x="1251" 
d="M384 0l-225 1191h213l172 -1014q80 93 141 172t126 179.5t107 191t69 195t27 203.5q0 40 -4 73h217q4 -33 4 -74q0 -118 -39 -245.5t-96.5 -235.5t-147 -230.5t-165.5 -210t-177 -195.5h-222z" />
    <glyph glyph-name="xi" unicode="&#x3be;" horiz-adv-x="1099" 
d="M624 -377q45 46 74.5 105t29.5 111q0 54 -41 86t-143 55q-445 101 -445 439q0 102 41 192.5t125 160t200 97.5q-98 27 -147 92.5t-49 158.5q0 299 489 430h-415l34 173h920l-37 -187q-374 -28 -576 -131.5t-202 -262.5q0 -94 70.5 -145.5t210.5 -51.5h264l-35 -173h-286
q-170 0 -283 -91.5t-113 -236.5q0 -106 74.5 -178t250.5 -120q154 -43 219 -107t65 -158q0 -71 -32.5 -156.5t-93.5 -157.5z" />
    <glyph glyph-name="omicron" unicode="&#x3bf;" horiz-adv-x="1383" 
d="M642 -20q-113 0 -208.5 31.5t-169 93.5t-115 163.5t-41.5 233.5q0 101 23 200t73.5 191.5t123 162.5t179.5 112.5t235 42.5q113 0 208.5 -31.5t169 -93.5t115 -163.5t41.5 -233.5q0 -101 -23 -200t-73.5 -191.5t-123 -162.5t-179.5 -112.5t-235 -42.5zM317 501
q0 -170 87.5 -258t245.5 -88q88 0 160 35t118.5 90.5t78 127.5t45 142.5t13.5 139.5q0 170 -87 258t-245 88q-88 0 -160 -35t-118.5 -90.5t-78.5 -127.5t-45.5 -142.5t-13.5 -139.5z" />
    <glyph glyph-name="pi" unicode="&#x3c0;" horiz-adv-x="1587" 
d="M158 0l203 1018h-250l34 173h1452l-34 -173h-262l-139 -690q-9 -44 -9 -76q0 -53 29 -73t88 -20q69 0 124 16l-36 -179q-60 -13 -131 -13q-135 0 -208.5 53.5t-73.5 183.5q0 58 12 117l137 681h-526l-203 -1018h-207z" />
    <glyph glyph-name="rho" unicode="&#x3c1;" horiz-adv-x="1427" 
d="M169 625q56 281 224.5 433.5t421.5 152.5q240 0 373.5 -136t133.5 -378q0 -107 -25.5 -209.5t-79 -195t-128.5 -161.5t-182 -110t-233 -41q-155 0 -253 58t-132 154l-122 -610h-206zM364 498q0 -164 77 -253.5t235 -89.5q94 0 171 35.5t126 91.5t82 129.5t47 145
t14 142.5q0 161 -77.5 249t-232.5 88q-96 0 -173.5 -35t-126.5 -91t-82 -128.5t-46.5 -143t-13.5 -140.5z" />
    <glyph glyph-name="uni03C2" unicode="&#x3c2;" horiz-adv-x="1166" 
d="M602 -379q47 49 77 112t30 118q0 50 -40 80.5t-142 55.5q-209 51 -315 177t-106 339q0 107 27 209.5t83.5 193t135 158.5t189.5 107.5t240 39.5q304 0 429 -201l-154 -111q-79 137 -278 137q-93 0 -171 -30.5t-130.5 -80.5t-89 -116t-53 -135.5t-16.5 -140.5
q0 -143 69.5 -231.5t229.5 -141.5q155 -52 219.5 -116t64.5 -154q0 -72 -35 -161.5t-99 -162.5z" />
    <glyph glyph-name="sigma" unicode="&#x3c3;" horiz-adv-x="1453" 
d="M615 -20q-246 0 -379 130.5t-133 369.5q0 107 25.5 209t79 193t129.5 159.5t184.5 109t236.5 40.5h765l-35 -173h-384q65 -50 101.5 -139t36.5 -212q0 -127 -40 -247.5t-115 -219.5t-197.5 -159.5t-274.5 -60.5zM315 496q0 -162 78 -251.5t233 -89.5q73 0 135.5 23
t106 63t76.5 91t52 110.5t28.5 117.5t9.5 115q0 162 -78 251t-232 89q-87 0 -158 -33t-116.5 -85.5t-77 -121.5t-44.5 -139t-13 -140z" />
    <glyph glyph-name="tau" unicode="&#x3c4;" horiz-adv-x="1090" 
d="M761 -4q-60 -13 -131 -13q-135 0 -208.5 53.5t-73.5 183.5q0 58 12 117l137 681h-386l34 173h1016l-35 -173h-422l-139 -690q-9 -44 -9 -76q0 -53 29 -73t88 -20q69 0 124 16z" />
    <glyph glyph-name="upsilon" unicode="&#x3c5;" horiz-adv-x="1411" 
d="M619 -20q-232 0 -344 98t-112 280q0 69 17 156l135 677h207l-141 -703q-13 -62 -13 -117q0 -107 62 -160.5t203 -53.5q159 0 239 77t111 234l144 723h207l-153 -766q-89 -445 -562 -445z" />
    <glyph glyph-name="phi" unicode="&#x3c6;" horiz-adv-x="1737" 
d="M813 837q35 174 136 274t263 100q192 0 308.5 -134t116.5 -361q0 -214 -102.5 -378.5t-281.5 -255.5t-410 -101l-78 -391h-201l79 398q-255 31 -394 174.5t-139 374.5q0 239 162 418t435 256l37 -181q-203 -56 -315 -183t-112 -305q0 -158 91 -257t270 -123zM879 158
q255 21 402 168t147 388q0 148 -58.5 235t-162.5 87q-78 0 -126 -55.5t-73 -176.5z" />
    <glyph glyph-name="chi" unicode="&#x3c7;" horiz-adv-x="1208" 
d="M775 -410l-236 659l-489 -659h-236l638 826l-296 775h216l222 -621l460 621h237l-610 -790l311 -811h-217z" />
    <glyph glyph-name="psi" unicode="&#x3c8;" horiz-adv-x="1859" 
d="M625 -410l80 398q-265 29 -393.5 149t-128.5 318q0 71 17 154l115 582h207l-120 -605q-13 -61 -13 -119q0 -131 83 -207t268 -96l312 1559h206l-312 -1565q233 10 348 105.5t152 280.5l129 647h207l-140 -701q-101 -500 -732 -511l-78 -389h-207z" />
    <glyph glyph-name="omega" unicode="&#x3c9;" horiz-adv-x="1796" 
d="M455 -20q-176 0 -271.5 106.5t-95.5 307.5q0 120 32 258t107.5 288.5t181.5 250.5h267q-80 -58 -146 -139.5t-108 -164.5t-71 -172.5t-41 -164.5t-12 -139q0 -127 54 -191.5t151 -64.5q93 0 161 62t92 183l98 488h207l-93 -463q-10 -50 -10 -95q0 -88 41.5 -131.5
t118.5 -43.5q79 0 145 44.5t109 114t73 159t43 176t13 167.5q0 235 -118 375h219q105 -135 105 -378q0 -108 -19.5 -219t-65.5 -222.5t-111.5 -197.5t-166.5 -140t-222 -54q-120 0 -196.5 52t-97.5 150q-57 -98 -153.5 -150t-219.5 -52z" />
    <glyph glyph-name="iotadieresis" unicode="&#x3ca;" horiz-adv-x="690" 
d="M414 -17q-134 0 -208 53.5t-74 183.5q0 58 12 117l171 854h207l-173 -863q-9 -44 -9 -76q0 -53 28.5 -73t87.5 -20q69 0 124 16l-35 -179q-60 -13 -131 -13zM131 1549q0 62 41 103.5t103 41.5t103 -41.5t41 -103.5t-41 -104t-103 -42t-103 42t-41 104zM518 1549
q0 62 41 103.5t103 41.5t103 -41.5t41 -103.5t-41 -104t-103 -42t-103 42t-41 104z" />
    <glyph glyph-name="upsilondieresis" unicode="&#x3cb;" horiz-adv-x="1411" 
d="M619 -20q-232 0 -344 98t-112 280q0 69 17 156l135 677h207l-141 -703q-13 -62 -13 -117q0 -107 62 -160.5t203 -53.5q159 0 239 77t111 234l144 723h207l-153 -766q-89 -445 -562 -445zM443 1549q0 62 41 103.5t103 41.5t103.5 -41.5t41.5 -103.5t-41.5 -104t-103.5 -42
t-103 42t-41 104zM980 1549q0 62 41.5 103.5t103.5 41.5t103 -41.5t41 -103.5t-41 -104t-103 -42t-103.5 42t-41.5 104z" />
    <glyph glyph-name="omicrontonos" unicode="&#x3cc;" horiz-adv-x="1383" 
d="M642 -20q-113 0 -208.5 31.5t-169 93.5t-115 163.5t-41.5 233.5q0 101 23 200t73.5 191.5t123 162.5t179.5 112.5t235 42.5q113 0 208.5 -31.5t169 -93.5t115 -163.5t41.5 -233.5q0 -101 -23 -200t-73.5 -191.5t-123 -162.5t-179.5 -112.5t-235 -42.5zM317 501
q0 -170 87.5 -258t245.5 -88q88 0 160 35t118.5 90.5t78 127.5t45 142.5t13.5 139.5q0 170 -87 258t-245 88q-88 0 -160 -35t-118.5 -90.5t-78.5 -127.5t-45.5 -142.5t-13.5 -139.5zM750 1324l141 422h210l-177 -422h-174z" />
    <glyph glyph-name="upsilontonos" unicode="&#x3cd;" horiz-adv-x="1411" 
d="M619 -20q-232 0 -344 98t-112 280q0 69 17 156l135 677h207l-141 -703q-13 -62 -13 -117q0 -107 62 -160.5t203 -53.5q159 0 239 77t111 234l144 723h207l-153 -766q-89 -445 -562 -445zM765 1324l141 422h210l-178 -422h-173z" />
    <glyph glyph-name="omegatonos" unicode="&#x3ce;" horiz-adv-x="1796" 
d="M455 -20q-176 0 -271.5 106.5t-95.5 307.5q0 120 32 258t107.5 288.5t181.5 250.5h267q-80 -58 -146 -139.5t-108 -164.5t-71 -172.5t-41 -164.5t-12 -139q0 -127 54 -191.5t151 -64.5q93 0 161 62t92 183l98 488h207l-93 -463q-10 -50 -10 -95q0 -88 41.5 -131.5
t118.5 -43.5q79 0 145 44.5t109 114t73 159t43 176t13 167.5q0 235 -118 375h219q105 -135 105 -378q0 -108 -19.5 -219t-65.5 -222.5t-111.5 -197.5t-166.5 -140t-222 -54q-120 0 -196.5 52t-97.5 150q-57 -98 -153.5 -150t-219.5 -52zM957 1324l141 422h210l-177 -422
h-174z" />
    <glyph glyph-name="uni03D5" unicode="&#x3d5;" horiz-adv-x="1737" 
d="M567 -410l80 400q-253 36 -393.5 181t-140.5 375q0 196 101.5 346.5t277 231.5t399.5 87l103 512h200l-104 -523q253 -36 394 -180.5t141 -375.5q0 -147 -59 -270.5t-163 -207.5t-247 -133t-310 -53l-78 -390h-201zM319 545q0 -156 93 -254.5t270 -126.5l174 871
q-245 -15 -391 -145t-146 -345zM881 156q245 15 391 145t146 345q0 156 -92.5 254.5t-270.5 126.5z" />
    <glyph glyph-name="uni0400" unicode="&#x400;" horiz-adv-x="1418" 
d="M93 0l328 1638h1074l-37 -184h-859l-104 -517h765l-36 -179h-765l-114 -573h859l-37 -185h-1074zM611 2119h246l237 -368h-183z" />
    <glyph glyph-name="uni0401" unicode="&#x401;" horiz-adv-x="1418" 
d="M93 0l328 1638h1074l-37 -184h-859l-104 -517h765l-36 -179h-765l-114 -573h859l-37 -185h-1074zM601 1922q0 62 41 103t103 41t103 -41t41 -103t-41 -104t-103 -42t-103 42t-41 104zM1098 1922q0 62 41 103t103 41t103 -41t41 -103t-41 -104t-103 -42t-103 42t-41 104z
" />
    <glyph glyph-name="uni0402" unicode="&#x402;" horiz-adv-x="1811" 
d="M1124 -20q-124 0 -230 29l39 190q105 -35 211 -35q91 0 159 30t106 82t56 111.5t18 127.5q0 131 -97 212t-278 81q-201 0 -386 -51l-152 -757h-214l291 1454h-402l37 184h1316l-36 -184h-701l-102 -511q212 49 409 49q254 0 393 -129t139 -329q0 -119 -33.5 -217.5
t-101 -175t-180 -119t-261.5 -42.5z" />
    <glyph glyph-name="uni0403" unicode="&#x403;" horiz-adv-x="1229" 
d="M93 0l328 1638h964l-37 -185h-750l-290 -1453h-215zM804 1751l293 368h253l-357 -368h-189z" />
    <glyph glyph-name="uni0404" unicode="&#x404;" horiz-adv-x="1582" 
d="M850 -20q-174 0 -308.5 52.5t-220.5 147.5t-130 225.5t-44 290.5q0 118 23 232.5t68.5 223t118.5 200t166.5 160.5t219.5 108t271 39q423 0 608 -310l-169 -123q-126 249 -455 249q-127 0 -232.5 -44t-178 -120.5t-121 -170t-74.5 -203.5h847l-35 -179h-838
q-2 -22 -2 -65q0 -262 128.5 -395.5t367.5 -133.5q269 0 437 195l135 -145q-219 -234 -582 -234z" />
    <glyph glyph-name="uni0405" unicode="&#x405;" horiz-adv-x="1405" 
d="M677 -20q-214 0 -388 70t-278 196l153 156q184 -238 518 -238q189 0 282.5 73t93.5 202q0 51 -16.5 90.5t-42.5 66.5t-75.5 52t-96.5 42.5t-124 43.5h-1q-59 20 -97 34t-91 38t-86.5 47t-71 58t-59 74t-35.5 92t-14 114q0 214 155.5 341t443.5 127q109 0 202.5 -19
t161 -51.5t114 -67.5t79.5 -75l-137 -143q-147 172 -432 172q-191 0 -282 -74t-91 -193q0 -28 5.5 -52.5t13.5 -44t25 -38.5t31.5 -32.5t42 -28.5t47 -25t56 -23.5t60 -22t67.5 -23.5q65 -22 98.5 -34t91 -37t89 -47t72 -58t61.5 -76t36 -95t15 -120q0 -219 -153.5 -345
t-442.5 -126z" />
    <glyph glyph-name="uni0406" unicode="&#x406;" horiz-adv-x="639" 
d="M93 0l328 1638h214l-327 -1638h-215z" />
    <glyph glyph-name="uni0407" unicode="&#x407;" horiz-adv-x="639" 
d="M93 0l328 1638h214l-327 -1638h-215zM174 1922q0 62 41 103t103 41t103 -41t41 -103t-41 -104t-103 -42t-103 42t-41 104zM671 1922q0 62 41 103t103 41t103 -41t41 -103t-41 -104t-103 -42t-103 42t-41 104z" />
    <glyph glyph-name="uni0408" unicode="&#x408;" horiz-adv-x="950" 
d="M-4 209q106 -37 240 -37q124 0 184.5 56t89.5 201l243 1209h214l-250 -1248q-45 -226 -159.5 -318t-324.5 -92q-149 0 -277 30z" />
    <glyph glyph-name="uni0409" unicode="&#x409;" horiz-adv-x="2399" 
d="M45 -20q-94 0 -127 9l38 194q35 -11 90 -11q89 0 144 31.5t99 111.5t88 234l311 1089h959l-130 -648h222q147 0 256 -35.5t172.5 -99t94 -143t30.5 -175.5q0 -67 -14 -128.5t-45 -123.5t-85.5 -112.5t-128.5 -89.5t-181.5 -61t-238.5 -22h-495l291 1454h-554l-290 -1016
q-71 -248 -186.5 -353t-319.5 -105zM1355 183h253q107 0 190.5 20.5t134.5 53.5t84 79.5t45.5 93t12.5 99.5q0 127 -83 201.5t-268 74.5h-244z" />
    <glyph glyph-name="uni040A" unicode="&#x40a;" horiz-adv-x="2333" 
d="M1038 0l162 806h-731l-161 -806h-215l328 1638h214l-129 -648h730l130 648h215l-130 -648h222q147 0 256 -35.5t172.5 -99t94 -143t30.5 -175.5q0 -67 -14 -128.5t-45 -123.5t-85.5 -112.5t-128.5 -89.5t-181.5 -61t-238.5 -22h-495zM1289 183h253q107 0 190.5 20.5
t134.5 53.5t84 79t45.5 92.5t12.5 99.5q0 128 -83 203t-268 75h-244z" />
    <glyph glyph-name="uni040B" unicode="&#x40b;" horiz-adv-x="1829" 
d="M351 0l291 1454h-397l37 184h1316l-36 -184h-705l-102 -510q229 48 437 48q307 0 428 -137t73 -381l-95 -474h-215l95 473q34 169 -55 252t-303 83q-200 0 -402 -51l-152 -757h-215z" />
    <glyph glyph-name="uni040C" unicode="&#x40c;" horiz-adv-x="1413" 
d="M1008 0l-537 816l-163 -816h-215l328 1638h214l-146 -729l816 729h278l-889 -786l569 -852h-255zM823 1751l293 368h253l-357 -368h-189z" />
    <glyph glyph-name="uni040D" unicode="&#x40d;" horiz-adv-x="1747" 
d="M1416 0h-213l273 1365l-1114 -1365h-269l328 1638h213l-273 -1364l1114 1364h269zM723 2119h246l236 -368h-182z" />
    <glyph glyph-name="uni040E" unicode="&#x40e;" horiz-adv-x="1413" 
d="M245 -20q-99 0 -170 20l39 191q49 -23 131 -23q108 0 188 44t159 154l-358 1272h221l278 -1047l639 1047h235l-821 -1302q-59 -94 -120 -161.5t-112 -104.5t-109 -58t-101 -26.5t-99 -5.5zM648 2119h176q-39 -233 135 -233q176 0 228 233h175q-39 -175 -150 -276.5
t-282 -101.5t-242 101.5t-40 276.5z" />
    <glyph glyph-name="uni040F" unicode="&#x40f;" horiz-adv-x="1710" 
d="M635 1638l-290 -1453h856l290 1453h215l-328 -1638h-549l-72 -358h-185l72 358h-551l328 1638h214z" />
    <glyph glyph-name="uni0410" unicode="&#x410;" horiz-adv-x="1479" 
d="M-99 0l911 1638h272l256 -1638h-218l-66 475h-675l-255 -475h-225zM478 653h554l-113 820z" />
    <glyph glyph-name="uni0411" unicode="&#x411;" horiz-adv-x="1555" 
d="M93 0l328 1638h1123l-37 -185h-909l-94 -470h383q147 0 256 -35t172.5 -98t94 -142t30.5 -174q0 -80 -19.5 -153t-69.5 -144t-126.5 -122.5t-199 -83t-278.5 -31.5h-654zM345 183h411q107 0 190.5 20.5t135 53t84.5 78.5t45.5 92t12.5 98q0 126 -83.5 200t-268.5 74h-405
z" />
    <glyph glyph-name="uni0412" unicode="&#x412;" horiz-adv-x="1547" 
d="M93 0l328 1638h643q229 0 343 -104t114 -274q0 -63 -16.5 -122t-53.5 -117.5t-107 -101.5t-165 -60q122 -44 181.5 -137t59.5 -222q0 -40 -5 -79t-22 -90.5t-45 -95.5t-78.5 -88.5t-117 -76t-166.5 -51t-221 -19.5h-672zM344 182h420q102 0 180 19t126.5 49.5t79 75
t42 90t11.5 99.5q0 58 -15.5 101.5t-51.5 79t-102 54.5t-161 19h-412zM497 946h428q97 0 169 21t111 51t63 72t30.5 75.5t6.5 70.5q0 220 -295 220h-411z" />
    <glyph glyph-name="uni0413" unicode="&#x413;" horiz-adv-x="1229" 
d="M93 0l328 1638h964l-37 -185h-750l-290 -1453h-215z" />
    <glyph glyph-name="uni0414" unicode="&#x414;" horiz-adv-x="1753" 
d="M-27 185q83 0 139 16t102.5 59.5t80.5 115t67 187.5l307 1075h1013l-291 -1453h224l-109 -543h-161l40 358h-1255l-103 -358h-162zM369 185h808l254 1269h-609l-257 -900q-70 -246 -196 -369z" />
    <glyph glyph-name="uni0415" unicode="&#x415;" horiz-adv-x="1418" 
d="M93 0l328 1638h1074l-37 -184h-859l-104 -517h765l-36 -179h-765l-114 -573h859l-37 -185h-1074z" />
    <glyph glyph-name="uni0416" unicode="&#x416;" horiz-adv-x="2008" 
d="M1611 0l-461 791l-158 -791h-215l159 796l-758 -796h-266l846 874l-504 764h246l459 -727l146 727h215l-145 -728l732 728h269l-819 -805l501 -833h-247z" />
    <glyph glyph-name="uni0417" unicode="&#x417;" horiz-adv-x="1420" 
d="M663 -20q-214 0 -370.5 56.5t-248.5 144.5l136 157q78 -85 202.5 -129.5t282.5 -44.5q206 0 306.5 82t100.5 231q0 63 -20 112.5t-66 90.5t-131 63.5t-205 22.5h-231l36 180h230q231 0 344.5 65t113.5 212q0 252 -324 252q-143 0 -256.5 -43.5t-184.5 -110.5l-121 152
q215 186 566 186q142 0 248.5 -34.5t167 -95t89.5 -134.5t29 -161q0 -149 -90.5 -251t-246.5 -132q122 -45 195 -142.5t73 -245.5q0 -225 -160.5 -354t-464.5 -129z" />
    <glyph glyph-name="uni0418" unicode="&#x418;" horiz-adv-x="1747" 
d="M1416 0h-213l273 1365l-1114 -1365h-269l328 1638h213l-273 -1364l1114 1364h269z" />
    <glyph glyph-name="uni0419" unicode="&#x419;" horiz-adv-x="1747" 
d="M1416 0h-213l273 1365l-1114 -1365h-269l328 1638h213l-273 -1364l1114 1364h269zM821 2119h176q-39 -233 135 -233q176 0 228 233h175q-39 -175 -150 -276.5t-282 -101.5t-242 101.5t-40 276.5z" />
    <glyph glyph-name="uni041A" unicode="&#x41a;" horiz-adv-x="1413" 
d="M1008 0l-537 816l-163 -816h-215l328 1638h214l-146 -729l816 729h278l-889 -786l569 -852h-255z" />
    <glyph glyph-name="uni041B" unicode="&#x41b;" horiz-adv-x="1757" 
d="M1211 0l291 1454h-661l-290 -1016q-71 -248 -186.5 -353t-319.5 -105q-94 0 -127 9l38 194q35 -11 90 -11q89 0 144 31.5t99 111.5t88 234l311 1089h1066l-328 -1638h-215z" />
    <glyph glyph-name="uni041C" unicode="&#x41c;" horiz-adv-x="2082" 
d="M93 0l328 1638h310l244 -1362l789 1362h315l-328 -1638h-204l278 1392l-774 -1322h-230l-245 1322l-279 -1392h-204z" />
    <glyph glyph-name="uni041D" unicode="&#x41d;" horiz-adv-x="1731" 
d="M1185 0l151 755h-877l-151 -755h-215l328 1638h214l-139 -698h877l139 698h215l-328 -1638h-214z" />
    <glyph glyph-name="uni041E" unicode="&#x41e;" horiz-adv-x="1745" 
d="M837 -20q-117 0 -220 26t-190.5 81.5t-150 136.5t-97.5 197t-35 258q0 96 15.5 192.5t49 193t82.5 183.5t119.5 162.5t155.5 130t196 86t236 31.5q147 0 271 -42.5t219.5 -126t149 -219.5t53.5 -312q0 -135 -30.5 -270t-98.5 -263.5t-165 -226.5t-242 -158t-318 -60z
M361 675q0 -253 129 -382t359 -129q94 0 177 27.5t145.5 74t113.5 110.5t85.5 136t58.5 150.5t34.5 153.5t10.5 147q0 253 -129 382t-359 129q-94 0 -177 -27.5t-145.5 -74t-113.5 -110.5t-85.5 -136t-58.5 -150.5t-34.5 -153.5t-10.5 -147z" />
    <glyph glyph-name="uni041F" unicode="&#x41f;" horiz-adv-x="1710" 
d="M1164 0l291 1454h-856l-291 -1454h-215l328 1638h1285l-328 -1638h-214z" />
    <glyph glyph-name="uni0420" unicode="&#x420;" horiz-adv-x="1531" 
d="M93 0l328 1638h587q147 0 256 -35.5t172.5 -98.5t94 -142.5t30.5 -175.5q0 -67 -14 -128.5t-45 -123.5t-85.5 -112.5t-128.5 -89.5t-181.5 -61t-238.5 -22h-431l-129 -649h-215zM474 831h403q107 0 190.5 20.5t135 54t84.5 80t45.5 93t12.5 99.5q0 127 -83.5 201.5
t-268.5 74.5h-394z" />
    <glyph glyph-name="uni0421" unicode="&#x421;" horiz-adv-x="1582" 
d="M850 -20q-174 0 -308.5 52.5t-220.5 147.5t-130 225.5t-44 290.5q0 118 23 232.5t68.5 223t118.5 200t166.5 160.5t219.5 108t271 39q423 0 608 -310l-169 -123q-126 249 -455 249q-131 0 -239 -47.5t-180 -125t-121.5 -180.5t-71.5 -211t-22 -218q0 -262 128.5 -395.5
t367.5 -133.5q269 0 437 195l135 -145q-219 -234 -582 -234z" />
    <glyph glyph-name="uni0422" unicode="&#x422;" horiz-adv-x="1489" 
d="M518 0l291 1454h-564l37 184h1343l-37 -184h-565l-290 -1454h-215z" />
    <glyph glyph-name="uni0423" unicode="&#x423;" horiz-adv-x="1413" 
d="M245 -20q-99 0 -170 20l39 191q49 -23 131 -23q108 0 188 44t159 154l-358 1272h221l278 -1047l639 1047h235l-821 -1302q-59 -94 -120 -161.5t-112 -104.5t-109 -58t-101 -26.5t-99 -5.5z" />
    <glyph glyph-name="uni0424" unicode="&#x424;" horiz-adv-x="1958" 
d="M753 0l42 207q-307 25 -471 170.5t-164 391.5q0 224 109.5 385t309 244.5t472.5 88.5l40 203h215l-41 -205q307 -25 470.5 -170.5t163.5 -391.5q0 -224 -109.5 -385t-308.5 -244.5t-472 -88.5l-41 -205h-215zM371 775q0 -178 112 -276.5t345 -123.5l189 942
q-294 -5 -470 -151t-176 -391zM1042 375q294 5 470.5 151.5t176.5 391.5q0 178 -112.5 276t-345.5 123z" />
    <glyph glyph-name="uni0425" unicode="&#x425;" horiz-adv-x="1491" 
d="M1132 0l-369 687l-621 -687h-241l776 846l-425 792h221l350 -654l593 654h240l-747 -814l443 -824h-220z" />
    <glyph glyph-name="uni0426" unicode="&#x426;" horiz-adv-x="1777" 
d="M636 1638l-291 -1453h856l291 1453h214l-290 -1453h223l-108 -543h-162l41 358h-1316l327 1638h215z" />
    <glyph glyph-name="uni0427" unicode="&#x427;" horiz-adv-x="1567" 
d="M727 621q-315 0 -433.5 143.5t-63.5 419.5l92 454h214l-95 -478q-39 -196 46.5 -275.5t303.5 -79.5q202 0 400 50l157 783h215l-328 -1638h-215l134 668q-227 -47 -427 -47z" />
    <glyph glyph-name="uni0428" unicode="&#x428;" horiz-adv-x="2257" 
d="M635 1638l-290 -1453h594l291 1453h214l-290 -1453h594l291 1453h214l-327 -1638h-1833l328 1638h214z" />
    <glyph glyph-name="uni0429" unicode="&#x429;" horiz-adv-x="2333" 
d="M635 1638l-290 -1453h594l291 1453h214l-290 -1453h594l291 1453h214l-291 -1453h224l-108 -543h-162l40 358h-1863l328 1638h214z" />
    <glyph glyph-name="uni042A" unicode="&#x42a;" horiz-adv-x="1811" 
d="M416 0l291 1454h-462l37 184h676l-129 -648h321q147 0 256 -35.5t172.5 -99t94 -143t30.5 -175.5q0 -81 -19.5 -154t-69 -144.5t-126 -123t-199 -83.5t-278.5 -32h-595zM667 183h352q107 0 190.5 20.5t135 53.5t84.5 79.5t45.5 93t12.5 99.5q0 127 -83.5 201.5
t-268.5 74.5h-343z" />
    <glyph glyph-name="uni042B" unicode="&#x42b;" horiz-adv-x="2033" 
d="M93 0l328 1638h214l-129 -648h321q147 0 256 -35.5t172.5 -99t94 -143t30.5 -175.5q0 -81 -19.5 -154t-69 -144.5t-126 -123t-199 -83.5t-278.5 -32h-595zM344 183h352q107 0 190.5 20.5t135 53.5t84.5 79.5t45.5 93t12.5 99.5q0 127 -83.5 201.5t-268.5 74.5h-343z
M1487 0l328 1638h214l-328 -1638h-214z" />
    <glyph glyph-name="uni042C" unicode="&#x42c;" horiz-adv-x="1531" 
d="M93 0l328 1638h214l-129 -648h365q147 0 256 -35.5t172.5 -99t94 -143t30.5 -175.5q0 -67 -14 -128.5t-45 -123.5t-85.5 -112.5t-128.5 -89.5t-181.5 -61t-238.5 -22h-638zM344 183h396q107 0 190.5 20.5t134.5 53.5t84 79.5t45.5 93t12.5 99.5q0 127 -83 201.5
t-268 74.5h-387z" />
    <glyph glyph-name="uni042D" unicode="&#x42d;" horiz-adv-x="1612" 
d="M696 -20q-210 0 -370 78t-248 201l142 134q88 -112 202.5 -170.5t287.5 -58.5q128 0 235.5 48.5t181.5 132.5t123 188t72 225h-853l36 179h836q1 0 1 13l-1 13q0 253 -127.5 382.5t-356.5 129.5q-273 0 -465 -202l-135 136q104 112 261 180.5t351 68.5q117 0 220 -26
t189.5 -81.5t148.5 -137t96.5 -197.5t34.5 -258q0 -136 -30.5 -270.5t-98.5 -263t-166 -226.5t-244.5 -158t-322.5 -60z" />
    <glyph glyph-name="uni042E" unicode="&#x42e;" horiz-adv-x="2300" 
d="M1421 -20q-141 0 -260 42t-210 125.5t-142.5 219.5t-51.5 312q0 39 3 76h-301l-151 -755h-215l328 1638h214l-139 -698h289q24 114 68 216t113 195t156 160.5t205.5 107t254.5 39.5q109 0 206 -26t181.5 -81.5t145.5 -137t96 -198t35 -257.5q0 -135 -30.5 -270
t-96.5 -263.5t-160.5 -226.5t-233.5 -158t-304 -60zM974 675q0 -252 121.5 -381.5t338.5 -129.5q88 0 166 27.5t137 74t108.5 110.5t83 136t56.5 150.5t33.5 154t10.5 146.5q0 250 -124.5 380.5t-334.5 130.5q-90 0 -169 -27.5t-138.5 -74t-108.5 -110.5t-82 -136
t-55.5 -150.5t-32.5 -153.5t-10 -147z" />
    <glyph glyph-name="uni042F" unicode="&#x42f;" horiz-adv-x="1597" 
d="M-12 0l555 692q-131 48 -209.5 156.5t-78.5 252.5q0 67 14 128.5t45 123.5t85.5 112.5t128.5 89.5t181.5 61t238.5 22h645l-327 -1638h-215l130 649h-431l-506 -649h-256zM472 1108q0 -127 83 -202t268 -75h395l124 623h-403q-107 0 -190.5 -20.5t-134.5 -53.5t-84 -79.5
t-45.5 -93t-12.5 -99.5z" />
    <glyph glyph-name="uni0430" unicode="&#x430;" horiz-adv-x="1341" 
d="M464 -20q-185 0 -290.5 86t-105.5 241q0 144 98.5 239.5t306.5 117.5l272 29q77 8 128 26t76 44.5t34 54t9 64.5q0 77 -58 115.5t-195 38.5q-135 0 -229 -37t-177 -114l-110 141q196 185 531 185q215 0 325.5 -79.5t110.5 -247.5q0 -65 -20 -163l-96 -481l-16 -240h-202
l11 171q-133 -191 -403 -191zM278 328q0 -85 60 -131t174 -46q160 0 267.5 93.5t143.5 273.5l24 119q-28 -40 -88 -62t-159 -33l-181 -20q-241 -26 -241 -194z" />
    <glyph glyph-name="uni0431" unicode="&#x431;" horiz-adv-x="1398" 
d="M662 -20q-249 0 -392.5 139t-143.5 397q0 191 75 439q127 417 355 573q90 63 234.5 109.5t286.5 72.5t348 52l-39 -202q-301 -42 -460 -81.5t-268 -114.5q-80 -55 -135.5 -137.5t-95.5 -208.5q139 173 389 173q229 0 350 -137.5t121 -374.5q0 -145 -41 -271t-117.5 -222
t-197 -151t-269.5 -55zM337 502q0 -74 17.5 -134.5t55 -109.5t103.5 -76t155 -27q84 0 153.5 32t116 84.5t79 121.5t47 141.5t14.5 145.5q0 153 -74.5 244t-226.5 91q-195 0 -317.5 -144.5t-122.5 -368.5z" />
    <glyph glyph-name="uni0432" unicode="&#x432;" horiz-adv-x="1283" 
d="M87 0l238 1191h492q179 0 265.5 -77t86.5 -200q0 -42 -11 -82t-36 -81.5t-73 -73.5t-114 -48q104 -29 153 -99t49 -164q0 -31 -5 -62t-19.5 -68.5t-37 -69.5t-61 -63.5t-89 -53.5t-123.5 -35.5t-161 -13.5h-554zM327 165h302q70 0 123.5 13t85.5 33t52.5 49t28 57.5
t7.5 61.5q0 162 -225 162h-299zM434 701h263q81 0 137 18.5t81 49.5t34.5 59t9.5 60q0 138 -204 138h-256z" />
    <glyph glyph-name="uni0433" unicode="&#x433;" horiz-adv-x="1043" 
d="M87 0l238 1191h809l-34 -173h-603l-203 -1018h-207z" />
    <glyph glyph-name="uni0434" unicode="&#x434;" horiz-adv-x="1507" 
d="M-120 -343l103 516q61 0 103 11.5t80 43.5t67.5 89t55.5 147l209 727h855l-203 -1018h205l-103 -516h-144l33 343h-1013l-104 -343h-144zM315 173h628l169 845h-467l-161 -556q-54 -189 -169 -289z" />
    <glyph glyph-name="uni0435" unicode="&#x435;" horiz-adv-x="1360" 
d="M655 -20q-140 0 -246.5 40t-171 112t-96.5 165.5t-32 206.5q0 105 23 204.5t73.5 191.5t124.5 160.5t183.5 109.5t241.5 41q130 0 230 -40t159 -109.5t88.5 -156t29.5 -187.5q0 -92 -26 -194h-921q-1 -10 -1 -30q0 -167 89.5 -256t260.5 -89q209 0 357 145l114 -136
q-99 -88 -213.5 -133t-266.5 -45zM338 681h722q2 15 2 44q0 63 -16.5 117.5t-51 101t-96.5 73.5t-146 27q-167 0 -271 -96t-143 -267z" />
    <glyph glyph-name="uni0436" unicode="&#x436;" horiz-adv-x="1708" 
d="M-104 0l665 644l-425 547h241l393 -520l104 520h207l-105 -522l563 522h271l-638 -571l400 -620h-242l-369 588l-118 -588h-207l117 585l-603 -585h-254z" />
    <glyph glyph-name="uni0437" unicode="&#x437;" horiz-adv-x="1135" 
d="M499 -20q-160 0 -291 48t-198 134l138 136q115 -144 354 -144q272 0 272 201q0 84 -65.5 130t-200.5 46h-141l32 165h140q73 0 128.5 12t87.5 30t51.5 43.5t26 48.5t6.5 49q0 74 -55 116t-168 42q-191 0 -324 -115l-115 140q186 149 456 149q209 0 312 -87t103 -219
q0 -116 -75.5 -190.5t-187.5 -99.5q92 -31 145.5 -101t53.5 -175q0 -166 -126 -262.5t-359 -96.5z" />
    <glyph glyph-name="uni0438" unicode="&#x438;" horiz-adv-x="1459" 
d="M87 0l238 1191h207l-186 -933l764 933h263l-238 -1191h-207l186 934l-764 -934h-263z" />
    <glyph glyph-name="uni0439" unicode="&#x439;" horiz-adv-x="1459" 
d="M87 0l238 1191h207l-186 -933l764 933h263l-238 -1191h-207l186 934l-764 -934h-263zM603 1746h171q-40 -233 148 -233q164 0 215 233h181q-34 -178 -135.5 -278t-270.5 -100q-181 0 -260.5 102t-48.5 276z" />
    <glyph glyph-name="uni043A" unicode="&#x43a;" horiz-adv-x="1216" 
d="M840 0l-427 598l-119 -598h-207l238 1191h207l-103 -515l617 515h271l-689 -561l454 -630h-242z" />
    <glyph glyph-name="uni043B" unicode="&#x43b;" horiz-adv-x="1456" 
d="M37 -21q-78 0 -126 21l35 173q38 -18 92 -18q74 0 123.5 46.5t78.5 146.5l245 843h884l-239 -1191h-206l203 1018h-496l-186 -645q-63 -219 -159 -306.5t-249 -87.5z" />
    <glyph glyph-name="uni043C" unicode="&#x43c;" horiz-adv-x="1797" 
d="M87 0l238 1191h304l197 -928l569 928h316l-239 -1191h-206l195 973l-558 -898h-217l-199 900l-195 -975h-205z" />
    <glyph glyph-name="uni043D" unicode="&#x43d;" horiz-adv-x="1436" 
d="M905 0l105 525h-611l-105 -525h-207l238 1191h207l-99 -493h611l99 493h207l-238 -1191h-207z" />
    <glyph glyph-name="uni043E" unicode="&#x43e;" horiz-adv-x="1383" 
d="M642 -20q-113 0 -208.5 31.5t-169 93.5t-115 163.5t-41.5 233.5q0 101 23 200t73.5 191.5t123 162.5t179.5 112.5t235 42.5q113 0 208.5 -31.5t169 -93.5t115 -163.5t41.5 -233.5q0 -101 -23 -200t-73.5 -191.5t-123 -162.5t-179.5 -112.5t-235 -42.5zM317 501
q0 -170 87.5 -258t245.5 -88q88 0 160 35t118.5 90.5t78 127.5t45 142.5t13.5 139.5q0 170 -87 258t-245 88q-88 0 -160 -35t-118.5 -90.5t-78.5 -127.5t-45.5 -142.5t-13.5 -139.5z" />
    <glyph glyph-name="uni043F" unicode="&#x43f;" horiz-adv-x="1437" 
d="M905 0l203 1018h-611l-203 -1018h-207l238 1191h1025l-238 -1191h-207z" />
    <glyph glyph-name="uni0440" unicode="&#x440;" horiz-adv-x="1476" 
d="M11 -410l272 1361l15 240h203l-12 -164q61 83 165 133.5t237 50.5q226 0 351.5 -141.5t125.5 -379.5q0 -139 -40.5 -265.5t-116.5 -226t-195.5 -159t-265.5 -59.5q-150 0 -256.5 61.5t-150.5 175.5l-125 -627h-207zM409 501q0 -171 87 -258.5t246 -87.5q88 0 160.5 35
t118.5 90.5t78 127.5t45.5 142.5t13.5 139.5q0 171 -87 258.5t-246 87.5q-88 0 -160 -35t-118.5 -90.5t-78.5 -127.5t-45.5 -142.5t-13.5 -139.5z" />
    <glyph glyph-name="uni0441" unicode="&#x441;" horiz-adv-x="1221" 
d="M635 -20q-251 0 -388 142t-137 390q0 101 22.5 198t72.5 188.5t123 160.5t181 110.5t239 41.5q309 0 444 -217l-159 -115q-82 157 -296 157q-83 0 -153 -30.5t-118 -81.5t-82 -119t-49.5 -142t-15.5 -151q0 -177 84.5 -267t245.5 -90q175 0 291 130l130 -134
q-162 -171 -435 -171z" />
    <glyph glyph-name="uni0442" unicode="&#x442;" horiz-adv-x="1070" 
d="M313 0l204 1018h-390l35 173h986l-35 -173h-390l-203 -1018h-207z" />
    <glyph glyph-name="uni0443" unicode="&#x443;" horiz-adv-x="1219" 
d="M113 -410l284 458l-262 1143h213l197 -944l562 944h216l-994 -1601h-216z" />
    <glyph glyph-name="uni0444" unicode="&#x444;" horiz-adv-x="1819" 
d="M605 -410l79 395q-265 27 -418.5 172t-153.5 377q0 308 218 491t599 186l86 427h207l-87 -432q264 -27 418 -172t154 -377q0 -308 -218.5 -491.5t-598.5 -186.5l-78 -389h-207zM322 542q0 -99 34 -174t92.5 -118t125 -65.5t144.5 -28.5l176 880q-145 -1 -257.5 -42.5
t-179.5 -111.5t-101 -156t-34 -184zM925 155q117 1 213 29t161.5 74t111 109t66 133.5t20.5 148.5q0 80 -23 144.5t-60.5 106.5t-90 71.5t-107 44t-115.5 18.5z" />
    <glyph glyph-name="uni0445" unicode="&#x445;" horiz-adv-x="1256" 
d="M867 0l-267 463l-441 -463h-239l594 612l-334 579h230l252 -435l414 435h239l-567 -585l350 -606h-231z" />
    <glyph glyph-name="uni0446" unicode="&#x446;" horiz-adv-x="1503" 
d="M532 1191l-203 -1018h611l203 1018h207l-203 -1018h204l-103 -516h-143l33 343h-1051l238 1191h207z" />
    <glyph glyph-name="uni0447" unicode="&#x447;" horiz-adv-x="1313" 
d="M553 403q-500 0 -408 463l65 325h207l-68 -342q-15 -61 -10.5 -112t28.5 -87t85.5 -55.5t160.5 -19.5q146 0 288 26l118 590h207l-238 -1191h-207l86 430q-165 -27 -314 -27z" />
    <glyph glyph-name="uni0448" unicode="&#x448;" horiz-adv-x="2041" 
d="M1005 0l35 173h504l203 1018h207l-238 -1191h-711zM87 0l238 1191h207l-238 -1191h-207zM294 0l35 173h504l203 1018h207l-238 -1191h-711z" />
    <glyph glyph-name="uni0449" unicode="&#x449;" horiz-adv-x="2124" 
d="M1005 0l35 173h504l203 1018h207l-203 -1018h204l-103 -516h-142l32 343h-737zM87 0l238 1191h207l-238 -1191h-207zM294 0l35 173h504l203 1018h207l-238 -1191h-711z" />
    <glyph glyph-name="uni044A" unicode="&#x44a;" horiz-adv-x="1454" 
d="M300 0l204 1018h-377l35 173h583l-89 -446h258q116 0 202 -29t133 -79.5t69 -109.5t22 -129q0 -58 -13.5 -111t-48.5 -106.5t-88.5 -92.5t-140.5 -63.5t-197 -24.5h-552zM541 170h292q153 0 225 61.5t72 162.5q0 181 -228 181h-280z" />
    <glyph glyph-name="uni044B" unicode="&#x44b;" horiz-adv-x="1793" 
d="M87 0l238 1191h207l-89 -446h258q116 0 202 -29t133 -79.5t69 -109.5t22 -129q0 -58 -13.5 -111t-48.5 -106.5t-88.5 -92.5t-140.5 -63.5t-197 -24.5h-552zM328 170h292q153 0 225 61.5t72 162.5q0 181 -228 181h-280zM1261 0l238 1191h206l-238 -1191h-206z" />
    <glyph glyph-name="uni044C" unicode="&#x44c;" horiz-adv-x="1255" 
d="M87 0l238 1191h207l-89 -446h273q116 0 202 -29t133 -79.5t69 -109.5t22 -129q0 -58 -13.5 -111t-48.5 -106.5t-88.5 -92.5t-140.5 -63.5t-197 -24.5h-567zM328 170h306q153 0 225.5 61.5t72.5 162.5q0 181 -228 181h-295z" />
    <glyph glyph-name="uni044D" unicode="&#x44d;" horiz-adv-x="1217" 
d="M483 -20q-150 0 -273 54t-196 162l164 115q44 -77 123.5 -116.5t180.5 -39.5q165 0 266.5 102t133.5 269h-548l32 158h529q-3 352 -309 352q-181 0 -298 -120l-122 135q68 71 175.5 115.5t249.5 44.5q242 0 378.5 -135.5t136.5 -400.5q0 -112 -24.5 -214.5t-75 -190
t-123 -152t-175.5 -101.5t-225 -37z" />
    <glyph glyph-name="uni044E" unicode="&#x44e;" horiz-adv-x="1841" 
d="M1127 -20q-110 0 -201.5 31.5t-161.5 93.5t-109.5 163t-39.5 231q0 17 1 26h-217l-105 -525h-207l238 1191h207l-99 -493h205q24 103 71 192.5t117.5 163t172.5 115.5t224 42q110 0 201.5 -31.5t161.5 -93.5t109 -163t39 -231q0 -100 -22 -199t-71 -192t-118 -164
t-171.5 -114t-224.5 -43zM825 497q0 -169 80 -255.5t233 -86.5q82 0 149.5 36t110.5 92.5t72.5 129t42 143t12.5 138.5q0 169 -80 255.5t-233 86.5q-82 0 -149.5 -36t-110.5 -92.5t-72.5 -129t-42 -143t-12.5 -138.5z" />
    <glyph glyph-name="uni044F" unicode="&#x44f;" horiz-adv-x="1277" 
d="M-11 0l405 485q-92 37 -149 113t-57 196q0 57 13.5 110t49.5 106.5t91.5 92.5t145.5 63.5t205 24.5h497l-238 -1191h-207l89 445h-248l-365 -445h-232zM399 797q0 -182 232 -182h237l81 405h-257q-150 0 -221.5 -61t-71.5 -162z" />
    <glyph glyph-name="uni0450" unicode="&#x450;" horiz-adv-x="1360" 
d="M655 -20q-140 0 -246.5 40t-171 112t-96.5 165.5t-32 206.5q0 105 23 204.5t73.5 191.5t124.5 160.5t183.5 109.5t241.5 41q130 0 230 -40t159 -109.5t88.5 -156t29.5 -187.5q0 -92 -26 -194h-921q-1 -10 -1 -30q0 -167 89.5 -256t260.5 -89q209 0 357 145l114 -136
q-99 -88 -213.5 -133t-266.5 -45zM338 681h722q2 15 2 44q0 63 -16.5 117.5t-51 101t-96.5 73.5t-146 27q-167 0 -271 -96t-143 -267zM404 1746h246l236 -368h-181z" />
    <glyph glyph-name="uni0451" unicode="&#x451;" horiz-adv-x="1360" 
d="M655 -20q-140 0 -246.5 40t-171 112t-96.5 165.5t-32 206.5q0 105 23 204.5t73.5 191.5t124.5 160.5t183.5 109.5t241.5 41q130 0 230 -40t159 -109.5t88.5 -156t29.5 -187.5q0 -92 -26 -194h-921q-1 -10 -1 -30q0 -167 89.5 -256t260.5 -89q209 0 357 145l114 -136
q-99 -88 -213.5 -133t-266.5 -45zM338 681h722q2 15 2 44q0 63 -16.5 117.5t-51 101t-96.5 73.5t-146 27q-167 0 -271 -96t-143 -267zM424 1549q0 62 41 103.5t103 41.5t103 -41.5t41 -103.5t-41 -104t-103 -42t-103 42t-41 104zM961 1549q0 62 41 103.5t103 41.5t103 -41.5
t41 -103.5t-41 -104t-103 -42t-103 42t-41 104z" />
    <glyph glyph-name="uni0452" unicode="&#x452;" horiz-adv-x="1426" 
d="M725 -430q-96 0 -204 27l37 181q79 -31 152 -31q80 0 120 40t58 133l147 731q22 112 22 178q0 97 -56.5 151t-177.5 54q-161 0 -261 -97t-133 -263l-136 -674h-206l269 1349h-138l33 165h138l42 209h207l-42 -209h445l-32 -165h-446l-60 -302q66 77 166.5 120.5
t220.5 43.5q174 0 276.5 -91t102.5 -258q0 -76 -27 -209l-152 -761q-34 -167 -119 -244.5t-246 -77.5z" />
    <glyph glyph-name="uni0453" unicode="&#x453;" horiz-adv-x="1043" 
d="M87 0l238 1191h809l-34 -173h-603l-203 -1018h-207zM629 1378l293 368h253l-357 -368h-189z" />
    <glyph glyph-name="uni0454" unicode="&#x454;" horiz-adv-x="1221" 
d="M635 -20q-251 0 -388 142t-137 390q0 101 22.5 198t72.5 188.5t123 160.5t181 110.5t239 41.5q309 0 444 -217l-159 -115q-82 157 -296 157q-157 0 -258.5 -100t-139.5 -255h548l-31 -157h-537v-12q0 -177 84.5 -267t245.5 -90q175 0 291 130l130 -134
q-162 -171 -435 -171z" />
    <glyph glyph-name="uni0455" unicode="&#x455;" horiz-adv-x="1135" 
d="M521 -20q-170 0 -305 49t-218 136l137 148q66 -76 165 -117.5t220 -41.5q131 0 194 44.5t63 122.5q0 32 -12 57.5t-28 42t-53 34.5t-65.5 28.5t-87.5 30.5q-57 19 -92.5 32.5t-81.5 36t-74 46.5t-54.5 57t-38.5 76.5t-12 96.5q0 153 118 252.5t348 99.5q290 0 436 -150
l-127 -137q-113 113 -313 113q-134 0 -196 -46.5t-62 -119.5q0 -31 12 -56t28.5 -41.5t53.5 -34.5t66 -29t86 -30q42 -14 67 -23t63 -24.5t61 -29.5t52 -34t46.5 -42.5t33.5 -50.5t23.5 -63t7.5 -75q0 -167 -118 -262.5t-343 -95.5z" />
    <glyph glyph-name="uni0456" unicode="&#x456;" horiz-adv-x="619" 
d="M87 0l238 1191h207l-238 -1191h-207zM339 1578q0 69 43.5 113.5t113.5 44.5q66 0 108.5 -39.5t42.5 -105.5q0 -69 -43.5 -113.5t-113.5 -44.5q-66 0 -108.5 39.5t-42.5 105.5z" />
    <glyph glyph-name="uni0457" unicode="&#x457;" horiz-adv-x="619" 
d="M87 0l238 1191h207l-238 -1191h-207zM141 1549q0 62 41 103.5t103 41.5t103 -41.5t41 -103.5t-41 -104t-103 -42t-103 42t-41 104zM528 1549q0 62 41 103.5t103 41.5t103 -41.5t41 -103.5t-41 -104t-103 -42t-103 42t-41 104z" />
    <glyph glyph-name="uni0458" unicode="&#x458;" horiz-adv-x="619" 
d="M-95 -430q-117 0 -216 27l36 179q86 -28 170 -28q80 0 118 35.5t59 140.5l253 1267h207l-258 -1290q-37 -184 -122.5 -257.5t-246.5 -73.5zM339 1578q0 69 43.5 113.5t113.5 44.5q66 0 108.5 -39.5t42.5 -105.5q0 -69 -43.5 -113.5t-113.5 -44.5q-66 0 -108.5 39.5
t-42.5 105.5z" />
    <glyph glyph-name="uni0459" unicode="&#x459;" horiz-adv-x="1984" 
d="M37 -21q-78 0 -126 21l35 173q38 -18 92 -18q74 0 123.5 46.5t78.5 146.5l245 843h800l-89 -446h248q116 0 202 -29t133 -79.5t69 -109.5t22 -129q0 -58 -13.5 -111t-48 -106.5t-88 -92.5t-140.5 -63.5t-198 -24.5h-542l203 1018h-412l-186 -645q-63 -219 -159 -306.5
t-249 -87.5zM1081 170h282q153 0 225 61.5t72 162.5q0 181 -227 181h-271z" />
    <glyph glyph-name="uni045A" unicode="&#x45a;" horiz-adv-x="1957" 
d="M87 0l238 1191h207l-89 -446h573l89 446h207l-89 -446h193q117 0 203 -29t133.5 -79.5t69.5 -109.5t22 -129q0 -58 -13.5 -111t-48.5 -106.5t-89 -92.5t-140.5 -63.5t-197.5 -24.5h-487l114 572h-574l-115 -572h-206zM1108 170h228q153 0 225 61t72 161q0 180 -227 180
h-217z" />
    <glyph glyph-name="uni045B" unicode="&#x45b;" horiz-adv-x="1426" 
d="M87 0l269 1349h-138l33 165h138l42 209h207l-42 -209h445l-32 -165h-446l-60 -301q65 77 165.5 120t221.5 43q174 0 276.5 -91t102.5 -258q0 -76 -27 -209l-130 -653h-207l130 651q22 112 22 178q0 97 -56.5 151t-177.5 54q-161 0 -261 -97t-133 -263l-136 -674h-206z
" />
    <glyph glyph-name="uni045C" unicode="&#x45c;" horiz-adv-x="1216" 
d="M840 0l-427 598l-119 -598h-207l238 1191h207l-103 -515l617 515h271l-689 -561l454 -630h-242zM644 1378l292 368h254l-357 -368h-189z" />
    <glyph glyph-name="uni045D" unicode="&#x45d;" horiz-adv-x="1459" 
d="M87 0l238 1191h207l-186 -933l764 933h263l-238 -1191h-207l186 934l-764 -934h-263zM448 1746h246l236 -368h-181z" />
    <glyph glyph-name="uni045E" unicode="&#x45e;" horiz-adv-x="1219" 
d="M113 -410l284 458l-262 1143h213l197 -944l562 944h216l-994 -1601h-216zM488 1746h170q-40 -233 148 -233q165 0 216 233h181q-34 -178 -135.5 -278t-270.5 -100q-181 0 -260.5 102t-48.5 276z" />
    <glyph glyph-name="uni045F" unicode="&#x45f;" horiz-adv-x="1437" 
d="M532 1191l-203 -1018h611l203 1018h207l-238 -1191h-426l-68 -336h-172l68 336h-427l238 1191h207z" />
    <glyph glyph-name="uni0490" unicode="&#x490;" horiz-adv-x="1229" 
d="M598 1453l-290 -1453h-215l328 1638h775l82 307h168l-98 -492h-750z" />
    <glyph glyph-name="uni0491" unicode="&#x491;" horiz-adv-x="1043" 
d="M497 1018l-203 -1018h-207l238 1191h629l105 342h144l-102 -507l-1 -8h-603z" />
    <glyph glyph-name="uni0492" unicode="&#x492;" horiz-adv-x="1229" 
d="M93 0l148 740h-170l32 162h170l148 736h964l-37 -185h-750l-110 -551h405l-32 -162h-405l-148 -740h-215z" />
    <glyph glyph-name="uni0493" unicode="&#x493;" horiz-adv-x="1043" 
d="M87 0l108 537h-166l27 137h166l103 517h809l-34 -173h-603l-68 -344h465l-27 -137h-466l-107 -537h-207z" />
    <glyph glyph-name="uni0496" unicode="&#x496;" horiz-adv-x="2059" 
d="M1611 0l-461 791l-158 -791h-215l159 796l-758 -796h-266l846 874l-504 764h246l459 -727l146 727h215l-145 -728l732 728h269l-819 -805l390 -648h232l-108 -543h-162l41 358h-139z" />
    <glyph glyph-name="uni0497" unicode="&#x497;" horiz-adv-x="1749" 
d="M-104 0l665 644l-425 547h241l393 -520l104 520h207l-105 -522l563 522h271l-638 -571l289 -447h218l-103 -516h-143l32 343h-141l1 8l-364 580l-118 -588h-207l117 585l-603 -585h-254z" />
    <glyph glyph-name="uni049A" unicode="&#x49a;" horiz-adv-x="1464" 
d="M1008 0l-537 816l-163 -816h-215l328 1638h214l-146 -729l816 729h278l-889 -786l446 -667h237l-109 -543h-162l41 358h-139z" />
    <glyph glyph-name="uni049B" unicode="&#x49b;" horiz-adv-x="1256" 
d="M839 0v1l-426 597l-119 -598h-207l238 1191h207l-103 -515l617 515h271l-689 -561l329 -457h237l-102 -516h-143l32 343h-142z" />
    <glyph glyph-name="uni049C" unicode="&#x49c;" horiz-adv-x="1424" 
d="M1019 0l-371 755h-25l-50 -252h-102l50 252h-62l-151 -755h-215l328 1638h214l-139 -697h62l50 252h103l-51 -252h18l647 697h258l-752 -794l432 -844h-244z" />
    <glyph glyph-name="uni049D" unicode="&#x49d;" horiz-adv-x="1215" 
d="M851 0l-264 525h-40l-43 -213h-87l43 213h-61l-105 -525h-207l238 1191h207l-99 -493h62l42 212h87l-42 -212h35l463 493h240l-559 -585l317 -606h-227z" />
    <glyph glyph-name="uni04A2" unicode="&#x4a2;" horiz-adv-x="1806" 
d="M1185 0l151 755h-877l-151 -755h-215l328 1638h214l-139 -698h877l139 698h215l-291 -1453h196l-108 -543h-162l40 358h-217z" />
    <glyph glyph-name="uni04A3" unicode="&#x4a3;" horiz-adv-x="1503" 
d="M905 0l105 525h-611l-105 -525h-207l238 1191h207l-99 -493h611l99 493h207l-204 -1018h205l-103 -516h-143l32 343h-232z" />
    <glyph glyph-name="uni04AE" unicode="&#x4ae;" horiz-adv-x="1443" 
d="M495 0l119 593l-385 1045h217l306 -861l651 861h229l-804 -1045l-118 -593h-215z" />
    <glyph glyph-name="uni04AF" unicode="&#x4af;" horiz-adv-x="1267" 
d="M329 -410l79 393l-249 1208h214l173 -1018l585 1018h216l-733 -1209l-78 -392h-207z" />
    <glyph glyph-name="uni04B2" unicode="&#x4b2;" horiz-adv-x="1535" 
d="M1132 0l-369 687l-621 -687h-241l776 846l-425 792h221l350 -654l593 654h240l-747 -814l343 -639h248l-109 -543h-162l41 358h-138z" />
    <glyph glyph-name="uni04B3" unicode="&#x4b3;" horiz-adv-x="1297" 
d="M866 0v2l-266 461l-441 -463h-239l594 612l-334 579h230l252 -435l414 435h239l-567 -585l250 -433h223l-103 -516h-143l33 343h-142z" />
    <glyph glyph-name="uni04B8" unicode="&#x4b8;" horiz-adv-x="1571" 
d="M646 400l44 221q-293 9 -403 152t-57 411l92 454h214l-95 -478q-37 -181 33.5 -262.5t252.5 -91.5l56 284h103l-57 -285q171 5 362 50l157 783h215l-328 -1638h-215l134 668q-195 -39 -362 -46l-44 -222h-102z" />
    <glyph glyph-name="uni04B9" unicode="&#x4b9;" horiz-adv-x="1313" 
d="M479 193l42 210q-465 15 -376 463l65 325h207l-68 -342q-13 -57 -10.5 -104.5t21 -82.5t67.5 -57t129 -27l41 203h82l-41 -205q146 4 263 25l118 590h207l-238 -1191h-207l86 430q-130 -21 -264 -26l-42 -211h-82z" />
    <glyph glyph-name="uni04BA" unicode="&#x4ba;" horiz-adv-x="1567" 
d="M1224 520q34 169 -54.5 252t-302.5 83q-198 0 -398 -50l-161 -805h-215l328 1638h214l-129 -646q230 47 432 47q307 0 428.5 -137.5t72.5 -380.5l-104 -521h-215z" />
    <glyph glyph-name="uni04BB" unicode="&#x4bb;" horiz-adv-x="1426" 
d="M87 0l344 1723h207l-135 -675q65 77 165.5 120t221.5 43q174 0 276.5 -91t102.5 -258q0 -76 -27 -209l-130 -653h-207l130 651q22 112 22 178q0 97 -56.5 151t-177.5 54q-161 0 -261 -97t-133 -263l-136 -674h-206z" />
    <glyph glyph-name="uni04C0" unicode="&#x4c0;" horiz-adv-x="639" 
d="M93 0l328 1638h214l-327 -1638h-215z" />
    <glyph glyph-name="uni04CF" unicode="&#x4cf;" horiz-adv-x="619" 
d="M87 0l344 1723h207l-345 -1723h-206z" />
    <glyph glyph-name="uni04D8" unicode="&#x4d8;" horiz-adv-x="1695" 
d="M788 -20q-138 0 -249.5 37t-186 99.5t-124.5 149t-72 181t-22 198.5q0 135 33 258h1252q2 22 2 65q0 247 -126.5 377t-363.5 130q-151 0 -272.5 -50.5t-229.5 -158.5l-117 154q132 119 280.5 179t344.5 60q125 0 230 -26.5t180.5 -74.5t132.5 -112.5t91 -144t50.5 -165
t16.5 -179.5q0 -152 -33.5 -293.5t-103 -266t-168.5 -217.5t-239 -146.5t-306 -53.5zM349 643q0 -75 14 -143t47 -130t83 -107t126.5 -72t172.5 -27q242 0 392.5 147.5t208.5 410.5h-1039q-5 -45 -5 -79z" />
    <glyph glyph-name="uni04D9" unicode="&#x4d9;" horiz-adv-x="1360" 
d="M706 1211q140 0 246.5 -40t171 -112t96.5 -165.5t32 -206.5q0 -105 -23 -204.5t-73.5 -191.5t-124.5 -160.5t-183.5 -109.5t-241.5 -41q-130 0 -230 40t-159 109.5t-88.5 156t-29.5 187.5q0 99 26 194h921q1 10 1 30q0 167 -89.5 256t-260.5 89q-210 0 -358 -145
l-113 136q99 88 213.5 133t266.5 45zM299 466q0 -63 16.5 -117.5t51 -101t96.5 -73.5t146 -27q167 0 271 96t143 267h-722q-2 -15 -2 -44z" />
    <glyph glyph-name="uni04E8" unicode="&#x4e8;" horiz-adv-x="1745" 
d="M837 -20q-117 0 -220 26t-190.5 81.5t-150 136.5t-97.5 197t-35 258q0 96 15.5 192.5t49 193t82.5 183.5t119.5 162.5t155.5 130t196 86t236 31.5q147 0 271 -42.5t219.5 -126t149 -219.5t53.5 -312q0 -135 -30.5 -270t-98.5 -263.5t-165 -226.5t-242 -158t-318 -60z
M361 675q0 -253 129 -382t359 -129q105 0 196 34.5t157 91t117.5 134.5t83.5 160.5t50 173.5h-1088q-4 -39 -4 -83zM395 937h1079q1 0 0 13v13q0 253 -129 382t-359 129q-98 0 -184.5 -30t-150 -80.5t-115.5 -121t-85.5 -146t-55.5 -159.5z" />
    <glyph glyph-name="uni04E9" unicode="&#x4e9;" horiz-adv-x="1383" 
d="M642 -20q-113 0 -208.5 31.5t-169 93.5t-115 163.5t-41.5 233.5q0 101 23 200t73.5 191.5t123 162.5t179.5 112.5t235 42.5q113 0 208.5 -31.5t169 -93.5t115 -163.5t41.5 -233.5q0 -101 -23 -200t-73.5 -191.5t-123 -162.5t-179.5 -112.5t-235 -42.5zM317 501
q0 -170 87.5 -258t245.5 -88q84 0 154 31.5t117 86t78 118t48 136.5h-729q-1 -9 -1 -26zM342 684h723v6q0 170 -87 258t-245 88q-81 0 -149 -29t-114.5 -80.5t-77.5 -111.5t-50 -131z" />
    <glyph glyph-name="Wgrave" unicode="&#x1e80;" horiz-adv-x="2283" 
d="M1350 0l-74 1087l-582 -1087h-253l-212 1638h214l158 -1427l645 1209l-15 218h213l81 -1410l720 1410h226l-868 -1638h-253zM985 2119h245l237 -368h-182z" />
    <glyph glyph-name="wgrave" unicode="&#x1e81;" horiz-adv-x="1950" 
d="M1117 0l-114 734l-407 -734h-248l-177 1191h212l129 -1029l448 836l-26 193h207l125 -1024l537 1024h215l-652 -1191h-249zM693 1746h247l236 -368h-182z" />
    <glyph glyph-name="Wacute" unicode="&#x1e82;" horiz-adv-x="2283" 
d="M1350 0l-74 1087l-582 -1087h-253l-212 1638h214l158 -1427l645 1209l-15 218h213l81 -1410l720 1410h226l-868 -1638h-253zM1246 1751l293 368h254l-357 -368h-190z" />
    <glyph glyph-name="wacute" unicode="&#x1e83;" horiz-adv-x="1950" 
d="M1117 0l-114 734l-407 -734h-248l-177 1191h212l129 -1029l448 836l-26 193h207l125 -1024l537 1024h215l-652 -1191h-249zM962 1378l292 368h254l-357 -368h-189z" />
    <glyph glyph-name="Wdieresis" unicode="&#x1e84;" horiz-adv-x="2283" 
d="M1350 0l-74 1087l-582 -1087h-253l-212 1638h214l158 -1427l645 1209l-15 218h213l81 -1410l720 1410h226l-868 -1638h-253zM974 1922q0 62 41.5 103t103.5 41t103 -41t41 -103t-41 -104t-103 -42t-103.5 42t-41.5 104zM1471 1922q0 62 41 103t103 41t103 -41t41 -103
t-41 -104t-103 -42t-103 42t-41 104z" />
    <glyph glyph-name="wdieresis" unicode="&#x1e85;" horiz-adv-x="1950" 
d="M1117 0l-114 734l-407 -734h-248l-177 1191h212l129 -1029l448 836l-26 193h207l125 -1024l537 1024h215l-652 -1191h-249zM713 1549q0 62 41 103.5t103 41.5t103 -41.5t41 -103.5t-41 -104t-103 -42t-103 42t-41 104zM1250 1549q0 62 41.5 103.5t103.5 41.5t103 -41.5
t41 -103.5t-41 -104t-103 -42t-103.5 42t-41.5 104z" />
    <glyph glyph-name="uni1E9E" unicode="&#x1e9e;" horiz-adv-x="1640" 
d="M876 -20q-133 0 -261 22l38 191q110 -29 235 -29q203 0 307.5 99t104.5 255q0 128 -76.5 204.5t-246.5 76.5h-88l29 143l468 512h-542q-141 0 -204 -55t-90 -189l-242 -1210h-215l247 1236q44 222 161.5 312t362.5 90h814l-31 -161l-486 -529q74 -14 134.5 -44.5t101 -72
t68 -92.5t40 -104.5t12.5 -110.5q0 -136 -49.5 -241t-137 -170.5t-202.5 -99t-252 -33.5z" />
    <glyph glyph-name="Ygrave" unicode="&#x1ef2;" horiz-adv-x="1443" 
d="M495 0l119 593l-385 1045h217l306 -861l651 861h229l-804 -1045l-118 -593h-215zM577 2119h246l236 -368h-182z" />
    <glyph glyph-name="ygrave" unicode="&#x1ef3;" horiz-adv-x="1219" 
d="M113 -410l284 458l-262 1143h213l197 -944l562 944h216l-994 -1601h-216zM333 1746h246l236 -368h-182z" />
    <glyph glyph-name="uni2010" unicode="&#x2010;" horiz-adv-x="809" 
d="M83 556l34 173h628l-34 -173h-628z" />
    <glyph glyph-name="uni2011" unicode="&#x2011;" horiz-adv-x="809" 
d="M83 556l34 173h628l-34 -173h-628z" />
    <glyph glyph-name="endash" unicode="&#x2013;" horiz-adv-x="1219" 
d="M83 556l34 173h1038l-34 -173h-1038z" />
    <glyph glyph-name="emdash" unicode="&#x2014;" horiz-adv-x="1833" 
d="M83 556l34 173h1652l-34 -173h-1652z" />
    <glyph glyph-name="uni2015" unicode="&#x2015;" horiz-adv-x="1833" 
d="M83 556l34 173h1652l-34 -173h-1652z" />
    <glyph glyph-name="underscoredbl" unicode="&#x2017;" horiz-adv-x="1024" 
d="M-182 -289l33 166h1034l-33 -166h-1034zM-238 -569l33 166h1034l-33 -166h-1034z" />
    <glyph glyph-name="quoteleft" unicode="&#x2018;" horiz-adv-x="520" 
d="M610 1565q-98 -49 -158.5 -102t-86.5 -128q7 1 20 1q59 0 103 -38.5t44 -106.5q0 -65 -42 -111.5t-116 -46.5q-75 0 -116 51.5t-41 143.5q0 54 16 108.5t51.5 114t105 114t164.5 94.5z" />
    <glyph glyph-name="quoteright" unicode="&#x2019;" horiz-adv-x="520" 
d="M210 1126q98 49 158.5 102t86.5 128q-6 -1 -19 -1q-59 0 -103.5 38.5t-44.5 106.5q0 66 41.5 112.5t115.5 46.5q76 0 117 -51.5t41 -143.5q0 -54 -16 -108.5t-51.5 -114t-105 -114t-164.5 -94.5z" />
    <glyph glyph-name="quotesinglbase" unicode="&#x201a;" horiz-adv-x="520" 
d="M-63 -238q98 49 159 102t87 128q-7 -1 -20 -1q-59 0 -103.5 39t-44.5 107q0 65 42.5 111.5t115.5 46.5q76 0 116.5 -51.5t40.5 -143.5q0 -54 -16 -108.5t-51.5 -114t-105 -114t-164.5 -94.5z" />
    <glyph glyph-name="quotereversed" unicode="&#x201b;" horiz-adv-x="520" 
d="M423 1035q-78 49 -126 129.5t-48 190.5q0 124 56 214t158 90q67 0 110 -40t43 -110q0 -67 -39 -111t-107 -44q-53 0 -88 27q-14 -74 9 -136t103 -129z" />
    <glyph glyph-name="quotedblleft" unicode="&#x201c;" horiz-adv-x="967" 
d="M1057 1565q-98 -49 -158.5 -102t-86.5 -128q7 1 19 1q59 0 103.5 -38.5t44.5 -106.5q0 -65 -42 -111.5t-116 -46.5q-75 0 -116 51.5t-41 143.5q0 54 16 108.5t51.5 114t105 114t164.5 94.5zM217 1228q0 54 16 108.5t51.5 114t105 114t164.5 94.5l56 -94
q-98 -49 -158.5 -102t-86.5 -128q7 1 20 1q59 0 103 -38.5t44 -106.5q0 -65 -42 -111.5t-116 -46.5q-75 0 -116 51.5t-41 143.5z" />
    <glyph glyph-name="quotedblright" unicode="&#x201d;" horiz-adv-x="967" 
d="M210 1126q98 49 158.5 102t86.5 128q-6 -1 -19 -1q-59 0 -103.5 38.5t-44.5 106.5q0 66 41.5 112.5t115.5 46.5q76 0 117 -51.5t41 -143.5q0 -54 -16 -108.5t-51.5 -114t-105 -114t-164.5 -94.5zM657 1126q98 49 158.5 102t86.5 128q-6 -1 -19 -1q-59 0 -103.5 38.5
t-44.5 106.5q0 66 41.5 112.5t115.5 46.5q76 0 117 -51.5t41 -143.5q0 -54 -16 -108.5t-51.5 -114t-105 -114t-164.5 -94.5z" />
    <glyph glyph-name="quotedblbase" unicode="&#x201e;" horiz-adv-x="967" 
d="M-63 -238q98 49 159 102t87 128q-7 -1 -20 -1q-59 0 -103.5 39t-44.5 107q0 65 42.5 111.5t115.5 46.5q76 0 116.5 -51.5t40.5 -143.5q0 -54 -16 -108.5t-51.5 -114t-105 -114t-164.5 -94.5zM384 -238q98 49 159 102t87 128q-7 -1 -20 -1q-59 0 -103.5 39t-44.5 107
q0 65 42 111.5t116 46.5q76 0 116.5 -51.5t40.5 -143.5q0 -54 -16 -108.5t-51.5 -114t-105 -114t-164.5 -94.5z" />
    <glyph glyph-name="dagger" unicode="&#x2020;" horiz-adv-x="1478" 
d="M432 -410l281 1406h-420l35 173h420l93 469h214l-94 -469h419l-34 -173h-420l-281 -1406h-213z" />
    <glyph glyph-name="daggerdbl" unicode="&#x2021;" horiz-adv-x="1478" 
d="M432 -410l93 470h-420l35 172h420l153 764h-420l35 173h420l93 469h214l-94 -469h419l-34 -173h-420l-152 -764h419l-34 -172h-420l-94 -470h-213z" />
    <glyph glyph-name="bullet" unicode="&#x2022;" horiz-adv-x="1076" 
d="M557 532q-67 0 -112 45.5t-45 112.5t45 112t112 45t112 -45t45 -112t-45 -112.5t-112 -45.5z" />
    <glyph glyph-name="ellipsis" unicode="&#x2026;" horiz-adv-x="1560" 
d="M169 -13q-64 0 -108.5 44.5t-44.5 109.5t44 109.5t109 44.5t109.5 -44.5t44.5 -109.5t-44.5 -109.5t-109.5 -44.5zM536 141q0 65 44.5 109.5t109.5 44.5t109 -44.5t44 -109.5t-44.5 -109.5t-109.5 -44.5q-64 0 -108.5 44.5t-44.5 109.5zM1056 141q0 65 44.5 109.5
t109.5 44.5t109 -44.5t44 -109.5t-44.5 -109.5t-109.5 -44.5q-64 0 -108.5 44.5t-44.5 109.5z" />
    <glyph glyph-name="perthousand" unicode="&#x2030;" horiz-adv-x="3292" 
d="M502 0l1195 1638h198l-1195 -1638h-198zM218 1092q0 82 17.5 161.5t55 153t90.5 129.5t129.5 89.5t166.5 33.5q208 0 314 -118t106 -306q0 -82 -17.5 -161.5t-55 -153t-90.5 -129.5t-129.5 -89.5t-166.5 -33.5q-106 0 -188 32.5t-132 91t-75 134.5t-25 166zM408 1090
q0 -256 233 -256q55 0 100 21.5t72.5 58.5t47.5 79.5t29.5 90.5t13.5 84t4 69q0 256 -234 256q-56 0 -100.5 -21.5t-72.5 -58.5t-47.5 -79t-28.5 -90.5t-13 -84.5t-4 -69zM1300 403q0 82 17.5 161.5t55 153t90.5 129.5t129.5 89.5t166.5 33.5q107 0 188.5 -32.5t132 -90.5
t75.5 -134t25 -166q0 -82 -17.5 -161.5t-55 -153t-90.5 -129.5t-129.5 -89.5t-166.5 -33.5q-107 0 -188.5 32.5t-132 90.5t-75.5 134t-25 166zM1490 401q0 -256 233 -256q66 0 117 32t78 77.5t44.5 104.5t22.5 103.5t5 85.5q0 256 -233 256q-66 0 -117 -32t-78 -77.5
t-44.5 -104.5t-22.5 -103.5t-5 -85.5zM2285 403q0 82 17.5 161.5t55 153t90.5 129.5t129.5 89.5t166.5 33.5q106 0 188 -32.5t132 -90.5t75.5 -134t25.5 -166q0 -82 -17.5 -161.5t-55.5 -153t-91 -129.5t-129.5 -89.5t-166.5 -33.5q-208 0 -314 117.5t-106 305.5zM2474 401
q0 -256 234 -256q55 0 100 21.5t72.5 58.5t47.5 79.5t29.5 90.5t13.5 84t4 69q0 256 -234 256q-55 0 -100 -21.5t-72.5 -58.5t-47.5 -79.5t-29.5 -90.5t-13.5 -84t-4 -69z" />
    <glyph glyph-name="minute" unicode="&#x2032;" horiz-adv-x="472" 
d="M240 983l97 655h215l-165 -655h-147z" />
    <glyph glyph-name="second" unicode="&#x2033;" horiz-adv-x="886" 
d="M240 983l97 655h215l-165 -655h-147zM653 983l98 655h215l-165 -655h-148z" />
    <glyph glyph-name="guilsinglleft" unicode="&#x2039;" horiz-adv-x="704" 
d="M332 261l-232 399l357 363h245l-374 -381l222 -381h-218z" />
    <glyph glyph-name="guilsinglright" unicode="&#x203a;" horiz-adv-x="704" 
d="M391 1023l232 -399l-357 -363h-246l375 381l-222 381h218z" />
    <glyph glyph-name="exclamdbl" unicode="&#x203c;" horiz-adv-x="1143" 
d="M169 449l218 1189h215l-259 -1189h-174zM53 141q0 65 44 109.5t109 44.5t109 -44.5t44 -109.5t-44 -109.5t-109 -44.5q-64 0 -108.5 44.5t-44.5 109.5zM625 141q0 65 44 109.5t109 44.5t109 -44.5t44 -109.5t-44 -109.5t-109 -44.5q-64 0 -108.5 44.5t-44.5 109.5z
M741 449l218 1189h215l-259 -1189h-174z" />
    <glyph glyph-name="uni203D" unicode="&#x203d;" horiz-adv-x="1234" 
d="M523 -13q-64 0 -108.5 44.5t-44.5 109.5t44 109.5t109 44.5t109 -44.5t44 -109.5t-44 -109.5t-109 -44.5zM238 1412q86 110 222 178.5t322 68.5q120 0 212.5 -32t148.5 -87t84.5 -124.5t28.5 -149.5q0 -61 -18 -116t-44.5 -95t-72 -82t-84 -69t-96.5 -65
q-68 -44 -105 -73t-71 -67.5t-52.5 -82.5t-31.5 -108l-11 -59h-200l147 842h209l-92 -408q34 42 125 102q36 24 58 40.5t50 42t43 49.5t26 57.5t11 71.5q0 102 -67 165.5t-207 63.5q-243 0 -390 -204z" />
    <glyph glyph-name="uni203E" unicode="&#x203e;" horiz-adv-x="1024" 
d="M228 1761l34 167h1033l-33 -167h-1034z" />
    <glyph glyph-name="fraction" unicode="&#x2044;" horiz-adv-x="647" 
d="M-400 0l1316 1638h221l-1317 -1638h-220z" />
    <glyph glyph-name="zero.sups" unicode="&#x2070;" horiz-adv-x="1146" 
d="M741 1119q-91 0 -163 22.5t-120.5 62t-80 95t-45.5 117.5t-14 134q0 94 20 189q16 80 42.5 147t68 124.5t95 97.5t126.5 63t160 23q113 0 196.5 -34t132 -94.5t71.5 -136t23 -166.5q0 -86 -20 -188q-44 -221 -167.5 -338.5t-324.5 -117.5zM516 1550q0 -133 57 -199.5
t178 -66.5q224 0 288 321q16 81 16 158q0 267 -234 267q-225 0 -289 -322q-16 -81 -16 -158z" />
    <glyph glyph-name="four.sups" unicode="&#x2074;" horiz-adv-x="1068" 
d="M743 1133l38 188h-560l30 152l671 708h223l-138 -692h163l-33 -168h-164l-38 -188h-192zM478 1489h336l90 449z" />
    <glyph glyph-name="five.sups" unicode="&#x2075;" horiz-adv-x="985" 
d="M634 1119q-264 0 -408 132l133 140q105 -107 274 -107q114 0 172 51t58 139q0 81 -48.5 128t-139.5 47q-106 0 -166 -60h-158l119 592h678l-34 -168h-493l-51 -256q70 48 174 48q146 0 231 -88t85 -243q0 -69 -22.5 -129.5t-70.5 -112.5t-133.5 -82.5t-199.5 -30.5z" />
    <glyph glyph-name="six.sups" unicode="&#x2076;" horiz-adv-x="1035" 
d="M707 1119q-83 0 -152.5 22.5t-125 69t-86.5 126t-31 185.5q0 85 23 200q50 250 168.5 361t331.5 111q232 0 355 -123l-131 -132q-85 95 -231 95q-73 0 -125.5 -21t-86 -64.5t-53 -94.5t-34.5 -124q81 93 234 93q158 0 254 -89.5t96 -241.5q0 -69 -24 -133t-71 -119
t-127.5 -88t-183.5 -33zM498 1465q0 -84 53 -134t154 -50t156 59.5t55 146.5q0 84 -53.5 134.5t-153.5 50.5q-101 0 -156 -60t-55 -147z" />
    <glyph glyph-name="seven.sups" unicode="&#x2077;" horiz-adv-x="945" 
d="M401 1133q57 300 183 516t340 364h-565l34 168h793l-30 -154q-138 -100 -231 -194t-157 -202t-102.5 -223t-69.5 -275h-195z" />
    <glyph glyph-name="eight.sups" unicode="&#x2078;" horiz-adv-x="1048" 
d="M678 1119q-200 0 -303.5 82t-103.5 208q0 44 14 87t43.5 86.5t85 78t130.5 51.5q-71 27 -108 79.5t-37 120.5q0 116 104 199t292 83q186 0 279 -75.5t93 -195.5q0 -92 -58.5 -155.5t-166.5 -87.5q82 -30 123 -93.5t41 -147.5q0 -62 -23.5 -117t-71.5 -101.5t-134 -74
t-199 -27.5zM468 1435q0 -71 54 -113t165 -42q114 0 168 50.5t54 122.5q0 71 -53 112.5t-163 41.5q-115 0 -170 -50t-55 -122zM592 1890q0 -61 48.5 -95t139.5 -34q97 0 145.5 40.5t48.5 102.5q0 61 -48 95.5t-139 34.5q-97 0 -146 -41t-49 -103z" />
    <glyph glyph-name="nine.sups" unicode="&#x2079;" horiz-adv-x="1035" 
d="M644 1119q-245 0 -374 124l130 131q88 -94 236 -94q71 0 122.5 21t84.5 64t52.5 94.5t34.5 124.5q-81 -93 -233 -93q-158 0 -254 89.5t-96 241.5q0 69 24 133t71.5 118.5t128 87.5t183.5 33q83 0 152 -22.5t124 -69t86 -126t31 -185.5q0 -90 -22 -200
q-51 -250 -164.5 -361t-316.5 -111zM544 1826q0 -84 53.5 -134.5t153.5 -50.5q101 0 156.5 60t55.5 147q0 84 -53.5 134.5t-153.5 50.5q-101 0 -156.5 -60t-55.5 -147z" />
    <glyph glyph-name="n.sups" unicode="&#x207f;" horiz-adv-x="1161" 
d="M188 690l152 758l13 194h181l-11 -135q52 72 136.5 112t187.5 40q139 0 220 -73t81 -207q0 -60 -22 -174l-104 -515h-184l103 513q17 82 17 138q0 159 -179 159q-123 0 -198 -72.5t-101 -200.5l-107 -537h-185z" />
    <glyph glyph-name="zero.subs" unicode="&#x2080;" horiz-adv-x="1146" 
d="M407 -556q-91 0 -163.5 22.5t-120.5 62t-80 95t-46 117.5t-14 134q0 89 21 189q20 100 57.5 180.5t96 143.5t144 97t193.5 34q113 0 197 -34t132.5 -94.5t71.5 -136t23 -166.5q0 -81 -21 -188q-44 -221 -167 -338.5t-324 -117.5zM181 -125q0 -133 57 -199.5t178 -66.5
q224 0 288 320q16 81 16 159q0 266 -234 266q-225 0 -289 -321q-16 -81 -16 -158z" />
    <glyph glyph-name="one.subs" unicode="&#x2081;" horiz-adv-x="985" 
d="M-79 -543l34 168h319l115 574q-85 -67 -330 -67l34 166q118 0 192 24.5t112 67t66 116.5h180l-176 -881h277l-33 -168h-790z" />
    <glyph glyph-name="two.subs" unicode="&#x2082;" horiz-adv-x="1001" 
d="M-107 -444q14 71 43.5 128.5t65.5 98t93 78.5t109 64.5t131 59.5q80 34 126.5 56.5t86.5 51t56.5 58t16.5 67.5q0 61 -45 98.5t-136 37.5q-178 0 -283 -129l-129 123q144 171 421 171q173 0 267 -78.5t94 -215.5q0 -126 -88 -208.5t-305 -174.5q-165 -71 -229.5 -116
t-79.5 -101h591l-33 -168h-792z" />
    <glyph glyph-name="three.subs" unicode="&#x2083;" horiz-adv-x="980" 
d="M290 -556q-257 0 -401 128l125 141q104 -104 280 -104q210 0 210 159q0 150 -199 150h-121l32 158h139q214 0 214 143q0 65 -44.5 100t-130.5 35q-152 0 -262 -97l-101 143q155 119 377 119q95 0 166 -23t111.5 -63t60 -88t19.5 -103q0 -104 -63 -166t-159 -78
q72 -32 115 -95t43 -155q0 -139 -106 -221.5t-305 -82.5z" />
    <glyph glyph-name="four.subs" unicode="&#x2084;" horiz-adv-x="1068" 
d="M408 -543l38 189h-560l31 151l670 709h223l-138 -692h163l-33 -168h-164l-37 -189h-193zM143 -186h336l90 449z" />
    <glyph glyph-name="five.subs" unicode="&#x2085;" horiz-adv-x="985" 
d="M299 -556q-264 0 -408 132l134 140q105 -107 273 -107q114 0 172 51t58 139q0 81 -48.5 128t-139.5 47q-104 0 -165 -61h-159l119 593h678l-34 -168h-493l-51 -257q72 49 175 49q146 0 231 -88.5t85 -243.5q0 -54 -13.5 -103.5t-45.5 -96t-80 -80t-122 -54t-166 -20.5z
" />
    <glyph glyph-name="six.subs" unicode="&#x2086;" horiz-adv-x="1035" 
d="M372 -556q-83 0 -152.5 22.5t-125 69t-86.5 126t-31 185.5q0 85 23 200q50 250 168.5 361t331.5 111q232 0 355 -123l-131 -132q-85 94 -230 94q-73 0 -125.5 -21t-86 -64.5t-53 -94.5t-34.5 -124q81 93 234 93q158 0 253.5 -89t95.5 -241q0 -69 -24 -133t-71 -119
t-127.5 -88t-183.5 -33zM163 -210q0 -84 53.5 -134.5t153.5 -50.5q101 0 156 60t55 147q0 84 -53.5 134.5t-153.5 50.5q-101 0 -156 -60t-55 -147z" />
    <glyph glyph-name="seven.subs" unicode="&#x2087;" horiz-adv-x="945" 
d="M66 -543q57 300 183 516t340 364h-564l33 169h793l-30 -154q-110 -80 -191.5 -157.5t-141 -155.5t-102 -169.5t-71.5 -188.5t-53 -224h-196z" />
    <glyph glyph-name="eight.subs" unicode="&#x2088;" horiz-adv-x="1048" 
d="M343 -556q-200 0 -303 81.5t-103 207.5q0 44 13.5 87t43.5 86.5t85 78t130 51.5q-70 26 -107 79.5t-37 121.5q0 117 103.5 199.5t291.5 82.5q186 0 279.5 -75.5t93.5 -195.5q0 -92 -59 -155.5t-167 -87.5q82 -30 123.5 -94t41.5 -148q0 -62 -23.5 -117t-72 -101.5
t-134.5 -73.5t-199 -27zM133 -241q0 -71 54 -112.5t165 -41.5q114 0 168 50t54 122q0 71 -53 112.5t-163 41.5q-115 0 -170 -50t-55 -122zM258 215q0 -61 48 -95t139 -34q97 0 145.5 40t48.5 102q0 61 -48 95.5t-139 34.5q-97 0 -145.5 -40.5t-48.5 -102.5z" />
    <glyph glyph-name="nine.subs" unicode="&#x2089;" horiz-adv-x="1035" 
d="M309 -556q-245 0 -374 124l131 131q88 -94 235 -94q71 0 122.5 21t84.5 64t52.5 94.5t34.5 124.5q-81 -93 -233 -93q-158 0 -254 89t-96 241q0 69 24 133t71.5 119t128 88t183.5 33q83 0 152.5 -22.5t124.5 -69t86 -126t31 -185.5q0 -90 -22 -200q-51 -250 -165 -361
t-317 -111zM209 151q0 -84 53.5 -134.5t153.5 -50.5q101 0 156.5 60t55.5 147q0 84 -53.5 134.5t-153.5 50.5q-101 0 -156.5 -60t-55.5 -147z" />
    <glyph glyph-name="n.subs" unicode="&#x2099;" horiz-adv-x="1161" 
d="M6 -219l152 759l13 194h181l-10 -135q52 71 136.5 111t187.5 40q139 0 220 -73t81 -207q0 -55 -23 -174l-103 -515h-185l103 513q17 82 17 138q0 159 -178 159q-123 0 -198.5 -72.5t-101.5 -200.5l-107 -537h-185z" />
    </font>
</defs>
</svg>
