<?xml version="1.0" standalone="no"?>
<!DOCTYPE svg PUBLIC "-//W3C//DTD SVG 1.1//EN" "http://www.w3.org/Graphics/SVG/1.1/DTD/svg11.dtd" >
<svg xmlns="http://www.w3.org/2000/svg" xmlns:xlink="http://www.w3.org/1999/xlink" version="1.1">
<metadata>
Created by FontForge 20170731 at Mon Jun 12 13:56:25 2023
 By Aleksey,,,
(c) 2023 TeamViewer Germany GmbH. All rights reserved
</metadata>
<defs>
<font id="TeamViewerSans-Reg" horiz-adv-x="0" >
  <font-face 
    font-family="TeamViewer Sans"
    font-weight="400"
    font-stretch="normal"
    units-per-em="2048"
    panose-1="2 0 5 0 0 0 0 3 0 0"
    ascent="1638"
    descent="-410"
    x-height="1191"
    cap-height="1638"
    bbox="-281 -644 3189 2489"
    underline-thickness="102"
    underline-position="-307"
    unicode-range="U+000D-FEFF"
  />
<missing-glyph horiz-adv-x="1149" 
d="M41 0v1638h1067v-1638h-1067zM200 149h748v1340h-748v-1340z" />
    <glyph glyph-name="fi" unicode="fi" horiz-adv-x="1556" 
d="M281 1356q0 387 425 387q113 0 182 -28v-174q-79 27 -165 27q-75 0 -122.5 -16.5t-71.5 -53t-32.5 -80t-8.5 -110.5v-117h400v-173h-400v-1018h-207v1018h-250v173h250v165zM1093 1585q0 65 43.5 108t110.5 43t110 -43t43 -108t-43 -108.5t-110 -43.5t-110.5 43.5
t-43.5 108.5zM1143 0v1191h207v-1191h-207z" />
    <glyph glyph-name="fl" unicode="fl" horiz-adv-x="1556" 
d="M281 1356q0 387 425 387q113 0 182 -28v-174q-79 27 -165 27q-75 0 -122.5 -16.5t-71.5 -53t-32.5 -80t-8.5 -110.5v-117h400v-173h-400v-1018h-207v1018h-250v173h250v165zM1143 0v1723h207v-1723h-207z" />
    <glyph glyph-name=".notdef" horiz-adv-x="1149" 
d="M41 0v1638h1067v-1638h-1067zM200 149h748v1340h-748v-1340z" />
    <glyph glyph-name=".null" 
 />
    <glyph glyph-name="nonmarkingreturn" horiz-adv-x="682" 
 />
    <glyph glyph-name="NULL" 
 />
    <glyph glyph-name="NULL" 
 />
    <glyph glyph-name="CR" unicode="&#xd;" horiz-adv-x="469" 
 />
    <glyph glyph-name="space" unicode=" " horiz-adv-x="469" 
 />
    <glyph glyph-name="exclam" unicode="!" horiz-adv-x="571" 
d="M199 449l-20 1189h214l-20 -1189h-174zM133 141q0 65 44 109.5t109 44.5t109.5 -44.5t44.5 -109.5t-45 -109.5t-109 -44.5q-65 0 -109 44.5t-44 109.5z" />
    <glyph glyph-name="quotedbl" unicode="&#x22;" horiz-adv-x="886" 
d="M162 983l-33 655h215l-34 -655h-148zM543 1638h214l-33 -655h-148z" />
    <glyph glyph-name="numbersign" unicode="#" horiz-adv-x="1747" 
d="M951 0l74 416h-444l-74 -416h-195l73 416h-287v173h318l81 460h-288v174h318l74 415h195l-73 -415h444l73 415h196l-74 -415h288v-174h-318l-81 -460h288v-173h-319l-73 -416h-196zM611 589h444l81 460h-444z" />
    <glyph glyph-name="dollar" unicode="$" horiz-adv-x="1405" 
d="M650 -220v201q-185 10 -332.5 71t-236.5 160l146 158q164 -185 423 -204v573q-62 14 -106.5 26t-101 32.5t-96 43.5t-80.5 59t-65.5 78.5t-40.5 101.5t-16 129q0 186 129.5 307t376.5 140v203h155v-202q298 -17 469 -188l-129 -151q-137 134 -340 153v-556
q61 -14 107 -27t101.5 -34t96 -45t81 -60t65.5 -79t41 -101.5t16 -127.5q0 -202 -131.5 -320t-376.5 -138v-203h-155zM352 1216q0 -60 21 -104t64.5 -74.5t92 -49.5t120.5 -37v520q-298 -24 -298 -255zM805 168q149 15 224 84t75 182q0 60 -21.5 105t-65 76t-92.5 50.5
t-120 37.5v-535z" />
    <glyph glyph-name="percent" unicode="%" horiz-adv-x="2308" 
d="M622 0l871 1638h194l-872 -1638h-193zM104 1163q0 227 119.5 361.5t319.5 134.5t319.5 -134.5t119.5 -361.5t-119.5 -361t-319.5 -134t-319.5 134t-119.5 361zM293 1163q0 -157 66 -242.5t184 -85.5t183.5 85.5t65.5 242.5q0 158 -65.5 243.5t-183.5 85.5t-184 -86
t-66 -243zM1327 475q0 227 119 361t319 134t319.5 -134t119.5 -361t-119.5 -361t-319.5 -134t-319 134t-119 361zM1516 475q0 -158 65 -243.5t184 -85.5q118 0 184 86t66 243t-66 243t-184 86q-119 0 -184 -85.5t-65 -243.5z" />
    <glyph glyph-name="ampersand" unicode="&#x26;" horiz-adv-x="1612" 
d="M684 -20q-277 0 -426 127t-149 330q0 88 28 164t81 136.5t112.5 106t139.5 91.5q-160 192 -160 370q0 158 108 256t290 98q179 0 279.5 -97t100.5 -245q0 -126 -78.5 -222t-247.5 -192l427 -464q85 151 100 368h216q-30 -307 -179 -517l266 -290h-267l-134 146
q-203 -166 -507 -166zM326 460q0 -144 100 -220t271 -76q220 0 366 121l-479 522q-129 -74 -193.5 -153.5t-64.5 -193.5zM520 1298q0 -119 126 -268q126 70 185 131t59 144q0 79 -50.5 128.5t-134.5 49.5q-85 0 -135 -50.5t-50 -134.5z" />
    <glyph glyph-name="quotesingle" unicode="'" horiz-adv-x="472" 
d="M162 983l-33 655h215l-34 -655h-148z" />
    <glyph glyph-name="parenleft" unicode="(" horiz-adv-x="877" 
d="M574 -409q-445 383 -445 1066t445 1066h225q-459 -394 -459 -1066t459 -1066h-225z" />
    <glyph glyph-name="parenright" unicode=")" horiz-adv-x="877" 
d="M303 1722q445 -383 445 -1066t-445 -1066h-226q460 395 460 1066t-460 1066h226z" />
    <glyph glyph-name="asterisk" unicode="*" horiz-adv-x="1173" 
d="M499 723l18 336l-283 -183l-88 153l301 152l-301 152l88 153l283 -184l-18 336h176l-18 -336l282 184l88 -153l-300 -152l300 -152l-88 -153l-282 183l18 -336h-176z" />
    <glyph glyph-name="plus" unicode="+" horiz-adv-x="1588" 
d="M702 102v523h-522v183h522v523h184v-523h523v-183h-523v-523h-184z" />
    <glyph glyph-name="comma" unicode="," horiz-adv-x="520" 
d="M106 -298q172 140 196 294q-16 -5 -43 -5q-64 0 -108.5 41t-44.5 109q0 67 43.5 110.5t112.5 43.5q75 0 120.5 -55.5t45.5 -167.5q0 -141 -70.5 -256.5t-177.5 -194.5z" />
    <glyph glyph-name="hyphen" unicode="-" horiz-adv-x="809" 
d="M91 556v173h628v-173h-628z" />
    <glyph glyph-name="period" unicode="." horiz-adv-x="520" 
d="M260 -13q-65 0 -109.5 44.5t-44.5 109.5t44.5 109.5t109.5 44.5t109.5 -44.5t44.5 -109.5t-44.5 -109.5t-109.5 -44.5z" />
    <glyph glyph-name="slash" unicode="/" horiz-adv-x="991" 
d="M47 -410l692 2133h206l-693 -2133h-205z" />
    <glyph glyph-name="zero" unicode="0" horiz-adv-x="1527" 
d="M764 -20q-314 0 -487 217.5t-173 621.5t173 622t487 218t487 -218t173 -622t-173 -621.5t-487 -217.5zM320 819q0 -323 113.5 -489.5t330.5 -166.5t330 166.5t113 489.5t-113 489.5t-330 166.5t-330.5 -166.5t-113.5 -489.5z" />
    <glyph glyph-name="one" unicode="1" horiz-adv-x="1362" 
d="M195 0v185h486v1067q-107 -148 -481 -148v185q128 0 220 23.5t148.5 71t86.5 108.5t43 146h193v-1453h425v-185h-1121z" />
    <glyph glyph-name="two" unicode="2" horiz-adv-x="1377" 
d="M123 97q0 68 10 129.5t25.5 110.5t43 95.5t54 81t67.5 70t73 59.5t82 53.5t84 47.5t88 45q58 29 88 44.5t78 44t73.5 49t57.5 53t47.5 63.5t27 72.5t11.5 87.5q0 127 -83 199.5t-236 72.5q-151 0 -253.5 -51t-181.5 -155l-145 133q201 257 584 257q251 0 387.5 -123
t136.5 -336q0 -51 -8 -97t-21 -84t-36.5 -74t-46 -64t-59.5 -58t-66 -51.5t-76.5 -49t-81.5 -45.5t-89 -47q-59 -30 -94 -49t-84 -49.5t-78.5 -54.5t-63.5 -58t-52.5 -67.5t-32 -76.5t-14.5 -90h909v-185h-1125v97z" />
    <glyph glyph-name="three" unicode="3" horiz-adv-x="1305" 
d="M614 -20q-188 0 -327.5 52.5t-228.5 139.5l137 158q74 -80 184.5 -123t225.5 -43q188 0 283.5 78.5t95.5 223.5q0 139 -91 219.5t-291 80.5h-195v180h144q385 0 385 268q0 123 -81.5 192t-229.5 69q-133 0 -240 -45t-179 -115l-124 150q222 194 552 194q130 0 230.5 -34
t162 -94t92.5 -136.5t31 -165.5q0 -134 -74.5 -228.5t-201.5 -128.5q144 -30 235.5 -134t91.5 -284q0 -223 -156.5 -348.5t-430.5 -125.5z" />
    <glyph glyph-name="four" unicode="4" horiz-adv-x="1451" 
d="M907 0v322h-834v163l812 1153h232v-1131h261v-185h-261v-322h-210zM307 507h600v853z" />
    <glyph glyph-name="five" unicode="5" horiz-adv-x="1324" 
d="M635 -20q-171 0 -311 53t-229 149l144 151q67 -80 170 -124.5t226 -44.5q169 0 273.5 90t104.5 265q0 162 -101 254t-253 92q-91 0 -172 -29.5t-130 -85.5h-183v888h974v-184h-771v-501q127 95 335 95q225 0 371 -143t146 -386q0 -245 -158.5 -392t-435.5 -147z" />
    <glyph glyph-name="six" unicode="6" horiz-adv-x="1358" 
d="M695 -20q-291 0 -441 202.5t-150 613.5q0 863 667 863q290 0 459 -198l-147 -140q-115 155 -322 155q-233 0 -335 -148.5t-110 -463.5q49 89 159 152.5t268 63.5q109 0 204.5 -36t167.5 -104t113.5 -173.5t41.5 -235.5q0 -116 -36.5 -215.5t-106 -174.5t-180.5 -118
t-252 -43zM344 530q0 -166 95.5 -267t259.5 -101t260 101t96 267t-96 267t-260 101t-259.5 -101t-95.5 -267z" />
    <glyph glyph-name="seven" unicode="7" horiz-adv-x="1307" 
d="M365 0q0 441 155 815t472 639h-919v184h1161v-163q-153 -129 -265.5 -263t-187 -269.5t-119.5 -289.5t-63.5 -310t-18.5 -343h-215z" />
    <glyph glyph-name="eight" unicode="8" horiz-adv-x="1403" 
d="M702 -20q-279 0 -438.5 126.5t-159.5 344.5q0 151 79 262.5t229 163.5q-123 45 -190.5 136.5t-67.5 223.5q0 87 34.5 162.5t101 134t172.5 92t240 33.5t240 -34t172 -92.5t100.5 -133.5t34.5 -162q0 -131 -67.5 -223t-189.5 -137q150 -52 228.5 -163.5t78.5 -262.5
q0 -218 -159 -344.5t-438 -126.5zM320 471q0 -145 101 -227t281 -82t280.5 82t100.5 227t-100.5 227t-280.5 82t-281 -82t-101 -227zM366 1216q0 -126 89 -193t247 -67q157 0 246.5 67t89.5 193t-89.5 193t-246.5 67q-158 0 -247 -67t-89 -193z" />
    <glyph glyph-name="nine" unicode="9" horiz-adv-x="1358" 
d="M664 1659q290 0 440.5 -202.5t150.5 -610.5q0 -445 -154.5 -655.5t-489.5 -210.5q-160 0 -283.5 57.5t-198.5 141.5l147 138q55 -71 144.5 -113t199.5 -42q118 0 198 36.5t128.5 115.5t71 189.5t25.5 271.5q-49 -89 -159.5 -153t-268.5 -64q-109 0 -204 36t-167 104
t-113.5 173.5t-41.5 235.5q0 116 36.5 215.5t106 175t180.5 118.5t252 43zM304 1108q0 -166 95.5 -267t259.5 -101t259.5 101t95.5 267t-95.5 267t-259.5 101t-259.5 -101t-95.5 -267z" />
    <glyph glyph-name="colon" unicode=":" horiz-adv-x="540" 
d="M270 -13q-65 0 -109 44.5t-44 109.5t44 109.5t109 44.5t109.5 -44.5t44.5 -109.5t-44.5 -109.5t-109.5 -44.5zM117 1025q0 65 44 109.5t109 44.5t109.5 -44.5t44.5 -109.5t-44.5 -110t-109.5 -45t-109 45t-44 110z" />
    <glyph glyph-name="semicolon" unicode=";" horiz-adv-x="540" 
d="M117 -298q171 139 195 294q-16 -5 -43 -5q-64 0 -108 41t-44 109q0 67 43 110.5t112 43.5q75 0 120.5 -55.5t45.5 -167.5q0 -141 -70.5 -256.5t-177.5 -194.5zM117 1025q0 65 44 109.5t109 44.5t109.5 -44.5t44.5 -109.5t-44.5 -110t-109.5 -45t-109 45t-44 110z" />
    <glyph glyph-name="less" unicode="&#x3c;" horiz-adv-x="1588" 
d="M180 826l1229 405v-194l-1018 -320l1018 -321v-194l-1229 405v219z" />
    <glyph glyph-name="equal" unicode="=" horiz-adv-x="1588" 
d="M180 876v183h1229v-183h-1229zM180 374v184h1229v-184h-1229z" />
    <glyph glyph-name="greater" unicode="&#x3e;" horiz-adv-x="1588" 
d="M1409 607l-1229 -405v194l1017 321l-1017 320v194l1229 -405v-219z" />
    <glyph glyph-name="question" unicode="?" horiz-adv-x="1234" 
d="M500 508q0 74 14 136t34 104t55 82.5t63.5 64.5t73.5 57q36 26 57 43t48 44.5t41 52.5t24.5 60.5t10.5 76.5q0 109 -73.5 177.5t-227.5 68.5q-250 0 -400 -204l-146 141q85 108 222.5 177.5t330.5 69.5q248 0 376 -114t128 -300q0 -72 -19 -132.5t-56 -110.5t-75 -86
t-93 -77q-54 -41 -84 -69t-57 -66.5t-37.5 -85t-10.5 -110.5v-59h-199v59zM445 141q0 65 45 109.5t110 44.5t109 -44.5t44 -109.5t-44.5 -109.5t-108.5 -44.5q-65 0 -110 44.5t-45 109.5z" />
    <glyph glyph-name="at" unicode="@" horiz-adv-x="2122" 
d="M1074 -189q-168 0 -314.5 36.5t-267 112t-207 184t-134 259t-47.5 331.5q0 179 50 330t140 260t213 185t268.5 113t308.5 37q224 0 403 -64.5t294 -178.5t176 -266.5t61 -331.5q0 -250 -113 -390t-312 -140q-120 0 -192 53.5t-91 138.5q-29 -83 -108 -137.5t-207 -54.5
q-179 0 -282 119.5t-103 328.5q0 207 108.5 327t288.5 120q198 0 269 -137v121h180v-536q0 -197 153 -197q114 0 176 104.5t62 274.5q0 213 -98.5 371.5t-270.5 240.5t-394 82q-130 0 -247 -28.5t-219 -90t-176.5 -151t-117.5 -218.5t-43 -285q0 -189 61.5 -337t170.5 -242
t255.5 -143t321.5 -49q244 0 423 80v-166q-191 -66 -439 -66zM794 736q0 -139 60 -218t181 -79t181 79t60 218t-60 217.5t-181 78.5t-181 -78.5t-60 -217.5z" />
    <glyph glyph-name="A" unicode="A" horiz-adv-x="1479" 
d="M20 0l584 1638h272l583 -1638h-225l-160 475h-675l-160 -475h-219zM459 653h555l-277 820z" />
    <glyph glyph-name="B" unicode="B" horiz-adv-x="1547" 
d="M212 0v1638h647q281 0 409.5 -110.5t128.5 -304.5q0 -140 -76 -228t-197 -119q160 -34 243 -140.5t83 -275.5q0 -222 -145.5 -341t-450.5 -119h-642zM427 182h407q212 0 305.5 70.5t93.5 223.5q0 145 -86.5 219t-275.5 74h-444v-587zM427 946h408q178 0 262.5 63
t84.5 193t-82 192t-266 62h-407v-510z" />
    <glyph glyph-name="C" unicode="C" horiz-adv-x="1582" 
d="M896 -20q-193 0 -344.5 61.5t-249 173t-148 264.5t-50.5 340t50.5 340.5t148 265t249 173t344.5 61.5q219 0 371 -78t241 -202l-142 -134q-80 109 -191.5 169.5t-279.5 60.5q-280 0 -427 -174t-147 -482q0 -307 147 -481t427 -174q168 0 279.5 60t191.5 169l142 -133
q-89 -124 -241 -202t-371 -78z" />
    <glyph glyph-name="D" unicode="D" horiz-adv-x="1678" 
d="M212 0v1638h520q171 0 311 -40t238 -112.5t164.5 -175t98 -225.5t31.5 -266t-31.5 -266t-98 -225.5t-164.5 -175t-238 -112.5t-311 -40h-520zM427 184h291q327 0 483.5 166t156.5 469t-156.5 469t-483.5 166h-291v-1270z" />
    <glyph glyph-name="E" unicode="E" horiz-adv-x="1418" 
d="M212 0v1638h1075v-184h-860v-517h765v-179h-765v-573h860v-185h-1075z" />
    <glyph glyph-name="F" unicode="F" horiz-adv-x="1404" 
d="M212 0v1638h1080v-184h-865v-574h770v-179h-770v-701h-215z" />
    <glyph glyph-name="G" unicode="G" horiz-adv-x="1731" 
d="M881 -20q-246 0 -423 106.5t-265.5 294t-88.5 438.5q0 188 52 341.5t152.5 265t256.5 172.5t354 61q122 0 223.5 -22t172.5 -61.5t116 -76.5t86 -84l-145 -139q-161 199 -458 199q-290 0 -441.5 -173t-151.5 -483q0 -309 149 -482t428 -173q155 0 268 42t177 107v379
h-471v181h679v-873h-110l-47 158q-172 -178 -513 -178z" />
    <glyph glyph-name="H" unicode="H" horiz-adv-x="1731" 
d="M1304 0v755h-877v-755h-215v1638h215v-698h877v698h215v-1638h-215z" />
    <glyph glyph-name="I" unicode="I" horiz-adv-x="639" 
d="M212 0v1638h215v-1638h-215z" />
    <glyph glyph-name="J" unicode="J" horiz-adv-x="950" 
d="M305 -20q-129 0 -232 27v204q98 -39 223 -39q131 0 189.5 60.5t58.5 201.5v1204h215v-1213q0 -235 -111 -340t-343 -105z" />
    <glyph glyph-name="K" unicode="K" horiz-adv-x="1413" 
d="M1107 0l-680 792v-792h-215v1638h215v-749l688 749h259l-731 -786l739 -852h-275z" />
    <glyph glyph-name="L" unicode="L" horiz-adv-x="1352" 
d="M212 0v1638h215v-1452h852v-186h-1067z" />
    <glyph glyph-name="M" unicode="M" horiz-adv-x="2082" 
d="M212 0v1638h315l517 -1362l517 1362h309v-1638h-204v1392l-510 -1322h-230l-509 1322v-1392h-205z" />
    <glyph glyph-name="N" unicode="N" horiz-adv-x="1735" 
d="M212 0v1638h267l839 -1366v1366h205v-1638h-267l-839 1366v-1366h-205z" />
    <glyph glyph-name="O" unicode="O" horiz-adv-x="1745" 
d="M872 -20q-186 0 -333 63t-241.5 176t-144 265.5t-49.5 334.5t49.5 334.5t144 266t241.5 176.5t333 63t333.5 -63t242 -176.5t144 -266t49.5 -334.5t-49.5 -334.5t-144 -265.5t-242 -176t-333.5 -63zM321 819q0 -303 142 -479t409 -176t410 176t143 479t-143 479.5
t-410 176.5t-409 -176.5t-142 -479.5z" />
    <glyph glyph-name="P" unicode="P" horiz-adv-x="1531" 
d="M212 0v1638h647q298 0 447 -133.5t149 -361.5t-149 -361t-447 -133h-432v-649h-215zM427 831h414q200 0 299 80.5t99 231.5t-99 231t-299 80h-414v-623z" />
    <glyph glyph-name="Q" unicode="Q" horiz-adv-x="1745" 
d="M1282 -228l-179 236q-109 -28 -231 -28q-186 0 -333 63t-241.5 176t-144 265.5t-49.5 334.5t49.5 334.5t144 266t241.5 176.5t333 63t333.5 -63t242 -176.5t144 -266t49.5 -334.5q0 -252 -93 -445t-271 -296l232 -306h-227zM321 819q0 -303 142 -479t409 -176
q64 0 115 10l-220 291h222l172 -229q129 77 196.5 227t67.5 356q0 303 -143 479.5t-410 176.5t-409 -176.5t-142 -479.5z" />
    <glyph glyph-name="R" unicode="R" horiz-adv-x="1565" 
d="M212 0v1638h654q287 0 439 -129.5t152 -365.5q0 -197 -112.5 -314.5t-297.5 -153.5l402 -675h-250l-368 648h-404v-648h-215zM427 829h415q200 0 299 80t99 232t-99 232.5t-299 80.5h-415v-625z" />
    <glyph glyph-name="S" unicode="S" horiz-adv-x="1405" 
d="M712 -20q-205 0 -370 62.5t-261 168.5l146 158q181 -205 489 -205q190 0 286 70.5t96 199.5q0 33 -7.5 62t-18 51.5t-32 42.5t-39 34t-51 28.5t-55.5 22.5t-65 19t-67 16.5l-72 16.5q-75 16 -114.5 25.5t-107.5 31t-105.5 43t-85.5 59t-73 81.5t-43 107t-18 140
q0 199 152 322t439 123q348 0 539 -189l-130 -151q-79 78 -178.5 117t-241.5 39q-193 0 -279.5 -68.5t-86.5 -185.5q0 -33 7.5 -62t18 -51.5t32 -42.5t40 -34t51 -28.5t55.5 -23t64.5 -19.5t67 -17t72.5 -16q75 -17 115 -26.5t107.5 -31t105 -43t85.5 -59t73 -81t43 -106.5
t18 -139q0 -216 -148 -338.5t-453 -122.5z" />
    <glyph glyph-name="T" unicode="T" horiz-adv-x="1489" 
d="M637 0v1454h-564v184h1343v-184h-564v-1454h-215z" />
    <glyph glyph-name="U" unicode="U" horiz-adv-x="1673" 
d="M835 -20q-315 0 -479.5 168.5t-164.5 506.5v983h215v-962q0 -255 106 -378t328 -123t327.5 123t105.5 378v962h209v-967q0 -347 -164.5 -519t-482.5 -172z" />
    <glyph glyph-name="V" unicode="V" horiz-adv-x="1479" 
d="M615 0l-595 1638h225l501 -1452l501 1452h212l-595 -1638h-249z" />
    <glyph glyph-name="W" unicode="W" horiz-adv-x="2283" 
d="M1469 0l-291 1087l-364 -1087h-254l-540 1638h224l444 -1427l397 1193l-63 234h223l363 -1409l438 1409h217l-541 -1638h-253z" />
    <glyph glyph-name="X" unicode="X" horiz-adv-x="1491" 
d="M1233 0l-495 681l-484 -681h-234l608 833l-584 805h238l471 -649l461 649h234l-585 -800l608 -838h-238z" />
    <glyph glyph-name="Y" unicode="Y" horiz-adv-x="1443" 
d="M614 0v594l-594 1044h232l479 -861l478 861h215l-595 -1045v-593h-215z" />
    <glyph glyph-name="Z" unicode="Z" horiz-adv-x="1437" 
d="M108 0v162l946 1292h-913v184h1176v-161l-947 -1292h960v-185h-1222z" />
    <glyph glyph-name="bracketleft" unicode="[" horiz-adv-x="852" 
d="M231 -410v2133h522v-161h-323v-1810h323v-162h-522z" />
    <glyph glyph-name="backslash" unicode="\" horiz-adv-x="991" 
d="M945 -410h-205l-693 2133h205z" />
    <glyph glyph-name="bracketright" unicode="]" horiz-adv-x="852" 
d="M622 1723v-2133h-523v162h323v1810h-323v161h523z" />
    <glyph glyph-name="asciicircum" unicode="^" horiz-adv-x="1115" 
d="M797 1158l-239 414l-239 -414l-190 3l333 564h192l333 -564z" />
    <glyph glyph-name="underscore" unicode="_" horiz-adv-x="1024" 
d="M-5 -289v166h1034v-166h-1034z" />
    <glyph glyph-name="grave" unicode="`" horiz-adv-x="1024" 
d="M616 1378h-183l-283 368h247z" />
    <glyph glyph-name="a" unicode="a" horiz-adv-x="1341" 
d="M531 -20q-191 0 -302.5 89.5t-111.5 254.5q0 301 417 347l190 21q66 7 109 21t65.5 36t31 47.5t8.5 62.5q0 177 -256 177q-149 0 -241 -44t-163 -131l-130 130q82 103 218.5 161.5t318.5 58.5q235 0 347.5 -87.5t112.5 -276.5v-607l33 -240h-203l-26 195
q-48 -93 -151 -154t-267 -61zM327 337q0 -88 63 -137t188 -49q177 0 268.5 96t91.5 302v88q-39 -75 -226 -95l-169 -19q-115 -13 -165.5 -60.5t-50.5 -125.5z" />
    <glyph glyph-name="b" unicode="b" horiz-adv-x="1469" 
d="M817 -20q-149 0 -252 53.5t-152 144.5v-178h-207v1723h207v-710q49 91 152 144.5t252 53.5q259 0 401.5 -159.5t142.5 -456.5q0 -296 -142.5 -455.5t-401.5 -159.5zM413 595q0 -207 91.5 -323.5t277.5 -116.5t277 116.5t91 323.5q0 208 -91.5 324.5t-276.5 116.5
q-186 0 -277.5 -117t-91.5 -324z" />
    <glyph glyph-name="c" unicode="c" horiz-adv-x="1221" 
d="M687 -20q-280 0 -429 163.5t-149 451.5t149 452t429 164q300 0 450 -192l-142 -120q-106 137 -306 137q-187 0 -278.5 -114.5t-91.5 -326.5t91.5 -326t278.5 -114q200 0 306 137l142 -120q-150 -192 -450 -192z" />
    <glyph glyph-name="d" unicode="d" horiz-adv-x="1476" 
d="M634 -20q-252 0 -388.5 163t-136.5 452q0 296 142.5 456t401.5 160q149 0 252 -54t152 -145v711h207v-1483l32 -240h-202l-26 198q-23 -43 -58.5 -79.5t-87.5 -69t-126 -51t-162 -18.5zM319 595q0 -207 91.5 -323.5t277.5 -116.5t277.5 116.5t91.5 323.5t-91.5 324
t-277.5 117t-277.5 -117t-91.5 -324z" />
    <glyph glyph-name="e" unicode="e" horiz-adv-x="1360" 
d="M712 -20q-294 0 -448.5 159.5t-154.5 448.5q0 290 156 456.5t429 166.5t415.5 -162.5t142.5 -446.5q0 -51 -3 -78h-928q23 -375 393 -375q232 0 366 146l128 -126q-180 -189 -496 -189zM322 681h719q-12 172 -100 267.5t-248 95.5q-174 0 -266.5 -95t-104.5 -268z" />
    <glyph glyph-name="f" unicode="f" horiz-adv-x="937" 
d="M281 1356q0 387 425 387q113 0 182 -28v-174q-79 27 -165 27q-75 0 -122.5 -16.5t-71.5 -53t-32.5 -80t-8.5 -110.5v-117h400v-173h-400v-1018h-207v1018h-250v173h250v165z" />
    <glyph glyph-name="g" unicode="g" horiz-adv-x="1469" 
d="M695 -430q-334 0 -520 186l130 143q142 -153 385 -153q174 0 270.5 80t96.5 247v148q-49 -89 -154.5 -144t-252.5 -55q-254 0 -397.5 157t-143.5 434q0 289 142.5 443.5t401.5 154.5q150 0 253 -54t151 -145v179h207v-1118q0 -253 -149.5 -378t-419.5 -125zM319 612
q0 -200 91.5 -312t277.5 -112t277.5 112t91.5 312t-91.5 312t-277.5 112t-277.5 -112t-91.5 -312z" />
    <glyph glyph-name="h" unicode="h" horiz-adv-x="1426" 
d="M206 0v1723h207v-711q50 85 151 142t251 57q416 0 416 -469v-742h-207v713q0 162 -59 241.5t-202 79.5q-166 0 -258 -95t-92 -258v-681h-207z" />
    <glyph glyph-name="i" unicode="i" horiz-adv-x="619" 
d="M206 0v1191h207v-1191h-207zM156 1585q0 65 43 108t110 43t110.5 -43t43.5 -108t-43.5 -108.5t-110.5 -43.5t-110 43.5t-43 108.5z" />
    <glyph glyph-name="j" unicode="j" horiz-adv-x="619" 
d="M78 -430q-115 0 -200 27v183q86 -32 175 -32q84 0 118.5 41t34.5 135v1267h207v-1285q0 -172 -82.5 -254t-252.5 -82zM156 1585q0 65 43 108t110 43t110.5 -43t43.5 -108t-43.5 -108.5t-110.5 -43.5t-110 43.5t-43 108.5z" />
    <glyph glyph-name="k" unicode="k" horiz-adv-x="1215" 
d="M946 0l-533 585v-585h-207v1723h207v-1078l544 546h241l-577 -561l580 -630h-255z" />
    <glyph glyph-name="l" unicode="l" horiz-adv-x="619" 
d="M206 0v1723h207v-1723h-207z" />
    <glyph glyph-name="m" unicode="m" horiz-adv-x="2151" 
d="M212 0v951l-32 240h202l26 -200q43 94 139.5 157t248.5 63q258 0 340 -215q54 95 156.5 155t254.5 60q408 0 408 -494v-717h-207v711q0 162 -54.5 242.5t-189.5 80.5q-151 0 -233.5 -96t-82.5 -257v-681h-207v711q0 162 -53 242.5t-183 80.5q-156 0 -241 -96.5
t-85 -257.5v-680h-207z" />
    <glyph glyph-name="n" unicode="n" horiz-adv-x="1433" 
d="M212 0v951l-32 240h202l26 -199q46 90 150 154.5t263 64.5q416 0 416 -469v-742h-207v713q0 162 -59 241.5t-201 79.5q-166 0 -258.5 -95t-92.5 -258v-681h-207z" />
    <glyph glyph-name="o" unicode="o" horiz-adv-x="1383" 
d="M691 -20q-273 0 -427.5 164t-154.5 451t154.5 451.5t427.5 164.5q274 0 428.5 -164.5t154.5 -451.5t-154.5 -451t-428.5 -164zM319 595q0 -207 94 -323.5t278 -116.5q185 0 279 116.5t94 323.5q0 206 -94 323.5t-279 117.5q-184 0 -278 -117t-94 -324z" />
    <glyph glyph-name="p" unicode="p" horiz-adv-x="1476" 
d="M212 -410v1361l-32 240h202l26 -198q23 43 58.5 79.5t87.5 69t126 51t162 18.5q252 0 388.5 -163.5t136.5 -452.5q0 -296 -143 -455.5t-401 -159.5q-149 0 -252 53.5t-152 144.5v-588h-207zM419 595q0 -207 91.5 -323.5t277.5 -116.5t277.5 116.5t91.5 323.5t-91.5 324
t-277.5 117t-277.5 -117t-91.5 -324z" />
    <glyph glyph-name="q" unicode="q" horiz-adv-x="1469" 
d="M1057 -410v589q-48 -91 -151.5 -145t-252.5 -54q-259 0 -401.5 159.5t-142.5 455.5t142.5 456t401.5 160q149 0 252 -54t152 -145v179h207v-1601h-207zM319 595q0 -207 91.5 -323.5t277.5 -116.5t277.5 116.5t91.5 323.5t-91.5 324t-277.5 117t-277.5 -117t-91.5 -324z
" />
    <glyph glyph-name="r" unicode="r" horiz-adv-x="970" 
d="M212 0v951l-32 240h202l27 -208q43 108 138.5 168t229.5 60q70 0 118 -16v-196q-54 18 -126 18q-350 0 -350 -430v-587h-207z" />
    <glyph glyph-name="s" unicode="s" horiz-adv-x="1135" 
d="M588 -20q-166 0 -296.5 49.5t-207.5 136.5l137 146q127 -158 361 -158q128 0 191.5 43t63.5 122q0 24 -4.5 44.5t-16.5 36.5t-23.5 28t-34.5 23t-40.5 18t-50.5 15t-55.5 13t-63.5 13q-56 11 -88.5 18.5t-82.5 23t-79.5 31.5t-64.5 43t-54.5 59t-32.5 78t-13 102
q0 153 118 249.5t344 96.5q152 0 259 -44.5t164 -107.5l-126 -136q-109 114 -301 114q-132 0 -193 -46t-61 -118q0 -32 8 -56t29 -42.5t41 -30.5t59.5 -23t67.5 -17.5t82 -16.5q106 -20 178 -45.5t129 -66.5t83.5 -102t26.5 -147q0 -164 -117 -255t-336 -91z" />
    <glyph glyph-name="t" unicode="t" horiz-adv-x="992" 
d="M673 -17q-96 0 -164.5 17t-123 58.5t-81.5 116.5t-27 185v658h-250v173h250v342l207 54v-396h400v-173h-400v-637q0 -127 54.5 -174.5t169.5 -47.5q90 0 176 22v-174q-81 -24 -211 -24z" />
    <glyph glyph-name="u" unicode="u" horiz-adv-x="1427" 
d="M609 -20q-413 0 -413 469v742h207v-713q0 -162 58.5 -241.5t199.5 -79.5q165 0 256.5 95t91.5 258v681h206v-951l33 -240h-203l-25 199q-45 -90 -148.5 -154.5t-262.5 -64.5z" />
    <glyph glyph-name="v" unicode="v" horiz-adv-x="1267" 
d="M503 0l-464 1191h221l379 -1025l380 1025h209l-464 -1191h-261z" />
    <glyph glyph-name="w" unicode="w" horiz-adv-x="1950" 
d="M1235 0l-260 734l-260 -734h-249l-414 1191h219l334 -1028l278 825l-68 203h213l330 -1025l333 1025h208l-415 -1191h-249z" />
    <glyph glyph-name="x" unicode="x" horiz-adv-x="1256" 
d="M980 0l-359 466l-351 -466h-231l473 607l-451 584h237l338 -438l329 438h231l-451 -580l473 -611h-238z" />
    <glyph glyph-name="y" unicode="y" horiz-adv-x="1219" 
d="M321 -410l189 449l-495 1152h221l385 -943l374 943h209l-674 -1601h-209z" />
    <glyph glyph-name="z" unicode="z" horiz-adv-x="1187" 
d="M99 0v159l719 859h-698v173h952v-159l-718 -859h729v-173h-984z" />
    <glyph glyph-name="braceleft" unicode="{" horiz-adv-x="929" 
d="M659 -410q-178 0 -256 75.5t-78 239.5v533q0 75 -34.5 105.5t-110.5 30.5h-51v165h51q76 0 110.5 30.5t34.5 105.5v533q0 164 78 239.5t256 75.5h171v-164h-131q-105 0 -140 -36t-35 -148v-519q0 -87 -37 -136t-115 -63q152 -28 152 -200v-519q0 -112 35 -147.5
t140 -35.5h131v-165h-171z" />
    <glyph glyph-name="bar" unicode="|" horiz-adv-x="614" 
d="M212 1723h190v-2133h-190v2133z" />
    <glyph glyph-name="braceright" unicode="}" horiz-adv-x="929" 
d="M270 1723q178 0 257 -75.5t79 -239.5v-533q0 -75 34 -105.5t110 -30.5h51v-165h-51q-76 0 -110 -30.5t-34 -105.5v-533q0 -164 -79 -239.5t-257 -75.5h-171v165h132q105 0 140 35.5t35 147.5v519q0 87 37 136t115 63q-152 28 -152 200v519q0 112 -35 148t-140 36h-132
v164h171z" />
    <glyph glyph-name="asciitilde" unicode="~" horiz-adv-x="1260" 
d="M129 469q0 77 15 144t46 124.5t88 91t133 33.5q60 0 113.5 -21.5t92.5 -52t74 -61t72 -52t72 -21.5q108 0 108 208h188q0 -77 -15 -144t-46.5 -124.5t-88 -91t-132.5 -33.5q-60 0 -113.5 21.5t-92.5 52t-74 61t-72 52t-72 21.5q-108 0 -108 -208h-188z" />
    <glyph glyph-name="uni00A0" unicode="&#xa0;" horiz-adv-x="469" 
 />
    <glyph glyph-name="exclamdown" unicode="&#xa1;" horiz-adv-x="571" 
d="M373 742l20 -1189h-214l20 1189h174zM133 1050q0 65 44 109.5t109 44.5q64 0 109 -45t45 -109q0 -65 -44.5 -109.5t-109.5 -44.5t-109 44.5t-44 109.5z" />
    <glyph glyph-name="cent" unicode="&#xa2;" horiz-adv-x="1221" 
d="M598 -220v204q-238 26 -363.5 186.5t-125.5 424.5t125.5 425t363.5 187v181h155v-179q250 -20 384 -190l-142 -120q-87 114 -242 133v-873q154 19 242 133l142 -120q-134 -170 -384 -190v-202h-155zM319 595q0 -380 279 -433v867q-279 -53 -279 -434z" />
    <glyph glyph-name="sterling" unicode="&#xa3;" horiz-adv-x="1443" 
d="M224 162q110 58 176.5 153.5t66.5 210.5q0 87 -39 190h-245v150h182q-79 185 -79 323q0 212 142.5 341t409.5 129q179 0 303.5 -59t211.5 -172l-148 -131q-72 96 -162 137t-205 41q-160 0 -248 -75.5t-88 -219.5q0 -54 14 -113.5t28.5 -98t42.5 -102.5h525v-150h-465
q31 -95 31 -175q0 -121 -57.5 -215t-137.5 -141h848v-185h-1107v162z" />
    <glyph glyph-name="currency" unicode="&#xa4;" horiz-adv-x="1386" 
d="M693 223q-154 0 -279 87l-158 -157l-127 127l158 157q-87 125 -87 280q0 154 87 279l-158 158l127 127l158 -158q125 87 279 87q155 0 280 -87l157 158l127 -127l-157 -157q87 -127 87 -280t-87 -280l157 -157l-127 -127l-157 157q-125 -87 -280 -87zM379 717
q0 -131 91.5 -222.5t222.5 -91.5t222.5 91.5t91.5 222.5t-91.5 222.5t-222.5 91.5t-222.5 -91.5t-91.5 -222.5z" />
    <glyph glyph-name="yen" unicode="&#xa5;" horiz-adv-x="1527" 
d="M185 290v141h471v163h-471v141h391l-514 903h232l479 -861l478 861h215l-514 -903h370v-141h-450l-1 -1v-162h451v-141h-451v-290h-215v290h-471z" />
    <glyph glyph-name="brokenbar" unicode="&#xa6;" horiz-adv-x="614" 
d="M212 337h190v-747h-190v747zM212 976v747h190v-747h-190z" />
    <glyph glyph-name="section" unicode="&#xa7;" horiz-adv-x="1287" 
d="M622 -430q-284 0 -446 141l116 155q123 -120 328 -120q130 0 200.5 49.5t70.5 142.5q0 32 -10 59t-23.5 46.5t-41.5 38t-49.5 30t-62 25t-64.5 20.5t-71 20q-82 22 -141 42.5t-124.5 56t-106 78.5t-67 108t-26.5 146q0 123 65 218t203 144q-186 106 -186 308
q0 168 119.5 274.5t360.5 106.5q284 0 445 -140l-116 -156q-124 121 -327 121q-130 0 -201 -50t-71 -143q0 -32 10 -59t23.5 -46.5t41.5 -38t49.5 -30t62 -25t64.5 -20.5t71 -20q82 -22 141 -42.5t124.5 -56t106 -78.5t67 -108t26.5 -146q0 -123 -65 -218t-203 -144
q186 -106 186 -309q0 -168 -119 -274t-360 -106zM308 631q0 -30 6.5 -56t16 -46.5t28.5 -39.5t34.5 -32t44.5 -27t48 -22t55 -19.5t56 -17t61 -16.5q5 -2 15 -4.5t15 -3.5q142 13 216.5 79t74.5 172q0 30 -6.5 56t-16 46t-28.5 39t-34.5 32t-45 27t-48 22t-55 19.5t-56 17
t-60.5 16.5l-30 9q-143 -12 -217 -78.5t-74 -172.5z" />
    <glyph glyph-name="dieresis" unicode="&#xa8;" horiz-adv-x="1024" 
d="M243 1403q-62 0 -103 42t-41 104t41 103.5t103 41.5t103.5 -41.5t41.5 -103.5t-41.5 -104t-103.5 -42zM636 1549q0 62 41.5 103.5t103.5 41.5t103 -41.5t41 -103.5t-41 -104t-103 -42t-103.5 42t-41.5 104z" />
    <glyph glyph-name="copyright" unicode="&#xa9;" horiz-adv-x="1897" 
d="M949 -20q-238 0 -431 107.5t-303.5 300t-110.5 431.5t110.5 431.5t303.5 300.5t431 108t431 -108t303.5 -300.5t110.5 -431.5t-110.5 -431.5t-303.5 -300t-431 -107.5zM270 819q0 -197 87 -353.5t242 -243.5t350 -87t350 87t242 243.5t87 353.5t-87 353.5t-242 243.5
t-350 87t-350 -87t-242 -243.5t-87 -353.5zM485 819q0 224 123 359.5t346 135.5q128 0 224.5 -49.5t151.5 -127.5l-126 -107q-89 129 -255 129q-142 0 -213.5 -88.5t-71.5 -251.5t71.5 -251t213.5 -88q167 0 255 128l126 -107q-55 -78 -151.5 -127.5t-224.5 -49.5
q-223 0 -346 135.5t-123 359.5z" />
    <glyph glyph-name="ordfeminine" unicode="&#xaa;" horiz-adv-x="1086" 
d="M423 673q-152 0 -240.5 72t-88.5 204q0 242 334 280l153 17q97 11 130 39.5t33 86.5q0 133 -194 133q-116 0 -191 -34.5t-129 -101.5l-111 115q143 175 435 175q192 0 283.5 -71.5t91.5 -225.5v-479l27 -193h-181l-20 153q-39 -74 -120.5 -122t-211.5 -48zM282 965
q0 -67 48 -104t142 -37q272 0 272 300v68q-30 -58 -172 -73l-126 -14q-164 -17 -164 -140z" />
    <glyph glyph-name="guillemotleft" unicode="&#xab;" horiz-adv-x="1148" 
d="M386 261l-298 381l298 381h231l-298 -381l298 -381h-231zM532 642l298 381h231l-298 -381l298 -381h-231z" />
    <glyph glyph-name="logicalnot" unicode="&#xac;" horiz-adv-x="1588" 
d="M180 964v183h1229v-860h-184v677h-1045z" />
    <glyph glyph-name="uni00AD" unicode="&#xad;" horiz-adv-x="809" 
d="M91 556v173h628v-173h-628z" />
    <glyph glyph-name="registered" unicode="&#xae;" horiz-adv-x="1266" 
d="M633 662q-139 0 -255.5 63.5t-185 178.5t-68.5 256t68.5 256t185 179t255.5 64t255.5 -64t185 -179t68.5 -256t-68.5 -256t-185 -178.5t-255.5 -63.5zM244 1160q0 -168 110.5 -278.5t278.5 -110.5t278.5 110.5t110.5 278.5t-110.5 278.5t-278.5 110.5t-278.5 -110.5
t-110.5 -278.5zM436 888v545h227q99 0 151.5 -46.5t52.5 -129.5q0 -59 -32 -98t-85 -57l132 -214h-137l-114 197h-75v-197h-120zM556 1187h103q86 0 86 69q0 70 -86 70h-103v-139z" />
    <glyph glyph-name="macron" unicode="&#xaf;" horiz-adv-x="1024" 
d="M177 1443v173h670v-173h-670z" />
    <glyph glyph-name="degree" unicode="&#xb0;" horiz-adv-x="865" 
d="M433 983q-147 0 -246 96t-99 241q0 146 99 242.5t246 96.5t246 -96.5t99 -242.5q0 -145 -99 -241t-246 -96zM257 1320q0 -81 48.5 -133.5t127.5 -52.5q80 0 128 52.5t48 133.5q0 82 -48 134.5t-128 52.5q-79 0 -127.5 -53t-48.5 -134z" />
    <glyph glyph-name="plusminus" unicode="&#xb1;" horiz-adv-x="1588" 
d="M180 771v179h521v369h187v-369h521v-179h-521v-369h-187v369h-521zM180 66v180h1229v-180h-1229z" />
    <glyph glyph-name="two.sups" unicode="&#xb2;" horiz-adv-x="1001" 
d="M101 1231q0 56 12.5 105t30 85t49.5 70t58 55.5t70.5 46.5t71 38t73.5 34q53 24 80 37t63.5 35t53.5 41t30 47t13 60q0 67 -49 106t-147 39q-173 0 -279 -130l-129 123q148 171 413 171q189 0 285.5 -83.5t96.5 -223.5q0 -42 -9.5 -79.5t-24 -66t-41.5 -56t-51 -47
t-64.5 -42.5t-70 -37.5t-78.5 -37.5q-56 -26 -87 -41.5t-68 -38t-55.5 -41.5t-32.5 -45t-15 -55h593v-167h-792v98z" />
    <glyph glyph-name="three.sups" unicode="&#xb3;" horiz-adv-x="980" 
d="M465 1119q-257 0 -395 128l125 141q103 -104 273 -104q106 0 160 41.5t54 118.5q0 149 -211 149h-149v158h110q217 0 217 139q0 67 -48 103.5t-137 36.5q-155 0 -262 -100l-119 136q160 128 392 128q181 0 275.5 -75.5t94.5 -195.5q0 -87 -49.5 -147.5t-135.5 -82.5
q102 -21 161 -91t59 -175q0 -142 -108.5 -225t-306.5 -83z" />
    <glyph glyph-name="acute" unicode="&#xb4;" horiz-adv-x="1024" 
d="M408 1378l219 368h247l-283 -368h-183z" />
    <glyph glyph-name="uni00B5" unicode="&#xb5;" horiz-adv-x="1437" 
d="M206 -410v1601h207v-713q0 -162 58.5 -241.5t199.5 -79.5q165 0 256 95t91 258v681h207v-951l33 -240h-203l-25 195q-42 -93 -133.5 -154t-222.5 -61q-178 0 -268 93q7 -162 7 -483h-207z" />
    <glyph glyph-name="paragraph" unicode="&#xb6;" horiz-adv-x="1430" 
d="M674 -410v1011h-25q-248 0 -396.5 138t-148.5 380t148.5 380.5t396.5 138.5h569v-2048h-188v1873h-168v-1873h-188z" />
    <glyph glyph-name="periodcentered" unicode="&#xb7;" horiz-adv-x="540" 
d="M270 682q-65 0 -109 45t-44 110t44 109.5t109 44.5t109.5 -44.5t44.5 -109.5t-44.5 -110t-109.5 -45z" />
    <glyph glyph-name="cedilla" unicode="&#xb8;" horiz-adv-x="1024" 
d="M489 -439q-84 0 -159 22v128q78 -27 147 -27q106 0 106 71q0 63 -84 63q-33 0 -66 -9l-37 62l52 129h129l-33 -80h12q92 0 144 -43t52 -123q0 -96 -72 -144.5t-191 -48.5z" />
    <glyph glyph-name="one.sups" unicode="&#xb9;" horiz-adv-x="985" 
d="M149 1133v167h319v590q-78 -83 -315 -83v166q154 0 231 50.5t97 157.5h180v-881h277v-167h-789z" />
    <glyph glyph-name="ordmasculine" unicode="&#xba;" horiz-adv-x="1116" 
d="M558 673q-221 0 -346 132t-125 361t125 361t346 132q222 0 347 -132t125 -361t-125 -361t-347 -132zM275 1166q0 -158 71 -248t212 -90q142 0 213 89.5t71 248.5t-71 248.5t-213 89.5q-141 0 -212 -89.5t-71 -248.5z" />
    <glyph glyph-name="guillemotright" unicode="&#xbb;" horiz-adv-x="1148" 
d="M763 261h-231l298 381l-298 381h231l298 -381zM88 261l298 381l-298 381h231l298 -381l-298 -381h-231z" />
    <glyph glyph-name="onequarter" unicode="&#xbc;" horiz-adv-x="2524" 
d="M149 590v168h319v589q-77 -82 -315 -82v166q154 0 231 50t97 157h180v-880h277v-168h-789zM761 0l1000 1638h210l-1000 -1638h-210zM1533 189v151l529 709h223v-693h163v-167h-163v-189h-192v189h-560zM1741 356h352v472z" />
    <glyph glyph-name="onehalf" unicode="&#xbd;" horiz-adv-x="2671" 
d="M149 590v168h319v589q-77 -82 -315 -82v166q154 0 231 50t97 157h180v-880h277v-168h-789zM761 0l1000 1638h210l-1000 -1638h-210zM1772 0v98q0 56 12.5 105t30 85t49.5 70t58 55.5t70.5 46.5t71 38t73.5 34q52 23 80 37t63.5 35.5t53 41t30 47.5t12.5 60
q0 67 -49 105.5t-147 38.5q-172 0 -278 -130l-130 124q148 171 413 171q189 0 285.5 -84t96.5 -224q0 -42 -9.5 -79.5t-24 -66t-41.5 -56t-51 -47t-64.5 -42.5t-70 -37.5t-78.5 -37.5q-71 -33 -107 -52t-76 -46.5t-56.5 -56.5t-18.5 -65h594v-168h-792z" />
    <glyph glyph-name="threequarters" unicode="&#xbe;" horiz-adv-x="2378" 
d="M465 577q-257 0 -395 128l125 140q103 -104 273 -104q106 0 160 41.5t54 118.5q0 149 -211 149h-149v158h110q217 0 217 140q0 67 -48 103t-137 36q-156 0 -262 -99l-119 135q161 129 392 129q181 0 275.5 -76t94.5 -196q0 -87 -49.5 -147.5t-135.5 -82.5
q102 -21 161 -91t59 -175q0 -142 -108 -224.5t-307 -82.5zM616 0l1000 1638h210l-1000 -1638h-210zM1388 189v151l528 709h223v-693h164v-167h-164v-189h-192v189h-559zM1595 356h352v472z" />
    <glyph glyph-name="questiondown" unicode="&#xbf;" horiz-adv-x="1234" 
d="M735 682q0 -74 -14 -136t-33.5 -104t-55 -82t-63.5 -64t-74 -57q-46 -34 -70.5 -55t-54.5 -56t-43 -75.5t-13 -90.5q0 -109 73.5 -177.5t227.5 -68.5q252 0 400 204l145 -141q-85 -108 -222 -177.5t-330 -69.5q-248 0 -376 114t-128 300q0 72 19 132.5t56 110.5t75 85.5
t93 77.5q54 41 84 68.5t57 66.5t37.5 85t10.5 110v60h199v-60zM482 1050q0 65 44 109.5t109 44.5t109.5 -44.5t44.5 -109.5t-44.5 -109.5t-109.5 -44.5t-109 44.5t-44 109.5z" />
    <glyph glyph-name="Agrave" unicode="&#xc0;" horiz-adv-x="1479" 
d="M20 0l584 1638h272l583 -1638h-225l-160 475h-675l-160 -475h-219zM378 2119h248l219 -368h-183zM459 653h555l-277 820z" />
    <glyph glyph-name="Aacute" unicode="&#xc1;" horiz-adv-x="1479" 
d="M20 0l584 1638h272l583 -1638h-225l-160 475h-675l-160 -475h-219zM459 653h555l-277 820zM629 1751l219 368h248l-284 -368h-183z" />
    <glyph glyph-name="Acircumflex" unicode="&#xc2;" horiz-adv-x="1479" 
d="M20 0l584 1638h272l583 -1638h-225l-160 475h-675l-160 -475h-219zM335 1751l270 368h263l271 -368h-193l-209 241l-210 -241h-192zM459 653h555l-277 820z" />
    <glyph glyph-name="Atilde" unicode="&#xc3;" horiz-adv-x="1479" 
d="M20 0l584 1638h272l583 -1638h-225l-160 475h-675l-160 -475h-219zM330 1751q0 70 11 128t35.5 107t69.5 76.5t107 27.5q48 0 91.5 -17t76 -40.5t61.5 -47.5t59 -41t57 -17q84 0 84 163h162q0 -70 -11 -128t-36 -107t-70 -76.5t-107 -27.5q-48 0 -91.5 17t-76 40.5
t-61.5 47.5t-59 41t-57 17q-83 0 -83 -163h-162zM459 653h555l-277 820z" />
    <glyph glyph-name="Adieresis" unicode="&#xc4;" horiz-adv-x="1479" 
d="M20 0l584 1638h272l583 -1638h-225l-160 475h-675l-160 -475h-219zM345 1922q0 62 40.5 103t102.5 41t103.5 -41t41.5 -103t-41.5 -104t-103.5 -42t-102.5 41.5t-40.5 104.5zM459 653h555l-277 820zM841 1922q0 62 41 103t103 41t103 -41t41 -103t-41 -104t-103 -42
t-103 42t-41 104z" />
    <glyph glyph-name="Aring" unicode="&#xc5;" horiz-adv-x="1479" 
d="M20 0l584 1638h272l583 -1638h-225l-160 475h-675l-160 -475h-219zM459 1976q0 116 80 191t198 75t198 -75t80 -191t-80 -191t-198 -75t-198 75t-80 191zM459 653h555l-277 820zM612 1976q0 -56 35 -92.5t90 -36.5t90 36.5t35 92.5t-35 92t-90 36t-90 -36t-35 -92z" />
    <glyph glyph-name="AE" unicode="&#xc6;" horiz-adv-x="2409" 
d="M-15 0l1062 1638h1230v-184h-859v-517h765v-179h-765v-573h859v-185h-1074v480h-681l-306 -480h-231zM636 658h567v796h-59z" />
    <glyph glyph-name="Ccedilla" unicode="&#xc7;" horiz-adv-x="1582" 
d="M872 -439q-84 0 -159 22v128q78 -27 147 -27q106 0 106 71q0 63 -84 63q-33 0 -66 -9l-37 62l45 111q-233 15 -397 126t-243.5 292t-79.5 419q0 187 50.5 340.5t148 265t249 173t344.5 61.5q219 0 371 -78t241 -202l-142 -134q-80 109 -191.5 169.5t-279.5 60.5
q-280 0 -427 -174t-147 -482q0 -307 147 -481t427 -174q168 0 279.5 60t191.5 169l142 -133q-83 -116 -221 -192.5t-335 -86.5l-25 -61h11q92 0 144.5 -43t52.5 -123q0 -96 -72 -144.5t-191 -48.5z" />
    <glyph glyph-name="Egrave" unicode="&#xc8;" horiz-adv-x="1418" 
d="M212 0v1638h1075v-184h-860v-517h765v-179h-765v-573h860v-185h-1075zM403 2119h248l219 -368h-183z" />
    <glyph glyph-name="Eacute" unicode="&#xc9;" horiz-adv-x="1418" 
d="M212 0v1638h1075v-184h-860v-517h765v-179h-765v-573h860v-185h-1075zM654 1751l219 368h248l-283 -368h-184z" />
    <glyph glyph-name="Ecircumflex" unicode="&#xca;" horiz-adv-x="1418" 
d="M212 0v1638h1075v-184h-860v-517h765v-179h-765v-573h860v-185h-1075zM360 1751l271 368h263l270 -368h-192l-210 241l-209 -241h-193z" />
    <glyph glyph-name="Edieresis" unicode="&#xcb;" horiz-adv-x="1418" 
d="M212 0v1638h1075v-184h-860v-517h765v-179h-765v-573h860v-185h-1075zM370 1922q0 62 41 103t103 41t103 -41t41 -103t-41 -104t-103 -42t-103 42t-41 104zM866 1922q0 62 41.5 103t103.5 41t103 -41t41 -103t-41 -104t-103 -42t-103.5 42t-41.5 104z" />
    <glyph glyph-name="Igrave" unicode="&#xcc;" horiz-adv-x="639" 
d="M212 0v1638h215v-1638h-215zM-39 2119h248l219 -368h-183z" />
    <glyph glyph-name="Iacute" unicode="&#xcd;" horiz-adv-x="639" 
d="M212 0v1638h215v-1638h-215zM212 1751l219 368h248l-284 -368h-183z" />
    <glyph glyph-name="Icircumflex" unicode="&#xce;" horiz-adv-x="639" 
d="M212 0v1638h215v-1638h-215zM-82 1751l270 368h264l270 -368h-193l-209 241l-209 -241h-193z" />
    <glyph glyph-name="Idieresis" unicode="&#xcf;" horiz-adv-x="639" 
d="M212 0v1638h215v-1638h-215zM-72 1922q0 62 41 103t103 41t103 -41t41 -103t-41 -104t-103 -42t-103 42t-41 104zM424 1922q0 62 41 103t103 41t103 -41t41 -103t-41 -104t-103 -42t-103 42t-41 104z" />
    <glyph glyph-name="Eth" unicode="&#xd0;" horiz-adv-x="1683" 
d="M218 0v740h-177v162h177v736h519q171 0 311 -40t238 -112.5t164.5 -175t98 -225.5t31.5 -266t-31.5 -266t-98 -225.5t-164.5 -175t-238 -112.5t-311 -40h-519zM432 184h291q327 0 483.5 166t156.5 469t-156.5 469t-483.5 166h-291v-552h399v-162h-399v-556z" />
    <glyph glyph-name="Ntilde" unicode="&#xd1;" horiz-adv-x="1735" 
d="M212 0v1638h267l839 -1366v1366h205v-1638h-267l-839 1366v-1366h-205zM471 1751q0 70 11 128t36 107t70 76.5t107 27.5q48 0 91.5 -17t76 -40.5t61 -47.5t58.5 -41t57 -17q84 0 84 163h162q0 -70 -11 -128t-36 -107t-70 -76.5t-107 -27.5q-48 0 -91.5 17t-76 40.5
t-61 47.5t-58.5 41t-57 17q-84 0 -84 -163h-162z" />
    <glyph glyph-name="Ograve" unicode="&#xd2;" horiz-adv-x="1745" 
d="M872 -20q-186 0 -333 63t-241.5 176t-144 265.5t-49.5 334.5t49.5 334.5t144 266t241.5 176.5t333 63t333.5 -63t242 -176.5t144 -266t49.5 -334.5t-49.5 -334.5t-144 -265.5t-242 -176t-333.5 -63zM321 819q0 -303 142 -479t409 -176t410 176t143 479t-143 479.5
t-410 176.5t-409 -176.5t-142 -479.5zM514 2119h247l219 -368h-183z" />
    <glyph glyph-name="Oacute" unicode="&#xd3;" horiz-adv-x="1745" 
d="M872 -20q-186 0 -333 63t-241.5 176t-144 265.5t-49.5 334.5t49.5 334.5t144 266t241.5 176.5t333 63t333.5 -63t242 -176.5t144 -266t49.5 -334.5t-49.5 -334.5t-144 -265.5t-242 -176t-333.5 -63zM321 819q0 -303 142 -479t409 -176t410 176t143 479t-143 479.5
t-410 176.5t-409 -176.5t-142 -479.5zM764 1751l220 368h247l-283 -368h-184z" />
    <glyph glyph-name="Ocircumflex" unicode="&#xd4;" horiz-adv-x="1745" 
d="M872 -20q-186 0 -333 63t-241.5 176t-144 265.5t-49.5 334.5t49.5 334.5t144 266t241.5 176.5t333 63t333.5 -63t242 -176.5t144 -266t49.5 -334.5t-49.5 -334.5t-144 -265.5t-242 -176t-333.5 -63zM321 819q0 -303 142 -479t409 -176t410 176t143 479t-143 479.5
t-410 176.5t-409 -176.5t-142 -479.5zM471 1751l270 368h263l270 -368h-192l-210 241l-209 -241h-192z" />
    <glyph glyph-name="Otilde" unicode="&#xd5;" horiz-adv-x="1745" 
d="M872 -20q-186 0 -333 63t-241.5 176t-144 265.5t-49.5 334.5t49.5 334.5t144 266t241.5 176.5t333 63t333.5 -63t242 -176.5t144 -266t49.5 -334.5t-49.5 -334.5t-144 -265.5t-242 -176t-333.5 -63zM321 819q0 -303 142 -479t409 -176t410 176t143 479t-143 479.5
t-410 176.5t-409 -176.5t-142 -479.5zM465 1751q0 70 11 128t36 107t70 76.5t107 27.5q48 0 91.5 -17t76 -40.5t61.5 -47.5t59 -41t57 -17q83 0 83 163h162q0 -70 -11 -128t-35.5 -107t-69.5 -76.5t-107 -27.5q-48 0 -91.5 17t-76 40.5t-61.5 47.5t-59 41t-57 17
q-83 0 -83 -163h-163z" />
    <glyph glyph-name="Odieresis" unicode="&#xd6;" horiz-adv-x="1745" 
d="M872 -20q-186 0 -333 63t-241.5 176t-144 265.5t-49.5 334.5t49.5 334.5t144 266t241.5 176.5t333 63t333.5 -63t242 -176.5t144 -266t49.5 -334.5t-49.5 -334.5t-144 -265.5t-242 -176t-333.5 -63zM321 819q0 -303 142 -479t409 -176t410 176t143 479t-143 479.5
t-410 176.5t-409 -176.5t-142 -479.5zM480 1922q0 62 41 103t103 41t103.5 -41t41.5 -103t-41.5 -104t-103.5 -42t-103 42t-41 104zM976 1922q0 62 41.5 103t103.5 41t103 -41t41 -103t-41 -104t-103 -42t-103.5 42t-41.5 104z" />
    <glyph glyph-name="multiply" unicode="&#xd7;" horiz-adv-x="1589" 
d="M1164 218l-369 369l-370 -370l-130 130l370 370l-370 369l130 131l370 -370l369 369l130 -130l-369 -369l369 -369z" />
    <glyph glyph-name="Oslash" unicode="&#xd8;" horiz-adv-x="1745" 
d="M872 -20q-208 0 -363 76l-95 -158h-191l149 247q-132 111 -200 284.5t-68 389.5q0 182 49.5 334.5t144 266t241.5 176.5t333 63q205 0 363 -76l96 158h191l-149 -247q132 -111 200 -285t68 -390q0 -182 -49.5 -334.5t-144 -265.5t-242 -176t-333.5 -63zM321 819
q0 -324 159 -498l656 1096q-116 58 -264 58q-267 0 -409 -176.5t-142 -479.5zM610 222q113 -58 262 -58q267 0 410 176t143 479q0 325 -160 499z" />
    <glyph glyph-name="Ugrave" unicode="&#xd9;" horiz-adv-x="1673" 
d="M835 -20q-315 0 -479.5 168.5t-164.5 506.5v983h215v-962q0 -255 106 -378t328 -123t327.5 123t105.5 378v962h209v-967q0 -347 -164.5 -519t-482.5 -172zM481 2119h248l219 -368h-184z" />
    <glyph glyph-name="Uacute" unicode="&#xda;" horiz-adv-x="1673" 
d="M835 -20q-315 0 -479.5 168.5t-164.5 506.5v983h215v-962q0 -255 106 -378t328 -123t327.5 123t105.5 378v962h209v-967q0 -347 -164.5 -519t-482.5 -172zM732 1751l219 368h248l-284 -368h-183z" />
    <glyph glyph-name="Ucircumflex" unicode="&#xdb;" horiz-adv-x="1673" 
d="M835 -20q-315 0 -479.5 168.5t-164.5 506.5v983h215v-962q0 -255 106 -378t328 -123t327.5 123t105.5 378v962h209v-967q0 -347 -164.5 -519t-482.5 -172zM438 1751l270 368h263l271 -368h-193l-209 241l-210 -241h-192z" />
    <glyph glyph-name="Udieresis" unicode="&#xdc;" horiz-adv-x="1673" 
d="M835 -20q-315 0 -479.5 168.5t-164.5 506.5v983h215v-962q0 -255 106 -378t328 -123t327.5 123t105.5 378v962h209v-967q0 -347 -164.5 -519t-482.5 -172zM447 1922q0 62 41 103t103 41t103.5 -41t41.5 -103t-41.5 -104t-103.5 -42t-103 42t-41 104zM944 1922
q0 62 41 103t103 41t103 -41t41 -103t-41 -104t-103 -42t-103 42t-41 104z" />
    <glyph glyph-name="Yacute" unicode="&#xdd;" horiz-adv-x="1443" 
d="M614 0v594l-594 1044h232l479 -861l478 861h215l-595 -1045v-593h-215zM620 1751l219 368h248l-284 -368h-183z" />
    <glyph glyph-name="Thorn" unicode="&#xde;" horiz-adv-x="1531" 
d="M212 0v1638h215v-324h432q298 0 447 -133.5t149 -361.5t-149 -361.5t-447 -133.5h-432v-324h-215zM427 507h414q200 0 299 80.5t99 231.5t-99 231t-299 80h-414v-623z" />
    <glyph glyph-name="germandbls" unicode="&#xdf;" horiz-adv-x="1469" 
d="M815 -20q-128 0 -230 26v189q93 -40 221 -40q162 0 253 76.5t91 243.5q0 174 -97.5 262t-283.5 88h-130v173h90q181 0 268 75.5t87 211.5q0 128 -78 205.5t-235 77.5q-183 0 -270.5 -96.5t-87.5 -294.5v-1177h-207v1184q0 272 143.5 415.5t427.5 143.5q109 0 197 -24.5
t146.5 -65.5t97.5 -97.5t56.5 -117.5t17.5 -129q0 -141 -72 -237.5t-205 -134.5q170 -42 258 -162t88 -304q0 -248 -144.5 -369.5t-401.5 -121.5z" />
    <glyph glyph-name="agrave" unicode="&#xe0;" horiz-adv-x="1341" 
d="M531 -20q-191 0 -302.5 89.5t-111.5 254.5q0 301 417 347l190 21q66 7 109 21t65.5 36t31 47.5t8.5 62.5q0 177 -256 177q-149 0 -241 -44t-163 -131l-130 130q82 103 218.5 161.5t318.5 58.5q235 0 347.5 -87.5t112.5 -276.5v-607l33 -240h-203l-26 195
q-48 -93 -151 -154t-267 -61zM291 1746h248l219 -368h-184zM327 337q0 -88 63 -137t188 -49q177 0 268.5 96t91.5 302v88q-39 -75 -226 -95l-169 -19q-115 -13 -165.5 -60.5t-50.5 -125.5z" />
    <glyph glyph-name="aacute" unicode="&#xe1;" horiz-adv-x="1341" 
d="M531 -20q-191 0 -302.5 89.5t-111.5 254.5q0 301 417 347l190 21q66 7 109 21t65.5 36t31 47.5t8.5 62.5q0 177 -256 177q-149 0 -241 -44t-163 -131l-130 130q82 103 218.5 161.5t318.5 58.5q235 0 347.5 -87.5t112.5 -276.5v-607l33 -240h-203l-26 195
q-48 -93 -151 -154t-267 -61zM327 337q0 -88 63 -137t188 -49q177 0 268.5 96t91.5 302v88q-39 -75 -226 -95l-169 -19q-115 -13 -165.5 -60.5t-50.5 -125.5zM550 1378l219 368h247l-283 -368h-183z" />
    <glyph glyph-name="acircumflex" unicode="&#xe2;" horiz-adv-x="1341" 
d="M531 -20q-191 0 -302.5 89.5t-111.5 254.5q0 301 417 347l190 21q66 7 109 21t65.5 36t31 47.5t8.5 62.5q0 177 -256 177q-149 0 -241 -44t-163 -131l-130 130q82 103 218.5 161.5t318.5 58.5q235 0 347.5 -87.5t112.5 -276.5v-607l33 -240h-203l-26 195
q-48 -93 -151 -154t-267 -61zM252 1378l270 368h263l271 -368h-193l-209 241l-210 -241h-192zM327 337q0 -88 63 -137t188 -49q177 0 268.5 96t91.5 302v88q-39 -75 -226 -95l-169 -19q-115 -13 -165.5 -60.5t-50.5 -125.5z" />
    <glyph glyph-name="atilde" unicode="&#xe3;" horiz-adv-x="1341" 
d="M531 -20q-191 0 -302.5 89.5t-111.5 254.5q0 301 417 347l190 21q66 7 109 21t65.5 36t31 47.5t8.5 62.5q0 177 -256 177q-149 0 -241 -44t-163 -131l-130 130q82 103 218.5 161.5t318.5 58.5q235 0 347.5 -87.5t112.5 -276.5v-607l33 -240h-203l-26 195
q-48 -93 -151 -154t-267 -61zM247 1378q0 70 11 128t36 107.5t70 77t107 27.5q48 0 91.5 -17t76 -41t61 -48t58.5 -41t57 -17q84 0 84 164h162q0 -70 -11 -128t-36 -107.5t-70 -77t-107 -27.5q-48 0 -91.5 17t-76 41t-61 48t-58.5 41t-57 17q-84 0 -84 -164h-162zM327 337
q0 -88 63 -137t188 -49q177 0 268.5 96t91.5 302v88q-39 -75 -226 -95l-169 -19q-115 -13 -165.5 -60.5t-50.5 -125.5z" />
    <glyph glyph-name="adieresis" unicode="&#xe4;" horiz-adv-x="1341" 
d="M531 -20q-191 0 -302.5 89.5t-111.5 254.5q0 301 417 347l190 21q66 7 109 21t65.5 36t31 47.5t8.5 62.5q0 177 -256 177q-149 0 -241 -44t-163 -131l-130 130q82 103 218.5 161.5t318.5 58.5q235 0 347.5 -87.5t112.5 -276.5v-607l33 -240h-203l-26 195
q-48 -93 -151 -154t-267 -61zM241 1549q0 62 41 103.5t103 41.5t103 -41.5t41 -103.5t-41 -104t-103 -42t-103 42t-41 104zM327 337q0 -88 63 -137t188 -49q177 0 268.5 96t91.5 302v88q-39 -75 -226 -95l-169 -19q-115 -13 -165.5 -60.5t-50.5 -125.5zM778 1549
q0 62 41.5 103.5t103.5 41.5t102.5 -41.5t40.5 -103.5q0 -63 -40.5 -104.5t-102.5 -41.5t-103.5 42t-41.5 104z" />
    <glyph glyph-name="aring" unicode="&#xe5;" horiz-adv-x="1341" 
d="M531 -20q-191 0 -302.5 89.5t-111.5 254.5q0 301 417 347l190 21q66 7 109 21t65.5 36t31 47.5t8.5 62.5q0 177 -256 177q-149 0 -241 -44t-163 -131l-130 130q82 103 218.5 161.5t318.5 58.5q235 0 347.5 -87.5t112.5 -276.5v-607l33 -240h-203l-26 195
q-48 -93 -151 -154t-267 -61zM327 337q0 -88 63 -137t188 -49q177 0 268.5 96t91.5 302v88q-39 -75 -226 -95l-169 -19q-115 -13 -165.5 -60.5t-50.5 -125.5zM376 1634q0 116 80 191t198 75t198 -75t80 -191t-80 -191t-198 -75t-198 75t-80 191zM529 1634q0 -56 35 -92.5
t90 -36.5t90 36.5t35 92.5t-35 92.5t-90 36.5t-90 -36.5t-35 -92.5z" />
    <glyph glyph-name="ae" unicode="&#xe6;" horiz-adv-x="2184" 
d="M1538 -20q-385 0 -513 276q-20 -55 -56 -102t-92 -87.5t-140 -63.5t-188 -23q-209 0 -320.5 91t-111.5 253q0 301 417 347l190 21q66 7 109 21t65.5 36t31 47.5t8.5 62.5q0 177 -256 177q-149 0 -241 -44t-163 -131l-130 130q82 103 218.5 161.5t318.5 58.5
q315 0 405 -176q144 176 429 176q272 0 414.5 -162.5t142.5 -446.5q0 -53 -3 -78h-928q23 -375 400 -375q225 0 359 146l128 -126q-182 -189 -494 -189zM327 337q0 -88 63 -137t188 -49q177 0 268.5 96t91.5 302v88q-39 -75 -226 -95l-169 -19q-115 -13 -165.5 -60.5
t-50.5 -125.5zM1145 681h720q-12 172 -100 267.5t-248 95.5q-174 0 -266.5 -96t-105.5 -267z" />
    <glyph glyph-name="ccedilla" unicode="&#xe7;" horiz-adv-x="1221" 
d="M662 -439q-84 0 -159 22v128q78 -27 147 -27q106 0 106 71q0 63 -84 63q-33 0 -66 -9l-37 62l45 112q-246 21 -375.5 182t-129.5 430q0 288 149 452t429 164q300 0 450 -192l-142 -120q-106 137 -306 137q-187 0 -278.5 -114.5t-91.5 -326.5t91.5 -326t278.5 -114
q200 0 306 137l142 -120q-138 -174 -395 -191l-25 -61h12q92 0 144 -43t52 -123q0 -96 -72 -144.5t-191 -48.5z" />
    <glyph glyph-name="egrave" unicode="&#xe8;" horiz-adv-x="1360" 
d="M712 -20q-294 0 -448.5 159.5t-154.5 448.5q0 290 156 456.5t429 166.5t415.5 -162.5t142.5 -446.5q0 -51 -3 -78h-928q23 -375 393 -375q232 0 366 146l128 -126q-180 -189 -496 -189zM322 681h719q-12 172 -100 267.5t-248 95.5q-174 0 -266.5 -95t-104.5 -268z
M324 1746h248l219 -368h-184z" />
    <glyph glyph-name="eacute" unicode="&#xe9;" horiz-adv-x="1360" 
d="M712 -20q-294 0 -448.5 159.5t-154.5 448.5q0 290 156 456.5t429 166.5t415.5 -162.5t142.5 -446.5q0 -51 -3 -78h-928q23 -375 393 -375q232 0 366 146l128 -126q-180 -189 -496 -189zM322 681h719q-12 172 -100 267.5t-248 95.5q-174 0 -266.5 -95t-104.5 -268z
M583 1378l218 368h248l-283 -368h-183z" />
    <glyph glyph-name="ecircumflex" unicode="&#xea;" horiz-adv-x="1360" 
d="M712 -20q-294 0 -448.5 159.5t-154.5 448.5q0 290 156 456.5t429 166.5t415.5 -162.5t142.5 -446.5q0 -51 -3 -78h-928q23 -375 393 -375q232 0 366 146l128 -126q-180 -189 -496 -189zM285 1378l270 368h263l271 -368h-193l-209 241l-210 -241h-192zM322 681h719
q-12 172 -100 267.5t-248 95.5q-174 0 -266.5 -95t-104.5 -268z" />
    <glyph glyph-name="edieresis" unicode="&#xeb;" horiz-adv-x="1360" 
d="M712 -20q-294 0 -448.5 159.5t-154.5 448.5q0 290 156 456.5t429 166.5t415.5 -162.5t142.5 -446.5q0 -51 -3 -78h-928q23 -375 393 -375q232 0 366 146l128 -126q-180 -189 -496 -189zM274 1549q0 62 41 103.5t103 41.5t103 -41.5t41 -103.5t-41 -104t-103 -42t-103 42
t-41 104zM322 681h719q-12 172 -100 267.5t-248 95.5q-174 0 -266.5 -95t-104.5 -268zM811 1549q0 62 41 103.5t103 41.5t103 -41.5t41 -103.5t-41 -104t-103 -42t-103 42t-41 104z" />
    <glyph glyph-name="igrave" unicode="&#xec;" horiz-adv-x="619" 
d="M206 0v1191h207v-1191h-207zM-2 1746h248l167 -368h-183z" />
    <glyph glyph-name="iacute" unicode="&#xed;" horiz-adv-x="619" 
d="M206 0v1191h207v-1191h-207zM205 1378l168 368h248l-232 -368h-184z" />
    <glyph glyph-name="icircumflex" unicode="&#xee;" horiz-adv-x="619" 
d="M206 0v1191h207v-1191h-207zM-41 1378l236 368h228l237 -368h-193l-158 219l-158 -219h-192z" />
    <glyph glyph-name="idieresis" unicode="&#xef;" horiz-adv-x="619" 
d="M206 0v1191h207v-1191h-207zM-28 1549q0 62 41 103.5t103 41.5t103 -41.5t41 -103.5t-41 -104t-103 -42t-103 42t-41 104zM359 1549q0 62 41 103.5t103 41.5t103 -41.5t41 -103.5t-41 -104t-103 -42t-103 42t-41 104z" />
    <glyph glyph-name="eth" unicode="&#xf0;" horiz-adv-x="1383" 
d="M691 -20q-273 0 -427.5 164t-154.5 451q0 153 44.5 273t121 193t173 110.5t206.5 37.5q200 0 309 -118q-69 131 -266 352l-400 -126v137l303 96l-161 173h235l104 -116l369 116v-137l-273 -87q203 -235 301.5 -448t98.5 -453q0 -289 -154.5 -453.5t-428.5 -164.5z
M319 595q0 -207 94 -323.5t278 -116.5q185 0 279 116.5t94 323.5q0 206 -94 323.5t-279 117.5q-184 0 -278 -117t-94 -324z" />
    <glyph glyph-name="ntilde" unicode="&#xf1;" horiz-adv-x="1433" 
d="M212 0v951l-32 240h202l26 -199q46 90 150 154.5t263 64.5q416 0 416 -469v-742h-207v713q0 162 -59 241.5t-201 79.5q-166 0 -258.5 -95t-92.5 -258v-681h-207zM330 1378q0 70 11 128t36 107.5t70 77t107 27.5q48 0 91.5 -17t76 -41t61.5 -48t59 -41t57 -17q83 0 83 164
h162q0 -70 -11 -128t-35.5 -107.5t-69.5 -77t-107 -27.5q-48 0 -91.5 17t-76 41t-61.5 48t-59 41t-57 17q-83 0 -83 -164h-163z" />
    <glyph glyph-name="ograve" unicode="&#xf2;" horiz-adv-x="1383" 
d="M691 -20q-273 0 -427.5 164t-154.5 451t154.5 451.5t427.5 164.5q274 0 428.5 -164.5t154.5 -451.5t-154.5 -451t-428.5 -164zM319 595q0 -207 94 -323.5t278 -116.5q185 0 279 116.5t94 323.5q0 206 -94 323.5t-279 117.5q-184 0 -278 -117t-94 -324zM329 1746h248
l218 -368h-183z" />
    <glyph glyph-name="oacute" unicode="&#xf3;" horiz-adv-x="1383" 
d="M691 -20q-273 0 -427.5 164t-154.5 451t154.5 451.5t427.5 164.5q274 0 428.5 -164.5t154.5 -451.5t-154.5 -451t-428.5 -164zM319 595q0 -207 94 -323.5t278 -116.5q185 0 279 116.5t94 323.5q0 206 -94 323.5t-279 117.5q-184 0 -278 -117t-94 -324zM587 1378l219 368
h248l-283 -368h-184z" />
    <glyph glyph-name="ocircumflex" unicode="&#xf4;" horiz-adv-x="1383" 
d="M691 -20q-273 0 -427.5 164t-154.5 451t154.5 451.5t427.5 164.5q274 0 428.5 -164.5t154.5 -451.5t-154.5 -451t-428.5 -164zM289 1378l271 368h263l270 -368h-192l-210 241l-209 -241h-193zM319 595q0 -207 94 -323.5t278 -116.5q185 0 279 116.5t94 323.5
q0 206 -94 323.5t-279 117.5q-184 0 -278 -117t-94 -324z" />
    <glyph glyph-name="otilde" unicode="&#xf5;" horiz-adv-x="1383" 
d="M691 -20q-273 0 -427.5 164t-154.5 451t154.5 451.5t427.5 164.5q274 0 428.5 -164.5t154.5 -451.5t-154.5 -451t-428.5 -164zM284 1378q0 70 11 128t36 107.5t70 77t107 27.5q48 0 91.5 -17t76 -41t61 -48t58.5 -41t57 -17q84 0 84 164h162q0 -70 -11 -128t-36 -107.5
t-70 -77t-107 -27.5q-48 0 -91.5 17t-76 41t-61 48t-58.5 41t-57 17q-84 0 -84 -164h-162zM319 595q0 -207 94 -323.5t278 -116.5q185 0 279 116.5t94 323.5q0 206 -94 323.5t-279 117.5q-184 0 -278 -117t-94 -324z" />
    <glyph glyph-name="odieresis" unicode="&#xf6;" horiz-adv-x="1383" 
d="M691 -20q-273 0 -427.5 164t-154.5 451t154.5 451.5t427.5 164.5q274 0 428.5 -164.5t154.5 -451.5t-154.5 -451t-428.5 -164zM279 1549q0 62 40.5 103.5t102.5 41.5t103.5 -41.5t41.5 -103.5t-41.5 -104t-103.5 -42t-102.5 41.5t-40.5 104.5zM319 595q0 -207 94 -323.5
t278 -116.5q185 0 279 116.5t94 323.5q0 206 -94 323.5t-279 117.5q-184 0 -278 -117t-94 -324zM816 1549q0 62 41 103.5t103 41.5t103 -41.5t41 -103.5t-41 -104t-103 -42t-103 42t-41 104z" />
    <glyph glyph-name="divide" unicode="&#xf7;" horiz-adv-x="1588" 
d="M180 625v183h1229v-183h-1229zM637 270q0 67 45.5 113t111.5 46q67 0 112.5 -46t45.5 -113t-45.5 -112t-112.5 -45q-66 0 -111.5 45t-45.5 112zM637 1163q0 67 45.5 112.5t111.5 45.5q67 0 112.5 -45.5t45.5 -112.5t-45.5 -112t-112.5 -45q-66 0 -111.5 45t-45.5 112z
" />
    <glyph glyph-name="oslash" unicode="&#xf8;" horiz-adv-x="1383" 
d="M691 -20q-127 0 -229 36l-78 -141h-182l119 218q-103 79 -157.5 207t-54.5 295q0 287 154.5 451.5t427.5 164.5q128 0 230 -36l77 141h183l-119 -217q103 -78 157.5 -207t54.5 -297q0 -287 -154.5 -451t-428.5 -164zM319 595q0 -215 98 -329l416 748q-64 22 -142 22
q-184 0 -278 -117t-94 -324zM550 177q64 -22 141 -22q185 0 279 116.5t94 323.5q0 217 -99 331z" />
    <glyph glyph-name="ugrave" unicode="&#xf9;" horiz-adv-x="1427" 
d="M609 -20q-413 0 -413 469v742h207v-713q0 -162 58.5 -241.5t199.5 -79.5q165 0 256.5 95t91.5 258v681h206v-951l33 -240h-203l-25 199q-45 -90 -148.5 -154.5t-262.5 -64.5zM344 1746h247l219 -368h-183z" />
    <glyph glyph-name="uacute" unicode="&#xfa;" horiz-adv-x="1427" 
d="M609 -20q-413 0 -413 469v742h207v-713q0 -162 58.5 -241.5t199.5 -79.5q165 0 256.5 95t91.5 258v681h206v-951l33 -240h-203l-25 199q-45 -90 -148.5 -154.5t-262.5 -64.5zM602 1378l219 368h248l-284 -368h-183z" />
    <glyph glyph-name="ucircumflex" unicode="&#xfb;" horiz-adv-x="1427" 
d="M609 -20q-413 0 -413 469v742h207v-713q0 -162 58.5 -241.5t199.5 -79.5q165 0 256.5 95t91.5 258v681h206v-951l33 -240h-203l-25 199q-45 -90 -148.5 -154.5t-262.5 -64.5zM304 1378l270 368h264l270 -368h-193l-209 241l-209 -241h-193z" />
    <glyph glyph-name="udieresis" unicode="&#xfc;" horiz-adv-x="1427" 
d="M609 -20q-413 0 -413 469v742h207v-713q0 -162 58.5 -241.5t199.5 -79.5q165 0 256.5 95t91.5 258v681h206v-951l33 -240h-203l-25 199q-45 -90 -148.5 -154.5t-262.5 -64.5zM293 1549q0 62 41 103.5t103 41.5t103.5 -41.5t41.5 -103.5t-41.5 -104t-103.5 -42t-103 42
t-41 104zM830 1549q0 62 41.5 103.5t103.5 41.5t103 -41.5t41 -103.5t-41 -104t-103 -42t-103.5 42t-41.5 104z" />
    <glyph glyph-name="yacute" unicode="&#xfd;" horiz-adv-x="1219" 
d="M321 -410l189 449l-495 1152h221l385 -943l374 943h209l-674 -1601h-209zM511 1378l219 368h247l-283 -368h-183z" />
    <glyph glyph-name="thorn" unicode="&#xfe;" horiz-adv-x="1469" 
d="M206 -410v2133h207v-710q49 91 152 144.5t252 53.5q259 0 401.5 -159.5t142.5 -456.5q0 -296 -142.5 -455.5t-401.5 -159.5q-149 0 -252 53.5t-152 144.5v-588h-207zM413 595q0 -207 91.5 -323.5t277.5 -116.5t277 116.5t91 323.5q0 208 -91.5 324.5t-276.5 116.5
q-186 0 -277.5 -117t-91.5 -324z" />
    <glyph glyph-name="ydieresis" unicode="&#xff;" horiz-adv-x="1219" 
d="M321 -410l189 449l-495 1152h221l385 -943l374 943h209l-674 -1601h-209zM202 1549q0 62 41 103.5t103 41.5t103 -41.5t41 -103.5t-41 -104t-103 -42t-103 42t-41 104zM739 1549q0 62 41.5 103.5t103.5 41.5t103 -41.5t41 -103.5t-41 -104t-103 -42t-103.5 42t-41.5 104z
" />
    <glyph glyph-name="Amacron" unicode="&#x100;" horiz-adv-x="1479" 
d="M20 0l584 1638h272l583 -1638h-225l-160 475h-675l-160 -475h-219zM402 1816v173h670v-173h-670zM459 653h555l-277 820z" />
    <glyph glyph-name="amacron" unicode="&#x101;" horiz-adv-x="1341" 
d="M531 -20q-191 0 -302.5 89.5t-111.5 254.5q0 301 417 347l190 21q66 7 109 21t65.5 36t31 47.5t8.5 62.5q0 177 -256 177q-149 0 -241 -44t-163 -131l-130 130q82 103 218.5 161.5t318.5 58.5q235 0 347.5 -87.5t112.5 -276.5v-607l33 -240h-203l-26 195
q-48 -93 -151 -154t-267 -61zM319 1443v173h670v-173h-670zM327 337q0 -88 63 -137t188 -49q177 0 268.5 96t91.5 302v88q-39 -75 -226 -95l-169 -19q-115 -13 -165.5 -60.5t-50.5 -125.5z" />
    <glyph glyph-name="Abreve" unicode="&#x102;" horiz-adv-x="1479" 
d="M20 0l584 1638h272l583 -1638h-225l-160 475h-675l-160 -475h-219zM385 2119h169q4 -102 50.5 -159t132.5 -57t132.5 57t50.5 159h169q-4 -170 -93.5 -274t-258.5 -104t-258.5 104t-93.5 274zM459 653h555l-277 820z" />
    <glyph glyph-name="abreve" unicode="&#x103;" horiz-adv-x="1341" 
d="M531 -20q-191 0 -302.5 89.5t-111.5 254.5q0 301 417 347l190 21q66 7 109 21t65.5 36t31 47.5t8.5 62.5q0 177 -256 177q-149 0 -241 -44t-163 -131l-130 130q82 103 218.5 161.5t318.5 58.5q235 0 347.5 -87.5t112.5 -276.5v-607l33 -240h-203l-26 195
q-48 -93 -151 -154t-267 -61zM302 1746h169q4 -102 50.5 -159t132.5 -57t132.5 57t50.5 159h169q-4 -170 -93.5 -274t-258.5 -104t-258.5 104t-93.5 274zM327 337q0 -88 63 -137t188 -49q177 0 268.5 96t91.5 302v88q-39 -75 -226 -95l-169 -19q-115 -13 -165.5 -60.5
t-50.5 -125.5z" />
    <glyph glyph-name="Aogonek" unicode="&#x104;" horiz-adv-x="1479" 
d="M20 0l584 1638h272l583 -1638q-69 -69 -104.5 -133.5t-35.5 -109.5q0 -37 24 -57t68 -20q22 0 48 7v-119q-33 -7 -82 -7q-46 0 -85 8.5t-73 26.5t-53.5 52t-19.5 80q0 144 172 272h-84l-160 475h-675l-160 -475h-219zM459 653h555l-277 820z" />
    <glyph glyph-name="aogonek" unicode="&#x105;" horiz-adv-x="1341" 
d="M531 -20q-191 0 -302.5 89.5t-111.5 254.5q0 301 417 347l190 21q66 7 109 21t65.5 36t31 47.5t8.5 62.5q0 177 -256 177q-149 0 -241 -44t-163 -131l-130 130q82 103 218.5 161.5t318.5 58.5q235 0 347.5 -87.5t112.5 -276.5v-607l33 -240q-69 -69 -104.5 -133.5
t-35.5 -109.5q0 -37 23.5 -57t67.5 -20q23 0 49 7v-119q-33 -7 -83 -7q-46 0 -85 8.5t-73 26.5t-53.5 52t-19.5 80q0 143 173 272h-62l-26 195q-48 -93 -151 -154t-267 -61zM327 337q0 -88 63 -137t188 -49q177 0 268.5 96t91.5 302v88q-39 -75 -226 -95l-169 -19
q-115 -13 -165.5 -60.5t-50.5 -125.5z" />
    <glyph glyph-name="Cacute" unicode="&#x106;" horiz-adv-x="1582" 
d="M896 -20q-193 0 -344.5 61.5t-249 173t-148 264.5t-50.5 340t50.5 340.5t148 265t249 173t344.5 61.5q219 0 371 -78t241 -202l-142 -134q-80 109 -191.5 169.5t-279.5 60.5q-280 0 -427 -174t-147 -482q0 -307 147 -481t427 -174q168 0 279.5 60t191.5 169l142 -133
q-89 -124 -241 -202t-371 -78zM782 1751l219 368h248l-284 -368h-183z" />
    <glyph glyph-name="cacute" unicode="&#x107;" horiz-adv-x="1221" 
d="M687 -20q-280 0 -429 163.5t-149 451.5t149 452t429 164q300 0 450 -192l-142 -120q-106 137 -306 137q-187 0 -278.5 -114.5t-91.5 -326.5t91.5 -326t278.5 -114q200 0 306 137l142 -120q-150 -192 -450 -192zM604 1378l219 368h248l-284 -368h-183z" />
    <glyph glyph-name="Ccircumflex" unicode="&#x108;" horiz-adv-x="1582" 
d="M896 -20q-193 0 -344.5 61.5t-249 173t-148 264.5t-50.5 340t50.5 340.5t148 265t249 173t344.5 61.5q219 0 371 -78t241 -202l-142 -134q-80 109 -191.5 169.5t-279.5 60.5q-280 0 -427 -174t-147 -482q0 -307 147 -481t427 -174q168 0 279.5 60t191.5 169l142 -133
q-89 -124 -241 -202t-371 -78zM488 1751l270 368h263l271 -368h-193l-209 241l-210 -241h-192z" />
    <glyph glyph-name="ccircumflex" unicode="&#x109;" horiz-adv-x="1221" 
d="M687 -20q-280 0 -429 163.5t-149 451.5t149 452t429 164q300 0 450 -192l-142 -120q-106 137 -306 137q-187 0 -278.5 -114.5t-91.5 -326.5t91.5 -326t278.5 -114q200 0 306 137l142 -120q-150 -192 -450 -192zM306 1378l271 368h263l270 -368h-192l-210 241l-209 -241
h-193z" />
    <glyph glyph-name="Cdotaccent" unicode="&#x10a;" horiz-adv-x="1582" 
d="M896 -20q-193 0 -344.5 61.5t-249 173t-148 264.5t-50.5 340t50.5 340.5t148 265t249 173t344.5 61.5q219 0 371 -78t241 -202l-142 -134q-80 109 -191.5 169.5t-279.5 60.5q-280 0 -427 -174t-147 -482q0 -307 147 -481t427 -174q168 0 279.5 60t191.5 169l142 -133
q-89 -124 -241 -202t-371 -78zM746 1922q0 62 41 103t103 41t103 -41t41 -103t-41 -104t-103 -42t-103 42t-41 104z" />
    <glyph glyph-name="cdotaccent" unicode="&#x10b;" horiz-adv-x="1221" 
d="M687 -20q-280 0 -429 163.5t-149 451.5t149 452t429 164q300 0 450 -192l-142 -120q-106 137 -306 137q-187 0 -278.5 -114.5t-91.5 -326.5t91.5 -326t278.5 -114q200 0 306 137l142 -120q-150 -192 -450 -192zM564 1549q0 62 41 103.5t103 41.5t103 -41.5t41 -103.5
t-41 -104t-103 -42t-103 42t-41 104z" />
    <glyph glyph-name="Ccaron" unicode="&#x10c;" horiz-adv-x="1582" 
d="M896 -20q-193 0 -344.5 61.5t-249 173t-148 264.5t-50.5 340t50.5 340.5t148 265t249 173t344.5 61.5q219 0 371 -78t241 -202l-142 -134q-80 109 -191.5 169.5t-279.5 60.5q-280 0 -427 -174t-147 -482q0 -307 147 -481t427 -174q168 0 279.5 60t191.5 169l142 -133
q-89 -124 -241 -202t-371 -78zM488 2119h192l210 -241l209 241h193l-271 -368h-263z" />
    <glyph glyph-name="ccaron" unicode="&#x10d;" horiz-adv-x="1221" 
d="M687 -20q-280 0 -429 163.5t-149 451.5t149 452t429 164q300 0 450 -192l-142 -120q-106 137 -306 137q-187 0 -278.5 -114.5t-91.5 -326.5t91.5 -326t278.5 -114q200 0 306 137l142 -120q-150 -192 -450 -192zM306 1746h193l209 -241l210 241h192l-270 -368h-263z" />
    <glyph glyph-name="Dcaron" unicode="&#x10e;" horiz-adv-x="1678" 
d="M212 0v1638h520q171 0 311 -40t238 -112.5t164.5 -175t98 -225.5t31.5 -266t-31.5 -266t-98 -225.5t-164.5 -175t-238 -112.5t-311 -40h-520zM401 2119h193l209 -241l210 241h192l-270 -368h-263zM427 184h291q327 0 483.5 166t156.5 469t-156.5 469t-483.5 166h-291
v-1270z" />
    <glyph glyph-name="dcaron" unicode="&#x10f;" horiz-adv-x="1606" 
d="M634 -20q-252 0 -388.5 163t-136.5 452q0 296 142.5 456t401.5 160q149 0 252 -54t152 -145v711h207v-1483l32 -240h-202l-26 198q-23 -43 -58.5 -79.5t-87.5 -69t-126 -51t-162 -18.5zM319 595q0 -207 91.5 -323.5t277.5 -116.5t277.5 116.5t91.5 323.5t-91.5 324
t-277.5 117t-277.5 -117t-91.5 -324zM1423 1260v463h214l-67 -463h-147z" />
    <glyph glyph-name="Dcroat" unicode="&#x110;" horiz-adv-x="1683" 
d="M218 0v740h-177v162h177v736h519q171 0 311 -40t238 -112.5t164.5 -175t98 -225.5t31.5 -266t-31.5 -266t-98 -225.5t-164.5 -175t-238 -112.5t-311 -40h-519zM432 184h291q327 0 483.5 166t156.5 469t-156.5 469t-483.5 166h-291v-552h399v-162h-399v-556z" />
    <glyph glyph-name="dcroat" unicode="&#x111;" horiz-adv-x="1476" 
d="M634 -20q-252 0 -388.5 163t-136.5 452q0 296 142.5 456t401.5 160q149 0 252 -54t152 -145v420h-330v138h330v153h207v-153h126v-138h-126v-1192l32 -240h-202l-26 198q-23 -43 -58.5 -79.5t-87.5 -69t-126 -51t-162 -18.5zM319 595q0 -207 91.5 -323.5t277.5 -116.5
t277.5 116.5t91.5 323.5t-91.5 324t-277.5 117t-277.5 -117t-91.5 -324z" />
    <glyph glyph-name="Emacron" unicode="&#x112;" horiz-adv-x="1418" 
d="M212 0v1638h1075v-184h-860v-517h765v-179h-765v-573h860v-185h-1075zM428 1816v173h669v-173h-669z" />
    <glyph glyph-name="emacron" unicode="&#x113;" horiz-adv-x="1360" 
d="M712 -20q-294 0 -448.5 159.5t-154.5 448.5q0 290 156 456.5t429 166.5t415.5 -162.5t142.5 -446.5q0 -51 -3 -78h-928q23 -375 393 -375q232 0 366 146l128 -126q-180 -189 -496 -189zM322 681h719q-12 172 -100 267.5t-248 95.5q-174 0 -266.5 -95t-104.5 -268z
M352 1443v173h669v-173h-669z" />
    <glyph glyph-name="Ebreve" unicode="&#x114;" horiz-adv-x="1418" 
d="M212 0v1638h1075v-184h-860v-517h765v-179h-765v-573h860v-185h-1075zM410 2119h170q4 -102 50 -159t132 -57t132.5 57t50.5 159h170q-4 -170 -94 -274t-259 -104t-258.5 104t-93.5 274z" />
    <glyph glyph-name="ebreve" unicode="&#x115;" horiz-adv-x="1360" 
d="M712 -20q-294 0 -448.5 159.5t-154.5 448.5q0 290 156 456.5t429 166.5t415.5 -162.5t142.5 -446.5q0 -51 -3 -78h-928q23 -375 393 -375q232 0 366 146l128 -126q-180 -189 -496 -189zM322 681h719q-12 172 -100 267.5t-248 95.5q-174 0 -266.5 -95t-104.5 -268z
M334 1746h170q4 -102 50.5 -159t132.5 -57t132 57t50 159h170q-4 -170 -93.5 -274t-258.5 -104t-259 104t-94 274z" />
    <glyph glyph-name="Edotaccent" unicode="&#x116;" horiz-adv-x="1418" 
d="M212 0v1638h1075v-184h-860v-517h765v-179h-765v-573h860v-185h-1075zM618 1922q0 62 41 103t103 41t103 -41t41 -103t-41 -104t-103 -42t-103 42t-41 104z" />
    <glyph glyph-name="edotaccent" unicode="&#x117;" horiz-adv-x="1360" 
d="M712 -20q-294 0 -448.5 159.5t-154.5 448.5q0 290 156 456.5t429 166.5t415.5 -162.5t142.5 -446.5q0 -51 -3 -78h-928q23 -375 393 -375q232 0 366 146l128 -126q-180 -189 -496 -189zM322 681h719q-12 172 -100 267.5t-248 95.5q-174 0 -266.5 -95t-104.5 -268z
M543 1549q0 62 41 103.5t103 41.5t102.5 -41.5t40.5 -103.5q0 -63 -40.5 -104.5t-102.5 -41.5t-103 42t-41 104z" />
    <glyph glyph-name="Eogonek" unicode="&#x118;" horiz-adv-x="1418" 
d="M212 0v1638h1075v-184h-860v-517h765v-179h-765v-573h860v-185q-69 -69 -104.5 -133.5t-35.5 -109.5q0 -37 23.5 -57t67.5 -20q23 0 49 7v-119q-33 -7 -83 -7q-46 0 -85 8.5t-73 26.5t-53.5 52t-19.5 80q0 143 173 272h-934z" />
    <glyph glyph-name="eogonek" unicode="&#x119;" horiz-adv-x="1360" 
d="M1117 -430q-40 -9 -100 -9q-119 0 -176.5 43.5t-57.5 122.5q0 146 174 294q-110 -41 -245 -41q-294 0 -448.5 159.5t-154.5 448.5q0 290 156 456.5t429 166.5t415.5 -162.5t142.5 -446.5q0 -51 -3 -78h-928q23 -375 400 -375q224 0 359 146l126 -124l-45 -50
q-203 -225 -203 -354q0 -86 97 -86q35 0 62 9v-120zM322 681h719q-12 172 -100 267.5t-248 95.5q-174 0 -266.5 -95t-104.5 -268z" />
    <glyph glyph-name="Ecaron" unicode="&#x11a;" horiz-adv-x="1418" 
d="M212 0v1638h1075v-184h-860v-517h765v-179h-765v-573h860v-185h-1075zM360 2119h193l209 -241l210 241h192l-270 -368h-263z" />
    <glyph glyph-name="ecaron" unicode="&#x11b;" horiz-adv-x="1360" 
d="M712 -20q-294 0 -448.5 159.5t-154.5 448.5q0 290 156 456.5t429 166.5t415.5 -162.5t142.5 -446.5q0 -51 -3 -78h-928q23 -375 393 -375q232 0 366 146l128 -126q-180 -189 -496 -189zM285 1746h192l210 -241l209 241h193l-271 -368h-263zM322 681h719
q-12 172 -100 267.5t-248 95.5q-174 0 -266.5 -95t-104.5 -268z" />
    <glyph glyph-name="Gcircumflex" unicode="&#x11c;" horiz-adv-x="1731" 
d="M881 -20q-246 0 -423 106.5t-265.5 294t-88.5 438.5q0 188 52 341.5t152.5 265t256.5 172.5t354 61q122 0 223.5 -22t172.5 -61.5t116 -76.5t86 -84l-145 -139q-161 199 -458 199q-290 0 -441.5 -173t-151.5 -483q0 -309 149 -482t428 -173q155 0 268 42t177 107v379
h-471v181h679v-873h-110l-47 158q-172 -178 -513 -178zM490 1751l271 368h263l270 -368h-192l-210 241l-209 -241h-193z" />
    <glyph glyph-name="gcircumflex" unicode="&#x11d;" horiz-adv-x="1469" 
d="M695 -430q-334 0 -520 186l130 143q142 -153 385 -153q174 0 270.5 80t96.5 247v148q-49 -89 -154.5 -144t-252.5 -55q-254 0 -397.5 157t-143.5 434q0 289 142.5 443.5t401.5 154.5q150 0 253 -54t151 -145v179h207v-1118q0 -253 -149.5 -378t-419.5 -125zM319 612
q0 -200 91.5 -312t277.5 -112t277.5 112t91.5 312t-91.5 312t-277.5 112t-277.5 -112t-91.5 -312zM321 1378l270 368h263l270 -368h-192l-210 241l-209 -241h-192z" />
    <glyph glyph-name="Gbreve" unicode="&#x11e;" horiz-adv-x="1731" 
d="M881 -20q-246 0 -423 106.5t-265.5 294t-88.5 438.5q0 188 52 341.5t152.5 265t256.5 172.5t354 61q122 0 223.5 -22t172.5 -61.5t116 -76.5t86 -84l-145 -139q-161 199 -458 199q-290 0 -441.5 -173t-151.5 -483q0 -309 149 -482t428 -173q155 0 268 42t177 107v379
h-471v181h679v-873h-110l-47 158q-172 -178 -513 -178zM540 2119h170q4 -102 50 -159t132 -57t132.5 57t50.5 159h170q-4 -170 -94 -274t-259 -104t-258.5 104t-93.5 274z" />
    <glyph glyph-name="gbreve" unicode="&#x11f;" horiz-adv-x="1469" 
d="M695 -430q-334 0 -520 186l130 143q142 -153 385 -153q174 0 270.5 80t96.5 247v148q-49 -89 -154.5 -144t-252.5 -55q-254 0 -397.5 157t-143.5 434q0 289 142.5 443.5t401.5 154.5q150 0 253 -54t151 -145v179h207v-1118q0 -253 -149.5 -378t-419.5 -125zM319 612
q0 -200 91.5 -312t277.5 -112t277.5 112t91.5 312t-91.5 312t-277.5 112t-277.5 -112t-91.5 -312zM370 1746h170q4 -102 50 -159t132 -57t132.5 57t50.5 159h170q-4 -170 -94 -274t-259 -104t-258.5 104t-93.5 274z" />
    <glyph glyph-name="Gdotaccent" unicode="&#x120;" horiz-adv-x="1731" 
d="M881 -20q-246 0 -423 106.5t-265.5 294t-88.5 438.5q0 188 52 341.5t152.5 265t256.5 172.5t354 61q122 0 223.5 -22t172.5 -61.5t116 -76.5t86 -84l-145 -139q-161 199 -458 199q-290 0 -441.5 -173t-151.5 -483q0 -309 149 -482t428 -173q155 0 268 42t177 107v379
h-471v181h679v-873h-110l-47 158q-172 -178 -513 -178zM749 1922q0 62 40.5 103t102.5 41t103 -41t41 -103t-41 -104t-103 -42t-102.5 41.5t-40.5 104.5z" />
    <glyph glyph-name="gdotaccent" unicode="&#x121;" horiz-adv-x="1469" 
d="M695 -430q-334 0 -520 186l130 143q142 -153 385 -153q174 0 270.5 80t96.5 247v148q-49 -89 -154.5 -144t-252.5 -55q-254 0 -397.5 157t-143.5 434q0 289 142.5 443.5t401.5 154.5q150 0 253 -54t151 -145v179h207v-1118q0 -253 -149.5 -378t-419.5 -125zM319 612
q0 -200 91.5 -312t277.5 -112t277.5 112t91.5 312t-91.5 312t-277.5 112t-277.5 -112t-91.5 -312zM579 1549q0 62 40.5 103.5t102.5 41.5t103 -41.5t41 -103.5t-41 -104t-103 -42t-102.5 41.5t-40.5 104.5z" />
    <glyph glyph-name="uni0122" unicode="&#x122;" horiz-adv-x="1731" 
d="M881 -20q-246 0 -423 106.5t-265.5 294t-88.5 438.5q0 188 52 341.5t152.5 265t256.5 172.5t354 61q122 0 223.5 -22t172.5 -61.5t116 -76.5t86 -84l-145 -139q-161 199 -458 199q-290 0 -441.5 -173t-151.5 -483q0 -309 149 -482t428 -173q155 0 268 42t177 107v379
h-471v181h679v-873h-110l-47 158q-172 -178 -513 -178zM628 -481l158 358h219l-204 -358h-173z" />
    <glyph glyph-name="uni0123" unicode="&#x123;" horiz-adv-x="1469" 
d="M695 -430q-334 0 -520 186l130 143q142 -153 385 -153q174 0 270.5 80t96.5 247v148q-49 -89 -154.5 -144t-252.5 -55q-254 0 -397.5 157t-143.5 434q0 289 142.5 443.5t401.5 154.5q150 0 253 -54t151 -145v179h207v-1118q0 -253 -149.5 -378t-419.5 -125zM319 612
q0 -200 91.5 -312t277.5 -112t277.5 112t91.5 312t-91.5 312t-277.5 112t-277.5 -112t-91.5 -312zM594 1378l236 368h193l-172 -368h-257z" />
    <glyph glyph-name="Hcircumflex" unicode="&#x124;" horiz-adv-x="1731" 
d="M1304 0v755h-877v-755h-215v1638h215v-698h877v698h215v-1638h-215zM464 1751l270 368h263l271 -368h-193l-209 241l-210 -241h-192z" />
    <glyph glyph-name="hcircumflex" unicode="&#x125;" horiz-adv-x="1426" 
d="M206 0v1723h207v-711q50 85 151 142t251 57q416 0 416 -469v-742h-207v713q0 162 -59 241.5t-202 79.5q-166 0 -258 -95t-92 -258v-681h-207zM312 1836l270 368h263l271 -368h-193l-209 241l-210 -241h-192z" />
    <glyph glyph-name="Hbar" unicode="&#x126;" horiz-adv-x="1731" 
d="M1304 0v755h-877v-755h-215v1213h-135v152h135v273h215v-273h877v273h215v-273h135v-152h-135v-1213h-215zM427 940h877v273h-877v-273z" />
    <glyph glyph-name="hbar" unicode="&#x127;" horiz-adv-x="1426" 
d="M206 0v1432h-126v138h126v153h207v-153h331v-138h-331v-420q50 85 151 142t251 57q416 0 416 -469v-742h-207v713q0 162 -59 241.5t-202 79.5q-166 0 -258 -95t-92 -258v-681h-207z" />
    <glyph glyph-name="Itilde" unicode="&#x128;" horiz-adv-x="639" 
d="M212 0v1638h215v-1638h-215zM-87 1751q0 70 11 128t36 107t70 76.5t107 27.5q48 0 91.5 -17t76 -40.5t61 -47.5t58.5 -41t57 -17q84 0 84 163h162q0 -70 -11 -128t-36 -107t-70 -76.5t-107 -27.5q-48 0 -91.5 17t-76 40.5t-61 47.5t-58.5 41t-57 17q-84 0 -84 -163h-162z
" />
    <glyph glyph-name="itilde" unicode="&#x129;" horiz-adv-x="619" 
d="M206 0v1191h207v-1191h-207zM-47 1378q0 65 10 121.5t32 108t65 81t102 29.5q43 0 80.5 -16.5t63.5 -40t48 -46.5t44 -39.5t42 -16.5q63 0 63 159h162q0 -51 -5.5 -97t-20 -91.5t-37.5 -78t-60 -53t-85 -20.5q-43 0 -80.5 16.5t-63.5 40t-48 46.5t-44 39.5t-42 16.5
q-64 0 -64 -159h-162z" />
    <glyph glyph-name="Imacron" unicode="&#x12a;" horiz-adv-x="639" 
d="M212 0v1638h215v-1638h-215zM-15 1816v173h670v-173h-670z" />
    <glyph glyph-name="imacron" unicode="&#x12b;" horiz-adv-x="619" 
d="M206 0v1191h207v-1191h-207zM46 1443v173h526v-173h-526z" />
    <glyph glyph-name="Ibreve" unicode="&#x12c;" horiz-adv-x="639" 
d="M212 0v1638h215v-1638h-215zM-32 2119h169q4 -102 50.5 -159t132.5 -57t132.5 57t50.5 159h169q-4 -170 -93.5 -274t-258.5 -104t-258.5 104t-93.5 274z" />
    <glyph glyph-name="ibreve" unicode="&#x12d;" horiz-adv-x="619" 
d="M206 0v1191h207v-1191h-207zM10 1746h166q0 -115 33 -166.5t100 -51.5t100 51.5t33 166.5h167q0 -185 -75.5 -281.5t-224.5 -96.5t-224 96.5t-75 281.5z" />
    <glyph glyph-name="Iogonek" unicode="&#x12e;" horiz-adv-x="639" 
d="M212 0v1638h215v-1638q-69 -69 -104.5 -133.5t-35.5 -109.5q0 -37 23.5 -57t67.5 -20q23 0 49 7v-119q-33 -7 -82 -7q-46 0 -85 8.5t-73 26.5t-53.5 52t-19.5 80q0 144 172 272h-74z" />
    <glyph glyph-name="iogonek" unicode="&#x12f;" horiz-adv-x="619" 
d="M206 0v1191h207v-1191q-69 -69 -104.5 -133.5t-35.5 -109.5q0 -37 23.5 -57t67.5 -20q23 0 49 7v-119q-33 -7 -83 -7q-46 0 -85 8.5t-73 26.5t-53.5 52t-19.5 80q0 143 173 272h-66zM156 1585q0 65 43 108t110 43t110.5 -43t43.5 -108t-43.5 -108.5t-110.5 -43.5
t-110 43.5t-43 108.5z" />
    <glyph glyph-name="Idotaccent" unicode="&#x130;" horiz-adv-x="639" 
d="M212 0v1638h215v-1638h-215zM176 1922q0 62 41 103t103 41t103 -41t41 -103t-41 -104t-103 -42t-103 42t-41 104z" />
    <glyph glyph-name="dotlessi" unicode="&#x131;" horiz-adv-x="619" 
d="M206 0v1191h207v-1191h-207z" />
    <glyph glyph-name="IJ" unicode="&#x132;" horiz-adv-x="1589" 
d="M212 0v1638h215v-1638h-215zM713 7v204q98 -39 223 -39q131 0 189.5 60.5t58.5 201.5v1204h214v-1213q0 -235 -111 -340t-342 -105q-129 0 -232 27z" />
    <glyph glyph-name="ij" unicode="&#x133;" horiz-adv-x="1237" 
d="M206 0v1191h207v-1191h-207zM156 1585q0 65 43 108t110 43t110.5 -43t43.5 -108t-43.5 -108.5t-110.5 -43.5t-110 43.5t-43 108.5zM497 -403v183q86 -32 175 -32q84 0 118.5 41t34.5 135v1267h207v-1285q0 -172 -82.5 -254t-252.5 -82q-115 0 -200 27zM775 1585
q0 65 43 108t110 43t110.5 -43t43.5 -108t-43.5 -108.5t-110.5 -43.5q-66 0 -109.5 43.5t-43.5 108.5z" />
    <glyph glyph-name="Jcircumflex" unicode="&#x134;" horiz-adv-x="950" 
d="M305 -20q-129 0 -232 27v204q98 -39 223 -39q131 0 189.5 60.5t58.5 201.5v1204h215v-1213q0 -235 -111 -340t-343 -105zM250 1751l270 368h263l271 -368h-193l-209 241l-210 -241h-192z" />
    <glyph glyph-name="jcircumflex" unicode="&#x135;" horiz-adv-x="619" 
d="M78 -430q-115 0 -200 27v183q86 -32 175 -32q84 0 118.5 41t34.5 135v1267h207v-1285q0 -172 -82.5 -254t-252.5 -82zM-41 1378l236 368h228l237 -368h-193l-158 219l-158 -219h-192z" />
    <glyph glyph-name="uni0136" unicode="&#x136;" horiz-adv-x="1413" 
d="M1107 0l-680 792v-792h-215v1638h215v-749l688 749h259l-731 -786l739 -852h-275zM489 -481l159 358h218l-203 -358h-174z" />
    <glyph glyph-name="uni0137" unicode="&#x137;" horiz-adv-x="1215" 
d="M946 0l-533 585v-585h-207v1723h207v-1078l544 546h241l-577 -561l580 -630h-255zM397 -481l159 358h218l-204 -358h-173z" />
    <glyph glyph-name="kgreenlandic" unicode="&#x138;" horiz-adv-x="1215" 
d="M946 0l-533 585v-585h-207v1191h207v-546l544 546h241l-577 -561l580 -630h-255z" />
    <glyph glyph-name="Lacute" unicode="&#x139;" horiz-adv-x="1352" 
d="M212 0v1638h215v-1452h852v-186h-1067zM212 1751l219 368h248l-284 -368h-183z" />
    <glyph glyph-name="lacute" unicode="&#x13a;" horiz-adv-x="619" 
d="M206 0v1723h207v-1723h-207zM201 1836l219 368h248l-283 -368h-184z" />
    <glyph glyph-name="uni013B" unicode="&#x13b;" horiz-adv-x="1352" 
d="M212 0v1638h215v-1452h852v-186h-1067zM529 -481l159 358h218l-204 -358h-173z" />
    <glyph glyph-name="uni013C" unicode="&#x13c;" horiz-adv-x="619" 
d="M206 0v1723h207v-1723h-207zM41 -481l159 358h218l-203 -358h-174z" />
    <glyph glyph-name="Lcaron" unicode="&#x13d;" horiz-adv-x="1352" 
d="M212 0v1638h215v-1452h852v-186h-1067zM676 1117v521h214l-67 -521h-147z" />
    <glyph glyph-name="lcaron" unicode="&#x13e;" horiz-adv-x="755" 
d="M206 0v1723h207v-1723h-207zM572 1260v463h214l-67 -463h-147z" />
    <glyph glyph-name="Ldot" unicode="&#x13f;" horiz-adv-x="1352" 
d="M212 0v1638h215v-1452h852v-186h-1067zM856 837q0 65 44 109.5t109 44.5t109.5 -44.5t44.5 -109.5t-44.5 -110t-109.5 -45t-109 45t-44 110z" />
    <glyph glyph-name="ldot" unicode="&#x140;" horiz-adv-x="908" 
d="M206 0v1723h207v-1723h-207zM610 837q0 65 44.5 109.5t109.5 44.5t109.5 -44.5t44.5 -109.5t-44.5 -110t-109.5 -45t-109.5 45t-44.5 110z" />
    <glyph glyph-name="Lslash" unicode="&#x141;" horiz-adv-x="1353" 
d="M214 0v648l-162 -79v187l162 79v803h215v-711l390 190v-187l-390 -191v-553h852v-186h-1067z" />
    <glyph glyph-name="lslash" unicode="&#x142;" horiz-adv-x="645" 
d="M219 0v760l-159 -115v198l159 116v764h207v-636l159 116v-199l-159 -116v-888h-207z" />
    <glyph glyph-name="Nacute" unicode="&#x143;" horiz-adv-x="1735" 
d="M212 0v1638h267l839 -1366v1366h205v-1638h-267l-839 1366v-1366h-205zM770 1751l219 368h248l-284 -368h-183z" />
    <glyph glyph-name="nacute" unicode="&#x144;" horiz-adv-x="1433" 
d="M212 0v951l-32 240h202l26 -199q46 90 150 154.5t263 64.5q416 0 416 -469v-742h-207v713q0 162 -59 241.5t-201 79.5q-166 0 -258.5 -95t-92.5 -258v-681h-207zM633 1378l219 368h248l-283 -368h-184z" />
    <glyph glyph-name="uni0145" unicode="&#x145;" horiz-adv-x="1735" 
d="M212 0v1638h267l839 -1366v1366h205v-1638h-267l-839 1366v-1366h-205zM667 -481l158 358h218l-203 -358h-173z" />
    <glyph glyph-name="uni0146" unicode="&#x146;" horiz-adv-x="1433" 
d="M212 0v951l-32 240h202l26 -199q46 90 150 154.5t263 64.5q416 0 416 -469v-742h-207v713q0 162 -59 241.5t-201 79.5q-166 0 -258.5 -95t-92.5 -258v-681h-207zM457 -481l159 358h218l-204 -358h-173z" />
    <glyph glyph-name="Ncaron" unicode="&#x147;" horiz-adv-x="1735" 
d="M212 0v1638h267l839 -1366v1366h205v-1638h-267l-839 1366v-1366h-205zM476 2119h193l209 -241l209 241h193l-270 -368h-264z" />
    <glyph glyph-name="ncaron" unicode="&#x148;" horiz-adv-x="1433" 
d="M212 0v951l-32 240h202l26 -199q46 90 150 154.5t263 64.5q416 0 416 -469v-742h-207v713q0 162 -59 241.5t-201 79.5q-166 0 -258.5 -95t-92.5 -258v-681h-207zM335 1746h193l209 -241l210 241h192l-270 -368h-263z" />
    <glyph glyph-name="napostrophe" unicode="&#x149;" horiz-adv-x="1923" 
d="M106 1114q166 117 194 246q-16 -5 -41 -5q-64 0 -108.5 41t-44.5 109q0 67 43.5 110.5t112.5 43.5q74 0 120 -56t46 -161q0 -243 -248 -409zM669 1191h203l25 -199q46 90 150 154.5t263 64.5q416 0 416 -469v-742h-206v713q0 162 -59 241.5t-201 79.5q-166 0 -258.5 -95
t-92.5 -258v-681h-207v951z" />
    <glyph glyph-name="Eng" unicode="&#x14a;" horiz-adv-x="1735" 
d="M1133 -430q-122 0 -227 28v202q96 -39 214 -39q98 0 143 50.5t45 168.5v1l-891 1385v-1366h-205v1638h264l842 -1314v1314h205v-1647q0 -223 -95.5 -322t-294.5 -99z" />
    <glyph glyph-name="eng" unicode="&#x14b;" horiz-adv-x="1433" 
d="M921 -430q-105 0 -176 26v183q75 -31 149 -31q75 0 105.5 36.5t30.5 118.5v810q0 162 -59 241.5t-201 79.5q-166 0 -258.5 -95t-92.5 -258v-681h-207v951l-32 240h202l26 -199q46 90 150 154.5t263 64.5q416 0 416 -469v-851q0 -166 -77 -243.5t-239 -77.5z" />
    <glyph glyph-name="Omacron" unicode="&#x14c;" horiz-adv-x="1745" 
d="M872 -20q-186 0 -333 63t-241.5 176t-144 265.5t-49.5 334.5t49.5 334.5t144 266t241.5 176.5t333 63t333.5 -63t242 -176.5t144 -266t49.5 -334.5t-49.5 -334.5t-144 -265.5t-242 -176t-333.5 -63zM321 819q0 -303 142 -479t409 -176t410 176t143 479t-143 479.5
t-410 176.5t-409 -176.5t-142 -479.5zM538 1816v173h669v-173h-669z" />
    <glyph glyph-name="omacron" unicode="&#x14d;" horiz-adv-x="1383" 
d="M691 -20q-273 0 -427.5 164t-154.5 451t154.5 451.5t427.5 164.5q274 0 428.5 -164.5t154.5 -451.5t-154.5 -451t-428.5 -164zM319 595q0 -207 94 -323.5t278 -116.5q185 0 279 116.5t94 323.5q0 206 -94 323.5t-279 117.5q-184 0 -278 -117t-94 -324zM356 1443v173h670
v-173h-670z" />
    <glyph glyph-name="Obreve" unicode="&#x14e;" horiz-adv-x="1745" 
d="M872 -20q-186 0 -333 63t-241.5 176t-144 265.5t-49.5 334.5t49.5 334.5t144 266t241.5 176.5t333 63t333.5 -63t242 -176.5t144 -266t49.5 -334.5t-49.5 -334.5t-144 -265.5t-242 -176t-333.5 -63zM321 819q0 -303 142 -479t409 -176t410 176t143 479t-143 479.5
t-410 176.5t-409 -176.5t-142 -479.5zM520 2119h170q4 -102 50 -159t132 -57t132.5 57t50.5 159h170q-4 -170 -94 -274t-259 -104t-258.5 104t-93.5 274z" />
    <glyph glyph-name="obreve" unicode="&#x14f;" horiz-adv-x="1383" 
d="M691 -20q-273 0 -427.5 164t-154.5 451t154.5 451.5t427.5 164.5q274 0 428.5 -164.5t154.5 -451.5t-154.5 -451t-428.5 -164zM319 595q0 -207 94 -323.5t278 -116.5q185 0 279 116.5t94 323.5q0 206 -94 323.5t-279 117.5q-184 0 -278 -117t-94 -324zM339 1746h169
q4 -102 50.5 -159t132.5 -57t132.5 57t50.5 159h169q-4 -170 -93.5 -274t-258.5 -104t-258.5 104t-93.5 274z" />
    <glyph glyph-name="Ohungarumlaut" unicode="&#x150;" horiz-adv-x="1745" 
d="M872 -20q-186 0 -333 63t-241.5 176t-144 265.5t-49.5 334.5t49.5 334.5t144 266t241.5 176.5t333 63t333.5 -63t242 -176.5t144 -266t49.5 -334.5t-49.5 -334.5t-144 -265.5t-242 -176t-333.5 -63zM321 819q0 -303 142 -479t409 -176t410 176t143 479t-143 479.5
t-410 176.5t-409 -176.5t-142 -479.5zM541 1751l219 368h248l-284 -368h-183zM941 1751l219 368h247l-283 -368h-183z" />
    <glyph glyph-name="ohungarumlaut" unicode="&#x151;" horiz-adv-x="1383" 
d="M691 -20q-273 0 -427.5 164t-154.5 451t154.5 451.5t427.5 164.5q274 0 428.5 -164.5t154.5 -451.5t-154.5 -451t-428.5 -164zM319 595q0 -207 94 -323.5t278 -116.5q185 0 279 116.5t94 323.5q0 206 -94 323.5t-279 117.5q-184 0 -278 -117t-94 -324zM332 1378l219 368
h248l-283 -368h-184zM772 1378l218 368h248l-283 -368h-183z" />
    <glyph glyph-name="OE" unicode="&#x152;" horiz-adv-x="2630" 
d="M871 -20q-356 0 -561.5 229t-205.5 610q0 251 91 440.5t265.5 294.5t410.5 105q189 0 331.5 -70t222.5 -207v256h1074v-184h-860v-517h765v-179h-765v-573h860v-185h-1074v257q-80 -137 -222.5 -207t-331.5 -70zM321 819q0 -303 142 -479t409 -176t410 176t143 479
t-143 479.5t-410 176.5t-409 -176.5t-142 -479.5z" />
    <glyph glyph-name="oe" unicode="&#x153;" horiz-adv-x="2311" 
d="M691 -20q-273 0 -427.5 164t-154.5 451t154.5 451.5t427.5 164.5q340 0 470 -259q136 259 486 259q272 0 414 -162.5t142 -446.5q0 -53 -3 -78h-928q23 -375 400 -375q225 0 359 146l128 -126q-182 -189 -494 -189q-367 0 -505 258q-131 -258 -469 -258zM319 595
q0 -207 94 -323.5t278 -116.5q185 0 279 116.5t94 323.5q0 206 -94 323.5t-279 117.5q-184 0 -278 -117t-94 -324zM1272 681h720q-12 172 -100 267.5t-248 95.5q-174 0 -266.5 -96t-105.5 -267z" />
    <glyph glyph-name="Racute" unicode="&#x154;" horiz-adv-x="1565" 
d="M212 0v1638h654q287 0 439 -129.5t152 -365.5q0 -197 -112.5 -314.5t-297.5 -153.5l402 -675h-250l-368 648h-404v-648h-215zM427 829h415q200 0 299 80t99 232t-99 232.5t-299 80.5h-415v-625zM670 1751l219 368h248l-283 -368h-184z" />
    <glyph glyph-name="racute" unicode="&#x155;" horiz-adv-x="970" 
d="M212 0v951l-32 240h202l27 -208q43 108 138.5 168t229.5 60q70 0 118 -16v-196q-54 18 -126 18q-350 0 -350 -430v-587h-207zM472 1378l219 368h247l-283 -368h-183z" />
    <glyph glyph-name="uni0156" unicode="&#x156;" horiz-adv-x="1565" 
d="M212 0v1638h654q287 0 439 -129.5t152 -365.5q0 -197 -112.5 -314.5t-297.5 -153.5l402 -675h-250l-368 648h-404v-648h-215zM427 829h415q200 0 299 80t99 232t-99 232.5t-299 80.5h-415v-625zM545 -481l159 358h218l-204 -358h-173z" />
    <glyph glyph-name="uni0157" unicode="&#x157;" horiz-adv-x="970" 
d="M212 0v951l-32 240h202l27 -208q43 108 138.5 168t229.5 60q70 0 118 -16v-196q-54 18 -126 18q-350 0 -350 -430v-587h-207zM48 -481l159 358h218l-204 -358h-173z" />
    <glyph glyph-name="Rcaron" unicode="&#x158;" horiz-adv-x="1565" 
d="M212 0v1638h654q287 0 439 -129.5t152 -365.5q0 -197 -112.5 -314.5t-297.5 -153.5l402 -675h-250l-368 648h-404v-648h-215zM376 2119h193l209 -241l210 241h192l-270 -368h-263zM427 829h415q200 0 299 80t99 232t-99 232.5t-299 80.5h-415v-625z" />
    <glyph glyph-name="rcaron" unicode="&#x159;" horiz-adv-x="970" 
d="M212 0v951l-32 240h202l27 -208q43 108 138.5 168t229.5 60q70 0 118 -16v-196q-54 18 -126 18q-350 0 -350 -430v-587h-207zM174 1746h193l209 -241l209 241h193l-270 -368h-264z" />
    <glyph glyph-name="Sacute" unicode="&#x15a;" horiz-adv-x="1405" 
d="M712 -20q-205 0 -370 62.5t-261 168.5l146 158q181 -205 489 -205q190 0 286 70.5t96 199.5q0 33 -7.5 62t-18 51.5t-32 42.5t-39 34t-51 28.5t-55.5 22.5t-65 19t-67 16.5l-72 16.5q-75 16 -114.5 25.5t-107.5 31t-105.5 43t-85.5 59t-73 81.5t-43 107t-18 140
q0 199 152 322t439 123q348 0 539 -189l-130 -151q-79 78 -178.5 117t-241.5 39q-193 0 -279.5 -68.5t-86.5 -185.5q0 -33 7.5 -62t18 -51.5t32 -42.5t40 -34t51 -28.5t55.5 -23t64.5 -19.5t67 -17t72.5 -16q75 -17 115 -26.5t107.5 -31t105 -43t85.5 -59t73 -81t43 -106.5
t18 -139q0 -216 -148 -338.5t-453 -122.5zM614 1751l220 368h247l-283 -368h-184z" />
    <glyph glyph-name="sacute" unicode="&#x15b;" horiz-adv-x="1135" 
d="M588 -20q-166 0 -296.5 49.5t-207.5 136.5l137 146q127 -158 361 -158q128 0 191.5 43t63.5 122q0 24 -4.5 44.5t-16.5 36.5t-23.5 28t-34.5 23t-40.5 18t-50.5 15t-55.5 13t-63.5 13q-56 11 -88.5 18.5t-82.5 23t-79.5 31.5t-64.5 43t-54.5 59t-32.5 78t-13 102
q0 153 118 249.5t344 96.5q152 0 259 -44.5t164 -107.5l-126 -136q-109 114 -301 114q-132 0 -193 -46t-61 -118q0 -32 8 -56t29 -42.5t41 -30.5t59.5 -23t67.5 -17.5t82 -16.5q106 -20 178 -45.5t129 -66.5t83.5 -102t26.5 -147q0 -164 -117 -255t-336 -91zM483 1378
l218 368h248l-283 -368h-183z" />
    <glyph glyph-name="Scircumflex" unicode="&#x15c;" horiz-adv-x="1405" 
d="M712 -20q-205 0 -370 62.5t-261 168.5l146 158q181 -205 489 -205q190 0 286 70.5t96 199.5q0 33 -7.5 62t-18 51.5t-32 42.5t-39 34t-51 28.5t-55.5 22.5t-65 19t-67 16.5l-72 16.5q-75 16 -114.5 25.5t-107.5 31t-105.5 43t-85.5 59t-73 81.5t-43 107t-18 140
q0 199 152 322t439 123q348 0 539 -189l-130 -151q-79 78 -178.5 117t-241.5 39q-193 0 -279.5 -68.5t-86.5 -185.5q0 -33 7.5 -62t18 -51.5t32 -42.5t40 -34t51 -28.5t55.5 -23t64.5 -19.5t67 -17t72.5 -16q75 -17 115 -26.5t107.5 -31t105 -43t85.5 -59t73 -81t43 -106.5
t18 -139q0 -216 -148 -338.5t-453 -122.5zM321 1751l270 368h263l270 -368h-192l-210 241l-209 -241h-192z" />
    <glyph glyph-name="scircumflex" unicode="&#x15d;" horiz-adv-x="1135" 
d="M588 -20q-166 0 -296.5 49.5t-207.5 136.5l137 146q127 -158 361 -158q128 0 191.5 43t63.5 122q0 24 -4.5 44.5t-16.5 36.5t-23.5 28t-34.5 23t-40.5 18t-50.5 15t-55.5 13t-63.5 13q-56 11 -88.5 18.5t-82.5 23t-79.5 31.5t-64.5 43t-54.5 59t-32.5 78t-13 102
q0 153 118 249.5t344 96.5q152 0 259 -44.5t164 -107.5l-126 -136q-109 114 -301 114q-132 0 -193 -46t-61 -118q0 -32 8 -56t29 -42.5t41 -30.5t59.5 -23t67.5 -17.5t82 -16.5q106 -20 178 -45.5t129 -66.5t83.5 -102t26.5 -147q0 -164 -117 -255t-336 -91zM185 1378
l270 368h263l271 -368h-193l-209 241l-210 -241h-192z" />
    <glyph glyph-name="Scedilla" unicode="&#x15e;" horiz-adv-x="1405" 
d="M727 -439q-85 0 -160 22v128q78 -27 148 -27q106 0 106 71q0 63 -85 63q-33 0 -66 -9l-37 62l44 109q-194 5 -349 67t-247 164l146 158q181 -205 489 -205q190 0 286 70.5t96 199.5q0 33 -7.5 62t-18 51.5t-32 42.5t-39 34t-51 28.5t-55.5 22.5t-65 19t-67 16.5l-72 16.5
q-75 16 -114.5 25.5t-107.5 31t-105.5 43t-85.5 59t-73 81.5t-43 107t-18 140q0 199 152 322t439 123q348 0 539 -189l-130 -151q-79 78 -178.5 117t-241.5 39q-193 0 -279.5 -68.5t-86.5 -185.5q0 -33 7.5 -62t18 -51.5t32 -42.5t40 -34t51 -28.5t55.5 -23t64.5 -19.5
t67 -17t72.5 -16q75 -17 115 -26.5t107.5 -31t105 -43t85.5 -59t73 -81t43 -106.5t18 -139q0 -198 -124.5 -318t-381.5 -140l-26 -63h12q92 0 144 -43t52 -123q0 -96 -71.5 -144.5t-190.5 -48.5z" />
    <glyph glyph-name="scedilla" unicode="&#x15f;" horiz-adv-x="1135" 
d="M577 -439q-85 0 -160 22v128q78 -27 148 -27q106 0 106 71q0 63 -85 63q-33 0 -66 -9l-37 62l45 110q-145 9 -259.5 57.5t-184.5 127.5l137 146q127 -158 361 -158q128 0 191.5 43t63.5 122q0 24 -4.5 44.5t-16.5 36.5t-23.5 28t-34.5 23t-40.5 18t-50.5 15t-55.5 13
t-63.5 13q-56 11 -88.5 18.5t-82.5 23t-79.5 31.5t-64.5 43t-54.5 59t-32.5 78t-13 102q0 153 118 249.5t344 96.5q152 0 259 -44.5t164 -107.5l-126 -136q-109 114 -301 114q-132 0 -193 -46t-61 -118q0 -32 8 -56t29 -42.5t41 -30.5t59.5 -23t67.5 -17.5t82 -16.5
q106 -20 178 -45.5t129 -66.5t83.5 -102t26.5 -147q0 -150 -99 -240t-285 -104l-26 -62h12q92 0 144 -43t52 -123q0 -96 -71.5 -144.5t-190.5 -48.5z" />
    <glyph glyph-name="Scaron" unicode="&#x160;" horiz-adv-x="1405" 
d="M712 -20q-205 0 -370 62.5t-261 168.5l146 158q181 -205 489 -205q190 0 286 70.5t96 199.5q0 33 -7.5 62t-18 51.5t-32 42.5t-39 34t-51 28.5t-55.5 22.5t-65 19t-67 16.5l-72 16.5q-75 16 -114.5 25.5t-107.5 31t-105.5 43t-85.5 59t-73 81.5t-43 107t-18 140
q0 199 152 322t439 123q348 0 539 -189l-130 -151q-79 78 -178.5 117t-241.5 39q-193 0 -279.5 -68.5t-86.5 -185.5q0 -33 7.5 -62t18 -51.5t32 -42.5t40 -34t51 -28.5t55.5 -23t64.5 -19.5t67 -17t72.5 -16q75 -17 115 -26.5t107.5 -31t105 -43t85.5 -59t73 -81t43 -106.5
t18 -139q0 -216 -148 -338.5t-453 -122.5zM321 2119h192l209 -241l210 241h192l-270 -368h-263z" />
    <glyph glyph-name="scaron" unicode="&#x161;" horiz-adv-x="1135" 
d="M588 -20q-166 0 -296.5 49.5t-207.5 136.5l137 146q127 -158 361 -158q128 0 191.5 43t63.5 122q0 24 -4.5 44.5t-16.5 36.5t-23.5 28t-34.5 23t-40.5 18t-50.5 15t-55.5 13t-63.5 13q-56 11 -88.5 18.5t-82.5 23t-79.5 31.5t-64.5 43t-54.5 59t-32.5 78t-13 102
q0 153 118 249.5t344 96.5q152 0 259 -44.5t164 -107.5l-126 -136q-109 114 -301 114q-132 0 -193 -46t-61 -118q0 -32 8 -56t29 -42.5t41 -30.5t59.5 -23t67.5 -17.5t82 -16.5q106 -20 178 -45.5t129 -66.5t83.5 -102t26.5 -147q0 -164 -117 -255t-336 -91zM185 1746h192
l210 -241l209 241h193l-271 -368h-263z" />
    <glyph glyph-name="uni0162" unicode="&#x162;" horiz-adv-x="1489" 
d="M637 0v1454h-564v184h1343v-184h-564v-1454h-43l-32 -80h11q92 0 144.5 -43t52.5 -123q0 -96 -72 -144.5t-191 -48.5q-84 0 -159 22v128q78 -27 147 -27q106 0 106 71q0 63 -84 63q-33 0 -66 -9l-37 62l52 129h-44z" />
    <glyph glyph-name="uni0163" unicode="&#x163;" horiz-adv-x="992" 
d="M27 1018v173h250v342l207 54v-396h400v-173h-400v-637q0 -127 54.5 -174.5t169.5 -47.5q90 0 176 22v-174q-73 -23 -203 -24l-26 -63h12q92 0 144 -43t52 -123q0 -96 -71.5 -144.5t-190.5 -48.5q-85 0 -160 22v128q78 -27 148 -27q106 0 106 71q0 63 -85 63q-33 0 -66 -9
l-37 62l49 119q-90 14 -150 52.5t-94.5 117.5t-34.5 200v658h-250z" />
    <glyph glyph-name="Tcaron" unicode="&#x164;" horiz-adv-x="1489" 
d="M637 0v1454h-564v184h1343v-184h-564v-1454h-215zM343 2119h193l209 -241l209 241h193l-270 -368h-264z" />
    <glyph glyph-name="tcaron" unicode="&#x165;" horiz-adv-x="992" 
d="M673 -17q-96 0 -164.5 17t-123 58.5t-81.5 116.5t-27 185v658h-250v173h250v342l207 54v-396h400v-173h-400v-637q0 -127 54.5 -174.5t169.5 -47.5q90 0 176 22v-174q-81 -24 -211 -24zM643 1260v463h214l-67 -463h-147z" />
    <glyph glyph-name="Tbar" unicode="&#x166;" horiz-adv-x="1489" 
d="M637 0v709h-349v151h349v594h-564v184h1343v-184h-564v-594h350v-151h-350v-709h-215z" />
    <glyph glyph-name="tbar" unicode="&#x167;" horiz-adv-x="992" 
d="M673 -17q-96 0 -164.5 17t-123 58.5t-81.5 116.5t-27 185v182h-250v137h250v339h-250v173h250v342l207 54v-396h400v-173h-400v-339h400v-137h-400v-161q0 -127 54.5 -174.5t169.5 -47.5q90 0 176 22v-174q-81 -24 -211 -24z" />
    <glyph glyph-name="Utilde" unicode="&#x168;" horiz-adv-x="1673" 
d="M835 -20q-315 0 -479.5 168.5t-164.5 506.5v983h215v-962q0 -255 106 -378t328 -123t327.5 123t105.5 378v962h209v-967q0 -347 -164.5 -519t-482.5 -172zM433 1751q0 70 11 128t35.5 107t69.5 76.5t107 27.5q48 0 91.5 -17t76 -40.5t61.5 -47.5t59 -41t57 -17
q83 0 83 163h163q0 -70 -11 -128t-36 -107t-70 -76.5t-107 -27.5q-48 0 -91.5 17t-76 40.5t-61.5 47.5t-59 41t-57 17q-83 0 -83 -163h-162z" />
    <glyph glyph-name="utilde" unicode="&#x169;" horiz-adv-x="1427" 
d="M609 -20q-413 0 -413 469v742h207v-713q0 -162 58.5 -241.5t199.5 -79.5q165 0 256.5 95t91.5 258v681h206v-951l33 -240h-203l-25 199q-45 -90 -148.5 -154.5t-262.5 -64.5zM299 1378q0 70 11 128t36 107.5t70 77t107 27.5q48 0 91.5 -17t76 -41t61 -48t58.5 -41t57 -17
q84 0 84 164h162q0 -70 -11 -128t-36 -107.5t-70 -77t-107 -27.5q-48 0 -91.5 17t-76 41t-61 48t-58.5 41t-57 17q-84 0 -84 -164h-162z" />
    <glyph glyph-name="Umacron" unicode="&#x16a;" horiz-adv-x="1673" 
d="M835 -20q-315 0 -479.5 168.5t-164.5 506.5v983h215v-962q0 -255 106 -378t328 -123t327.5 123t105.5 378v962h209v-967q0 -347 -164.5 -519t-482.5 -172zM505 1816v173h670v-173h-670z" />
    <glyph glyph-name="umacron" unicode="&#x16b;" horiz-adv-x="1427" 
d="M609 -20q-413 0 -413 469v742h207v-713q0 -162 58.5 -241.5t199.5 -79.5q165 0 256.5 95t91.5 258v681h206v-951l33 -240h-203l-25 199q-45 -90 -148.5 -154.5t-262.5 -64.5zM371 1443v173h670v-173h-670z" />
    <glyph glyph-name="Ubreve" unicode="&#x16c;" horiz-adv-x="1673" 
d="M835 -20q-315 0 -479.5 168.5t-164.5 506.5v983h215v-962q0 -255 106 -378t328 -123t327.5 123t105.5 378v962h209v-967q0 -347 -164.5 -519t-482.5 -172zM487 2119h170q4 -102 50.5 -159t132.5 -57t132 57t50 159h170q-4 -170 -93.5 -274t-258.5 -104t-259 104t-94 274z
" />
    <glyph glyph-name="ubreve" unicode="&#x16d;" horiz-adv-x="1427" 
d="M609 -20q-413 0 -413 469v742h207v-713q0 -162 58.5 -241.5t199.5 -79.5q165 0 256.5 95t91.5 258v681h206v-951l33 -240h-203l-25 199q-45 -90 -148.5 -154.5t-262.5 -64.5zM354 1746h169q4 -102 50.5 -159t132.5 -57t132.5 57t50.5 159h169q-4 -170 -93.5 -274
t-258.5 -104t-258.5 104t-93.5 274z" />
    <glyph glyph-name="Uring" unicode="&#x16e;" horiz-adv-x="1673" 
d="M835 -20q-315 0 -479.5 168.5t-164.5 506.5v983h215v-962q0 -255 106 -378t328 -123t327.5 123t105.5 378v962h209v-967q0 -347 -164.5 -519t-482.5 -172zM562 1976q0 116 80 191t198 75t198 -75t80 -191t-80 -191t-198 -75t-198 75t-80 191zM715 1976q0 -56 35 -92.5
t90 -36.5t90 36.5t35 92.5t-35 92t-90 36t-90 -36t-35 -92z" />
    <glyph glyph-name="uring" unicode="&#x16f;" horiz-adv-x="1427" 
d="M609 -20q-413 0 -413 469v742h207v-713q0 -162 58.5 -241.5t199.5 -79.5q165 0 256.5 95t91.5 258v681h206v-951l33 -240h-203l-25 199q-45 -90 -148.5 -154.5t-262.5 -64.5zM428 1634q0 116 80 191t198 75t198 -75t80 -191t-80 -191t-198 -75t-198 75t-80 191zM581 1634
q0 -56 35 -92.5t90 -36.5t90 36.5t35 92.5t-35 92.5t-90 36.5t-90 -36.5t-35 -92.5z" />
    <glyph glyph-name="Uhungarumlaut" unicode="&#x170;" horiz-adv-x="1673" 
d="M835 -20q-315 0 -479.5 168.5t-164.5 506.5v983h215v-962q0 -255 106 -378t328 -123t327.5 123t105.5 378v962h209v-967q0 -347 -164.5 -519t-482.5 -172zM508 1751l220 368h247l-283 -368h-184zM908 1751l219 368h248l-283 -368h-184z" />
    <glyph glyph-name="uhungarumlaut" unicode="&#x171;" horiz-adv-x="1427" 
d="M609 -20q-413 0 -413 469v742h207v-713q0 -162 58.5 -241.5t199.5 -79.5q165 0 256.5 95t91.5 258v681h206v-951l33 -240h-203l-25 199q-45 -90 -148.5 -154.5t-262.5 -64.5zM347 1378l219 368h248l-283 -368h-184zM786 1378l219 368h248l-283 -368h-184z" />
    <glyph glyph-name="Uogonek" unicode="&#x172;" horiz-adv-x="1673" 
d="M1197 -431q-41 -8 -89 -8q-96 0 -160 39.5t-64 128.5q0 134 173 280q-96 -29 -222 -29q-315 0 -479.5 168.5t-164.5 506.5v983h215v-962q0 -255 106 -378t328 -123t327.5 123t105.5 378v962h209v-967q0 -193 -46.5 -318.5t-136.5 -215.5q-242 -245 -242 -373
q0 -83 91 -83q26 0 49 6v-118z" />
    <glyph glyph-name="uogonek" unicode="&#x173;" horiz-adv-x="1427" 
d="M609 -20q-413 0 -413 469v742h207v-713q0 -162 58.5 -241.5t199.5 -79.5q165 0 256.5 95t91.5 258v681h206v-951l33 -240q-69 -69 -104.5 -133.5t-35.5 -109.5q0 -37 24 -57t68 -20q22 0 48 7v-119q-33 -7 -82 -7q-46 0 -85 8.5t-73 26.5t-53.5 52t-19.5 80
q0 144 172 272h-62l-25 199q-45 -90 -148.5 -154.5t-262.5 -64.5z" />
    <glyph glyph-name="Wcircumflex" unicode="&#x174;" horiz-adv-x="2283" 
d="M1469 0l-291 1087l-364 -1087h-254l-540 1638h224l444 -1427l397 1193l-63 234h223l363 -1409l438 1409h217l-541 -1638h-253zM734 1751l270 368h263l271 -368h-193l-209 241l-210 -241h-192z" />
    <glyph glyph-name="wcircumflex" unicode="&#x175;" horiz-adv-x="1950" 
d="M1235 0l-260 734l-260 -734h-249l-414 1191h219l334 -1028l278 825l-68 203h213l330 -1025l333 1025h208l-415 -1191h-249zM573 1378l271 368h263l270 -368h-192l-210 241l-209 -241h-193z" />
    <glyph glyph-name="Ycircumflex" unicode="&#x176;" horiz-adv-x="1443" 
d="M614 0v594l-594 1044h232l479 -861l478 861h215l-595 -1045v-593h-215zM326 1751l270 368h264l270 -368h-193l-209 241l-209 -241h-193z" />
    <glyph glyph-name="ycircumflex" unicode="&#x177;" horiz-adv-x="1219" 
d="M321 -410l189 449l-495 1152h221l385 -943l374 943h209l-674 -1601h-209zM213 1378l270 368h263l271 -368h-193l-209 241l-209 -241h-193z" />
    <glyph glyph-name="Ydieresis" unicode="&#x178;" horiz-adv-x="1443" 
d="M614 0v594l-594 1044h232l479 -861l478 861h215l-595 -1045v-593h-215zM336 1922q0 62 41 103t103 41t103 -41t41 -103t-41 -104t-103 -42t-103 42t-41 104zM832 1922q0 62 41 103t103 41t103 -41t41 -103t-41 -104t-103 -42t-103 42t-41 104z" />
    <glyph glyph-name="Zacute" unicode="&#x179;" horiz-adv-x="1437" 
d="M108 0v162l946 1292h-913v184h1176v-161l-947 -1292h960v-185h-1222zM628 1751l219 368h248l-284 -368h-183z" />
    <glyph glyph-name="zacute" unicode="&#x17a;" horiz-adv-x="1187" 
d="M99 0v159l719 859h-698v173h952v-159l-718 -859h729v-173h-984zM503 1378l219 368h248l-283 -368h-184z" />
    <glyph glyph-name="Zdotaccent" unicode="&#x17b;" horiz-adv-x="1437" 
d="M108 0v162l946 1292h-913v184h1176v-161l-947 -1292h960v-185h-1222zM592 1922q0 62 41 103t103 41t103 -41t41 -103t-41 -104t-103 -42t-103 42t-41 104z" />
    <glyph glyph-name="zdotaccent" unicode="&#x17c;" horiz-adv-x="1187" 
d="M99 0v159l719 859h-698v173h952v-159l-718 -859h729v-173h-984zM463 1549q0 62 41 103.5t103 41.5t103 -41.5t41 -103.5t-41 -104t-103 -42t-103 42t-41 104z" />
    <glyph glyph-name="Zcaron" unicode="&#x17d;" horiz-adv-x="1437" 
d="M108 0v162l946 1292h-913v184h1176v-161l-947 -1292h960v-185h-1222zM334 2119h192l210 -241l209 241h193l-271 -368h-263z" />
    <glyph glyph-name="zcaron" unicode="&#x17e;" horiz-adv-x="1187" 
d="M99 0v159l719 859h-698v173h952v-159l-718 -859h729v-173h-984zM205 1746h193l209 -241l210 241h192l-270 -368h-263z" />
    <glyph glyph-name="uni018F" unicode="&#x18f;" horiz-adv-x="1695" 
d="M836 -20q-180 0 -319.5 59.5t-230 169.5t-136.5 263t-46 343q0 69 2 88h1266q-17 272 -158.5 422t-391.5 150q-316 0 -507 -215l-138 134q243 265 653 265q357 0 559.5 -225t202.5 -615q0 -187 -51 -342t-146.5 -265.5t-238.5 -171t-320 -60.5zM316 722
q17 -264 147.5 -411t372.5 -147q127 0 227 43.5t163.5 120.5t100 176t45.5 218h-1056z" />
    <glyph glyph-name="florin" unicode="&#x192;" horiz-adv-x="1414" 
d="M197 -430q-103 0 -171 21v179q78 -25 163 -25q111 0 168.5 52.5t82.5 175.5l205 1022h-349v172h383l41 205q40 199 152 285t295 86q103 0 169 -21v-179q-78 25 -164 25q-113 0 -169 -52t-80 -176l-35 -173h354v-172h-388l-211 -1049q-40 -204 -150.5 -290t-295.5 -86z
" />
    <glyph glyph-name="uni01F4" unicode="&#x1f4;" horiz-adv-x="1731" 
d="M881 -20q-246 0 -423 106.5t-265.5 294t-88.5 438.5q0 188 52 341.5t152.5 265t256.5 172.5t354 61q122 0 223.5 -22t172.5 -61.5t116 -76.5t86 -84l-145 -139q-161 199 -458 199q-290 0 -441.5 -173t-151.5 -483q0 -309 149 -482t428 -173q155 0 268 42t177 107v379
h-471v181h679v-873h-110l-47 158q-172 -178 -513 -178zM784 1751l220 368h247l-283 -368h-184z" />
    <glyph glyph-name="uni01F5" unicode="&#x1f5;" horiz-adv-x="1469" 
d="M695 -430q-334 0 -520 186l130 143q142 -153 385 -153q174 0 270.5 80t96.5 247v148q-49 -89 -154.5 -144t-252.5 -55q-254 0 -397.5 157t-143.5 434q0 289 142.5 443.5t401.5 154.5q150 0 253 -54t151 -145v179h207v-1118q0 -253 -149.5 -378t-419.5 -125zM319 612
q0 -200 91.5 -312t277.5 -112t277.5 112t91.5 312t-91.5 312t-277.5 112t-277.5 -112t-91.5 -312zM618 1378l219 368h248l-283 -368h-184z" />
    <glyph glyph-name="Aringacute" unicode="&#x1fa;" horiz-adv-x="1479" 
d="M20 0l584 1638h272l583 -1638h-225l-160 475h-675l-160 -475h-219zM459 1976q0 94 54 162.5t142 92.5l192 258h248l-255 -265q79 -28 127 -94.5t48 -153.5q0 -116 -80 -191t-198 -75t-198 75t-80 191zM459 653h555l-277 820zM612 1976q0 -56 35 -92.5t90 -36.5t90 36.5
t35 92.5t-35 92t-90 36t-90 -36t-35 -92z" />
    <glyph glyph-name="aringacute" unicode="&#x1fb;" horiz-adv-x="1341" 
d="M531 -20q-191 0 -302.5 89.5t-111.5 254.5q0 301 417 347l190 21q66 7 109 21t65.5 36t31 47.5t8.5 62.5q0 177 -256 177q-149 0 -241 -44t-163 -131l-130 130q82 103 218.5 161.5t318.5 58.5q235 0 347.5 -87.5t112.5 -276.5v-607l33 -240h-203l-26 195
q-48 -93 -151 -154t-267 -61zM327 337q0 -88 63 -137t188 -49q177 0 268.5 96t91.5 302v88q-39 -75 -226 -95l-169 -19q-115 -13 -165.5 -60.5t-50.5 -125.5zM376 1634q0 94 54.5 162.5t142.5 92.5l196 329h247l-259 -336q79 -28 127 -94.5t48 -153.5q0 -116 -80 -191
t-198 -75t-198 75t-80 191zM529 1634q0 -56 35 -92.5t90 -36.5t90 36.5t35 92.5t-35 92.5t-90 36.5t-90 -36.5t-35 -92.5z" />
    <glyph glyph-name="AEacute" unicode="&#x1fc;" horiz-adv-x="2409" 
d="M-15 0l1062 1638h1230v-184h-859v-517h765v-179h-765v-573h859v-185h-1074v480h-681l-306 -480h-231zM636 658h567v796h-59zM1169 1751l219 368h248l-284 -368h-183z" />
    <glyph glyph-name="aeacute" unicode="&#x1fd;" horiz-adv-x="2184" 
d="M1538 -20q-385 0 -513 276q-20 -55 -56 -102t-92 -87.5t-140 -63.5t-188 -23q-209 0 -320.5 91t-111.5 253q0 301 417 347l190 21q66 7 109 21t65.5 36t31 47.5t8.5 62.5q0 177 -256 177q-149 0 -241 -44t-163 -131l-130 130q82 103 218.5 161.5t318.5 58.5
q315 0 405 -176q144 176 429 176q272 0 414.5 -162.5t142.5 -446.5q0 -53 -3 -78h-928q23 -375 400 -375q225 0 359 146l128 -126q-182 -189 -494 -189zM327 337q0 -88 63 -137t188 -49q177 0 268.5 96t91.5 302v88q-39 -75 -226 -95l-169 -19q-115 -13 -165.5 -60.5
t-50.5 -125.5zM1005 1378l219 368h247l-283 -368h-183zM1145 681h720q-12 172 -100 267.5t-248 95.5q-174 0 -266.5 -96t-105.5 -267z" />
    <glyph glyph-name="Oslashacute" unicode="&#x1fe;" horiz-adv-x="1745" 
d="M872 -20q-208 0 -363 76l-95 -158h-191l149 247q-132 111 -200 284.5t-68 389.5q0 182 49.5 334.5t144 266t241.5 176.5t333 63q205 0 363 -76l96 158h191l-149 -247q132 -111 200 -285t68 -390q0 -182 -49.5 -334.5t-144 -265.5t-242 -176t-333.5 -63zM321 819
q0 -324 159 -498l656 1096q-116 58 -264 58q-267 0 -409 -176.5t-142 -479.5zM610 222q113 -58 262 -58q267 0 410 176t143 479q0 325 -160 499zM755 1751l219 368h248l-284 -368h-183z" />
    <glyph glyph-name="oslashacute" unicode="&#x1ff;" horiz-adv-x="1383" 
d="M691 -20q-127 0 -229 36l-78 -141h-182l119 218q-103 79 -157.5 207t-54.5 295q0 287 154.5 451.5t427.5 164.5q128 0 230 -36l77 141h183l-119 -217q103 -78 157.5 -207t54.5 -297q0 -287 -154.5 -451t-428.5 -164zM319 595q0 -215 98 -329l416 748q-64 22 -142 22
q-184 0 -278 -117t-94 -324zM535 1355l218 368h248l-283 -368h-183zM550 177q64 -22 141 -22q185 0 279 116.5t94 323.5q0 217 -99 331z" />
    <glyph glyph-name="uni0218" unicode="&#x218;" horiz-adv-x="1405" 
d="M712 -20q-205 0 -370 62.5t-261 168.5l146 158q181 -205 489 -205q190 0 286 70.5t96 199.5q0 33 -7.5 62t-18 51.5t-32 42.5t-39 34t-51 28.5t-55.5 22.5t-65 19t-67 16.5l-72 16.5q-75 16 -114.5 25.5t-107.5 31t-105.5 43t-85.5 59t-73 81.5t-43 107t-18 140
q0 199 152 322t439 123q348 0 539 -189l-130 -151q-79 78 -178.5 117t-241.5 39q-193 0 -279.5 -68.5t-86.5 -185.5q0 -33 7.5 -62t18 -51.5t32 -42.5t40 -34t51 -28.5t55.5 -23t64.5 -19.5t67 -17t72.5 -16q75 -17 115 -26.5t107.5 -31t105 -43t85.5 -59t73 -81t43 -106.5
t18 -139q0 -216 -148 -338.5t-453 -122.5zM482 -481l159 358h218l-204 -358h-173z" />
    <glyph glyph-name="uni0219" unicode="&#x219;" horiz-adv-x="1135" 
d="M588 -20q-166 0 -296.5 49.5t-207.5 136.5l137 146q127 -158 361 -158q128 0 191.5 43t63.5 122q0 24 -4.5 44.5t-16.5 36.5t-23.5 28t-34.5 23t-40.5 18t-50.5 15t-55.5 13t-63.5 13q-56 11 -88.5 18.5t-82.5 23t-79.5 31.5t-64.5 43t-54.5 59t-32.5 78t-13 102
q0 153 118 249.5t344 96.5q152 0 259 -44.5t164 -107.5l-126 -136q-109 114 -301 114q-132 0 -193 -46t-61 -118q0 -32 8 -56t29 -42.5t41 -30.5t59.5 -23t67.5 -17.5t82 -16.5q106 -20 178 -45.5t129 -66.5t83.5 -102t26.5 -147q0 -164 -117 -255t-336 -91zM332 -481
l158 358h219l-204 -358h-173z" />
    <glyph glyph-name="uni021A" unicode="&#x21a;" horiz-adv-x="1489" 
d="M637 0v1454h-564v184h1343v-184h-564v-1454h-215zM477 -481l159 358h218l-204 -358h-173z" />
    <glyph glyph-name="uni021B" unicode="&#x21b;" horiz-adv-x="992" 
d="M673 -17q-96 0 -164.5 17t-123 58.5t-81.5 116.5t-27 185v658h-250v173h250v342l207 54v-396h400v-173h-400v-637q0 -127 54.5 -174.5t169.5 -47.5q90 0 176 22v-174q-81 -24 -211 -24zM356 -481l159 358h218l-204 -358h-173z" />
    <glyph glyph-name="uni0237" unicode="&#x237;" horiz-adv-x="619" 
d="M78 -430q-115 0 -200 27v183q86 -32 175 -32q84 0 118.5 41t34.5 135v1267h207v-1285q0 -172 -82.5 -254t-252.5 -82z" />
    <glyph glyph-name="uni0259" unicode="&#x259;" horiz-adv-x="1360" 
d="M649 1211q294 0 448.5 -159.5t154.5 -448.5q0 -290 -156 -456.5t-429 -166.5t-415.5 162.5t-142.5 446.5q0 51 3 78h928q-23 375 -393 375q-231 0 -366 -147l-128 127q180 189 496 189zM319 510q12 -172 100.5 -267.5t248.5 -95.5q174 0 266.5 95t104.5 268h-720z" />
    <glyph glyph-name="uni02BC" unicode="&#x2bc;" horiz-adv-x="520" 
d="M106 1114q166 117 194 246q-16 -5 -41 -5q-64 0 -108.5 41t-44.5 109q0 67 43.5 110.5t112.5 43.5q74 0 120 -56t46 -161q0 -243 -248 -409z" />
    <glyph glyph-name="circumflex" unicode="&#x2c6;" horiz-adv-x="1024" 
d="M110 1378l270 368h264l270 -368h-193l-209 241l-209 -241h-193z" />
    <glyph glyph-name="caron" unicode="&#x2c7;" horiz-adv-x="1024" 
d="M380 1378l-270 368h193l209 -241l209 241h193l-270 -368h-264z" />
    <glyph glyph-name="uni02C9" unicode="&#x2c9;" horiz-adv-x="1024" 
d="M177 1443v173h670v-173h-670z" />
    <glyph glyph-name="breve" unicode="&#x2d8;" horiz-adv-x="1024" 
d="M512 1368q-169 0 -258.5 104t-93.5 274h169q4 -102 50.5 -159t132.5 -57t132.5 57t50.5 159h169q-4 -170 -93.5 -274t-258.5 -104z" />
    <glyph glyph-name="dotaccent" unicode="&#x2d9;" horiz-adv-x="1024" 
d="M512 1403q-62 0 -103 42t-41 104t41 103.5t103 41.5t103 -41.5t41 -103.5t-41 -104t-103 -42z" />
    <glyph glyph-name="ring" unicode="&#x2da;" horiz-adv-x="1024" 
d="M512 1368q-118 0 -198 75t-80 191t80 191t198 75t198 -75t80 -191t-80 -191t-198 -75zM387 1634q0 -56 35 -92.5t90 -36.5t90 36.5t35 92.5t-35 92.5t-90 36.5t-90 -36.5t-35 -92.5z" />
    <glyph glyph-name="ogonek" unicode="&#x2db;" horiz-adv-x="1024" 
d="M512 -432q-33 -7 -82 -7q-46 0 -85 8.5t-73 26.5t-53.5 52t-19.5 80q0 79 58.5 161t179.5 156l75 -45q-69 -69 -104.5 -133.5t-35.5 -109.5q0 -37 23.5 -57t67.5 -20q23 0 49 7v-119z" />
    <glyph glyph-name="tilde" unicode="&#x2dc;" horiz-adv-x="1024" 
d="M105 1378q0 70 11 128t36 107.5t70 77t107 27.5q48 0 91.5 -17t76 -41t61 -48t58.5 -41t57 -17q84 0 84 164h162q0 -70 -11 -128t-36 -107.5t-70 -77t-107 -27.5q-48 0 -91.5 17t-76 41t-61 48t-58.5 41t-57 17q-84 0 -84 -164h-162z" />
    <glyph glyph-name="hungarumlaut" unicode="&#x2dd;" horiz-adv-x="1024" 
d="M153 1378l219 368h248l-283 -368h-184zM592 1378l219 368h248l-283 -368h-184z" />
    <glyph glyph-name="gravecomb" unicode="&#x300;" 
d="M616 1378h-183l-283 368h247z" />
    <glyph glyph-name="acutecomb" unicode="&#x301;" 
d="M408 1378l219 368h247l-283 -368h-183z" />
    <glyph glyph-name="uni0302" unicode="&#x302;" 
d="M110 1378l270 368h264l270 -368h-193l-209 241l-209 -241h-193z" />
    <glyph glyph-name="tildecomb" unicode="&#x303;" 
d="M105 1378q0 70 11 128t36 107.5t70 77t107 27.5q48 0 91.5 -17t76 -41t61 -48t58.5 -41t57 -17q84 0 84 164h162q0 -70 -11 -128t-36 -107.5t-70 -77t-107 -27.5q-48 0 -91.5 17t-76 41t-61 48t-58.5 41t-57 17q-84 0 -84 -164h-162z" />
    <glyph glyph-name="uni0304" unicode="&#x304;" 
d="M177 1443v173h670v-173h-670z" />
    <glyph glyph-name="uni0306" unicode="&#x306;" 
d="M512 1368q-169 0 -258.5 104t-93.5 274h169q4 -102 50.5 -159t132.5 -57t132.5 57t50.5 159h169q-4 -170 -93.5 -274t-258.5 -104z" />
    <glyph glyph-name="uni0307" unicode="&#x307;" 
d="M512 1403q-62 0 -103 42t-41 104t41 103.5t103 41.5t103 -41.5t41 -103.5t-41 -104t-103 -42z" />
    <glyph glyph-name="uni0308" unicode="&#x308;" 
d="M243 1403q-62 0 -103 42t-41 104t41 103.5t103 41.5t103.5 -41.5t41.5 -103.5t-41.5 -104t-103.5 -42zM636 1549q0 62 41.5 103.5t103.5 41.5t103 -41.5t41 -103.5t-41 -104t-103 -42t-103.5 42t-41.5 104z" />
    <glyph glyph-name="uni030A" unicode="&#x30a;" 
d="M512 1368q-118 0 -198 75t-80 191t80 191t198 75t198 -75t80 -191t-80 -191t-198 -75zM387 1634q0 -56 35 -92.5t90 -36.5t90 36.5t35 92.5t-35 92.5t-90 36.5t-90 -36.5t-35 -92.5z" />
    <glyph glyph-name="uni030B" unicode="&#x30b;" 
d="M153 1378l219 368h248l-283 -368h-184zM592 1378l219 368h248l-283 -368h-184z" />
    <glyph glyph-name="uni030C" unicode="&#x30c;" 
d="M380 1378l-270 368h193l209 -241l209 241h193l-270 -368h-264z" />
    <glyph glyph-name="uni0312" unicode="&#x312;" 
d="M383 1378l237 368h193l-172 -368h-258z" />
    <glyph glyph-name="uni0313" unicode="&#x313;" 
d="M459 1378l172 368h257l-237 -368h-192z" />
    <glyph glyph-name="dotbelowcomb" unicode="&#x323;" 
d="M512 -413q-62 0 -103 41.5t-41 103.5t41 103.5t103 41.5t103 -41.5t41 -103.5t-41 -103.5t-103 -41.5z" />
    <glyph glyph-name="uni0324" unicode="&#x324;" 
d="M264 -413q-62 0 -103 41.5t-41 103.5t41 103.5t103 41.5t103 -41.5t41 -103.5t-41 -103.5t-103 -41.5zM616 -268q0 62 41 103.5t103 41.5t103 -41.5t41 -103.5t-41 -103.5t-103 -41.5t-103 41.5t-41 103.5z" />
    <glyph glyph-name="uni0325" unicode="&#x325;" 
d="M512 -644q-118 0 -198 75t-80 191t80 190.5t198 74.5t198 -74.5t80 -190.5t-80 -191t-198 -75zM387 -378q0 -56 35 -92.5t90 -36.5t90 36.5t35 92.5t-35 92.5t-90 36.5t-90 -36.5t-35 -92.5z" />
    <glyph glyph-name="uni0326" unicode="&#x326;" 
d="M244 -481l159 358h218l-204 -358h-173z" />
    <glyph glyph-name="uni0327" unicode="&#x327;" 
d="M489 -439q-84 0 -159 22v128q78 -27 147 -27q106 0 106 71q0 63 -84 63q-33 0 -66 -9l-37 62l52 129h129l-33 -80h12q92 0 144 -43t52 -123q0 -96 -72 -144.5t-191 -48.5z" />
    <glyph glyph-name="uni0328" unicode="&#x328;" 
d="M512 -432q-33 -7 -82 -7q-46 0 -85 8.5t-73 26.5t-53.5 52t-19.5 80q0 79 58.5 161t179.5 156l75 -45q-69 -69 -104.5 -133.5t-35.5 -109.5q0 -37 23.5 -57t67.5 -20q23 0 49 7v-119z" />
    <glyph glyph-name="uni032E" unicode="&#x32e;" 
d="M512 -501q-169 0 -258.5 104t-93.5 274h169q4 -102 50.5 -159t132.5 -57t132.5 57t50.5 159h169q-4 -170 -93.5 -274t-258.5 -104z" />
    <glyph glyph-name="uni0331" unicode="&#x331;" 
d="M177 -296v173h670v-173h-670z" />
    <glyph glyph-name="uni0374" unicode="&#x374;" horiz-adv-x="471" 
d="M179 1638h210l-134 -576h-173z" />
    <glyph glyph-name="uni0375" unicode="&#x375;" horiz-adv-x="471" 
d="M179 301h210l-134 -576h-173z" />
    <glyph glyph-name="uni037E" unicode="&#x37e;" horiz-adv-x="540" 
d="M117 -298q171 139 195 294q-16 -5 -43 -5q-64 0 -108 41t-44 109q0 67 43 110.5t112 43.5q75 0 120.5 -55.5t45.5 -167.5q0 -141 -70.5 -256.5t-177.5 -194.5zM117 1025q0 65 44 109.5t109 44.5t109.5 -44.5t44.5 -109.5t-44.5 -110t-109.5 -45t-109 45t-44 110z" />
    <glyph glyph-name="tonos" unicode="&#x384;" horiz-adv-x="1024" 
d="M379 1324l56 422h210l-93 -422h-173z" />
    <glyph glyph-name="dieresistonos" unicode="&#x385;" horiz-adv-x="1052" 
d="M400 1324l57 422h210l-93 -422h-174zM96 1546q0 57 38 95.5t95 38.5t94.5 -38.5t37.5 -95.5q0 -58 -37.5 -96t-94.5 -38t-95 38t-38 96zM699 1546q0 57 37.5 95.5t94.5 38.5t95 -38.5t38 -95.5q0 -58 -38 -96t-95 -38t-94.5 38t-37.5 96z" />
    <glyph glyph-name="Alphatonos" unicode="&#x386;" horiz-adv-x="1479" 
d="M20 0l584 1638h272l583 -1638h-225l-160 475h-675l-160 -475h-219zM144 1216l57 422h210l-93 -422h-174zM459 653h555l-277 820z" />
    <glyph glyph-name="anoteleia" unicode="&#x387;" horiz-adv-x="520" 
d="M260 974q-65 0 -109.5 44.5t-44.5 109.5t44.5 110t109.5 45t109.5 -45t44.5 -110t-44.5 -109.5t-109.5 -44.5z" />
    <glyph glyph-name="Epsilontonos" unicode="&#x388;" horiz-adv-x="1537" 
d="M332 0v1638h1074v-184h-860v-517h765v-179h-765v-573h860v-185h-1074zM-20 1216l56 422h210l-92 -422h-174z" />
    <glyph glyph-name="Etatonos" unicode="&#x389;" horiz-adv-x="1850" 
d="M1423 0v755h-877v-755h-214v1638h214v-698h877v698h215v-1638h-215zM-20 1216l56 422h210l-92 -422h-174z" />
    <glyph glyph-name="Iotatonos" unicode="&#x38a;" horiz-adv-x="758" 
d="M332 0v1638h214v-1638h-214zM-20 1216l56 422h210l-92 -422h-174z" />
    <glyph glyph-name="Omicrontonos" unicode="&#x38c;" horiz-adv-x="1824" 
d="M952 -20q-186 0 -333.5 63t-242 176t-144 265.5t-49.5 334.5q0 145 31 272.5t94 231.5t154 179t216 116t274 41q186 0 333.5 -63t242 -176.5t144 -266t49.5 -334.5t-49.5 -334.5t-144 -265.5t-242 -176t-333.5 -63zM-20 1216l56 422h210l-92 -422h-174zM400 819
q0 -303 142.5 -479t409.5 -176t409.5 176t142.5 479t-142.5 479.5t-409.5 176.5t-409.5 -176.5t-142.5 -479.5z" />
    <glyph glyph-name="Upsilontonos" unicode="&#x38e;" horiz-adv-x="1680" 
d="M851 0v594l-593 1044h231l479 -861l478 861h215l-595 -1045v-593h-215zM-20 1216l56 422h210l-92 -422h-174z" />
    <glyph glyph-name="Omegatonos" unicode="&#x38f;" horiz-adv-x="1820" 
d="M168 0v185h411q-131 82 -220.5 201.5t-130 248.5t-40.5 267q0 120 29.5 231t91.5 207t150 167t212 111.5t271 40.5t271 -40.5t211.5 -111.5t149.5 -167t91.5 -207t29.5 -231q0 -138 -40 -267t-129.5 -248.5t-220.5 -201.5h411v-185h-658v162q218 128 319.5 315t101.5 409
q0 276 -141 432.5t-396 156.5t-396 -156.5t-141 -432.5q0 -107 23.5 -206t72 -192.5t131 -176.5t193.5 -149v-162h-657zM-20 1216l56 422h210l-92 -422h-174z" />
    <glyph glyph-name="iotadieresistonos" unicode="&#x390;" horiz-adv-x="691" 
d="M509 -17q-74 0 -128 14t-97.5 46.5t-65.5 92.5t-22 147v908h207v-893q0 -80 34 -109.5t107 -29.5q68 0 121 16v-173q-67 -19 -156 -19zM-113 1546q0 57 37.5 95.5t94.5 38.5t95 -38.5t38 -95.5q0 -58 -38 -96t-95 -38t-94.5 38t-37.5 96zM191 1324l56 422h210l-92 -422
h-174zM489 1546q0 57 38 95.5t95 38.5t95 -38.5t38 -95.5q0 -58 -38 -96t-95 -38t-95 38t-38 96z" />
    <glyph glyph-name="Alpha" unicode="&#x391;" horiz-adv-x="1479" 
d="M20 0l584 1638h272l583 -1638h-225l-160 475h-675l-160 -475h-219zM459 653h555l-277 820z" />
    <glyph glyph-name="Beta" unicode="&#x392;" horiz-adv-x="1547" 
d="M212 0v1638h647q281 0 409.5 -110.5t128.5 -304.5q0 -140 -76 -228t-197 -119q160 -34 243 -140.5t83 -275.5q0 -222 -145.5 -341t-450.5 -119h-642zM427 182h407q212 0 305.5 70.5t93.5 223.5q0 145 -86.5 219t-275.5 74h-444v-587zM427 946h408q178 0 262.5 63
t84.5 193t-82 192t-266 62h-407v-510z" />
    <glyph glyph-name="Gamma" unicode="&#x393;" horiz-adv-x="1229" 
d="M212 1638h965v-185h-750v-1453h-215v1638z" />
    <glyph glyph-name="uni0394" unicode="&#x394;" horiz-adv-x="1479" 
d="M20 0l584 1638h272l583 -1638h-1439zM292 179h882l-441 1303z" />
    <glyph glyph-name="Epsilon" unicode="&#x395;" horiz-adv-x="1418" 
d="M212 0v1638h1075v-184h-860v-517h765v-179h-765v-573h860v-185h-1075z" />
    <glyph glyph-name="Zeta" unicode="&#x396;" horiz-adv-x="1437" 
d="M108 0v162l946 1292h-913v184h1176v-161l-947 -1292h960v-185h-1222z" />
    <glyph glyph-name="Eta" unicode="&#x397;" horiz-adv-x="1731" 
d="M1304 0v755h-877v-755h-215v1638h215v-698h877v698h215v-1638h-215z" />
    <glyph glyph-name="Theta" unicode="&#x398;" horiz-adv-x="1745" 
d="M872 -20q-186 0 -333 63t-241.5 176t-144 265.5t-49.5 334.5t49.5 334.5t144 266t241.5 176.5t333 63t333.5 -63t242 -176.5t144 -266t49.5 -334.5t-49.5 -334.5t-144 -265.5t-242 -176t-333.5 -63zM321 819q0 -303 142 -479t409 -176t410 176t143 479t-143 479.5
t-410 176.5t-409 -176.5t-142 -479.5zM470 755v185h806v-185h-806z" />
    <glyph glyph-name="Iota" unicode="&#x399;" horiz-adv-x="639" 
d="M212 0v1638h215v-1638h-215z" />
    <glyph glyph-name="Kappa" unicode="&#x39a;" horiz-adv-x="1413" 
d="M1107 0l-680 792v-792h-215v1638h215v-749l688 749h259l-731 -786l739 -852h-275z" />
    <glyph glyph-name="Lambda" unicode="&#x39b;" horiz-adv-x="1479" 
d="M20 0l584 1638h272l583 -1638h-225l-497 1473l-498 -1473h-219z" />
    <glyph glyph-name="Mu" unicode="&#x39c;" horiz-adv-x="2082" 
d="M212 0v1638h315l517 -1362l517 1362h309v-1638h-204v1392l-510 -1322h-230l-509 1322v-1392h-205z" />
    <glyph glyph-name="Nu" unicode="&#x39d;" horiz-adv-x="1735" 
d="M212 0v1638h267l839 -1366v1366h205v-1638h-267l-839 1366v-1366h-205z" />
    <glyph glyph-name="Xi" unicode="&#x39e;" horiz-adv-x="1381" 
d="M132 0v207h1118v-207h-1118zM132 1432v206h1118v-206h-1118zM227 747v201h928v-201h-928z" />
    <glyph glyph-name="Omicron" unicode="&#x39f;" horiz-adv-x="1745" 
d="M872 -20q-186 0 -333 63t-241.5 176t-144 265.5t-49.5 334.5t49.5 334.5t144 266t241.5 176.5t333 63t333.5 -63t242 -176.5t144 -266t49.5 -334.5t-49.5 -334.5t-144 -265.5t-242 -176t-333.5 -63zM321 819q0 -303 142 -479t409 -176t410 176t143 479t-143 479.5
t-410 176.5t-409 -176.5t-142 -479.5z" />
    <glyph glyph-name="Pi" unicode="&#x3a0;" horiz-adv-x="1690" 
d="M1263 0v1454h-836v-1454h-215v1638h1266v-1638h-215z" />
    <glyph glyph-name="Rho" unicode="&#x3a1;" horiz-adv-x="1531" 
d="M212 0v1638h647q298 0 447 -133.5t149 -361.5t-149 -361t-447 -133h-432v-649h-215zM427 831h414q200 0 299 80.5t99 231.5t-99 231t-299 80h-414v-623z" />
    <glyph glyph-name="Sigma" unicode="&#x3a3;" horiz-adv-x="1437" 
d="M108 0v162l483 658l-483 657v161h1222v-184h-963l466 -632l-469 -637h966v-185h-1222z" />
    <glyph glyph-name="Tau" unicode="&#x3a4;" horiz-adv-x="1489" 
d="M637 0v1454h-564v184h1343v-184h-564v-1454h-215z" />
    <glyph glyph-name="Upsilon" unicode="&#x3a5;" horiz-adv-x="1443" 
d="M614 0v594l-594 1044h232l479 -861l478 861h215l-595 -1045v-593h-215z" />
    <glyph glyph-name="Phi" unicode="&#x3a6;" horiz-adv-x="1876" 
d="M836 -20v136q-353 26 -542.5 217.5t-189.5 485.5t189.5 485.5t542.5 217.5v137h204v-137q178 -13 318 -71t230.5 -151.5t137.5 -215.5t47 -265t-47 -265t-137.5 -215.5t-230.5 -151.5t-318 -71v-136h-204zM321 819q0 -224 132.5 -364t382.5 -164v1057
q-250 -24 -382.5 -164.5t-132.5 -364.5zM1040 291q250 24 383 164t133 364t-133 364.5t-383 164.5v-1057z" />
    <glyph glyph-name="Chi" unicode="&#x3a7;" horiz-adv-x="1491" 
d="M1233 0l-495 681l-484 -681h-234l608 833l-584 805h238l471 -649l461 649h234l-585 -800l608 -838h-238z" />
    <glyph glyph-name="Psi" unicode="&#x3a8;" horiz-adv-x="1676" 
d="M731 0v538q-326 20 -480.5 175.5t-154.5 470.5v454h215v-433q0 -239 96.5 -353.5t323.5 -133.5v920h215v-920q230 19 327.5 133t97.5 354v433h209v-437q0 -323 -154 -482.5t-480 -180.5v-538h-215z" />
    <glyph glyph-name="uni03A9" unicode="&#x3a9;" horiz-adv-x="1756" 
d="M104 0v185h411q-131 82 -220.5 201.5t-129.5 248.5t-40 267q0 120 29.5 231t91.5 207t150 167t212 111.5t271 40.5t271 -40.5t211.5 -111.5t149.5 -167t91.5 -207t29.5 -231q0 -138 -40 -267t-129.5 -248.5t-220.5 -201.5h410v-185h-657v162q218 128 319 315t101 409
q0 276 -140.5 432.5t-395.5 156.5t-396 -156.5t-141 -432.5q0 -107 23.5 -206t72 -192.5t131 -176.5t193.5 -149v-162h-658z" />
    <glyph glyph-name="Iotadieresis" unicode="&#x3aa;" horiz-adv-x="639" 
d="M212 0v1638h215v-1638h-215zM-72 1922q0 62 41 103t103 41t103 -41t41 -103t-41 -104t-103 -42t-103 42t-41 104zM424 1922q0 62 41 103t103 41t103 -41t41 -103t-41 -104t-103 -42t-103 42t-41 104z" />
    <glyph glyph-name="Upsilondieresis" unicode="&#x3ab;" horiz-adv-x="1443" 
d="M614 0v594l-594 1044h232l479 -861l478 861h215l-595 -1045v-593h-215zM336 1922q0 62 41 103t103 41t103 -41t41 -103t-41 -104t-103 -42t-103 42t-41 104zM832 1922q0 62 41 103t103 41t103 -41t41 -103t-41 -104t-103 -42t-103 42t-41 104z" />
    <glyph glyph-name="alphatonos" unicode="&#x3ac;" horiz-adv-x="1476" 
d="M653 -20q-259 0 -401.5 159.5t-142.5 455.5q0 289 136.5 452.5t388.5 163.5q168 0 276.5 -63t157.5 -155l26 198h202l-32 -240v-711l32 -240h-202l-26 200q-45 -101 -151.5 -160.5t-263.5 -59.5zM319 595q0 -207 91.5 -323.5t277.5 -116.5t277.5 116.5t91.5 323.5
t-91.5 324t-277.5 117t-277.5 -117t-91.5 -324zM646 1324l56 422h210l-92 -422h-174z" />
    <glyph glyph-name="epsilontonos" unicode="&#x3ad;" horiz-adv-x="1233" 
d="M670 -20q-249 0 -389 94t-140 265q0 104 55 179.5t155 105.5q-92 24 -139.5 86t-47.5 156q0 158 131.5 251.5t364.5 93.5q322 0 473 -192l-142 -120q-105 138 -328 138q-146 0 -220.5 -52t-74.5 -138q0 -140 226 -140h273v-162h-257q-128 0 -193.5 -49.5t-65.5 -132.5
q0 -95 85 -152t237 -57q230 0 335 138l141 -120q-150 -192 -479 -192zM586 1324l56 422h210l-93 -422h-173z" />
    <glyph glyph-name="etatonos" unicode="&#x3ae;" horiz-adv-x="1433" 
d="M212 0v951l-32 240h202l26 -199q46 90 150 154.5t263 64.5q416 0 416 -469v-1152h-207v1123q0 162 -59 241.5t-201 79.5q-166 0 -258.5 -95t-92.5 -258v-681h-207zM630 1324l56 422h210l-93 -422h-173z" />
    <glyph glyph-name="iotatonos" unicode="&#x3af;" horiz-adv-x="691" 
d="M509 -17q-74 0 -128 14t-97.5 46.5t-65.5 92.5t-22 147v908h207v-893q0 -80 34 -109.5t107 -29.5q68 0 121 16v-173q-67 -19 -156 -19zM213 1324l56 422h210l-92 -422h-174z" />
    <glyph glyph-name="upsilondieresistonos" unicode="&#x3b0;" horiz-adv-x="1411" 
d="M706 -20q-510 0 -510 469v742h207v-713q0 -162 69 -241.5t234 -79.5t234 79.5t69 241.5v713h206v-742q0 -469 -509 -469zM293 1546q0 57 38 95.5t95 38.5t95 -38.5t38 -95.5q0 -58 -38 -96t-95 -38t-95 38t-38 96zM598 1324l56 422h210l-93 -422h-173zM896 1546
q0 57 38 95.5t95 38.5t94.5 -38.5t37.5 -95.5q0 -58 -37.5 -96t-94.5 -38t-95 38t-38 96z" />
    <glyph glyph-name="alpha" unicode="&#x3b1;" horiz-adv-x="1476" 
d="M653 -20q-259 0 -401.5 159.5t-142.5 455.5q0 289 136.5 452.5t388.5 163.5q168 0 276.5 -63t157.5 -155l26 198h202l-32 -240v-711l32 -240h-202l-26 200q-45 -101 -151.5 -160.5t-263.5 -59.5zM319 595q0 -207 91.5 -323.5t277.5 -116.5t277.5 116.5t91.5 323.5
t-91.5 324t-277.5 117t-277.5 -117t-91.5 -324z" />
    <glyph glyph-name="beta" unicode="&#x3b2;" horiz-adv-x="1476" 
d="M206 1192q0 269 139 410t412 141q102 0 186.5 -23t142.5 -63.5t98 -95.5t58.5 -118t18.5 -133q0 -141 -68 -236t-197 -135q186 -39 278.5 -158t92.5 -304q0 -131 -44 -229.5t-120 -155.5t-168.5 -84.5t-200.5 -27.5q-155 0 -262.5 52.5t-158.5 143.5v-586h-207v1602z
M413 584q0 -202 98.5 -315.5t297.5 -113.5q171 0 259.5 82.5t88.5 241.5q0 345 -410 345h-129v172h78q357 0 357 290q0 129 -75.5 205.5t-227.5 76.5q-337 0 -337 -382v-602z" />
    <glyph glyph-name="gamma" unicode="&#x3b3;" horiz-adv-x="1250" 
d="M503 0l-464 1191h221l375 -1013q159 245 228 421.5t69 359.5q0 128 -33 232h208q34 -105 34 -232q0 -158 -53 -320t-142.5 -313.5t-235.5 -345.5v-390h-207v410z" />
    <glyph glyph-name="delta" unicode="&#x3b4;" horiz-adv-x="1383" 
d="M691 -20q-275 0 -428.5 154t-153.5 433q0 235 110.5 380.5t313.5 185.5q-156 56 -220.5 130t-64.5 182q0 68 22.5 120t74 93.5t143 63t221.5 21.5q268 0 510 -77l-49 -189q-249 90 -479 90q-248 0 -248 -119q0 -63 77 -113.5t268 -112.5q251 -83 368.5 -239t117.5 -396
q0 -283 -154.5 -445t-428.5 -162zM319 584q0 -201 94 -315t278 -114q185 0 279 114t94 315t-94 315t-279 114q-184 0 -278 -114t-94 -315z" />
    <glyph glyph-name="epsilon" unicode="&#x3b5;" horiz-adv-x="1233" 
d="M670 -20q-249 0 -389 94t-140 265q0 104 55 179.5t155 105.5q-92 24 -139.5 86t-47.5 156q0 158 131.5 251.5t364.5 93.5q322 0 473 -192l-142 -120q-105 138 -328 138q-146 0 -220.5 -52t-74.5 -138q0 -140 226 -140h273v-162h-257q-128 0 -193.5 -49.5t-65.5 -132.5
q0 -95 85 -152t237 -57q230 0 335 138l141 -120q-150 -192 -479 -192z" />
    <glyph glyph-name="zeta" unicode="&#x3b6;" horiz-adv-x="1088" 
d="M807 -378q64 82 64 187q0 70 -43.5 106.5t-169.5 65.5q-270 61 -404 202t-134 389q0 295 189 552t513 426h-681v173h920v-192q-159 -88 -288 -190t-230.5 -221.5t-157 -259.5t-55.5 -287q0 -162 84 -259t301 -156q194 -53 269 -129.5t75 -196.5q0 -152 -84 -262z" />
    <glyph glyph-name="eta" unicode="&#x3b7;" horiz-adv-x="1433" 
d="M212 0v951l-32 240h202l26 -199q46 90 150 154.5t263 64.5q416 0 416 -469v-1152h-207v1123q0 162 -59 241.5t-201 79.5q-166 0 -258.5 -95t-92.5 -258v-681h-207z" />
    <glyph glyph-name="theta" unicode="&#x3b8;" horiz-adv-x="1425" 
d="M713 -20q-280 0 -439.5 235.5t-159.5 646.5q0 410 159.5 645.5t439.5 235.5q281 0 440 -235.5t159 -645.5t-159 -646t-440 -236zM326 780q12 -294 109.5 -459.5t277.5 -165.5q181 0 278 165t109 460h-774zM326 952h774q-13 291 -110.5 453.5t-276.5 162.5t-276.5 -162.5
t-110.5 -453.5z" />
    <glyph glyph-name="iota" unicode="&#x3b9;" horiz-adv-x="691" 
d="M509 -17q-74 0 -128 14t-97.5 46.5t-65.5 92.5t-22 147v908h207v-893q0 -80 34 -109.5t107 -29.5q68 0 121 16v-173q-67 -19 -156 -19z" />
    <glyph glyph-name="kappa" unicode="&#x3ba;" horiz-adv-x="1215" 
d="M946 0l-533 585v-585h-207v1191h207v-546l544 546h241l-577 -561l580 -630h-255z" />
    <glyph glyph-name="lambda" unicode="&#x3bb;" horiz-adv-x="1267" 
d="M1019 0l-382 1020l-377 -1020h-221l464 1191h56l-74 184q-41 101 -95.5 147t-155.5 46q-85 0 -159 -26v173q77 28 192 28q149 0 243 -70t156 -232l562 -1441h-209z" />
    <glyph glyph-name="uni03BC" unicode="&#x3bc;" horiz-adv-x="1437" 
d="M206 -410v1601h207v-713q0 -162 58.5 -241.5t199.5 -79.5q165 0 256 95t91 258v681h207v-951l33 -240h-203l-25 195q-42 -93 -133.5 -154t-222.5 -61q-178 0 -268 93q7 -162 7 -483h-207z" />
    <glyph glyph-name="nu" unicode="&#x3bd;" horiz-adv-x="1250" 
d="M503 0l-464 1191h221l375 -1013q159 245 228 421.5t69 359.5q0 128 -33 232h208q34 -105 34 -232q0 -226 -101.5 -447.5t-314.5 -511.5h-222z" />
    <glyph glyph-name="xi" unicode="&#x3be;" horiz-adv-x="1099" 
d="M817 -377q65 83 65 188q0 70 -44 106t-171 63q-271 58 -406.5 174t-135.5 311q0 144 75 249t212 143q-124 29 -188.5 107.5t-64.5 187.5q0 285 447 398h-454v173h920v-187q-359 -29 -531.5 -127t-172.5 -248q0 -102 80 -159t235 -57h274v-173h-276q-174 0 -260 -79.5
t-86 -213.5q0 -120 87 -194.5t301 -129.5q102 -27 170 -59t106.5 -73t54 -86t15.5 -104q0 -150 -83 -262z" />
    <glyph glyph-name="omicron" unicode="&#x3bf;" horiz-adv-x="1383" 
d="M691 -20q-273 0 -427.5 164t-154.5 451t154.5 451.5t427.5 164.5q274 0 428.5 -164.5t154.5 -451.5t-154.5 -451t-428.5 -164zM319 595q0 -207 94 -323.5t278 -116.5q185 0 279 116.5t94 323.5q0 206 -94 323.5t-279 117.5q-184 0 -278 -117t-94 -324z" />
    <glyph glyph-name="pi" unicode="&#x3c0;" horiz-adv-x="1588" 
d="M1322 -17q-74 0 -128 13.5t-97 46t-65 92.5t-22 147v736h-526v-1018h-207v1018h-250v173h1452v-173h-262v-720q0 -81 33.5 -110t106.5 -29q68 0 121 16v-173q-67 -19 -156 -19z" />
    <glyph glyph-name="rho" unicode="&#x3c1;" horiz-adv-x="1427" 
d="M163 595q0 287 159 451.5t436 164.5q272 0 416 -163t144 -453q0 -296 -142.5 -455.5t-401.5 -159.5q-149 0 -252 53.5t-152 144.5v-588h-207v1005zM370 595q0 -207 91.5 -323.5t277.5 -116.5t277.5 116.5t91.5 323.5t-91.5 324t-277.5 117t-277.5 -117t-91.5 -324z" />
    <glyph glyph-name="uni03C2" unicode="&#x3c2;" horiz-adv-x="1176" 
d="M796 -378q65 85 65 191q0 71 -43.5 108t-169.5 66q-271 62 -405 208.5t-134 413.5q0 279 149 440.5t429 161.5q300 0 450 -192l-142 -120q-106 137 -306 137q-186 0 -278 -111.5t-92 -314.5q0 -183 85 -283.5t299 -161.5q196 -55 270.5 -131.5t74.5 -198.5
q0 -152 -84 -266z" />
    <glyph glyph-name="sigma" unicode="&#x3c3;" horiz-adv-x="1453" 
d="M675 -20q-266 0 -416 161t-150 444q0 284 154 445t435 161h706v-173h-364q93 -59 147.5 -174.5t54.5 -277.5q0 -273 -150.5 -429.5t-416.5 -156.5zM319 585q0 -202 89.5 -316t266.5 -114t267 114t90 316t-90 316t-267 114t-266.5 -114t-89.5 -316z" />
    <glyph glyph-name="tau" unicode="&#x3c4;" horiz-adv-x="1091" 
d="M726 -17q-74 0 -128 13.5t-97.5 46t-65.5 92.5t-22 147v736h-386v173h1015v-173h-422v-720q0 -81 33.5 -110t106.5 -29q68 0 121 16v-173q-67 -19 -155 -19z" />
    <glyph glyph-name="upsilon" unicode="&#x3c5;" horiz-adv-x="1411" 
d="M706 -20q-510 0 -510 469v742h207v-713q0 -162 69 -241.5t234 -79.5t234 79.5t69 241.5v713h206v-742q0 -469 -509 -469z" />
    <glyph glyph-name="phi" unicode="&#x3c6;" horiz-adv-x="1737" 
d="M765 802q0 179 93 294t271 115q215 0 357.5 -163t142.5 -426q0 -284 -174 -450t-488 -189v-393h-202v394q-311 24 -483.5 185t-172.5 426q0 220 121.5 377t354.5 239l74 -186q-170 -56 -255 -165t-85 -265q0 -186 112 -300t334 -136v643zM967 159q226 21 338.5 140
t112.5 323q0 182 -81 298t-208 116q-84 0 -123 -55.5t-39 -176.5v-645z" />
    <glyph glyph-name="chi" unicode="&#x3c7;" horiz-adv-x="1214" 
d="M969 -410l-363 660l-362 -660h-226l472 818l-451 783h227l342 -621l340 621h227l-452 -781l473 -820h-227z" />
    <glyph glyph-name="psi" unicode="&#x3c8;" horiz-adv-x="1859" 
d="M826 -410v393q-630 38 -630 550v658h207v-629q0 -185 97 -284.5t326 -116.5v1562h207v-1562q230 17 326.5 116.5t96.5 284.5v629h207v-658q0 -512 -630 -550v-393h-207z" />
    <glyph glyph-name="omega" unicode="&#x3c9;" horiz-adv-x="1796" 
d="M566 -20q-215 0 -336 157.5t-121 451.5q0 193 49.5 347t141.5 255h244q-109 -98 -167 -252t-58 -348q0 -213 73 -324.5t198 -111.5q93 0 149 62t56 183v488h207v-488q0 -121 55.5 -183t148.5 -62q125 0 198 111.5t73 324.5q0 196 -58.5 350t-166.5 250h245
q92 -100 141 -254t49 -348q0 -294 -121 -451.5t-336 -157.5q-121 0 -207.5 52t-124.5 150q-37 -98 -123.5 -150t-208.5 -52z" />
    <glyph glyph-name="iotadieresis" unicode="&#x3ca;" horiz-adv-x="691" 
d="M509 -17q-74 0 -128 14t-97.5 46.5t-65.5 92.5t-22 147v908h207v-893q0 -80 34 -109.5t107 -29.5q68 0 121 16v-173q-67 -19 -156 -19zM-38 1549q0 62 41 103.5t103 41.5t103 -41.5t41 -103.5t-41 -104t-103 -42t-103 42t-41 104zM349 1549q0 62 41 103.5t103 41.5
t103 -41.5t41 -103.5t-41 -104t-103 -42t-103 42t-41 104z" />
    <glyph glyph-name="upsilondieresis" unicode="&#x3cb;" horiz-adv-x="1411" 
d="M706 -20q-510 0 -510 469v742h207v-713q0 -162 69 -241.5t234 -79.5t234 79.5t69 241.5v713h206v-742q0 -469 -509 -469zM293 1549q0 62 41 103.5t103 41.5t103.5 -41.5t41.5 -103.5t-41.5 -104t-103.5 -42t-103 42t-41 104zM830 1549q0 62 41.5 103.5t103.5 41.5
t103 -41.5t41 -103.5t-41 -104t-103 -42t-103.5 42t-41.5 104z" />
    <glyph glyph-name="omicrontonos" unicode="&#x3cc;" horiz-adv-x="1383" 
d="M691 -20q-273 0 -427.5 164t-154.5 451t154.5 451.5t427.5 164.5q274 0 428.5 -164.5t154.5 -451.5t-154.5 -451t-428.5 -164zM319 595q0 -207 94 -323.5t278 -116.5q185 0 279 116.5t94 323.5q0 206 -94 323.5t-279 117.5q-184 0 -278 -117t-94 -324zM605 1324l56 422
h210l-93 -422h-173z" />
    <glyph glyph-name="upsilontonos" unicode="&#x3cd;" horiz-adv-x="1411" 
d="M706 -20q-510 0 -510 469v742h207v-713q0 -162 69 -241.5t234 -79.5t234 79.5t69 241.5v713h206v-742q0 -469 -509 -469zM620 1324l56 422h210l-93 -422h-173z" />
    <glyph glyph-name="omegatonos" unicode="&#x3ce;" horiz-adv-x="1796" 
d="M566 -20q-215 0 -336 157.5t-121 451.5q0 193 49.5 347t141.5 255h244q-109 -98 -167 -252t-58 -348q0 -213 73 -324.5t198 -111.5q93 0 149 62t56 183v488h207v-488q0 -121 55.5 -183t148.5 -62q125 0 198 111.5t73 324.5q0 196 -58.5 350t-166.5 250h245
q92 -100 141 -254t49 -348q0 -294 -121 -451.5t-336 -157.5q-121 0 -207.5 52t-124.5 150q-37 -98 -123.5 -150t-208.5 -52zM812 1324l56 422h210l-93 -422h-173z" />
    <glyph glyph-name="uni03D5" unicode="&#x3d5;" horiz-adv-x="1737" 
d="M769 -410v393q-312 23 -486 184.5t-174 427.5t174 428t486 185v515h200v-515q312 -23 486 -185t174 -428t-174 -427.5t-486 -184.5v-393h-200zM319 595q0 -187 113 -301t337 -135v873q-223 -21 -336.5 -135.5t-113.5 -301.5zM969 159q224 21 336.5 135t112.5 301
t-112.5 301.5t-336.5 135.5v-873z" />
    <glyph glyph-name="uni0400" unicode="&#x400;" horiz-adv-x="1418" 
d="M212 0v1638h1075v-184h-860v-517h765v-179h-765v-573h860v-185h-1075zM403 2119h248l219 -368h-183z" />
    <glyph glyph-name="uni0401" unicode="&#x401;" horiz-adv-x="1418" 
d="M212 0v1638h1075v-184h-860v-517h765v-179h-765v-573h860v-185h-1075zM370 1922q0 62 41 103t103 41t103 -41t41 -103t-41 -104t-103 -42t-103 42t-41 104zM866 1922q0 62 41.5 103t103.5 41t103 -41t41 -103t-41 -104t-103 -42t-103.5 42t-41.5 104z" />
    <glyph glyph-name="uni0402" unicode="&#x402;" horiz-adv-x="1803" 
d="M1264 -20q-130 0 -233 27v189q124 -32 219 -32q134 0 197.5 77t63.5 239q0 328 -423 328q-109 0 -220 -16t-178 -36v-756h-215v1454h-402v184h1317v-184h-700v-511q74 18 195.5 33.5t237.5 15.5q305 0 454.5 -128.5t149.5 -384.5q0 -499 -463 -499z" />
    <glyph glyph-name="uni0403" unicode="&#x403;" horiz-adv-x="1229" 
d="M212 1638h965v-185h-750v-1453h-215v1638zM585 1751l219 368h248l-283 -368h-184z" />
    <glyph glyph-name="uni0404" unicode="&#x404;" horiz-adv-x="1598" 
d="M912 -20q-193 0 -344.5 61.5t-249 173t-148 264.5t-50.5 340t50.5 340.5t148 265t249 173t344.5 61.5q219 0 371 -78t241 -202l-143 -134q-80 109 -191 169.5t-279 60.5q-252 0 -396.5 -141.5t-171.5 -396.5h828v-179h-833q15 -280 161.5 -437t411.5 -157q168 0 279 60
t191 169l143 -133q-89 -124 -241 -202t-371 -78z" />
    <glyph glyph-name="uni0405" unicode="&#x405;" horiz-adv-x="1405" 
d="M712 -20q-205 0 -370 62.5t-261 168.5l146 158q181 -205 489 -205q190 0 286 70.5t96 199.5q0 33 -7.5 62t-18 51.5t-32 42.5t-39 34t-51 28.5t-55.5 22.5t-65 19t-67 16.5l-72 16.5q-75 16 -114.5 25.5t-107.5 31t-105.5 43t-85.5 59t-73 81.5t-43 107t-18 140
q0 199 152 322t439 123q348 0 539 -189l-130 -151q-79 78 -178.5 117t-241.5 39q-193 0 -279.5 -68.5t-86.5 -185.5q0 -33 7.5 -62t18 -51.5t32 -42.5t40 -34t51 -28.5t55.5 -23t64.5 -19.5t67 -17t72.5 -16q75 -17 115 -26.5t107.5 -31t105 -43t85.5 -59t73 -81t43 -106.5
t18 -139q0 -216 -148 -338.5t-453 -122.5z" />
    <glyph glyph-name="uni0406" unicode="&#x406;" horiz-adv-x="639" 
d="M212 0v1638h215v-1638h-215z" />
    <glyph glyph-name="uni0407" unicode="&#x407;" horiz-adv-x="639" 
d="M212 0v1638h215v-1638h-215zM-72 1922q0 62 41 103t103 41t103 -41t41 -103t-41 -104t-103 -42t-103 42t-41 104zM424 1922q0 62 41 103t103 41t103 -41t41 -103t-41 -104t-103 -42t-103 42t-41 104z" />
    <glyph glyph-name="uni0408" unicode="&#x408;" horiz-adv-x="950" 
d="M305 -20q-129 0 -232 27v204q98 -39 223 -39q131 0 189.5 60.5t58.5 201.5v1204h215v-1213q0 -235 -111 -340t-343 -105z" />
    <glyph glyph-name="uni0409" unicode="&#x409;" horiz-adv-x="2392" 
d="M1224 0v1454h-551l-78 -913q-14 -164 -44.5 -270.5t-86.5 -172t-133.5 -92t-192.5 -26.5q-45 0 -98 5v193q45 -6 90 -6q90 0 139 31.5t77 111.5t41 234l92 1089h959v-648h281q298 0 447 -133t149 -361t-149 -362t-447 -134h-495zM1438 184h263q200 0 299 80.5t99 231.5
t-99 231t-299 80h-263v-623z" />
    <glyph glyph-name="uni040A" unicode="&#x40a;" horiz-adv-x="2326" 
d="M1158 0v805h-731v-805h-215v1638h215v-648h731v648h214v-648h281q298 0 447.5 -133t149.5 -361t-149.5 -362t-447.5 -134h-495zM1372 184h263q200 0 299 80t99 231t-99 231t-299 80h-263v-622z" />
    <glyph glyph-name="uni040B" unicode="&#x40b;" horiz-adv-x="1829" 
d="M1502 474q0 171 -99.5 252.5t-314.5 81.5q-109 0 -220 -16t-178 -36v-756h-215v1454h-402v184h1317v-184h-700v-511q74 18 195.5 33.5t237.5 15.5q594 0 594 -517v-475h-215v474z" />
    <glyph glyph-name="uni040C" unicode="&#x40c;" horiz-adv-x="1413" 
d="M1107 0l-680 792v-792h-215v1638h215v-749l688 749h259l-731 -786l739 -852h-275zM604 1751l219 368h248l-284 -368h-183z" />
    <glyph glyph-name="uni040D" unicode="&#x40d;" horiz-adv-x="1747" 
d="M1535 0h-213v1377l-841 -1377h-269v1638h214v-1376l841 1376h268v-1638zM503 2119h248l219 -368h-184z" />
    <glyph glyph-name="uni040E" unicode="&#x40e;" horiz-adv-x="1392" 
d="M356 -20q-89 0 -157 20v191q53 -23 136 -23q105 0 174.5 43t125.5 149l-615 1278h226l488 -1046l429 1046h223l-561 -1302q-40 -94 -87 -161t-90 -104.5t-96.5 -58.5t-96 -26.5t-99.5 -5.5zM352 2119h175q7 -233 182 -233t182 233h175q-4 -175 -95 -276.5t-262 -101.5
t-262 101.5t-95 276.5z" />
    <glyph glyph-name="uni040F" unicode="&#x40f;" horiz-adv-x="1710" 
d="M427 1638v-1453h856v1453h215v-1638h-550v-358h-186v358h-550v1638h215z" />
    <glyph glyph-name="uni0410" unicode="&#x410;" horiz-adv-x="1479" 
d="M20 0l584 1638h272l583 -1638h-225l-160 475h-675l-160 -475h-219zM459 653h555l-277 820z" />
    <glyph glyph-name="uni0411" unicode="&#x411;" horiz-adv-x="1555" 
d="M212 0v1638h1124v-185h-909v-470h432q298 0 447 -133t149 -358q0 -227 -149 -359.5t-447 -132.5h-647zM427 184h414q200 0 299 79.5t99 228.5q0 148 -99 228t-299 80h-414v-616z" />
    <glyph glyph-name="uni0412" unicode="&#x412;" horiz-adv-x="1547" 
d="M212 0v1638h647q281 0 409.5 -110.5t128.5 -304.5q0 -140 -76 -228t-197 -119q160 -34 243 -140.5t83 -275.5q0 -222 -145.5 -341t-450.5 -119h-642zM427 182h407q212 0 305.5 70.5t93.5 223.5q0 145 -86.5 219t-275.5 74h-444v-587zM427 946h408q178 0 262.5 63
t84.5 193t-82 192t-266 62h-407v-510z" />
    <glyph glyph-name="uni0413" unicode="&#x413;" horiz-adv-x="1229" 
d="M212 1638h965v-185h-750v-1453h-215v1638z" />
    <glyph glyph-name="uni0414" unicode="&#x414;" horiz-adv-x="1753" 
d="M56 185q83 0 136 16t90.5 59.5t57 115t29.5 187.5l92 1075h1013v-1453h223v-543h-161l-32 358h-1255l-31 -358h-162v543zM452 185h807v1269h-608l-77 -900q-21 -247 -122 -369z" />
    <glyph glyph-name="uni0415" unicode="&#x415;" horiz-adv-x="1418" 
d="M212 0v1638h1075v-184h-860v-517h765v-179h-765v-573h860v-185h-1075z" />
    <glyph glyph-name="uni0416" unicode="&#x416;" horiz-adv-x="2008" 
d="M1720 0l-608 793v-793h-215v793l-609 -793h-257l662 849l-648 789h245l607 -744v744h215v-744l607 744h245l-649 -789l662 -849h-257z" />
    <glyph glyph-name="uni0417" unicode="&#x417;" horiz-adv-x="1420" 
d="M688 -20q-411 0 -608 192l138 158q157 -166 460 -166q431 0 431 302q0 68 -21.5 120t-70 94t-134.5 64t-207 22h-252v180h201q220 0 328 62.5t108 205.5q0 125 -90 193t-273 68q-306 0 -470 -160l-124 150q224 194 604 194q148 0 259.5 -34t177.5 -94t98 -136t32 -166
q0 -134 -74.5 -228.5t-201.5 -128.5q144 -30 235.5 -134t91.5 -284q0 -226 -164.5 -350t-473.5 -124z" />
    <glyph glyph-name="uni0418" unicode="&#x418;" horiz-adv-x="1747" 
d="M1535 0h-213v1377l-841 -1377h-269v1638h214v-1376l841 1376h268v-1638z" />
    <glyph glyph-name="uni0419" unicode="&#x419;" horiz-adv-x="1747" 
d="M1535 0h-213v1377l-841 -1377h-269v1638h214v-1376l841 1376h268v-1638zM504 2119h176q7 -233 182 -233q174 0 181 233h176q-4 -175 -95 -276.5t-262 -101.5t-262.5 101.5t-95.5 276.5z" />
    <glyph glyph-name="uni041A" unicode="&#x41a;" horiz-adv-x="1413" 
d="M1107 0l-680 792v-792h-215v1638h215v-749l688 749h259l-731 -786l739 -852h-275z" />
    <glyph glyph-name="uni041B" unicode="&#x41b;" horiz-adv-x="1757" 
d="M1330 0v1454h-661l-78 -913q-19 -218 -70 -339t-142 -171.5t-245 -50.5q-42 0 -94 5v193q45 -6 90 -6q90 0 139 31.5t77 111.5t41 234l92 1089h1066v-1638h-215z" />
    <glyph glyph-name="uni041C" unicode="&#x41c;" horiz-adv-x="2082" 
d="M212 0v1638h315l517 -1362l517 1362h309v-1638h-204v1392l-510 -1322h-230l-509 1322v-1392h-205z" />
    <glyph glyph-name="uni041D" unicode="&#x41d;" horiz-adv-x="1731" 
d="M1304 0v755h-877v-755h-215v1638h215v-698h877v698h215v-1638h-215z" />
    <glyph glyph-name="uni041E" unicode="&#x41e;" horiz-adv-x="1745" 
d="M872 -20q-186 0 -333 63t-241.5 176t-144 265.5t-49.5 334.5t49.5 334.5t144 266t241.5 176.5t333 63t333.5 -63t242 -176.5t144 -266t49.5 -334.5t-49.5 -334.5t-144 -265.5t-242 -176t-333.5 -63zM321 819q0 -303 142 -479t409 -176t410 176t143 479t-143 479.5
t-410 176.5t-409 -176.5t-142 -479.5z" />
    <glyph glyph-name="uni041F" unicode="&#x41f;" horiz-adv-x="1710" 
d="M1283 0v1454h-856v-1454h-215v1638h1286v-1638h-215z" />
    <glyph glyph-name="uni0420" unicode="&#x420;" horiz-adv-x="1531" 
d="M212 0v1638h647q298 0 447 -133.5t149 -361.5t-149 -361t-447 -133h-432v-649h-215zM427 831h414q200 0 299 80.5t99 231.5t-99 231t-299 80h-414v-623z" />
    <glyph glyph-name="uni0421" unicode="&#x421;" horiz-adv-x="1582" 
d="M896 -20q-193 0 -344.5 61.5t-249 173t-148 264.5t-50.5 340t50.5 340.5t148 265t249 173t344.5 61.5q219 0 371 -78t241 -202l-142 -134q-80 109 -191.5 169.5t-279.5 60.5q-280 0 -427 -174t-147 -482q0 -307 147 -481t427 -174q168 0 279.5 60t191.5 169l142 -133
q-89 -124 -241 -202t-371 -78z" />
    <glyph glyph-name="uni0422" unicode="&#x422;" horiz-adv-x="1489" 
d="M637 0v1454h-564v184h1343v-184h-564v-1454h-215z" />
    <glyph glyph-name="uni0423" unicode="&#x423;" horiz-adv-x="1391" 
d="M356 -20q-89 0 -157 20v191q53 -23 136 -23q105 0 174.5 43t125.5 149l-615 1278h226l488 -1046l429 1046h223l-561 -1302q-40 -94 -87 -161t-90 -104.5t-96.5 -58.5t-96 -26.5t-99.5 -5.5z" />
    <glyph glyph-name="uni0424" unicode="&#x424;" horiz-adv-x="1937" 
d="M1076 374q548 14 548 472q0 457 -548 471v-943zM99 846q0 629 763 641v203h214v-203q763 -12 763 -641t-763 -641v-205h-214v205q-763 12 -763 641zM314 846q0 -458 548 -472v943q-548 -14 -548 -471z" />
    <glyph glyph-name="uni0425" unicode="&#x425;" horiz-adv-x="1491" 
d="M1233 0l-495 681l-484 -681h-234l608 833l-584 805h238l471 -649l461 649h234l-585 -800l608 -838h-238z" />
    <glyph glyph-name="uni0426" unicode="&#x426;" horiz-adv-x="1785" 
d="M427 1638v-1453h856v1453h215v-1453h232v-543h-162l-31 358h-1325v1638h215z" />
    <glyph glyph-name="uni0427" unicode="&#x427;" horiz-adv-x="1567" 
d="M327 1140q0 -171 99.5 -253t314.5 -82q108 0 218.5 16.5t180.5 35.5v781h215v-1638h-215v670q-215 -49 -433 -49q-594 0 -594 517v500h214v-498z" />
    <glyph glyph-name="uni0428" unicode="&#x428;" horiz-adv-x="2257" 
d="M427 1638v-1453h594v1453h215v-1453h594v1453h215v-1638h-1833v1638h215z" />
    <glyph glyph-name="uni0429" unicode="&#x429;" horiz-adv-x="2333" 
d="M427 1638v-1453h594v1453h215v-1453h594v1453h215v-1453h233v-543h-162l-31 358h-1873v1638h215z" />
    <glyph glyph-name="uni042A" unicode="&#x42a;" horiz-adv-x="1803" 
d="M536 0v1454h-463v184h677v-648h380q298 0 447.5 -133t149.5 -361t-149.5 -362t-447.5 -134h-594zM750 184h363q200 0 298.5 80.5t98.5 231.5t-98.5 231t-298.5 80h-363v-623z" />
    <glyph glyph-name="uni042B" unicode="&#x42b;" horiz-adv-x="2033" 
d="M212 0v1638h215v-648h380q298 0 447.5 -133t149.5 -361t-149.5 -362t-447.5 -134h-595zM427 184h363q200 0 298.5 80.5t98.5 231.5t-98.5 231t-298.5 80h-363v-623zM1606 0v1638h215v-1638h-215z" />
    <glyph glyph-name="uni042C" unicode="&#x42c;" horiz-adv-x="1527" 
d="M212 0v1638h215v-648h427q298 0 447.5 -133t149.5 -361t-149.5 -362t-447.5 -134h-642zM427 184h410q200 0 298.5 80.5t98.5 231.5t-98.5 231t-298.5 80h-410v-623z" />
    <glyph glyph-name="uni042D" unicode="&#x42d;" horiz-adv-x="1612" 
d="M717 -20q-219 0 -371 78t-241 202l141 133q86 -109 196.5 -169t275.5 -60q265 0 411.5 157t161.5 437h-854v179h849q-27 255 -171.5 396.5t-396.5 141.5q-287 0 -486 -215l-137 134q107 119 267 192t355 73q193 0 344.5 -61.5t249 -173t148 -265t50.5 -340.5t-50.5 -340
t-148 -264.5t-249 -173t-344.5 -61.5z" />
    <glyph glyph-name="uni042E" unicode="&#x42e;" horiz-adv-x="2300" 
d="M212 0v1638h215v-698h296q15 159 69 290t144.5 227t223.5 149t297 53q176 0 317 -63.5t233 -176t141 -265.5t49 -335q0 -181 -49 -334.5t-141 -266t-233 -175.5t-317 -63q-171 0 -308 57.5t-228 161.5t-142.5 245t-59.5 311h-292v-755h-215zM934 819q0 -303 135 -479
t388 -176q247 0 385 177t138 478t-138 478.5t-385 177.5q-253 0 -388 -176.5t-135 -479.5z" />
    <glyph glyph-name="uni042F" unicode="&#x42f;" horiz-adv-x="1604" 
d="M1392 0h-215v648h-441l-371 -648h-247l407 682q-172 41 -275 157t-103 304q0 236 152 365.5t439 129.5h654v-1638zM364 1141q0 -312 397 -312h416v625h-416q-200 0 -298.5 -80t-98.5 -233z" />
    <glyph glyph-name="uni0430" unicode="&#x430;" horiz-adv-x="1341" 
d="M531 -20q-191 0 -302.5 89.5t-111.5 254.5q0 301 417 347l190 21q66 7 109 21t65.5 36t31 47.5t8.5 62.5q0 177 -256 177q-149 0 -241 -44t-163 -131l-130 130q82 103 218.5 161.5t318.5 58.5q235 0 347.5 -87.5t112.5 -276.5v-607l33 -240h-203l-26 195
q-48 -93 -151 -154t-267 -61zM327 337q0 -88 63 -137t188 -49q177 0 268.5 96t91.5 302v88q-39 -75 -226 -95l-169 -19q-115 -13 -165.5 -60.5t-50.5 -125.5z" />
    <glyph glyph-name="uni0431" unicode="&#x431;" horiz-adv-x="1398" 
d="M715 -20q-403 0 -537 366q-59 165 -59 386q0 580 252 785q63 51 154 90.5t209.5 68.5t225 47.5t253.5 38.5v-196q-282 -41 -441 -80.5t-246 -102.5q-83 -59 -134 -163t-61 -236q143 207 434 207q251 0 387.5 -155.5t136.5 -442.5q0 -298 -145.5 -455.5t-428.5 -157.5z
M336 583q0 -117 41.5 -212t130 -155.5t210.5 -60.5q168 0 264.5 112t96.5 316q0 208 -94.5 320t-269.5 112q-182 0 -280.5 -112t-98.5 -320z" />
    <glyph glyph-name="uni0432" unicode="&#x432;" horiz-adv-x="1283" 
d="M206 0v1191h539q191 0 287 -80t96 -223q0 -88 -45 -156t-141 -102q130 -34 189 -110t59 -176q0 -154 -116.5 -249t-342.5 -95h-525zM413 165h313q254 0 254 190q0 187 -254 187h-313v-377zM413 701h294q213 0 213 164q0 161 -213 161h-294v-325z" />
    <glyph glyph-name="uni0433" unicode="&#x433;" horiz-adv-x="1053" 
d="M206 0v1191h819v-173h-612v-1018h-207z" />
    <glyph glyph-name="uni0434" unicode="&#x434;" horiz-adv-x="1500" 
d="M64 173q81 0 128.5 22t78.5 86.5t41 182.5l63 727h852v-1018h210v-516h-144l-36 343h-1014l-36 -343h-143v516zM395 173h625v845h-464l-49 -556q-17 -189 -112 -289z" />
    <glyph glyph-name="uni0435" unicode="&#x435;" horiz-adv-x="1360" 
d="M712 -20q-294 0 -448.5 159.5t-154.5 448.5q0 290 156 456.5t429 166.5t415.5 -162.5t142.5 -446.5q0 -51 -3 -78h-928q23 -375 393 -375q232 0 366 146l128 -126q-180 -189 -496 -189zM322 681h719q-12 172 -100 267.5t-248 95.5q-174 0 -266.5 -95t-104.5 -268z" />
    <glyph glyph-name="uni0436" unicode="&#x436;" horiz-adv-x="1708" 
d="M1443 0l-485 588v-588h-207v589l-485 -589h-251l534 630l-532 561h244l490 -544v544h207v-543l489 543h245l-532 -561l534 -630h-251z" />
    <glyph glyph-name="uni0437" unicode="&#x437;" horiz-adv-x="1129" 
d="M550 -20q-148 0 -273.5 43t-198.5 129l134 136q120 -134 327 -134q286 0 286 192q0 185 -295 185h-157v165h116q294 0 294 170q0 171 -239 171q-187 0 -315 -118l-125 134q185 158 453 158q212 0 323.5 -88t111.5 -231q0 -93 -57 -163t-156 -97q116 -25 186.5 -102
t70.5 -201q0 -161 -126.5 -255t-359.5 -94z" />
    <glyph glyph-name="uni0438" unicode="&#x438;" horiz-adv-x="1459" 
d="M206 0v1191h207v-943l581 943h260v-1191h-207v943l-581 -943h-260z" />
    <glyph glyph-name="uni0439" unicode="&#x439;" horiz-adv-x="1459" 
d="M206 0v1191h207v-943l581 943h260v-1191h-207v943l-581 -943h-260zM373 1746h175q7 -233 182 -233t182 233h175q-4 -175 -95 -276.5t-262 -101.5t-262 101.5t-95 276.5z" />
    <glyph glyph-name="uni043A" unicode="&#x43a;" horiz-adv-x="1215" 
d="M946 0l-533 585v-585h-207v1191h207v-546l544 546h241l-577 -561l580 -630h-255z" />
    <glyph glyph-name="uni043B" unicode="&#x43b;" horiz-adv-x="1456" 
d="M160 -21q-77 0 -129 21v173q54 -18 95 -18q75 0 116 46.5t50 146.5l75 843h883v-1191h-207v1018h-496l-57 -645q-13 -149 -55 -236.5t-107.5 -122.5t-167.5 -35z" />
    <glyph glyph-name="uni043C" unicode="&#x43c;" horiz-adv-x="1797" 
d="M206 0v1191h312l383 -928l382 928h308v-1191h-206v972l-377 -897h-218l-378 899v-974h-206z" />
    <glyph glyph-name="uni043D" unicode="&#x43d;" horiz-adv-x="1436" 
d="M1024 0v525h-611v-525h-207v1191h207v-493h611v493h207v-1191h-207z" />
    <glyph glyph-name="uni043E" unicode="&#x43e;" horiz-adv-x="1383" 
d="M691 -20q-273 0 -427.5 164t-154.5 451t154.5 451.5t427.5 164.5q274 0 428.5 -164.5t154.5 -451.5t-154.5 -451t-428.5 -164zM319 595q0 -207 94 -323.5t278 -116.5q185 0 279 116.5t94 323.5q0 206 -94 323.5t-279 117.5q-184 0 -278 -117t-94 -324z" />
    <glyph glyph-name="uni043F" unicode="&#x43f;" horiz-adv-x="1436" 
d="M1024 0v1018h-611v-1018h-207v1191h1025v-1191h-207z" />
    <glyph glyph-name="uni0440" unicode="&#x440;" horiz-adv-x="1476" 
d="M212 -410v1361l-32 240h202l26 -198q23 43 58.5 79.5t87.5 69t126 51t162 18.5q252 0 388.5 -163.5t136.5 -452.5q0 -296 -143 -455.5t-401 -159.5q-149 0 -252 53.5t-152 144.5v-588h-207zM419 595q0 -207 91.5 -323.5t277.5 -116.5t277.5 116.5t91.5 323.5t-91.5 324
t-277.5 117t-277.5 -117t-91.5 -324z" />
    <glyph glyph-name="uni0441" unicode="&#x441;" horiz-adv-x="1221" 
d="M687 -20q-280 0 -429 163.5t-149 451.5t149 452t429 164q300 0 450 -192l-142 -120q-106 137 -306 137q-187 0 -278.5 -114.5t-91.5 -326.5t91.5 -326t278.5 -114q200 0 306 137l142 -120q-150 -192 -450 -192z" />
    <glyph glyph-name="uni0442" unicode="&#x442;" horiz-adv-x="1071" 
d="M432 0v1018h-390v173h987v-173h-390v-1018h-207z" />
    <glyph glyph-name="uni0443" unicode="&#x443;" horiz-adv-x="1219" 
d="M321 -410l189 449l-495 1152h221l385 -943l374 943h209l-674 -1601h-209z" />
    <glyph glyph-name="uni0444" unicode="&#x444;" horiz-adv-x="1819" 
d="M1013 155q237 8 362 119t125 321q0 211 -125.5 321.5t-361.5 119.5v-881zM109 595q0 297 180 452.5t517 163.5v427h207v-427q338 -8 517.5 -163.5t179.5 -452.5q0 -296 -179 -451.5t-518 -164.5v-389h-207v389q-339 9 -518 165t-179 451zM319 595q0 -210 125 -321
t362 -119v881q-235 -9 -361 -119.5t-126 -321.5z" />
    <glyph glyph-name="uni0445" unicode="&#x445;" horiz-adv-x="1256" 
d="M980 0l-359 466l-351 -466h-231l473 607l-451 584h237l338 -438l329 438h231l-451 -580l473 -611h-238z" />
    <glyph glyph-name="uni0446" unicode="&#x446;" horiz-adv-x="1503" 
d="M413 1191v-1018h611v1018h207v-1018h209v-516h-143l-36 343h-1055v1191h207z" />
    <glyph glyph-name="uni0447" unicode="&#x447;" horiz-adv-x="1313" 
d="M573 403q-252 0 -367 116t-115 352v320h207v-342q0 -96 27.5 -154t98 -89t193.5 -31q145 0 283 26v590h207v-1191h-207v432q-161 -29 -327 -29z" />
    <glyph glyph-name="uni0448" unicode="&#x448;" horiz-adv-x="2040" 
d="M206 0v1191h207v-1018h504v1018h207v-1018h504v1018h207v-1191h-1629z" />
    <glyph glyph-name="uni0449" unicode="&#x449;" horiz-adv-x="2124" 
d="M206 0v1191h207v-1018h504v1018h207v-1018h504v1018h207v-1018h209v-516h-143l-36 343h-1659z" />
    <glyph glyph-name="uni044A" unicode="&#x44a;" horiz-adv-x="1454" 
d="M420 0v1018h-378v173h585v-446h302q227 0 343 -101t116 -271t-116 -271.5t-343 -101.5h-509zM627 170h296q255 0 255 203t-255 203h-296v-406z" />
    <glyph glyph-name="uni044B" unicode="&#x44b;" horiz-adv-x="1793" 
d="M206 0v1191h207v-446h302q227 0 343.5 -101t116.5 -271t-116.5 -271.5t-343.5 -101.5h-509zM413 170h296q256 0 256 203t-256 203h-296v-406zM1380 0v1191h207v-1191h-207z" />
    <glyph glyph-name="uni044C" unicode="&#x44c;" horiz-adv-x="1255" 
d="M206 0v1191h207v-446h318q227 0 343 -101t116 -271t-116 -271.5t-343 -101.5h-525zM413 170h311q256 0 256 203t-256 203h-311v-406z" />
    <glyph glyph-name="uni044D" unicode="&#x44d;" horiz-adv-x="1217" 
d="M531 -21q-300 0 -451 193l143 120q106 -137 306 -137q171 0 262 95.5t105 275.5h-548v158h546q-36 352 -365 352q-197 0 -303 -137l-140 119q151 193 445 193q280 0 428.5 -164t148.5 -452t-148.5 -452t-428.5 -164z" />
    <glyph glyph-name="uni044E" unicode="&#x44e;" horiz-adv-x="1841" 
d="M1177 -21q-244 0 -389.5 145t-163.5 401h-211v-525h-207v1191h207v-493h214q26 242 170 377.5t380 135.5q255 0 405.5 -165.5t150.5 -450.5t-150.5 -450.5t-405.5 -165.5zM831 595q0 -208 87 -324.5t259 -116.5q167 0 256.5 118t89.5 323t-89.5 323t-256.5 118
q-172 0 -259 -117t-87 -324z" />
    <glyph glyph-name="uni044F" unicode="&#x44f;" horiz-adv-x="1277" 
d="M99 0l308 475q-124 38 -196 129t-72 214q0 170 116.5 271.5t343.5 101.5h472v-1191h-207v453h-259l-282 -453h-224zM349 818q0 -203 256 -203h259v406h-259q-256 0 -256 -203z" />
    <glyph glyph-name="uni0450" unicode="&#x450;" horiz-adv-x="1360" 
d="M712 -20q-294 0 -448.5 159.5t-154.5 448.5q0 290 156 456.5t429 166.5t415.5 -162.5t142.5 -446.5q0 -51 -3 -78h-928q23 -375 393 -375q232 0 366 146l128 -126q-180 -189 -496 -189zM322 681h719q-12 172 -100 267.5t-248 95.5q-174 0 -266.5 -95t-104.5 -268z
M324 1746h248l219 -368h-184z" />
    <glyph glyph-name="uni0451" unicode="&#x451;" horiz-adv-x="1360" 
d="M712 -20q-294 0 -448.5 159.5t-154.5 448.5q0 290 156 456.5t429 166.5t415.5 -162.5t142.5 -446.5q0 -51 -3 -78h-928q23 -375 393 -375q232 0 366 146l128 -126q-180 -189 -496 -189zM274 1549q0 62 41 103.5t103 41.5t103 -41.5t41 -103.5t-41 -104t-103 -42t-103 42
t-41 104zM322 681h719q-12 172 -100 267.5t-248 95.5q-174 0 -266.5 -95t-104.5 -268zM811 1549q0 62 41 103.5t103 41.5t103 -41.5t41 -103.5t-41 -104t-103 -42t-103 42t-41 104z" />
    <glyph glyph-name="uni0452" unicode="&#x452;" horiz-adv-x="1436" 
d="M910 -430q-111 0 -189 26v182q82 -31 160 -31t110.5 40.5t32.5 132.5v793q0 162 -59 241.5t-202 79.5q-166 0 -258 -95t-92 -258v-681h-207v1349h-138v165h138v209h207v-209h445v-165h-445v-337q50 85 151 142t251 57q416 0 416 -469v-841q0 -170 -78 -250.5t-243 -80.5z
" />
    <glyph glyph-name="uni0453" unicode="&#x453;" horiz-adv-x="1053" 
d="M206 0v1191h819v-173h-612v-1018h-207zM539 1378l218 368h248l-283 -368h-183z" />
    <glyph glyph-name="uni0454" unicode="&#x454;" horiz-adv-x="1221" 
d="M687 -20q-280 0 -429 163.5t-149 451.5t149 452t429 164q300 0 450 -192l-142 -120q-106 137 -306 137q-167 0 -257.5 -90.5t-108.5 -261.5h547v-158h-548q14 -180 105 -275.5t262 -95.5q200 0 306 137l142 -120q-150 -192 -450 -192z" />
    <glyph glyph-name="uni0455" unicode="&#x455;" horiz-adv-x="1135" 
d="M588 -20q-166 0 -296.5 49.5t-207.5 136.5l137 146q127 -158 361 -158q128 0 191.5 43t63.5 122q0 24 -4.5 44.5t-16.5 36.5t-23.5 28t-34.5 23t-40.5 18t-50.5 15t-55.5 13t-63.5 13q-56 11 -88.5 18.5t-82.5 23t-79.5 31.5t-64.5 43t-54.5 59t-32.5 78t-13 102
q0 153 118 249.5t344 96.5q152 0 259 -44.5t164 -107.5l-126 -136q-109 114 -301 114q-132 0 -193 -46t-61 -118q0 -32 8 -56t29 -42.5t41 -30.5t59.5 -23t67.5 -17.5t82 -16.5q106 -20 178 -45.5t129 -66.5t83.5 -102t26.5 -147q0 -164 -117 -255t-336 -91z" />
    <glyph glyph-name="uni0456" unicode="&#x456;" horiz-adv-x="619" 
d="M206 0v1191h207v-1191h-207zM156 1585q0 65 43 108t110 43t110.5 -43t43.5 -108t-43.5 -108.5t-110.5 -43.5t-110 43.5t-43 108.5z" />
    <glyph glyph-name="uni0457" unicode="&#x457;" horiz-adv-x="619" 
d="M206 0v1191h207v-1191h-207zM-28 1549q0 62 41 103.5t103 41.5t103 -41.5t41 -103.5t-41 -104t-103 -42t-103 42t-41 104zM359 1549q0 62 41 103.5t103 41.5t103 -41.5t41 -103.5t-41 -104t-103 -42t-103 42t-41 104z" />
    <glyph glyph-name="uni0458" unicode="&#x458;" horiz-adv-x="619" 
d="M78 -430q-115 0 -200 27v183q86 -32 175 -32q84 0 118.5 41t34.5 135v1267h207v-1285q0 -172 -82.5 -254t-252.5 -82zM156 1585q0 65 43 108t110 43t110.5 -43t43.5 -108t-43.5 -108.5t-110.5 -43.5t-110 43.5t-43 108.5z" />
    <glyph glyph-name="uni0459" unicode="&#x459;" horiz-adv-x="1984" 
d="M964 0v1018h-417l-58 -645q-20 -219 -98 -306.5t-231 -87.5q-77 0 -129 21v173q54 -18 95 -18q75 0 116 46.5t50 146.5l75 843h803v-446h289q227 0 343 -101t116 -271t-116 -271.5t-343 -101.5h-495zM1170 170h283q256 0 256 203t-256 203h-283v-406z" />
    <glyph glyph-name="uni045A" unicode="&#x45a;" horiz-adv-x="1957" 
d="M987 0v573h-574v-573h-207v1191h207v-446h574v446h207v-446h238q227 0 343.5 -101t116.5 -271q0 -171 -116.5 -272t-343.5 -101h-445zM1194 170h232q256 0 256 202q0 201 -256 201h-232v-403z" />
    <glyph glyph-name="uni045B" unicode="&#x45b;" horiz-adv-x="1426" 
d="M68 1349v165h138v209h207v-209h445v-165h-445v-337q50 85 151 142t251 57q416 0 416 -469v-742h-207v713q0 162 -59 241.5t-202 79.5q-166 0 -258 -95t-92 -258v-681h-207v1349h-138z" />
    <glyph glyph-name="uni045C" unicode="&#x45c;" horiz-adv-x="1215" 
d="M946 0l-533 585v-585h-207v1191h207v-546l544 546h241l-577 -561l580 -630h-255zM553 1378l219 368h248l-283 -368h-184z" />
    <glyph glyph-name="uni045D" unicode="&#x45d;" horiz-adv-x="1459" 
d="M206 0v1191h207v-943l581 943h260v-1191h-207v943l-581 -943h-260zM368 1746h247l219 -368h-183z" />
    <glyph glyph-name="uni045E" unicode="&#x45e;" horiz-adv-x="1219" 
d="M321 -410l189 449l-495 1152h221l385 -943l374 943h209l-674 -1601h-209zM258 1746h175q7 -233 182 -233t182 233h175q-4 -175 -95 -276.5t-262 -101.5t-262 101.5t-95 276.5z" />
    <glyph glyph-name="uni045F" unicode="&#x45f;" horiz-adv-x="1436" 
d="M632 -336v336h-426v1191h207v-1018h611v1018h207v-1191h-427v-336h-172z" />
    <glyph glyph-name="uni0490" unicode="&#x490;" horiz-adv-x="1249" 
d="M427 1453v-1453h-215v1638h774l27 307h164v-492h-750z" />
    <glyph glyph-name="uni0491" unicode="&#x491;" horiz-adv-x="1053" 
d="M827 1018h-414v-1018h-207v1191h640l36 342h143v-515h-198z" />
    <glyph glyph-name="uni0492" unicode="&#x492;" horiz-adv-x="1229" 
d="M212 1638h965v-185h-750v-551h404v-162h-404v-740h-215v740h-171v162h171v736z" />
    <glyph glyph-name="uni0493" unicode="&#x493;" horiz-adv-x="1053" 
d="M40 537v137h166v517h819v-173h-612v-344h414v-137h-414v-537h-207v537h-166z" />
    <glyph glyph-name="uni0496" unicode="&#x496;" horiz-adv-x="2066" 
d="M1720 0l-608 793v-793h-215v793l-609 -793h-257l662 849l-648 789h245l607 -744v744h215v-744l607 744h245l-649 -789l518 -664h235v-543h-161l-32 358h-155z" />
    <glyph glyph-name="uni0497" unicode="&#x497;" horiz-adv-x="1749" 
d="M1443 0l-485 588v-588h-207v589l-485 -589h-251l534 630l-532 561h244l490 -544v544h207v-543l489 543h245l-532 -561l388 -457h217v-516h-143l-36 343h-143z" />
    <glyph glyph-name="uni049A" unicode="&#x49a;" horiz-adv-x="1439" 
d="M1107 0l-680 792v-792h-215v1638h215v-749l688 749h259l-731 -786l579 -667h215v-543h-162l-31 358h-137z" />
    <glyph glyph-name="uni049B" unicode="&#x49b;" horiz-adv-x="1256" 
d="M946 0l-533 585v-585h-207v1191h207v-546l544 546h241l-577 -561l421 -457h225v-516h-143l-36 343h-142z" />
    <glyph glyph-name="uni049C" unicode="&#x49c;" horiz-adv-x="1424" 
d="M1128 0l-521 755h-16v-252h-102v252h-62v-755h-215v1638h215v-697h62v252h102v-252h29l516 697h238l-601 -786l609 -852h-254z" />
    <glyph glyph-name="uni049D" unicode="&#x49d;" horiz-adv-x="1215" 
d="M959 0l-363 525h-35v-213h-87v213h-61v-525h-207v1191h207v-493h61v212h87v-212h34l374 493h229l-451 -562l454 -629h-242z" />
    <glyph glyph-name="uni04A2" unicode="&#x4a2;" horiz-adv-x="1806" 
d="M1304 0v755h-877v-755h-215v1638h215v-698h877v698h215v-1453h196v-543h-162l-31 358h-218z" />
    <glyph glyph-name="uni04A3" unicode="&#x4a3;" horiz-adv-x="1503" 
d="M1024 0v525h-611v-525h-207v1191h207v-493h611v493h207v-1018h209v-516h-143l-36 343h-237z" />
    <glyph glyph-name="uni04AE" unicode="&#x4ae;" horiz-adv-x="1443" 
d="M614 0v594l-594 1044h232l479 -861l478 861h215l-595 -1045v-593h-215z" />
    <glyph glyph-name="uni04AF" unicode="&#x4af;" horiz-adv-x="1267" 
d="M530 -410v380l-491 1221h221l379 -1009l380 1009h209l-491 -1219v-382h-207z" />
    <glyph glyph-name="uni04B2" unicode="&#x4b2;" horiz-adv-x="1535" 
d="M1233 0l-495 681l-484 -681h-234l608 833l-584 805h238l471 -649l461 649h234l-585 -800l474 -653h230v-543h-162l-31 358h-141z" />
    <glyph glyph-name="uni04B3" unicode="&#x4b3;" horiz-adv-x="1297" 
d="M980 0l-359 466l-351 -466h-231l473 607l-451 584h237l338 -438l329 438h231l-451 -580l339 -438h219v-516h-143l-36 343h-144z" />
    <glyph glyph-name="uni04B8" unicode="&#x4b8;" horiz-adv-x="1595" 
d="M327 1140q0 -165 93 -247t291 -88v285h102v-283q180 9 327 50v781h215v-1638h-215v670q-142 -34 -327 -46v-224h-102v221h-4q-594 0 -594 517v500h214v-498z" />
    <glyph glyph-name="uni04B9" unicode="&#x4b9;" horiz-adv-x="1313" 
d="M558 193v210q-243 4 -355 120t-112 348v320h207v-342q0 -132 57 -196.5t203 -74.5v203h82v-206q139 4 260 26v590h207v-1191h-207v432q-118 -21 -260 -28v-211h-82z" />
    <glyph glyph-name="uni04BA" unicode="&#x4ba;" horiz-adv-x="1567" 
d="M1240 520q0 171 -99.5 253t-314.5 82q-108 0 -219 -16.5t-180 -35.5v-803h-215v1638h215v-648q215 49 433 49q595 0 595 -517v-522h-215v520z" />
    <glyph glyph-name="uni04BB" unicode="&#x4bb;" horiz-adv-x="1426" 
d="M206 0v1723h207v-711q50 85 151 142t251 57q416 0 416 -469v-742h-207v713q0 162 -59 241.5t-202 79.5q-166 0 -258 -95t-92 -258v-681h-207z" />
    <glyph glyph-name="uni04C0" unicode="&#x4c0;" horiz-adv-x="639" 
d="M212 0v1638h215v-1638h-215z" />
    <glyph glyph-name="uni04CF" unicode="&#x4cf;" horiz-adv-x="619" 
d="M206 0v1723h207v-1723h-207z" />
    <glyph glyph-name="uni04D8" unicode="&#x4d8;" horiz-adv-x="1695" 
d="M836 -20q-180 0 -319.5 59.5t-230 169.5t-136.5 263t-46 343q0 69 2 88h1266q-17 272 -158.5 422t-391.5 150q-316 0 -507 -215l-138 134q243 265 653 265q357 0 559.5 -225t202.5 -615q0 -187 -51 -342t-146.5 -265.5t-238.5 -171t-320 -60.5zM316 722
q17 -264 147.5 -411t372.5 -147q127 0 227 43.5t163.5 120.5t100 176t45.5 218h-1056z" />
    <glyph glyph-name="uni04D9" unicode="&#x4d9;" horiz-adv-x="1360" 
d="M649 1211q294 0 448.5 -159.5t154.5 -448.5q0 -290 -156 -456.5t-429 -166.5t-415.5 162.5t-142.5 446.5q0 51 3 78h928q-23 375 -393 375q-231 0 -366 -147l-128 127q180 189 496 189zM319 510q12 -172 100.5 -267.5t248.5 -95.5q174 0 266.5 95t104.5 268h-720z" />
    <glyph glyph-name="uni04E8" unicode="&#x4e8;" horiz-adv-x="1745" 
d="M872 -20q-186 0 -333 63t-241.5 176t-144 265.5t-49.5 334.5t49.5 334.5t144 266t241.5 176.5t333 63t333.5 -63t242 -176.5t144 -266t49.5 -334.5t-49.5 -334.5t-144 -265.5t-242 -176t-333.5 -63zM322 758q15 -276 156 -435t394 -159t394.5 159t156.5 435h-1101z
M327 937h1092q-27 252 -167 395t-380 143q-239 0 -378.5 -143t-166.5 -395z" />
    <glyph glyph-name="uni04E9" unicode="&#x4e9;" horiz-adv-x="1383" 
d="M691 -20q-273 0 -427.5 164t-154.5 451t154.5 451.5t427.5 164.5q274 0 428.5 -164.5t154.5 -451.5t-154.5 -451t-428.5 -164zM322 524q15 -175 108 -272t261 -97t261.5 97t108.5 272h-739zM324 681h736q-19 168 -111.5 261.5t-257.5 93.5q-164 0 -256.5 -93t-110.5 -262
z" />
    <glyph glyph-name="Wgrave" unicode="&#x1e80;" horiz-adv-x="2283" 
d="M1469 0l-291 1087l-364 -1087h-254l-540 1638h224l444 -1427l397 1193l-63 234h223l363 -1409l438 1409h217l-541 -1638h-253zM777 2119h248l219 -368h-184z" />
    <glyph glyph-name="wgrave" unicode="&#x1e81;" horiz-adv-x="1950" 
d="M1235 0l-260 734l-260 -734h-249l-414 1191h219l334 -1028l278 825l-68 203h213l330 -1025l333 1025h208l-415 -1191h-249zM613 1746h248l218 -368h-183z" />
    <glyph glyph-name="Wacute" unicode="&#x1e82;" horiz-adv-x="2283" 
d="M1469 0l-291 1087l-364 -1087h-254l-540 1638h224l444 -1427l397 1193l-63 234h223l363 -1409l438 1409h217l-541 -1638h-253zM1028 1751l219 368h248l-284 -368h-183z" />
    <glyph glyph-name="wacute" unicode="&#x1e83;" horiz-adv-x="1950" 
d="M1235 0l-260 734l-260 -734h-249l-414 1191h219l334 -1028l278 825l-68 203h213l330 -1025l333 1025h208l-415 -1191h-249zM871 1378l219 368h248l-283 -368h-184z" />
    <glyph glyph-name="Wdieresis" unicode="&#x1e84;" horiz-adv-x="2283" 
d="M1469 0l-291 1087l-364 -1087h-254l-540 1638h224l444 -1427l397 1193l-63 234h223l363 -1409l438 1409h217l-541 -1638h-253zM743 1922q0 62 41 103t103 41t103.5 -41t41.5 -103t-41.5 -104t-103.5 -42t-103 42t-41 104zM1240 1922q0 62 41 103t103 41t103 -41t41 -103
t-41 -104t-103 -42t-103 42t-41 104z" />
    <glyph glyph-name="wdieresis" unicode="&#x1e85;" horiz-adv-x="1950" 
d="M1235 0l-260 734l-260 -734h-249l-414 1191h219l334 -1028l278 825l-68 203h213l330 -1025l333 1025h208l-415 -1191h-249zM563 1549q0 62 41 103.5t103 41.5t103 -41.5t41 -103.5t-41 -104t-103 -42t-103 42t-41 104zM1100 1549q0 62 41 103.5t103 41.5t103 -41.5
t41 -103.5t-41 -104t-103 -42t-103 42t-41 104z" />
    <glyph glyph-name="uni1E9E" unicode="&#x1e9e;" horiz-adv-x="1640" 
d="M951 -20q-118 0 -217 23v195q90 -34 232 -34q168 0 264.5 82t96.5 235q0 152 -89 235t-250 83h-140v142l379 513h-546q-141 0 -197.5 -64t-56.5 -206v-1184h-215v1197q0 234 109 337.5t347 103.5h802v-161l-377 -511q214 -15 332.5 -151t118.5 -339q0 -239 -159 -367.5
t-434 -128.5z" />
    <glyph glyph-name="Ygrave" unicode="&#x1ef2;" horiz-adv-x="1443" 
d="M614 0v594l-594 1044h232l479 -861l478 861h215l-595 -1045v-593h-215zM369 2119h248l219 -368h-183z" />
    <glyph glyph-name="ygrave" unicode="&#x1ef3;" horiz-adv-x="1219" 
d="M321 -410l189 449l-495 1152h221l385 -943l374 943h209l-674 -1601h-209zM252 1746h248l219 -368h-183z" />
    <glyph glyph-name="uni2010" unicode="&#x2010;" horiz-adv-x="809" 
d="M91 556v173h628v-173h-628z" />
    <glyph glyph-name="uni2011" unicode="&#x2011;" horiz-adv-x="809" 
d="M91 556v173h628v-173h-628z" />
    <glyph glyph-name="endash" unicode="&#x2013;" horiz-adv-x="1219" 
d="M91 556v173h1037v-173h-1037z" />
    <glyph glyph-name="emdash" unicode="&#x2014;" horiz-adv-x="1833" 
d="M91 556v173h1652v-173h-1652z" />
    <glyph glyph-name="uni2015" unicode="&#x2015;" horiz-adv-x="1833" 
d="M91 556v173h1652v-173h-1652z" />
    <glyph glyph-name="underscoredbl" unicode="&#x2017;" horiz-adv-x="1024" 
d="M-5 -289v166h1034v-166h-1034zM-5 -569v166h1034v-166h-1034z" />
    <glyph glyph-name="quoteleft" unicode="&#x2018;" horiz-adv-x="520" 
d="M414 1577q-166 -117 -194 -245q17 4 41 4q65 0 109 -40.5t44 -108.5q0 -67 -43.5 -110.5t-112.5 -43.5q-74 0 -120 55.5t-46 160.5q0 244 248 410z" />
    <glyph glyph-name="quoteright" unicode="&#x2019;" horiz-adv-x="520" 
d="M106 1114q166 117 194 246q-16 -5 -41 -5q-64 0 -108.5 41t-44.5 109q0 67 43.5 110.5t112.5 43.5q74 0 120 -56t46 -161q0 -243 -248 -409z" />
    <glyph glyph-name="quotesinglbase" unicode="&#x201a;" horiz-adv-x="520" 
d="M106 -250q166 117 194 246q-22 -5 -41 -5q-64 0 -108.5 41t-44.5 109q0 67 43.5 110.5t112.5 43.5q74 0 120 -55.5t46 -160.5q0 -244 -248 -410z" />
    <glyph glyph-name="quotereversed" unicode="&#x201b;" horiz-adv-x="520" 
d="M340 1033q-248 166 -248 409q0 105 46 161t120 56q69 0 112.5 -43.5t43.5 -110.5q0 -68 -44.5 -109t-108.5 -41q-25 0 -41 5q28 -129 194 -246z" />
    <glyph glyph-name="quotedblleft" unicode="&#x201c;" horiz-adv-x="967" 
d="M861 1577q-166 -117 -194 -245q17 4 41 4q65 0 109 -40.5t44 -108.5q0 -67 -43.5 -110.5t-112.5 -43.5q-74 0 -120 55.5t-46 160.5q0 244 248 410zM92 1249q0 244 248 410l74 -82q-166 -117 -194 -245q17 4 41 4q65 0 109 -40.5t44 -108.5q0 -67 -43.5 -110.5
t-112.5 -43.5q-74 0 -120 55.5t-46 160.5z" />
    <glyph glyph-name="quotedblright" unicode="&#x201d;" horiz-adv-x="967" 
d="M106 1114q166 117 194 246q-16 -5 -41 -5q-64 0 -108.5 41t-44.5 109q0 67 43.5 110.5t112.5 43.5q74 0 120 -56t46 -161q0 -243 -248 -409zM553 1114q166 117 194 246q-16 -5 -41 -5q-64 0 -108.5 41t-44.5 109q0 67 43.5 110.5t112.5 43.5q74 0 120 -56t46 -161
q0 -243 -248 -409z" />
    <glyph glyph-name="quotedblbase" unicode="&#x201e;" horiz-adv-x="967" 
d="M106 -250q166 117 194 246q-22 -5 -41 -5q-64 0 -108.5 41t-44.5 109q0 67 43.5 110.5t112.5 43.5q74 0 120 -55.5t46 -160.5q0 -244 -248 -410zM553 -250q166 117 194 246q-22 -5 -41 -5q-64 0 -108.5 41t-44.5 109q0 67 43.5 110.5t112.5 43.5q74 0 120 -55.5
t46 -160.5q0 -244 -248 -410z" />
    <glyph glyph-name="dagger" unicode="&#x2020;" horiz-adv-x="1478" 
d="M632 -410v1406h-420v173h420v469h214v-469h420v-173h-420v-1406h-214z" />
    <glyph glyph-name="daggerdbl" unicode="&#x2021;" horiz-adv-x="1478" 
d="M632 -410v470h-420v172h420v764h-420v173h420v469h214v-469h420v-173h-420v-764h420v-172h-420v-470h-214z" />
    <glyph glyph-name="bullet" unicode="&#x2022;" horiz-adv-x="1076" 
d="M538 532q-66 0 -111.5 45.5t-45.5 112.5t45.5 112t111.5 45q67 0 112.5 -45t45.5 -112t-45.5 -112.5t-112.5 -45.5z" />
    <glyph glyph-name="ellipsis" unicode="&#x2026;" horiz-adv-x="1560" 
d="M260 -13q-65 0 -109.5 44.5t-44.5 109.5t44.5 109.5t109.5 44.5t109.5 -44.5t44.5 -109.5t-44.5 -109.5t-109.5 -44.5zM627 141q0 65 44 109.5t109 44.5t109.5 -44.5t44.5 -109.5t-44.5 -109.5t-109.5 -44.5t-109 44.5t-44 109.5zM1147 141q0 65 44 109.5t109 44.5
t109.5 -44.5t44.5 -109.5t-44.5 -109.5t-109.5 -44.5t-109 44.5t-44 109.5z" />
    <glyph glyph-name="perthousand" unicode="&#x2030;" horiz-adv-x="3292" 
d="M622 0l871 1638h194l-872 -1638h-193zM104 1163q0 227 119.5 361.5t319.5 134.5t319.5 -134.5t119.5 -361.5t-119.5 -361t-319.5 -134t-319.5 134t-119.5 361zM293 1163q0 -157 66 -242.5t184 -85.5t183.5 85.5t65.5 242.5q0 158 -65.5 243.5t-183.5 85.5t-184 -86
t-66 -243zM1327 475q0 227 119 361t319 134t319.5 -134t119.5 -361t-119.5 -361t-319.5 -134t-319 134t-119 361zM1516 475q0 -158 65 -243.5t184 -85.5q118 0 184 86t66 243t-66 243t-184 86q-119 0 -184 -85.5t-65 -243.5zM2311 475q0 227 119.5 361t319.5 134
q201 0 320 -134t119 -361t-119 -361t-320 -134q-200 0 -319.5 134t-119.5 361zM2501 475q0 -158 65.5 -243.5t183.5 -85.5q119 0 184 85.5t65 243.5t-65 243.5t-184 85.5q-118 0 -183.5 -85.5t-65.5 -243.5z" />
    <glyph glyph-name="minute" unicode="&#x2032;" horiz-adv-x="472" 
d="M162 983l-33 655h215l-34 -655h-148z" />
    <glyph glyph-name="second" unicode="&#x2033;" horiz-adv-x="886" 
d="M162 983l-33 655h215l-34 -655h-148zM543 1638h214l-33 -655h-148z" />
    <glyph glyph-name="guilsinglleft" unicode="&#x2039;" horiz-adv-x="704" 
d="M386 261l-298 381l298 381h231l-298 -381l298 -381h-231z" />
    <glyph glyph-name="guilsinglright" unicode="&#x203a;" horiz-adv-x="704" 
d="M319 261h-231l298 381l-298 381h231l298 -381z" />
    <glyph glyph-name="exclamdbl" unicode="&#x203c;" horiz-adv-x="1143" 
d="M199 449l-20 1189h214l-20 -1189h-174zM133 141q0 65 44 109.5t109 44.5t109.5 -44.5t44.5 -109.5t-45 -109.5t-109 -44.5q-65 0 -109 44.5t-44 109.5zM705 141q0 65 44 109.5t109 44.5t109.5 -44.5t44.5 -109.5t-45 -109.5t-109 -44.5q-65 0 -109 44.5t-44 109.5z
M751 1638h214l-20 -1189h-174z" />
    <glyph glyph-name="uni203D" unicode="&#x203d;" horiz-adv-x="1234" 
d="M600 -13q-65 0 -110 44.5t-45 109.5t45 109.5t110 44.5t109 -44.5t44 -109.5t-44.5 -109.5t-108.5 -44.5zM74 1412q40 50 90.5 92t118.5 78t157.5 56.5t191.5 20.5q245 0 372 -114t127 -300q0 -72 -19 -132.5t-56 -110.5t-75 -86t-93 -77q-54 -41 -84 -69t-57 -66.5
t-37.5 -85t-10.5 -110.5v-59h-199l-22 842h209l-10 -411q28 35 77.5 77.5t82 71t58.5 80.5t26 118q0 113 -71.5 180.5t-224.5 67.5q-255 0 -405 -204z" />
    <glyph glyph-name="uni203E" unicode="&#x203e;" horiz-adv-x="1024" 
d="M-5 1761v167h1034v-167h-1034z" />
    <glyph glyph-name="fraction" unicode="&#x2044;" horiz-adv-x="647" 
d="M-281 0l1000 1638h210l-1000 -1638h-210z" />
    <glyph glyph-name="zero.sups" unicode="&#x2070;" horiz-adv-x="1146" 
d="M573 1119q-219 0 -341 140t-122 398t122 397.5t341 139.5t341.5 -139.5t122.5 -397.5t-122.5 -398t-341.5 -140zM307 1657q0 -184 68 -278.5t198 -94.5t198.5 94.5t68.5 278.5t-68.5 278.5t-198.5 94.5t-198 -94.5t-68 -278.5z" />
    <glyph glyph-name="four.sups" unicode="&#x2074;" horiz-adv-x="1068" 
d="M636 1133v188h-560v152l529 708h223v-692h164v-168h-164v-188h-192zM284 1489h352v471z" />
    <glyph glyph-name="five.sups" unicode="&#x2075;" horiz-adv-x="985" 
d="M479 1119q-121 0 -221.5 35t-163.5 95l130 139q93 -104 254 -104q101 0 159 45.5t58 139.5q0 90 -54.5 135t-146.5 45q-116 0 -181 -62h-160v594h677v-168h-493v-259q83 59 209 59q158 0 252 -92t94 -248q0 -169 -110 -261.5t-303 -92.5z" />
    <glyph glyph-name="six.sups" unicode="&#x2076;" horiz-adv-x="1035" 
d="M539 1119q-73 0 -134.5 16t-117 54.5t-94 97t-61 149t-22.5 206.5q0 274 120.5 413t353.5 139q211 0 332 -127l-130 -127q-76 94 -215 94q-142 0 -202 -88t-65 -258q32 57 107.5 98.5t178.5 41.5q151 0 251.5 -91.5t100.5 -251.5q0 -159 -105.5 -262.5t-297.5 -103.5z
M320 1476q0 -89 57.5 -142t154.5 -53t155 53t58 142t-58 142.5t-155 53.5t-154.5 -53.5t-57.5 -142.5z" />
    <glyph glyph-name="seven.sups" unicode="&#x2077;" horiz-adv-x="945" 
d="M275 1133q0 276 95.5 503.5t281.5 376.5h-576v168h793v-154q-227 -189 -314 -396.5t-87 -497.5h-193z" />
    <glyph glyph-name="eight.sups" unicode="&#x2078;" horiz-adv-x="1048" 
d="M524 1119q-199 0 -310 83t-111 220q0 94 52 164.5t153 104.5q-82 28 -127 86t-45 142q0 119 100.5 197t287.5 78t287.5 -78t100.5 -197q0 -84 -45.5 -142.5t-126.5 -86.5q100 -34 152.5 -104t52.5 -164q0 -137 -110.5 -220t-310.5 -83zM301 1443q0 -76 59 -119.5
t164 -43.5q106 0 165 43.5t59 119.5t-59 120t-165 44q-105 0 -164 -44t-59 -120zM330 1897q0 -66 52 -101t142 -35q91 0 142.5 35t51.5 101t-51.5 101.5t-142.5 35.5t-142.5 -35.5t-51.5 -101.5z" />
    <glyph glyph-name="nine.sups" unicode="&#x2079;" horiz-adv-x="1035" 
d="M482 1119q-119 0 -212 34.5t-151 93.5l131 127q81 -94 236 -94q131 0 186 80.5t60 263.5q-31 -60 -104 -99t-179 -39q-152 0 -253.5 92.5t-101.5 255.5q0 155 107 257.5t304 102.5q207 0 314 -124.5t107 -396.5q0 -275 -108.5 -414.5t-335.5 -139.5zM291 1838
q0 -89 58 -142.5t155 -53.5t154.5 53.5t57.5 142.5t-57.5 142t-154.5 53t-155 -53t-58 -142z" />
    <glyph glyph-name="n.sups" unicode="&#x207f;" horiz-adv-x="1161" 
d="M169 690v758l-26 194h181l20 -158q38 74 121 124.5t208 50.5q331 0 331 -374v-595h-185v567q0 123 -45 183t-153 60q-126 0 -196 -72t-70 -196v-542h-186z" />
    <glyph glyph-name="zero.subs" unicode="&#x2080;" horiz-adv-x="1146" 
d="M573 -556q-219 0 -341 140t-122 398t122 397.5t341 139.5t341.5 -139.5t122.5 -397.5t-122.5 -398t-341.5 -140zM307 -18q0 -184 68 -278.5t198 -94.5t198.5 94.5t68.5 278.5t-68.5 278t-198.5 94t-198 -94t-68 -278z" />
    <glyph glyph-name="one.subs" unicode="&#x2081;" horiz-adv-x="985" 
d="M149 -543v168h319v590q-78 -83 -315 -83v166q154 0 231 50.5t97 157.5h180v-881h277v-168h-789z" />
    <glyph glyph-name="two.subs" unicode="&#x2082;" horiz-adv-x="1001" 
d="M101 -444q0 56 12.5 105t30 85t49.5 70t58 55.5t70.5 46.5t71 38t73.5 34q53 24 80 37t63.5 35t53.5 41t30 47t13 60q0 67 -49 105.5t-147 38.5q-173 0 -279 -129l-129 123q148 171 413 171q189 0 285.5 -84t96.5 -224q0 -42 -9.5 -79.5t-24 -66t-41.5 -56t-51 -47
t-64.5 -42.5t-70 -37.5t-78.5 -37.5q-71 -33 -107 -52t-76 -46.5t-56.5 -56.5t-18.5 -65h593v-168h-792v99z" />
    <glyph glyph-name="three.subs" unicode="&#x2083;" horiz-adv-x="980" 
d="M465 -556q-257 0 -395 128l125 140q102 -103 273 -103q106 0 160 41.5t54 118.5q0 149 -211 149h-149v158h110q217 0 217 139q0 67 -48 103t-137 36q-156 0 -262 -99l-119 136q160 128 392 128q181 0 275.5 -75.5t94.5 -195.5q0 -87 -49.5 -148t-135.5 -83
q102 -21 161 -90.5t59 -174.5q0 -142 -108.5 -225t-306.5 -83z" />
    <glyph glyph-name="four.subs" unicode="&#x2084;" horiz-adv-x="1068" 
d="M636 -543v189h-560v151l529 709h223v-692h164v-168h-164v-189h-192zM284 -186h352v471z" />
    <glyph glyph-name="five.subs" unicode="&#x2085;" horiz-adv-x="985" 
d="M479 -556q-121 0 -221.5 35t-163.5 95l130 139q93 -104 254 -104q101 0 159 45.5t58 139.5q0 90 -54.5 135t-146.5 45q-116 0 -181 -62h-160v594h677v-168h-493v-259q83 59 209 59q158 0 252 -92.5t94 -248.5q0 -169 -110 -261t-303 -92z" />
    <glyph glyph-name="six.subs" unicode="&#x2086;" horiz-adv-x="1035" 
d="M539 -556q-73 0 -134.5 16t-117 54.5t-94 97t-61 149t-22.5 206.5q0 274 120.5 413t353.5 139q211 0 332 -127l-130 -127q-75 93 -215 93q-142 0 -202 -87.5t-65 -257.5q32 57 107.5 98.5t178.5 41.5q151 0 251.5 -91.5t100.5 -251.5q0 -159 -105.5 -262.5t-297.5 -103.5
zM320 -199q0 -89 57.5 -142.5t154.5 -53.5t155 53.5t58 142.5t-58 142t-155 53t-154.5 -53t-57.5 -142z" />
    <glyph glyph-name="seven.subs" unicode="&#x2087;" horiz-adv-x="945" 
d="M275 -543q0 276 95.5 504t281.5 377h-576v168h793v-154q-155 -129 -244.5 -270t-123 -287t-33.5 -338h-193z" />
    <glyph glyph-name="eight.subs" unicode="&#x2088;" horiz-adv-x="1048" 
d="M524 -556q-199 0 -310 83t-111 220q0 94 52 164t153 104q-82 27 -127 86t-45 143q0 119 100.5 197t287.5 78t287.5 -78t100.5 -197q0 -84 -45.5 -142.5t-126.5 -86.5q100 -34 152.5 -104t52.5 -164q0 -137 -110.5 -220t-310.5 -83zM301 -232q0 -76 59 -119.5t164 -43.5
q106 0 165 43.5t59 119.5t-59 119.5t-165 43.5q-105 0 -164 -43.5t-59 -119.5zM330 222q0 -66 52 -101t142 -35q91 0 142.5 35t51.5 101t-51.5 101t-142.5 35t-142.5 -35t-51.5 -101z" />
    <glyph glyph-name="nine.subs" unicode="&#x2089;" horiz-adv-x="1035" 
d="M482 -556q-120 0 -212.5 34.5t-150.5 92.5l131 127q80 -93 236 -93q131 0 186 80.5t60 263.5q-31 -60 -104 -99t-179 -39q-152 0 -253.5 92.5t-101.5 255.5q0 155 107 257.5t304 102.5q207 0 314 -124.5t107 -396.5q0 -275 -108.5 -414.5t-335.5 -139.5zM291 162
q0 -89 58 -142t155 -53t154.5 53t57.5 142t-57.5 142.5t-154.5 53.5t-155 -53.5t-58 -142.5z" />
    <glyph glyph-name="n.subs" unicode="&#x2099;" horiz-adv-x="1161" 
d="M169 -219v759l-26 194h181l20 -159q38 74 121 124.5t208 50.5q331 0 331 -374v-595h-185v567q0 123 -45 183t-153 60q-126 0 -196 -71.5t-70 -195.5v-543h-186z" />
    <glyph glyph-name="franc" unicode="&#x20a3;" horiz-adv-x="1384" 
d="M234 0v259h-208v150h208v1229h1048v-184h-833v-567h738v-179h-738v-299h464v-150h-464v-259h-215z" />
    <glyph glyph-name="lira" unicode="&#x20a4;" horiz-adv-x="1444" 
d="M224 162q110 58 176.5 153.5t66.5 210.5q0 26 -2 39h-282v141h248q-13 37 -67 163h-181v141h129q-26 95 -26 179q0 212 142.5 341t409.5 129q179 0 303.5 -59t211.5 -172l-148 -131q-72 96 -162 137t-205 41q-160 0 -248 -75.5t-88 -219.5q0 -78 29 -170h572v-141h-517
q49 -110 65 -163h452v-141h-426q1 -8 1 -24q0 -121 -57.5 -215t-137.5 -141h848v-185h-1107v162z" />
    <glyph glyph-name="peseta" unicode="&#x20a7;" horiz-adv-x="1532" 
d="M210 0v1063h-181v150h181v425h472q273 0 421.5 -113.5t171.5 -311.5h175v-150h-176q-24 -196 -172 -308t-420 -112h-257v-643h-215zM425 826h240q343 0 390 237h-630v-237zM425 1213h631q-45 241 -391 241h-240v-241z" />
    <glyph glyph-name="Euro" unicode="&#x20ac;" horiz-adv-x="1527" 
d="M888 -20q-281 0 -451.5 162.5t-217.5 453.5h-183v142h168q-2 27 -2 81q0 55 2 82h-168v141h183q47 291 217.5 454t451.5 163q355 0 558 -281l-140 -130q-51 71 -104 118t-133.5 78t-180.5 31q-186 0 -300 -112t-151 -321h508v-141h-524q-2 -26 -2 -82q0 -55 2 -81h524
v-142h-508q37 -209 151 -320.5t300 -111.5q145 0 242 58.5t176 167.5l140 -130q-202 -280 -558 -280z" />
    <glyph glyph-name="uni20B4" unicode="&#x20b4;" horiz-adv-x="1410" 
d="M701 -20q-288 0 -438 108t-150 299q0 115 55 205h-94v164h263q56 36 122.5 68t163.5 71.5t130 54.5h-679v164h930q49 62 49 137q0 45 -17 83t-53 71t-100.5 51.5t-151.5 18.5q-263 0 -435 -155l-127 148q217 191 575 191q253 0 388 -106.5t135 -287.5q0 -82 -29 -151h69
v-164h-197q-47 -38 -116 -76.5t-115.5 -59t-135.5 -58.5h564v-164h-879q-101 -83 -101 -191q0 -110 96.5 -173.5t283.5 -63.5q161 0 268.5 45t196.5 142l131 -141q-206 -230 -602 -230z" />
    <glyph glyph-name="uni20B8" unicode="&#x20b8;" horiz-adv-x="1489" 
d="M637 0v1142h-564v185h1343v-185h-564v-1142h-215zM73 1454v184h1343v-184h-1343z" />
    <glyph glyph-name="uni20B9" unicode="&#x20b9;" horiz-adv-x="1474" 
d="M853 0l-724 666v157h376q337 0 390 229h-766v178h766q-53 230 -390 230h-376v178h1217v-178h-366q110 -86 134 -230h232v-178h-231q-28 -199 -178 -303.5t-403 -104.5h-87l704 -644h-298z" />
    <glyph glyph-name="uni20BA" unicode="&#x20ba;" horiz-adv-x="1410" 
d="M280 0v732l-213 -74v151l213 74v143l-213 -74v150l213 74v462h214v-398l465 161v-150l-465 -161v-143l465 160v-150l-465 -161v-611q221 0 352 59.5t188 180t57 319.5h216q0 -378 -194.5 -561t-618.5 -183h-214z" />
    <glyph glyph-name="uni20BC" unicode="&#x20bc;" horiz-adv-x="1572" 
d="M108 523q0 307 147 471.5t427 188.5v455h209v-455q280 -24 427 -188.5t147 -471.5v-523h-215v522q0 225 -83 339.5t-276 136.5v-998h-209v998q-193 -22 -276 -136.5t-83 -339.5v-522h-215v523z" />
    <glyph glyph-name="uni20BD" unicode="&#x20bd;" horiz-adv-x="1465" 
d="M67 658v182h181v798h561q289 0 434.5 -132.5t145.5 -358.5q0 -224 -145.5 -356.5t-434.5 -132.5h-347v-155h504v-182h-504v-321h-214v321h-181v182h181v155h-181zM462 840h330q191 0 285.5 79.5t94.5 227.5q0 307 -380 307h-330v-614z" />
    <glyph glyph-name="uni2105" unicode="&#x2105;" horiz-adv-x="2107" 
d="M428 0l1000 1638h201l-1000 -1638h-201zM109 1222q0 207 107 322t299 115q215 0 321 -142l-127 -107q-70 92 -188 92q-218 0 -218 -278t218 -278q118 0 188 92l127 -108q-106 -142 -321 -142q-192 0 -299 113.5t-107 320.5zM1180 415q0 199 108 317t301 118t301.5 -118
t108.5 -317t-108.5 -317t-301.5 -118t-301 118t-108 317zM1372 415q0 -130 53.5 -204t163.5 -74q109 0 163 74t54 204t-54 203.5t-163 73.5q-110 0 -163.5 -73.5t-53.5 -203.5z" />
    <glyph glyph-name="uni2113" unicode="&#x2113;" horiz-adv-x="1240" 
d="M717 -20q-198 0 -298.5 108t-100.5 335v35q-99 -15 -233 -18v183q130 3 233 19v579q0 195 108.5 316.5t310.5 121.5q200 0 299.5 -120t99.5 -320q0 -259 -162 -444t-447 -271v-72q0 -139 46.5 -203.5t150.5 -64.5q148 0 239 126l139 -131q-138 -179 -385 -179zM527 693
q201 72 304 208t103 318q0 122 -48.5 189t-148.5 67q-101 0 -155.5 -69t-54.5 -200v-513z" />
    <glyph glyph-name="uni2116" unicode="&#x2116;" horiz-adv-x="2555" 
d="M212 0v1638h267l737 -1355v1355h204v-1638h-266l-737 1355v-1355h-205zM1573 1176q0 222 115 352.5t311 130.5t311 -130.5t115 -352.5t-115 -353t-311 -131t-311 131t-115 353zM1653 373v172h692v-172h-692zM1762 1176q0 -153 61 -241t176 -88t176.5 88.5t61.5 240.5
t-61.5 240t-176.5 88t-176 -87.5t-61 -240.5z" />
    <glyph glyph-name="uni2117" unicode="&#x2117;" horiz-adv-x="1897" 
d="M949 -20q-238 0 -431 107.5t-303.5 300t-110.5 431.5t110.5 431.5t303.5 300.5t431 108t431 -108t303.5 -300.5t110.5 -431.5t-110.5 -431.5t-303.5 -300t-431 -107.5zM270 819q0 -197 87 -353.5t242 -243.5t350 -87t350 87t242 243.5t87 353.5t-87 353.5t-242 243.5
t-350 87t-350 -87t-242 -243.5t-87 -353.5zM631 335v968h386q179 0 270.5 -82.5t91.5 -221.5q0 -138 -91.5 -220.5t-270.5 -82.5h-210v-361h-176zM807 849h198q104 0 150 37t46 113q0 77 -46 114t-150 37h-198v-301z" />
    <glyph glyph-name="trademark" unicode="&#x2122;" horiz-adv-x="1830" 
d="M824 852v786h254l188 -579l188 579h260v-786h-174v610l-196 -577h-170l-195 575v-608h-155zM57 1490v148h658v-148h-242v-638h-174v638h-242z" />
    <glyph glyph-name="uni2126" unicode="&#x2126;" horiz-adv-x="1756" 
d="M104 0v185h411q-131 82 -220.5 201.5t-129.5 248.5t-40 267q0 120 29.5 231t91.5 207t150 167t212 111.5t271 40.5t271 -40.5t211.5 -111.5t149.5 -167t91.5 -207t29.5 -231q0 -138 -40 -267t-129.5 -248.5t-220.5 -201.5h410v-185h-657v162q218 128 319 315t101 409
q0 276 -140.5 432.5t-395.5 156.5t-396 -156.5t-141 -432.5q0 -107 23.5 -206t72 -192.5t131 -176.5t193.5 -149v-162h-658z" />
    <glyph glyph-name="estimated" unicode="&#x212e;" horiz-adv-x="1959" 
d="M980 -20q-219 0 -378.5 56t-286.5 177q-254 242 -254 605q0 357 257 606q126 122 283.5 178.5t378.5 56.5q200 0 350.5 -50.5t285.5 -158.5q130 -104 201.5 -273t80.5 -383h-1461q-13 0 -19.5 -2t-11.5 -11.5t-5 -28.5v-410q0 -34 43 -83.5t115 -97.5t185 -82t236 -34
q168 0 323 74t259 192h171q-89 -99 -171 -163t-172 -99q-100 -39 -185.5 -54t-224.5 -15zM401 868q0 -21 37 -21h1079q26 0 33.5 8t7.5 31v403q0 65 -89.5 138t-227 122.5t-264.5 49.5q-94 0 -185.5 -23.5t-160 -59t-122 -76t-81 -76.5t-27.5 -58v-438z" />
    <glyph glyph-name="uni2166" unicode="&#x2166;" horiz-adv-x="2758" 
d="M615 0l-595 1638h225l501 -1452l501 1452h212l-595 -1638h-249zM1692 0v1638h214v-1638h-214zM2332 0v1638h214v-1638h-214z" />
    <glyph glyph-name="partialdiff" unicode="&#x2202;" horiz-adv-x="1460" 
d="M633 -20q-241 0 -382.5 131t-141.5 360q0 88 22 173t70.5 163.5t117 138t168.5 95t219 35.5q167 0 272 -67t143 -181q28 147 28 253q0 189 -82 292t-254 103q-111 0 -200.5 -42t-145.5 -113l-146 139q79 89 206.5 144t292.5 55q266 0 401.5 -151t135.5 -428
q0 -154 -40 -350q-74 -371 -237 -560.5t-447 -189.5zM325 471q0 -135 79 -222t237 -87q88 0 158.5 29.5t113.5 74.5t71.5 104t39.5 113t11 106q0 135 -79 222t-237 87q-88 0 -158.5 -29.5t-113.5 -74.5t-71.5 -104t-39.5 -113t-11 -106z" />
    <glyph glyph-name="uni2206" unicode="&#x2206;" horiz-adv-x="1479" 
d="M20 0l584 1638h272l583 -1638h-1439zM292 179h882l-441 1303z" />
    <glyph glyph-name="product" unicode="&#x220f;" horiz-adv-x="1579" 
d="M1170 -410v1872h-761v-1872h-197v2048h1155v-2048h-197z" />
    <glyph glyph-name="summation" unicode="&#x2211;" horiz-adv-x="1250" 
d="M108 -410v162l631 862l-631 863v161h1035v-184h-780l555 -764v-151l-555 -764h780v-185h-1035z" />
    <glyph glyph-name="minus" unicode="&#x2212;" horiz-adv-x="1588" 
d="M180 625v183h1229v-183h-1229z" />
    <glyph glyph-name="uni2215" unicode="&#x2215;" horiz-adv-x="1118" 
d="M108 0l693 1638h210l-693 -1638h-210z" />
    <glyph glyph-name="uni2219" unicode="&#x2219;" horiz-adv-x="1076" 
d="M538 532q-66 0 -111.5 45.5t-45.5 112.5t45.5 112t111.5 45q67 0 112.5 -45t45.5 -112t-45.5 -112.5t-112.5 -45.5z" />
    <glyph glyph-name="radical" unicode="&#x221a;" horiz-adv-x="1502" 
d="M621 -410l-328 994h-216v185h375l308 -993l615 1862h203l-698 -2048h-259z" />
    <glyph glyph-name="infinity" unicode="&#x221e;" horiz-adv-x="1783" 
d="M1285 188q-136 0 -229.5 66.5t-163.5 181.5q-71 -115 -164 -181.5t-229 -66.5q-175 0 -282.5 112.5t-107.5 313.5q0 202 107.5 314.5t282.5 112.5q136 0 229 -66.5t164 -181.5q70 115 163.5 181.5t229.5 66.5q175 0 282.5 -112.5t107.5 -314.5q0 -201 -107.5 -313.5
t-282.5 -112.5zM304 614q0 -122 56 -187.5t151 -65.5q94 0 155 60t130 193q-69 133 -130 193t-155 60q-95 0 -151 -65.5t-56 -187.5zM988 614q69 -133 130 -193t154 -60q95 0 151.5 65.5t56.5 187.5t-56.5 187.5t-151.5 65.5q-93 0 -154 -60t-130 -193z" />
    <glyph glyph-name="integral" unicode="&#x222b;" horiz-adv-x="794" 
d="M144 -430q-96 0 -169 23v175q69 -23 139 -23q90 0 122 42.5t32 131.5v1489q0 335 332 335q96 0 169 -23v-175q-69 23 -139 23q-90 0 -122.5 -42.5t-32.5 -130.5v-1490q0 -335 -331 -335z" />
    <glyph glyph-name="approxequal" unicode="&#x2248;" horiz-adv-x="1588" 
d="M180 817q0 60 10 113t33.5 103.5t60.5 86.5t94.5 58t130.5 22q65 0 132 -21t122.5 -50.5t108 -59t106 -50.5t99.5 -21q142 0 142 202h190q0 -76 -17 -141t-53 -121t-102.5 -88.5t-157.5 -32.5q-65 0 -131.5 21t-122 50.5t-108 59t-106 50.5t-99.5 21q-142 0 -142 -202
h-190zM180 342q0 60 10 113t33.5 103.5t60.5 86.5t94.5 58t130.5 22q65 0 132 -21t122.5 -50.5t108 -59t106 -50.5t99.5 -21q142 0 142 202h190q0 -76 -17 -141t-53 -121t-102.5 -88.5t-157.5 -32.5q-65 0 -131.5 21t-122 50.5t-108 59t-106 50.5t-99.5 21q-142 0 -142 -202
h-190z" />
    <glyph glyph-name="notequal" unicode="&#x2260;" horiz-adv-x="1588" 
d="M180 828v184h723l154 203h208l-154 -203h298v-184h-427l-169 -222h596v-184h-724l-154 -203h-207l154 203h-298v184h426l169 222h-595z" />
    <glyph glyph-name="lessequal" unicode="&#x2264;" horiz-adv-x="1588" 
d="M180 971l1229 349v-192l-992 -267l992 -267v-192l-1229 349v220zM180 66v180h1229v-180h-1229z" />
    <glyph glyph-name="greaterequal" unicode="&#x2265;" horiz-adv-x="1588" 
d="M1409 751l-1229 -349v192l991 267l-991 267v192l1229 -349v-220zM180 66v180h1229v-180h-1229z" />
    <glyph glyph-name="lozenge" unicode="&#x25ca;" horiz-adv-x="1438" 
d="M587 -410l-499 1024l499 1024h264l500 -1024l-500 -1024h-264zM308 614l411 -843l412 843l-412 844z" />
    <glyph glyph-name="uniFEFF" unicode="&#xfeff;" 
 />
    <glyph glyph-name="uni004A0301" horiz-adv-x="950" 
d="M305 -20q-129 0 -232 27v204q98 -39 223 -39q131 0 189.5 60.5t58.5 201.5v1204h215v-1213q0 -235 -111 -340t-343 -105zM544 1751l219 368h248l-284 -368h-183z" />
    <glyph glyph-name="i.loclTRK" horiz-adv-x="619" 
d="M206 0v1191h207v-1191h-207zM165 1549q0 62 41 103.5t103 41.5t103 -41.5t41 -103.5t-41 -104t-103 -42t-103 42t-41 104z" />
    <glyph glyph-name="uni006A0301" horiz-adv-x="619" 
d="M78 -430q-115 0 -200 27v183q86 -32 175 -32q84 0 118.5 41t34.5 135v1267h207v-1285q0 -172 -82.5 -254t-252.5 -82zM205 1378l168 368h248l-232 -368h-184z" />
    <glyph glyph-name="zero.dnom" horiz-adv-x="1146" 
d="M573 -13q-219 0 -341 139.5t-122 397.5t122 398t341 140t341.5 -140t122.5 -398t-122.5 -397.5t-341.5 -139.5zM307 524q0 -184 68 -278t198 -94t198.5 94t68.5 278t-68.5 278.5t-198.5 94.5t-198 -94.5t-68 -278.5z" />
    <glyph glyph-name="one.dnom" horiz-adv-x="985" 
d="M149 0v168h319v589q-77 -82 -315 -82v166q154 0 231 50.5t97 157.5h180v-881h277v-168h-789z" />
    <glyph glyph-name="two.dnom" horiz-adv-x="1001" 
d="M101 98q0 56 12.5 105t30 85t49.5 70t58 55.5t70.5 46.5t71 38t73.5 34q52 24 80 37t64 35.5t53 41.5t30 47t13 60q0 67 -49 105.5t-147 38.5q-173 0 -279 -130l-129 124q148 171 413 171q189 0 285.5 -84t96.5 -224q0 -42 -9.5 -79.5t-24 -66t-41.5 -56t-51 -47
t-64.5 -42.5t-70 -37.5t-78.5 -37.5q-71 -33 -107 -52t-76 -46.5t-56.5 -56.5t-18.5 -65h593v-168h-792v98z" />
    <glyph glyph-name="three.dnom" horiz-adv-x="980" 
d="M465 -13q-257 0 -395 128l125 140q102 -103 273 -103q106 0 160 41t54 118q0 149 -211 149h-149v158h110q217 0 217 140q0 67 -48 103t-137 36q-156 0 -262 -99l-119 135q161 129 392 129q181 0 275.5 -75.5t94.5 -195.5q0 -87 -49.5 -148t-135.5 -83q102 -21 161 -91
t59 -175q0 -142 -108 -224.5t-307 -82.5z" />
    <glyph glyph-name="four.dnom" horiz-adv-x="1068" 
d="M636 0v189h-560v151l529 709h223v-693h164v-167h-164v-189h-192zM284 356h352v472z" />
    <glyph glyph-name="five.dnom" horiz-adv-x="985" 
d="M479 -13q-121 0 -221.5 35t-163.5 95l130 138q92 -103 254 -103q101 0 159 45.5t58 139.5q0 90 -54.5 135t-146.5 45q-116 0 -181 -62h-160v594h677v-168h-493v-259q82 58 209 58q158 0 252 -92t94 -248q0 -169 -110 -261t-303 -92z" />
    <glyph glyph-name="six.dnom" horiz-adv-x="1035" 
d="M539 -13q-92 0 -166 26.5t-135 85t-94.5 162.5t-33.5 248q0 275 120.5 414t353.5 139q211 0 332 -127l-130 -127q-75 93 -215 93q-142 0 -202 -87.5t-65 -257.5q32 57 107.5 98t178.5 41q151 0 251.5 -91.5t100.5 -251.5q0 -158 -105.5 -261.5t-297.5 -103.5zM320 344
q0 -89 57.5 -142.5t154.5 -53.5t155 53.5t58 142.5t-58 142t-155 53t-154.5 -53t-57.5 -142z" />
    <glyph glyph-name="seven.dnom" horiz-adv-x="945" 
d="M275 0q0 276 95.5 504t281.5 377h-576v168h793v-155q-227 -189 -314 -396.5t-87 -497.5h-193z" />
    <glyph glyph-name="eight.dnom" horiz-adv-x="1048" 
d="M524 -13q-199 0 -310 83t-111 220q0 94 52 164t153 104q-82 27 -127 86t-45 143q0 119 100.5 197t287.5 78t287.5 -78t100.5 -197q0 -84 -45.5 -142.5t-126.5 -86.5q100 -34 152.5 -104t52.5 -164q0 -137 -110.5 -220t-310.5 -83zM301 311q0 -76 59 -120t164 -44
q106 0 165 44t59 120t-59 119.5t-165 43.5q-105 0 -164 -43.5t-59 -119.5zM330 764q0 -66 52 -101t142 -35q91 0 142.5 35t51.5 101t-51.5 101.5t-142.5 35.5t-142.5 -35.5t-51.5 -101.5z" />
    <glyph glyph-name="nine.dnom" horiz-adv-x="1035" 
d="M482 -13q-120 0 -212.5 34.5t-150.5 92.5l131 127q81 -94 236 -94q131 0 186 81t60 264q-31 -60 -104 -99.5t-179 -39.5q-152 0 -253.5 92.5t-101.5 255.5q0 156 107 258.5t304 102.5q207 0 314 -124.5t107 -396.5q0 -275 -108.5 -414.5t-335.5 -139.5zM291 705
q0 -89 58 -142.5t155 -53.5t154.5 53.5t57.5 142.5t-57.5 142.5t-154.5 53.5t-155 -53.5t-58 -142.5z" />
    <glyph glyph-name="zero.numr" horiz-adv-x="1146" 
d="M573 577q-219 0 -341 139.5t-122 397.5t122 398t341 140t341.5 -140t122.5 -398t-122.5 -397.5t-341.5 -139.5zM307 1114q0 -184 68 -278.5t198 -94.5t198.5 94.5t68.5 278.5t-68.5 278.5t-198.5 94.5t-198 -94.5t-68 -278.5z" />
    <glyph glyph-name="one.numr" horiz-adv-x="985" 
d="M149 590v168h319v589q-77 -82 -315 -82v166q154 0 231 50t97 157h180v-880h277v-168h-789z" />
    <glyph glyph-name="two.numr" horiz-adv-x="1001" 
d="M101 688q0 56 12.5 105t30 85t49.5 70t58 55.5t70.5 46.5t71 38t73.5 34q53 24 80 37t63.5 35t53.5 41t30 47t13 60q0 67 -49 106t-147 39q-173 0 -279 -130l-129 124q148 171 413 171q189 0 285.5 -84t96.5 -224q0 -42 -9.5 -79.5t-24 -66t-41.5 -56t-51 -47
t-64.5 -42.5t-70 -37.5t-78.5 -37.5q-71 -33 -107 -52t-76 -46.5t-56.5 -56.5t-18.5 -65h593v-168h-792v98z" />
    <glyph glyph-name="three.numr" horiz-adv-x="980" 
d="M465 577q-257 0 -395 128l125 140q103 -104 273 -104q106 0 160 41.5t54 118.5q0 149 -211 149h-149v158h110q217 0 217 140q0 67 -48 103t-137 36q-156 0 -262 -99l-119 135q161 129 392 129q181 0 275.5 -76t94.5 -196q0 -87 -49.5 -147.5t-135.5 -82.5
q102 -21 161 -91t59 -175q0 -142 -108 -224.5t-307 -82.5z" />
    <glyph glyph-name="four.numr" horiz-adv-x="1068" 
d="M636 590v189h-560v151l529 708h223v-692h164v-167h-164v-189h-192zM284 946h352v472z" />
    <glyph glyph-name="five.numr" horiz-adv-x="985" 
d="M479 577q-121 0 -221.5 35t-163.5 95l130 138q93 -104 254 -104q101 0 159 46t58 140q0 90 -54.5 134.5t-146.5 44.5q-116 0 -181 -62h-160v594h677v-168h-493v-259q83 59 209 59q158 0 252 -92t94 -248q0 -169 -110 -261t-303 -92z" />
    <glyph glyph-name="six.numr" horiz-adv-x="1035" 
d="M539 577q-92 0 -166 26.5t-135 85t-94.5 162.5t-33.5 248q0 275 120.5 414t353.5 139q211 0 332 -127l-130 -127q-75 93 -215 93q-142 0 -202 -88t-65 -258q32 57 107.5 98.5t178.5 41.5q151 0 251.5 -91.5t100.5 -251.5q0 -158 -105.5 -261.5t-297.5 -103.5zM320 933
q0 -89 57.5 -142t154.5 -53t155 53t58 142t-58 142.5t-155 53.5t-154.5 -53.5t-57.5 -142.5z" />
    <glyph glyph-name="seven.numr" horiz-adv-x="945" 
d="M275 590q0 276 95.5 503.5t281.5 376.5h-576v168h793v-154q-227 -189 -314 -396.5t-87 -497.5h-193z" />
    <glyph glyph-name="eight.numr" horiz-adv-x="1048" 
d="M524 577q-199 0 -310 83t-111 220q0 94 52 164t153 104q-82 27 -127 86t-45 143q0 119 100.5 197t287.5 78t287.5 -78t100.5 -197q0 -84 -45.5 -143t-126.5 -87q100 -34 152.5 -103.5t52.5 -163.5q0 -137 -110.5 -220t-310.5 -83zM301 901q0 -76 59 -120t164 -44
q106 0 165 44t59 120t-59 119.5t-165 43.5q-105 0 -164 -43.5t-59 -119.5zM330 1354q0 -66 52 -101t142 -35q91 0 142.5 35t51.5 101t-51.5 101.5t-142.5 35.5t-142.5 -35.5t-51.5 -101.5z" />
    <glyph glyph-name="nine.numr" horiz-adv-x="1035" 
d="M482 577q-120 0 -212.5 34.5t-150.5 92.5l131 127q81 -94 236 -94q131 0 186 80.5t60 263.5q-31 -60 -104 -99t-179 -39q-152 0 -253.5 92.5t-101.5 255.5q0 156 107 258.5t304 102.5q207 0 314 -125t107 -397q0 -275 -108.5 -414t-335.5 -139zM291 1295q0 -89 58 -142.5
t155 -53.5t154.5 53.5t57.5 142.5t-57.5 142t-154.5 53t-155 -53t-58 -142z" />
    <glyph glyph-name="uni0306.cy" 
d="M512 1368q-171 0 -262 101.5t-95 276.5h175q7 -233 182 -233t182 233h175q-4 -175 -95 -276.5t-262 -101.5z" />
    <glyph glyph-name="uni0306.cy.case" 
d="M512 1741q-171 0 -262 101.5t-95 276.5h175q7 -233 182 -233t182 233h175q-4 -175 -95 -276.5t-262 -101.5z" />
    <glyph glyph-name="uni030C.alt" 
d="M512 1260v463h214l-68 -463h-146z" />
    <glyph glyph-name="uni0308.case" 
d="M264 1776q-62 0 -103 42t-41 104t41 103t103 41t103 -41t41 -103t-41 -104t-103 -42zM616 1922q0 62 41 103t103 41t103 -41t41 -103t-41 -104t-103 -42t-103 42t-41 104z" />
    <glyph glyph-name="uni0307.case" 
d="M512 1776q-62 0 -103 42t-41 104t41 103t103 41t103 -41t41 -103t-41 -104t-103 -42z" />
    <glyph glyph-name="gravecomb.case" 
d="M620 1751h-183l-284 368h248z" />
    <glyph glyph-name="acutecomb.case" 
d="M404 1751l219 368h248l-284 -368h-183z" />
    <glyph glyph-name="uni030B.case" 
d="M181 1751l219 368h248l-284 -368h-183zM580 1751l219 368h248l-283 -368h-184z" />
    <glyph glyph-name="uni030C.alt.case" 
d="M512 1117v521h214l-68 -521h-146z" />
    <glyph glyph-name="uni0302.case" 
d="M380 2119h264l270 -368h-193l-209 241l-209 -241h-193z" />
    <glyph glyph-name="uni030C.case" 
d="M380 1751l-270 368h193l209 -241l209 241h193l-270 -368h-264z" />
    <glyph glyph-name="uni0306.case" 
d="M512 1741q-169 0 -258.5 104t-93.5 274h169q4 -102 50.5 -159t132.5 -57t132.5 57t50.5 159h169q-4 -170 -93.5 -274t-258.5 -104z" />
    <glyph glyph-name="uni030A.case" 
d="M512 1710q-118 0 -198 75t-80 191t80 191t198 75t198 -75t80 -191t-80 -191t-198 -75zM387 1976q0 -56 35 -92.5t90 -36.5t90 36.5t35 92.5t-35 92t-90 36t-90 -36t-35 -92z" />
    <glyph glyph-name="tildecomb.case" 
d="M105 1751q0 70 11 128t36 107t70 76.5t107 27.5q48 0 91.5 -17t76 -40.5t61 -47.5t58.5 -41t57 -17q84 0 84 163h162q0 -70 -11 -128t-36 -107t-70 -76.5t-107 -27.5q-48 0 -91.5 17t-76 40.5t-61 47.5t-58.5 41t-57 17q-84 0 -84 -163h-162z" />
    <glyph glyph-name="uni0304.case" 
d="M177 1816v173h670v-173h-670z" />
    <glyph glyph-name="uni0308.narrow" 
d="M318 1403q-62 0 -102.5 41.5t-40.5 104.5q0 62 40.5 103.5t102.5 41.5t103 -41.5t41 -103.5t-41 -104t-103 -42zM562 1549q0 62 41 103.5t103 41.5t102.5 -41.5t40.5 -103.5q0 -63 -40.5 -104.5t-102.5 -41.5t-103 42t-41 104z" />
    <glyph glyph-name="gravecomb.narrow" 
d="M616 1378h-183l-232 368h248z" />
    <glyph glyph-name="acutecomb.narrow" 
d="M408 1378l167 368h248l-232 -368h-183z" />
    <glyph glyph-name="uni0302.narrow" 
d="M161 1378l237 368h228l237 -368h-193l-158 219l-158 -219h-193z" />
    <glyph glyph-name="uni0306.narrow" 
d="M512 1368q-149 0 -224.5 96.5t-75.5 281.5h167q0 -115 33 -166.5t100 -51.5t100 51.5t33 166.5h167q0 -185 -75.5 -281.5t-224.5 -96.5z" />
    <glyph glyph-name="tildecomb.narrow" 
d="M156 1378q0 65 10 121.5t32 108t65 81t102 29.5q43 0 80.5 -16.5t63.5 -40t48 -46.5t44 -39.5t42 -16.5q63 0 63 159h162q0 -65 -10 -121.5t-32 -108t-65 -81t-102 -29.5q-43 0 -80.5 16.5t-63.5 40t-48 46.5t-44 39.5t-42 16.5q-63 0 -63 -159h-162z" />
    <glyph glyph-name="uni0304.narrow" 
d="M249 1443v173h526v-173h-526z" />
    </font>
</defs>
</svg>
