<svg xmlns="http://www.w3.org/2000/svg" width="36.009" height="48" viewBox="0 0 36.009 48">
    <defs>
        <style>
            .cls-1{fill:#04cccc;fill-rule:evenodd}
        </style>
    </defs>
    <g id="Group_9" transform="translate(-51.373 -231.101)">
        <path id="Path_60" d="M74.248 231.1a13.054 13.054 0 0 1 1.152.921q5.645 5.62 11.277 11.255a2.232 2.232 0 0 1 .7 1.7q-.019 15.37-.009 30.74a3.06 3.06 0 0 1-3.4 3.381H54.779a3.066 3.066 0 0 1-3.407-3.421v-40.862c0-2.213.5-2.946 2.531-3.717zm10.092 44.98V246.1h-8.648a3.043 3.043 0 0 1-3.316-3.325v-8.638H54.4v41.943zm-8.929-39.765v6.745h6.746z" class="cls-1" transform="translate(0 0)"/>
        <path id="Path_61" d="M110.16 285.363c.857.446 1.642.792 2.36 1.245a1.454 1.454 0 0 1 .461 2.117 1.486 1.486 0 0 1-2.15.333 3.527 3.527 0 0 0-4.127-.145 1.868 1.868 0 0 0 .017 3.354 4.2 4.2 0 0 0 2.188.574 6.11 6.11 0 0 1 4.512 2.061 4.732 4.732 0 0 1-.849 7.1 23.517 23.517 0 0 1-2.411 1.287c0 .4.007.935 0 1.464a1.5 1.5 0 1 1-3 .02c-.011-.53 0-1.061 0-1.486-.831-.431-1.631-.781-2.361-1.24a1.447 1.447 0 0 1-.457-2.117 1.479 1.479 0 0 1 2.148-.332 3.527 3.527 0 0 0 4.127.144 1.866 1.866 0 0 0 .023-3.331 4.192 4.192 0 0 0-2.228-.6 6.1 6.1 0 0 1-4.512-2.061 4.732 4.732 0 0 1 .849-7.1 23.526 23.526 0 0 1 2.411-1.287c0-.405-.007-.935 0-1.465a1.5 1.5 0 1 1 3-.019c.007.535-.001 1.065-.001 1.484z" class="cls-1" transform="translate(-45.288 -45.229)"/>
        <path id="Path_62" d="M114.59 512.7h10.356a1.5 1.5 0 0 1 1.553 1.988 1.452 1.452 0 0 1-1.292 1 4.07 4.07 0 0 1-.468.009h-20.29a3.326 3.326 0 0 1-.653-.035 1.493 1.493 0 0 1 .3-2.958c1.234-.017 2.468-.006 3.7-.006z" class="cls-1" transform="translate(-45.219 -248.599)"/>
        <path id="Path_63" d="M114.524 566.915h-10.309a1.5 1.5 0 0 1-1.55-1.99 1.451 1.451 0 0 1 1.294-1 4.055 4.055 0 0 1 .468-.009h20.29a3.3 3.3 0 0 1 .653.035 1.493 1.493 0 0 1-.3 2.957c-1.312.016-2.624.006-3.936.006z" class="cls-1" transform="translate(-45.2 -293.814)"/>
        <path id="Path_64" d="M235.111 413.294h-2.857a1.5 1.5 0 1 1-.019-3q2.88-.01 5.761 0a1.5 1.5 0 1 1 .019 3c-.968.006-1.936 0-2.904 0z" class="cls-1" transform="translate(-158.241 -158.194)"/>
        <path id="Path_65" d="M235.1 464.5c-.952 0-1.9.005-2.857 0a1.5 1.5 0 1 1-.007-3q2.88-.009 5.761 0a1.5 1.5 0 1 1 .007 3c-.964.005-1.932 0-2.904 0z" class="cls-1" transform="translate(-158.24 -203.398)"/>
    </g>
</svg>
