<svg xmlns="http://www.w3.org/2000/svg" id="Group_4" width="48" height="48" viewBox="0 0 48 48">
    <defs>
        <style>
            .cls-1{fill:#04cccc;fill-rule:evenodd}
        </style>
    </defs>
    <path id="Path_3" d="M345.594 368.75h-.938a.469.469 0 0 0-.115-.074 2.547 2.547 0 0 1-1.967-2.241q-.27-1.781-.553-3.56c-.115-.731-.236-1.461-.355-2.2-.161.013-.255.013-.346.028a3.646 3.646 0 0 1-3.286-1.093q-4.084-4.063-8.149-8.145a3.765 3.765 0 0 1-1.132-2.4c-.034-.4-.006-.8-.006-1.228a1.1 1.1 0 0 0-.182-.055c-1.479-.23-2.963-.434-4.437-.7a10.209 10.209 0 0 1-2.192-.582 2.476 2.476 0 0 1-1.187-1.658v-.937a5.5 5.5 0 0 1 .375-.848c1.652-2.518 3.3-5.04 4.99-7.533a3.361 3.361 0 0 1 2.606-1.471c2.24-.188 4.482-.35 6.721-.549a1.145 1.145 0 0 0 .653-.342c.693-.719 1.339-1.483 2.031-2.2a32.183 32.183 0 0 1 20.428-9.946c.867-.092 1.734-.176 2.6-.263H365a3.121 3.121 0 0 0 .358.08 3.706 3.706 0 0 1 3.26 2.942c.052.241.088.485.132.728v3.844c-.124 1.162-.222 2.327-.376 3.485a32.873 32.873 0 0 1-3.516 11.285 35.618 35.618 0 0 1-8.428 10.192 1.131 1.131 0 0 0-.464.849c-.147 2.149-.336 4.3-.5 6.444a3.842 3.842 0 0 1-1.873 3.072c-1.347.876-2.672 1.788-4.028 2.65-1.307.829-2.645 1.618-3.971 2.426zm16.853-45.159v-.059c-1.012.071-2.026.12-3.036.217a29.829 29.829 0 0 0-11.2 3.125 33.694 33.694 0 0 0-14.235 14.517c-.141.267-.019.388.141.549q6.728 6.723 13.446 13.455a.438.438 0 0 0 .637.078c1.136-.682 2.325-1.285 3.414-2.035a33.577 33.577 0 0 0 10.741-11.618 28.665 28.665 0 0 0 3.276-10.814c.214-2.043.221-4.111.262-6.169.019-.953-.281-1.2-1.246-1.241-.732-.027-1.467-.005-2.201-.005zm-17.427 33.354l-12.369-12.371a.136.136 0 0 0-.05.069c-.347 1.326-.716 2.648-1.013 3.985a1.081 1.081 0 0 0 .294.83q4.051 4.1 8.15 8.156a1.006 1.006 0 0 0 .738.311c1.415-.29 2.816-.642 4.25-.98zm8-1.043a32.2 32.2 0 0 1-8.6 4.094l.894 5.775c2.366-1.568 4.66-3.078 6.937-4.614a1.007 1.007 0 0 0 .382-.655c.15-1.49.257-2.984.388-4.602zM333.6 336.48c-1.626.133-3.151.233-4.667.407a1.282 1.282 0 0 0-.733.574c-1.285 1.9-2.541 3.822-3.806 5.737l-.65.99 5.768.89a32.18 32.18 0 0 1 4.088-8.598z" class="cls-1" transform="translate(-320.75 -320.75)"/>
    <path id="Path_7" d="M320.75 621.5a14.281 14.281 0 0 1 .9-1.1q4.075-4.1 8.179-8.17a2.126 2.126 0 0 1 .992-.547 1.224 1.224 0 0 1 1.347.637 1.346 1.346 0 0 1-.05 1.541 2.7 2.7 0 0 1-.34.385q-4.185 4.188-8.378 8.369a8.332 8.332 0 0 1-.874.672h-.75a2.117 2.117 0 0 1-1.031-1.031z" class="cls-1" transform="translate(-320.75 -575.282)"/>
    <path id="Path_8" d="M320.75 583.769a7.989 7.989 0 0 1 .783-1.135c1.36-1.4 2.754-2.767 4.129-4.152A1.452 1.452 0 0 1 327.1 578a1.382 1.382 0 0 1 .716 2.294q-2.308 2.395-4.7 4.7a1.378 1.378 0 0 1-2.238-.547c-.041-.1-.08-.2-.119-.3z" class="cls-1" transform="translate(-320.75 -545.8)"/>
    <path id="Path_9" d="M389.432 652.691c-.085-.035-.169-.072-.254-.1a1.384 1.384 0 0 1-.567-2.288c1.526-1.566 3.078-3.107 4.636-4.641a1.4 1.4 0 0 1 1.972 1.981q-2.282 2.323-4.609 4.6a3.506 3.506 0 0 1-.8.451z" class="cls-1" transform="translate(-379.775 -604.691)"/>
    <path id="Path_10" d="M678.456 324.5c-.044-.243-.08-.487-.132-.728a3.706 3.706 0 0 0-3.26-2.942 3.121 3.121 0 0 1-.358-.08h3.75z" class="cls-1" transform="translate(-630.456 -320.75)"/>
    <path id="Path_11" d="M320.75 696.453a2.118 2.118 0 0 0 1.031 1.031h-1.031z" class="cls-1" transform="translate(-320.75 -649.484)"/>
    <path id="Path_16" d="M534.593 399.484a7.026 7.026 0 1 1 7.059-7 7 7 0 0 1-7.059 7zm-4.186-7.033a4.216 4.216 0 0 0 8.431.026 4.216 4.216 0 1 0-8.431-.026z" class="cls-1" transform="translate(-501.734 -377.345)"/>
</svg>
