<svg xmlns="http://www.w3.org/2000/svg" width="12" height="12" viewBox="0 0 12 12">
  <g id="instagram" transform="translate(-3.4 -4.8)">
    <path id="Path_71" data-name="Path 71" d="M18.5,16.7a3.1,3.1,0,1,0,3.1,3.1A3.1,3.1,0,0,0,18.5,16.7Zm0,5.081A1.984,1.984,0,1,1,20.481,19.8,1.993,1.993,0,0,1,18.5,21.781Z" transform="translate(-9.097 -9.021)" fill="#1e1f40"/>
    <circle id="Ellipse_1" data-name="Ellipse 1" cx="0.702" cy="0.702" r="0.702" transform="translate(11.916 6.905)" fill="#1e1f40"/>
    <path id="Path_72" data-name="Path 72" d="M14.432,5.792a3.446,3.446,0,0,0-2.54-.992H6.908A3.314,3.314,0,0,0,3.4,8.308v4.96a3.481,3.481,0,0,0,1.016,2.589,3.531,3.531,0,0,0,2.516.944h4.935a3.572,3.572,0,0,0,2.54-.944,3.464,3.464,0,0,0,.992-2.565V8.308A3.468,3.468,0,0,0,14.432,5.792Zm-.1,7.5a2.364,2.364,0,0,1-.7,1.766,2.5,2.5,0,0,1-1.766.629H6.932a2.5,2.5,0,0,1-1.766-.629,2.432,2.432,0,0,1-.653-1.79V8.308a2.412,2.412,0,0,1,.653-1.766,2.46,2.46,0,0,1,1.766-.629h4.984a2.412,2.412,0,0,1,1.766.653,2.5,2.5,0,0,1,.653,1.742v4.984Z" fill="#1e1f40"/>
  </g>
</svg>
