<svg xmlns="http://www.w3.org/2000/svg" width="70" height="33.518" viewBox="0 0 70 33.518">
    <defs>
        <style>
            .cls-1{fill:#fff}
        </style>
    </defs>
    <g id="TC2020-Symbol-Logo-Light" transform="translate(-6.2 -8.3)">
        <g id="Group_11" transform="translate(6.2 8.3)">
            <path id="Path_67" d="M16.167 14.225H6.2V10.3h24.09v3.925h-9.928V41.2h-4.195z" class="cls-1" transform="translate(-6.2 -9.53)"/>
            <g id="Group_10" transform="translate(25.591 0)">
                <path id="Path_68" d="M87.208 29.362H84.4l-1.886-2.04a5.737 5.737 0 0 1-4.733 2.463c-3.5 0-5.08-2.232-5.08-4.464 0-2.155 1.655-3.54 3.5-4.426a5.073 5.073 0 0 1-1.809-3.579c0-2.347 1.924-3.617 4.118-3.617 2.155 0 4 1.154 4 3.5 0 1.924-1.655 3.156-3.194 3.964l3.04 3.194 1.927-3.157h2.386l-3 4.618zm-9.659-7.273c-1.231.731-2.578 1.539-2.578 3.156a2.873 2.873 0 0 0 2.886 2.694 4.624 4.624 0 0 0 3.425-1.963zm1-6.619a1.845 1.845 0 0 0-2.04 1.809 4.036 4.036 0 0 0 1.539 2.578c1.078-.577 2.386-1.347 2.386-2.732a1.686 1.686 0 0 0-1.886-1.655" class="cls-1" transform="translate(-72.7 -11.622)"/>
                <path id="Path_69" d="M139.836 15.766a9.47 9.47 0 0 0-7.466-3.54c-6.927 0-11.506 5.542-11.506 12.584 0 6.5 4.31 12.045 11.506 12.045a9.544 9.544 0 0 0 8.081-4.156l3.54 2.655a14.36 14.36 0 0 1-11.7 5.426A15.915 15.915 0 0 1 116.4 24.809c0-9.621 6.581-16.509 16.124-16.509 4.079 0 8.351 1.539 10.814 4.81z" class="cls-1" transform="translate(-99.583 -8.3)"/>
                <path id="Path_70" fill="#78b543" d="M84.629 72.465A5.465 5.465 0 1 1 79.165 67a5.461 5.461 0 0 1 5.465 5.465" transform="translate(-73.315 -44.411)"/>
            </g>
        </g>
    </g>
</svg>
