<svg xmlns="http://www.w3.org/2000/svg" width="12" height="9.765" viewBox="0 0 12 9.765">
  <path id="twitter" d="M32.1,65.157a4.977,4.977,0,0,1-1.414.389,2.471,2.471,0,0,0,1.083-1.363,4.892,4.892,0,0,1-1.564.6,2.461,2.461,0,0,0-4.259,1.683,2.41,2.41,0,0,0,.064.562,6.977,6.977,0,0,1-5.076-2.576,2.469,2.469,0,0,0,.763,3.291,2.4,2.4,0,0,1-1.116-.308v.031a2.464,2.464,0,0,0,1.976,2.416,2.478,2.478,0,0,1-.648.086,2.323,2.323,0,0,1-.463-.046,2.466,2.466,0,0,0,2.3,1.711,4.936,4.936,0,0,1-3.059,1.055,4.99,4.99,0,0,1-.587-.036,6.993,6.993,0,0,0,10.779-5.9c0-.107,0-.214-.008-.318A5.053,5.053,0,0,0,32.1,65.157Z" transform="translate(-20.1 -64)" fill="#1e1f40"/>
</svg>
