<svg xmlns="http://www.w3.org/2000/svg" viewBox="0 0 323.58212 99.9963">
  <defs>
    <style>
      .cls-1 {
        fill: #fff;
      }
    </style>
  </defs>
  <g id="Ebene_2" data-name="Ebene 2">
    <g id="DKHS_NEG_White">
      <g id="DKSH_NEG_White">
        <g id="DKSH-logotype_NEG">
          <g id="D">
            <path class="cls-1" d="M170.61244,36.12448a22.09525,22.09525,0,0,0-9.66892-8.91356,33.35056,33.35056,0,0,0-14.69225-3.02152H129.33063V78.12387h15.25878q13.89833,0,21.67956-6.91175,7.77975-6.91188,7.78046-20.58424Q174.04943,42.01644,170.61244,36.12448ZM145.647,68.68155h-4.91V33.55615h6.1186q7.47828,0,11.4063,4.23018,3.92724,4.23086,3.928,13.14367Q162.18988,68.68186,145.647,68.68155Z"/>
          </g>
          <path id="K" class="cls-1" d="M209.205,48.05955,228.0141,24.1894H215.32364L200.74472,42.5452q-1.13307,1.58631-2.26615,3.17267-1.13308,1.5862-2.26616,3.17258V24.1894H184.80607V78.12387h11.40634V58.86155l4.83444-3.47476,14.12566,22.73708h12.99268Z"/>
          <g id="S">
            <path class="cls-1" d="M234.1005,76.05343a37.74149,37.74149,0,0,0,14.92008,2.82582q9.89859,0,15.27994-4.2679a13.85657,13.85657,0,0,0,5.38139-11.44412,14.062,14.062,0,0,0-1.64974-7.10064,15.5659,15.5659,0,0,0-4.67433-4.9855,46.45624,46.45624,0,0,0-7.34535-4.07912,75.53173,75.53173,0,0,1-7.93464-4.079,5.10512,5.10512,0,0,1-2.671-4.53231,4.8759,4.8759,0,0,1,1.80682-3.928,7.8767,7.8767,0,0,1,5.185-1.51077,23.922,23.922,0,0,1,6.28476.83086,67.45011,67.45011,0,0,1,6.75146,2.27845V25.69749q-2.22529-.75846-4.31607-1.28153a34.26852,34.26852,0,0,0-8.3274-.982q-8.80024,0-13.90509,4.04129Q233.778,31.517,233.78,38.7683a13.91439,13.91439,0,0,0,1.33548,6.34518,14.926,14.926,0,0,0,3.41739,4.49455,23.53919,23.53919,0,0,0,4.36008,3.09711q2.27667,1.2464,4.24226,2.15288,3.14042,1.43563,5.57779,2.68156a15.71788,15.71788,0,0,1,3.88873,2.68165A4.70784,4.70784,0,0,1,258.055,63.696a5.24829,5.24829,0,0,1-1.84619,4.11688q-1.84771,1.62479-6.24553,1.624a27.31982,27.31982,0,0,1-8.52374-1.39744q-3.77821-1.23225-7.33907-2.6708Z"/>
          </g>
          <g id="H">
            <polygon class="cls-1" points="323.582 24.189 312.176 24.189 312.176 45.34 290.798 45.34 290.798 24.189 279.392 24.189 279.392 78.124 290.798 78.124 290.798 54.858 312.176 54.858 312.176 78.124 323.582 78.124 323.582 24.189"/>
          </g>
        </g>
        <g id="DKSH-fantree-symbol_NEG">
          <path class="cls-1" d="M58.13792,50.30411c-.00277.74915.0123.48444-.02338,4.70249,1.45.22,2.42718.54658,3.54444-.65707A108.73936,108.73936,0,0,1,72.35264,44.06447c.34374-.28034.34918-.31882.09025-.679-.81878-1.13888-1.58952-2.09288-2.3-3.197-.09741-.15137.08036-.32136.2446-.32984a8.85854,8.85854,0,0,1,4.89721,1.58592c.28483.18116.27527.18133.55293-.01064a37.99122,37.99122,0,0,1,5.51925-3.208c.46125-.21528.48415-.29611.20873-.72418-.69-1.07237-1.446-1.97374-2.25715-3.40387-.05594-.16055.14431-.288.32431-.28814,1.879-.00115,3.67322,1.03561,5.63259,2.68962.21186.17884.18946.17411.45661.1a24.37087,24.37087,0,0,1,6.33978-.9c.60074-.00534.63715-.21611.49228-.81069-.46108-1.89254-2.47153-4.58758-6.62737-5.15261C74.81126,28.2247,63.90193,40.50722,58.13792,50.30411Z"/>
          <path class="cls-1" d="M74.27359,21.71591c.51989-.30016.34974-.41912.02741-.94122-.71327-1.15534-3.693-2.62665-8.6231-.51522C61.76324,21.936,57.86466,26.721,55.16535,30.80493c2.25946,5.45023,2.76438,11.12363,2.92385,16.607C60.11668,41.22923,64.48209,27.36914,74.27359,21.71591Z"/>
          <path class="cls-1" d="M100.90461,54.14827a7.96462,7.96462,0,0,0-2.43487-6.85561c-6.60026-6.45525-30.92709-2.51948-41.548,16.80821a28.31212,28.31212,0,0,0-2.1549,6.2496c-2.26029-1.57979-8.36756-6.38977-12.33347-4.20816a3.41284,3.41284,0,0,1-2.18927.84508,67.26381,67.26381,0,0,0-8.91285-.48536c-.43224.00733-.45679-.01367-.50529-.44324-.19856-1.75844-.29241-3.3055-.4605-4.56176-.02388-.17841-.30108-.214-.40193-.08413a13.63022,13.63022,0,0,0-1.96333,4.91249c-.0835.34906-.08171.34768-.439.38157a35.8882,35.8882,0,0,0-6.31077,1.13952c-.47429.13334-.5348.0954-.62669-.38863-.29562-1.55719-.5049-3.01834-.85234-4.83746a.26058.26058,0,0,0-.43382,0,14.3706,14.3706,0,0,0-1.73386,6.256c-.02467.30033-.014.28528-.2871.41265a19.37372,19.37372,0,0,0-5.57545,3.84c-.4253.42577-.64288.32928-.96864-.18087a7.1979,7.1979,0,0,1-.64352-6.37857c3.40787-8.96406,24.57376-13.29489,44.19812,2.35422,2.21528,1.76654-7.96084-12.06774-11.8398-10.03879a2.17021,2.17021,0,0,1-2.07033.05956,49.72392,49.72392,0,0,0-9.29532-3.80574c-.39226-.11488-.40349-.131-.35627-.537.209-1.797.44883-3.53147.49405-4.35495.00864-.15714-.22143-.24313-.37129-.17542-1.01327.4579-1.88,1.7856-2.98378,3.88582-.17287.32891-.17519.33027-.53966.258a37.44292,37.44292,0,0,0-6.57611-.72273c-.47462-.00879-.5153-.05214-.49035-.52619.09036-1.71718.24682-3.15519.24682-4.59438-.02642-.16793-.26338-.1863-.4219-.101-1.12661.60594-2.0641,2.56863-3.03266,5.08411-.11286.29312-.1004.28369-.41265.31774a29.1026,29.1026,0,0,0-6.88524,1.59606c-.56745.208-.56784.0567-.74-.53276a6.26762,6.26762,0,0,1,2.32241-7.07c8.49366-7.06826,30.75591-1.79186,43.41922,20.05312-1.20451-5.964-2.67548-16.39346-7.22189-15.48213a1.625,1.625,0,0,1-1.69014-.69608c-5.97526-7.78667-11.93708-13.04287-27.612-15.84139-.59157-.10561-.6539-.22033-.49689-.81069a7.4924,7.4924,0,0,1,6.66891-5.61732C37.367,27.46881,51.18348,40.15636,55.16074,61.89552c2.70392-5.97328,1.38654-12.02513-1.28595-12.8565a1.40754,1.40754,0,0,1-1.09233-1.19536,40.95311,40.95311,0,0,0-3.76021-11.56879c-.17876-.35255-.17641-.36542.13066-.61432,1.36021-1.10251,2.59259-1.92109,3.74395-2.92634.13558-.11839.01931-.36107-.14343-.3848a11.02357,11.02357,0,0,0-5.048.80057c-.36819.13524-.37937.1319-.59221-.19756a37.22378,37.22378,0,0,0-3.21348-4.26359c-.30952-.35509-.30515-.41164.0569-.713.91918-.76509,1.86886-1.42563,2.9485-2.48.09831-.13868-.05263-.34746-.23158-.36684a10.08861,10.08861,0,0,0-4.82367.96225c-.30584.12537-.29432.12747-.5341-.1a44.14817,44.14817,0,0,0-5.35882-4.3247c-.4956-.34141-.47407-.5229-.02517-.94124,2.05207-1.9124,5.49452-2.8447,9.4975-.78381a20.48029,20.48029,0,0,1,9.736,10.86351V.50022c0-.46648-.03776-.50384-.50422-.5A58.14426,58.14426,0,0,0,16.15756,14.6428C5.81205,24.01962,0,36.73732,0,49.99814S5.81205,75.97668,16.15756,85.3535A58.14423,58.14423,0,0,0,54.66113,99.99606c.46637.00386.50422-.03361.50422-.5V71.34886c-.01846-.81515.69608-1.56168,1.82516-2.377,3.83808-2.59,7.8762-4.199,9.73115-2.32578a2.70589,2.70589,0,0,0,2.19166.84493,68.86839,68.86839,0,0,1,12.84431-.71709c.43669.02089.46385-.00136.51973-.435.2095-1.62541.34506-3.046.5051-4.242.02388-.17839.27167-.18446.40193-.0841.94062.72454,1.86915,2.48417,2.49561,4.81026.08684.32243.07895.31544.4092.36472a31.21239,31.21239,0,0,1,4.50213.99539c.47431.14479.53753.10665.63615-.37935.246-1.21241.46854-2.41485.749-3.88354.06482-.15716.3112-.13177.43383,0a9.94994,9.94994,0,0,1,2.44035,5.82489c.02706.26354.01365.24277.24111.3786a12.84546,12.84546,0,0,1,3.32356,2.77536c.38518.46263.64849.33891.96863-.18087a6.60227,6.60227,0,0,0,.8164-6.33818c-2.71693-8.03-28.419-12.06444-44.15351,2.28712a13.20521,13.20521,0,0,1,1.20695-2.86719c2.60148-5.07479,6.9567-8.71027,9.73-6.75917a2.063,2.063,0,0,0,2.07481.06193,86.76688,86.76688,0,0,1,11.13652-4.2853c.38559-.11585.39514-.12943.35361-.52989-.16618-1.6024-.3361-3.08655-.3775-3.84083-.00864-.15716.2008-.23317.37129-.17542,1.05933.35884,2.17067,1.3643,3.36662,3.22046.18968.29439.18446.29215.52667.21777a38.47987,38.47987,0,0,1,6.02159-.85455c.45906-.02558.49188-.06171.4717-.521-.06157-1.40163-.14349-2.61262-.14349-3.86212.02642-.168.23676-.17673.42189-.10105,1.10492.45174,2.365,2.05558,3.45387,4.35119.12133.25578.10355.243.384.28147a12.71444,12.71444,0,0,1,5.037,1.65766C100.59642,54.98313,100.78582,54.75069,100.90461,54.14827Z"/>
        </g>
      </g>
    </g>
  </g>
</svg>
