<svg version="1.2" xmlns="http://www.w3.org/2000/svg" viewBox="0 0 107 107" width="107" height="107"><style>.a{fill:#f3f3f3}.b{fill:#ef233c}</style><path class="a" d="m53.5 107c-29.6 0-53.5-23.9-53.5-53.5 0-29.6 23.9-53.5 53.5-53.5 29.6 0 53.5 23.9 53.5 53.5 0 29.6-23.9 53.5-53.5 53.5z"/><path fill-rule="evenodd" class="b" d="m57.6 26.4c7.4 1.7 14 8.4 15.5 15.8 0.7 3.4 0.3 9-0.8 12-2 5.1-6.9 10-12.1 12.1-2 0.8-3.2 1-7.5 1-4.2 0-5.4-0.2-7.4-1-5.2-2.1-10.2-7-12.1-12.1-1.1-3-1.5-8.6-0.9-12 1.5-7.1 7.7-13.7 14.8-15.6 2.7-0.7 7.8-0.8 10.5-0.2zm-13 4.6c-8.3 4.1-12 14.6-8.1 22.8 0.7 1.4 1.6 3.1 2 3.6l0.9 1 1.9-1.9c1-1.1 2.7-2.3 3.7-2.8l1.7-0.9-1.1-1.4c-5.3-6.2-1-15.8 7.1-15.8 4.8 0 9 3.7 9.4 8.2 0.3 3.2-0.2 5-1.8 7.1l-1.5 1.9 1.7 0.9c1 0.5 2.6 1.7 3.7 2.7 1.7 1.8 1.9 1.9 2.6 1.3 0.4-0.4 1.4-2.1 2.1-3.7 1.3-2.9 1.5-3.4 1.5-7.3 0-3.9-0.1-4.3-1.5-7.4-2.5-5.1-7-8.8-12.2-10-4-0.9-8.1-0.3-12.1 1.7zm5.8 8c-2.5 1-4.2 3.6-4.2 6.1 0.1 3.5 3 6.5 6.5 6.5 3.9 0 6.7-3.1 6.4-6.9-0.2-2.1-1.1-3.7-2.9-5-1.2-1-4.3-1.3-5.8-0.7zm-2.4 16.6c-1.9 0.7-6 4.1-6 5 0 0.4 1.4 1.3 3.3 2.2 3.1 1.5 3.4 1.6 7.5 1.6 4 0 4.3-0.1 7.4-1.6 1.8-0.9 3.2-1.9 3.2-2.2 0-1-4.1-4.3-6.1-5-2.5-0.8-6.9-0.8-9.3 0z"/><path class="b" d="m34.9 75.1c0 1.2-0.1 1.3-1.4 1.2-1.6-0.2-2 0.7-0.5 1.3 1.2 0.5 1.3 0.9 0.4 1.7-0.8 0.7-0.8 1.2 0.1 1.5 0.3 0.2 0.8-0.1 1.3-0.6l0.6-1 1 1c0.8 0.7 1.1 0.8 1.5 0.4 0.3-0.3 0.3-0.7-0.2-1.5-0.7-1-0.7-1.1 0.3-1.3 0.7-0.2 1.1-0.6 1.1-1.1 0-0.7-0.2-0.8-1.3-0.6-1.2 0.3-1.2 0.2-1.2-1 0-1-0.2-1.3-0.9-1.3-0.6 0-0.8 0.3-0.8 1.3z"/><path class="b" d="m43.7 75.1c0 1.2-0.1 1.3-1.3 1.2-1.7-0.2-2.1 0.7-0.6 1.3 1.2 0.5 1.4 0.9 0.4 1.7-0.8 0.7-0.8 1.1 0.1 1.4 0.4 0.2 0.9 0 1.3-0.6l0.6-0.9 1 1c0.8 0.7 1.1 0.8 1.5 0.4 0.4-0.3 0.3-0.7-0.2-1.5-0.7-1-0.7-1.1 0.4-1.3 0.6-0.2 1-0.6 1-1.1 0-0.7-0.2-0.8-1.3-0.6-1.1 0.3-1.2 0.2-1.2-1 0-1-0.2-1.3-0.9-1.3-0.6 0-0.8 0.3-0.8 1.3z"/><path class="b" d="m52.5 75.1c0 1.2-0.1 1.3-1.2 1-1.6-0.3-2.2 0.9-0.7 1.5 1.3 0.5 1.3 0.7 0.4 1.8-0.7 0.7-0.7 0.8-0.2 1.1 1 0.6 1.2 0.5 1.8-0.4l0.4-0.9 1 1c0.8 0.7 1.2 0.8 1.5 0.4 0.4-0.3 0.3-0.7-0.2-1.5-0.7-1-0.6-1.1 0.4-1.3 0.6-0.2 1-0.6 1-1.1 0-0.7-0.2-0.8-1.2-0.6-1.2 0.3-1.3 0.2-1.3-1 0-1-0.2-1.3-0.8-1.3-0.7 0-0.9 0.3-0.9 1.3z"/><path class="b" d="m61.3 75.1c0 1.2 0 1.3-1.2 1-1.6-0.3-2.2 0.9-0.6 1.5 1.2 0.5 1.2 0.6 0.4 1.9-0.6 0.9-0.6 1 0.1 1.2 0.4 0.2 0.9 0 1.4-0.7l0.7-0.9 0.8 1c0.7 0.9 1 0.9 1.4 0.6 0.4-0.4 0.4-0.7-0.2-1.6-0.7-1-0.6-1.1 0.4-1.3 0.7-0.2 1-0.6 1-1.1 0-0.7-0.2-0.8-1.2-0.6-1.2 0.3-1.3 0.2-1.3-1 0-1-0.1-1.3-0.8-1.3-0.7 0-0.9 0.3-0.9 1.3z"/><path class="b" d="m70.2 75.1c0 1.2-0.1 1.3-1.3 1-1.6-0.3-2.1 0.9-0.6 1.5 1.2 0.5 1.2 0.6 0.4 1.9-0.6 0.9-0.6 1 0.1 1.2 0.4 0.2 0.9 0 1.4-0.7l0.7-0.9 0.9 1c0.6 0.9 0.9 0.9 1.3 0.6 0.4-0.4 0.4-0.7-0.2-1.6-0.6-1-0.6-1.1 0.4-1.3 0.7-0.2 1.1-0.6 1.1-1.1 0-0.7-0.2-0.8-1.3-0.6-1.2 0.3-1.3 0.2-1.3-1 0-1-0.1-1.3-0.8-1.3-0.7 0-0.8 0.3-0.8 1.3z"/></svg>