<svg width="107" height="107" viewBox="0 0 107 107" fill="none" xmlns="http://www.w3.org/2000/svg">
<circle cx="53.5" cy="53.5" r="53.5" fill="#F3F3F3"/>
<path d="M42.4062 42.625C42.4062 42.0366 42.64 41.4722 43.0561 41.0561C43.4722 40.64 44.0366 40.4062 44.625 40.4062H62.375C62.9634 40.4062 63.5278 40.64 63.9439 41.0561C64.36 41.4722 64.5938 42.0366 64.5938 42.625C64.5938 43.2134 64.36 43.7778 63.9439 44.1939C63.5278 44.61 62.9634 44.8438 62.375 44.8438H44.625C44.0366 44.8438 43.4722 44.61 43.0561 44.1939C42.64 43.7778 42.4062 43.2134 42.4062 42.625ZM44.625 53.7188H62.375C62.9634 53.7188 63.5278 53.485 63.9439 53.0689C64.36 52.6528 64.5938 52.0884 64.5938 51.5C64.5938 50.9116 64.36 50.3472 63.9439 49.9311C63.5278 49.515 62.9634 49.2812 62.375 49.2812H44.625C44.0366 49.2812 43.4722 49.515 43.0561 49.9311C42.64 50.3472 42.4062 50.9116 42.4062 51.5C42.4062 52.0884 42.64 52.6528 43.0561 53.0689C43.4722 53.485 44.0366 53.7188 44.625 53.7188ZM53.5 58.1562H44.625C44.0366 58.1562 43.4722 58.39 43.0561 58.8061C42.64 59.2222 42.4062 59.7866 42.4062 60.375C42.4062 60.9634 42.64 61.5278 43.0561 61.9439C43.4722 62.36 44.0366 62.5938 44.625 62.5938H53.5C54.0884 62.5938 54.6528 62.36 55.0689 61.9439C55.485 61.5278 55.7188 60.9634 55.7188 60.375C55.7188 59.7866 55.485 59.2222 55.0689 58.8061C54.6528 58.39 54.0884 58.1562 53.5 58.1562ZM80.125 29.3125V59.457C80.1269 60.0399 80.0128 60.6175 79.7895 61.156C79.5662 61.6944 79.2381 62.1832 78.8243 62.5938L64.5938 76.8243C64.1832 77.2381 63.6944 77.5662 63.156 77.7895C62.6175 78.0128 62.0399 78.1269 61.457 78.125H31.3125C30.1356 78.125 29.0069 77.6575 28.1747 76.8253C27.3425 75.9931 26.875 74.8644 26.875 73.6875V29.3125C26.875 28.1356 27.3425 27.0069 28.1747 26.1747C29.0069 25.3425 30.1356 24.875 31.3125 24.875H75.6875C76.8644 24.875 77.9931 25.3425 78.8253 26.1747C79.6575 27.0069 80.125 28.1356 80.125 29.3125ZM31.3125 73.6875H60.1562V60.375C60.1562 59.7866 60.39 59.2222 60.8061 58.8061C61.2222 58.39 61.7866 58.1562 62.375 58.1562H75.6875V29.3125H31.3125V73.6875ZM64.5938 62.5938V70.5535L72.5507 62.5938H64.5938Z" fill="#EF233C"/>
</svg>
