<svg width="107" height="107" viewBox="0 0 107 107" fill="none" xmlns="http://www.w3.org/2000/svg">
<circle cx="53.5" cy="53.5" r="53.5" fill="#F3F3F3"/>
<path d="M79.5 42.03C78.9368 41.3918 78.2443 40.8807 77.4685 40.5307C76.6926 40.1807 75.8512 39.9998 75 40H61V36C61 33.3478 59.9464 30.8043 58.0711 28.9289C56.1957 27.0536 53.6522 26 51 26C50.6284 25.9997 50.2642 26.103 49.948 26.2982C49.6318 26.4933 49.3763 26.7727 49.21 27.105L39.765 46H29C27.9391 46 26.9217 46.4214 26.1716 47.1716C25.4214 47.9217 25 48.9391 25 50V72C25 73.0609 25.4214 74.0783 26.1716 74.8284C26.9217 75.5786 27.9391 76 29 76H72C73.4618 76.0005 74.8734 75.4674 75.9699 74.5007C77.0664 73.534 77.7723 72.2003 77.955 70.75L80.955 46.75C81.0613 45.9051 80.9866 45.0472 80.7357 44.2333C80.4848 43.4195 80.0636 42.6684 79.5 42.03ZM29 50H39V72H29V50ZM76.985 46.25L73.985 70.25C73.9241 70.7334 73.6888 71.178 73.3233 71.5002C72.9578 71.8225 72.4873 72.0002 72 72H43V48.4725L52.1775 30.115C53.5377 30.3872 54.7616 31.1224 55.6408 32.1954C56.5201 33.2683 57.0004 34.6128 57 36V42C57 42.5304 57.2107 43.0391 57.5858 43.4142C57.9609 43.7893 58.4696 44 59 44H75C75.2838 43.9999 75.5644 44.0602 75.8231 44.1769C76.0818 44.2936 76.3127 44.464 76.5005 44.6769C76.6882 44.8897 76.8285 45.14 76.9121 45.4113C76.9956 45.6825 77.0205 45.9684 76.985 46.25Z" fill="#EF233C"/>
</svg>
