<svg width="107" height="107" viewBox="0 0 107 107" fill="none" xmlns="http://www.w3.org/2000/svg">
<circle cx="53.5" cy="53.5" r="53.5" fill="#F3F3F3"/>
<path d="M81.9759 67.2266L59.0886 27.4794C58.5166 26.5056 57.7001 25.6982 56.72 25.1372C55.7399 24.5761 54.6302 24.281 53.5009 24.281C52.3715 24.281 51.2618 24.5761 50.2817 25.1372C49.3016 25.6982 48.4851 26.5056 47.9132 27.4794L25.0259 67.2266C24.4756 68.1685 24.1855 69.2397 24.1855 70.3306C24.1855 71.4215 24.4756 72.4927 25.0259 73.4346C25.5905 74.4143 26.4056 75.2261 27.3875 75.7867C28.3694 76.3474 29.4829 76.6367 30.6135 76.6249H76.3882C77.5179 76.6357 78.6303 76.346 79.6112 75.7854C80.5922 75.2248 81.4064 74.4135 81.9706 73.4346C82.5217 72.4932 82.8126 71.4222 82.8135 70.3313C82.8145 69.2404 82.5254 68.169 81.9759 67.2266ZM78.3458 71.3382C78.1463 71.6786 77.8598 71.9597 77.5158 72.1529C77.1718 72.3461 76.7826 72.4443 76.3882 72.4374H30.6135C30.2191 72.4443 29.8299 72.3461 29.4859 72.1529C29.1419 71.9597 28.8554 71.6786 28.6559 71.3382C28.4752 71.0322 28.3798 70.6834 28.3798 70.328C28.3798 69.9726 28.4752 69.6237 28.6559 69.3177L51.5432 29.5705C51.7468 29.2318 52.0345 28.9515 52.3785 28.7569C52.7224 28.5623 53.1109 28.46 53.5061 28.46C53.9013 28.46 54.2897 28.5623 54.6337 28.7569C54.9777 28.9515 55.2654 29.2318 55.469 29.5705L78.3563 69.3177C78.5354 69.6247 78.629 69.974 78.6271 70.3294C78.6253 70.6848 78.5281 71.0332 78.3458 71.3382ZM51.4071 55.6874V45.2187C51.4071 44.6634 51.6277 44.1308 52.0203 43.7382C52.413 43.3455 52.9456 43.1249 53.5009 43.1249C54.0562 43.1249 54.5887 43.3455 54.9814 43.7382C55.374 44.1308 55.5946 44.6634 55.5946 45.2187V55.6874C55.5946 56.2427 55.374 56.7753 54.9814 57.1679C54.5887 57.5606 54.0562 57.7812 53.5009 57.7812C52.9456 57.7812 52.413 57.5606 52.0203 57.1679C51.6277 56.7753 51.4071 56.2427 51.4071 55.6874ZM56.6415 65.1093C56.6415 65.7305 56.4573 66.3377 56.1122 66.8541C55.7671 67.3706 55.2766 67.7732 54.7027 68.0109C54.1288 68.2486 53.4974 68.3108 52.8881 68.1896C52.2789 68.0684 51.7193 67.7693 51.2801 67.3301C50.8409 66.8908 50.5418 66.3312 50.4206 65.722C50.2994 65.1128 50.3616 64.4813 50.5993 63.9074C50.837 63.3336 51.2395 62.8431 51.756 62.498C52.2725 62.1529 52.8797 61.9687 53.5009 61.9687C54.3338 61.9687 55.1326 62.2996 55.7216 62.8885C56.3106 63.4775 56.6415 64.2764 56.6415 65.1093Z" fill="#EF233C"/>
</svg>
