<svg width="107" height="107" viewBox="0 0 107 107" fill="none" xmlns="http://www.w3.org/2000/svg">
<circle cx="53.5" cy="53.5" r="53.5" fill="#F3F3F3"/>
<path d="M80.4641 42.4289L54.2141 24.9289C53.8546 24.689 53.4321 24.561 53 24.561C52.5679 24.561 52.1454 24.689 51.7859 24.9289L25.5359 42.4289C25.2363 42.6288 24.9906 42.8996 24.8208 43.2173C24.651 43.535 24.5623 43.8897 24.5625 44.25V72.6875C24.5625 73.8478 25.0234 74.9606 25.8439 75.781C26.6644 76.6015 27.7772 77.0625 28.9375 77.0625H77.0625C78.2228 77.0625 79.3356 76.6015 80.1561 75.781C80.9766 74.9606 81.4375 73.8478 81.4375 72.6875V44.25C81.4377 43.8897 81.349 43.535 81.1792 43.2173C81.0094 42.8996 80.7637 42.6288 80.4641 42.4289ZM44.4469 59.5625L28.9375 70.5V48.4964L44.4469 59.5625ZM48.923 61.75H57.077L72.5617 72.6875H33.4383L48.923 61.75ZM61.5531 59.5625L77.0625 48.4964V70.5L61.5531 59.5625ZM53 29.3777L75.3973 44.3101L57.077 57.375H48.9285L30.6082 44.3101L53 29.3777Z" fill="#EF233C"/>
</svg>
