<?xml version="1.0" encoding="utf-8"?>
<!-- Generator: Adobe Illustrator 24.1.2, SVG Export Plug-In . SVG Version: 6.00 Build 0)  -->
<svg version="1.1" id="Layer_2_1_" xmlns="http://www.w3.org/2000/svg" xmlns:xlink="http://www.w3.org/1999/xlink" x="0px" y="0px"
	 viewBox="0 0 16 16" style="enable-background:new 0 0 16 16;" xml:space="preserve">
<style type="text/css">
	.st0{fill:#BE0028;}
</style>
<path class="st0" d="M8,15.5c-4.1,0-7.5-3.3-7.5-7.5S3.9,0.5,8,0.5s7.5,3.3,7.5,7.5c0,0.7-0.6,1.3-1.3,1.3c-0.7,0-1.3-0.6-1.3-1.3
	c0-2.7-2.2-4.9-4.9-4.9S3.1,5.3,3.1,8s2.2,4.9,4.9,4.9c0.7,0,1.3,0.6,1.3,1.3S8.7,15.5,8,15.5C8,15.5,8,15.5,8,15.5z"/>
</svg>
