<svg xmlns="http://www.w3.org/2000/svg" xmlns:xlink="http://www.w3.org/1999/xlink" viewBox="0 0 245.82 47.63"><defs><style>.cls-1{fill:#0b1664;}.cls-2{fill:url(#linear-gradient);}.cls-3{fill:url(#linear-gradient-2);}.cls-4{fill:url(#linear-gradient-3);}.cls-5{fill:url(#radial-gradient);}</style><linearGradient id="linear-gradient" x1="23.52" y1="6.27" x2="3.68" y2="33.26" gradientUnits="userSpaceOnUse"><stop offset="0" stop-color="#f0eeeb"/><stop offset="0.06" stop-color="#e2dfde"/><stop offset="0.17" stop-color="#bcb8ba"/><stop offset="0.26" stop-color="#9a959a"/><stop offset="0.52" stop-color="#f9f9f9"/><stop offset="0.59" stop-color="#ebeaeb"/><stop offset="0.71" stop-color="#c6c3c5"/><stop offset="0.88" stop-color="#8e888b"/><stop offset="1" stop-color="#dcdddd"/><stop offset="1" stop-color="#b5b6b6"/></linearGradient><linearGradient id="linear-gradient-2" x1="49.72" y1="29.21" x2="71.53" y2="29.21" gradientUnits="userSpaceOnUse"><stop offset="0" stop-color="#f0eeeb"/><stop offset="0" stop-color="#eae7e3"/><stop offset="0.06" stop-color="#dcd8d6"/><stop offset="0.19" stop-color="#b6b1b3"/><stop offset="0.26" stop-color="#9a959a"/><stop offset="0.52" stop-color="#f9f9f9"/><stop offset="0.59" stop-color="#ebeaeb"/><stop offset="0.71" stop-color="#c6c3c5"/><stop offset="0.88" stop-color="#8e888b"/><stop offset="1" stop-color="#dcdddd"/><stop offset="1" stop-color="#b5b6b6"/></linearGradient><linearGradient id="linear-gradient-3" x1="16.31" y1="25.25" x2="41.21" y2="25.25" xlink:href="#linear-gradient-2"/><radialGradient id="radial-gradient" cx="35.99" cy="-200.39" r="169.09" gradientTransform="matrix(0.33, 0.12, -0.1, 0.27, 14.68, 91.96)" gradientUnits="userSpaceOnUse"><stop offset="0.26" stop-color="#9a959a"/><stop offset="0.52" stop-color="#e5e4ea"/><stop offset="0.6" stop-color="#d7d6db"/><stop offset="0.74" stop-color="#b4b0b4"/><stop offset="0.88" stop-color="#8e888b"/><stop offset="1" stop-color="#dcdddd"/><stop offset="1" stop-color="#b5b6b6"/></radialGradient></defs><g id="Ebene_2" data-name="Ebene 2"><g id="レイヤー_1" data-name="レイヤー 1"><path class="cls-1" d="M87.27,10.14h9.55V14A13.35,13.35,0,0,1,101,10.57a11.33,11.33,0,0,1,5.06-1,9.69,9.69,0,0,1,5,1.13,8.4,8.4,0,0,1,3,3.36,15.37,15.37,0,0,1,4.39-3.55,11.31,11.31,0,0,1,4.89-.94,8.74,8.74,0,0,1,6.69,2.55c1.61,1.7,2.41,4.35,2.41,8V36.81H122.27V21.62a4.26,4.26,0,0,0-.7-2.69A3.06,3.06,0,0,0,119,17.55a3.63,3.63,0,0,0-2.9,1.3,6.48,6.48,0,0,0-1.1,4.2V36.81H104.77V22.12a9,9,0,0,0-.2-2.39,3.28,3.28,0,0,0-1.13-1.62,3,3,0,0,0-1.89-.61,3.63,3.63,0,0,0-2.9,1.33,6.76,6.76,0,0,0-1.13,4.37V36.81H87.27Z"/><path class="cls-1" d="M167.53,26H147.05a6.64,6.64,0,0,0,1.32,3.67,4.87,4.87,0,0,0,3.87,1.73,5.86,5.86,0,0,0,2.87-.75A6.8,6.8,0,0,0,156.89,29L167,29.9a14.44,14.44,0,0,1-5.57,5.77c-2.17,1.16-5.3,1.74-9.36,1.74a19.27,19.27,0,0,1-8.34-1.49,12.22,12.22,0,0,1-5-4.75,14.22,14.22,0,0,1-2-7.64,13.43,13.43,0,0,1,4-10.12q4-3.87,11.06-3.87a19.75,19.75,0,0,1,9,1.73,11.71,11.71,0,0,1,5.05,5,18.46,18.46,0,0,1,1.73,8.57Zm-10.39-4.9a6.83,6.83,0,0,0-1.6-4.24,5,5,0,0,0-7.29.66,7,7,0,0,0-1.18,3.58Z"/><path class="cls-1" d="M167.31,10.14h10.63L183.11,27l5.37-16.9h10.31L187.46,36.81H178.4Z"/><path class="cls-1" d="M201.38,0h10.23V7H201.38Zm0,10.14h10.23V36.81H201.38Z"/><path class="cls-1" d="M214.35,10.14h10.79l5.5,17.75,5.11-17.75h10.07L235.24,38.63c-1.21,3.26-2.44,5.45-3.69,6.59-1.77,1.61-4.48,2.41-8.11,2.41a58.63,58.63,0,0,1-6.82-.6l-.81-7.13a16.16,16.16,0,0,0,4.92.7,4.79,4.79,0,0,0,2.92-.83,6.23,6.23,0,0,0,1.9-3Z"/><path class="cls-2" d="M10.43,35.85h0a20,20,0,0,1-5-12.91c0-5.62,4.81-20.09,16.76-18.65a14.93,14.93,0,0,1,3,.71l-.63-.26c-22.91-9.5-37.1,28.9-8.67,34.54A11.29,11.29,0,0,1,10.43,35.85Z"/><path class="cls-3" d="M71.05,32.19h0A3.51,3.51,0,0,0,71.26,29c-3.77,1.86-19.91-3.6-21.48-4.14l-.06,0c.24.24,1.09,1,2.39,2.1C58.37,30.73,69,36.21,71.05,32.19Z"/><path class="cls-4" d="M16.31,23.73a7.25,7.25,0,0,0,2.34,3.34c6.76,5.43,20.66-4,22.56-5.3h0C30.76,28.78,19.82,28,16.31,23.73Z"/><path class="cls-5" d="M74.18,37.31a9.57,9.57,0,0,0,2.87-3.45l.13-.27,0-.07c0-.07.07-.14.11-.22a13.34,13.34,0,0,0,1.13-5.51c0-6.21-6.68-12.87-11.4-14-3.89-.91-9.69-1.9-22,5.48q-1.83,1.1-3.86,2.47c-1.9,1.29-15.8,10.73-22.56,5.3-8.15-6.55,2.14-26,26.36-7.74-6-7-16.58-14.3-22.85-15C10.21,2.85,5.4,17.32,5.4,22.94a20,20,0,0,0,5,12.91h0s3.22,4.28,10.28,4.07h.37A25,25,0,0,0,30.3,37c.09,0,.18-.09.27-.15l.11,0A88,88,0,0,0,39,31.62c2.64-1.82,5.1-3.59,7.59-5.11l3.27-1.7a21.69,21.69,0,0,1,11.77-3c7.43.15,11.39,8.09,9.47,10.4h0c-2,4-12.68-1.46-18.94-5.24.92.75,1.69,1.47,2.56,2.07C59.52,32.38,68.69,42,74.18,37.31Z"/></g></g></svg>