<svg xmlns="http://www.w3.org/2000/svg" width="169.334" height="103.226" viewBox="0 0 169.334 103.226">
  <g id="Group_11993" data-name="Group 11993" transform="translate(-674.68 -1538.718)">
    <path id="Path_17991" data-name="Path 17991" d="M817.98,1616.116H700.714a2.525,2.525,0,0,1-2.525-2.525v-65.157a9.728,9.728,0,0,1,9.717-9.716H810.789a9.728,9.728,0,0,1,9.717,9.716v65.157A2.525,2.525,0,0,1,817.98,1616.116Zm-114.74-5.05H815.455v-62.632a4.671,4.671,0,0,0-4.666-4.666H707.906a4.671,4.671,0,0,0-4.666,4.666Z" fill="#fff"/>
    <path id="Path_17992" data-name="Path 17992" d="M841.49,1641.944H677.205a2.525,2.525,0,0,1-1.867-4.225l23.509-25.828a2.525,2.525,0,0,1,1.867-.825H817.98a2.526,2.526,0,0,1,1.868.825l23.509,25.828a2.525,2.525,0,0,1-1.867,4.225Zm-158.571-5.05H835.777l-18.913-20.778H701.831Z" fill="#fff"/>
    <g id="Group_11992" data-name="Group 11992">
      <path id="Path_17993" data-name="Path 17993" d="M759.311,1601.345a23.862,23.862,0,1,1,12.67-44.084,2.525,2.525,0,0,1-2.685,4.277,18.813,18.813,0,1,0,8.826,15.945,19.168,19.168,0,0,0-.162-2.481,2.525,2.525,0,1,1,5.007-.659,24.162,24.162,0,0,1,.205,3.14A23.888,23.888,0,0,1,759.311,1601.345Z" fill="#fff"/>
      <path id="Path_17994" data-name="Path 17994" d="M759.4,1585.525a2.516,2.516,0,0,1-1.785-.739l-5.517-5.517a2.525,2.525,0,0,1,3.571-3.571l3.731,3.731,19.536-19.536a2.525,2.525,0,1,1,3.572,3.571l-21.322,21.322A2.518,2.518,0,0,1,759.4,1585.525Z" fill="#fff"/>
    </g>
  </g>
</svg>
