<svg xmlns="http://www.w3.org/2000/svg" width="128.54" height="115.972" viewBox="0 0 128.54 115.972">
  <g id="Group_11989" data-name="Group 11989" transform="translate(-1097.477 -1532.345)">
    <g id="Group_11988" data-name="Group 11988">
      <path id="Path_17989" data-name="Path 17989" d="M1168.031,1532.345a58.077,58.077,0,0,0-57.294,49.033H1099.1c-1.634,0-2.12,1.031-1.082,2.294l14.571,17.695a2.294,2.294,0,0,0,3.724-.043l13.819-17.608c1.009-1.287.5-2.339-1.137-2.339h-10.094a49.939,49.939,0,1,1,51.578,58.835v-.022a49.829,49.829,0,0,1-37.768-14.542,4.021,4.021,0,0,0-5.688,5.686,57.786,57.786,0,0,0,40.635,16.946c.123.012.241.037.368.037a57.986,57.986,0,0,0,0-115.972Z" fill="#fff"/>
      <path id="Path_17990" data-name="Path 17990" d="M1168.031,1552.343a4.021,4.021,0,0,0-4.021,4.022v33.966a4.021,4.021,0,0,0,4.021,4.021h29.835a4.022,4.022,0,0,0,0-8.043h-25.814v-29.944A4.021,4.021,0,0,0,1168.031,1552.343Z" fill="#fff"/>
    </g>
  </g>
</svg>
