<svg xmlns="http://www.w3.org/2000/svg" width="74" height="74" viewBox="0 0 74 74">
  <g id="arrow-right-circle-fill-2" transform="translate(-572.838 -2222.331)">
    <path id="Path_623-2" data-name="Path 623-2" d="M646.838,2259.331a37,37,0,1,1-37-37A37,37,0,0,1,646.838,2259.331Zm-38.645,12.239a2.326,2.326,0,0,0,3.289,3.289h0l13.871-13.883a2.316,2.316,0,0,0,.016-3.274l-.016-.015-13.871-13.867a2.326,2.326,0,0,0-3.289,3.289l9.929,9.924H595.963a2.315,2.315,0,0,0,0,4.625H618.13Z" fill="#c1272d" fill-rule="evenodd"/>
  </g>
</svg>
