<svg xmlns="http://www.w3.org/2000/svg" width="374.475" height="282.441" viewBox="0 0 374.475 282.441">
  <g id="Group_11899" data-name="Group 11899" transform="translate(-2347.526 -247)">
    <g id="Group_11898" data-name="Group 11898">
      <g id="Group_11896" data-name="Group 11896">
        <path id="Path_17899" data-name="Path 17899" d="M2639.884,429.069a81.837,81.837,0,0,1-8.324-.428,9.424,9.424,0,0,1-8.5-9.388v-7.5a9.609,9.609,0,0,0-5.973-8.915l-.545-.224a9.1,9.1,0,0,0-9.927,1.985l-5.634,5.634a9.434,9.434,0,0,1-12.621.649,82.75,82.75,0,0,1-11.815-11.684,9.415,9.415,0,0,1,.583-12.7l5.461-5.461a9.117,9.117,0,0,0,1.949-10c-.175-.4-.345-.8-.511-1.209a8.932,8.932,0,0,0-8.36-5.466h-8.032a9.443,9.443,0,0,1-9.381-8.454,83.241,83.241,0,0,1-.486-8.955c0-2.518.125-5.105.373-7.688a9.406,9.406,0,0,1,9.394-8.554h7.67a9.032,9.032,0,0,0,8.426-5.623c.21-.537.423-1.064.644-1.587a9.056,9.056,0,0,0-2.032-9.812l-5.641-5.641a9.434,9.434,0,0,1-.648-12.622,82.727,82.727,0,0,1,11.683-11.814,9.413,9.413,0,0,1,12.7.584l5.455,5.455a9.041,9.041,0,0,0,9.926,1.984q.924-.4,1.858-.776a8.984,8.984,0,0,0,5.481-8.372v-7.835a9.427,9.427,0,0,1,8.5-9.388,81.366,81.366,0,0,1,16.645,0,9.426,9.426,0,0,1,8.5,9.386v7.837a8.983,8.983,0,0,0,5.48,8.371c.631.252,1.25.511,1.863.78a9.044,9.044,0,0,0,9.922-1.988l5.457-5.455a9.411,9.411,0,0,1,12.7-.584,82.7,82.7,0,0,1,11.685,11.816,9.435,9.435,0,0,1-.649,12.621l-5.641,5.641a9.054,9.054,0,0,0-2.031,9.813c.22.521.436,1.052.643,1.585a9.034,9.034,0,0,0,8.427,5.624h7.67a9.408,9.408,0,0,1,9.394,8.556c.247,2.581.371,5.167.371,7.686a83.1,83.1,0,0,1-.485,8.957,9.439,9.439,0,0,1-9.381,8.452H2704.1a8.933,8.933,0,0,0-8.36,5.47q-.246.6-.509,1.2a9.121,9.121,0,0,0,1.948,10l5.462,5.461a9.416,9.416,0,0,1,.585,12.7,82.866,82.866,0,0,1-11.817,11.686,9.437,9.437,0,0,1-12.622-.649l-5.362-5.363a9.677,9.677,0,0,0-10.55-2.112l-.514.211a9.094,9.094,0,0,0-5.653,8.438v7.844a9.423,9.423,0,0,1-8.5,9.387A81.755,81.755,0,0,1,2639.884,429.069Zm-4.939-12.064a69,69,0,0,0,9.878,0v-5.6a20.943,20.943,0,0,1,13.017-19.43l.514-.212a21.537,21.537,0,0,1,23.478,4.7l3.78,3.779a71.063,71.063,0,0,0,7.023-6.944l-3.859-3.86a20.817,20.817,0,0,1-4.443-23.149q.207-.477.406-.961a20.778,20.778,0,0,1,19.362-12.859h5.8c.143-1.835.215-3.685.215-5.522,0-1.43-.047-2.887-.141-4.355h-5.407a21,21,0,0,1-19.5-13.2q-.248-.636-.514-1.266a20.776,20.776,0,0,1,4.575-22.847l4.057-4.058a70.947,70.947,0,0,0-6.943-7.024l-3.855,3.854a21.007,21.007,0,0,1-23.1,4.471q-.747-.327-1.5-.626a20.959,20.959,0,0,1-12.966-19.414V276.9a68.416,68.416,0,0,0-9.878,0v5.586a20.963,20.963,0,0,1-12.973,19.417q-.751.3-1.491.623a21.012,21.012,0,0,1-23.094-4.47l-3.854-3.855a70.825,70.825,0,0,0-6.944,7.024l4.058,4.058a20.776,20.776,0,0,1,4.576,22.843q-.268.635-.518,1.276a20.993,20.993,0,0,1-19.5,13.195H2569.8c-.095,1.469-.143,2.926-.143,4.355,0,1.834.073,3.683.216,5.522h5.8a20.78,20.78,0,0,1,19.364,12.855c.133.327.268.647.408.967a20.818,20.818,0,0,1-4.445,23.147l-3.859,3.86a70.936,70.936,0,0,0,7.024,6.944l4.051-4.05a20.955,20.955,0,0,1,22.851-4.575l.544.224a21.456,21.456,0,0,1,13.342,19.91Z" fill="gray"/>
        <path id="Path_17900" data-name="Path 17900" d="M2639.884,374.66a27.708,27.708,0,1,1,27.708-27.708A27.526,27.526,0,0,1,2639.884,374.66Zm0-43.528a15.821,15.821,0,1,0,15.821,15.82A15.717,15.717,0,0,0,2639.884,331.132Z" fill="gray"/>
      </g>
      <g id="Group_11897" data-name="Group 11897">
        <path id="Path_17901" data-name="Path 17901" d="M2412.6,356.1a35.507,35.507,0,1,1,35.506-35.506A35.548,35.548,0,0,1,2412.6,356.1Zm0-59.126a23.62,23.62,0,1,0,23.619,23.62A23.648,23.648,0,0,0,2412.6,296.974Z" fill="gray"/>
        <path id="Path_17902" data-name="Path 17902" d="M2471.722,429.07a5.943,5.943,0,0,1-5.944-5.943,53.182,53.182,0,1,0-106.365,0,5.944,5.944,0,0,1-11.887,0,65.07,65.07,0,1,1,130.139,0A5.943,5.943,0,0,1,2471.722,429.07Z" fill="gray"/>
      </g>
      <path id="Path_17903" data-name="Path 17903" d="M2505.818,335.061a44.031,44.031,0,1,1,44.03-44.031A44.081,44.081,0,0,1,2505.818,335.061Zm0-76.174a32.144,32.144,0,1,0,32.143,32.143A32.18,32.18,0,0,0,2505.818,258.887Z" fill="#c1272d"/>
      <path id="Path_17904" data-name="Path 17904" d="M2581.992,429.07a5.943,5.943,0,0,1-5.944-5.943,70.231,70.231,0,1,0-140.461,0,5.943,5.943,0,0,1-11.887,0,82.118,82.118,0,1,1,164.235,0A5.943,5.943,0,0,1,2581.992,429.07Z" fill="#c1272d"/>
    </g>
    <text id="SDP_SMART_SERVICE_DESK" data-name="SDP SMART 
SERVICE DESK" transform="translate(2532.544 479.441)" fill="gray" font-size="43.066" font-family="SegoeUI, Segoe UI" letter-spacing="0.025em"><tspan x="-123.099" y="0">SDP </tspan><tspan y="0" fill="#c1272d">SMART </tspan><tspan fill="#c1272d" letter-spacing="0.1em"><tspan x="-158.048" y="38.056">SERVICE DESK</tspan></tspan></text>
  </g>
</svg>
