<svg xmlns="http://www.w3.org/2000/svg" width="101.745" height="101.747" viewBox="0 0 101.745 101.747">
  <g id="Group_11914" data-name="Group 11914" transform="translate(-3256.398 -1088.385)">
    <path id="Path_17929" data-name="Path 17929" d="M3312.82,1164.7h-11.1a2.313,2.313,0,0,1-2.253-1.79l-1.126-4.856a20.747,20.747,0,0,1-2.873-1.667l-4.775,1.457a2.314,2.314,0,0,1-2.677-1.056l-5.55-9.612a2.313,2.313,0,0,1,.425-2.847l3.645-3.4c-.053-.585-.078-1.129-.078-1.662s.025-1.077.078-1.662l-3.645-3.4a2.313,2.313,0,0,1-.425-2.847l5.55-9.612a2.311,2.311,0,0,1,2.677-1.056l4.775,1.456a20.716,20.716,0,0,1,2.873-1.666l1.126-4.856a2.312,2.312,0,0,1,2.253-1.79h11.1a2.312,2.312,0,0,1,2.253,1.79l1.126,4.856a20.716,20.716,0,0,1,2.873,1.666l4.775-1.456a2.312,2.312,0,0,1,2.677,1.056l5.55,9.612a2.313,2.313,0,0,1-.425,2.847l-3.645,3.4c.053.584.078,1.128.078,1.662s-.025,1.078-.078,1.662l3.645,3.4a2.313,2.313,0,0,1,.425,2.847l-5.55,9.612a2.314,2.314,0,0,1-2.677,1.056l-4.775-1.457a20.649,20.649,0,0,1-2.873,1.667l-1.126,4.856A2.313,2.313,0,0,1,3312.82,1164.7Zm-9.262-4.625h7.425l.972-4.192a2.311,2.311,0,0,1,1.384-1.62,16.184,16.184,0,0,0,3.876-2.248,2.312,2.312,0,0,1,2.1-.389l4.125,1.258,3.712-6.429-3.155-2.944a2.313,2.313,0,0,1-.713-2.009,14.4,14.4,0,0,0,0-4.477,2.312,2.312,0,0,1,.713-2.008l3.155-2.945-3.712-6.428-4.125,1.258a2.311,2.311,0,0,1-2.1-.389,16.18,16.18,0,0,0-3.876-2.248,2.313,2.313,0,0,1-1.384-1.621l-.972-4.192h-7.425l-.972,4.192a2.313,2.313,0,0,1-1.384,1.621,16.18,16.18,0,0,0-3.876,2.248,2.311,2.311,0,0,1-2.1.389l-4.125-1.258-3.711,6.428,3.154,2.945a2.314,2.314,0,0,1,.713,2.008,14.407,14.407,0,0,0,0,4.478,2.312,2.312,0,0,1-.713,2.007l-3.154,2.945,3.711,6.429,4.125-1.258a2.312,2.312,0,0,1,2.1.389,16.184,16.184,0,0,0,3.876,2.248,2.311,2.311,0,0,1,1.384,1.62Z" fill="#fff"/>
    <path id="Path_17930" data-name="Path 17930" d="M3307.27,1148.509a9.25,9.25,0,1,1,9.25-9.249A9.259,9.259,0,0,1,3307.27,1148.509Zm0-13.874a4.625,4.625,0,1,0,4.625,4.625A4.63,4.63,0,0,0,3307.27,1134.635Z" fill="#fff"/>
    <path id="Path_17931" data-name="Path 17931" d="M3267.96,1185.508a2.313,2.313,0,0,1-2.312-2.313v-16.186h16.186a2.312,2.312,0,1,1,0,4.624h-11.562v11.562A2.313,2.313,0,0,1,3267.96,1185.508Z" fill="#fff"/>
    <path id="Path_17932" data-name="Path 17932" d="M3306.645,1190.132c-12.961,0-23.539-3.857-33.246-12.112-1.615-1.374-6.552-6.52-7.109-7.1a2.312,2.312,0,0,1,3.34-3.2c1.47,1.536,5.551,5.746,6.765,6.779,8.938,7.6,18.285,11.011,30.228,11.011.208,0,.415,0,.625,0a46.317,46.317,0,0,0,46.27-46.243,45.832,45.832,0,0,0-4.154-18.776,2.312,2.312,0,0,1,4.208-1.918,50.754,50.754,0,0,1-46.279,71.561Z" fill="#fff"/>
    <path id="Path_17933" data-name="Path 17933" d="M3263.075,1161.3a2.312,2.312,0,0,1-2.106-1.354,50.754,50.754,0,0,1,46.279-71.561c13.263-.128,24.026,3.718,33.894,12.109,1.615,1.374,6.552,6.52,7.11,7.1a2.313,2.313,0,0,1-3.341,3.2c-1.47-1.535-5.551-5.746-6.765-6.778-8.938-7.6-18.284-11.012-30.228-11.012l-.625,0a46.317,46.317,0,0,0-46.27,46.243,45.848,45.848,0,0,0,4.154,18.776,2.313,2.313,0,0,1-2.1,3.272Z" fill="#fff"/>
    <path id="Path_17934" data-name="Path 17934" d="M3348.893,1111.511h-16.186a2.312,2.312,0,1,1,0-4.624h11.562v-11.562a2.312,2.312,0,1,1,4.624,0Z" fill="#fff"/>
  </g>
</svg>
