<svg xmlns="http://www.w3.org/2000/svg" width="87.85" height="87.85" viewBox="0 0 87.85 87.85">
  <g id="Group_11956" data-name="Group 11956" transform="translate(-611.772 -2919.32)">
    <path id="Path_17970" data-name="Path 17970" d="M699.622,2963.245a43.925,43.925,0,1,0-50.788,43.392v-30.7H637.681v-12.7h11.153v-9.677c0-11.009,6.557-17.09,16.591-17.09a67.532,67.532,0,0,1,9.832.858v10.81h-5.538c-5.457,0-7.159,3.386-7.159,6.859v8.24h12.183l-1.948,12.7H662.56v30.7A43.937,43.937,0,0,0,699.622,2963.245Z" fill="#333"/>
    <path id="Path_17971" data-name="Path 17971" d="M672.795,2975.942l1.948-12.7H662.56V2955c0-3.473,1.7-6.859,7.159-6.859h5.538v-10.81a67.532,67.532,0,0,0-9.832-.858c-10.034,0-16.591,6.081-16.591,17.09v9.677H637.681v12.7h11.153v30.7a44.455,44.455,0,0,0,13.726,0v-30.7Z" fill="#fff"/>
  </g>
</svg>
