<svg xmlns="http://www.w3.org/2000/svg" width="128.348" height="117.615" viewBox="0 0 128.348 117.615">
  <g id="Group_12029" data-name="Group 12029" transform="translate(-1500.608 -1530.815)">
    <path id="Path_17995" data-name="Path 17995" d="M1610.4,1648.43H1503.066a2.457,2.457,0,0,1-2.458-2.458v-112.7a2.457,2.457,0,0,1,2.458-2.458H1610.4a2.457,2.457,0,0,1,2.458,2.458v24.15h-4.916v-21.692H1505.524v107.783H1607.94v-19.009h4.916v21.467A2.457,2.457,0,0,1,1610.4,1648.43Z" fill="#fff"/>
    <rect id="Rectangle_2585" data-name="Rectangle 2585" width="107.332" height="4.916" transform="translate(1503.066 1546.915)" fill="#fff"/>
    <rect id="Rectangle_2586" data-name="Rectangle 2586" width="5.367" height="4.916" transform="translate(1511.116 1538.865)" fill="#fff"/>
    <rect id="Rectangle_2587" data-name="Rectangle 2587" width="5.367" height="4.916" transform="translate(1521.849 1538.865)" fill="#fff"/>
    <rect id="Rectangle_2588" data-name="Rectangle 2588" width="5.367" height="4.916" transform="translate(1532.582 1538.865)" fill="#fff"/>
    <path id="Path_17996" data-name="Path 17996" d="M1559.421,1636.588a5.15,5.15,0,0,1-5.147-5.144V1621.6h-.225a13.206,13.206,0,0,1-13.191-13.192v-34.883a13.206,13.206,0,0,1,13.191-13.191h61.716a13.206,13.206,0,0,1,13.191,13.191v34.883a13.206,13.206,0,0,1-13.191,13.192h-39.232l-13.482,13.482A5.128,5.128,0,0,1,1559.421,1636.588Zm-5.372-71.341a8.284,8.284,0,0,0-8.276,8.275v34.883a8.285,8.285,0,0,0,8.276,8.276h2.683a2.457,2.457,0,0,1,2.458,2.458v12.3a.191.191,0,0,0,.14.208.189.189,0,0,0,.245-.049l14.2-14.2a2.455,2.455,0,0,1,1.737-.72h40.25a8.284,8.284,0,0,0,8.275-8.276v-34.883a8.284,8.284,0,0,0-8.275-8.275Z" fill="#fff"/>
    <g id="Group_11997" data-name="Group 11997">
      <path id="Path_17997" data-name="Path 17997" d="M1557.144,1583.858a2.159,2.159,0,0,1,2.176-2.176H1570.4a1.978,1.978,0,1,1,0,3.956h-8.9v4.211h7.63a1.978,1.978,0,0,1,0,3.956h-7.63v5.652a2.176,2.176,0,1,1-4.352,0Z" fill="#fff"/>
      <path id="Path_17998" data-name="Path 17998" d="M1572.744,1598.665l6.9-15.57a2.688,2.688,0,0,1,2.543-1.724h.255a2.653,2.653,0,0,1,2.515,1.724l6.9,15.57a2.128,2.128,0,0,1,.226.876,2.064,2.064,0,0,1-2.063,2.092,2.216,2.216,0,0,1-2.091-1.5l-1.328-3.109h-8.7l-1.385,3.25a2.137,2.137,0,0,1-2.006,1.357,2,2,0,0,1-2.006-2.035A2.3,2.3,0,0,1,1572.744,1598.665Zm12.236-5.482-2.741-6.527-2.741,6.527Z" fill="#fff"/>
      <path id="Path_17999" data-name="Path 17999" d="M1593.91,1591.629v-.056a10.517,10.517,0,0,1,21.025-.057v.057a10.145,10.145,0,0,1-1.752,5.679l.848.707a2.135,2.135,0,0,1,.791,1.639,2.039,2.039,0,0,1-3.476,1.47l-1.074-.961a10.785,10.785,0,0,1-5.878,1.695A10.135,10.135,0,0,1,1593.91,1591.629Zm10.286,2.233a2.051,2.051,0,0,1,2.035-2.063,2,2,0,0,1,1.441.593l2.176,1.95a6.934,6.934,0,0,0,.537-2.713v-.056a6.011,6.011,0,0,0-5.991-6.218,5.916,5.916,0,0,0-5.934,6.161v.057a6.009,6.009,0,0,0,5.991,6.216,5.935,5.935,0,0,0,2.6-.537l-2.063-1.751A2.138,2.138,0,0,1,1604.2,1593.862Z" fill="#fff"/>
    </g>
  </g>
</svg>
