<svg xmlns="http://www.w3.org/2000/svg" width="132.405" height="101.57" viewBox="0 0 132.405 101.57">
  <g id="Group_12007" data-name="Group 12007" transform="translate(-1297.214 -1084.77)">
    <g id="Group_12005" data-name="Group 12005">
      <path id="Path_18013" data-name="Path 18013" d="M1407.854,1135.555c-12.2,0-21.766-5.577-21.766-12.7a1.814,1.814,0,0,1,3.628,0c0,4.916,8.305,9.068,18.138,9.068s18.137-4.152,18.137-9.068a1.814,1.814,0,0,1,3.628,0C1429.619,1129.978,1420.058,1135.555,1407.854,1135.555Z" fill="#fff"/>
      <path id="Path_18014" data-name="Path 18014" d="M1407.854,1144.624c-12.2,0-21.766-5.578-21.766-12.7a1.814,1.814,0,0,1,3.628,0c0,4.917,8.305,9.069,18.138,9.069s18.137-4.152,18.137-9.069a1.814,1.814,0,0,1,3.628,0C1429.619,1139.046,1420.058,1144.624,1407.854,1144.624Z" fill="#fff"/>
      <path id="Path_18015" data-name="Path 18015" d="M1407.854,1153.693a36.237,36.237,0,0,1-8.4-.955,1.813,1.813,0,1,1,.839-3.528,32.765,32.765,0,0,0,7.562.855c9.832,0,18.137-4.154,18.137-9.069a1.814,1.814,0,0,1,3.628,0C1429.619,1148.115,1420.058,1153.693,1407.854,1153.693Z" fill="#fff"/>
      <path id="Path_18016" data-name="Path 18016" d="M1407.854,1162.761a36.231,36.231,0,0,1-8.4-.954,1.814,1.814,0,0,1,.839-3.529,32.711,32.711,0,0,0,7.562.856c9.832,0,18.137-4.154,18.137-9.069a1.814,1.814,0,0,1,3.628,0C1429.619,1157.184,1420.058,1162.761,1407.854,1162.761Z" fill="#fff"/>
      <path id="Path_18017" data-name="Path 18017" d="M1375.206,1186.34c-12.2,0-21.765-5.577-21.765-12.7v-18.138c0-7.118,9.561-12.7,21.765-12.7s21.765,5.578,21.765,12.7v18.138C1396.971,1180.763,1387.41,1186.34,1375.206,1186.34Zm0-39.9c-9.833,0-18.138,4.153-18.138,9.068v18.138c0,4.915,8.305,9.069,18.138,9.069s18.137-4.154,18.137-9.069v-18.138C1393.343,1150.591,1385.038,1146.438,1375.206,1146.438Z" fill="#fff"/>
      <path id="Path_18018" data-name="Path 18018" d="M1375.206,1168.2c-12.2,0-21.765-5.578-21.765-12.7a1.813,1.813,0,0,1,3.627,0c0,4.916,8.305,9.069,18.138,9.069s18.137-4.153,18.137-9.069a1.814,1.814,0,0,1,3.628,0C1396.971,1162.625,1387.41,1168.2,1375.206,1168.2Z" fill="#fff"/>
      <path id="Path_18019" data-name="Path 18019" d="M1375.206,1177.272c-12.2,0-21.765-5.578-21.765-12.7a1.813,1.813,0,1,1,3.627,0c0,4.915,8.305,9.069,18.138,9.069s18.137-4.154,18.137-9.069a1.814,1.814,0,0,1,3.628,0C1396.971,1171.694,1387.41,1177.272,1375.206,1177.272Z" fill="#fff"/>
      <path id="Path_18020" data-name="Path 18020" d="M1407.854,1171.83a36.284,36.284,0,0,1-8.4-.953,1.813,1.813,0,1,1,.839-3.528,32.7,32.7,0,0,0,7.557.854c9.832,0,18.137-4.154,18.137-9.069v-36.275c0-4.917-8.3-9.069-18.137-9.069s-18.138,4.152-18.138,9.069V1141a1.814,1.814,0,1,1-3.628,0v-18.137c0-7.12,9.562-12.7,21.766-12.7s21.765,5.577,21.765,12.7v36.275C1429.619,1166.253,1420.058,1171.83,1407.854,1171.83Z" fill="#fff"/>
    </g>
    <g id="Group_12006" data-name="Group 12006">
      <path id="Path_18021" data-name="Path 18021" d="M1328.048,1141a1.813,1.813,0,0,1-.962-.276l-29.02-18.137a1.815,1.815,0,0,1,.007-3.081l21.45-13.274a1.814,1.814,0,0,1,1.909,3.086l-18.97,11.739,25.579,15.986,18.988-12.025a1.813,1.813,0,0,1,1.941,3.064l-19.952,12.637A1.815,1.815,0,0,1,1328.048,1141Z" fill="#fff"/>
      <path id="Path_18022" data-name="Path 18022" d="M1328.048,1150.065a1.813,1.813,0,0,1-.962-.276l-29.02-18.137a1.814,1.814,0,0,1,1.923-3.077l28.052,17.533,18.988-12.025a1.813,1.813,0,0,1,1.941,3.064l-19.952,12.636A1.807,1.807,0,0,1,1328.048,1150.065Z" fill="#fff"/>
      <path id="Path_18023" data-name="Path 18023" d="M1328.048,1159.134a1.814,1.814,0,0,1-.962-.276l-29.02-18.138a1.813,1.813,0,1,1,1.923-3.075l28.052,17.532,18.988-12.025a1.813,1.813,0,0,1,1.941,3.064l-19.952,12.636A1.807,1.807,0,0,1,1328.048,1159.134Z" fill="#fff"/>
      <path id="Path_18024" data-name="Path 18024" d="M1362.41,1119.235a1.814,1.814,0,0,1-.972-3.346l17.617-11.158-25.6-16-18.873,12.13a1.814,1.814,0,0,1-1.963-3.052l19.84-12.752a1.819,1.819,0,0,1,1.943-.012l29.021,18.138a1.813,1.813,0,0,1,.008,3.07l-20.052,12.7A1.815,1.815,0,0,1,1362.41,1119.235Z" fill="#fff"/>
      <path id="Path_18025" data-name="Path 18025" d="M1362.516,1128.235a1.814,1.814,0,0,1-.972-3.346l19.946-12.631a1.814,1.814,0,1,1,1.941,3.064l-19.946,12.632A1.81,1.81,0,0,1,1362.516,1128.235Z" fill="#fff"/>
      <path id="Path_18026" data-name="Path 18026" d="M1362.511,1137.308a1.813,1.813,0,0,1-.972-3.345l19.951-12.637a1.814,1.814,0,1,1,1.941,3.065l-19.951,12.636A1.813,1.813,0,0,1,1362.511,1137.308Z" fill="#fff"/>
      <path id="Path_18027" data-name="Path 18027" d="M1348,1150.428a1.813,1.813,0,0,1-1.814-1.814v-21.279l-29.064-19.643a1.813,1.813,0,0,1,.078-3.056l13.442-8.107a1.815,1.815,0,0,1,1.9.017l30.932,19.413a1.811,1.811,0,0,1,.85,1.536v21.762a1.816,1.816,0,0,1-.831,1.525l-14.51,9.357A1.819,1.819,0,0,1,1348,1150.428Zm-26.5-44.152,27.511,18.593a1.813,1.813,0,0,1,.8,1.5v18.914l10.883-7.018V1118.5l-29.138-18.287Z" fill="#fff"/>
    </g>
  </g>
</svg>
