<svg xmlns="http://www.w3.org/2000/svg" width="43.578" height="43.578" viewBox="0 0 43.578 43.578">
  <g id="Group_40189" data-name="Group 40189" transform="translate(-362 -618.423)">
    <circle id="Ellipse_259" data-name="Ellipse 259" cx="21.789" cy="21.789" r="21.789" transform="translate(362 618.423)" fill="#fff"/>
    <path id="Icon_awesome-exchange-alt" data-name="Icon awesome-exchange-alt" d="M0,11.939v-.768a1.152,1.152,0,0,1,1.153-1.153H18.44V7.713A1.153,1.153,0,0,1,20.408,6.9l3.842,3.842a1.153,1.153,0,0,1,0,1.63l-3.842,3.842A1.153,1.153,0,0,1,18.44,15.4V13.092H1.153A1.152,1.152,0,0,1,0,11.939Zm23.434,7.3H6.147V16.933a1.153,1.153,0,0,0-1.967-.815L.338,19.96a1.153,1.153,0,0,0,0,1.63l3.842,3.842a1.153,1.153,0,0,0,1.967-.815V22.312H23.434a1.152,1.152,0,0,0,1.153-1.153v-.768A1.152,1.152,0,0,0,23.434,19.238Z" transform="translate(371.495 624.047)" fill="#f1b144"/>
  </g>
</svg>
