<svg xmlns="http://www.w3.org/2000/svg" width="43.578" height="43.578" viewBox="0 0 43.578 43.578">
  <g id="Group_40187" data-name="Group 40187" transform="translate(-362 -547.712)">
    <circle id="Ellipse_258" data-name="Ellipse 258" cx="21.789" cy="21.789" r="21.789" transform="translate(362 547.712)" fill="#fff"/>
    <path id="Icon_awesome-shopping-cart" data-name="Icon awesome-shopping-cart" d="M18.65,10.641,20.32,3.3a.848.848,0,0,0-.826-1.035H5.622L5.3.678A.848.848,0,0,0,4.468,0H.848A.848.848,0,0,0,0,.848v.565a.848.848,0,0,0,.848.848H3.315L5.8,14.388a1.978,1.978,0,1,0,2.368.3h7.4a1.977,1.977,0,1,0,2.246-.367l.195-.857a.848.848,0,0,0-.826-1.035H7.7L7.472,11.3H17.824a.848.848,0,0,0,.826-.66Z" transform="translate(373.618 560.46)" fill="#f1b144"/>
  </g>
</svg>
