<svg xmlns="http://www.w3.org/2000/svg" width="43.578" height="43.578" viewBox="0 0 43.578 43.578">
  <g id="Group_40185" data-name="Group 40185" transform="translate(-362 -477)">
    <circle id="Ellipse_257" data-name="Ellipse 257" cx="21.789" cy="21.789" r="21.789" transform="translate(362 477)" fill="#fff"/>
    <path id="Icon_awesome-ticket-alt" data-name="Icon awesome-ticket-alt" d="M4.838,11.128H16.932v7.257H4.838Zm15.118,3.628a1.814,1.814,0,0,0,1.814,1.814V20.2a1.814,1.814,0,0,1-1.814,1.814H1.814A1.814,1.814,0,0,1,0,20.2V16.571a1.814,1.814,0,0,0,1.814-1.814A1.814,1.814,0,0,0,0,12.942V9.314A1.814,1.814,0,0,1,1.814,7.5H19.956A1.814,1.814,0,0,1,21.77,9.314v3.628A1.814,1.814,0,0,0,19.956,14.757Zm-1.814-3.931a.907.907,0,0,0-.907-.907H4.535a.907.907,0,0,0-.907.907v7.861a.907.907,0,0,0,.907.907h12.7a.907.907,0,0,0,.907-.907Z" transform="translate(372.904 484.032)" fill="#b22b27"/>
  </g>
</svg>
