<svg xmlns="http://www.w3.org/2000/svg" width="151.706" height="103.995" viewBox="0 0 151.706 103.995">
  <g id="Group_12001" data-name="Group 12001" transform="translate(-881.817 -1083.266)">
    <path id="Path_18000" data-name="Path 18000" d="M957.646,1187.261a110.643,110.643,0,0,1-37.118-6.41,3.256,3.256,0,0,1-2.168-3.069v-19.551c0-9.051,5.485-16.659,16.3-22.614a3.262,3.262,0,0,1,3.144,5.717c-8.581,4.715-12.93,10.4-12.93,16.9v17.223a103.857,103.857,0,0,0,65.384.007v-17.23c0-6.567-4.284-12.25-12.733-16.9a3.262,3.262,0,0,1,3.144-5.717c10.688,5.887,16.108,13.5,16.108,22.614v19.551a3.269,3.269,0,0,1-2.157,3.069A109.435,109.435,0,0,1,957.646,1187.261Z" fill="#fff"/>
    <path id="Path_18001" data-name="Path 18001" d="M957.571,1139.959c-13.842,0-24.988-17.237-24.988-31.508a25.087,25.087,0,1,1,50.174,0C982.757,1122.633,971.134,1139.959,957.571,1139.959Zm0-50.174a18.587,18.587,0,0,0-18.469,18.666c0,10.909,8.956,24.989,18.469,24.989,9.616,0,18.666-14.08,18.666-24.989A18.685,18.685,0,0,0,957.571,1089.785Z" fill="#fff"/>
    <path id="Path_18002" data-name="Path 18002" d="M910.361,1177.292h-.075a83.705,83.705,0,0,1-26.3-4.934,3.259,3.259,0,0,1-2.164-3.069v-14.025c0-6.928,4.229-12.78,12.232-16.911a3.256,3.256,0,1,1,2.994,5.784c-5.777,2.988-8.707,6.73-8.707,11.127v11.7a77.071,77.071,0,0,0,22.1,3.811,3.26,3.26,0,0,1-.075,6.52Z" fill="#fff"/>
    <path id="Path_18003" data-name="Path 18003" d="M910.953,1143.116c-10.449,0-18.864-12.909-18.864-23.6a18.964,18.964,0,1,1,37.928,0C930.017,1130.207,921.514,1143.116,910.953,1143.116Zm0-36.148a12.46,12.46,0,0,0-12.345,12.548c0,7.459,5.985,17.081,12.345,17.081,6.342,0,12.545-9.779,12.545-17.081A12.56,12.56,0,0,0,910.953,1106.968Z" fill="#fff"/>
    <path id="Path_18004" data-name="Path 18004" d="M1004.979,1177.292a3.26,3.26,0,0,1-.075-6.52,77.059,77.059,0,0,0,22.1-3.811v-11.7c0-4.288-2.943-8.037-8.748-11.147a3.258,3.258,0,0,1,3.076-5.744c7.976,4.267,12.192,10.113,12.192,16.891v14.025a3.26,3.26,0,0,1-2.164,3.069,83.712,83.712,0,0,1-26.306,4.934Z" fill="#fff"/>
    <path id="Path_18005" data-name="Path 18005" d="M1004.189,1143.116c-10.452,0-18.867-12.909-18.867-23.6a18.964,18.964,0,1,1,37.928,0C1023.25,1130.207,1014.747,1143.116,1004.189,1143.116Zm0-36.148a12.463,12.463,0,0,0-12.348,12.548c0,7.459,5.989,17.081,12.348,17.081,6.343,0,12.542-9.779,12.542-17.081A12.557,12.557,0,0,0,1004.189,1106.968Z" fill="#fff"/>
  </g>
</svg>
