<svg xmlns="http://www.w3.org/2000/svg" width="148.648" height="114.733" viewBox="0 0 148.648 114.733">
  <g id="Group_12003" data-name="Group 12003" transform="translate(-477.407 -1078.189)">
    <path id="Path_18006" data-name="Path 18006" d="M623.186,1178.407H480.276a2.865,2.865,0,0,1-2.869-2.866v-94.487a2.864,2.864,0,0,1,2.869-2.865h142.91a2.864,2.864,0,0,1,2.869,2.865v94.487A2.865,2.865,0,0,1,623.186,1178.407Zm-140.042-5.731H620.318V1083.92H483.144Z" fill="#fff"/>
    <path id="Path_18007" data-name="Path 18007" d="M578.474,1192.916H524.988a2.866,2.866,0,1,1,0-5.732h53.486a2.866,2.866,0,1,1,0,5.732Z" fill="#fff"/>
    <path id="Path_18008" data-name="Path 18008" d="M540.508,1192.922a2.879,2.879,0,0,1-2.61-4.058l6.58-14.509a2.87,2.87,0,0,1,5.226,2.372l-6.58,14.509A2.872,2.872,0,0,1,540.508,1192.922Z" fill="#fff"/>
    <path id="Path_18009" data-name="Path 18009" d="M562.954,1192.922a2.872,2.872,0,0,1-2.6-1.663L553.6,1176.75a2.869,2.869,0,0,1,5.2-2.418l6.748,14.509a2.864,2.864,0,0,1-1.392,3.807A2.794,2.794,0,0,1,562.954,1192.922Z" fill="#fff"/>
    <path id="Path_18010" data-name="Path 18010" d="M623.186,1166.427H480.276a2.866,2.866,0,1,1,0-5.732h142.91a2.866,2.866,0,1,1,0,5.732Z" fill="#fff"/>
    <path id="Path_18011" data-name="Path 18011" d="M529.542,1138.421a2.866,2.866,0,0,1-2.029-4.9l29.867-29.866a2.869,2.869,0,0,1,4.057,4.058l-29.866,29.866A2.867,2.867,0,0,1,529.542,1138.421Z" fill="#fff"/>
    <path id="Path_18012" data-name="Path 18012" d="M549.282,1140.781a2.866,2.866,0,0,1-2.028-4.9L559.74,1123.4a2.869,2.869,0,0,1,4.057,4.057l-12.486,12.486A2.865,2.865,0,0,1,549.282,1140.781Z" fill="#fff"/>
  </g>
</svg>
