<svg xmlns="http://www.w3.org/2000/svg" xmlns:xlink="http://www.w3.org/1999/xlink" width="85.938" height="85.938" viewBox="0 0 85.938 85.938">
  <defs>
    <clipPath id="clip-path">
      <circle id="Ellipse_142" data-name="Ellipse 142" cx="42.969" cy="42.969" r="42.969" transform="translate(977.728 2919.32)" fill="#333"/>
    </clipPath>
  </defs>
  <g id="Group_11951" data-name="Group 11951" transform="translate(-977.728 -2919.32)">
    <g id="Group_11948" data-name="Group 11948">
      <circle id="Ellipse_141" data-name="Ellipse 141" cx="42.969" cy="42.969" r="42.969" transform="translate(977.728 2919.32)" fill="#333"/>
    </g>
    <g id="Group_11950" data-name="Group 11950">
      <g id="Group_11949" data-name="Group 11949">
        <path id="Path_17966" data-name="Path 17966" d="M1020.7,2940.109c7.224,0,8.079.027,10.932.158a14.971,14.971,0,0,1,5.024.931,8.954,8.954,0,0,1,5.134,5.135,14.942,14.942,0,0,1,.932,5.023c.13,2.853.158,3.709.158,10.933s-.028,8.079-.158,10.932a14.953,14.953,0,0,1-.932,5.024,8.957,8.957,0,0,1-5.134,5.134,14.969,14.969,0,0,1-5.024.932c-2.852.13-3.708.157-10.932.157s-8.08-.027-10.932-.157a14.968,14.968,0,0,1-5.024-.932,8.963,8.963,0,0,1-5.135-5.134,14.985,14.985,0,0,1-.931-5.024c-.13-2.853-.158-3.708-.158-10.932s.028-8.08.158-10.933a14.974,14.974,0,0,1,.931-5.023,8.96,8.96,0,0,1,5.135-5.135,14.971,14.971,0,0,1,5.024-.931c2.853-.131,3.708-.158,10.932-.158m0-4.875c-7.348,0-8.269.031-11.155.163a19.848,19.848,0,0,0-6.567,1.258,13.828,13.828,0,0,0-7.912,7.912,19.866,19.866,0,0,0-1.258,6.567c-.131,2.886-.162,3.807-.162,11.155s.031,8.269.162,11.154a19.864,19.864,0,0,0,1.258,6.567,13.834,13.834,0,0,0,7.912,7.913,19.845,19.845,0,0,0,6.567,1.257c2.886.132,3.807.163,11.155.163s8.269-.031,11.154-.163a19.846,19.846,0,0,0,6.568-1.257,13.834,13.834,0,0,0,7.912-7.913,19.864,19.864,0,0,0,1.258-6.567c.131-2.885.162-3.807.162-11.154s-.031-8.269-.162-11.155a19.866,19.866,0,0,0-1.258-6.567,13.827,13.827,0,0,0-7.912-7.912,19.849,19.849,0,0,0-6.568-1.258c-2.885-.132-3.806-.163-11.154-.163Z" fill="#fff"/>
        <path id="Path_17967" data-name="Path 17967" d="M1020.7,2948.4a13.892,13.892,0,1,0,13.893,13.893A13.893,13.893,0,0,0,1020.7,2948.4Zm0,22.911a9.018,9.018,0,1,1,9.018-9.018A9.018,9.018,0,0,1,1020.7,2971.307Z" fill="#fff"/>
        <circle id="Ellipse_143" data-name="Ellipse 143" cx="3.247" cy="3.247" r="3.247" transform="translate(1031.892 2944.6)" fill="#fff"/>
      </g>
    </g>
  </g>
</svg>
