<svg xmlns="http://www.w3.org/2000/svg" xmlns:xlink="http://www.w3.org/1999/xlink" width="102.414" height="129.949" viewBox="0 0 102.414 129.949">
  <defs>
    <radialGradient id="radial-gradient" cx="0.92" cy="0.103" r="1.175" gradientTransform="translate(0.025) scale(0.951 1)" gradientUnits="objectBoundingBox">
      <stop offset="0" stop-color="#fbae17"/>
      <stop offset="0.108" stop-color="#f78e19"/>
      <stop offset="0.293" stop-color="#f25d1e"/>
      <stop offset="0.456" stop-color="#ef3921"/>
      <stop offset="0.588" stop-color="#ec2323"/>
      <stop offset="0.674" stop-color="#ec1c24"/>
      <stop offset="1" stop-color="#c3161c"/>
    </radialGradient>
    <radialGradient id="radial-gradient-2" cx="0.913" cy="0.125" r="1.165" gradientTransform="translate(0.026) scale(0.948 1)" gradientUnits="objectBoundingBox">
      <stop offset="0" stop-color="#fcb813"/>
      <stop offset="0.134" stop-color="#f78e17"/>
      <stop offset="0.311" stop-color="#f25d1c"/>
      <stop offset="0.466" stop-color="#ef3920"/>
      <stop offset="0.592" stop-color="#ec2323"/>
      <stop offset="0.674" stop-color="#ec1c24"/>
      <stop offset="1" stop-color="#c3161c"/>
    </radialGradient>
    <radialGradient id="radial-gradient-3" cx="0.081" cy="0.886" r="1.186" gradientTransform="translate(0.024) scale(0.952 1)" xlink:href="#radial-gradient"/>
  </defs>
  <g id="Group_11931" data-name="Group 11931" transform="translate(-905.918 -25.841)">
    <g id="Group_11925" data-name="Group 11925">
      <path id="Path_17940" data-name="Path 17940" d="M977.843,137.613a4.936,4.936,0,0,0-3.354.977c-.02-.251-.047-.706-.047-.706h-3.336v11.928h3.82v-7.39a1.473,1.473,0,0,1,.594-1.1,4.316,4.316,0,0,1,3.331-.717l.169.025v-2.82A4.409,4.409,0,0,0,977.843,137.613Z"/>
      <path id="Path_17941" data-name="Path 17941" d="M915.325,144.192H914.9v5.638h-3.871V133.176h4.827c3.717,0,6.24,1.847,6.24,5.457C922.1,140.629,920.5,144.192,915.325,144.192Zm.125-7.855h-.55v4.977h.55c1.924,0,2.826-.909,2.826-2.5C918.276,137.475,917.349,136.337,915.45,136.337Z"/>
      <path id="Path_17942" data-name="Path 17942" d="M930.815,141.314a2.964,2.964,0,0,0-3.689.3v8.216h-3.814V137.877h3.233l.4,1.214a4.734,4.734,0,0,1,3.237-1.491,3.536,3.536,0,0,1,1.97.6Z"/>
      <path id="Path_17943" data-name="Path 17943" d="M942.208,148.208a6.357,6.357,0,0,1-4.676,1.871,6.464,6.464,0,0,1-4.4-1.491,6.032,6.032,0,0,1-1.969-4.621,6.414,6.414,0,0,1,1.794-4.548,6.237,6.237,0,0,1,4.571-1.819,6.355,6.355,0,0,1,4.8,1.869,6.237,6.237,0,0,1,1.571,4.321A6.172,6.172,0,0,1,942.208,148.208Zm-4.749-7.653c-1.692,0-2.406,1.492-2.406,3.336,0,1.969.941,3.336,2.5,3.336,1.7,0,2.4-1.49,2.4-3.336C939.959,141.919,939.023,140.555,937.459,140.555Z"/>
      <path id="Path_17944" data-name="Path 17944" d="M950.647,150.079a4.907,4.907,0,0,1-1.517-.225v5.936h-3.815V138.412a14.567,14.567,0,0,1,5.135-.812c4.644,0,6.769,2.4,6.769,6.01A6.292,6.292,0,0,1,950.647,150.079Zm-.558-9.4a4.675,4.675,0,0,0-.959.078v6.185a4.836,4.836,0,0,0,1.32.177c1.891,0,2.775-1.363,2.775-3.257A2.908,2.908,0,0,0,950.089,140.682Z"/>
      <path id="Path_17945" data-name="Path 17945" d="M961.968,144.951c.073,1.466,1.642,2.146,2.984,2.146a6.5,6.5,0,0,0,3.275-.8l.865,2.4a8.523,8.523,0,0,1-4.749,1.387c-4.448,0-6.188-3.028-6.188-6.089,0-3.361,2.042-6.39,5.808-6.39,3.335,0,5.737,2.45,5.737,6.164v1.187Zm1.844-4.6a2.048,2.048,0,0,0-1.967,2.074h3.99A2.006,2.006,0,0,0,963.812,140.353Z"/>
      <path id="Path_17946" data-name="Path 17946" d="M998.571,149.83c-2.093,5.381-4.069,5.96-6.294,5.96a7.7,7.7,0,0,1-3.255-.655l.962-2.884a3.9,3.9,0,0,0,2.021.51c1.006,0,1.994-.687,2.9-3.133l-5.534-11.751h4.043l3.362,7.631h.047l2.627-7.631h3.769Z"/>
      <path id="Path_17947" data-name="Path 17947" d="M988.838,146.4a4.3,4.3,0,0,1-1.889.522c-.78,0-1.139-.424-1.139-1.285v-5.005h2.708l.628-2.752H985.81v-3.919L982,135.049v2.828h-2.244v2.752H982v6.493c0,1.643.838,2.957,3.212,2.957a8.935,8.935,0,0,0,3.63-.8Z"/>
    </g>
    <g id="Group_11930" data-name="Group 11930">
      <g id="Group_11926" data-name="Group 11926">
        <path id="Path_17948" data-name="Path 17948" d="M1000.955,35.563c-50.041-21.08-87.083,0-87.083,0-17.143,41.181,0,77.633,0,77.633,48.866,21.869,86.894,0,86.894,0C1016.923,73.989,1000.955,35.563,1000.955,35.563Z" fill-rule="evenodd" fill="url(#radial-gradient)"/>
        <path id="Path_17949" data-name="Path 17949" d="M956.137,26.194a114.829,114.829,0,0,1,44.818,9.369s15.968,38.426-.189,77.633c0,0-16.9,9.72-42.648,9.72a107.622,107.622,0,0,1-44.246-9.72s-17.143-36.452,0-77.633c0,0,16.462-9.369,42.265-9.369m0-.353c-25.6,0-42.274,9.321-42.44,9.415l-.105.06-.046.111a102.443,102.443,0,0,0-6.452,54.448,93.579,93.579,0,0,0,6.458,23.471l.056.119.12.053a108.174,108.174,0,0,0,44.39,9.751c25.547,0,42.654-9.669,42.824-9.767l.1-.06.046-.112c8.376-20.325,7.982-40.421,6.177-53.7a107.639,107.639,0,0,0-5.989-24.2l-.055-.133-.134-.057a115.446,115.446,0,0,0-44.955-9.4Z" fill="#fff"/>
      </g>
      <path id="Path_17950" data-name="Path 17950" d="M994.18,108.223c-3.192,1.349-38.433,15.547-74.519-.8a106.388,106.388,0,0,1-5.3-33.509A93.371,93.371,0,0,1,919.877,41.7a75.684,75.684,0,0,1,21.185-6.318c12.16-1.931,31.264-2.346,53.256,6.605l.013.013a105.31,105.31,0,0,1,5.434,33.842A93.3,93.3,0,0,1,994.18,108.223Z" fill="url(#radial-gradient-2)"/>
      <path id="Path_17951" data-name="Path 17951" d="M996.929,41.04l-.421-1.143-1.143-.472c-22.594-9.195-42.235-8.762-54.733-6.776a78.519,78.519,0,0,0-22,6.58l-.983.491-.371,1.027a96.2,96.2,0,0,0-5.679,33.169,108.606,108.606,0,0,0,5.456,34.443l.4,1.108,1.066.481c36.989,16.751,72.78,2.5,76.743.822l1.1-.467.413-1.119a95.807,95.807,0,0,0,5.762-33.339A107.658,107.658,0,0,0,996.929,41.04Zm-2.749,67.183c-3.192,1.349-38.433,15.547-74.519-.8a106.388,106.388,0,0,1-5.3-33.509A93.371,93.371,0,0,1,919.877,41.7a75.684,75.684,0,0,1,21.185-6.318c12.16-1.931,31.264-2.346,53.256,6.605l.013.013a105.31,105.31,0,0,1,5.434,33.842A93.3,93.3,0,0,1,994.18,108.223Z" fill-rule="evenodd" fill="url(#radial-gradient-3)"/>
      <g id="Group_11928" data-name="Group 11928">
        <path id="Path_17952" data-name="Path 17952" d="M934.495,54.66c-2.054-1.087-3.82-2.028-3.82-3.72,0-1.537,1.636-2.083,3.034-2.083a10.492,10.492,0,0,1,5.169,1.552l.3.163.077-4.16-.111-.063a11.638,11.638,0,0,0-5.637-1.29c-4.447,0-7.556,2.627-7.556,6.4a6.082,6.082,0,0,0,1.517,4.174,15.034,15.034,0,0,0,4.31,2.959c2.063,1.082,3.848,2.017,3.848,3.771s-1.9,2.388-3.52,2.388a8.665,8.665,0,0,1-4.978-1.669l-.182-.133-1.877,3.41.149.106a12.314,12.314,0,0,0,7.059,2.086c4.787,0,8.135-2.74,8.135-6.666C940.413,57.8,937.275,56.13,934.495,54.66Z" fill="#fff"/>
        <g id="Group_11927" data-name="Group 11927">
          <path id="Path_17953" data-name="Path 17953" d="M944.345,45.4a2.438,2.438,0,1,0,0,4.876,2.492,2.492,0,0,0,2.513-2.457A2.444,2.444,0,0,0,944.345,45.4Z" fill="#fff"/>
          <rect id="Rectangle_2576" data-name="Rectangle 2576" width="4.515" height="16.585" transform="translate(942.087 51.621)" fill="#fff"/>
        </g>
        <path id="Path_17954" data-name="Path 17954" d="M968.2,51.244a9.4,9.4,0,0,0-5.729,2.343,4.679,4.679,0,0,0-4.293-2.343,9.161,9.161,0,0,0-5.37,2.021c-.091-.408-.372-1.644-.372-1.644H948.6V68.206h4.518V56.686a6.1,6.1,0,0,1,3.691-1.536c1.759,0,2.112,1.243,2.112,3.106v9.95h4.52V57.16s-.02-.3-.033-.477A6.11,6.11,0,0,1,967.1,55.15c1.791,0,2.152,1.16,2.152,3.035V68.206h4.48V57.026C973.733,52,970.266,51.244,968.2,51.244Z" fill="#fff"/>
        <path id="Path_17955" data-name="Path 17955" d="M990.054,59.795c0-5.116-3-8.551-7.459-8.551-4.447,0-7.547,3.558-7.547,8.651,0,3.994,2.152,8.651,8.229,8.651a10.553,10.553,0,0,0,6.005-1.815l.129-.089-1.131-3.008-.2.11a8.239,8.239,0,0,1-4.112,1.1,4.065,4.065,0,0,1-4.311-3.652h10.4Zm-10.513-1.918a3.111,3.111,0,0,1,2.956-3.138c1.95,0,2.756,1.641,2.879,3.138Z" fill="#fff"/>
      </g>
      <g id="Group_11929" data-name="Group 11929">
        <path id="Path_17956" data-name="Path 17956" d="M924.971,72.392h-5.716V95.334H924.7c7.869,0,12.951-4.576,12.951-11.659C937.648,76.61,932.911,72.392,924.971,72.392Zm-.071,19.04h-1.1V76.293h1.064c5.064,0,7.96,2.718,7.96,7.449C932.826,86.055,932.055,91.432,924.9,91.432Z" fill="#fff"/>
        <path id="Path_17957" data-name="Path 17957" d="M971.771,78.377a10.894,10.894,0,0,0-2.937.411V70.717h-4.519V94.428l.1.059a11.2,11.2,0,0,0,5.436,1.191c5.8,0,9.85-3.8,9.85-9.233C979.705,80.868,975.713,78.377,971.771,78.377Zm-1.132,13.532a5.8,5.8,0,0,1-1.8-.262v-8.96a5.146,5.146,0,0,1,2.081-.444,4.278,4.278,0,0,1,4.264,4.545C975.179,89.706,973.23,91.909,970.639,91.909Z" fill="#fff"/>
        <path id="Path_17958" data-name="Path 17958" d="M991.877,78.748s-3.255,9.609-3.493,10.31c-.294-.674-4.747-10.31-4.747-10.31h-5.3s7.411,16.136,7.483,16.288c-1.041,3.2-2.314,4.7-4.015,4.7h-.2l.04,3.664h.2c3.9,0,6.469-1.211,8.851-7.588l6.323-17.066Z" fill="#fff"/>
        <path id="Path_17959" data-name="Path 17959" d="M961.81,78.377a6.85,6.85,0,0,0-4.657,1.352c-.028-.346-.073-.981-.073-.981h-3.851V95.334h4.518V84.859a2.054,2.054,0,0,1,.83-1.531,6.1,6.1,0,0,1,4.626-1.2l.235.033V78.448S961.966,78.377,961.81,78.377Z" fill="#fff"/>
        <path id="Path_17960" data-name="Path 17960" d="M951.946,95.062a15.845,15.845,0,0,1-.294-4.209v-5.2c-.072-3.9-1.047-6.462-5.7-7.214a11.077,11.077,0,0,0-6.587,1.556l-.125.082.026.14a20.513,20.513,0,0,1,.439,2.9l.034.288.26-.118a11.318,11.318,0,0,1,4.5-1.185c1.6,0,2.323.747,2.5,2.578-.38.009-2.609.09-2.609.09-4.421.146-6.968,2.153-6.968,5.506a5.223,5.223,0,0,0,5.509,5.407,6.9,6.9,0,0,0,4.6-1.667c.156.323.63,1.323.63,1.323h3.864Zm-4.88-3.973a4.07,4.07,0,0,1-2.7.924c-1.519,0-2.42-.765-2.42-2.05,0-.809.306-1.9,3.01-1.978,0,0,1.759-.053,2.111-.062Z" fill="#fff"/>
      </g>
    </g>
  </g>
</svg>
