<svg xmlns="http://www.w3.org/2000/svg" width="134.173" height="136.395" viewBox="0 0 134.173 136.395">
  <g id="Group_11984" data-name="Group 11984" transform="translate(-290.366 -1521.425)">
    <g id="Group_11976" data-name="Group 11976">
      <g id="Group_11971" data-name="Group 11971">
        <path id="Path_17981" data-name="Path 17981" d="M332.538,1657.82a4.76,4.76,0,0,1-3.866-1.972l-8.459-11.712a4.744,4.744,0,0,1,.416-6.075,8.639,8.639,0,0,0-11.287-12.99h0a2.353,2.353,0,0,1-3.283-.529l-9.743-13.489a4.761,4.761,0,0,1,1.072-6.648l87.247-63.019a4.766,4.766,0,0,1,6.648,1.071l8.459,11.712a4.743,4.743,0,0,1-.417,6.075,8.641,8.641,0,0,0,9.956,13.783,4.742,4.742,0,0,1,5.9,1.514h0l8.46,11.711a4.768,4.768,0,0,1-1.072,6.648l-87.247,63.02A4.741,4.741,0,0,1,332.538,1657.82Zm-18.166-39.091a13.509,13.509,0,0,1,2.152.173,13.343,13.343,0,0,1,7.492,22.423.059.059,0,0,0,.01.058l8.459,11.711a.058.058,0,0,0,.081.013l87.247-63.02a.058.058,0,0,0,.013-.081l-8.459-11.711a.062.062,0,0,0-.05-.028,13.344,13.344,0,0,1-15.378-21.287.06.06,0,0,0-.01-.057l-8.459-11.712a.058.058,0,0,0-.081-.013l-87.247,63.02a.049.049,0,0,0-.023.038.05.05,0,0,0,.01.043l8.486,11.749A13.186,13.186,0,0,1,314.372,1618.729Z" fill="#fff"/>
      </g>
      <g id="Group_11975" data-name="Group 11975">
        <g id="Group_11972" data-name="Group 11972">
          <path id="Path_17982" data-name="Path 17982" d="M366.286,1559.8h0a1.831,1.831,0,0,1,.412-2.557l.843-.609a1.832,1.832,0,0,1,2.558.412h0a1.832,1.832,0,0,1-.413,2.557l-.843.609A1.832,1.832,0,0,1,366.286,1559.8Z" fill="#fff"/>
        </g>
        <g id="Group_11973" data-name="Group 11973">
          <path id="Path_17983" data-name="Path 17983" d="M394.8,1599.273l-2.607-3.609a1.832,1.832,0,0,1,.412-2.558l.843-.609a1.832,1.832,0,0,1,2.557.413l2.607,3.609a1.831,1.831,0,0,1-.412,2.557l-.843.609A1.831,1.831,0,0,1,394.8,1599.273Zm-7.128-9.868-2.607-3.61a1.831,1.831,0,0,1,.412-2.557l.843-.609a1.833,1.833,0,0,1,2.558.412l2.607,3.61a1.832,1.832,0,0,1-.413,2.557l-.843.609A1.831,1.831,0,0,1,387.67,1589.405Zm-7.128-9.869-2.607-3.609a1.832,1.832,0,0,1,.412-2.557l.843-.609a1.833,1.833,0,0,1,2.558.412l2.607,3.609a1.833,1.833,0,0,1-.413,2.558l-.843.609A1.832,1.832,0,0,1,380.542,1579.536Zm-7.128-9.868-2.607-3.609a1.832,1.832,0,0,1,.412-2.557l.843-.609a1.832,1.832,0,0,1,2.558.412l2.607,3.609a1.832,1.832,0,0,1-.413,2.557l-.843.609A1.831,1.831,0,0,1,373.414,1569.668Z" fill="#fff"/>
        </g>
        <g id="Group_11974" data-name="Group 11974">
          <path id="Path_17984" data-name="Path 17984" d="M399.319,1605.532h0a1.831,1.831,0,0,1,.412-2.557l.843-.609a1.831,1.831,0,0,1,2.557.412h0a1.831,1.831,0,0,1-.412,2.557l-.843.609A1.831,1.831,0,0,1,399.319,1605.532Z" fill="#fff"/>
        </g>
      </g>
    </g>
    <g id="Group_11983" data-name="Group 11983">
      <g id="Group_11977" data-name="Group 11977">
        <path id="Path_17985" data-name="Path 17985" d="M302.811,1626.387a2.351,2.351,0,0,1-3.217.843l-6.871-4.016a4.768,4.768,0,0,1-1.708-6.513l.74-1.265a2.352,2.352,0,0,1,3.217-.844h0a2.351,2.351,0,0,1,.843,3.217l-.739,1.265a.057.057,0,0,0,.021.079l6.871,4.016a2.351,2.351,0,0,1,.843,3.217Z" fill="#fff"/>
      </g>
      <g id="Group_11978" data-name="Group 11978">
        <path id="Path_17986" data-name="Path 17986" d="M307.847,1592.565h0a2.351,2.351,0,0,1-.843-3.217l38.324-65.565a4.766,4.766,0,0,1,6.513-1.708l12.473,7.291a4.754,4.754,0,0,1,2.071,5.736,8.723,8.723,0,0,0,.665,7.3,2.348,2.348,0,0,1-.444,2.9l-.007.007a2.344,2.344,0,0,1-3.6-.511,13.272,13.272,0,0,1-1.03-11.312.057.057,0,0,0-.025-.067l-12.473-7.291a.059.059,0,0,0-.08.021l-38.324,65.565A2.351,2.351,0,0,1,307.847,1592.565Z" fill="#fff"/>
      </g>
      <g id="Group_11982" data-name="Group 11982">
        <g id="Group_11979" data-name="Group 11979">
          <path id="Path_17987" data-name="Path 17987" d="M335.992,1548.044h0a1.831,1.831,0,0,1-.657-2.505l.525-.9a1.83,1.83,0,0,1,2.505-.657h0a1.83,1.83,0,0,1,.657,2.505l-.524.9A1.831,1.831,0,0,1,335.992,1548.044Z" fill="#fff"/>
        </g>
        <g id="Group_11980" data-name="Group 11980">
          <rect id="Rectangle_2584" data-name="Rectangle 2584" width="4.703" height="8.659" rx="1.832" transform="matrix(0.505, -0.863, 0.863, 0.505, 341.311, 1551.153)" fill="#fff"/>
        </g>
        <g id="Group_11981" data-name="Group 11981">
          <path id="Path_17988" data-name="Path 17988" d="M354.106,1558.632h0a1.831,1.831,0,0,1-.657-2.506l.525-.9a1.83,1.83,0,0,1,2.505-.656h0a1.83,1.83,0,0,1,.657,2.505l-.525.9A1.831,1.831,0,0,1,354.106,1558.632Z" fill="#fff"/>
        </g>
      </g>
    </g>
  </g>
</svg>
