<svg xmlns="http://www.w3.org/2000/svg" width="106.181" height="104.409" viewBox="0 0 106.181 104.409">
  <g id="Group_11912" data-name="Group 11912" transform="translate(-2439.639 -1087.054)">
    <g id="Group_11910" data-name="Group 11910">
      <path id="Path_17919" data-name="Path 17919" d="M2452.185,1130.577h-5.957a6.6,6.6,0,0,0-6.589,6.589v22.88a6.6,6.6,0,0,0,6.589,6.589h5.957a6.6,6.6,0,0,0,6.589-6.589v-22.88A6.6,6.6,0,0,0,2452.185,1130.577Zm1.865,6.589v22.88a1.868,1.868,0,0,1-1.865,1.865h-5.957a1.868,1.868,0,0,1-1.866-1.865v-22.88a1.868,1.868,0,0,1,1.866-1.865h5.957A1.868,1.868,0,0,1,2454.05,1137.166Z" fill="#fff"/>
      <path id="Path_17920" data-name="Path 17920" d="M2539.231,1130.577h-5.957a6.6,6.6,0,0,0-6.589,6.589v22.88a6.6,6.6,0,0,0,6.589,6.589h5.957a6.6,6.6,0,0,0,6.589-6.589v-22.88A6.6,6.6,0,0,0,2539.231,1130.577Zm-7.822,6.589a1.868,1.868,0,0,1,1.865-1.865h5.957a1.868,1.868,0,0,1,1.866,1.865v22.88a1.868,1.868,0,0,1-1.866,1.865h-5.957a1.868,1.868,0,0,1-1.865-1.865Z" fill="#fff"/>
      <path id="Path_17921" data-name="Path 17921" d="M2492.73,1087.054a45.831,45.831,0,0,0-45.886,45.885v1.092h4.724v-1.092a41.208,41.208,0,0,1,41.162-41.161h1.091v-4.724Z" fill="#fff"/>
      <path id="Path_17922" data-name="Path 17922" d="M2535.011,1115.07a45.833,45.833,0,0,0-42.281-28.016h-1.092v4.724h1.092a41.208,41.208,0,0,1,41.161,41.161v1.092h4.724v-1.092A45.66,45.66,0,0,0,2535.011,1115.07Z" fill="#fff"/>
      <path id="Path_17923" data-name="Path 17923" d="M2537.523,1163.181h-3.632v1.092a17.438,17.438,0,0,1-17.417,17.418h-1.092v4.723h1.092a22.129,22.129,0,0,0,22.141-22.141v-1.092Z" fill="#fff"/>
      <path id="Path_17924" data-name="Path 17924" d="M2516.474,1181.691h-16.958v4.724h18.049v-4.724Z" fill="#fff"/>
      <ellipse id="Ellipse_140" data-name="Ellipse 140" cx="12.734" cy="7.411" rx="12.734" ry="7.411" transform="translate(2479.995 1176.642)" fill="#fff"/>
      <path id="Rectangle_2567" data-name="Rectangle 2567" d="M0,0H2.709A2.722,2.722,0,0,1,5.431,2.722V23.888A2.722,2.722,0,0,1,2.709,26.61H0a0,0,0,0,1,0,0V0A0,0,0,0,1,0,0Z" transform="translate(2456.743 1135.301)" fill="#fff"/>
      <path id="Rectangle_2568" data-name="Rectangle 2568" d="M0,0H2.709A2.722,2.722,0,0,1,5.431,2.722V23.888A2.722,2.722,0,0,1,2.709,26.61H0a0,0,0,0,1,0,0V0A0,0,0,0,1,0,0Z" transform="translate(2529.401 1161.911) rotate(-180)" fill="#fff"/>
    </g>
    <g id="Group_11911" data-name="Group 11911">
      <path id="Path_17925" data-name="Path 17925" d="M2484.784,1136.083a1.317,1.317,0,0,1-.932-.386l-4.884-4.884c0,.006-.014.005-.041.014a10.947,10.947,0,0,1-11.739-2.482,11.869,11.869,0,0,1-3.285-10.479,2.609,2.609,0,0,1,1.795-2.031,2.638,2.638,0,0,1,2.665.65l4.412,4.41,3.725-3.725-4.41-4.412a2.639,2.639,0,0,1-.651-2.665,2.607,2.607,0,0,1,2.031-1.794,11.864,11.864,0,0,1,10.479,3.284,10.946,10.946,0,0,1,2.483,11.739.115.115,0,0,0-.007.054l5.374,5.369a1.317,1.317,0,0,1-1.863,1.862l-5.382-5.382a2.648,2.648,0,0,1-.61-2.766,8.3,8.3,0,0,0-1.857-9.013,9.232,9.232,0,0,0-8.136-2.558v.009l4.413,4.411a2.638,2.638,0,0,1,0,3.725l-3.725,3.725a2.637,2.637,0,0,1-3.724,0l-4.412-4.411h-.008a9.231,9.231,0,0,0,2.557,8.135,8.3,8.3,0,0,0,9.013,1.857,2.648,2.648,0,0,1,2.766.61l4.886,4.886a1.317,1.317,0,0,1-.931,2.248Z" fill="#fff"/>
      <path id="Path_17926" data-name="Path 17926" d="M2515.016,1164.679a5.231,5.231,0,0,1-3.724-1.543l-15.092-15.091a1.317,1.317,0,0,1,1.863-1.862l15.091,15.091a2.634,2.634,0,1,0,3.725-3.724l-16.051-16.051a1.317,1.317,0,0,1,1.862-1.863l16.051,16.051a5.267,5.267,0,0,1-3.725,8.992Z" fill="#fff"/>
      <path id="Path_17927" data-name="Path 17927" d="M2492.757,1145.01l-1.862-1.863,18.843-18.843,2.71-.9,5.56-7.148-2.081-2.081-7.148,5.56-.9,2.71-.22.22-18.623,18.623-1.862-1.862,18.4-18.4.959-2.877,9.613-7.477,5.369,5.369-7.477,9.613-2.877.959Z" fill="#fff"/>
      <path id="Path_17928" data-name="Path 17928" d="M2472.271,1165.173a5.265,5.265,0,0,1-3.724-8.989l13.75-13.751c.177-.528.57-1.709.83-2.493l.3-.9.947,0,1.859-.005h1.285c.82,0,1.127,0,1.517.391l3.73,3.73c.383.388.384.694.385,1.511,0,.351,0,.818,0,1.284,0,.931,0,1.86,0,1.86l0,.947-.9.3c-.784.26-1.965.652-2.493.829L2476,1163.633A5.251,5.251,0,0,1,2472.271,1165.173Zm13.057-23.505-.165.495c-.562,1.691-.562,1.691-.786,1.916l-13.968,13.967a2.634,2.634,0,0,0,3.725,3.725L2488.1,1147.8c.225-.225.225-.225,1.916-.787l.495-.164c0-.811,0-1.688,0-2.222l-2.965-2.965C2487.017,1141.664,2486.139,1141.666,2485.328,1141.668Z" fill="#fff"/>
    </g>
  </g>
</svg>
