<svg xmlns="http://www.w3.org/2000/svg" width="136.81" height="102.051" viewBox="0 0 136.81 102.051">
  <g id="Group_11917" data-name="Group 11917" transform="translate(-2830.595 -1088.233)">
    <path id="Path_17935" data-name="Path 17935" d="M2879.522,1171.856l-4.141-4.142c.12-.121.241-.251.367-.387a9.31,9.31,0,0,1,7.56-3.4h42.812c3.324-1.387,18.171-15.757,21.528-19.521,1.84-2.062,9.864-14.083,13.246-20.748a10.547,10.547,0,0,0-7.469-.806c-3.8.882-6.356,3.551-9.772,10.2a2.925,2.925,0,0,1-1.255,1.26l-12.754,6.622-2.7-5.2,11.933-6.2c3.477-6.584,7-10.948,13.222-12.394a17.184,17.184,0,0,1,8.749.18,11.411,11.411,0,0,1,5.979,3.856,2.928,2.928,0,0,1,.341,2.9c-2.855,6.678-12.846,21.644-15.15,24.226-1.187,1.331-6.336,6.562-11.537,11.4-10.832,10.078-12.784,10.078-14.076,10.078h-43.1a3.632,3.632,0,0,0-3.272,1.532C2879.861,1171.506,2879.691,1171.687,2879.522,1171.856Z" fill="#fff"/>
    <path id="Path_17936" data-name="Path 17936" d="M2920.549,1152.214h-26.357a2.928,2.928,0,0,1,0-5.857h26.357c4.046,0,5.857-2.207,5.857-4.393s-1.811-4.393-5.857-4.393h-17.571c-2.073,0-3.907-1.4-6.03-3.03-1.47-1.126-3.691-2.827-4.854-2.827h-14.643c-2.792,0-6.974,2.528-9.681,5.037-4.373,4.371-11.861,11.46-11.936,11.531a2.929,2.929,0,0,1-4.026-4.254c.075-.071,7.549-7.146,11.858-11.456.025-.025.05-.048.076-.072,3.289-3.064,8.854-6.643,13.709-6.643h14.643c3.149,0,5.947,2.143,8.415,4.034a18.553,18.553,0,0,0,2.641,1.823h17.4c7.69,0,11.714,5.157,11.714,10.25S2928.239,1152.214,2920.549,1152.214Z" fill="#fff"/>
    <path id="Path_17937" data-name="Path 17937" d="M2865.737,1190.284a2.924,2.924,0,0,1-2.071-.857l-32.213-32.214a2.929,2.929,0,0,1,0-4.142l14.642-14.642a2.93,2.93,0,0,1,4.142,0l32.214,32.213a2.93,2.93,0,0,1,0,4.142l-14.643,14.643A2.922,2.922,0,0,1,2865.737,1190.284Zm-28.072-35.142,28.072,28.072,10.5-10.5-28.072-28.072Z" fill="#fff"/>
    <rect id="Rectangle_2569" data-name="Rectangle 2569" width="5.857" height="8.283" transform="translate(2846.095 1157.213) rotate(-45)" fill="#fff"/>
    <g id="Group_11916" data-name="Group 11916">
      <path id="Path_17938" data-name="Path 17938" d="M2888.025,1131.143l-4-4.282,4.617-4.31c-.067-.739-.1-1.429-.1-2.1s.032-1.365.1-2.105l-4.617-4.309a2.931,2.931,0,0,1-.538-3.606l7.029-12.173a2.928,2.928,0,0,1,3.39-1.337l6.047,1.844a26.257,26.257,0,0,1,3.639-2.11l1.426-6.151a2.929,2.929,0,0,1,2.853-2.266h14.057a2.929,2.929,0,0,1,2.853,2.266l1.426,6.151a26.315,26.315,0,0,1,3.639,2.11l6.046-1.844a2.929,2.929,0,0,1,3.391,1.337l7.029,12.173a2.93,2.93,0,0,1-.538,3.6l-4.617,4.31c.067.741.1,1.43.1,2.105s-.032,1.364-.1,2.1l4.617,4.31-4,4.282-5.7-5.319a2.929,2.929,0,0,1-.9-2.542,18.206,18.206,0,0,0,0-5.671,2.931,2.931,0,0,1,.9-2.543l3.995-3.729-4.7-8.142-5.224,1.594a2.934,2.934,0,0,1-2.658-.493,20.441,20.441,0,0,0-4.908-2.847,2.932,2.932,0,0,1-1.753-2.052l-1.231-5.309h-9.4l-1.231,5.309a2.93,2.93,0,0,1-1.753,2.052,20.458,20.458,0,0,0-4.908,2.847,2.932,2.932,0,0,1-2.657.493l-5.225-1.594-4.7,8.142,3.995,3.729a2.928,2.928,0,0,1,.9,2.543,18.219,18.219,0,0,0,0,5.67,2.93,2.93,0,0,1-.9,2.544Z" fill="#fff"/>
      <path id="Path_17939" data-name="Path 17939" d="M2914.9,1132.16a11.714,11.714,0,1,1,11.714-11.714A11.728,11.728,0,0,1,2914.9,1132.16Zm0-17.571a5.857,5.857,0,1,0,5.857,5.857A5.864,5.864,0,0,0,2914.9,1114.589Z" fill="#fff"/>
    </g>
  </g>
</svg>
