<svg xmlns="http://www.w3.org/2000/svg" width="86.68" height="86.68" viewBox="0 0 86.68 86.68">
  <g id="Group_11954" data-name="Group 11954" transform="translate(-734.357 -2919.32)">
    <circle id="Ellipse_144" data-name="Ellipse 144" cx="43.34" cy="43.34" r="43.34" transform="translate(734.357 2919.32)" fill="#333"/>
    <g id="Group_11953" data-name="Group 11953">
      <g id="Group_11952" data-name="Group 11952">
        <path id="Path_17968" data-name="Path 17968" d="M768.94,2987.621c21.168,0,32.744-17.537,32.744-32.744q0-.749-.033-1.488a23.4,23.4,0,0,0,5.741-5.959,22.953,22.953,0,0,1-6.609,1.812,11.548,11.548,0,0,0,5.06-6.366,23.056,23.056,0,0,1-7.307,2.793,11.518,11.518,0,0,0-19.612,10.5,32.675,32.675,0,0,1-23.721-12.024,11.516,11.516,0,0,0,3.563,15.364,11.432,11.432,0,0,1-5.213-1.44c0,.048,0,.1,0,.147a11.512,11.512,0,0,0,9.233,11.282,11.48,11.48,0,0,1-5.2.2,11.522,11.522,0,0,0,10.752,7.993,23.257,23.257,0,0,1-17.039,4.767,32.58,32.58,0,0,0,17.641,5.17" fill="#fff"/>
      </g>
    </g>
  </g>
</svg>
