<svg xmlns="http://www.w3.org/2000/svg" width="48.402" height="48.402" viewBox="0 0 48.402 48.402">
  <g id="Group_11936" data-name="Group 11936" transform="translate(-1586.871 -64.787)">
    <g id="LWPOLYLINE">
      <g id="Group_11933" data-name="Group 11933">
        <path id="Path_17961" data-name="Path 17961" d="M1596.472,108.332l-.986-.83a24.2,24.2,0,1,1,31.173,0l-.986.83.1-1.284a14.737,14.737,0,0,0-7.436-14.029,9.468,9.468,0,0,1-14.537,0,14.732,14.732,0,0,0-7.436,14.028Zm21.575-16.69.405.213a15.808,15.808,0,0,1,8.448,13.995,23.126,23.126,0,1,0-31.655,0,15.808,15.808,0,0,1,8.448-13.995l.405-.213.275.366a8.387,8.387,0,0,0,13.4,0Z" fill="#1d2b4a"/>
      </g>
    </g>
    <g id="CIRCLE">
      <g id="Group_11934" data-name="Group 11934">
        <path id="Path_17962" data-name="Path 17962" d="M1611.072,93.395a9.462,9.462,0,1,1,9.463-9.462A9.473,9.473,0,0,1,1611.072,93.395Zm0-17.85a8.388,8.388,0,1,0,8.388,8.388A8.4,8.4,0,0,0,1611.072,75.545Z" fill="#1d2b4a"/>
      </g>
    </g>
    <g id="LWPOLYLINE-2" data-name="LWPOLYLINE">
      <g id="Group_11935" data-name="Group 11935">
        <path id="Path_17963" data-name="Path 17963" d="M1611.072,113.189a24.235,24.235,0,0,1-15.586-5.687l-.171-.144-.018-.224a15.808,15.808,0,0,1,8.4-15.279l.405-.213.275.366a8.387,8.387,0,0,0,13.4,0l.275-.366.405.213a15.81,15.81,0,0,1,8.4,15.279l-.018.224-.171.144A24.235,24.235,0,0,1,1611.072,113.189Zm-14.72-6.365a23.074,23.074,0,0,0,29.441,0,14.735,14.735,0,0,0-7.452-13.805,9.468,9.468,0,0,1-14.537,0A14.729,14.729,0,0,0,1596.352,106.824Z" fill="#1d2b4a"/>
      </g>
    </g>
  </g>
</svg>
