<svg xmlns="http://www.w3.org/2000/svg" width="88.055" height="88.055" viewBox="0 0 88.055 88.055">
  <g id="Group_11959" data-name="Group 11959" transform="translate(-1098.669 -2919.32)">
    <circle id="Ellipse_147" data-name="Ellipse 147" cx="44.028" cy="44.028" r="44.028" transform="translate(1098.669 2919.32)" fill="#333"/>
    <path id="Path_17974" data-name="Path 17974" d="M1176.463,2949.082a36.759,36.759,0,1,0,2.881,14.265A36.526,36.526,0,0,0,1176.463,2949.082Zm-44.08-16.84a28.883,28.883,0,0,0-3.659,5.7q-.852,1.71-1.573,3.6l-.547-.061a33.8,33.8,0,0,1-7.017-1.339A32.825,32.825,0,0,1,1132.383,2932.242Zm-15.5,10.936a9.825,9.825,0,0,0,1.483.64,33.855,33.855,0,0,0,6.248,1.319c.411.055.835.109,1.269.16a64.071,64.071,0,0,0-2.409,16.112h-13.493A32.608,32.608,0,0,1,1116.887,2943.178Zm.237,40.637a32.612,32.612,0,0,1-7.139-18.529h13.493a63.708,63.708,0,0,0,2.529,16.52q-.715.083-1.389.174a33.751,33.751,0,0,0-6.248,1.319A10.481,10.481,0,0,0,1117.124,2983.815Zm2.784,3.058a36.737,36.737,0,0,1,6.7-1.233c.231-.026.466-.052.7-.077q.657,1.664,1.416,3.192a28.869,28.869,0,0,0,3.659,5.7A32.811,32.811,0,0,1,1119.908,2986.873Zm20.85,8.967a9.619,9.619,0,0,1-3.543-1.991,21.3,21.3,0,0,1-5.02-6.824q-.438-.877-.838-1.808c2.9-.2,6.095-.317,9.4-.351Zm0-14.852c-3.86.038-7.535.19-10.81.442a58.989,58.989,0,0,1-2.591-16.144h13.4Zm0-19.579h-13.4a59.339,59.339,0,0,1,2.462-15.732c3.307.258,7.028.413,10.939.452Zm0-19.159c-3.372-.034-6.629-.158-9.573-.362q.477-1.146,1.01-2.218a21.306,21.306,0,0,1,5.02-6.824,9.619,9.619,0,0,1,3.543-1.991Zm25.049-2.113a33.8,33.8,0,0,1-7.017,1.339l-.547.061q-.722-1.883-1.574-3.6a28.831,28.831,0,0,0-3.658-5.7A32.826,32.826,0,0,1,1165.807,2940.137Zm-21.171-9.282a9.627,9.627,0,0,1,3.543,1.991,21.3,21.3,0,0,1,5.02,6.824q.534,1.07,1.01,2.218c-2.944.2-6.2.328-9.573.362Zm0,15.274c3.911-.039,7.632-.194,10.939-.452a59.334,59.334,0,0,1,2.462,15.732h-13.4Zm0,19.157h13.4a58.993,58.993,0,0,1-2.591,16.144c-3.275-.252-6.95-.4-10.81-.442Zm3.543,28.563a9.627,9.627,0,0,1-3.543,1.991v-10.974c3.306.034,6.5.154,9.4.351q-.4.93-.838,1.808A21.3,21.3,0,0,1,1148.179,2993.849Zm4.832.6a28.817,28.817,0,0,0,3.658-5.7q.761-1.525,1.417-3.192c.238.025.473.051.7.077a36.737,36.737,0,0,1,6.7,1.233A32.811,32.811,0,0,1,1153.011,2994.453Zm15.259-10.638a10.481,10.481,0,0,0-1.246-.516,33.769,33.769,0,0,0-6.248-1.319q-.673-.092-1.389-.174a63.7,63.7,0,0,0,2.529-16.52h13.493A32.613,32.613,0,0,1,1168.27,2983.815Zm-6.354-22.406a64.076,64.076,0,0,0-2.409-16.112c.434-.051.858-.105,1.269-.16a33.873,33.873,0,0,0,6.248-1.319,9.818,9.818,0,0,0,1.483-.64,32.609,32.609,0,0,1,6.9,18.231Z" fill="#fff"/>
  </g>
</svg>
