<svg xmlns="http://www.w3.org/2000/svg" width="86.681" height="86.681" viewBox="0 0 86.681 86.681">
  <g id="Group_11955" data-name="Group 11955" transform="translate(-856.356 -2919.32)">
    <circle id="Ellipse_145" data-name="Ellipse 145" cx="43.341" cy="43.341" r="43.341" transform="translate(856.356 2919.32)" fill="#333"/>
    <path id="Path_17969" data-name="Path 17969" d="M927.383,2948.751a7.236,7.236,0,0,0-5.109-5.109c-4.506-1.207-22.577-1.207-22.577-1.207s-18.071,0-22.577,1.207a7.236,7.236,0,0,0-5.109,5.109c-1.208,4.507-1.208,13.909-1.208,13.909s0,9.4,1.208,13.91a7.237,7.237,0,0,0,5.109,5.109c4.506,1.207,22.577,1.207,22.577,1.207s18.071,0,22.577-1.207a7.237,7.237,0,0,0,5.109-5.109c1.208-4.507,1.208-13.91,1.208-13.91S928.591,2953.258,927.383,2948.751Zm-33.465,22.578v-17.337l15.013,8.669Z" fill="#fff"/>
  </g>
</svg>
