<svg width="30" height="30" viewBox="0 0 30 30" fill="none" xmlns="http://www.w3.org/2000/svg">
<path d="M5.38392 10.8762L9.16196 19.8697L9.22365 20.0203L12.7087 27.6128C13.711 30.008 11.1512 30.9119 9.93299 28.8631C8.52972 26.498 5.5227 21.2857 5.5227 21.2857C3.39466 21.4966 1.26662 20.2915 0.372222 18.2427C-0.660958 15.7269 0.526428 12.8345 3.07083 11.8102L5.38392 10.8762Z" fill="#323336"/>
<path d="M16.2859 2.2443C16.3322 2.45521 16.3168 2.7113 16.2859 3.08791C16.2705 3.31388 16.2088 3.55491 16.1163 3.79594C15.4687 5.54342 12.9551 7.50181 9.30041 9.29448L6.60181 10.3791L10.4415 19.5082L13.1401 18.4235C17.0261 17.1883 20.2336 16.8568 21.9453 17.6553C22.1766 17.7607 22.3925 17.8963 22.5775 18.0469C22.8705 18.303 23.0556 18.4838 23.179 18.6646C23.7033 19.4178 24.5668 19.8547 25.3841 19.5233C26.2631 19.1617 26.664 18.1223 26.2631 17.1732L19.5397 1.18979C19.1388 0.240728 18.1056 -0.241335 17.2266 0.120212C16.4093 0.45163 16.1163 1.3555 16.2859 2.2443Z" fill="#323336"/>
<path d="M29.2398 13.1055C29.2398 13.1055 29.1627 13.1055 29.1318 13.1055L26.6337 12.759C26.2174 12.6988 25.9244 12.3221 25.9706 11.9154C26.0323 11.5087 26.4178 11.2074 26.8342 11.2676L29.3323 11.6141C29.7487 11.6744 30.0417 12.051 29.9954 12.4577C29.9337 12.8343 29.6099 13.1055 29.2398 13.1055Z" fill="#323336"/>
<path d="M25.2459 9.14376C24.9375 9.14376 24.6599 8.96298 24.5365 8.67676C24.3823 8.28508 24.5674 7.84821 24.9683 7.69757L27.2968 6.77864C27.6978 6.62799 28.145 6.80876 28.2992 7.20044C28.4534 7.59212 28.2683 8.02899 27.8674 8.17963L25.5389 9.09857C25.4464 9.12869 25.3538 9.15882 25.2459 9.15882V9.14376Z" fill="#323336"/>
<path d="M23.7494 5.52842C23.5798 5.52842 23.4102 5.48323 23.2714 5.36271C22.9321 5.10662 22.8704 4.63962 23.1326 4.3082L24.6746 2.36488C24.9368 2.03346 25.4148 1.9732 25.7541 2.2293C26.0933 2.4854 26.155 2.9524 25.8929 3.28381L24.3508 5.22713C24.1966 5.42297 23.9653 5.51336 23.7494 5.51336V5.52842Z" fill="#323336"/>
</svg>
