<svg width="20" height="25" viewBox="0 0 20 25" fill="none" xmlns="http://www.w3.org/2000/svg">
<circle cx="10" cy="13" r="10" fill="#DA6464"/>
<path d="M9.79248 17V11H11.2065V17H9.79248ZM10.5034 10.1484C10.2795 10.1484 10.0868 10.0742 9.92529 9.92578C9.76383 9.77474 9.68311 9.59375 9.68311 9.38281C9.68311 9.16927 9.76383 8.98828 9.92529 8.83984C10.0868 8.6888 10.2795 8.61328 10.5034 8.61328C10.73 8.61328 10.9227 8.6888 11.0815 8.83984C11.243 8.98828 11.3237 9.16927 11.3237 9.38281C11.3237 9.59375 11.243 9.77474 11.0815 9.92578C10.9227 10.0742 10.73 10.1484 10.5034 10.1484Z" fill="white"/>
</svg>
