<svg width="37" height="38" viewBox="0 0 37 38" fill="none" xmlns="http://www.w3.org/2000/svg">
<path d="M15.0324 13.6689L13.6452 17.0862H23.8335L22.4463 13.6689L32.7916 18.9971L22.4463 24.3216L23.8335 20.9043H13.6452L15.0214 24.3216L4.64697 18.9971L15.0324 13.6689Z" fill="#0564C8"/>
<path d="M35.1987 38H2.19034C0.982002 37.9963 0.00365057 37.0019 0 35.7737V2.22635C0.00365057 0.998145 0.982002 0.00371058 2.19034 0H35.1987C36.4071 0.00371058 37.3854 0.998145 37.3891 2.22635V35.7737C37.3854 37.0019 36.4071 37.9963 35.1987 38ZM18.5522 3.33952C10.134 3.41373 3.34757 10.4341 3.28551 18.9981C3.22345 27.718 10.1084 34.6494 18.6909 34.6568C27.1237 34.6605 33.9503 27.5325 34.0963 18.9981C34.2496 10.1744 27.2332 3.2616 18.5522 3.33952Z" fill="#0564C8"/>
</svg>
