<svg width="26" height="30" viewBox="0 0 26 30" fill="none" xmlns="http://www.w3.org/2000/svg">
<path d="M25.4707 23.2174C25.3891 24.7663 23.5631 25.1413 23.5631 25.1413H1.91089C1.91089 25.1413 0.0848018 24.7663 0.00328002 23.2174C-0.0782417 21.6522 1.37284 20.9837 2.90545 18.8315C4.43806 16.6793 3.36198 9.91304 5.15545 6.60326C6.96524 3.29348 11.4163 2.49456 11.4163 2.49456C11.4163 2.49456 11.4 1.28804 11.5305 0.766304C11.6609 0.26087 12.1663 0.0163043 12.737 0C13.3076 0.0163043 13.8131 0.26087 13.9435 0.766304C14.0739 1.28804 14.0576 2.49456 14.0576 2.49456C14.0576 2.49456 18.5087 3.29348 20.3185 6.60326C22.112 9.91304 21.0359 16.6793 22.5685 18.8315C24.1011 20.9837 25.5522 21.6522 25.4707 23.2174Z" fill="#323336"/>
<path d="M12.737 0.163043C13.2914 0.179348 13.6827 0.423913 13.7805 0.798913C13.9109 1.28804 13.8946 2.47826 13.8946 2.47826V2.6087L14.0251 2.6413C14.074 2.6413 18.4272 3.47283 20.1718 6.66848C21.0849 8.34783 21.2316 10.9076 21.3946 13.3696C21.5414 15.6685 21.6718 17.8207 22.4381 18.913C22.9925 19.6793 23.5142 20.25 23.987 20.7554C24.8186 21.6522 25.3729 22.2554 25.324 23.1848C25.2425 24.587 23.612 24.9457 23.5794 24.962H1.94355C1.94355 24.962 0.231594 24.6033 0.166377 23.1848C0.117464 22.2391 0.671812 21.6522 1.50333 20.7554C1.97616 20.25 2.4979 19.6793 3.05225 18.913C3.81855 17.837 3.94899 15.6685 4.09572 13.3696C4.24246 10.8913 4.40551 8.33152 5.31855 6.66848C7.06312 3.47283 11.4164 2.65761 11.4653 2.6413L11.5957 2.6087V2.47826C11.5957 2.47826 11.5794 1.28804 11.7099 0.798913C11.8077 0.407609 12.199 0.179348 12.7533 0.163043M12.7533 0C12.1827 0.0163043 11.6772 0.26087 11.5468 0.766304C11.4164 1.28804 11.4327 2.49456 11.4327 2.49456C11.4327 2.49456 6.9816 3.29348 5.17181 6.60326C3.37833 9.91304 4.45442 16.6793 2.92181 18.8315C1.3892 20.9837 -0.0618843 21.6522 0.0196374 23.2174C0.101159 24.7663 1.92725 25.1413 1.92725 25.1413H23.5794C23.5794 25.1413 25.4055 24.7663 25.487 23.2174C25.5686 21.6522 24.1175 20.9837 22.5849 18.8315C21.0522 16.6793 22.1283 9.91304 20.3349 6.60326C18.5251 3.29348 14.074 2.49456 14.074 2.49456C14.074 2.49456 14.0903 1.28804 13.9599 0.766304C13.8294 0.26087 13.324 0.0163043 12.7533 0Z" fill="#323336"/>
<path d="M8.6604 26.6417C8.77453 28.4677 10.5517 29.9188 12.7365 29.9188C14.9213 29.9188 16.6984 28.4677 16.8126 26.6417H8.6604Z" fill="#323336"/>
<path d="M12.737 30.0002C10.5359 30.0002 8.69348 28.5328 8.57935 26.6415V26.5599H16.8946V26.6415C16.7641 28.5165 14.938 30.0002 12.737 30.0002ZM8.74239 26.723C8.90543 28.4839 10.6337 29.8371 12.737 29.8371C14.8402 29.8371 16.5522 28.4839 16.7315 26.723H8.75869H8.74239Z" fill="#323336"/>
</svg>
