<svg width="27" height="25" viewBox="0 0 27 25" fill="none" xmlns="http://www.w3.org/2000/svg">
<path d="M1 7.71368C1 1.00012 7.73077 1.00012 13.5 1.00012C19.2692 1.00012 26 1.00012 26 7.71368C26 15.3863 19.2692 6.7546 19.2692 6.7546H7.73077C7.73077 6.7546 1 15.3863 1 7.71368ZM8.69231 9.63184C8.69231 9.63184 3.88462 14.4272 3.88462 23.0589H23.1154C23.1154 14.4272 18.3077 9.63184 18.3077 9.63184H8.69231Z" stroke="#5C5B5B" stroke-width="2" stroke-linecap="round" stroke-linejoin="round"/>
<path d="M13.4997 20.1817C15.6239 20.1817 17.3459 18.4642 17.3459 16.3454C17.3459 14.2267 15.6239 12.5091 13.4997 12.5091C11.3755 12.5091 9.65356 14.2267 9.65356 16.3454C9.65356 18.4642 11.3755 20.1817 13.4997 20.1817Z" stroke="#5C5B5B" stroke-width="2" stroke-linecap="round" stroke-linejoin="round"/>
</svg>
