<svg version="1.2" xmlns="http://www.w3.org/2000/svg" viewBox="0 0 177 57" width="177" height="57"><defs><clipPath clipPathUnits="userSpaceOnUse" id="cp1"><path d="m-53-1791h1400v1869h-1400z"/></clipPath></defs><style>.a{fill:#fff}</style><g clip-path="url(#cp1)"><path fill-rule="evenodd" class="a" d="m150.8 0h20.7c3.4 0 4.5 1.8 4.5 4.6 0 2.9-1.1 4.7-4.5 4.7h-5.1v26.1c0 3.6-2 5.1-5.2 5.1-3.3 0-5.3-1.5-5.3-5.1v-26.1h-5.1c-3.3 0-4.5-1.8-4.5-4.7 0-2.8 1.2-4.6 4.5-4.6zm-12.5 1.8c3 0 4.9 1.2 4.9 4.5v25.3h6.7c3.1 0 4.2 1.6 4.2 4.3 0 2.7-1.1 4.3-4.2 4.3h-12c-3.4 0-4.5-1.7-4.5-4.6v-29.3c0-3.3 1.8-4.5 4.9-4.5zm-36.6 8.3c0-3.1 1.7-4.1 4.5-4.1 2.8 0 4.5 1 4.5 4.2v15.7c0 4.9 2 7.3 5.5 7.3 3.6 0 5.5-2.4 5.5-7.3v-17.9c0-3.1 1.7-4.2 4.5-4.2 2.8 0 4.5 1.1 4.5 4.2v17.5c0 9.1-4 15.2-14.5 15.2-10.5 0-14.6-6.1-14.6-15.2 0 0 0.1-15.4 0.1-15.4zm-25.3 3.7c0-2.7 1.1-4.3 4.2-4.3h5.7c10.1 0 13.7 4.6 13.7 11 0 6.4-3.6 11-11.8 11h-3.2v4.9c0 3-1.6 4-4.3 4-2.7 0-4.3-1-4.3-4zm9.8 11.2c4.5 0 5.2-2.2 5.2-4.5 0-2.1-0.6-4.5-5.2-4.5h-1.4v9zm-23.7-12.9c3.5 0 4.8 1 6.3 5.3v0.1c0.3 0.8 5.6 16 6.3 18.5 0.8 2.9-1 4.4-3.8 4.4-2.2 0-3.7-0.7-4.5-3.4l-0.6-2.1h-8.3l-0.7 2.1c-0.9 2.6-2.1 3.4-4.3 3.4-2.8 0-4.4-1.4-3.6-4.4 0.4-1.2 1.8-5 3.2-8.9l0.2-0.7c1.7-4.5 3.4-9 3.4-9 1.7-4.3 2.8-5.3 6.4-5.3zm-34.7 5.8c2.8 0 3.9 1 5.1 4.3 0 0 4.6 12.7 5.2 14.7 0.6 2.3-0.7 3.5-3 3.5-1.8 0-3-0.6-3.5-2.7l-0.5-1.7h-6.6l-0.5 1.7c-0.8 2.1-1.7 2.7-3.5 2.7-2.2 0-3.5-1.1-2.8-3.5 0.3-0.9 1.3-3.9 2.4-7l0.2-0.7c1.3-3.6 2.5-7 2.5-7 1.3-3.4 2.2-4.3 5-4.3zm22.2-1.8c2.2 0 3 1.2 3 3.1 0 1.9-0.8 3-3 3h-2.9v14.9c0 2.5-1.3 3.3-3.5 3.3-2.3 0-3.6-0.8-3.6-3.3v-14.9h-3c-2.2 0-3-1.2-3-3.1 0-1.9 0.8-3 3-3 0 0 13 0 13 0zm-22.3 6.7l-2.1 8.1h4.4zm34.6-4.5l-3 10.2h5.6c0 0-2.6-10.2-2.6-10.2zm-52.8 17.2c1.5 0 2.2-0.6 2.8-1.1 1.5-1.1 2.6-0.7 3.5 0.2 1.3 1.3 0.9 2.8-0.1 3.7-1.4 1.3-3.5 2.4-6.4 2.4-5.4 0-9.3-4.1-9.3-9.9 0-5.9 4.4-9.9 9.6-9.9 2.8 0 4.9 0.9 6.3 2.2 1 0.9 1.2 2.2 0.3 3.4-0.9 1.2-2.3 1.6-3.5 0.7-0.7-0.5-1.4-1.3-3-1.3-2.4 0-4 2.1-4 4.9 0 2.7 1.5 4.7 3.8 4.7zm44.1 14.2c0-2.5 1.7-4.1 3.9-4.1 1.4 0 2.4 0.6 2.4 1.3 0 0.4-0.4 0.8-0.8 0.8-0.4 0-0.9-0.3-1.6-0.3-1.1 0-1.9 0.9-1.9 2.3 0 1.5 0.8 2.4 2 2.4 0.7 0 1.2-0.4 1.7-0.4 0.3 0 0.7 0.3 0.7 0.7 0 0.7-1 1.4-2.5 1.4-2.3 0-3.9-1.6-3.9-4.1zm9.6 2.5c0.8 0 1.4-0.6 1.8-0.6 0.4 0 0.7 0.3 0.7 0.7 0 0.6-1.1 1.4-2.6 1.4-1.8 0-3.1-1.3-3.1-3 0-1.8 1.3-3.1 3-3.1 1.7 0 2.9 1.3 2.9 2.8 0 0.6-0.3 0.7-0.9 0.7h-3.2c0.1 0.7 0.6 1.1 1.4 1.1zm0.9-2.2c0-0.6-0.5-1-1.1-1-0.6 0-1.1 0.4-1.2 1zm3.2-4.7q0.9 0 0.9 1.2v5.9c0 0.8-0.3 1.2-0.9 1.2q-0.9 0-0.9-1.2v-5.9q0-1.2 0.9-1.2zm2.6 0q0.8 0 0.8 1.2v5.9c0 0.8-0.2 1.2-0.8 1.2q-0.9 0-0.9-1.2v-5.9q0-1.2 0.9-1.2zm7.6 8.4c-1.5 0-2.7-1.2-2.7-3 0-1.8 1.2-3.1 2.7-3.1 0.6 0 1.1 0.2 1.4 0.7q0.3-0.6 0.9-0.6c0.6 0 0.8 0.4 0.8 1.2v3.5q0.1 1.2-0.8 1.2c-0.4 0-0.7-0.2-0.9-0.6-0.3 0.4-0.8 0.7-1.4 0.7zm0.2-1.7c0.7 0 1.2-0.5 1.2-1.4 0-0.8-0.5-1.3-1.2-1.3-0.6 0-1.1 0.5-1.1 1.3 0 0.9 0.5 1.4 1.1 1.4zm3.6-3.1q0-1.2 0.9-1.2 0.5 0 0.8 0.6c0.4-0.5 0.9-0.6 1.6-0.6 1.3 0 2.1 0.7 2.1 2.2v2.5q0 1.2-0.9 1.2-0.9 0-0.8-1.2v-2c0-0.8-0.3-1.3-1-1.3-0.7 0-0.9 0.5-0.9 1.3v2q0 1.2-0.9 1.2-0.9 0-0.9-1.2zm8.6 4.7c-1.5 0-2.8-1.3-2.8-3.1 0-1.7 1.3-3 2.8-3q0.7 0 1.3 0.5v-1.5q0-1.3 0.9-1.3 0.9 0 0.9 1.3v5.8q0 1.3-0.9 1.3-0.5-0.1-0.8-0.6-0.6 0.6-1.4 0.6zm0.2-1.6c0.7 0 1.2-0.6 1.2-1.4 0-0.9-0.5-1.5-1.2-1.5-0.7 0-1.2 0.6-1.2 1.5 0 0.8 0.5 1.4 1.2 1.4zm11.9-1.5c-0.9 0-1.3-0.3-1.3-0.8 0-0.6 0.4-0.9 1.3-0.9h1.3c0.9 0 1.3 0.4 1.3 1.2 0 2.2-1.5 3.7-3.7 3.7-2.2 0-3.8-1.6-3.8-4.1 0-2.5 1.5-4 4-4 1.7 0 2.9 0.8 2.9 1.6 0 0.4-0.3 0.8-0.8 0.8-0.5 0-1.1-0.8-2.2-0.8-1.2 0-2 0.9-2 2.4 0 1.5 0.8 2.4 2 2.4 1 0 1.6-0.6 1.6-1.5 0 0-0.6 0-0.6 0zm6.1 1.6c0.9 0 1.5-0.6 1.9-0.6 0.4 0 0.7 0.3 0.7 0.7 0 0.7-1.1 1.4-2.6 1.4-1.8 0-3.1-1.3-3.1-3 0-1.7 1.3-3 3-3 1.6 0 2.8 1.3 2.8 2.8 0 0.6-0.2 0.7-0.8 0.7h-3.2c0.1 0.6 0.6 1 1.3 1zm1-2.1c0-0.6-0.5-1.1-1.1-1.1-0.6 0-1.1 0.4-1.2 1.1zm2.2-1.1q0-1.3 0.9-1.3 0.5 0 0.9 0.6c0.3-0.4 0.8-0.6 1.5-0.6 1.4 0 2.2 0.8 2.2 2.3v2.4q0 1.3-0.9 1.3-0.9 0-0.9-1.3v-1.9c0-0.9-0.2-1.3-1-1.3-0.6 0-0.9 0.4-0.9 1.3v1.9q0 1.3-0.9 1.3-0.9 0-0.9-1.3c0 0 0-3.4 0-3.4zm9.2 3.2c0.9 0 1.4-0.6 1.8-0.6 0.5 0 0.7 0.3 0.7 0.7 0 0.7-1.1 1.4-2.6 1.4-1.7 0-3.1-1.3-3.1-3 0-1.7 1.3-3 3-3 1.7 0 2.9 1.3 2.9 2.8 0 0.6-0.3 0.7-0.9 0.7h-3.2c0.1 0.6 0.6 1 1.4 1zm0.9-2.1c0-0.6-0.5-1.1-1.1-1.1-0.6 0-1.1 0.4-1.2 1.1zm6.1-2.6q-1.3 0-1.3-0.8 0-0.8 1.3-0.8h3.2q1.2 0 1.2 0.8 0 0.8-1.2 0.8h-0.7v4.9q0 1.3-0.9 1.3-0.9 0-0.9-1.3v-4.9zm8.1 0.2c1.4 0 2.2 0.8 2.2 2.3v2.4q0 1.3-0.9 1.3-0.9 0-0.9-1.3v-1.9c0-0.9-0.2-1.3-0.9-1.3-0.7 0-1 0.4-1 1.3v1.9q0 1.3-0.9 1.3-0.9 0-0.8-1.3v-5.8q-0.1-1.3 0.8-1.3 0.9 0 0.9 1.3v1.6c0.4-0.4 0.9-0.5 1.5-0.5zm5.9 4.5c0.9 0 1.4-0.6 1.8-0.6 0.5 0 0.7 0.3 0.7 0.7 0 0.7-1.1 1.4-2.6 1.4-1.7 0-3.1-1.3-3.1-3 0-1.7 1.3-3 3-3 1.7 0 2.9 1.3 2.9 2.8 0 0.6-0.3 0.7-0.9 0.7h-3.2c0.1 0.6 0.6 1 1.4 1zm1-2.1c-0.1-0.6-0.6-1.1-1.2-1.1-0.6 0-1.1 0.4-1.2 1.1zm8.7-2.4c0.6 0 1 0.2 1.4 0.6q0.3-0.5 0.8-0.6c0.6 0 0.9 0.4 0.9 1.3v3.4q0 1.3-0.9 1.2c-0.4 0-0.6-0.1-0.8-0.5-0.4 0.4-0.9 0.6-1.5 0.6-1.4 0-2.7-1.2-2.7-3 0-1.7 1.3-3 2.8-3zm-3.5 0c0.5 0 0.9 0.4 0.9 0.9 0 0.6-0.8 0.7-1.5 1-0.5 0.2-0.6 0.4-0.6 1v1.8q0.1 1.3-0.8 1.3-0.9 0-0.9-1.3v-3.4q0-1.3 0.9-1.3 0.5 0 0.8 0.6 0.6-0.6 1.2-0.6zm3.7 1.6c-0.7 0-1.2 0.5-1.2 1.4 0 0.8 0.5 1.4 1.2 1.4 0.6 0 1.1-0.6 1.1-1.4 0-0.9-0.5-1.4-1.1-1.4zm4.4 6.7q-0.9 0-0.9-1.3v-5.7q0-1.3 0.9-1.3 0.5 0 0.9 0.6 0.5-0.6 1.4-0.6c1.5 0 2.7 1.2 2.7 3 0 1.7-1.2 3.1-2.7 3.1q-0.8 0-1.4-0.5v1.4q0 1.3-0.9 1.3zm2-3.8c0.7 0 1.2-0.6 1.2-1.5 0-0.8-0.5-1.4-1.2-1.4-0.6 0-1.1 0.5-1.1 1.4 0 0.9 0.5 1.5 1.1 1.5zm7.6-4.5c0.6 0 0.9 0.4 0.9 0.9q0 0.2-0.2 0.5l-2.6 6.2c-0.2 0.4-0.4 0.7-0.8 0.7-0.6 0-0.9-0.3-0.9-0.8q0-0.3 0.2-0.6l0.7-1.5-1.8-4q-0.1-0.3-0.1-0.5c0-0.5 0.4-0.9 0.9-0.9 0.5 0 0.7 0.3 0.9 0.9l1 2.5 1.1-2.7c0.1-0.4 0.4-0.7 0.7-0.7z"/></g></svg>