<svg version="1.2" xmlns="http://www.w3.org/2000/svg" viewBox="0 0 149 49" width="149" height="49"><defs><clipPath clipPathUnits="userSpaceOnUse" id="cp1"><path d="m-269-1791h1400v1869h-1400z"/></clipPath></defs><style>.a{fill:#211f5e}.b{fill:#fff}.c{fill:#8a199b}.d{fill:#be2bbb}</style><g clip-path="url(#cp1)"><path fill-rule="evenodd" class="a" d="m102.4 21.1c0-0.2 0.2-2-1.2-2.1-0.6 0-1.8 0.4-1.8 2.2v3.2h-1.8v-6.9h1.4l0.3 0.8h0.2c0.3-0.3 0.9-0.9 2.1-0.9 1.7 0 2.6 1.4 2.6 3.3v3.7h-1.8zm9.9-0.4v3.8h-1.8v-3.4c0-0.2 0.1-2-1.2-2-0.6-0.1-1.8 0.3-1.8 2.1v3.3h-1.8v-7h1.4l0.2 0.9h0.3c0.3-0.4 0.9-0.9 2.1-0.9 1.7 0 2.6 1.3 2.6 3.2zm8.2 0.3c0 2.2-1.7 3.5-3.5 3.5-1.9 0-3.5-1.3-3.5-3.5 0-2.2 1.7-3.5 3.5-3.5 1.9 0 3.5 1.3 3.5 3.5zm-1.8 0c0-1.1-0.6-1.9-1.7-1.9-1 0-1.7 0.8-1.7 1.9 0 1.1 0.7 1.9 1.7 1.9 1.1 0 1.7-0.8 1.7-1.9zm7.5-3.5h1.8l-2.2 7h-2.7l-2.2-7h1.8l1.6 5.1h0.3zm9.1 5.6v1.4h-0.4c-0.8 0-1.3-0.3-1.6-0.9-0.4 0.5-1.1 0.9-2.1 0.9-1.6 0-2.6-0.8-2.6-2 0-2.2 2.9-2.4 4.3-2.4-0.1-0.8-0.5-1.1-1.2-1.1-1 0-1.1 0.6-1.1 0.6h-1.7c0.2-1.3 1.2-2.1 2.8-2.1 1.7 0 2.8 0.8 2.8 2.8v1.8c0 0.8 0.3 1 0.8 1zm-2.5-1.7c-1.2 0.2-2.5 0.3-2.5 1 0 1.1 2.4 1 2.5-0.8zm7.4 1.3l0.7 1.2c0 0-0.6 0.6-1.7 0.6-1.3 0-2.4-0.9-2.4-2.3v-3.2h-1.4v-1.4h0.7c0.4 0 0.8-0.3 0.8-0.8v-1.4h1.6v2.1h1.8v1.5h-1.8v3.1c0 0.4 0.4 0.8 0.9 0.8 0.4 0 0.8-0.2 0.8-0.2zm5.9-0.4h1.7c-0.5 1.4-1.7 2.2-3.1 2.2-1.8 0-3.5-1.5-3.5-3.6 0-2.2 1.6-3.5 3.5-3.5 1.7 0 3.5 1.2 3.3 4.1h-5c0.2 1 1 1.4 1.8 1.4 0.9 0 1.3-0.6 1.3-0.6zm-3-2.2h3.1c-0.2-0.9-0.8-1.2-1.5-1.2-0.7 0-1.3 0.4-1.6 1.2zm-43.4 8.8h1.9v5.5c0 3-1.7 4.3-3.8 4.3-2.2 0-3.9-1.3-3.9-4.3v-5.5h1.9v5.4c0 1.6 0.6 2.5 2 2.5 1.3 0 1.9-0.9 1.9-2.5zm7.8 4.7l3.4 5h-2.2l-2.8-4.1h-0.8v4.1h-1.8v-9.7h1.8v3.8h0.8l2.4-3.8h2.1zm-13.4-18.9h1.9v9.7h-1.9zm-94-9.4h42.3v42.7h-42.3z"/><path fill-rule="evenodd" class="b" d="m37.7 11.1l-7.1 7.2 7.1 7.3v4.4h-5.8v9.9h5.8v3.4h-21.4l-4.5-6.2h-2.2v6.2h-4.9v-16.6h7.2c-3.8-0.4-7.2-2.9-7.2-7.1v-9.6h4.9v9.5c0 2 1.5 3.2 3.5 3.2 1.9 0 3.4-1.2 3.4-3.2v-9.5h9.6v7.2l6.6-7.2h5c0 0 0 1.1 0 1.1zm-23.6 15.6c3.6 0 6 0.8 7.1 2.6v-7.7c-0.9 3-3.9 4.7-7.1 5.1zm-4.5 7.1h4.5c1.9 0 2.6-0.8 2.6-1.9 0-1.1-0.7-1.9-2.6-1.9h-4.5c0 0 0 3.8 0 3.8zm17.4-3.8h-5.5q0.3 0.9 0.3 1.9c0 2.8-1.6 4.4-4.7 5l4.1 5.4v-2.4h5.8c0 0 0-9.9 0-9.9zm-0.9-10.5v7.2h6.6z"/><path class="c" d="m42.3 48h27.2v-7.1h-27.2zm20.8-32.3h21.6v-10.3h-21.6z"/><path class="d" d="m63.1 15.7v-15.7h-20.8v40.9h27.2v7.1h15.2v-32.3z"/></g></svg>