<svg version="1.2" xmlns="http://www.w3.org/2000/svg" viewBox="0 0 17 20" width="17" height="20"><defs><clipPath clipPathUnits="userSpaceOnUse" id="cp1"><path d="m-1295-10h1400v1869h-1400z"/></clipPath></defs><style>.a{fill:#fff;stroke:#fff;stroke-width:.3}</style><g clip-path="url(#cp1)"><path fill-rule="evenodd" class="a" d="m10.1 2c0.1 0.1 0.1 0.3 0.1 0.8v0.6l0.3 0.1q1 0.4 1.7 1.1 1 0.9 1.4 2.1c0.2 0.7 0.2 0.7 0.2 2.6 0 1.8 0.1 2 0.2 2.6 0.3 0.9 0.7 1.6 1.4 2.3 0.5 0.5 0.6 0.6 0.6 1 0 0.3 0 0.4-0.1 0.5q-0.2 0.4-0.5 0.5l-0.2 0.1h-2-1.9l-0.1 0.1c-0.1 0.6-0.3 0.9-0.7 1.3q-0.8 0.9-1.9 0.8c-0.7 0-1.3-0.3-1.8-0.8q-0.4-0.5-0.6-1.3v-0.1h-2-2l-0.2-0.1q-0.3-0.1-0.5-0.5c0-0.1-0.1-0.2-0.1-0.5 0-0.4 0.1-0.5 0.6-1 0.5-0.5 0.8-0.9 1-1.4 0.2-0.4 0.3-0.6 0.4-0.9 0.2-0.6 0.2-0.8 0.2-2.6 0.1-1.9 0.1-1.9 0.3-2.6q0.4-1.2 1.3-2.1 0.8-0.7 1.7-1.1l0.3-0.1 0.1-0.6c0-0.5 0-0.7 0-0.8 0.2-0.5 0.6-0.8 1.1-1 0.7-0.1 1.4 0.3 1.7 1zm-2 0.2c-0.1 0.1-0.1 0.2-0.1 0.5v0.5h1.4v-0.5c0-0.5 0-0.5-0.1-0.6 0-0.1-0.1-0.2-0.2-0.3-0.4-0.2-0.9 0-1 0.4zm0.2 1.7c-0.6 0.1-1.2 0.3-1.7 0.6-1 0.5-1.7 1.4-2 2.4-0.2 0.6-0.2 0.7-0.3 2.5 0 1.9 0 2.1-0.2 2.7-0.3 1-0.9 2-1.6 2.7-0.3 0.3-0.4 0.4-0.3 0.6 0.1 0.2-0.3 0.2 6.5 0.2 6.8 0 6.4 0 6.5-0.2 0.2-0.2 0.1-0.3-0.2-0.6-0.8-0.7-1.4-1.7-1.7-2.7-0.2-0.6-0.2-0.8-0.2-2.7 0-1.8 0-1.9-0.2-2.5-0.5-1.5-1.8-2.6-3.4-2.9-0.3-0.1-0.9-0.1-1.2-0.1zm2.2 12.4h-3.6l0.1 0.1c0 0.2 0.2 0.6 0.4 0.8q0.5 0.6 1.3 0.6 0.8 0 1.4-0.6c0.1-0.2 0.3-0.6 0.4-0.8z"/></g></svg>