<svg version="1.2" xmlns="http://www.w3.org/2000/svg" viewBox="0 0 30 25" width="30" height="25"><defs><clipPath clipPathUnits="userSpaceOnUse" id="cp1"><path d="m-463-1802h1400v1869h-1400z"/></clipPath></defs><style>.a{fill:#fff}</style><g clip-path="url(#cp1)"><path class="a" d="m26.2 6.7q0 0.4 0 0.8c0 7.9-6 17-17 17-3.4 0-6.5-1-9.2-2.7q0.7 0.1 1.5 0.1c2.8 0 5.3-0.9 7.4-2.6-2.6 0-4.8-1.7-5.6-4.1q0.6 0.1 1.1 0.1 0.9 0 1.6-0.2c-2.7-0.6-4.8-3-4.8-5.9v-0.1c0.8 0.5 1.7 0.8 2.7 0.8-1.6-1.1-2.6-2.9-2.6-5 0-1.1 0.3-2.1 0.8-3 2.9 3.6 7.3 6 12.3 6.3q-0.1-0.7-0.1-1.4c0-3.3 2.6-6 5.9-6 1.8 0 3.3 0.7 4.4 1.9 1.4-0.3 2.7-0.8 3.8-1.4-0.4 1.3-1.4 2.5-2.6 3.3 1.2-0.2 2.3-0.5 3.4-1-0.8 1.2-1.8 2.3-3 3.1z"/></g></svg>