<svg xmlns="http://www.w3.org/2000/svg" width="24" height="24">
    <g data-name="Group 25">
        <path data-name="Icon ionic-ios-call" d="M23.912 20.162a16.8 16.8 0 0 0-3.512-2.348c-1.052-.505-1.437-.495-2.182.042-.62.448-1.02.864-1.734.708A10.343 10.343 0 0 1 13 15.986a10.268 10.268 0 0 1-2.572-3.486c-.151-.718.266-1.114.708-1.734.536-.745.552-1.13.042-2.182a16.467 16.467 0 0 0-2.349-3.505c-.765-.765-.937-.6-1.359-.448a7.733 7.733 0 0 0-1.244.661A3.754 3.754 0 0 0 4.732 6.87c-.3.64-.64 1.833 1.109 4.946a27.6 27.6 0 0 0 4.852 6.472l.005.005.005.005a27.707 27.707 0 0 0 6.472 4.852c3.113 1.749 4.306 1.406 4.946 1.109a3.69 3.69 0 0 0 1.579-1.494 7.733 7.733 0 0 0 .661-1.244c.15-.421.322-.594-.449-1.359z" transform="translate(-2.49 -2.502)" style="fill:#fff"/>
        <path data-name="Rectangle 19" style="fill:none" d="M0 0h24v24H0z"/>
    </g>
</svg>
