<svg xmlns="http://www.w3.org/2000/svg" width="42.963" height="40.05" viewBox="0 0 42.963 40.05"><defs><style>.a{fill:#fff;}</style></defs><g transform="translate(0.006 0.006)"><g transform="translate(-0.006 -0.006)"><path class="a" d="M42.219,34.682c-.88,2.468-4.355,4.522-7.123,5.122-1.9.4-4.375.727-12.713-2.735C11.71,32.654,4.84,21.815,4.307,21.108S0,15.339,0,10.136a11.612,11.612,0,0,1,3.708-8.8A5.289,5.289,0,0,1,7.422,0a11.451,11.451,0,0,1,1.214.04c1.067.047,1.6.107,2.308,1.794.874,2.108,3.008,7.337,3.262,7.85a2.174,2.174,0,0,1,.153,1.968,6.216,6.216,0,0,1-1.174,1.687c-.534.62-1.047,1.094-1.581,1.754s-1.041,1.194-.427,2.261a32.329,32.329,0,0,0,5.89,7.337,26.68,26.68,0,0,0,8.511,5.249,2.288,2.288,0,0,0,2.561-.4,43.688,43.688,0,0,0,2.835-3.762,2.034,2.034,0,0,1,2.608-.787c.974.34,6.163,2.9,7.23,3.435s1.768.787,2,1.241S43.092,32.174,42.219,34.682Z" transform="translate(0.006 0.006)"/></g></g></svg>