<svg xmlns="http://www.w3.org/2000/svg" width="74.355" height="40.57" viewBox="0 0 74.355 40.57"><defs><style>.a{fill:#fff;}</style></defs><g transform="translate(0.01)"><g transform="translate(-0.01)"><path class="a" d="M58.444,10.047H39.924A13.4,13.4,0,0,0,26.7,21.434H20.761l-7.3,6.256a.911.911,0,0,1-1.487-.884l1.159-5.358H10.714A10.724,10.724,0,1,1,10.714,0h37.06a10.717,10.717,0,0,1,10.67,10.047Z" transform="translate(0.01 0)"/><path class="a" d="M88.708,29.657A10.717,10.717,0,0,1,77.991,40.373H75.56l1.152,5.358a.918.918,0,0,1-.9,1.112.884.884,0,0,1-.583-.221l-7.294-6.269h-13.6A10.717,10.717,0,0,1,43.61,29.636a10.971,10.971,0,0,1,.188-2.009A10.717,10.717,0,0,1,54.327,19h23.7A10.717,10.717,0,0,1,88.748,29.717Z" transform="translate(-14.393 -6.274)"/></g></g></svg>