<svg xmlns="http://www.w3.org/2000/svg" width="76" height="76" viewBox="0 0 76 76"><defs><style>.a{fill:#fff;stroke:#eb671b;}.b{fill:#eb671b;}</style></defs><g transform="translate(0.5 0.5)"><circle class="a" cx="37.5" cy="37.5" r="37.5" transform="translate(0 0)"/><path class="b" d="M16.8,47a5.6,5.6,0,0,1,3.914,1.428l-.74,1.111a4.745,4.745,0,0,0-3.121-1.164A3.934,3.934,0,0,0,12.886,52.5a4.024,4.024,0,0,0,3.967,4.231A4.782,4.782,0,0,0,20.185,55.3l.793,1.058A5.624,5.624,0,0,1,16.8,58.051,5.53,5.53,0,0,1,16.588,47Z" transform="translate(-5.323 -22.138)"/><path class="b" d="M34.4,47a5.419,5.419,0,0,1,5.5,5.289v.159a5.5,5.5,0,0,1-11,.317v-.317A5.4,5.4,0,0,1,34.294,47Zm0,9.732A4.093,4.093,0,0,0,38.367,52.5a3.967,3.967,0,1,0-7.934,0,4.066,4.066,0,0,0,3.914,4.178c.053,0,.053,0,.053.053Z" transform="translate(-13.614 -22.14)"/><path class="b" d="M82.5,47.3h6.241v1.322H84.034v3.332h3.861v1.322H84.034v3.438h4.972v1.322H82.5Z" transform="translate(-38.865 -22.282)"/><path class="b" d="M100.3,47a5.6,5.6,0,0,1,3.914,1.428l-.74,1.111a4.745,4.745,0,0,0-3.121-1.164A3.934,3.934,0,0,0,96.386,52.5a4.024,4.024,0,0,0,3.967,4.231,4.688,4.688,0,0,0,3.332-1.428l.793,1.058a5.624,5.624,0,0,1-4.178,1.693,5.423,5.423,0,0,1-5.5-5.606A5.328,5.328,0,0,1,100.035,47Z" transform="translate(-44.658 -22.138)"/><path class="b" d="M117.2,48.622h-3.7V47.3h8.886v1.322h-3.65v9.415h-1.481Z" transform="translate(-53.468 -22.282)"/><path class="b" d="M64.2,41.9v8.674l-3.755-5.818H57.8v5.818l-3.755-5.818H51.4V58.349h2.645V49.622L57.8,55.44v.053h2.645V49.622L64.2,55.44v.053h2.645V41.9Z" transform="translate(-24.214 -19.739)"/><path class="b" d="M43.4,89.937V79.2H47a3.07,3.07,0,0,1,3.332,3.173A3.11,3.11,0,0,1,47,85.6h-2.75v4.39Zm3.544-5.183a2.382,2.382,0,1,0,0-4.76h-2.7v4.76Z" transform="translate(-20.445 -37.31)"/><path class="b" d="M43.6,79.4h3.491a2.986,2.986,0,0,1,3.226,3.068,3.027,3.027,0,0,1-3.226,3.121h-2.8v4.39h-.635V79.4Zm3.438,5.554a2.488,2.488,0,1,0,0-4.972h-2.8v4.972Z" transform="translate(-20.539 -37.404)"/><path class="b" d="M65.888,89.925,63.4,85.271H60.546v4.654H59.7V79.188h3.173a4.133,4.133,0,0,1,1.957.317,2.807,2.807,0,0,1,1.534,2.645A2.971,2.971,0,0,1,64.3,85.112l.159.317,2.433,4.549ZM63.3,84.477a2.1,2.1,0,0,0,2.169-2.327A2.041,2.041,0,0,0,64.3,80.193a3.358,3.358,0,0,0-1.428-.212H60.546v4.443H63.3Z" transform="translate(-28.124 -37.298)"/><path class="b" d="M59.8,79.388h3.121a3.921,3.921,0,0,1,1.9.317,2.654,2.654,0,0,1,1.428,2.539,2.76,2.76,0,0,1-2.116,2.909v.053c.106.106.159.264.264.37l2.38,4.39h-.793L63.5,85.312H60.435v4.654H59.8Zm3.544,5.289a2.238,2.238,0,0,0,2.274-2.433A2.151,2.151,0,0,0,64.4,80.182a3.479,3.479,0,0,0-1.481-.212H60.435v4.654Z" transform="translate(-28.171 -37.392)"/><path class="b" d="M80.745,89.863A5.464,5.464,0,0,1,75.3,84.309V84.2a5.45,5.45,0,1,1,10.9-.317V84.2A5.624,5.624,0,0,1,80.745,89.863Zm0-10.314A4.548,4.548,0,0,0,76.2,84.1V84.2a4.556,4.556,0,0,0,9.1.529V84.2a4.551,4.551,0,0,0-4.443-4.654Z" transform="translate(-35.47 -37.024)"/><path class="b" d="M80.841,79a5.327,5.327,0,0,1,5.342,5.342v.053a5.344,5.344,0,1,1-10.684.317v-.317A5.327,5.327,0,0,1,80.788,79Zm0,10.314A4.742,4.742,0,0,0,85.5,84.448v-.053a4.657,4.657,0,0,0-9.309-.317v.317a4.742,4.742,0,0,0,4.6,4.919Z" transform="translate(-35.566 -37.216)"/><path class="b" d="M105.4,82.049a2.75,2.75,0,1,1-2.75-2.75h0a2.709,2.709,0,0,1,2.75,2.645Zm-.37,0a2.384,2.384,0,0,0-2.274-2.38h-.106a2.407,2.407,0,1,0,2.38,2.433v-.053Zm-1.64.476.688,1.111h-.529l-.635-1h-.846v1h-.529V80.515h1.269c.793,0,1.269.423,1.269,1.058A1.016,1.016,0,0,1,103.391,82.525Zm.159-.952q0-.635-.793-.635h-.688v1.217h.688C103.232,82.155,103.55,81.943,103.55,81.573Z" transform="translate(-47.062 -37.356)"/></g></svg>
