<svg xmlns="http://www.w3.org/2000/svg" width="76" height="76" viewBox="0 0 76 76"><defs><style>.a{fill:#fff;stroke:#51c1eb;}.b{fill:#51c1eb;}</style></defs><g transform="translate(0.5 0.5)"><circle class="a" cx="37.5" cy="37.5" r="37.5" transform="translate(0 0)"/><path class="b" d="M16.9,46.9a5.6,5.6,0,0,1,3.914,1.428l-.74,1.111a4.745,4.745,0,0,0-3.121-1.164A3.9,3.9,0,0,0,12.986,52.4a4.024,4.024,0,0,0,3.967,4.231A4.688,4.688,0,0,0,20.285,55.2l.793,1.058A5.624,5.624,0,0,1,16.9,57.951a5.423,5.423,0,0,1-5.5-5.606A5.328,5.328,0,0,1,16.635,46.9Z" transform="translate(-5.37 -22.091)"/><path class="b" d="M34.5,46.9A5.419,5.419,0,0,1,40,52.188v.159a5.546,5.546,0,0,1-5.342,5.712A5.433,5.433,0,0,1,29,52.717V52.4a5.362,5.362,0,0,1,5.395-5.448C34.394,46.9,34.447,46.9,34.5,46.9Zm0,9.732A4.093,4.093,0,0,0,38.467,52.4a3.967,3.967,0,1,0-7.934,0h0a4.075,4.075,0,0,0,3.914,4.231Z" transform="translate(-13.661 -22.093)"/><path class="b" d="M82.5,47.2h6.241v1.322H84.034v3.332h3.861v1.322H84.034v3.438h4.972v1.322H82.5Z" transform="translate(-38.865 -22.235)"/><path class="b" d="M100.3,46.9a5.6,5.6,0,0,1,3.914,1.428l-.74,1.111a4.745,4.745,0,0,0-3.121-1.164A3.934,3.934,0,0,0,96.386,52.4a4.024,4.024,0,0,0,3.967,4.231,4.782,4.782,0,0,0,3.332-1.428l.793,1.058a5.624,5.624,0,0,1-4.178,1.693,5.423,5.423,0,0,1-5.5-5.606,5.363,5.363,0,0,1,5.236-5.448Z" transform="translate(-44.658 -22.091)"/><path class="b" d="M117.3,48.522h-3.7V47.2h8.886v1.322h-3.7v9.415H117.3Z" transform="translate(-53.515 -22.235)"/><path class="b" d="M64.2,41.8v8.674l-3.755-5.818H57.8v5.818l-3.755-5.818H51.4V58.3h2.645V49.575L57.8,55.393v.053h2.645V49.575L64.2,55.393v.053h2.645V41.8Z" transform="translate(-24.214 -19.691)"/><path class="b" d="M100.354,82.049a2.777,2.777,0,1,1-2.8-2.75H97.6a2.709,2.709,0,0,1,2.75,2.645S100.354,82,100.354,82.049Zm-.37,0a2.281,2.281,0,0,0-2.274-2.38H97.6a2.407,2.407,0,1,0,2.38,2.38Zm-1.64.476.688,1.111H98.5l-.635-1h-.846v1h-.529V80.515h1.269c.793,0,1.269.423,1.269,1.058A1.016,1.016,0,0,1,98.344,82.525Zm.159-.952c0-.423-.317-.635-.793-.635h-.688v1.217h.688C98.185,82.155,98.5,81.943,98.5,81.573Z" transform="translate(-44.659 -37.356)"/><path class="b" d="M55.476,85.613h1.9v1.9a5.03,5.03,0,0,1-3.544,1.693,4.772,4.772,0,0,1,.106-9.52,5.477,5.477,0,0,1,3.226,1.058l.106.053.529-.635-.053-.053A5.628,5.628,0,0,0,53.995,78.9,5.429,5.429,0,0,0,48.6,84.344V84.5a5.367,5.367,0,0,0,5.289,5.554,4.955,4.955,0,0,0,3.544-1.428v1.217h.846V84.767h-2.75v.846Z" transform="translate(-22.895 -37.165)"/><path class="b" d="M75.645,78.8A5.4,5.4,0,0,0,70.2,84.195V84.3a5.45,5.45,0,1,0,10.9.317V84.3a5.4,5.4,0,0,0-5.342-5.5Zm0,10.314A4.616,4.616,0,0,1,71.1,84.406V84.3a4.519,4.519,0,0,1,4.39-4.707,4.587,4.587,0,0,1,4.707,4.39V84.3a4.63,4.63,0,0,1-4.5,4.813Z" transform="translate(-33.067 -37.122)"/></g></svg>