<svg xmlns="http://www.w3.org/2000/svg" width="29.335" height="20.847" viewBox="0 0 29.335 20.847"><defs><style>.a{fill:#fff;}</style></defs><g transform="translate(0 0)"><path class="a" d="M29.175,7.363l-2-4.046a.912.912,0,0,0-.771-.44h-5L22.013.543a.413.413,0,0,0-.4-.543H7.726A3.106,3.106,0,0,0,4.913,2.221L1.5,15.085H1.2a.755.755,0,0,0-.684.543l-.538,1.944a.413.413,0,0,0,.4.543H2.3a5.311,5.311,0,0,1,4.806-3.8,2.823,2.823,0,0,1,2.786,3.8h7.6a5.305,5.305,0,0,1,4.806-3.8,2.827,2.827,0,0,1,2.786,3.8H26.8a.777.777,0,0,0,.706-.543l.543-1.944a.4.4,0,0,0-.4-.543h-.19l1.792-6.728a1.629,1.629,0,0,0-.076-.994Zm-7.787.858.863-3.258H24.56a.874.874,0,0,1,.739.424l1.292,2.835Z" transform="translate(0.039 0)"/><path class="a" d="M9.625,28.39A3.8,3.8,0,0,0,6.2,31.105,2.013,2.013,0,0,0,8.186,33.82a3.8,3.8,0,0,0,3.427-2.715A2.013,2.013,0,0,0,9.625,28.39ZM9.8,31.105a1.249,1.249,0,0,1-1.14.874.668.668,0,0,1-.657-.9,1.26,1.26,0,0,1,1.14-.9A.668.668,0,0,1,9.8,31.1Z" transform="translate(-2.767 -12.973)"/><path class="a" d="M37.637,28.39a3.8,3.8,0,0,0-3.427,2.715A2.017,2.017,0,0,0,36.2,33.82a3.8,3.8,0,0,0,3.432-2.715A2.018,2.018,0,0,0,37.637,28.39Zm.185,2.715a1.249,1.249,0,0,1-1.14.874.673.673,0,0,1-.662-.9,1.271,1.271,0,0,1,1.14-.9.673.673,0,0,1,.662.923Z" transform="translate(-15.569 -12.973)"/></g></svg>