<?xml version="1.0" encoding="utf-8"?>
<!-- Generator: Adobe Illustrator 16.0.0, SVG Export Plug-In . SVG Version: 6.00 Build 0)  -->
<!DOCTYPE svg PUBLIC "-//W3C//DTD SVG 1.1//EN" "http://www.w3.org/Graphics/SVG/1.1/DTD/svg11.dtd">
<svg version="1.1" id="Layer_1" xmlns="http://www.w3.org/2000/svg" xmlns:xlink="http://www.w3.org/1999/xlink" x="0px" y="0px"
	 width="29.335px" height="20.848px" viewBox="0 0 29.335 20.848" enable-background="new 0 0 29.335 20.848" xml:space="preserve">
<g transform="translate(0 0)">
	<path fill="#464646" d="M29.214,7.363l-2-4.046c-0.164-0.271-0.455-0.437-0.771-0.44h-5l0.609-2.334
		c0.072-0.216-0.046-0.45-0.262-0.521C21.746,0.007,21.699-0.001,21.652,0H7.765c-1.313,0.07-2.44,0.96-2.813,2.222L1.539,15.085
		h-0.3c-0.32,0.018-0.594,0.235-0.684,0.543l-0.538,1.944c-0.072,0.217,0.045,0.45,0.262,0.522c0.044,0.015,0.091,0.021,0.138,0.021
		h1.922c0.636-2.156,2.562-3.678,4.806-3.8c1.557-0.077,2.882,1.123,2.958,2.681c0.019,0.381-0.04,0.762-0.172,1.119h7.6
		c0.635-2.157,2.561-3.68,4.807-3.8c1.559-0.073,2.883,1.131,2.957,2.69c0.018,0.378-0.041,0.755-0.172,1.109h1.717
		c0.326-0.015,0.607-0.231,0.705-0.543l0.543-1.944c0.08-0.206-0.022-0.438-0.229-0.517c-0.055-0.021-0.113-0.03-0.171-0.026h-0.19
		l1.793-6.728C29.369,8.026,29.343,7.678,29.214,7.363z M21.427,8.221l0.863-3.259h2.309c0.303,0.004,0.583,0.164,0.738,0.425
		l1.293,2.835L21.427,8.221z"/>
	<path fill="#464646" d="M6.858,15.417c-1.6,0.093-2.97,1.179-3.425,2.715c-0.389,1.042,0.14,2.201,1.181,2.591
		c0.257,0.096,0.531,0.139,0.805,0.125c1.601-0.092,2.972-1.178,3.427-2.716c0.389-1.041-0.14-2.201-1.181-2.59
		C7.407,15.445,7.133,15.403,6.858,15.417z M7.033,18.132c-0.158,0.503-0.614,0.853-1.14,0.874
		c-0.369,0.018-0.681-0.268-0.698-0.636c-0.004-0.09,0.01-0.18,0.041-0.264c0.152-0.511,0.608-0.871,1.14-0.9
		c0.368-0.021,0.685,0.26,0.706,0.628c0.006,0.1-0.011,0.2-0.049,0.293V18.132z"/>
	<path fill="#464646" d="M22.068,15.417c-1.601,0.092-2.972,1.178-3.427,2.715c-0.387,1.045,0.146,2.205,1.19,2.592
		c0.256,0.095,0.527,0.137,0.799,0.124c1.604-0.09,2.977-1.177,3.433-2.716c0.386-1.045-0.147-2.206-1.193-2.592
		C22.614,15.445,22.341,15.403,22.068,15.417z M22.253,18.132c-0.158,0.503-0.614,0.853-1.141,0.874
		c-0.371,0.017-0.686-0.272-0.701-0.644c-0.004-0.087,0.01-0.174,0.039-0.256c0.154-0.509,0.609-0.868,1.141-0.9
		c0.371-0.021,0.688,0.264,0.709,0.635c0.006,0.099-0.01,0.197-0.047,0.288V18.132z"/>
</g>
</svg>
