<svg xmlns="http://www.w3.org/2000/svg" width="44" height="44" viewBox="0 0 44 44">
  <g id="Group_246" data-name="Group 246" transform="translate(-4323 -4266)">
    <rect id="Rectangle_126" data-name="Rectangle 126" width="44" height="44" transform="translate(4323 4266)" fill="none"/>
    <g id="delivery-nonactive" transform="translate(4330.004 4278)">
      <path id="Path_202" data-name="Path 202" d="M29.423,7.416,27.409,3.341a.917.917,0,0,0-.777-.443H21.6L22.21.547a.415.415,0,0,0-.264-.525A.406.406,0,0,0,21.807,0H7.821A3.129,3.129,0,0,0,4.987,2.238L1.55,15.193h-.3a.762.762,0,0,0-.689.547L.017,17.7a.415.415,0,0,0,.264.526.431.431,0,0,0,.139.021H2.356A5.35,5.35,0,0,1,7.2,14.418,2.844,2.844,0,0,1,10,18.245h7.654A5.344,5.344,0,0,1,22.5,14.418a2.844,2.844,0,0,1,2.8,3.826h1.729a.781.781,0,0,0,.71-.547l.547-1.958a.4.4,0,0,0-.4-.547h-.191L29.5,8.416A1.644,1.644,0,0,0,29.423,7.416ZM21.58,8.28,22.45,5h2.326a.877.877,0,0,1,.743.428l1.3,2.855Z" transform="translate(0 0)" fill="#464646"/>
      <path id="Path_203" data-name="Path 203" d="M6.883,15.417a3.829,3.829,0,0,0-3.45,2.734,2.028,2.028,0,0,0,2,2.735,3.828,3.828,0,0,0,3.452-2.735,2.028,2.028,0,0,0-2-2.734Zm.176,2.734a1.257,1.257,0,0,1-1.148.88.672.672,0,0,1-.7-.641.682.682,0,0,1,.041-.266A1.27,1.27,0,0,1,6.4,17.219a.673.673,0,0,1,.662.928Z" transform="translate(0.024 0.11)" fill="#464646"/>
      <path id="Path_204" data-name="Path 204" d="M22.093,15.417a3.828,3.828,0,0,0-3.452,2.734,2.033,2.033,0,0,0,2,2.735A3.829,3.829,0,0,0,24.1,18.151a2.033,2.033,0,0,0-2.009-2.734Zm.186,2.734a1.257,1.257,0,0,1-1.149.88.678.678,0,0,1-.667-.906,1.28,1.28,0,0,1,1.149-.906.678.678,0,0,1,.714.64.662.662,0,0,1-.047.29v0Z" transform="translate(0.133 0.11)" fill="#464646"/>
    </g>
  </g>
</svg>
