<svg xmlns="http://www.w3.org/2000/svg" width="44" height="44" viewBox="0 0 44 44">
  <g id="Group_247" data-name="Group 247" transform="translate(-4415 -4264)">
    <rect id="Rectangle_127" data-name="Rectangle 127" width="44" height="44" transform="translate(4415 4264)" fill="none"/>
    <g id="delivery" transform="translate(4422.004 4276)">
      <path id="Path_205" data-name="Path 205" d="M29.386,7.416,27.371,3.341a.919.919,0,0,0-.777-.443H21.559L22.172.547a.416.416,0,0,0-.4-.547H7.782A3.128,3.128,0,0,0,4.949,2.237L1.511,15.194h-.3a.76.76,0,0,0-.689.547L-.022,17.7a.416.416,0,0,0,.4.547H2.317a5.349,5.349,0,0,1,4.841-3.827,2.843,2.843,0,0,1,2.806,3.827h7.655a5.343,5.343,0,0,1,4.841-3.827,2.847,2.847,0,0,1,2.806,3.827h1.728A.783.783,0,0,0,27.7,17.7l.547-1.958a.4.4,0,0,0-.4-.547h-.191l1.8-6.777a1.641,1.641,0,0,0-.077-1Zm-7.843.864L22.412,5h2.326a.88.88,0,0,1,.744.427l1.3,2.855Z" transform="translate(0.039 0)" fill="#fff"/>
      <path id="Path_206" data-name="Path 206" d="M9.651,28.39A3.827,3.827,0,0,0,6.2,31.125a2.028,2.028,0,0,0,2,2.735,3.827,3.827,0,0,0,3.452-2.735,2.028,2.028,0,0,0-2-2.735Zm.176,2.735A1.258,1.258,0,0,1,8.679,32a.673.673,0,0,1-.662-.906,1.269,1.269,0,0,1,1.148-.906.673.673,0,0,1,.662.928Z" transform="translate(-2.743 -12.862)" fill="#fff"/>
      <path id="Path_207" data-name="Path 207" d="M37.663,28.39a3.827,3.827,0,0,0-3.452,2.735,2.032,2.032,0,0,0,2,2.735,3.827,3.827,0,0,0,3.457-2.735,2.033,2.033,0,0,0-2.009-2.735Zm.186,2.735A1.258,1.258,0,0,1,36.7,32a.678.678,0,0,1-.667-.906,1.28,1.28,0,0,1,1.148-.906.678.678,0,0,1,.667.93Z" transform="translate(-15.435 -12.862)" fill="#fff"/>
    </g>
  </g>
</svg>
