<svg xmlns="http://www.w3.org/2000/svg" width="76" height="76" viewBox="0 0 76 76"><defs><style>.a{fill:#fff;stroke:#e63289;}.b{fill:#e63289;}</style></defs><g transform="translate(0.5 0.5)"><circle class="a" cx="37.5" cy="37.5" r="37.5" transform="translate(0 0)"/><path class="b" d="M85.581,46.559a5.648,5.648,0,0,0-4.337,1.851,5.532,5.532,0,0,0-1.375,3.7h0a3.05,3.05,0,0,1-2.909,3.226A3.106,3.106,0,0,1,74,52.059a3.006,3.006,0,0,1,2.856-3.121h.106a2.815,2.815,0,0,1,2.433,1.322,6.059,6.059,0,0,1,1.269-2.539,5.782,5.782,0,0,0-3.65-1.269A5.535,5.535,0,0,0,71.3,51.742v.264a5.768,5.768,0,0,0,10.049,3.755,5.807,5.807,0,0,0,1.375-3.808h0a2.941,2.941,0,1,1,5.871-.37v.37a3.105,3.105,0,0,1-2.962,3.279,2.707,2.707,0,0,1-2.327-1.269A6.075,6.075,0,0,1,81.984,56.4a5.782,5.782,0,0,0,3.65,1.269,5.554,5.554,0,0,0,5.659-5.448v-.264A5.5,5.5,0,0,0,85.845,46.4.288.288,0,0,1,85.581,46.559Z" transform="translate(-33.588 -21.858)"/><path class="b" d="M15,47.2h5.924v1.322h-4.39v3.544h3.755v1.322H16.534v4.6H15Z" transform="translate(-7.066 -22.235)"/><path class="b" d="M27.9,47.2h6.241v1.322H29.434v3.332h3.808v1.322H29.381v3.438h4.972v1.322H27.9Z" transform="translate(-13.143 -22.235)"/><path class="b" d="M42.146,55.364a4.33,4.33,0,0,0,2.75,1.164,1.663,1.663,0,0,0,1.851-1.587c0-2.327-5.183-1.851-5.183-5.13A3.162,3.162,0,0,1,45,46.8a4.354,4.354,0,0,1,3.068,1.058l-.688,1.269A3.827,3.827,0,0,0,45,48.171c-1.164,0-1.957.688-1.957,1.587,0,2.221,5.183,1.64,5.183,5.13A3.085,3.085,0,0,1,44.844,57.9,4.955,4.955,0,0,1,41.3,56.475Z" transform="translate(-19.456 -22.042)"/><path class="b" d="M59,48.522H55.3V47.2h8.886v1.322h-3.65v9.415H59.055V48.522Z" transform="translate(-26.051 -22.235)"/><path class="b" d="M110.5,47.2h1.481l4.76,6.982a13.541,13.541,0,0,1,.9,1.534h.053s-.106-.952-.106-1.534V47.2h1.481V57.937H117.64l-4.76-6.982c-.37-.582-.9-1.587-.9-1.587h-.053s.106.952.106,1.587v6.982h-1.481Z" transform="translate(-52.055 -22.235)"/><path class="b" d="M43.4,89.937V79.2H47a3.07,3.07,0,0,1,3.332,3.173A3.11,3.11,0,0,1,47,85.6h-2.75v4.39Zm3.544-5.183a2.382,2.382,0,1,0,0-4.76h-2.7v4.76Z" transform="translate(-20.445 -37.31)"/><path class="b" d="M43.6,79.4h3.491a2.986,2.986,0,0,1,3.226,3.068,3.027,3.027,0,0,1-3.226,3.121h-2.8v4.39h-.635V79.4Zm3.438,5.554a2.488,2.488,0,1,0,0-4.972h-2.8v4.972Z" transform="translate(-20.539 -37.404)"/><path class="b" d="M65.888,89.925,63.4,85.271H60.546v4.654H59.7V79.188h3.173a4.133,4.133,0,0,1,1.957.317,2.807,2.807,0,0,1,1.534,2.645A2.971,2.971,0,0,1,64.3,85.112l.159.317,2.433,4.549ZM63.3,84.477a2.1,2.1,0,0,0,2.169-2.327A2.041,2.041,0,0,0,64.3,80.193a3.358,3.358,0,0,0-1.428-.212H60.546v4.443H63.3Z" transform="translate(-28.124 -37.298)"/><path class="b" d="M59.8,79.388h3.121a3.921,3.921,0,0,1,1.9.317,2.654,2.654,0,0,1,1.428,2.539,2.76,2.76,0,0,1-2.116,2.909v.053c.106.106.159.264.264.37l2.38,4.39h-.793L63.5,85.312H60.435v4.654H59.8Zm3.544,5.289a2.238,2.238,0,0,0,2.274-2.433A2.151,2.151,0,0,0,64.4,80.182a3.479,3.479,0,0,0-1.481-.212H60.435v4.654Z" transform="translate(-28.171 -37.392)"/><path class="b" d="M80.745,89.863A5.464,5.464,0,0,1,75.3,84.309V84.2a5.45,5.45,0,1,1,10.9-.317V84.2A5.624,5.624,0,0,1,80.745,89.863Zm0-10.314A4.548,4.548,0,0,0,76.2,84.1V84.2a4.556,4.556,0,0,0,9.1.529V84.2a4.551,4.551,0,0,0-4.443-4.654Z" transform="translate(-35.47 -37.024)"/><path class="b" d="M80.841,79a5.327,5.327,0,0,1,5.342,5.342v.053a5.344,5.344,0,1,1-10.684.317v-.317A5.327,5.327,0,0,1,80.788,79Zm0,10.314A4.742,4.742,0,0,0,85.5,84.448v-.053a4.657,4.657,0,0,0-9.309-.317v.317a4.742,4.742,0,0,0,4.6,4.919Z" transform="translate(-35.566 -37.216)"/><path class="b" d="M105.354,82.049a2.777,2.777,0,1,1-2.8-2.75h.053a2.709,2.709,0,0,1,2.75,2.645S105.354,82,105.354,82.049Zm-.37,0a2.281,2.281,0,0,0-2.274-2.38H102.6a2.407,2.407,0,1,0,2.38,2.38Zm-1.64.476.688,1.111H103.5l-.635-1h-.846v1h-.529V80.515h1.269c.793,0,1.269.423,1.269,1.058A1.016,1.016,0,0,1,103.344,82.525Zm.159-.952q0-.635-.793-.635h-.688v1.217h.688C103.185,82.155,103.5,81.943,103.5,81.573Z" transform="translate(-47.014 -37.356)"/></g></svg>
