<svg id="logo-bw-alt" xmlns="http://www.w3.org/2000/svg" width="100" height="56.133">
    <defs>
        <style>
            .cls-1{fill:#fff}
        </style>
    </defs>
    <path id="Path_1" data-name="Path 1" class="cls-1" d="M126.794 246.158a4.32 4.32 0 0 0-1.254-.246c-.09 0-.194-.013-.284-.013h-.039a2.426 2.426 0 0 0-1.8.62 2.011 2.011 0 0 0-.491.918 4.442 4.442 0 0 0-.129 1.163v14.217h4.963v-16.26a7.445 7.445 0 0 0-.966-.399z" transform="translate(-106.928 -214.118)"/>
    <circle id="Ellipse_1" data-name="Ellipse 1" class="cls-1" cx="2.611" cy="2.611" r="2.611" transform="translate(15.743 25.178)"/>
    <path id="Path_2" data-name="Path 2" class="cls-1" d="M12.327 88.224H5.27V69.91a5.228 5.228 0 0 0-1.008-.427 5.2 5.2 0 0 0-1.305-.258c-.1 0-.194-.013-.3-.013H2.62a2.556 2.556 0 0 0-1.874.646 2.051 2.051 0 0 0-.5.956A4.824 4.824 0 0 0 .1 72.029v20.706h14.243V88.2h-2.016zm44.578-8.7a5.451 5.451 0 0 0-3.451-3.3 8.193 8.193 0 0 0-2.572-.388 6.682 6.682 0 0 0-2.637.439 5.669 5.669 0 0 0-1.616.956V69.9a5.665 5.665 0 0 0-.969-.414 4.32 4.32 0 0 0-1.254-.246c-.09 0-.194-.013-.284-.013h-.039a2.426 2.426 0 0 0-1.8.62 2.011 2.011 0 0 0-.491.918 4.442 4.442 0 0 0-.129 1.163v20.833h5V84a3.752 3.752 0 0 1 .775-2.611 2.823 2.823 0 0 1 2.171-.84 2.86 2.86 0 0 1 2.094.75 3.1 3.1 0 0 1 .7 2.262v9.2h5V82.486a8.484 8.484 0 0 0-.5-2.96zm-17.875.853a4.764 4.764 0 0 0 .375-.892 4.04 4.04 0 0 0 .22-1.15c0-.09.013-.168.013-.258v-.039a2.22 2.22 0 0 0-.569-1.641 1.8 1.8 0 0 0-.84-.439 4.286 4.286 0 0 0-1.06-.116h-6.282l.013.013a8.4 8.4 0 0 0-8.388 8.492 8.731 8.731 0 1 0 17.462 0 8.726 8.726 0 0 0-.944-3.968zm-7.807 8.013a3.838 3.838 0 0 1-3.823-3.979 3.845 3.845 0 1 1 7.69 0 3.846 3.846 0 0 1-3.867 3.981zm-.013 11.79a11.31 11.31 0 0 1-6.41-1.98 2.214 2.214 0 1 1 2.495-3.658 6.869 6.869 0 0 0 3.916 1.2 7.043 7.043 0 0 0 3.981-1.2 2.215 2.215 0 0 1 2.482 3.671 11.47 11.47 0 0 1-6.462 1.965zm38.529-23.666a1.533 1.533 0 0 0-.75-.388 4.05 4.05 0 0 0-.944-.1h-1.459v-5.961a5.665 5.665 0 0 0-.969-.414 4.319 4.319 0 0 0-1.254-.246 1.732 1.732 0 0 0-.258-.013h-.065a2.426 2.426 0 0 0-1.8.62 2.011 2.011 0 0 0-.491.918 4.442 4.442 0 0 0-.129 1.163v3.917h-3.125v4.02h3.128v12.731h4.963V80.03H69.7a4.8 4.8 0 0 0 .336-.788 3.175 3.175 0 0 0 .194-1.008c0-.078.013-.155.013-.233v-.026a1.964 1.964 0 0 0-.5-1.461zm15.885-.114h-.75a.254.254 0 0 1-.207-.078.267.267 0 0 1-.065-.207.655.655 0 0 1 .026-.168.718.718 0 0 1 .052-.1h2.326a.236.236 0 0 1 .271.258.654.654 0 0 1-.026.168.3.3 0 0 0-.039.116h-.969v2.262h-.607l-.012-2.251zm1.876 2.26c.026-.427.039-.84.065-1.254s.039-.827.065-1.254a.282.282 0 0 1 .31-.3.649.649 0 0 1 .155.026.6.6 0 0 1 .116.039 8.372 8.372 0 0 1 .439.827c.142.284.271.556.4.788.116-.233.233-.465.349-.711l.349-.737a.389.389 0 0 1 .362-.246.557.557 0 0 1 .22.039 1.152 1.152 0 0 1 .129.065c0 .013 0 .09.013.22s.013.3.026.478.026.388.039.607l.039.62c.013.193.026.362.026.5s.013.233.013.271h-.607c0-.116-.013-.246-.013-.4s-.013-.31-.026-.465-.013-.323-.026-.478-.013-.3-.026-.427c-.052.09-.1.207-.155.323s-.116.246-.168.362-.116.22-.168.323-.09.181-.116.246h-.478c-.09-.181-.194-.375-.3-.582s-.22-.427-.336-.633c-.026.3-.039.582-.052.879l-.039.879-.605-.005zm-7.393 4.291-2.52-.853c-1-.323-1.422-.633-1.422-1.163 0-.633.75-1 1.809-1a3.143 3.143 0 0 1 1.978.75.711.711 0 0 1 .116.09 24.1 24.1 0 0 1 1.034.827 3.98 3.98 0 0 0 .724-.168c.026 0 .039-.013.052-.013a3.608 3.608 0 0 0 1.086-.556 1.85 1.85 0 0 0 .827-1.189 1.932 1.932 0 0 0-.336-1.228 1.89 1.89 0 0 0-.116-.168l-.078-.116a.067.067 0 0 1-.026-.052c-1.228-1.641-3.464-2.275-5.648-2.275-3.464 0-6.411 2.262-6.411 4.7 0 1.525-.039 3.865 4.924 5.519l1.874.672c1.2.388 1.629.633 1.629 1.344 0 .853-1.021 1.021-2.12 1.021a4.165 4.165 0 0 1-3.115-1.448c-.039-.039-.065-.078-.1-.116-.116-.129-.207-.246-.207-.246l-.039.026-2.792 1.952-.5.349a5.443 5.443 0 0 0 2.365 2.4 9.309 9.309 0 0 0 4.369 1.047c3.464 0 7.147-1.667 7.147-5.17 0-1.047-.5-3.632-4.5-4.95zM31.546 59.4v-.065a2.73 2.73 0 0 1-.026.336 1.928 1.928 0 0 0 .026-.271zm-.039.336c0-.026.013-.039.013-.065a.56.56 0 0 1-.012.067zm.013-.063zm-.931 1.137a1.216 1.216 0 0 0 .918-1.073 1.543 1.543 0 0 1-.917 1.074zm.956-1.512zm27.284-6.8v.078a.081.081 0 0 0 .002-.076zm.013.194a1.254 1.254 0 0 1-.013.22c0-.065.013-.129.013-.194zm0-.026a.192.192 0 0 0-.013-.09v.116a.04.04 0 0 0 .013-.026zm3.877-1.99H62.7a2 2 0 0 1 .284.013 1.648 1.648 0 0 0-.263-.012zm19.9.892-.194-.155a4.87 4.87 0 0 0-1.15-.62 2.965 2.965 0 0 0-.944-.207 2.054 2.054 0 0 0-.9.155 1.883 1.883 0 0 0-.711.595 4.254 4.254 0 0 0-.569 1.086l-.3.775-.4 1.047-2.559 6.8-2.6-6.889-1.325-3.555a7.271 7.271 0 0 0-1.047.013c-.039 0-.065.013-.1.013a4.375 4.375 0 0 0-1.4.362 2.347 2.347 0 0 0-1.37 1.241 2.819 2.819 0 0 0 .233 2.081l.556 1.292L72 65.412a3 3 0 0 0 2.843 2.094h.207a2.81 2.81 0 0 0 2.727-2.094l4.6-10.766 1.008-2.365a6.477 6.477 0 0 0-.759-.712z" transform="translate(-.087 -44.047)"/>
    <path id="Path_3" data-name="Path 3" class="cls-1" d="M470.394 51.458a4.32 4.32 0 0 0-1.254-.246c-.09 0-.194-.013-.284-.013h-.039a2.426 2.426 0 0 0-1.8.62 2.011 2.011 0 0 0-.491.918 4.44 4.44 0 0 0-.126 1.163v14.219h4.963V51.885a4.609 4.609 0 0 0-.969-.427z" transform="translate(-406.118 -44.582)"/>
    <circle id="Ellipse_2" data-name="Ellipse 2" class="cls-1" cx="2.611" cy="2.611" r="2.611" transform="translate(60.153 .013)"/>
    <path id="Path_4" data-name="Path 4" class="cls-1" d="M14.864.582a1.917 1.917 0 0 0-.853-.452A4.354 4.354 0 0 0 12.938 0H2.52A2.556 2.556 0 0 0 .646.646a2.051 2.051 0 0 0-.5.956A4.824 4.824 0 0 0 0 2.818v20.705h5.183V13.468h7.561a5.556 5.556 0 0 0 .375-.879 3.947 3.947 0 0 0 .22-1.124c0-.09.013-.168.013-.258v-.027a2.151 2.151 0 0 0-.552-1.616 1.753 1.753 0 0 0-.827-.439 4.177 4.177 0 0 0-1.047-.116H5.2V4.575h9.616a5.552 5.552 0 0 0 .388-.892 4.128 4.128 0 0 0 .22-1.15c0-.09.013-.181.013-.258v-.039a2.293 2.293 0 0 0-.573-1.654zM58.253 7.3a1.533 1.533 0 0 0-.75-.388 4.05 4.05 0 0 0-.944-.1H55.1V.866a5.666 5.666 0 0 0-.97-.414 4.319 4.319 0 0 0-1.254-.245 1.732 1.732 0 0 0-.258-.013h-.065a2.426 2.426 0 0 0-1.8.62 2.011 2.011 0 0 0-.491.918 4.442 4.442 0 0 0-.126 1.168v3.9h-3.128v4.02h3.128v12.729H55.1V10.818h3.115a4.8 4.8 0 0 0 .336-.788 3.176 3.176 0 0 0 .194-1.008c0-.078.013-.155.013-.233v-.026a1.964 1.964 0 0 0-.5-1.461zm-26.794 7.809v-.09a8.289 8.289 0 0 0-8.466-8.362 8.322 8.322 0 0 0-8.66 8.556 8.389 8.389 0 0 0 8.3 8.647c.116 0 .233.013.362.013h.543a.8.8 0 0 0 .168-.013 9.956 9.956 0 0 0 6.23-2.2 5.008 5.008 0 0 0-.129-.9 4.3 4.3 0 0 0-.388-1.047c-.039-.078-.078-.142-.116-.22 0-.013-.013-.013-.013-.026a2.086 2.086 0 0 0-1.28-1.06 1.693 1.693 0 0 0-.9.052 3.639 3.639 0 0 0-.931.427 5.079 5.079 0 0 1-2.818.737h-.116c-1.292-.039-3.955-.633-3.955-2.727h10.386a2.938 2.938 0 0 0 .788-.09c.026-.013.052-.013.078-.026a1.543 1.543 0 0 0 .918-1.073c0-.026.013-.039.013-.065a2.729 2.729 0 0 0 .027-.342.35.35 0 0 1-.039-.194zm-12.136-1.318a3.476 3.476 0 0 1 3.7-3.012 3.222 3.222 0 0 1 3.477 3.012h-7.177zm80.664 1.461v-.233a8.564 8.564 0 0 0-17.126.194 8.389 8.389 0 0 0 8.3 8.647c.116 0 .233.013.362.013h.543a.8.8 0 0 0 .168-.013 9.956 9.956 0 0 0 6.23-2.2 5.008 5.008 0 0 0-.129-.9 4.3 4.3 0 0 0-.388-1.047c-.039-.078-.078-.142-.116-.22 0-.013-.013-.013-.013-.026a2.086 2.086 0 0 0-1.28-1.06 1.693 1.693 0 0 0-.9.052 3.639 3.639 0 0 0-.931.427 5.079 5.079 0 0 1-2.818.737h-.116c-1.292-.039-3.955-.633-3.955-2.727h10.36a2.938 2.938 0 0 0 .788-.09c.026-.013.052-.013.078-.026a1.216 1.216 0 0 0 .918-1.073c0-.026.013-.039.013-.065a1.928 1.928 0 0 0 .026-.271V15.3a.1.1 0 0 1-.014-.049zm-12.136-1.461a3.476 3.476 0 0 1 3.7-3.012 3.222 3.222 0 0 1 3.477 3.012zm-46.129-.052-2.52-.853c-1-.323-1.422-.633-1.422-1.163 0-.633.75-1 1.809-1a3.143 3.143 0 0 1 1.978.75.711.711 0 0 1 .116.09 24.1 24.1 0 0 1 1.034.827 3.979 3.979 0 0 0 .724-.168c.026 0 .039-.013.052-.013a3.608 3.608 0 0 0 1.086-.556 1.85 1.85 0 0 0 .827-1.189 1.932 1.932 0 0 0-.336-1.228 1.891 1.891 0 0 0-.116-.168l-.078-.116a.067.067 0 0 1-.026-.052c-1.228-1.636-3.464-2.27-5.65-2.27-3.464 0-6.411 2.262-6.411 4.7 0 1.525-.039 3.865 4.924 5.519l1.874.672c1.2.388 1.629.633 1.629 1.344 0 .853-1.021 1.021-2.12 1.021a4.165 4.165 0 0 1-3.115-1.448c-.039-.039-.065-.078-.1-.116-.116-.129-.207-.246-.207-.246l-.039.026-2.792 1.952-.5.349a5.443 5.443 0 0 0 2.365 2.4 9.309 9.309 0 0 0 4.369 1.047c3.464 0 7.147-1.667 7.147-5.17 0-1.047-.5-3.632-4.5-4.95z"/>
</svg>
