<svg xmlns="http://www.w3.org/2000/svg" width="35.073" height="31.94" viewBox="0 0 35.073 31.94"><defs><style>.a{fill:#464646;}</style></defs><g transform="translate(0.004 0)"><g transform="translate(-0.004 0)"><path class="a" d="M29.2,31.94H5.881a5.882,5.882,0,0,1-5.1-8.816l11.7-20.191A5.82,5.82,0,0,1,17.537,0h0a5.812,5.812,0,0,1,5.087,2.933L34.279,23.124A5.875,5.875,0,0,1,29.2,31.94ZM14.479,4.1,2.823,24.294A3.542,3.542,0,0,0,5.881,29.6H29.2a3.542,3.542,0,0,0,3.058-5.305L20.6,4.1A3.519,3.519,0,0,0,17.537,2.34h0A3.511,3.511,0,0,0,14.479,4.1Z" transform="translate(0.004 0)"/><path class="a" d="M19.923,26.275a1.857,1.857,0,0,1,1.989-1.849,1.857,1.857,0,0,1,1.966,1.849,1.989,1.989,0,1,1-3.979,0Zm.055-12.795h3.9l-.64,9.479H20.665Z" transform="translate(-4.371 -2.963)"/></g></g></svg>