<svg xmlns="http://www.w3.org/2000/svg" width="37.269" height="33.94" viewBox="0 0 37.269 33.94"><defs><style>.a{fill:#fff;}</style></defs><g transform="translate(0.004 0)"><g transform="translate(-0.004 0)"><path class="a" d="M31.029,33.94H6.25A6.251,6.251,0,0,1,.828,24.572L13.263,3.117A6.184,6.184,0,0,1,18.635,0h0a6.176,6.176,0,0,1,5.405,3.117L36.426,24.572a6.242,6.242,0,0,1-5.4,9.368ZM15.386,4.361,3,25.816a3.764,3.764,0,0,0,3.25,5.637H31.029a3.764,3.764,0,0,0,3.25-5.637L21.894,4.361a3.739,3.739,0,0,0-3.258-1.874h0a3.731,3.731,0,0,0-3.25,1.874Z" transform="translate(0.004 0)"/><path class="a" d="M19.925,27.076a1.973,1.973,0,0,1,2.114-1.965,1.973,1.973,0,0,1,2.089,1.965,2.114,2.114,0,1,1-4.228,0Zm.058-13.6h4.145l-.68,10.073H20.712Z" transform="translate(-3.399 -2.305)"/></g></g></svg>