<svg xmlns="http://www.w3.org/2000/svg" width="43.039" height="28.88" viewBox="0 0 43.039 28.88"><defs><style>.a{fill:#fff;}</style></defs><g transform="translate(-1059 -338.56)"><g transform="translate(1059 338.56)"><g transform="translate(0 0)"><path class="a" d="M39.738,16.38a7.238,7.238,0,1,0,5.129,2.114,7.246,7.246,0,0,0-5.129-2.114Zm1.326,6.939V24H39.4V25.19h2.38v.878H37.568V25.19h.694V24h-.694v-.676h.694v-.176c0-1.238.826-1.994,2.257-1.994a2.758,2.758,0,0,1,1.4.325l-.343.878a1.976,1.976,0,0,0-1.036-.255c-.738,0-1.142.343-1.142,1.019v.193Z" transform="translate(-3.954 -1.993)"/><path class="a" d="M35.784,14.069V9.73H0V19.761a3.048,3.048,0,0,0,3.057,3.048H27.044v-.132a8.783,8.783,0,0,1,8.74-8.608Z" transform="translate(0 -1.184)"/><path class="a" d="M35.784,3.057A3.048,3.048,0,0,0,32.736,0H3.057A3.057,3.057,0,0,0,0,3.057V5.033H35.784Z" transform="translate(0 0)"/></g></g></g></svg>