<svg xmlns="http://www.w3.org/2000/svg" width="44" height="44" viewBox="0 0 44 44">
  <g id="Group_253" data-name="Group 253" transform="translate(-4981 -4266)">
    <rect id="Rectangle_134" data-name="Rectangle 134" width="44" height="44" transform="translate(4981 4266)" fill="none"/>
    <g id="products-stock" transform="translate(4983 4270.999)">
      <g id="Group_245" data-name="Group 245" transform="translate(0 0.001)">
        <path id="Path_221" data-name="Path 221" d="M21.1,34.5l-10.8-18.6L4.52,25.884l-1.979-1.15,7.767-13.386L21.1,29.958,36.577,3.3,38.55,4.443Z" transform="translate(-0.606 -0.788)" fill="#fff"/>
        <path id="Path_222" data-name="Path 222" d="M47.552,6.168A3.084,3.084,0,1,1,50.6,3.122a3.084,3.084,0,0,1-3.046,3.046Z" transform="translate(-10.598 -0.001)" fill="#fff"/>
        <path id="Path_223" data-name="Path 223" d="M3.084,34.2a3.084,3.084,0,1,1,3.084-3.084A3.084,3.084,0,0,1,3.084,34.2Z" transform="translate(0 -6.687)" fill="#fff"/>
      </g>
    </g>
  </g>
</svg>
