<svg xmlns="http://www.w3.org/2000/svg" width="34.498" height="29.08" viewBox="0 0 34.498 29.08"><defs><style>.a{fill:#464646;}</style></defs><g transform="translate(0 0)"><g transform="translate(0 0)"><path class="a" d="M18.551,30.213,9.239,14.169l-4.991,8.61L2.54,21.787l6.7-11.545,9.312,16.051L31.9,3.3l1.7.985Z" transform="translate(-0.872 -1.133)"/><path class="a" d="M47.123,5.32A2.66,2.66,0,1,1,49.75,2.693,2.66,2.66,0,0,1,47.123,5.32Z" transform="translate(-15.251 0)"/><path class="a" d="M2.66,33.35a2.66,2.66,0,1,1,2.66-2.66,2.66,2.66,0,0,1-2.66,2.66Z" transform="translate(0 -9.622)"/></g></g></svg>
