<svg xmlns="http://www.w3.org/2000/svg" width="40.433" height="34.082" viewBox="0 0 40.433 34.082"><defs><style>.a{fill:#fff;}</style></defs><g transform="translate(0 0)"><g transform="translate(0 0)"><path class="a" d="M21.305,34.842l-10.914-18.8L4.541,26.129l-2-1.162,7.851-13.531L21.305,30.247,36.946,3.3l1.994,1.155Z" transform="translate(-0.585 -0.76)"/><path class="a" d="M47.586,6.235a3.117,3.117,0,1,1,3.079-3.079A3.117,3.117,0,0,1,47.586,6.235Z" transform="translate(-10.232 0)"/><path class="a" d="M3.117,34.265a3.117,3.117,0,1,1,3.117-3.117,3.117,3.117,0,0,1-3.117,3.117Z" transform="translate(0 -6.455)"/></g></g></svg>
