<svg xmlns="http://www.w3.org/2000/svg" width="44" height="44" viewBox="0 0 44 44">
  <g id="Group_252" data-name="Group 252" transform="translate(-4886 -4266)">
    <rect id="Rectangle_133" data-name="Rectangle 133" width="44" height="44" transform="translate(4886 4266)" fill="none"/>
    <g id="products-stock-nonactive" transform="translate(4888 4271)">
      <g id="Group_244" data-name="Group 244" transform="translate(0 0)">
        <path id="Path_218" data-name="Path 218" d="M21.1,34.5l-10.8-18.6L4.52,25.885l-1.98-1.15,7.768-13.386,10.8,18.61L36.581,3.3l1.971,1.142Z" transform="translate(-0.606 -0.788)" fill="#464646"/>
        <path id="Path_219" data-name="Path 219" d="M47.552,6.168A3.084,3.084,0,1,1,50.6,3.122a3.084,3.084,0,0,1-3.046,3.046Z" transform="translate(-10.598 0)" fill="#464646"/>
        <path id="Path_220" data-name="Path 220" d="M3.084,34.2a3.084,3.084,0,1,1,3.084-3.084A3.084,3.084,0,0,1,3.084,34.2Z" transform="translate(0 -6.687)" fill="#464646"/>
      </g>
    </g>
  </g>
</svg>
