<svg xmlns="http://www.w3.org/2000/svg" width="23.448" height="26.19" viewBox="0 0 23.448 26.19"><defs><style>.a{fill:#464646;}</style></defs><path class="a" d="M19.006,0h4.442V7.782H0V0H19.006Z"/><path class="a" d="M2.82,17.46V34.169H23.205V17.46Zm8.243,10.747a.662.662,0,0,1-.119.386.679.679,0,0,1-.543.288H7.6V27.528H8.766a4.442,4.442,0,0,1,5.669-6.462l-.608,1.206a3.09,3.09,0,0,0-4.1,4.236V25.421h1.336Zm7.347-4.648H17.259a4.442,4.442,0,0,1-5.653,6.457l.608-1.206a3.084,3.084,0,0,0,4.1-4.23v1.086H14.946V22.879a.673.673,0,0,1,.673-.673h2.8Z" transform="translate(-1.289 -7.979)"/></svg>