<svg data-name="Group 6" xmlns="http://www.w3.org/2000/svg" width="48" height="48">
    <g data-name="Group 5">
        <path data-name="Path 11" d="M683 498.085h36.68v17.182c-12.791-3.116-22.391 7.387-19.326 19.494-4.942 0-9.826.185-14.672-.157-.967-.069-2.543-2.139-2.564-3.309-.195-10.965-.118-21.934-.118-33.21zm18.644 3.266v.018a43.978 43.978 0 0 0-5.251.074 2.189 2.189 0 0 0-1.478 1.557 2.165 2.165 0 0 0 1.463 1.567c3.316.154 6.646.175 9.96.013.6-.029 1.155-1.11 1.73-1.705-.572-.507-1.095-1.363-1.723-1.45a34.536 34.536 0 0 0-4.698-.074z" transform="translate(-678.487 -493.585)" style="fill-rule:evenodd;fill:#ffd200"/>
        <path data-name="Icon material-settings-backup-restore" d="M12.153 4.5a9.116 9.116 0 0 0-9.115 9.115H0l4.051 4.051L8.1 13.615H5.064a7.094 7.094 0 1 1 2.978 5.773L6.6 20.846A9.115 9.115 0 1 0 12.153 4.5z" transform="translate(22.232 20.067)" style="fill:#ffd200"/>
    </g>
    <path data-name="Rectangle 10" style="fill:none" d="M0 0h48v48H0z"/>
</svg>
