<svg xmlns="http://www.w3.org/2000/svg" width="20.173" height="27.052" viewBox="0 0 20.173 27.052"><defs><style>.a{fill:#fff;}</style></defs><path class="a" d="M14.048,7.928c0-1.841-1.629-3.008-4.056-3.008A6.375,6.375,0,0,0,4.561,7.7L0,5.034C2.031,1.955,5.561,0,10.632,0c5.658,0,9.541,2.52,9.541,6.951,0,6.011-6.31,6.685-6.31,10.67H8.189C8.189,12.359,14.048,11.2,14.048,7.928Zm-6.609,15.7a3.374,3.374,0,0,1,3.606-3.345,3.386,3.386,0,0,1,3.617,3.345,3.454,3.454,0,0,1-3.606,3.416,3.454,3.454,0,0,1-3.617-3.416Z"/></svg>