 <svg width="120px" height="119px" viewBox="0 0 120 119" version="1.1" xmlns="http://www.w3.org/2000/svg" xmlns:xlink="http://www.w3.org/1999/xlink">
    <defs>
        <polygon id="path-1" points="0.767083498 0.294741659 22.5681379 0.294741659 22.5681379 24.375 0.767083498 24.375"></polygon>
        <polygon id="path-3" points="1.64259375 0.313125 41.9335312 0.313125 41.9335312 17.4522515 1.64259375 17.4522515"></polygon>
        <polygon id="path-5" points="0 0.592330677 6.9226875 0.592330677 6.9226875 7.51575313 0 7.51575313"></polygon>
    </defs>
    <g id="New-Requester-Portal" stroke="none" stroke-width="1" fill="none" fill-rule="evenodd">
        <g id="07_Search" transform="translate(-580.000000, -190.000000)">
            <g id="Group-31" transform="translate(484.000000, 189.000000)">
                <g id="Group-92" transform="translate(96.000000, 0.000000)">
                    <path d="M55.46175,17.794125 L44.40675,17.794125 L41.09175,21.225375 L38.116125,17.76225 L36.57675,17.76225 C32.641125,17.64975 29.52675,14.392875 29.592375,10.455375 C29.502375,6.50475 32.61675,3.21975 36.56925,3.101625 L55.46175,3.101625 C59.416125,3.216 62.536125,6.501 62.446125,10.455375 C62.528625,14.404125 59.408625,17.67975 55.46175,17.794125" id="Fill-1" fill="#1A181D80"></path>
                    <path d="M36.3766875,17.3784375 L34.8391875,17.3784375 C31.0048125,17.3821875 27.8866875,14.2903125 27.8604375,10.4559375 C27.8829375,6.6178125 31.0066875,3.5203125 34.8466875,3.53339592 L53.7391875,3.53339592 C57.5791875,3.5203125 60.7048125,6.6159375 60.7310625,10.4559375 C60.7104375,14.2940625 57.5848125,17.3915625 53.7466875,17.3784375 L44.3004375,17.8096875 L39.9616875,21.2240625 L36.3766875,17.3784375 Z" id="Fill-3" fill="#1A181D80"></path>
                    <path d="M10.9965,89.5550625 L103.510875,89.5550625 C104.227125,89.5550625 104.808375,90.1363125 104.808375,90.8506875 C104.808375,91.5669375 104.227125,92.1481875 103.510875,92.1481875 L10.9965,92.1481875 C10.28025,92.1481875 9.700875,91.5669375 9.700875,90.8506875 C9.700875,90.1363125 10.28025,89.5550625 10.9965,89.5550625" id="Fill-5" fill="#1A181D80"></path>
                    <path d="M41.6923125,87.8319465 L90.4929375,87.8319465 C92.0285625,87.8356875 93.3148125,86.6638125 93.4535625,85.1338125 L98.0698125,35.7481875 C98.1466875,34.9138125 97.8691875,34.0869375 97.3066875,33.4663125 C96.7441875,32.8475625 95.9454375,32.4950625 95.1073125,32.4931875 C93.9391875,32.4931875 92.8760625,31.8125625 92.3941875,30.7475625 L89.6548125,24.7250625 C89.1729375,23.6600625 88.1135625,22.9775625 86.9454375,22.9794336 L56.4223125,22.9794336 C55.2560625,22.9813125 54.1985625,23.6638125 53.7166875,24.7250625 L50.9773125,30.7475625 C50.4954375,31.8106875 49.4360625,32.4931875 48.2698125,32.4931875 L14.3304375,32.4931875 C13.4923125,32.4913125 12.6935625,32.8456875 12.1291875,33.4644375 C11.5648125,34.0831875 11.2891875,34.9138125 11.3698125,35.7481875 L15.9841875,85.1338125 C16.1323125,86.6638125 17.4166875,87.8319465 18.9541875,87.8319465 L31.3160625,87.8319465" id="Fill-7" fill="#1A181D80"></path>
                    <path d="M90.4925625,88.59375 L41.6919375,88.59375 C41.2681875,88.59375 40.9231875,88.24875 40.9231875,87.825 C40.9231875,87.399375 41.2681875,87.05625 41.6919375,87.05625 L90.4925625,87.05625 C91.6344375,87.06 92.5925625,86.188125 92.6919375,85.048125 L97.3081875,35.67 C97.3738125,35.049375 97.1656875,34.42875 96.7381875,33.97125 C96.3219375,33.51 95.7294375,33.2475 95.1069375,33.2475 C93.6406875,33.2475 92.3094375,32.390625 91.7000625,31.055625 L88.9756875,25.070625 C88.6138125,24.285 87.8281875,23.780625 86.9619375,23.77875 L56.4238125,23.77875 C55.5575625,23.7825 54.7719375,24.286875 54.4081875,25.070625 L51.6763125,31.093125 C51.0650625,32.42625 49.7356875,33.28125 48.2694375,33.286875 L14.3300625,33.286875 C13.7075625,33.285 13.1113125,33.549375 12.6931875,34.010625 C12.2750625,34.471875 12.0706875,35.08875 12.1306875,35.709375 L16.7450625,85.0875 C16.8463125,86.2275 17.8063125,87.103125 18.9538125,87.09375 L31.3156875,87.09375 C31.7413125,87.09375 32.0844375,87.43875 32.0844375,87.8625 C32.0844375,88.288125 31.7413125,88.633141 31.3156875,88.633141 L18.9613125,88.633141 C17.0281875,88.63875 15.4100625,87.165 15.2375625,85.24125 L10.6231875,35.855625 C10.5238125,34.8075 10.8706875,33.765 11.5794375,32.986875 C12.2881875,32.206875 13.2931875,31.7625 14.3469375,31.7625 L48.2694375,31.7625 C49.1375625,31.75875 49.9250625,31.246875 50.2850625,30.455625 L53.0375625,24.410625 C53.6450625,23.075625 54.9744375,22.21875 56.4388125,22.216875 L86.9769375,22.216875 C88.4431875,22.2225 89.7725625,23.0775 90.3838125,24.410625 L93.1081875,30.455625 C93.4681875,31.245 94.2556875,31.75125 95.1238125,31.7475 C96.1756875,31.75125 97.1788125,32.19375 97.8856875,32.97375 C98.5944375,33.751875 98.9431875,34.7925 98.8456875,35.840625 L94.2313125,85.224375 C94.0475625,87.148125 92.4238125,88.610625 90.4925625,88.59375" id="Fill-9" fill="#1A181D"></path>
                    <path d="M91.4998125,39.2330625 L25.6235625,24.9868125 C22.4604375,24.2968125 19.3141875,26.2149375 18.4779375,29.3405625 L15.4010625,40.8793125" id="Fill-11" fill="#1A181D80"></path>
                    <path d="M15.346125,41.770875 C15.271125,41.782125 15.196125,41.782125 15.123,41.770875 C14.9055,41.699625 14.7255,41.545875 14.62425,41.3415 C14.521125,41.139 14.50425,40.90275 14.577375,40.687125 L17.65425,29.148375 C18.608625,25.574625 22.203,23.384625 25.81425,24.17025 L91.684875,38.4165 C91.909875,38.46525 92.104875,38.602125 92.2305,38.79525 C92.35425,38.988375 92.397375,39.224625 92.344875,39.44775 C92.299875,39.67275 92.16675,39.869625 91.973625,39.993375 C91.782375,40.117125 91.548,40.16025 91.323,40.109625 L25.43925,25.840875 C22.71675,25.239 20.0055,26.887125 19.2855,29.579625 L16.20675,41.1165 C16.107375,41.508375 15.751125,41.78025 15.346125,41.770875" id="Fill-13" fill="#1A181D"></path>
                    <path d="M91.84575,39.2330625 L14.331375,39.2330625 C13.540125,39.1843125 12.763875,39.4730625 12.1995,40.0299375 C11.635125,40.5868125 11.33325,41.3555625 11.368875,42.1486875 L15.985125,86.3555625 C16.217625,87.7974375 17.4945,88.8380625 18.955125,88.7705625 L31.315125,88.7705625" id="Fill-15" fill="#2F2C34"></path>
                    <path d="M31.3156875,89.4946875 L18.9613125,89.4946875 C17.1256875,89.5678125 15.5319375,88.2365625 15.2769375,86.4159375 L10.6606875,42.2015625 C10.5763125,41.2996875 10.8819375,40.4034375 11.5006875,39.7396875 C12.2356875,38.9465625 13.2706875,38.5003125 14.3544375,38.5095427 L91.8463125,38.5095427 C92.2456875,38.5095427 92.5681875,38.8321875 92.5681875,39.2334375 C92.5681875,39.6328125 92.2456875,39.9553125 91.8463125,39.9553125 L14.3300625,39.9553125 C13.6531875,39.9478125 13.0044375,40.2271875 12.5469375,40.7259375 C12.2038125,41.0915625 12.0350625,41.5884375 12.0856875,42.0871875 L16.7000625,86.2940625 C16.8988125,87.3646875 17.8588125,88.1240625 18.9463125,88.0715625 L31.3156875,88.0715625 C31.5894375,88.0434375 31.8575625,88.1728125 32.0038125,88.4071875 C32.1500625,88.6415625 32.1500625,88.9396875 32.0038125,89.1721875 C31.8575625,89.4065625 31.5894375,89.5378125 31.3156875,89.5096875 L31.3156875,89.4946875 Z" id="Fill-17" fill="#1A181D"></path>
                    <path d="M31.3156875,88.7713125 L90.4925625,88.7713125 C91.9513125,88.8388125 93.2281875,87.7981875 93.4531875,86.3563125 L98.0694375,42.1475625 C98.1031875,41.3563125 97.7994375,40.5875625 97.2369375,40.0325625 C96.6725625,39.4756875 95.8981875,39.1869375 95.1069375,39.2338125 L81.3219375,39.2338125" id="Fill-19" fill="#2F2C34"></path>
                    <path d="M90.4925625,89.4946875 L31.3156875,89.4946875 C31.0400625,89.5228125 30.7738125,89.3915625 30.6275625,89.1571875 C30.4813125,88.9228125 30.4813125,88.6265625 30.6275625,88.3921875 C30.7738125,88.1578125 31.0400625,88.0284375 31.3156875,88.0546875 L90.4925625,88.0546875 C91.5800625,88.1090625 92.5400625,87.3496875 92.7388125,86.2790625 L97.3531875,42.0721875 C97.4019375,41.5715625 97.2294375,41.0746875 96.8844375,40.7090625 C96.4306875,40.2103125 95.7819375,39.9290625 95.1069375,39.9403125 L81.3219375,39.9403125 C80.9225625,39.9403125 80.6000625,39.6159375 80.6000625,39.2184375 C80.6000625,38.8190625 80.9225625,38.4945427 81.3219375,38.4945427 L95.1238125,38.4945427 C96.2056875,38.4853125 97.2425625,38.9315625 97.9756875,39.7246875 C98.5963125,40.3940625 98.8981875,41.2959375 98.8081875,42.2015625 L94.1938125,86.4159375 C93.9369375,88.2440625 92.3338125,89.5753125 90.4925625,89.4946875" id="Fill-21" fill="#1A181D"></path>
                    <path d="M83.1995625,45.4633125 C97.5264375,45.4633125 109.138313,57.0770625 109.138313,71.4020625 C109.138313,85.7289375 97.5264375,97.3408125 83.1995625,97.3408125 C68.8745625,97.3408125 57.2626875,85.7289375 57.2626875,71.4020625 C57.2626875,57.0770625 68.8745625,45.4633125 83.1995625,45.4633125" id="Fill-23" fill="#2F2C34"></path>
                    <path d="M83.63175,48.0560625 C97.242375,48.0560625 108.278625,59.0904375 108.278625,72.7029375 C108.278625,86.3135625 97.242375,97.3479375 83.63175,97.3479375 C70.01925,97.3479375 58.984875,86.3135625 58.984875,72.7029375 C58.984875,59.0904375 70.01925,48.0560625 83.63175,48.0560625" id="Fill-25" fill="#1A181D80"></path>
                    <path d="M82.87725,46.0016246 C72.559125,45.99975 63.255375,52.211625 59.30475,61.744125 C55.354125,71.27475 57.53475,82.24725 64.830375,89.54475 C72.126,96.840375 83.096625,99.022875 92.629125,95.076 C102.161625,91.12725 108.37725,81.82725 108.37725,71.509125 C108.360375,57.431625 96.95475,46.02225 82.87725,46.0016246 M82.87725,98.7491254 C71.85975,98.751 61.924125,92.11725 57.70725,81.937875 C53.4885,71.760375 55.815375,60.0435 63.606,52.251 C71.39475,44.460375 83.111625,42.127875 93.291,46.34475 C103.470375,50.55975 110.106,60.491625 110.106,71.509125 C110.091,86.542875 97.911,98.726625 82.87725,98.7491254" id="Fill-27" fill="#1A181D"></path>
                    <path d="M82.87725,50.971125 C94.221,50.971125 103.416,60.166125 103.416,71.509875 C103.416,82.853625 94.221,92.048625 82.87725,92.048625 C71.5335,92.048625 62.3385,82.853625 62.3385,71.509875 C62.3385,60.166125 71.5335,50.971125 82.87725,50.971125" id="Fill-29" fill="#2F2C34"></path>
                    <path d="M82.87725,51.8864994 C74.940375,51.884625 67.781625,56.662125 64.74225,63.99525 C61.702875,71.3265 63.381,79.76775 68.991,85.3815 C74.602875,90.99525 83.044125,92.677125 90.37725,89.639625 C97.710375,86.604 102.491625,79.447125 102.491625,71.51025 C102.484125,60.678375 93.70725,51.899625 82.87725,51.8864994 M82.87725,92.954625 C71.032875,92.954625 61.431,83.35275 61.431,71.51025 C61.431,59.664 71.032875,50.064 82.87725,50.064 C94.71975,50.064 104.3235,59.664 104.3235,71.51025 C104.306625,83.347125 94.714125,92.939625 82.87725,92.954625" id="Fill-31" fill="#1A181D"></path>
                    <polyline id="Fill-33" fill="#2F2C34" points="68.0623125 94.60875 63.9466875 99.69375 60.5848125 96.97125 64.7004375 91.88625"></polyline>
                    <path d="M64.06875,100.909313 L59.37,97.0636875 L64.029375,91.3093125 C64.3425,90.9793125 64.858125,90.9455625 65.210625,91.2305625 C65.563125,91.5174375 65.63625,92.0293125 65.3775,92.4024375 L61.8,96.8086875 L63.815625,98.4418125 L67.39125,94.0318125 C67.588125,93.7936875 67.895625,93.6774375 68.199375,93.7261875 C68.505,93.7749375 68.76,93.9849375 68.870625,94.2718125 C68.979375,94.5605625 68.926875,94.8849375 68.73,95.1249375 L64.06875,100.909313 Z" id="Fill-35" fill="#1A181D"></path>
                    <g id="Group-39" transform="translate(43.125000, 95.311688)">
                        <mask id="mask-2" fill="white">
                            <use xlink:href="#path-1"></use>
                        </mask>
                        <g id="Clip-38"></g>
                        <path d="M4.47525,22.4671875 C4.9215,22.8365625 5.49525,23.0146875 6.07275,22.9621875 C6.65025,22.9078125 7.180875,22.6284375 7.552125,22.1840625 L21.0765,5.8659375 C21.142125,5.7890625 21.174,5.6896875 21.164625,5.5884375 C21.157125,5.4853125 21.108375,5.3934375 21.029625,5.3278125 L16.76775,1.7990625 C16.690875,1.7334375 16.589625,1.7053125 16.49025,1.7146875 C16.390875,1.7240625 16.300875,1.7746875 16.237125,1.8515625 L2.70525,18.1584375 C2.335875,18.6046875 2.15775,19.1803125 2.21025,19.7578125 C2.264625,20.3334375 2.544,20.8659375 2.99025,21.2371875 L4.47525,22.4671875 Z M5.859,24.3760171 C5.017125,24.3815625 4.199625,24.0890625 3.55275,23.5509375 L2.06775,22.3209375 C0.5415,21.0553125 0.32775,18.7940625 1.589625,17.2678125 L15.144,0.9440625 C15.445875,0.5784375 15.880875,0.3478125 16.3515,0.3028125 C16.824,0.2578125 17.294625,0.4021875 17.66025,0.7059375 L21.922125,4.2365625 C22.679625,4.8684375 22.7865,5.9953125 22.16025,6.7584375 L8.628375,23.0746875 C7.94775,23.9015625 6.9315,24.3796875 5.859,24.3760171 L5.859,24.3760171 Z" id="Fill-37" fill="#1A181D" mask="url(#mask-2)"></path>
                    </g>
                    <path d="M82.87725,79.3340625 C83.91225,79.3340625 84.75225,80.1740625 84.75225,81.2090625 C84.75225,82.2459375 83.91225,83.0840625 82.87725,83.0840625 C81.840375,83.0840625 81.00225,82.2459375 81.00225,81.2090625 C81.00225,80.1740625 81.840375,79.3340625 82.87725,79.3340625" id="Fill-40" fill="#1A181D"></path>
                    <path d="M85.7154375,74.14125 C88.3873125,73.005 90.1198125,70.38 90.1160686,67.4775 L90.1160686,67.38 C90.0973125,63.3825 86.8404375,60.155625 82.8429375,60.1742937 C78.8454375,60.195 75.6185625,63.45 75.6390892,67.449375 C75.6390892,68.195625 76.2448125,68.80125 76.9929375,68.80125 C77.7391875,68.80125 78.3448125,68.195625 78.3448125,67.449375 C78.3448125,64.94625 80.3735625,62.9175 82.8766875,62.9175 C85.3779375,62.9175 87.4066875,64.94625 87.4066875,67.449375 L87.4066875,67.501875 C87.3879375,69.298125 86.3060625,70.9125 84.6541875,71.6175 C82.7473125,72.465 81.5191875,74.360625 81.5229375,76.4475 C81.5229375,77.195625 82.1304375,77.80125 82.8766875,77.80125 C83.6248125,77.80125 84.2304375,77.195625 84.2304375,76.4475 C84.2304375,75.45375 84.8116875,74.551875 85.7154375,74.14125" id="Fill-42" fill="#1A181D"></path>
                    <path d="M103.438125,49.20225 C103.38,49.20975 103.321875,49.20975 103.261875,49.20225 C103.036875,49.15725 102.84,49.026 102.7125,48.83475 C102.585,48.6435 102.54,48.411 102.585,48.186 L104.07,41.001 C104.165625,40.53225 104.623125,40.230375 105.091875,40.326 C105.316875,40.371 105.51375,40.504125 105.639375,40.69725 C105.765,40.8885 105.81,41.122875 105.76125,41.347875 L104.28375,48.532875 C104.191875,48.92475 103.84125,49.20225 103.438125,49.20225" id="Fill-44" fill="#1A181D"></path>
                    <path d="M108.42225,52.11 C108.079125,52.108125 107.76975,51.90375 107.631,51.590625 C107.494125,51.275625 107.554125,50.91 107.78475,50.656875 L112.61475,45.40875 C112.946625,45.050625 113.50725,45.028125 113.865375,45.36 C114.225375,45.691875 114.246,46.250625 113.916,46.60875 L109.091625,51.855 C108.915375,52.03125 108.671625,52.123125 108.42225,52.11" id="Fill-46" fill="#1A181D"></path>
                    <path d="M111.731063,57.571125 C111.391688,57.556125 111.091688,57.346125 110.962313,57.033 C110.872313,56.81925 110.874188,56.57925 110.964188,56.367375 C111.054188,56.1555 111.222938,55.98675 111.438563,55.902375 L118.214813,53.1405 C118.657313,52.9605 119.161688,53.172375 119.343563,53.613 C119.521688,54.0555 119.311688,54.559875 118.869188,54.739875 L112.083563,57.50175 C111.974813,57.552375 111.851063,57.57675 111.731063,57.571125" id="Fill-48" fill="#1A181D"></path>
                    <path d="M26.9925,63.6181875 C23.81625,63.6181875 22.7625,60.5394375 22.715625,60.4325625 C22.565625,59.9806875 22.809375,59.4913125 23.26125,59.3394375 C23.713125,59.1894375 24.2025,59.4350625 24.354375,59.8869375 C24.688125,61.0681875 25.768125,61.8856875 26.99625,61.8856875 C28.224375,61.8856875 29.304375,61.0681875 29.638125,59.8869375 C29.79,59.4350625 30.2775,59.1894375 30.73125,59.3394375 C31.183125,59.4913125 31.426875,59.9806875 31.276875,60.4325625 C31.23,60.5638125 30.17625,63.6181875 26.9925,63.6181875" id="Fill-50" fill="#1A181D"></path>
                    <path d="M40.83075,73.1323125 C40.506375,73.1285625 40.210125,72.9448125 40.062,72.6560625 C40.062,72.6560625 38.522625,69.6710625 35.646375,69.6710625 C32.770125,69.6710625 31.255125,72.6241875 31.23825,72.6560625 C30.99075,73.0104375 30.522,73.1285625 30.137625,72.9373125 C29.751375,72.7423125 29.56575,72.2960625 29.698875,71.8873125 C29.785125,71.7241875 31.716375,67.9479375 35.661375,67.9479375 C39.60825,67.9479375 41.545125,71.7241875 41.623875,71.8873125 C41.755125,72.1554375 41.740125,72.4704375 41.5845,72.7254375 C41.428875,72.9804375 41.151375,73.1360625 40.85325,73.1398125 L40.83075,73.1323125 Z" id="Fill-52" fill="#1A181D"></path>
                    <path d="M43.4235,63.6181875 C40.24725,63.6181875 39.191625,60.5394375 39.146625,60.4325625 C39.049125,60.1400625 39.11475,59.8175625 39.319125,59.5869375 C39.5235,59.3563125 39.836625,59.2513125 40.1385,59.3131875 C40.440375,59.3750625 40.687875,59.5944375 40.785375,59.8869375 C41.1135,61.0719375 42.1935,61.8913125 43.4235,61.8913125 C44.6535,61.8913125 45.731625,61.0719375 46.061625,59.8869375 C46.211625,59.4350625 46.701,59.1894375 47.15475,59.3394375 C47.606625,59.4913125 47.850375,59.9806875 47.700375,60.4325625 C47.6535,60.5638125 46.60725,63.6181875 43.4235,63.6181875" id="Fill-54" fill="#1A181D"></path>
                    <path d="M106.545563,30.7635 C107.978063,30.7635 109.138688,31.924125 109.138688,33.35475 C109.138688,34.78725 107.978063,35.947875 106.545563,35.947875 C105.114938,35.947875 103.954313,34.78725 103.954313,33.35475 C103.954313,31.924125 105.114938,30.7635 106.545563,30.7635" id="Fill-56" fill="#2F2C34"></path>
                    <path d="M106.545563,31.6250562 C105.846188,31.6231875 105.212438,32.0413125 104.942438,32.6881875 C104.672438,33.3350625 104.816813,34.0813125 105.311813,34.5763125 C105.804937,35.0731875 106.551187,35.2231875 107.199937,34.9550625 C107.846812,34.6888125 108.268687,34.0569375 108.268687,33.3556875 C108.268687,32.4031875 107.499938,31.6288125 106.545563,31.6250562 M106.545563,36.81695 C105.144938,36.8206875 103.881188,35.9788125 103.343063,34.6850625 C102.804938,33.3931875 103.099313,31.9025625 104.087438,30.9106875 C105.077438,29.9188125 106.568062,29.6225625 107.861812,30.1569375 C109.157437,30.6913125 110.001187,31.9550625 110.001187,33.3556875 C109.995562,35.2625625 108.454313,36.8094375 106.545563,36.81695" id="Fill-58" fill="#1A181D"></path>
                    <g id="Group-62" transform="translate(22.500000, 1.561688)">
                        <mask id="mask-4" fill="white">
                            <use xlink:href="#path-3"></use>
                        </mask>
                        <g id="Clip-61"></g>
                        <path d="M33.1074375,17.448375 L21.7918125,17.448375 C21.4636875,17.478375 21.1468125,17.320875 20.9724375,17.0415 C20.7980625,16.76025 20.7980625,16.404 20.9724375,16.124625 C21.1468125,15.84525 21.4636875,15.685875 21.7918125,15.71775 L33.1074375,15.71775 C35.6049375,15.802125 37.9486875,14.51775 39.2199375,12.369 C40.4930625,10.218375 40.4930625,7.5465 39.2199375,5.39775 C37.9486875,3.249 35.6049375,1.964625 33.1074375,2.049 L10.4686875,2.049 C7.9730625,1.964625 5.6293125,3.249 4.3561875,5.39775 C3.0830625,7.5465 3.0830625,10.218375 4.3561875,12.369 C5.6293125,14.51775 7.9730625,15.802125 10.4686875,15.71775 L13.5455625,15.71775 C13.9936875,15.759 14.3330625,16.134 14.3330625,16.582125 C14.3330625,17.03025 13.9936875,17.407125 13.5455625,17.448375 L10.4686875,17.448375 C7.3486875,17.542125 4.4236875,15.929625 2.8336875,13.240875 C1.2455625,10.552125 1.2455625,7.21275 2.8336875,4.524 C4.4236875,1.83525 7.3486875,0.22275 10.4686875,0.3165 L33.1074375,0.3165 C36.2293125,0.22275 39.1543125,1.83525 40.7424375,4.524 C42.3305625,7.21275 42.3305625,10.552125 40.7424375,13.240875 C39.1543125,15.929625 36.2293125,17.542125 33.1074375,17.448375" id="Fill-60" fill="#1A181D" mask="url(#mask-4)"></path>
                    </g>
                    <path d="M40.0618125,23.2635 L35.6386875,18.840375 C35.3011875,18.49725 35.3049375,17.944125 35.6499375,17.60475 C35.9949375,17.26725 36.5461875,17.272875 36.8855625,17.617875 L40.0843125,20.816625 L43.2849375,17.617875 C43.6224375,17.280375 44.1699375,17.280375 44.5074375,17.617875 C44.8449375,17.955375 44.8449375,18.502875 44.5074375,18.840375 L40.0618125,23.2635 Z" id="Fill-63" fill="#1A181D"></path>
                    <path d="M35.638875,8.572875 C36.673875,8.572875 37.513875,9.412875 37.513875,10.447875 C37.513875,11.482875 36.673875,12.322875 35.638875,12.322875 C34.603875,12.322875 33.763875,11.482875 33.763875,10.447875 C33.763875,9.412875 34.603875,8.572875 35.638875,8.572875" id="Fill-65" fill="#2F2C34"></path>
                    <path d="M35.638875,9.5791875 C35.158875,9.5791875 34.77075,9.9673125 34.768875,10.4454375 C34.768875,10.9254375 35.155125,11.3135625 35.63325,11.3173125 C36.111375,11.3210625 36.50325,10.9348125 36.507,10.4548125 C36.512625,10.2241875 36.42075,9.9991875 36.2595,9.8341875 C36.0945,9.6691875 35.871375,9.5773125 35.638875,9.5791875 M35.638875,13.0404375 C34.585125,13.0404375 33.636375,12.4048125 33.235125,11.4316875 C32.833875,10.4585625 33.058875,9.3391875 33.805125,8.5966875 C34.551375,7.8541875 35.6745,7.6348125 36.643875,8.0435625 C37.615125,8.4504375 38.245125,9.4029375 38.2395374,10.4548125 C38.230125,11.8854375 37.0695,13.0404375 35.638875,13.0404375" id="Fill-67" fill="#1A181D"></path>
                    <path d="M44.0690625,8.572875 C45.1040625,8.572875 45.9440625,9.412875 45.9440625,10.447875 C45.9440625,11.482875 45.1040625,12.322875 44.0690625,12.322875 C43.0340625,12.322875 42.1940625,11.482875 42.1940625,10.447875 C42.1940625,9.412875 43.0340625,8.572875 44.0690625,8.572875" id="Fill-69" fill="#2F2C34"></path>
                    <path d="M44.0690625,9.5791875 C43.5909375,9.5791875 43.2028125,9.9673125 43.2009375,10.4454375 C43.1990625,10.9254375 43.5853125,11.3135625 44.0653125,11.3173125 C44.5434375,11.3210625 44.9334375,10.9348125 44.9390625,10.4548125 C44.9428125,10.2241875 44.8528125,9.9991875 44.6896875,9.8341875 C44.5246875,9.6691875 44.3015625,9.5773125 44.0690625,9.5791875 M44.0690625,13.0404375 C43.0153125,13.0404375 42.0684375,12.4048125 41.6653125,11.4316875 C41.2640625,10.4585625 41.4909375,9.3391875 42.2353125,8.5966875 C42.9834375,7.8541875 44.1046875,7.6348125 45.0759375,8.0435625 C46.0453125,8.4504375 46.6753125,9.4029375 46.6697249,10.4548125 C46.6603125,11.8854375 45.4996875,13.0404375 44.0690625,13.0404375" id="Fill-71" fill="#1A181D"></path>
                    <path d="M52.5,8.572875 C53.535,8.572875 54.375,9.412875 54.375,10.447875 C54.375,11.482875 53.535,12.322875 52.5,12.322875 C51.465,12.322875 50.625,11.482875 50.625,10.447875 C50.625,9.412875 51.465,8.572875 52.5,8.572875" id="Fill-73" fill="#2F2C34"></path>
                    <path d="M52.5,9.5791875 C52.021875,9.5791875 51.631875,9.9673125 51.631875,10.4454375 C51.63,10.9254375 52.01625,11.3135625 52.494375,11.3173125 C52.974375,11.3210625 53.364375,10.9348125 53.368125,10.4548125 C53.37375,10.2241875 53.28375,9.9991875 53.120625,9.8341875 C52.955625,9.6691875 52.7325,9.5773125 52.5,9.5791875 M52.5,13.0404375 C51.44625,13.0404375 50.4975,12.4048125 50.09625,11.4316875 C49.695,10.4585625 49.92,9.3391875 50.66625,8.5966875 C51.414375,7.8541875 52.535625,7.6348125 53.505,8.0435625 C54.47625,8.4504375 55.10625,9.4029375 55.1006624,10.4548125 C55.09125,11.8854375 53.930625,13.0404375 52.5,13.0404375" id="Fill-75" fill="#1A181D"></path>
                    <g id="Group-81" transform="translate(24.375000, 31.561687)">
                        <line x1="1.756125" y1="6.986625" x2="3.48675" y2="1.792875" id="Fill-77" fill="#1A181D80"></line>
                        <path d="M1.7405625,7.848 C1.4724375,7.831125 1.2268125,7.6905 1.0768125,7.467375 C0.9268125,7.24425 0.8874375,6.964875 0.9718125,6.709875 L2.7024375,1.523625 C2.8524375,1.07175 3.3418125,0.828 3.7936875,0.978 C4.2474375,1.129875 4.4911875,1.61925 4.3411875,2.071125 L2.6180625,7.2555 C2.4905625,7.62675 2.1324375,7.868625 1.7405625,7.848" id="Fill-79" fill="#1A181D"></path>
                    </g>
                    <g id="Group-86" transform="translate(31.875000, 33.436687)">
                        <line x1="1.9483125" y1="5.0805" x2="2.9945625" y2="1.673625" id="Fill-82" fill="#1A181D80"></line>
                        <path d="M1.93275,5.950125 C1.848375,5.961375 1.764,5.961375 1.679625,5.950125 C1.22025,5.8095 0.9615,5.323875 1.102125,4.8645 L2.155875,1.457625 C2.304,1.01325 2.78025,0.767625 3.2265,0.906375 C3.674625,1.04325 3.929625,1.513875 3.802125,1.96575 L2.755875,5.372625 C2.634,5.721375 2.302125,5.953875 1.93275,5.950125" id="Fill-84" fill="#1A181D"></path>
                    </g>
                    <path d="M3.4689375,76.1480625 C4.9014375,76.1480625 6.0620625,77.3086875 6.0620625,78.7411875 C6.0620625,80.1718125 4.9014375,81.3324375 3.4689375,81.3324375 C2.0383125,81.3324375 0.8776875,80.1718125 0.8776875,78.7411875 C0.8776875,77.3086875 2.0383125,76.1480625 3.4689375,76.1480625" id="Fill-87" fill="#2F2C34"></path>
                    <g id="Group-91" transform="translate(0.000000, 74.686688)">
                        <mask id="mask-6" fill="white">
                            <use xlink:href="#path-5"></use>
                        </mask>
                        <g id="Clip-90"></g>
                        <path d="M3.4689375,2.32199375 C2.7676875,2.320125 2.1358125,2.740125 1.8658125,3.385125 C1.5939375,4.032 1.7401875,4.77825 2.2351875,5.275125 C2.7283125,5.772 3.4745625,5.920125 4.1214375,5.652 C4.7701875,5.38575 5.1920625,4.753875 5.1920625,4.0545 C5.1920625,3.100125 4.4214375,2.327625 3.4689375,2.32199375 M3.4689375,7.51575313 C2.0683125,7.517625 0.8045625,6.67575 0.2664375,5.383875 C-0.2735625,4.090125 0.0226875,2.5995 1.0108125,1.607625 C2.0008125,0.617625 3.4895625,0.3195 4.7851875,0.85575 C6.0789375,1.390125 6.9226875,2.653875 6.9226875,4.0545 C6.9189375,5.9595 5.3758125,7.50825 3.4689375,7.51575313" id="Fill-89" fill="#1A181D" mask="url(#mask-6)"></path>
                    </g>
                </g>
            </g>
        </g>
    </g>
</svg>