<?xml version="1.0" encoding="utf-8"?>
<!-- Generator: Adobe Illustrator 23.0.1, SVG Export Plug-In . SVG Version: 6.00 Build 0)  -->
<svg version="1.1" id="Layer_1" xmlns="http://www.w3.org/2000/svg" xmlns:xlink="http://www.w3.org/1999/xlink" x="0px" y="0px"
	 viewBox="0 0 1702 360" style="enable-background:new 0 0 1702 360;" xml:space="preserve">
<style type="text/css">
	.st0{fill-rule:evenodd;clip-rule:evenodd;fill:#191919;}
	.st1{fill:#B2002B;}
	.st2{fill:url(#Sky_1_);}
	.st3{opacity:0.2456;fill-rule:evenodd;clip-rule:evenodd;fill:url(#Moon-Shadow_1_);fill-opacity:0.15;enable-background:new    ;}
	.st4{fill:url(#Sea_1_);}
	.st5{fill:url(#Land_1_);}
	.st6{opacity:0.2473;fill:url(#Star-Shadow-3_1_);fill-opacity:0.15;enable-background:new    ;}
	.st7{fill-rule:evenodd;clip-rule:evenodd;fill:#FFFFFF;}
	.st8{opacity:0.2473;fill:url(#Star-Shadow-2_1_);fill-opacity:0.15;enable-background:new    ;}
	.st9{opacity:0.2473;fill:url(#Star-Shadow-1_1_);fill-opacity:0.15;enable-background:new    ;}
	
		.st10{opacity:0.2533;fill-rule:evenodd;clip-rule:evenodd;fill:url(#Amber-Shadow_1_);fill-opacity:0.15;enable-background:new    ;}
	.st11{fill:#FFFFFF;}
	.st12{fill:url(#Combined-Shape_1_);}
</style>
<title>Fabulous Logo 2.0 - Horizontal (Light)</title>
<desc>Created with Sketch.</desc>
<g>
	<g id="Group-10" transform="translate(461.000000, 94.000000)">
		<path id="FABULOUS" class="st0" d="M5.3,170.4c-1.6,0-2.9-0.5-3.8-1.6s-1.4-2.4-1.4-4V8.2C0,6.4,0.5,5,1.4,4s2.2-1.6,3.8-1.6h97.4
			c1.8,0,3.2,0.5,4.2,1.6c1,1,1.6,2.4,1.6,4.2V17c0,1.6-0.5,2.9-1.6,4c-1,1-2.4,1.6-4.2,1.6H22.3v56.9h75.6c1.8,0,3.2,0.5,4.2,1.6
			c1,1,1.6,2.4,1.6,4v9.1c0,1.6-0.6,2.9-1.7,4c-1.1,1-2.5,1.6-4.1,1.6H22.3v65.3c0,1.6-0.6,2.9-1.7,4c-1.1,1-2.5,1.6-4.1,1.6H5.3z
			 M123.8,170.4c-1.3,0-2.4-0.5-3.4-1.4c-1-1-1.4-2.1-1.4-3.4l0.5-2.6L179,7.7c1.3-3.5,3.8-5.3,7.7-5.3h15.4c3.8,0,6.4,1.8,7.7,5.3
			L269.3,163l0.5,2.6c0,1.3-0.5,2.4-1.6,3.4c-1,1-2.2,1.4-3.5,1.4h-11.3c-1.6,0-2.9-0.4-4-1.3c-1-0.9-1.7-1.8-2-2.8L234,131.8h-79.4
			l-13.2,34.6c-1.3,2.7-3.3,4.1-6,4.1H123.8z M161.5,111.8h65.8l-32.9-86.2L161.5,111.8z M307,170.4c-1.6,0-2.9-0.5-3.8-1.6
			c-1-1-1.4-2.4-1.4-4V8.2c0-1.8,0.5-3.2,1.4-4.2c1-1,2.2-1.6,3.8-1.6h65.5c17,0,29.8,4.1,38.4,12.2s13,18.8,13,31.9
			c0,9-2.1,16.4-6.2,22.4c-4.2,6-9,10.4-14.6,13.1c6.9,3.4,12.6,8.6,17.3,15.6c4.6,7,7,15.1,7,24.2c0,9-2,17.1-6.1,24.5
			c-4.1,7.4-10.1,13.2-18.1,17.5c-8,4.3-17.5,6.5-28.6,6.5H307z M368.9,73.7c10.4,0,18.3-2.4,23.8-7.1c5.4-4.7,8.2-11.3,8.2-19.8
			c0-8.3-2.7-14.6-8-19c-5.4-4.3-13.3-6.5-23.9-6.5h-44.6v52.3H368.9z M371.3,151.4c10.2,0,18.3-2.8,24.1-8.3
			c5.8-5.5,8.8-12.6,8.8-21.2c0-8.8-2.9-15.9-8.8-21.4c-5.8-5.4-13.9-8.2-24.1-8.2h-47v59H371.3z M530.9,172.8
			c-20.6,0-36.6-5.6-47.8-16.7c-11.2-11.1-16.8-28-16.8-50.5V8.2c0-1.8,0.5-3.2,1.4-4.2c1-1,2.2-1.6,3.8-1.6h11.5
			c1.8,0,3.2,0.5,4.2,1.6s1.6,2.4,1.6,4.2v97.9c0,15.7,3.6,27.4,10.9,35c7.3,7.7,17.6,11.5,31.1,11.5c13.3,0,23.6-3.9,30.8-11.6
			c7.3-7.8,10.9-19.4,10.9-34.9V8.2c0-1.8,0.5-3.2,1.4-4.2c1-1,2.3-1.6,4.1-1.6h11.5c1.6,0,2.9,0.5,4,1.6c1,1,1.6,2.4,1.6,4.2v97.4
			c0,22.6-5.6,39.4-16.7,50.5S551.5,172.8,530.9,172.8z M647,170.4c-1.6,0-2.9-0.5-3.8-1.6s-1.4-2.4-1.4-4V7.9c0-1.6,0.5-2.9,1.4-4
			s2.2-1.6,3.8-1.6h12c1.6,0,2.9,0.5,3.8,1.6s1.4,2.4,1.4,4v142.3h80.2c1.8,0,3.2,0.5,4.2,1.6c1,1,1.6,2.4,1.6,4v9.1
			c0,1.6-0.6,2.9-1.7,4s-2.5,1.6-4.1,1.6H647z M840,172.8c-20.8,0-36.9-5.5-48.2-16.4s-17.4-27.5-18-49.6
			c-0.2-4.8-0.2-11.6-0.2-20.4s0.1-15.5,0.2-20.2c0.6-21.8,6.8-38.2,18.6-49.4S820,0,840,0s35.8,5.6,47.5,16.8s17.8,27.7,18.5,49.4
			c0.3,9.3,0.5,16,0.5,20.2c0,4-0.2,10.8-0.5,20.4c-0.6,22.1-6.6,38.6-17.9,49.6C876.8,167.3,860.8,172.8,840,172.8z M840,152.9
			c12.8,0,23-3.9,30.7-11.6c7.7-7.8,11.8-19.6,12.5-35.6c0.3-9.6,0.5-16,0.5-19.2c0-3.5-0.2-9.9-0.5-19.2
			c-0.6-16-4.8-27.9-12.5-35.8c-7.7-7.8-17.9-11.8-30.7-11.8s-23.1,3.9-30.8,11.8c-7.8,7.8-11.9,19.8-12.4,35.8
			c-0.2,4.6-0.2,11-0.2,19.2c0,8,0.1,14.4,0.2,19.2c0.5,16,4.6,27.9,12.2,35.6C816.7,149,827,152.9,840,152.9z M1011.1,172.8
			c-20.6,0-36.6-5.6-47.8-16.7c-11.2-11.1-16.8-28-16.8-50.5V8.2c0-1.8,0.5-3.2,1.4-4.2s2.2-1.6,3.8-1.6h11.5c1.8,0,3.2,0.5,4.2,1.6
			s1.6,2.4,1.6,4.2v97.9c0,15.7,3.6,27.4,10.9,35s17.6,11.5,31.1,11.5c13.3,0,23.6-3.9,30.8-11.6s10.9-19.4,10.9-34.9V8.2
			c0-1.8,0.5-3.2,1.4-4.2c1-1,2.3-1.6,4.1-1.6h11.5c1.6,0,2.9,0.5,4,1.6s1.6,2.4,1.6,4.2v97.4c0,22.6-5.6,39.4-16.7,50.5
			C1047.6,167.2,1031.8,172.8,1011.1,172.8z M1175.5,172.8c-13.1,0-24.5-2.1-34.2-6.2s-17-9.6-22.1-16.4s-7.7-14.1-8-22
			c0-1.3,0.5-2.4,1.4-3.4c1-1,2.2-1.4,3.6-1.4h11.8c2.9,0,4.9,1.6,6,4.8c1.4,6.7,5.6,12.5,12.4,17.4s16.5,7.3,29.2,7.3
			c13.6,0,23.8-2.4,30.5-7.2c6.7-4.8,10.1-11.4,10.1-19.9c0-5.4-1.6-9.9-4.9-13.4s-8.2-6.6-14.6-9.2c-6.5-2.6-16.2-5.9-29.2-9.7
			c-12.3-3.5-22.1-7.3-29.4-11.3c-7.3-4-12.8-8.9-16.4-14.8s-5.5-13.2-5.5-22.2c0-8.6,2.3-16.4,7-23.2s11.4-12.2,20.2-16.1
			s19.2-5.9,31.2-5.9c12.5,0,23.2,2.2,32,6.6s15.6,9.9,20.3,16.6s7.1,13.3,7.4,20c0,1.4-0.5,2.6-1.4,3.6c-1,1-2.2,1.4-3.6,1.4h-12
			c-1.3,0-2.5-0.4-3.6-1.2c-1.1-0.8-1.9-2-2.4-3.6c-1-6.9-4.8-12.6-11.5-17c-6.7-4.5-15.1-6.7-25.2-6.7c-10.9,0-19.5,2.1-25.9,6.4
			s-9.6,10.5-9.6,18.8c0,5.6,1.5,10.2,4.4,13.7c3,3.5,7.5,6.6,13.7,9.4c6.2,2.7,15.2,5.8,27,9.4c13.6,3.8,24.3,7.7,32,11.5
			c7.8,3.8,13.6,8.6,17.4,14.3c3.8,5.7,5.8,13,5.8,22c0,15-5.7,26.8-17.2,35.2S1195,172.8,1175.5,172.8z"/>
		<path id="Rectangle" class="st1" d="M952,193h119c2.8,0,5,2.2,5,5v11c0,2.8-2.2,5-5,5H952c-2.8,0-5-2.2-5-5v-11
			C947,195.2,949.2,193,952,193z"/>
	</g>
	<g>
		
			<radialGradient id="Sky_1_" cx="669.1539" cy="260.0168" r="0.9123" gradientTransform="matrix(320.4141 0 0 -320.4141 -214317.0156 83407.6562)" gradientUnits="userSpaceOnUse">
			<stop  offset="0" style="stop-color:#1300A5"/>
			<stop  offset="0.76" style="stop-color:#EE0000"/>
			<stop  offset="1" style="stop-color:#EEDC00"/>
		</radialGradient>
		<path id="Sky" class="st2" d="M180,320.4c98.2,0,123-41.1,180-136.9c0-1.2,0-2.3,0-3.5C360,80.6,279.4,0,180,0
			c-11.6,0-22.9,1.1-33.9,3.2c-4.3,32.8-29,60.7-74.2,83.9c-9.7,50.9-33.3,75.9-71,74.9C0.3,167.9,0,173.9,0,180
			c0,21.4,3.7,41.9,10.6,61c38.2,24.8,72.4,38.7,112.1,59.5C147.6,313.6,149.9,320.4,180,320.4z"/>
		
			<linearGradient id="Moon-Shadow_1_" gradientUnits="userSpaceOnUse" x1="669.647" y1="259.769" x2="669.4297" y2="259.9674" gradientTransform="matrix(359.9297 0 0 -360 -240841.8125 93700)">
			<stop  offset="0" style="stop-color:#000000;stop-opacity:0"/>
			<stop  offset="1" style="stop-color:#000000"/>
		</linearGradient>
		<path id="Moon-Shadow" class="st3" d="M3.2,214.2C1.1,203.1,0,191.7,0,180c0-15.1,1.8-29.7,5.3-43.8L118.1,11
			C137.4,3.9,158.2,0,180,0c7.6,0,15.1,0.5,22.4,1.4L357,147.6c1.9,10.5,2.9,21.4,2.9,32.4c0,20.5-3.4,40.1-9.7,58.4L262.5,340
			c-24.8,12.7-52.8,20-82.5,20c-7.1,0-14.1-0.4-21.1-1.2L3.2,214.2z"/>
		
			<linearGradient id="Sea_1_" gradientUnits="userSpaceOnUse" x1="669.5197" y1="260.8965" x2="669.5197" y2="260.0252" gradientTransform="matrix(338.8299 0 0 -119.0391 -226673.25 31291.1172)">
			<stop  offset="0" style="stop-color:#5BDBBE"/>
			<stop  offset="1" style="stop-color:#161096"/>
		</linearGradient>
		<path id="Sea" class="st4" d="M173.7,359.9C98.4,357.3,34.9,308.5,10.6,241h338.8c-24.3,67.5-87.8,116.3-163.1,118.9
			c-2.1,0.1-4.2,0.1-6.3,0.1S175.8,360,173.7,359.9L173.7,359.9z"/>
		
			<linearGradient id="Land_1_" gradientUnits="userSpaceOnUse" x1="669.2137" y1="260.1067" x2="669.44" y2="259.7777" gradientTransform="matrix(288.0887 0 0 -176.4678 -192564.6562 46165.1641)">
			<stop  offset="0" style="stop-color:#26A086"/>
			<stop  offset="1" style="stop-color:#1D5074"/>
		</linearGradient>
		<path id="Land" class="st5" d="M71.9,323.9L360,183.5C358.1,281.3,278.2,360,180,360C139.4,360,102,346.6,71.9,323.9L71.9,323.9z"
			/>
		<g id="Star-Group" transform="translate(221.484375, 56.132878)">
			<g id="Star-3" transform="translate(52.121223, 57.708820)">
				
					<linearGradient id="Star-Shadow-3_1_" gradientUnits="userSpaceOnUse" x1="387.3531" y1="147.134" x2="386.8107" y2="147.7011" gradientTransform="matrix(63.2109 0 0 -63.7734 -24444.3828 9424.8848)">
					<stop  offset="0" style="stop-color:#000000;stop-opacity:0"/>
					<stop  offset="1" style="stop-color:#000000"/>
				</linearGradient>
				<polygon id="Star-Shadow-3" class="st6" points="4.3,20.5 53.4,67.6 67.5,53.2 21,3.9 				"/>
				<circle id="Oval" class="st7" cx="12.4" cy="12" r="11.8"/>
			</g>
			<g id="Star-2" transform="translate(0.000000, 37.301767)">
				
					<linearGradient id="Star-Shadow-2_1_" gradientUnits="userSpaceOnUse" x1="444.3879" y1="166.9846" x2="443.9995" y2="167.3598" gradientTransform="matrix(121.2188 0 0 -120.2344 -53814.9258 20131.0293)">
					<stop  offset="0" style="stop-color:#000000;stop-opacity:0"/>
					<stop  offset="1" style="stop-color:#000000"/>
				</linearGradient>
				<polygon id="Star-Shadow-2" class="st8" points="3.8,20.8 107.9,124.4 125,107.2 20.5,4.1 				"/>
				<circle class="st7" cx="12" cy="12.3" r="11.8"/>
			</g>
			<g id="Star-1" transform="translate(42.150844, 0.000000)">
				
					<linearGradient id="Star-Shadow-1_1_" gradientUnits="userSpaceOnUse" x1="396.2007" y1="204.7806" x2="395.4164" y2="205.5988" gradientTransform="matrix(55.9688 0 0 -56.8125 -22124.1973 11686.8418)">
					<stop  offset="0" style="stop-color:#000000;stop-opacity:0"/>
					<stop  offset="1" style="stop-color:#000000"/>
				</linearGradient>
				<polygon id="Star-Shadow-1" class="st9" points="4.5,21 46.4,61.5 60.5,47 21.4,4.6 				"/>
				<circle class="st7" cx="12.2" cy="12.1" r="11.8"/>
			</g>
		</g>
		<g id="Amber" transform="translate(212.343750, 173.671875)">
			
				<linearGradient id="Amber-Shadow_1_" gradientUnits="userSpaceOnUse" x1="453.1591" y1="86.291" x2="453.057" y2="86.7078" gradientTransform="matrix(112.1484 0 0 -166.9922 -50753.7852 14520.6924)">
				<stop  offset="0" style="stop-color:#000000;stop-opacity:0"/>
				<stop  offset="1" style="stop-color:#000000"/>
			</linearGradient>
			<path id="Amber-Shadow" class="st10" d="M124.9,93.9c-19.2,34.4-49.4,61.9-85.8,77.6l-26.4-24.8l5.9-114.4l14-27.8L124.9,93.9
				L124.9,93.9z"/>
			<path id="Amber-Body" class="st11" d="M16.2,27.8c-4.6-2.4-7.9-7.2-7.9-12.9C8.3,7,14.8,0.6,22.7,0.6S37.1,7,37.1,15
				c0,7.1-5.1,13-12,14.2c3.9,3.3,8.5,9.7,14.3,19.5c12.7,26.6,27.4,29.5,38.2,53.8c-10.8,13.4-21.4,15.1-41.3,19.1l2,20.2l-3.1,0.6
				l-4.6-19.6c-3.9,0.8-8.2,1.8-12.9,3l-2,21h-3.2L12,127.3c-3.6,1-7.4,2-11.4,3.2C7.2,93.6-1.8,84,6.1,52.4
				C9.3,39.3,12.4,30.9,16.2,27.8z"/>
		</g>
		
			<linearGradient id="Combined-Shape_1_" gradientUnits="userSpaceOnUse" x1="668.4321" y1="259.6253" x2="667.8688" y2="260.2366" gradientTransform="matrix(198.0929 0 0 -203.5334 -132248.4688 53021.8711)">
			<stop  offset="0" style="stop-color:#FF7070"/>
			<stop  offset="1" style="stop-color:#E7D400"/>
		</linearGradient>
		<path id="Combined-Shape" class="st12" d="M0.9,162C8.8,82.3,68.7,17.9,146.1,3.2C177.8,22.4,199,57.3,199,97
			c0,60.6-49.1,109.7-109.7,109.7C53,206.7,20.9,189.1,0.9,162z"/>
	</g>
</g>
</svg>
