<svg id="insta" xmlns="http://www.w3.org/2000/svg" width="23" height="23.368" viewBox="0 0 23 23.368">
  <path id="Path_17949" data-name="Path 17949" d="M22.941,6.87a8.644,8.644,0,0,0-.536-2.836,5.756,5.756,0,0,0-1.328-2.072A5.614,5.614,0,0,0,19.043.617,8.3,8.3,0,0,0,16.252.073C15.018.014,14.627,0,11.5,0S7.986.014,6.762.069A8.276,8.276,0,0,0,3.971.613,5.646,5.646,0,0,0,1.931,1.962,5.722,5.722,0,0,0,.608,4.03,8.669,8.669,0,0,0,.072,6.865C.014,8.119,0,8.516,0,11.686S.014,15.258.068,16.5A8.645,8.645,0,0,0,.6,19.338,5.814,5.814,0,0,0,1.931,21.41a5.614,5.614,0,0,0,2.035,1.345,8.3,8.3,0,0,0,2.791.544c1.225.055,1.616.069,4.74.069s3.516-.014,4.74-.069a8.275,8.275,0,0,0,2.791-.544A5.94,5.94,0,0,0,22.4,19.333a8.669,8.669,0,0,0,.536-2.836c.054-1.249.067-1.642.067-4.816S23,8.119,22.941,6.87Zm-2.071,9.546a6.472,6.472,0,0,1-.4,2.168A3.851,3.851,0,0,1,18.291,20.8a6.247,6.247,0,0,1-2.134.4c-1.215.055-1.576.069-4.646.069s-3.439-.014-4.646-.069a6.2,6.2,0,0,1-2.134-.4,3.487,3.487,0,0,1-1.319-.874,3.664,3.664,0,0,1-.86-1.34,6.525,6.525,0,0,1-.4-2.168c-.054-1.235-.068-1.6-.068-4.72s.014-3.494.068-4.72a6.471,6.471,0,0,1,.4-2.168,3.466,3.466,0,0,1,.86-1.345,3.6,3.6,0,0,1,1.319-.874,6.247,6.247,0,0,1,2.134-.4c1.215-.055,1.576-.069,4.646-.069s3.439.014,4.646.069a6.2,6.2,0,0,1,2.134.4,3.488,3.488,0,0,1,1.319.874,3.644,3.644,0,0,1,.86,1.345,6.526,6.526,0,0,1,.4,2.168c.054,1.235.067,1.6.067,4.72S20.925,15.181,20.871,16.415Z" fill="#ffc9aa"/>
  <path id="Path_17950" data-name="Path 17950" d="M11.5,5.686a6.006,6.006,0,1,0,5.911,6.005A5.96,5.96,0,0,0,11.5,5.686Zm0,9.9a3.9,3.9,0,1,1,3.835-3.9A3.867,3.867,0,0,1,11.5,15.583Z" fill="#ffc9aa"/>
  <path id="Path_17951" data-name="Path 17951" d="M19.029,5.447a1.378,1.378,0,1,1-1.378-1.4A1.389,1.389,0,0,1,19.029,5.447Z" fill="#ffc9aa"/>
</svg>
