<svg xmlns="http://www.w3.org/2000/svg" width="12.36" height="11.237" viewBox="0 0 12.36 11.237">
  <path id="Icon_material-thumb-up" data-name="Icon material-thumb-up" d="M1.5,12.737H3.747V5.995H1.5Zm12.36-6.18a1.127,1.127,0,0,0-1.124-1.124H9.192l.534-2.568.017-.18a.846.846,0,0,0-.247-.6L8.9,1.5,5.2,5.2a1.1,1.1,0,0,0-.331.792v5.618a1.127,1.127,0,0,0,1.124,1.124h5.057a1.116,1.116,0,0,0,1.034-.685l1.7-3.961a1.11,1.11,0,0,0,.079-.41V6.607L13.855,6.6Z" transform="translate(-1.5 -1.5)" fill="#ffffff"/>
</svg>