<svg xmlns="http://www.w3.org/2000/svg" width="12.36" height="11.236" viewBox="0 0 12.36 11.236">
  <path id="Icon_material-thumb-up" data-name="Icon material-thumb-up" d="M1.5,1.5H3.747V8.242H1.5ZM13.86,7.68A1.127,1.127,0,0,1,12.737,8.8H9.192l.534,2.568.017.18a.846.846,0,0,1-.247.6l-.6.59-3.7-3.7a1.1,1.1,0,0,1-.331-.792V2.624A1.127,1.127,0,0,1,5.995,1.5h5.057a1.116,1.116,0,0,1,1.034.685l1.7,3.961a1.11,1.11,0,0,1,.079.41V7.629l-.006.006Z" transform="translate(-1.5 -1.5)" fill="#ffffff"/>
</svg>