<svg width="58" height="53" viewBox="0 0 58 53" fill="none" xmlns="http://www.w3.org/2000/svg">
<path d="M3.90821 0.144913C2.95665 0.362297 2.24297 0.734951 1.51797 1.39745C0.781647 2.0703 0.328522 2.80526 0.124615 3.70585C-0.0566345 4.49257 -0.0566345 48.5178 0.124615 49.2941C0.543756 51.0746 2.10704 52.5031 4.05547 52.8861C4.90508 53.0518 53.0836 53.0518 53.9445 52.8861C55.8703 52.5135 57.4676 51.0436 57.8754 49.2941C58.0566 48.5074 58.0566 4.48222 57.8754 3.70585C57.4563 1.92538 55.8816 0.486515 53.9445 0.113857C53.027 -0.0621185 4.67852 -0.0310631 3.90821 0.144913ZM53.6953 3.31249C53.9899 3.44706 54.2277 3.66444 54.375 3.93359C54.5902 4.31659 54.6016 4.53398 54.6016 8.38476V12.4219H29H3.39844V8.3537C3.40977 3.77831 3.39844 3.83007 4.25938 3.3539L4.70118 3.10546H28.9774C53.0836 3.10546 53.2535 3.10546 53.6953 3.31249ZM54.6016 32.0898C54.6016 48.4971 54.6016 48.6627 54.375 49.0664C54.2277 49.3355 53.9899 49.5529 53.6953 49.6875C53.2535 49.8945 53.0836 49.8945 28.9887 49.8945H4.73516L4.28204 49.6668C4.01016 49.5219 3.73829 49.2734 3.61368 49.0457C3.40977 48.673 3.39844 48.1555 3.39844 32.0898V15.5273H29H54.6016V32.0898Z" fill="#2196F3"/>
<path d="M7.79375 6.42832C7.30664 6.65605 6.91016 7.2668 6.91016 7.76367C6.91016 8.28125 7.30664 8.87129 7.81641 9.10938C8.19023 9.28535 8.48477 9.31641 9.74219 9.31641C10.9996 9.31641 11.2941 9.28535 11.668 9.10938C12.1777 8.87129 12.5742 8.28125 12.5742 7.76367C12.5742 7.24609 12.1777 6.65605 11.668 6.41797C11.2828 6.24199 11.0109 6.21094 9.71953 6.21094C8.43945 6.22129 8.14492 6.25234 7.79375 6.42832Z" fill="#2196F3"/>
<path d="M16.8563 6.42832C16.3691 6.65605 15.9727 7.2668 15.9727 7.76367C15.9727 8.28125 16.3691 8.87129 16.8789 9.10938C17.2527 9.28535 17.5473 9.31641 18.8047 9.31641C20.0621 9.31641 20.3566 9.28535 20.7305 9.10938C21.2402 8.87129 21.6367 8.28125 21.6367 7.76367C21.6367 7.24609 21.2402 6.65605 20.7305 6.41797C20.3453 6.24199 20.0734 6.21094 18.782 6.21094C17.502 6.22129 17.2074 6.25234 16.8563 6.42832Z" fill="#2196F3"/>
<path d="M25.9188 6.42832C25.4316 6.65605 25.0352 7.2668 25.0352 7.76367C25.0352 8.28125 25.4316 8.87129 25.9414 9.10938C26.3152 9.28535 26.6098 9.31641 27.8672 9.31641C29.1246 9.31641 29.4191 9.28535 29.793 9.10938C30.3027 8.87129 30.6992 8.28125 30.6992 7.76367C30.6992 7.24609 30.3027 6.65605 29.793 6.41797C29.4078 6.24199 29.1359 6.21094 27.8445 6.21094C26.5645 6.22129 26.2699 6.25234 25.9188 6.42832Z" fill="#2196F3"/>
<path d="M6.35508 26.7691C5.78867 27.1418 5.77734 27.2453 5.77734 32.8145C5.77734 38.425 5.78867 38.5078 6.38906 38.8701C6.63828 39.0254 7.00078 39.0357 9.25508 39.0047C11.7812 38.9736 11.8492 38.9633 12.4836 38.6941C13.3445 38.3318 14.0469 37.7107 14.5113 36.9344C14.8852 36.3133 14.8965 36.2305 14.8965 35.1953C14.8965 34.1602 14.8738 34.0773 14.5227 33.477C14.3188 33.125 13.9449 32.6695 13.707 32.4521L13.2766 32.0691L13.5824 31.5412C13.843 31.0754 13.877 30.8891 13.877 30.0195C13.877 29.2018 13.8316 28.9533 13.6164 28.5496C13.2539 27.8768 12.5516 27.2557 11.8039 26.9348C11.1809 26.6656 11.0676 26.6553 8.89258 26.6242C6.92148 26.5932 6.59297 26.6139 6.35508 26.7691ZM10.875 28.8291C11.9625 29.3363 11.9625 30.7027 10.875 31.21C10.6371 31.3238 10.1727 31.3652 9.28906 31.3652H8.04297V30.0195V28.6738H9.28906C10.1727 28.6738 10.6371 28.7152 10.875 28.8291ZM11.668 33.6633C12.427 34.0152 12.7215 34.4811 12.6648 35.2471C12.6082 36.0131 12.291 36.4789 11.6227 36.7584C11.2375 36.9137 10.875 36.9551 9.60625 36.9551H8.04297V35.1953V33.4355H9.60625C10.9996 33.4355 11.2262 33.4562 11.668 33.6633Z" fill="#2196F3"/>
<path d="M17.7965 26.7691C17.2301 27.1418 17.2188 27.2453 17.2188 32.8145C17.2188 38.4146 17.2301 38.5078 17.8191 38.8701C18.0684 39.015 18.4309 39.0357 20.5039 39.0047L22.9055 38.9736L23.1773 38.6838C23.5512 38.2904 23.5512 37.69 23.1773 37.2967L22.9055 37.0068L21.1949 36.9758L19.4844 36.9447V32.0898V27.235L19.2238 26.9658C18.8953 26.6139 18.1816 26.5103 17.7965 26.7691Z" fill="#2196F3"/>
<path d="M28.8301 26.7484C27.8898 26.9451 27.0289 27.3178 26.2019 27.8768C22.5996 30.3197 22.6562 35.4437 26.3152 37.8246C30.2574 40.3814 35.6496 38.5906 36.873 34.3154C36.9637 33.9738 37.043 33.2699 37.043 32.742C37.043 30.1334 35.2191 27.8146 32.4777 26.9451C31.4809 26.6242 29.8383 26.5414 28.8301 26.7484ZM31.9793 28.9844C32.8855 29.2949 33.8711 30.1437 34.3469 31.034C34.698 31.6758 34.7207 31.7896 34.7207 32.8145C34.7207 33.8393 34.698 33.9531 34.3469 34.5949C33.3613 36.4271 31.1184 37.3381 29.0227 36.7584C26.8477 36.158 25.5336 34.274 25.8508 32.1934C26.066 30.7027 27.3121 29.3674 28.9207 28.8809C29.8043 28.6117 31.0277 28.6531 31.9793 28.9844Z" fill="#2196F3"/>
<path d="M44.6895 26.7588C41.5856 27.3799 39.3992 29.885 39.3992 32.8145C39.3992 35.3609 41.0305 37.5969 43.5906 38.5492C47.0344 39.8225 50.5348 38.4354 51.7129 35.3402C52.0981 34.3361 52.268 32.9076 52.0641 32.4521C51.7582 31.8 51.5883 31.7586 49.2207 31.8L47.1024 31.8311L46.8305 32.1209C46.4567 32.5143 46.4567 33.1146 46.8305 33.508C47.1024 33.7875 47.1363 33.7979 48.4617 33.8289L49.8211 33.8703L49.6512 34.3982C49.4246 35.1332 49.0395 35.7129 48.4731 36.1684C47.8727 36.6756 47.3856 36.8516 46.4453 36.924C44.1797 37.1 42.016 35.5059 41.7102 33.4355C41.393 31.3859 42.6957 29.4812 44.8254 28.8809C46.0602 28.5393 47.3289 28.6635 48.4277 29.2432C49.1527 29.6262 49.6852 29.6262 50.1156 29.2328C50.3422 29.0154 50.4102 28.8498 50.4102 28.5186C50.4102 28.1459 50.3535 28.0217 50.025 27.7629C48.8469 26.8209 46.5473 26.3861 44.6895 26.7588Z" fill="#2196F3"/>
</svg>
