<svg width="55" height="53" viewBox="0 0 55 53" fill="none" xmlns="http://www.w3.org/2000/svg">
<path d="M0 21.3442V42.6885H5.85449H11.709V41.2999V39.9112H7.30469H2.90039V26.8989V13.8865H27.5H52.0996V26.8989V39.9112H48.7158H45.332V41.2999V42.6885H50.166H55V21.3442V-0.00012207H27.5H0V21.3442ZM52.0996 6.94321V11.1092H27.5H2.90039V6.94321V2.77721H27.5H52.0996V6.94321Z" fill="#2196F3"/>
<path d="M5.26248 6.5318V7.92047H6.87381H8.48514V6.5318V5.14314H6.87381H5.26248V6.5318Z" fill="#2196F3"/>
<path d="M10.7422 6.5318V7.92047H12.3535H13.9648V6.5318V5.14314H12.3535H10.7422V6.5318Z" fill="#2196F3"/>
<path d="M16.2195 6.5318V7.92047H17.8308H19.4422V6.5318V5.14314H17.8308H16.2195V6.5318Z" fill="#2196F3"/>
<path d="M25.2983 18.2481C21.2807 18.8859 17.7895 21.0152 15.5874 24.1834C14.4809 25.7675 13.8042 27.3208 13.353 29.3266C13.0737 30.6124 13.0952 33.2252 13.4067 34.6344C14.4702 39.397 17.9721 43.2441 22.6987 44.8385C24.3423 45.394 25.6313 45.5997 27.4468 45.5997C30.5298 45.61 33.0327 44.8797 35.6538 43.203L36.6528 42.5549L41.938 47.6159L47.2124 52.6665L48.2329 51.6893L49.2534 50.7121L43.9575 45.6409L38.6723 40.58L39.1987 39.8805C39.897 38.965 40.7348 37.3809 41.1323 36.2494C42.4536 32.4434 41.9917 28.2157 39.8862 24.852C37.813 21.5295 34.3862 19.1945 30.4009 18.3613C29.3052 18.135 26.4263 18.0733 25.2983 18.2481ZM30.2934 21.19C32.3345 21.7044 34.1606 22.7022 35.6216 24.1114C37.0718 25.5103 38.103 27.2282 38.6401 29.162C38.8872 30.0775 38.9194 30.3758 38.9194 31.8879C38.9194 33.3897 38.8872 33.6983 38.6401 34.583C36.9643 40.6108 30.5083 44.1391 24.3208 42.4212C20.7114 41.4234 17.8003 38.7695 16.6294 35.3853C16.146 34.0275 16.06 33.4618 16.0708 31.7851C16.0815 30.3964 16.1138 30.0569 16.3608 29.162C16.8979 27.2179 17.9292 25.5103 19.3794 24.1114C20.8511 22.7022 22.7417 21.6632 24.7182 21.2106C26.061 20.8917 26.0395 20.8917 27.769 20.9329C29.0044 20.9535 29.5952 21.0152 30.2934 21.19Z" fill="#2196F3"/>
</svg>
