<svg width="58" height="73" viewBox="0 0 58 73" fill="none" xmlns="http://www.w3.org/2000/svg">
<path d="M14.7147 0.219887C14.1557 0.479897 13.6571 1.06492 13.4456 1.66619C13.3247 1.9912 13.2794 11.124 13.2794 31.6323V61.1271L13.6118 61.7771C14.5636 63.5809 16.9659 63.5322 17.7968 61.6796C18.1141 61.0133 18.1141 60.7696 18.1141 50.938V40.8951L18.8393 41.0089C23.7345 41.7564 27.1339 41.4476 36.6069 39.3838C45.5813 37.4337 49.3131 37.255 53.891 38.5225C55.7645 39.0425 56.3537 39.01 57.1242 38.3438C58.0458 37.58 58.0005 38.3113 58.0005 22.0607C58.0005 7.92267 57.9854 7.19139 57.7135 6.65512C57.3357 5.85884 56.7012 5.45258 55.2508 5.03006C52.5766 4.25003 51.7456 4.15253 47.9534 4.15253C43.6777 4.15253 43.0129 4.23378 35.4133 5.84259C32.5125 6.46011 29.3397 7.09389 28.3879 7.25639C26.1971 7.61391 21.1962 7.64641 19.3681 7.3214L18.1292 7.11014L18.0839 4.39629C18.0386 1.68244 18.0386 1.66619 17.6004 1.06492C16.9054 0.0736313 15.7421 -0.267632 14.7147 0.219887ZM52.2291 9.58023L53.1658 9.77523V21.3944V33.0136L52.8334 32.9323C51.7909 32.6561 48.7843 32.4611 46.7598 32.5586C43.8439 32.6886 41.4416 33.0623 34.9601 34.4436C32.0592 35.0449 28.826 35.6787 27.7835 35.8412C24.7769 36.2799 20.0329 36.1824 18.3861 35.6462C18.1292 35.5649 18.1141 34.8661 18.1141 23.9783V12.3916L18.8393 12.5541C19.2321 12.6516 21.2416 12.7328 23.3265 12.7328C27.7231 12.7328 28.5994 12.6191 36.3198 10.9615C40.5049 10.0677 42.8467 9.62898 45.0072 9.35272C46.0497 9.22271 51.2924 9.38522 52.2291 9.58023Z" fill="#2196F3"/>
<path d="M4.57591 51.8481C3.60896 52.5144 2.00746 54.3182 1.3578 55.472C0.572156 56.8858 0.118901 58.4134 0.0282502 59.9084C-0.0926177 61.696 0.164227 62.9798 0.995194 64.8161C3.41255 70.2276 10.6948 73.5264 18.2189 72.6164C22.3435 72.1289 26.0602 70.3413 28.4624 67.6925C29.6409 66.3924 30.351 65.2061 30.9251 63.5648C31.2575 62.6223 31.3179 62.2323 31.3179 60.526C31.3179 58.8196 31.2575 58.4296 30.9251 57.4871C30.3661 55.9108 29.656 54.7082 28.538 53.4569C27.2991 52.0756 26.2566 51.3444 25.5012 51.3444C23.8694 51.3444 22.7816 52.6769 23.0234 54.3832C23.114 55.0495 23.2651 55.2608 24.4134 56.4471C26.0602 58.1371 26.4832 58.9821 26.4832 60.526C26.4832 61.9885 26.0602 62.9473 24.8817 64.1986C21.8449 67.4162 15.3936 68.505 10.4078 66.6524C7.0537 65.4011 4.81764 62.9473 4.81764 60.5422C4.81764 59.1446 5.21046 58.3646 6.72131 56.7558C8.23216 55.1308 8.56455 54.4645 8.38325 53.3919C8.32281 53.0832 8.11129 52.5957 7.88467 52.3194C7.00837 51.1981 5.79969 51.0194 4.57591 51.8481Z" fill="#2196F3"/>
</svg>
