<svg width="62" height="64" viewBox="0 0 62 64" fill="none" xmlns="http://www.w3.org/2000/svg">
<path d="M17.0738 0.223663C16.0026 0.51297 14.9442 1.15734 14.1827 1.97266C12.905 3.32714 12.4145 4.73422 12.4145 6.98293V8.37686L11.524 8.50836C9.05883 8.90287 7.0454 10.7702 6.41298 13.2293C6.2581 13.8342 6.21938 14.7942 6.21938 17.5032V21.0012L5.32883 21.1327C2.86367 21.5272 0.850247 23.3945 0.217825 25.8536C-0.0661193 27.0109 -0.0790259 57.1645 0.217825 58.3086C0.798621 60.5836 2.51519 62.3457 4.73513 62.9375C5.40627 63.1085 8.51675 63.1348 31 63.1348C53.4832 63.1348 56.5937 63.1085 57.2649 62.9375C59.4848 62.3457 61.2014 60.5836 61.7822 58.3086C62.079 57.1645 62.0661 27.0109 61.7822 25.8536C61.1497 23.3945 59.1363 21.5272 56.6712 21.1327L55.7806 21.0012V17.5032C55.7806 14.7942 55.7419 13.8342 55.587 13.2293C54.9546 10.7702 52.9412 8.90287 50.476 8.50836L49.5855 8.37686V6.98293C49.5855 6.15446 49.508 5.27338 49.3919 4.81312C48.8111 2.55127 47.0816 0.802277 44.8488 0.210514C43.7646 -0.0787926 18.1321 -0.0656433 17.0738 0.223663ZM44.5003 4.56327C45.2747 5.14188 45.3908 5.44434 45.4295 6.99607L45.4812 8.42946H31.0129H16.5446V7.19333C16.5446 5.852 16.6608 5.39174 17.0996 4.89202C17.7191 4.20821 17.19 4.22136 31.1549 4.26081C44.0485 4.28711 44.1518 4.28711 44.5003 4.56327ZM50.6954 12.9795C50.889 13.1241 51.173 13.4134 51.3149 13.6107C51.5731 13.9526 51.586 14.1761 51.6247 17.5163L51.6634 21.0538H31H10.3495V17.7136C10.3495 14.2419 10.4011 13.8737 10.9045 13.3082C11.5369 12.6113 10.5173 12.6507 31.1549 12.677C50.3082 12.7033 50.347 12.7033 50.6954 12.9795ZM56.8906 25.6038C57.0842 25.7484 57.3681 26.0377 57.5101 26.235C57.7811 26.59 57.7811 26.6426 57.7811 42.0943C57.7811 57.5459 57.7811 57.5985 57.5101 57.9535C57.3681 58.1508 57.0842 58.4401 56.8906 58.5848L56.5421 58.8609H31H5.45789L5.10942 58.5848C4.91582 58.4401 4.63187 58.1508 4.4899 57.9535C4.21886 57.5985 4.21886 57.5064 4.18014 42.4493C4.16724 34.112 4.18014 27.1161 4.21886 26.8793C4.30921 26.3533 4.85128 25.6827 5.38045 25.446C5.70312 25.3013 10.2462 25.275 31.1549 25.3013L56.5421 25.3276L56.8906 25.6038Z" fill="#2196F3"/>
<path d="M25.5023 30.3903C24.5343 30.7848 23.7341 31.5607 23.2308 32.5996L22.8049 33.4806L22.7661 41.8179C22.7403 49.1689 22.7532 50.2341 22.9468 50.8785C23.334 52.2593 24.2891 53.3113 25.5798 53.811C26.4703 54.1529 28.2256 54.1135 28.9355 53.7321C30.2778 53.022 41.4807 45.763 41.9969 45.2765C42.3325 44.9477 42.7713 44.3559 42.9649 43.9483C43.2747 43.3171 43.3263 43.0541 43.3263 42.0941C43.3263 41.1473 43.2747 40.8711 42.9778 40.2399C42.7713 39.8322 42.3841 39.2668 42.1002 38.9906C41.6484 38.5303 30.6004 31.3634 29.0774 30.535C28.2385 30.0747 26.4574 30.0089 25.5023 30.3903ZM33.2592 38.1227C36.5891 40.253 39.1962 41.9889 39.1962 42.0941C39.1962 42.3176 27.4383 49.8528 27.1027 49.8528C26.8833 49.8528 26.8704 49.3925 26.8704 42.0941C26.8704 34.7957 26.8833 34.3354 27.1027 34.3354C27.2189 34.3354 29.9938 36.0449 33.2592 38.1227Z" fill="#2196F3"/>
</svg>
