<svg xmlns="http://www.w3.org/2000/svg" width="35" height="41" viewBox="0 0 35 41">
  <g id="Group_517" data-name="Group 517" transform="translate(-984 -604)">
    <path id="Polygon_5" data-name="Polygon 5" d="M27.311,0a6,6,0,0,1,5.177,2.968l6.736,11.5a6,6,0,0,1,0,6.065l-6.736,11.5A6,6,0,0,1,27.311,35H13.689a6,6,0,0,1-5.177-2.968l-6.736-11.5a6,6,0,0,1,0-6.065l6.736-11.5A6,6,0,0,1,13.689,0Z" transform="translate(1019 604) rotate(90)" fill="#00ab4e" opacity="0.16"/>
    <path id="bullhorn-solid" d="M16.07,6.013a2.2,2.2,0,0,1,1.071,2.022,2.2,2.2,0,0,1-1.071,2.022V15a1.07,1.07,0,0,1-1.828.757l-1.463-1.49a8.541,8.541,0,0,0-6.06-2.481H6.428V16.07a1.07,1.07,0,0,1-1.071,1.071H3.214A1.071,1.071,0,0,1,2.143,16.07V11.784A2.144,2.144,0,0,1,0,9.642V6.428A2.144,2.144,0,0,1,2.143,4.285H6.719a8.572,8.572,0,0,0,6.06-2.51L14.242.314a1.071,1.071,0,0,1,1.828.758Zm-9.35.415H6.428V9.642h.291a10.709,10.709,0,0,1,7.208,2.789V3.639A10.709,10.709,0,0,1,6.719,6.428Z" transform="translate(993 616)" fill="#00ab4e"/>
  </g>
</svg>
