<svg xmlns="http://www.w3.org/2000/svg" width="107.849" height="127" viewBox="0 0 107.849 127">
  <g id="Group_11800" data-name="Group 11800" transform="translate(-207 -305)">
    <path id="Polygon_6" data-name="Polygon 6" d="M86.1,0A16,16,0,0,1,99.891,7.882L122.22,45.807a16,16,0,0,1,0,16.236L99.891,99.967A16,16,0,0,1,86.1,107.849H40.9a16,16,0,0,1-13.788-7.882L4.78,62.042a16,16,0,0,1,0-16.236L27.109,7.882A16,16,0,0,1,40.9,0Z" transform="translate(314.849 305) rotate(90)" fill="#00ab4e" opacity="0.16"/>
    <path id="Icon_awesome-shapes" data-name="Icon awesome-shapes" d="M51.063,31.914V47.871a3.192,3.192,0,0,1-3.191,3.191H31.914a3.192,3.192,0,0,1-3.191-3.191V31.914a3.192,3.192,0,0,1,3.191-3.191H47.872A3.192,3.192,0,0,1,51.063,31.914Zm-38.3-6.383A12.766,12.766,0,1,0,25.531,38.3,12.766,12.766,0,0,0,12.766,25.531ZM47.775,22.34a3.193,3.193,0,0,0,2.843-4.787L41.141,1.6a3.331,3.331,0,0,0-5.687,0L25.976,17.553A3.193,3.193,0,0,0,28.82,22.34H47.775Z" transform="translate(235.393 342.969)" fill="#00ab4e"/>
  </g>
</svg>
