<svg xmlns="http://www.w3.org/2000/svg" width="107.849" height="127" viewBox="0 0 107.849 127">
  <g id="Group_11801" data-name="Group 11801" transform="translate(-207 -305)">
    <path id="Polygon_6" data-name="Polygon 6" d="M86.1,0A16,16,0,0,1,99.891,7.882L122.22,45.807a16,16,0,0,1,0,16.236L99.891,99.967A16,16,0,0,1,86.1,107.849H40.9a16,16,0,0,1-13.788-7.882L4.78,62.042a16,16,0,0,1,0-16.236L27.109,7.882A16,16,0,0,1,40.9,0Z" transform="translate(314.849 305) rotate(90)" fill="#25b3e8" opacity="0.16"/>
    <path id="Icon_material-format-shapes" data-name="Icon material-format-shapes" d="M52.563,15.426V1.5H38.637V6.142H15.426V1.5H1.5V15.426H6.142v23.21H1.5V52.563H15.426V47.921h23.21v4.642H52.563V38.637H47.921V15.426ZM6.142,6.142h4.642v4.642H6.142Zm4.642,41.779H6.142V43.279h4.642Zm27.853-4.642H15.426V38.637H10.784V15.426h4.642V10.784h23.21v4.642h4.642v23.21H38.637Zm9.284,4.642H43.279V43.279h4.642ZM43.279,10.784V6.142h4.642v4.642ZM31.047,31.674h-8.1l-1.694,4.642h-3.76l7.892-20.889h3.249l7.915,20.889H32.764Zm-7.056-2.925h6.058l-3.017-8.89Z" transform="translate(233.5 345.159)" fill="#25b3e8"/>
  </g>
</svg>
