<svg xmlns="http://www.w3.org/2000/svg" width="47.114" height="51.915" viewBox="0 0 47.114 51.915">
  <g id="New-Requester-Portal" transform="translate(-0.134 -0.34)">
    <g id="_01_Kbase" data-name="01_Kbase" transform="translate(-40 -133)">
      <g id="knowledge-base-copy" transform="translate(16 72)">
        <g id="Browse-solutions" transform="translate(24 61)">
          <path id="Path" d="M46.642,13.986A18.327,18.327,0,0,0,11,14.854a13.61,13.61,0,0,1-4.412,7.439A17.049,17.049,0,1,0,33.818,40.808a14.6,14.6,0,0,1,5.538-7.11A18.292,18.292,0,0,0,46.642,13.986Z" fill="#ebeff3"/>
          <path id="Path-2" data-name="Path" d="M37.009,17.119a13.344,13.344,0,1,0-23.561,8.565,19.254,19.254,0,0,1,4.459,12.449v.716h11.3v-.434A20.9,20.9,0,0,1,34.1,25.438a13.294,13.294,0,0,0,2.91-8.319Z" fill="#fff"/>
          <path id="Shape" d="M5.165,29.509a.41.41,0,0,1-.258-.106A8.531,8.531,0,0,0,.53,27.573a.422.422,0,0,1-.352-.27.446.446,0,0,1,.035-.446,8.46,8.46,0,0,0,1.842-4.341.422.422,0,0,1,.27-.364.446.446,0,0,1,.446.07,8.447,8.447,0,0,0,4.353,1.83.411.411,0,0,1,.352.27.446.446,0,0,1-.059.446A8.272,8.272,0,0,0,5.575,29.11a.451.451,0,0,1-.411.4ZM1.387,26.822a9.176,9.176,0,0,1,3.52,1.455,9.387,9.387,0,0,1,1.467-3.52A9.174,9.174,0,0,1,2.853,23.3,9.2,9.2,0,0,1,1.387,26.822Z" fill="#25b3e8"/>
          <circle id="Oval" cx="1" cy="1" r="1" transform="translate(10.982 40.172)" fill="#25b3e8"/>
          <circle id="Oval-2" data-name="Oval" cx="1.619" cy="1.619" r="1.619" transform="translate(40.611 14.725)" fill="#25b3e8"/>
          <path id="Path-3" data-name="Path" d="M31.448,29.944a.388.388,0,0,1-.2,0,.422.422,0,0,1-.188-.587,23.912,23.912,0,0,1,2.7-4.154,12.731,12.731,0,0,0,2.828-8.084A12.935,12.935,0,0,0,20.84,4.47a12.437,12.437,0,0,0-4.588,2.006.446.446,0,0,1-.622-.106.434.434,0,0,1,.117-.61,13.2,13.2,0,0,1,4.9-2.147A13.8,13.8,0,0,1,34.486,25.661a24.046,24.046,0,0,0-2.593,4.048A.422.422,0,0,1,31.448,29.944Z" fill="#525666"/>
          <path id="Path-4" data-name="Path" d="M29.206,39.295h-11.3a.446.446,0,0,1-.434-.446v-.716A18.879,18.879,0,0,0,13.12,25.978a13.8,13.8,0,0,1-.786-16.743.434.434,0,0,1,.61-.106.446.446,0,0,1,.117.61,15.13,15.13,0,0,0-.833,1.361,12.672,12.672,0,0,0-1.173,3.039,12.907,12.907,0,0,0,2.687,11.287,19.748,19.748,0,0,1,4.611,12.707v.282H28.76a19.209,19.209,0,0,1,.786-5.245.446.446,0,1,1,.845.246,18.317,18.317,0,0,0-.716,5v.434a.446.446,0,0,1-.469.446Z" fill="#525666"/>
          <path id="Path-5" data-name="Path" d="M29.7,41.618H17.637a.446.446,0,0,1-.446-.446.434.434,0,0,1,.446-.434H29.7a.434.434,0,0,1,.446.434.446.446,0,0,1-.446.446Z" fill="#525666"/>
          <path id="Path-6" data-name="Path" d="M28.514,42.932a4.846,4.846,0,0,1-9.692,0Z" fill="#fff"/>
          <path id="Path-7" data-name="Path" d="M27.341,42.932a4.588,4.588,0,0,1-4.259,4.846,4.588,4.588,0,0,1-4.259-4.846Z" fill="#00ab4e"/>
          <path id="Path-8" data-name="Path" d="M23.68,48.212a5.292,5.292,0,0,1-5.28-5.28v-.446h7.85a.446.446,0,1,1,0,.88H19.292a4.4,4.4,0,0,0,8.777-.434.446.446,0,0,1,.446-.446.434.434,0,0,1,.434.446A5.292,5.292,0,0,1,23.68,48.212Z" fill="#525666"/>
          <path id="Shape-2" data-name="Shape" d="M22.155,35.751a.446.446,0,0,1-.446-.446V24.828H19.057a2.969,2.969,0,0,1,0-5.925h.575a2.969,2.969,0,0,1,2.957,2.969v2.077h2.159a.446.446,0,0,1,.446.446.434.434,0,0,1-.446.434H22.589V35.306a.446.446,0,0,1-.434.446Zm-3.1-15.969a2.089,2.089,0,0,0,0,4.165h2.652V21.871a2.089,2.089,0,0,0-2.077-2.088Z" fill="#525666"/>
          <path id="Shape-3" data-name="Shape" d="M25.194,35.751a.446.446,0,0,1-.446-.446V24.828H22.589a.434.434,0,0,1-.446-.434.446.446,0,0,1,.446-.446h2.159V21.871A2.969,2.969,0,0,1,27.716,18.9h.563a2.969,2.969,0,0,1,0,5.925H25.628V35.306a.446.446,0,0,1-.434.446Zm.434-11.8h2.652a2.089,2.089,0,0,0,0-4.165h-.563a2.089,2.089,0,0,0-2.089,2.088Z" fill="#525666"/>
          <path id="Path-9" data-name="Path" d="M33.595,13.411a.423.423,0,0,1-.4-.27,9.856,9.856,0,0,0-7.533-6.383.446.446,0,0,1-.352-.516.423.423,0,0,1,.5-.352A10.689,10.689,0,0,1,34.029,12.8a.434.434,0,0,1-.235.575Z" fill="#00ab4e"/>
        </g>
      </g>
    </g>
  </g>
</svg>
