<svg id="New-Requester-Portal" xmlns="http://www.w3.org/2000/svg" width="49.364" height="49.93" viewBox="0 0 49.364 49.93">
  <g id="incident-f6d886d4f64ae8cf4da868255f3d296d526dacb74acb45b7e76a017202b77535_1_" data-name="incident-f6d886d4f64ae8cf4da868255f3d296d526dacb74acb45b7e76a017202b77535 (1)">
    <g id="Group_11785" data-name="Group 11785" opacity="0.01">
      <rect id="Rectangle_2487" data-name="Rectangle 2487" width="49.364" height="49.93" fill="#fff"/>
    </g>
    <path id="Path_17721" data-name="Path 17721" d="M44.255,13.58a16.85,16.85,0,0,0-32.764.8A12.618,12.618,0,0,1,7.42,21.3,15.875,15.875,0,0,0,2.938,38.9,15.649,15.649,0,0,0,32.45,38.44a13.556,13.556,0,0,1,5.1-6.6,17.062,17.062,0,0,0,6.7-18.26Z" transform="translate(-0.073 0.16)" fill="#dff4f0"/>
    <ellipse id="Ellipse_115" data-name="Ellipse 115" cx="1.44" cy="1.45" rx="1.44" ry="1.45" transform="translate(13.274 42.41)" fill="#4bc2a7"/>
    <path id="Path_17722" data-name="Path 17722" d="M23.847,9.67l-16.68.02A4.574,4.574,0,0,1,2.62,14.28V32.36A4.531,4.531,0,0,1,5.842,33.7,4.6,4.6,0,0,1,7.177,36.94h31.86a4.6,4.6,0,0,1,1.328-3.245,4.531,4.531,0,0,1,3.219-1.345V14.24a4.564,4.564,0,0,1-4.547-4.58H26.3" transform="translate(-0.078 0.16)" fill="#fff"/>
    <path id="Path_17723" data-name="Path 17723" d="M7.354,37.64a.376.376,0,0,1-.273-.108.381.381,0,0,1-.114-.272,4.185,4.185,0,0,0-4.17-4.2h0A.355.355,0,0,1,2.539,33a.361.361,0,0,1-.119-.27V14.61a.391.391,0,0,1,.109-.27.356.356,0,0,1,.258-.11A4.205,4.205,0,0,0,6.967,10a.391.391,0,0,1,.109-.27.356.356,0,0,1,.258-.11h16.7a.379.379,0,0,1,.377.38.371.371,0,0,1-.111.265.366.366,0,0,1-.266.1H7.692a4.865,4.865,0,0,1-1.42,3.13A4.891,4.891,0,0,1,3.155,15V32.32A4.947,4.947,0,0,1,7.7,36.89H38.847a4.982,4.982,0,0,1,4.537-4.58V14.96a4.982,4.982,0,0,1-4.537-4.57H26.466a.376.376,0,0,1-.377-.167.382.382,0,0,1,0-.415.376.376,0,0,1,.377-.167H39.195a.369.369,0,0,1,.367.37,4.205,4.205,0,0,0,4.14,4.18h0a.366.366,0,0,1,.263.112.371.371,0,0,1,.1.268V32.64a.391.391,0,0,1-.109.27.356.356,0,0,1-.258.11,4.155,4.155,0,0,0-2.959,1.23,4.215,4.215,0,0,0-1.221,2.98.391.391,0,0,1-.109.27.376.376,0,0,1-.258.11H7.285Z" transform="translate(-0.077 0.16)" fill="#525666"/>
    <rect id="Rectangle_2488" data-name="Rectangle 2488" width="27.859" height="18.29" rx="1.37" transform="translate(9.273 14.64)" fill="#dff4f0"/>
    <path id="Path_17724" data-name="Path 17724" d="M10.767,33.16a1.731,1.731,0,0,1-1.248-.5A1.756,1.756,0,0,1,9,31.41V15.86a1.746,1.746,0,0,1,.51-1.234,1.721,1.721,0,0,1,1.228-.506H35.866A1.744,1.744,0,0,1,37.6,15.87V31.38a1.727,1.727,0,0,1-.5,1.243,1.7,1.7,0,0,1-1.231.507ZM35.876,14.84H10.747a1,1,0,0,0-.993,1V31.39a1,1,0,0,0,.993,1H35.876a1,1,0,0,0,.993-1h0V15.84A1,1,0,0,0,35.876,14.84Z" transform="translate(-0.124 0.16)" fill="#525666"/>
    <line id="Line_11" data-name="Line 11" y1="0.01" x2="15.061" transform="translate(15.667 21.05)" fill="#fff"/>
    <path id="Path_17725" data-name="Path 17725" d="M15.837,21.27a.366.366,0,0,1-.266-.1.371.371,0,0,1-.111-.265.379.379,0,0,1,.377-.38H30.889a.38.38,0,0,1,0,.75Z" transform="translate(-0.17 0.16)" fill="#525666"/>
    <line id="Line_12" data-name="Line 12" y1="0.01" x2="7.943" transform="translate(19.231 26.51)" fill="#fff"/>
    <path id="Path_17726" data-name="Path 17726" d="M19.417,26.73a.369.369,0,0,1-.367-.37.379.379,0,0,1,.367-.38H27.36a.38.38,0,0,1,0,.75Z" transform="translate(-0.196 0.16)" fill="#525666"/>
    <path id="Path_17727" data-name="Path 17727" d="M45.3,10a.356.356,0,0,1-.238-.09A7.153,7.153,0,0,0,41.378,8.3a.358.358,0,0,1-.308-.23.382.382,0,0,1,.06-.38A7.156,7.156,0,0,0,42.688,4a.37.37,0,0,1,.227-.312.365.365,0,0,1,.379.062A7.151,7.151,0,0,0,46.957,5.3a.358.358,0,0,1,.308.23.382.382,0,0,1-.06.38,7.157,7.157,0,0,0-1.559,3.7.38.38,0,0,1-.228.31A.347.347,0,0,1,45.3,10ZM42.083,7.66A7.664,7.664,0,0,1,45.061,8.9a8.031,8.031,0,0,1,1.241-3,7.683,7.683,0,0,1-2.969-1.2,7.89,7.89,0,0,1-1.251,2.96Z" transform="translate(-0.354 0.16)" fill="#4bc2a7"/>
    <g id="Group_11786" data-name="Group 11786" transform="translate(23.391 24.349)" opacity="0.2">
      <path id="Path_17728" data-name="Path 17728" d="M44.36,27.19a11.766,11.766,0,0,0-7.833-3c-7.605-.08-12.907,6.24-12.907,13.27" transform="translate(-23.62 -24.189)" fill="#244663"/>
    </g>
    <ellipse id="Ellipse_116" data-name="Ellipse 116" cx="11.348" cy="11.43" rx="11.348" ry="11.43" transform="translate(24.89 25.75)" fill="#fff"/>
    <ellipse id="Ellipse_117" data-name="Ellipse 117" cx="10.911" cy="11.43" rx="10.911" ry="11.43" transform="translate(24.89 25.75)" fill="#61c1a8"/>
    <path id="Path_17729" data-name="Path 17729" d="M36.525,48.82a11.585,11.585,0,0,1-4.646-1,.371.371,0,0,1-.189-.49.376.376,0,0,1,.486-.2A10.923,10.923,0,0,0,44.3,44.747,11.119,11.119,0,0,0,46.553,32.52a.373.373,0,0,1,.189-.49.368.368,0,0,1,.486.19,11.852,11.852,0,0,1-10.7,16.6Z" transform="translate(-0.286 0.16)" fill="#525666"/>
    <path id="Path_17730" data-name="Path 17730" d="M29.258,46.21a.356.356,0,0,1-.238-.09A11.832,11.832,0,0,1,33.38,25.651,11.661,11.661,0,0,1,45.073,29a.382.382,0,0,1,0,.53.366.366,0,0,1-.526,0,10.945,10.945,0,0,0-18.9,5.113A11.094,11.094,0,0,0,29.516,45.53a.382.382,0,0,1,0,.53A.426.426,0,0,1,29.258,46.21Z" transform="translate(-0.237 0.16)" fill="#525666"/>
    <path id="Path_17731" data-name="Path 17731" d="M36.717,43.43a.379.379,0,0,1-.367-.37V30.87a.381.381,0,0,1,.166-.38.375.375,0,0,1,.412,0,.381.381,0,0,1,.166.38V43.06A.379.379,0,0,1,36.717,43.43Z" transform="translate(-0.32 0.16)" fill="#fff"/>
    <path id="Path_17732" data-name="Path 17732" d="M42.73,37.34h-12.1a.379.379,0,0,1-.377-.38.371.371,0,0,1,.111-.265.366.366,0,0,1,.266-.1h12.1a.366.366,0,0,1,.266.1.371.371,0,0,1,.111.265.379.379,0,0,1-.377.38Z" transform="translate(-0.276 0.16)" fill="#fff"/>
    <ellipse id="Ellipse_118" data-name="Ellipse 118" cx="0.834" cy="0.84" rx="0.834" ry="0.84" transform="translate(9.253 4.52)" fill="#4bc2a7"/>
  </g>
</svg>
