<svg xmlns="http://www.w3.org/2000/svg" width="35" height="41" viewBox="0 0 35 41">
  <g id="Group_11696" data-name="Group 11696" transform="translate(-760 -604)">
    <path id="Polygon_4" data-name="Polygon 4" d="M27.311,0a6,6,0,0,1,5.177,2.968l6.736,11.5a6,6,0,0,1,0,6.065l-6.736,11.5A6,6,0,0,1,27.311,35H13.689a6,6,0,0,1-5.177-2.968l-6.736-11.5a6,6,0,0,1,0-6.065l6.736-11.5A6,6,0,0,1,13.689,0Z" transform="translate(795 604) rotate(90)" fill="#25b3e8" opacity="0.16"/>
    <path id="Icon_awesome-book-reader" data-name="Icon awesome-book-reader" d="M12.719,3.469A3.469,3.469,0,1,0,9.25,6.938,3.469,3.469,0,0,0,12.719,3.469ZM8.44,8.712C6.3,7.4,2.824,7.039,1.077,6.939A1,1,0,0,0,0,7.918v8.05a.994.994,0,0,0,.957.977,19.437,19.437,0,0,1,6.975,1.5.5.5,0,0,0,.74-.429V9.126a.481.481,0,0,0-.232-.414Zm8.983-1.772c-1.747.1-5.22.46-7.363,1.772a.49.49,0,0,0-.232.42v8.881a.5.5,0,0,0,.742.43,19.445,19.445,0,0,1,6.973-1.5.994.994,0,0,0,.957-.978V7.918A1,1,0,0,0,17.423,6.939Z" transform="translate(768 615)" fill="#25b3e8"/>
  </g>
</svg>
