<svg xmlns="http://www.w3.org/2000/svg" width="35" height="41" viewBox="0 0 35 41">
  <g id="work-alt" transform="translate(5.5 7)">
    <path id="Icon_awesome-ticket-alt" data-name="Icon awesome-ticket-alt" d="M4.5,7.875H15.75v6.75H4.5ZM18.563,11.25a1.687,1.687,0,0,0,1.688,1.688v3.375A1.687,1.687,0,0,1,18.563,18H1.688A1.687,1.687,0,0,1,0,16.313V12.938A1.688,1.688,0,0,0,0,9.563V6.188A1.687,1.687,0,0,1,1.688,4.5H18.563A1.687,1.687,0,0,1,20.25,6.188V9.563A1.687,1.687,0,0,0,18.563,11.25ZM16.875,7.594a.844.844,0,0,0-.844-.844H4.219a.844.844,0,0,0-.844.844v7.313a.844.844,0,0,0,.844.844H16.031a.844.844,0,0,0,.844-.844Z" transform="translate(2.375 2.306)" fill="#00ab4e"/>
    <path id="Icon_feather-check" data-name="Icon feather-check" d="M10.939,9l-3.4,3.4L6,10.852" transform="translate(4.031 2.858)" fill="none" stroke="#d1eddd" stroke-linecap="round" stroke-linejoin="round" stroke-width="1"/>
    <path id="Polygon_3" data-name="Polygon 3" d="M27.311,0a6,6,0,0,1,5.177,2.968l6.736,11.5a6,6,0,0,1,0,6.065l-6.736,11.5A6,6,0,0,1,27.311,35H13.689a6,6,0,0,1-5.177-2.968l-6.736-11.5a6,6,0,0,1,0-6.065l6.736-11.5A6,6,0,0,1,13.689,0Z" transform="translate(29.5 -7) rotate(90)" fill="#00ab4e" opacity="0.16"/>
  </g>
</svg>
