<svg xmlns="http://www.w3.org/2000/svg" width="107.849" height="127" viewBox="0 0 107.849 127">
  <g id="Group_11774" data-name="Group 11774" transform="translate(-207 -305)">
    <path id="Polygon_6" data-name="Polygon 6" d="M86.1,0A16,16,0,0,1,99.891,7.882L122.22,45.807a16,16,0,0,1,0,16.236L99.891,99.967A16,16,0,0,1,86.1,107.849H40.9a16,16,0,0,1-13.788-7.882L4.78,62.042a16,16,0,0,1,0-16.236L27.109,7.882A16,16,0,0,1,40.9,0Z" transform="translate(314.849 305) rotate(90)" fill="#00ab4e" opacity="0.16"/>
    <path id="Icon_material-business-center" data-name="Icon material-business-center" d="M22.2,35.7V33.3H5.424L5.4,42.9a4.783,4.783,0,0,0,4.8,4.8H43.8a4.783,4.783,0,0,0,4.8-4.8V33.3H31.8v2.4Zm24-21.6H36.576V9.3l-4.8-4.8h-9.6l-4.8,4.8v4.8H7.8A4.814,4.814,0,0,0,3,18.9v7.2a4.783,4.783,0,0,0,4.8,4.8H22.2V26.1h9.6v4.8H46.2A4.814,4.814,0,0,0,51,26.1V18.9A4.814,4.814,0,0,0,46.2,14.1Zm-14.4,0H22.2V9.3h9.6Z" transform="translate(233.999 342.9)" fill="#00ab4e"/>
  </g>
</svg>
