<?xml version="1.0" standalone="no"?>
<!DOCTYPE svg PUBLIC "-//W3C//DTD SVG 1.1//EN" "http://www.w3.org/Graphics/SVG/1.1/DTD/svg11.dtd" >
<svg xmlns="http://www.w3.org/2000/svg" xmlns:xlink="http://www.w3.org/1999/xlink" version="1.1">
<metadata>
Created by FontForge 20170731 at Tue Mar 14 10:49:39 2023
 By Aleksey,,,
Copyright (c) 2017 by Lewis McGuffie. All rights reserved.
</metadata>
<defs>
<font id="TuskerGrotesk-5500Medium" horiz-adv-x="1114" >
  <font-face 
    font-family="Tusker Grotesk 5500 Medium"
    font-weight="500"
    font-stretch="normal"
    units-per-em="2048"
    panose-1="0 0 6 0 0 0 0 0 0 0"
    ascent="1638"
    descent="-410"
    x-height="1681"
    cap-height="1935"
    bbox="-57 -508.041 1946 2177"
    underline-thickness="102"
    underline-position="-307"
    unicode-range="U+0020-25CA"
  />
<missing-glyph horiz-adv-x="1075" 
d="M883 1946v-2151h-682v2151h682zM717 1802h-357v-71h142v-80h-144v-70h359v70h-144v80h144v71zM573 1524h-215v-224h359v74h-144v150zM502 1452v-78h-72v78h72zM717 1243h-359v-72h144v-79h-144v-70h215v149h144v72zM717 1114h-72v-143h-287v-72h359v215zM717 852h-215
v-121h71v49h72v-100h-215v172h-72v-244h359v244zM717 479h-359v-243h359v243zM645 408v-101h-215v101h215zM717 186h-359v-71h152l-152 -101v-71h359v71h-219l149 101h70v71z" />
    <glyph glyph-name=".notdef" horiz-adv-x="1075" 
d="M883 1946v-2151h-682v2151h682zM717 1802h-357v-71h142v-80h-144v-70h359v70h-144v80h144v71zM573 1524h-215v-224h359v74h-144v150zM502 1452v-78h-72v78h72zM717 1243h-359v-72h144v-79h-144v-70h215v149h144v72zM717 1114h-72v-143h-287v-72h359v215zM717 852h-215
v-121h71v49h72v-100h-215v172h-72v-244h359v244zM717 479h-359v-243h359v243zM645 408v-101h-215v101h215zM717 186h-359v-71h152l-152 -101v-71h359v71h-219l149 101h70v71z" />
    <glyph glyph-name=".null" horiz-adv-x="0" 
 />
    <glyph glyph-name="nonmarkingreturn" horiz-adv-x="682" 
 />
    <glyph glyph-name="space" unicode=" " horiz-adv-x="360" 
 />
    <glyph glyph-name="exclam" unicode="!" horiz-adv-x="559" 
d="M395 496h-233l-37 555v884h307v-884zM127 346h307v-346h-307v346z" />
    <glyph glyph-name="quotedbl" unicode="&#x22;" horiz-adv-x="1054" 
d="M422 1935l-39 -755h-205l-39 755h283zM918 1935l-39 -755h-205l-39 755h283z" />
    <glyph glyph-name="numbersign" unicode="#" horiz-adv-x="1507" 
d="M1432 1077h-281l-47 -340h276l-39 -233h-268l-96 -709h-262l96 709h-248l-96 -709h-262l96 709h-281l39 233h275l45 340h-264l41 236h256l86 633h262l-86 -633h246l86 633h262l-86 -633h291zM842 737l47 340h-248l-45 -340h246z" />
    <glyph glyph-name="dollar" unicode="$" horiz-adv-x="1101" 
d="M696 1124q79 -30 132 -61t97.5 -77.5t65.5 -111.5t21 -153v-318q0 -185 -114 -299.5t-304 -123.5v-185h-105v189q-174 19 -273 120.5t-99 260.5v333h307v-307q0 -63 36 -103t103 -40q62 0 99.5 38.5t37.5 96.5v299q0 114 -137 164l-172 59q-144 48 -213 139.5t-69 247.5
v269q0 155 96.5 264t283.5 127v207h105v-207q191 -9 293 -108.5t102 -258.5v-282h-303v249q0 63 -35 99.5t-102 36.5q-62 0 -97.5 -33.5t-35.5 -81.5v-242q0 -58 26.5 -88.5t89.5 -56.5z" />
    <glyph glyph-name="percent" unicode="%" horiz-adv-x="1415" 
d="M385 1960q113 0 182.5 -69t69.5 -187v-203q0 -117 -70 -185.5t-182 -68.5q-111 0 -180.5 68.5t-69.5 185.5v203q0 117 70 186.5t180 69.5zM975 1946h301l-836 -1946h-311zM424 1499v207q0 22 -11 32.5t-28 10.5q-15 0 -26 -10.5t-11 -32.5v-207q0 -22 11 -32.5t26 -10.5
q17 0 28 10.5t11 32.5zM1036 692q114 0 183 -68.5t69 -187.5v-203q0 -117 -70 -185t-182 -68q-111 0 -180.5 68t-69.5 185v203q0 118 69.5 187t180.5 69zM1075 231v207q0 22 -11 32.5t-28 10.5q-15 0 -26 -10.5t-11 -32.5v-207q0 -22 11 -32.5t26 -10.5q17 0 28 10.5
t11 32.5z" />
    <glyph glyph-name="ampersand" unicode="&#x26;" horiz-adv-x="1159" 
d="M1124 872h-180v-530q0 -46 19 -68t61 -22h100v-252h-170q-255 0 -299 176q-104 -196 -290 -196q-152 0 -240 96.5t-88 257.5v309q0 139 61.5 230t149.5 126q-178 86 -178 310v293q0 156 113 255t313 99q219 -1 333.5 -97t114.5 -264v-360h-297v332q0 127 -135 127
q-68 0 -105.5 -35.5t-37.5 -95.5v-303q0 -72 36.5 -105t108.5 -33h610v-250zM498 242q70 0 108.5 43t38.5 125v462h-104q-197 0 -197 -161v-308q0 -79 41.5 -120t112.5 -41z" />
    <glyph glyph-name="quotesingle" unicode="'" horiz-adv-x="559" 
d="M422 1935l-39 -755h-205l-39 755h283z" />
    <glyph glyph-name="parenleft" unicode="(" horiz-adv-x="684" 
d="M655 1946q-112 -231 -174.5 -480.5t-62.5 -595.5t62.5 -595t174.5 -480h-239q-57 67 -109.5 167t-98.5 233.5t-74 309.5t-28 365t28 365t74 310t98.5 234t109.5 167h239z" />
    <glyph glyph-name="parenright" unicode=")" horiz-adv-x="684" 
d="M268 1946q57 -67 109.5 -167t98.5 -234t74 -310t28 -365t-28 -365t-74 -309.5t-98.5 -233.5t-109.5 -167h-239q112 231 174.5 480t62.5 595t-62.5 595.5t-174.5 480.5h239z" />
    <glyph glyph-name="asterisk" unicode="*" horiz-adv-x="759" 
d="M393 1954l23 -187l127 138l135 -185l-166 -84l168 -77l-135 -187l-125 135l-25 -182l-219 72l88 157l-182 -28l2 231l180 -39l-90 164z" />
    <glyph glyph-name="plus" unicode="+" horiz-adv-x="874" 
d="M807 1090v-222h-254v-264h-231v264h-254v222h254v262h231v-262h254z" />
    <glyph glyph-name="comma" unicode="," horiz-adv-x="583" 
d="M139 346h307v-379q0 -87 -52 -136.5t-154 -49.5h-103v106h62q44 0 64 21t20 67v25h-144v346z" />
    <glyph glyph-name="hyphen" unicode="-" horiz-adv-x="673" 
d="M655 1096v-254h-637v254h637z" />
    <glyph glyph-name="period" unicode="." horiz-adv-x="583" 
d="M446 346v-346h-307v346h307z" />
    <glyph glyph-name="slash" unicode="/" horiz-adv-x="868" 
d="M559 1946h291l-557 -2151h-293z" />
    <glyph glyph-name="zero" unicode="0" horiz-adv-x="1054" 
d="M526 1954q200 0 311 -110.5t111 -317.5v-1118q0 -207 -111 -317.5t-311 -110.5q-201 0 -311.5 110t-110.5 318v1118q0 208 110.5 318t311.5 110zM643 387v1159q0 76 -31.5 114t-83.5 38q-53 0 -85.5 -38t-32.5 -114v-1159q0 -76 32 -115t84 -39t84.5 39t32.5 115z" />
    <glyph glyph-name="one" unicode="1" horiz-adv-x="632" 
d="M326 1942h194v-1942h-303v1485h-203v184q68 6 120 24.5t84 42.5t54.5 60.5t33.5 68.5t20 77z" />
    <glyph glyph-name="two" unicode="2" horiz-adv-x="1009" 
d="M956 236v-236h-884v94q0 121 31 236.5t80 207t109 178t119.5 163.5t108.5 148t80 146.5t31 145.5v237q0 74 -32 108t-85 34q-56 0 -91.5 -38t-35.5 -108v-331h-293v342q0 177 115 284t326 107q180 0 290.5 -96.5t110.5 -253.5v-220q0 -96 -28.5 -196.5t-74.5 -187
t-101.5 -172t-111 -164.5t-101.5 -151t-74.5 -144t-28.5 -133h540z" />
    <glyph glyph-name="three" unicode="3" horiz-adv-x="1011" 
d="M721 1024q110 -17 160.5 -93.5t50.5 -219.5v-336q0 -188 -111 -290.5t-311 -102.5q-198 0 -308 101t-110 286v424h293v-418q0 -68 34.5 -103.5t88.5 -35.5q56 0 87.5 40t31.5 119v340q0 87 -33.5 123.5t-101.5 36.5h-175l-41 235h205q81 0 106 38.5t25 119.5v277
q0 62 -30 97.5t-82 35.5q-53 0 -86 -36.5t-33 -102.5v-334h-289v338q0 189 109.5 290t318.5 101q178 0 286.5 -93.5t108.5 -256.5v-263q0 -127 -44 -198.5t-150 -102.5v-16z" />
    <glyph glyph-name="four" unicode="4" horiz-adv-x="1132" 
d="M827 1935q2 -196 -28.5 -371.5t-91.5 -325t-133.5 -271.5t-170.5 -248l11 -19h204v134q85 91 142.5 226.5t75.5 278.5h86v-639h170v-235h-170v-465h-304v465h-575v219q164 244 230 361q222 392 251 770q4 60 4 120h299z" />
    <glyph glyph-name="five" unicode="5" horiz-adv-x="1032" 
d="M436 1049q38 64 102.5 101.5t149.5 37.5q116 0 188 -82t72 -242v-467q0 -203 -110.5 -309t-313.5 -106q-200 0 -307.5 106.5t-107.5 317.5v366h290v-397q0 -70 34.5 -104.5t90.5 -34.5q53 0 86 30t33 88v473q0 59 -30.5 89t-82.5 30q-91 0 -118 -88l-287 64l59 1013h742
l-27 -235h-438l-41 -651h16z" />
    <glyph glyph-name="six" unicode="6" horiz-adv-x="1046" 
d="M422 991q46 77 104 115.5t146 38.5q118 0 196 -88.5t78 -249.5v-410q0 -199 -110.5 -307t-309.5 -108q-202 0 -312 107t-110 319v1118q0 205 111 316.5t301 111.5q199 0 306.5 -101.5t107.5 -289.5v-320h-291v316q0 71 -31 105t-86 34q-54 0 -84 -32.5t-30 -86.5v-588h14
zM643 354v414q0 61 -34 97t-87 36q-51 0 -82.5 -36t-31.5 -97v-393q0 -139 118 -139q48 0 82.5 34t34.5 84z" />
    <glyph glyph-name="seven" unicode="7" horiz-adv-x="917" 
d="M74 1935h817v-200q-379 -752 -393 -1735h-303q0 226 18 432t59.5 424.5t119 433t188.5 410.5h-506v235z" />
    <glyph glyph-name="eight" unicode="8" horiz-adv-x="1021" 
d="M287 1030q-191 64 -191 301v273q0 158 109.5 254t306.5 96q195 0 304.5 -96.5t109.5 -253.5v-273q0 -241 -195 -301v-12q211 -54 211 -313v-347q0 -184 -114.5 -280t-315.5 -96q-202 0 -317 96t-115 280v347q0 126 53.5 206.5t153.5 106.5v12zM627 1276v285
q0 64 -28.5 101.5t-86.5 37.5q-57 0 -87 -38t-30 -101v-285q0 -65 30 -104t87 -39q58 0 86.5 38.5t28.5 104.5zM639 383v379q0 70 -32.5 111.5t-94.5 41.5q-60 0 -93.5 -42t-33.5 -111v-379q0 -66 33.5 -106.5t93.5 -40.5q62 0 94.5 40t32.5 107z" />
    <glyph glyph-name="nine" unicode="9" horiz-adv-x="1046" 
d="M625 946q-45 -77 -103.5 -115t-146.5 -38q-118 0 -196.5 88t-78.5 249v410q0 199 110.5 307.5t309.5 108.5q202 0 312 -107t110 -319v-1118q0 -205 -111 -316.5t-301 -111.5q-199 0 -306 101.5t-107 289.5v319h291v-315q0 -139 116 -139q54 0 84.5 32t30.5 86v588h-14z
M403 1583v-414q0 -61 34 -97t87 -36q52 0 83.5 36t31.5 97v394q0 139 -119 139q-48 0 -82.5 -34.5t-34.5 -84.5z" />
    <glyph glyph-name="colon" unicode=":" horiz-adv-x="583" 
d="M446 1208v-346h-307v346h307zM446 346v-346h-307v346h307z" />
    <glyph glyph-name="semicolon" unicode=";" horiz-adv-x="585" 
d="M141 1208h308v-346h-308v346zM141 0v346h308v-379q0 -87 -52.5 -136.5t-154.5 -49.5h-103v106h62q44 0 64 21t20 67v25h-144z" />
    <glyph glyph-name="question" unicode="?" horiz-adv-x="1003" 
d="M340 487q7 121 39.5 231.5t73 188.5t80 146t66 133.5t26.5 122.5v290q0 57 -37 88t-90 31q-61 0 -102.5 -33.5t-41.5 -99.5v-315h-291v321q0 168 114 265.5t321 97.5q204 0 318 -86.5t114 -247.5v-283q0 -82 -21.5 -158.5t-54.5 -134t-72.5 -123.5t-74.5 -125.5
t-61 -140.5t-32 -168h-274zM633 346v-346h-307v346h307z" />
    <glyph glyph-name="at" unicode="@" horiz-adv-x="1581" 
d="M1448 164h-236l-57 182q-57 -101 -122 -152.5t-156 -50.5q-124 2 -200.5 87t-76.5 259v695q0 346 277 346q161 0 276 -191v76q0 128 -79 206.5t-236 78.5q-69 0 -126.5 -12t-112 -44.5t-91.5 -84t-59.5 -135.5t-22.5 -195v-752q0 -454 412 -454h618v-246h-618
q-160 0 -288.5 43.5t-224 130.5t-147 227t-51.5 324v712q0 181 52 322t147 231t224.5 135.5t287.5 43.5q160 -2 280 -45t191 -119.5t105 -174t34 -216.5v-1227zM1151 500v676q-13 39 -52 68.5t-91 29.5q-103 0 -103 -144v-587q0 -144 103 -144q50 0 81.5 26t61.5 75z" />
    <glyph glyph-name="A" unicode="A" horiz-adv-x="1077" 
d="M758 0l-51 422l-338 2l-52 -424h-317l315 1935h455l309 -1935h-321zM401 686h273l-76 627l-49 336h-23l-47 -336z" />
    <glyph glyph-name="B" unicode="B" horiz-adv-x="1097" 
d="M809 989q99 -23 161 -103t62 -206v-303q0 -172 -111 -274.5t-305 -102.5h-489v1935h494q178 0 278 -91.5t100 -244.5v-292q0 -246 -190 -299v-19zM573 1669h-139v-547h141q58 0 91.5 32.5t33.5 94.5v293q0 64 -34.5 95.5t-92.5 31.5zM563 866h-129v-600h127
q78 0 120 38.5t42 115.5v299q0 72 -41.5 109.5t-118.5 37.5z" />
    <glyph glyph-name="C" unicode="C" horiz-adv-x="1091" 
d="M993 870v-469q0 -201 -114 -311t-324 -110q-217 0 -334 126t-117 355v1012q0 230 117 355.5t334 125.5q210 0 324 -109.5t114 -310.5v-422h-303v410q0 75 -36 120.5t-97 45.5t-100 -46t-39 -120v-1110q0 -74 38.5 -119t100.5 -45q61 0 97 45t36 119v458h303z" />
    <glyph glyph-name="D" unicode="D" 
d="M588 1935q198 0 309 -118t111 -342v-1016q0 -222 -111.5 -340.5t-308.5 -118.5h-461v1935h461zM698 426v1083q0 76 -38 118t-99 42h-127v-1403h125q62 0 100.5 42t38.5 118z" />
    <glyph glyph-name="E" unicode="E" horiz-adv-x="915" 
d="M434 266h404v-266h-711v1935h707v-266h-400v-545h367v-262h-367v-596z" />
    <glyph glyph-name="F" unicode="F" horiz-adv-x="845" 
d="M821 1669h-387v-545h359v-266h-359v-858h-307v1935h694v-266z" />
    <glyph glyph-name="G" unicode="G" horiz-adv-x="1099" 
d="M702 143q-34 -87 -99 -125t-169 -38q-143 2 -236.5 108.5t-93.5 298.5v1086q0 231 118 356t341 125q213 0 325.5 -109t112.5 -303v-350h-307v330q0 166 -137 166q-61 0 -100 -46t-39 -120v-1110q0 -84 37.5 -124t99.5 -40t102.5 42.5t40.5 108.5v383h-143v260h446v-1042
h-251l-27 143h-21z" />
    <glyph glyph-name="H" unicode="H" horiz-adv-x="1120" 
d="M686 1935h307v-1935h-307v858h-252v-858h-307v1935h307v-811h252v811z" />
    <glyph glyph-name="I" unicode="I" horiz-adv-x="561" 
d="M127 1935h307v-1935h-307v1935z" />
    <glyph glyph-name="J" unicode="J" horiz-adv-x="1067" 
d="M946 1935v-1556q0 -194 -114 -296.5t-322 -102.5q-213 0 -323.5 100.5t-110.5 292.5v510h311v-486q0 -84 32 -117.5t91 -33.5t92 34.5t33 116.5v1272h-402v266h713z" />
    <glyph glyph-name="K" unicode="K" horiz-adv-x="1112" 
d="M1116 0h-356l-305 883h-23v-883h-305v1935h307l-2 -858h23l293 858h331l-348 -940z" />
    <glyph glyph-name="L" unicode="L" horiz-adv-x="811" 
d="M434 266h383v-266h-690v1935h307v-1669z" />
    <glyph glyph-name="M" unicode="M" horiz-adv-x="1554" 
d="M788 549l46 405l149 981h444v-1935h-288l4 772l12 610h-22l-199 -1382h-328l-184 1382h-21l13 -608v-774h-287v1935h448l144 -981l51 -405h18z" />
    <glyph glyph-name="N" unicode="N" horiz-adv-x="1146" 
d="M750 868l-19 525v542h289v-1935h-299l-303 1174h-19l15 -494v-680h-287v1935h332l270 -1067h21z" />
    <glyph glyph-name="O" unicode="O" 
d="M555 1954q219 0 337 -125.5t118 -355.5v-1012q0 -228 -119 -354.5t-336 -126.5q-218 0 -334.5 126t-116.5 355v1012q0 230 117 355.5t334 125.5zM698 412v1110q0 75 -38 119.5t-101 44.5t-102 -44.5t-39 -119.5v-1110q0 -74 38.5 -119t100.5 -45q63 0 102 44.5t39 119.5z
" />
    <glyph glyph-name="P" unicode="P" horiz-adv-x="1085" 
d="M571 594h-137v-594h-307v1935h442q214 0 333.5 -113.5t119.5 -328.5v-444q0 -210 -127.5 -332.5t-323.5 -122.5zM545 858q76 0 120 51t44 142v432q0 91 -43.5 138.5t-120.5 47.5h-111v-811h111z" />
    <glyph glyph-name="Q" unicode="Q" 
d="M1010 461q0 -253 -144 -379l127 -287l-323 2l-70 185q-14 -2 -45 -2q-218 0 -334.5 126t-116.5 355v1012q0 230 117 355.5t334 125.5q219 0 337 -125.5t118 -355.5v-1012zM418 412q0 -74 38.5 -119t100.5 -45q63 0 102 44.5t39 119.5v1110q0 75 -38 119.5t-101 44.5
t-102 -44.5t-39 -119.5v-1110z" />
    <glyph glyph-name="R" unicode="R" 
d="M1049 0h-308l-118 692h-189v-692h-307v1935h444q209 0 326 -110.5t117 -323.5v-344q0 -206 -129 -332zM438 954h88q84 0 129 48t45 143v334q0 94 -45 142t-129 48h-88v-715z" />
    <glyph glyph-name="S" unicode="S" horiz-adv-x="1101" 
d="M989 1303h-303v249q0 63 -35 99.5t-102 36.5q-62 0 -97.5 -33.5t-35.5 -81.5v-242q0 -58 26.5 -88.5t89.5 -56.5l164 -62q79 -30 132 -61t97.5 -77.5t65.5 -111.5t21 -153v-318q0 -193 -123.5 -308t-325.5 -115q-206 0 -326 104.5t-120 280.5v333h307v-307q0 -63 36 -103
t103 -40q62 0 99.5 38.5t37.5 96.5v299q0 114 -137 164l-172 59q-144 48 -213 139.5t-69 247.5v269q0 80 27 149.5t79.5 124.5t139.5 87t198 32q211 0 323.5 -101t112.5 -268v-282z" />
    <glyph glyph-name="T" unicode="T" horiz-adv-x="917" 
d="M915 1935v-266h-303v-1669h-307v1669h-303v266h913z" />
    <glyph glyph-name="U" unicode="U" 
d="M991 1935v-1556q0 -194 -114 -296.5t-322 -102.5q-207 0 -320.5 101t-113.5 292v1562h307v-1536q0 -77 36 -114t93 -37q58 0 92.5 36.5t34.5 114.5v1536h307z" />
    <glyph glyph-name="V" unicode="V" horiz-adv-x="1036" 
d="M715 1937h323l-288 -1937h-461l-289 1935h326l125 -1093l61 -451h23l59 451z" />
    <glyph glyph-name="W" unicode="W" horiz-adv-x="1677" 
d="M1192 592h22l31 344l111 999h323l-270 -1933h-385l-135 950l-43 412h-19l-39 -412l-137 -952h-385l-266 1935h328l104 -999l33 -340h22l41 340l148 999h332l145 -999z" />
    <glyph glyph-name="X" unicode="X" horiz-adv-x="1071" 
d="M520 713l-39 -142l-135 -571h-332l322 1016l-283 919h334l113 -491l37 -133h22l35 133l117 491h317l-291 -925l312 -1010h-336l-127 571l-41 142h-25z" />
    <glyph glyph-name="Y" unicode="Y" horiz-adv-x="1099" 
d="M567 1102l56 250l122 583l338 2l-381 -1380v-557h-307v565l-381 1372l348 -2l125 -583l56 -250h24z" />
    <glyph glyph-name="Z" unicode="Z" horiz-adv-x="958" 
d="M414 266h487v-266h-838v242l465 1427h-458v266h800l-2 -247z" />
    <glyph glyph-name="bracketleft" unicode="[" horiz-adv-x="679" 
d="M434 1720v-1700h148v-225h-455v2151h455v-226h-148z" />
    <glyph glyph-name="backslash" unicode="\" horiz-adv-x="868" 
d="M575 -205l-559 2151h293l557 -2151h-291z" />
    <glyph glyph-name="bracketright" unicode="]" horiz-adv-x="679" 
d="M98 1946h455v-2151h-455v225h148v1700h-148v226z" />
    <glyph glyph-name="asciicircum" unicode="^" horiz-adv-x="641" 
d="M580 1737h-121l-140 106l-133 -106h-127l172 172h185z" />
    <glyph glyph-name="underscore" unicode="_" horiz-adv-x="829" 
d="M784 61v-233h-737v233h737z" />
    <glyph glyph-name="a" unicode="a" horiz-adv-x="1030" 
d="M668 0l-29 186q-86 -206 -291 -206q-119 0 -202 83.5t-83 231.5v276q0 301 297 400l271 86v286q0 49 -29 79t-86 30q-58 0 -87.5 -31.5t-29.5 -79.5v-243h-293v264q0 152 101 245t309 93q416 0 416 -391v-1309h-264zM631 801l-154 -49q-60 -21 -86 -61.5t-26 -102.5v-246
q0 -49 26 -77.5t76 -28.5q63 0 113.5 51t50.5 141v373z" />
    <glyph glyph-name="b" unicode="b" horiz-adv-x="1050" 
d="M686 1700q123 0 201 -88.5t78 -270.5v-1001q0 -181 -78 -269.5t-201 -90.5q-100 0 -164.5 50t-109.5 142l-4 -172h-295v1946h301v-428q26 42 49.5 71.5t56 56.5t74 40.5t92.5 13.5zM541 1446q-125 0 -125 -174v-862q0 -174 125 -174q118 0 118 167v875q0 168 -118 168z
" />
    <glyph glyph-name="c" unicode="c" horiz-adv-x="1032" 
d="M948 776v-391q0 -192 -105 -298.5t-313 -106.5q-212 0 -328 117.5t-116 328.5v803q0 229 115.5 350t328.5 121q208 0 313 -104.5t105 -295.5v-335h-295v299q0 182 -125 182q-135 0 -135 -182v-848q0 -180 135 -180q125 0 125 180v360h295z" />
    <glyph glyph-name="d" unicode="d" horiz-adv-x="1050" 
d="M365 1700q51 0 92.5 -13.5t74 -40.5t56 -56.5t49.5 -71.5v428h301v-1946h-301v172q-45 -93 -109 -142.5t-163 -49.5q-123 2 -201 90.5t-78 269.5v1001q0 182 78 270.5t201 88.5zM510 1446q-119 0 -119 -168v-875q0 -167 119 -167q125 0 125 174v862q0 174 -125 174z" />
    <glyph glyph-name="e" unicode="e" horiz-adv-x="1034" 
d="M524 1700q424 0 424 -445v-452h-555v-387q0 -180 137 -180q125 0 125 139v317h293v-340q0 -164 -113.5 -268t-302.5 -104q-219 0 -332.5 116.5t-113.5 329.5v803q0 228 114.5 349.5t323.5 121.5zM526 1450q-66 0 -99.5 -46.5t-33.5 -123.5v-238h256v238q0 83 -28 126.5
t-95 43.5z" />
    <glyph glyph-name="f" unicode="f" horiz-adv-x="745" 
d="M549 1800q-57 0 -57 -51v-68h247v-245h-247v-1434l-304 -2v1436h-174v245h174v78q0 187 246 187h305v-146h-190z" />
    <glyph glyph-name="g" unicode="g" horiz-adv-x="1050" 
d="M670 1683h268v-1540q0 -99 -29 -172t-81 -115.5t-116 -62.5t-141 -20h-395v252h311q76 0 114 33.5t38 107.5v149q-37 -69 -69 -109t-84 -67t-121 -26q-124 0 -201.5 86t-77.5 260v895q0 174 77.5 260t201.5 86q96 0 158.5 -51.5t115.5 -143.5zM508 1446q-55 0 -87 -40
t-32 -120v-749q0 -168 119 -168q127 0 127 174v729q0 174 -127 174z" />
    <glyph glyph-name="h" unicode="h" horiz-adv-x="1050" 
d="M711 1700q110 0 175.5 -73t65.5 -226v-1401h-301v1321q0 115 -104 115q-56 0 -94.5 -41t-38.5 -115v-1280h-301v1946h301v-443q42 78 120.5 138t176.5 59z" />
    <glyph glyph-name="i" unicode="i" horiz-adv-x="528" 
d="M115 1946h299v-195h-299v195zM113 1681h303v-1681h-303v1681z" />
    <glyph glyph-name="j" unicode="j" horiz-adv-x="555" 
d="M141 1946h301v-195h-301v195zM141 1681h301v-1648q0 -121 -72.5 -190.5t-191.5 -69.5h-182v252h76q37 0 53 20t16 74v1562z" />
    <glyph glyph-name="k" unicode="k" horiz-adv-x="1060" 
d="M416 799v-799h-303v1946h303v-985h20l266 720h326l-301 -784l324 -897h-340l-273 799h-22z" />
    <glyph glyph-name="l" unicode="l" horiz-adv-x="528" 
d="M113 1946h303v-1946h-303v1946z" />
    <glyph glyph-name="m" unicode="m" horiz-adv-x="1576" 
d="M1237 1700q111 0 176.5 -72.5t65.5 -226.5v-1401h-301v1321q0 115 -97 115q-57 0 -96 -40.5t-39 -113.5v-1282h-301l-2 1321q0 115 -96 115q-56 0 -94.5 -41t-38.5 -115v-1280h-301v1681h266l29 -178q49 82 125 139.5t167 57.5q96 0 150.5 -44t81.5 -151q130 197 305 195
z" />
    <glyph glyph-name="n" unicode="n" horiz-adv-x="1050" 
d="M711 1700q110 0 175.5 -73t65.5 -226v-1401h-301v1321q0 115 -104 115q-56 0 -94.5 -41t-38.5 -115v-1280h-301v1681h266l29 -178q41 78 122.5 138t180.5 59z" />
    <glyph glyph-name="o" unicode="o" horiz-adv-x="1044" 
d="M524 1700q208 0 321 -119t113 -340v-803q0 -220 -113.5 -339t-322.5 -119q-206 0 -321 119.5t-115 338.5v803q0 220 115 339.5t323 119.5zM651 416v848q0 182 -127 182q-64 0 -98.5 -46t-34.5 -136l-2 -848q0 -88 35 -134t98 -46q129 0 129 180z" />
    <glyph glyph-name="p" unicode="p" horiz-adv-x="1050" 
d="M686 -18q-51 0 -92.5 13.5t-74 40.5t-56 56.5t-49.5 71.5v-369h-301v1886h266l27 -172q95 196 280 193q124 -2 201.5 -90t77.5 -271v-999q0 -183 -78 -271.5t-201 -88.5zM541 236q118 0 118 167v877q0 86 -31.5 127t-86.5 41q-125 0 -125 -176v-860q0 -176 125 -176z" />
    <glyph glyph-name="q" unicode="q" horiz-adv-x="1050" 
d="M365 -18q-123 0 -201 88.5t-78 271.5v999q0 183 77.5 271t201.5 90q186 3 278 -193l29 172h266v-1886h-301v369q-26 -42 -49.5 -71.5t-56 -56.5t-74 -40.5t-92.5 -13.5zM510 236q125 0 125 176v860q0 176 -125 176q-55 0 -87 -41t-32 -127v-877q0 -86 32 -126.5t87 -40.5
z" />
    <glyph glyph-name="r" unicode="r" horiz-adv-x="995" 
d="M698 1700q109 0 174.5 -77t65.5 -247v-637h-301l-2 561q0 71 -19 103.5t-71 32.5q-55 0 -93 -50.5t-38 -136.5v-1249h-301v1681h266l22 -178q25 38 42 61.5t45.5 52t56 44.5t67.5 27.5t86 11.5z" />
    <glyph glyph-name="s" unicode="s" horiz-adv-x="1003" 
d="M670 983q140 -38 206 -124t66 -232v-269q0 -175 -119 -276.5t-313 -101.5q-204 0 -319 93.5t-115 288.5v271h299v-289q0 -49 35 -78.5t92 -29.5q60 0 97.5 29t37.5 75v250q0 48 -27.5 78.5t-91.5 50.5l-203 51q-128 35 -187.5 118.5t-59.5 223.5v221q0 161 115.5 264
t314.5 103q105 0 186.5 -26.5t131 -73t74.5 -106t25 -128.5v-246h-294v213q0 54 -35 85.5t-90 31.5q-57 0 -91 -27.5t-34 -68.5v-209q0 -42 22.5 -67t79.5 -42z" />
    <glyph glyph-name="t" unicode="t" horiz-adv-x="763" 
d="M729 1436h-240v-1041q0 -129 113 -129h133v-266h-200q-170 0 -258.5 86t-88.5 240v1110h-174v245q51 0 87 4.5t63 18.5t43.5 30t29 48t19.5 63t16 84h224v-248h233v-245z" />
    <glyph glyph-name="u" unicode="u" horiz-adv-x="1050" 
d="M637 1681h301v-1681h-266l-29 180q-41 -78 -122.5 -138.5t-178.5 -59.5q-112 2 -178 77t-66 236v1386h301v-1321q0 -55 26.5 -84.5t78.5 -29.5q57 0 95 40t38 115v1280z" />
    <glyph glyph-name="v" unicode="v" horiz-adv-x="1017" 
d="M520 440l37 348l111 898h311l-293 -1686h-354l-293 1686h311l113 -889l39 -357h18z" />
    <glyph glyph-name="w" unicode="w" horiz-adv-x="1515" 
d="M1079 580l19 251l69 855h310l-226 -1686h-327l-115 807l-33 268h-28l-35 -268l-117 -807h-336l-221 1686h309l78 -855l20 -251h23l27 251l137 855h258l133 -855l29 -251h26z" />
    <glyph glyph-name="x" unicode="x" horiz-adv-x="1028" 
d="M500 575l-29 -100l-125 -477h-313l299 870l-273 813h322l102 -436l31 -94h18l29 94l103 436h305l-273 -788l297 -893h-321l-123 475l-29 100h-20z" />
    <glyph glyph-name="y" unicode="y" horiz-adv-x="1005" 
d="M520 522l49 355l80 804h318l-260 -1542q-23 -102 -64 -175t-95.5 -113.5t-113.5 -59t-127 -18.5h-252v252h158q82 0 119 59l-293 1597h311l99 -804l49 -355h22z" />
    <glyph glyph-name="z" unicode="z" horiz-adv-x="872" 
d="M377 250h444v-250h-766v223l420 1209h-403v249h737v-225z" />
    <glyph glyph-name="bar" unicode="|" horiz-adv-x="546" 
d="M127 1935h295v-2140h-295v2140z" />
    <glyph glyph-name="exclamdown" unicode="&#xa1;" horiz-adv-x="559" 
d="M127 1681h307v-346h-307v346zM162 1186h233l37 -555v-885h-307v885z" />
    <glyph glyph-name="cent" unicode="&#xa2;" horiz-adv-x="1048" 
d="M948 965h-295v299q0 182 -125 182q-135 0 -135 -182v-848q0 -180 135 -180q125 0 125 180v360h295v-391q0 -181 -93 -286t-277 -117v-187h-105v187q-186 17 -286.5 133t-100.5 311v803q0 214 100 334t287 135v248h105v-248q184 -12 277 -115t93 -283v-335z" />
    <glyph glyph-name="sterling" unicode="&#xa3;" horiz-adv-x="1032" 
d="M399 248h598v-248l-901 4v215q48 131 81.5 307t33.5 314v30h-143v101h125q-2 8 -30 93t-39 151t-11 157v176q0 191 119 298.5t329 107.5q204 0 316 -109.5t112 -288.5v-323h-293v295q0 85 -36 125.5t-97 40.5q-59 0 -100 -38.5t-41 -117.5v-164q0 -74 15 -143.5
t36.5 -140t28.5 -119.5h387v-101h-379q-2 -160 -31 -328t-80 -294z" />
    <glyph glyph-name="yen" unicode="&#xa5;" horiz-adv-x="1099" 
d="M1083 1937l-327 -1183h258v-99h-285l-27 -98v-20h312v-101h-312v-436h-307v436h-303v101h303v28l-24 90h-279v99h250l-328 1183l348 -2l125 -583l56 -250h24l56 250l122 583z" />
    <glyph glyph-name="brokenbar" unicode="&#xa6;" horiz-adv-x="546" 
d="M127 1935h295v-907h-295v907zM127 702h295v-907h-295v907z" />
    <glyph glyph-name="section" unicode="&#xa7;" horiz-adv-x="1019" 
d="M913 1393h-282v233q0 54 -34.5 82.5t-96.5 28.5q-63 0 -98 -32t-35 -83v-213q0 -61 27 -94t93 -45l187 -39q128 -21 199 -96.5t71 -208.5v-248q0 -100 -35.5 -162.5t-115.5 -107.5q85 -42 118 -102.5t33 -153.5v-287q0 -183 -121.5 -279t-322.5 -94q-200 0 -313 92
t-113 258v287h297v-279q0 -54 34.5 -85t94.5 -31q63 0 100 27.5t37 86.5v261q0 59 -30 92t-95 45l-147 30q-132 21 -211.5 108.5t-79.5 219.5v242q0 89 40 159t119 101q-87 42 -123 105.5t-36 154.5v242q0 158 111 255t315 97q191 0 302 -92.5t111 -243.5v-231zM367 872
v-233q0 -117 133 -117q62 0 99.5 28.5t37.5 88.5v238q0 54 -37 82t-100 28t-98 -32t-35 -83z" />
    <glyph glyph-name="copyright" unicode="&#xa9;" horiz-adv-x="1519" 
d="M760 1853q173 0 310.5 -51.5t225 -143t133.5 -212.5t46 -264v-531q0 -143 -46 -264t-133.5 -212.5t-225 -143t-310.5 -51.5t-310.5 51.5t-225 143t-133.5 212.5t-46 264v531q0 143 46 264t133.5 212.5t225 143t310.5 51.5zM1237 655v533q0 208 -120.5 334.5t-356.5 126.5
t-356.5 -126.5t-120.5 -334.5v-533q0 -215 120 -343t357 -128t357 128t120 343zM1098 858v-231q0 -152 -89 -235t-251 -83q-163 0 -257.5 90.5t-94.5 259.5v523q0 168 94.5 258t257.5 90q162 0 251 -81.5t89 -234.5v-229h-240v236q0 56 -27.5 83t-72.5 27q-44 0 -73.5 -31.5
t-29.5 -87.5v-585q0 -56 29.5 -87.5t73.5 -31.5q45 0 72.5 28t27.5 85v237h240z" />
    <glyph glyph-name="guillemotleft" unicode="&#xab;" horiz-adv-x="1361" 
d="M397 842h-307l322 839h315zM958 842h-307l322 839h315zM397 840l330 -840h-315l-322 840h307zM958 840l330 -840h-315l-322 840h307z" />
    <glyph glyph-name="registered" unicode="&#xae;" horiz-adv-x="933" 
d="M467 1958q213 0 329.5 -117.5t116.5 -306.5v-250q0 -188 -116.5 -306t-329.5 -118t-328.5 117.5t-115.5 306.5v250q0 187 116 305.5t328 118.5zM764 1278v268q0 128 -75 206.5t-222 78.5t-222 -78.5t-75 -206.5v-268q0 -133 74.5 -213t222.5 -80t222.5 80t74.5 213z
M659 1104h-127q-14 19 -14 67v109q0 59 -57 59h-37v-235h-125v614h195q70 0 110.5 -38.5t40.5 -98.5v-70q0 -45 -24.5 -75t-69.5 -39q92 -8 92 -113v-110q0 -46 16 -70zM424 1614v-180h35q59 0 59 63v55q0 62 -59 62h-35z" />
    <glyph glyph-name="degree" unicode="&#xb0;" horiz-adv-x="788" 
d="M397 1264q-150 0 -250 97.5t-100 244.5t100 243.5t250 96.5q146 0 246 -97t100 -243q0 -147 -100 -244.5t-246 -97.5zM393 1481q51 0 88.5 36.5t36.5 88.5q-1 53 -38 90t-87 37q-54 0 -90.5 -36.5t-36.5 -90.5q0 -53 36.5 -89t90.5 -36z" />
    <glyph glyph-name="periodcentered" unicode="&#xb7;" horiz-adv-x="583" 
d="M446 1208v-346h-307v346h307z" />
    <glyph glyph-name="guillemotright" unicode="&#xbb;" horiz-adv-x="1361" 
d="M403 842l-329 839h315l322 -839h-308zM965 842l-330 839h315l322 -839h-307zM403 840h308l-322 -840h-315zM965 840h307l-322 -840h-315z" />
    <glyph glyph-name="questiondown" unicode="&#xbf;" horiz-adv-x="1003" 
d="M371 1335v346h307v-346h-307zM664 1194q-7 -121 -39.5 -231.5t-73 -188t-80 -145.5t-66 -133.5t-26.5 -122.5v-291q0 -57 37 -88t90 -31q61 0 102 33.5t41 99.5v316h291v-322q0 -168 -113.5 -265t-320.5 -97q-205 0 -318.5 86t-113.5 247v283q0 97 30 185t74 160
t89 143.5t80 165.5t42 196h275z" />
    <glyph glyph-name="Agrave" unicode="&#xc0;" horiz-adv-x="1077" 
d="M623 1993h-107l-207 170h193zM758 0l-51 422l-338 2l-52 -424h-317l315 1935h455l309 -1935h-321zM401 686h273l-76 627l-49 336h-23l-47 -336z" />
    <glyph glyph-name="Aacute" unicode="&#xc1;" horiz-adv-x="1077" 
d="M772 2163l-207 -170h-106l121 170h192zM758 0l-51 422l-338 2l-52 -424h-317l315 1935h455l309 -1935h-321zM401 686h273l-76 627l-49 336h-23l-47 -336z" />
    <glyph glyph-name="Acircumflex" unicode="&#xc2;" horiz-adv-x="1077" 
d="M537 2097l-134 -106h-127l173 172h184l164 -172h-121zM758 0l-51 422l-338 2l-52 -424h-317l315 1935h455l309 -1935h-321zM401 686h273l-76 627l-49 336h-23l-47 -336z" />
    <glyph glyph-name="Atilde" unicode="&#xc3;" horiz-adv-x="1077" 
d="M457 2073q-40 0 -37 -72h-105q0 78 34.5 120t99.5 42q35 0 62 -10t64.5 -37.5t38.5 -28.5q19 -16 37 -16q39 0 39 71h103q0 -162 -134 -162q-27 0 -53 9t-39.5 17t-38.5 27t-32 23q-20 17 -39 17zM758 0l-51 422l-338 2l-52 -424h-317l315 1935h455l309 -1935h-321z
M401 686h273l-76 627l-49 336h-23l-47 -336z" />
    <glyph glyph-name="Adieresis" unicode="&#xc4;" horiz-adv-x="1077" 
d="M492 2163v-162h-144v162h144zM725 2163v-162h-143v162h143zM758 0l-51 422l-338 2l-52 -424h-317l315 1935h455l309 -1935h-321zM401 686h273l-76 627l-49 336h-23l-47 -336z" />
    <glyph glyph-name="Aring" unicode="&#xc5;" horiz-adv-x="1077" 
d="M539 1944q-48 0 -81.5 31.5t-33.5 78.5t33.5 78t81.5 31q46 0 78 -31t32 -78t-32 -78.5t-78 -31.5zM537 2107q-23 0 -38.5 -15t-15.5 -38t15.5 -39t38.5 -16q22 0 38 16t15 39q0 23 -15.5 38t-37.5 15zM758 0l-51 422l-338 2l-52 -424h-317l315 1935h455l309 -1935h-321z
M401 686h273l-76 627l-49 336h-23l-47 -336z" />
    <glyph glyph-name="AE" unicode="&#xc6;" horiz-adv-x="1531" 
d="M1049 266h403v-266h-711v377h-344l-78 -377h-319l590 1935h858v-266h-399v-545h366v-262h-366v-596zM494 629h247v1003h-18l-98 -377z" />
    <glyph glyph-name="Ccedilla" unicode="&#xc7;" horiz-adv-x="1091" 
d="M993 1112h-303v410q0 75 -36 120.5t-97 45.5t-100 -46t-39 -120v-1110q0 -74 38.5 -119t100.5 -45q61 0 97 45t36 119v458h303v-469q0 -201 -114 -311t-324 -110h-8l-60 -93q31 25 51 34t48 9q80 0 80 -77v-19q0 -56 -39.5 -85.5t-102.5 -29.5q-68 0 -107.5 28t-39.5 81
v12h121v-28q0 -14 7 -22.5t17 -8.5q23 0 23 31v30q0 31 -27 31h-131l70 115q-170 26 -261.5 149t-91.5 324v1012q0 230 117 355.5t334 125.5q210 0 324 -109.5t114 -310.5v-422z" />
    <glyph glyph-name="Egrave" unicode="&#xc8;" horiz-adv-x="915" 
d="M485 2163l121 -170h-106l-207 170h192zM434 266h404v-266h-711v1935h707v-266h-400v-545h367v-262h-367v-596z" />
    <glyph glyph-name="Eacute" unicode="&#xc9;" horiz-adv-x="915" 
d="M563 2163h193l-207 -170h-107zM434 266h404v-266h-711v1935h707v-266h-400v-545h367v-262h-367v-596z" />
    <glyph glyph-name="Ecircumflex" unicode="&#xca;" horiz-adv-x="915" 
d="M780 1991h-121l-139 106l-133 -106h-127l172 172h184zM434 266h404v-266h-711v1935h707v-266h-400v-545h367v-262h-367v-596z" />
    <glyph glyph-name="Edieresis" unicode="&#xcb;" horiz-adv-x="915" 
d="M332 2163h143v-162h-143v162zM565 2163h144v-162h-144v162zM434 266h404v-266h-711v1935h707v-266h-400v-545h367v-262h-367v-596z" />
    <glyph glyph-name="Igrave" unicode="&#xcc;" horiz-adv-x="561" 
d="M246 2163l121 -170h-107l-207 170h193zM127 1935h307v-1935h-307v1935z" />
    <glyph glyph-name="Iacute" unicode="&#xcd;" horiz-adv-x="561" 
d="M324 2163h192l-207 -170h-106zM127 1935h307v-1935h-307v1935z" />
    <glyph glyph-name="Icircumflex" unicode="&#xce;" horiz-adv-x="561" 
d="M541 1991h-121l-139 106l-134 -106h-127l173 172h184zM127 1935h307v-1935h-307v1935z" />
    <glyph glyph-name="Idieresis" unicode="&#xcf;" horiz-adv-x="561" 
d="M92 2163h144v-162h-144v162zM326 2163h143v-162h-143v162zM127 1935h307v-1935h-307v1935z" />
    <glyph glyph-name="Eth" unicode="&#xd0;" 
d="M588 1935q198 0 309 -118t111 -342v-1016q0 -222 -111.5 -340.5t-308.5 -118.5h-461v922h-109v94h109v919h461zM698 426v1083q0 76 -38 118t-99 42h-127v-653h152v-94h-152v-656h125q62 0 100.5 42t38.5 118z" />
    <glyph glyph-name="Ntilde" unicode="&#xd1;" horiz-adv-x="1146" 
d="M508 2073q-40 0 -37 -72h-104q0 78 34.5 120t98.5 42q27 0 53.5 -9t41.5 -18.5t38.5 -26t32.5 -22.5q19 -16 36 -16q39 0 39 71h103q0 -162 -133 -162q-27 0 -53 9t-40 17t-39.5 27t-31.5 23q-20 17 -39 17zM731 1935h289v-1935h-299l-303 1174h-19l15 -494v-680h-287
v1935h332l270 -1067h21l-19 525v542z" />
    <glyph glyph-name="Ograve" unicode="&#xd2;" 
d="M522 2169l121 -170h-106l-207 170h192zM555 1954q219 0 337 -125.5t118 -355.5v-1012q0 -228 -119 -354.5t-336 -126.5q-218 0 -334.5 126t-116.5 355v1012q0 230 117 355.5t334 125.5zM698 412v1110q0 75 -38 119.5t-101 44.5t-102 -44.5t-39 -119.5v-1110
q0 -74 38.5 -119t100.5 -45q63 0 102 44.5t39 119.5z" />
    <glyph glyph-name="Oacute" unicode="&#xd3;" 
d="M600 2169h193l-207 -170h-107zM555 1954q219 0 337 -125.5t118 -355.5v-1012q0 -228 -119 -354.5t-336 -126.5q-218 0 -334.5 126t-116.5 355v1012q0 230 117 355.5t334 125.5zM698 412v1110q0 75 -38 119.5t-101 44.5t-102 -44.5t-39 -119.5v-1110q0 -74 38.5 -119
t100.5 -45q63 0 102 44.5t39 119.5z" />
    <glyph glyph-name="Ocircumflex" unicode="&#xd4;" 
d="M817 1997h-121l-139 106l-133 -106h-127l172 172h184zM555 1954q219 0 337 -125.5t118 -355.5v-1012q0 -228 -119 -354.5t-336 -126.5q-218 0 -334.5 126t-116.5 355v1012q0 230 117 355.5t334 125.5zM698 412v1110q0 75 -38 119.5t-101 44.5t-102 -44.5t-39 -119.5
v-1110q0 -74 38.5 -119t100.5 -45q63 0 102 44.5t39 119.5z" />
    <glyph glyph-name="Otilde" unicode="&#xd5;" 
d="M477 2079q-40 0 -37 -72h-104q0 78 34.5 120t98.5 42q27 0 53.5 -9t41.5 -18.5t38.5 -26t32.5 -22.5q19 -16 37 -16q39 0 39 71h102q0 -161 -133 -161q-27 0 -53.5 9t-39.5 16.5t-39.5 27t-31.5 22.5q-20 17 -39 17zM555 1954q219 0 337 -125.5t118 -355.5v-1012
q0 -228 -119 -354.5t-336 -126.5q-218 0 -334.5 126t-116.5 355v1012q0 230 117 355.5t334 125.5zM698 412v1110q0 75 -38 119.5t-101 44.5t-102 -44.5t-39 -119.5v-1110q0 -74 38.5 -119t100.5 -45q63 0 102 44.5t39 119.5z" />
    <glyph glyph-name="Odieresis" unicode="&#xd6;" 
d="M369 2169h143v-162h-143v162zM602 2169h143v-162h-143v162zM555 1954q219 0 337 -125.5t118 -355.5v-1012q0 -228 -119 -354.5t-336 -126.5q-218 0 -334.5 126t-116.5 355v1012q0 230 117 355.5t334 125.5zM698 412v1110q0 75 -38 119.5t-101 44.5t-102 -44.5t-39 -119.5
v-1110q0 -74 38.5 -119t100.5 -45q63 0 102 44.5t39 119.5z" />
    <glyph glyph-name="Oslash" unicode="&#xd8;" 
d="M809 1892q201 -117 201 -419v-1012q0 -228 -119 -354.5t-336 -126.5q-78 0 -135 14l-37 -172h-115l49 211q-213 113 -213 428v1012q0 230 117 355.5t334 125.5q80 0 154 -19l41 191h110zM698 412v1110q0 75 -38 119.5t-101 44.5t-102 -44.5t-39 -119.5v-1110
q0 -74 38.5 -119t100.5 -45q63 0 102 44.5t39 119.5z" />
    <glyph glyph-name="Ugrave" unicode="&#xd9;" 
d="M522 2163l121 -170h-106l-207 170h192zM991 1935v-1556q0 -194 -114 -296.5t-322 -102.5q-207 0 -320.5 101t-113.5 292v1562h307v-1536q0 -77 36 -114t93 -37q58 0 92.5 36.5t34.5 114.5v1536h307z" />
    <glyph glyph-name="Uacute" unicode="&#xda;" 
d="M600 2163h193l-207 -170h-107zM991 1935v-1556q0 -194 -114 -296.5t-322 -102.5q-207 0 -320.5 101t-113.5 292v1562h307v-1536q0 -77 36 -114t93 -37q58 0 92.5 36.5t34.5 114.5v1536h307z" />
    <glyph glyph-name="Ucircumflex" unicode="&#xdb;" 
d="M817 1991h-121l-139 106l-133 -106h-127l172 172h184zM991 1935v-1556q0 -194 -114 -296.5t-322 -102.5q-207 0 -320.5 101t-113.5 292v1562h307v-1536q0 -77 36 -114t93 -37q58 0 92.5 36.5t34.5 114.5v1536h307z" />
    <glyph glyph-name="Udieresis" unicode="&#xdc;" 
d="M369 2163h143v-162h-143v162zM602 2163h143v-162h-143v162zM991 1935v-1556q0 -194 -114 -296.5t-322 -102.5q-207 0 -320.5 101t-113.5 292v1562h307v-1536q0 -77 36 -114t93 -37q58 0 92.5 36.5t34.5 114.5v1536h307z" />
    <glyph glyph-name="Yacute" unicode="&#xdd;" horiz-adv-x="1099" 
d="M594 2163h192l-206 -170h-107zM567 1102l56 250l122 583l338 2l-381 -1380v-557h-307v565l-381 1372l348 -2l125 -583l56 -250h24z" />
    <glyph glyph-name="Thorn" unicode="&#xde;" horiz-adv-x="1085" 
d="M569 1683q214 0 333.5 -113.5t119.5 -328.5v-360q0 -113 -34.5 -201t-96 -143t-142.5 -83t-178 -28h-137v-426h-307v1935h307v-252h135zM709 885v346q0 91 -43.5 138.5t-120.5 47.5h-111v-725h111q76 0 120 51t44 142z" />
    <glyph glyph-name="germandbls" unicode="&#xdf;" horiz-adv-x="2007" 
d="M670 983q140 -38 206 -124t66 -232v-269q0 -175 -119 -276.5t-313 -101.5q-204 0 -319 93.5t-115 288.5v271h299v-289q0 -49 35 -78.5t92 -29.5q60 0 97.5 29t37.5 75v250q0 48 -27.5 78.5t-91.5 50.5l-203 51q-128 35 -187.5 118.5t-59.5 223.5v221q0 161 115.5 264
t314.5 103q105 0 186.5 -26.5t131 -73t74.5 -106t25 -128.5v-246h-294v213q0 54 -35 85.5t-90 31.5q-57 0 -91 -27.5t-34 -68.5v-209q0 -42 22.5 -67t79.5 -42zM1673 983q140 -38 206.5 -124t66.5 -232v-269q0 -175 -119 -276.5t-314 -101.5q-204 0 -319 93.5t-115 288.5
v271h299v-289q0 -49 35 -78.5t92 -29.5q60 0 97.5 29t37.5 75v250q0 48 -27 78.5t-91 50.5l-203 51q-128 35 -188 118.5t-60 223.5v221q0 161 115.5 264t314.5 103q105 0 186.5 -26.5t131.5 -73t75 -106t25 -128.5v-246h-295v213q0 54 -35 85.5t-90 31.5q-57 0 -91 -27.5
t-34 -68.5v-209q0 -42 23 -67t80 -42z" />
    <glyph glyph-name="agrave" unicode="&#xe0;" horiz-adv-x="1030" 
d="M502 1909l121 -170h-107l-207 170h193zM668 0l-29 186q-86 -206 -291 -206q-119 0 -202 83.5t-83 231.5v276q0 301 297 400l271 86v286q0 49 -29 79t-86 30q-58 0 -87.5 -31.5t-29.5 -79.5v-243h-293v264q0 152 101 245t309 93q416 0 416 -391v-1309h-264zM631 801
l-154 -49q-60 -21 -86 -61.5t-26 -102.5v-246q0 -49 26 -77.5t76 -28.5q63 0 113.5 51t50.5 141v373z" />
    <glyph glyph-name="aacute" unicode="&#xe1;" horiz-adv-x="1030" 
d="M580 1909h192l-207 -170h-106zM668 0l-29 186q-86 -206 -291 -206q-119 0 -202 83.5t-83 231.5v276q0 301 297 400l271 86v286q0 49 -29 79t-86 30q-58 0 -87.5 -31.5t-29.5 -79.5v-243h-293v264q0 152 101 245t309 93q416 0 416 -391v-1309h-264zM631 801l-154 -49
q-60 -21 -86 -61.5t-26 -102.5v-246q0 -49 26 -77.5t76 -28.5q63 0 113.5 51t50.5 141v373z" />
    <glyph glyph-name="acircumflex" unicode="&#xe2;" horiz-adv-x="1030" 
d="M797 1737h-121l-139 106l-134 -106h-127l173 172h184zM668 0l-29 186q-86 -206 -291 -206q-119 0 -202 83.5t-83 231.5v276q0 301 297 400l271 86v286q0 49 -29 79t-86 30q-58 0 -87.5 -31.5t-29.5 -79.5v-243h-293v264q0 152 101 245t309 93q416 0 416 -391v-1309h-264z
M631 801l-154 -49q-60 -21 -86 -61.5t-26 -102.5v-246q0 -49 26 -77.5t76 -28.5q63 0 113.5 51t50.5 141v373z" />
    <glyph glyph-name="atilde" unicode="&#xe3;" horiz-adv-x="1030" 
d="M457 1819q-40 0 -37 -72h-105q0 78 34.5 120t99.5 42q35 0 62 -10t64.5 -37.5t38.5 -28.5q19 -16 37 -16q39 0 39 71h103q0 -162 -134 -162q-27 0 -53 9t-39.5 17t-38.5 27t-32 23q-20 17 -39 17zM516 1700q416 0 416 -391v-1309h-264l-29 186q-86 -206 -291 -206
q-119 0 -202 83.5t-83 231.5v276q0 301 297 400l271 86v286q0 49 -29 79t-86 30q-58 0 -87.5 -31.5t-29.5 -79.5v-243h-293v264q0 152 101 245t309 93zM631 428v373l-154 -49q-60 -21 -86 -61.5t-26 -102.5v-246q0 -49 26 -77.5t76 -28.5q63 0 113.5 51t50.5 141z" />
    <glyph glyph-name="adieresis" unicode="&#xe4;" horiz-adv-x="1030" 
d="M348 1909h144v-162h-144v162zM582 1909h143v-162h-143v162zM668 0l-29 186q-86 -206 -291 -206q-119 0 -202 83.5t-83 231.5v276q0 301 297 400l271 86v286q0 49 -29 79t-86 30q-58 0 -87.5 -31.5t-29.5 -79.5v-243h-293v264q0 152 101 245t309 93q416 0 416 -391v-1309
h-264zM631 801l-154 -49q-60 -21 -86 -61.5t-26 -102.5v-246q0 -49 26 -77.5t76 -28.5q63 0 113.5 51t50.5 141v373z" />
    <glyph glyph-name="aring" unicode="&#xe5;" horiz-adv-x="1030" 
d="M580 1698q352 -29 352 -389v-1309h-264l-29 186q-86 -206 -291 -206q-119 0 -202 83.5t-83 231.5v276q0 301 297 400l271 86v286q0 49 -29 79t-86 30q-58 0 -87.5 -31.5t-29.5 -79.5v-243h-293v264q0 147 95 239.5t288 98.5q-30 12 -47.5 38.5t-17.5 61.5q0 47 33.5 78
t81.5 31q46 0 78 -31t32 -78q0 -36 -19 -63t-50 -39zM537 1853q-23 0 -38.5 -15t-15.5 -38t15.5 -39t38.5 -16q22 0 38 16t15 39q0 23 -15.5 38t-37.5 15zM631 428v373l-154 -49q-60 -21 -86 -61.5t-26 -102.5v-246q0 -49 26 -77.5t76 -28.5q63 0 113.5 51t50.5 141z" />
    <glyph glyph-name="ae" unicode="&#xe6;" horiz-adv-x="1558" 
d="M1470 803h-555v-387q0 -180 138 -180q125 0 125 139v317h292v-340q0 -164 -113 -268t-302 -104q-305 0 -404 221q-121 -221 -309 -221q-119 0 -199 83t-80 232v272q0 141 73.5 233t215.5 148l256 96v299q0 49 -27 79t-83 30q-51 0 -80 -31t-29 -78v-245h-287v264
q0 147 106 242.5t290 95.5q160 0 284 -70q109 70 265 70q423 0 423 -445v-452zM1049 1450q-66 0 -100 -46.5t-34 -123.5v-238h256v238q0 83 -27.5 126.5t-94.5 43.5zM471 236q60 0 98.5 51t38.5 151v377l-141 -61q-55 -23 -78.5 -58t-23.5 -88v-262q0 -52 27 -81t79 -29z
" />
    <glyph glyph-name="ccedilla" unicode="&#xe7;" horiz-adv-x="1032" 
d="M948 965h-295v299q0 182 -125 182q-135 0 -135 -182v-848q0 -180 135 -180q125 0 125 180v360h295v-391q0 -191 -103 -297.5t-308 -107.5l-60 -93q31 25 50.5 34t47.5 9q80 0 80 -77v-19q0 -56 -39 -85.5t-102 -29.5q-68 0 -107.5 28t-39.5 81v12h120v-28q0 -13 7 -22
t18 -9q23 0 23 31v30q0 31 -27 31h-131l69 113q-173 23 -266.5 137t-93.5 303v803q0 229 115.5 350t328.5 121q208 0 313 -104.5t105 -295.5v-335z" />
    <glyph glyph-name="egrave" unicode="&#xe8;" horiz-adv-x="1034" 
d="M483 1909l121 -170h-106l-207 170h192zM524 1700q424 0 424 -445v-452h-555v-387q0 -180 137 -180q125 0 125 139v317h293v-340q0 -164 -113.5 -268t-302.5 -104q-219 0 -332.5 116.5t-113.5 329.5v803q0 228 114.5 349.5t323.5 121.5zM526 1450q-66 0 -99.5 -46.5
t-33.5 -123.5v-238h256v238q0 83 -28 126.5t-95 43.5z" />
    <glyph glyph-name="eacute" unicode="&#xe9;" horiz-adv-x="1034" 
d="M561 1909h193l-207 -170h-107zM524 1700q424 0 424 -445v-452h-555v-387q0 -180 137 -180q125 0 125 139v317h293v-340q0 -164 -113.5 -268t-302.5 -104q-219 0 -332.5 116.5t-113.5 329.5v803q0 228 114.5 349.5t323.5 121.5zM526 1450q-66 0 -99.5 -46.5t-33.5 -123.5
v-238h256v238q0 83 -28 126.5t-95 43.5z" />
    <glyph glyph-name="ecircumflex" unicode="&#xea;" horiz-adv-x="1034" 
d="M778 1737h-121l-139 106l-133 -106h-127l172 172h184zM524 1700q424 0 424 -445v-452h-555v-387q0 -180 137 -180q125 0 125 139v317h293v-340q0 -164 -113.5 -268t-302.5 -104q-219 0 -332.5 116.5t-113.5 329.5v803q0 228 114.5 349.5t323.5 121.5zM526 1450
q-66 0 -99.5 -46.5t-33.5 -123.5v-238h256v238q0 83 -28 126.5t-95 43.5z" />
    <glyph glyph-name="edieresis" unicode="&#xeb;" horiz-adv-x="1034" 
d="M330 1909h143v-162h-143v162zM563 1909h144v-162h-144v162zM524 1700q424 0 424 -445v-452h-555v-387q0 -180 137 -180q125 0 125 139v317h293v-340q0 -164 -113.5 -268t-302.5 -104q-219 0 -332.5 116.5t-113.5 329.5v803q0 228 114.5 349.5t323.5 121.5zM526 1450
q-66 0 -99.5 -46.5t-33.5 -123.5v-238h256v238q0 83 -28 126.5t-95 43.5z" />
    <glyph glyph-name="igrave" unicode="&#xec;" horiz-adv-x="528" 
d="M229 1909l121 -170h-106l-207 170h192zM113 1681h303v-1681h-303v1681z" />
    <glyph glyph-name="iacute" unicode="&#xed;" horiz-adv-x="528" 
d="M307 1909h193l-207 -170h-107zM113 1681h303v-1681h-303v1681z" />
    <glyph glyph-name="icircumflex" unicode="&#xee;" horiz-adv-x="528" 
d="M524 1737h-121l-139 106l-133 -106h-127l172 172h184zM113 1681h303v-1681h-303v1681z" />
    <glyph glyph-name="idieresis" unicode="&#xef;" horiz-adv-x="528" 
d="M76 1909h143v-162h-143v162zM309 1909h144v-162h-144v162zM113 1681h303v-1681h-303v1681z" />
    <glyph glyph-name="eth" unicode="&#xf0;" horiz-adv-x="1036" 
d="M846 1804q105 -156 102 -436l-2 -958q0 -203 -115 -315.5t-315 -112.5q-217 0 -323.5 102.5t-106.5 308.5v950q0 179 78 268t190 89q51 0 94.5 -14.5t79 -43t62 -59t55.5 -72.5q0 101 -80 222l-108 -29l-29 98l68 17q-75 79 -156 127h362q39 -28 70 -56l100 25l29 -96z
M645 371v938q0 73 -35 111t-90 38q-59 0 -94 -37t-35 -108v-944q0 -73 35 -109.5t94 -36.5q55 0 90 37t35 111z" />
    <glyph glyph-name="ntilde" unicode="&#xf1;" horiz-adv-x="1050" 
d="M442 1819q-39 0 -36 -72h-105q0 78 34.5 120t98.5 42q27 0 53.5 -9t41.5 -18.5t38.5 -26t32.5 -22.5q19 -16 37 -16q39 0 39 71h102q0 -162 -133 -162q-27 0 -53 9t-40 17t-39.5 27t-31.5 23q-20 17 -39 17zM711 1700q110 0 175.5 -73t65.5 -226v-1401h-301v1321
q0 115 -104 115q-56 0 -94.5 -41t-38.5 -115v-1280h-301v1681h266l29 -178q41 78 122.5 138t180.5 59z" />
    <glyph glyph-name="ograve" unicode="&#xf2;" horiz-adv-x="1044" 
d="M487 1909l121 -170h-106l-207 170h192zM524 1700q208 0 321 -119t113 -340v-803q0 -220 -113.5 -339t-322.5 -119q-206 0 -321 119.5t-115 338.5v803q0 220 115 339.5t323 119.5zM651 416v848q0 182 -127 182q-64 0 -98.5 -46t-34.5 -136l-2 -848q0 -88 35 -134t98 -46
q129 0 129 180z" />
    <glyph glyph-name="oacute" unicode="&#xf3;" horiz-adv-x="1044" 
d="M565 1909h193l-207 -170h-107zM524 1700q208 0 321 -119t113 -340v-803q0 -220 -113.5 -339t-322.5 -119q-206 0 -321 119.5t-115 338.5v803q0 220 115 339.5t323 119.5zM651 416v848q0 182 -127 182q-64 0 -98.5 -46t-34.5 -136l-2 -848q0 -88 35 -134t98 -46
q129 0 129 180z" />
    <glyph glyph-name="ocircumflex" unicode="&#xf4;" horiz-adv-x="1044" 
d="M782 1737h-120l-140 106l-133 -106h-127l172 172h184zM524 1700q208 0 321 -119t113 -340v-803q0 -220 -113.5 -339t-322.5 -119q-206 0 -321 119.5t-115 338.5v803q0 220 115 339.5t323 119.5zM651 416v848q0 182 -127 182q-64 0 -98.5 -46t-34.5 -136l-2 -848
q0 -88 35 -134t98 -46q129 0 129 180z" />
    <glyph glyph-name="otilde" unicode="&#xf5;" horiz-adv-x="1044" 
d="M442 1819q-39 0 -36 -72h-105q0 78 34.5 120t98.5 42q27 0 53.5 -9t41.5 -18.5t38.5 -26t32.5 -22.5q19 -16 37 -16q39 0 39 71h102q0 -162 -133 -162q-27 0 -53 9t-40 17t-39.5 27t-31.5 23q-20 17 -39 17zM524 1700q208 0 321 -119t113 -340v-803q0 -220 -113.5 -339
t-322.5 -119q-206 0 -321 119.5t-115 338.5v803q0 220 115 339.5t323 119.5zM651 416v848q0 182 -127 182q-64 0 -98.5 -46t-34.5 -136l-2 -848q0 -88 35 -134t98 -46q129 0 129 180z" />
    <glyph glyph-name="odieresis" unicode="&#xf6;" horiz-adv-x="1044" 
d="M334 1909h143v-162h-143v162zM567 1909h144v-162h-144v162zM524 1700q208 0 321 -119t113 -340v-803q0 -220 -113.5 -339t-322.5 -119q-206 0 -321 119.5t-115 338.5v803q0 220 115 339.5t323 119.5zM651 416v848q0 182 -127 182q-64 0 -98.5 -46t-34.5 -136l-2 -848
q0 -88 35 -134t98 -46q129 0 129 180z" />
    <glyph glyph-name="oslash" unicode="&#xf8;" horiz-adv-x="1058" 
d="M745 1655q213 -106 213 -414v-803q0 -220 -113.5 -339t-322.5 -119q-55 0 -96 8l-39 -181h-113l48 209q-115 47 -175.5 155t-60.5 267v803q0 220 115 339.5t323 119.5q57 0 115 -10l47 213h113zM651 416v848q0 182 -127 182q-64 0 -98.5 -46t-34.5 -136l-2 -848
q0 -88 35 -134t98 -46q129 0 129 180z" />
    <glyph glyph-name="ugrave" unicode="&#xf9;" horiz-adv-x="1050" 
d="M477 1909l121 -170h-106l-207 170h192zM637 1681h301v-1681h-266l-29 180q-41 -78 -122.5 -138.5t-178.5 -59.5q-112 2 -178 77t-66 236v1386h301v-1321q0 -55 26.5 -84.5t78.5 -29.5q57 0 95 40t38 115v1280z" />
    <glyph glyph-name="uacute" unicode="&#xfa;" horiz-adv-x="1050" 
d="M555 1909h193l-207 -170h-107zM637 1681h301v-1681h-266l-29 180q-41 -78 -122.5 -138.5t-178.5 -59.5q-112 2 -178 77t-66 236v1386h301v-1321q0 -55 26.5 -84.5t78.5 -29.5q57 0 95 40t38 115v1280z" />
    <glyph glyph-name="ucircumflex" unicode="&#xfb;" horiz-adv-x="1050" 
d="M772 1737h-121l-139 106l-133 -106h-127l172 172h184zM637 1681h301v-1681h-266l-29 180q-41 -78 -122.5 -138.5t-178.5 -59.5q-112 2 -178 77t-66 236v1386h301v-1321q0 -55 26.5 -84.5t78.5 -29.5q57 0 95 40t38 115v1280z" />
    <glyph glyph-name="udieresis" unicode="&#xfc;" horiz-adv-x="1050" 
d="M324 1909h143v-162h-143v162zM557 1909h143v-162h-143v162zM637 1681h301v-1681h-266l-29 180q-41 -78 -122.5 -138.5t-178.5 -59.5q-112 2 -178 77t-66 236v1386h301v-1321q0 -55 26.5 -84.5t78.5 -29.5q57 0 95 40t38 115v1280z" />
    <glyph glyph-name="yacute" unicode="&#xfd;" horiz-adv-x="1005" 
d="M541 1909h192l-207 -170h-106zM520 522l49 355l80 804h318l-260 -1542q-23 -102 -64 -175t-95.5 -113.5t-113.5 -59t-127 -18.5h-252v252h158q82 0 119 59l-293 1597h311l99 -804l49 -355h22z" />
    <glyph glyph-name="thorn" unicode="&#xfe;" horiz-adv-x="1054" 
d="M686 -18q-51 0 -92.5 13.5t-74 40.5t-56 56.5t-49.5 71.5v-369h-301v2151h303v-437q78 196 270 193q124 -2 201.5 -90t77.5 -271v-999q0 -183 -78 -271.5t-201 -88.5zM541 236q118 0 118 167v877q0 86 -31.5 127t-86.5 41q-125 0 -125 -176v-860q0 -176 125 -176z" />
    <glyph glyph-name="ydieresis" unicode="&#xff;" horiz-adv-x="1005" 
d="M309 1909h144v-162h-144v162zM543 1909h143v-162h-143v162zM520 522l49 355l80 804h318l-260 -1542q-23 -102 -64 -175t-95.5 -113.5t-113.5 -59t-127 -18.5h-252v252h158q82 0 119 59l-293 1597h311l99 -804l49 -355h22z" />
    <glyph glyph-name="Amacron" unicode="&#x100;" horiz-adv-x="1077" 
d="M782 2138v-96h-501v96h501zM758 0l-51 422l-338 2l-52 -424h-317l315 1935h455l309 -1935h-321zM401 686h273l-76 627l-49 336h-23l-47 -336z" />
    <glyph glyph-name="amacron" unicode="&#x101;" horiz-adv-x="1030" 
d="M281 1884h501v-96h-501v96zM668 0l-29 186q-86 -206 -291 -206q-119 0 -202 83.5t-83 231.5v276q0 301 297 400l271 86v286q0 49 -29 79t-86 30q-58 0 -87.5 -31.5t-29.5 -79.5v-243h-293v264q0 152 101 245t309 93q416 0 416 -391v-1309h-264zM631 801l-154 -49
q-60 -21 -86 -61.5t-26 -102.5v-246q0 -49 26 -77.5t76 -28.5q63 0 113.5 51t50.5 141v373z" />
    <glyph glyph-name="Abreve" unicode="&#x102;" horiz-adv-x="1077" 
d="M537 1991q-115 0 -186 49.5t-91 124.5h131q27 -84 146 -84q115 0 149 84h125q-20 -75 -90 -124.5t-184 -49.5zM758 0l-51 422l-338 2l-52 -424h-317l315 1935h455l309 -1935h-321zM401 686h273l-76 627l-49 336h-23l-47 -336z" />
    <glyph glyph-name="abreve" unicode="&#x103;" horiz-adv-x="1030" 
d="M811 1911q-20 -75 -90 -124.5t-184 -49.5q-115 0 -186 49.5t-91 124.5h131q27 -84 146 -84q115 0 149 84h125zM668 0l-29 186q-86 -206 -291 -206q-119 0 -202 83.5t-83 231.5v276q0 301 297 400l271 86v286q0 49 -29 79t-86 30q-58 0 -87.5 -31.5t-29.5 -79.5v-243h-293
v264q0 152 101 245t309 93q416 0 416 -391v-1309h-264zM631 801l-154 -49q-60 -21 -86 -61.5t-26 -102.5v-246q0 -49 26 -77.5t76 -28.5q63 0 113.5 51t50.5 141v373z" />
    <glyph glyph-name="Aogonek" unicode="&#x104;" horiz-adv-x="1077" 
d="M858 -59q0 -43 51 -43q81 0 144 24v-100q-106 -60 -238 -60q-70 0 -120 33t-50 94q0 42 27 84t82 66l-47 383l-338 2l-52 -424h-317l315 1935h455l309 -1935h-157q-64 -3 -64 -59zM401 686h273l-76 627l-49 336h-23l-47 -336z" />
    <glyph glyph-name="aogonek" unicode="&#x105;" horiz-adv-x="1030" 
d="M764 0q-64 -3 -64 -59q0 -43 52 -43q80 0 143 24v-100q-106 -60 -238 -60q-70 0 -120 33t-50 94q0 54 42.5 103.5t129.5 66.5l-20 127q-86 -206 -291 -206q-119 0 -202 83.5t-83 231.5v276q0 301 297 400l271 86v286q0 49 -29 79t-86 30q-58 0 -87.5 -31.5t-29.5 -79.5
v-243h-293v264q0 152 101 245t309 93q416 0 416 -391v-1309h-168zM631 428v373l-154 -49q-60 -21 -86 -61.5t-26 -102.5v-246q0 -49 26 -77.5t76 -28.5q63 0 113.5 51t50.5 141z" />
    <glyph glyph-name="Cacute" unicode="&#x106;" horiz-adv-x="1091" 
d="M590 2169h192l-207 -170h-106zM993 870v-469q0 -201 -114 -311t-324 -110q-217 0 -334 126t-117 355v1012q0 230 117 355.5t334 125.5q210 0 324 -109.5t114 -310.5v-422h-303v410q0 75 -36 120.5t-97 45.5t-100 -46t-39 -120v-1110q0 -74 38.5 -119t100.5 -45
q61 0 97 45t36 119v458h303z" />
    <glyph glyph-name="cacute" unicode="&#x107;" horiz-adv-x="1032" 
d="M584 1909h192l-207 -170h-106zM948 776v-391q0 -192 -105 -298.5t-313 -106.5q-212 0 -328 117.5t-116 328.5v803q0 229 115.5 350t328.5 121q208 0 313 -104.5t105 -295.5v-335h-295v299q0 182 -125 182q-135 0 -135 -182v-848q0 -180 135 -180q125 0 125 180v360h295z
" />
    <glyph glyph-name="Cdotaccent" unicode="&#x10a;" horiz-adv-x="1091" 
d="M475 2169h143v-162h-143v162zM993 870v-469q0 -201 -114 -311t-324 -110q-217 0 -334 126t-117 355v1012q0 230 117 355.5t334 125.5q210 0 324 -109.5t114 -310.5v-422h-303v410q0 75 -36 120.5t-97 45.5t-100 -46t-39 -120v-1110q0 -74 38.5 -119t100.5 -45q61 0 97 45
t36 119v458h303z" />
    <glyph glyph-name="cdotaccent" unicode="&#x10b;" horiz-adv-x="1032" 
d="M469 1909h143v-162h-143v162zM948 776v-391q0 -192 -105 -298.5t-313 -106.5q-212 0 -328 117.5t-116 328.5v803q0 229 115.5 350t328.5 121q208 0 313 -104.5t105 -295.5v-335h-295v299q0 182 -125 182q-135 0 -135 -182v-848q0 -180 135 -180q125 0 125 180v360h295z
" />
    <glyph glyph-name="Ccaron" unicode="&#x10c;" horiz-adv-x="1091" 
d="M807 2177l-164 -172h-184l-172 172h127l133 -106l139 106h121zM993 870v-469q0 -201 -114 -311t-324 -110q-217 0 -334 126t-117 355v1012q0 230 117 355.5t334 125.5q210 0 324 -109.5t114 -310.5v-422h-303v410q0 75 -36 120.5t-97 45.5t-100 -46t-39 -120v-1110
q0 -74 38.5 -119t100.5 -45q61 0 97 45t36 119v458h303z" />
    <glyph glyph-name="ccaron" unicode="&#x10d;" horiz-adv-x="1032" 
d="M801 1917l-164 -172h-184l-172 172h127l133 -107l139 107h121zM948 776v-391q0 -192 -105 -298.5t-313 -106.5q-212 0 -328 117.5t-116 328.5v803q0 229 115.5 350t328.5 121q208 0 313 -104.5t105 -295.5v-335h-295v299q0 182 -125 182q-135 0 -135 -182v-848
q0 -180 135 -180q125 0 125 180v360h295z" />
    <glyph glyph-name="Dcaron" unicode="&#x10e;" 
d="M829 2171l-163 -172h-185l-172 172h127l133 -107l140 107h120zM588 1935q198 0 309 -118t111 -342v-1016q0 -222 -111.5 -340.5t-308.5 -118.5h-461v1935h461zM698 426v1083q0 76 -38 118t-99 42h-127v-1403h125q62 0 100.5 42t38.5 118z" />
    <glyph glyph-name="dcaron" unicode="&#x10f;" horiz-adv-x="1288" 
d="M637 1518v428h301v-1946h-301v172q-45 -93 -109 -142.5t-163 -49.5q-123 2 -201 90.5t-78 269.5v1001q0 182 78 270.5t201 88.5q51 0 92.5 -13.5t74 -40.5t56 -56.5t49.5 -71.5zM1077 1946h180v-322q0 -92 -39.5 -133t-117.5 -41h-23v98h21q23 0 39 20t16 62v107h-76v209
zM635 410v862q0 174 -125 174q-119 0 -119 -168v-875q0 -167 119 -167q125 0 125 174z" />
    <glyph glyph-name="Dcroat" unicode="&#x110;" 
d="M588 1935q198 0 309 -118t111 -342v-1016q0 -222 -111.5 -340.5t-308.5 -118.5h-461v922h-109v94h109v919h461zM698 426v1083q0 76 -38 118t-99 42h-127v-653h152v-94h-152v-656h125q62 0 100.5 42t38.5 118z" />
    <glyph glyph-name="dcroat" unicode="&#x111;" horiz-adv-x="1054" 
d="M1006 1825v-94h-68v-1731h-301v172q-45 -93 -109 -142.5t-163 -49.5q-123 2 -201 90.5t-78 269.5v1001q0 182 78 270.5t201 88.5q51 0 92.5 -13.5t74 -40.5t56 -56.5t49.5 -71.5v213h-100v94h100v121h301v-121h68zM635 410v862q0 174 -125 174q-119 0 -119 -168v-875
q0 -167 119 -167q125 0 125 174z" />
    <glyph glyph-name="Emacron" unicode="&#x112;" horiz-adv-x="915" 
d="M264 2138h502v-96h-502v96zM434 266h404v-266h-711v1935h707v-266h-400v-545h367v-262h-367v-596z" />
    <glyph glyph-name="emacron" unicode="&#x113;" horiz-adv-x="1034" 
d="M262 1884h502v-96h-502v96zM524 1700q424 0 424 -445v-452h-555v-387q0 -180 137 -180q125 0 125 139v317h293v-340q0 -164 -113.5 -268t-302.5 -104q-219 0 -332.5 116.5t-113.5 329.5v803q0 228 114.5 349.5t323.5 121.5zM526 1450q-66 0 -99.5 -46.5t-33.5 -123.5
v-238h256v238q0 83 -28 126.5t-95 43.5z" />
    <glyph glyph-name="Edotaccent" unicode="&#x116;" horiz-adv-x="915" 
d="M449 2163h143v-162h-143v162zM434 266h404v-266h-711v1935h707v-266h-400v-545h367v-262h-367v-596z" />
    <glyph glyph-name="edotaccent" unicode="&#x117;" horiz-adv-x="1034" 
d="M446 1909h144v-162h-144v162zM524 1700q424 0 424 -445v-452h-555v-387q0 -180 137 -180q125 0 125 139v317h293v-340q0 -164 -113.5 -268t-302.5 -104q-219 0 -332.5 116.5t-113.5 329.5v803q0 228 114.5 349.5t323.5 121.5zM526 1450q-66 0 -99.5 -46.5t-33.5 -123.5
v-238h256v238q0 83 -28 126.5t-95 43.5z" />
    <glyph glyph-name="Eogonek" unicode="&#x118;" horiz-adv-x="915" 
d="M705 0q-64 -3 -64 -59q0 -43 51 -43q81 0 144 24v-100q-106 -60 -238 -60q-70 0 -120 33t-50 94q0 62 49 111h-350v1935h707v-266h-400v-545h367v-262h-367v-596h404v-266h-133z" />
    <glyph glyph-name="eogonek" unicode="&#x119;" horiz-adv-x="1034" 
d="M948 803h-555v-387q0 -180 137 -180q125 0 125 139v317h293v-340q0 -153 -99 -255t-269 -115q-13 -16 -13 -39q0 -43 51 -43q81 0 144 24v-100q-106 -60 -238 -60q-70 0 -120 33t-50 94q0 56 41 103q-152 33 -230.5 144.5t-78.5 287.5v803q0 228 114.5 349.5t323.5 121.5
q424 0 424 -445v-452zM393 1280v-238h256v238q0 83 -28 126.5t-95 43.5q-66 0 -99.5 -46.5t-33.5 -123.5z" />
    <glyph glyph-name="Ecaron" unicode="&#x11a;" horiz-adv-x="915" 
d="M780 2171l-164 -172h-184l-172 172h127l133 -107l139 107h121zM434 266h404v-266h-711v1935h707v-266h-400v-545h367v-262h-367v-596z" />
    <glyph glyph-name="ecaron" unicode="&#x11b;" horiz-adv-x="1034" 
d="M778 1917l-164 -172h-184l-172 172h127l133 -107l139 107h121zM524 1700q424 0 424 -445v-452h-555v-387q0 -180 137 -180q125 0 125 139v317h293v-340q0 -164 -113.5 -268t-302.5 -104q-219 0 -332.5 116.5t-113.5 329.5v803q0 228 114.5 349.5t323.5 121.5zM526 1450
q-66 0 -99.5 -46.5t-33.5 -123.5v-238h256v238q0 83 -28 126.5t-95 43.5z" />
    <glyph glyph-name="Gbreve" unicode="&#x11e;" horiz-adv-x="1099" 
d="M821 2171q-20 -75 -90 -124.5t-184 -49.5q-115 0 -186 49.5t-91 124.5h131q27 -84 146 -84q115 0 149 84h125zM702 143q-34 -87 -99 -125t-169 -38q-143 2 -236.5 108.5t-93.5 298.5v1086q0 231 118 356t341 125q213 0 325.5 -109t112.5 -303v-350h-307v330
q0 166 -137 166q-61 0 -100 -46t-39 -120v-1110q0 -84 37.5 -124t99.5 -40t102.5 42.5t40.5 108.5v383h-143v260h446v-1042h-251l-27 143h-21z" />
    <glyph glyph-name="gbreve" unicode="&#x11f;" horiz-adv-x="1050" 
d="M795 1911q-20 -75 -90.5 -124.5t-184.5 -49.5q-115 0 -185.5 49.5t-90.5 124.5h131q27 -84 145 -84q116 0 150 84h125zM670 1683h268v-1540q0 -99 -29 -172t-81 -115.5t-116 -62.5t-141 -20h-395v252h311q76 0 114 33.5t38 107.5v149q-37 -69 -69 -109t-84 -67t-121 -26
q-124 0 -201.5 86t-77.5 260v895q0 174 77.5 260t201.5 86q96 0 158.5 -51.5t115.5 -143.5zM508 1446q-55 0 -87 -40t-32 -120v-749q0 -168 119 -168q127 0 127 174v729q0 174 -127 174z" />
    <glyph glyph-name="Gdotaccent" unicode="&#x120;" horiz-adv-x="1099" 
d="M475 2169h143v-162h-143v162zM702 143q-34 -87 -99 -125t-169 -38q-143 2 -236.5 108.5t-93.5 298.5v1086q0 231 118 356t341 125q213 0 325.5 -109t112.5 -303v-350h-307v330q0 166 -137 166q-61 0 -100 -46t-39 -120v-1110q0 -84 37.5 -124t99.5 -40t102.5 42.5
t40.5 108.5v383h-143v260h446v-1042h-251l-27 143h-21z" />
    <glyph glyph-name="gdotaccent" unicode="&#x121;" horiz-adv-x="1050" 
d="M449 1909h143v-162h-143v162zM670 1683h268v-1540q0 -99 -29 -172t-81 -115.5t-116 -62.5t-141 -20h-395v252h311q76 0 114 33.5t38 107.5v149q-37 -69 -69 -109t-84 -67t-121 -26q-124 0 -201.5 86t-77.5 260v895q0 174 77.5 260t201.5 86q96 0 158.5 -51.5
t115.5 -143.5zM508 1446q-55 0 -87 -40t-32 -120v-749q0 -168 119 -168q127 0 127 174v729q0 174 -127 174z" />
    <glyph glyph-name="Gcommaaccent" unicode="&#x122;" horiz-adv-x="1099" 
d="M1001 1192h-307v330q0 166 -137 166q-61 0 -100 -46t-39 -120v-1110q0 -84 37.5 -124t99.5 -40t102.5 42.5t40.5 108.5v383h-143v260h446v-1042h-251l-27 143h-21q-34 -87 -99 -125t-169 -38q-143 2 -236.5 108.5t-93.5 298.5v1086q0 231 118 356t341 125
q213 0 325.5 -109t112.5 -303v-350zM463 -137v90h246v-94q0 -52 -37.5 -78.5t-106.5 -26.5h-102v60h92q51 0 51 36v15z" />
    <glyph glyph-name="gcommaaccent" unicode="&#x123;" horiz-adv-x="1050" 
d="M670 1683h268v-1540q0 -99 -29 -172t-81 -115.5t-116 -62.5t-141 -20h-395v252h311q76 0 114 33.5t38 107.5v149q-37 -69 -69 -109t-84 -67t-121 -26q-124 0 -201.5 86t-77.5 260v895q0 174 77.5 260t201.5 86q96 0 158.5 -51.5t115.5 -143.5zM635 543v729
q0 174 -127 174q-55 0 -87 -40t-32 -120v-749q0 -168 119 -168q127 0 127 174zM428 -350v90h246v-94q0 -52 -37.5 -78.5t-106.5 -26.5h-102v60h92q51 0 51 37v14z" />
    <glyph glyph-name="Hbar" unicode="&#x126;" horiz-adv-x="1112" 
d="M1083 1602v-95h-90v-1507h-307v858h-252v-858h-307v1507h-98v95h98v333h307v-333h252v333h307v-333h90zM686 1124v383h-252v-383h252z" />
    <glyph glyph-name="hbar" unicode="&#x127;" horiz-adv-x="1052" 
d="M711 1700q110 0 175.5 -73t65.5 -226v-1401h-301v1321q0 115 -104 115q-56 0 -94.5 -41t-38.5 -115v-1280h-301v1731h-64v94h64v121h301v-121h104v-94h-104v-228q42 78 120.5 138t176.5 59z" />
    <glyph glyph-name="Imacron" unicode="&#x12a;" horiz-adv-x="561" 
d="M25 2138h501v-96h-501v96zM127 1935h307v-1935h-307v1935z" />
    <glyph glyph-name="imacron" unicode="&#x12b;" horiz-adv-x="528" 
d="M8 1884h502v-96h-502v96zM113 1681h303v-1681h-303v1681z" />
    <glyph glyph-name="Iogonek" unicode="&#x12e;" horiz-adv-x="561" 
d="M330 -102q80 0 143 24v-100q-106 -60 -237 -60q-70 0 -120 33t-50 94q0 71 61 121v1925h307v-1935h-92q-63 -3 -63 -59q0 -43 51 -43z" />
    <glyph glyph-name="iogonek" unicode="&#x12f;" horiz-adv-x="528" 
d="M414 1946v-195h-299v195h299zM315 -98q81 0 144 24v-100q-104 -59 -238 -59q-70 0 -120 33t-50 94q0 70 62 120v1667h303v-1681h-113q-39 -12 -39 -55t51 -43z" />
    <glyph glyph-name="Idotaccent" unicode="&#x130;" horiz-adv-x="561" 
d="M209 2163h143v-162h-143v162zM127 1935h307v-1935h-307v1935z" />
    <glyph glyph-name="dotlessi" unicode="&#x131;" horiz-adv-x="528" 
d="M113 1681h303v-1681h-303v1681z" />
    <glyph glyph-name="Kcommaaccent" unicode="&#x136;" horiz-adv-x="1112" 
d="M731 995l385 -995h-356l-305 883h-23v-883h-305v1935h307l-2 -858h23l293 858h331zM483 -125v90h246v-94q0 -104 -143 -104h-103v59h92q52 0 52 37v14z" />
    <glyph glyph-name="kcommaaccent" unicode="&#x137;" horiz-adv-x="1060" 
d="M727 897l324 -897h-340l-273 799h-22v-799h-303v1946h303v-985h20l266 720h326zM430 -125v90h246v-94q0 -52 -37.5 -78t-106.5 -26h-102v59h92q51 0 51 37v14z" />
    <glyph glyph-name="Lacute" unicode="&#x139;" horiz-adv-x="811" 
d="M475 2163h193l-207 -170h-107zM434 266h383v-266h-690v1935h307v-1669z" />
    <glyph glyph-name="lacute" unicode="&#x13a;" horiz-adv-x="528" 
d="M307 2163h193l-207 -170h-107zM113 1946h303v-1946h-303v1946z" />
    <glyph glyph-name="Lcommaaccent" unicode="&#x13b;" horiz-adv-x="811" 
d="M434 266h383v-266h-690v1935h307v-1669zM334 -125v90h246v-94q0 -52 -37.5 -78t-106.5 -26h-102v59h92q51 0 51 37v14z" />
    <glyph glyph-name="lcommaaccent" unicode="&#x13c;" horiz-adv-x="528" 
d="M113 1946h303v-1946h-303v1946zM166 -125v90h246v-94q0 -52 -37.5 -78t-106.5 -26h-102v59h92q51 0 51 37v14z" />
    <glyph glyph-name="Lcaron" unicode="&#x13d;" horiz-adv-x="870" 
d="M434 1935v-1669h383v-266h-690v1935h307zM645 1935h193v-639q0 -36 -6 -63.5t-21.5 -54t-48 -40.5t-80.5 -14h-37v103h35q53 0 53 82v202h-88v424z" />
    <glyph glyph-name="lcaron" unicode="&#x13e;" horiz-adv-x="528" 
d="M524 2171l-164 -172h-184l-172 172h127l133 -107l139 107h121zM113 1946h303v-1946h-303v1946z" />
    <glyph glyph-name="Lslash" unicode="&#x141;" horiz-adv-x="811" 
d="M434 266h383v-266h-690v799l-139 -76v166l139 78v968h307v-798l197 108v-168l-197 -108v-703z" />
    <glyph glyph-name="lslash" unicode="&#x142;" horiz-adv-x="528" 
d="M586 1276v-168l-170 -94v-1014h-303v848l-170 -94v166l170 94v932h303v-764z" />
    <glyph glyph-name="Nacute" unicode="&#x143;" horiz-adv-x="1146" 
d="M631 2163h192l-207 -170h-106zM750 868l-19 525v542h289v-1935h-299l-303 1174h-19l15 -494v-680h-287v1935h332l270 -1067h21z" />
    <glyph glyph-name="nacute" unicode="&#x144;" horiz-adv-x="1050" 
d="M565 1909h193l-207 -170h-107zM711 1700q110 0 175.5 -73t65.5 -226v-1401h-301v1321q0 115 -104 115q-56 0 -94.5 -41t-38.5 -115v-1280h-301v1681h266l29 -178q41 78 122.5 138t180.5 59z" />
    <glyph glyph-name="Ncommaaccent" unicode="&#x145;" horiz-adv-x="1146" 
d="M731 1935h289v-1935h-299l-303 1174h-19l15 -494v-680h-287v1935h332l270 -1067h21l-19 525v542zM489 -125v90h246v-94q0 -104 -143 -104h-103v59h93q51 0 51 37v14z" />
    <glyph glyph-name="ncommaaccent" unicode="&#x146;" horiz-adv-x="1050" 
d="M711 1700q110 0 175.5 -73t65.5 -226v-1401h-301v1321q0 115 -104 115q-56 0 -94.5 -41t-38.5 -115v-1280h-301v1681h266l29 -178q41 78 122.5 138t180.5 59zM424 -125v90h246v-94q0 -52 -37.5 -78t-106.5 -26h-102v59h92q51 0 51 37v14z" />
    <glyph glyph-name="Ncaron" unicode="&#x147;" horiz-adv-x="1146" 
d="M848 2171l-164 -172h-184l-172 172h127l133 -107l139 107h121zM750 868l-19 525v542h289v-1935h-299l-303 1174h-19l15 -494v-680h-287v1935h332l270 -1067h21z" />
    <glyph glyph-name="ncaron" unicode="&#x148;" horiz-adv-x="1050" 
d="M782 1917l-164 -172h-184l-172 172h127l133 -107l140 107h120zM711 1700q110 0 175.5 -73t65.5 -226v-1401h-301v1321q0 115 -104 115q-56 0 -94.5 -41t-38.5 -115v-1280h-301v1681h266l29 -178q41 78 122.5 138t180.5 59z" />
    <glyph glyph-name="Eng" unicode="&#x14a;" horiz-adv-x="1146" 
d="M731 1935h289v-1888q0 -121 -73 -190.5t-193 -69.5h-195v252h90q37 0 52.5 20t15.5 72v19l-299 1024h-19l15 -469v-705h-287v1935h332l270 -1067h21l-19 525v542z" />
    <glyph glyph-name="eng" unicode="&#x14b;" horiz-adv-x="1050" 
d="M711 1700q110 0 175.5 -73t65.5 -226v-1335q0 -121 -73 -191t-193 -70q-81 0 -180 21v192h76q37 0 53 20.5t16 74.5v1208q0 115 -104 115q-56 0 -94.5 -41t-38.5 -115v-1280h-301v1681h266l29 -178q41 78 122.5 138t180.5 59z" />
    <glyph glyph-name="Omacron" unicode="&#x14c;" 
d="M301 2144h502v-96h-502v96zM555 1954q219 0 337 -125.5t118 -355.5v-1012q0 -228 -119 -354.5t-336 -126.5q-218 0 -334.5 126t-116.5 355v1012q0 230 117 355.5t334 125.5zM698 412v1110q0 75 -38 119.5t-101 44.5t-102 -44.5t-39 -119.5v-1110q0 -74 38.5 -119
t100.5 -45q63 0 102 44.5t39 119.5z" />
    <glyph glyph-name="omacron" unicode="&#x14d;" horiz-adv-x="1044" 
d="M266 1884h502v-96h-502v96zM524 1700q208 0 321 -119t113 -340v-803q0 -220 -113.5 -339t-322.5 -119q-206 0 -321 119.5t-115 338.5v803q0 220 115 339.5t323 119.5zM651 416v848q0 182 -127 182q-64 0 -98.5 -46t-34.5 -136l-2 -848q0 -88 35 -134t98 -46
q129 0 129 180z" />
    <glyph glyph-name="Ohungarumlaut" unicode="&#x150;" 
d="M459 2169h192l-207 -170h-106zM696 2167h193l-207 -170h-107zM555 1954q219 0 337 -125.5t118 -355.5v-1012q0 -228 -119 -354.5t-336 -126.5q-218 0 -334.5 126t-116.5 355v1012q0 230 117 355.5t334 125.5zM698 412v1110q0 75 -38 119.5t-101 44.5t-102 -44.5
t-39 -119.5v-1110q0 -74 38.5 -119t100.5 -45q63 0 102 44.5t39 119.5z" />
    <glyph glyph-name="ohungarumlaut" unicode="&#x151;" horiz-adv-x="1044" 
d="M424 1909h192l-206 -170h-107zM662 1907h192l-207 -170h-106zM524 1700q208 0 321 -119t113 -340v-803q0 -220 -113.5 -339t-322.5 -119q-206 0 -321 119.5t-115 338.5v803q0 220 115 339.5t323 119.5zM651 416v848q0 182 -127 182q-64 0 -98.5 -46t-34.5 -136l-2 -848
q0 -88 35 -134t98 -46q129 0 129 180z" />
    <glyph glyph-name="OE" unicode="&#x152;" horiz-adv-x="1492" 
d="M1413 266v-266h-700q-67 -20 -158 -20q-218 0 -334.5 126t-116.5 355v1012q0 230 117 355.5t334 125.5q81 0 152 -19h702v-266h-399v-545h366v-262h-366v-596h403zM698 412v1110q0 75 -38 119.5t-101 44.5t-102 -44.5t-39 -119.5v-1110q0 -74 38.5 -119t100.5 -45
q63 0 102 44.5t39 119.5z" />
    <glyph glyph-name="oe" unicode="&#x153;" horiz-adv-x="1597" 
d="M958 803v-365q0 -41 -2 -59q6 -70 41 -106.5t95 -36.5q125 0 125 139v317h292v-340q0 -164 -113 -268t-302 -104q-181 0 -291 81q-110 -81 -281 -81q-206 0 -321 119.5t-115 338.5v803q0 220 115 339.5t323 119.5q170 0 281 -82q111 82 280 82q424 0 424 -445v-452h-551z
M1087 1450q-61 0 -93.5 -37.5t-37.5 -103.5q2 -23 2 -68v-199h252v238q0 83 -28 126.5t-95 43.5zM522 236q112 0 127 137q-2 18 -2 53v803q0 47 2 67q-9 150 -125 150q-64 0 -98.5 -46t-34.5 -136l-2 -848q0 -88 35 -134t98 -46z" />
    <glyph glyph-name="Racute" unicode="&#x154;" 
d="M795 2163l-207 -170h-107l121 170h193zM1049 0h-308l-118 692h-189v-692h-307v1935h444q209 0 326 -110.5t117 -323.5v-344q0 -206 -129 -332zM438 954h88q84 0 129 48t45 143v334q0 94 -45 142t-129 48h-88v-715z" />
    <glyph glyph-name="racute" unicode="&#x155;" horiz-adv-x="995" 
d="M569 1909h193l-207 -170h-106zM698 1700q109 0 174.5 -77t65.5 -247v-637h-301l-2 561q0 71 -19 103.5t-71 32.5q-55 0 -93 -50.5t-38 -136.5v-1249h-301v1681h266l22 -178q25 38 42 61.5t45.5 52t56 44.5t67.5 27.5t86 11.5z" />
    <glyph glyph-name="Rcommaaccent" unicode="&#x156;" 
d="M885 825l164 -825h-308l-118 692h-189v-692h-307v1935h444q209 0 326 -110.5t117 -323.5v-344q0 -206 -129 -332zM438 954h88q84 0 129 48t45 143v334q0 94 -45 142t-129 48h-88v-715zM461 -125v90h246v-94q0 -52 -37.5 -78t-106.5 -26h-102v59h92q51 0 51 37v14z" />
    <glyph glyph-name="rcommaaccent" unicode="&#x157;" horiz-adv-x="995" 
d="M698 1700q109 0 174.5 -77t65.5 -247v-637h-301l-2 561q0 71 -19 103.5t-71 32.5q-55 0 -93 -50.5t-38 -136.5v-1249h-301v1681h266l22 -178q25 38 42 61.5t45.5 52t56 44.5t67.5 27.5t86 11.5zM428 -125v90h246v-94q0 -52 -37.5 -78t-106.5 -26h-102v59h92q51 0 51 37
v14z" />
    <glyph glyph-name="Rcaron" unicode="&#x158;" 
d="M655 1999h-184l-172 172h127l133 -107l139 107h121zM1049 0h-308l-118 692h-189v-692h-307v1935h444q209 0 326 -110.5t117 -323.5v-344q0 -206 -129 -332zM438 954h88q84 0 129 48t45 143v334q0 94 -45 142t-129 48h-88v-715z" />
    <glyph glyph-name="rcaron" unicode="&#x159;" horiz-adv-x="995" 
d="M786 1917l-163 -172h-185l-172 172h127l133 -107l140 107h120zM698 1700q109 0 174.5 -77t65.5 -247v-637h-301l-2 561q0 71 -19 103.5t-71 32.5q-55 0 -93 -50.5t-38 -136.5v-1249h-301v1681h266l22 -178q25 38 42 61.5t45.5 52t56 44.5t67.5 27.5t86 11.5z" />
    <glyph glyph-name="Sacute" unicode="&#x15a;" horiz-adv-x="1101" 
d="M584 2169h192l-207 -170h-106zM989 1303h-303v249q0 63 -35 99.5t-102 36.5q-62 0 -97.5 -33.5t-35.5 -81.5v-242q0 -58 26.5 -88.5t89.5 -56.5l164 -62q79 -30 132 -61t97.5 -77.5t65.5 -111.5t21 -153v-318q0 -193 -123.5 -308t-325.5 -115q-206 0 -326 104.5
t-120 280.5v333h307v-307q0 -63 36 -103t103 -40q62 0 99.5 38.5t37.5 96.5v299q0 114 -137 164l-172 59q-144 48 -213 139.5t-69 247.5v269q0 80 27 149.5t79.5 124.5t139.5 87t198 32q211 0 323.5 -101t112.5 -268v-282z" />
    <glyph glyph-name="sacute" unicode="&#x15b;" horiz-adv-x="1003" 
d="M549 1909h192l-206 -170h-107zM670 983q140 -38 206 -124t66 -232v-269q0 -175 -119 -276.5t-313 -101.5q-204 0 -319 93.5t-115 288.5v271h299v-289q0 -49 35 -78.5t92 -29.5q60 0 97.5 29t37.5 75v250q0 48 -27.5 78.5t-91.5 50.5l-203 51q-128 35 -187.5 118.5
t-59.5 223.5v221q0 161 115.5 264t314.5 103q105 0 186.5 -26.5t131 -73t74.5 -106t25 -128.5v-246h-294v213q0 54 -35 85.5t-90 31.5q-57 0 -91 -27.5t-34 -68.5v-209q0 -42 22.5 -67t79.5 -42z" />
    <glyph glyph-name="Scedilla" unicode="&#x15e;" horiz-adv-x="1101" 
d="M696 1124q79 -30 132 -61t97.5 -77.5t65.5 -111.5t21 -153v-318q0 -190 -120.5 -305t-318.5 -118l-65 -103q31 25 50.5 34t47.5 9q80 0 80 -78v-18q0 -56 -39 -85.5t-102 -29.5q-68 0 -108 28t-40 81v12h121v-29q0 -13 7 -21.5t18 -8.5q22 0 22 30v31q0 31 -26 31h-131
l75 121q-171 20 -268.5 122t-97.5 259v333h307v-307q0 -63 36 -103t103 -40q62 0 99.5 38.5t37.5 96.5v299q0 114 -137 164l-172 59q-144 48 -213 139.5t-69 247.5v269q0 80 27 149.5t79.5 124.5t139.5 87t198 32q211 0 323.5 -101t112.5 -268v-282h-303v249q0 63 -35 99.5
t-102 36.5q-62 0 -97.5 -33.5t-35.5 -81.5v-242q0 -58 26.5 -88.5t89.5 -56.5z" />
    <glyph glyph-name="scedilla" unicode="&#x15f;" horiz-adv-x="1003" 
d="M670 983q140 -38 206 -124t66 -232v-269q0 -168 -111.5 -270t-295.5 -108l-68 -105q31 25 50.5 34t47.5 9q80 0 80 -78v-18q0 -56 -39 -85.5t-102 -29.5q-68 0 -108 28t-40 81v12h121v-29q0 -13 7 -21.5t18 -8.5q22 0 22 30v31q0 31 -26 31h-131l75 121q-174 16 -270 109
t-96 271v271h299v-289q0 -49 35 -78.5t92 -29.5q60 0 97.5 29t37.5 75v250q0 48 -27.5 78.5t-91.5 50.5l-203 51q-128 35 -187.5 118.5t-59.5 223.5v221q0 161 115.5 264t314.5 103q105 0 186.5 -26.5t131 -73t74.5 -106t25 -128.5v-246h-294v213q0 54 -35 85.5t-90 31.5
q-57 0 -91 -27.5t-34 -68.5v-209q0 -42 22.5 -67t79.5 -42z" />
    <glyph glyph-name="Scaron" unicode="&#x160;" horiz-adv-x="1101" 
d="M801 2177l-164 -172h-184l-172 172h127l133 -106l139 106h121zM989 1303h-303v249q0 63 -35 99.5t-102 36.5q-62 0 -97.5 -33.5t-35.5 -81.5v-242q0 -58 26.5 -88.5t89.5 -56.5l164 -62q79 -30 132 -61t97.5 -77.5t65.5 -111.5t21 -153v-318q0 -193 -123.5 -308
t-325.5 -115q-206 0 -326 104.5t-120 280.5v333h307v-307q0 -63 36 -103t103 -40q62 0 99.5 38.5t37.5 96.5v299q0 114 -137 164l-172 59q-144 48 -213 139.5t-69 247.5v269q0 80 27 149.5t79.5 124.5t139.5 87t198 32q211 0 323.5 -101t112.5 -268v-282z" />
    <glyph glyph-name="scaron" unicode="&#x161;" horiz-adv-x="1003" 
d="M766 1917l-164 -172h-184l-172 172h127l133 -107l139 107h121zM670 983q140 -38 206 -124t66 -232v-269q0 -175 -119 -276.5t-313 -101.5q-204 0 -319 93.5t-115 288.5v271h299v-289q0 -49 35 -78.5t92 -29.5q60 0 97.5 29t37.5 75v250q0 48 -27.5 78.5t-91.5 50.5
l-203 51q-128 35 -187.5 118.5t-59.5 223.5v221q0 161 115.5 264t314.5 103q105 0 186.5 -26.5t131 -73t74.5 -106t25 -128.5v-246h-294v213q0 54 -35 85.5t-90 31.5q-57 0 -91 -27.5t-34 -68.5v-209q0 -42 22.5 -67t79.5 -42z" />
    <glyph glyph-name="uni0162" unicode="&#x162;" horiz-adv-x="917" 
d="M2 1935h913v-266h-303v-1669h-120l-72 -113q31 25 50.5 34t47.5 9q80 0 80 -77v-19q0 -56 -39 -85.5t-102 -29.5q-68 0 -108 28t-40 81v12h121v-28q0 -13 7 -22t18 -9q22 0 22 31v30q0 31 -26 31h-132l78 127h-92v1669h-303v266z" />
    <glyph glyph-name="uni0163" unicode="&#x163;" horiz-adv-x="763" 
d="M535 0q-36 0 -52 2l-73 -115q31 25 50.5 34t47.5 9q80 0 80 -77v-19q0 -56 -39.5 -85.5t-102.5 -29.5q-68 0 -107.5 28t-39.5 81v12h121v-28q0 -14 7 -22.5t17 -8.5q23 0 23 31v30q0 31 -27 31h-131l90 145q-104 30 -157.5 109.5t-53.5 198.5v1110h-174v245q51 0 87 4.5
t63 18.5t43.5 30t29 48t19.5 63t16 84h224v-248h233v-245h-240v-1041q0 -129 113 -129h133v-266h-200z" />
    <glyph glyph-name="Tcaron" unicode="&#x164;" horiz-adv-x="917" 
d="M719 2171l-164 -172h-184l-172 172h127l133 -107l139 107h121zM915 1935v-266h-303v-1669h-307v1669h-303v266h913z" />
    <glyph glyph-name="tcaron" unicode="&#x165;" horiz-adv-x="1005" 
d="M489 395q0 -129 113 -129h133v-266h-200q-170 0 -258.5 86t-88.5 240v1110h-174v245q51 0 87 4.5t63 18.5t43.5 30t29 48t19.5 63t16 84h224v-248h233v-245h-240v-1041zM788 1929h181v-321q0 -92 -40 -133t-118 -41h-23v98h23q22 0 37.5 20t15.5 62v106h-76v209z" />
    <glyph glyph-name="Tbar" unicode="&#x166;" horiz-adv-x="917" 
d="M915 1669h-303v-653h127v-94h-127v-922h-307v922h-133v94h133v653h-303v266h913v-266z" />
    <glyph glyph-name="tbar" unicode="&#x167;" horiz-adv-x="739" 
d="M602 266h133v-266h-200q-170 0 -258.5 86t-88.5 240v508h-176v94h176v508h-174v245q51 0 87 4.5t63 18.5t43.5 30t29 48t19.5 63t16 84h224v-248h233v-245h-240v-508h238v-94h-238v-439q0 -129 113 -129z" />
    <glyph glyph-name="Umacron" unicode="&#x16a;" 
d="M301 2138h502v-96h-502v96zM991 1935v-1556q0 -194 -114 -296.5t-322 -102.5q-207 0 -320.5 101t-113.5 292v1562h307v-1536q0 -77 36 -114t93 -37q58 0 92.5 36.5t34.5 114.5v1536h307z" />
    <glyph glyph-name="umacron" unicode="&#x16b;" horiz-adv-x="1050" 
d="M256 1884h502v-96h-502v96zM637 1681h301v-1681h-266l-29 180q-41 -78 -122.5 -138.5t-178.5 -59.5q-112 2 -178 77t-66 236v1386h301v-1321q0 -55 26.5 -84.5t78.5 -29.5q57 0 95 40t38 115v1280z" />
    <glyph glyph-name="Uring" unicode="&#x16e;" 
d="M559 1944q-48 0 -81.5 31.5t-33.5 78.5t33.5 78t81.5 31q46 0 78.5 -31t32.5 -78t-32.5 -78.5t-78.5 -31.5zM557 1999q22 0 38 16t15 39q0 23 -15.5 38t-37.5 15q-23 0 -38 -15t-15 -38t15 -39t38 -16zM991 1935v-1556q0 -194 -114 -296.5t-322 -102.5q-207 0 -320.5 101
t-113.5 292v1562h307v-1536q0 -77 36 -114t93 -37q58 0 92.5 36.5t34.5 114.5v1536h307z" />
    <glyph glyph-name="uring" unicode="&#x16f;" horiz-adv-x="1050" 
d="M514 1690q-48 0 -81.5 31.5t-33.5 78.5t33.5 78t81.5 31q46 0 78.5 -31t32.5 -78t-32.5 -78.5t-78.5 -31.5zM512 1745q22 0 38 16t15 39q0 23 -15.5 38t-37.5 15q-23 0 -38 -15t-15 -38t15 -39t38 -16zM637 1681h301v-1681h-266l-29 180q-41 -78 -122.5 -138.5
t-178.5 -59.5q-112 2 -178 77t-66 236v1386h301v-1321q0 -55 26.5 -84.5t78.5 -29.5q57 0 95 40t38 115v1280z" />
    <glyph glyph-name="Uhungarumlaut" unicode="&#x170;" 
d="M459 2163h192l-207 -170h-106zM696 2161h193l-207 -170h-107zM991 1935v-1556q0 -194 -114 -296.5t-322 -102.5q-207 0 -320.5 101t-113.5 292v1562h307v-1536q0 -77 36 -114t93 -37q58 0 92.5 36.5t34.5 114.5v1536h307z" />
    <glyph glyph-name="uhungarumlaut" unicode="&#x171;" horiz-adv-x="1050" 
d="M414 1909h192l-207 -170h-106zM651 1907h193l-207 -170h-107zM637 1681h301v-1681h-266l-29 180q-41 -78 -122.5 -138.5t-178.5 -59.5q-112 2 -178 77t-66 236v1386h301v-1321q0 -55 26.5 -84.5t78.5 -29.5q57 0 95 40t38 115v1280z" />
    <glyph glyph-name="Uogonek" unicode="&#x172;" 
d="M684 1935h307v-1556q0 -181 -98.5 -282t-280.5 -115q-12 -15 -12 -39q0 -43 51 -43q81 0 144 24v-100q-106 -60 -238 -60q-70 0 -120 33t-50 94q0 53 39 101q-147 28 -226 125t-79 256v1562h307v-1536q0 -77 36 -114t93 -37q58 0 92.5 36.5t34.5 114.5v1536z" />
    <glyph glyph-name="uogonek" unicode="&#x173;" horiz-adv-x="1050" 
d="M782 0q-63 -3 -63 -59q0 -43 51 -43q80 0 143 24v-100q-106 -60 -237 -60q-70 0 -120 33t-50 94q0 52 39 99.5t119 66.5l-21 125q-41 -78 -122.5 -138.5t-178.5 -59.5q-112 2 -178 77t-66 236v1386h301v-1321q0 -55 26.5 -84.5t78.5 -29.5q57 0 95 40t38 115v1280h301
v-1681h-156z" />
    <glyph glyph-name="Wcircumflex" unicode="&#x174;" horiz-adv-x="1677" 
d="M1102 1991h-121l-139 106l-133 -106h-127l172 172h184zM1192 592h22l31 344l111 999h323l-270 -1933h-385l-135 950l-43 412h-19l-39 -412l-137 -952h-385l-266 1935h328l104 -999l33 -340h22l41 340l148 999h332l145 -999z" />
    <glyph glyph-name="wcircumflex" unicode="&#x175;" horiz-adv-x="1515" 
d="M1018 1737h-121l-139 106l-133 -106h-127l172 172h184zM1079 580l19 251l69 855h310l-226 -1686h-327l-115 807l-33 268h-28l-35 -268l-117 -807h-336l-221 1686h309l78 -855l20 -251h23l27 251l137 855h258l133 -855l29 -251h26z" />
    <glyph glyph-name="Ycircumflex" unicode="&#x176;" horiz-adv-x="1099" 
d="M811 1991h-121l-139 106l-133 -106h-127l172 172h184zM567 1102l56 250l122 583l338 2l-381 -1380v-557h-307v565l-381 1372l348 -2l125 -583l56 -250h24z" />
    <glyph glyph-name="ycircumflex" unicode="&#x177;" horiz-adv-x="1005" 
d="M758 1737h-121l-139 106l-133 -106h-127l172 172h184zM520 522l49 355l80 804h318l-260 -1542q-23 -102 -64 -175t-95.5 -113.5t-113.5 -59t-127 -18.5h-252v252h158q82 0 119 59l-293 1597h311l99 -804l49 -355h22z" />
    <glyph glyph-name="Ydieresis" unicode="&#x178;" horiz-adv-x="1099" 
d="M362 2163h144v-162h-144v162zM596 2163h143v-162h-143v162zM567 1102l56 250l122 583l338 2l-381 -1380v-557h-307v565l-381 1372l348 -2l125 -583l56 -250h24z" />
    <glyph glyph-name="Zacute" unicode="&#x179;" horiz-adv-x="958" 
d="M532 2163h193l-207 -170h-106zM414 266h487v-266h-838v242l465 1427h-458v266h800l-2 -247z" />
    <glyph glyph-name="zacute" unicode="&#x17a;" horiz-adv-x="872" 
d="M461 1909h192l-207 -170h-106zM377 250h444v-250h-766v223l420 1209h-403v249h737v-225z" />
    <glyph glyph-name="Zdotaccent" unicode="&#x17b;" horiz-adv-x="958" 
d="M418 2163h143v-162h-143v162zM414 266h487v-266h-838v242l465 1427h-458v266h800l-2 -247z" />
    <glyph glyph-name="zdotaccent" unicode="&#x17c;" horiz-adv-x="872" 
d="M346 1909h143v-162h-143v162zM377 250h444v-250h-766v223l420 1209h-403v249h737v-225z" />
    <glyph glyph-name="Zcaron" unicode="&#x17d;" horiz-adv-x="958" 
d="M750 2171l-164 -172h-185l-172 172h127l133 -107l140 107h121zM414 266h487v-266h-838v242l465 1427h-458v266h800l-2 -247z" />
    <glyph glyph-name="zcaron" unicode="&#x17e;" horiz-adv-x="872" 
d="M678 1917l-164 -172h-184l-172 172h127l133 -107l139 107h121zM377 250h444v-250h-766v223l420 1209h-403v249h737v-225z" />
    <glyph glyph-name="Scommaaccent" unicode="&#x218;" horiz-adv-x="1101" 
d="M696 1124q79 -30 132 -61t97.5 -77.5t65.5 -111.5t21 -153v-318q0 -193 -123.5 -308t-325.5 -115q-206 0 -326 104.5t-120 280.5v333h307v-307q0 -63 36 -103t103 -40q62 0 99.5 38.5t37.5 96.5v299q0 114 -137 164l-172 59q-144 48 -213 139.5t-69 247.5v269
q0 80 27 149.5t79.5 124.5t139.5 87t198 32q211 0 323.5 -101t112.5 -268v-282h-303v249q0 63 -35 99.5t-102 36.5q-62 0 -97.5 -33.5t-35.5 -81.5v-242q0 -58 26.5 -88.5t89.5 -56.5zM449 -135v90h245v-94q0 -52 -37 -78.5t-106 -26.5h-102v60h92q51 0 51 37v14z" />
    <glyph glyph-name="scommaaccent" unicode="&#x219;" horiz-adv-x="1003" 
d="M670 983q140 -38 206 -124t66 -232v-269q0 -175 -119 -276.5t-313 -101.5q-204 0 -319 93.5t-115 288.5v271h299v-289q0 -49 35 -78.5t92 -29.5q60 0 97.5 29t37.5 75v250q0 48 -27.5 78.5t-91.5 50.5l-203 51q-128 35 -187.5 118.5t-59.5 223.5v221q0 161 115.5 264
t314.5 103q105 0 186.5 -26.5t131 -73t74.5 -106t25 -128.5v-246h-294v213q0 54 -35 85.5t-90 31.5q-57 0 -91 -27.5t-34 -68.5v-209q0 -42 22.5 -67t79.5 -42zM408 -137v90h245v-94q0 -52 -37.5 -78.5t-105.5 -26.5h-102v60h92q51 0 51 36v15z" />
    <glyph glyph-name="uni021A" unicode="&#x21a;" horiz-adv-x="917" 
d="M2 1935h913v-266h-303v-1669h-307v1669h-303v266zM360 -125v90h246v-94q0 -104 -143 -104h-103v59h93q51 0 51 37v14z" />
    <glyph glyph-name="uni021B" unicode="&#x21b;" horiz-adv-x="763" 
d="M602 266h133v-266h-200q-170 0 -258.5 86t-88.5 240v1110h-174v245q51 0 87 4.5t63 18.5t43.5 30t29 48t19.5 63t16 84h224v-248h233v-245h-240v-1041q0 -129 113 -129zM350 -125v90h246v-94q0 -104 -143 -104h-103v59h92q52 0 52 37v14z" />
    <glyph glyph-name="Wgrave" unicode="&#x1e80;" horiz-adv-x="1677" 
d="M807 2163l121 -170h-107l-207 170h193zM1192 592h22l31 344l111 999h323l-270 -1933h-385l-135 950l-43 412h-19l-39 -412l-137 -952h-385l-266 1935h328l104 -999l33 -340h22l41 340l148 999h332l145 -999z" />
    <glyph glyph-name="wgrave" unicode="&#x1e81;" horiz-adv-x="1515" 
d="M723 1909l121 -170h-107l-207 170h193zM1079 580l19 251l69 855h310l-226 -1686h-327l-115 807l-33 268h-28l-35 -268l-117 -807h-336l-221 1686h309l78 -855l20 -251h23l27 251l137 855h258l133 -855l29 -251h26z" />
    <glyph glyph-name="Wacute" unicode="&#x1e82;" horiz-adv-x="1677" 
d="M885 2163h192l-207 -170h-106zM1192 592h22l31 344l111 999h323l-270 -1933h-385l-135 950l-43 412h-19l-39 -412l-137 -952h-385l-266 1935h328l104 -999l33 -340h22l41 340l148 999h332l145 -999z" />
    <glyph glyph-name="wacute" unicode="&#x1e83;" horiz-adv-x="1515" 
d="M801 1909h192l-207 -170h-106zM1079 580l19 251l69 855h310l-226 -1686h-327l-115 807l-33 268h-28l-35 -268l-117 -807h-336l-221 1686h309l78 -855l20 -251h23l27 251l137 855h258l133 -855l29 -251h26z" />
    <glyph glyph-name="Wdieresis" unicode="&#x1e84;" horiz-adv-x="1677" 
d="M653 2163h144v-162h-144v162zM887 2163h143v-162h-143v162zM1192 592h22l31 344l111 999h323l-270 -1933h-385l-135 950l-43 412h-19l-39 -412l-137 -952h-385l-266 1935h328l104 -999l33 -340h22l41 340l148 999h332l145 -999z" />
    <glyph glyph-name="wdieresis" unicode="&#x1e85;" horiz-adv-x="1515" 
d="M569 1909h144v-162h-144v162zM803 1909h143v-162h-143v162zM1079 580l19 251l69 855h310l-226 -1686h-327l-115 807l-33 268h-28l-35 -268l-117 -807h-336l-221 1686h309l78 -855l20 -251h23l27 251l137 855h258l133 -855l29 -251h26z" />
    <glyph glyph-name="Ygrave" unicode="&#x1ef2;" horiz-adv-x="1099" 
d="M516 2163l121 -170h-107l-206 170h192zM567 1102l56 250l122 583l338 2l-381 -1380v-557h-307v565l-381 1372l348 -2l125 -583l56 -250h24z" />
    <glyph glyph-name="ygrave" unicode="&#x1ef3;" horiz-adv-x="1005" 
d="M463 1909l121 -170h-107l-207 170h193zM520 522l49 355l80 804h318l-260 -1542q-23 -102 -64 -175t-95.5 -113.5t-113.5 -59t-127 -18.5h-252v252h158q82 0 119 59l-293 1597h311l99 -804l49 -355h22z" />
    <glyph glyph-name="endash" unicode="&#x2013;" horiz-adv-x="819" 
d="M18 1096h781v-254h-781v254z" />
    <glyph glyph-name="emdash" unicode="&#x2014;" horiz-adv-x="1247" 
d="M18 1096h1211v-254h-1211v254z" />
    <glyph glyph-name="quoteleft" unicode="&#x2018;" horiz-adv-x="583" 
d="M389 1833q-44 0 -64 -21t-20 -67v-25h144v-346h-308v379q0 87 52.5 136.5t154.5 49.5h103v-106h-62z" />
    <glyph glyph-name="quoteright" unicode="&#x2019;" horiz-adv-x="583" 
d="M137 1935h307v-379q0 -87 -52 -136.5t-154 -49.5h-103v107h62q44 0 64 21t20 67v24h-144v346z" />
    <glyph glyph-name="quotesinglbase" unicode="&#x201a;" horiz-adv-x="583" 
d="M139 346h307v-379q0 -87 -52 -136.5t-154 -49.5h-103v106h62q44 0 64 21t20 67v25h-144v346z" />
    <glyph glyph-name="quotedblleft" unicode="&#x201c;" horiz-adv-x="1069" 
d="M141 1753q0 87 52.5 136.5t154.5 49.5h103v-106h-62q-44 0 -64 -21t-20 -67v-25h144v-346h-308v379zM874 1833q-44 0 -63.5 -21t-19.5 -67v-25h143v-346h-307v379q0 87 52.5 136.5t154.5 49.5h102v-106h-62z" />
    <glyph glyph-name="quotedblright" unicode="&#x201d;" horiz-adv-x="1069" 
d="M137 1589v346h307v-379q0 -87 -52 -136.5t-154 -49.5h-103v107h62q44 0 64 21t20 67v24h-144zM623 1935h307v-379q0 -87 -52.5 -136.5t-154.5 -49.5h-102v107h61q44 0 64 21t20 67v24h-143v346z" />
    <glyph glyph-name="quotedblbase" unicode="&#x201e;" horiz-adv-x="1067" 
d="M139 0v346h307v-379q0 -87 -52 -136.5t-154 -49.5h-103v106h62q44 0 64 21t20 67v25h-144zM623 346h307v-379q0 -87 -52.5 -136.5t-154.5 -49.5h-102v106h61q44 0 64 21t20 67v25h-143v346z" />
    <glyph glyph-name="dagger" unicode="&#x2020;" horiz-adv-x="653" 
d="M592 1681v-188h-158v-477q-62 -25 -93.5 -80t-47.5 -150h-74v707h-158v188h158q116 46 139 242h76v-242h158z" />
    <glyph glyph-name="daggerdbl" unicode="&#x2021;" horiz-adv-x="653" 
d="M592 1493h-158v-287h158v-190h-158q-62 -25 -93.5 -80t-47.5 -150h-74v230h-158v190h158v287h-158v188h158q116 46 139 242h76v-242h158v-188z" />
    <glyph glyph-name="bullet" unicode="&#x2022;" horiz-adv-x="808" 
d="M711 1217v-625h-555v625h555z" />
    <glyph glyph-name="ellipsis" unicode="&#x2026;" horiz-adv-x="1738" 
d="M446 346v-346h-307v346h307zM1024 346v-346h-307v346h307zM1602 346v-346h-308v346h308z" />
    <glyph glyph-name="guilsinglleft" unicode="&#x2039;" horiz-adv-x="800" 
d="M397 842h-307l322 839h315zM397 840l330 -840h-315l-322 840h307z" />
    <glyph glyph-name="guilsinglright" unicode="&#x203a;" horiz-adv-x="800" 
d="M403 842l-329 839h315l322 -839h-308zM403 840h308l-322 -840h-315z" />
    <glyph glyph-name="Euro" unicode="&#x20ac;" horiz-adv-x="1142" 
d="M1044 1239h-299v289q0 85 -36.5 125.5t-98.5 40.5q-58 0 -98.5 -41.5t-40.5 -124.5v-406h377v-98h-377v-96h377v-99h-377v-423q0 -82 40 -123t99 -41q62 0 98.5 40t36.5 124v303h299v-332q0 -179 -113 -288t-321 -109q-212 0 -331 112t-119 320v417h-131v99h131v96h-131
v98h131v402q0 208 119 319t331 111q208 0 321 -109.5t113 -288.5v-317z" />
    <glyph glyph-name="trademark" unicode="&#x2122;" horiz-adv-x="1140" 
d="M446 1935v-145h-124v-719h-177v719h-125v145h426zM485 1935h207l74 -366l22 -174l21 174l76 366h209v-864h-166v322l6 239l-96 -561h-101l-92 561l6 -239v-322h-166v864z" />
    <glyph glyph-name="lozenge" unicode="&#x25ca;" horiz-adv-x="1499" 
d="M750 1892l-318 -1024h-307l321 1067h605l321 -1067h-307zM750 -158l315 1024h307l-321 -1067h-605l-321 1067h307z" />
    <glyph glyph-name="i.loclTRK" horiz-adv-x="528" 
d="M113 1909h301v-160h-301v160zM113 1681h303v-1681h-303v1681z" />
    <glyph glyph-name="_g.003" horiz-adv-x="2719" 
 />
    <glyph glyph-name="_a.002" horiz-adv-x="1382" 
 />
    <glyph glyph-name="_g.002" horiz-adv-x="2725" 
 />
    <glyph glyph-name="_S.001" horiz-adv-x="1310" 
 />
    <glyph glyph-name="_g.001" horiz-adv-x="1275" 
 />
    <glyph glyph-name="_a.001" horiz-adv-x="1288" 
 />
    <glyph glyph-name="newGlyph" horiz-adv-x="1228" 
 />
    <glyph glyph-name="newGlyph.001" horiz-adv-x="1228" 
 />
    <glyph glyph-name="_Adiac" horiz-adv-x="1138" 
d="M819 0l-53 377h-395l-54 -377h-317l360 1780h418l361 -1780h-320zM420 629h301l-68 540l-84 369l-84 -369z" />
    <glyph glyph-name="_Cdiac" horiz-adv-x="1079" 
d="M979 788v-421q0 -177 -108.5 -282t-313.5 -105q-210 0 -331.5 105.5t-121.5 301.5v1008q0 196 121.5 301.5t331.5 105.5q205 0 313.5 -104t108.5 -281v-379h-281v363q0 83 -39.5 124.5t-99.5 41.5q-59 0 -101 -41.5t-42 -124.5v-1020q0 -83 42 -124.5t101 -41.5
q60 0 99.5 41t39.5 125v407h281z" />
    <glyph glyph-name="_Ediac" horiz-adv-x="954" 
d="M434 254h467v-254h-774v1780h733v-254h-426v-504h363v-240h-363v-528z" />
    <glyph glyph-name="_Idiac" horiz-adv-x="561" 
d="M127 1780h307v-1780h-307v1780z" />
    <glyph glyph-name="_Odiac" horiz-adv-x="1118" 
d="M557 1802q211 0 334 -105.5t123 -301.5v-1008q0 -196 -123.5 -301.5t-333.5 -105.5t-331.5 105.5t-121.5 301.5v1008q0 196 121.5 301.5t331.5 105.5zM702 381v1020q0 83 -42 124.5t-103 41.5q-58 0 -99.5 -42t-41.5 -124v-1020q0 -83 41 -124.5t100 -41.5q61 0 103 41.5
t42 124.5z" />
    <glyph glyph-name="_Udiac" horiz-adv-x="1126" 
d="M1004 1780v-1401q0 -200 -115.5 -299.5t-327.5 -99.5q-209 0 -324.5 99t-115.5 294v1407h311v-1411q0 -154 129 -154q131 0 131 154v1411h312z" />
    <glyph glyph-name="_Zdiac" horiz-adv-x="929" 
d="M373 254h524v-254h-840v221l518 1305h-497v254h803l-2 -230z" />
    </font>
</defs>
</svg>
